<?xml version="1.0" encoding="UTF-8" standalone="no"?>
<!DOCTYPE svg PUBLIC "-//W3C//DTD SVG 1.1//EN"
 "http://www.w3.org/Graphics/SVG/1.1/DTD/svg11.dtd">
<!-- Generated by graphviz version 2.38.0 (20140413.2041)
 -->
<!-- Title: writable Pages: 1 -->
<svg width="71pt" height="97pt"
 viewBox="0.00 0.00 85.00 116.00" xmlns="http://www.w3.org/2000/svg" xmlns:xlink="http://www.w3.org/1999/xlink">
<g id="graph0" class="graph" transform="scale(0.833333 0.833333) rotate(0) translate(4 112)">
<title>writable</title>
<polygon fill="none" stroke="none" points="-4,4 -4,-112 81,-112 81,4 -4,4"/>
<!-- object -->
<g id="node1" class="node"><title>object</title>
<g id="a_node1"><a xlink:href="../PsiReference_Types.xhtml#PsiReference_Types_Details_object" xlink:title="object" target="_parent">
<polygon fill="linen" stroke="black" points="63.5,-108 7.5,-108 7.5,-72 69.5,-72 69.5,-102 63.5,-108"/>
<polyline fill="none" stroke="black" points="63.5,-108 63.5,-102 "/>
<polyline fill="none" stroke="black" points="69.5,-102 63.5,-102 "/>
<text text-anchor="middle" x="38.5" y="-86.3" font-family="monospace" font-size="14.00">object</text>
</a>
</g>
</g>
<!-- writable -->
<g id="node2" class="node"><title>writable</title>
<g id="a_node2"><a xlink:href="../PsiReference_Types.xhtml#PsiReference_Types_Details_writable" xlink:title="writable" target="_parent">
<polygon fill="wheat" stroke="black" points="71,-36 0,-36 0,-0 77,-0 77,-30 71,-36"/>
<polyline fill="none" stroke="black" points="71,-36 71,-30 "/>
<polyline fill="none" stroke="black" points="77,-30 71,-30 "/>
<text text-anchor="middle" x="38.5" y="-14.3" font-family="monospace" font-size="14.00">writable</text>
</a>
</g>
</g>
<!-- object&#45;&gt;writable -->
<g id="edge1" class="edge"><title>object&#45;&gt;writable</title>
<path fill="none" stroke="black" d="M38.5,-71.6966C38.5,-63.9827 38.5,-54.7125 38.5,-46.1124"/>
<polygon fill="black" stroke="black" points="42.0001,-46.1043 38.5,-36.1043 35.0001,-46.1044 42.0001,-46.1043"/>
</g>
</g>
</svg>
