<?xml version="1.0" encoding="UTF-8" standalone="no"?>
<!DOCTYPE svg PUBLIC "-//W3C//DTD SVG 1.1//EN"
 "http://www.w3.org/Graphics/SVG/1.1/DTD/svg11.dtd">
<!-- Generated by graphviz version 2.38.0 (20140413.2041)
 -->
<!-- Title: complex Pages: 1 -->
<svg width="150pt" height="277pt"
 viewBox="0.00 0.00 180.00 332.00" xmlns="http://www.w3.org/2000/svg" xmlns:xlink="http://www.w3.org/1999/xlink">
<g id="graph0" class="graph" transform="scale(0.833333 0.833333) rotate(0) translate(4 328)">
<title>complex</title>
<polygon fill="none" stroke="none" points="-4,4 -4,-328 176,-328 176,4 -4,4"/>
<!-- numeric -->
<g id="node1" class="node"><title>numeric</title>
<g id="a_node1"><a xlink:href="../PsiReference_Types.xhtml#PsiReference_Types_Details_numeric" xlink:title="numeric" target="_parent">
<polygon fill="linen" stroke="black" points="106.5,-108 43.5,-108 43.5,-72 112.5,-72 112.5,-102 106.5,-108"/>
<polyline fill="none" stroke="black" points="106.5,-108 106.5,-102 "/>
<polyline fill="none" stroke="black" points="112.5,-102 106.5,-102 "/>
<text text-anchor="middle" x="78" y="-86.3" font-family="monospace" font-size="14.00">numeric</text>
</a>
</g>
</g>
<!-- complex -->
<g id="node2" class="node"><title>complex</title>
<g id="a_node2"><a xlink:href="../PsiReference_Types.xhtml#PsiReference_Types_Details_complex" xlink:title="complex" target="_parent">
<polygon fill="wheat" stroke="black" points="106.5,-36 43.5,-36 43.5,-0 112.5,-0 112.5,-30 106.5,-36"/>
<polyline fill="none" stroke="black" points="106.5,-36 106.5,-30 "/>
<polyline fill="none" stroke="black" points="112.5,-30 106.5,-30 "/>
<text text-anchor="middle" x="78" y="-14.3" font-family="monospace" font-size="14.00">complex</text>
</a>
</g>
</g>
<!-- numeric&#45;&gt;complex -->
<g id="edge1" class="edge"><title>numeric&#45;&gt;complex</title>
<path fill="none" stroke="black" d="M78,-71.6966C78,-63.9827 78,-54.7125 78,-46.1124"/>
<polygon fill="black" stroke="black" points="81.5001,-46.1043 78,-36.1043 74.5001,-46.1044 81.5001,-46.1043"/>
</g>
<!-- arithmetic -->
<g id="node3" class="node"><title>arithmetic</title>
<g id="a_node3"><a xlink:href="../PsiReference_Types.xhtml#PsiReference_Types_Details_arithmetic" xlink:title="arithmetic" target="_parent">
<polygon fill="linen" stroke="black" points="166,-180 80,-180 80,-144 172,-144 172,-174 166,-180"/>
<polyline fill="none" stroke="black" points="166,-180 166,-174 "/>
<polyline fill="none" stroke="black" points="172,-174 166,-174 "/>
<text text-anchor="middle" x="126" y="-158.3" font-family="monospace" font-size="14.00">arithmetic</text>
</a>
</g>
</g>
<!-- arithmetic&#45;&gt;numeric -->
<g id="edge2" class="edge"><title>arithmetic&#45;&gt;numeric</title>
<path fill="none" stroke="black" d="M114.135,-143.697C108.497,-135.474 101.646,-125.483 95.4313,-116.421"/>
<polygon fill="black" stroke="black" points="98.2706,-114.372 89.7287,-108.104 92.4975,-118.331 98.2706,-114.372"/>
</g>
<!-- atomic -->
<g id="node4" class="node"><title>atomic</title>
<g id="a_node4"><a xlink:href="../PsiReference_Types.xhtml#PsiReference_Types_Details_atomic" xlink:title="atomic" target="_parent">
<polygon fill="linen" stroke="black" points="56,-180 3.55271e-15,-180 3.55271e-15,-144 62,-144 62,-174 56,-180"/>
<polyline fill="none" stroke="black" points="56,-180 56,-174 "/>
<polyline fill="none" stroke="black" points="62,-174 56,-174 "/>
<text text-anchor="middle" x="31" y="-158.3" font-family="monospace" font-size="14.00">atomic</text>
</a>
</g>
</g>
<!-- atomic&#45;&gt;numeric -->
<g id="edge3" class="edge"><title>atomic&#45;&gt;numeric</title>
<path fill="none" stroke="black" d="M42.618,-143.697C48.1388,-135.474 54.847,-125.483 60.9318,-116.421"/>
<polygon fill="black" stroke="black" points="63.8471,-118.358 66.5157,-108.104 58.0355,-114.456 63.8471,-118.358"/>
</g>
<!-- additive -->
<g id="node5" class="node"><title>additive</title>
<g id="a_node5"><a xlink:href="../PsiReference_Types.xhtml#PsiReference_Types_Details_additive" xlink:title="additive" target="_parent">
<polygon fill="linen" stroke="black" points="151.5,-252 80.5,-252 80.5,-216 157.5,-216 157.5,-246 151.5,-252"/>
<polyline fill="none" stroke="black" points="151.5,-252 151.5,-246 "/>
<polyline fill="none" stroke="black" points="157.5,-246 151.5,-246 "/>
<text text-anchor="middle" x="119" y="-230.3" font-family="monospace" font-size="14.00">additive</text>
</a>
</g>
</g>
<!-- additive&#45;&gt;arithmetic -->
<g id="edge4" class="edge"><title>additive&#45;&gt;arithmetic</title>
<path fill="none" stroke="black" d="M120.73,-215.697C121.502,-207.983 122.429,-198.712 123.289,-190.112"/>
<polygon fill="black" stroke="black" points="126.777,-190.403 124.29,-180.104 119.812,-189.706 126.777,-190.403"/>
</g>
<!-- object -->
<g id="node6" class="node"><title>object</title>
<g id="a_node6"><a xlink:href="../PsiReference_Types.xhtml#PsiReference_Types_Details_object" xlink:title="object" target="_parent">
<polygon fill="linen" stroke="black" points="107,-324 51,-324 51,-288 113,-288 113,-318 107,-324"/>
<polyline fill="none" stroke="black" points="107,-324 107,-318 "/>
<polyline fill="none" stroke="black" points="113,-318 107,-318 "/>
<text text-anchor="middle" x="82" y="-302.3" font-family="monospace" font-size="14.00">object</text>
</a>
</g>
</g>
<!-- object&#45;&gt;atomic -->
<g id="edge5" class="edge"><title>object&#45;&gt;atomic</title>
<path fill="none" stroke="black" d="M75.8482,-287.871C67.0796,-263.457 50.9064,-218.426 40.5661,-189.635"/>
<polygon fill="black" stroke="black" points="43.8478,-188.418 37.1736,-180.189 37.2598,-190.784 43.8478,-188.418"/>
</g>
<!-- object&#45;&gt;additive -->
<g id="edge6" class="edge"><title>object&#45;&gt;additive</title>
<path fill="none" stroke="black" d="M91.1461,-287.697C95.4026,-279.644 100.556,-269.894 105.266,-260.982"/>
<polygon fill="black" stroke="black" points="108.38,-262.581 109.959,-252.104 102.192,-259.31 108.38,-262.581"/>
</g>
</g>
</svg>
