<?xml version="1.0" encoding="UTF-8" standalone="no"?>
<!DOCTYPE svg PUBLIC "-//W3C//DTD SVG 1.1//EN"
 "http://www.w3.org/Graphics/SVG/1.1/DTD/svg11.dtd">
<!-- Generated by graphviz version 2.38.0 (20140413.2041)
 -->
<!-- Title: operator Pages: 1 -->
<svg width="71pt" height="157pt"
 viewBox="0.00 0.00 85.00 188.00" xmlns="http://www.w3.org/2000/svg" xmlns:xlink="http://www.w3.org/1999/xlink">
<g id="graph0" class="graph" transform="scale(0.833333 0.833333) rotate(0) translate(4 184)">
<title>operator</title>
<polygon fill="none" stroke="none" points="-4,4 -4,-184 81,-184 81,4 -4,4"/>
<!-- atomic -->
<g id="node1" class="node"><title>atomic</title>
<g id="a_node1"><a xlink:href="../PsiReference_Types.xhtml#PsiReference_Types_Details_atomic" xlink:title="atomic" target="_parent">
<polygon fill="linen" stroke="black" points="63.5,-108 7.5,-108 7.5,-72 69.5,-72 69.5,-102 63.5,-108"/>
<polyline fill="none" stroke="black" points="63.5,-108 63.5,-102 "/>
<polyline fill="none" stroke="black" points="69.5,-102 63.5,-102 "/>
<text text-anchor="middle" x="38.5" y="-86.3" font-family="monospace" font-size="14.00">atomic</text>
</a>
</g>
</g>
<!-- operator -->
<g id="node2" class="node"><title>operator</title>
<g id="a_node2"><a xlink:href="../PsiReference_Types.xhtml#PsiReference_Types_Details_operator" xlink:title="operator" target="_parent">
<polygon fill="wheat" stroke="black" points="71,-36 0,-36 0,-0 77,-0 77,-30 71,-36"/>
<polyline fill="none" stroke="black" points="71,-36 71,-30 "/>
<polyline fill="none" stroke="black" points="77,-30 71,-30 "/>
<text text-anchor="middle" x="38.5" y="-14.3" font-family="monospace" font-size="14.00">operator</text>
</a>
</g>
</g>
<!-- atomic&#45;&gt;operator -->
<g id="edge1" class="edge"><title>atomic&#45;&gt;operator</title>
<path fill="none" stroke="black" d="M38.5,-71.6966C38.5,-63.9827 38.5,-54.7125 38.5,-46.1124"/>
<polygon fill="black" stroke="black" points="42.0001,-46.1043 38.5,-36.1043 35.0001,-46.1044 42.0001,-46.1043"/>
</g>
<!-- object -->
<g id="node3" class="node"><title>object</title>
<g id="a_node3"><a xlink:href="../PsiReference_Types.xhtml#PsiReference_Types_Details_object" xlink:title="object" target="_parent">
<polygon fill="linen" stroke="black" points="63.5,-180 7.5,-180 7.5,-144 69.5,-144 69.5,-174 63.5,-180"/>
<polyline fill="none" stroke="black" points="63.5,-180 63.5,-174 "/>
<polyline fill="none" stroke="black" points="69.5,-174 63.5,-174 "/>
<text text-anchor="middle" x="38.5" y="-158.3" font-family="monospace" font-size="14.00">object</text>
</a>
</g>
</g>
<!-- object&#45;&gt;atomic -->
<g id="edge2" class="edge"><title>object&#45;&gt;atomic</title>
<path fill="none" stroke="black" d="M38.5,-143.697C38.5,-135.983 38.5,-126.712 38.5,-118.112"/>
<polygon fill="black" stroke="black" points="42.0001,-118.104 38.5,-108.104 35.0001,-118.104 42.0001,-118.104"/>
</g>
</g>
</svg>
