<?xml version="1.0" encoding="UTF-8" standalone="no"?>
<!DOCTYPE svg PUBLIC "-//W3C//DTD SVG 1.1//EN"
 "http://www.w3.org/Graphics/SVG/1.1/DTD/svg11.dtd">
<!-- Generated by graphviz version 2.38.0 (20140413.2041)
 -->
<!-- Title: queuelike Pages: 1 -->
<svg width="229pt" height="217pt"
 viewBox="0.00 0.00 275.00 260.00" xmlns="http://www.w3.org/2000/svg" xmlns:xlink="http://www.w3.org/1999/xlink">
<g id="graph0" class="graph" transform="scale(0.833333 0.833333) rotate(0) translate(4 256)">
<title>queuelike</title>
<polygon fill="none" stroke="none" points="-4,4 -4,-256 271,-256 271,4 -4,4"/>
<!-- bounded -->
<g id="node1" class="node"><title>bounded</title>
<g id="a_node1"><a xlink:href="../PsiReference_Types.xhtml#PsiReference_Types_Details_bounded" xlink:title="bounded" target="_parent">
<polygon fill="linen" stroke="black" points="63,-108 0,-108 0,-72 69,-72 69,-102 63,-108"/>
<polyline fill="none" stroke="black" points="63,-108 63,-102 "/>
<polyline fill="none" stroke="black" points="69,-102 63,-102 "/>
<text text-anchor="middle" x="34.5" y="-86.3" font-family="monospace" font-size="14.00">bounded</text>
</a>
</g>
</g>
<!-- queuelike -->
<g id="node3" class="node"><title>queuelike</title>
<g id="a_node3"><a xlink:href="../PsiReference_Types.xhtml#PsiReference_Types_Details_queuelike" xlink:title="queuelike" target="_parent">
<polygon fill="wheat" stroke="black" points="117.5,-36 39.5,-36 39.5,-0 123.5,-0 123.5,-30 117.5,-36"/>
<polyline fill="none" stroke="black" points="117.5,-36 117.5,-30 "/>
<polyline fill="none" stroke="black" points="123.5,-30 117.5,-30 "/>
<text text-anchor="middle" x="81.5" y="-14.3" font-family="monospace" font-size="14.00">queuelike</text>
</a>
</g>
</g>
<!-- bounded&#45;&gt;queuelike -->
<g id="edge1" class="edge"><title>bounded&#45;&gt;queuelike</title>
<path fill="none" stroke="black" d="M46.118,-71.6966C51.6388,-63.4741 58.347,-53.4832 64.4318,-44.4207"/>
<polygon fill="black" stroke="black" points="67.3471,-46.3576 70.0157,-36.1043 61.5355,-42.4555 67.3471,-46.3576"/>
</g>
<!-- container -->
<g id="node2" class="node"><title>container</title>
<g id="a_node2"><a xlink:href="../PsiReference_Types.xhtml#PsiReference_Types_Details_container" xlink:title="container" target="_parent">
<polygon fill="linen" stroke="black" points="165.5,-108 87.5,-108 87.5,-72 171.5,-72 171.5,-102 165.5,-108"/>
<polyline fill="none" stroke="black" points="165.5,-108 165.5,-102 "/>
<polyline fill="none" stroke="black" points="171.5,-102 165.5,-102 "/>
<text text-anchor="middle" x="129.5" y="-86.3" font-family="monospace" font-size="14.00">container</text>
</a>
</g>
</g>
<!-- container&#45;&gt;queuelike -->
<g id="edge2" class="edge"><title>container&#45;&gt;queuelike</title>
<path fill="none" stroke="black" d="M117.635,-71.6966C111.997,-63.4741 105.146,-53.4832 98.9313,-44.4207"/>
<polygon fill="black" stroke="black" points="101.771,-42.3723 93.2287,-36.1043 95.9975,-46.331 101.771,-42.3723"/>
</g>
<!-- lengthy -->
<g id="node4" class="node"><title>lengthy</title>
<g id="a_node4"><a xlink:href="../PsiReference_Types.xhtml#PsiReference_Types_Details_lengthy" xlink:title="lengthy" target="_parent">
<polygon fill="linen" stroke="black" points="63,-180 0,-180 0,-144 69,-144 69,-174 63,-180"/>
<polyline fill="none" stroke="black" points="63,-180 63,-174 "/>
<polyline fill="none" stroke="black" points="69,-174 63,-174 "/>
<text text-anchor="middle" x="34.5" y="-158.3" font-family="monospace" font-size="14.00">lengthy</text>
</a>
</g>
</g>
<!-- lengthy&#45;&gt;bounded -->
<g id="edge3" class="edge"><title>lengthy&#45;&gt;bounded</title>
<path fill="none" stroke="black" d="M34.5,-143.697C34.5,-135.983 34.5,-126.712 34.5,-118.112"/>
<polygon fill="black" stroke="black" points="38.0001,-118.104 34.5,-108.104 31.0001,-118.104 38.0001,-118.104"/>
</g>
<!-- lengthy&#45;&gt;container -->
<g id="edge6" class="edge"><title>lengthy&#45;&gt;container</title>
<path fill="none" stroke="black" d="M57.9832,-143.697C70.0626,-134.796 84.9542,-123.823 98.0158,-114.199"/>
<polygon fill="black" stroke="black" points="100.313,-116.854 106.287,-108.104 96.1602,-111.219 100.313,-116.854"/>
</g>
<!-- clearable -->
<g id="node5" class="node"><title>clearable</title>
<g id="a_node5"><a xlink:href="../PsiReference_Types.xhtml#PsiReference_Types_Details_clearable" xlink:title="clearable" target="_parent">
<polygon fill="linen" stroke="black" points="165.5,-180 87.5,-180 87.5,-144 171.5,-144 171.5,-174 165.5,-180"/>
<polyline fill="none" stroke="black" points="165.5,-180 165.5,-174 "/>
<polyline fill="none" stroke="black" points="171.5,-174 165.5,-174 "/>
<text text-anchor="middle" x="129.5" y="-158.3" font-family="monospace" font-size="14.00">clearable</text>
</a>
</g>
</g>
<!-- clearable&#45;&gt;container -->
<g id="edge4" class="edge"><title>clearable&#45;&gt;container</title>
<path fill="none" stroke="black" d="M129.5,-143.697C129.5,-135.983 129.5,-126.712 129.5,-118.112"/>
<polygon fill="black" stroke="black" points="133,-118.104 129.5,-108.104 126,-118.104 133,-118.104"/>
</g>
<!-- iterable -->
<g id="node6" class="node"><title>iterable</title>
<g id="a_node6"><a xlink:href="../PsiReference_Types.xhtml#PsiReference_Types_Details_iterable" xlink:title="iterable" target="_parent">
<polygon fill="linen" stroke="black" points="261,-180 190,-180 190,-144 267,-144 267,-174 261,-180"/>
<polyline fill="none" stroke="black" points="261,-180 261,-174 "/>
<polyline fill="none" stroke="black" points="267,-174 261,-174 "/>
<text text-anchor="middle" x="228.5" y="-158.3" font-family="monospace" font-size="14.00">iterable</text>
</a>
</g>
</g>
<!-- iterable&#45;&gt;container -->
<g id="edge5" class="edge"><title>iterable&#45;&gt;container</title>
<path fill="none" stroke="black" d="M204.282,-143.876C191.577,-134.893 175.836,-123.763 162.077,-114.034"/>
<polygon fill="black" stroke="black" points="163.997,-111.105 153.811,-108.19 159.956,-116.821 163.997,-111.105"/>
</g>
<!-- object -->
<g id="node7" class="node"><title>object</title>
<g id="a_node7"><a xlink:href="../PsiReference_Types.xhtml#PsiReference_Types_Details_object" xlink:title="object" target="_parent">
<polygon fill="linen" stroke="black" points="154.5,-252 98.5,-252 98.5,-216 160.5,-216 160.5,-246 154.5,-252"/>
<polyline fill="none" stroke="black" points="154.5,-252 154.5,-246 "/>
<polyline fill="none" stroke="black" points="160.5,-246 154.5,-246 "/>
<text text-anchor="middle" x="129.5" y="-230.3" font-family="monospace" font-size="14.00">object</text>
</a>
</g>
</g>
<!-- object&#45;&gt;lengthy -->
<g id="edge7" class="edge"><title>object&#45;&gt;lengthy</title>
<path fill="none" stroke="black" d="M106.017,-215.697C93.9374,-206.796 79.0458,-195.823 65.9842,-186.199"/>
<polygon fill="black" stroke="black" points="67.8398,-183.219 57.713,-180.104 63.6874,-188.854 67.8398,-183.219"/>
</g>
<!-- object&#45;&gt;clearable -->
<g id="edge8" class="edge"><title>object&#45;&gt;clearable</title>
<path fill="none" stroke="black" d="M129.5,-215.697C129.5,-207.983 129.5,-198.712 129.5,-190.112"/>
<polygon fill="black" stroke="black" points="133,-190.104 129.5,-180.104 126,-190.104 133,-190.104"/>
</g>
<!-- object&#45;&gt;iterable -->
<g id="edge9" class="edge"><title>object&#45;&gt;iterable</title>
<path fill="none" stroke="black" d="M153.718,-215.876C166.423,-206.893 182.164,-195.763 195.923,-186.034"/>
<polygon fill="black" stroke="black" points="198.044,-188.821 204.189,-180.19 194.003,-183.105 198.044,-188.821"/>
</g>
</g>
</svg>
