<?xml version="1.0" encoding="UTF-8" standalone="no"?>
<!DOCTYPE svg PUBLIC "-//W3C//DTD SVG 1.1//EN"
 "http://www.w3.org/Graphics/SVG/1.1/DTD/svg11.dtd">
<!-- Generated by graphviz version 2.38.0 (20140413.2041)
 -->
<!-- Title: appendable Pages: 1 -->
<svg width="83pt" height="97pt"
 viewBox="0.00 0.00 100.00 116.00" xmlns="http://www.w3.org/2000/svg" xmlns:xlink="http://www.w3.org/1999/xlink">
<g id="graph0" class="graph" transform="scale(0.833333 0.833333) rotate(0) translate(4 112)">
<title>appendable</title>
<polygon fill="none" stroke="none" points="-4,4 -4,-112 96,-112 96,4 -4,4"/>
<!-- object -->
<g id="node1" class="node"><title>object</title>
<g id="a_node1"><a xlink:href="../PsiReference_Types.xhtml#PsiReference_Types_Details_object" xlink:title="object" target="_parent">
<polygon fill="linen" stroke="black" points="71,-108 15,-108 15,-72 77,-72 77,-102 71,-108"/>
<polyline fill="none" stroke="black" points="71,-108 71,-102 "/>
<polyline fill="none" stroke="black" points="77,-102 71,-102 "/>
<text text-anchor="middle" x="46" y="-86.3" font-family="monospace" font-size="14.00">object</text>
</a>
</g>
</g>
<!-- appendable -->
<g id="node2" class="node"><title>appendable</title>
<g id="a_node2"><a xlink:href="../PsiReference_Types.xhtml#PsiReference_Types_Details_appendable" xlink:title="appendable" target="_parent">
<polygon fill="wheat" stroke="black" points="86,-36 0,-36 0,-0 92,-0 92,-30 86,-36"/>
<polyline fill="none" stroke="black" points="86,-36 86,-30 "/>
<polyline fill="none" stroke="black" points="92,-30 86,-30 "/>
<text text-anchor="middle" x="46" y="-14.3" font-family="monospace" font-size="14.00">appendable</text>
</a>
</g>
</g>
<!-- object&#45;&gt;appendable -->
<g id="edge1" class="edge"><title>object&#45;&gt;appendable</title>
<path fill="none" stroke="black" d="M46,-71.6966C46,-63.9827 46,-54.7125 46,-46.1124"/>
<polygon fill="black" stroke="black" points="49.5001,-46.1043 46,-36.1043 42.5001,-46.1044 49.5001,-46.1043"/>
</g>
</g>
</svg>
