<?xml version="1.0" encoding="UTF-8" standalone="no"?>
<!DOCTYPE svg PUBLIC "-//W3C//DTD SVG 1.1//EN"
 "http://www.w3.org/Graphics/SVG/1.1/DTD/svg11.dtd">
<!-- Generated by graphviz version 2.38.0 (20140413.2041)
 -->
<!-- Title: namespace Pages: 1 -->
<svg width="266pt" height="337pt"
 viewBox="0.00 0.00 319.00 404.00" xmlns="http://www.w3.org/2000/svg" xmlns:xlink="http://www.w3.org/1999/xlink">
<g id="graph0" class="graph" transform="scale(0.833333 0.833333) rotate(0) translate(4 400)">
<title>namespace</title>
<polygon fill="none" stroke="none" points="-4,4 -4,-400 315,-400 315,4 -4,4"/>
<!-- dict -->
<g id="node1" class="node"><title>dict</title>
<g id="a_node1"><a xlink:href="../PsiReference_Types.xhtml#PsiReference_Types_Details_dict" xlink:title="dict" target="_parent">
<polygon fill="linen" stroke="black" points="121.5,-108 73.5,-108 73.5,-72 127.5,-72 127.5,-102 121.5,-108"/>
<polyline fill="none" stroke="black" points="121.5,-108 121.5,-102 "/>
<polyline fill="none" stroke="black" points="127.5,-102 121.5,-102 "/>
<text text-anchor="middle" x="100.5" y="-86.3" font-family="monospace" font-size="14.00">dict</text>
</a>
</g>
</g>
<!-- namespace -->
<g id="node2" class="node"><title>namespace</title>
<g id="a_node2"><a xlink:href="../PsiReference_Types.xhtml#PsiReference_Types_Details_namespace" xlink:title="namespace" target="_parent">
<polygon fill="wheat" stroke="black" points="136.5,-36 58.5,-36 58.5,-0 142.5,-0 142.5,-30 136.5,-36"/>
<polyline fill="none" stroke="black" points="136.5,-36 136.5,-30 "/>
<polyline fill="none" stroke="black" points="142.5,-30 136.5,-30 "/>
<text text-anchor="middle" x="100.5" y="-14.3" font-family="monospace" font-size="14.00">namespace</text>
</a>
</g>
</g>
<!-- dict&#45;&gt;namespace -->
<g id="edge1" class="edge"><title>dict&#45;&gt;namespace</title>
<path fill="none" stroke="black" d="M100.5,-71.6966C100.5,-63.9827 100.5,-54.7125 100.5,-46.1124"/>
<polygon fill="black" stroke="black" points="104,-46.1043 100.5,-36.1043 97.0001,-46.1044 104,-46.1043"/>
</g>
<!-- dictlike -->
<g id="node3" class="node"><title>dictlike</title>
<g id="a_node3"><a xlink:href="../PsiReference_Types.xhtml#PsiReference_Types_Details_dictlike" xlink:title="dictlike" target="_parent">
<polygon fill="linen" stroke="black" points="133,-180 62,-180 62,-144 139,-144 139,-174 133,-180"/>
<polyline fill="none" stroke="black" points="133,-180 133,-174 "/>
<polyline fill="none" stroke="black" points="139,-174 133,-174 "/>
<text text-anchor="middle" x="100.5" y="-158.3" font-family="monospace" font-size="14.00">dictlike</text>
</a>
</g>
</g>
<!-- dictlike&#45;&gt;dict -->
<g id="edge2" class="edge"><title>dictlike&#45;&gt;dict</title>
<path fill="none" stroke="black" d="M100.5,-143.697C100.5,-135.983 100.5,-126.712 100.5,-118.112"/>
<polygon fill="black" stroke="black" points="104,-118.104 100.5,-108.104 97.0001,-118.104 104,-118.104"/>
</g>
<!-- container -->
<g id="node4" class="node"><title>container</title>
<g id="a_node4"><a xlink:href="../PsiReference_Types.xhtml#PsiReference_Types_Details_container" xlink:title="container" target="_parent">
<polygon fill="linen" stroke="black" points="202.5,-252 124.5,-252 124.5,-216 208.5,-216 208.5,-246 202.5,-252"/>
<polyline fill="none" stroke="black" points="202.5,-252 202.5,-246 "/>
<polyline fill="none" stroke="black" points="208.5,-246 202.5,-246 "/>
<text text-anchor="middle" x="166.5" y="-230.3" font-family="monospace" font-size="14.00">container</text>
</a>
</g>
</g>
<!-- container&#45;&gt;dictlike -->
<g id="edge3" class="edge"><title>container&#45;&gt;dictlike</title>
<path fill="none" stroke="black" d="M150.185,-215.697C142.193,-207.22 132.428,-196.864 123.678,-187.583"/>
<polygon fill="black" stroke="black" points="126.034,-184.979 116.627,-180.104 120.941,-189.781 126.034,-184.979"/>
</g>
<!-- indexed -->
<g id="node5" class="node"><title>indexed</title>
<g id="a_node5"><a xlink:href="../PsiReference_Types.xhtml#PsiReference_Types_Details_indexed" xlink:title="indexed" target="_parent">
<polygon fill="linen" stroke="black" points="63,-252 0,-252 0,-216 69,-216 69,-246 63,-252"/>
<polyline fill="none" stroke="black" points="63,-252 63,-246 "/>
<polyline fill="none" stroke="black" points="69,-246 63,-246 "/>
<text text-anchor="middle" x="34.5" y="-230.3" font-family="monospace" font-size="14.00">indexed</text>
</a>
</g>
</g>
<!-- indexed&#45;&gt;dictlike -->
<g id="edge4" class="edge"><title>indexed&#45;&gt;dictlike</title>
<path fill="none" stroke="black" d="M50.8146,-215.697C58.807,-207.22 68.5715,-196.864 77.3221,-187.583"/>
<polygon fill="black" stroke="black" points="80.0595,-189.781 84.3731,-180.104 74.9663,-184.979 80.0595,-189.781"/>
</g>
<!-- clearable -->
<g id="node6" class="node"><title>clearable</title>
<g id="a_node6"><a xlink:href="../PsiReference_Types.xhtml#PsiReference_Types_Details_clearable" xlink:title="clearable" target="_parent">
<polygon fill="linen" stroke="black" points="122.5,-324 44.5,-324 44.5,-288 128.5,-288 128.5,-318 122.5,-324"/>
<polyline fill="none" stroke="black" points="122.5,-324 122.5,-318 "/>
<polyline fill="none" stroke="black" points="128.5,-318 122.5,-318 "/>
<text text-anchor="middle" x="86.5" y="-302.3" font-family="monospace" font-size="14.00">clearable</text>
</a>
</g>
</g>
<!-- clearable&#45;&gt;container -->
<g id="edge5" class="edge"><title>clearable&#45;&gt;container</title>
<path fill="none" stroke="black" d="M106.275,-287.697C116.254,-278.965 128.511,-268.24 139.357,-258.75"/>
<polygon fill="black" stroke="black" points="141.731,-261.323 146.952,-252.104 137.122,-256.055 141.731,-261.323"/>
</g>
<!-- iterable -->
<g id="node7" class="node"><title>iterable</title>
<g id="a_node7"><a xlink:href="../PsiReference_Types.xhtml#PsiReference_Types_Details_iterable" xlink:title="iterable" target="_parent">
<polygon fill="linen" stroke="black" points="218,-324 147,-324 147,-288 224,-288 224,-318 218,-324"/>
<polyline fill="none" stroke="black" points="218,-324 218,-318 "/>
<polyline fill="none" stroke="black" points="224,-318 218,-318 "/>
<text text-anchor="middle" x="185.5" y="-302.3" font-family="monospace" font-size="14.00">iterable</text>
</a>
</g>
</g>
<!-- iterable&#45;&gt;container -->
<g id="edge6" class="edge"><title>iterable&#45;&gt;container</title>
<path fill="none" stroke="black" d="M180.803,-287.697C178.687,-279.898 176.138,-270.509 173.782,-261.829"/>
<polygon fill="black" stroke="black" points="177.14,-260.838 171.143,-252.104 170.384,-262.672 177.14,-260.838"/>
</g>
<!-- lengthy -->
<g id="node8" class="node"><title>lengthy</title>
<g id="a_node8"><a xlink:href="../PsiReference_Types.xhtml#PsiReference_Types_Details_lengthy" xlink:title="lengthy" target="_parent">
<polygon fill="linen" stroke="black" points="305,-324 242,-324 242,-288 311,-288 311,-318 305,-324"/>
<polyline fill="none" stroke="black" points="305,-324 305,-318 "/>
<polyline fill="none" stroke="black" points="311,-318 305,-318 "/>
<text text-anchor="middle" x="276.5" y="-302.3" font-family="monospace" font-size="14.00">lengthy</text>
</a>
</g>
</g>
<!-- lengthy&#45;&gt;container -->
<g id="edge7" class="edge"><title>lengthy&#45;&gt;container</title>
<path fill="none" stroke="black" d="M249.591,-287.876C235.342,-278.808 217.654,-267.552 202.264,-257.759"/>
<polygon fill="black" stroke="black" points="203.828,-254.606 193.512,-252.19 200.07,-260.511 203.828,-254.606"/>
</g>
<!-- object -->
<g id="node9" class="node"><title>object</title>
<g id="a_node9"><a xlink:href="../PsiReference_Types.xhtml#PsiReference_Types_Details_object" xlink:title="object" target="_parent">
<polygon fill="linen" stroke="black" points="160.5,-396 104.5,-396 104.5,-360 166.5,-360 166.5,-390 160.5,-396"/>
<polyline fill="none" stroke="black" points="160.5,-396 160.5,-390 "/>
<polyline fill="none" stroke="black" points="166.5,-390 160.5,-390 "/>
<text text-anchor="middle" x="135.5" y="-374.3" font-family="monospace" font-size="14.00">object</text>
</a>
</g>
</g>
<!-- object&#45;&gt;indexed -->
<g id="edge8" class="edge"><title>object&#45;&gt;indexed</title>
<path fill="none" stroke="black" d="M104.247,-369.621C80.8554,-362.29 50.4292,-348.496 35.5,-324 24.2888,-305.604 24.992,-280.85 27.9576,-262.118"/>
<polygon fill="black" stroke="black" points="31.4247,-262.619 29.8342,-252.144 24.5454,-261.324 31.4247,-262.619"/>
</g>
<!-- object&#45;&gt;clearable -->
<g id="edge9" class="edge"><title>object&#45;&gt;clearable</title>
<path fill="none" stroke="black" d="M123.388,-359.697C117.632,-351.474 110.638,-341.483 104.294,-332.421"/>
<polygon fill="black" stroke="black" points="107.075,-330.29 98.473,-324.104 101.34,-334.304 107.075,-330.29"/>
</g>
<!-- object&#45;&gt;iterable -->
<g id="edge10" class="edge"><title>object&#45;&gt;iterable</title>
<path fill="none" stroke="black" d="M147.86,-359.697C153.733,-351.474 160.869,-341.483 167.342,-332.421"/>
<polygon fill="black" stroke="black" points="170.318,-334.276 173.283,-324.104 164.622,-330.207 170.318,-334.276"/>
</g>
<!-- object&#45;&gt;lengthy -->
<g id="edge11" class="edge"><title>object&#45;&gt;lengthy</title>
<path fill="none" stroke="black" d="M166.792,-361.465C186.228,-351.816 211.492,-339.273 232.876,-328.657"/>
<polygon fill="black" stroke="black" points="234.683,-331.668 242.084,-324.086 231.57,-325.398 234.683,-331.668"/>
</g>
</g>
</svg>
