<?xml version="1.0" encoding="UTF-8" standalone="no"?>
<!DOCTYPE svg PUBLIC "-//W3C//DTD SVG 1.1//EN"
 "http://www.w3.org/Graphics/SVG/1.1/DTD/svg11.dtd">
<!-- Generated by graphviz version 2.38.0 (20140413.2041)
 -->
<!-- Title: setlike Pages: 1 -->
<svg width="277pt" height="217pt"
 viewBox="0.00 0.00 332.50 260.00" xmlns="http://www.w3.org/2000/svg" xmlns:xlink="http://www.w3.org/1999/xlink">
<g id="graph0" class="graph" transform="scale(0.833333 0.833333) rotate(0) translate(4 256)">
<title>setlike</title>
<polygon fill="none" stroke="none" points="-4,4 -4,-256 328.5,-256 328.5,4 -4,4"/>
<!-- appendable -->
<g id="node1" class="node"><title>appendable</title>
<g id="a_node1"><a xlink:href="../PsiReference_Types.xhtml#PsiReference_Types_Details_appendable" xlink:title="appendable" target="_parent">
<polygon fill="linen" stroke="black" points="86,-108 0,-108 0,-72 92,-72 92,-102 86,-108"/>
<polyline fill="none" stroke="black" points="86,-108 86,-102 "/>
<polyline fill="none" stroke="black" points="92,-102 86,-102 "/>
<text text-anchor="middle" x="46" y="-86.3" font-family="monospace" font-size="14.00">appendable</text>
</a>
</g>
</g>
<!-- setlike -->
<g id="node3" class="node"><title>setlike</title>
<g id="a_node3"><a xlink:href="../PsiReference_Types.xhtml#PsiReference_Types_Details_setlike" xlink:title="setlike" target="_parent">
<polygon fill="wheat" stroke="black" points="142.5,-36 79.5,-36 79.5,-0 148.5,-0 148.5,-30 142.5,-36"/>
<polyline fill="none" stroke="black" points="142.5,-36 142.5,-30 "/>
<polyline fill="none" stroke="black" points="148.5,-30 142.5,-30 "/>
<text text-anchor="middle" x="114" y="-14.3" font-family="monospace" font-size="14.00">setlike</text>
</a>
</g>
</g>
<!-- appendable&#45;&gt;setlike -->
<g id="edge1" class="edge"><title>appendable&#45;&gt;setlike</title>
<path fill="none" stroke="black" d="M62.809,-71.6966C71.126,-63.135 81.3054,-52.6562 90.3899,-43.3045"/>
<polygon fill="black" stroke="black" points="92.927,-45.7159 97.3844,-36.1043 87.906,-40.8384 92.927,-45.7159"/>
</g>
<!-- container -->
<g id="node2" class="node"><title>container</title>
<g id="a_node2"><a xlink:href="../PsiReference_Types.xhtml#PsiReference_Types_Details_container" xlink:title="container" target="_parent">
<polygon fill="linen" stroke="black" points="219,-108 141,-108 141,-72 225,-72 225,-102 219,-108"/>
<polyline fill="none" stroke="black" points="219,-108 219,-102 "/>
<polyline fill="none" stroke="black" points="225,-102 219,-102 "/>
<text text-anchor="middle" x="183" y="-86.3" font-family="monospace" font-size="14.00">container</text>
</a>
</g>
</g>
<!-- container&#45;&gt;setlike -->
<g id="edge2" class="edge"><title>container&#45;&gt;setlike</title>
<path fill="none" stroke="black" d="M165.944,-71.6966C157.505,-63.135 147.175,-52.6562 137.957,-43.3045"/>
<polygon fill="black" stroke="black" points="140.373,-40.7691 130.86,-36.1043 135.387,-45.6831 140.373,-40.7691"/>
</g>
<!-- object -->
<g id="node4" class="node"><title>object</title>
<g id="a_node4"><a xlink:href="../PsiReference_Types.xhtml#PsiReference_Types_Details_object" xlink:title="object" target="_parent">
<polygon fill="linen" stroke="black" points="174,-252 118,-252 118,-216 180,-216 180,-246 174,-252"/>
<polyline fill="none" stroke="black" points="174,-252 174,-246 "/>
<polyline fill="none" stroke="black" points="180,-246 174,-246 "/>
<text text-anchor="middle" x="149" y="-230.3" font-family="monospace" font-size="14.00">object</text>
</a>
</g>
</g>
<!-- object&#45;&gt;appendable -->
<g id="edge3" class="edge"><title>object&#45;&gt;appendable</title>
<path fill="none" stroke="black" d="M117.898,-225.528C94.591,-218.145 64.2034,-204.327 49,-180 37.5772,-161.722 37.7061,-136.957 40.1926,-118.191"/>
<polygon fill="black" stroke="black" points="43.6675,-118.627 41.8085,-108.196 36.7572,-117.509 43.6675,-118.627"/>
</g>
<!-- clearable -->
<g id="node5" class="node"><title>clearable</title>
<g id="a_node5"><a xlink:href="../PsiReference_Types.xhtml#PsiReference_Types_Details_clearable" xlink:title="clearable" target="_parent">
<polygon fill="linen" stroke="black" points="136,-180 58,-180 58,-144 142,-144 142,-174 136,-180"/>
<polyline fill="none" stroke="black" points="136,-180 136,-174 "/>
<polyline fill="none" stroke="black" points="142,-174 136,-174 "/>
<text text-anchor="middle" x="100" y="-158.3" font-family="monospace" font-size="14.00">clearable</text>
</a>
</g>
</g>
<!-- object&#45;&gt;clearable -->
<g id="edge7" class="edge"><title>object&#45;&gt;clearable</title>
<path fill="none" stroke="black" d="M136.888,-215.697C131.132,-207.474 124.138,-197.483 117.794,-188.421"/>
<polygon fill="black" stroke="black" points="120.575,-186.29 111.973,-180.104 114.84,-190.304 120.575,-186.29"/>
</g>
<!-- iterable -->
<g id="node6" class="node"><title>iterable</title>
<g id="a_node6"><a xlink:href="../PsiReference_Types.xhtml#PsiReference_Types_Details_iterable" xlink:title="iterable" target="_parent">
<polygon fill="linen" stroke="black" points="231.5,-180 160.5,-180 160.5,-144 237.5,-144 237.5,-174 231.5,-180"/>
<polyline fill="none" stroke="black" points="231.5,-180 231.5,-174 "/>
<polyline fill="none" stroke="black" points="237.5,-174 231.5,-174 "/>
<text text-anchor="middle" x="199" y="-158.3" font-family="monospace" font-size="14.00">iterable</text>
</a>
</g>
</g>
<!-- object&#45;&gt;iterable -->
<g id="edge8" class="edge"><title>object&#45;&gt;iterable</title>
<path fill="none" stroke="black" d="M161.36,-215.697C167.233,-207.474 174.369,-197.483 180.842,-188.421"/>
<polygon fill="black" stroke="black" points="183.818,-190.276 186.783,-180.104 178.122,-186.207 183.818,-190.276"/>
</g>
<!-- lengthy -->
<g id="node7" class="node"><title>lengthy</title>
<g id="a_node7"><a xlink:href="../PsiReference_Types.xhtml#PsiReference_Types_Details_lengthy" xlink:title="lengthy" target="_parent">
<polygon fill="linen" stroke="black" points="318.5,-180 255.5,-180 255.5,-144 324.5,-144 324.5,-174 318.5,-180"/>
<polyline fill="none" stroke="black" points="318.5,-180 318.5,-174 "/>
<polyline fill="none" stroke="black" points="324.5,-174 318.5,-174 "/>
<text text-anchor="middle" x="290" y="-158.3" font-family="monospace" font-size="14.00">lengthy</text>
</a>
</g>
</g>
<!-- object&#45;&gt;lengthy -->
<g id="edge9" class="edge"><title>object&#45;&gt;lengthy</title>
<path fill="none" stroke="black" d="M180.292,-217.465C199.728,-207.816 224.992,-195.273 246.376,-184.657"/>
<polygon fill="black" stroke="black" points="248.183,-187.668 255.584,-180.086 245.07,-181.398 248.183,-187.668"/>
</g>
<!-- clearable&#45;&gt;container -->
<g id="edge4" class="edge"><title>clearable&#45;&gt;container</title>
<path fill="none" stroke="black" d="M120.517,-143.697C130.869,-134.965 143.586,-124.24 154.839,-114.75"/>
<polygon fill="black" stroke="black" points="157.331,-117.227 162.719,-108.104 152.818,-111.876 157.331,-117.227"/>
</g>
<!-- iterable&#45;&gt;container -->
<g id="edge5" class="edge"><title>iterable&#45;&gt;container</title>
<path fill="none" stroke="black" d="M195.045,-143.697C193.282,-135.983 191.163,-126.712 189.197,-118.112"/>
<polygon fill="black" stroke="black" points="192.55,-117.073 186.91,-108.104 185.726,-118.633 192.55,-117.073"/>
</g>
<!-- lengthy&#45;&gt;container -->
<g id="edge6" class="edge"><title>lengthy&#45;&gt;container</title>
<path fill="none" stroke="black" d="M263.825,-143.876C249.964,-134.808 232.759,-123.552 217.789,-113.759"/>
<polygon fill="black" stroke="black" points="219.56,-110.735 209.276,-108.19 215.728,-116.593 219.56,-110.735"/>
</g>
</g>
</svg>
