<?xml version="1.0" encoding="UTF-8" standalone="no"?>
<!DOCTYPE svg PUBLIC "-//W3C//DTD SVG 1.1//EN"
 "http://www.w3.org/Graphics/SVG/1.1/DTD/svg11.dtd">
<!-- Generated by graphviz version 2.38.0 (20140413.2041)
 -->
<!-- Title: bitarray Pages: 1 -->
<svg width="342pt" height="277pt"
 viewBox="0.00 0.00 411.00 332.00" xmlns="http://www.w3.org/2000/svg" xmlns:xlink="http://www.w3.org/1999/xlink">
<g id="graph0" class="graph" transform="scale(0.833333 0.833333) rotate(0) translate(4 328)">
<title>bitarray</title>
<polygon fill="none" stroke="none" points="-4,4 -4,-328 407,-328 407,4 -4,4"/>
<!-- arraylike -->
<g id="node1" class="node"><title>arraylike</title>
<g id="a_node1"><a xlink:href="../PsiReference_Types.xhtml#PsiReference_Types_Details_arraylike" xlink:title="arraylike" target="_parent">
<polygon fill="linen" stroke="black" points="204.5,-108 126.5,-108 126.5,-72 210.5,-72 210.5,-102 204.5,-108"/>
<polyline fill="none" stroke="black" points="204.5,-108 204.5,-102 "/>
<polyline fill="none" stroke="black" points="210.5,-102 204.5,-102 "/>
<text text-anchor="middle" x="168.5" y="-86.3" font-family="monospace" font-size="14.00">arraylike</text>
</a>
</g>
</g>
<!-- bitarray -->
<g id="node3" class="node"><title>bitarray</title>
<g id="a_node3"><a xlink:href="../PsiReference_Types.xhtml#PsiReference_Types_Details_bitarray" xlink:title="bitarray" target="_parent">
<polygon fill="wheat" stroke="black" points="283,-36 212,-36 212,-0 289,-0 289,-30 283,-36"/>
<polyline fill="none" stroke="black" points="283,-36 283,-30 "/>
<polyline fill="none" stroke="black" points="289,-30 283,-30 "/>
<text text-anchor="middle" x="250.5" y="-14.3" font-family="monospace" font-size="14.00">bitarray</text>
</a>
</g>
</g>
<!-- arraylike&#45;&gt;bitarray -->
<g id="edge1" class="edge"><title>arraylike&#45;&gt;bitarray</title>
<path fill="none" stroke="black" d="M188.77,-71.6966C198.998,-62.9655 211.561,-52.2405 222.678,-42.7503"/>
<polygon fill="black" stroke="black" points="225.13,-45.259 230.463,-36.1043 220.585,-39.935 225.13,-45.259"/>
</g>
<!-- bitwise -->
<g id="node2" class="node"><title>bitwise</title>
<g id="a_node2"><a xlink:href="../PsiReference_Types.xhtml#PsiReference_Types_Details_bitwise" xlink:title="bitwise" target="_parent">
<polygon fill="linen" stroke="black" points="362,-108 299,-108 299,-72 368,-72 368,-102 362,-108"/>
<polyline fill="none" stroke="black" points="362,-108 362,-102 "/>
<polyline fill="none" stroke="black" points="368,-102 362,-102 "/>
<text text-anchor="middle" x="333.5" y="-86.3" font-family="monospace" font-size="14.00">bitwise</text>
</a>
</g>
</g>
<!-- bitwise&#45;&gt;bitarray -->
<g id="edge2" class="edge"><title>bitwise&#45;&gt;bitarray</title>
<path fill="none" stroke="black" d="M312.983,-71.6966C302.631,-62.9655 289.914,-52.2405 278.661,-42.7503"/>
<polygon fill="black" stroke="black" points="280.682,-39.8759 270.781,-36.1043 276.169,-45.2269 280.682,-39.8759"/>
</g>
<!-- appendable -->
<g id="node4" class="node"><title>appendable</title>
<g id="a_node4"><a xlink:href="../PsiReference_Types.xhtml#PsiReference_Types_Details_appendable" xlink:title="appendable" target="_parent">
<polygon fill="linen" stroke="black" points="173.5,-180 87.5,-180 87.5,-144 179.5,-144 179.5,-174 173.5,-180"/>
<polyline fill="none" stroke="black" points="173.5,-180 173.5,-174 "/>
<polyline fill="none" stroke="black" points="179.5,-174 173.5,-174 "/>
<text text-anchor="middle" x="133.5" y="-158.3" font-family="monospace" font-size="14.00">appendable</text>
</a>
</g>
</g>
<!-- appendable&#45;&gt;arraylike -->
<g id="edge3" class="edge"><title>appendable&#45;&gt;arraylike</title>
<path fill="none" stroke="black" d="M142.152,-143.697C146.136,-135.728 150.95,-126.1 155.368,-117.264"/>
<polygon fill="black" stroke="black" points="158.606,-118.614 159.948,-108.104 152.345,-115.483 158.606,-118.614"/>
</g>
<!-- container -->
<g id="node5" class="node"><title>container</title>
<g id="a_node5"><a xlink:href="../PsiReference_Types.xhtml#PsiReference_Types_Details_container" xlink:title="container" target="_parent">
<polygon fill="linen" stroke="black" points="275.5,-180 197.5,-180 197.5,-144 281.5,-144 281.5,-174 275.5,-180"/>
<polyline fill="none" stroke="black" points="275.5,-180 275.5,-174 "/>
<polyline fill="none" stroke="black" points="281.5,-174 275.5,-174 "/>
<text text-anchor="middle" x="239.5" y="-158.3" font-family="monospace" font-size="14.00">container</text>
</a>
</g>
</g>
<!-- container&#45;&gt;arraylike -->
<g id="edge4" class="edge"><title>container&#45;&gt;arraylike</title>
<path fill="none" stroke="black" d="M221.949,-143.697C213.266,-135.135 202.637,-124.656 193.152,-115.304"/>
<polygon fill="black" stroke="black" points="195.427,-112.633 185.849,-108.104 190.512,-117.617 195.427,-112.633"/>
</g>
<!-- indexed -->
<g id="node6" class="node"><title>indexed</title>
<g id="a_node6"><a xlink:href="../PsiReference_Types.xhtml#PsiReference_Types_Details_indexed" xlink:title="indexed" target="_parent">
<polygon fill="linen" stroke="black" points="63,-180 0,-180 0,-144 69,-144 69,-174 63,-180"/>
<polyline fill="none" stroke="black" points="63,-180 63,-174 "/>
<polyline fill="none" stroke="black" points="69,-174 63,-174 "/>
<text text-anchor="middle" x="34.5" y="-158.3" font-family="monospace" font-size="14.00">indexed</text>
</a>
</g>
</g>
<!-- indexed&#45;&gt;arraylike -->
<g id="edge5" class="edge"><title>indexed&#45;&gt;arraylike</title>
<path fill="none" stroke="black" d="M67.2801,-143.876C85.125,-134.554 107.397,-122.919 126.503,-112.939"/>
<polygon fill="black" stroke="black" points="128.351,-115.922 135.594,-108.19 125.11,-109.718 128.351,-115.922"/>
</g>
<!-- logical -->
<g id="node7" class="node"><title>logical</title>
<g id="a_node7"><a xlink:href="../PsiReference_Types.xhtml#PsiReference_Types_Details_logical" xlink:title="logical" target="_parent">
<polygon fill="linen" stroke="black" points="397,-180 334,-180 334,-144 403,-144 403,-174 397,-180"/>
<polyline fill="none" stroke="black" points="397,-180 397,-174 "/>
<polyline fill="none" stroke="black" points="403,-174 397,-174 "/>
<text text-anchor="middle" x="368.5" y="-158.3" font-family="monospace" font-size="14.00">logical</text>
</a>
</g>
</g>
<!-- logical&#45;&gt;bitwise -->
<g id="edge6" class="edge"><title>logical&#45;&gt;bitwise</title>
<path fill="none" stroke="black" d="M359.848,-143.697C355.864,-135.728 351.05,-126.1 346.632,-117.264"/>
<polygon fill="black" stroke="black" points="349.655,-115.483 342.052,-108.104 343.394,-118.614 349.655,-115.483"/>
</g>
<!-- object -->
<g id="node8" class="node"><title>object</title>
<g id="a_node8"><a xlink:href="../PsiReference_Types.xhtml#PsiReference_Types_Details_object" xlink:title="object" target="_parent">
<polygon fill="linen" stroke="black" points="213.5,-324 157.5,-324 157.5,-288 219.5,-288 219.5,-318 213.5,-324"/>
<polyline fill="none" stroke="black" points="213.5,-324 213.5,-318 "/>
<polyline fill="none" stroke="black" points="219.5,-318 213.5,-318 "/>
<text text-anchor="middle" x="188.5" y="-302.3" font-family="monospace" font-size="14.00">object</text>
</a>
</g>
</g>
<!-- object&#45;&gt;appendable -->
<g id="edge7" class="edge"><title>object&#45;&gt;appendable</title>
<path fill="none" stroke="black" d="M157.237,-295.885C136.276,-287.961 110.256,-274.191 97.5,-252 85.7932,-231.634 97.8877,-206.717 111.125,-188.433"/>
<polygon fill="black" stroke="black" points="114.267,-190.091 117.615,-180.04 108.73,-185.809 114.267,-190.091"/>
</g>
<!-- object&#45;&gt;indexed -->
<g id="edge11" class="edge"><title>object&#45;&gt;indexed</title>
<path fill="none" stroke="black" d="M157.285,-293.343C136.341,-284.387 109.104,-270.425 89.5,-252 70.5911,-234.229 55.6581,-208.575 46.1523,-189.371"/>
<polygon fill="black" stroke="black" points="49.2702,-187.778 41.8059,-180.259 42.9521,-190.792 49.2702,-187.778"/>
</g>
<!-- object&#45;&gt;logical -->
<g id="edge12" class="edge"><title>object&#45;&gt;logical</title>
<path fill="none" stroke="black" d="M219.821,-301.093C269.724,-294.153 363.685,-277.92 383.5,-252 397.096,-234.216 390.846,-208.564 382.666,-189.364"/>
<polygon fill="black" stroke="black" points="385.823,-187.853 378.441,-180.254 379.473,-190.798 385.823,-187.853"/>
</g>
<!-- clearable -->
<g id="node9" class="node"><title>clearable</title>
<g id="a_node9"><a xlink:href="../PsiReference_Types.xhtml#PsiReference_Types_Details_clearable" xlink:title="clearable" target="_parent">
<polygon fill="linen" stroke="black" points="272.5,-252 194.5,-252 194.5,-216 278.5,-216 278.5,-246 272.5,-252"/>
<polyline fill="none" stroke="black" points="272.5,-252 272.5,-246 "/>
<polyline fill="none" stroke="black" points="278.5,-246 272.5,-246 "/>
<text text-anchor="middle" x="236.5" y="-230.3" font-family="monospace" font-size="14.00">clearable</text>
</a>
</g>
</g>
<!-- object&#45;&gt;clearable -->
<g id="edge13" class="edge"><title>object&#45;&gt;clearable</title>
<path fill="none" stroke="black" d="M200.365,-287.697C206.003,-279.474 212.854,-269.483 219.069,-260.421"/>
<polygon fill="black" stroke="black" points="222.003,-262.331 224.771,-252.104 216.229,-258.372 222.003,-262.331"/>
</g>
<!-- iterable -->
<g id="node10" class="node"><title>iterable</title>
<g id="a_node10"><a xlink:href="../PsiReference_Types.xhtml#PsiReference_Types_Details_iterable" xlink:title="iterable" target="_parent">
<polygon fill="linen" stroke="black" points="368,-252 297,-252 297,-216 374,-216 374,-246 368,-252"/>
<polyline fill="none" stroke="black" points="368,-252 368,-246 "/>
<polyline fill="none" stroke="black" points="374,-246 368,-246 "/>
<text text-anchor="middle" x="335.5" y="-230.3" font-family="monospace" font-size="14.00">iterable</text>
</a>
</g>
</g>
<!-- object&#45;&gt;iterable -->
<g id="edge14" class="edge"><title>object&#45;&gt;iterable</title>
<path fill="none" stroke="black" d="M219.675,-290.155C240.267,-280.349 267.583,-267.341 290.516,-256.421"/>
<polygon fill="black" stroke="black" points="292.192,-259.499 299.716,-252.04 289.183,-253.179 292.192,-259.499"/>
</g>
<!-- lengthy -->
<g id="node11" class="node"><title>lengthy</title>
<g id="a_node11"><a xlink:href="../PsiReference_Types.xhtml#PsiReference_Types_Details_lengthy" xlink:title="lengthy" target="_parent">
<polygon fill="linen" stroke="black" points="170,-252 107,-252 107,-216 176,-216 176,-246 170,-252"/>
<polyline fill="none" stroke="black" points="170,-252 170,-246 "/>
<polyline fill="none" stroke="black" points="176,-246 170,-246 "/>
<text text-anchor="middle" x="141.5" y="-230.3" font-family="monospace" font-size="14.00">lengthy</text>
</a>
</g>
</g>
<!-- object&#45;&gt;lengthy -->
<g id="edge15" class="edge"><title>object&#45;&gt;lengthy</title>
<path fill="none" stroke="black" d="M176.882,-287.697C171.361,-279.474 164.653,-269.483 158.568,-260.421"/>
<polygon fill="black" stroke="black" points="161.465,-258.456 152.984,-252.104 155.653,-262.358 161.465,-258.456"/>
</g>
<!-- clearable&#45;&gt;container -->
<g id="edge8" class="edge"><title>clearable&#45;&gt;container</title>
<path fill="none" stroke="black" d="M237.242,-215.697C237.572,-207.983 237.969,-198.712 238.338,-190.112"/>
<polygon fill="black" stroke="black" points="241.835,-190.245 238.767,-180.104 234.842,-189.945 241.835,-190.245"/>
</g>
<!-- iterable&#45;&gt;container -->
<g id="edge9" class="edge"><title>iterable&#45;&gt;container</title>
<path fill="none" stroke="black" d="M311.77,-215.697C299.563,-206.796 284.515,-195.823 271.316,-186.199"/>
<polygon fill="black" stroke="black" points="273.1,-183.168 262.957,-180.104 268.975,-188.824 273.1,-183.168"/>
</g>
<!-- lengthy&#45;&gt;container -->
<g id="edge10" class="edge"><title>lengthy&#45;&gt;container</title>
<path fill="none" stroke="black" d="M165.473,-215.876C178.05,-206.893 193.632,-195.763 207.252,-186.034"/>
<polygon fill="black" stroke="black" points="209.331,-188.85 215.434,-180.19 205.263,-183.154 209.331,-188.85"/>
</g>
</g>
</svg>
