<?xml version="1.0" encoding="UTF-8" standalone="no"?>
<!DOCTYPE svg PUBLIC "-//W3C//DTD SVG 1.1//EN"
 "http://www.w3.org/Graphics/SVG/1.1/DTD/svg11.dtd">
<!-- Generated by graphviz version 2.38.0 (20140413.2041)
 -->
<!-- Title: integer Pages: 1 -->
<svg width="260pt" height="337pt"
 viewBox="0.00 0.00 312.50 404.00" xmlns="http://www.w3.org/2000/svg" xmlns:xlink="http://www.w3.org/1999/xlink">
<g id="graph0" class="graph" transform="scale(0.833333 0.833333) rotate(0) translate(4 400)">
<title>integer</title>
<polygon fill="none" stroke="none" points="-4,4 -4,-400 308.5,-400 308.5,4 -4,4"/>
<!-- bitwise -->
<g id="node1" class="node"><title>bitwise</title>
<g id="a_node1"><a xlink:href="../PsiReference_Types.xhtml#PsiReference_Types_Details_bitwise" xlink:title="bitwise" target="_parent">
<polygon fill="linen" stroke="black" points="64,-180 1,-180 1,-144 70,-144 70,-174 64,-180"/>
<polyline fill="none" stroke="black" points="64,-180 64,-174 "/>
<polyline fill="none" stroke="black" points="70,-174 64,-174 "/>
<text text-anchor="middle" x="35.5" y="-158.3" font-family="monospace" font-size="14.00">bitwise</text>
</a>
</g>
</g>
<!-- integer -->
<g id="node3" class="node"><title>integer</title>
<g id="a_node3"><a xlink:href="../PsiReference_Types.xhtml#PsiReference_Types_Details_integer" xlink:title="integer" target="_parent">
<polygon fill="wheat" stroke="black" points="106,-36 43,-36 43,-0 112,-0 112,-30 106,-36"/>
<polyline fill="none" stroke="black" points="106,-36 106,-30 "/>
<polyline fill="none" stroke="black" points="112,-30 106,-30 "/>
<text text-anchor="middle" x="77.5" y="-14.3" font-family="monospace" font-size="14.00">integer</text>
</a>
</g>
</g>
<!-- bitwise&#45;&gt;integer -->
<g id="edge1" class="edge"><title>bitwise&#45;&gt;integer</title>
<path fill="none" stroke="black" d="M39.4498,-143.808C43.705,-125.787 50.8954,-96.7099 58.5,-72 61.1573,-63.3656 64.3723,-54.0578 67.396,-45.6881"/>
<polygon fill="black" stroke="black" points="70.7728,-46.6461 70.939,-36.0526 64.2029,-44.2303 70.7728,-46.6461"/>
</g>
<!-- realnumeric -->
<g id="node2" class="node"><title>realnumeric</title>
<g id="a_node2"><a xlink:href="../PsiReference_Types.xhtml#PsiReference_Types_Details_realnumeric" xlink:title="realnumeric" target="_parent">
<polygon fill="linen" stroke="black" points="161,-108 68,-108 68,-72 167,-72 167,-102 161,-108"/>
<polyline fill="none" stroke="black" points="161,-108 161,-102 "/>
<polyline fill="none" stroke="black" points="167,-102 161,-102 "/>
<text text-anchor="middle" x="117.5" y="-86.3" font-family="monospace" font-size="14.00">realnumeric</text>
</a>
</g>
</g>
<!-- realnumeric&#45;&gt;integer -->
<g id="edge2" class="edge"><title>realnumeric&#45;&gt;integer</title>
<path fill="none" stroke="black" d="M107.612,-71.6966C103.011,-63.6436 97.4397,-53.8945 92.3471,-44.9824"/>
<polygon fill="black" stroke="black" points="95.2742,-43.0503 87.2739,-36.1043 89.1965,-46.5233 95.2742,-43.0503"/>
</g>
<!-- logical -->
<g id="node4" class="node"><title>logical</title>
<g id="a_node4"><a xlink:href="../PsiReference_Types.xhtml#PsiReference_Types_Details_logical" xlink:title="logical" target="_parent">
<polygon fill="linen" stroke="black" points="63,-252 0,-252 0,-216 69,-216 69,-246 63,-252"/>
<polyline fill="none" stroke="black" points="63,-252 63,-246 "/>
<polyline fill="none" stroke="black" points="69,-246 63,-246 "/>
<text text-anchor="middle" x="34.5" y="-230.3" font-family="monospace" font-size="14.00">logical</text>
</a>
</g>
</g>
<!-- logical&#45;&gt;bitwise -->
<g id="edge3" class="edge"><title>logical&#45;&gt;bitwise</title>
<path fill="none" stroke="black" d="M34.7472,-215.697C34.8574,-207.983 34.9898,-198.712 35.1127,-190.112"/>
<polygon fill="black" stroke="black" points="38.6124,-190.153 35.2557,-180.104 31.6131,-190.053 38.6124,-190.153"/>
</g>
<!-- numeric -->
<g id="node5" class="node"><title>numeric</title>
<g id="a_node5"><a xlink:href="../PsiReference_Types.xhtml#PsiReference_Types_Details_numeric" xlink:title="numeric" target="_parent">
<polygon fill="linen" stroke="black" points="209,-180 146,-180 146,-144 215,-144 215,-174 209,-180"/>
<polyline fill="none" stroke="black" points="209,-180 209,-174 "/>
<polyline fill="none" stroke="black" points="215,-174 209,-174 "/>
<text text-anchor="middle" x="180.5" y="-158.3" font-family="monospace" font-size="14.00">numeric</text>
</a>
</g>
</g>
<!-- numeric&#45;&gt;realnumeric -->
<g id="edge4" class="edge"><title>numeric&#45;&gt;realnumeric</title>
<path fill="none" stroke="black" d="M164.927,-143.697C157.298,-135.22 147.977,-124.864 139.624,-115.583"/>
<polygon fill="black" stroke="black" points="142.185,-113.196 132.894,-108.104 136.982,-117.879 142.185,-113.196"/>
</g>
<!-- scalar -->
<g id="node6" class="node"><title>scalar</title>
<g id="a_node6"><a xlink:href="../PsiReference_Types.xhtml#PsiReference_Types_Details_scalar" xlink:title="scalar" target="_parent">
<polygon fill="linen" stroke="black" points="143.5,-252 87.5,-252 87.5,-216 149.5,-216 149.5,-246 143.5,-252"/>
<polyline fill="none" stroke="black" points="143.5,-252 143.5,-246 "/>
<polyline fill="none" stroke="black" points="149.5,-246 143.5,-246 "/>
<text text-anchor="middle" x="118.5" y="-230.3" font-family="monospace" font-size="14.00">scalar</text>
</a>
</g>
</g>
<!-- scalar&#45;&gt;realnumeric -->
<g id="edge5" class="edge"><title>scalar&#45;&gt;realnumeric</title>
<path fill="none" stroke="black" d="M118.379,-215.871C118.209,-191.67 117.896,-147.211 117.693,-118.393"/>
<polygon fill="black" stroke="black" points="121.191,-118.164 117.621,-108.189 114.192,-118.214 121.191,-118.164"/>
</g>
<!-- object -->
<g id="node7" class="node"><title>object</title>
<g id="a_node7"><a xlink:href="../PsiReference_Types.xhtml#PsiReference_Types_Details_object" xlink:title="object" target="_parent">
<polygon fill="linen" stroke="black" points="168.5,-396 112.5,-396 112.5,-360 174.5,-360 174.5,-390 168.5,-396"/>
<polyline fill="none" stroke="black" points="168.5,-396 168.5,-390 "/>
<polyline fill="none" stroke="black" points="174.5,-390 168.5,-390 "/>
<text text-anchor="middle" x="143.5" y="-374.3" font-family="monospace" font-size="14.00">object</text>
</a>
</g>
</g>
<!-- object&#45;&gt;logical -->
<g id="edge6" class="edge"><title>object&#45;&gt;logical</title>
<path fill="none" stroke="black" d="M130.352,-359.871C111.284,-335.031 75.8328,-288.846 53.7988,-260.142"/>
<polygon fill="black" stroke="black" points="56.56,-257.991 47.6946,-252.189 51.0073,-262.253 56.56,-257.991"/>
</g>
<!-- object&#45;&gt;scalar -->
<g id="edge9" class="edge"><title>object&#45;&gt;scalar</title>
<path fill="none" stroke="black" d="M140.172,-359.83C138.185,-349.463 135.64,-335.983 133.5,-324 129.804,-303.306 125.863,-279.86 122.948,-262.229"/>
<polygon fill="black" stroke="black" points="126.355,-261.378 121.277,-252.079 119.448,-262.515 126.355,-261.378"/>
</g>
<!-- atomic -->
<g id="node9" class="node"><title>atomic</title>
<g id="a_node9"><a xlink:href="../PsiReference_Types.xhtml#PsiReference_Types_Details_atomic" xlink:title="atomic" target="_parent">
<polygon fill="linen" stroke="black" points="198.5,-324 142.5,-324 142.5,-288 204.5,-288 204.5,-318 198.5,-324"/>
<polyline fill="none" stroke="black" points="198.5,-324 198.5,-318 "/>
<polyline fill="none" stroke="black" points="204.5,-318 198.5,-318 "/>
<text text-anchor="middle" x="173.5" y="-302.3" font-family="monospace" font-size="14.00">atomic</text>
</a>
</g>
</g>
<!-- object&#45;&gt;atomic -->
<g id="edge11" class="edge"><title>object&#45;&gt;atomic</title>
<path fill="none" stroke="black" d="M150.916,-359.697C154.294,-351.813 158.37,-342.304 162.123,-333.546"/>
<polygon fill="black" stroke="black" points="165.447,-334.675 166.17,-324.104 159.013,-331.917 165.447,-334.675"/>
</g>
<!-- additive -->
<g id="node10" class="node"><title>additive</title>
<g id="a_node10"><a xlink:href="../PsiReference_Types.xhtml#PsiReference_Types_Details_additive" xlink:title="additive" target="_parent">
<polygon fill="linen" stroke="black" points="294,-324 223,-324 223,-288 300,-288 300,-318 294,-324"/>
<polyline fill="none" stroke="black" points="294,-324 294,-318 "/>
<polyline fill="none" stroke="black" points="300,-318 294,-318 "/>
<text text-anchor="middle" x="261.5" y="-302.3" font-family="monospace" font-size="14.00">additive</text>
</a>
</g>
</g>
<!-- object&#45;&gt;additive -->
<g id="edge12" class="edge"><title>object&#45;&gt;additive</title>
<path fill="none" stroke="black" d="M172.366,-359.876C187.795,-350.724 206.981,-339.342 223.597,-329.485"/>
<polygon fill="black" stroke="black" points="225.708,-332.302 232.523,-324.19 222.137,-326.282 225.708,-332.302"/>
</g>
<!-- arithmetic -->
<g id="node8" class="node"><title>arithmetic</title>
<g id="a_node8"><a xlink:href="../PsiReference_Types.xhtml#PsiReference_Types_Details_arithmetic" xlink:title="arithmetic" target="_parent">
<polygon fill="linen" stroke="black" points="298.5,-252 212.5,-252 212.5,-216 304.5,-216 304.5,-246 298.5,-252"/>
<polyline fill="none" stroke="black" points="298.5,-252 298.5,-246 "/>
<polyline fill="none" stroke="black" points="304.5,-246 298.5,-246 "/>
<text text-anchor="middle" x="258.5" y="-230.3" font-family="monospace" font-size="14.00">arithmetic</text>
</a>
</g>
</g>
<!-- arithmetic&#45;&gt;numeric -->
<g id="edge7" class="edge"><title>arithmetic&#45;&gt;numeric</title>
<path fill="none" stroke="black" d="M239.219,-215.697C229.585,-207.05 217.771,-196.449 207.273,-187.027"/>
<polygon fill="black" stroke="black" points="209.339,-184.179 199.559,-180.104 204.664,-189.388 209.339,-184.179"/>
</g>
<!-- atomic&#45;&gt;numeric -->
<g id="edge8" class="edge"><title>atomic&#45;&gt;numeric</title>
<path fill="none" stroke="black" d="M174.344,-287.871C175.537,-263.67 177.729,-219.211 179.15,-190.393"/>
<polygon fill="black" stroke="black" points="182.656,-190.349 179.653,-180.189 175.664,-190.005 182.656,-190.349"/>
</g>
<!-- additive&#45;&gt;arithmetic -->
<g id="edge10" class="edge"><title>additive&#45;&gt;arithmetic</title>
<path fill="none" stroke="black" d="M260.758,-287.697C260.428,-279.983 260.031,-270.712 259.662,-262.112"/>
<polygon fill="black" stroke="black" points="263.158,-261.945 259.233,-252.104 256.165,-262.245 263.158,-261.945"/>
</g>
</g>
</svg>
