<?xml version="1.0" encoding="UTF-8" standalone="no"?>
<!DOCTYPE svg PUBLIC "-//W3C//DTD SVG 1.1//EN"
 "http://www.w3.org/Graphics/SVG/1.1/DTD/svg11.dtd">
<!-- Generated by graphviz version 2.38.0 (20140413.2041)
 -->
<!-- Title: mark Pages: 1 -->
<svg width="58pt" height="157pt"
 viewBox="0.00 0.00 70.00 188.00" xmlns="http://www.w3.org/2000/svg" xmlns:xlink="http://www.w3.org/1999/xlink">
<g id="graph0" class="graph" transform="scale(0.833333 0.833333) rotate(0) translate(4 184)">
<title>mark</title>
<polygon fill="none" stroke="none" points="-4,4 -4,-184 66,-184 66,4 -4,4"/>
<!-- atomic -->
<g id="node1" class="node"><title>atomic</title>
<g id="a_node1"><a xlink:href="../PsiReference_Types.xhtml#PsiReference_Types_Details_atomic" xlink:title="atomic" target="_parent">
<polygon fill="linen" stroke="black" points="56,-108 0,-108 0,-72 62,-72 62,-102 56,-108"/>
<polyline fill="none" stroke="black" points="56,-108 56,-102 "/>
<polyline fill="none" stroke="black" points="62,-102 56,-102 "/>
<text text-anchor="middle" x="31" y="-86.3" font-family="monospace" font-size="14.00">atomic</text>
</a>
</g>
</g>
<!-- mark -->
<g id="node2" class="node"><title>mark</title>
<g id="a_node2"><a xlink:href="../PsiReference_Types.xhtml#PsiReference_Types_Details_mark" xlink:title="mark" target="_parent">
<polygon fill="wheat" stroke="black" points="52,-36 4,-36 4,-0 58,-0 58,-30 52,-36"/>
<polyline fill="none" stroke="black" points="52,-36 52,-30 "/>
<polyline fill="none" stroke="black" points="58,-30 52,-30 "/>
<text text-anchor="middle" x="31" y="-14.3" font-family="monospace" font-size="14.00">mark</text>
</a>
</g>
</g>
<!-- atomic&#45;&gt;mark -->
<g id="edge1" class="edge"><title>atomic&#45;&gt;mark</title>
<path fill="none" stroke="black" d="M31,-71.6966C31,-63.9827 31,-54.7125 31,-46.1124"/>
<polygon fill="black" stroke="black" points="34.5001,-46.1043 31,-36.1043 27.5001,-46.1044 34.5001,-46.1043"/>
</g>
<!-- object -->
<g id="node3" class="node"><title>object</title>
<g id="a_node3"><a xlink:href="../PsiReference_Types.xhtml#PsiReference_Types_Details_object" xlink:title="object" target="_parent">
<polygon fill="linen" stroke="black" points="56,-180 0,-180 0,-144 62,-144 62,-174 56,-180"/>
<polyline fill="none" stroke="black" points="56,-180 56,-174 "/>
<polyline fill="none" stroke="black" points="62,-174 56,-174 "/>
<text text-anchor="middle" x="31" y="-158.3" font-family="monospace" font-size="14.00">object</text>
</a>
</g>
</g>
<!-- object&#45;&gt;atomic -->
<g id="edge2" class="edge"><title>object&#45;&gt;atomic</title>
<path fill="none" stroke="black" d="M31,-143.697C31,-135.983 31,-126.712 31,-118.112"/>
<polygon fill="black" stroke="black" points="34.5001,-118.104 31,-108.104 27.5001,-118.104 34.5001,-118.104"/>
</g>
</g>
</svg>
