<?xml version="1.0" encoding="UTF-8" standalone="no"?>
<!DOCTYPE svg PUBLIC "-//W3C//DTD SVG 1.1//EN"
 "http://www.w3.org/Graphics/SVG/1.1/DTD/svg11.dtd">
<!-- Generated by graphviz version 2.38.0 (20140413.2041)
 -->
<!-- Title: filewriter Pages: 1 -->
<svg width="241pt" height="217pt"
 viewBox="0.00 0.00 289.50 260.00" xmlns="http://www.w3.org/2000/svg" xmlns:xlink="http://www.w3.org/1999/xlink">
<g id="graph0" class="graph" transform="scale(0.833333 0.833333) rotate(0) translate(4 256)">
<title>filewriter</title>
<polygon fill="none" stroke="none" points="-4,4 -4,-256 285.5,-256 285.5,4 -4,4"/>
<!-- writer -->
<g id="node1" class="node"><title>writer</title>
<g id="a_node1"><a xlink:href="../PsiReference_Types.xhtml#PsiReference_Types_Details_writer" xlink:title="writer" target="_parent">
<polygon fill="linen" stroke="black" points="169,-108 113,-108 113,-72 175,-72 175,-102 169,-108"/>
<polyline fill="none" stroke="black" points="169,-108 169,-102 "/>
<polyline fill="none" stroke="black" points="175,-102 169,-102 "/>
<text text-anchor="middle" x="144" y="-86.3" font-family="monospace" font-size="14.00">writer</text>
</a>
</g>
</g>
<!-- filewriter -->
<g id="node2" class="node"><title>filewriter</title>
<g id="a_node2"><a xlink:href="../PsiReference_Types.xhtml#PsiReference_Types_Details_filewriter" xlink:title="filewriter" target="_parent">
<polygon fill="wheat" stroke="black" points="184,-36 98,-36 98,-0 190,-0 190,-30 184,-36"/>
<polyline fill="none" stroke="black" points="184,-36 184,-30 "/>
<polyline fill="none" stroke="black" points="190,-30 184,-30 "/>
<text text-anchor="middle" x="144" y="-14.3" font-family="monospace" font-size="14.00">filewriter</text>
</a>
</g>
</g>
<!-- writer&#45;&gt;filewriter -->
<g id="edge1" class="edge"><title>writer&#45;&gt;filewriter</title>
<path fill="none" stroke="black" d="M144,-71.6966C144,-63.9827 144,-54.7125 144,-46.1124"/>
<polygon fill="black" stroke="black" points="147.5,-46.1043 144,-36.1043 140.5,-46.1044 147.5,-46.1043"/>
</g>
<!-- closeable -->
<g id="node3" class="node"><title>closeable</title>
<g id="a_node3"><a xlink:href="../PsiReference_Types.xhtml#PsiReference_Types_Details_closeable" xlink:title="closeable" target="_parent">
<polygon fill="linen" stroke="black" points="78,-180 7.10543e-15,-180 7.10543e-15,-144 84,-144 84,-174 78,-180"/>
<polyline fill="none" stroke="black" points="78,-180 78,-174 "/>
<polyline fill="none" stroke="black" points="84,-174 78,-174 "/>
<text text-anchor="middle" x="42" y="-158.3" font-family="monospace" font-size="14.00">closeable</text>
</a>
</g>
</g>
<!-- closeable&#45;&gt;writer -->
<g id="edge2" class="edge"><title>closeable&#45;&gt;writer</title>
<path fill="none" stroke="black" d="M66.952,-143.876C80.0415,-134.893 96.2603,-123.763 110.436,-114.034"/>
<polygon fill="black" stroke="black" points="112.687,-116.734 118.952,-108.19 108.726,-110.962 112.687,-116.734"/>
</g>
<!-- flushable -->
<g id="node4" class="node"><title>flushable</title>
<g id="a_node4"><a xlink:href="../PsiReference_Types.xhtml#PsiReference_Types_Details_flushable" xlink:title="flushable" target="_parent">
<polygon fill="linen" stroke="black" points="180,-180 102,-180 102,-144 186,-144 186,-174 180,-180"/>
<polyline fill="none" stroke="black" points="180,-180 180,-174 "/>
<polyline fill="none" stroke="black" points="186,-174 180,-174 "/>
<text text-anchor="middle" x="144" y="-158.3" font-family="monospace" font-size="14.00">flushable</text>
</a>
</g>
</g>
<!-- flushable&#45;&gt;writer -->
<g id="edge3" class="edge"><title>flushable&#45;&gt;writer</title>
<path fill="none" stroke="black" d="M144,-143.697C144,-135.983 144,-126.712 144,-118.112"/>
<polygon fill="black" stroke="black" points="147.5,-118.104 144,-108.104 140.5,-118.104 147.5,-118.104"/>
</g>
<!-- writable -->
<g id="node5" class="node"><title>writable</title>
<g id="a_node5"><a xlink:href="../PsiReference_Types.xhtml#PsiReference_Types_Details_writable" xlink:title="writable" target="_parent">
<polygon fill="linen" stroke="black" points="275.5,-180 204.5,-180 204.5,-144 281.5,-144 281.5,-174 275.5,-180"/>
<polyline fill="none" stroke="black" points="275.5,-180 275.5,-174 "/>
<polyline fill="none" stroke="black" points="281.5,-174 275.5,-174 "/>
<text text-anchor="middle" x="243" y="-158.3" font-family="monospace" font-size="14.00">writable</text>
</a>
</g>
</g>
<!-- writable&#45;&gt;writer -->
<g id="edge4" class="edge"><title>writable&#45;&gt;writer</title>
<path fill="none" stroke="black" d="M218.782,-143.876C206.077,-134.893 190.336,-123.763 176.577,-114.034"/>
<polygon fill="black" stroke="black" points="178.497,-111.105 168.311,-108.19 174.456,-116.821 178.497,-111.105"/>
</g>
<!-- object -->
<g id="node6" class="node"><title>object</title>
<g id="a_node6"><a xlink:href="../PsiReference_Types.xhtml#PsiReference_Types_Details_object" xlink:title="object" target="_parent">
<polygon fill="linen" stroke="black" points="169,-252 113,-252 113,-216 175,-216 175,-246 169,-252"/>
<polyline fill="none" stroke="black" points="169,-252 169,-246 "/>
<polyline fill="none" stroke="black" points="175,-246 169,-246 "/>
<text text-anchor="middle" x="144" y="-230.3" font-family="monospace" font-size="14.00">object</text>
</a>
</g>
</g>
<!-- object&#45;&gt;closeable -->
<g id="edge5" class="edge"><title>object&#45;&gt;closeable</title>
<path fill="none" stroke="black" d="M119.048,-215.876C105.958,-206.893 89.7397,-195.763 75.564,-186.034"/>
<polygon fill="black" stroke="black" points="77.2735,-182.962 67.0479,-180.19 73.3126,-188.734 77.2735,-182.962"/>
</g>
<!-- object&#45;&gt;flushable -->
<g id="edge6" class="edge"><title>object&#45;&gt;flushable</title>
<path fill="none" stroke="black" d="M144,-215.697C144,-207.983 144,-198.712 144,-190.112"/>
<polygon fill="black" stroke="black" points="147.5,-190.104 144,-180.104 140.5,-190.104 147.5,-190.104"/>
</g>
<!-- object&#45;&gt;writable -->
<g id="edge7" class="edge"><title>object&#45;&gt;writable</title>
<path fill="none" stroke="black" d="M168.218,-215.876C180.923,-206.893 196.664,-195.763 210.423,-186.034"/>
<polygon fill="black" stroke="black" points="212.544,-188.821 218.689,-180.19 208.503,-183.105 212.544,-188.821"/>
</g>
</g>
</svg>
