<?xml version="1.0" encoding="UTF-8" standalone="no"?>
<!DOCTYPE svg PUBLIC "-//W3C//DTD SVG 1.1//EN"
 "http://www.w3.org/Graphics/SVG/1.1/DTD/svg11.dtd">
<!-- Generated by graphviz version 2.38.0 (20140413.2041)
 -->
<!-- Title: reader Pages: 1 -->
<svg width="333pt" height="157pt"
 viewBox="0.00 0.00 400.00 188.00" xmlns="http://www.w3.org/2000/svg" xmlns:xlink="http://www.w3.org/1999/xlink">
<g id="graph0" class="graph" transform="scale(0.833333 0.833333) rotate(0) translate(4 184)">
<title>reader</title>
<polygon fill="none" stroke="none" points="-4,4 -4,-184 396,-184 396,4 -4,4"/>
<!-- closeable -->
<g id="node1" class="node"><title>closeable</title>
<g id="a_node1"><a xlink:href="../PsiReference_Types.xhtml#PsiReference_Types_Details_closeable" xlink:title="closeable" target="_parent">
<polygon fill="linen" stroke="black" points="78,-108 7.10543e-15,-108 7.10543e-15,-72 84,-72 84,-102 78,-108"/>
<polyline fill="none" stroke="black" points="78,-108 78,-102 "/>
<polyline fill="none" stroke="black" points="84,-102 78,-102 "/>
<text text-anchor="middle" x="42" y="-86.3" font-family="monospace" font-size="14.00">closeable</text>
</a>
</g>
</g>
<!-- reader -->
<g id="node5" class="node"><title>reader</title>
<g id="a_node5"><a xlink:href="../PsiReference_Types.xhtml#PsiReference_Types_Details_reader" xlink:title="reader" target="_parent">
<polygon fill="wheat" stroke="black" points="218,-36 162,-36 162,-0 224,-0 224,-30 218,-36"/>
<polyline fill="none" stroke="black" points="218,-36 218,-30 "/>
<polyline fill="none" stroke="black" points="224,-30 218,-30 "/>
<text text-anchor="middle" x="193" y="-14.3" font-family="monospace" font-size="14.00">reader</text>
</a>
</g>
</g>
<!-- closeable&#45;&gt;reader -->
<g id="edge1" class="edge"><title>closeable&#45;&gt;reader</title>
<path fill="none" stroke="black" d="M78.9388,-71.8761C101.193,-61.5596 129.557,-48.4107 152.433,-37.8061"/>
<polygon fill="black" stroke="black" points="153.945,-40.963 161.545,-33.5818 151,-34.6123 153.945,-40.963"/>
</g>
<!-- evaluable -->
<g id="node2" class="node"><title>evaluable</title>
<g id="a_node2"><a xlink:href="../PsiReference_Types.xhtml#PsiReference_Types_Details_evaluable" xlink:title="evaluable" target="_parent">
<polygon fill="linen" stroke="black" points="180,-108 102,-108 102,-72 186,-72 186,-102 180,-108"/>
<polyline fill="none" stroke="black" points="180,-108 180,-102 "/>
<polyline fill="none" stroke="black" points="186,-102 180,-102 "/>
<text text-anchor="middle" x="144" y="-86.3" font-family="monospace" font-size="14.00">evaluable</text>
</a>
</g>
</g>
<!-- evaluable&#45;&gt;reader -->
<g id="edge2" class="edge"><title>evaluable&#45;&gt;reader</title>
<path fill="none" stroke="black" d="M156.112,-71.6966C161.868,-63.4741 168.862,-53.4832 175.206,-44.4207"/>
<polygon fill="black" stroke="black" points="178.16,-46.3038 181.027,-36.1043 172.425,-42.2895 178.16,-46.3038"/>
</g>
<!-- readable -->
<g id="node3" class="node"><title>readable</title>
<g id="a_node3"><a xlink:href="../PsiReference_Types.xhtml#PsiReference_Types_Details_readable" xlink:title="readable" target="_parent">
<polygon fill="linen" stroke="black" points="275.5,-108 204.5,-108 204.5,-72 281.5,-72 281.5,-102 275.5,-108"/>
<polyline fill="none" stroke="black" points="275.5,-108 275.5,-102 "/>
<polyline fill="none" stroke="black" points="281.5,-102 275.5,-102 "/>
<text text-anchor="middle" x="243" y="-86.3" font-family="monospace" font-size="14.00">readable</text>
</a>
</g>
</g>
<!-- readable&#45;&gt;reader -->
<g id="edge3" class="edge"><title>readable&#45;&gt;reader</title>
<path fill="none" stroke="black" d="M230.64,-71.6966C224.767,-63.4741 217.631,-53.4832 211.158,-44.4207"/>
<polygon fill="black" stroke="black" points="213.878,-42.2073 205.217,-36.1043 208.182,-46.276 213.878,-42.2073"/>
</g>
<!-- resettable -->
<g id="node4" class="node"><title>resettable</title>
<g id="a_node4"><a xlink:href="../PsiReference_Types.xhtml#PsiReference_Types_Details_resettable" xlink:title="resettable" target="_parent">
<polygon fill="linen" stroke="black" points="386,-108 300,-108 300,-72 392,-72 392,-102 386,-108"/>
<polyline fill="none" stroke="black" points="386,-108 386,-102 "/>
<polyline fill="none" stroke="black" points="392,-102 386,-102 "/>
<text text-anchor="middle" x="346" y="-86.3" font-family="monospace" font-size="14.00">resettable</text>
</a>
</g>
</g>
<!-- resettable&#45;&gt;reader -->
<g id="edge4" class="edge"><title>resettable&#45;&gt;reader</title>
<path fill="none" stroke="black" d="M308.572,-71.8761C285.79,-61.4529 256.688,-48.1383 233.387,-37.4778"/>
<polygon fill="black" stroke="black" points="234.668,-34.2148 224.118,-33.2371 231.755,-40.5802 234.668,-34.2148"/>
</g>
<!-- object -->
<g id="node6" class="node"><title>object</title>
<g id="a_node6"><a xlink:href="../PsiReference_Types.xhtml#PsiReference_Types_Details_object" xlink:title="object" target="_parent">
<polygon fill="linen" stroke="black" points="218,-180 162,-180 162,-144 224,-144 224,-174 218,-180"/>
<polyline fill="none" stroke="black" points="218,-180 218,-174 "/>
<polyline fill="none" stroke="black" points="224,-174 218,-174 "/>
<text text-anchor="middle" x="193" y="-158.3" font-family="monospace" font-size="14.00">object</text>
</a>
</g>
</g>
<!-- object&#45;&gt;closeable -->
<g id="edge5" class="edge"><title>object&#45;&gt;closeable</title>
<path fill="none" stroke="black" d="M161.713,-146.496C140.436,-136.632 111.926,-123.416 88.0658,-112.355"/>
<polygon fill="black" stroke="black" points="89.3823,-109.108 78.8376,-108.077 86.4381,-115.458 89.3823,-109.108"/>
</g>
<!-- object&#45;&gt;evaluable -->
<g id="edge6" class="edge"><title>object&#45;&gt;evaluable</title>
<path fill="none" stroke="black" d="M180.888,-143.697C175.132,-135.474 168.138,-125.483 161.794,-116.421"/>
<polygon fill="black" stroke="black" points="164.575,-114.29 155.973,-108.104 158.84,-118.304 164.575,-114.29"/>
</g>
<!-- object&#45;&gt;readable -->
<g id="edge7" class="edge"><title>object&#45;&gt;readable</title>
<path fill="none" stroke="black" d="M205.36,-143.697C211.233,-135.474 218.369,-125.483 224.842,-116.421"/>
<polygon fill="black" stroke="black" points="227.818,-118.276 230.783,-108.104 222.122,-114.207 227.818,-118.276"/>
</g>
<!-- object&#45;&gt;resettable -->
<g id="edge8" class="edge"><title>object&#45;&gt;resettable</title>
<path fill="none" stroke="black" d="M224.331,-146.666C245.942,-136.778 275.045,-123.463 299.369,-112.335"/>
<polygon fill="black" stroke="black" points="301.136,-115.375 308.774,-108.032 298.224,-109.009 301.136,-115.375"/>
</g>
</g>
</svg>
