<?xml version="1.0" encoding="UTF-8" standalone="no"?>
<!DOCTYPE svg PUBLIC "-//W3C//DTD SVG 1.1//EN"
 "http://www.w3.org/Graphics/SVG/1.1/DTD/svg11.dtd">
<!-- Generated by graphviz version 2.38.0 (20140413.2041)
 -->
<!-- Title: dict Pages: 1 -->
<svg width="266pt" height="277pt"
 viewBox="0.00 0.00 319.00 332.00" xmlns="http://www.w3.org/2000/svg" xmlns:xlink="http://www.w3.org/1999/xlink">
<g id="graph0" class="graph" transform="scale(0.833333 0.833333) rotate(0) translate(4 328)">
<title>dict</title>
<polygon fill="none" stroke="none" points="-4,4 -4,-328 315,-328 315,4 -4,4"/>
<!-- dictlike -->
<g id="node1" class="node"><title>dictlike</title>
<g id="a_node1"><a xlink:href="../PsiReference_Types.xhtml#PsiReference_Types_Details_dictlike" xlink:title="dictlike" target="_parent">
<polygon fill="linen" stroke="black" points="133,-108 62,-108 62,-72 139,-72 139,-102 133,-108"/>
<polyline fill="none" stroke="black" points="133,-108 133,-102 "/>
<polyline fill="none" stroke="black" points="139,-102 133,-102 "/>
<text text-anchor="middle" x="100.5" y="-86.3" font-family="monospace" font-size="14.00">dictlike</text>
</a>
</g>
</g>
<!-- dict -->
<g id="node2" class="node"><title>dict</title>
<g id="a_node2"><a xlink:href="../PsiReference_Types.xhtml#PsiReference_Types_Details_dict" xlink:title="dict" target="_parent">
<polygon fill="wheat" stroke="black" points="121.5,-36 73.5,-36 73.5,-0 127.5,-0 127.5,-30 121.5,-36"/>
<polyline fill="none" stroke="black" points="121.5,-36 121.5,-30 "/>
<polyline fill="none" stroke="black" points="127.5,-30 121.5,-30 "/>
<text text-anchor="middle" x="100.5" y="-14.3" font-family="monospace" font-size="14.00">dict</text>
</a>
</g>
</g>
<!-- dictlike&#45;&gt;dict -->
<g id="edge1" class="edge"><title>dictlike&#45;&gt;dict</title>
<path fill="none" stroke="black" d="M100.5,-71.6966C100.5,-63.9827 100.5,-54.7125 100.5,-46.1124"/>
<polygon fill="black" stroke="black" points="104,-46.1043 100.5,-36.1043 97.0001,-46.1044 104,-46.1043"/>
</g>
<!-- container -->
<g id="node3" class="node"><title>container</title>
<g id="a_node3"><a xlink:href="../PsiReference_Types.xhtml#PsiReference_Types_Details_container" xlink:title="container" target="_parent">
<polygon fill="linen" stroke="black" points="202.5,-180 124.5,-180 124.5,-144 208.5,-144 208.5,-174 202.5,-180"/>
<polyline fill="none" stroke="black" points="202.5,-180 202.5,-174 "/>
<polyline fill="none" stroke="black" points="208.5,-174 202.5,-174 "/>
<text text-anchor="middle" x="166.5" y="-158.3" font-family="monospace" font-size="14.00">container</text>
</a>
</g>
</g>
<!-- container&#45;&gt;dictlike -->
<g id="edge2" class="edge"><title>container&#45;&gt;dictlike</title>
<path fill="none" stroke="black" d="M150.185,-143.697C142.193,-135.22 132.428,-124.864 123.678,-115.583"/>
<polygon fill="black" stroke="black" points="126.034,-112.979 116.627,-108.104 120.941,-117.781 126.034,-112.979"/>
</g>
<!-- indexed -->
<g id="node4" class="node"><title>indexed</title>
<g id="a_node4"><a xlink:href="../PsiReference_Types.xhtml#PsiReference_Types_Details_indexed" xlink:title="indexed" target="_parent">
<polygon fill="linen" stroke="black" points="63,-180 0,-180 0,-144 69,-144 69,-174 63,-180"/>
<polyline fill="none" stroke="black" points="63,-180 63,-174 "/>
<polyline fill="none" stroke="black" points="69,-174 63,-174 "/>
<text text-anchor="middle" x="34.5" y="-158.3" font-family="monospace" font-size="14.00">indexed</text>
</a>
</g>
</g>
<!-- indexed&#45;&gt;dictlike -->
<g id="edge3" class="edge"><title>indexed&#45;&gt;dictlike</title>
<path fill="none" stroke="black" d="M50.8146,-143.697C58.807,-135.22 68.5715,-124.864 77.3221,-115.583"/>
<polygon fill="black" stroke="black" points="80.0595,-117.781 84.3731,-108.104 74.9663,-112.979 80.0595,-117.781"/>
</g>
<!-- clearable -->
<g id="node5" class="node"><title>clearable</title>
<g id="a_node5"><a xlink:href="../PsiReference_Types.xhtml#PsiReference_Types_Details_clearable" xlink:title="clearable" target="_parent">
<polygon fill="linen" stroke="black" points="122.5,-252 44.5,-252 44.5,-216 128.5,-216 128.5,-246 122.5,-252"/>
<polyline fill="none" stroke="black" points="122.5,-252 122.5,-246 "/>
<polyline fill="none" stroke="black" points="128.5,-246 122.5,-246 "/>
<text text-anchor="middle" x="86.5" y="-230.3" font-family="monospace" font-size="14.00">clearable</text>
</a>
</g>
</g>
<!-- clearable&#45;&gt;container -->
<g id="edge4" class="edge"><title>clearable&#45;&gt;container</title>
<path fill="none" stroke="black" d="M106.275,-215.697C116.254,-206.965 128.511,-196.24 139.357,-186.75"/>
<polygon fill="black" stroke="black" points="141.731,-189.323 146.952,-180.104 137.122,-184.055 141.731,-189.323"/>
</g>
<!-- iterable -->
<g id="node6" class="node"><title>iterable</title>
<g id="a_node6"><a xlink:href="../PsiReference_Types.xhtml#PsiReference_Types_Details_iterable" xlink:title="iterable" target="_parent">
<polygon fill="linen" stroke="black" points="218,-252 147,-252 147,-216 224,-216 224,-246 218,-252"/>
<polyline fill="none" stroke="black" points="218,-252 218,-246 "/>
<polyline fill="none" stroke="black" points="224,-246 218,-246 "/>
<text text-anchor="middle" x="185.5" y="-230.3" font-family="monospace" font-size="14.00">iterable</text>
</a>
</g>
</g>
<!-- iterable&#45;&gt;container -->
<g id="edge5" class="edge"><title>iterable&#45;&gt;container</title>
<path fill="none" stroke="black" d="M180.803,-215.697C178.687,-207.898 176.138,-198.509 173.782,-189.829"/>
<polygon fill="black" stroke="black" points="177.14,-188.838 171.143,-180.104 170.384,-190.672 177.14,-188.838"/>
</g>
<!-- lengthy -->
<g id="node7" class="node"><title>lengthy</title>
<g id="a_node7"><a xlink:href="../PsiReference_Types.xhtml#PsiReference_Types_Details_lengthy" xlink:title="lengthy" target="_parent">
<polygon fill="linen" stroke="black" points="305,-252 242,-252 242,-216 311,-216 311,-246 305,-252"/>
<polyline fill="none" stroke="black" points="305,-252 305,-246 "/>
<polyline fill="none" stroke="black" points="311,-246 305,-246 "/>
<text text-anchor="middle" x="276.5" y="-230.3" font-family="monospace" font-size="14.00">lengthy</text>
</a>
</g>
</g>
<!-- lengthy&#45;&gt;container -->
<g id="edge6" class="edge"><title>lengthy&#45;&gt;container</title>
<path fill="none" stroke="black" d="M249.591,-215.876C235.342,-206.808 217.654,-195.552 202.264,-185.759"/>
<polygon fill="black" stroke="black" points="203.828,-182.606 193.512,-180.19 200.07,-188.511 203.828,-182.606"/>
</g>
<!-- object -->
<g id="node8" class="node"><title>object</title>
<g id="a_node8"><a xlink:href="../PsiReference_Types.xhtml#PsiReference_Types_Details_object" xlink:title="object" target="_parent">
<polygon fill="linen" stroke="black" points="160.5,-324 104.5,-324 104.5,-288 166.5,-288 166.5,-318 160.5,-324"/>
<polyline fill="none" stroke="black" points="160.5,-324 160.5,-318 "/>
<polyline fill="none" stroke="black" points="166.5,-318 160.5,-318 "/>
<text text-anchor="middle" x="135.5" y="-302.3" font-family="monospace" font-size="14.00">object</text>
</a>
</g>
</g>
<!-- object&#45;&gt;indexed -->
<g id="edge7" class="edge"><title>object&#45;&gt;indexed</title>
<path fill="none" stroke="black" d="M104.247,-297.621C80.8554,-290.29 50.4292,-276.496 35.5,-252 24.2888,-233.604 24.992,-208.85 27.9576,-190.118"/>
<polygon fill="black" stroke="black" points="31.4247,-190.619 29.8342,-180.144 24.5454,-189.324 31.4247,-190.619"/>
</g>
<!-- object&#45;&gt;clearable -->
<g id="edge8" class="edge"><title>object&#45;&gt;clearable</title>
<path fill="none" stroke="black" d="M123.388,-287.697C117.632,-279.474 110.638,-269.483 104.294,-260.421"/>
<polygon fill="black" stroke="black" points="107.075,-258.29 98.473,-252.104 101.34,-262.304 107.075,-258.29"/>
</g>
<!-- object&#45;&gt;iterable -->
<g id="edge9" class="edge"><title>object&#45;&gt;iterable</title>
<path fill="none" stroke="black" d="M147.86,-287.697C153.733,-279.474 160.869,-269.483 167.342,-260.421"/>
<polygon fill="black" stroke="black" points="170.318,-262.276 173.283,-252.104 164.622,-258.207 170.318,-262.276"/>
</g>
<!-- object&#45;&gt;lengthy -->
<g id="edge10" class="edge"><title>object&#45;&gt;lengthy</title>
<path fill="none" stroke="black" d="M166.792,-289.465C186.228,-279.816 211.492,-267.273 232.876,-256.657"/>
<polygon fill="black" stroke="black" points="234.683,-259.668 242.084,-252.086 231.57,-253.398 234.683,-259.668"/>
</g>
</g>
</svg>
