<?xml version="1.0" encoding="UTF-8" standalone="no"?>
<!DOCTYPE svg PUBLIC "-//W3C//DTD SVG 1.1//EN"
 "http://www.w3.org/Graphics/SVG/1.1/DTD/svg11.dtd">
<!-- Generated by graphviz version 2.38.0 (20140413.2041)
 -->
<!-- Title: numeric Pages: 1 -->
<svg width="150pt" height="217pt"
 viewBox="0.00 0.00 180.00 260.00" xmlns="http://www.w3.org/2000/svg" xmlns:xlink="http://www.w3.org/1999/xlink">
<g id="graph0" class="graph" transform="scale(0.833333 0.833333) rotate(0) translate(4 256)">
<title>numeric</title>
<polygon fill="none" stroke="none" points="-4,4 -4,-256 176,-256 176,4 -4,4"/>
<!-- arithmetic -->
<g id="node1" class="node"><title>arithmetic</title>
<g id="a_node1"><a xlink:href="../PsiReference_Types.xhtml#PsiReference_Types_Details_arithmetic" xlink:title="arithmetic" target="_parent">
<polygon fill="linen" stroke="black" points="166,-108 80,-108 80,-72 172,-72 172,-102 166,-108"/>
<polyline fill="none" stroke="black" points="166,-108 166,-102 "/>
<polyline fill="none" stroke="black" points="172,-102 166,-102 "/>
<text text-anchor="middle" x="126" y="-86.3" font-family="monospace" font-size="14.00">arithmetic</text>
</a>
</g>
</g>
<!-- numeric -->
<g id="node3" class="node"><title>numeric</title>
<g id="a_node3"><a xlink:href="../PsiReference_Types.xhtml#PsiReference_Types_Details_numeric" xlink:title="numeric" target="_parent">
<polygon fill="wheat" stroke="black" points="106.5,-36 43.5,-36 43.5,-0 112.5,-0 112.5,-30 106.5,-36"/>
<polyline fill="none" stroke="black" points="106.5,-36 106.5,-30 "/>
<polyline fill="none" stroke="black" points="112.5,-30 106.5,-30 "/>
<text text-anchor="middle" x="78" y="-14.3" font-family="monospace" font-size="14.00">numeric</text>
</a>
</g>
</g>
<!-- arithmetic&#45;&gt;numeric -->
<g id="edge1" class="edge"><title>arithmetic&#45;&gt;numeric</title>
<path fill="none" stroke="black" d="M114.135,-71.6966C108.497,-63.4741 101.646,-53.4832 95.4313,-44.4207"/>
<polygon fill="black" stroke="black" points="98.2706,-42.3723 89.7287,-36.1043 92.4975,-46.331 98.2706,-42.3723"/>
</g>
<!-- atomic -->
<g id="node2" class="node"><title>atomic</title>
<g id="a_node2"><a xlink:href="../PsiReference_Types.xhtml#PsiReference_Types_Details_atomic" xlink:title="atomic" target="_parent">
<polygon fill="linen" stroke="black" points="56,-108 3.55271e-15,-108 3.55271e-15,-72 62,-72 62,-102 56,-108"/>
<polyline fill="none" stroke="black" points="56,-108 56,-102 "/>
<polyline fill="none" stroke="black" points="62,-102 56,-102 "/>
<text text-anchor="middle" x="31" y="-86.3" font-family="monospace" font-size="14.00">atomic</text>
</a>
</g>
</g>
<!-- atomic&#45;&gt;numeric -->
<g id="edge2" class="edge"><title>atomic&#45;&gt;numeric</title>
<path fill="none" stroke="black" d="M42.618,-71.6966C48.1388,-63.4741 54.847,-53.4832 60.9318,-44.4207"/>
<polygon fill="black" stroke="black" points="63.8471,-46.3576 66.5157,-36.1043 58.0355,-42.4555 63.8471,-46.3576"/>
</g>
<!-- additive -->
<g id="node4" class="node"><title>additive</title>
<g id="a_node4"><a xlink:href="../PsiReference_Types.xhtml#PsiReference_Types_Details_additive" xlink:title="additive" target="_parent">
<polygon fill="linen" stroke="black" points="151.5,-180 80.5,-180 80.5,-144 157.5,-144 157.5,-174 151.5,-180"/>
<polyline fill="none" stroke="black" points="151.5,-180 151.5,-174 "/>
<polyline fill="none" stroke="black" points="157.5,-174 151.5,-174 "/>
<text text-anchor="middle" x="119" y="-158.3" font-family="monospace" font-size="14.00">additive</text>
</a>
</g>
</g>
<!-- additive&#45;&gt;arithmetic -->
<g id="edge3" class="edge"><title>additive&#45;&gt;arithmetic</title>
<path fill="none" stroke="black" d="M120.73,-143.697C121.502,-135.983 122.429,-126.712 123.289,-118.112"/>
<polygon fill="black" stroke="black" points="126.777,-118.403 124.29,-108.104 119.812,-117.706 126.777,-118.403"/>
</g>
<!-- object -->
<g id="node5" class="node"><title>object</title>
<g id="a_node5"><a xlink:href="../PsiReference_Types.xhtml#PsiReference_Types_Details_object" xlink:title="object" target="_parent">
<polygon fill="linen" stroke="black" points="103,-252 47,-252 47,-216 109,-216 109,-246 103,-252"/>
<polyline fill="none" stroke="black" points="103,-252 103,-246 "/>
<polyline fill="none" stroke="black" points="109,-246 103,-246 "/>
<text text-anchor="middle" x="78" y="-230.3" font-family="monospace" font-size="14.00">object</text>
</a>
</g>
</g>
<!-- object&#45;&gt;atomic -->
<g id="edge4" class="edge"><title>object&#45;&gt;atomic</title>
<path fill="none" stroke="black" d="M72.3307,-215.871C64.2851,-191.564 49.4752,-146.819 39.941,-118.013"/>
<polygon fill="black" stroke="black" points="43.1544,-116.583 36.6894,-108.189 36.509,-118.783 43.1544,-116.583"/>
</g>
<!-- object&#45;&gt;additive -->
<g id="edge5" class="edge"><title>object&#45;&gt;additive</title>
<path fill="none" stroke="black" d="M88.1348,-215.697C92.8516,-207.644 98.5618,-197.894 103.782,-188.982"/>
<polygon fill="black" stroke="black" points="106.948,-190.502 108.982,-180.104 100.908,-186.964 106.948,-190.502"/>
</g>
</g>
</svg>
