<?xml version="1.0" encoding="UTF-8" standalone="no"?>
<!DOCTYPE svg PUBLIC "-//W3C//DTD SVG 1.1//EN"
 "http://www.w3.org/Graphics/SVG/1.1/DTD/svg11.dtd">
<!-- Generated by graphviz version 2.38.0 (20140413.2041)
 -->
<!-- Title: string Pages: 1 -->
<svg width="465pt" height="277pt"
 viewBox="0.00 0.00 557.50 332.00" xmlns="http://www.w3.org/2000/svg" xmlns:xlink="http://www.w3.org/1999/xlink">
<g id="graph0" class="graph" transform="scale(0.833333 0.833333) rotate(0) translate(4 328)">
<title>string</title>
<polygon fill="none" stroke="none" points="-4,4 -4,-328 553.5,-328 553.5,4 -4,4"/>
<!-- arraylike -->
<g id="node1" class="node"><title>arraylike</title>
<g id="a_node1"><a xlink:href="../PsiReference_Types.xhtml#PsiReference_Types_Details_arraylike" xlink:title="arraylike" target="_parent">
<polygon fill="linen" stroke="black" points="202.5,-108 124.5,-108 124.5,-72 208.5,-72 208.5,-102 202.5,-108"/>
<polyline fill="none" stroke="black" points="202.5,-108 202.5,-102 "/>
<polyline fill="none" stroke="black" points="208.5,-102 202.5,-102 "/>
<text text-anchor="middle" x="166.5" y="-86.3" font-family="monospace" font-size="14.00">arraylike</text>
</a>
</g>
</g>
<!-- string -->
<g id="node3" class="node"><title>string</title>
<g id="a_node3"><a xlink:href="../PsiReference_Types.xhtml#PsiReference_Types_Details_string" xlink:title="string" target="_parent">
<polygon fill="wheat" stroke="black" points="258.5,-36 202.5,-36 202.5,-0 264.5,-0 264.5,-30 258.5,-36"/>
<polyline fill="none" stroke="black" points="258.5,-36 258.5,-30 "/>
<polyline fill="none" stroke="black" points="264.5,-30 258.5,-30 "/>
<text text-anchor="middle" x="233.5" y="-14.3" font-family="monospace" font-size="14.00">string</text>
</a>
</g>
</g>
<!-- arraylike&#45;&gt;string -->
<g id="edge1" class="edge"><title>arraylike&#45;&gt;string</title>
<path fill="none" stroke="black" d="M183.062,-71.6966C191.175,-63.2198 201.088,-52.8636 209.971,-43.5826"/>
<polygon fill="black" stroke="black" points="212.743,-45.7486 217.129,-36.1043 207.686,-40.9084 212.743,-45.7486"/>
</g>
<!-- stringy -->
<g id="node2" class="node"><title>stringy</title>
<g id="a_node2"><a xlink:href="../PsiReference_Types.xhtml#PsiReference_Types_Details_stringy" xlink:title="stringy" target="_parent">
<polygon fill="linen" stroke="black" points="363,-180 300,-180 300,-144 369,-144 369,-174 363,-180"/>
<polyline fill="none" stroke="black" points="363,-180 363,-174 "/>
<polyline fill="none" stroke="black" points="369,-174 363,-174 "/>
<text text-anchor="middle" x="334.5" y="-158.3" font-family="monospace" font-size="14.00">stringy</text>
</a>
</g>
</g>
<!-- stringy&#45;&gt;string -->
<g id="edge2" class="edge"><title>stringy&#45;&gt;string</title>
<path fill="none" stroke="black" d="M322.317,-143.871C304.724,-119.137 272.081,-73.2424 251.646,-44.5121"/>
<polygon fill="black" stroke="black" points="254.374,-42.3096 245.726,-36.1893 248.67,-46.3669 254.374,-42.3096"/>
</g>
<!-- appendable -->
<g id="node4" class="node"><title>appendable</title>
<g id="a_node4"><a xlink:href="../PsiReference_Types.xhtml#PsiReference_Types_Details_appendable" xlink:title="appendable" target="_parent">
<polygon fill="linen" stroke="black" points="173.5,-180 87.5,-180 87.5,-144 179.5,-144 179.5,-174 173.5,-180"/>
<polyline fill="none" stroke="black" points="173.5,-180 173.5,-174 "/>
<polyline fill="none" stroke="black" points="179.5,-174 173.5,-174 "/>
<text text-anchor="middle" x="133.5" y="-158.3" font-family="monospace" font-size="14.00">appendable</text>
</a>
</g>
</g>
<!-- appendable&#45;&gt;arraylike -->
<g id="edge3" class="edge"><title>appendable&#45;&gt;arraylike</title>
<path fill="none" stroke="black" d="M141.657,-143.697C145.414,-135.728 149.953,-126.1 154.118,-117.264"/>
<polygon fill="black" stroke="black" points="157.338,-118.642 158.437,-108.104 151.006,-115.657 157.338,-118.642"/>
</g>
<!-- container -->
<g id="node5" class="node"><title>container</title>
<g id="a_node5"><a xlink:href="../PsiReference_Types.xhtml#PsiReference_Types_Details_container" xlink:title="container" target="_parent">
<polygon fill="linen" stroke="black" points="275.5,-180 197.5,-180 197.5,-144 281.5,-144 281.5,-174 275.5,-180"/>
<polyline fill="none" stroke="black" points="275.5,-180 275.5,-174 "/>
<polyline fill="none" stroke="black" points="281.5,-174 275.5,-174 "/>
<text text-anchor="middle" x="239.5" y="-158.3" font-family="monospace" font-size="14.00">container</text>
</a>
</g>
</g>
<!-- container&#45;&gt;arraylike -->
<g id="edge4" class="edge"><title>container&#45;&gt;arraylike</title>
<path fill="none" stroke="black" d="M221.455,-143.697C212.438,-135.05 201.382,-124.449 191.557,-115.027"/>
<polygon fill="black" stroke="black" points="193.978,-112.499 184.337,-108.104 189.133,-117.552 193.978,-112.499"/>
</g>
<!-- indexed -->
<g id="node6" class="node"><title>indexed</title>
<g id="a_node6"><a xlink:href="../PsiReference_Types.xhtml#PsiReference_Types_Details_indexed" xlink:title="indexed" target="_parent">
<polygon fill="linen" stroke="black" points="63,-180 0,-180 0,-144 69,-144 69,-174 63,-180"/>
<polyline fill="none" stroke="black" points="63,-180 63,-174 "/>
<polyline fill="none" stroke="black" points="69,-174 63,-174 "/>
<text text-anchor="middle" x="34.5" y="-158.3" font-family="monospace" font-size="14.00">indexed</text>
</a>
</g>
</g>
<!-- indexed&#45;&gt;arraylike -->
<g id="edge5" class="edge"><title>indexed&#45;&gt;arraylike</title>
<path fill="none" stroke="black" d="M66.7908,-143.876C84.3694,-134.554 106.309,-122.919 125.129,-112.939"/>
<polygon fill="black" stroke="black" points="126.89,-115.967 134.085,-108.19 123.611,-109.783 126.89,-115.967"/>
</g>
<!-- evaluable -->
<g id="node7" class="node"><title>evaluable</title>
<g id="a_node7"><a xlink:href="../PsiReference_Types.xhtml#PsiReference_Types_Details_evaluable" xlink:title="evaluable" target="_parent">
<polygon fill="linen" stroke="black" points="543.5,-252 465.5,-252 465.5,-216 549.5,-216 549.5,-246 543.5,-252"/>
<polyline fill="none" stroke="black" points="543.5,-252 543.5,-246 "/>
<polyline fill="none" stroke="black" points="549.5,-246 543.5,-246 "/>
<text text-anchor="middle" x="507.5" y="-230.3" font-family="monospace" font-size="14.00">evaluable</text>
</a>
</g>
</g>
<!-- evaluable&#45;&gt;stringy -->
<g id="edge6" class="edge"><title>evaluable&#45;&gt;stringy</title>
<path fill="none" stroke="black" d="M465.179,-215.876C438.898,-205.242 405.178,-191.598 378.574,-180.833"/>
<polygon fill="black" stroke="black" points="379.704,-177.515 369.122,-177.009 377.079,-184.004 379.704,-177.515"/>
</g>
<!-- iterable -->
<g id="node8" class="node"><title>iterable</title>
<g id="a_node8"><a xlink:href="../PsiReference_Types.xhtml#PsiReference_Types_Details_iterable" xlink:title="iterable" target="_parent">
<polygon fill="linen" stroke="black" points="274,-252 203,-252 203,-216 280,-216 280,-246 274,-252"/>
<polyline fill="none" stroke="black" points="274,-252 274,-246 "/>
<polyline fill="none" stroke="black" points="280,-246 274,-246 "/>
<text text-anchor="middle" x="241.5" y="-230.3" font-family="monospace" font-size="14.00">iterable</text>
</a>
</g>
</g>
<!-- iterable&#45;&gt;stringy -->
<g id="edge7" class="edge"><title>iterable&#45;&gt;stringy</title>
<path fill="none" stroke="black" d="M264.489,-215.697C276.314,-206.796 290.892,-195.823 303.679,-186.199"/>
<polygon fill="black" stroke="black" points="305.891,-188.915 311.776,-180.104 301.681,-183.322 305.891,-188.915"/>
</g>
<!-- iterable&#45;&gt;container -->
<g id="edge12" class="edge"><title>iterable&#45;&gt;container</title>
<path fill="none" stroke="black" d="M241.006,-215.697C240.785,-207.983 240.52,-198.712 240.275,-190.112"/>
<polygon fill="black" stroke="black" points="243.773,-190 239.989,-180.104 236.776,-190.2 243.773,-190"/>
</g>
<!-- lengthy -->
<g id="node9" class="node"><title>lengthy</title>
<g id="a_node9"><a xlink:href="../PsiReference_Types.xhtml#PsiReference_Types_Details_lengthy" xlink:title="lengthy" target="_parent">
<polygon fill="linen" stroke="black" points="361,-252 298,-252 298,-216 367,-216 367,-246 361,-252"/>
<polyline fill="none" stroke="black" points="361,-252 361,-246 "/>
<polyline fill="none" stroke="black" points="367,-246 361,-246 "/>
<text text-anchor="middle" x="332.5" y="-230.3" font-family="monospace" font-size="14.00">lengthy</text>
</a>
</g>
</g>
<!-- lengthy&#45;&gt;stringy -->
<g id="edge8" class="edge"><title>lengthy&#45;&gt;stringy</title>
<path fill="none" stroke="black" d="M332.994,-215.697C333.215,-207.983 333.48,-198.712 333.725,-190.112"/>
<polygon fill="black" stroke="black" points="337.224,-190.2 334.011,-180.104 330.227,-190 337.224,-190.2"/>
</g>
<!-- lengthy&#45;&gt;container -->
<g id="edge13" class="edge"><title>lengthy&#45;&gt;container</title>
<path fill="none" stroke="black" d="M309.511,-215.697C297.686,-206.796 283.108,-195.823 270.321,-186.199"/>
<polygon fill="black" stroke="black" points="272.319,-183.322 262.224,-180.104 268.109,-188.915 272.319,-183.322"/>
</g>
<!-- scalar -->
<g id="node10" class="node"><title>scalar</title>
<g id="a_node10"><a xlink:href="../PsiReference_Types.xhtml#PsiReference_Types_Details_scalar" xlink:title="scalar" target="_parent">
<polygon fill="linen" stroke="black" points="441.5,-252 385.5,-252 385.5,-216 447.5,-216 447.5,-246 441.5,-252"/>
<polyline fill="none" stroke="black" points="441.5,-252 441.5,-246 "/>
<polyline fill="none" stroke="black" points="447.5,-246 441.5,-246 "/>
<text text-anchor="middle" x="416.5" y="-230.3" font-family="monospace" font-size="14.00">scalar</text>
</a>
</g>
</g>
<!-- scalar&#45;&gt;stringy -->
<g id="edge9" class="edge"><title>scalar&#45;&gt;stringy</title>
<path fill="none" stroke="black" d="M396.23,-215.697C386.002,-206.965 373.439,-196.24 362.322,-186.75"/>
<polygon fill="black" stroke="black" points="364.415,-183.935 354.537,-180.104 359.87,-189.259 364.415,-183.935"/>
</g>
<!-- object -->
<g id="node11" class="node"><title>object</title>
<g id="a_node11"><a xlink:href="../PsiReference_Types.xhtml#PsiReference_Types_Details_object" xlink:title="object" target="_parent">
<polygon fill="linen" stroke="black" points="266.5,-324 210.5,-324 210.5,-288 272.5,-288 272.5,-318 266.5,-324"/>
<polyline fill="none" stroke="black" points="266.5,-324 266.5,-318 "/>
<polyline fill="none" stroke="black" points="272.5,-318 266.5,-318 "/>
<text text-anchor="middle" x="241.5" y="-302.3" font-family="monospace" font-size="14.00">object</text>
</a>
</g>
</g>
<!-- object&#45;&gt;appendable -->
<g id="edge10" class="edge"><title>object&#45;&gt;appendable</title>
<path fill="none" stroke="black" d="M210.326,-303.974C174.855,-300.935 118.373,-289.996 91.5,-252 77.2564,-231.861 92.437,-206.13 108.384,-187.52"/>
<polygon fill="black" stroke="black" points="111.061,-189.778 115.181,-180.018 105.873,-185.078 111.061,-189.778"/>
</g>
<!-- object&#45;&gt;indexed -->
<g id="edge14" class="edge"><title>object&#45;&gt;indexed</title>
<path fill="none" stroke="black" d="M210.385,-301.526C175.69,-296.216 119.587,-283.172 82.5,-252 63.1598,-235.744 50.3949,-209.639 42.9247,-189.895"/>
<polygon fill="black" stroke="black" points="46.1392,-188.488 39.494,-180.236 39.5429,-190.831 46.1392,-188.488"/>
</g>
<!-- object&#45;&gt;evaluable -->
<g id="edge15" class="edge"><title>object&#45;&gt;evaluable</title>
<path fill="none" stroke="black" d="M272.683,-298.138C312.809,-289.129 384.844,-272.352 455.346,-252.224"/>
<polygon fill="black" stroke="black" points="456.64,-255.494 465.281,-249.362 454.703,-248.767 456.64,-255.494"/>
</g>
<!-- object&#45;&gt;iterable -->
<g id="edge16" class="edge"><title>object&#45;&gt;iterable</title>
<path fill="none" stroke="black" d="M241.5,-287.697C241.5,-279.983 241.5,-270.712 241.5,-262.112"/>
<polygon fill="black" stroke="black" points="245,-262.104 241.5,-252.104 238,-262.104 245,-262.104"/>
</g>
<!-- object&#45;&gt;lengthy -->
<g id="edge17" class="edge"><title>object&#45;&gt;lengthy</title>
<path fill="none" stroke="black" d="M263.994,-287.697C275.455,-278.881 289.558,-268.032 301.984,-258.474"/>
<polygon fill="black" stroke="black" points="304.472,-260.976 310.264,-252.104 300.204,-255.427 304.472,-260.976"/>
</g>
<!-- object&#45;&gt;scalar -->
<g id="edge18" class="edge"><title>object&#45;&gt;scalar</title>
<path fill="none" stroke="black" d="M272.697,-293.035C298.141,-283.214 335.225,-268.759 375.6,-252.322"/>
<polygon fill="black" stroke="black" points="377.157,-255.467 385.092,-248.446 374.511,-248.986 377.157,-255.467"/>
</g>
<!-- clearable -->
<g id="node12" class="node"><title>clearable</title>
<g id="a_node12"><a xlink:href="../PsiReference_Types.xhtml#PsiReference_Types_Details_clearable" xlink:title="clearable" target="_parent">
<polygon fill="linen" stroke="black" points="178.5,-252 100.5,-252 100.5,-216 184.5,-216 184.5,-246 178.5,-252"/>
<polyline fill="none" stroke="black" points="178.5,-252 178.5,-246 "/>
<polyline fill="none" stroke="black" points="184.5,-246 178.5,-246 "/>
<text text-anchor="middle" x="142.5" y="-230.3" font-family="monospace" font-size="14.00">clearable</text>
</a>
</g>
</g>
<!-- object&#45;&gt;clearable -->
<g id="edge19" class="edge"><title>object&#45;&gt;clearable</title>
<path fill="none" stroke="black" d="M217.282,-287.876C204.577,-278.893 188.836,-267.763 175.077,-258.034"/>
<polygon fill="black" stroke="black" points="176.997,-255.105 166.811,-252.19 172.956,-260.821 176.997,-255.105"/>
</g>
<!-- clearable&#45;&gt;container -->
<g id="edge11" class="edge"><title>clearable&#45;&gt;container</title>
<path fill="none" stroke="black" d="M166.478,-215.697C178.811,-206.796 194.016,-195.823 207.353,-186.199"/>
<polygon fill="black" stroke="black" points="209.737,-188.794 215.798,-180.104 205.641,-183.118 209.737,-188.794"/>
</g>
</g>
</svg>
