<?xml version="1.0" encoding="UTF-8" standalone="no"?>
<!DOCTYPE svg PUBLIC "-//W3C//DTD SVG 1.1//EN"
 "http://www.w3.org/Graphics/SVG/1.1/DTD/svg11.dtd">
<!-- Generated by graphviz version 2.38.0 (20140413.2041)
 -->
<!-- Title: dictlike Pages: 1 -->
<svg width="266pt" height="217pt"
 viewBox="0.00 0.00 319.00 260.00" xmlns="http://www.w3.org/2000/svg" xmlns:xlink="http://www.w3.org/1999/xlink">
<g id="graph0" class="graph" transform="scale(0.833333 0.833333) rotate(0) translate(4 256)">
<title>dictlike</title>
<polygon fill="none" stroke="none" points="-4,4 -4,-256 315,-256 315,4 -4,4"/>
<!-- container -->
<g id="node1" class="node"><title>container</title>
<g id="a_node1"><a xlink:href="../PsiReference_Types.xhtml#PsiReference_Types_Details_container" xlink:title="container" target="_parent">
<polygon fill="linen" stroke="black" points="202.5,-108 124.5,-108 124.5,-72 208.5,-72 208.5,-102 202.5,-108"/>
<polyline fill="none" stroke="black" points="202.5,-108 202.5,-102 "/>
<polyline fill="none" stroke="black" points="208.5,-102 202.5,-102 "/>
<text text-anchor="middle" x="166.5" y="-86.3" font-family="monospace" font-size="14.00">container</text>
</a>
</g>
</g>
<!-- dictlike -->
<g id="node3" class="node"><title>dictlike</title>
<g id="a_node3"><a xlink:href="../PsiReference_Types.xhtml#PsiReference_Types_Details_dictlike" xlink:title="dictlike" target="_parent">
<polygon fill="wheat" stroke="black" points="133,-36 62,-36 62,-0 139,-0 139,-30 133,-36"/>
<polyline fill="none" stroke="black" points="133,-36 133,-30 "/>
<polyline fill="none" stroke="black" points="139,-30 133,-30 "/>
<text text-anchor="middle" x="100.5" y="-14.3" font-family="monospace" font-size="14.00">dictlike</text>
</a>
</g>
</g>
<!-- container&#45;&gt;dictlike -->
<g id="edge1" class="edge"><title>container&#45;&gt;dictlike</title>
<path fill="none" stroke="black" d="M150.185,-71.6966C142.193,-63.2198 132.428,-52.8636 123.678,-43.5826"/>
<polygon fill="black" stroke="black" points="126.034,-40.9792 116.627,-36.1043 120.941,-45.7813 126.034,-40.9792"/>
</g>
<!-- indexed -->
<g id="node2" class="node"><title>indexed</title>
<g id="a_node2"><a xlink:href="../PsiReference_Types.xhtml#PsiReference_Types_Details_indexed" xlink:title="indexed" target="_parent">
<polygon fill="linen" stroke="black" points="63,-108 0,-108 0,-72 69,-72 69,-102 63,-108"/>
<polyline fill="none" stroke="black" points="63,-108 63,-102 "/>
<polyline fill="none" stroke="black" points="69,-102 63,-102 "/>
<text text-anchor="middle" x="34.5" y="-86.3" font-family="monospace" font-size="14.00">indexed</text>
</a>
</g>
</g>
<!-- indexed&#45;&gt;dictlike -->
<g id="edge2" class="edge"><title>indexed&#45;&gt;dictlike</title>
<path fill="none" stroke="black" d="M50.8146,-71.6966C58.807,-63.2198 68.5715,-52.8636 77.3221,-43.5826"/>
<polygon fill="black" stroke="black" points="80.0595,-45.7813 84.3731,-36.1043 74.9663,-40.9792 80.0595,-45.7813"/>
</g>
<!-- clearable -->
<g id="node4" class="node"><title>clearable</title>
<g id="a_node4"><a xlink:href="../PsiReference_Types.xhtml#PsiReference_Types_Details_clearable" xlink:title="clearable" target="_parent">
<polygon fill="linen" stroke="black" points="122.5,-180 44.5,-180 44.5,-144 128.5,-144 128.5,-174 122.5,-180"/>
<polyline fill="none" stroke="black" points="122.5,-180 122.5,-174 "/>
<polyline fill="none" stroke="black" points="128.5,-174 122.5,-174 "/>
<text text-anchor="middle" x="86.5" y="-158.3" font-family="monospace" font-size="14.00">clearable</text>
</a>
</g>
</g>
<!-- clearable&#45;&gt;container -->
<g id="edge3" class="edge"><title>clearable&#45;&gt;container</title>
<path fill="none" stroke="black" d="M106.275,-143.697C116.254,-134.965 128.511,-124.24 139.357,-114.75"/>
<polygon fill="black" stroke="black" points="141.731,-117.323 146.952,-108.104 137.122,-112.055 141.731,-117.323"/>
</g>
<!-- iterable -->
<g id="node5" class="node"><title>iterable</title>
<g id="a_node5"><a xlink:href="../PsiReference_Types.xhtml#PsiReference_Types_Details_iterable" xlink:title="iterable" target="_parent">
<polygon fill="linen" stroke="black" points="218,-180 147,-180 147,-144 224,-144 224,-174 218,-180"/>
<polyline fill="none" stroke="black" points="218,-180 218,-174 "/>
<polyline fill="none" stroke="black" points="224,-174 218,-174 "/>
<text text-anchor="middle" x="185.5" y="-158.3" font-family="monospace" font-size="14.00">iterable</text>
</a>
</g>
</g>
<!-- iterable&#45;&gt;container -->
<g id="edge4" class="edge"><title>iterable&#45;&gt;container</title>
<path fill="none" stroke="black" d="M180.803,-143.697C178.687,-135.898 176.138,-126.509 173.782,-117.829"/>
<polygon fill="black" stroke="black" points="177.14,-116.838 171.143,-108.104 170.384,-118.672 177.14,-116.838"/>
</g>
<!-- lengthy -->
<g id="node6" class="node"><title>lengthy</title>
<g id="a_node6"><a xlink:href="../PsiReference_Types.xhtml#PsiReference_Types_Details_lengthy" xlink:title="lengthy" target="_parent">
<polygon fill="linen" stroke="black" points="305,-180 242,-180 242,-144 311,-144 311,-174 305,-180"/>
<polyline fill="none" stroke="black" points="305,-180 305,-174 "/>
<polyline fill="none" stroke="black" points="311,-174 305,-174 "/>
<text text-anchor="middle" x="276.5" y="-158.3" font-family="monospace" font-size="14.00">lengthy</text>
</a>
</g>
</g>
<!-- lengthy&#45;&gt;container -->
<g id="edge5" class="edge"><title>lengthy&#45;&gt;container</title>
<path fill="none" stroke="black" d="M249.591,-143.876C235.342,-134.808 217.654,-123.552 202.264,-113.759"/>
<polygon fill="black" stroke="black" points="203.828,-110.606 193.512,-108.19 200.07,-116.511 203.828,-110.606"/>
</g>
<!-- object -->
<g id="node7" class="node"><title>object</title>
<g id="a_node7"><a xlink:href="../PsiReference_Types.xhtml#PsiReference_Types_Details_object" xlink:title="object" target="_parent">
<polygon fill="linen" stroke="black" points="160.5,-252 104.5,-252 104.5,-216 166.5,-216 166.5,-246 160.5,-252"/>
<polyline fill="none" stroke="black" points="160.5,-252 160.5,-246 "/>
<polyline fill="none" stroke="black" points="166.5,-246 160.5,-246 "/>
<text text-anchor="middle" x="135.5" y="-230.3" font-family="monospace" font-size="14.00">object</text>
</a>
</g>
</g>
<!-- object&#45;&gt;indexed -->
<g id="edge6" class="edge"><title>object&#45;&gt;indexed</title>
<path fill="none" stroke="black" d="M104.247,-225.621C80.8554,-218.29 50.4292,-204.496 35.5,-180 24.2888,-161.604 24.992,-136.85 27.9576,-118.118"/>
<polygon fill="black" stroke="black" points="31.4247,-118.619 29.8342,-108.144 24.5454,-117.324 31.4247,-118.619"/>
</g>
<!-- object&#45;&gt;clearable -->
<g id="edge7" class="edge"><title>object&#45;&gt;clearable</title>
<path fill="none" stroke="black" d="M123.388,-215.697C117.632,-207.474 110.638,-197.483 104.294,-188.421"/>
<polygon fill="black" stroke="black" points="107.075,-186.29 98.473,-180.104 101.34,-190.304 107.075,-186.29"/>
</g>
<!-- object&#45;&gt;iterable -->
<g id="edge8" class="edge"><title>object&#45;&gt;iterable</title>
<path fill="none" stroke="black" d="M147.86,-215.697C153.733,-207.474 160.869,-197.483 167.342,-188.421"/>
<polygon fill="black" stroke="black" points="170.318,-190.276 173.283,-180.104 164.622,-186.207 170.318,-190.276"/>
</g>
<!-- object&#45;&gt;lengthy -->
<g id="edge9" class="edge"><title>object&#45;&gt;lengthy</title>
<path fill="none" stroke="black" d="M166.792,-217.465C186.228,-207.816 211.492,-195.273 232.876,-184.657"/>
<polygon fill="black" stroke="black" points="234.683,-187.668 242.084,-180.086 231.57,-181.398 234.683,-187.668"/>
</g>
</g>
</svg>
