<?xml version="1.0" encoding="UTF-8" standalone="no"?>
<!DOCTYPE svg PUBLIC "-//W3C//DTD SVG 1.1//EN"
 "http://www.w3.org/Graphics/SVG/1.1/DTD/svg11.dtd">
<!-- Generated by graphviz version 2.38.0 (20140413.2041)
 -->
<!-- Title: proc Pages: 1 -->
<svg width="322pt" height="337pt"
 viewBox="0.00 0.00 386.50 404.00" xmlns="http://www.w3.org/2000/svg" xmlns:xlink="http://www.w3.org/1999/xlink">
<g id="graph0" class="graph" transform="scale(0.833333 0.833333) rotate(0) translate(4 400)">
<title>proc</title>
<polygon fill="none" stroke="none" points="-4,4 -4,-400 382.5,-400 382.5,4 -4,4"/>
<!-- array -->
<g id="node1" class="node"><title>array</title>
<g id="a_node1"><a xlink:href="../PsiReference_Types.xhtml#PsiReference_Types_Details_array" xlink:title="array" target="_parent">
<polygon fill="linen" stroke="black" points="166,-108 118,-108 118,-72 172,-72 172,-102 166,-108"/>
<polyline fill="none" stroke="black" points="166,-108 166,-102 "/>
<polyline fill="none" stroke="black" points="172,-102 166,-102 "/>
<text text-anchor="middle" x="145" y="-86.3" font-family="monospace" font-size="14.00">array</text>
</a>
</g>
</g>
<!-- proc -->
<g id="node2" class="node"><title>proc</title>
<g id="a_node2"><a xlink:href="../PsiReference_Types.xhtml#PsiReference_Types_Details_proc" xlink:title="proc" target="_parent">
<polygon fill="wheat" stroke="black" points="166,-36 118,-36 118,-0 172,-0 172,-30 166,-36"/>
<polyline fill="none" stroke="black" points="166,-36 166,-30 "/>
<polyline fill="none" stroke="black" points="172,-30 166,-30 "/>
<text text-anchor="middle" x="145" y="-14.3" font-family="monospace" font-size="14.00">proc</text>
</a>
</g>
</g>
<!-- array&#45;&gt;proc -->
<g id="edge1" class="edge"><title>array&#45;&gt;proc</title>
<path fill="none" stroke="black" d="M145,-71.6966C145,-63.9827 145,-54.7125 145,-46.1124"/>
<polygon fill="black" stroke="black" points="148.5,-46.1043 145,-36.1043 141.5,-46.1044 148.5,-46.1043"/>
</g>
<!-- arraylike -->
<g id="node3" class="node"><title>arraylike</title>
<g id="a_node3"><a xlink:href="../PsiReference_Types.xhtml#PsiReference_Types_Details_arraylike" xlink:title="arraylike" target="_parent">
<polygon fill="linen" stroke="black" points="181,-180 103,-180 103,-144 187,-144 187,-174 181,-180"/>
<polyline fill="none" stroke="black" points="181,-180 181,-174 "/>
<polyline fill="none" stroke="black" points="187,-174 181,-174 "/>
<text text-anchor="middle" x="145" y="-158.3" font-family="monospace" font-size="14.00">arraylike</text>
</a>
</g>
</g>
<!-- arraylike&#45;&gt;array -->
<g id="edge2" class="edge"><title>arraylike&#45;&gt;array</title>
<path fill="none" stroke="black" d="M145,-143.697C145,-135.983 145,-126.712 145,-118.112"/>
<polygon fill="black" stroke="black" points="148.5,-118.104 145,-108.104 141.5,-118.104 148.5,-118.104"/>
</g>
<!-- appendable -->
<g id="node4" class="node"><title>appendable</title>
<g id="a_node4"><a xlink:href="../PsiReference_Types.xhtml#PsiReference_Types_Details_appendable" xlink:title="appendable" target="_parent">
<polygon fill="linen" stroke="black" points="86,-252 0,-252 0,-216 92,-216 92,-246 86,-252"/>
<polyline fill="none" stroke="black" points="86,-252 86,-246 "/>
<polyline fill="none" stroke="black" points="92,-246 86,-246 "/>
<text text-anchor="middle" x="46" y="-230.3" font-family="monospace" font-size="14.00">appendable</text>
</a>
</g>
</g>
<!-- appendable&#45;&gt;arraylike -->
<g id="edge3" class="edge"><title>appendable&#45;&gt;arraylike</title>
<path fill="none" stroke="black" d="M70.2181,-215.876C82.9227,-206.893 98.6644,-195.763 112.423,-186.034"/>
<polygon fill="black" stroke="black" points="114.544,-188.821 120.689,-180.19 110.503,-183.105 114.544,-188.821"/>
</g>
<!-- container -->
<g id="node5" class="node"><title>container</title>
<g id="a_node5"><a xlink:href="../PsiReference_Types.xhtml#PsiReference_Types_Details_container" xlink:title="container" target="_parent">
<polygon fill="linen" stroke="black" points="282,-252 204,-252 204,-216 288,-216 288,-246 282,-252"/>
<polyline fill="none" stroke="black" points="282,-252 282,-246 "/>
<polyline fill="none" stroke="black" points="288,-246 282,-246 "/>
<text text-anchor="middle" x="246" y="-230.3" font-family="monospace" font-size="14.00">container</text>
</a>
</g>
</g>
<!-- container&#45;&gt;arraylike -->
<g id="edge4" class="edge"><title>container&#45;&gt;arraylike</title>
<path fill="none" stroke="black" d="M221.293,-215.876C208.331,-206.893 192.272,-195.763 178.235,-186.034"/>
<polygon fill="black" stroke="black" points="180.015,-183.009 169.802,-180.19 176.028,-188.763 180.015,-183.009"/>
</g>
<!-- indexed -->
<g id="node6" class="node"><title>indexed</title>
<g id="a_node6"><a xlink:href="../PsiReference_Types.xhtml#PsiReference_Types_Details_indexed" xlink:title="indexed" target="_parent">
<polygon fill="linen" stroke="black" points="173.5,-252 110.5,-252 110.5,-216 179.5,-216 179.5,-246 173.5,-252"/>
<polyline fill="none" stroke="black" points="173.5,-252 173.5,-246 "/>
<polyline fill="none" stroke="black" points="179.5,-246 173.5,-246 "/>
<text text-anchor="middle" x="145" y="-230.3" font-family="monospace" font-size="14.00">indexed</text>
</a>
</g>
</g>
<!-- indexed&#45;&gt;arraylike -->
<g id="edge5" class="edge"><title>indexed&#45;&gt;arraylike</title>
<path fill="none" stroke="black" d="M145,-215.697C145,-207.983 145,-198.712 145,-190.112"/>
<polygon fill="black" stroke="black" points="148.5,-190.104 145,-180.104 141.5,-190.104 148.5,-190.104"/>
</g>
<!-- object -->
<g id="node7" class="node"><title>object</title>
<g id="a_node7"><a xlink:href="../PsiReference_Types.xhtml#PsiReference_Types_Details_object" xlink:title="object" target="_parent">
<polygon fill="linen" stroke="black" points="179,-396 123,-396 123,-360 185,-360 185,-390 179,-396"/>
<polyline fill="none" stroke="black" points="179,-396 179,-390 "/>
<polyline fill="none" stroke="black" points="185,-390 179,-390 "/>
<text text-anchor="middle" x="154" y="-374.3" font-family="monospace" font-size="14.00">object</text>
</a>
</g>
</g>
<!-- object&#45;&gt;appendable -->
<g id="edge6" class="edge"><title>object&#45;&gt;appendable</title>
<path fill="none" stroke="black" d="M131.586,-359.923C119.791,-350.224 105.617,-337.371 95,-324 79.6593,-304.68 66.4552,-279.905 57.632,-261.403"/>
<polygon fill="black" stroke="black" points="60.6993,-259.698 53.3124,-252.103 54.3506,-262.646 60.6993,-259.698"/>
</g>
<!-- object&#45;&gt;indexed -->
<g id="edge10" class="edge"><title>object&#45;&gt;indexed</title>
<path fill="none" stroke="black" d="M130.695,-359.819C120.099,-350.538 108.68,-338.094 103,-324 97.0195,-309.16 97.7388,-303.11 103,-288 106.532,-277.855 112.905,-268.191 119.637,-259.961"/>
<polygon fill="black" stroke="black" points="122.44,-262.072 126.396,-252.244 117.174,-257.46 122.44,-262.072"/>
</g>
<!-- clearable -->
<g id="node8" class="node"><title>clearable</title>
<g id="a_node8"><a xlink:href="../PsiReference_Types.xhtml#PsiReference_Types_Details_clearable" xlink:title="clearable" target="_parent">
<polygon fill="linen" stroke="black" points="190,-324 112,-324 112,-288 196,-288 196,-318 190,-324"/>
<polyline fill="none" stroke="black" points="190,-324 190,-318 "/>
<polyline fill="none" stroke="black" points="196,-318 190,-318 "/>
<text text-anchor="middle" x="154" y="-302.3" font-family="monospace" font-size="14.00">clearable</text>
</a>
</g>
</g>
<!-- object&#45;&gt;clearable -->
<g id="edge11" class="edge"><title>object&#45;&gt;clearable</title>
<path fill="none" stroke="black" d="M154,-359.697C154,-351.983 154,-342.712 154,-334.112"/>
<polygon fill="black" stroke="black" points="157.5,-334.104 154,-324.104 150.5,-334.104 157.5,-334.104"/>
</g>
<!-- iterable -->
<g id="node9" class="node"><title>iterable</title>
<g id="a_node9"><a xlink:href="../PsiReference_Types.xhtml#PsiReference_Types_Details_iterable" xlink:title="iterable" target="_parent">
<polygon fill="linen" stroke="black" points="285.5,-324 214.5,-324 214.5,-288 291.5,-288 291.5,-318 285.5,-324"/>
<polyline fill="none" stroke="black" points="285.5,-324 285.5,-318 "/>
<polyline fill="none" stroke="black" points="291.5,-318 285.5,-318 "/>
<text text-anchor="middle" x="253" y="-302.3" font-family="monospace" font-size="14.00">iterable</text>
</a>
</g>
</g>
<!-- object&#45;&gt;iterable -->
<g id="edge12" class="edge"><title>object&#45;&gt;iterable</title>
<path fill="none" stroke="black" d="M178.218,-359.876C190.923,-350.893 206.664,-339.763 220.423,-330.034"/>
<polygon fill="black" stroke="black" points="222.544,-332.821 228.689,-324.19 218.503,-327.105 222.544,-332.821"/>
</g>
<!-- lengthy -->
<g id="node10" class="node"><title>lengthy</title>
<g id="a_node10"><a xlink:href="../PsiReference_Types.xhtml#PsiReference_Types_Details_lengthy" xlink:title="lengthy" target="_parent">
<polygon fill="linen" stroke="black" points="372.5,-324 309.5,-324 309.5,-288 378.5,-288 378.5,-318 372.5,-324"/>
<polyline fill="none" stroke="black" points="372.5,-324 372.5,-318 "/>
<polyline fill="none" stroke="black" points="378.5,-318 372.5,-318 "/>
<text text-anchor="middle" x="344" y="-302.3" font-family="monospace" font-size="14.00">lengthy</text>
</a>
</g>
</g>
<!-- object&#45;&gt;lengthy -->
<g id="edge13" class="edge"><title>object&#45;&gt;lengthy</title>
<path fill="none" stroke="black" d="M185.073,-366.106C212.915,-356.277 255.085,-341.223 299.739,-324.431"/>
<polygon fill="black" stroke="black" points="301.181,-327.628 309.301,-320.823 298.71,-321.079 301.181,-327.628"/>
</g>
<!-- clearable&#45;&gt;container -->
<g id="edge7" class="edge"><title>clearable&#45;&gt;container</title>
<path fill="none" stroke="black" d="M176.742,-287.697C188.44,-278.796 202.861,-267.823 215.51,-258.199"/>
<polygon fill="black" stroke="black" points="217.681,-260.945 223.52,-252.104 213.442,-255.374 217.681,-260.945"/>
</g>
<!-- iterable&#45;&gt;container -->
<g id="edge8" class="edge"><title>iterable&#45;&gt;container</title>
<path fill="none" stroke="black" d="M251.27,-287.697C250.498,-279.983 249.571,-270.712 248.711,-262.112"/>
<polygon fill="black" stroke="black" points="252.188,-261.706 247.71,-252.104 245.223,-262.403 252.188,-261.706"/>
</g>
<!-- lengthy&#45;&gt;container -->
<g id="edge9" class="edge"><title>lengthy&#45;&gt;container</title>
<path fill="none" stroke="black" d="M320.027,-287.876C307.45,-278.893 291.868,-267.763 278.248,-258.034"/>
<polygon fill="black" stroke="black" points="280.237,-255.154 270.066,-252.19 276.169,-260.85 280.237,-255.154"/>
</g>
</g>
</svg>
