<?xml version="1.0" encoding="UTF-8" standalone="no"?>
<!DOCTYPE svg PUBLIC "-//W3C//DTD SVG 1.1//EN"
 "http://www.w3.org/Graphics/SVG/1.1/DTD/svg11.dtd">
<!-- Generated by graphviz version 2.38.0 (20140413.2041)
 -->
<!-- Title: blockingqueue Pages: 1 -->
<svg width="288pt" height="277pt"
 viewBox="0.00 0.00 345.50 332.00" xmlns="http://www.w3.org/2000/svg" xmlns:xlink="http://www.w3.org/1999/xlink">
<g id="graph0" class="graph" transform="scale(0.833333 0.833333) rotate(0) translate(4 328)">
<title>blockingqueue</title>
<polygon fill="none" stroke="none" points="-4,4 -4,-328 341.5,-328 341.5,4 -4,4"/>
<!-- closeable -->
<g id="node1" class="node"><title>closeable</title>
<g id="a_node1"><a xlink:href="../PsiReference_Types.xhtml#PsiReference_Types_Details_closeable" xlink:title="closeable" target="_parent">
<polygon fill="linen" stroke="black" points="78,-108 7.10543e-15,-108 7.10543e-15,-72 84,-72 84,-102 78,-108"/>
<polyline fill="none" stroke="black" points="78,-108 78,-102 "/>
<polyline fill="none" stroke="black" points="84,-102 78,-102 "/>
<text text-anchor="middle" x="42" y="-86.3" font-family="monospace" font-size="14.00">closeable</text>
</a>
</g>
</g>
<!-- blockingqueue -->
<g id="node3" class="node"><title>blockingqueue</title>
<g id="a_node3"><a xlink:href="../PsiReference_Types.xhtml#PsiReference_Types_Details_blockingqueue" xlink:title="blockingqueue" target="_parent">
<polygon fill="wheat" stroke="black" points="144,-36 36,-36 36,-0 150,-0 150,-30 144,-36"/>
<polyline fill="none" stroke="black" points="144,-36 144,-30 "/>
<polyline fill="none" stroke="black" points="150,-30 144,-30 "/>
<text text-anchor="middle" x="93" y="-14.3" font-family="monospace" font-size="14.00">blockingqueue</text>
</a>
</g>
</g>
<!-- closeable&#45;&gt;blockingqueue -->
<g id="edge1" class="edge"><title>closeable&#45;&gt;blockingqueue</title>
<path fill="none" stroke="black" d="M54.6067,-71.6966C60.5974,-63.4741 67.8765,-53.4832 74.4792,-44.4207"/>
<polygon fill="black" stroke="black" points="77.4785,-46.2477 80.5383,-36.1043 71.8208,-42.1257 77.4785,-46.2477"/>
</g>
<!-- queuelike -->
<g id="node2" class="node"><title>queuelike</title>
<g id="a_node2"><a xlink:href="../PsiReference_Types.xhtml#PsiReference_Types_Details_queuelike" xlink:title="queuelike" target="_parent">
<polygon fill="linen" stroke="black" points="180,-108 102,-108 102,-72 186,-72 186,-102 180,-108"/>
<polyline fill="none" stroke="black" points="180,-108 180,-102 "/>
<polyline fill="none" stroke="black" points="186,-102 180,-102 "/>
<text text-anchor="middle" x="144" y="-86.3" font-family="monospace" font-size="14.00">queuelike</text>
</a>
</g>
</g>
<!-- queuelike&#45;&gt;blockingqueue -->
<g id="edge2" class="edge"><title>queuelike&#45;&gt;blockingqueue</title>
<path fill="none" stroke="black" d="M131.393,-71.6966C125.403,-63.4741 118.124,-53.4832 111.521,-44.4207"/>
<polygon fill="black" stroke="black" points="114.179,-42.1257 105.462,-36.1043 108.522,-46.2477 114.179,-42.1257"/>
</g>
<!-- object -->
<g id="node4" class="node"><title>object</title>
<g id="a_node4"><a xlink:href="../PsiReference_Types.xhtml#PsiReference_Types_Details_object" xlink:title="object" target="_parent">
<polygon fill="linen" stroke="black" points="177,-324 121,-324 121,-288 183,-288 183,-318 177,-324"/>
<polyline fill="none" stroke="black" points="177,-324 177,-318 "/>
<polyline fill="none" stroke="black" points="183,-318 177,-318 "/>
<text text-anchor="middle" x="152" y="-302.3" font-family="monospace" font-size="14.00">object</text>
</a>
</g>
</g>
<!-- object&#45;&gt;closeable -->
<g id="edge3" class="edge"><title>object&#45;&gt;closeable</title>
<path fill="none" stroke="black" d="M120.64,-295.047C100.199,-286.851 74.836,-273.098 61,-252 34.3988,-211.437 35.0036,-152.518 38.2392,-118.345"/>
<polygon fill="black" stroke="black" points="41.7436,-118.494 39.3511,-108.173 34.7851,-117.734 41.7436,-118.494"/>
</g>
<!-- lengthy -->
<g id="node7" class="node"><title>lengthy</title>
<g id="a_node7"><a xlink:href="../PsiReference_Types.xhtml#PsiReference_Types_Details_lengthy" xlink:title="lengthy" target="_parent">
<polygon fill="linen" stroke="black" points="133.5,-252 70.5,-252 70.5,-216 139.5,-216 139.5,-246 133.5,-252"/>
<polyline fill="none" stroke="black" points="133.5,-252 133.5,-246 "/>
<polyline fill="none" stroke="black" points="139.5,-246 133.5,-246 "/>
<text text-anchor="middle" x="105" y="-230.3" font-family="monospace" font-size="14.00">lengthy</text>
</a>
</g>
</g>
<!-- object&#45;&gt;lengthy -->
<g id="edge10" class="edge"><title>object&#45;&gt;lengthy</title>
<path fill="none" stroke="black" d="M140.382,-287.697C134.861,-279.474 128.153,-269.483 122.068,-260.421"/>
<polygon fill="black" stroke="black" points="124.965,-258.456 116.484,-252.104 119.153,-262.358 124.965,-258.456"/>
</g>
<!-- clearable -->
<g id="node8" class="node"><title>clearable</title>
<g id="a_node8"><a xlink:href="../PsiReference_Types.xhtml#PsiReference_Types_Details_clearable" xlink:title="clearable" target="_parent">
<polygon fill="linen" stroke="black" points="236,-252 158,-252 158,-216 242,-216 242,-246 236,-252"/>
<polyline fill="none" stroke="black" points="236,-252 236,-246 "/>
<polyline fill="none" stroke="black" points="242,-246 236,-246 "/>
<text text-anchor="middle" x="200" y="-230.3" font-family="monospace" font-size="14.00">clearable</text>
</a>
</g>
</g>
<!-- object&#45;&gt;clearable -->
<g id="edge11" class="edge"><title>object&#45;&gt;clearable</title>
<path fill="none" stroke="black" d="M163.865,-287.697C169.503,-279.474 176.354,-269.483 182.569,-260.421"/>
<polygon fill="black" stroke="black" points="185.503,-262.331 188.271,-252.104 179.729,-258.372 185.503,-262.331"/>
</g>
<!-- iterable -->
<g id="node9" class="node"><title>iterable</title>
<g id="a_node9"><a xlink:href="../PsiReference_Types.xhtml#PsiReference_Types_Details_iterable" xlink:title="iterable" target="_parent">
<polygon fill="linen" stroke="black" points="331.5,-252 260.5,-252 260.5,-216 337.5,-216 337.5,-246 331.5,-252"/>
<polyline fill="none" stroke="black" points="331.5,-252 331.5,-246 "/>
<polyline fill="none" stroke="black" points="337.5,-246 331.5,-246 "/>
<text text-anchor="middle" x="299" y="-230.3" font-family="monospace" font-size="14.00">iterable</text>
</a>
</g>
</g>
<!-- object&#45;&gt;iterable -->
<g id="edge12" class="edge"><title>object&#45;&gt;iterable</title>
<path fill="none" stroke="black" d="M183.175,-290.155C203.767,-280.349 231.083,-267.341 254.016,-256.421"/>
<polygon fill="black" stroke="black" points="255.692,-259.499 263.216,-252.04 252.683,-253.179 255.692,-259.499"/>
</g>
<!-- bounded -->
<g id="node5" class="node"><title>bounded</title>
<g id="a_node5"><a xlink:href="../PsiReference_Types.xhtml#PsiReference_Types_Details_bounded" xlink:title="bounded" target="_parent">
<polygon fill="linen" stroke="black" points="133.5,-180 70.5,-180 70.5,-144 139.5,-144 139.5,-174 133.5,-180"/>
<polyline fill="none" stroke="black" points="133.5,-180 133.5,-174 "/>
<polyline fill="none" stroke="black" points="139.5,-174 133.5,-174 "/>
<text text-anchor="middle" x="105" y="-158.3" font-family="monospace" font-size="14.00">bounded</text>
</a>
</g>
</g>
<!-- bounded&#45;&gt;queuelike -->
<g id="edge4" class="edge"><title>bounded&#45;&gt;queuelike</title>
<path fill="none" stroke="black" d="M114.64,-143.697C119.127,-135.644 124.559,-125.894 129.524,-116.982"/>
<polygon fill="black" stroke="black" points="132.661,-118.544 134.47,-108.104 126.546,-115.137 132.661,-118.544"/>
</g>
<!-- container -->
<g id="node6" class="node"><title>container</title>
<g id="a_node6"><a xlink:href="../PsiReference_Types.xhtml#PsiReference_Types_Details_container" xlink:title="container" target="_parent">
<polygon fill="linen" stroke="black" points="236,-180 158,-180 158,-144 242,-144 242,-174 236,-180"/>
<polyline fill="none" stroke="black" points="236,-180 236,-174 "/>
<polyline fill="none" stroke="black" points="242,-174 236,-174 "/>
<text text-anchor="middle" x="200" y="-158.3" font-family="monospace" font-size="14.00">container</text>
</a>
</g>
</g>
<!-- container&#45;&gt;queuelike -->
<g id="edge5" class="edge"><title>container&#45;&gt;queuelike</title>
<path fill="none" stroke="black" d="M186.157,-143.697C179.511,-135.389 171.422,-125.277 164.113,-116.141"/>
<polygon fill="black" stroke="black" points="166.664,-113.727 157.683,-108.104 161.197,-118.099 166.664,-113.727"/>
</g>
<!-- lengthy&#45;&gt;bounded -->
<g id="edge6" class="edge"><title>lengthy&#45;&gt;bounded</title>
<path fill="none" stroke="black" d="M105,-215.697C105,-207.983 105,-198.712 105,-190.112"/>
<polygon fill="black" stroke="black" points="108.5,-190.104 105,-180.104 101.5,-190.104 108.5,-190.104"/>
</g>
<!-- lengthy&#45;&gt;container -->
<g id="edge9" class="edge"><title>lengthy&#45;&gt;container</title>
<path fill="none" stroke="black" d="M128.483,-215.697C140.563,-206.796 155.454,-195.823 168.516,-186.199"/>
<polygon fill="black" stroke="black" points="170.813,-188.854 176.787,-180.104 166.66,-183.219 170.813,-188.854"/>
</g>
<!-- clearable&#45;&gt;container -->
<g id="edge7" class="edge"><title>clearable&#45;&gt;container</title>
<path fill="none" stroke="black" d="M200,-215.697C200,-207.983 200,-198.712 200,-190.112"/>
<polygon fill="black" stroke="black" points="203.5,-190.104 200,-180.104 196.5,-190.104 203.5,-190.104"/>
</g>
<!-- iterable&#45;&gt;container -->
<g id="edge8" class="edge"><title>iterable&#45;&gt;container</title>
<path fill="none" stroke="black" d="M274.782,-215.876C262.077,-206.893 246.336,-195.763 232.577,-186.034"/>
<polygon fill="black" stroke="black" points="234.497,-183.105 224.311,-180.19 230.456,-188.821 234.497,-183.105"/>
</g>
</g>
</svg>
