<?xml version="1.0" encoding="UTF-8" standalone="no"?>
<!DOCTYPE svg PUBLIC "-//W3C//DTD SVG 1.1//EN"
 "http://www.w3.org/Graphics/SVG/1.1/DTD/svg11.dtd">
<!-- Generated by graphviz version 2.38.0 (20140413.2041)
 -->
<!-- Title: container Pages: 1 -->
<svg width="229pt" height="157pt"
 viewBox="0.00 0.00 274.50 188.00" xmlns="http://www.w3.org/2000/svg" xmlns:xlink="http://www.w3.org/1999/xlink">
<g id="graph0" class="graph" transform="scale(0.833333 0.833333) rotate(0) translate(4 184)">
<title>container</title>
<polygon fill="none" stroke="none" points="-4,4 -4,-184 270.5,-184 270.5,4 -4,4"/>
<!-- clearable -->
<g id="node1" class="node"><title>clearable</title>
<g id="a_node1"><a xlink:href="../PsiReference_Types.xhtml#PsiReference_Types_Details_clearable" xlink:title="clearable" target="_parent">
<polygon fill="linen" stroke="black" points="78,-108 7.10543e-15,-108 7.10543e-15,-72 84,-72 84,-102 78,-108"/>
<polyline fill="none" stroke="black" points="78,-108 78,-102 "/>
<polyline fill="none" stroke="black" points="84,-102 78,-102 "/>
<text text-anchor="middle" x="42" y="-86.3" font-family="monospace" font-size="14.00">clearable</text>
</a>
</g>
</g>
<!-- container -->
<g id="node4" class="node"><title>container</title>
<g id="a_node4"><a xlink:href="../PsiReference_Types.xhtml#PsiReference_Types_Details_container" xlink:title="container" target="_parent">
<polygon fill="wheat" stroke="black" points="177,-36 99,-36 99,-0 183,-0 183,-30 177,-36"/>
<polyline fill="none" stroke="black" points="177,-36 177,-30 "/>
<polyline fill="none" stroke="black" points="183,-30 177,-30 "/>
<text text-anchor="middle" x="141" y="-14.3" font-family="monospace" font-size="14.00">container</text>
</a>
</g>
</g>
<!-- clearable&#45;&gt;container -->
<g id="edge1" class="edge"><title>clearable&#45;&gt;container</title>
<path fill="none" stroke="black" d="M66.2181,-71.8761C78.9227,-62.8931 94.6644,-51.7625 108.423,-42.0341"/>
<polygon fill="black" stroke="black" points="110.544,-44.8209 116.689,-36.1898 106.503,-39.1053 110.544,-44.8209"/>
</g>
<!-- iterable -->
<g id="node2" class="node"><title>iterable</title>
<g id="a_node2"><a xlink:href="../PsiReference_Types.xhtml#PsiReference_Types_Details_iterable" xlink:title="iterable" target="_parent">
<polygon fill="linen" stroke="black" points="173.5,-108 102.5,-108 102.5,-72 179.5,-72 179.5,-102 173.5,-108"/>
<polyline fill="none" stroke="black" points="173.5,-108 173.5,-102 "/>
<polyline fill="none" stroke="black" points="179.5,-102 173.5,-102 "/>
<text text-anchor="middle" x="141" y="-86.3" font-family="monospace" font-size="14.00">iterable</text>
</a>
</g>
</g>
<!-- iterable&#45;&gt;container -->
<g id="edge2" class="edge"><title>iterable&#45;&gt;container</title>
<path fill="none" stroke="black" d="M141,-71.6966C141,-63.9827 141,-54.7125 141,-46.1124"/>
<polygon fill="black" stroke="black" points="144.5,-46.1043 141,-36.1043 137.5,-46.1044 144.5,-46.1043"/>
</g>
<!-- lengthy -->
<g id="node3" class="node"><title>lengthy</title>
<g id="a_node3"><a xlink:href="../PsiReference_Types.xhtml#PsiReference_Types_Details_lengthy" xlink:title="lengthy" target="_parent">
<polygon fill="linen" stroke="black" points="260.5,-108 197.5,-108 197.5,-72 266.5,-72 266.5,-102 260.5,-108"/>
<polyline fill="none" stroke="black" points="260.5,-108 260.5,-102 "/>
<polyline fill="none" stroke="black" points="266.5,-102 260.5,-102 "/>
<text text-anchor="middle" x="232" y="-86.3" font-family="monospace" font-size="14.00">lengthy</text>
</a>
</g>
</g>
<!-- lengthy&#45;&gt;container -->
<g id="edge3" class="edge"><title>lengthy&#45;&gt;container</title>
<path fill="none" stroke="black" d="M209.506,-71.6966C198.045,-62.8807 183.942,-52.0321 171.516,-42.4742"/>
<polygon fill="black" stroke="black" points="173.296,-39.4273 163.236,-36.1043 169.028,-44.9757 173.296,-39.4273"/>
</g>
<!-- object -->
<g id="node5" class="node"><title>object</title>
<g id="a_node5"><a xlink:href="../PsiReference_Types.xhtml#PsiReference_Types_Details_object" xlink:title="object" target="_parent">
<polygon fill="linen" stroke="black" points="166,-180 110,-180 110,-144 172,-144 172,-174 166,-180"/>
<polyline fill="none" stroke="black" points="166,-180 166,-174 "/>
<polyline fill="none" stroke="black" points="172,-174 166,-174 "/>
<text text-anchor="middle" x="141" y="-158.3" font-family="monospace" font-size="14.00">object</text>
</a>
</g>
</g>
<!-- object&#45;&gt;clearable -->
<g id="edge4" class="edge"><title>object&#45;&gt;clearable</title>
<path fill="none" stroke="black" d="M116.782,-143.876C104.077,-134.893 88.3356,-123.763 74.5768,-114.034"/>
<polygon fill="black" stroke="black" points="76.497,-111.105 66.3112,-108.19 72.4557,-116.821 76.497,-111.105"/>
</g>
<!-- object&#45;&gt;iterable -->
<g id="edge5" class="edge"><title>object&#45;&gt;iterable</title>
<path fill="none" stroke="black" d="M141,-143.697C141,-135.983 141,-126.712 141,-118.112"/>
<polygon fill="black" stroke="black" points="144.5,-118.104 141,-108.104 137.5,-118.104 144.5,-118.104"/>
</g>
<!-- object&#45;&gt;lengthy -->
<g id="edge6" class="edge"><title>object&#45;&gt;lengthy</title>
<path fill="none" stroke="black" d="M163.494,-143.697C174.955,-134.881 189.058,-124.032 201.484,-114.474"/>
<polygon fill="black" stroke="black" points="203.972,-116.976 209.764,-108.104 199.704,-111.427 203.972,-116.976"/>
</g>
</g>
</svg>
