<?xml version="1.0" encoding="UTF-8" standalone="no"?>
<!DOCTYPE svg PUBLIC "-//W3C//DTD SVG 1.1//EN"
 "http://www.w3.org/Graphics/SVG/1.1/DTD/svg11.dtd">
<!-- Generated by graphviz version 2.38.0 (20140413.2041)
 -->
<!-- Title: real Pages: 1 -->
<svg width="189pt" height="337pt"
 viewBox="0.00 0.00 227.00 404.00" xmlns="http://www.w3.org/2000/svg" xmlns:xlink="http://www.w3.org/1999/xlink">
<g id="graph0" class="graph" transform="scale(0.833333 0.833333) rotate(0) translate(4 400)">
<title>real</title>
<polygon fill="none" stroke="none" points="-4,4 -4,-400 223,-400 223,4 -4,4"/>
<!-- realnumeric -->
<g id="node1" class="node"><title>realnumeric</title>
<g id="a_node1"><a xlink:href="../PsyllaReference_Types.xhtml#PsyllaReference_Types_Details_realnumeric" xlink:title="realnumeric" target="_parent">
<polygon fill="linen" stroke="black" points="105.5,-108 12.5,-108 12.5,-72 111.5,-72 111.5,-102 105.5,-108"/>
<polyline fill="none" stroke="black" points="105.5,-108 105.5,-102 "/>
<polyline fill="none" stroke="black" points="111.5,-102 105.5,-102 "/>
<text text-anchor="middle" x="62" y="-86.3" font-family="monospace" font-size="14.00">realnumeric</text>
</a>
</g>
</g>
<!-- real -->
<g id="node2" class="node"><title>real</title>
<g id="a_node2"><a xlink:href="../PsyllaReference_Types.xhtml#PsyllaReference_Types_Details_real" xlink:title="real" target="_parent">
<polygon fill="wheat" stroke="black" points="83,-36 35,-36 35,-0 89,-0 89,-30 83,-36"/>
<polyline fill="none" stroke="black" points="83,-36 83,-30 "/>
<polyline fill="none" stroke="black" points="89,-30 83,-30 "/>
<text text-anchor="middle" x="62" y="-14.3" font-family="monospace" font-size="14.00">real</text>
</a>
</g>
</g>
<!-- realnumeric&#45;&gt;real -->
<g id="edge1" class="edge"><title>realnumeric&#45;&gt;real</title>
<path fill="none" stroke="black" d="M62,-71.6966C62,-63.9827 62,-54.7125 62,-46.1124"/>
<polygon fill="black" stroke="black" points="65.5001,-46.1043 62,-36.1043 58.5001,-46.1044 65.5001,-46.1043"/>
</g>
<!-- numeric -->
<g id="node3" class="node"><title>numeric</title>
<g id="a_node3"><a xlink:href="../PsyllaReference_Types.xhtml#PsyllaReference_Types_Details_numeric" xlink:title="numeric" target="_parent">
<polygon fill="linen" stroke="black" points="122.5,-180 59.5,-180 59.5,-144 128.5,-144 128.5,-174 122.5,-180"/>
<polyline fill="none" stroke="black" points="122.5,-180 122.5,-174 "/>
<polyline fill="none" stroke="black" points="128.5,-174 122.5,-174 "/>
<text text-anchor="middle" x="94" y="-158.3" font-family="monospace" font-size="14.00">numeric</text>
</a>
</g>
</g>
<!-- numeric&#45;&gt;realnumeric -->
<g id="edge2" class="edge"><title>numeric&#45;&gt;realnumeric</title>
<path fill="none" stroke="black" d="M86.0899,-143.697C82.4473,-135.728 78.0455,-126.1 74.0065,-117.264"/>
<polygon fill="black" stroke="black" points="77.1599,-115.744 69.8191,-108.104 70.7936,-118.654 77.1599,-115.744"/>
</g>
<!-- scalar -->
<g id="node4" class="node"><title>scalar</title>
<g id="a_node4"><a xlink:href="../PsyllaReference_Types.xhtml#PsyllaReference_Types_Details_scalar" xlink:title="scalar" target="_parent">
<polygon fill="linen" stroke="black" points="56,-252 3.55271e-15,-252 3.55271e-15,-216 62,-216 62,-246 56,-252"/>
<polyline fill="none" stroke="black" points="56,-252 56,-246 "/>
<polyline fill="none" stroke="black" points="62,-246 56,-246 "/>
<text text-anchor="middle" x="31" y="-230.3" font-family="monospace" font-size="14.00">scalar</text>
</a>
</g>
</g>
<!-- scalar&#45;&gt;realnumeric -->
<g id="edge3" class="edge"><title>scalar&#45;&gt;realnumeric</title>
<path fill="none" stroke="black" d="M34.58,-215.925C38.3538,-197.998 44.502,-168.998 50,-144 51.8524,-135.578 53.9118,-126.413 55.7943,-118.11"/>
<polygon fill="black" stroke="black" points="59.2491,-118.701 58.0552,-108.174 52.4236,-117.148 59.2491,-118.701"/>
</g>
<!-- arithmetic -->
<g id="node5" class="node"><title>arithmetic</title>
<g id="a_node5"><a xlink:href="../PsyllaReference_Types.xhtml#PsyllaReference_Types_Details_arithmetic" xlink:title="arithmetic" target="_parent">
<polygon fill="linen" stroke="black" points="213,-252 127,-252 127,-216 219,-216 219,-246 213,-252"/>
<polyline fill="none" stroke="black" points="213,-252 213,-246 "/>
<polyline fill="none" stroke="black" points="219,-246 213,-246 "/>
<text text-anchor="middle" x="173" y="-230.3" font-family="monospace" font-size="14.00">arithmetic</text>
</a>
</g>
</g>
<!-- arithmetic&#45;&gt;numeric -->
<g id="edge4" class="edge"><title>arithmetic&#45;&gt;numeric</title>
<path fill="none" stroke="black" d="M153.472,-215.697C143.618,-206.965 131.514,-196.24 120.804,-186.75"/>
<polygon fill="black" stroke="black" points="123.109,-184.117 113.303,-180.104 118.467,-189.356 123.109,-184.117"/>
</g>
<!-- atomic -->
<g id="node6" class="node"><title>atomic</title>
<g id="a_node6"><a xlink:href="../PsyllaReference_Types.xhtml#PsyllaReference_Types_Details_atomic" xlink:title="atomic" target="_parent">
<polygon fill="linen" stroke="black" points="115,-324 59,-324 59,-288 121,-288 121,-318 115,-324"/>
<polyline fill="none" stroke="black" points="115,-324 115,-318 "/>
<polyline fill="none" stroke="black" points="121,-318 115,-318 "/>
<text text-anchor="middle" x="90" y="-302.3" font-family="monospace" font-size="14.00">atomic</text>
</a>
</g>
</g>
<!-- atomic&#45;&gt;numeric -->
<g id="edge5" class="edge"><title>atomic&#45;&gt;numeric</title>
<path fill="none" stroke="black" d="M90.4825,-287.871C91.1642,-263.67 92.4166,-219.211 93.2284,-190.393"/>
<polygon fill="black" stroke="black" points="96.7327,-190.284 93.5158,-180.189 89.7355,-190.087 96.7327,-190.284"/>
</g>
<!-- object -->
<g id="node7" class="node"><title>object</title>
<g id="a_node7"><a xlink:href="../PsyllaReference_Types.xhtml#PsyllaReference_Types_Details_object" xlink:title="object" target="_parent">
<polygon fill="linen" stroke="black" points="115,-396 59,-396 59,-360 121,-360 121,-390 115,-396"/>
<polyline fill="none" stroke="black" points="115,-396 115,-390 "/>
<polyline fill="none" stroke="black" points="121,-390 115,-390 "/>
<text text-anchor="middle" x="90" y="-374.3" font-family="monospace" font-size="14.00">object</text>
</a>
</g>
</g>
<!-- object&#45;&gt;scalar -->
<g id="edge6" class="edge"><title>object&#45;&gt;scalar</title>
<path fill="none" stroke="black" d="M73.7993,-359.629C65.5088,-349.844 55.9384,-337.003 50,-324 41.0016,-304.297 36.192,-280.173 33.6654,-262.014"/>
<polygon fill="black" stroke="black" points="37.1384,-261.579 32.4272,-252.09 30.1923,-262.446 37.1384,-261.579"/>
</g>
<!-- object&#45;&gt;atomic -->
<g id="edge8" class="edge"><title>object&#45;&gt;atomic</title>
<path fill="none" stroke="black" d="M90,-359.697C90,-351.983 90,-342.712 90,-334.112"/>
<polygon fill="black" stroke="black" points="93.5001,-334.104 90,-324.104 86.5001,-334.104 93.5001,-334.104"/>
</g>
<!-- additive -->
<g id="node8" class="node"><title>additive</title>
<g id="a_node8"><a xlink:href="../PsyllaReference_Types.xhtml#PsyllaReference_Types_Details_additive" xlink:title="additive" target="_parent">
<polygon fill="linen" stroke="black" points="210.5,-324 139.5,-324 139.5,-288 216.5,-288 216.5,-318 210.5,-324"/>
<polyline fill="none" stroke="black" points="210.5,-324 210.5,-318 "/>
<polyline fill="none" stroke="black" points="216.5,-318 210.5,-318 "/>
<text text-anchor="middle" x="178" y="-302.3" font-family="monospace" font-size="14.00">additive</text>
</a>
</g>
</g>
<!-- object&#45;&gt;additive -->
<g id="edge9" class="edge"><title>object&#45;&gt;additive</title>
<path fill="none" stroke="black" d="M111.753,-359.697C122.836,-350.881 136.474,-340.032 148.49,-330.474"/>
<polygon fill="black" stroke="black" points="150.85,-333.069 156.497,-324.104 146.493,-327.59 150.85,-333.069"/>
</g>
<!-- additive&#45;&gt;arithmetic -->
<g id="edge7" class="edge"><title>additive&#45;&gt;arithmetic</title>
<path fill="none" stroke="black" d="M176.764,-287.697C176.213,-279.983 175.551,-270.712 174.937,-262.112"/>
<polygon fill="black" stroke="black" points="178.425,-261.83 174.222,-252.104 171.443,-262.328 178.425,-261.83"/>
</g>
</g>
</svg>
