<?xml version="1.0" encoding="UTF-8" standalone="no"?>
<!DOCTYPE svg PUBLIC "-//W3C//DTD SVG 1.1//EN"
 "http://www.w3.org/Graphics/SVG/1.1/DTD/svg11.dtd">
<!-- Generated by graphviz version 2.38.0 (20140413.2041)
 -->
<!-- Title: errordict Pages: 1 -->
<svg width="266pt" height="397pt"
 viewBox="0.00 0.00 319.00 476.00" xmlns="http://www.w3.org/2000/svg" xmlns:xlink="http://www.w3.org/1999/xlink">
<g id="graph0" class="graph" transform="scale(0.833333 0.833333) rotate(0) translate(4 472)">
<title>errordict</title>
<polygon fill="none" stroke="none" points="-4,4 -4,-472 315,-472 315,4 -4,4"/>
<!-- module -->
<g id="node1" class="node"><title>module</title>
<g id="a_node1"><a xlink:href="../PsyllaReference_Types.xhtml#PsyllaReference_Types_Details_module" xlink:title="module" target="_parent">
<polygon fill="linen" stroke="black" points="125.5,-108 69.5,-108 69.5,-72 131.5,-72 131.5,-102 125.5,-108"/>
<polyline fill="none" stroke="black" points="125.5,-108 125.5,-102 "/>
<polyline fill="none" stroke="black" points="131.5,-102 125.5,-102 "/>
<text text-anchor="middle" x="100.5" y="-86.3" font-family="monospace" font-size="14.00">module</text>
</a>
</g>
</g>
<!-- errordict -->
<g id="node2" class="node"><title>errordict</title>
<g id="a_node2"><a xlink:href="../PsyllaReference_Types.xhtml#PsyllaReference_Types_Details_errordict" xlink:title="errordict" target="_parent">
<polygon fill="wheat" stroke="black" points="136.5,-36 58.5,-36 58.5,-0 142.5,-0 142.5,-30 136.5,-36"/>
<polyline fill="none" stroke="black" points="136.5,-36 136.5,-30 "/>
<polyline fill="none" stroke="black" points="142.5,-30 136.5,-30 "/>
<text text-anchor="middle" x="100.5" y="-14.3" font-family="monospace" font-size="14.00">errordict</text>
</a>
</g>
</g>
<!-- module&#45;&gt;errordict -->
<g id="edge1" class="edge"><title>module&#45;&gt;errordict</title>
<path fill="none" stroke="black" d="M100.5,-71.6966C100.5,-63.9827 100.5,-54.7125 100.5,-46.1124"/>
<polygon fill="black" stroke="black" points="104,-46.1043 100.5,-36.1043 97.0001,-46.1044 104,-46.1043"/>
</g>
<!-- dict -->
<g id="node3" class="node"><title>dict</title>
<g id="a_node3"><a xlink:href="../PsyllaReference_Types.xhtml#PsyllaReference_Types_Details_dict" xlink:title="dict" target="_parent">
<polygon fill="linen" stroke="black" points="121.5,-180 73.5,-180 73.5,-144 127.5,-144 127.5,-174 121.5,-180"/>
<polyline fill="none" stroke="black" points="121.5,-180 121.5,-174 "/>
<polyline fill="none" stroke="black" points="127.5,-174 121.5,-174 "/>
<text text-anchor="middle" x="100.5" y="-158.3" font-family="monospace" font-size="14.00">dict</text>
</a>
</g>
</g>
<!-- dict&#45;&gt;module -->
<g id="edge2" class="edge"><title>dict&#45;&gt;module</title>
<path fill="none" stroke="black" d="M100.5,-143.697C100.5,-135.983 100.5,-126.712 100.5,-118.112"/>
<polygon fill="black" stroke="black" points="104,-118.104 100.5,-108.104 97.0001,-118.104 104,-118.104"/>
</g>
<!-- dictlike -->
<g id="node4" class="node"><title>dictlike</title>
<g id="a_node4"><a xlink:href="../PsyllaReference_Types.xhtml#PsyllaReference_Types_Details_dictlike" xlink:title="dictlike" target="_parent">
<polygon fill="linen" stroke="black" points="133,-252 62,-252 62,-216 139,-216 139,-246 133,-252"/>
<polyline fill="none" stroke="black" points="133,-252 133,-246 "/>
<polyline fill="none" stroke="black" points="139,-246 133,-246 "/>
<text text-anchor="middle" x="100.5" y="-230.3" font-family="monospace" font-size="14.00">dictlike</text>
</a>
</g>
</g>
<!-- dictlike&#45;&gt;dict -->
<g id="edge3" class="edge"><title>dictlike&#45;&gt;dict</title>
<path fill="none" stroke="black" d="M100.5,-215.697C100.5,-207.983 100.5,-198.712 100.5,-190.112"/>
<polygon fill="black" stroke="black" points="104,-190.104 100.5,-180.104 97.0001,-190.104 104,-190.104"/>
</g>
<!-- container -->
<g id="node5" class="node"><title>container</title>
<g id="a_node5"><a xlink:href="../PsyllaReference_Types.xhtml#PsyllaReference_Types_Details_container" xlink:title="container" target="_parent">
<polygon fill="linen" stroke="black" points="202.5,-324 124.5,-324 124.5,-288 208.5,-288 208.5,-318 202.5,-324"/>
<polyline fill="none" stroke="black" points="202.5,-324 202.5,-318 "/>
<polyline fill="none" stroke="black" points="208.5,-318 202.5,-318 "/>
<text text-anchor="middle" x="166.5" y="-302.3" font-family="monospace" font-size="14.00">container</text>
</a>
</g>
</g>
<!-- container&#45;&gt;dictlike -->
<g id="edge4" class="edge"><title>container&#45;&gt;dictlike</title>
<path fill="none" stroke="black" d="M150.185,-287.697C142.193,-279.22 132.428,-268.864 123.678,-259.583"/>
<polygon fill="black" stroke="black" points="126.034,-256.979 116.627,-252.104 120.941,-261.781 126.034,-256.979"/>
</g>
<!-- indexed -->
<g id="node6" class="node"><title>indexed</title>
<g id="a_node6"><a xlink:href="../PsyllaReference_Types.xhtml#PsyllaReference_Types_Details_indexed" xlink:title="indexed" target="_parent">
<polygon fill="linen" stroke="black" points="63,-324 0,-324 0,-288 69,-288 69,-318 63,-324"/>
<polyline fill="none" stroke="black" points="63,-324 63,-318 "/>
<polyline fill="none" stroke="black" points="69,-318 63,-318 "/>
<text text-anchor="middle" x="34.5" y="-302.3" font-family="monospace" font-size="14.00">indexed</text>
</a>
</g>
</g>
<!-- indexed&#45;&gt;dictlike -->
<g id="edge5" class="edge"><title>indexed&#45;&gt;dictlike</title>
<path fill="none" stroke="black" d="M50.8146,-287.697C58.807,-279.22 68.5715,-268.864 77.3221,-259.583"/>
<polygon fill="black" stroke="black" points="80.0595,-261.781 84.3731,-252.104 74.9663,-256.979 80.0595,-261.781"/>
</g>
<!-- clearable -->
<g id="node7" class="node"><title>clearable</title>
<g id="a_node7"><a xlink:href="../PsyllaReference_Types.xhtml#PsyllaReference_Types_Details_clearable" xlink:title="clearable" target="_parent">
<polygon fill="linen" stroke="black" points="122.5,-396 44.5,-396 44.5,-360 128.5,-360 128.5,-390 122.5,-396"/>
<polyline fill="none" stroke="black" points="122.5,-396 122.5,-390 "/>
<polyline fill="none" stroke="black" points="128.5,-390 122.5,-390 "/>
<text text-anchor="middle" x="86.5" y="-374.3" font-family="monospace" font-size="14.00">clearable</text>
</a>
</g>
</g>
<!-- clearable&#45;&gt;container -->
<g id="edge6" class="edge"><title>clearable&#45;&gt;container</title>
<path fill="none" stroke="black" d="M106.275,-359.697C116.254,-350.965 128.511,-340.24 139.357,-330.75"/>
<polygon fill="black" stroke="black" points="141.731,-333.323 146.952,-324.104 137.122,-328.055 141.731,-333.323"/>
</g>
<!-- iterable -->
<g id="node8" class="node"><title>iterable</title>
<g id="a_node8"><a xlink:href="../PsyllaReference_Types.xhtml#PsyllaReference_Types_Details_iterable" xlink:title="iterable" target="_parent">
<polygon fill="linen" stroke="black" points="218,-396 147,-396 147,-360 224,-360 224,-390 218,-396"/>
<polyline fill="none" stroke="black" points="218,-396 218,-390 "/>
<polyline fill="none" stroke="black" points="224,-390 218,-390 "/>
<text text-anchor="middle" x="185.5" y="-374.3" font-family="monospace" font-size="14.00">iterable</text>
</a>
</g>
</g>
<!-- iterable&#45;&gt;container -->
<g id="edge7" class="edge"><title>iterable&#45;&gt;container</title>
<path fill="none" stroke="black" d="M180.803,-359.697C178.687,-351.898 176.138,-342.509 173.782,-333.829"/>
<polygon fill="black" stroke="black" points="177.14,-332.838 171.143,-324.104 170.384,-334.672 177.14,-332.838"/>
</g>
<!-- lengthy -->
<g id="node9" class="node"><title>lengthy</title>
<g id="a_node9"><a xlink:href="../PsyllaReference_Types.xhtml#PsyllaReference_Types_Details_lengthy" xlink:title="lengthy" target="_parent">
<polygon fill="linen" stroke="black" points="305,-396 242,-396 242,-360 311,-360 311,-390 305,-396"/>
<polyline fill="none" stroke="black" points="305,-396 305,-390 "/>
<polyline fill="none" stroke="black" points="311,-390 305,-390 "/>
<text text-anchor="middle" x="276.5" y="-374.3" font-family="monospace" font-size="14.00">lengthy</text>
</a>
</g>
</g>
<!-- lengthy&#45;&gt;container -->
<g id="edge8" class="edge"><title>lengthy&#45;&gt;container</title>
<path fill="none" stroke="black" d="M249.591,-359.876C235.342,-350.808 217.654,-339.552 202.264,-329.759"/>
<polygon fill="black" stroke="black" points="203.828,-326.606 193.512,-324.19 200.07,-332.511 203.828,-326.606"/>
</g>
<!-- object -->
<g id="node10" class="node"><title>object</title>
<g id="a_node10"><a xlink:href="../PsyllaReference_Types.xhtml#PsyllaReference_Types_Details_object" xlink:title="object" target="_parent">
<polygon fill="linen" stroke="black" points="160.5,-468 104.5,-468 104.5,-432 166.5,-432 166.5,-462 160.5,-468"/>
<polyline fill="none" stroke="black" points="160.5,-468 160.5,-462 "/>
<polyline fill="none" stroke="black" points="166.5,-462 160.5,-462 "/>
<text text-anchor="middle" x="135.5" y="-446.3" font-family="monospace" font-size="14.00">object</text>
</a>
</g>
</g>
<!-- object&#45;&gt;indexed -->
<g id="edge9" class="edge"><title>object&#45;&gt;indexed</title>
<path fill="none" stroke="black" d="M104.247,-441.621C80.8554,-434.29 50.4292,-420.496 35.5,-396 24.2888,-377.604 24.992,-352.85 27.9576,-334.118"/>
<polygon fill="black" stroke="black" points="31.4247,-334.619 29.8342,-324.144 24.5454,-333.324 31.4247,-334.619"/>
</g>
<!-- object&#45;&gt;clearable -->
<g id="edge10" class="edge"><title>object&#45;&gt;clearable</title>
<path fill="none" stroke="black" d="M123.388,-431.697C117.632,-423.474 110.638,-413.483 104.294,-404.421"/>
<polygon fill="black" stroke="black" points="107.075,-402.29 98.473,-396.104 101.34,-406.304 107.075,-402.29"/>
</g>
<!-- object&#45;&gt;iterable -->
<g id="edge11" class="edge"><title>object&#45;&gt;iterable</title>
<path fill="none" stroke="black" d="M147.86,-431.697C153.733,-423.474 160.869,-413.483 167.342,-404.421"/>
<polygon fill="black" stroke="black" points="170.318,-406.276 173.283,-396.104 164.622,-402.207 170.318,-406.276"/>
</g>
<!-- object&#45;&gt;lengthy -->
<g id="edge12" class="edge"><title>object&#45;&gt;lengthy</title>
<path fill="none" stroke="black" d="M166.792,-433.465C186.228,-423.816 211.492,-411.273 232.876,-400.657"/>
<polygon fill="black" stroke="black" points="234.683,-403.668 242.084,-396.086 231.57,-397.398 234.683,-403.668"/>
</g>
</g>
</svg>
