<?xml version="1.0" encoding="UTF-8" standalone="no"?>
<!DOCTYPE svg PUBLIC "-//W3C//DTD SVG 1.1//EN"
 "http://www.w3.org/Graphics/SVG/1.1/DTD/svg11.dtd">
<!-- Generated by graphviz version 2.38.0 (20140413.2041)
 -->
<!-- Title: command Pages: 1 -->
<svg width="310pt" height="277pt"
 viewBox="0.00 0.00 372.00 332.00" xmlns="http://www.w3.org/2000/svg" xmlns:xlink="http://www.w3.org/1999/xlink">
<g id="graph0" class="graph" transform="scale(0.833333 0.833333) rotate(0) translate(4 328)">
<title>command</title>
<polygon fill="none" stroke="none" points="-4,4 -4,-328 368,-328 368,4 -4,4"/>
<!-- name -->
<g id="node1" class="node"><title>name</title>
<g id="a_node1"><a xlink:href="../PsyllaReference_Types.xhtml#PsyllaReference_Types_Details_name" xlink:title="name" target="_parent">
<polygon fill="linen" stroke="black" points="136,-108 88,-108 88,-72 142,-72 142,-102 136,-108"/>
<polyline fill="none" stroke="black" points="136,-108 136,-102 "/>
<polyline fill="none" stroke="black" points="142,-102 136,-102 "/>
<text text-anchor="middle" x="115" y="-86.3" font-family="monospace" font-size="14.00">name</text>
</a>
</g>
</g>
<!-- command -->
<g id="node2" class="node"><title>command</title>
<g id="a_node2"><a xlink:href="../PsyllaReference_Types.xhtml#PsyllaReference_Types_Details_command" xlink:title="command" target="_parent">
<polygon fill="wheat" stroke="black" points="143.5,-36 80.5,-36 80.5,-0 149.5,-0 149.5,-30 143.5,-36"/>
<polyline fill="none" stroke="black" points="143.5,-36 143.5,-30 "/>
<polyline fill="none" stroke="black" points="149.5,-30 143.5,-30 "/>
<text text-anchor="middle" x="115" y="-14.3" font-family="monospace" font-size="14.00">command</text>
</a>
</g>
</g>
<!-- name&#45;&gt;command -->
<g id="edge1" class="edge"><title>name&#45;&gt;command</title>
<path fill="none" stroke="black" d="M115,-71.6966C115,-63.9827 115,-54.7125 115,-46.1124"/>
<polygon fill="black" stroke="black" points="118.5,-46.1043 115,-36.1043 111.5,-46.1044 118.5,-46.1043"/>
</g>
<!-- atomic -->
<g id="node3" class="node"><title>atomic</title>
<g id="a_node3"><a xlink:href="../PsyllaReference_Types.xhtml#PsyllaReference_Types_Details_atomic" xlink:title="atomic" target="_parent">
<polygon fill="linen" stroke="black" points="56,-180 3.55271e-15,-180 3.55271e-15,-144 62,-144 62,-174 56,-180"/>
<polyline fill="none" stroke="black" points="56,-180 56,-174 "/>
<polyline fill="none" stroke="black" points="62,-174 56,-174 "/>
<text text-anchor="middle" x="31" y="-158.3" font-family="monospace" font-size="14.00">atomic</text>
</a>
</g>
</g>
<!-- atomic&#45;&gt;name -->
<g id="edge2" class="edge"><title>atomic&#45;&gt;name</title>
<path fill="none" stroke="black" d="M51.7641,-143.697C62.2414,-134.965 75.1114,-124.24 86.4997,-114.75"/>
<polygon fill="black" stroke="black" points="89.0332,-117.195 94.4748,-108.104 84.5519,-111.817 89.0332,-117.195"/>
</g>
<!-- stringy -->
<g id="node4" class="node"><title>stringy</title>
<g id="a_node4"><a xlink:href="../PsyllaReference_Types.xhtml#PsyllaReference_Types_Details_stringy" xlink:title="stringy" target="_parent">
<polygon fill="linen" stroke="black" points="186.5,-180 123.5,-180 123.5,-144 192.5,-144 192.5,-174 186.5,-180"/>
<polyline fill="none" stroke="black" points="186.5,-180 186.5,-174 "/>
<polyline fill="none" stroke="black" points="192.5,-174 186.5,-174 "/>
<text text-anchor="middle" x="158" y="-158.3" font-family="monospace" font-size="14.00">stringy</text>
</a>
</g>
</g>
<!-- stringy&#45;&gt;name -->
<g id="edge3" class="edge"><title>stringy&#45;&gt;name</title>
<path fill="none" stroke="black" d="M147.371,-143.697C142.372,-135.559 136.309,-125.689 130.788,-116.701"/>
<polygon fill="black" stroke="black" points="133.723,-114.793 125.507,-108.104 127.759,-118.457 133.723,-114.793"/>
</g>
<!-- object -->
<g id="node5" class="node"><title>object</title>
<g id="a_node5"><a xlink:href="../PsyllaReference_Types.xhtml#PsyllaReference_Types_Details_object" xlink:title="object" target="_parent">
<polygon fill="linen" stroke="black" points="183,-324 127,-324 127,-288 189,-288 189,-318 183,-324"/>
<polyline fill="none" stroke="black" points="183,-324 183,-318 "/>
<polyline fill="none" stroke="black" points="189,-318 183,-318 "/>
<text text-anchor="middle" x="158" y="-302.3" font-family="monospace" font-size="14.00">object</text>
</a>
</g>
</g>
<!-- object&#45;&gt;atomic -->
<g id="edge4" class="edge"><title>object&#45;&gt;atomic</title>
<path fill="none" stroke="black" d="M126.826,-303.974C91.3548,-300.935 34.8729,-289.996 8,-252 -5.14608,-233.412 3.50133,-207.904 13.7356,-188.959"/>
<polygon fill="black" stroke="black" points="16.8008,-190.651 18.7986,-180.246 10.7483,-187.134 16.8008,-190.651"/>
</g>
<!-- evaluable -->
<g id="node6" class="node"><title>evaluable</title>
<g id="a_node6"><a xlink:href="../PsyllaReference_Types.xhtml#PsyllaReference_Types_Details_evaluable" xlink:title="evaluable" target="_parent">
<polygon fill="linen" stroke="black" points="95,-252 17,-252 17,-216 101,-216 101,-246 95,-252"/>
<polyline fill="none" stroke="black" points="95,-252 95,-246 "/>
<polyline fill="none" stroke="black" points="101,-246 95,-246 "/>
<text text-anchor="middle" x="59" y="-230.3" font-family="monospace" font-size="14.00">evaluable</text>
</a>
</g>
</g>
<!-- object&#45;&gt;evaluable -->
<g id="edge9" class="edge"><title>object&#45;&gt;evaluable</title>
<path fill="none" stroke="black" d="M133.782,-287.876C121.077,-278.893 105.336,-267.763 91.5768,-258.034"/>
<polygon fill="black" stroke="black" points="93.497,-255.105 83.3112,-252.19 89.4557,-260.821 93.497,-255.105"/>
</g>
<!-- iterable -->
<g id="node7" class="node"><title>iterable</title>
<g id="a_node7"><a xlink:href="../PsyllaReference_Types.xhtml#PsyllaReference_Types_Details_iterable" xlink:title="iterable" target="_parent">
<polygon fill="linen" stroke="black" points="190.5,-252 119.5,-252 119.5,-216 196.5,-216 196.5,-246 190.5,-252"/>
<polyline fill="none" stroke="black" points="190.5,-252 190.5,-246 "/>
<polyline fill="none" stroke="black" points="196.5,-246 190.5,-246 "/>
<text text-anchor="middle" x="158" y="-230.3" font-family="monospace" font-size="14.00">iterable</text>
</a>
</g>
</g>
<!-- object&#45;&gt;iterable -->
<g id="edge10" class="edge"><title>object&#45;&gt;iterable</title>
<path fill="none" stroke="black" d="M158,-287.697C158,-279.983 158,-270.712 158,-262.112"/>
<polygon fill="black" stroke="black" points="161.5,-262.104 158,-252.104 154.5,-262.104 161.5,-262.104"/>
</g>
<!-- lengthy -->
<g id="node8" class="node"><title>lengthy</title>
<g id="a_node8"><a xlink:href="../PsyllaReference_Types.xhtml#PsyllaReference_Types_Details_lengthy" xlink:title="lengthy" target="_parent">
<polygon fill="linen" stroke="black" points="277.5,-252 214.5,-252 214.5,-216 283.5,-216 283.5,-246 277.5,-252"/>
<polyline fill="none" stroke="black" points="277.5,-252 277.5,-246 "/>
<polyline fill="none" stroke="black" points="283.5,-246 277.5,-246 "/>
<text text-anchor="middle" x="249" y="-230.3" font-family="monospace" font-size="14.00">lengthy</text>
</a>
</g>
</g>
<!-- object&#45;&gt;lengthy -->
<g id="edge11" class="edge"><title>object&#45;&gt;lengthy</title>
<path fill="none" stroke="black" d="M180.494,-287.697C191.955,-278.881 206.058,-268.032 218.484,-258.474"/>
<polygon fill="black" stroke="black" points="220.972,-260.976 226.764,-252.104 216.704,-255.427 220.972,-260.976"/>
</g>
<!-- scalar -->
<g id="node9" class="node"><title>scalar</title>
<g id="a_node9"><a xlink:href="../PsyllaReference_Types.xhtml#PsyllaReference_Types_Details_scalar" xlink:title="scalar" target="_parent">
<polygon fill="linen" stroke="black" points="358,-252 302,-252 302,-216 364,-216 364,-246 358,-252"/>
<polyline fill="none" stroke="black" points="358,-252 358,-246 "/>
<polyline fill="none" stroke="black" points="364,-246 358,-246 "/>
<text text-anchor="middle" x="333" y="-230.3" font-family="monospace" font-size="14.00">scalar</text>
</a>
</g>
</g>
<!-- object&#45;&gt;scalar -->
<g id="edge12" class="edge"><title>object&#45;&gt;scalar</title>
<path fill="none" stroke="black" d="M189.197,-293.035C214.641,-283.214 251.725,-268.759 292.1,-252.322"/>
<polygon fill="black" stroke="black" points="293.657,-255.467 301.592,-248.446 291.011,-248.986 293.657,-255.467"/>
</g>
<!-- evaluable&#45;&gt;stringy -->
<g id="edge5" class="edge"><title>evaluable&#45;&gt;stringy</title>
<path fill="none" stroke="black" d="M83.2181,-215.876C95.9227,-206.893 111.664,-195.763 125.423,-186.034"/>
<polygon fill="black" stroke="black" points="127.544,-188.821 133.689,-180.19 123.503,-183.105 127.544,-188.821"/>
</g>
<!-- iterable&#45;&gt;stringy -->
<g id="edge6" class="edge"><title>iterable&#45;&gt;stringy</title>
<path fill="none" stroke="black" d="M158,-215.697C158,-207.983 158,-198.712 158,-190.112"/>
<polygon fill="black" stroke="black" points="161.5,-190.104 158,-180.104 154.5,-190.104 161.5,-190.104"/>
</g>
<!-- lengthy&#45;&gt;stringy -->
<g id="edge7" class="edge"><title>lengthy&#45;&gt;stringy</title>
<path fill="none" stroke="black" d="M226.506,-215.697C215.045,-206.881 200.942,-196.032 188.516,-186.474"/>
<polygon fill="black" stroke="black" points="190.296,-183.427 180.236,-180.104 186.028,-188.976 190.296,-183.427"/>
</g>
<!-- scalar&#45;&gt;stringy -->
<g id="edge8" class="edge"><title>scalar&#45;&gt;stringy</title>
<path fill="none" stroke="black" d="M301.592,-219.554C298.691,-218.342 295.794,-217.142 293,-216 262.693,-203.613 228.344,-190.136 201.879,-179.872"/>
<polygon fill="black" stroke="black" points="203.096,-176.59 192.507,-176.244 200.569,-183.118 203.096,-176.59"/>
</g>
</g>
</svg>
