<?xml version="1.0" encoding="UTF-8" standalone="no"?>
<!DOCTYPE svg PUBLIC "-//W3C//DTD SVG 1.1//EN"
 "http://www.w3.org/Graphics/SVG/1.1/DTD/svg11.dtd">
<!-- Generated by graphviz version 2.38.0 (20140413.2041)
 -->
<!-- Title: stringreader Pages: 1 -->
<svg width="333pt" height="217pt"
 viewBox="0.00 0.00 400.00 260.00" xmlns="http://www.w3.org/2000/svg" xmlns:xlink="http://www.w3.org/1999/xlink">
<g id="graph0" class="graph" transform="scale(0.833333 0.833333) rotate(0) translate(4 256)">
<title>stringreader</title>
<polygon fill="none" stroke="none" points="-4,4 -4,-256 396,-256 396,4 -4,4"/>
<!-- reader -->
<g id="node1" class="node"><title>reader</title>
<g id="a_node1"><a xlink:href="../PsyllaReference_Types.xhtml#PsyllaReference_Types_Details_reader" xlink:title="reader" target="_parent">
<polygon fill="linen" stroke="black" points="218,-108 162,-108 162,-72 224,-72 224,-102 218,-108"/>
<polyline fill="none" stroke="black" points="218,-108 218,-102 "/>
<polyline fill="none" stroke="black" points="224,-102 218,-102 "/>
<text text-anchor="middle" x="193" y="-86.3" font-family="monospace" font-size="14.00">reader</text>
</a>
</g>
</g>
<!-- stringreader -->
<g id="node2" class="node"><title>stringreader</title>
<g id="a_node2"><a xlink:href="../PsyllaReference_Types.xhtml#PsyllaReference_Types_Details_stringreader" xlink:title="stringreader" target="_parent">
<polygon fill="wheat" stroke="black" points="240.5,-36 139.5,-36 139.5,-0 246.5,-0 246.5,-30 240.5,-36"/>
<polyline fill="none" stroke="black" points="240.5,-36 240.5,-30 "/>
<polyline fill="none" stroke="black" points="246.5,-30 240.5,-30 "/>
<text text-anchor="middle" x="193" y="-14.3" font-family="monospace" font-size="14.00">stringreader</text>
</a>
</g>
</g>
<!-- reader&#45;&gt;stringreader -->
<g id="edge1" class="edge"><title>reader&#45;&gt;stringreader</title>
<path fill="none" stroke="black" d="M193,-71.6966C193,-63.9827 193,-54.7125 193,-46.1124"/>
<polygon fill="black" stroke="black" points="196.5,-46.1043 193,-36.1043 189.5,-46.1044 196.5,-46.1043"/>
</g>
<!-- closeable -->
<g id="node3" class="node"><title>closeable</title>
<g id="a_node3"><a xlink:href="../PsyllaReference_Types.xhtml#PsyllaReference_Types_Details_closeable" xlink:title="closeable" target="_parent">
<polygon fill="linen" stroke="black" points="78,-180 7.10543e-15,-180 7.10543e-15,-144 84,-144 84,-174 78,-180"/>
<polyline fill="none" stroke="black" points="78,-180 78,-174 "/>
<polyline fill="none" stroke="black" points="84,-174 78,-174 "/>
<text text-anchor="middle" x="42" y="-158.3" font-family="monospace" font-size="14.00">closeable</text>
</a>
</g>
</g>
<!-- closeable&#45;&gt;reader -->
<g id="edge2" class="edge"><title>closeable&#45;&gt;reader</title>
<path fill="none" stroke="black" d="M78.9388,-143.876C101.193,-133.56 129.557,-120.411 152.433,-109.806"/>
<polygon fill="black" stroke="black" points="153.945,-112.963 161.545,-105.582 151,-106.612 153.945,-112.963"/>
</g>
<!-- evaluable -->
<g id="node4" class="node"><title>evaluable</title>
<g id="a_node4"><a xlink:href="../PsyllaReference_Types.xhtml#PsyllaReference_Types_Details_evaluable" xlink:title="evaluable" target="_parent">
<polygon fill="linen" stroke="black" points="180,-180 102,-180 102,-144 186,-144 186,-174 180,-180"/>
<polyline fill="none" stroke="black" points="180,-180 180,-174 "/>
<polyline fill="none" stroke="black" points="186,-174 180,-174 "/>
<text text-anchor="middle" x="144" y="-158.3" font-family="monospace" font-size="14.00">evaluable</text>
</a>
</g>
</g>
<!-- evaluable&#45;&gt;reader -->
<g id="edge3" class="edge"><title>evaluable&#45;&gt;reader</title>
<path fill="none" stroke="black" d="M156.112,-143.697C161.868,-135.474 168.862,-125.483 175.206,-116.421"/>
<polygon fill="black" stroke="black" points="178.16,-118.304 181.027,-108.104 172.425,-114.29 178.16,-118.304"/>
</g>
<!-- readable -->
<g id="node5" class="node"><title>readable</title>
<g id="a_node5"><a xlink:href="../PsyllaReference_Types.xhtml#PsyllaReference_Types_Details_readable" xlink:title="readable" target="_parent">
<polygon fill="linen" stroke="black" points="275.5,-180 204.5,-180 204.5,-144 281.5,-144 281.5,-174 275.5,-180"/>
<polyline fill="none" stroke="black" points="275.5,-180 275.5,-174 "/>
<polyline fill="none" stroke="black" points="281.5,-174 275.5,-174 "/>
<text text-anchor="middle" x="243" y="-158.3" font-family="monospace" font-size="14.00">readable</text>
</a>
</g>
</g>
<!-- readable&#45;&gt;reader -->
<g id="edge4" class="edge"><title>readable&#45;&gt;reader</title>
<path fill="none" stroke="black" d="M230.64,-143.697C224.767,-135.474 217.631,-125.483 211.158,-116.421"/>
<polygon fill="black" stroke="black" points="213.878,-114.207 205.217,-108.104 208.182,-118.276 213.878,-114.207"/>
</g>
<!-- resettable -->
<g id="node6" class="node"><title>resettable</title>
<g id="a_node6"><a xlink:href="../PsyllaReference_Types.xhtml#PsyllaReference_Types_Details_resettable" xlink:title="resettable" target="_parent">
<polygon fill="linen" stroke="black" points="386,-180 300,-180 300,-144 392,-144 392,-174 386,-180"/>
<polyline fill="none" stroke="black" points="386,-180 386,-174 "/>
<polyline fill="none" stroke="black" points="392,-174 386,-174 "/>
<text text-anchor="middle" x="346" y="-158.3" font-family="monospace" font-size="14.00">resettable</text>
</a>
</g>
</g>
<!-- resettable&#45;&gt;reader -->
<g id="edge5" class="edge"><title>resettable&#45;&gt;reader</title>
<path fill="none" stroke="black" d="M308.572,-143.876C285.79,-133.453 256.688,-120.138 233.387,-109.478"/>
<polygon fill="black" stroke="black" points="234.668,-106.215 224.118,-105.237 231.755,-112.58 234.668,-106.215"/>
</g>
<!-- object -->
<g id="node7" class="node"><title>object</title>
<g id="a_node7"><a xlink:href="../PsyllaReference_Types.xhtml#PsyllaReference_Types_Details_object" xlink:title="object" target="_parent">
<polygon fill="linen" stroke="black" points="218,-252 162,-252 162,-216 224,-216 224,-246 218,-252"/>
<polyline fill="none" stroke="black" points="218,-252 218,-246 "/>
<polyline fill="none" stroke="black" points="224,-246 218,-246 "/>
<text text-anchor="middle" x="193" y="-230.3" font-family="monospace" font-size="14.00">object</text>
</a>
</g>
</g>
<!-- object&#45;&gt;closeable -->
<g id="edge6" class="edge"><title>object&#45;&gt;closeable</title>
<path fill="none" stroke="black" d="M161.713,-218.496C140.436,-208.632 111.926,-195.416 88.0658,-184.355"/>
<polygon fill="black" stroke="black" points="89.3823,-181.108 78.8376,-180.077 86.4381,-187.458 89.3823,-181.108"/>
</g>
<!-- object&#45;&gt;evaluable -->
<g id="edge7" class="edge"><title>object&#45;&gt;evaluable</title>
<path fill="none" stroke="black" d="M180.888,-215.697C175.132,-207.474 168.138,-197.483 161.794,-188.421"/>
<polygon fill="black" stroke="black" points="164.575,-186.29 155.973,-180.104 158.84,-190.304 164.575,-186.29"/>
</g>
<!-- object&#45;&gt;readable -->
<g id="edge8" class="edge"><title>object&#45;&gt;readable</title>
<path fill="none" stroke="black" d="M205.36,-215.697C211.233,-207.474 218.369,-197.483 224.842,-188.421"/>
<polygon fill="black" stroke="black" points="227.818,-190.276 230.783,-180.104 222.122,-186.207 227.818,-190.276"/>
</g>
<!-- object&#45;&gt;resettable -->
<g id="edge9" class="edge"><title>object&#45;&gt;resettable</title>
<path fill="none" stroke="black" d="M224.331,-218.666C245.942,-208.778 275.045,-195.463 299.369,-184.335"/>
<polygon fill="black" stroke="black" points="301.136,-187.375 308.774,-180.032 298.224,-181.009 301.136,-187.375"/>
</g>
</g>
</svg>
