<?xml version="1.0" encoding="UTF-8" standalone="no"?>
<!DOCTYPE svg PUBLIC "-//W3C//DTD SVG 1.1//EN"
 "http://www.w3.org/Graphics/SVG/1.1/DTD/svg11.dtd">
<!-- Generated by graphviz version 2.38.0 (20140413.2041)
 -->
<!-- Title: name Pages: 1 -->
<svg width="310pt" height="217pt"
 viewBox="0.00 0.00 372.00 260.00" xmlns="http://www.w3.org/2000/svg" xmlns:xlink="http://www.w3.org/1999/xlink">
<g id="graph0" class="graph" transform="scale(0.833333 0.833333) rotate(0) translate(4 256)">
<title>name</title>
<polygon fill="none" stroke="none" points="-4,4 -4,-256 368,-256 368,4 -4,4"/>
<!-- atomic -->
<g id="node1" class="node"><title>atomic</title>
<g id="a_node1"><a xlink:href="../PsyllaReference_Types.xhtml#PsyllaReference_Types_Details_atomic" xlink:title="atomic" target="_parent">
<polygon fill="linen" stroke="black" points="56,-108 3.55271e-15,-108 3.55271e-15,-72 62,-72 62,-102 56,-108"/>
<polyline fill="none" stroke="black" points="56,-108 56,-102 "/>
<polyline fill="none" stroke="black" points="62,-102 56,-102 "/>
<text text-anchor="middle" x="31" y="-86.3" font-family="monospace" font-size="14.00">atomic</text>
</a>
</g>
</g>
<!-- name -->
<g id="node3" class="node"><title>name</title>
<g id="a_node3"><a xlink:href="../PsyllaReference_Types.xhtml#PsyllaReference_Types_Details_name" xlink:title="name" target="_parent">
<polygon fill="wheat" stroke="black" points="136,-36 88,-36 88,-0 142,-0 142,-30 136,-36"/>
<polyline fill="none" stroke="black" points="136,-36 136,-30 "/>
<polyline fill="none" stroke="black" points="142,-30 136,-30 "/>
<text text-anchor="middle" x="115" y="-14.3" font-family="monospace" font-size="14.00">name</text>
</a>
</g>
</g>
<!-- atomic&#45;&gt;name -->
<g id="edge1" class="edge"><title>atomic&#45;&gt;name</title>
<path fill="none" stroke="black" d="M51.7641,-71.6966C62.2414,-62.9655 75.1114,-52.2405 86.4997,-42.7503"/>
<polygon fill="black" stroke="black" points="89.0332,-45.195 94.4748,-36.1043 84.5519,-39.8174 89.0332,-45.195"/>
</g>
<!-- stringy -->
<g id="node2" class="node"><title>stringy</title>
<g id="a_node2"><a xlink:href="../PsyllaReference_Types.xhtml#PsyllaReference_Types_Details_stringy" xlink:title="stringy" target="_parent">
<polygon fill="linen" stroke="black" points="186.5,-108 123.5,-108 123.5,-72 192.5,-72 192.5,-102 186.5,-108"/>
<polyline fill="none" stroke="black" points="186.5,-108 186.5,-102 "/>
<polyline fill="none" stroke="black" points="192.5,-102 186.5,-102 "/>
<text text-anchor="middle" x="158" y="-86.3" font-family="monospace" font-size="14.00">stringy</text>
</a>
</g>
</g>
<!-- stringy&#45;&gt;name -->
<g id="edge2" class="edge"><title>stringy&#45;&gt;name</title>
<path fill="none" stroke="black" d="M147.371,-71.6966C142.372,-63.5589 136.309,-53.689 130.788,-44.7013"/>
<polygon fill="black" stroke="black" points="133.723,-42.7931 125.507,-36.1043 127.759,-46.4571 133.723,-42.7931"/>
</g>
<!-- object -->
<g id="node4" class="node"><title>object</title>
<g id="a_node4"><a xlink:href="../PsyllaReference_Types.xhtml#PsyllaReference_Types_Details_object" xlink:title="object" target="_parent">
<polygon fill="linen" stroke="black" points="183,-252 127,-252 127,-216 189,-216 189,-246 183,-252"/>
<polyline fill="none" stroke="black" points="183,-252 183,-246 "/>
<polyline fill="none" stroke="black" points="189,-246 183,-246 "/>
<text text-anchor="middle" x="158" y="-230.3" font-family="monospace" font-size="14.00">object</text>
</a>
</g>
</g>
<!-- object&#45;&gt;atomic -->
<g id="edge3" class="edge"><title>object&#45;&gt;atomic</title>
<path fill="none" stroke="black" d="M126.826,-231.974C91.3548,-228.935 34.8729,-217.996 8,-180 -5.14608,-161.412 3.50133,-135.904 13.7356,-116.959"/>
<polygon fill="black" stroke="black" points="16.8008,-118.651 18.7986,-108.246 10.7483,-115.134 16.8008,-118.651"/>
</g>
<!-- evaluable -->
<g id="node5" class="node"><title>evaluable</title>
<g id="a_node5"><a xlink:href="../PsyllaReference_Types.xhtml#PsyllaReference_Types_Details_evaluable" xlink:title="evaluable" target="_parent">
<polygon fill="linen" stroke="black" points="95,-180 17,-180 17,-144 101,-144 101,-174 95,-180"/>
<polyline fill="none" stroke="black" points="95,-180 95,-174 "/>
<polyline fill="none" stroke="black" points="101,-174 95,-174 "/>
<text text-anchor="middle" x="59" y="-158.3" font-family="monospace" font-size="14.00">evaluable</text>
</a>
</g>
</g>
<!-- object&#45;&gt;evaluable -->
<g id="edge8" class="edge"><title>object&#45;&gt;evaluable</title>
<path fill="none" stroke="black" d="M133.782,-215.876C121.077,-206.893 105.336,-195.763 91.5768,-186.034"/>
<polygon fill="black" stroke="black" points="93.497,-183.105 83.3112,-180.19 89.4557,-188.821 93.497,-183.105"/>
</g>
<!-- iterable -->
<g id="node6" class="node"><title>iterable</title>
<g id="a_node6"><a xlink:href="../PsyllaReference_Types.xhtml#PsyllaReference_Types_Details_iterable" xlink:title="iterable" target="_parent">
<polygon fill="linen" stroke="black" points="190.5,-180 119.5,-180 119.5,-144 196.5,-144 196.5,-174 190.5,-180"/>
<polyline fill="none" stroke="black" points="190.5,-180 190.5,-174 "/>
<polyline fill="none" stroke="black" points="196.5,-174 190.5,-174 "/>
<text text-anchor="middle" x="158" y="-158.3" font-family="monospace" font-size="14.00">iterable</text>
</a>
</g>
</g>
<!-- object&#45;&gt;iterable -->
<g id="edge9" class="edge"><title>object&#45;&gt;iterable</title>
<path fill="none" stroke="black" d="M158,-215.697C158,-207.983 158,-198.712 158,-190.112"/>
<polygon fill="black" stroke="black" points="161.5,-190.104 158,-180.104 154.5,-190.104 161.5,-190.104"/>
</g>
<!-- lengthy -->
<g id="node7" class="node"><title>lengthy</title>
<g id="a_node7"><a xlink:href="../PsyllaReference_Types.xhtml#PsyllaReference_Types_Details_lengthy" xlink:title="lengthy" target="_parent">
<polygon fill="linen" stroke="black" points="277.5,-180 214.5,-180 214.5,-144 283.5,-144 283.5,-174 277.5,-180"/>
<polyline fill="none" stroke="black" points="277.5,-180 277.5,-174 "/>
<polyline fill="none" stroke="black" points="283.5,-174 277.5,-174 "/>
<text text-anchor="middle" x="249" y="-158.3" font-family="monospace" font-size="14.00">lengthy</text>
</a>
</g>
</g>
<!-- object&#45;&gt;lengthy -->
<g id="edge10" class="edge"><title>object&#45;&gt;lengthy</title>
<path fill="none" stroke="black" d="M180.494,-215.697C191.955,-206.881 206.058,-196.032 218.484,-186.474"/>
<polygon fill="black" stroke="black" points="220.972,-188.976 226.764,-180.104 216.704,-183.427 220.972,-188.976"/>
</g>
<!-- scalar -->
<g id="node8" class="node"><title>scalar</title>
<g id="a_node8"><a xlink:href="../PsyllaReference_Types.xhtml#PsyllaReference_Types_Details_scalar" xlink:title="scalar" target="_parent">
<polygon fill="linen" stroke="black" points="358,-180 302,-180 302,-144 364,-144 364,-174 358,-180"/>
<polyline fill="none" stroke="black" points="358,-180 358,-174 "/>
<polyline fill="none" stroke="black" points="364,-174 358,-174 "/>
<text text-anchor="middle" x="333" y="-158.3" font-family="monospace" font-size="14.00">scalar</text>
</a>
</g>
</g>
<!-- object&#45;&gt;scalar -->
<g id="edge11" class="edge"><title>object&#45;&gt;scalar</title>
<path fill="none" stroke="black" d="M189.197,-221.035C214.641,-211.214 251.725,-196.759 292.1,-180.322"/>
<polygon fill="black" stroke="black" points="293.657,-183.467 301.592,-176.446 291.011,-176.986 293.657,-183.467"/>
</g>
<!-- evaluable&#45;&gt;stringy -->
<g id="edge4" class="edge"><title>evaluable&#45;&gt;stringy</title>
<path fill="none" stroke="black" d="M83.2181,-143.876C95.9227,-134.893 111.664,-123.763 125.423,-114.034"/>
<polygon fill="black" stroke="black" points="127.544,-116.821 133.689,-108.19 123.503,-111.105 127.544,-116.821"/>
</g>
<!-- iterable&#45;&gt;stringy -->
<g id="edge5" class="edge"><title>iterable&#45;&gt;stringy</title>
<path fill="none" stroke="black" d="M158,-143.697C158,-135.983 158,-126.712 158,-118.112"/>
<polygon fill="black" stroke="black" points="161.5,-118.104 158,-108.104 154.5,-118.104 161.5,-118.104"/>
</g>
<!-- lengthy&#45;&gt;stringy -->
<g id="edge6" class="edge"><title>lengthy&#45;&gt;stringy</title>
<path fill="none" stroke="black" d="M226.506,-143.697C215.045,-134.881 200.942,-124.032 188.516,-114.474"/>
<polygon fill="black" stroke="black" points="190.296,-111.427 180.236,-108.104 186.028,-116.976 190.296,-111.427"/>
</g>
<!-- scalar&#45;&gt;stringy -->
<g id="edge7" class="edge"><title>scalar&#45;&gt;stringy</title>
<path fill="none" stroke="black" d="M301.592,-147.554C298.691,-146.342 295.794,-145.142 293,-144 262.693,-131.613 228.344,-118.136 201.879,-107.872"/>
<polygon fill="black" stroke="black" points="203.096,-104.59 192.507,-104.244 200.569,-111.118 203.096,-104.59"/>
</g>
</g>
</svg>
