<?xml version="1.0" encoding="UTF-8" standalone="no"?>
<!DOCTYPE svg PUBLIC "-//W3C//DTD SVG 1.1//EN"
 "http://www.w3.org/Graphics/SVG/1.1/DTD/svg11.dtd">
<!-- Generated by graphviz version 2.38.0 (20140413.2041)
 -->
<!-- Title: matcher Pages: 1 -->
<svg width="83pt" height="157pt"
 viewBox="0.00 0.00 100.00 188.00" xmlns="http://www.w3.org/2000/svg" xmlns:xlink="http://www.w3.org/1999/xlink">
<g id="graph0" class="graph" transform="scale(0.833333 0.833333) rotate(0) translate(4 184)">
<title>matcher</title>
<polygon fill="none" stroke="none" points="-4,4 -4,-184 96,-184 96,4 -4,4"/>
<!-- resettable -->
<g id="node1" class="node"><title>resettable</title>
<g id="a_node1"><a xlink:href="../PsyllaReference_Types.xhtml#PsyllaReference_Types_Details_resettable" xlink:title="resettable" target="_parent">
<polygon fill="linen" stroke="black" points="86,-108 0,-108 0,-72 92,-72 92,-102 86,-108"/>
<polyline fill="none" stroke="black" points="86,-108 86,-102 "/>
<polyline fill="none" stroke="black" points="92,-102 86,-102 "/>
<text text-anchor="middle" x="46" y="-86.3" font-family="monospace" font-size="14.00">resettable</text>
</a>
</g>
</g>
<!-- matcher -->
<g id="node2" class="node"><title>matcher</title>
<g id="a_node2"><a xlink:href="../PsyllaReference_Types.xhtml#PsyllaReference_Types_Details_matcher" xlink:title="matcher" target="_parent">
<polygon fill="wheat" stroke="black" points="74.5,-36 11.5,-36 11.5,-0 80.5,-0 80.5,-30 74.5,-36"/>
<polyline fill="none" stroke="black" points="74.5,-36 74.5,-30 "/>
<polyline fill="none" stroke="black" points="80.5,-30 74.5,-30 "/>
<text text-anchor="middle" x="46" y="-14.3" font-family="monospace" font-size="14.00">matcher</text>
</a>
</g>
</g>
<!-- resettable&#45;&gt;matcher -->
<g id="edge1" class="edge"><title>resettable&#45;&gt;matcher</title>
<path fill="none" stroke="black" d="M46,-71.6966C46,-63.9827 46,-54.7125 46,-46.1124"/>
<polygon fill="black" stroke="black" points="49.5001,-46.1043 46,-36.1043 42.5001,-46.1044 49.5001,-46.1043"/>
</g>
<!-- object -->
<g id="node3" class="node"><title>object</title>
<g id="a_node3"><a xlink:href="../PsyllaReference_Types.xhtml#PsyllaReference_Types_Details_object" xlink:title="object" target="_parent">
<polygon fill="linen" stroke="black" points="71,-180 15,-180 15,-144 77,-144 77,-174 71,-180"/>
<polyline fill="none" stroke="black" points="71,-180 71,-174 "/>
<polyline fill="none" stroke="black" points="77,-174 71,-174 "/>
<text text-anchor="middle" x="46" y="-158.3" font-family="monospace" font-size="14.00">object</text>
</a>
</g>
</g>
<!-- object&#45;&gt;resettable -->
<g id="edge2" class="edge"><title>object&#45;&gt;resettable</title>
<path fill="none" stroke="black" d="M46,-143.697C46,-135.983 46,-126.712 46,-118.112"/>
<polygon fill="black" stroke="black" points="49.5001,-118.104 46,-108.104 42.5001,-118.104 49.5001,-118.104"/>
</g>
</g>
</svg>
