<?xml version="1.0" encoding="UTF-8" standalone="no"?>
<!DOCTYPE svg PUBLIC "-//W3C//DTD SVG 1.1//EN"
 "http://www.w3.org/Graphics/SVG/1.1/DTD/svg11.dtd">
<!-- Generated by graphviz version 2.38.0 (20140413.2041)
 -->
<!-- Title: scalar Pages: 1 -->
<svg width="58pt" height="97pt"
 viewBox="0.00 0.00 70.00 116.00" xmlns="http://www.w3.org/2000/svg" xmlns:xlink="http://www.w3.org/1999/xlink">
<g id="graph0" class="graph" transform="scale(0.833333 0.833333) rotate(0) translate(4 112)">
<title>scalar</title>
<polygon fill="none" stroke="none" points="-4,4 -4,-112 66,-112 66,4 -4,4"/>
<!-- object -->
<g id="node1" class="node"><title>object</title>
<g id="a_node1"><a xlink:href="../PsyllaReference_Types.xhtml#PsyllaReference_Types_Details_object" xlink:title="object" target="_parent">
<polygon fill="linen" stroke="black" points="56,-108 0,-108 0,-72 62,-72 62,-102 56,-108"/>
<polyline fill="none" stroke="black" points="56,-108 56,-102 "/>
<polyline fill="none" stroke="black" points="62,-102 56,-102 "/>
<text text-anchor="middle" x="31" y="-86.3" font-family="monospace" font-size="14.00">object</text>
</a>
</g>
</g>
<!-- scalar -->
<g id="node2" class="node"><title>scalar</title>
<g id="a_node2"><a xlink:href="../PsyllaReference_Types.xhtml#PsyllaReference_Types_Details_scalar" xlink:title="scalar" target="_parent">
<polygon fill="wheat" stroke="black" points="56,-36 0,-36 0,-0 62,-0 62,-30 56,-36"/>
<polyline fill="none" stroke="black" points="56,-36 56,-30 "/>
<polyline fill="none" stroke="black" points="62,-30 56,-30 "/>
<text text-anchor="middle" x="31" y="-14.3" font-family="monospace" font-size="14.00">scalar</text>
</a>
</g>
</g>
<!-- object&#45;&gt;scalar -->
<g id="edge1" class="edge"><title>object&#45;&gt;scalar</title>
<path fill="none" stroke="black" d="M31,-71.6966C31,-63.9827 31,-54.7125 31,-46.1124"/>
<polygon fill="black" stroke="black" points="34.5001,-46.1043 31,-36.1043 27.5001,-46.1044 34.5001,-46.1043"/>
</g>
</g>
</svg>
