<?xml version="1.0" encoding="UTF-8" standalone="no"?>
<!DOCTYPE svg PUBLIC "-//W3C//DTD SVG 1.1//EN"
 "http://www.w3.org/Graphics/SVG/1.1/DTD/svg11.dtd">
<!-- Generated by graphviz version 2.38.0 (20140413.2041)
 -->
<!-- Title: stringy Pages: 1 -->
<svg width="296pt" height="157pt"
 viewBox="0.00 0.00 355.00 188.00" xmlns="http://www.w3.org/2000/svg" xmlns:xlink="http://www.w3.org/1999/xlink">
<g id="graph0" class="graph" transform="scale(0.833333 0.833333) rotate(0) translate(4 184)">
<title>stringy</title>
<polygon fill="none" stroke="none" points="-4,4 -4,-184 351,-184 351,4 -4,4"/>
<!-- evaluable -->
<g id="node1" class="node"><title>evaluable</title>
<g id="a_node1"><a xlink:href="../PsyllaReference_Types.xhtml#PsyllaReference_Types_Details_evaluable" xlink:title="evaluable" target="_parent">
<polygon fill="linen" stroke="black" points="78,-108 7.10543e-15,-108 7.10543e-15,-72 84,-72 84,-102 78,-108"/>
<polyline fill="none" stroke="black" points="78,-108 78,-102 "/>
<polyline fill="none" stroke="black" points="84,-102 78,-102 "/>
<text text-anchor="middle" x="42" y="-86.3" font-family="monospace" font-size="14.00">evaluable</text>
</a>
</g>
</g>
<!-- stringy -->
<g id="node5" class="node"><title>stringy</title>
<g id="a_node5"><a xlink:href="../PsyllaReference_Types.xhtml#PsyllaReference_Types_Details_stringy" xlink:title="stringy" target="_parent">
<polygon fill="wheat" stroke="black" points="214.5,-36 151.5,-36 151.5,-0 220.5,-0 220.5,-30 214.5,-36"/>
<polyline fill="none" stroke="black" points="214.5,-36 214.5,-30 "/>
<polyline fill="none" stroke="black" points="220.5,-30 214.5,-30 "/>
<text text-anchor="middle" x="186" y="-14.3" font-family="monospace" font-size="14.00">stringy</text>
</a>
</g>
</g>
<!-- evaluable&#45;&gt;stringy -->
<g id="edge1" class="edge"><title>evaluable&#45;&gt;stringy</title>
<path fill="none" stroke="black" d="M77.2264,-71.8761C96.7218,-62.3991 121.134,-50.532 141.889,-40.4427"/>
<polygon fill="black" stroke="black" points="143.674,-43.4669 151.137,-35.9471 140.613,-37.1713 143.674,-43.4669"/>
</g>
<!-- iterable -->
<g id="node2" class="node"><title>iterable</title>
<g id="a_node2"><a xlink:href="../PsyllaReference_Types.xhtml#PsyllaReference_Types_Details_iterable" xlink:title="iterable" target="_parent">
<polygon fill="linen" stroke="black" points="173.5,-108 102.5,-108 102.5,-72 179.5,-72 179.5,-102 173.5,-108"/>
<polyline fill="none" stroke="black" points="173.5,-108 173.5,-102 "/>
<polyline fill="none" stroke="black" points="179.5,-102 173.5,-102 "/>
<text text-anchor="middle" x="141" y="-86.3" font-family="monospace" font-size="14.00">iterable</text>
</a>
</g>
</g>
<!-- iterable&#45;&gt;stringy -->
<g id="edge2" class="edge"><title>iterable&#45;&gt;stringy</title>
<path fill="none" stroke="black" d="M152.124,-71.6966C157.355,-63.5589 163.7,-53.689 169.478,-44.7013"/>
<polygon fill="black" stroke="black" points="172.541,-46.4088 175.004,-36.1043 166.653,-42.6235 172.541,-46.4088"/>
</g>
<!-- lengthy -->
<g id="node3" class="node"><title>lengthy</title>
<g id="a_node3"><a xlink:href="../PsyllaReference_Types.xhtml#PsyllaReference_Types_Details_lengthy" xlink:title="lengthy" target="_parent">
<polygon fill="linen" stroke="black" points="260.5,-108 197.5,-108 197.5,-72 266.5,-72 266.5,-102 260.5,-108"/>
<polyline fill="none" stroke="black" points="260.5,-108 260.5,-102 "/>
<polyline fill="none" stroke="black" points="266.5,-102 260.5,-102 "/>
<text text-anchor="middle" x="232" y="-86.3" font-family="monospace" font-size="14.00">lengthy</text>
</a>
</g>
</g>
<!-- lengthy&#45;&gt;stringy -->
<g id="edge3" class="edge"><title>lengthy&#45;&gt;stringy</title>
<path fill="none" stroke="black" d="M220.629,-71.6966C215.282,-63.5589 208.796,-53.689 202.889,-44.7013"/>
<polygon fill="black" stroke="black" points="205.657,-42.5393 197.24,-36.1043 199.807,-46.3835 205.657,-42.5393"/>
</g>
<!-- scalar -->
<g id="node4" class="node"><title>scalar</title>
<g id="a_node4"><a xlink:href="../PsyllaReference_Types.xhtml#PsyllaReference_Types_Details_scalar" xlink:title="scalar" target="_parent">
<polygon fill="linen" stroke="black" points="341,-108 285,-108 285,-72 347,-72 347,-102 341,-108"/>
<polyline fill="none" stroke="black" points="341,-108 341,-102 "/>
<polyline fill="none" stroke="black" points="347,-102 341,-102 "/>
<text text-anchor="middle" x="316" y="-86.3" font-family="monospace" font-size="14.00">scalar</text>
</a>
</g>
</g>
<!-- scalar&#45;&gt;stringy -->
<g id="edge4" class="edge"><title>scalar&#45;&gt;stringy</title>
<path fill="none" stroke="black" d="M284.862,-72.2333C267.433,-62.8483 245.497,-51.0367 226.718,-40.9253"/>
<polygon fill="black" stroke="black" points="228.251,-37.7756 217.787,-36.1162 224.933,-43.9389 228.251,-37.7756"/>
</g>
<!-- object -->
<g id="node6" class="node"><title>object</title>
<g id="a_node6"><a xlink:href="../PsyllaReference_Types.xhtml#PsyllaReference_Types_Details_object" xlink:title="object" target="_parent">
<polygon fill="linen" stroke="black" points="211,-180 155,-180 155,-144 217,-144 217,-174 211,-180"/>
<polyline fill="none" stroke="black" points="211,-180 211,-174 "/>
<polyline fill="none" stroke="black" points="217,-174 211,-174 "/>
<text text-anchor="middle" x="186" y="-158.3" font-family="monospace" font-size="14.00">object</text>
</a>
</g>
</g>
<!-- object&#45;&gt;evaluable -->
<g id="edge5" class="edge"><title>object&#45;&gt;evaluable</title>
<path fill="none" stroke="black" d="M154.754,-145.811C134.705,-136.065 108.371,-123.263 86.1939,-112.483"/>
<polygon fill="black" stroke="black" points="87.4986,-109.226 76.9747,-108.002 84.4382,-115.521 87.4986,-109.226"/>
</g>
<!-- object&#45;&gt;iterable -->
<g id="edge6" class="edge"><title>object&#45;&gt;iterable</title>
<path fill="none" stroke="black" d="M174.876,-143.697C169.645,-135.559 163.3,-125.689 157.522,-116.701"/>
<polygon fill="black" stroke="black" points="160.347,-114.623 151.996,-108.104 154.459,-118.409 160.347,-114.623"/>
</g>
<!-- object&#45;&gt;lengthy -->
<g id="edge7" class="edge"><title>object&#45;&gt;lengthy</title>
<path fill="none" stroke="black" d="M197.371,-143.697C202.718,-135.559 209.204,-125.689 215.111,-116.701"/>
<polygon fill="black" stroke="black" points="218.193,-118.384 220.76,-108.104 212.343,-114.539 218.193,-118.384"/>
</g>
<!-- object&#45;&gt;scalar -->
<g id="edge8" class="edge"><title>object&#45;&gt;scalar</title>
<path fill="none" stroke="black" d="M217.138,-144.233C234.697,-134.779 256.829,-122.862 275.698,-112.701"/>
<polygon fill="black" stroke="black" points="277.52,-115.695 284.665,-107.873 274.201,-109.532 277.52,-115.695"/>
</g>
</g>
</svg>
