<?xml version="1.0" encoding="UTF-8" standalone="no"?>
<!DOCTYPE svg PUBLIC "-//W3C//DTD SVG 1.1//EN"
 "http://www.w3.org/Graphics/SVG/1.1/DTD/svg11.dtd">
<!-- Generated by graphviz version 2.38.0 (20140413.2041)
 -->
<!-- Title: arraylike Pages: 1 -->
<svg width="322pt" height="217pt"
 viewBox="0.00 0.00 386.50 260.00" xmlns="http://www.w3.org/2000/svg" xmlns:xlink="http://www.w3.org/1999/xlink">
<g id="graph0" class="graph" transform="scale(0.833333 0.833333) rotate(0) translate(4 256)">
<title>arraylike</title>
<polygon fill="none" stroke="none" points="-4,4 -4,-256 382.5,-256 382.5,4 -4,4"/>
<!-- appendable -->
<g id="node1" class="node"><title>appendable</title>
<g id="a_node1"><a xlink:href="../PsyllaReference_Types.xhtml#PsyllaReference_Types_Details_appendable" xlink:title="appendable" target="_parent">
<polygon fill="linen" stroke="black" points="86,-108 0,-108 0,-72 92,-72 92,-102 86,-108"/>
<polyline fill="none" stroke="black" points="86,-108 86,-102 "/>
<polyline fill="none" stroke="black" points="92,-102 86,-102 "/>
<text text-anchor="middle" x="46" y="-86.3" font-family="monospace" font-size="14.00">appendable</text>
</a>
</g>
</g>
<!-- arraylike -->
<g id="node4" class="node"><title>arraylike</title>
<g id="a_node4"><a xlink:href="../PsyllaReference_Types.xhtml#PsyllaReference_Types_Details_arraylike" xlink:title="arraylike" target="_parent">
<polygon fill="wheat" stroke="black" points="181,-36 103,-36 103,-0 187,-0 187,-30 181,-36"/>
<polyline fill="none" stroke="black" points="181,-36 181,-30 "/>
<polyline fill="none" stroke="black" points="187,-30 181,-30 "/>
<text text-anchor="middle" x="145" y="-14.3" font-family="monospace" font-size="14.00">arraylike</text>
</a>
</g>
</g>
<!-- appendable&#45;&gt;arraylike -->
<g id="edge1" class="edge"><title>appendable&#45;&gt;arraylike</title>
<path fill="none" stroke="black" d="M70.2181,-71.8761C82.9227,-62.8931 98.6644,-51.7625 112.423,-42.0341"/>
<polygon fill="black" stroke="black" points="114.544,-44.8209 120.689,-36.1898 110.503,-39.1053 114.544,-44.8209"/>
</g>
<!-- container -->
<g id="node2" class="node"><title>container</title>
<g id="a_node2"><a xlink:href="../PsyllaReference_Types.xhtml#PsyllaReference_Types_Details_container" xlink:title="container" target="_parent">
<polygon fill="linen" stroke="black" points="282,-108 204,-108 204,-72 288,-72 288,-102 282,-108"/>
<polyline fill="none" stroke="black" points="282,-108 282,-102 "/>
<polyline fill="none" stroke="black" points="288,-102 282,-102 "/>
<text text-anchor="middle" x="246" y="-86.3" font-family="monospace" font-size="14.00">container</text>
</a>
</g>
</g>
<!-- container&#45;&gt;arraylike -->
<g id="edge2" class="edge"><title>container&#45;&gt;arraylike</title>
<path fill="none" stroke="black" d="M221.293,-71.8761C208.331,-62.8931 192.272,-51.7625 178.235,-42.0341"/>
<polygon fill="black" stroke="black" points="180.015,-39.0095 169.802,-36.1898 176.028,-44.7628 180.015,-39.0095"/>
</g>
<!-- indexed -->
<g id="node3" class="node"><title>indexed</title>
<g id="a_node3"><a xlink:href="../PsyllaReference_Types.xhtml#PsyllaReference_Types_Details_indexed" xlink:title="indexed" target="_parent">
<polygon fill="linen" stroke="black" points="173.5,-108 110.5,-108 110.5,-72 179.5,-72 179.5,-102 173.5,-108"/>
<polyline fill="none" stroke="black" points="173.5,-108 173.5,-102 "/>
<polyline fill="none" stroke="black" points="179.5,-102 173.5,-102 "/>
<text text-anchor="middle" x="145" y="-86.3" font-family="monospace" font-size="14.00">indexed</text>
</a>
</g>
</g>
<!-- indexed&#45;&gt;arraylike -->
<g id="edge3" class="edge"><title>indexed&#45;&gt;arraylike</title>
<path fill="none" stroke="black" d="M145,-71.6966C145,-63.9827 145,-54.7125 145,-46.1124"/>
<polygon fill="black" stroke="black" points="148.5,-46.1043 145,-36.1043 141.5,-46.1044 148.5,-46.1043"/>
</g>
<!-- object -->
<g id="node5" class="node"><title>object</title>
<g id="a_node5"><a xlink:href="../PsyllaReference_Types.xhtml#PsyllaReference_Types_Details_object" xlink:title="object" target="_parent">
<polygon fill="linen" stroke="black" points="179,-252 123,-252 123,-216 185,-216 185,-246 179,-252"/>
<polyline fill="none" stroke="black" points="179,-252 179,-246 "/>
<polyline fill="none" stroke="black" points="185,-246 179,-246 "/>
<text text-anchor="middle" x="154" y="-230.3" font-family="monospace" font-size="14.00">object</text>
</a>
</g>
</g>
<!-- object&#45;&gt;appendable -->
<g id="edge4" class="edge"><title>object&#45;&gt;appendable</title>
<path fill="none" stroke="black" d="M131.586,-215.923C119.791,-206.224 105.617,-193.371 95,-180 79.6593,-160.68 66.4552,-135.905 57.632,-117.403"/>
<polygon fill="black" stroke="black" points="60.6993,-115.698 53.3124,-108.103 54.3506,-118.646 60.6993,-115.698"/>
</g>
<!-- object&#45;&gt;indexed -->
<g id="edge8" class="edge"><title>object&#45;&gt;indexed</title>
<path fill="none" stroke="black" d="M130.695,-215.819C120.099,-206.538 108.68,-194.094 103,-180 97.0195,-165.16 97.7388,-159.11 103,-144 106.532,-133.855 112.905,-124.191 119.637,-115.961"/>
<polygon fill="black" stroke="black" points="122.44,-118.072 126.396,-108.244 117.174,-113.46 122.44,-118.072"/>
</g>
<!-- clearable -->
<g id="node6" class="node"><title>clearable</title>
<g id="a_node6"><a xlink:href="../PsyllaReference_Types.xhtml#PsyllaReference_Types_Details_clearable" xlink:title="clearable" target="_parent">
<polygon fill="linen" stroke="black" points="190,-180 112,-180 112,-144 196,-144 196,-174 190,-180"/>
<polyline fill="none" stroke="black" points="190,-180 190,-174 "/>
<polyline fill="none" stroke="black" points="196,-174 190,-174 "/>
<text text-anchor="middle" x="154" y="-158.3" font-family="monospace" font-size="14.00">clearable</text>
</a>
</g>
</g>
<!-- object&#45;&gt;clearable -->
<g id="edge9" class="edge"><title>object&#45;&gt;clearable</title>
<path fill="none" stroke="black" d="M154,-215.697C154,-207.983 154,-198.712 154,-190.112"/>
<polygon fill="black" stroke="black" points="157.5,-190.104 154,-180.104 150.5,-190.104 157.5,-190.104"/>
</g>
<!-- iterable -->
<g id="node7" class="node"><title>iterable</title>
<g id="a_node7"><a xlink:href="../PsyllaReference_Types.xhtml#PsyllaReference_Types_Details_iterable" xlink:title="iterable" target="_parent">
<polygon fill="linen" stroke="black" points="285.5,-180 214.5,-180 214.5,-144 291.5,-144 291.5,-174 285.5,-180"/>
<polyline fill="none" stroke="black" points="285.5,-180 285.5,-174 "/>
<polyline fill="none" stroke="black" points="291.5,-174 285.5,-174 "/>
<text text-anchor="middle" x="253" y="-158.3" font-family="monospace" font-size="14.00">iterable</text>
</a>
</g>
</g>
<!-- object&#45;&gt;iterable -->
<g id="edge10" class="edge"><title>object&#45;&gt;iterable</title>
<path fill="none" stroke="black" d="M178.218,-215.876C190.923,-206.893 206.664,-195.763 220.423,-186.034"/>
<polygon fill="black" stroke="black" points="222.544,-188.821 228.689,-180.19 218.503,-183.105 222.544,-188.821"/>
</g>
<!-- lengthy -->
<g id="node8" class="node"><title>lengthy</title>
<g id="a_node8"><a xlink:href="../PsyllaReference_Types.xhtml#PsyllaReference_Types_Details_lengthy" xlink:title="lengthy" target="_parent">
<polygon fill="linen" stroke="black" points="372.5,-180 309.5,-180 309.5,-144 378.5,-144 378.5,-174 372.5,-180"/>
<polyline fill="none" stroke="black" points="372.5,-180 372.5,-174 "/>
<polyline fill="none" stroke="black" points="378.5,-174 372.5,-174 "/>
<text text-anchor="middle" x="344" y="-158.3" font-family="monospace" font-size="14.00">lengthy</text>
</a>
</g>
</g>
<!-- object&#45;&gt;lengthy -->
<g id="edge11" class="edge"><title>object&#45;&gt;lengthy</title>
<path fill="none" stroke="black" d="M185.073,-222.106C212.915,-212.277 255.085,-197.223 299.739,-180.431"/>
<polygon fill="black" stroke="black" points="301.181,-183.628 309.301,-176.823 298.71,-177.079 301.181,-183.628"/>
</g>
<!-- clearable&#45;&gt;container -->
<g id="edge5" class="edge"><title>clearable&#45;&gt;container</title>
<path fill="none" stroke="black" d="M176.742,-143.697C188.44,-134.796 202.861,-123.823 215.51,-114.199"/>
<polygon fill="black" stroke="black" points="217.681,-116.945 223.52,-108.104 213.442,-111.374 217.681,-116.945"/>
</g>
<!-- iterable&#45;&gt;container -->
<g id="edge6" class="edge"><title>iterable&#45;&gt;container</title>
<path fill="none" stroke="black" d="M251.27,-143.697C250.498,-135.983 249.571,-126.712 248.711,-118.112"/>
<polygon fill="black" stroke="black" points="252.188,-117.706 247.71,-108.104 245.223,-118.403 252.188,-117.706"/>
</g>
<!-- lengthy&#45;&gt;container -->
<g id="edge7" class="edge"><title>lengthy&#45;&gt;container</title>
<path fill="none" stroke="black" d="M320.027,-143.876C307.45,-134.893 291.868,-123.763 278.248,-114.034"/>
<polygon fill="black" stroke="black" points="280.237,-111.154 270.066,-108.19 276.169,-116.85 280.237,-111.154"/>
</g>
</g>
</svg>
