<?xml version="1.0" encoding="UTF-8" standalone="no"?>
<!DOCTYPE svg PUBLIC "-//W3C//DTD SVG 1.1//EN"
 "http://www.w3.org/Graphics/SVG/1.1/DTD/svg11.dtd">
<!-- Generated by graphviz version 2.38.0 (20140413.2041)
 -->
<!-- Title: output Pages: 1 -->
<svg width="241pt" height="157pt"
 viewBox="0.00 0.00 289.50 188.00" xmlns="http://www.w3.org/2000/svg" xmlns:xlink="http://www.w3.org/1999/xlink">
<g id="graph0" class="graph" transform="scale(0.833333 0.833333) rotate(0) translate(4 184)">
<title>output</title>
<polygon fill="none" stroke="none" points="-4,4 -4,-184 285.5,-184 285.5,4 -4,4"/>
<!-- closeable -->
<g id="node1" class="node"><title>closeable</title>
<g id="a_node1"><a xlink:href="../PsyllaReference_Types.xhtml#PsyllaReference_Types_Details_closeable" xlink:title="closeable" target="_parent">
<polygon fill="linen" stroke="black" points="78,-108 7.10543e-15,-108 7.10543e-15,-72 84,-72 84,-102 78,-108"/>
<polyline fill="none" stroke="black" points="78,-108 78,-102 "/>
<polyline fill="none" stroke="black" points="84,-102 78,-102 "/>
<text text-anchor="middle" x="42" y="-86.3" font-family="monospace" font-size="14.00">closeable</text>
</a>
</g>
</g>
<!-- output -->
<g id="node4" class="node"><title>output</title>
<g id="a_node4"><a xlink:href="../PsyllaReference_Types.xhtml#PsyllaReference_Types_Details_output" xlink:title="output" target="_parent">
<polygon fill="wheat" stroke="black" points="169,-36 113,-36 113,-0 175,-0 175,-30 169,-36"/>
<polyline fill="none" stroke="black" points="169,-36 169,-30 "/>
<polyline fill="none" stroke="black" points="175,-30 169,-30 "/>
<text text-anchor="middle" x="144" y="-14.3" font-family="monospace" font-size="14.00">output</text>
</a>
</g>
</g>
<!-- closeable&#45;&gt;output -->
<g id="edge1" class="edge"><title>closeable&#45;&gt;output</title>
<path fill="none" stroke="black" d="M66.952,-71.8761C80.0415,-62.8931 96.2603,-51.7625 110.436,-42.0341"/>
<polygon fill="black" stroke="black" points="112.687,-44.734 118.952,-36.1898 108.726,-38.9624 112.687,-44.734"/>
</g>
<!-- flushable -->
<g id="node2" class="node"><title>flushable</title>
<g id="a_node2"><a xlink:href="../PsyllaReference_Types.xhtml#PsyllaReference_Types_Details_flushable" xlink:title="flushable" target="_parent">
<polygon fill="linen" stroke="black" points="180,-108 102,-108 102,-72 186,-72 186,-102 180,-108"/>
<polyline fill="none" stroke="black" points="180,-108 180,-102 "/>
<polyline fill="none" stroke="black" points="186,-102 180,-102 "/>
<text text-anchor="middle" x="144" y="-86.3" font-family="monospace" font-size="14.00">flushable</text>
</a>
</g>
</g>
<!-- flushable&#45;&gt;output -->
<g id="edge2" class="edge"><title>flushable&#45;&gt;output</title>
<path fill="none" stroke="black" d="M144,-71.6966C144,-63.9827 144,-54.7125 144,-46.1124"/>
<polygon fill="black" stroke="black" points="147.5,-46.1043 144,-36.1043 140.5,-46.1044 147.5,-46.1043"/>
</g>
<!-- writable -->
<g id="node3" class="node"><title>writable</title>
<g id="a_node3"><a xlink:href="../PsyllaReference_Types.xhtml#PsyllaReference_Types_Details_writable" xlink:title="writable" target="_parent">
<polygon fill="linen" stroke="black" points="275.5,-108 204.5,-108 204.5,-72 281.5,-72 281.5,-102 275.5,-108"/>
<polyline fill="none" stroke="black" points="275.5,-108 275.5,-102 "/>
<polyline fill="none" stroke="black" points="281.5,-102 275.5,-102 "/>
<text text-anchor="middle" x="243" y="-86.3" font-family="monospace" font-size="14.00">writable</text>
</a>
</g>
</g>
<!-- writable&#45;&gt;output -->
<g id="edge3" class="edge"><title>writable&#45;&gt;output</title>
<path fill="none" stroke="black" d="M218.782,-71.8761C206.077,-62.8931 190.336,-51.7625 176.577,-42.0341"/>
<polygon fill="black" stroke="black" points="178.497,-39.1053 168.311,-36.1898 174.456,-44.8209 178.497,-39.1053"/>
</g>
<!-- object -->
<g id="node5" class="node"><title>object</title>
<g id="a_node5"><a xlink:href="../PsyllaReference_Types.xhtml#PsyllaReference_Types_Details_object" xlink:title="object" target="_parent">
<polygon fill="linen" stroke="black" points="169,-180 113,-180 113,-144 175,-144 175,-174 169,-180"/>
<polyline fill="none" stroke="black" points="169,-180 169,-174 "/>
<polyline fill="none" stroke="black" points="175,-174 169,-174 "/>
<text text-anchor="middle" x="144" y="-158.3" font-family="monospace" font-size="14.00">object</text>
</a>
</g>
</g>
<!-- object&#45;&gt;closeable -->
<g id="edge4" class="edge"><title>object&#45;&gt;closeable</title>
<path fill="none" stroke="black" d="M119.048,-143.876C105.958,-134.893 89.7397,-123.763 75.564,-114.034"/>
<polygon fill="black" stroke="black" points="77.2735,-110.962 67.0479,-108.19 73.3126,-116.734 77.2735,-110.962"/>
</g>
<!-- object&#45;&gt;flushable -->
<g id="edge5" class="edge"><title>object&#45;&gt;flushable</title>
<path fill="none" stroke="black" d="M144,-143.697C144,-135.983 144,-126.712 144,-118.112"/>
<polygon fill="black" stroke="black" points="147.5,-118.104 144,-108.104 140.5,-118.104 147.5,-118.104"/>
</g>
<!-- object&#45;&gt;writable -->
<g id="edge6" class="edge"><title>object&#45;&gt;writable</title>
<path fill="none" stroke="black" d="M168.218,-143.876C180.923,-134.893 196.664,-123.763 210.423,-114.034"/>
<polygon fill="black" stroke="black" points="212.544,-116.821 218.689,-108.19 208.503,-111.105 212.544,-116.821"/>
</g>
</g>
</svg>
