<?xml version="1.0" encoding="UTF-8" standalone="no"?>
<!DOCTYPE svg PUBLIC "-//W3C//DTD SVG 1.1//EN"
 "http://www.w3.org/Graphics/SVG/1.1/DTD/svg11.dtd">
<!-- Generated by graphviz version 2.38.0 (20140413.2041)
 -->
<!-- Title: realnumeric Pages: 1 -->
<svg width="189pt" height="277pt"
 viewBox="0.00 0.00 227.00 332.00" xmlns="http://www.w3.org/2000/svg" xmlns:xlink="http://www.w3.org/1999/xlink">
<g id="graph0" class="graph" transform="scale(0.833333 0.833333) rotate(0) translate(4 328)">
<title>realnumeric</title>
<polygon fill="none" stroke="none" points="-4,4 -4,-328 223,-328 223,4 -4,4"/>
<!-- numeric -->
<g id="node1" class="node"><title>numeric</title>
<g id="a_node1"><a xlink:href="../PsyllaReference_Types.xhtml#PsyllaReference_Types_Details_numeric" xlink:title="numeric" target="_parent">
<polygon fill="linen" stroke="black" points="122.5,-108 59.5,-108 59.5,-72 128.5,-72 128.5,-102 122.5,-108"/>
<polyline fill="none" stroke="black" points="122.5,-108 122.5,-102 "/>
<polyline fill="none" stroke="black" points="128.5,-102 122.5,-102 "/>
<text text-anchor="middle" x="94" y="-86.3" font-family="monospace" font-size="14.00">numeric</text>
</a>
</g>
</g>
<!-- realnumeric -->
<g id="node3" class="node"><title>realnumeric</title>
<g id="a_node3"><a xlink:href="../PsyllaReference_Types.xhtml#PsyllaReference_Types_Details_realnumeric" xlink:title="realnumeric" target="_parent">
<polygon fill="wheat" stroke="black" points="105.5,-36 12.5,-36 12.5,-0 111.5,-0 111.5,-30 105.5,-36"/>
<polyline fill="none" stroke="black" points="105.5,-36 105.5,-30 "/>
<polyline fill="none" stroke="black" points="111.5,-30 105.5,-30 "/>
<text text-anchor="middle" x="62" y="-14.3" font-family="monospace" font-size="14.00">realnumeric</text>
</a>
</g>
</g>
<!-- numeric&#45;&gt;realnumeric -->
<g id="edge1" class="edge"><title>numeric&#45;&gt;realnumeric</title>
<path fill="none" stroke="black" d="M86.0899,-71.6966C82.4473,-63.7284 78.0455,-54.0995 74.0065,-45.2641"/>
<polygon fill="black" stroke="black" points="77.1599,-43.7439 69.8191,-36.1043 70.7936,-46.6543 77.1599,-43.7439"/>
</g>
<!-- scalar -->
<g id="node2" class="node"><title>scalar</title>
<g id="a_node2"><a xlink:href="../PsyllaReference_Types.xhtml#PsyllaReference_Types_Details_scalar" xlink:title="scalar" target="_parent">
<polygon fill="linen" stroke="black" points="56,-180 3.55271e-15,-180 3.55271e-15,-144 62,-144 62,-174 56,-180"/>
<polyline fill="none" stroke="black" points="56,-180 56,-174 "/>
<polyline fill="none" stroke="black" points="62,-174 56,-174 "/>
<text text-anchor="middle" x="31" y="-158.3" font-family="monospace" font-size="14.00">scalar</text>
</a>
</g>
</g>
<!-- scalar&#45;&gt;realnumeric -->
<g id="edge2" class="edge"><title>scalar&#45;&gt;realnumeric</title>
<path fill="none" stroke="black" d="M34.58,-143.925C38.3538,-125.998 44.502,-96.9978 50,-72 51.8524,-63.5778 53.9118,-54.413 55.7943,-46.1098"/>
<polygon fill="black" stroke="black" points="59.2491,-46.7011 58.0552,-36.1738 52.4236,-45.1479 59.2491,-46.7011"/>
</g>
<!-- arithmetic -->
<g id="node4" class="node"><title>arithmetic</title>
<g id="a_node4"><a xlink:href="../PsyllaReference_Types.xhtml#PsyllaReference_Types_Details_arithmetic" xlink:title="arithmetic" target="_parent">
<polygon fill="linen" stroke="black" points="213,-180 127,-180 127,-144 219,-144 219,-174 213,-180"/>
<polyline fill="none" stroke="black" points="213,-180 213,-174 "/>
<polyline fill="none" stroke="black" points="219,-174 213,-174 "/>
<text text-anchor="middle" x="173" y="-158.3" font-family="monospace" font-size="14.00">arithmetic</text>
</a>
</g>
</g>
<!-- arithmetic&#45;&gt;numeric -->
<g id="edge3" class="edge"><title>arithmetic&#45;&gt;numeric</title>
<path fill="none" stroke="black" d="M153.472,-143.697C143.618,-134.965 131.514,-124.24 120.804,-114.75"/>
<polygon fill="black" stroke="black" points="123.109,-112.117 113.303,-108.104 118.467,-117.356 123.109,-112.117"/>
</g>
<!-- atomic -->
<g id="node5" class="node"><title>atomic</title>
<g id="a_node5"><a xlink:href="../PsyllaReference_Types.xhtml#PsyllaReference_Types_Details_atomic" xlink:title="atomic" target="_parent">
<polygon fill="linen" stroke="black" points="115,-252 59,-252 59,-216 121,-216 121,-246 115,-252"/>
<polyline fill="none" stroke="black" points="115,-252 115,-246 "/>
<polyline fill="none" stroke="black" points="121,-246 115,-246 "/>
<text text-anchor="middle" x="90" y="-230.3" font-family="monospace" font-size="14.00">atomic</text>
</a>
</g>
</g>
<!-- atomic&#45;&gt;numeric -->
<g id="edge4" class="edge"><title>atomic&#45;&gt;numeric</title>
<path fill="none" stroke="black" d="M90.4825,-215.871C91.1642,-191.67 92.4166,-147.211 93.2284,-118.393"/>
<polygon fill="black" stroke="black" points="96.7327,-118.284 93.5158,-108.189 89.7355,-118.087 96.7327,-118.284"/>
</g>
<!-- object -->
<g id="node6" class="node"><title>object</title>
<g id="a_node6"><a xlink:href="../PsyllaReference_Types.xhtml#PsyllaReference_Types_Details_object" xlink:title="object" target="_parent">
<polygon fill="linen" stroke="black" points="115,-324 59,-324 59,-288 121,-288 121,-318 115,-324"/>
<polyline fill="none" stroke="black" points="115,-324 115,-318 "/>
<polyline fill="none" stroke="black" points="121,-318 115,-318 "/>
<text text-anchor="middle" x="90" y="-302.3" font-family="monospace" font-size="14.00">object</text>
</a>
</g>
</g>
<!-- object&#45;&gt;scalar -->
<g id="edge5" class="edge"><title>object&#45;&gt;scalar</title>
<path fill="none" stroke="black" d="M73.7993,-287.629C65.5088,-277.844 55.9384,-265.003 50,-252 41.0016,-232.297 36.192,-208.173 33.6654,-190.014"/>
<polygon fill="black" stroke="black" points="37.1384,-189.579 32.4272,-180.09 30.1923,-190.446 37.1384,-189.579"/>
</g>
<!-- object&#45;&gt;atomic -->
<g id="edge7" class="edge"><title>object&#45;&gt;atomic</title>
<path fill="none" stroke="black" d="M90,-287.697C90,-279.983 90,-270.712 90,-262.112"/>
<polygon fill="black" stroke="black" points="93.5001,-262.104 90,-252.104 86.5001,-262.104 93.5001,-262.104"/>
</g>
<!-- additive -->
<g id="node7" class="node"><title>additive</title>
<g id="a_node7"><a xlink:href="../PsyllaReference_Types.xhtml#PsyllaReference_Types_Details_additive" xlink:title="additive" target="_parent">
<polygon fill="linen" stroke="black" points="210.5,-252 139.5,-252 139.5,-216 216.5,-216 216.5,-246 210.5,-252"/>
<polyline fill="none" stroke="black" points="210.5,-252 210.5,-246 "/>
<polyline fill="none" stroke="black" points="216.5,-246 210.5,-246 "/>
<text text-anchor="middle" x="178" y="-230.3" font-family="monospace" font-size="14.00">additive</text>
</a>
</g>
</g>
<!-- object&#45;&gt;additive -->
<g id="edge8" class="edge"><title>object&#45;&gt;additive</title>
<path fill="none" stroke="black" d="M111.753,-287.697C122.836,-278.881 136.474,-268.032 148.49,-258.474"/>
<polygon fill="black" stroke="black" points="150.85,-261.069 156.497,-252.104 146.493,-255.59 150.85,-261.069"/>
</g>
<!-- additive&#45;&gt;arithmetic -->
<g id="edge6" class="edge"><title>additive&#45;&gt;arithmetic</title>
<path fill="none" stroke="black" d="M176.764,-215.697C176.213,-207.983 175.551,-198.712 174.937,-190.112"/>
<polygon fill="black" stroke="black" points="178.425,-189.83 174.222,-180.104 171.443,-190.328 178.425,-189.83"/>
</g>
</g>
</svg>
