<?xml version="1.0" encoding="UTF-8" standalone="no"?>
<!DOCTYPE svg PUBLIC "-//W3C//DTD SVG 1.1//EN"
 "http://www.w3.org/Graphics/SVG/1.1/DTD/svg11.dtd">
<!-- Generated by graphviz version 2.38.0 (20140413.2041)
 -->
<!-- Title: bitwise Pages: 1 -->
<svg width="64pt" height="157pt"
 viewBox="0.00 0.00 77.00 188.00" xmlns="http://www.w3.org/2000/svg" xmlns:xlink="http://www.w3.org/1999/xlink">
<g id="graph0" class="graph" transform="scale(0.833333 0.833333) rotate(0) translate(4 184)">
<title>bitwise</title>
<polygon fill="none" stroke="none" points="-4,4 -4,-184 73,-184 73,4 -4,4"/>
<!-- logical -->
<g id="node1" class="node"><title>logical</title>
<g id="a_node1"><a xlink:href="../PsyllaReference_Types.xhtml#PsyllaReference_Types_Details_logical" xlink:title="logical" target="_parent">
<polygon fill="linen" stroke="black" points="63,-108 0,-108 0,-72 69,-72 69,-102 63,-108"/>
<polyline fill="none" stroke="black" points="63,-108 63,-102 "/>
<polyline fill="none" stroke="black" points="69,-102 63,-102 "/>
<text text-anchor="middle" x="34.5" y="-86.3" font-family="monospace" font-size="14.00">logical</text>
</a>
</g>
</g>
<!-- bitwise -->
<g id="node2" class="node"><title>bitwise</title>
<g id="a_node2"><a xlink:href="../PsyllaReference_Types.xhtml#PsyllaReference_Types_Details_bitwise" xlink:title="bitwise" target="_parent">
<polygon fill="wheat" stroke="black" points="63,-36 0,-36 0,-0 69,-0 69,-30 63,-36"/>
<polyline fill="none" stroke="black" points="63,-36 63,-30 "/>
<polyline fill="none" stroke="black" points="69,-30 63,-30 "/>
<text text-anchor="middle" x="34.5" y="-14.3" font-family="monospace" font-size="14.00">bitwise</text>
</a>
</g>
</g>
<!-- logical&#45;&gt;bitwise -->
<g id="edge1" class="edge"><title>logical&#45;&gt;bitwise</title>
<path fill="none" stroke="black" d="M34.5,-71.6966C34.5,-63.9827 34.5,-54.7125 34.5,-46.1124"/>
<polygon fill="black" stroke="black" points="38.0001,-46.1043 34.5,-36.1043 31.0001,-46.1044 38.0001,-46.1043"/>
</g>
<!-- object -->
<g id="node3" class="node"><title>object</title>
<g id="a_node3"><a xlink:href="../PsyllaReference_Types.xhtml#PsyllaReference_Types_Details_object" xlink:title="object" target="_parent">
<polygon fill="linen" stroke="black" points="59.5,-180 3.5,-180 3.5,-144 65.5,-144 65.5,-174 59.5,-180"/>
<polyline fill="none" stroke="black" points="59.5,-180 59.5,-174 "/>
<polyline fill="none" stroke="black" points="65.5,-174 59.5,-174 "/>
<text text-anchor="middle" x="34.5" y="-158.3" font-family="monospace" font-size="14.00">object</text>
</a>
</g>
</g>
<!-- object&#45;&gt;logical -->
<g id="edge2" class="edge"><title>object&#45;&gt;logical</title>
<path fill="none" stroke="black" d="M34.5,-143.697C34.5,-135.983 34.5,-126.712 34.5,-118.112"/>
<polygon fill="black" stroke="black" points="38.0001,-118.104 34.5,-108.104 31.0001,-118.104 38.0001,-118.104"/>
</g>
</g>
</svg>
