<?xml version="1.0" encoding="UTF-8" standalone="no"?>
<!DOCTYPE svg PUBLIC "-//W3C//DTD SVG 1.1//EN"
 "http://www.w3.org/Graphics/SVG/1.1/DTD/svg11.dtd">
<!-- Generated by graphviz version 2.38.0 (20140413.2041)
 -->
<!-- Title: set Pages: 1 -->
<svg width="277pt" height="277pt"
 viewBox="0.00 0.00 332.50 332.00" xmlns="http://www.w3.org/2000/svg" xmlns:xlink="http://www.w3.org/1999/xlink">
<g id="graph0" class="graph" transform="scale(0.833333 0.833333) rotate(0) translate(4 328)">
<title>set</title>
<polygon fill="none" stroke="none" points="-4,4 -4,-328 328.5,-328 328.5,4 -4,4"/>
<!-- setlike -->
<g id="node1" class="node"><title>setlike</title>
<g id="a_node1"><a xlink:href="../PsyllaReference_Types.xhtml#PsyllaReference_Types_Details_setlike" xlink:title="setlike" target="_parent">
<polygon fill="linen" stroke="black" points="142.5,-108 79.5,-108 79.5,-72 148.5,-72 148.5,-102 142.5,-108"/>
<polyline fill="none" stroke="black" points="142.5,-108 142.5,-102 "/>
<polyline fill="none" stroke="black" points="148.5,-102 142.5,-102 "/>
<text text-anchor="middle" x="114" y="-86.3" font-family="monospace" font-size="14.00">setlike</text>
</a>
</g>
</g>
<!-- set -->
<g id="node2" class="node"><title>set</title>
<g id="a_node2"><a xlink:href="../PsyllaReference_Types.xhtml#PsyllaReference_Types_Details_set" xlink:title="set" target="_parent">
<polygon fill="wheat" stroke="black" points="135,-36 87,-36 87,-0 141,-0 141,-30 135,-36"/>
<polyline fill="none" stroke="black" points="135,-36 135,-30 "/>
<polyline fill="none" stroke="black" points="141,-30 135,-30 "/>
<text text-anchor="middle" x="114" y="-14.3" font-family="monospace" font-size="14.00">set</text>
</a>
</g>
</g>
<!-- setlike&#45;&gt;set -->
<g id="edge1" class="edge"><title>setlike&#45;&gt;set</title>
<path fill="none" stroke="black" d="M114,-71.6966C114,-63.9827 114,-54.7125 114,-46.1124"/>
<polygon fill="black" stroke="black" points="117.5,-46.1043 114,-36.1043 110.5,-46.1044 117.5,-46.1043"/>
</g>
<!-- appendable -->
<g id="node3" class="node"><title>appendable</title>
<g id="a_node3"><a xlink:href="../PsyllaReference_Types.xhtml#PsyllaReference_Types_Details_appendable" xlink:title="appendable" target="_parent">
<polygon fill="linen" stroke="black" points="86,-180 0,-180 0,-144 92,-144 92,-174 86,-180"/>
<polyline fill="none" stroke="black" points="86,-180 86,-174 "/>
<polyline fill="none" stroke="black" points="92,-174 86,-174 "/>
<text text-anchor="middle" x="46" y="-158.3" font-family="monospace" font-size="14.00">appendable</text>
</a>
</g>
</g>
<!-- appendable&#45;&gt;setlike -->
<g id="edge2" class="edge"><title>appendable&#45;&gt;setlike</title>
<path fill="none" stroke="black" d="M62.809,-143.697C71.126,-135.135 81.3054,-124.656 90.3899,-115.304"/>
<polygon fill="black" stroke="black" points="92.927,-117.716 97.3844,-108.104 87.906,-112.838 92.927,-117.716"/>
</g>
<!-- container -->
<g id="node4" class="node"><title>container</title>
<g id="a_node4"><a xlink:href="../PsyllaReference_Types.xhtml#PsyllaReference_Types_Details_container" xlink:title="container" target="_parent">
<polygon fill="linen" stroke="black" points="219,-180 141,-180 141,-144 225,-144 225,-174 219,-180"/>
<polyline fill="none" stroke="black" points="219,-180 219,-174 "/>
<polyline fill="none" stroke="black" points="225,-174 219,-174 "/>
<text text-anchor="middle" x="183" y="-158.3" font-family="monospace" font-size="14.00">container</text>
</a>
</g>
</g>
<!-- container&#45;&gt;setlike -->
<g id="edge3" class="edge"><title>container&#45;&gt;setlike</title>
<path fill="none" stroke="black" d="M165.944,-143.697C157.505,-135.135 147.175,-124.656 137.957,-115.304"/>
<polygon fill="black" stroke="black" points="140.373,-112.769 130.86,-108.104 135.387,-117.683 140.373,-112.769"/>
</g>
<!-- object -->
<g id="node5" class="node"><title>object</title>
<g id="a_node5"><a xlink:href="../PsyllaReference_Types.xhtml#PsyllaReference_Types_Details_object" xlink:title="object" target="_parent">
<polygon fill="linen" stroke="black" points="174,-324 118,-324 118,-288 180,-288 180,-318 174,-324"/>
<polyline fill="none" stroke="black" points="174,-324 174,-318 "/>
<polyline fill="none" stroke="black" points="180,-318 174,-318 "/>
<text text-anchor="middle" x="149" y="-302.3" font-family="monospace" font-size="14.00">object</text>
</a>
</g>
</g>
<!-- object&#45;&gt;appendable -->
<g id="edge4" class="edge"><title>object&#45;&gt;appendable</title>
<path fill="none" stroke="black" d="M117.898,-297.528C94.591,-290.145 64.2034,-276.327 49,-252 37.5772,-233.722 37.7061,-208.957 40.1926,-190.191"/>
<polygon fill="black" stroke="black" points="43.6675,-190.627 41.8085,-180.196 36.7572,-189.509 43.6675,-190.627"/>
</g>
<!-- clearable -->
<g id="node6" class="node"><title>clearable</title>
<g id="a_node6"><a xlink:href="../PsyllaReference_Types.xhtml#PsyllaReference_Types_Details_clearable" xlink:title="clearable" target="_parent">
<polygon fill="linen" stroke="black" points="136,-252 58,-252 58,-216 142,-216 142,-246 136,-252"/>
<polyline fill="none" stroke="black" points="136,-252 136,-246 "/>
<polyline fill="none" stroke="black" points="142,-246 136,-246 "/>
<text text-anchor="middle" x="100" y="-230.3" font-family="monospace" font-size="14.00">clearable</text>
</a>
</g>
</g>
<!-- object&#45;&gt;clearable -->
<g id="edge8" class="edge"><title>object&#45;&gt;clearable</title>
<path fill="none" stroke="black" d="M136.888,-287.697C131.132,-279.474 124.138,-269.483 117.794,-260.421"/>
<polygon fill="black" stroke="black" points="120.575,-258.29 111.973,-252.104 114.84,-262.304 120.575,-258.29"/>
</g>
<!-- iterable -->
<g id="node7" class="node"><title>iterable</title>
<g id="a_node7"><a xlink:href="../PsyllaReference_Types.xhtml#PsyllaReference_Types_Details_iterable" xlink:title="iterable" target="_parent">
<polygon fill="linen" stroke="black" points="231.5,-252 160.5,-252 160.5,-216 237.5,-216 237.5,-246 231.5,-252"/>
<polyline fill="none" stroke="black" points="231.5,-252 231.5,-246 "/>
<polyline fill="none" stroke="black" points="237.5,-246 231.5,-246 "/>
<text text-anchor="middle" x="199" y="-230.3" font-family="monospace" font-size="14.00">iterable</text>
</a>
</g>
</g>
<!-- object&#45;&gt;iterable -->
<g id="edge9" class="edge"><title>object&#45;&gt;iterable</title>
<path fill="none" stroke="black" d="M161.36,-287.697C167.233,-279.474 174.369,-269.483 180.842,-260.421"/>
<polygon fill="black" stroke="black" points="183.818,-262.276 186.783,-252.104 178.122,-258.207 183.818,-262.276"/>
</g>
<!-- lengthy -->
<g id="node8" class="node"><title>lengthy</title>
<g id="a_node8"><a xlink:href="../PsyllaReference_Types.xhtml#PsyllaReference_Types_Details_lengthy" xlink:title="lengthy" target="_parent">
<polygon fill="linen" stroke="black" points="318.5,-252 255.5,-252 255.5,-216 324.5,-216 324.5,-246 318.5,-252"/>
<polyline fill="none" stroke="black" points="318.5,-252 318.5,-246 "/>
<polyline fill="none" stroke="black" points="324.5,-246 318.5,-246 "/>
<text text-anchor="middle" x="290" y="-230.3" font-family="monospace" font-size="14.00">lengthy</text>
</a>
</g>
</g>
<!-- object&#45;&gt;lengthy -->
<g id="edge10" class="edge"><title>object&#45;&gt;lengthy</title>
<path fill="none" stroke="black" d="M180.292,-289.465C199.728,-279.816 224.992,-267.273 246.376,-256.657"/>
<polygon fill="black" stroke="black" points="248.183,-259.668 255.584,-252.086 245.07,-253.398 248.183,-259.668"/>
</g>
<!-- clearable&#45;&gt;container -->
<g id="edge5" class="edge"><title>clearable&#45;&gt;container</title>
<path fill="none" stroke="black" d="M120.517,-215.697C130.869,-206.965 143.586,-196.24 154.839,-186.75"/>
<polygon fill="black" stroke="black" points="157.331,-189.227 162.719,-180.104 152.818,-183.876 157.331,-189.227"/>
</g>
<!-- iterable&#45;&gt;container -->
<g id="edge6" class="edge"><title>iterable&#45;&gt;container</title>
<path fill="none" stroke="black" d="M195.045,-215.697C193.282,-207.983 191.163,-198.712 189.197,-190.112"/>
<polygon fill="black" stroke="black" points="192.55,-189.073 186.91,-180.104 185.726,-190.633 192.55,-189.073"/>
</g>
<!-- lengthy&#45;&gt;container -->
<g id="edge7" class="edge"><title>lengthy&#45;&gt;container</title>
<path fill="none" stroke="black" d="M263.825,-215.876C249.964,-206.808 232.759,-195.552 217.789,-185.759"/>
<polygon fill="black" stroke="black" points="219.56,-182.735 209.276,-180.19 215.728,-188.593 219.56,-182.735"/>
</g>
</g>
</svg>
