<?xml version="1.0" encoding="UTF-8" standalone="no"?>
<!DOCTYPE svg PUBLIC "-//W3C//DTD SVG 1.1//EN"
 "http://www.w3.org/Graphics/SVG/1.1/DTD/svg11.dtd">
<!-- Generated by graphviz version 2.38.0 (20140413.2041)
 -->
<!-- Title: array Pages: 1 -->
<svg width="322pt" height="277pt"
 viewBox="0.00 0.00 386.50 332.00" xmlns="http://www.w3.org/2000/svg" xmlns:xlink="http://www.w3.org/1999/xlink">
<g id="graph0" class="graph" transform="scale(0.833333 0.833333) rotate(0) translate(4 328)">
<title>array</title>
<polygon fill="none" stroke="none" points="-4,4 -4,-328 382.5,-328 382.5,4 -4,4"/>
<!-- arraylike -->
<g id="node1" class="node"><title>arraylike</title>
<g id="a_node1"><a xlink:href="../PsyllaReference_Types.xhtml#PsyllaReference_Types_Details_arraylike" xlink:title="arraylike" target="_parent">
<polygon fill="linen" stroke="black" points="181,-108 103,-108 103,-72 187,-72 187,-102 181,-108"/>
<polyline fill="none" stroke="black" points="181,-108 181,-102 "/>
<polyline fill="none" stroke="black" points="187,-102 181,-102 "/>
<text text-anchor="middle" x="145" y="-86.3" font-family="monospace" font-size="14.00">arraylike</text>
</a>
</g>
</g>
<!-- array -->
<g id="node2" class="node"><title>array</title>
<g id="a_node2"><a xlink:href="../PsyllaReference_Types.xhtml#PsyllaReference_Types_Details_array" xlink:title="array" target="_parent">
<polygon fill="wheat" stroke="black" points="166,-36 118,-36 118,-0 172,-0 172,-30 166,-36"/>
<polyline fill="none" stroke="black" points="166,-36 166,-30 "/>
<polyline fill="none" stroke="black" points="172,-30 166,-30 "/>
<text text-anchor="middle" x="145" y="-14.3" font-family="monospace" font-size="14.00">array</text>
</a>
</g>
</g>
<!-- arraylike&#45;&gt;array -->
<g id="edge1" class="edge"><title>arraylike&#45;&gt;array</title>
<path fill="none" stroke="black" d="M145,-71.6966C145,-63.9827 145,-54.7125 145,-46.1124"/>
<polygon fill="black" stroke="black" points="148.5,-46.1043 145,-36.1043 141.5,-46.1044 148.5,-46.1043"/>
</g>
<!-- appendable -->
<g id="node3" class="node"><title>appendable</title>
<g id="a_node3"><a xlink:href="../PsyllaReference_Types.xhtml#PsyllaReference_Types_Details_appendable" xlink:title="appendable" target="_parent">
<polygon fill="linen" stroke="black" points="86,-180 0,-180 0,-144 92,-144 92,-174 86,-180"/>
<polyline fill="none" stroke="black" points="86,-180 86,-174 "/>
<polyline fill="none" stroke="black" points="92,-174 86,-174 "/>
<text text-anchor="middle" x="46" y="-158.3" font-family="monospace" font-size="14.00">appendable</text>
</a>
</g>
</g>
<!-- appendable&#45;&gt;arraylike -->
<g id="edge2" class="edge"><title>appendable&#45;&gt;arraylike</title>
<path fill="none" stroke="black" d="M70.2181,-143.876C82.9227,-134.893 98.6644,-123.763 112.423,-114.034"/>
<polygon fill="black" stroke="black" points="114.544,-116.821 120.689,-108.19 110.503,-111.105 114.544,-116.821"/>
</g>
<!-- container -->
<g id="node4" class="node"><title>container</title>
<g id="a_node4"><a xlink:href="../PsyllaReference_Types.xhtml#PsyllaReference_Types_Details_container" xlink:title="container" target="_parent">
<polygon fill="linen" stroke="black" points="282,-180 204,-180 204,-144 288,-144 288,-174 282,-180"/>
<polyline fill="none" stroke="black" points="282,-180 282,-174 "/>
<polyline fill="none" stroke="black" points="288,-174 282,-174 "/>
<text text-anchor="middle" x="246" y="-158.3" font-family="monospace" font-size="14.00">container</text>
</a>
</g>
</g>
<!-- container&#45;&gt;arraylike -->
<g id="edge3" class="edge"><title>container&#45;&gt;arraylike</title>
<path fill="none" stroke="black" d="M221.293,-143.876C208.331,-134.893 192.272,-123.763 178.235,-114.034"/>
<polygon fill="black" stroke="black" points="180.015,-111.009 169.802,-108.19 176.028,-116.763 180.015,-111.009"/>
</g>
<!-- indexed -->
<g id="node5" class="node"><title>indexed</title>
<g id="a_node5"><a xlink:href="../PsyllaReference_Types.xhtml#PsyllaReference_Types_Details_indexed" xlink:title="indexed" target="_parent">
<polygon fill="linen" stroke="black" points="173.5,-180 110.5,-180 110.5,-144 179.5,-144 179.5,-174 173.5,-180"/>
<polyline fill="none" stroke="black" points="173.5,-180 173.5,-174 "/>
<polyline fill="none" stroke="black" points="179.5,-174 173.5,-174 "/>
<text text-anchor="middle" x="145" y="-158.3" font-family="monospace" font-size="14.00">indexed</text>
</a>
</g>
</g>
<!-- indexed&#45;&gt;arraylike -->
<g id="edge4" class="edge"><title>indexed&#45;&gt;arraylike</title>
<path fill="none" stroke="black" d="M145,-143.697C145,-135.983 145,-126.712 145,-118.112"/>
<polygon fill="black" stroke="black" points="148.5,-118.104 145,-108.104 141.5,-118.104 148.5,-118.104"/>
</g>
<!-- object -->
<g id="node6" class="node"><title>object</title>
<g id="a_node6"><a xlink:href="../PsyllaReference_Types.xhtml#PsyllaReference_Types_Details_object" xlink:title="object" target="_parent">
<polygon fill="linen" stroke="black" points="179,-324 123,-324 123,-288 185,-288 185,-318 179,-324"/>
<polyline fill="none" stroke="black" points="179,-324 179,-318 "/>
<polyline fill="none" stroke="black" points="185,-318 179,-318 "/>
<text text-anchor="middle" x="154" y="-302.3" font-family="monospace" font-size="14.00">object</text>
</a>
</g>
</g>
<!-- object&#45;&gt;appendable -->
<g id="edge5" class="edge"><title>object&#45;&gt;appendable</title>
<path fill="none" stroke="black" d="M131.586,-287.923C119.791,-278.224 105.617,-265.371 95,-252 79.6593,-232.68 66.4552,-207.905 57.632,-189.403"/>
<polygon fill="black" stroke="black" points="60.6993,-187.698 53.3124,-180.103 54.3506,-190.646 60.6993,-187.698"/>
</g>
<!-- object&#45;&gt;indexed -->
<g id="edge9" class="edge"><title>object&#45;&gt;indexed</title>
<path fill="none" stroke="black" d="M130.695,-287.819C120.099,-278.538 108.68,-266.094 103,-252 97.0195,-237.16 97.7388,-231.11 103,-216 106.532,-205.855 112.905,-196.191 119.637,-187.961"/>
<polygon fill="black" stroke="black" points="122.44,-190.072 126.396,-180.244 117.174,-185.46 122.44,-190.072"/>
</g>
<!-- clearable -->
<g id="node7" class="node"><title>clearable</title>
<g id="a_node7"><a xlink:href="../PsyllaReference_Types.xhtml#PsyllaReference_Types_Details_clearable" xlink:title="clearable" target="_parent">
<polygon fill="linen" stroke="black" points="190,-252 112,-252 112,-216 196,-216 196,-246 190,-252"/>
<polyline fill="none" stroke="black" points="190,-252 190,-246 "/>
<polyline fill="none" stroke="black" points="196,-246 190,-246 "/>
<text text-anchor="middle" x="154" y="-230.3" font-family="monospace" font-size="14.00">clearable</text>
</a>
</g>
</g>
<!-- object&#45;&gt;clearable -->
<g id="edge10" class="edge"><title>object&#45;&gt;clearable</title>
<path fill="none" stroke="black" d="M154,-287.697C154,-279.983 154,-270.712 154,-262.112"/>
<polygon fill="black" stroke="black" points="157.5,-262.104 154,-252.104 150.5,-262.104 157.5,-262.104"/>
</g>
<!-- iterable -->
<g id="node8" class="node"><title>iterable</title>
<g id="a_node8"><a xlink:href="../PsyllaReference_Types.xhtml#PsyllaReference_Types_Details_iterable" xlink:title="iterable" target="_parent">
<polygon fill="linen" stroke="black" points="285.5,-252 214.5,-252 214.5,-216 291.5,-216 291.5,-246 285.5,-252"/>
<polyline fill="none" stroke="black" points="285.5,-252 285.5,-246 "/>
<polyline fill="none" stroke="black" points="291.5,-246 285.5,-246 "/>
<text text-anchor="middle" x="253" y="-230.3" font-family="monospace" font-size="14.00">iterable</text>
</a>
</g>
</g>
<!-- object&#45;&gt;iterable -->
<g id="edge11" class="edge"><title>object&#45;&gt;iterable</title>
<path fill="none" stroke="black" d="M178.218,-287.876C190.923,-278.893 206.664,-267.763 220.423,-258.034"/>
<polygon fill="black" stroke="black" points="222.544,-260.821 228.689,-252.19 218.503,-255.105 222.544,-260.821"/>
</g>
<!-- lengthy -->
<g id="node9" class="node"><title>lengthy</title>
<g id="a_node9"><a xlink:href="../PsyllaReference_Types.xhtml#PsyllaReference_Types_Details_lengthy" xlink:title="lengthy" target="_parent">
<polygon fill="linen" stroke="black" points="372.5,-252 309.5,-252 309.5,-216 378.5,-216 378.5,-246 372.5,-252"/>
<polyline fill="none" stroke="black" points="372.5,-252 372.5,-246 "/>
<polyline fill="none" stroke="black" points="378.5,-246 372.5,-246 "/>
<text text-anchor="middle" x="344" y="-230.3" font-family="monospace" font-size="14.00">lengthy</text>
</a>
</g>
</g>
<!-- object&#45;&gt;lengthy -->
<g id="edge12" class="edge"><title>object&#45;&gt;lengthy</title>
<path fill="none" stroke="black" d="M185.073,-294.106C212.915,-284.277 255.085,-269.223 299.739,-252.431"/>
<polygon fill="black" stroke="black" points="301.181,-255.628 309.301,-248.823 298.71,-249.079 301.181,-255.628"/>
</g>
<!-- clearable&#45;&gt;container -->
<g id="edge6" class="edge"><title>clearable&#45;&gt;container</title>
<path fill="none" stroke="black" d="M176.742,-215.697C188.44,-206.796 202.861,-195.823 215.51,-186.199"/>
<polygon fill="black" stroke="black" points="217.681,-188.945 223.52,-180.104 213.442,-183.374 217.681,-188.945"/>
</g>
<!-- iterable&#45;&gt;container -->
<g id="edge7" class="edge"><title>iterable&#45;&gt;container</title>
<path fill="none" stroke="black" d="M251.27,-215.697C250.498,-207.983 249.571,-198.712 248.711,-190.112"/>
<polygon fill="black" stroke="black" points="252.188,-189.706 247.71,-180.104 245.223,-190.403 252.188,-189.706"/>
</g>
<!-- lengthy&#45;&gt;container -->
<g id="edge8" class="edge"><title>lengthy&#45;&gt;container</title>
<path fill="none" stroke="black" d="M320.027,-215.876C307.45,-206.893 291.868,-195.763 278.248,-186.034"/>
<polygon fill="black" stroke="black" points="280.237,-183.154 270.066,-180.19 276.169,-188.85 280.237,-183.154"/>
</g>
</g>
</svg>
