<?xml version="1.0" encoding="UTF-8" standalone="no"?>
<!DOCTYPE svg PUBLIC "-//W3C//DTD SVG 1.1//EN"
 "http://www.w3.org/Graphics/SVG/1.1/DTD/svg11.dtd">
<!-- Generated by graphviz version 2.38.0 (20140413.2041)
 -->
<!-- Title: boolean Pages: 1 -->
<svg width="198pt" height="157pt"
 viewBox="0.00 0.00 238.00 188.00" xmlns="http://www.w3.org/2000/svg" xmlns:xlink="http://www.w3.org/1999/xlink">
<g id="graph0" class="graph" transform="scale(0.833333 0.833333) rotate(0) translate(4 184)">
<title>boolean</title>
<polygon fill="none" stroke="none" points="-4,4 -4,-184 234,-184 234,4 -4,4"/>
<!-- atomic -->
<g id="node1" class="node"><title>atomic</title>
<g id="a_node1"><a xlink:href="../PsyllaReference_Types.xhtml#PsyllaReference_Types_Details_atomic" xlink:title="atomic" target="_parent">
<polygon fill="linen" stroke="black" points="56,-108 3.55271e-15,-108 3.55271e-15,-72 62,-72 62,-102 56,-108"/>
<polyline fill="none" stroke="black" points="56,-108 56,-102 "/>
<polyline fill="none" stroke="black" points="62,-102 56,-102 "/>
<text text-anchor="middle" x="31" y="-86.3" font-family="monospace" font-size="14.00">atomic</text>
</a>
</g>
</g>
<!-- boolean -->
<g id="node4" class="node"><title>boolean</title>
<g id="a_node4"><a xlink:href="../PsyllaReference_Types.xhtml#PsyllaReference_Types_Details_boolean" xlink:title="boolean" target="_parent">
<polygon fill="wheat" stroke="black" points="143.5,-36 80.5,-36 80.5,-0 149.5,-0 149.5,-30 143.5,-36"/>
<polyline fill="none" stroke="black" points="143.5,-36 143.5,-30 "/>
<polyline fill="none" stroke="black" points="149.5,-30 143.5,-30 "/>
<text text-anchor="middle" x="115" y="-14.3" font-family="monospace" font-size="14.00">boolean</text>
</a>
</g>
</g>
<!-- atomic&#45;&gt;boolean -->
<g id="edge1" class="edge"><title>atomic&#45;&gt;boolean</title>
<path fill="none" stroke="black" d="M51.7641,-71.6966C62.2414,-62.9655 75.1114,-52.2405 86.4997,-42.7503"/>
<polygon fill="black" stroke="black" points="89.0332,-45.195 94.4748,-36.1043 84.5519,-39.8174 89.0332,-45.195"/>
</g>
<!-- logical -->
<g id="node2" class="node"><title>logical</title>
<g id="a_node2"><a xlink:href="../PsyllaReference_Types.xhtml#PsyllaReference_Types_Details_logical" xlink:title="logical" target="_parent">
<polygon fill="linen" stroke="black" points="143.5,-108 80.5,-108 80.5,-72 149.5,-72 149.5,-102 143.5,-108"/>
<polyline fill="none" stroke="black" points="143.5,-108 143.5,-102 "/>
<polyline fill="none" stroke="black" points="149.5,-102 143.5,-102 "/>
<text text-anchor="middle" x="115" y="-86.3" font-family="monospace" font-size="14.00">logical</text>
</a>
</g>
</g>
<!-- logical&#45;&gt;boolean -->
<g id="edge2" class="edge"><title>logical&#45;&gt;boolean</title>
<path fill="none" stroke="black" d="M115,-71.6966C115,-63.9827 115,-54.7125 115,-46.1124"/>
<polygon fill="black" stroke="black" points="118.5,-46.1043 115,-36.1043 111.5,-46.1044 118.5,-46.1043"/>
</g>
<!-- scalar -->
<g id="node3" class="node"><title>scalar</title>
<g id="a_node3"><a xlink:href="../PsyllaReference_Types.xhtml#PsyllaReference_Types_Details_scalar" xlink:title="scalar" target="_parent">
<polygon fill="linen" stroke="black" points="224,-108 168,-108 168,-72 230,-72 230,-102 224,-108"/>
<polyline fill="none" stroke="black" points="224,-108 224,-102 "/>
<polyline fill="none" stroke="black" points="230,-102 224,-102 "/>
<text text-anchor="middle" x="199" y="-86.3" font-family="monospace" font-size="14.00">scalar</text>
</a>
</g>
</g>
<!-- scalar&#45;&gt;boolean -->
<g id="edge3" class="edge"><title>scalar&#45;&gt;boolean</title>
<path fill="none" stroke="black" d="M178.236,-71.6966C167.759,-62.9655 154.889,-52.2405 143.5,-42.7503"/>
<polygon fill="black" stroke="black" points="145.448,-39.8174 135.525,-36.1043 140.967,-45.195 145.448,-39.8174"/>
</g>
<!-- object -->
<g id="node5" class="node"><title>object</title>
<g id="a_node5"><a xlink:href="../PsyllaReference_Types.xhtml#PsyllaReference_Types_Details_object" xlink:title="object" target="_parent">
<polygon fill="linen" stroke="black" points="140,-180 84,-180 84,-144 146,-144 146,-174 140,-180"/>
<polyline fill="none" stroke="black" points="140,-180 140,-174 "/>
<polyline fill="none" stroke="black" points="146,-174 140,-174 "/>
<text text-anchor="middle" x="115" y="-158.3" font-family="monospace" font-size="14.00">object</text>
</a>
</g>
</g>
<!-- object&#45;&gt;atomic -->
<g id="edge4" class="edge"><title>object&#45;&gt;atomic</title>
<path fill="none" stroke="black" d="M94.2359,-143.697C83.7586,-134.965 70.8886,-124.24 59.5003,-114.75"/>
<polygon fill="black" stroke="black" points="61.4481,-111.817 51.5252,-108.104 56.9668,-117.195 61.4481,-111.817"/>
</g>
<!-- object&#45;&gt;logical -->
<g id="edge5" class="edge"><title>object&#45;&gt;logical</title>
<path fill="none" stroke="black" d="M115,-143.697C115,-135.983 115,-126.712 115,-118.112"/>
<polygon fill="black" stroke="black" points="118.5,-118.104 115,-108.104 111.5,-118.104 118.5,-118.104"/>
</g>
<!-- object&#45;&gt;scalar -->
<g id="edge6" class="edge"><title>object&#45;&gt;scalar</title>
<path fill="none" stroke="black" d="M135.764,-143.697C146.241,-134.965 159.111,-124.24 170.5,-114.75"/>
<polygon fill="black" stroke="black" points="173.033,-117.195 178.475,-108.104 168.552,-111.817 173.033,-117.195"/>
</g>
</g>
</svg>
