<?xml version="1.0" encoding="UTF-8" standalone="no"?>
<!DOCTYPE svg PUBLIC "-//W3C//DTD SVG 1.1//EN"
 "http://www.w3.org/Graphics/SVG/1.1/DTD/svg11.dtd">
<!-- Generated by graphviz version 2.38.0 (20140413.2041)
 -->
<!-- Title: input Pages: 1 -->
<svg width="248pt" height="157pt"
 viewBox="0.00 0.00 298.00 188.00" xmlns="http://www.w3.org/2000/svg" xmlns:xlink="http://www.w3.org/1999/xlink">
<g id="graph0" class="graph" transform="scale(0.833333 0.833333) rotate(0) translate(4 184)">
<title>input</title>
<polygon fill="none" stroke="none" points="-4,4 -4,-184 294,-184 294,4 -4,4"/>
<!-- closeable -->
<g id="node1" class="node"><title>closeable</title>
<g id="a_node1"><a xlink:href="../PsyllaReference_Types.xhtml#PsyllaReference_Types_Details_closeable" xlink:title="closeable" target="_parent">
<polygon fill="linen" stroke="black" points="78,-108 7.10543e-15,-108 7.10543e-15,-72 84,-72 84,-102 78,-108"/>
<polyline fill="none" stroke="black" points="78,-108 78,-102 "/>
<polyline fill="none" stroke="black" points="84,-102 78,-102 "/>
<text text-anchor="middle" x="42" y="-86.3" font-family="monospace" font-size="14.00">closeable</text>
</a>
</g>
</g>
<!-- input -->
<g id="node4" class="node"><title>input</title>
<g id="a_node4"><a xlink:href="../PsyllaReference_Types.xhtml#PsyllaReference_Types_Details_input" xlink:title="input" target="_parent">
<polygon fill="wheat" stroke="black" points="162,-36 114,-36 114,-0 168,-0 168,-30 162,-36"/>
<polyline fill="none" stroke="black" points="162,-36 162,-30 "/>
<polyline fill="none" stroke="black" points="168,-30 162,-30 "/>
<text text-anchor="middle" x="141" y="-14.3" font-family="monospace" font-size="14.00">input</text>
</a>
</g>
</g>
<!-- closeable&#45;&gt;input -->
<g id="edge1" class="edge"><title>closeable&#45;&gt;input</title>
<path fill="none" stroke="black" d="M66.2181,-71.8761C78.9227,-62.8931 94.6644,-51.7625 108.423,-42.0341"/>
<polygon fill="black" stroke="black" points="110.544,-44.8209 116.689,-36.1898 106.503,-39.1053 110.544,-44.8209"/>
</g>
<!-- readable -->
<g id="node2" class="node"><title>readable</title>
<g id="a_node2"><a xlink:href="../PsyllaReference_Types.xhtml#PsyllaReference_Types_Details_readable" xlink:title="readable" target="_parent">
<polygon fill="linen" stroke="black" points="173.5,-108 102.5,-108 102.5,-72 179.5,-72 179.5,-102 173.5,-108"/>
<polyline fill="none" stroke="black" points="173.5,-108 173.5,-102 "/>
<polyline fill="none" stroke="black" points="179.5,-102 173.5,-102 "/>
<text text-anchor="middle" x="141" y="-86.3" font-family="monospace" font-size="14.00">readable</text>
</a>
</g>
</g>
<!-- readable&#45;&gt;input -->
<g id="edge2" class="edge"><title>readable&#45;&gt;input</title>
<path fill="none" stroke="black" d="M141,-71.6966C141,-63.9827 141,-54.7125 141,-46.1124"/>
<polygon fill="black" stroke="black" points="144.5,-46.1043 141,-36.1043 137.5,-46.1044 144.5,-46.1043"/>
</g>
<!-- resettable -->
<g id="node3" class="node"><title>resettable</title>
<g id="a_node3"><a xlink:href="../PsyllaReference_Types.xhtml#PsyllaReference_Types_Details_resettable" xlink:title="resettable" target="_parent">
<polygon fill="linen" stroke="black" points="284,-108 198,-108 198,-72 290,-72 290,-102 284,-108"/>
<polyline fill="none" stroke="black" points="284,-108 284,-102 "/>
<polyline fill="none" stroke="black" points="290,-102 284,-102 "/>
<text text-anchor="middle" x="244" y="-86.3" font-family="monospace" font-size="14.00">resettable</text>
</a>
</g>
</g>
<!-- resettable&#45;&gt;input -->
<g id="edge3" class="edge"><title>resettable&#45;&gt;input</title>
<path fill="none" stroke="black" d="M218.803,-71.8761C205.586,-62.8931 189.208,-51.7625 174.893,-42.0341"/>
<polygon fill="black" stroke="black" points="176.532,-38.9159 166.293,-36.1898 172.597,-44.7055 176.532,-38.9159"/>
</g>
<!-- object -->
<g id="node5" class="node"><title>object</title>
<g id="a_node5"><a xlink:href="../PsyllaReference_Types.xhtml#PsyllaReference_Types_Details_object" xlink:title="object" target="_parent">
<polygon fill="linen" stroke="black" points="166,-180 110,-180 110,-144 172,-144 172,-174 166,-180"/>
<polyline fill="none" stroke="black" points="166,-180 166,-174 "/>
<polyline fill="none" stroke="black" points="172,-174 166,-174 "/>
<text text-anchor="middle" x="141" y="-158.3" font-family="monospace" font-size="14.00">object</text>
</a>
</g>
</g>
<!-- object&#45;&gt;closeable -->
<g id="edge4" class="edge"><title>object&#45;&gt;closeable</title>
<path fill="none" stroke="black" d="M116.782,-143.876C104.077,-134.893 88.3356,-123.763 74.5768,-114.034"/>
<polygon fill="black" stroke="black" points="76.497,-111.105 66.3112,-108.19 72.4557,-116.821 76.497,-111.105"/>
</g>
<!-- object&#45;&gt;readable -->
<g id="edge5" class="edge"><title>object&#45;&gt;readable</title>
<path fill="none" stroke="black" d="M141,-143.697C141,-135.983 141,-126.712 141,-118.112"/>
<polygon fill="black" stroke="black" points="144.5,-118.104 141,-108.104 137.5,-118.104 144.5,-118.104"/>
</g>
<!-- object&#45;&gt;resettable -->
<g id="edge6" class="edge"><title>object&#45;&gt;resettable</title>
<path fill="none" stroke="black" d="M166.197,-143.876C179.414,-134.893 195.792,-123.763 210.107,-114.034"/>
<polygon fill="black" stroke="black" points="212.403,-116.705 218.707,-108.19 208.468,-110.916 212.403,-116.705"/>
</g>
</g>
</svg>
