<?xml version="1.0" encoding="UTF-8" standalone="no"?>
<!DOCTYPE svg PUBLIC "-//W3C//DTD SVG 1.1//EN"
 "http://www.w3.org/Graphics/SVG/1.1/DTD/svg11.dtd">
<!-- Generated by graphviz version 2.40.1 (20161225.0304)
 -->
<!-- Title: resetable Pages: 1 -->
<svg width="77pt" height="97pt"
 viewBox="0.00 0.00 92.00 116.00" xmlns="http://www.w3.org/2000/svg" xmlns:xlink="http://www.w3.org/1999/xlink">
<g id="graph0" class="graph" transform="scale(.8333 .8333) rotate(0) translate(4 112)">
<title>resetable</title>
<polygon fill="transparent" stroke="transparent" points="-4,4 -4,-112 88,-112 88,4 -4,4"/>
<!-- object -->
<g id="node1" class="node">
<title>object</title>
<g id="a_node1"><a xlink:href="../PsyllaReference_Types.xhtml#PsyllaReference_Types_Details_object" xlink:title="object" target="_parent">
<polygon fill="#faf0e6" stroke="#000000" points="67,-108 11,-108 11,-72 73,-72 73,-102 67,-108"/>
<polyline fill="none" stroke="#000000" points="67,-108 67,-102 "/>
<polyline fill="none" stroke="#000000" points="73,-102 67,-102 "/>
<text text-anchor="middle" x="42" y="-86.3" font-family="monospace" font-size="14.00" fill="#000000">object</text>
</a>
</g>
</g>
<!-- resetable -->
<g id="node2" class="node">
<title>resetable</title>
<g id="a_node2"><a xlink:href="../PsyllaReference_Types.xhtml#PsyllaReference_Types_Details_resetable" xlink:title="resetable" target="_parent">
<polygon fill="#f5deb3" stroke="#000000" points="78,-36 0,-36 0,0 84,0 84,-30 78,-36"/>
<polyline fill="none" stroke="#000000" points="78,-36 78,-30 "/>
<polyline fill="none" stroke="#000000" points="84,-30 78,-30 "/>
<text text-anchor="middle" x="42" y="-14.3" font-family="monospace" font-size="14.00" fill="#000000">resetable</text>
</a>
</g>
</g>
<!-- object&#45;&gt;resetable -->
<g id="edge1" class="edge">
<title>object&#45;&gt;resetable</title>
<path fill="none" stroke="#000000" d="M42,-71.8314C42,-64.131 42,-54.9743 42,-46.4166"/>
<polygon fill="#000000" stroke="#000000" points="45.5001,-46.4132 42,-36.4133 38.5001,-46.4133 45.5001,-46.4132"/>
</g>
</g>
</svg>
