<?xml version="1.0" encoding="UTF-8" standalone="no"?>
<!DOCTYPE svg PUBLIC "-//W3C//DTD SVG 1.1//EN"
 "http://www.w3.org/Graphics/SVG/1.1/DTD/svg11.dtd">
<!-- Generated by graphviz version 2.43.0 (0)
 -->
<!-- Title: formalset Pages: 1 -->
<svg width="296pt" height="404pt"
 viewBox="0.00 0.00 296.00 404.00" xmlns="http://www.w3.org/2000/svg" xmlns:xlink="http://www.w3.org/1999/xlink">
<g id="graph0" class="graph" transform="scale(1 1) rotate(0) translate(4 400)">
<title>formalset</title>
<polygon fill="transparent" stroke="transparent" points="-4,4 -4,-400 292,-400 292,4 -4,4"/>
<!-- appendable -->
<g id="node1" class="node">
<title>appendable</title>
<g id="a_node1"><a xlink:href="PsyllaReference_Types.xhtml#PsyllaReference_Types_Details_appendable" xlink:title="appendable" target="_parent">
<polygon fill="linen" stroke="black" points="71,-252 0,-252 0,-216 77,-216 77,-246 71,-252"/>
<polyline fill="none" stroke="black" points="71,-252 71,-246 "/>
<polyline fill="none" stroke="black" points="77,-246 71,-246 "/>
<text text-anchor="middle" x="38.5" y="-231.5" font-family="PT Mono, monospace" font-size="10.00">appendable</text>
</a>
</g>
</g>
<!-- formalset -->
<g id="node3" class="node">
<title>formalset</title>
<g id="a_node3"><a xlink:href="PsyllaReference_Types.xhtml#PsyllaReference_Types_Details_formalset" xlink:title="formalset" target="_parent">
<polygon fill="wheat" stroke="black" points="101,-36 36,-36 36,0 107,0 107,-30 101,-36"/>
<polyline fill="none" stroke="black" points="101,-36 101,-30 "/>
<polyline fill="none" stroke="black" points="107,-30 101,-30 "/>
<text text-anchor="middle" x="71.5" y="-15.5" font-family="PT Mono, monospace" font-size="10.00">formalset</text>
</a>
</g>
</g>
<!-- appendable&#45;&gt;formalset -->
<g id="edge1" class="edge">
<title>appendable&#45;&gt;formalset</title>
<path fill="none" stroke="black" d="M41.14,-215.85C46.85,-178.83 60.37,-91.18 67.28,-46.39"/>
<polygon fill="black" stroke="black" points="70.78,-46.65 68.84,-36.23 63.86,-45.58 70.78,-46.65"/>
</g>
<!-- container -->
<g id="node2" class="node">
<title>container</title>
<g id="a_node2"><a xlink:href="PsyllaReference_Types.xhtml#PsyllaReference_Types_Details_container" xlink:title="container" target="_parent">
<polygon fill="linen" stroke="black" points="165,-108 100,-108 100,-72 171,-72 171,-102 165,-108"/>
<polyline fill="none" stroke="black" points="165,-108 165,-102 "/>
<polyline fill="none" stroke="black" points="171,-102 165,-102 "/>
<text text-anchor="middle" x="135.5" y="-87.5" font-family="PT Mono, monospace" font-size="10.00">container</text>
</a>
</g>
</g>
<!-- container&#45;&gt;formalset -->
<g id="edge2" class="edge">
<title>container&#45;&gt;formalset</title>
<path fill="none" stroke="black" d="M119.68,-71.7C111.93,-63.22 102.46,-52.86 93.98,-43.58"/>
<polygon fill="black" stroke="black" points="96.47,-41.12 87.14,-36.1 91.3,-45.85 96.47,-41.12"/>
</g>
<!-- object -->
<g id="node4" class="node">
<title>object</title>
<g id="a_node4"><a xlink:href="PsyllaReference_Types.xhtml#PsyllaReference_Types_Details_object" xlink:title="object" target="_parent">
<polygon fill="linen" stroke="black" points="155.5,-396 107.5,-396 107.5,-360 161.5,-360 161.5,-390 155.5,-396"/>
<polyline fill="none" stroke="black" points="155.5,-396 155.5,-390 "/>
<polyline fill="none" stroke="black" points="161.5,-390 155.5,-390 "/>
<text text-anchor="middle" x="134.5" y="-375.5" font-family="PT Mono, monospace" font-size="10.00">object</text>
</a>
</g>
</g>
<!-- object&#45;&gt;appendable -->
<g id="edge3" class="edge">
<title>object&#45;&gt;appendable</title>
<path fill="none" stroke="black" d="M119.51,-359.83C110.93,-349.69 100.18,-336.44 91.5,-324 77.21,-303.53 62.84,-279.09 52.67,-261.01"/>
<polygon fill="black" stroke="black" points="55.68,-259.22 47.76,-252.19 49.56,-262.63 55.68,-259.22"/>
</g>
<!-- clearable -->
<g id="node5" class="node">
<title>clearable</title>
<g id="a_node5"><a xlink:href="PsyllaReference_Types.xhtml#PsyllaReference_Types_Details_clearable" xlink:title="clearable" target="_parent">
<polygon fill="linen" stroke="black" points="134,-180 69,-180 69,-144 140,-144 140,-174 134,-180"/>
<polyline fill="none" stroke="black" points="134,-180 134,-174 "/>
<polyline fill="none" stroke="black" points="140,-174 134,-174 "/>
<text text-anchor="middle" x="104.5" y="-159.5" font-family="PT Mono, monospace" font-size="10.00">clearable</text>
</a>
</g>
</g>
<!-- object&#45;&gt;clearable -->
<g id="edge7" class="edge">
<title>object&#45;&gt;clearable</title>
<path fill="none" stroke="black" d="M130.98,-359.86C128.93,-349.51 126.38,-336.03 124.5,-324 117.19,-277.25 110.86,-222.52 107.37,-190.42"/>
<polygon fill="black" stroke="black" points="110.85,-190.01 106.3,-180.44 103.89,-190.76 110.85,-190.01"/>
</g>
<!-- lengthy -->
<g id="node7" class="node">
<title>lengthy</title>
<g id="a_node7"><a xlink:href="PsyllaReference_Types.xhtml#PsyllaReference_Types_Details_lengthy" xlink:title="lengthy" target="_parent">
<polygon fill="linen" stroke="black" points="187,-324 134,-324 134,-288 193,-288 193,-318 187,-324"/>
<polyline fill="none" stroke="black" points="187,-324 187,-318 "/>
<polyline fill="none" stroke="black" points="193,-318 187,-318 "/>
<text text-anchor="middle" x="163.5" y="-303.5" font-family="PT Mono, monospace" font-size="10.00">lengthy</text>
</a>
</g>
</g>
<!-- object&#45;&gt;lengthy -->
<g id="edge9" class="edge">
<title>object&#45;&gt;lengthy</title>
<path fill="none" stroke="black" d="M141.67,-359.7C144.93,-351.81 148.87,-342.3 152.5,-333.55"/>
<polygon fill="black" stroke="black" points="155.82,-334.68 156.41,-324.1 149.35,-332 155.82,-334.68"/>
</g>
<!-- sequential -->
<g id="node9" class="node">
<title>sequential</title>
<g id="a_node9"><a xlink:href="PsyllaReference_Types.xhtml#PsyllaReference_Types_Details_sequential" xlink:title="sequential" target="_parent">
<polygon fill="linen" stroke="black" points="282,-324 211,-324 211,-288 288,-288 288,-318 282,-324"/>
<polyline fill="none" stroke="black" points="282,-324 282,-318 "/>
<polyline fill="none" stroke="black" points="288,-318 282,-318 "/>
<text text-anchor="middle" x="249.5" y="-303.5" font-family="PT Mono, monospace" font-size="10.00">sequential</text>
</a>
</g>
</g>
<!-- object&#45;&gt;sequential -->
<g id="edge11" class="edge">
<title>object&#45;&gt;sequential</title>
<path fill="none" stroke="black" d="M161.75,-360.41C176.88,-351.2 195.92,-339.61 212.39,-329.59"/>
<polygon fill="black" stroke="black" points="214.52,-332.39 221.24,-324.2 210.88,-326.41 214.52,-332.39"/>
</g>
<!-- clearable&#45;&gt;container -->
<g id="edge4" class="edge">
<title>clearable&#45;&gt;container</title>
<path fill="none" stroke="black" d="M112.16,-143.7C115.69,-135.73 119.96,-126.1 123.87,-117.26"/>
<polygon fill="black" stroke="black" points="127.08,-118.67 127.93,-108.1 120.68,-115.83 127.08,-118.67"/>
</g>
<!-- iterable -->
<g id="node6" class="node">
<title>iterable</title>
<g id="a_node6"><a xlink:href="PsyllaReference_Types.xhtml#PsyllaReference_Types_Details_iterable" xlink:title="iterable" target="_parent">
<polygon fill="linen" stroke="black" points="263,-180 204,-180 204,-144 269,-144 269,-174 263,-180"/>
<polyline fill="none" stroke="black" points="263,-180 263,-174 "/>
<polyline fill="none" stroke="black" points="269,-174 263,-174 "/>
<text text-anchor="middle" x="236.5" y="-159.5" font-family="PT Mono, monospace" font-size="10.00">iterable</text>
</a>
</g>
</g>
<!-- iterable&#45;&gt;container -->
<g id="edge5" class="edge">
<title>iterable&#45;&gt;container</title>
<path fill="none" stroke="black" d="M211.79,-143.88C198.83,-134.89 182.77,-123.76 168.73,-114.03"/>
<polygon fill="black" stroke="black" points="170.52,-111.01 160.3,-108.19 166.53,-116.76 170.52,-111.01"/>
</g>
<!-- lengthy&#45;&gt;container -->
<g id="edge6" class="edge">
<title>lengthy&#45;&gt;container</title>
<path fill="none" stroke="black" d="M162.74,-287.97C161.24,-258.48 157.26,-196.04 148.5,-144 147.06,-135.46 144.99,-126.26 142.93,-117.96"/>
<polygon fill="black" stroke="black" points="146.26,-116.86 140.36,-108.05 139.48,-118.61 146.26,-116.86"/>
</g>
<!-- streamable -->
<g id="node8" class="node">
<title>streamable</title>
<g id="a_node8"><a xlink:href="PsyllaReference_Types.xhtml#PsyllaReference_Types_Details_streamable" xlink:title="streamable" target="_parent">
<polygon fill="linen" stroke="black" points="275,-252 204,-252 204,-216 281,-216 281,-246 275,-252"/>
<polyline fill="none" stroke="black" points="275,-252 275,-246 "/>
<polyline fill="none" stroke="black" points="281,-246 275,-246 "/>
<text text-anchor="middle" x="242.5" y="-231.5" font-family="PT Mono, monospace" font-size="10.00">streamable</text>
</a>
</g>
</g>
<!-- streamable&#45;&gt;iterable -->
<g id="edge8" class="edge">
<title>streamable&#45;&gt;iterable</title>
<path fill="none" stroke="black" d="M241.02,-215.7C240.36,-207.98 239.56,-198.71 238.82,-190.11"/>
<polygon fill="black" stroke="black" points="242.31,-189.77 237.97,-180.1 235.33,-190.37 242.31,-189.77"/>
</g>
<!-- sequential&#45;&gt;streamable -->
<g id="edge10" class="edge">
<title>sequential&#45;&gt;streamable</title>
<path fill="none" stroke="black" d="M247.77,-287.7C247,-279.98 246.07,-270.71 245.21,-262.11"/>
<polygon fill="black" stroke="black" points="248.69,-261.71 244.21,-252.1 241.72,-262.4 248.69,-261.71"/>
</g>
</g>
</svg>
