<?xml version="1.0" encoding="UTF-8" standalone="no"?>
<!DOCTYPE svg PUBLIC "-//W3C//DTD SVG 1.1//EN"
 "http://www.w3.org/Graphics/SVG/1.1/DTD/svg11.dtd">
<!-- Generated by graphviz version 2.43.0 (0)
 -->
<!-- Title: name Pages: 1 -->
<svg width="600pt" height="404pt"
 viewBox="0.00 0.00 600.00 404.00" xmlns="http://www.w3.org/2000/svg" xmlns:xlink="http://www.w3.org/1999/xlink">
<g id="graph0" class="graph" transform="scale(1 1) rotate(0) translate(4 400)">
<title>name</title>
<polygon fill="transparent" stroke="transparent" points="-4,4 -4,-400 596,-400 596,4 -4,4"/>
<!-- textual -->
<g id="node1" class="node">
<title>textual</title>
<g id="a_node1"><a xlink:href="PsyllaReference_Types.xhtml#PsyllaReference_Types_Details_textual" xlink:title="textual" target="_parent">
<polygon fill="linen" stroke="black" points="326.5,-108 263.5,-108 263.5,-72 332.5,-72 332.5,-102 326.5,-108"/>
<polyline fill="none" stroke="black" points="326.5,-108 326.5,-102 "/>
<polyline fill="none" stroke="black" points="332.5,-102 326.5,-102 "/>
<text text-anchor="middle" x="298" y="-86.9" font-family="Source Code Pro,monospace" font-size="12.00">textual</text>
</a>
</g>
</g>
<!-- name -->
<g id="node3" class="node">
<title>name</title>
<g id="a_node3"><a xlink:href="PsyllaReference_Types.xhtml#PsyllaReference_Types_Details_name" xlink:title="name" target="_parent">
<polygon fill="wheat" stroke="black" points="179,-36 131,-36 131,0 185,0 185,-30 179,-36"/>
<polyline fill="none" stroke="black" points="179,-36 179,-30 "/>
<polyline fill="none" stroke="black" points="185,-30 179,-30 "/>
<text text-anchor="middle" x="158" y="-14.9" font-family="Source Code Pro,monospace" font-size="12.00">name</text>
</a>
</g>
</g>
<!-- textual&#45;&gt;name -->
<g id="edge1" class="edge">
<title>textual&#45;&gt;name</title>
<path fill="none" stroke="black" d="M263.75,-71.88C242.74,-61.37 215.85,-47.92 194.44,-37.22"/>
<polygon fill="black" stroke="black" points="195.85,-34.01 185.34,-32.67 192.72,-40.27 195.85,-34.01"/>
</g>
<!-- value -->
<g id="node2" class="node">
<title>value</title>
<g id="a_node2"><a xlink:href="PsyllaReference_Types.xhtml#PsyllaReference_Types_Details_value" xlink:title="value" target="_parent">
<polygon fill="linen" stroke="black" points="48,-252 0,-252 0,-216 54,-216 54,-246 48,-252"/>
<polyline fill="none" stroke="black" points="48,-252 48,-246 "/>
<polyline fill="none" stroke="black" points="54,-246 48,-246 "/>
<text text-anchor="middle" x="27" y="-230.9" font-family="Source Code Pro,monospace" font-size="12.00">value</text>
</a>
</g>
</g>
<!-- value&#45;&gt;name -->
<g id="edge2" class="edge">
<title>value&#45;&gt;name</title>
<path fill="none" stroke="black" d="M31.1,-215.88C35.95,-197.41 45.02,-167.48 58,-144 79.02,-105.98 111.66,-67.78 133.89,-43.8"/>
<polygon fill="black" stroke="black" points="136.7,-45.92 140.99,-36.23 131.6,-41.12 136.7,-45.92"/>
</g>
<!-- evaluable -->
<g id="node4" class="node">
<title>evaluable</title>
<g id="a_node4"><a xlink:href="PsyllaReference_Types.xhtml#PsyllaReference_Types_Details_evaluable" xlink:title="evaluable" target="_parent">
<polygon fill="linen" stroke="black" points="145,-180 67,-180 67,-144 151,-144 151,-174 145,-180"/>
<polyline fill="none" stroke="black" points="145,-180 145,-174 "/>
<polyline fill="none" stroke="black" points="151,-174 145,-174 "/>
<text text-anchor="middle" x="109" y="-158.9" font-family="Source Code Pro,monospace" font-size="12.00">evaluable</text>
</a>
</g>
</g>
<!-- evaluable&#45;&gt;textual -->
<g id="edge3" class="edge">
<title>evaluable&#45;&gt;textual</title>
<path fill="none" stroke="black" d="M151.42,-145.29C181.86,-134.02 222.79,-118.85 253.66,-107.42"/>
<polygon fill="black" stroke="black" points="255.15,-110.6 263.31,-103.85 252.72,-104.04 255.15,-110.6"/>
</g>
<!-- convertabletointeger -->
<g id="node5" class="node">
<title>convertabletointeger</title>
<g id="a_node5"><a xlink:href="PsyllaReference_Types.xhtml#PsyllaReference_Types_Details_convertabletointeger" xlink:title="convertabletointeger" target="_parent">
<polygon fill="linen" stroke="black" points="270.5,-252 109.5,-252 109.5,-216 276.5,-216 276.5,-246 270.5,-252"/>
<polyline fill="none" stroke="black" points="270.5,-252 270.5,-246 "/>
<polyline fill="none" stroke="black" points="276.5,-246 270.5,-246 "/>
<text text-anchor="middle" x="193" y="-230.9" font-family="Source Code Pro,monospace" font-size="12.00">convertabletointeger</text>
</a>
</g>
</g>
<!-- convertabletointeger&#45;&gt;textual -->
<g id="edge4" class="edge">
<title>convertabletointeger&#45;&gt;textual</title>
<path fill="none" stroke="black" d="M190.29,-215.71C188.23,-196.55 187.8,-165.51 202,-144 214.11,-125.65 234.84,-113.07 253.93,-104.79"/>
<polygon fill="black" stroke="black" points="255.47,-107.95 263.42,-100.95 252.84,-101.46 255.47,-107.95"/>
</g>
<!-- convertabletointegral -->
<g id="node6" class="node">
<title>convertabletointegral</title>
<g id="a_node6"><a xlink:href="PsyllaReference_Types.xhtml#PsyllaReference_Types_Details_convertabletointegral" xlink:title="convertabletointegral" target="_parent">
<polygon fill="linen" stroke="black" points="379,-180 211,-180 211,-144 385,-144 385,-174 379,-180"/>
<polyline fill="none" stroke="black" points="379,-180 379,-174 "/>
<polyline fill="none" stroke="black" points="385,-174 379,-174 "/>
<text text-anchor="middle" x="298" y="-158.9" font-family="Source Code Pro,monospace" font-size="12.00">convertabletointegral</text>
</a>
</g>
</g>
<!-- convertabletointegral&#45;&gt;textual -->
<g id="edge5" class="edge">
<title>convertabletointegral&#45;&gt;textual</title>
<path fill="none" stroke="black" d="M298,-143.7C298,-135.98 298,-126.71 298,-118.11"/>
<polygon fill="black" stroke="black" points="301.5,-118.1 298,-108.1 294.5,-118.1 301.5,-118.1"/>
</g>
<!-- iterable -->
<g id="node7" class="node">
<title>iterable</title>
<g id="a_node7"><a xlink:href="PsyllaReference_Types.xhtml#PsyllaReference_Types_Details_iterable" xlink:title="iterable" target="_parent">
<polygon fill="linen" stroke="black" points="559.5,-180 488.5,-180 488.5,-144 565.5,-144 565.5,-174 559.5,-180"/>
<polyline fill="none" stroke="black" points="559.5,-180 559.5,-174 "/>
<polyline fill="none" stroke="black" points="565.5,-174 559.5,-174 "/>
<text text-anchor="middle" x="527" y="-158.9" font-family="Source Code Pro,monospace" font-size="12.00">iterable</text>
</a>
</g>
</g>
<!-- iterable&#45;&gt;textual -->
<g id="edge6" class="edge">
<title>iterable&#45;&gt;textual</title>
<path fill="none" stroke="black" d="M488.41,-149.2C448.05,-136.87 384.79,-117.53 342.39,-104.57"/>
<polygon fill="black" stroke="black" points="343.2,-101.16 332.62,-101.58 341.16,-107.85 343.2,-101.16"/>
</g>
<!-- lengthy -->
<g id="node8" class="node">
<title>lengthy</title>
<g id="a_node8"><a xlink:href="PsyllaReference_Types.xhtml#PsyllaReference_Types_Details_lengthy" xlink:title="lengthy" target="_parent">
<polygon fill="linen" stroke="black" points="395.5,-324 332.5,-324 332.5,-288 401.5,-288 401.5,-318 395.5,-324"/>
<polyline fill="none" stroke="black" points="395.5,-324 395.5,-318 "/>
<polyline fill="none" stroke="black" points="401.5,-318 395.5,-318 "/>
<text text-anchor="middle" x="367" y="-302.9" font-family="Source Code Pro,monospace" font-size="12.00">lengthy</text>
</a>
</g>
</g>
<!-- lengthy&#45;&gt;textual -->
<g id="edge7" class="edge">
<title>lengthy&#45;&gt;textual</title>
<path fill="none" stroke="black" d="M376.92,-287.66C393.24,-256.6 421.37,-190.37 394,-144 382.69,-124.84 361.7,-112.13 342.22,-103.97"/>
<polygon fill="black" stroke="black" points="343.42,-100.68 332.83,-100.32 340.89,-107.2 343.42,-100.68"/>
</g>
<!-- scalar -->
<g id="node9" class="node">
<title>scalar</title>
<g id="a_node9"><a xlink:href="PsyllaReference_Types.xhtml#PsyllaReference_Types_Details_scalar" xlink:title="scalar" target="_parent">
<polygon fill="linen" stroke="black" points="476,-324 420,-324 420,-288 482,-288 482,-318 476,-324"/>
<polyline fill="none" stroke="black" points="476,-324 476,-318 "/>
<polyline fill="none" stroke="black" points="482,-318 476,-318 "/>
<text text-anchor="middle" x="451" y="-302.9" font-family="Source Code Pro,monospace" font-size="12.00">scalar</text>
</a>
</g>
</g>
<!-- scalar&#45;&gt;textual -->
<g id="edge8" class="edge">
<title>scalar&#45;&gt;textual</title>
<path fill="none" stroke="black" d="M451.74,-287.85C452.21,-255.9 448.8,-186.68 414,-144 396.05,-121.98 366.94,-108.72 342.38,-100.97"/>
<polygon fill="black" stroke="black" points="343.11,-97.53 332.53,-98.07 341.14,-104.25 343.11,-97.53"/>
</g>
<!-- object -->
<g id="node10" class="node">
<title>object</title>
<g id="a_node10"><a xlink:href="PsyllaReference_Types.xhtml#PsyllaReference_Types_Details_object" xlink:title="object" target="_parent">
<polygon fill="linen" stroke="black" points="329,-396 273,-396 273,-360 335,-360 335,-390 329,-396"/>
<polyline fill="none" stroke="black" points="329,-396 329,-390 "/>
<polyline fill="none" stroke="black" points="335,-390 329,-390 "/>
<text text-anchor="middle" x="304" y="-374.9" font-family="Source Code Pro,monospace" font-size="12.00">object</text>
</a>
</g>
</g>
<!-- object&#45;&gt;value -->
<g id="edge9" class="edge">
<title>object&#45;&gt;value</title>
<path fill="none" stroke="black" d="M272.56,-373.42C215.81,-366.4 99.26,-349.28 68,-324 48.85,-308.51 38.25,-282.08 32.65,-262.04"/>
<polygon fill="black" stroke="black" points="36.01,-261.06 30.16,-252.23 29.23,-262.78 36.01,-261.06"/>
</g>
<!-- object&#45;&gt;evaluable -->
<g id="edge10" class="edge">
<title>object&#45;&gt;evaluable</title>
<path fill="none" stroke="black" d="M272.76,-368.48C225.43,-353.7 137.14,-318.32 100,-252 89.44,-233.14 93.02,-208.47 98.49,-189.89"/>
<polygon fill="black" stroke="black" points="101.86,-190.86 101.65,-180.27 95.21,-188.68 101.86,-190.86"/>
</g>
<!-- object&#45;&gt;convertabletointeger -->
<g id="edge11" class="edge">
<title>object&#45;&gt;convertabletointeger</title>
<path fill="none" stroke="black" d="M290.61,-359.87C271.19,-335.03 235.09,-288.85 212.65,-260.14"/>
<polygon fill="black" stroke="black" points="215.35,-257.91 206.44,-252.19 209.84,-262.22 215.35,-257.91"/>
</g>
<!-- object&#45;&gt;convertabletointegral -->
<g id="edge12" class="edge">
<title>object&#45;&gt;convertabletointegral</title>
<path fill="none" stroke="black" d="M303.52,-359.85C302.48,-322.83 300.02,-235.18 298.77,-190.39"/>
<polygon fill="black" stroke="black" points="302.26,-190.13 298.48,-180.23 295.26,-190.33 302.26,-190.13"/>
</g>
<!-- object&#45;&gt;lengthy -->
<g id="edge14" class="edge">
<title>object&#45;&gt;lengthy</title>
<path fill="none" stroke="black" d="M319.57,-359.7C327.2,-351.22 336.52,-340.86 344.88,-331.58"/>
<polygon fill="black" stroke="black" points="347.52,-333.88 351.61,-324.1 342.31,-329.2 347.52,-333.88"/>
</g>
<!-- object&#45;&gt;scalar -->
<g id="edge15" class="edge">
<title>object&#45;&gt;scalar</title>
<path fill="none" stroke="black" d="M335.17,-362.15C357.2,-351.67 386.91,-337.52 410.73,-326.18"/>
<polygon fill="black" stroke="black" points="412.35,-329.28 419.87,-321.82 409.34,-322.96 412.35,-329.28"/>
</g>
<!-- sequential -->
<g id="node12" class="node">
<title>sequential</title>
<g id="a_node12"><a xlink:href="PsyllaReference_Types.xhtml#PsyllaReference_Types_Details_sequential" xlink:title="sequential" target="_parent">
<polygon fill="linen" stroke="black" points="586,-324 500,-324 500,-288 592,-288 592,-318 586,-324"/>
<polyline fill="none" stroke="black" points="586,-324 586,-318 "/>
<polyline fill="none" stroke="black" points="592,-318 586,-318 "/>
<text text-anchor="middle" x="546" y="-302.9" font-family="Source Code Pro,monospace" font-size="12.00">sequential</text>
</a>
</g>
</g>
<!-- object&#45;&gt;sequential -->
<g id="edge17" class="edge">
<title>object&#45;&gt;sequential</title>
<path fill="none" stroke="black" d="M335.17,-368.41C370.45,-358.63 429.89,-342 490.14,-324.22"/>
<polygon fill="black" stroke="black" points="491.21,-327.56 499.81,-321.36 489.23,-320.84 491.21,-327.56"/>
</g>
<!-- streamable -->
<g id="node11" class="node">
<title>streamable</title>
<g id="a_node11"><a xlink:href="PsyllaReference_Types.xhtml#PsyllaReference_Types_Details_streamable" xlink:title="streamable" target="_parent">
<polygon fill="linen" stroke="black" points="576,-252 490,-252 490,-216 582,-216 582,-246 576,-252"/>
<polyline fill="none" stroke="black" points="576,-252 576,-246 "/>
<polyline fill="none" stroke="black" points="582,-246 576,-246 "/>
<text text-anchor="middle" x="536" y="-230.9" font-family="Source Code Pro,monospace" font-size="12.00">streamable</text>
</a>
</g>
</g>
<!-- streamable&#45;&gt;iterable -->
<g id="edge13" class="edge">
<title>streamable&#45;&gt;iterable</title>
<path fill="none" stroke="black" d="M533.78,-215.7C532.78,-207.98 531.59,-198.71 530.49,-190.11"/>
<polygon fill="black" stroke="black" points="533.95,-189.58 529.2,-180.1 527,-190.47 533.95,-189.58"/>
</g>
<!-- sequential&#45;&gt;streamable -->
<g id="edge16" class="edge">
<title>sequential&#45;&gt;streamable</title>
<path fill="none" stroke="black" d="M543.53,-287.7C542.43,-279.98 541.1,-270.71 539.87,-262.11"/>
<polygon fill="black" stroke="black" points="543.32,-261.51 538.44,-252.1 536.39,-262.5 543.32,-261.51"/>
</g>
</g>
</svg>
