<?xml version="1.0" encoding="UTF-8" standalone="no"?>
<!DOCTYPE svg PUBLIC "-//W3C//DTD SVG 1.1//EN"
 "http://www.w3.org/Graphics/SVG/1.1/DTD/svg11.dtd">
<!-- Generated by graphviz version 2.43.0 (0)
 -->
<!-- Title: container Pages: 1 -->
<svg width="218pt" height="332pt"
 viewBox="0.00 0.00 218.00 332.00" xmlns="http://www.w3.org/2000/svg" xmlns:xlink="http://www.w3.org/1999/xlink">
<g id="graph0" class="graph" transform="scale(1 1) rotate(0) translate(4 328)">
<title>container</title>
<polygon fill="transparent" stroke="transparent" points="-4,4 -4,-328 214,-328 214,4 -4,4"/>
<!-- clearable -->
<g id="node1" class="node">
<title>clearable</title>
<g id="a_node1"><a xlink:href="PsyllaReference_Types.xhtml#PsyllaReference_Types_Details_clearable" xlink:title="clearable" target="_parent">
<polygon fill="linen" stroke="black" points="65,-180 0,-180 0,-144 71,-144 71,-174 65,-180"/>
<polyline fill="none" stroke="black" points="65,-180 65,-174 "/>
<polyline fill="none" stroke="black" points="71,-174 65,-174 "/>
<text text-anchor="middle" x="35.5" y="-159.5" font-family="PT Mono, monospace" font-size="10.00">clearable</text>
</a>
</g>
</g>
<!-- container -->
<g id="node4" class="node">
<title>container</title>
<g id="a_node4"><a xlink:href="PsyllaReference_Types.xhtml#PsyllaReference_Types_Details_container" xlink:title="container" target="_parent">
<polygon fill="wheat" stroke="black" points="123,-36 58,-36 58,0 129,0 129,-30 123,-36"/>
<polyline fill="none" stroke="black" points="123,-36 123,-30 "/>
<polyline fill="none" stroke="black" points="129,-30 123,-30 "/>
<text text-anchor="middle" x="93.5" y="-15.5" font-family="PT Mono, monospace" font-size="10.00">container</text>
</a>
</g>
</g>
<!-- clearable&#45;&gt;container -->
<g id="edge1" class="edge">
<title>clearable&#45;&gt;container</title>
<path fill="none" stroke="black" d="M36.98,-143.94C39.07,-125.51 43.88,-95.63 54.5,-72 58.86,-62.31 65.19,-52.66 71.5,-44.31"/>
<polygon fill="black" stroke="black" points="74.27,-46.45 77.72,-36.44 68.77,-42.11 74.27,-46.45"/>
</g>
<!-- iterable -->
<g id="node2" class="node">
<title>iterable</title>
<g id="a_node2"><a xlink:href="PsyllaReference_Types.xhtml#PsyllaReference_Types_Details_iterable" xlink:title="iterable" target="_parent">
<polygon fill="linen" stroke="black" points="200,-108 141,-108 141,-72 206,-72 206,-102 200,-108"/>
<polyline fill="none" stroke="black" points="200,-108 200,-102 "/>
<polyline fill="none" stroke="black" points="206,-102 200,-102 "/>
<text text-anchor="middle" x="173.5" y="-87.5" font-family="PT Mono, monospace" font-size="10.00">iterable</text>
</a>
</g>
</g>
<!-- iterable&#45;&gt;container -->
<g id="edge2" class="edge">
<title>iterable&#45;&gt;container</title>
<path fill="none" stroke="black" d="M153.72,-71.7C143.75,-62.97 131.49,-52.24 120.64,-42.75"/>
<polygon fill="black" stroke="black" points="122.88,-40.06 113.05,-36.1 118.27,-45.32 122.88,-40.06"/>
</g>
<!-- lengthy -->
<g id="node3" class="node">
<title>lengthy</title>
<g id="a_node3"><a xlink:href="PsyllaReference_Types.xhtml#PsyllaReference_Types_Details_lengthy" xlink:title="lengthy" target="_parent">
<polygon fill="linen" stroke="black" points="117,-108 64,-108 64,-72 123,-72 123,-102 117,-108"/>
<polyline fill="none" stroke="black" points="117,-108 117,-102 "/>
<polyline fill="none" stroke="black" points="123,-102 117,-102 "/>
<text text-anchor="middle" x="93.5" y="-87.5" font-family="PT Mono, monospace" font-size="10.00">lengthy</text>
</a>
</g>
</g>
<!-- lengthy&#45;&gt;container -->
<g id="edge3" class="edge">
<title>lengthy&#45;&gt;container</title>
<path fill="none" stroke="black" d="M93.5,-71.7C93.5,-63.98 93.5,-54.71 93.5,-46.11"/>
<polygon fill="black" stroke="black" points="97,-46.1 93.5,-36.1 90,-46.1 97,-46.1"/>
</g>
<!-- object -->
<g id="node5" class="node">
<title>object</title>
<g id="a_node5"><a xlink:href="PsyllaReference_Types.xhtml#PsyllaReference_Types_Details_object" xlink:title="object" target="_parent">
<polygon fill="linen" stroke="black" points="120.5,-324 72.5,-324 72.5,-288 126.5,-288 126.5,-318 120.5,-324"/>
<polyline fill="none" stroke="black" points="120.5,-324 120.5,-318 "/>
<polyline fill="none" stroke="black" points="126.5,-318 120.5,-318 "/>
<text text-anchor="middle" x="99.5" y="-303.5" font-family="PT Mono, monospace" font-size="10.00">object</text>
</a>
</g>
</g>
<!-- object&#45;&gt;clearable -->
<g id="edge4" class="edge">
<title>object&#45;&gt;clearable</title>
<path fill="none" stroke="black" d="M91.78,-287.87C80.78,-263.46 60.48,-218.43 47.5,-189.64"/>
<polygon fill="black" stroke="black" points="50.55,-187.87 43.25,-180.19 44.17,-190.74 50.55,-187.87"/>
</g>
<!-- object&#45;&gt;lengthy -->
<g id="edge6" class="edge">
<title>object&#45;&gt;lengthy</title>
<path fill="none" stroke="black" d="M99.02,-287.85C97.98,-250.83 95.52,-163.18 94.27,-118.39"/>
<polygon fill="black" stroke="black" points="97.76,-118.13 93.98,-108.23 90.76,-118.33 97.76,-118.13"/>
</g>
<!-- sequential -->
<g id="node7" class="node">
<title>sequential</title>
<g id="a_node7"><a xlink:href="PsyllaReference_Types.xhtml#PsyllaReference_Types_Details_sequential" xlink:title="sequential" target="_parent">
<polygon fill="linen" stroke="black" points="201,-252 130,-252 130,-216 207,-216 207,-246 201,-252"/>
<polyline fill="none" stroke="black" points="201,-252 201,-246 "/>
<polyline fill="none" stroke="black" points="207,-246 201,-246 "/>
<text text-anchor="middle" x="168.5" y="-231.5" font-family="PT Mono, monospace" font-size="10.00">sequential</text>
</a>
</g>
</g>
<!-- object&#45;&gt;sequential -->
<g id="edge8" class="edge">
<title>object&#45;&gt;sequential</title>
<path fill="none" stroke="black" d="M116.56,-287.7C125,-279.14 135.32,-268.66 144.54,-259.3"/>
<polygon fill="black" stroke="black" points="147.11,-261.68 151.64,-252.1 142.13,-256.77 147.11,-261.68"/>
</g>
<!-- streamable -->
<g id="node6" class="node">
<title>streamable</title>
<g id="a_node6"><a xlink:href="PsyllaReference_Types.xhtml#PsyllaReference_Types_Details_streamable" xlink:title="streamable" target="_parent">
<polygon fill="linen" stroke="black" points="204,-180 133,-180 133,-144 210,-144 210,-174 204,-180"/>
<polyline fill="none" stroke="black" points="204,-180 204,-174 "/>
<polyline fill="none" stroke="black" points="210,-174 204,-174 "/>
<text text-anchor="middle" x="171.5" y="-159.5" font-family="PT Mono, monospace" font-size="10.00">streamable</text>
</a>
</g>
</g>
<!-- streamable&#45;&gt;iterable -->
<g id="edge5" class="edge">
<title>streamable&#45;&gt;iterable</title>
<path fill="none" stroke="black" d="M171.99,-143.7C172.21,-135.98 172.48,-126.71 172.73,-118.11"/>
<polygon fill="black" stroke="black" points="176.22,-118.2 173.01,-108.1 169.23,-118 176.22,-118.2"/>
</g>
<!-- sequential&#45;&gt;streamable -->
<g id="edge7" class="edge">
<title>sequential&#45;&gt;streamable</title>
<path fill="none" stroke="black" d="M169.24,-215.7C169.57,-207.98 169.97,-198.71 170.34,-190.11"/>
<polygon fill="black" stroke="black" points="173.84,-190.25 170.77,-180.1 166.84,-189.95 173.84,-190.25"/>
</g>
</g>
</svg>
