<?xml version="1.0" encoding="UTF-8" standalone="no"?>
<!DOCTYPE svg PUBLIC "-//W3C//DTD SVG 1.1//EN"
 "http://www.w3.org/Graphics/SVG/1.1/DTD/svg11.dtd">
<!-- Generated by graphviz version 2.43.0 (0)
 -->
<!-- Title: dict Pages: 1 -->
<svg width="506pt" height="476pt"
 viewBox="0.00 0.00 506.00 476.00" xmlns="http://www.w3.org/2000/svg" xmlns:xlink="http://www.w3.org/1999/xlink">
<g id="graph0" class="graph" transform="scale(1 1) rotate(0) translate(4 472)">
<title>dict</title>
<polygon fill="transparent" stroke="transparent" points="-4,4 -4,-472 502,-472 502,4 -4,4"/>
<!-- formaldict -->
<g id="node1" class="node">
<title>formaldict</title>
<g id="a_node1"><a xlink:href="PsyllaReference_Types.xhtml#PsyllaReference_Types_Details_formaldict" xlink:title="formaldict" target="_parent">
<polygon fill="linen" stroke="black" points="192,-108 61,-108 61,-72 198,-72 198,-102 192,-108"/>
<polyline fill="none" stroke="black" points="192,-108 192,-102 "/>
<polyline fill="none" stroke="black" points="198,-102 192,-102 "/>
<text text-anchor="middle" x="129.5" y="-85" font-family="PT Mono, monospace" font-size="20.00">formaldict</text>
</a>
</g>
</g>
<!-- dict -->
<g id="node2" class="node">
<title>dict</title>
<g id="a_node2"><a xlink:href="PsyllaReference_Types.xhtml#PsyllaReference_Types_Details_dict" xlink:title="dict" target="_parent">
<polygon fill="wheat" stroke="black" points="156,-36 97,-36 97,0 162,0 162,-30 156,-36"/>
<polyline fill="none" stroke="black" points="156,-36 156,-30 "/>
<polyline fill="none" stroke="black" points="162,-30 156,-30 "/>
<text text-anchor="middle" x="129.5" y="-13" font-family="PT Mono, monospace" font-size="20.00">dict</text>
</a>
</g>
</g>
<!-- formaldict&#45;&gt;dict -->
<g id="edge1" class="edge">
<title>formaldict&#45;&gt;dict</title>
<path fill="none" stroke="black" d="M129.5,-71.7C129.5,-63.98 129.5,-54.71 129.5,-46.11"/>
<polygon fill="black" stroke="black" points="133,-46.1 129.5,-36.1 126,-46.1 133,-46.1"/>
</g>
<!-- container -->
<g id="node3" class="node">
<title>container</title>
<g id="a_node3"><a xlink:href="PsyllaReference_Types.xhtml#PsyllaReference_Types_Details_container" xlink:title="container" target="_parent">
<polygon fill="linen" stroke="black" points="365,-180 246,-180 246,-144 371,-144 371,-174 365,-180"/>
<polyline fill="none" stroke="black" points="365,-180 365,-174 "/>
<polyline fill="none" stroke="black" points="371,-174 365,-174 "/>
<text text-anchor="middle" x="308.5" y="-157" font-family="PT Mono, monospace" font-size="20.00">container</text>
</a>
</g>
</g>
<!-- container&#45;&gt;formaldict -->
<g id="edge2" class="edge">
<title>container&#45;&gt;formaldict</title>
<path fill="none" stroke="black" d="M264.71,-143.88C239.92,-134.18 208.72,-121.98 182.54,-111.74"/>
<polygon fill="black" stroke="black" points="183.73,-108.45 173.15,-108.07 181.18,-114.97 183.73,-108.45"/>
</g>
<!-- indexed -->
<g id="node4" class="node">
<title>indexed</title>
<g id="a_node4"><a xlink:href="PsyllaReference_Types.xhtml#PsyllaReference_Types_Details_indexed" xlink:title="indexed" target="_parent">
<polygon fill="linen" stroke="black" points="95,-252 0,-252 0,-216 101,-216 101,-246 95,-252"/>
<polyline fill="none" stroke="black" points="95,-252 95,-246 "/>
<polyline fill="none" stroke="black" points="101,-246 95,-246 "/>
<text text-anchor="middle" x="50.5" y="-229" font-family="PT Mono, monospace" font-size="20.00">indexed</text>
</a>
</g>
</g>
<!-- indexed&#45;&gt;formaldict -->
<g id="edge3" class="edge">
<title>indexed&#45;&gt;formaldict</title>
<path fill="none" stroke="black" d="M60.03,-215.87C73.67,-191.35 98.88,-146.03 114.89,-117.26"/>
<polygon fill="black" stroke="black" points="118.13,-118.63 119.94,-108.19 112.02,-115.23 118.13,-118.63"/>
</g>
<!-- sequential -->
<g id="node5" class="node">
<title>sequential</title>
<g id="a_node5"><a xlink:href="PsyllaReference_Types.xhtml#PsyllaReference_Types_Details_sequential" xlink:title="sequential" target="_parent">
<polygon fill="linen" stroke="black" points="289,-396 158,-396 158,-360 295,-360 295,-390 289,-396"/>
<polyline fill="none" stroke="black" points="289,-396 289,-390 "/>
<polyline fill="none" stroke="black" points="295,-390 289,-390 "/>
<text text-anchor="middle" x="226.5" y="-373" font-family="PT Mono, monospace" font-size="20.00">sequential</text>
</a>
</g>
</g>
<!-- sequential&#45;&gt;formaldict -->
<g id="edge4" class="edge">
<title>sequential&#45;&gt;formaldict</title>
<path fill="none" stroke="black" d="M187.77,-359.89C172.96,-351.32 157.49,-339.42 148.5,-324 110.28,-258.43 117.76,-164.32 124.57,-118.36"/>
<polygon fill="black" stroke="black" points="128.06,-118.7 126.17,-108.27 121.15,-117.6 128.06,-118.7"/>
</g>
<!-- streamable -->
<g id="node10" class="node">
<title>streamable</title>
<g id="a_node10"><a xlink:href="PsyllaReference_Types.xhtml#PsyllaReference_Types_Details_streamable" xlink:title="streamable" target="_parent">
<polygon fill="linen" stroke="black" points="289,-324 158,-324 158,-288 295,-288 295,-318 289,-324"/>
<polyline fill="none" stroke="black" points="289,-324 289,-318 "/>
<polyline fill="none" stroke="black" points="295,-318 289,-318 "/>
<text text-anchor="middle" x="226.5" y="-301" font-family="PT Mono, monospace" font-size="20.00">streamable</text>
</a>
</g>
</g>
<!-- sequential&#45;&gt;streamable -->
<g id="edge13" class="edge">
<title>sequential&#45;&gt;streamable</title>
<path fill="none" stroke="black" d="M226.5,-359.7C226.5,-351.98 226.5,-342.71 226.5,-334.11"/>
<polygon fill="black" stroke="black" points="230,-334.1 226.5,-324.1 223,-334.1 230,-334.1"/>
</g>
<!-- clearable -->
<g id="node6" class="node">
<title>clearable</title>
<g id="a_node6"><a xlink:href="PsyllaReference_Types.xhtml#PsyllaReference_Types_Details_clearable" xlink:title="clearable" target="_parent">
<polygon fill="linen" stroke="black" points="432,-324 313,-324 313,-288 438,-288 438,-318 432,-324"/>
<polyline fill="none" stroke="black" points="432,-324 432,-318 "/>
<polyline fill="none" stroke="black" points="438,-318 432,-318 "/>
<text text-anchor="middle" x="375.5" y="-301" font-family="PT Mono, monospace" font-size="20.00">clearable</text>
</a>
</g>
</g>
<!-- clearable&#45;&gt;container -->
<g id="edge5" class="edge">
<title>clearable&#45;&gt;container</title>
<path fill="none" stroke="black" d="M367.42,-287.87C355.85,-263.35 334.47,-218.03 320.89,-189.26"/>
<polygon fill="black" stroke="black" points="324.04,-187.74 316.61,-180.19 317.71,-190.73 324.04,-187.74"/>
</g>
<!-- iterable -->
<g id="node7" class="node">
<title>iterable</title>
<g id="a_node7"><a xlink:href="PsyllaReference_Types.xhtml#PsyllaReference_Types_Details_iterable" xlink:title="iterable" target="_parent">
<polygon fill="linen" stroke="black" points="309,-252 202,-252 202,-216 315,-216 315,-246 309,-252"/>
<polyline fill="none" stroke="black" points="309,-252 309,-246 "/>
<polyline fill="none" stroke="black" points="315,-246 309,-246 "/>
<text text-anchor="middle" x="258.5" y="-229" font-family="PT Mono, monospace" font-size="20.00">iterable</text>
</a>
</g>
</g>
<!-- iterable&#45;&gt;container -->
<g id="edge6" class="edge">
<title>iterable&#45;&gt;container</title>
<path fill="none" stroke="black" d="M270.86,-215.7C276.73,-207.47 283.87,-197.48 290.34,-188.42"/>
<polygon fill="black" stroke="black" points="293.32,-190.28 296.28,-180.1 287.62,-186.21 293.32,-190.28"/>
</g>
<!-- lengthy -->
<g id="node8" class="node">
<title>lengthy</title>
<g id="a_node8"><a xlink:href="PsyllaReference_Types.xhtml#PsyllaReference_Types_Details_lengthy" xlink:title="lengthy" target="_parent">
<polygon fill="linen" stroke="black" points="492,-396 397,-396 397,-360 498,-360 498,-390 492,-396"/>
<polyline fill="none" stroke="black" points="492,-396 492,-390 "/>
<polyline fill="none" stroke="black" points="498,-390 492,-390 "/>
<text text-anchor="middle" x="447.5" y="-373" font-family="PT Mono, monospace" font-size="20.00">lengthy</text>
</a>
</g>
</g>
<!-- lengthy&#45;&gt;container -->
<g id="edge7" class="edge">
<title>lengthy&#45;&gt;container</title>
<path fill="none" stroke="black" d="M451.24,-359.73C454.39,-341.13 456.9,-311.11 446.5,-288 426.22,-242.95 380.96,-207.13 347.79,-185.59"/>
<polygon fill="black" stroke="black" points="349.53,-182.55 339.21,-180.16 345.78,-188.46 349.53,-182.55"/>
</g>
<!-- object -->
<g id="node9" class="node">
<title>object</title>
<g id="a_node9"><a xlink:href="PsyllaReference_Types.xhtml#PsyllaReference_Types_Details_object" xlink:title="object" target="_parent">
<polygon fill="linen" stroke="black" points="313,-468 230,-468 230,-432 319,-432 319,-462 313,-468"/>
<polyline fill="none" stroke="black" points="313,-468 313,-462 "/>
<polyline fill="none" stroke="black" points="319,-462 313,-462 "/>
<text text-anchor="middle" x="274.5" y="-445" font-family="PT Mono, monospace" font-size="20.00">object</text>
</a>
</g>
</g>
<!-- object&#45;&gt;indexed -->
<g id="edge8" class="edge">
<title>object&#45;&gt;indexed</title>
<path fill="none" stroke="black" d="M229.96,-437.75C204,-429.49 171.87,-416.14 148.5,-396 105.18,-358.68 75.33,-297.29 60.76,-262.08"/>
<polygon fill="black" stroke="black" points="63.87,-260.44 56.89,-252.47 57.37,-263.05 63.87,-260.44"/>
</g>
<!-- object&#45;&gt;sequential -->
<g id="edge9" class="edge">
<title>object&#45;&gt;sequential</title>
<path fill="none" stroke="black" d="M262.63,-431.7C257,-423.47 250.15,-413.48 243.93,-404.42"/>
<polygon fill="black" stroke="black" points="246.77,-402.37 238.23,-396.1 241,-406.33 246.77,-402.37"/>
</g>
<!-- object&#45;&gt;clearable -->
<g id="edge10" class="edge">
<title>object&#45;&gt;clearable</title>
<path fill="none" stroke="black" d="M286.68,-431.87C304.28,-407.14 336.92,-361.24 357.35,-332.51"/>
<polygon fill="black" stroke="black" points="360.33,-334.37 363.27,-324.19 354.63,-330.31 360.33,-334.37"/>
</g>
<!-- object&#45;&gt;lengthy -->
<g id="edge12" class="edge">
<title>object&#45;&gt;lengthy</title>
<path fill="none" stroke="black" d="M316.82,-431.88C340.68,-422.22 370.67,-410.09 395.9,-399.88"/>
<polygon fill="black" stroke="black" points="397.36,-403.06 405.32,-396.07 394.73,-396.57 397.36,-403.06"/>
</g>
<!-- streamable&#45;&gt;iterable -->
<g id="edge11" class="edge">
<title>streamable&#45;&gt;iterable</title>
<path fill="none" stroke="black" d="M234.41,-287.7C238.05,-279.73 242.45,-270.1 246.49,-261.26"/>
<polygon fill="black" stroke="black" points="249.71,-262.65 250.68,-252.1 243.34,-259.74 249.71,-262.65"/>
</g>
</g>
</svg>
