<?xml version="1.0" encoding="UTF-8" standalone="no"?>
<!DOCTYPE svg PUBLIC "-//W3C//DTD SVG 1.1//EN"
 "http://www.w3.org/Graphics/SVG/1.1/DTD/svg11.dtd">
<!-- Generated by graphviz version 2.49.3 (0)
 -->
<!-- Title: appendable Pages: 1 -->
<svg width="79pt" height="116pt"
 viewBox="0.00 0.00 78.64 116.00" xmlns="http://www.w3.org/2000/svg" xmlns:xlink="http://www.w3.org/1999/xlink">
<g id="graph0" class="graph" transform="scale(1 1) rotate(0) translate(4 112)">
<title>appendable</title>
<polygon fill="transparent" stroke="transparent" points="-4,4 -4,-112 74.64,-112 74.64,4 -4,4"/>
<!-- object -->
<g id="node1" class="node">
<title>object</title>
<g id="a_node1"><a xlink:href="PsyllaReference_Types.xhtml#PsyllaReference_Types_Details_object" xlink:title="object" target="_parent">
<polygon fill="linen" stroke="black" points="56.32,-108 8.32,-108 8.32,-72 62.32,-72 62.32,-102 56.32,-108"/>
<polyline fill="none" stroke="black" points="56.32,-108 56.32,-102 "/>
<polyline fill="none" stroke="black" points="62.32,-102 56.32,-102 "/>
<text text-anchor="middle" x="35.32" y="-86.4" font-family="Source Code Pro,monospace" font-size="12.00">object</text>
</a>
</g>
</g>
<!-- appendable -->
<g id="node2" class="node">
<title>appendable</title>
<g id="a_node2"><a xlink:href="PsyllaReference_Types.xhtml#PsyllaReference_Types_Details_appendable" xlink:title="appendable" target="_parent">
<polygon fill="wheat" stroke="black" points="64.46,-36 0.18,-36 0.18,0 70.46,0 70.46,-30 64.46,-36"/>
<polyline fill="none" stroke="black" points="64.46,-36 64.46,-30 "/>
<polyline fill="none" stroke="black" points="70.46,-30 64.46,-30 "/>
<text text-anchor="middle" x="35.32" y="-14.4" font-family="Source Code Pro,monospace" font-size="12.00">appendable</text>
</a>
</g>
</g>
<!-- object&#45;&gt;appendable -->
<g id="edge1" class="edge">
<title>object&#45;&gt;appendable</title>
<path fill="none" stroke="black" d="M35.32,-71.7C35.32,-63.98 35.32,-54.71 35.32,-46.11"/>
<polygon fill="black" stroke="black" points="38.82,-46.1 35.32,-36.1 31.82,-46.1 38.82,-46.1"/>
</g>
</g>
</svg>
