<?xml version="1.0" encoding="UTF-8" standalone="no"?>
<!DOCTYPE svg PUBLIC "-//W3C//DTD SVG 1.1//EN"
 "http://www.w3.org/Graphics/SVG/1.1/DTD/svg11.dtd">
<!-- Generated by graphviz version 2.43.0 (0)
 -->
<!-- Title: bitarray Pages: 1 -->
<svg width="684pt" height="476pt"
 viewBox="0.00 0.00 684.00 476.00" xmlns="http://www.w3.org/2000/svg" xmlns:xlink="http://www.w3.org/1999/xlink">
<g id="graph0" class="graph" transform="scale(1 1) rotate(0) translate(4 472)">
<title>bitarray</title>
<polygon fill="transparent" stroke="transparent" points="-4,4 -4,-472 680,-472 680,4 -4,4"/>
<!-- formalarray -->
<g id="node1" class="node">
<title>formalarray</title>
<g id="a_node1"><a xlink:href="PsyllaReference_Types.xhtml#PsyllaReference_Types_Details_formalarray" xlink:title="formalarray" target="_parent">
<polygon fill="linen" stroke="black" points="293,-108 150,-108 150,-72 299,-72 299,-102 293,-108"/>
<polyline fill="none" stroke="black" points="293,-108 293,-102 "/>
<polyline fill="none" stroke="black" points="299,-102 293,-102 "/>
<text text-anchor="middle" x="224.5" y="-85" font-family="PT Mono, monospace" font-size="20.00">formalarray</text>
</a>
</g>
</g>
<!-- bitarray -->
<g id="node3" class="node">
<title>bitarray</title>
<g id="a_node3"><a xlink:href="PsyllaReference_Types.xhtml#PsyllaReference_Types_Details_bitarray" xlink:title="bitarray" target="_parent">
<polygon fill="wheat" stroke="black" points="346,-36 239,-36 239,0 352,0 352,-30 346,-36"/>
<polyline fill="none" stroke="black" points="346,-36 346,-30 "/>
<polyline fill="none" stroke="black" points="352,-30 346,-30 "/>
<text text-anchor="middle" x="295.5" y="-13" font-family="PT Mono, monospace" font-size="20.00">bitarray</text>
</a>
</g>
</g>
<!-- formalarray&#45;&gt;bitarray -->
<g id="edge1" class="edge">
<title>formalarray&#45;&gt;bitarray</title>
<path fill="none" stroke="black" d="M242.05,-71.7C250.73,-63.14 261.36,-52.66 270.85,-43.3"/>
<polygon fill="black" stroke="black" points="273.49,-45.62 278.15,-36.1 268.57,-40.63 273.49,-45.62"/>
</g>
<!-- bitwise -->
<g id="node2" class="node">
<title>bitwise</title>
<g id="a_node2"><a xlink:href="PsyllaReference_Types.xhtml#PsyllaReference_Types_Details_bitwise" xlink:title="bitwise" target="_parent">
<polygon fill="linen" stroke="black" points="533,-108 438,-108 438,-72 539,-72 539,-102 533,-108"/>
<polyline fill="none" stroke="black" points="533,-108 533,-102 "/>
<polyline fill="none" stroke="black" points="539,-102 533,-102 "/>
<text text-anchor="middle" x="488.5" y="-85" font-family="PT Mono, monospace" font-size="20.00">bitwise</text>
</a>
</g>
</g>
<!-- bitwise&#45;&gt;bitarray -->
<g id="edge2" class="edge">
<title>bitwise&#45;&gt;bitarray</title>
<path fill="none" stroke="black" d="M441.29,-71.88C414.43,-62.14 380.62,-49.87 352.32,-39.61"/>
<polygon fill="black" stroke="black" points="353.15,-36.19 342.56,-36.07 350.77,-42.77 353.15,-36.19"/>
</g>
<!-- appendable -->
<g id="node4" class="node">
<title>appendable</title>
<g id="a_node4"><a xlink:href="PsyllaReference_Types.xhtml#PsyllaReference_Types_Details_appendable" xlink:title="appendable" target="_parent">
<polygon fill="linen" stroke="black" points="190,-252 59,-252 59,-216 196,-216 196,-246 190,-252"/>
<polyline fill="none" stroke="black" points="190,-252 190,-246 "/>
<polyline fill="none" stroke="black" points="196,-246 190,-246 "/>
<text text-anchor="middle" x="127.5" y="-229" font-family="PT Mono, monospace" font-size="20.00">appendable</text>
</a>
</g>
</g>
<!-- appendable&#45;&gt;formalarray -->
<g id="edge3" class="edge">
<title>appendable&#45;&gt;formalarray</title>
<path fill="none" stroke="black" d="M139.2,-215.87C156.1,-191.14 187.45,-145.24 207.07,-116.51"/>
<polygon fill="black" stroke="black" points="210.01,-118.42 212.76,-108.19 204.23,-114.47 210.01,-118.42"/>
</g>
<!-- container -->
<g id="node5" class="node">
<title>container</title>
<g id="a_node5"><a xlink:href="PsyllaReference_Types.xhtml#PsyllaReference_Types_Details_container" xlink:title="container" target="_parent">
<polygon fill="linen" stroke="black" points="441,-180 322,-180 322,-144 447,-144 447,-174 441,-180"/>
<polyline fill="none" stroke="black" points="441,-180 441,-174 "/>
<polyline fill="none" stroke="black" points="447,-174 441,-174 "/>
<text text-anchor="middle" x="384.5" y="-157" font-family="PT Mono, monospace" font-size="20.00">container</text>
</a>
</g>
</g>
<!-- container&#45;&gt;formalarray -->
<g id="edge4" class="edge">
<title>container&#45;&gt;formalarray</title>
<path fill="none" stroke="black" d="M345.36,-143.88C323.49,-134.31 296.04,-122.3 272.84,-112.15"/>
<polygon fill="black" stroke="black" points="274.08,-108.87 263.51,-108.07 271.27,-115.28 274.08,-108.87"/>
</g>
<!-- indexed -->
<g id="node6" class="node">
<title>indexed</title>
<g id="a_node6"><a xlink:href="PsyllaReference_Types.xhtml#PsyllaReference_Types_Details_indexed" xlink:title="indexed" target="_parent">
<polygon fill="linen" stroke="black" points="95,-180 0,-180 0,-144 101,-144 101,-174 95,-180"/>
<polyline fill="none" stroke="black" points="95,-180 95,-174 "/>
<polyline fill="none" stroke="black" points="101,-174 95,-174 "/>
<text text-anchor="middle" x="50.5" y="-157" font-family="PT Mono, monospace" font-size="20.00">indexed</text>
</a>
</g>
</g>
<!-- indexed&#45;&gt;formalarray -->
<g id="edge5" class="edge">
<title>indexed&#45;&gt;formalarray</title>
<path fill="none" stroke="black" d="M93.07,-143.88C117.06,-134.22 147.23,-122.09 172.6,-111.88"/>
<polygon fill="black" stroke="black" points="174.1,-115.05 182.07,-108.07 171.49,-108.55 174.1,-115.05"/>
</g>
<!-- sequential -->
<g id="node7" class="node">
<title>sequential</title>
<g id="a_node7"><a xlink:href="PsyllaReference_Types.xhtml#PsyllaReference_Types_Details_sequential" xlink:title="sequential" target="_parent">
<polygon fill="linen" stroke="black" points="369,-396 238,-396 238,-360 375,-360 375,-390 369,-396"/>
<polyline fill="none" stroke="black" points="369,-396 369,-390 "/>
<polyline fill="none" stroke="black" points="375,-390 369,-390 "/>
<text text-anchor="middle" x="306.5" y="-373" font-family="PT Mono, monospace" font-size="20.00">sequential</text>
</a>
</g>
</g>
<!-- sequential&#45;&gt;formalarray -->
<g id="edge6" class="edge">
<title>sequential&#45;&gt;formalarray</title>
<path fill="none" stroke="black" d="M266.86,-359.94C252.1,-351.42 236.91,-339.55 228.5,-324 192.45,-257.3 207.03,-163.4 217.44,-117.86"/>
<polygon fill="black" stroke="black" points="220.85,-118.67 219.77,-108.13 214.04,-117.04 220.85,-118.67"/>
</g>
<!-- streamable -->
<g id="node13" class="node">
<title>streamable</title>
<g id="a_node13"><a xlink:href="PsyllaReference_Types.xhtml#PsyllaReference_Types_Details_streamable" xlink:title="streamable" target="_parent">
<polygon fill="linen" stroke="black" points="369,-324 238,-324 238,-288 375,-288 375,-318 369,-324"/>
<polyline fill="none" stroke="black" points="369,-324 369,-318 "/>
<polyline fill="none" stroke="black" points="375,-318 369,-318 "/>
<text text-anchor="middle" x="306.5" y="-301" font-family="PT Mono, monospace" font-size="20.00">streamable</text>
</a>
</g>
</g>
<!-- sequential&#45;&gt;streamable -->
<g id="edge18" class="edge">
<title>sequential&#45;&gt;streamable</title>
<path fill="none" stroke="black" d="M306.5,-359.7C306.5,-351.98 306.5,-342.71 306.5,-334.11"/>
<polygon fill="black" stroke="black" points="310,-334.1 306.5,-324.1 303,-334.1 310,-334.1"/>
</g>
<!-- logical -->
<g id="node8" class="node">
<title>logical</title>
<g id="a_node8"><a xlink:href="PsyllaReference_Types.xhtml#PsyllaReference_Types_Details_logical" xlink:title="logical" target="_parent">
<polygon fill="linen" stroke="black" points="670,-396 575,-396 575,-360 676,-360 676,-390 670,-396"/>
<polyline fill="none" stroke="black" points="670,-396 670,-390 "/>
<polyline fill="none" stroke="black" points="676,-390 670,-390 "/>
<text text-anchor="middle" x="625.5" y="-373" font-family="PT Mono, monospace" font-size="20.00">logical</text>
</a>
</g>
</g>
<!-- logical&#45;&gt;bitwise -->
<g id="edge7" class="edge">
<title>logical&#45;&gt;bitwise</title>
<path fill="none" stroke="black" d="M624.07,-359.72C621.02,-329.3 612.09,-264.8 588.5,-216 569.62,-176.94 536.58,-139.04 513.67,-115.4"/>
<polygon fill="black" stroke="black" points="516.13,-112.91 506.62,-108.25 511.15,-117.83 516.13,-112.91"/>
</g>
<!-- object -->
<g id="node9" class="node">
<title>object</title>
<g id="a_node9"><a xlink:href="PsyllaReference_Types.xhtml#PsyllaReference_Types_Details_object" xlink:title="object" target="_parent">
<polygon fill="linen" stroke="black" points="419,-468 336,-468 336,-432 425,-432 425,-462 419,-468"/>
<polyline fill="none" stroke="black" points="419,-468 419,-462 "/>
<polyline fill="none" stroke="black" points="425,-462 419,-462 "/>
<text text-anchor="middle" x="380.5" y="-445" font-family="PT Mono, monospace" font-size="20.00">object</text>
</a>
</g>
</g>
<!-- object&#45;&gt;appendable -->
<g id="edge8" class="edge">
<title>object&#45;&gt;appendable</title>
<path fill="none" stroke="black" d="M335.72,-441.62C303.21,-434.43 259.64,-420.82 228.5,-396 183.18,-359.87 152.5,-297.52 137.71,-261.94"/>
<polygon fill="black" stroke="black" points="140.78,-260.2 133.79,-252.24 134.29,-262.82 140.78,-260.2"/>
</g>
<!-- object&#45;&gt;indexed -->
<g id="edge12" class="edge">
<title>object&#45;&gt;indexed</title>
<path fill="none" stroke="black" d="M335.93,-443.16C295.92,-436.43 236.7,-422.66 191.5,-396 114.08,-350.34 83.61,-335.16 49.5,-252 41.46,-232.4 42.32,-208.27 44.85,-190.08"/>
<polygon fill="black" stroke="black" points="48.32,-190.57 46.48,-180.14 41.41,-189.44 48.32,-190.57"/>
</g>
<!-- object&#45;&gt;sequential -->
<g id="edge13" class="edge">
<title>object&#45;&gt;sequential</title>
<path fill="none" stroke="black" d="M362.21,-431.7C353.07,-423.05 341.86,-412.45 331.9,-403.03"/>
<polygon fill="black" stroke="black" points="334.25,-400.43 324.58,-396.1 329.44,-405.52 334.25,-400.43"/>
</g>
<!-- object&#45;&gt;logical -->
<g id="edge14" class="edge">
<title>object&#45;&gt;logical</title>
<path fill="none" stroke="black" d="M425.15,-436.24C464.33,-425.05 521.66,-408.67 564.96,-396.3"/>
<polygon fill="black" stroke="black" points="566.16,-399.6 574.81,-393.48 564.23,-392.86 566.16,-399.6"/>
</g>
<!-- clearable -->
<g id="node10" class="node">
<title>clearable</title>
<g id="a_node10"><a xlink:href="PsyllaReference_Types.xhtml#PsyllaReference_Types_Details_clearable" xlink:title="clearable" target="_parent">
<polygon fill="linen" stroke="black" points="512,-324 393,-324 393,-288 518,-288 518,-318 512,-324"/>
<polyline fill="none" stroke="black" points="512,-324 512,-318 "/>
<polyline fill="none" stroke="black" points="518,-318 512,-318 "/>
<text text-anchor="middle" x="455.5" y="-301" font-family="PT Mono, monospace" font-size="20.00">clearable</text>
</a>
</g>
</g>
<!-- object&#45;&gt;clearable -->
<g id="edge15" class="edge">
<title>object&#45;&gt;clearable</title>
<path fill="none" stroke="black" d="M389.55,-431.87C402.5,-407.35 426.43,-362.03 441.63,-333.26"/>
<polygon fill="black" stroke="black" points="444.85,-334.67 446.42,-324.19 438.66,-331.4 444.85,-334.67"/>
</g>
<!-- lengthy -->
<g id="node12" class="node">
<title>lengthy</title>
<g id="a_node12"><a xlink:href="PsyllaReference_Types.xhtml#PsyllaReference_Types_Details_lengthy" xlink:title="lengthy" target="_parent">
<polygon fill="linen" stroke="black" points="574,-252 479,-252 479,-216 580,-216 580,-246 574,-252"/>
<polyline fill="none" stroke="black" points="574,-252 574,-246 "/>
<polyline fill="none" stroke="black" points="580,-246 574,-246 "/>
<text text-anchor="middle" x="529.5" y="-229" font-family="PT Mono, monospace" font-size="20.00">lengthy</text>
</a>
</g>
</g>
<!-- object&#45;&gt;lengthy -->
<g id="edge17" class="edge">
<title>object&#45;&gt;lengthy</title>
<path fill="none" stroke="black" d="M413.37,-431.84C448.56,-411.43 502.57,-373.77 526.5,-324 535.74,-304.78 535.89,-280.44 534.07,-262.07"/>
<polygon fill="black" stroke="black" points="537.53,-261.52 532.82,-252.03 530.58,-262.38 537.53,-261.52"/>
</g>
<!-- clearable&#45;&gt;container -->
<g id="edge9" class="edge">
<title>clearable&#45;&gt;container</title>
<path fill="none" stroke="black" d="M446.94,-287.87C434.68,-263.35 412.02,-218.03 397.63,-189.26"/>
<polygon fill="black" stroke="black" points="400.7,-187.57 393.09,-180.19 394.44,-190.7 400.7,-187.57"/>
</g>
<!-- iterable -->
<g id="node11" class="node">
<title>iterable</title>
<g id="a_node11"><a xlink:href="PsyllaReference_Types.xhtml#PsyllaReference_Types_Details_iterable" xlink:title="iterable" target="_parent">
<polygon fill="linen" stroke="black" points="387,-252 280,-252 280,-216 393,-216 393,-246 387,-252"/>
<polyline fill="none" stroke="black" points="387,-252 387,-246 "/>
<polyline fill="none" stroke="black" points="393,-246 387,-246 "/>
<text text-anchor="middle" x="336.5" y="-229" font-family="PT Mono, monospace" font-size="20.00">iterable</text>
</a>
</g>
</g>
<!-- iterable&#45;&gt;container -->
<g id="edge10" class="edge">
<title>iterable&#45;&gt;container</title>
<path fill="none" stroke="black" d="M348.37,-215.7C354,-207.47 360.85,-197.48 367.07,-188.42"/>
<polygon fill="black" stroke="black" points="370,-190.33 372.77,-180.1 364.23,-186.37 370,-190.33"/>
</g>
<!-- lengthy&#45;&gt;container -->
<g id="edge11" class="edge">
<title>lengthy&#45;&gt;container</title>
<path fill="none" stroke="black" d="M494.03,-215.88C474.38,-206.39 449.78,-194.51 428.87,-184.42"/>
<polygon fill="black" stroke="black" points="430.38,-181.26 419.86,-180.07 427.34,-187.57 430.38,-181.26"/>
</g>
<!-- streamable&#45;&gt;iterable -->
<g id="edge16" class="edge">
<title>streamable&#45;&gt;iterable</title>
<path fill="none" stroke="black" d="M313.92,-287.7C317.29,-279.81 321.37,-270.3 325.12,-261.55"/>
<polygon fill="black" stroke="black" points="328.45,-262.67 329.17,-252.1 322.01,-259.92 328.45,-262.67"/>
</g>
</g>
</svg>
