<?xml version="1.0" encoding="UTF-8" standalone="no"?>
<!DOCTYPE svg PUBLIC "-//W3C//DTD SVG 1.1//EN"
 "http://www.w3.org/Graphics/SVG/1.1/DTD/svg11.dtd">
<!-- Generated by graphviz version 2.49.3 (0)
 -->
<!-- Title: complex Pages: 1 -->
<svg width="218pt" height="332pt"
 viewBox="0.00 0.00 218.33 332.00" xmlns="http://www.w3.org/2000/svg" xmlns:xlink="http://www.w3.org/1999/xlink">
<g id="graph0" class="graph" transform="scale(1 1) rotate(0) translate(4 328)">
<title>complex</title>
<polygon fill="transparent" stroke="transparent" points="-4,4 -4,-328 214.33,-328 214.33,4 -4,4"/>
<!-- numeric -->
<g id="node1" class="node">
<title>numeric</title>
<g id="a_node1"><a xlink:href="PsyllaReference_Types.xhtml#PsyllaReference_Types_Details_numeric" xlink:title="numeric" target="_parent">
<polygon fill="linen" stroke="black" points="86.82,-108 37.18,-108 37.18,-72 92.82,-72 92.82,-102 86.82,-108"/>
<polyline fill="none" stroke="black" points="86.82,-108 86.82,-102 "/>
<polyline fill="none" stroke="black" points="92.82,-102 86.82,-102 "/>
<text text-anchor="middle" x="65" y="-86.4" font-family="Source Code Pro,monospace" font-size="12.00">numeric</text>
</a>
</g>
</g>
<!-- complex -->
<g id="node2" class="node">
<title>complex</title>
<g id="a_node2"><a xlink:href="PsyllaReference_Types.xhtml#PsyllaReference_Types_Details_complex" xlink:title="complex" target="_parent">
<polygon fill="wheat" stroke="black" points="87.82,-36 36.18,-36 36.18,0 93.82,0 93.82,-30 87.82,-36"/>
<polyline fill="none" stroke="black" points="87.82,-36 87.82,-30 "/>
<polyline fill="none" stroke="black" points="93.82,-30 87.82,-30 "/>
<text text-anchor="middle" x="65" y="-14.4" font-family="Source Code Pro,monospace" font-size="12.00">complex</text>
</a>
</g>
</g>
<!-- numeric&#45;&gt;complex -->
<g id="edge1" class="edge">
<title>numeric&#45;&gt;complex</title>
<path fill="none" stroke="black" d="M65,-71.7C65,-63.98 65,-54.71 65,-46.11"/>
<polygon fill="black" stroke="black" points="68.5,-46.1 65,-36.1 61.5,-46.1 68.5,-46.1"/>
</g>
<!-- arithmetic -->
<g id="node3" class="node">
<title>arithmetic</title>
<g id="a_node3"><a xlink:href="PsyllaReference_Types.xhtml#PsyllaReference_Types_Details_arithmetic" xlink:title="arithmetic" target="_parent">
<polygon fill="linen" stroke="black" points="130.15,-180 71.85,-180 71.85,-144 136.15,-144 136.15,-174 130.15,-180"/>
<polyline fill="none" stroke="black" points="130.15,-180 130.15,-174 "/>
<polyline fill="none" stroke="black" points="136.15,-174 130.15,-174 "/>
<text text-anchor="middle" x="104" y="-158.4" font-family="Source Code Pro,monospace" font-size="12.00">arithmetic</text>
</a>
</g>
</g>
<!-- arithmetic&#45;&gt;numeric -->
<g id="edge2" class="edge">
<title>arithmetic&#45;&gt;numeric</title>
<path fill="none" stroke="black" d="M94.36,-143.7C89.87,-135.64 84.44,-125.89 79.48,-116.98"/>
<polygon fill="black" stroke="black" points="82.45,-115.14 74.53,-108.1 76.34,-118.54 82.45,-115.14"/>
</g>
<!-- value -->
<g id="node4" class="node">
<title>value</title>
<g id="a_node4"><a xlink:href="PsyllaReference_Types.xhtml#PsyllaReference_Types_Details_value" xlink:title="value" target="_parent">
<polygon fill="linen" stroke="black" points="48,-180 0,-180 0,-144 54,-144 54,-174 48,-180"/>
<polyline fill="none" stroke="black" points="48,-180 48,-174 "/>
<polyline fill="none" stroke="black" points="54,-174 48,-174 "/>
<text text-anchor="middle" x="27" y="-158.4" font-family="Source Code Pro,monospace" font-size="12.00">value</text>
</a>
</g>
</g>
<!-- value&#45;&gt;numeric -->
<g id="edge3" class="edge">
<title>value&#45;&gt;numeric</title>
<path fill="none" stroke="black" d="M36.39,-143.7C40.76,-135.64 46.06,-125.89 50.9,-116.98"/>
<polygon fill="black" stroke="black" points="54.02,-118.56 55.71,-108.1 47.87,-115.22 54.02,-118.56"/>
</g>
<!-- additive -->
<g id="node5" class="node">
<title>additive</title>
<g id="a_node5"><a xlink:href="PsyllaReference_Types.xhtml#PsyllaReference_Types_Details_additive" xlink:title="additive" target="_parent">
<polygon fill="linen" stroke="black" points="103.16,-252 54.84,-252 54.84,-216 109.16,-216 109.16,-246 103.16,-252"/>
<polyline fill="none" stroke="black" points="103.16,-252 103.16,-246 "/>
<polyline fill="none" stroke="black" points="109.16,-246 103.16,-246 "/>
<text text-anchor="middle" x="82" y="-230.4" font-family="Source Code Pro,monospace" font-size="12.00">additive</text>
</a>
</g>
</g>
<!-- additive&#45;&gt;arithmetic -->
<g id="edge4" class="edge">
<title>additive&#45;&gt;arithmetic</title>
<path fill="none" stroke="black" d="M87.44,-215.7C89.89,-207.9 92.84,-198.51 95.57,-189.83"/>
<polygon fill="black" stroke="black" points="98.96,-190.69 98.62,-180.1 92.29,-188.59 98.96,-190.69"/>
</g>
<!-- multiplicative -->
<g id="node6" class="node">
<title>multiplicative</title>
<g id="a_node6"><a xlink:href="PsyllaReference_Types.xhtml#PsyllaReference_Types_Details_multiplicative" xlink:title="multiplicative" target="_parent">
<polygon fill="linen" stroke="black" points="204.16,-252 127.84,-252 127.84,-216 210.16,-216 210.16,-246 204.16,-252"/>
<polyline fill="none" stroke="black" points="204.16,-252 204.16,-246 "/>
<polyline fill="none" stroke="black" points="210.16,-246 204.16,-246 "/>
<text text-anchor="middle" x="169" y="-230.4" font-family="Source Code Pro,monospace" font-size="12.00">multiplicative</text>
</a>
</g>
</g>
<!-- multiplicative&#45;&gt;arithmetic -->
<g id="edge5" class="edge">
<title>multiplicative&#45;&gt;arithmetic</title>
<path fill="none" stroke="black" d="M152.93,-215.7C145.06,-207.22 135.44,-196.86 126.83,-187.58"/>
<polygon fill="black" stroke="black" points="129.25,-185.05 119.88,-180.1 124.12,-189.81 129.25,-185.05"/>
</g>
<!-- object -->
<g id="node7" class="node">
<title>object</title>
<g id="a_node7"><a xlink:href="PsyllaReference_Types.xhtml#PsyllaReference_Types_Details_object" xlink:title="object" target="_parent">
<polygon fill="linen" stroke="black" points="103,-324 55,-324 55,-288 109,-288 109,-318 103,-324"/>
<polyline fill="none" stroke="black" points="103,-324 103,-318 "/>
<polyline fill="none" stroke="black" points="109,-318 103,-318 "/>
<text text-anchor="middle" x="82" y="-302.4" font-family="Source Code Pro,monospace" font-size="12.00">object</text>
</a>
</g>
</g>
<!-- object&#45;&gt;value -->
<g id="edge6" class="edge">
<title>object&#45;&gt;value</title>
<path fill="none" stroke="black" d="M67.84,-287.85C60.31,-277.93 51.5,-264.89 46,-252 37.59,-232.29 32.76,-208.49 30.07,-190.46"/>
<polygon fill="black" stroke="black" points="33.51,-189.76 28.7,-180.33 26.57,-190.71 33.51,-189.76"/>
</g>
<!-- object&#45;&gt;additive -->
<g id="edge7" class="edge">
<title>object&#45;&gt;additive</title>
<path fill="none" stroke="black" d="M82,-287.7C82,-279.98 82,-270.71 82,-262.11"/>
<polygon fill="black" stroke="black" points="85.5,-262.1 82,-252.1 78.5,-262.1 85.5,-262.1"/>
</g>
<!-- object&#45;&gt;multiplicative -->
<g id="edge8" class="edge">
<title>object&#45;&gt;multiplicative</title>
<path fill="none" stroke="black" d="M103.51,-287.7C114.46,-278.88 127.95,-268.03 139.82,-258.47"/>
<polygon fill="black" stroke="black" points="142.14,-261.1 147.74,-252.1 137.76,-255.65 142.14,-261.1"/>
</g>
</g>
</svg>
