<?xml version="1.0" encoding="UTF-8" standalone="no"?>
<!DOCTYPE svg PUBLIC "-//W3C//DTD SVG 1.1//EN"
 "http://www.w3.org/Graphics/SVG/1.1/DTD/svg11.dtd">
<!-- Generated by graphviz version 2.43.0 (0)
 -->
<!-- Title: namespace Pages: 1 -->
<svg width="506pt" height="548pt"
 viewBox="0.00 0.00 506.00 548.00" xmlns="http://www.w3.org/2000/svg" xmlns:xlink="http://www.w3.org/1999/xlink">
<g id="graph0" class="graph" transform="scale(1 1) rotate(0) translate(4 544)">
<title>namespace</title>
<polygon fill="transparent" stroke="transparent" points="-4,4 -4,-544 502,-544 502,4 -4,4"/>
<!-- dict -->
<g id="node1" class="node">
<title>dict</title>
<g id="a_node1"><a xlink:href="PsyllaReference_Types.xhtml#PsyllaReference_Types_Details_dict" xlink:title="dict" target="_parent">
<polygon fill="linen" stroke="black" points="156,-108 97,-108 97,-72 162,-72 162,-102 156,-108"/>
<polyline fill="none" stroke="black" points="156,-108 156,-102 "/>
<polyline fill="none" stroke="black" points="162,-102 156,-102 "/>
<text text-anchor="middle" x="129.5" y="-85" font-family="PT Mono, monospace" font-size="20.00">dict</text>
</a>
</g>
</g>
<!-- namespace -->
<g id="node2" class="node">
<title>namespace</title>
<g id="a_node2"><a xlink:href="PsyllaReference_Types.xhtml#PsyllaReference_Types_Details_namespace" xlink:title="namespace" target="_parent">
<polygon fill="wheat" stroke="black" points="186,-36 67,-36 67,0 192,0 192,-30 186,-36"/>
<polyline fill="none" stroke="black" points="186,-36 186,-30 "/>
<polyline fill="none" stroke="black" points="192,-30 186,-30 "/>
<text text-anchor="middle" x="129.5" y="-13" font-family="PT Mono, monospace" font-size="20.00">namespace</text>
</a>
</g>
</g>
<!-- dict&#45;&gt;namespace -->
<g id="edge1" class="edge">
<title>dict&#45;&gt;namespace</title>
<path fill="none" stroke="black" d="M129.5,-71.7C129.5,-63.98 129.5,-54.71 129.5,-46.11"/>
<polygon fill="black" stroke="black" points="133,-46.1 129.5,-36.1 126,-46.1 133,-46.1"/>
</g>
<!-- formaldict -->
<g id="node3" class="node">
<title>formaldict</title>
<g id="a_node3"><a xlink:href="PsyllaReference_Types.xhtml#PsyllaReference_Types_Details_formaldict" xlink:title="formaldict" target="_parent">
<polygon fill="linen" stroke="black" points="192,-180 61,-180 61,-144 198,-144 198,-174 192,-180"/>
<polyline fill="none" stroke="black" points="192,-180 192,-174 "/>
<polyline fill="none" stroke="black" points="198,-174 192,-174 "/>
<text text-anchor="middle" x="129.5" y="-157" font-family="PT Mono, monospace" font-size="20.00">formaldict</text>
</a>
</g>
</g>
<!-- formaldict&#45;&gt;dict -->
<g id="edge2" class="edge">
<title>formaldict&#45;&gt;dict</title>
<path fill="none" stroke="black" d="M129.5,-143.7C129.5,-135.98 129.5,-126.71 129.5,-118.11"/>
<polygon fill="black" stroke="black" points="133,-118.1 129.5,-108.1 126,-118.1 133,-118.1"/>
</g>
<!-- container -->
<g id="node4" class="node">
<title>container</title>
<g id="a_node4"><a xlink:href="PsyllaReference_Types.xhtml#PsyllaReference_Types_Details_container" xlink:title="container" target="_parent">
<polygon fill="linen" stroke="black" points="365,-252 246,-252 246,-216 371,-216 371,-246 365,-252"/>
<polyline fill="none" stroke="black" points="365,-252 365,-246 "/>
<polyline fill="none" stroke="black" points="371,-246 365,-246 "/>
<text text-anchor="middle" x="308.5" y="-229" font-family="PT Mono, monospace" font-size="20.00">container</text>
</a>
</g>
</g>
<!-- container&#45;&gt;formaldict -->
<g id="edge3" class="edge">
<title>container&#45;&gt;formaldict</title>
<path fill="none" stroke="black" d="M264.71,-215.88C239.92,-206.18 208.72,-193.98 182.54,-183.74"/>
<polygon fill="black" stroke="black" points="183.73,-180.45 173.15,-180.07 181.18,-186.97 183.73,-180.45"/>
</g>
<!-- indexed -->
<g id="node5" class="node">
<title>indexed</title>
<g id="a_node5"><a xlink:href="PsyllaReference_Types.xhtml#PsyllaReference_Types_Details_indexed" xlink:title="indexed" target="_parent">
<polygon fill="linen" stroke="black" points="95,-324 0,-324 0,-288 101,-288 101,-318 95,-324"/>
<polyline fill="none" stroke="black" points="95,-324 95,-318 "/>
<polyline fill="none" stroke="black" points="101,-318 95,-318 "/>
<text text-anchor="middle" x="50.5" y="-301" font-family="PT Mono, monospace" font-size="20.00">indexed</text>
</a>
</g>
</g>
<!-- indexed&#45;&gt;formaldict -->
<g id="edge4" class="edge">
<title>indexed&#45;&gt;formaldict</title>
<path fill="none" stroke="black" d="M60.03,-287.87C73.67,-263.35 98.88,-218.03 114.89,-189.26"/>
<polygon fill="black" stroke="black" points="118.13,-190.63 119.94,-180.19 112.02,-187.23 118.13,-190.63"/>
</g>
<!-- sequential -->
<g id="node6" class="node">
<title>sequential</title>
<g id="a_node6"><a xlink:href="PsyllaReference_Types.xhtml#PsyllaReference_Types_Details_sequential" xlink:title="sequential" target="_parent">
<polygon fill="linen" stroke="black" points="289,-468 158,-468 158,-432 295,-432 295,-462 289,-468"/>
<polyline fill="none" stroke="black" points="289,-468 289,-462 "/>
<polyline fill="none" stroke="black" points="295,-462 289,-462 "/>
<text text-anchor="middle" x="226.5" y="-445" font-family="PT Mono, monospace" font-size="20.00">sequential</text>
</a>
</g>
</g>
<!-- sequential&#45;&gt;formaldict -->
<g id="edge5" class="edge">
<title>sequential&#45;&gt;formaldict</title>
<path fill="none" stroke="black" d="M187.77,-431.89C172.96,-423.32 157.49,-411.42 148.5,-396 110.28,-330.43 117.76,-236.32 124.57,-190.36"/>
<polygon fill="black" stroke="black" points="128.06,-190.7 126.17,-180.27 121.15,-189.6 128.06,-190.7"/>
</g>
<!-- streamable -->
<g id="node11" class="node">
<title>streamable</title>
<g id="a_node11"><a xlink:href="PsyllaReference_Types.xhtml#PsyllaReference_Types_Details_streamable" xlink:title="streamable" target="_parent">
<polygon fill="linen" stroke="black" points="289,-396 158,-396 158,-360 295,-360 295,-390 289,-396"/>
<polyline fill="none" stroke="black" points="289,-396 289,-390 "/>
<polyline fill="none" stroke="black" points="295,-390 289,-390 "/>
<text text-anchor="middle" x="226.5" y="-373" font-family="PT Mono, monospace" font-size="20.00">streamable</text>
</a>
</g>
</g>
<!-- sequential&#45;&gt;streamable -->
<g id="edge14" class="edge">
<title>sequential&#45;&gt;streamable</title>
<path fill="none" stroke="black" d="M226.5,-431.7C226.5,-423.98 226.5,-414.71 226.5,-406.11"/>
<polygon fill="black" stroke="black" points="230,-406.1 226.5,-396.1 223,-406.1 230,-406.1"/>
</g>
<!-- clearable -->
<g id="node7" class="node">
<title>clearable</title>
<g id="a_node7"><a xlink:href="PsyllaReference_Types.xhtml#PsyllaReference_Types_Details_clearable" xlink:title="clearable" target="_parent">
<polygon fill="linen" stroke="black" points="432,-396 313,-396 313,-360 438,-360 438,-390 432,-396"/>
<polyline fill="none" stroke="black" points="432,-396 432,-390 "/>
<polyline fill="none" stroke="black" points="438,-390 432,-390 "/>
<text text-anchor="middle" x="375.5" y="-373" font-family="PT Mono, monospace" font-size="20.00">clearable</text>
</a>
</g>
</g>
<!-- clearable&#45;&gt;container -->
<g id="edge6" class="edge">
<title>clearable&#45;&gt;container</title>
<path fill="none" stroke="black" d="M367.42,-359.87C355.85,-335.35 334.47,-290.03 320.89,-261.26"/>
<polygon fill="black" stroke="black" points="324.04,-259.74 316.61,-252.19 317.71,-262.73 324.04,-259.74"/>
</g>
<!-- iterable -->
<g id="node8" class="node">
<title>iterable</title>
<g id="a_node8"><a xlink:href="PsyllaReference_Types.xhtml#PsyllaReference_Types_Details_iterable" xlink:title="iterable" target="_parent">
<polygon fill="linen" stroke="black" points="309,-324 202,-324 202,-288 315,-288 315,-318 309,-324"/>
<polyline fill="none" stroke="black" points="309,-324 309,-318 "/>
<polyline fill="none" stroke="black" points="315,-318 309,-318 "/>
<text text-anchor="middle" x="258.5" y="-301" font-family="PT Mono, monospace" font-size="20.00">iterable</text>
</a>
</g>
</g>
<!-- iterable&#45;&gt;container -->
<g id="edge7" class="edge">
<title>iterable&#45;&gt;container</title>
<path fill="none" stroke="black" d="M270.86,-287.7C276.73,-279.47 283.87,-269.48 290.34,-260.42"/>
<polygon fill="black" stroke="black" points="293.32,-262.28 296.28,-252.1 287.62,-258.21 293.32,-262.28"/>
</g>
<!-- lengthy -->
<g id="node9" class="node">
<title>lengthy</title>
<g id="a_node9"><a xlink:href="PsyllaReference_Types.xhtml#PsyllaReference_Types_Details_lengthy" xlink:title="lengthy" target="_parent">
<polygon fill="linen" stroke="black" points="492,-468 397,-468 397,-432 498,-432 498,-462 492,-468"/>
<polyline fill="none" stroke="black" points="492,-468 492,-462 "/>
<polyline fill="none" stroke="black" points="498,-462 492,-462 "/>
<text text-anchor="middle" x="447.5" y="-445" font-family="PT Mono, monospace" font-size="20.00">lengthy</text>
</a>
</g>
</g>
<!-- lengthy&#45;&gt;container -->
<g id="edge8" class="edge">
<title>lengthy&#45;&gt;container</title>
<path fill="none" stroke="black" d="M451.24,-431.73C454.39,-413.13 456.9,-383.11 446.5,-360 426.22,-314.95 380.96,-279.13 347.79,-257.59"/>
<polygon fill="black" stroke="black" points="349.53,-254.55 339.21,-252.16 345.78,-260.46 349.53,-254.55"/>
</g>
<!-- object -->
<g id="node10" class="node">
<title>object</title>
<g id="a_node10"><a xlink:href="PsyllaReference_Types.xhtml#PsyllaReference_Types_Details_object" xlink:title="object" target="_parent">
<polygon fill="linen" stroke="black" points="313,-540 230,-540 230,-504 319,-504 319,-534 313,-540"/>
<polyline fill="none" stroke="black" points="313,-540 313,-534 "/>
<polyline fill="none" stroke="black" points="319,-534 313,-534 "/>
<text text-anchor="middle" x="274.5" y="-517" font-family="PT Mono, monospace" font-size="20.00">object</text>
</a>
</g>
</g>
<!-- object&#45;&gt;indexed -->
<g id="edge9" class="edge">
<title>object&#45;&gt;indexed</title>
<path fill="none" stroke="black" d="M229.96,-509.75C204,-501.49 171.87,-488.14 148.5,-468 105.18,-430.68 75.33,-369.29 60.76,-334.08"/>
<polygon fill="black" stroke="black" points="63.87,-332.44 56.89,-324.47 57.37,-335.05 63.87,-332.44"/>
</g>
<!-- object&#45;&gt;sequential -->
<g id="edge10" class="edge">
<title>object&#45;&gt;sequential</title>
<path fill="none" stroke="black" d="M262.63,-503.7C257,-495.47 250.15,-485.48 243.93,-476.42"/>
<polygon fill="black" stroke="black" points="246.77,-474.37 238.23,-468.1 241,-478.33 246.77,-474.37"/>
</g>
<!-- object&#45;&gt;clearable -->
<g id="edge11" class="edge">
<title>object&#45;&gt;clearable</title>
<path fill="none" stroke="black" d="M286.68,-503.87C304.28,-479.14 336.92,-433.24 357.35,-404.51"/>
<polygon fill="black" stroke="black" points="360.33,-406.37 363.27,-396.19 354.63,-402.31 360.33,-406.37"/>
</g>
<!-- object&#45;&gt;lengthy -->
<g id="edge13" class="edge">
<title>object&#45;&gt;lengthy</title>
<path fill="none" stroke="black" d="M316.82,-503.88C340.68,-494.22 370.67,-482.09 395.9,-471.88"/>
<polygon fill="black" stroke="black" points="397.36,-475.06 405.32,-468.07 394.73,-468.57 397.36,-475.06"/>
</g>
<!-- streamable&#45;&gt;iterable -->
<g id="edge12" class="edge">
<title>streamable&#45;&gt;iterable</title>
<path fill="none" stroke="black" d="M234.41,-359.7C238.05,-351.73 242.45,-342.1 246.49,-333.26"/>
<polygon fill="black" stroke="black" points="249.71,-334.65 250.68,-324.1 243.34,-331.74 249.71,-334.65"/>
</g>
</g>
</svg>
