<?xml version="1.0" encoding="UTF-8" standalone="no"?>
<!DOCTYPE svg PUBLIC "-//W3C//DTD SVG 1.1//EN"
 "http://www.w3.org/Graphics/SVG/1.1/DTD/svg11.dtd">
<!-- Generated by graphviz version 2.49.3 (0)
 -->
<!-- Title: multiplicative Pages: 1 -->
<svg width="91pt" height="116pt"
 viewBox="0.00 0.00 90.66 116.00" xmlns="http://www.w3.org/2000/svg" xmlns:xlink="http://www.w3.org/1999/xlink">
<g id="graph0" class="graph" transform="scale(1 1) rotate(0) translate(4 112)">
<title>multiplicative</title>
<polygon fill="transparent" stroke="transparent" points="-4,4 -4,-112 86.66,-112 86.66,4 -4,4"/>
<!-- object -->
<g id="node1" class="node">
<title>object</title>
<g id="a_node1"><a xlink:href="PsyllaReference_Types.xhtml#PsyllaReference_Types_Details_object" xlink:title="object" target="_parent">
<polygon fill="linen" stroke="black" points="62.33,-108 14.33,-108 14.33,-72 68.33,-72 68.33,-102 62.33,-108"/>
<polyline fill="none" stroke="black" points="62.33,-108 62.33,-102 "/>
<polyline fill="none" stroke="black" points="68.33,-102 62.33,-102 "/>
<text text-anchor="middle" x="41.33" y="-86.4" font-family="Source Code Pro,monospace" font-size="12.00">object</text>
</a>
</g>
</g>
<!-- multiplicative -->
<g id="node2" class="node">
<title>multiplicative</title>
<g id="a_node2"><a xlink:href="PsyllaReference_Types.xhtml#PsyllaReference_Types_Details_multiplicative" xlink:title="multiplicative" target="_parent">
<polygon fill="wheat" stroke="black" points="76.49,-36 0.17,-36 0.17,0 82.49,0 82.49,-30 76.49,-36"/>
<polyline fill="none" stroke="black" points="76.49,-36 76.49,-30 "/>
<polyline fill="none" stroke="black" points="82.49,-30 76.49,-30 "/>
<text text-anchor="middle" x="41.33" y="-14.4" font-family="Source Code Pro,monospace" font-size="12.00">multiplicative</text>
</a>
</g>
</g>
<!-- object&#45;&gt;multiplicative -->
<g id="edge1" class="edge">
<title>object&#45;&gt;multiplicative</title>
<path fill="none" stroke="black" d="M41.33,-71.7C41.33,-63.98 41.33,-54.71 41.33,-46.11"/>
<polygon fill="black" stroke="black" points="44.83,-46.1 41.33,-36.1 37.83,-46.1 44.83,-46.1"/>
</g>
</g>
</svg>
