<?xml version="1.0" encoding="UTF-8" standalone="no"?>
<!DOCTYPE svg PUBLIC "-//W3C//DTD SVG 1.1//EN"
 "http://www.w3.org/Graphics/SVG/1.1/DTD/svg11.dtd">
<!-- Generated by graphviz version 2.43.0 (0)
 -->
<!-- Title: stringreader Pages: 1 -->
<svg width="300pt" height="332pt"
 viewBox="0.00 0.00 300.00 332.00" xmlns="http://www.w3.org/2000/svg" xmlns:xlink="http://www.w3.org/1999/xlink">
<g id="graph0" class="graph" transform="scale(1 1) rotate(0) translate(4 328)">
<title>stringreader</title>
<polygon fill="transparent" stroke="transparent" points="-4,4 -4,-328 296,-328 296,4 -4,4"/>
<!-- reader -->
<g id="node1" class="node">
<title>reader</title>
<g id="a_node1"><a xlink:href="PsyllaReference_Types.xhtml#PsyllaReference_Types_Details_reader" xlink:title="reader" target="_parent">
<polygon fill="linen" stroke="black" points="177.5,-108 129.5,-108 129.5,-72 183.5,-72 183.5,-102 177.5,-108"/>
<polyline fill="none" stroke="black" points="177.5,-108 177.5,-102 "/>
<polyline fill="none" stroke="black" points="183.5,-102 177.5,-102 "/>
<text text-anchor="middle" x="156.5" y="-87.5" font-family="PT Mono, monospace" font-size="10.00">reader</text>
</a>
</g>
</g>
<!-- stringreader -->
<g id="node2" class="node">
<title>stringreader</title>
<g id="a_node2"><a xlink:href="PsyllaReference_Types.xhtml#PsyllaReference_Types_Details_stringreader" xlink:title="stringreader" target="_parent">
<polygon fill="wheat" stroke="black" points="195,-36 112,-36 112,0 201,0 201,-30 195,-36"/>
<polyline fill="none" stroke="black" points="195,-36 195,-30 "/>
<polyline fill="none" stroke="black" points="201,-30 195,-30 "/>
<text text-anchor="middle" x="156.5" y="-15.5" font-family="PT Mono, monospace" font-size="10.00">stringreader</text>
</a>
</g>
</g>
<!-- reader&#45;&gt;stringreader -->
<g id="edge1" class="edge">
<title>reader&#45;&gt;stringreader</title>
<path fill="none" stroke="black" d="M156.5,-71.7C156.5,-63.98 156.5,-54.71 156.5,-46.11"/>
<polygon fill="black" stroke="black" points="160,-46.1 156.5,-36.1 153,-46.1 160,-46.1"/>
</g>
<!-- closeable -->
<g id="node3" class="node">
<title>closeable</title>
<g id="a_node3"><a xlink:href="PsyllaReference_Types.xhtml#PsyllaReference_Types_Details_closeable" xlink:title="closeable" target="_parent">
<polygon fill="linen" stroke="black" points="65,-180 0,-180 0,-144 71,-144 71,-174 65,-180"/>
<polyline fill="none" stroke="black" points="65,-180 65,-174 "/>
<polyline fill="none" stroke="black" points="71,-174 65,-174 "/>
<text text-anchor="middle" x="35.5" y="-159.5" font-family="PT Mono, monospace" font-size="10.00">closeable</text>
</a>
</g>
</g>
<!-- closeable&#45;&gt;reader -->
<g id="edge2" class="edge">
<title>closeable&#45;&gt;reader</title>
<path fill="none" stroke="black" d="M65.1,-143.88C81.78,-134.23 102.75,-122.1 120.39,-111.89"/>
<polygon fill="black" stroke="black" points="122.37,-114.79 129.27,-106.75 118.87,-108.73 122.37,-114.79"/>
</g>
<!-- evaluable -->
<g id="node4" class="node">
<title>evaluable</title>
<g id="a_node4"><a xlink:href="PsyllaReference_Types.xhtml#PsyllaReference_Types_Details_evaluable" xlink:title="evaluable" target="_parent">
<polygon fill="linen" stroke="black" points="154,-180 89,-180 89,-144 160,-144 160,-174 154,-180"/>
<polyline fill="none" stroke="black" points="154,-180 154,-174 "/>
<polyline fill="none" stroke="black" points="160,-174 154,-174 "/>
<text text-anchor="middle" x="124.5" y="-159.5" font-family="PT Mono, monospace" font-size="10.00">evaluable</text>
</a>
</g>
</g>
<!-- evaluable&#45;&gt;reader -->
<g id="edge3" class="edge">
<title>evaluable&#45;&gt;reader</title>
<path fill="none" stroke="black" d="M132.41,-143.7C136.05,-135.73 140.45,-126.1 144.49,-117.26"/>
<polygon fill="black" stroke="black" points="147.71,-118.65 148.68,-108.1 141.34,-115.74 147.71,-118.65"/>
</g>
<!-- readable -->
<g id="node5" class="node">
<title>readable</title>
<g id="a_node5"><a xlink:href="PsyllaReference_Types.xhtml#PsyllaReference_Types_Details_readable" xlink:title="readable" target="_parent">
<polygon fill="linen" stroke="black" points="286,-180 227,-180 227,-144 292,-144 292,-174 286,-180"/>
<polyline fill="none" stroke="black" points="286,-180 286,-174 "/>
<polyline fill="none" stroke="black" points="292,-174 286,-174 "/>
<text text-anchor="middle" x="259.5" y="-159.5" font-family="PT Mono, monospace" font-size="10.00">readable</text>
</a>
</g>
</g>
<!-- readable&#45;&gt;reader -->
<g id="edge4" class="edge">
<title>readable&#45;&gt;reader</title>
<path fill="none" stroke="black" d="M234.3,-143.88C221.09,-134.89 204.71,-123.76 190.39,-114.03"/>
<polygon fill="black" stroke="black" points="192.03,-110.92 181.79,-108.19 188.1,-116.71 192.03,-110.92"/>
</g>
<!-- resetable -->
<g id="node6" class="node">
<title>resetable</title>
<g id="a_node6"><a xlink:href="PsyllaReference_Types.xhtml#PsyllaReference_Types_Details_resetable" xlink:title="resetable" target="_parent">
<polygon fill="linen" stroke="black" points="213,-252 148,-252 148,-216 219,-216 219,-246 213,-252"/>
<polyline fill="none" stroke="black" points="213,-252 213,-246 "/>
<polyline fill="none" stroke="black" points="219,-246 213,-246 "/>
<text text-anchor="middle" x="183.5" y="-231.5" font-family="PT Mono, monospace" font-size="10.00">resetable</text>
</a>
</g>
</g>
<!-- resetable&#45;&gt;reader -->
<g id="edge5" class="edge">
<title>resetable&#45;&gt;reader</title>
<path fill="none" stroke="black" d="M180.91,-215.89C178.12,-197.93 173.41,-168.9 168.5,-144 166.83,-135.54 164.82,-126.36 162.93,-118.06"/>
<polygon fill="black" stroke="black" points="166.3,-117.09 160.63,-108.13 159.48,-118.67 166.3,-117.09"/>
</g>
<!-- object -->
<g id="node7" class="node">
<title>object</title>
<g id="a_node7"><a xlink:href="PsyllaReference_Types.xhtml#PsyllaReference_Types_Details_object" xlink:title="object" target="_parent">
<polygon fill="linen" stroke="black" points="172.5,-324 124.5,-324 124.5,-288 178.5,-288 178.5,-318 172.5,-324"/>
<polyline fill="none" stroke="black" points="172.5,-324 172.5,-318 "/>
<polyline fill="none" stroke="black" points="178.5,-318 172.5,-318 "/>
<text text-anchor="middle" x="151.5" y="-303.5" font-family="PT Mono, monospace" font-size="10.00">object</text>
</a>
</g>
</g>
<!-- object&#45;&gt;closeable -->
<g id="edge6" class="edge">
<title>object&#45;&gt;closeable</title>
<path fill="none" stroke="black" d="M137.51,-287.87C117.22,-263.03 79.49,-216.85 56.04,-188.14"/>
<polygon fill="black" stroke="black" points="58.58,-185.72 49.54,-180.19 53.16,-190.15 58.58,-185.72"/>
</g>
<!-- object&#45;&gt;evaluable -->
<g id="edge7" class="edge">
<title>object&#45;&gt;evaluable</title>
<path fill="none" stroke="black" d="M146.92,-287.9C144.24,-277.55 140.93,-264.08 138.5,-252 134.37,-231.43 130.72,-207.97 128.19,-190.31"/>
<polygon fill="black" stroke="black" points="131.61,-189.55 126.76,-180.14 124.68,-190.53 131.61,-189.55"/>
</g>
<!-- object&#45;&gt;resetable -->
<g id="edge9" class="edge">
<title>object&#45;&gt;resetable</title>
<path fill="none" stroke="black" d="M159.41,-287.7C163.05,-279.73 167.45,-270.1 171.49,-261.26"/>
<polygon fill="black" stroke="black" points="174.71,-262.65 175.68,-252.1 168.34,-259.74 174.71,-262.65"/>
</g>
<!-- ready -->
<g id="node8" class="node">
<title>ready</title>
<g id="a_node8"><a xlink:href="PsyllaReference_Types.xhtml#PsyllaReference_Types_Details_ready" xlink:title="ready" target="_parent">
<polygon fill="linen" stroke="black" points="285.5,-252 237.5,-252 237.5,-216 291.5,-216 291.5,-246 285.5,-252"/>
<polyline fill="none" stroke="black" points="285.5,-252 285.5,-246 "/>
<polyline fill="none" stroke="black" points="291.5,-246 285.5,-246 "/>
<text text-anchor="middle" x="264.5" y="-231.5" font-family="PT Mono, monospace" font-size="10.00">ready</text>
</a>
</g>
</g>
<!-- object&#45;&gt;ready -->
<g id="edge10" class="edge">
<title>object&#45;&gt;ready</title>
<path fill="none" stroke="black" d="M178.57,-288.23C193.55,-278.95 212.37,-267.29 228.57,-257.26"/>
<polygon fill="black" stroke="black" points="230.6,-260.11 237.26,-251.87 226.92,-254.16 230.6,-260.11"/>
</g>
<!-- ready&#45;&gt;readable -->
<g id="edge8" class="edge">
<title>ready&#45;&gt;readable</title>
<path fill="none" stroke="black" d="M263.26,-215.7C262.71,-207.98 262.05,-198.71 261.44,-190.11"/>
<polygon fill="black" stroke="black" points="264.93,-189.83 260.72,-180.1 257.94,-190.33 264.93,-189.83"/>
</g>
</g>
</svg>
