<?xml version="1.0" encoding="UTF-8" standalone="no"?>
<!DOCTYPE svg PUBLIC "-//W3C//DTD SVG 1.1//EN"
 "http://www.w3.org/Graphics/SVG/1.1/DTD/svg11.dtd">
<!-- Generated by graphviz version 2.49.3 (0)
 -->
<!-- Title: output Pages: 1 -->
<svg width="220pt" height="188pt"
 viewBox="0.00 0.00 219.98 188.00" xmlns="http://www.w3.org/2000/svg" xmlns:xlink="http://www.w3.org/1999/xlink">
<g id="graph0" class="graph" transform="scale(1 1) rotate(0) translate(4 184)">
<title>output</title>
<polygon fill="transparent" stroke="transparent" points="-4,4 -4,-184 215.98,-184 215.98,4 -4,4"/>
<!-- closeable -->
<g id="node1" class="node">
<title>closeable</title>
<g id="a_node1"><a xlink:href="PsyllaReference_Types.xhtml#PsyllaReference_Types_Details_closeable" xlink:title="closeable" target="_parent">
<polygon fill="linen" stroke="black" points="54.47,-108 0.18,-108 0.18,-72 60.47,-72 60.47,-102 54.47,-108"/>
<polyline fill="none" stroke="black" points="54.47,-108 54.47,-102 "/>
<polyline fill="none" stroke="black" points="60.47,-102 54.47,-102 "/>
<text text-anchor="middle" x="30.32" y="-86.4" font-family="Source Code Pro,monospace" font-size="12.00">closeable</text>
</a>
</g>
</g>
<!-- output -->
<g id="node4" class="node">
<title>output</title>
<g id="a_node4"><a xlink:href="PsyllaReference_Types.xhtml#PsyllaReference_Types_Details_output" xlink:title="output" target="_parent">
<polygon fill="wheat" stroke="black" points="129.32,-36 81.32,-36 81.32,0 135.32,0 135.32,-30 129.32,-36"/>
<polyline fill="none" stroke="black" points="129.32,-36 129.32,-30 "/>
<polyline fill="none" stroke="black" points="135.32,-30 129.32,-30 "/>
<text text-anchor="middle" x="108.32" y="-14.4" font-family="Source Code Pro,monospace" font-size="12.00">output</text>
</a>
</g>
</g>
<!-- closeable&#45;&gt;output -->
<g id="edge1" class="edge">
<title>closeable&#45;&gt;output</title>
<path fill="none" stroke="black" d="M49.6,-71.7C59.24,-63.05 71.05,-52.45 81.55,-43.03"/>
<polygon fill="black" stroke="black" points="84.16,-45.39 89.26,-36.1 79.48,-40.18 84.16,-45.39"/>
</g>
<!-- flushable -->
<g id="node2" class="node">
<title>flushable</title>
<g id="a_node2"><a xlink:href="PsyllaReference_Types.xhtml#PsyllaReference_Types_Details_flushable" xlink:title="flushable" target="_parent">
<polygon fill="linen" stroke="black" points="132.31,-108 78.34,-108 78.34,-72 138.31,-72 138.31,-102 132.31,-108"/>
<polyline fill="none" stroke="black" points="132.31,-108 132.31,-102 "/>
<polyline fill="none" stroke="black" points="138.31,-102 132.31,-102 "/>
<text text-anchor="middle" x="108.32" y="-86.4" font-family="Source Code Pro,monospace" font-size="12.00">flushable</text>
</a>
</g>
</g>
<!-- flushable&#45;&gt;output -->
<g id="edge2" class="edge">
<title>flushable&#45;&gt;output</title>
<path fill="none" stroke="black" d="M108.32,-71.7C108.32,-63.98 108.32,-54.71 108.32,-46.11"/>
<polygon fill="black" stroke="black" points="111.82,-46.1 108.32,-36.1 104.82,-46.1 111.82,-46.1"/>
</g>
<!-- writable -->
<g id="node3" class="node">
<title>writable</title>
<g id="a_node3"><a xlink:href="PsyllaReference_Types.xhtml#PsyllaReference_Types_Details_writable" xlink:title="writable" target="_parent">
<polygon fill="linen" stroke="black" points="206.14,-108 156.51,-108 156.51,-72 212.14,-72 212.14,-102 206.14,-108"/>
<polyline fill="none" stroke="black" points="206.14,-108 206.14,-102 "/>
<polyline fill="none" stroke="black" points="212.14,-102 206.14,-102 "/>
<text text-anchor="middle" x="184.32" y="-86.4" font-family="Source Code Pro,monospace" font-size="12.00">writable</text>
</a>
</g>
</g>
<!-- writable&#45;&gt;output -->
<g id="edge3" class="edge">
<title>writable&#45;&gt;output</title>
<path fill="none" stroke="black" d="M165.54,-71.7C156.15,-63.05 144.64,-52.45 134.41,-43.03"/>
<polygon fill="black" stroke="black" points="136.62,-40.3 126.89,-36.1 131.88,-45.45 136.62,-40.3"/>
</g>
<!-- object -->
<g id="node5" class="node">
<title>object</title>
<g id="a_node5"><a xlink:href="PsyllaReference_Types.xhtml#PsyllaReference_Types_Details_object" xlink:title="object" target="_parent">
<polygon fill="linen" stroke="black" points="129.32,-180 81.32,-180 81.32,-144 135.32,-144 135.32,-174 129.32,-180"/>
<polyline fill="none" stroke="black" points="129.32,-180 129.32,-174 "/>
<polyline fill="none" stroke="black" points="135.32,-174 129.32,-174 "/>
<text text-anchor="middle" x="108.32" y="-158.4" font-family="Source Code Pro,monospace" font-size="12.00">object</text>
</a>
</g>
</g>
<!-- object&#45;&gt;closeable -->
<g id="edge4" class="edge">
<title>object&#45;&gt;closeable</title>
<path fill="none" stroke="black" d="M89.04,-143.7C79.41,-135.05 67.59,-124.45 57.09,-115.03"/>
<polygon fill="black" stroke="black" points="59.16,-112.18 49.38,-108.1 54.49,-117.39 59.16,-112.18"/>
</g>
<!-- object&#45;&gt;flushable -->
<g id="edge5" class="edge">
<title>object&#45;&gt;flushable</title>
<path fill="none" stroke="black" d="M108.32,-143.7C108.32,-135.98 108.32,-126.71 108.32,-118.11"/>
<polygon fill="black" stroke="black" points="111.82,-118.1 108.32,-108.1 104.82,-118.1 111.82,-118.1"/>
</g>
<!-- object&#45;&gt;writable -->
<g id="edge6" class="edge">
<title>object&#45;&gt;writable</title>
<path fill="none" stroke="black" d="M127.11,-143.7C136.5,-135.05 148.01,-124.45 158.24,-115.03"/>
<polygon fill="black" stroke="black" points="160.77,-117.45 165.75,-108.1 156.02,-112.3 160.77,-117.45"/>
</g>
</g>
</svg>
