<?xml version="1.0" encoding="UTF-8" standalone="no"?>
<!DOCTYPE svg PUBLIC "-//W3C//DTD SVG 1.1//EN"
 "http://www.w3.org/Graphics/SVG/1.1/DTD/svg11.dtd">
<!-- Generated by graphviz version 2.43.0 (0)
 -->
<!-- Title: reader Pages: 1 -->
<svg width="338pt" height="260pt"
 viewBox="0.00 0.00 337.50 260.00" xmlns="http://www.w3.org/2000/svg" xmlns:xlink="http://www.w3.org/1999/xlink">
<g id="graph0" class="graph" transform="scale(1 1) rotate(0) translate(4 256)">
<title>reader</title>
<polygon fill="transparent" stroke="transparent" points="-4,4 -4,-256 333.5,-256 333.5,4 -4,4"/>
<!-- closeable -->
<g id="node1" class="node">
<title>closeable</title>
<g id="a_node1"><a xlink:href="PsyllaReference_Types.xhtml#PsyllaReference_Types_Details_closeable" xlink:title="closeable" target="_parent">
<polygon fill="linen" stroke="black" points="78,-108 0,-108 0,-72 84,-72 84,-102 78,-108"/>
<polyline fill="none" stroke="black" points="78,-108 78,-102 "/>
<polyline fill="none" stroke="black" points="84,-102 78,-102 "/>
<text text-anchor="middle" x="42" y="-86.9" font-family="PT Mono, monospace" font-size="12.00">closeable</text>
</a>
</g>
</g>
<!-- reader -->
<g id="node5" class="node">
<title>reader</title>
<g id="a_node5"><a xlink:href="PsyllaReference_Types.xhtml#PsyllaReference_Types_Details_reader" xlink:title="reader" target="_parent">
<polygon fill="wheat" stroke="black" points="204,-36 148,-36 148,0 210,0 210,-30 204,-36"/>
<polyline fill="none" stroke="black" points="204,-36 204,-30 "/>
<polyline fill="none" stroke="black" points="210,-30 204,-30 "/>
<text text-anchor="middle" x="179" y="-14.9" font-family="PT Mono, monospace" font-size="12.00">reader</text>
</a>
</g>
</g>
<!-- closeable&#45;&gt;reader -->
<g id="edge1" class="edge">
<title>closeable&#45;&gt;reader</title>
<path fill="none" stroke="black" d="M75.51,-71.88C94.61,-62.12 118.67,-49.83 138.78,-39.55"/>
<polygon fill="black" stroke="black" points="140.4,-42.65 147.71,-34.99 137.21,-36.42 140.4,-42.65"/>
</g>
<!-- evaluable -->
<g id="node2" class="node">
<title>evaluable</title>
<g id="a_node2"><a xlink:href="PsyllaReference_Types.xhtml#PsyllaReference_Types_Details_evaluable" xlink:title="evaluable" target="_parent">
<polygon fill="linen" stroke="black" points="180,-108 102,-108 102,-72 186,-72 186,-102 180,-108"/>
<polyline fill="none" stroke="black" points="180,-108 180,-102 "/>
<polyline fill="none" stroke="black" points="186,-102 180,-102 "/>
<text text-anchor="middle" x="144" y="-86.9" font-family="PT Mono, monospace" font-size="12.00">evaluable</text>
</a>
</g>
</g>
<!-- evaluable&#45;&gt;reader -->
<g id="edge2" class="edge">
<title>evaluable&#45;&gt;reader</title>
<path fill="none" stroke="black" d="M152.65,-71.7C156.64,-63.73 161.45,-54.1 165.87,-45.26"/>
<polygon fill="black" stroke="black" points="169.11,-46.61 170.45,-36.1 162.85,-43.48 169.11,-46.61"/>
</g>
<!-- readable -->
<g id="node3" class="node">
<title>readable</title>
<g id="a_node3"><a xlink:href="PsyllaReference_Types.xhtml#PsyllaReference_Types_Details_readable" xlink:title="readable" target="_parent">
<polygon fill="linen" stroke="black" points="323.5,-108 252.5,-108 252.5,-72 329.5,-72 329.5,-102 323.5,-108"/>
<polyline fill="none" stroke="black" points="323.5,-108 323.5,-102 "/>
<polyline fill="none" stroke="black" points="329.5,-102 323.5,-102 "/>
<text text-anchor="middle" x="291" y="-86.9" font-family="PT Mono, monospace" font-size="12.00">readable</text>
</a>
</g>
</g>
<!-- readable&#45;&gt;reader -->
<g id="edge3" class="edge">
<title>readable&#45;&gt;reader</title>
<path fill="none" stroke="black" d="M263.6,-71.88C249.09,-62.81 231.08,-51.55 215.41,-41.76"/>
<polygon fill="black" stroke="black" points="216.84,-38.52 206.5,-36.19 213.13,-44.46 216.84,-38.52"/>
</g>
<!-- resetable -->
<g id="node4" class="node">
<title>resetable</title>
<g id="a_node4"><a xlink:href="PsyllaReference_Types.xhtml#PsyllaReference_Types_Details_resetable" xlink:title="resetable" target="_parent">
<polygon fill="linen" stroke="black" points="245,-180 167,-180 167,-144 251,-144 251,-174 245,-180"/>
<polyline fill="none" stroke="black" points="245,-180 245,-174 "/>
<polyline fill="none" stroke="black" points="251,-174 245,-174 "/>
<text text-anchor="middle" x="209" y="-158.9" font-family="PT Mono, monospace" font-size="12.00">resetable</text>
</a>
</g>
</g>
<!-- resetable&#45;&gt;reader -->
<g id="edge4" class="edge">
<title>resetable&#45;&gt;reader</title>
<path fill="none" stroke="black" d="M207.01,-143.81C204.75,-125.78 200.64,-96.7 195,-72 193.02,-63.34 190.39,-54.02 187.83,-45.66"/>
<polygon fill="black" stroke="black" points="191.13,-44.51 184.79,-36.03 184.46,-46.62 191.13,-44.51"/>
</g>
<!-- object -->
<g id="node6" class="node">
<title>object</title>
<g id="a_node6"><a xlink:href="PsyllaReference_Types.xhtml#PsyllaReference_Types_Details_object" xlink:title="object" target="_parent">
<polygon fill="linen" stroke="black" points="199,-252 143,-252 143,-216 205,-216 205,-246 199,-252"/>
<polyline fill="none" stroke="black" points="199,-252 199,-246 "/>
<polyline fill="none" stroke="black" points="205,-246 199,-246 "/>
<text text-anchor="middle" x="174" y="-230.9" font-family="PT Mono, monospace" font-size="12.00">object</text>
</a>
</g>
</g>
<!-- object&#45;&gt;closeable -->
<g id="edge5" class="edge">
<title>object&#45;&gt;closeable</title>
<path fill="none" stroke="black" d="M158.08,-215.87C134.89,-190.92 91.69,-144.45 65.03,-115.77"/>
<polygon fill="black" stroke="black" points="67.35,-113.13 57.98,-108.19 62.22,-117.9 67.35,-113.13"/>
</g>
<!-- object&#45;&gt;evaluable -->
<g id="edge6" class="edge">
<title>object&#45;&gt;evaluable</title>
<path fill="none" stroke="black" d="M168.21,-215.97C164.87,-205.66 160.78,-192.18 158,-180 153.33,-159.54 149.71,-136.09 147.32,-118.39"/>
<polygon fill="black" stroke="black" points="150.75,-117.66 145.99,-108.19 143.81,-118.56 150.75,-117.66"/>
</g>
<!-- object&#45;&gt;resetable -->
<g id="edge8" class="edge">
<title>object&#45;&gt;resetable</title>
<path fill="none" stroke="black" d="M182.65,-215.7C186.64,-207.73 191.45,-198.1 195.87,-189.26"/>
<polygon fill="black" stroke="black" points="199.11,-190.61 200.45,-180.1 192.85,-187.48 199.11,-190.61"/>
</g>
<!-- ready -->
<g id="node7" class="node">
<title>ready</title>
<g id="a_node7"><a xlink:href="PsyllaReference_Types.xhtml#PsyllaReference_Types_Details_ready" xlink:title="ready" target="_parent">
<polygon fill="linen" stroke="black" points="317,-180 269,-180 269,-144 323,-144 323,-174 317,-180"/>
<polyline fill="none" stroke="black" points="317,-180 317,-174 "/>
<polyline fill="none" stroke="black" points="323,-174 317,-174 "/>
<text text-anchor="middle" x="296" y="-158.9" font-family="PT Mono, monospace" font-size="12.00">ready</text>
</a>
</g>
</g>
<!-- object&#45;&gt;ready -->
<g id="edge9" class="edge">
<title>object&#45;&gt;ready</title>
<path fill="none" stroke="black" d="M203.84,-215.88C220.78,-206.16 242.11,-193.92 259.97,-183.67"/>
<polygon fill="black" stroke="black" points="262.03,-186.53 268.96,-178.51 258.55,-180.46 262.03,-186.53"/>
</g>
<!-- ready&#45;&gt;readable -->
<g id="edge7" class="edge">
<title>ready&#45;&gt;readable</title>
<path fill="none" stroke="black" d="M294.76,-143.7C294.21,-135.98 293.55,-126.71 292.94,-118.11"/>
<polygon fill="black" stroke="black" points="296.43,-117.83 292.22,-108.1 289.44,-118.33 296.43,-117.83"/>
</g>
</g>
</svg>
