<?xml version="1.0" encoding="UTF-8" standalone="no"?>
<!DOCTYPE svg PUBLIC "-//W3C//DTD SVG 1.1//EN"
 "http://www.w3.org/Graphics/SVG/1.1/DTD/svg11.dtd">
<!-- Generated by graphviz version 14.0.0 (0)
 -->
<!-- Title: closeable Pages: 1 -->
<svg width="69pt" height="116pt"
 viewBox="0.00 0.00 69.00 116.00" xmlns="http://www.w3.org/2000/svg" xmlns:xlink="http://www.w3.org/1999/xlink">
<g id="graph0" class="graph" transform="scale(1 1) rotate(0) translate(4 112)">
<title>closeable</title>
<polygon fill="none" stroke="none" points="-4,4 -4,-112 64.64,-112 64.64,4 -4,4"/>
<!-- object -->
<g id="node1" class="node">
<title>object</title>
<g id="a_node1"><a xlink:href="PsyllaReference_Types.xhtml#PsyllaReference_Types_Details_object" xlink:title="object" target="_parent">
<polygon fill="linen" stroke="black" points="51.32,-108 3.32,-108 3.32,-72 57.32,-72 57.32,-102 51.32,-108"/>
<polyline fill="none" stroke="black" points="51.32,-108 51.32,-102"/>
<polyline fill="none" stroke="black" points="57.32,-102 51.32,-102"/>
<text xml:space="preserve" text-anchor="middle" x="30.32" y="-86.4" font-family="Source Code Pro,monospace" font-size="12.00">object</text>
</a>
</g>
</g>
<!-- closeable -->
<g id="node2" class="node">
<title>closeable</title>
<g id="a_node2"><a xlink:href="PsyllaReference_Types.xhtml#PsyllaReference_Types_Details_closeable" xlink:title="closeable" target="_parent">
<polygon fill="wheat" stroke="black" points="54.64,-36 0,-36 0,0 60.64,0 60.64,-30 54.64,-36"/>
<polyline fill="none" stroke="black" points="54.64,-36 54.64,-30"/>
<polyline fill="none" stroke="black" points="60.64,-30 54.64,-30"/>
<text xml:space="preserve" text-anchor="middle" x="30.32" y="-14.4" font-family="Source Code Pro,monospace" font-size="12.00">closeable</text>
</a>
</g>
</g>
<!-- object&#45;&gt;closeable -->
<g id="edge1" class="edge">
<title>object&#45;&gt;closeable</title>
<path fill="none" stroke="black" d="M30.32,-71.7C30.32,-64.41 30.32,-55.73 30.32,-47.54"/>
<polygon fill="black" stroke="black" points="33.82,-47.62 30.32,-37.62 26.82,-47.62 33.82,-47.62"/>
</g>
</g>
</svg>
