<?xml version="1.0" encoding="UTF-8" standalone="no"?>
<!DOCTYPE svg PUBLIC "-//W3C//DTD SVG 1.1//EN"
 "http://www.w3.org/Graphics/SVG/1.1/DTD/svg11.dtd">
<!-- Generated by graphviz version 2.43.0 (0)
 -->
<!-- Title: convertabletorational Pages: 1 -->
<svg width="182pt" height="116pt"
 viewBox="0.00 0.00 182.00 116.00" xmlns="http://www.w3.org/2000/svg" xmlns:xlink="http://www.w3.org/1999/xlink">
<g id="graph0" class="graph" transform="scale(1 1) rotate(0) translate(4 112)">
<title>convertabletorational</title>
<polygon fill="transparent" stroke="transparent" points="-4,4 -4,-112 178,-112 178,4 -4,4"/>
<!-- object -->
<g id="node1" class="node">
<title>object</title>
<g id="a_node1"><a xlink:href="PsyllaReference_Types.xhtml#PsyllaReference_Types_Details_object" xlink:title="object" target="_parent">
<polygon fill="linen" stroke="black" points="112,-108 56,-108 56,-72 118,-72 118,-102 112,-108"/>
<polyline fill="none" stroke="black" points="112,-108 112,-102 "/>
<polyline fill="none" stroke="black" points="118,-102 112,-102 "/>
<text text-anchor="middle" x="87" y="-86.9" font-family="Source Code Pro,monospace" font-size="12.00">object</text>
</a>
</g>
</g>
<!-- convertabletorational -->
<g id="node2" class="node">
<title>convertabletorational</title>
<g id="a_node2"><a xlink:href="PsyllaReference_Types.xhtml#PsyllaReference_Types_Details_convertabletorational" xlink:title="convertabletorational" target="_parent">
<polygon fill="wheat" stroke="black" points="168,-36 0,-36 0,0 174,0 174,-30 168,-36"/>
<polyline fill="none" stroke="black" points="168,-36 168,-30 "/>
<polyline fill="none" stroke="black" points="174,-30 168,-30 "/>
<text text-anchor="middle" x="87" y="-14.9" font-family="Source Code Pro,monospace" font-size="12.00">convertabletorational</text>
</a>
</g>
</g>
<!-- object&#45;&gt;convertabletorational -->
<g id="edge1" class="edge">
<title>object&#45;&gt;convertabletorational</title>
<path fill="none" stroke="black" d="M87,-71.7C87,-63.98 87,-54.71 87,-46.11"/>
<polygon fill="black" stroke="black" points="90.5,-46.1 87,-36.1 83.5,-46.1 90.5,-46.1"/>
</g>
</g>
</svg>
