<?xml version="1.0" encoding="UTF-8" standalone="no"?>
<!DOCTYPE svg PUBLIC "-//W3C//DTD SVG 1.1//EN"
 "http://www.w3.org/Graphics/SVG/1.1/DTD/svg11.dtd">
<!-- Generated by graphviz version 2.43.0 (0)
 -->
<!-- Title: real Pages: 1 -->
<svg width="325pt" height="404pt"
 viewBox="0.00 0.00 325.00 404.00" xmlns="http://www.w3.org/2000/svg" xmlns:xlink="http://www.w3.org/1999/xlink">
<g id="graph0" class="graph" transform="scale(1 1) rotate(0) translate(4 400)">
<title>real</title>
<polygon fill="transparent" stroke="transparent" points="-4,4 -4,-400 321,-400 321,4 -4,4"/>
<!-- realnumeric -->
<g id="node1" class="node">
<title>realnumeric</title>
<g id="a_node1"><a xlink:href="PsyllaReference_Types.xhtml#PsyllaReference_Types_Details_realnumeric" xlink:title="realnumeric" target="_parent">
<polygon fill="linen" stroke="black" points="169,-108 26,-108 26,-72 175,-72 175,-102 169,-108"/>
<polyline fill="none" stroke="black" points="169,-108 169,-102 "/>
<polyline fill="none" stroke="black" points="175,-102 169,-102 "/>
<text text-anchor="middle" x="100.5" y="-85" font-family="PT Mono, monospace" font-size="20.00">realnumeric</text>
</a>
</g>
</g>
<!-- real -->
<g id="node2" class="node">
<title>real</title>
<g id="a_node2"><a xlink:href="PsyllaReference_Types.xhtml#PsyllaReference_Types_Details_real" xlink:title="real" target="_parent">
<polygon fill="wheat" stroke="black" points="127,-36 68,-36 68,0 133,0 133,-30 127,-36"/>
<polyline fill="none" stroke="black" points="127,-36 127,-30 "/>
<polyline fill="none" stroke="black" points="133,-30 127,-30 "/>
<text text-anchor="middle" x="100.5" y="-13" font-family="PT Mono, monospace" font-size="20.00">real</text>
</a>
</g>
</g>
<!-- realnumeric&#45;&gt;real -->
<g id="edge1" class="edge">
<title>realnumeric&#45;&gt;real</title>
<path fill="none" stroke="black" d="M100.5,-71.7C100.5,-63.98 100.5,-54.71 100.5,-46.11"/>
<polygon fill="black" stroke="black" points="104,-46.1 100.5,-36.1 97,-46.1 104,-46.1"/>
</g>
<!-- numeric -->
<g id="node3" class="node">
<title>numeric</title>
<g id="a_node3"><a xlink:href="PsyllaReference_Types.xhtml#PsyllaReference_Types_Details_numeric" xlink:title="numeric" target="_parent">
<polygon fill="linen" stroke="black" points="202,-180 107,-180 107,-144 208,-144 208,-174 202,-180"/>
<polyline fill="none" stroke="black" points="202,-180 202,-174 "/>
<polyline fill="none" stroke="black" points="208,-174 202,-174 "/>
<text text-anchor="middle" x="157.5" y="-157" font-family="PT Mono, monospace" font-size="20.00">numeric</text>
</a>
</g>
</g>
<!-- numeric&#45;&gt;realnumeric -->
<g id="edge2" class="edge">
<title>numeric&#45;&gt;realnumeric</title>
<path fill="none" stroke="black" d="M143.41,-143.7C136.58,-135.3 128.24,-125.07 120.74,-115.86"/>
<polygon fill="black" stroke="black" points="123.46,-113.65 114.43,-108.1 118.03,-118.07 123.46,-113.65"/>
</g>
<!-- scalar -->
<g id="node4" class="node">
<title>scalar</title>
<g id="a_node4"><a xlink:href="PsyllaReference_Types.xhtml#PsyllaReference_Types_Details_scalar" xlink:title="scalar" target="_parent">
<polygon fill="linen" stroke="black" points="83,-180 0,-180 0,-144 89,-144 89,-174 83,-180"/>
<polyline fill="none" stroke="black" points="83,-180 83,-174 "/>
<polyline fill="none" stroke="black" points="89,-174 83,-174 "/>
<text text-anchor="middle" x="44.5" y="-157" font-family="PT Mono, monospace" font-size="20.00">scalar</text>
</a>
</g>
</g>
<!-- scalar&#45;&gt;realnumeric -->
<g id="edge3" class="edge">
<title>scalar&#45;&gt;realnumeric</title>
<path fill="none" stroke="black" d="M58.34,-143.7C64.99,-135.39 73.08,-125.28 80.39,-116.14"/>
<polygon fill="black" stroke="black" points="83.3,-118.1 86.82,-108.1 77.84,-113.73 83.3,-118.1"/>
</g>
<!-- atomic -->
<g id="node5" class="node">
<title>atomic</title>
<g id="a_node5"><a xlink:href="PsyllaReference_Types.xhtml#PsyllaReference_Types_Details_atomic" xlink:title="atomic" target="_parent">
<polygon fill="linen" stroke="black" points="156,-252 73,-252 73,-216 162,-216 162,-246 156,-252"/>
<polyline fill="none" stroke="black" points="156,-252 156,-246 "/>
<polyline fill="none" stroke="black" points="162,-246 156,-246 "/>
<text text-anchor="middle" x="117.5" y="-229" font-family="PT Mono, monospace" font-size="20.00">atomic</text>
</a>
</g>
</g>
<!-- atomic&#45;&gt;numeric -->
<g id="edge4" class="edge">
<title>atomic&#45;&gt;numeric</title>
<path fill="none" stroke="black" d="M127.39,-215.7C131.99,-207.64 137.56,-197.89 142.65,-188.98"/>
<polygon fill="black" stroke="black" points="145.8,-190.52 147.73,-180.1 139.73,-187.05 145.8,-190.52"/>
</g>
<!-- arithmetic -->
<g id="node6" class="node">
<title>arithmetic</title>
<g id="a_node6"><a xlink:href="PsyllaReference_Types.xhtml#PsyllaReference_Types_Details_arithmetic" xlink:title="arithmetic" target="_parent">
<polygon fill="linen" stroke="black" points="311,-252 180,-252 180,-216 317,-216 317,-246 311,-252"/>
<polyline fill="none" stroke="black" points="311,-252 311,-246 "/>
<polyline fill="none" stroke="black" points="317,-246 311,-246 "/>
<text text-anchor="middle" x="248.5" y="-229" font-family="PT Mono, monospace" font-size="20.00">arithmetic</text>
</a>
</g>
</g>
<!-- arithmetic&#45;&gt;numeric -->
<g id="edge5" class="edge">
<title>arithmetic&#45;&gt;numeric</title>
<path fill="none" stroke="black" d="M226.01,-215.7C214.54,-206.88 200.44,-196.03 188.02,-186.47"/>
<polygon fill="black" stroke="black" points="189.8,-183.43 179.74,-180.1 185.53,-188.98 189.8,-183.43"/>
</g>
<!-- object -->
<g id="node7" class="node">
<title>object</title>
<g id="a_node7"><a xlink:href="PsyllaReference_Types.xhtml#PsyllaReference_Types_Details_object" xlink:title="object" target="_parent">
<polygon fill="linen" stroke="black" points="156,-396 73,-396 73,-360 162,-360 162,-390 156,-396"/>
<polyline fill="none" stroke="black" points="156,-396 156,-390 "/>
<polyline fill="none" stroke="black" points="162,-390 156,-390 "/>
<text text-anchor="middle" x="117.5" y="-373" font-family="PT Mono, monospace" font-size="20.00">object</text>
</a>
</g>
</g>
<!-- object&#45;&gt;scalar -->
<g id="edge6" class="edge">
<title>object&#45;&gt;scalar</title>
<path fill="none" stroke="black" d="M108.68,-359.62C96.93,-335.85 76.15,-291.63 63.5,-252 57.02,-231.71 52.1,-208.12 48.89,-190.32"/>
<polygon fill="black" stroke="black" points="52.31,-189.58 47.15,-180.32 45.42,-190.78 52.31,-189.58"/>
</g>
<!-- object&#45;&gt;atomic -->
<g id="edge7" class="edge">
<title>object&#45;&gt;atomic</title>
<path fill="none" stroke="black" d="M117.5,-359.87C117.5,-335.67 117.5,-291.21 117.5,-262.39"/>
<polygon fill="black" stroke="black" points="121,-262.19 117.5,-252.19 114,-262.19 121,-262.19"/>
</g>
<!-- additive -->
<g id="node8" class="node">
<title>additive</title>
<g id="a_node8"><a xlink:href="PsyllaReference_Types.xhtml#PsyllaReference_Types_Details_additive" xlink:title="additive" target="_parent">
<polygon fill="linen" stroke="black" points="276,-324 169,-324 169,-288 282,-288 282,-318 276,-324"/>
<polyline fill="none" stroke="black" points="276,-324 276,-318 "/>
<polyline fill="none" stroke="black" points="282,-318 276,-318 "/>
<text text-anchor="middle" x="225.5" y="-301" font-family="PT Mono, monospace" font-size="20.00">additive</text>
</a>
</g>
</g>
<!-- object&#45;&gt;additive -->
<g id="edge9" class="edge">
<title>object&#45;&gt;additive</title>
<path fill="none" stroke="black" d="M143.92,-359.88C157.91,-350.81 175.28,-339.55 190.39,-329.76"/>
<polygon fill="black" stroke="black" points="192.49,-332.57 198.98,-324.19 188.68,-326.69 192.49,-332.57"/>
</g>
<!-- additive&#45;&gt;arithmetic -->
<g id="edge8" class="edge">
<title>additive&#45;&gt;arithmetic</title>
<path fill="none" stroke="black" d="M231.19,-287.7C233.75,-279.9 236.83,-270.51 239.68,-261.83"/>
<polygon fill="black" stroke="black" points="243.08,-262.7 242.88,-252.1 236.43,-260.51 243.08,-262.7"/>
</g>
</g>
</svg>
