<?xml version="1.0" encoding="UTF-8" standalone="no"?>
<!DOCTYPE svg PUBLIC "-//W3C//DTD SVG 1.1//EN"
 "http://www.w3.org/Graphics/SVG/1.1/DTD/svg11.dtd">
<!-- Generated by graphviz version 2.43.0 (0)
 -->
<!-- Title: integer Pages: 1 -->
<svg width="806pt" height="548pt"
 viewBox="0.00 0.00 805.50 548.00" xmlns="http://www.w3.org/2000/svg" xmlns:xlink="http://www.w3.org/1999/xlink">
<g id="graph0" class="graph" transform="scale(1 1) rotate(0) translate(4 544)">
<title>integer</title>
<polygon fill="transparent" stroke="transparent" points="-4,4 -4,-544 801.5,-544 801.5,4 -4,4"/>
<!-- bitwise -->
<g id="node1" class="node">
<title>bitwise</title>
<g id="a_node1"><a xlink:href="PsyllaReference_Types.xhtml#PsyllaReference_Types_Details_bitwise" xlink:title="bitwise" target="_parent">
<polygon fill="linen" stroke="black" points="68,-396 5,-396 5,-360 74,-360 74,-390 68,-396"/>
<polyline fill="none" stroke="black" points="68,-396 68,-390 "/>
<polyline fill="none" stroke="black" points="74,-390 68,-390 "/>
<text text-anchor="middle" x="39.5" y="-374.9" font-family="Source Code Pro,monospace" font-size="12.00">bitwise</text>
</a>
</g>
</g>
<!-- integral -->
<g id="node2" class="node">
<title>integral</title>
<g id="a_node2"><a xlink:href="PsyllaReference_Types.xhtml#PsyllaReference_Types_Details_integral" xlink:title="integral" target="_parent">
<polygon fill="linen" stroke="black" points="101,-108 30,-108 30,-72 107,-72 107,-102 101,-108"/>
<polyline fill="none" stroke="black" points="101,-108 101,-102 "/>
<polyline fill="none" stroke="black" points="107,-102 101,-102 "/>
<text text-anchor="middle" x="68.5" y="-86.9" font-family="Source Code Pro,monospace" font-size="12.00">integral</text>
</a>
</g>
</g>
<!-- bitwise&#45;&gt;integral -->
<g id="edge4" class="edge">
<title>bitwise&#45;&gt;integral</title>
<path fill="none" stroke="black" d="M41.23,-359.97C46.07,-312.19 59.82,-176.62 65.74,-118.27"/>
<polygon fill="black" stroke="black" points="69.22,-118.61 66.75,-108.31 62.25,-117.9 69.22,-118.61"/>
</g>
<!-- integer -->
<g id="node3" class="node">
<title>integer</title>
<g id="a_node3"><a xlink:href="PsyllaReference_Types.xhtml#PsyllaReference_Types_Details_integer" xlink:title="integer" target="_parent">
<polygon fill="wheat" stroke="black" points="63,-36 0,-36 0,0 69,0 69,-30 63,-36"/>
<polyline fill="none" stroke="black" points="63,-36 63,-30 "/>
<polyline fill="none" stroke="black" points="69,-30 63,-30 "/>
<text text-anchor="middle" x="34.5" y="-14.9" font-family="Source Code Pro,monospace" font-size="12.00">integer</text>
</a>
</g>
</g>
<!-- bitwise&#45;&gt;integer -->
<g id="edge1" class="edge">
<title>bitwise&#45;&gt;integer</title>
<path fill="none" stroke="black" d="M31.81,-359.91C20.71,-333.62 1.5,-281.45 1.5,-235 1.5,-235 1.5,-235 1.5,-161 1.5,-119.97 14.73,-73.97 24.44,-45.74"/>
<polygon fill="black" stroke="black" points="27.78,-46.78 27.82,-36.19 21.18,-44.45 27.78,-46.78"/>
</g>
<!-- integral&#45;&gt;integer -->
<g id="edge2" class="edge">
<title>integral&#45;&gt;integer</title>
<path fill="none" stroke="black" d="M60.1,-71.7C56.23,-63.73 51.55,-54.1 47.26,-45.26"/>
<polygon fill="black" stroke="black" points="50.33,-43.57 42.81,-36.1 44.03,-46.63 50.33,-43.57"/>
</g>
<!-- logical -->
<g id="node4" class="node">
<title>logical</title>
<g id="a_node4"><a xlink:href="PsyllaReference_Types.xhtml#PsyllaReference_Types_Details_logical" xlink:title="logical" target="_parent">
<polygon fill="linen" stroke="black" points="139,-468 76,-468 76,-432 145,-432 145,-462 139,-468"/>
<polyline fill="none" stroke="black" points="139,-468 139,-462 "/>
<polyline fill="none" stroke="black" points="145,-462 139,-462 "/>
<text text-anchor="middle" x="110.5" y="-446.9" font-family="Source Code Pro,monospace" font-size="12.00">logical</text>
</a>
</g>
</g>
<!-- logical&#45;&gt;bitwise -->
<g id="edge3" class="edge">
<title>logical&#45;&gt;bitwise</title>
<path fill="none" stroke="black" d="M92.95,-431.7C84.27,-423.14 73.64,-412.66 64.15,-403.3"/>
<polygon fill="black" stroke="black" points="66.43,-400.63 56.85,-396.1 61.51,-405.62 66.43,-400.63"/>
</g>
<!-- rational -->
<g id="node5" class="node">
<title>rational</title>
<g id="a_node5"><a xlink:href="PsyllaReference_Types.xhtml#PsyllaReference_Types_Details_rational" xlink:title="rational" target="_parent">
<polygon fill="linen" stroke="black" points="255,-180 184,-180 184,-144 261,-144 261,-174 255,-180"/>
<polyline fill="none" stroke="black" points="255,-180 255,-174 "/>
<polyline fill="none" stroke="black" points="261,-174 255,-174 "/>
<text text-anchor="middle" x="222.5" y="-158.9" font-family="Source Code Pro,monospace" font-size="12.00">rational</text>
</a>
</g>
</g>
<!-- rational&#45;&gt;integral -->
<g id="edge5" class="edge">
<title>rational&#45;&gt;integral</title>
<path fill="none" stroke="black" d="M184.83,-143.88C163.87,-134.35 137.6,-122.41 115.32,-112.28"/>
<polygon fill="black" stroke="black" points="116.6,-109.02 106.05,-108.07 113.71,-115.39 116.6,-109.02"/>
</g>
<!-- object -->
<g id="node6" class="node">
<title>object</title>
<g id="a_node6"><a xlink:href="PsyllaReference_Types.xhtml#PsyllaReference_Types_Details_object" xlink:title="object" target="_parent">
<polygon fill="linen" stroke="black" points="509.5,-540 453.5,-540 453.5,-504 515.5,-504 515.5,-534 509.5,-540"/>
<polyline fill="none" stroke="black" points="509.5,-540 509.5,-534 "/>
<polyline fill="none" stroke="black" points="515.5,-534 509.5,-534 "/>
<text text-anchor="middle" x="484.5" y="-518.9" font-family="Source Code Pro,monospace" font-size="12.00">object</text>
</a>
</g>
</g>
<!-- object&#45;&gt;logical -->
<g id="edge6" class="edge">
<title>object&#45;&gt;logical</title>
<path fill="none" stroke="black" d="M453.19,-516.07C398.37,-507.29 281.5,-488.02 183.5,-468 174.32,-466.13 164.54,-463.96 155.21,-461.82"/>
<polygon fill="black" stroke="black" points="155.85,-458.37 145.32,-459.52 154.27,-465.19 155.85,-458.37"/>
</g>
<!-- convertabletointeger -->
<g id="node9" class="node">
<title>convertabletointeger</title>
<g id="a_node9"><a xlink:href="PsyllaReference_Types.xhtml#PsyllaReference_Types_Details_convertabletointeger" xlink:title="convertabletointeger" target="_parent">
<polygon fill="linen" stroke="black" points="228,-324 67,-324 67,-288 234,-288 234,-318 228,-324"/>
<polyline fill="none" stroke="black" points="228,-324 228,-318 "/>
<polyline fill="none" stroke="black" points="234,-318 228,-318 "/>
<text text-anchor="middle" x="150.5" y="-302.9" font-family="Source Code Pro,monospace" font-size="12.00">convertabletointeger</text>
</a>
</g>
</g>
<!-- object&#45;&gt;convertabletointeger -->
<g id="edge15" class="edge">
<title>object&#45;&gt;convertabletointeger</title>
<path fill="none" stroke="black" d="M453.49,-514.64C420.4,-506.97 367.26,-492.01 326.5,-468 262.74,-430.45 202.25,-366.89 171.52,-331.91"/>
<polygon fill="black" stroke="black" points="173.92,-329.34 164.72,-324.08 168.63,-333.93 173.92,-329.34"/>
</g>
<!-- convertabletointegral -->
<g id="node10" class="node">
<title>convertabletointegral</title>
<g id="a_node10"><a xlink:href="PsyllaReference_Types.xhtml#PsyllaReference_Types_Details_convertabletointegral" xlink:title="convertabletointegral" target="_parent">
<polygon fill="linen" stroke="black" points="420.5,-324 252.5,-324 252.5,-288 426.5,-288 426.5,-318 420.5,-324"/>
<polyline fill="none" stroke="black" points="420.5,-324 420.5,-318 "/>
<polyline fill="none" stroke="black" points="426.5,-318 420.5,-318 "/>
<text text-anchor="middle" x="339.5" y="-302.9" font-family="Source Code Pro,monospace" font-size="12.00">convertabletointegral</text>
</a>
</g>
</g>
<!-- object&#45;&gt;convertabletointegral -->
<g id="edge16" class="edge">
<title>object&#45;&gt;convertabletointegral</title>
<path fill="none" stroke="black" d="M453.32,-510.22C410.28,-493.43 334.37,-456.55 302.5,-396 291.58,-375.26 303.69,-350.57 316.9,-332.46"/>
<polygon fill="black" stroke="black" points="319.99,-334.19 323.37,-324.15 314.46,-329.89 319.99,-334.19"/>
</g>
<!-- convertabletorational -->
<g id="node11" class="node">
<title>convertabletorational</title>
<g id="a_node11"><a xlink:href="PsyllaReference_Types.xhtml#PsyllaReference_Types_Details_convertabletorational" xlink:title="convertabletorational" target="_parent">
<polygon fill="linen" stroke="black" points="479.5,-396 311.5,-396 311.5,-360 485.5,-360 485.5,-390 479.5,-396"/>
<polyline fill="none" stroke="black" points="479.5,-396 479.5,-390 "/>
<polyline fill="none" stroke="black" points="485.5,-390 479.5,-390 "/>
<text text-anchor="middle" x="398.5" y="-374.9" font-family="Source Code Pro,monospace" font-size="12.00">convertabletorational</text>
</a>
</g>
</g>
<!-- object&#45;&gt;convertabletorational -->
<g id="edge17" class="edge">
<title>object&#45;&gt;convertabletorational</title>
<path fill="none" stroke="black" d="M474.13,-503.87C459.21,-479.24 431.59,-433.64 414.18,-404.88"/>
<polygon fill="black" stroke="black" points="417.08,-402.93 408.91,-396.19 411.1,-406.56 417.08,-402.93"/>
</g>
<!-- scalar -->
<g id="node12" class="node">
<title>scalar</title>
<g id="a_node12"><a xlink:href="PsyllaReference_Types.xhtml#PsyllaReference_Types_Details_scalar" xlink:title="scalar" target="_parent">
<polygon fill="linen" stroke="black" points="538.5,-324 482.5,-324 482.5,-288 544.5,-288 544.5,-318 538.5,-324"/>
<polyline fill="none" stroke="black" points="538.5,-324 538.5,-318 "/>
<polyline fill="none" stroke="black" points="544.5,-318 538.5,-318 "/>
<text text-anchor="middle" x="513.5" y="-302.9" font-family="Source Code Pro,monospace" font-size="12.00">scalar</text>
</a>
</g>
</g>
<!-- object&#45;&gt;scalar -->
<g id="edge18" class="edge">
<title>object&#45;&gt;scalar</title>
<path fill="none" stroke="black" d="M486.82,-503.85C491.84,-466.83 503.72,-379.18 509.79,-334.39"/>
<polygon fill="black" stroke="black" points="513.29,-334.61 511.16,-324.23 506.35,-333.67 513.29,-334.61"/>
</g>
<!-- atomic -->
<g id="node13" class="node">
<title>atomic</title>
<g id="a_node13"><a xlink:href="PsyllaReference_Types.xhtml#PsyllaReference_Types_Details_atomic" xlink:title="atomic" target="_parent">
<polygon fill="linen" stroke="black" points="597.5,-396 541.5,-396 541.5,-360 603.5,-360 603.5,-390 597.5,-396"/>
<polyline fill="none" stroke="black" points="597.5,-396 597.5,-390 "/>
<polyline fill="none" stroke="black" points="603.5,-390 597.5,-390 "/>
<text text-anchor="middle" x="572.5" y="-374.9" font-family="Source Code Pro,monospace" font-size="12.00">atomic</text>
</a>
</g>
</g>
<!-- object&#45;&gt;atomic -->
<g id="edge19" class="edge">
<title>object&#45;&gt;atomic</title>
<path fill="none" stroke="black" d="M500.22,-503.57C508.84,-493.56 519.38,-480.53 527.5,-468 540.45,-448.02 552.47,-423.82 560.83,-405.7"/>
<polygon fill="black" stroke="black" points="564.13,-406.88 565.07,-396.33 557.76,-403.99 564.13,-406.88"/>
</g>
<!-- additive -->
<g id="node15" class="node">
<title>additive</title>
<g id="a_node15"><a xlink:href="PsyllaReference_Types.xhtml#PsyllaReference_Types_Details_additive" xlink:title="additive" target="_parent">
<polygon fill="linen" stroke="black" points="651,-468 580,-468 580,-432 657,-432 657,-462 651,-468"/>
<polyline fill="none" stroke="black" points="651,-468 651,-462 "/>
<polyline fill="none" stroke="black" points="657,-462 651,-462 "/>
<text text-anchor="middle" x="618.5" y="-446.9" font-family="Source Code Pro,monospace" font-size="12.00">additive</text>
</a>
</g>
</g>
<!-- object&#45;&gt;additive -->
<g id="edge22" class="edge">
<title>object&#45;&gt;additive</title>
<path fill="none" stroke="black" d="M515.58,-504.76C533.73,-495.28 556.88,-483.19 576.63,-472.87"/>
<polygon fill="black" stroke="black" points="578.48,-475.86 585.72,-468.12 575.24,-469.65 578.48,-475.86"/>
</g>
<!-- multiplicative -->
<g id="node16" class="node">
<title>multiplicative</title>
<g id="a_node16"><a xlink:href="PsyllaReference_Types.xhtml#PsyllaReference_Types_Details_multiplicative" xlink:title="multiplicative" target="_parent">
<polygon fill="linen" stroke="black" points="791.5,-468 675.5,-468 675.5,-432 797.5,-432 797.5,-462 791.5,-468"/>
<polyline fill="none" stroke="black" points="791.5,-468 791.5,-462 "/>
<polyline fill="none" stroke="black" points="797.5,-462 791.5,-462 "/>
<text text-anchor="middle" x="736.5" y="-446.9" font-family="Source Code Pro,monospace" font-size="12.00">multiplicative</text>
</a>
</g>
</g>
<!-- object&#45;&gt;multiplicative -->
<g id="edge23" class="edge">
<title>object&#45;&gt;multiplicative</title>
<path fill="none" stroke="black" d="M515.65,-512.35C552.87,-502.01 616.31,-484.39 665.67,-470.68"/>
<polygon fill="black" stroke="black" points="666.64,-474.04 675.34,-467.99 664.77,-467.29 666.64,-474.04"/>
</g>
<!-- realnumeric -->
<g id="node7" class="node">
<title>realnumeric</title>
<g id="a_node7"><a xlink:href="PsyllaReference_Types.xhtml#PsyllaReference_Types_Details_realnumeric" xlink:title="realnumeric" target="_parent">
<polygon fill="linen" stroke="black" points="440,-252 347,-252 347,-216 446,-216 446,-246 440,-252"/>
<polyline fill="none" stroke="black" points="440,-252 440,-246 "/>
<polyline fill="none" stroke="black" points="446,-246 440,-246 "/>
<text text-anchor="middle" x="396.5" y="-230.9" font-family="Source Code Pro,monospace" font-size="12.00">realnumeric</text>
</a>
</g>
</g>
<!-- realnumeric&#45;&gt;rational -->
<g id="edge7" class="edge">
<title>realnumeric&#45;&gt;rational</title>
<path fill="none" stroke="black" d="M353.93,-215.88C328.67,-205.71 296.56,-192.79 270.41,-182.27"/>
<polygon fill="black" stroke="black" points="271.65,-179 261.06,-178.51 269.04,-185.49 271.65,-179"/>
</g>
<!-- numeric -->
<g id="node8" class="node">
<title>numeric</title>
<g id="a_node8"><a xlink:href="PsyllaReference_Types.xhtml#PsyllaReference_Types_Details_numeric" xlink:title="numeric" target="_parent">
<polygon fill="linen" stroke="black" points="626,-324 563,-324 563,-288 632,-288 632,-318 626,-324"/>
<polyline fill="none" stroke="black" points="626,-324 626,-318 "/>
<polyline fill="none" stroke="black" points="632,-318 626,-318 "/>
<text text-anchor="middle" x="597.5" y="-302.9" font-family="Source Code Pro,monospace" font-size="12.00">numeric</text>
</a>
</g>
</g>
<!-- numeric&#45;&gt;realnumeric -->
<g id="edge8" class="edge">
<title>numeric&#45;&gt;realnumeric</title>
<path fill="none" stroke="black" d="M562.97,-291.5C559.77,-290.3 556.58,-289.11 553.5,-288 521.42,-276.39 485.37,-264.17 455.91,-254.38"/>
<polygon fill="black" stroke="black" points="456.78,-250.99 446.19,-251.17 454.58,-257.63 456.78,-250.99"/>
</g>
<!-- convertabletointeger&#45;&gt;realnumeric -->
<g id="edge9" class="edge">
<title>convertabletointeger&#45;&gt;realnumeric</title>
<path fill="none" stroke="black" d="M210.36,-287.97C248.75,-277.04 298.38,-262.92 336.74,-252"/>
<polygon fill="black" stroke="black" points="338.08,-255.26 346.74,-249.16 336.17,-248.53 338.08,-255.26"/>
</g>
<!-- convertabletointegral&#45;&gt;realnumeric -->
<g id="edge10" class="edge">
<title>convertabletointegral&#45;&gt;realnumeric</title>
<path fill="none" stroke="black" d="M353.59,-287.7C360.42,-279.3 368.76,-269.07 376.26,-259.86"/>
<polygon fill="black" stroke="black" points="378.97,-262.07 382.57,-252.1 373.54,-257.65 378.97,-262.07"/>
</g>
<!-- convertabletorational&#45;&gt;realnumeric -->
<g id="edge11" class="edge">
<title>convertabletorational&#45;&gt;realnumeric</title>
<path fill="none" stroke="black" d="M414.54,-359.85C422.51,-350.12 431.33,-337.27 435.5,-324 440.3,-308.74 440.49,-303.2 435.5,-288 432.19,-277.91 426.13,-268.15 419.77,-259.82"/>
<polygon fill="black" stroke="black" points="422.42,-257.54 413.39,-252.01 417,-261.97 422.42,-257.54"/>
</g>
<!-- scalar&#45;&gt;realnumeric -->
<g id="edge12" class="edge">
<title>scalar&#45;&gt;realnumeric</title>
<path fill="none" stroke="black" d="M484.88,-287.88C469.58,-278.72 450.56,-267.34 434.08,-257.48"/>
<polygon fill="black" stroke="black" points="435.61,-254.32 425.23,-252.19 432.02,-260.33 435.61,-254.32"/>
</g>
<!-- atomic&#45;&gt;numeric -->
<g id="edge13" class="edge">
<title>atomic&#45;&gt;numeric</title>
<path fill="none" stroke="black" d="M578.68,-359.7C581.5,-351.81 584.89,-342.3 588.02,-333.55"/>
<polygon fill="black" stroke="black" points="591.32,-334.7 591.39,-324.1 584.73,-332.34 591.32,-334.7"/>
</g>
<!-- arithmetic -->
<g id="node14" class="node">
<title>arithmetic</title>
<g id="a_node14"><a xlink:href="PsyllaReference_Types.xhtml#PsyllaReference_Types_Details_arithmetic" xlink:title="arithmetic" target="_parent">
<polygon fill="linen" stroke="black" points="707.5,-396 621.5,-396 621.5,-360 713.5,-360 713.5,-390 707.5,-396"/>
<polyline fill="none" stroke="black" points="707.5,-396 707.5,-390 "/>
<polyline fill="none" stroke="black" points="713.5,-390 707.5,-390 "/>
<text text-anchor="middle" x="667.5" y="-374.9" font-family="Source Code Pro,monospace" font-size="12.00">arithmetic</text>
</a>
</g>
</g>
<!-- arithmetic&#45;&gt;numeric -->
<g id="edge14" class="edge">
<title>arithmetic&#45;&gt;numeric</title>
<path fill="none" stroke="black" d="M650.2,-359.7C641.64,-351.14 631.16,-340.66 621.8,-331.3"/>
<polygon fill="black" stroke="black" points="624.15,-328.7 614.6,-324.1 619.2,-333.65 624.15,-328.7"/>
</g>
<!-- additive&#45;&gt;arithmetic -->
<g id="edge20" class="edge">
<title>additive&#45;&gt;arithmetic</title>
<path fill="none" stroke="black" d="M630.61,-431.7C636.37,-423.47 643.36,-413.48 649.71,-404.42"/>
<polygon fill="black" stroke="black" points="652.66,-406.3 655.53,-396.1 646.92,-402.29 652.66,-406.3"/>
</g>
<!-- multiplicative&#45;&gt;arithmetic -->
<g id="edge21" class="edge">
<title>multiplicative&#45;&gt;arithmetic</title>
<path fill="none" stroke="black" d="M719.44,-431.7C711,-423.14 700.68,-412.66 691.46,-403.3"/>
<polygon fill="black" stroke="black" points="693.87,-400.77 684.36,-396.1 688.89,-405.68 693.87,-400.77"/>
</g>
</g>
</svg>
