<?xml version="1.0" encoding="UTF-8" standalone="no"?>
<!DOCTYPE svg PUBLIC "-//W3C//DTD SVG 1.1//EN"
 "http://www.w3.org/Graphics/SVG/1.1/DTD/svg11.dtd">
<!-- Generated by graphviz version 2.49.3 (0)
 -->
<!-- Title: textual Pages: 1 -->
<svg width="519pt" height="332pt"
 viewBox="0.00 0.00 519.31 332.00" xmlns="http://www.w3.org/2000/svg" xmlns:xlink="http://www.w3.org/1999/xlink">
<g id="graph0" class="graph" transform="scale(1 1) rotate(0) translate(4 328)">
<title>textual</title>
<polygon fill="transparent" stroke="transparent" points="-4,4 -4,-328 515.31,-328 515.31,4 -4,4"/>
<!-- evaluable -->
<g id="node1" class="node">
<title>evaluable</title>
<g id="a_node1"><a xlink:href="PsyllaReference_Types.xhtml#PsyllaReference_Types_Details_evaluable" xlink:title="evaluable" target="_parent">
<polygon fill="linen" stroke="black" points="55.97,-180 0.01,-180 0.01,-144 61.97,-144 61.97,-174 55.97,-180"/>
<polyline fill="none" stroke="black" points="55.97,-180 55.97,-174 "/>
<polyline fill="none" stroke="black" points="61.97,-174 55.97,-174 "/>
<text text-anchor="middle" x="30.99" y="-158.4" font-family="Source Code Pro,monospace" font-size="12.00">evaluable</text>
</a>
</g>
</g>
<!-- textual -->
<g id="node8" class="node">
<title>textual</title>
<g id="a_node8"><a xlink:href="PsyllaReference_Types.xhtml#PsyllaReference_Types_Details_textual" xlink:title="textual" target="_parent">
<polygon fill="wheat" stroke="black" points="296.99,-36 248.99,-36 248.99,0 302.99,0 302.99,-30 296.99,-36"/>
<polyline fill="none" stroke="black" points="296.99,-36 296.99,-30 "/>
<polyline fill="none" stroke="black" points="302.99,-30 296.99,-30 "/>
<text text-anchor="middle" x="275.99" y="-14.4" font-family="Source Code Pro,monospace" font-size="12.00">textual</text>
</a>
</g>
</g>
<!-- evaluable&#45;&gt;textual -->
<g id="edge1" class="edge">
<title>evaluable&#45;&gt;textual</title>
<path fill="none" stroke="black" d="M26.85,-143.65C23.24,-123.85 20.92,-91.66 37.99,-72 63.85,-42.23 178.13,-27.72 238.43,-22.02"/>
<polygon fill="black" stroke="black" points="239.04,-25.48 248.68,-21.09 238.4,-18.51 239.04,-25.48"/>
</g>
<!-- convertabletointeger -->
<g id="node2" class="node">
<title>convertabletointeger</title>
<g id="a_node2"><a xlink:href="PsyllaReference_Types.xhtml#PsyllaReference_Types_Details_convertabletointeger" xlink:title="convertabletointeger" target="_parent">
<polygon fill="linen" stroke="black" points="155.11,-108 46.86,-108 46.86,-72 161.11,-72 161.11,-102 155.11,-108"/>
<polyline fill="none" stroke="black" points="155.11,-108 155.11,-102 "/>
<polyline fill="none" stroke="black" points="161.11,-102 155.11,-102 "/>
<text text-anchor="middle" x="103.99" y="-86.4" font-family="Source Code Pro,monospace" font-size="12.00">convertabletointeger</text>
</a>
</g>
</g>
<!-- convertabletointeger&#45;&gt;textual -->
<g id="edge2" class="edge">
<title>convertabletointeger&#45;&gt;textual</title>
<path fill="none" stroke="black" d="M146.06,-71.88C174.59,-60.27 211.92,-45.08 239.24,-33.95"/>
<polygon fill="black" stroke="black" points="240.88,-37.07 248.82,-30.06 238.24,-30.58 240.88,-37.07"/>
</g>
<!-- convertabletointegral -->
<g id="node3" class="node">
<title>convertabletointegral</title>
<g id="a_node3"><a xlink:href="PsyllaReference_Types.xhtml#PsyllaReference_Types_Details_convertabletointegral" xlink:title="convertabletointegral" target="_parent">
<polygon fill="linen" stroke="black" points="241.95,-180 130.03,-180 130.03,-144 247.95,-144 247.95,-174 241.95,-180"/>
<polyline fill="none" stroke="black" points="241.95,-180 241.95,-174 "/>
<polyline fill="none" stroke="black" points="247.95,-174 241.95,-174 "/>
<text text-anchor="middle" x="188.99" y="-158.4" font-family="Source Code Pro,monospace" font-size="12.00">convertabletointegral</text>
</a>
</g>
</g>
<!-- convertabletointegral&#45;&gt;textual -->
<g id="edge3" class="edge">
<title>convertabletointegral&#45;&gt;textual</title>
<path fill="none" stroke="black" d="M189.22,-143.98C190.21,-125.05 194.07,-94.23 207.99,-72 216.04,-59.14 228.38,-48.15 240.35,-39.57"/>
<polygon fill="black" stroke="black" points="242.62,-42.26 248.94,-33.76 238.69,-36.47 242.62,-42.26"/>
</g>
<!-- convertabletorational -->
<g id="node4" class="node">
<title>convertabletorational</title>
<g id="a_node4"><a xlink:href="PsyllaReference_Types.xhtml#PsyllaReference_Types_Details_convertabletorational" xlink:title="convertabletorational" target="_parent">
<polygon fill="linen" stroke="black" points="328.95,-108 217.03,-108 217.03,-72 334.95,-72 334.95,-102 328.95,-108"/>
<polyline fill="none" stroke="black" points="328.95,-108 328.95,-102 "/>
<polyline fill="none" stroke="black" points="334.95,-102 328.95,-102 "/>
<text text-anchor="middle" x="275.99" y="-86.4" font-family="Source Code Pro,monospace" font-size="12.00">convertabletorational</text>
</a>
</g>
</g>
<!-- convertabletorational&#45;&gt;textual -->
<g id="edge4" class="edge">
<title>convertabletorational&#45;&gt;textual</title>
<path fill="none" stroke="black" d="M275.99,-71.7C275.99,-63.98 275.99,-54.71 275.99,-46.11"/>
<polygon fill="black" stroke="black" points="279.49,-46.1 275.99,-36.1 272.49,-46.1 279.49,-46.1"/>
</g>
<!-- iterable -->
<g id="node5" class="node">
<title>iterable</title>
<g id="a_node5"><a xlink:href="PsyllaReference_Types.xhtml#PsyllaReference_Types_Details_iterable" xlink:title="iterable" target="_parent">
<polygon fill="linen" stroke="black" points="485.99,-108 437.99,-108 437.99,-72 491.99,-72 491.99,-102 485.99,-108"/>
<polyline fill="none" stroke="black" points="485.99,-108 485.99,-102 "/>
<polyline fill="none" stroke="black" points="491.99,-102 485.99,-102 "/>
<text text-anchor="middle" x="464.99" y="-86.4" font-family="Source Code Pro,monospace" font-size="12.00">iterable</text>
</a>
</g>
</g>
<!-- iterable&#45;&gt;textual -->
<g id="edge5" class="edge">
<title>iterable&#45;&gt;textual</title>
<path fill="none" stroke="black" d="M437.91,-78.97C405.07,-66.81 349.56,-46.25 312.84,-32.65"/>
<polygon fill="black" stroke="black" points="313.61,-29.2 303.02,-29.01 311.18,-35.77 313.61,-29.2"/>
</g>
<!-- lengthy -->
<g id="node6" class="node">
<title>lengthy</title>
<g id="a_node6"><a xlink:href="PsyllaReference_Types.xhtml#PsyllaReference_Types_Details_lengthy" xlink:title="lengthy" target="_parent">
<polygon fill="linen" stroke="black" points="350.99,-252 302.99,-252 302.99,-216 356.99,-216 356.99,-246 350.99,-252"/>
<polyline fill="none" stroke="black" points="350.99,-252 350.99,-246 "/>
<polyline fill="none" stroke="black" points="356.99,-246 350.99,-246 "/>
<text text-anchor="middle" x="329.99" y="-230.4" font-family="Source Code Pro,monospace" font-size="12.00">lengthy</text>
</a>
</g>
</g>
<!-- lengthy&#45;&gt;textual -->
<g id="edge6" class="edge">
<title>lengthy&#45;&gt;textual</title>
<path fill="none" stroke="black" d="M336.97,-215.97C348.34,-185.38 367.39,-119.9 343.99,-72 337.1,-57.9 324.46,-46.47 311.92,-37.87"/>
<polygon fill="black" stroke="black" points="313.64,-34.82 303.33,-32.38 309.87,-40.72 313.64,-34.82"/>
</g>
<!-- scalar -->
<g id="node7" class="node">
<title>scalar</title>
<g id="a_node7"><a xlink:href="PsyllaReference_Types.xhtml#PsyllaReference_Types_Details_scalar" xlink:title="scalar" target="_parent">
<polygon fill="linen" stroke="black" points="422.99,-252 374.99,-252 374.99,-216 428.99,-216 428.99,-246 422.99,-252"/>
<polyline fill="none" stroke="black" points="422.99,-252 422.99,-246 "/>
<polyline fill="none" stroke="black" points="428.99,-246 422.99,-246 "/>
<text text-anchor="middle" x="401.99" y="-230.4" font-family="Source Code Pro,monospace" font-size="12.00">scalar</text>
</a>
</g>
</g>
<!-- scalar&#45;&gt;textual -->
<g id="edge7" class="edge">
<title>scalar&#45;&gt;textual</title>
<path fill="none" stroke="black" d="M402.14,-215.7C401.56,-184.13 396.32,-116.32 363.99,-72 351.1,-54.33 330.37,-41.43 312.26,-32.78"/>
<polygon fill="black" stroke="black" points="313.64,-29.56 303.09,-28.64 310.77,-35.95 313.64,-29.56"/>
</g>
<!-- object -->
<g id="node9" class="node">
<title>object</title>
<g id="a_node9"><a xlink:href="PsyllaReference_Types.xhtml#PsyllaReference_Types_Details_object" xlink:title="object" target="_parent">
<polygon fill="linen" stroke="black" points="295.99,-324 247.99,-324 247.99,-288 301.99,-288 301.99,-318 295.99,-324"/>
<polyline fill="none" stroke="black" points="295.99,-324 295.99,-318 "/>
<polyline fill="none" stroke="black" points="301.99,-318 295.99,-318 "/>
<text text-anchor="middle" x="274.99" y="-302.4" font-family="Source Code Pro,monospace" font-size="12.00">object</text>
</a>
</g>
</g>
<!-- object&#45;&gt;evaluable -->
<g id="edge8" class="edge">
<title>object&#45;&gt;evaluable</title>
<path fill="none" stroke="black" d="M247.9,-303.3C208.99,-299.64 136.62,-288.11 87.99,-252 66.47,-236.02 50.94,-209.29 41.58,-189.29"/>
<polygon fill="black" stroke="black" points="44.75,-187.8 37.49,-180.09 38.36,-190.65 44.75,-187.8"/>
</g>
<!-- object&#45;&gt;convertabletointeger -->
<g id="edge9" class="edge">
<title>object&#45;&gt;convertabletointeger</title>
<path fill="none" stroke="black" d="M247.78,-290.91C212.52,-271.14 151.91,-231.72 120.99,-180 109.85,-161.38 105.78,-136.99 104.4,-118.45"/>
<polygon fill="black" stroke="black" points="107.88,-118.1 103.86,-108.3 100.89,-118.47 107.88,-118.1"/>
</g>
<!-- object&#45;&gt;convertabletointegral -->
<g id="edge10" class="edge">
<title>object&#45;&gt;convertabletointegral</title>
<path fill="none" stroke="black" d="M264.61,-287.87C249.7,-263.24 222.08,-217.64 204.66,-188.88"/>
<polygon fill="black" stroke="black" points="207.57,-186.93 199.4,-180.19 201.59,-190.56 207.57,-186.93"/>
</g>
<!-- object&#45;&gt;convertabletorational -->
<g id="edge11" class="edge">
<title>object&#45;&gt;convertabletorational</title>
<path fill="none" stroke="black" d="M275.07,-287.85C275.24,-250.83 275.65,-163.18 275.86,-118.39"/>
<polygon fill="black" stroke="black" points="279.36,-118.25 275.91,-108.23 272.36,-118.22 279.36,-118.25"/>
</g>
<!-- object&#45;&gt;lengthy -->
<g id="edge13" class="edge">
<title>object&#45;&gt;lengthy</title>
<path fill="none" stroke="black" d="M288.58,-287.7C295.11,-279.39 303.06,-269.28 310.23,-260.14"/>
<polygon fill="black" stroke="black" points="313.12,-262.13 316.55,-252.1 307.62,-257.81 313.12,-262.13"/>
</g>
<!-- object&#45;&gt;scalar -->
<g id="edge14" class="edge">
<title>object&#45;&gt;scalar</title>
<path fill="none" stroke="black" d="M302.23,-289.98C320.82,-279.74 345.63,-266.07 365.86,-254.92"/>
<polygon fill="black" stroke="black" points="367.72,-257.88 374.79,-249.99 364.34,-251.75 367.72,-257.88"/>
</g>
<!-- sequential -->
<g id="node11" class="node">
<title>sequential</title>
<g id="a_node11"><a xlink:href="PsyllaReference_Types.xhtml#PsyllaReference_Types_Details_sequential" xlink:title="sequential" target="_parent">
<polygon fill="linen" stroke="black" points="505.14,-252 446.84,-252 446.84,-216 511.14,-216 511.14,-246 505.14,-252"/>
<polyline fill="none" stroke="black" points="505.14,-252 505.14,-246 "/>
<polyline fill="none" stroke="black" points="511.14,-246 505.14,-246 "/>
<text text-anchor="middle" x="478.99" y="-230.4" font-family="Source Code Pro,monospace" font-size="12.00">sequential</text>
</a>
</g>
</g>
<!-- object&#45;&gt;sequential -->
<g id="edge16" class="edge">
<title>object&#45;&gt;sequential</title>
<path fill="none" stroke="black" d="M302.04,-296.92C332.71,-287.6 384.39,-271.44 436.94,-252.27"/>
<polygon fill="black" stroke="black" points="438.23,-255.52 446.41,-248.78 435.81,-248.95 438.23,-255.52"/>
</g>
<!-- streamable -->
<g id="node10" class="node">
<title>streamable</title>
<g id="a_node10"><a xlink:href="PsyllaReference_Types.xhtml#PsyllaReference_Types_Details_streamable" xlink:title="streamable" target="_parent">
<polygon fill="linen" stroke="black" points="499.96,-180 438.02,-180 438.02,-144 505.96,-144 505.96,-174 499.96,-180"/>
<polyline fill="none" stroke="black" points="499.96,-180 499.96,-174 "/>
<polyline fill="none" stroke="black" points="505.96,-174 499.96,-174 "/>
<text text-anchor="middle" x="471.99" y="-158.4" font-family="Source Code Pro,monospace" font-size="12.00">streamable</text>
</a>
</g>
</g>
<!-- streamable&#45;&gt;iterable -->
<g id="edge12" class="edge">
<title>streamable&#45;&gt;iterable</title>
<path fill="none" stroke="black" d="M470.26,-143.7C469.49,-135.98 468.56,-126.71 467.7,-118.11"/>
<polygon fill="black" stroke="black" points="471.18,-117.71 466.7,-108.1 464.21,-118.4 471.18,-117.71"/>
</g>
<!-- sequential&#45;&gt;streamable -->
<g id="edge15" class="edge">
<title>sequential&#45;&gt;streamable</title>
<path fill="none" stroke="black" d="M477.26,-215.7C476.49,-207.98 475.56,-198.71 474.7,-190.11"/>
<polygon fill="black" stroke="black" points="478.18,-189.71 473.7,-180.1 471.21,-190.4 478.18,-189.71"/>
</g>
</g>
</svg>
