<?xml version="1.0" encoding="UTF-8" standalone="no"?>
<!DOCTYPE svg PUBLIC "-//W3C//DTD SVG 1.1//EN"
 "http://www.w3.org/Graphics/SVG/1.1/DTD/svg11.dtd">
<!-- Generated by graphviz version 2.43.0 (0)
 -->
<!-- Title: integral Pages: 1 -->
<svg width="759pt" height="476pt"
 viewBox="0.00 0.00 759.01 476.00" xmlns="http://www.w3.org/2000/svg" xmlns:xlink="http://www.w3.org/1999/xlink">
<g id="graph0" class="graph" transform="scale(1 1) rotate(0) translate(4 472)">
<title>integral</title>
<polygon fill="transparent" stroke="transparent" points="-4,4 -4,-472 755.01,-472 755.01,4 -4,4"/>
<!-- bitwise -->
<g id="node1" class="node">
<title>bitwise</title>
<g id="a_node1"><a xlink:href="PsyllaReference_Types.xhtml#PsyllaReference_Types_Details_bitwise" xlink:title="bitwise" target="_parent">
<polygon fill="linen" stroke="black" points="177.51,-180 114.51,-180 114.51,-144 183.51,-144 183.51,-174 177.51,-180"/>
<polyline fill="none" stroke="black" points="177.51,-180 177.51,-174 "/>
<polyline fill="none" stroke="black" points="183.51,-174 177.51,-174 "/>
<text text-anchor="middle" x="149.01" y="-158.9" font-family="Source Code Pro,monospace" font-size="12.00">bitwise</text>
</a>
</g>
</g>
<!-- integral -->
<g id="node3" class="node">
<title>integral</title>
<g id="a_node3"><a xlink:href="PsyllaReference_Types.xhtml#PsyllaReference_Types_Details_integral" xlink:title="integral" target="_parent">
<polygon fill="wheat" stroke="black" points="231.51,-36 160.51,-36 160.51,0 237.51,0 237.51,-30 231.51,-36"/>
<polyline fill="none" stroke="black" points="231.51,-36 231.51,-30 "/>
<polyline fill="none" stroke="black" points="237.51,-30 231.51,-30 "/>
<text text-anchor="middle" x="199.01" y="-14.9" font-family="Source Code Pro,monospace" font-size="12.00">integral</text>
</a>
</g>
</g>
<!-- bitwise&#45;&gt;integral -->
<g id="edge1" class="edge">
<title>bitwise&#45;&gt;integral</title>
<path fill="none" stroke="black" d="M155.04,-143.87C163.64,-119.46 179.5,-74.43 189.63,-45.64"/>
<polygon fill="black" stroke="black" points="192.94,-46.78 192.96,-36.19 186.34,-44.46 192.94,-46.78"/>
</g>
<!-- rational -->
<g id="node2" class="node">
<title>rational</title>
<g id="a_node2"><a xlink:href="PsyllaReference_Types.xhtml#PsyllaReference_Types_Details_rational" xlink:title="rational" target="_parent">
<polygon fill="linen" stroke="black" points="274.51,-108 203.51,-108 203.51,-72 280.51,-72 280.51,-102 274.51,-108"/>
<polyline fill="none" stroke="black" points="274.51,-108 274.51,-102 "/>
<polyline fill="none" stroke="black" points="280.51,-102 274.51,-102 "/>
<text text-anchor="middle" x="242.01" y="-86.9" font-family="Source Code Pro,monospace" font-size="12.00">rational</text>
</a>
</g>
</g>
<!-- rational&#45;&gt;integral -->
<g id="edge2" class="edge">
<title>rational&#45;&gt;integral</title>
<path fill="none" stroke="black" d="M231.38,-71.7C226.39,-63.56 220.32,-53.69 214.8,-44.7"/>
<polygon fill="black" stroke="black" points="217.74,-42.79 209.52,-36.1 211.77,-46.46 217.74,-42.79"/>
</g>
<!-- logical -->
<g id="node4" class="node">
<title>logical</title>
<g id="a_node4"><a xlink:href="PsyllaReference_Types.xhtml#PsyllaReference_Types_Details_logical" xlink:title="logical" target="_parent">
<polygon fill="linen" stroke="black" points="92.51,-396 29.51,-396 29.51,-360 98.51,-360 98.51,-390 92.51,-396"/>
<polyline fill="none" stroke="black" points="92.51,-396 92.51,-390 "/>
<polyline fill="none" stroke="black" points="98.51,-390 92.51,-390 "/>
<text text-anchor="middle" x="64.01" y="-374.9" font-family="Source Code Pro,monospace" font-size="12.00">logical</text>
</a>
</g>
</g>
<!-- logical&#45;&gt;bitwise -->
<g id="edge3" class="edge">
<title>logical&#45;&gt;bitwise</title>
<path fill="none" stroke="black" d="M48.95,-359.6C23.88,-328.45 -20.65,-262.08 11.01,-216 31.8,-185.75 72.43,-172.76 104.25,-167.18"/>
<polygon fill="black" stroke="black" points="104.89,-170.62 114.23,-165.62 103.81,-163.71 104.89,-170.62"/>
</g>
<!-- realnumeric -->
<g id="node5" class="node">
<title>realnumeric</title>
<g id="a_node5"><a xlink:href="PsyllaReference_Types.xhtml#PsyllaReference_Types_Details_realnumeric" xlink:title="realnumeric" target="_parent">
<polygon fill="linen" stroke="black" points="393.51,-180 300.51,-180 300.51,-144 399.51,-144 399.51,-174 393.51,-180"/>
<polyline fill="none" stroke="black" points="393.51,-180 393.51,-174 "/>
<polyline fill="none" stroke="black" points="399.51,-174 393.51,-174 "/>
<text text-anchor="middle" x="350.01" y="-158.9" font-family="Source Code Pro,monospace" font-size="12.00">realnumeric</text>
</a>
</g>
</g>
<!-- realnumeric&#45;&gt;rational -->
<g id="edge4" class="edge">
<title>realnumeric&#45;&gt;rational</title>
<path fill="none" stroke="black" d="M323.59,-143.88C309.6,-134.81 292.24,-123.55 277.13,-113.76"/>
<polygon fill="black" stroke="black" points="278.83,-110.69 268.53,-108.19 275.02,-116.57 278.83,-110.69"/>
</g>
<!-- object -->
<g id="node6" class="node">
<title>object</title>
<g id="a_node6"><a xlink:href="PsyllaReference_Types.xhtml#PsyllaReference_Types_Details_object" xlink:title="object" target="_parent">
<polygon fill="linen" stroke="black" points="463.01,-468 407.01,-468 407.01,-432 469.01,-432 469.01,-462 463.01,-468"/>
<polyline fill="none" stroke="black" points="463.01,-468 463.01,-462 "/>
<polyline fill="none" stroke="black" points="469.01,-462 463.01,-462 "/>
<text text-anchor="middle" x="438.01" y="-446.9" font-family="Source Code Pro,monospace" font-size="12.00">object</text>
</a>
</g>
</g>
<!-- object&#45;&gt;logical -->
<g id="edge5" class="edge">
<title>object&#45;&gt;logical</title>
<path fill="none" stroke="black" d="M406.71,-444.07C351.89,-435.29 235.01,-416.02 137.01,-396 127.84,-394.13 118.05,-391.96 108.72,-389.82"/>
<polygon fill="black" stroke="black" points="109.37,-386.37 98.83,-387.52 107.78,-393.19 109.37,-386.37"/>
</g>
<!-- convertabletointeger -->
<g id="node8" class="node">
<title>convertabletointeger</title>
<g id="a_node8"><a xlink:href="PsyllaReference_Types.xhtml#PsyllaReference_Types_Details_convertabletointeger" xlink:title="convertabletointeger" target="_parent">
<polygon fill="linen" stroke="black" points="181.51,-252 20.51,-252 20.51,-216 187.51,-216 187.51,-246 181.51,-252"/>
<polyline fill="none" stroke="black" points="181.51,-252 181.51,-246 "/>
<polyline fill="none" stroke="black" points="187.51,-246 181.51,-246 "/>
<text text-anchor="middle" x="104.01" y="-230.9" font-family="Source Code Pro,monospace" font-size="12.00">convertabletointeger</text>
</a>
</g>
</g>
<!-- object&#45;&gt;convertabletointeger -->
<g id="edge13" class="edge">
<title>object&#45;&gt;convertabletointeger</title>
<path fill="none" stroke="black" d="M407,-442.64C373.92,-434.97 320.77,-420.01 280.01,-396 216.26,-358.45 155.76,-294.89 125.03,-259.91"/>
<polygon fill="black" stroke="black" points="127.43,-257.34 118.23,-252.08 122.15,-261.93 127.43,-257.34"/>
</g>
<!-- convertabletointegral -->
<g id="node9" class="node">
<title>convertabletointegral</title>
<g id="a_node9"><a xlink:href="PsyllaReference_Types.xhtml#PsyllaReference_Types_Details_convertabletointegral" xlink:title="convertabletointegral" target="_parent">
<polygon fill="linen" stroke="black" points="374.01,-252 206.01,-252 206.01,-216 380.01,-216 380.01,-246 374.01,-252"/>
<polyline fill="none" stroke="black" points="374.01,-252 374.01,-246 "/>
<polyline fill="none" stroke="black" points="380.01,-246 374.01,-246 "/>
<text text-anchor="middle" x="293.01" y="-230.9" font-family="Source Code Pro,monospace" font-size="12.00">convertabletointegral</text>
</a>
</g>
</g>
<!-- object&#45;&gt;convertabletointegral -->
<g id="edge14" class="edge">
<title>object&#45;&gt;convertabletointegral</title>
<path fill="none" stroke="black" d="M406.83,-438.22C363.79,-421.43 287.88,-384.55 256.01,-324 245.1,-303.26 257.2,-278.57 270.41,-260.46"/>
<polygon fill="black" stroke="black" points="273.5,-262.19 276.88,-252.15 267.98,-257.89 273.5,-262.19"/>
</g>
<!-- convertabletorational -->
<g id="node10" class="node">
<title>convertabletorational</title>
<g id="a_node10"><a xlink:href="PsyllaReference_Types.xhtml#PsyllaReference_Types_Details_convertabletorational" xlink:title="convertabletorational" target="_parent">
<polygon fill="linen" stroke="black" points="433.01,-324 265.01,-324 265.01,-288 439.01,-288 439.01,-318 433.01,-324"/>
<polyline fill="none" stroke="black" points="433.01,-324 433.01,-318 "/>
<polyline fill="none" stroke="black" points="439.01,-318 433.01,-318 "/>
<text text-anchor="middle" x="352.01" y="-302.9" font-family="Source Code Pro,monospace" font-size="12.00">convertabletorational</text>
</a>
</g>
</g>
<!-- object&#45;&gt;convertabletorational -->
<g id="edge15" class="edge">
<title>object&#45;&gt;convertabletorational</title>
<path fill="none" stroke="black" d="M427.64,-431.87C412.72,-407.24 385.1,-361.64 367.69,-332.88"/>
<polygon fill="black" stroke="black" points="370.6,-330.93 362.42,-324.19 364.61,-334.56 370.6,-330.93"/>
</g>
<!-- scalar -->
<g id="node11" class="node">
<title>scalar</title>
<g id="a_node11"><a xlink:href="PsyllaReference_Types.xhtml#PsyllaReference_Types_Details_scalar" xlink:title="scalar" target="_parent">
<polygon fill="linen" stroke="black" points="492.01,-252 436.01,-252 436.01,-216 498.01,-216 498.01,-246 492.01,-252"/>
<polyline fill="none" stroke="black" points="492.01,-252 492.01,-246 "/>
<polyline fill="none" stroke="black" points="498.01,-246 492.01,-246 "/>
<text text-anchor="middle" x="467.01" y="-230.9" font-family="Source Code Pro,monospace" font-size="12.00">scalar</text>
</a>
</g>
</g>
<!-- object&#45;&gt;scalar -->
<g id="edge16" class="edge">
<title>object&#45;&gt;scalar</title>
<path fill="none" stroke="black" d="M440.34,-431.85C445.35,-394.83 457.23,-307.18 463.3,-262.39"/>
<polygon fill="black" stroke="black" points="466.8,-262.61 464.68,-252.23 459.87,-261.67 466.8,-262.61"/>
</g>
<!-- atomic -->
<g id="node12" class="node">
<title>atomic</title>
<g id="a_node12"><a xlink:href="PsyllaReference_Types.xhtml#PsyllaReference_Types_Details_atomic" xlink:title="atomic" target="_parent">
<polygon fill="linen" stroke="black" points="551.01,-324 495.01,-324 495.01,-288 557.01,-288 557.01,-318 551.01,-324"/>
<polyline fill="none" stroke="black" points="551.01,-324 551.01,-318 "/>
<polyline fill="none" stroke="black" points="557.01,-318 551.01,-318 "/>
<text text-anchor="middle" x="526.01" y="-302.9" font-family="Source Code Pro,monospace" font-size="12.00">atomic</text>
</a>
</g>
</g>
<!-- object&#45;&gt;atomic -->
<g id="edge17" class="edge">
<title>object&#45;&gt;atomic</title>
<path fill="none" stroke="black" d="M453.74,-431.57C462.35,-421.56 472.9,-408.53 481.01,-396 493.96,-376.02 505.98,-351.82 514.34,-333.7"/>
<polygon fill="black" stroke="black" points="517.65,-334.88 518.59,-324.33 511.27,-331.99 517.65,-334.88"/>
</g>
<!-- additive -->
<g id="node14" class="node">
<title>additive</title>
<g id="a_node14"><a xlink:href="PsyllaReference_Types.xhtml#PsyllaReference_Types_Details_additive" xlink:title="additive" target="_parent">
<polygon fill="linen" stroke="black" points="604.51,-396 533.51,-396 533.51,-360 610.51,-360 610.51,-390 604.51,-396"/>
<polyline fill="none" stroke="black" points="604.51,-396 604.51,-390 "/>
<polyline fill="none" stroke="black" points="610.51,-390 604.51,-390 "/>
<text text-anchor="middle" x="572.01" y="-374.9" font-family="Source Code Pro,monospace" font-size="12.00">additive</text>
</a>
</g>
</g>
<!-- object&#45;&gt;additive -->
<g id="edge20" class="edge">
<title>object&#45;&gt;additive</title>
<path fill="none" stroke="black" d="M469.09,-432.76C487.25,-423.28 510.4,-411.19 530.14,-400.87"/>
<polygon fill="black" stroke="black" points="531.99,-403.86 539.23,-396.12 528.75,-397.65 531.99,-403.86"/>
</g>
<!-- multiplicative -->
<g id="node15" class="node">
<title>multiplicative</title>
<g id="a_node15"><a xlink:href="PsyllaReference_Types.xhtml#PsyllaReference_Types_Details_multiplicative" xlink:title="multiplicative" target="_parent">
<polygon fill="linen" stroke="black" points="745.01,-396 629.01,-396 629.01,-360 751.01,-360 751.01,-390 745.01,-396"/>
<polyline fill="none" stroke="black" points="745.01,-396 745.01,-390 "/>
<polyline fill="none" stroke="black" points="751.01,-390 745.01,-390 "/>
<text text-anchor="middle" x="690.01" y="-374.9" font-family="Source Code Pro,monospace" font-size="12.00">multiplicative</text>
</a>
</g>
</g>
<!-- object&#45;&gt;multiplicative -->
<g id="edge21" class="edge">
<title>object&#45;&gt;multiplicative</title>
<path fill="none" stroke="black" d="M469.17,-440.35C506.39,-430.01 569.82,-412.39 619.18,-398.68"/>
<polygon fill="black" stroke="black" points="620.15,-402.04 628.85,-395.99 618.28,-395.29 620.15,-402.04"/>
</g>
<!-- numeric -->
<g id="node7" class="node">
<title>numeric</title>
<g id="a_node7"><a xlink:href="PsyllaReference_Types.xhtml#PsyllaReference_Types_Details_numeric" xlink:title="numeric" target="_parent">
<polygon fill="linen" stroke="black" points="579.51,-252 516.51,-252 516.51,-216 585.51,-216 585.51,-246 579.51,-252"/>
<polyline fill="none" stroke="black" points="579.51,-252 579.51,-246 "/>
<polyline fill="none" stroke="black" points="585.51,-246 579.51,-246 "/>
<text text-anchor="middle" x="551.01" y="-230.9" font-family="Source Code Pro,monospace" font-size="12.00">numeric</text>
</a>
</g>
</g>
<!-- numeric&#45;&gt;realnumeric -->
<g id="edge6" class="edge">
<title>numeric&#45;&gt;realnumeric</title>
<path fill="none" stroke="black" d="M516.48,-219.5C513.29,-218.3 510.09,-217.11 507.01,-216 474.93,-204.39 438.88,-192.17 409.42,-182.38"/>
<polygon fill="black" stroke="black" points="410.29,-178.99 399.7,-179.17 408.09,-185.63 410.29,-178.99"/>
</g>
<!-- convertabletointeger&#45;&gt;realnumeric -->
<g id="edge7" class="edge">
<title>convertabletointeger&#45;&gt;realnumeric</title>
<path fill="none" stroke="black" d="M163.88,-215.97C202.26,-205.04 251.9,-190.92 290.26,-180"/>
<polygon fill="black" stroke="black" points="291.6,-183.26 300.26,-177.16 289.68,-176.53 291.6,-183.26"/>
</g>
<!-- convertabletointegral&#45;&gt;realnumeric -->
<g id="edge8" class="edge">
<title>convertabletointegral&#45;&gt;realnumeric</title>
<path fill="none" stroke="black" d="M307.1,-215.7C313.94,-207.3 322.27,-197.07 329.77,-187.86"/>
<polygon fill="black" stroke="black" points="332.49,-190.07 336.09,-180.1 327.06,-185.65 332.49,-190.07"/>
</g>
<!-- convertabletorational&#45;&gt;realnumeric -->
<g id="edge9" class="edge">
<title>convertabletorational&#45;&gt;realnumeric</title>
<path fill="none" stroke="black" d="M368.05,-287.85C376.03,-278.12 384.84,-265.27 389.01,-252 393.81,-236.74 394,-231.2 389.01,-216 385.7,-205.91 379.65,-196.15 373.28,-187.82"/>
<polygon fill="black" stroke="black" points="375.94,-185.54 366.9,-180.01 370.51,-189.97 375.94,-185.54"/>
</g>
<!-- scalar&#45;&gt;realnumeric -->
<g id="edge10" class="edge">
<title>scalar&#45;&gt;realnumeric</title>
<path fill="none" stroke="black" d="M438.39,-215.88C423.09,-206.72 404.07,-195.34 387.6,-185.48"/>
<polygon fill="black" stroke="black" points="389.12,-182.32 378.74,-180.19 385.53,-188.33 389.12,-182.32"/>
</g>
<!-- atomic&#45;&gt;numeric -->
<g id="edge11" class="edge">
<title>atomic&#45;&gt;numeric</title>
<path fill="none" stroke="black" d="M532.19,-287.7C535.01,-279.81 538.4,-270.3 541.53,-261.55"/>
<polygon fill="black" stroke="black" points="544.84,-262.7 544.9,-252.1 538.24,-260.34 544.84,-262.7"/>
</g>
<!-- arithmetic -->
<g id="node13" class="node">
<title>arithmetic</title>
<g id="a_node13"><a xlink:href="PsyllaReference_Types.xhtml#PsyllaReference_Types_Details_arithmetic" xlink:title="arithmetic" target="_parent">
<polygon fill="linen" stroke="black" points="661.01,-324 575.01,-324 575.01,-288 667.01,-288 667.01,-318 661.01,-324"/>
<polyline fill="none" stroke="black" points="661.01,-324 661.01,-318 "/>
<polyline fill="none" stroke="black" points="667.01,-318 661.01,-318 "/>
<text text-anchor="middle" x="621.01" y="-302.9" font-family="Source Code Pro,monospace" font-size="12.00">arithmetic</text>
</a>
</g>
</g>
<!-- arithmetic&#45;&gt;numeric -->
<g id="edge12" class="edge">
<title>arithmetic&#45;&gt;numeric</title>
<path fill="none" stroke="black" d="M603.71,-287.7C595.15,-279.14 584.67,-268.66 575.32,-259.3"/>
<polygon fill="black" stroke="black" points="577.66,-256.7 568.12,-252.1 572.71,-261.65 577.66,-256.7"/>
</g>
<!-- additive&#45;&gt;arithmetic -->
<g id="edge18" class="edge">
<title>additive&#45;&gt;arithmetic</title>
<path fill="none" stroke="black" d="M584.13,-359.7C589.88,-351.47 596.87,-341.48 603.22,-332.42"/>
<polygon fill="black" stroke="black" points="606.17,-334.3 609.04,-324.1 600.44,-330.29 606.17,-334.3"/>
</g>
<!-- multiplicative&#45;&gt;arithmetic -->
<g id="edge19" class="edge">
<title>multiplicative&#45;&gt;arithmetic</title>
<path fill="none" stroke="black" d="M672.96,-359.7C664.52,-351.14 654.19,-340.66 644.97,-331.3"/>
<polygon fill="black" stroke="black" points="647.39,-328.77 637.87,-324.1 642.4,-333.68 647.39,-328.77"/>
</g>
</g>
</svg>
