<?xml version="1.0" encoding="UTF-8" standalone="no"?>
<!DOCTYPE svg PUBLIC "-//W3C//DTD SVG 1.1//EN"
 "http://www.w3.org/Graphics/SVG/1.1/DTD/svg11.dtd">
<!-- Generated by graphviz version 2.43.0 (0)
 -->
<!-- Title: textual Pages: 1 -->
<svg width="285pt" height="332pt"
 viewBox="0.00 0.00 285.00 332.00" xmlns="http://www.w3.org/2000/svg" xmlns:xlink="http://www.w3.org/1999/xlink">
<g id="graph0" class="graph" transform="scale(1 1) rotate(0) translate(4 328)">
<title>textual</title>
<polygon fill="transparent" stroke="transparent" points="-4,4 -4,-328 281,-328 281,4 -4,4"/>
<!-- evaluable -->
<g id="node1" class="node">
<title>evaluable</title>
<g id="a_node1"><a xlink:href="PsyllaReference_Types.xhtml#PsyllaReference_Types_Details_evaluable" xlink:title="evaluable" target="_parent">
<polygon fill="linen" stroke="black" points="65,-180 0,-180 0,-144 71,-144 71,-174 65,-180"/>
<polyline fill="none" stroke="black" points="65,-180 65,-174 "/>
<polyline fill="none" stroke="black" points="71,-174 65,-174 "/>
<text text-anchor="middle" x="35.5" y="-159.5" font-family="PT Mono, monospace" font-size="10.00">evaluable</text>
</a>
</g>
</g>
<!-- textual -->
<g id="node5" class="node">
<title>textual</title>
<g id="a_node5"><a xlink:href="PsyllaReference_Types.xhtml#PsyllaReference_Types_Details_textual" xlink:title="textual" target="_parent">
<polygon fill="wheat" stroke="black" points="150,-36 97,-36 97,0 156,0 156,-30 150,-36"/>
<polyline fill="none" stroke="black" points="150,-36 150,-30 "/>
<polyline fill="none" stroke="black" points="156,-30 150,-30 "/>
<text text-anchor="middle" x="126.5" y="-15.5" font-family="PT Mono, monospace" font-size="10.00">textual</text>
</a>
</g>
</g>
<!-- evaluable&#45;&gt;textual -->
<g id="edge1" class="edge">
<title>evaluable&#45;&gt;textual</title>
<path fill="none" stroke="black" d="M36.64,-143.95C38.61,-124.99 43.96,-94.15 58.5,-72 66.22,-60.23 77.45,-49.96 88.56,-41.67"/>
<polygon fill="black" stroke="black" points="90.82,-44.36 96.97,-35.73 86.79,-38.64 90.82,-44.36"/>
</g>
<!-- iterable -->
<g id="node2" class="node">
<title>iterable</title>
<g id="a_node2"><a xlink:href="PsyllaReference_Types.xhtml#PsyllaReference_Types_Details_iterable" xlink:title="iterable" target="_parent">
<polygon fill="linen" stroke="black" points="250,-108 191,-108 191,-72 256,-72 256,-102 250,-108"/>
<polyline fill="none" stroke="black" points="250,-108 250,-102 "/>
<polyline fill="none" stroke="black" points="256,-102 250,-102 "/>
<text text-anchor="middle" x="223.5" y="-87.5" font-family="PT Mono, monospace" font-size="10.00">iterable</text>
</a>
</g>
</g>
<!-- iterable&#45;&gt;textual -->
<g id="edge2" class="edge">
<title>iterable&#45;&gt;textual</title>
<path fill="none" stroke="black" d="M199.52,-71.7C187.19,-62.8 171.98,-51.82 158.65,-42.2"/>
<polygon fill="black" stroke="black" points="160.36,-39.12 150.2,-36.1 156.26,-44.79 160.36,-39.12"/>
</g>
<!-- lengthy -->
<g id="node3" class="node">
<title>lengthy</title>
<g id="a_node3"><a xlink:href="PsyllaReference_Types.xhtml#PsyllaReference_Types_Details_lengthy" xlink:title="lengthy" target="_parent">
<polygon fill="linen" stroke="black" points="121,-108 68,-108 68,-72 127,-72 127,-102 121,-108"/>
<polyline fill="none" stroke="black" points="121,-108 121,-102 "/>
<polyline fill="none" stroke="black" points="127,-102 121,-102 "/>
<text text-anchor="middle" x="97.5" y="-87.5" font-family="PT Mono, monospace" font-size="10.00">lengthy</text>
</a>
</g>
</g>
<!-- lengthy&#45;&gt;textual -->
<g id="edge3" class="edge">
<title>lengthy&#45;&gt;textual</title>
<path fill="none" stroke="black" d="M104.67,-71.7C107.93,-63.81 111.87,-54.3 115.5,-45.55"/>
<polygon fill="black" stroke="black" points="118.82,-46.68 119.41,-36.1 112.35,-44 118.82,-46.68"/>
</g>
<!-- scalar -->
<g id="node4" class="node">
<title>scalar</title>
<g id="a_node4"><a xlink:href="PsyllaReference_Types.xhtml#PsyllaReference_Types_Details_scalar" xlink:title="scalar" target="_parent">
<polygon fill="linen" stroke="black" points="175.5,-252 127.5,-252 127.5,-216 181.5,-216 181.5,-246 175.5,-252"/>
<polyline fill="none" stroke="black" points="175.5,-252 175.5,-246 "/>
<polyline fill="none" stroke="black" points="181.5,-246 175.5,-246 "/>
<text text-anchor="middle" x="154.5" y="-231.5" font-family="PT Mono, monospace" font-size="10.00">scalar</text>
</a>
</g>
</g>
<!-- scalar&#45;&gt;textual -->
<g id="edge4" class="edge">
<title>scalar&#45;&gt;textual</title>
<path fill="none" stroke="black" d="M152.74,-215.57C149.68,-185.99 142.99,-124.1 135.5,-72 134.29,-63.56 132.79,-54.38 131.37,-46.08"/>
<polygon fill="black" stroke="black" points="134.81,-45.4 129.64,-36.15 127.91,-46.6 134.81,-45.4"/>
</g>
<!-- object -->
<g id="node6" class="node">
<title>object</title>
<g id="a_node6"><a xlink:href="PsyllaReference_Types.xhtml#PsyllaReference_Types_Details_object" xlink:title="object" target="_parent">
<polygon fill="linen" stroke="black" points="147.5,-324 99.5,-324 99.5,-288 153.5,-288 153.5,-318 147.5,-324"/>
<polyline fill="none" stroke="black" points="147.5,-324 147.5,-318 "/>
<polyline fill="none" stroke="black" points="153.5,-318 147.5,-318 "/>
<text text-anchor="middle" x="126.5" y="-303.5" font-family="PT Mono, monospace" font-size="10.00">object</text>
</a>
</g>
</g>
<!-- object&#45;&gt;evaluable -->
<g id="edge5" class="edge">
<title>object&#45;&gt;evaluable</title>
<path fill="none" stroke="black" d="M112.17,-287.81C103.97,-277.66 93.72,-264.41 85.5,-252 72.04,-231.68 58.61,-207.51 49.06,-189.48"/>
<polygon fill="black" stroke="black" points="51.92,-187.4 44.18,-180.17 45.72,-190.65 51.92,-187.4"/>
</g>
<!-- object&#45;&gt;lengthy -->
<g id="edge7" class="edge">
<title>object&#45;&gt;lengthy</title>
<path fill="none" stroke="black" d="M123.82,-287.83C122.22,-277.46 120.19,-263.98 118.5,-252 111.9,-205.1 104.92,-150.42 100.9,-118.37"/>
<polygon fill="black" stroke="black" points="104.37,-117.9 99.65,-108.41 97.42,-118.76 104.37,-117.9"/>
</g>
<!-- object&#45;&gt;scalar -->
<g id="edge8" class="edge">
<title>object&#45;&gt;scalar</title>
<path fill="none" stroke="black" d="M133.42,-287.7C136.57,-279.81 140.38,-270.3 143.88,-261.55"/>
<polygon fill="black" stroke="black" points="147.19,-262.69 147.66,-252.1 140.69,-260.09 147.19,-262.69"/>
</g>
<!-- sequential -->
<g id="node8" class="node">
<title>sequential</title>
<g id="a_node8"><a xlink:href="PsyllaReference_Types.xhtml#PsyllaReference_Types_Details_sequential" xlink:title="sequential" target="_parent">
<polygon fill="linen" stroke="black" points="271,-252 200,-252 200,-216 277,-216 277,-246 271,-252"/>
<polyline fill="none" stroke="black" points="271,-252 271,-246 "/>
<polyline fill="none" stroke="black" points="277,-246 271,-246 "/>
<text text-anchor="middle" x="238.5" y="-231.5" font-family="PT Mono, monospace" font-size="10.00">sequential</text>
</a>
</g>
</g>
<!-- object&#45;&gt;sequential -->
<g id="edge10" class="edge">
<title>object&#45;&gt;sequential</title>
<path fill="none" stroke="black" d="M153.61,-288.05C168.36,-278.84 186.79,-267.32 202.71,-257.37"/>
<polygon fill="black" stroke="black" points="204.62,-260.3 211.25,-252.03 200.91,-254.36 204.62,-260.3"/>
</g>
<!-- streamable -->
<g id="node7" class="node">
<title>streamable</title>
<g id="a_node7"><a xlink:href="PsyllaReference_Types.xhtml#PsyllaReference_Types_Details_streamable" xlink:title="streamable" target="_parent">
<polygon fill="linen" stroke="black" points="263,-180 192,-180 192,-144 269,-144 269,-174 263,-180"/>
<polyline fill="none" stroke="black" points="263,-180 263,-174 "/>
<polyline fill="none" stroke="black" points="269,-174 263,-174 "/>
<text text-anchor="middle" x="230.5" y="-159.5" font-family="PT Mono, monospace" font-size="10.00">streamable</text>
</a>
</g>
</g>
<!-- streamable&#45;&gt;iterable -->
<g id="edge6" class="edge">
<title>streamable&#45;&gt;iterable</title>
<path fill="none" stroke="black" d="M228.77,-143.7C228,-135.98 227.07,-126.71 226.21,-118.11"/>
<polygon fill="black" stroke="black" points="229.69,-117.71 225.21,-108.1 222.72,-118.4 229.69,-117.71"/>
</g>
<!-- sequential&#45;&gt;streamable -->
<g id="edge9" class="edge">
<title>sequential&#45;&gt;streamable</title>
<path fill="none" stroke="black" d="M236.52,-215.7C235.64,-207.98 234.58,-198.71 233.6,-190.11"/>
<polygon fill="black" stroke="black" points="237.07,-189.64 232.45,-180.1 230.11,-190.44 237.07,-189.64"/>
</g>
</g>
</svg>
