<?xml version="1.0" encoding="UTF-8" standalone="no"?>
<!DOCTYPE svg PUBLIC "-//W3C//DTD SVG 1.1//EN"
 "http://www.w3.org/Graphics/SVG/1.1/DTD/svg11.dtd">
<!-- Generated by graphviz version 14.0.0 (0)
 -->
<!-- Title: textual Pages: 1 -->
<svg width="519pt" height="332pt"
 viewBox="0.00 0.00 519.00 332.00" xmlns="http://www.w3.org/2000/svg" xmlns:xlink="http://www.w3.org/1999/xlink">
<g id="graph0" class="graph" transform="scale(1 1) rotate(0) translate(4 328)">
<title>textual</title>
<polygon fill="none" stroke="none" points="-4,4 -4,-328 515.31,-328 515.31,4 -4,4"/>
<!-- evaluable -->
<g id="node1" class="node">
<title>evaluable</title>
<g id="a_node1"><a xlink:href="PsyllaReference_Types.xhtml#PsyllaReference_Types_Details_evaluable" xlink:title="evaluable" target="_parent">
<polygon fill="linen" stroke="black" points="55.97,-180 0,-180 0,-144 61.97,-144 61.97,-174 55.97,-180"/>
<polyline fill="none" stroke="black" points="55.97,-180 55.97,-174"/>
<polyline fill="none" stroke="black" points="61.97,-174 55.97,-174"/>
<text xml:space="preserve" text-anchor="middle" x="30.99" y="-158.4" font-family="Source Code Pro,monospace" font-size="12.00">evaluable</text>
</a>
</g>
</g>
<!-- textual -->
<g id="node8" class="node">
<title>textual</title>
<g id="a_node8"><a xlink:href="PsyllaReference_Types.xhtml#PsyllaReference_Types_Details_textual" xlink:title="textual" target="_parent">
<polygon fill="wheat" stroke="black" points="296.99,-36 248.99,-36 248.99,0 302.99,0 302.99,-30 296.99,-36"/>
<polyline fill="none" stroke="black" points="296.99,-36 296.99,-30"/>
<polyline fill="none" stroke="black" points="302.99,-30 296.99,-30"/>
<text xml:space="preserve" text-anchor="middle" x="275.99" y="-14.4" font-family="Source Code Pro,monospace" font-size="12.00">textual</text>
</a>
</g>
</g>
<!-- evaluable&#45;&gt;textual -->
<g id="edge1" class="edge">
<title>evaluable&#45;&gt;textual</title>
<path fill="none" stroke="black" d="M26.85,-143.65C23.23,-123.85 20.91,-91.66 37.99,-72 63.68,-42.41 176.71,-27.9 237.3,-22.13"/>
<polygon fill="black" stroke="black" points="237.53,-25.63 247.17,-21.23 236.89,-18.65 237.53,-25.63"/>
</g>
<!-- convertabletointeger -->
<g id="node2" class="node">
<title>convertabletointeger</title>
<g id="a_node2"><a xlink:href="PsyllaReference_Types.xhtml#PsyllaReference_Types_Details_convertabletointeger" xlink:title="convertabletointeger" target="_parent">
<polygon fill="linen" stroke="black" points="155.3,-108 46.68,-108 46.68,-72 161.3,-72 161.3,-102 155.3,-108"/>
<polyline fill="none" stroke="black" points="155.3,-108 155.3,-102"/>
<polyline fill="none" stroke="black" points="161.3,-102 155.3,-102"/>
<text xml:space="preserve" text-anchor="middle" x="103.99" y="-86.4" font-family="Source Code Pro,monospace" font-size="12.00">convertabletointeger</text>
</a>
</g>
</g>
<!-- convertabletointeger&#45;&gt;textual -->
<g id="edge2" class="edge">
<title>convertabletointeger&#45;&gt;textual</title>
<path fill="none" stroke="black" d="M146.95,-71.52C174.93,-60.13 211.11,-45.4 238.03,-34.45"/>
<polygon fill="black" stroke="black" points="239.24,-37.73 247.19,-30.72 236.61,-31.25 239.24,-37.73"/>
</g>
<!-- convertabletointegral -->
<g id="node3" class="node">
<title>convertabletointegral</title>
<g id="a_node3"><a xlink:href="PsyllaReference_Types.xhtml#PsyllaReference_Types_Details_convertabletointegral" xlink:title="convertabletointegral" target="_parent">
<polygon fill="linen" stroke="black" points="241.96,-180 130.01,-180 130.01,-144 247.96,-144 247.96,-174 241.96,-180"/>
<polyline fill="none" stroke="black" points="241.96,-180 241.96,-174"/>
<polyline fill="none" stroke="black" points="247.96,-174 241.96,-174"/>
<text xml:space="preserve" text-anchor="middle" x="188.99" y="-158.4" font-family="Source Code Pro,monospace" font-size="12.00">convertabletointegral</text>
</a>
</g>
</g>
<!-- convertabletointegral&#45;&gt;textual -->
<g id="edge3" class="edge">
<title>convertabletointegral&#45;&gt;textual</title>
<path fill="none" stroke="black" d="M189.24,-143.63C190.26,-124.68 194.15,-94.09 207.99,-72 215.82,-59.49 227.71,-48.75 239.37,-40.28"/>
<polygon fill="black" stroke="black" points="241.06,-43.36 247.34,-34.83 237.11,-37.58 241.06,-43.36"/>
</g>
<!-- convertabletorational -->
<g id="node4" class="node">
<title>convertabletorational</title>
<g id="a_node4"><a xlink:href="PsyllaReference_Types.xhtml#PsyllaReference_Types_Details_convertabletorational" xlink:title="convertabletorational" target="_parent">
<polygon fill="linen" stroke="black" points="328.96,-108 217.01,-108 217.01,-72 334.96,-72 334.96,-102 328.96,-108"/>
<polyline fill="none" stroke="black" points="328.96,-108 328.96,-102"/>
<polyline fill="none" stroke="black" points="334.96,-102 328.96,-102"/>
<text xml:space="preserve" text-anchor="middle" x="275.99" y="-86.4" font-family="Source Code Pro,monospace" font-size="12.00">convertabletorational</text>
</a>
</g>
</g>
<!-- convertabletorational&#45;&gt;textual -->
<g id="edge4" class="edge">
<title>convertabletorational&#45;&gt;textual</title>
<path fill="none" stroke="black" d="M275.99,-71.7C275.99,-64.41 275.99,-55.73 275.99,-47.54"/>
<polygon fill="black" stroke="black" points="279.49,-47.62 275.99,-37.62 272.49,-47.62 279.49,-47.62"/>
</g>
<!-- iterable -->
<g id="node5" class="node">
<title>iterable</title>
<g id="a_node5"><a xlink:href="PsyllaReference_Types.xhtml#PsyllaReference_Types_Details_iterable" xlink:title="iterable" target="_parent">
<polygon fill="linen" stroke="black" points="483.99,-108 435.99,-108 435.99,-72 489.99,-72 489.99,-102 483.99,-108"/>
<polyline fill="none" stroke="black" points="483.99,-108 483.99,-102"/>
<polyline fill="none" stroke="black" points="489.99,-102 483.99,-102"/>
<text xml:space="preserve" text-anchor="middle" x="462.99" y="-86.4" font-family="Source Code Pro,monospace" font-size="12.00">iterable</text>
</a>
</g>
</g>
<!-- iterable&#45;&gt;textual -->
<g id="edge5" class="edge">
<title>iterable&#45;&gt;textual</title>
<path fill="none" stroke="black" d="M435.79,-78.82C403.66,-66.79 350.01,-46.71 313.83,-33.17"/>
<polygon fill="black" stroke="black" points="315.22,-29.95 304.63,-29.72 312.77,-36.51 315.22,-29.95"/>
</g>
<!-- lengthy -->
<g id="node6" class="node">
<title>lengthy</title>
<g id="a_node6"><a xlink:href="PsyllaReference_Types.xhtml#PsyllaReference_Types_Details_lengthy" xlink:title="lengthy" target="_parent">
<polygon fill="linen" stroke="black" points="350.99,-252 302.99,-252 302.99,-216 356.99,-216 356.99,-246 350.99,-252"/>
<polyline fill="none" stroke="black" points="350.99,-252 350.99,-246"/>
<polyline fill="none" stroke="black" points="356.99,-246 350.99,-246"/>
<text xml:space="preserve" text-anchor="middle" x="329.99" y="-230.4" font-family="Source Code Pro,monospace" font-size="12.00">lengthy</text>
</a>
</g>
</g>
<!-- lengthy&#45;&gt;textual -->
<g id="edge6" class="edge">
<title>lengthy&#45;&gt;textual</title>
<path fill="none" stroke="black" d="M336.96,-215.97C348.34,-185.38 367.38,-119.9 343.99,-72 337.3,-58.31 325.18,-47.13 313,-38.62"/>
<polygon fill="black" stroke="black" points="314.9,-35.68 304.6,-33.2 311.11,-41.56 314.9,-35.68"/>
</g>
<!-- scalar -->
<g id="node7" class="node">
<title>scalar</title>
<g id="a_node7"><a xlink:href="PsyllaReference_Types.xhtml#PsyllaReference_Types_Details_scalar" xlink:title="scalar" target="_parent">
<polygon fill="linen" stroke="black" points="422.99,-252 374.99,-252 374.99,-216 428.99,-216 428.99,-246 422.99,-252"/>
<polyline fill="none" stroke="black" points="422.99,-252 422.99,-246"/>
<polyline fill="none" stroke="black" points="428.99,-246 422.99,-246"/>
<text xml:space="preserve" text-anchor="middle" x="401.99" y="-230.4" font-family="Source Code Pro,monospace" font-size="12.00">scalar</text>
</a>
</g>
</g>
<!-- scalar&#45;&gt;textual -->
<g id="edge7" class="edge">
<title>scalar&#45;&gt;textual</title>
<path fill="none" stroke="black" d="M401.98,-215.71C401.14,-184.15 395.38,-116.36 362.99,-72 350.52,-54.92 330.73,-42.24 313.17,-33.57"/>
<polygon fill="black" stroke="black" points="315.07,-30.6 304.53,-29.56 312.13,-36.95 315.07,-30.6"/>
</g>
<!-- object -->
<g id="node9" class="node">
<title>object</title>
<g id="a_node9"><a xlink:href="PsyllaReference_Types.xhtml#PsyllaReference_Types_Details_object" xlink:title="object" target="_parent">
<polygon fill="linen" stroke="black" points="295.99,-324 247.99,-324 247.99,-288 301.99,-288 301.99,-318 295.99,-324"/>
<polyline fill="none" stroke="black" points="295.99,-324 295.99,-318"/>
<polyline fill="none" stroke="black" points="301.99,-318 295.99,-318"/>
<text xml:space="preserve" text-anchor="middle" x="274.99" y="-302.4" font-family="Source Code Pro,monospace" font-size="12.00">object</text>
</a>
</g>
</g>
<!-- object&#45;&gt;evaluable -->
<g id="edge8" class="edge">
<title>object&#45;&gt;evaluable</title>
<path fill="none" stroke="black" d="M247.57,-303.27C208.59,-299.57 136.48,-288.01 87.99,-252 66.98,-236.4 51.69,-210.57 42.27,-190.74"/>
<polygon fill="black" stroke="black" points="45.55,-189.51 38.26,-181.83 39.17,-192.38 45.55,-189.51"/>
</g>
<!-- object&#45;&gt;convertabletointeger -->
<g id="edge9" class="edge">
<title>object&#45;&gt;convertabletointeger</title>
<path fill="none" stroke="black" d="M247.78,-290.91C212.52,-271.14 151.91,-231.72 120.99,-180 110.11,-161.81 105.98,-138.12 104.5,-119.76"/>
<polygon fill="black" stroke="black" points="107.99,-119.6 103.94,-109.81 101,-119.99 107.99,-119.6"/>
</g>
<!-- object&#45;&gt;convertabletointegral -->
<g id="edge10" class="edge">
<title>object&#45;&gt;convertabletointegral</title>
<path fill="none" stroke="black" d="M264.44,-287.59C249.66,-263.18 222.65,-218.58 205.27,-189.89"/>
<polygon fill="black" stroke="black" points="208.31,-188.15 200.13,-181.41 202.32,-191.77 208.31,-188.15"/>
</g>
<!-- object&#45;&gt;convertabletorational -->
<g id="edge11" class="edge">
<title>object&#45;&gt;convertabletorational</title>
<path fill="none" stroke="black" d="M275.07,-287.85C275.24,-251.14 275.64,-164.66 275.85,-119.53"/>
<polygon fill="black" stroke="black" points="279.35,-119.76 275.9,-109.75 272.35,-119.73 279.35,-119.76"/>
</g>
<!-- object&#45;&gt;lengthy -->
<g id="edge13" class="edge">
<title>object&#45;&gt;lengthy</title>
<path fill="none" stroke="black" d="M288.58,-287.7C294.91,-279.64 302.57,-269.89 309.57,-260.98"/>
<polygon fill="black" stroke="black" points="312.19,-263.32 315.61,-253.29 306.68,-259 312.19,-263.32"/>
</g>
<!-- object&#45;&gt;scalar -->
<g id="edge14" class="edge">
<title>object&#45;&gt;scalar</title>
<path fill="none" stroke="black" d="M302.23,-289.98C320.48,-279.93 344.73,-266.56 364.76,-255.52"/>
<polygon fill="black" stroke="black" points="366.39,-258.61 373.46,-250.72 363.01,-252.48 366.39,-258.61"/>
</g>
<!-- sequential -->
<g id="node11" class="node">
<title>sequential</title>
<g id="a_node11"><a xlink:href="PsyllaReference_Types.xhtml#PsyllaReference_Types_Details_sequential" xlink:title="sequential" target="_parent">
<polygon fill="linen" stroke="black" points="505.31,-252 446.66,-252 446.66,-216 511.31,-216 511.31,-246 505.31,-252"/>
<polyline fill="none" stroke="black" points="505.31,-252 505.31,-246"/>
<polyline fill="none" stroke="black" points="511.31,-246 505.31,-246"/>
<text xml:space="preserve" text-anchor="middle" x="478.99" y="-230.4" font-family="Source Code Pro,monospace" font-size="12.00">sequential</text>
</a>
</g>
</g>
<!-- object&#45;&gt;sequential -->
<g id="edge16" class="edge">
<title>object&#45;&gt;sequential</title>
<path fill="none" stroke="black" d="M302.32,-296.83C332.79,-287.58 383.7,-271.65 435.66,-252.73"/>
<polygon fill="black" stroke="black" points="436.81,-256.04 444.98,-249.3 434.39,-249.47 436.81,-256.04"/>
</g>
<!-- streamable -->
<g id="node10" class="node">
<title>streamable</title>
<g id="a_node10"><a xlink:href="PsyllaReference_Types.xhtml#PsyllaReference_Types_Details_streamable" xlink:title="streamable" target="_parent">
<polygon fill="linen" stroke="black" points="501.97,-180 440,-180 440,-144 507.97,-144 507.97,-174 501.97,-180"/>
<polyline fill="none" stroke="black" points="501.97,-180 501.97,-174"/>
<polyline fill="none" stroke="black" points="507.97,-174 501.97,-174"/>
<text xml:space="preserve" text-anchor="middle" x="473.99" y="-158.4" font-family="Source Code Pro,monospace" font-size="12.00">streamable</text>
</a>
</g>
</g>
<!-- streamable&#45;&gt;iterable -->
<g id="edge12" class="edge">
<title>streamable&#45;&gt;iterable</title>
<path fill="none" stroke="black" d="M471.27,-143.7C470.11,-136.32 468.73,-127.52 467.43,-119.25"/>
<polygon fill="black" stroke="black" points="470.92,-118.93 465.91,-109.6 464,-120.02 470.92,-118.93"/>
</g>
<!-- sequential&#45;&gt;streamable -->
<g id="edge15" class="edge">
<title>sequential&#45;&gt;streamable</title>
<path fill="none" stroke="black" d="M477.75,-215.7C477.23,-208.41 476.61,-199.73 476.02,-191.54"/>
<polygon fill="black" stroke="black" points="479.52,-191.34 475.32,-181.61 472.54,-191.84 479.52,-191.34"/>
</g>
</g>
</svg>
