<?xml version="1.0" encoding="UTF-8" standalone="no"?>
<!DOCTYPE svg PUBLIC "-//W3C//DTD SVG 1.1//EN"
 "http://www.w3.org/Graphics/SVG/1.1/DTD/svg11.dtd">
<!-- Generated by graphviz version 2.43.0 (0)
 -->
<!-- Title: output Pages: 1 -->
<svg width="407pt" height="188pt"
 viewBox="0.00 0.00 407.00 188.00" xmlns="http://www.w3.org/2000/svg" xmlns:xlink="http://www.w3.org/1999/xlink">
<g id="graph0" class="graph" transform="scale(1 1) rotate(0) translate(4 184)">
<title>output</title>
<polygon fill="transparent" stroke="transparent" points="-4,4 -4,-184 403,-184 403,4 -4,4"/>
<!-- closeable -->
<g id="node1" class="node">
<title>closeable</title>
<g id="a_node1"><a xlink:href="PsyllaReference_Types.xhtml#PsyllaReference_Types_Details_closeable" xlink:title="closeable" target="_parent">
<polygon fill="linen" stroke="black" points="119,-108 0,-108 0,-72 125,-72 125,-102 119,-108"/>
<polyline fill="none" stroke="black" points="119,-108 119,-102 "/>
<polyline fill="none" stroke="black" points="125,-102 119,-102 "/>
<text text-anchor="middle" x="62.5" y="-85" font-family="PT Mono, monospace" font-size="20.00">closeable</text>
</a>
</g>
</g>
<!-- output -->
<g id="node4" class="node">
<title>output</title>
<g id="a_node4"><a xlink:href="PsyllaReference_Types.xhtml#PsyllaReference_Types_Details_output" xlink:title="output" target="_parent">
<polygon fill="wheat" stroke="black" points="244,-36 161,-36 161,0 250,0 250,-30 244,-36"/>
<polyline fill="none" stroke="black" points="244,-36 244,-30 "/>
<polyline fill="none" stroke="black" points="250,-30 244,-30 "/>
<text text-anchor="middle" x="205.5" y="-13" font-family="PT Mono, monospace" font-size="20.00">output</text>
</a>
</g>
</g>
<!-- closeable&#45;&gt;output -->
<g id="edge1" class="edge">
<title>closeable&#45;&gt;output</title>
<path fill="none" stroke="black" d="M97.48,-71.88C116.7,-62.47 140.73,-50.71 161.24,-40.67"/>
<polygon fill="black" stroke="black" points="162.94,-43.73 170.38,-36.19 159.86,-37.44 162.94,-43.73"/>
</g>
<!-- flushable -->
<g id="node2" class="node">
<title>flushable</title>
<g id="a_node2"><a xlink:href="PsyllaReference_Types.xhtml#PsyllaReference_Types_Details_flushable" xlink:title="flushable" target="_parent">
<polygon fill="linen" stroke="black" points="262,-108 143,-108 143,-72 268,-72 268,-102 262,-108"/>
<polyline fill="none" stroke="black" points="262,-108 262,-102 "/>
<polyline fill="none" stroke="black" points="268,-102 262,-102 "/>
<text text-anchor="middle" x="205.5" y="-85" font-family="PT Mono, monospace" font-size="20.00">flushable</text>
</a>
</g>
</g>
<!-- flushable&#45;&gt;output -->
<g id="edge2" class="edge">
<title>flushable&#45;&gt;output</title>
<path fill="none" stroke="black" d="M205.5,-71.7C205.5,-63.98 205.5,-54.71 205.5,-46.11"/>
<polygon fill="black" stroke="black" points="209,-46.1 205.5,-36.1 202,-46.1 209,-46.1"/>
</g>
<!-- writable -->
<g id="node3" class="node">
<title>writable</title>
<g id="a_node3"><a xlink:href="PsyllaReference_Types.xhtml#PsyllaReference_Types_Details_writable" xlink:title="writable" target="_parent">
<polygon fill="linen" stroke="black" points="393,-108 286,-108 286,-72 399,-72 399,-102 393,-108"/>
<polyline fill="none" stroke="black" points="393,-108 393,-102 "/>
<polyline fill="none" stroke="black" points="399,-102 393,-102 "/>
<text text-anchor="middle" x="342.5" y="-85" font-family="PT Mono, monospace" font-size="20.00">writable</text>
</a>
</g>
</g>
<!-- writable&#45;&gt;output -->
<g id="edge3" class="edge">
<title>writable&#45;&gt;output</title>
<path fill="none" stroke="black" d="M308.99,-71.88C290.66,-62.51 267.76,-50.81 248.17,-40.8"/>
<polygon fill="black" stroke="black" points="249.64,-37.62 239.14,-36.19 246.46,-43.86 249.64,-37.62"/>
</g>
<!-- object -->
<g id="node5" class="node">
<title>object</title>
<g id="a_node5"><a xlink:href="PsyllaReference_Types.xhtml#PsyllaReference_Types_Details_object" xlink:title="object" target="_parent">
<polygon fill="linen" stroke="black" points="244,-180 161,-180 161,-144 250,-144 250,-174 244,-180"/>
<polyline fill="none" stroke="black" points="244,-180 244,-174 "/>
<polyline fill="none" stroke="black" points="250,-174 244,-174 "/>
<text text-anchor="middle" x="205.5" y="-157" font-family="PT Mono, monospace" font-size="20.00">object</text>
</a>
</g>
</g>
<!-- object&#45;&gt;closeable -->
<g id="edge4" class="edge">
<title>object&#45;&gt;closeable</title>
<path fill="none" stroke="black" d="M170.52,-143.88C151.3,-134.47 127.27,-122.71 106.76,-112.67"/>
<polygon fill="black" stroke="black" points="108.14,-109.44 97.62,-108.19 105.06,-115.73 108.14,-109.44"/>
</g>
<!-- object&#45;&gt;flushable -->
<g id="edge5" class="edge">
<title>object&#45;&gt;flushable</title>
<path fill="none" stroke="black" d="M205.5,-143.7C205.5,-135.98 205.5,-126.71 205.5,-118.11"/>
<polygon fill="black" stroke="black" points="209,-118.1 205.5,-108.1 202,-118.1 209,-118.1"/>
</g>
<!-- object&#45;&gt;writable -->
<g id="edge6" class="edge">
<title>object&#45;&gt;writable</title>
<path fill="none" stroke="black" d="M239.01,-143.88C257.34,-134.51 280.24,-122.81 299.83,-112.8"/>
<polygon fill="black" stroke="black" points="301.54,-115.86 308.86,-108.19 298.36,-109.62 301.54,-115.86"/>
</g>
</g>
</svg>
