<?xml version="1.0" encoding="UTF-8" standalone="no"?>
<!DOCTYPE svg PUBLIC "-//W3C//DTD SVG 1.1//EN"
 "http://www.w3.org/Graphics/SVG/1.1/DTD/svg11.dtd">
<!-- Generated by graphviz version 2.49.3 (0)
 -->
<!-- Title: matcher Pages: 1 -->
<svg width="67pt" height="188pt"
 viewBox="0.00 0.00 66.64 188.00" xmlns="http://www.w3.org/2000/svg" xmlns:xlink="http://www.w3.org/1999/xlink">
<g id="graph0" class="graph" transform="scale(1 1) rotate(0) translate(4 184)">
<title>matcher</title>
<polygon fill="transparent" stroke="transparent" points="-4,4 -4,-184 62.64,-184 62.64,4 -4,4"/>
<!-- resetable -->
<g id="node1" class="node">
<title>resetable</title>
<g id="a_node1"><a xlink:href="PsyllaReference_Types.xhtml#PsyllaReference_Types_Details_resetable" xlink:title="resetable" target="_parent">
<polygon fill="linen" stroke="black" points="52.46,-108 0.18,-108 0.18,-72 58.46,-72 58.46,-102 52.46,-108"/>
<polyline fill="none" stroke="black" points="52.46,-108 52.46,-102 "/>
<polyline fill="none" stroke="black" points="58.46,-102 52.46,-102 "/>
<text text-anchor="middle" x="29.32" y="-86.4" font-family="Source Code Pro,monospace" font-size="12.00">resetable</text>
</a>
</g>
</g>
<!-- matcher -->
<g id="node2" class="node">
<title>matcher</title>
<g id="a_node2"><a xlink:href="PsyllaReference_Types.xhtml#PsyllaReference_Types_Details_matcher" xlink:title="matcher" target="_parent">
<polygon fill="wheat" stroke="black" points="50.47,-36 2.17,-36 2.17,0 56.47,0 56.47,-30 50.47,-36"/>
<polyline fill="none" stroke="black" points="50.47,-36 50.47,-30 "/>
<polyline fill="none" stroke="black" points="56.47,-30 50.47,-30 "/>
<text text-anchor="middle" x="29.32" y="-14.4" font-family="Source Code Pro,monospace" font-size="12.00">matcher</text>
</a>
</g>
</g>
<!-- resetable&#45;&gt;matcher -->
<g id="edge1" class="edge">
<title>resetable&#45;&gt;matcher</title>
<path fill="none" stroke="black" d="M29.32,-71.7C29.32,-63.98 29.32,-54.71 29.32,-46.11"/>
<polygon fill="black" stroke="black" points="32.82,-46.1 29.32,-36.1 25.82,-46.1 32.82,-46.1"/>
</g>
<!-- object -->
<g id="node3" class="node">
<title>object</title>
<g id="a_node3"><a xlink:href="PsyllaReference_Types.xhtml#PsyllaReference_Types_Details_object" xlink:title="object" target="_parent">
<polygon fill="linen" stroke="black" points="50.32,-180 2.32,-180 2.32,-144 56.32,-144 56.32,-174 50.32,-180"/>
<polyline fill="none" stroke="black" points="50.32,-180 50.32,-174 "/>
<polyline fill="none" stroke="black" points="56.32,-174 50.32,-174 "/>
<text text-anchor="middle" x="29.32" y="-158.4" font-family="Source Code Pro,monospace" font-size="12.00">object</text>
</a>
</g>
</g>
<!-- object&#45;&gt;resetable -->
<g id="edge2" class="edge">
<title>object&#45;&gt;resetable</title>
<path fill="none" stroke="black" d="M29.32,-143.7C29.32,-135.98 29.32,-126.71 29.32,-118.11"/>
<polygon fill="black" stroke="black" points="32.82,-118.1 29.32,-108.1 25.82,-118.1 32.82,-118.1"/>
</g>
</g>
</svg>
