<?xml version="1.0" encoding="UTF-8" standalone="no"?>
<!DOCTYPE svg PUBLIC "-//W3C//DTD SVG 1.1//EN"
 "http://www.w3.org/Graphics/SVG/1.1/DTD/svg11.dtd">
<!-- Generated by graphviz version 2.43.0 (0)
 -->
<!-- Title: integer Pages: 1 -->
<svg width="410pt" height="476pt"
 viewBox="0.00 0.00 410.00 476.00" xmlns="http://www.w3.org/2000/svg" xmlns:xlink="http://www.w3.org/1999/xlink">
<g id="graph0" class="graph" transform="scale(1 1) rotate(0) translate(4 472)">
<title>integer</title>
<polygon fill="transparent" stroke="transparent" points="-4,4 -4,-472 406,-472 406,4 -4,4"/>
<!-- bitwise -->
<g id="node1" class="node">
<title>bitwise</title>
<g id="a_node1"><a xlink:href="PsyllaReference_Types.xhtml#PsyllaReference_Types_Details_bitwise" xlink:title="bitwise" target="_parent">
<polygon fill="linen" stroke="black" points="396,-324 301,-324 301,-288 402,-288 402,-318 396,-324"/>
<polyline fill="none" stroke="black" points="396,-324 396,-318 "/>
<polyline fill="none" stroke="black" points="402,-318 396,-318 "/>
<text text-anchor="middle" x="351.5" y="-301" font-family="PT Mono, monospace" font-size="20.00">bitwise</text>
</a>
</g>
</g>
<!-- integral -->
<g id="node2" class="node">
<title>integral</title>
<g id="a_node2"><a xlink:href="PsyllaReference_Types.xhtml#PsyllaReference_Types_Details_integral" xlink:title="integral" target="_parent">
<polygon fill="linen" stroke="black" points="352,-108 245,-108 245,-72 358,-72 358,-102 352,-108"/>
<polyline fill="none" stroke="black" points="352,-108 352,-102 "/>
<polyline fill="none" stroke="black" points="358,-102 352,-102 "/>
<text text-anchor="middle" x="301.5" y="-85" font-family="PT Mono, monospace" font-size="20.00">integral</text>
</a>
</g>
</g>
<!-- bitwise&#45;&gt;integral -->
<g id="edge4" class="edge">
<title>bitwise&#45;&gt;integral</title>
<path fill="none" stroke="black" d="M351.1,-287.64C349.98,-257.65 345.73,-194.49 329.5,-144 326.59,-134.93 322.17,-125.57 317.71,-117.29"/>
<polygon fill="black" stroke="black" points="320.69,-115.45 312.72,-108.46 314.6,-118.89 320.69,-115.45"/>
</g>
<!-- integer -->
<g id="node3" class="node">
<title>integer</title>
<g id="a_node3"><a xlink:href="PsyllaReference_Types.xhtml#PsyllaReference_Types_Details_integer" xlink:title="integer" target="_parent">
<polygon fill="wheat" stroke="black" points="388,-36 293,-36 293,0 394,0 394,-30 388,-36"/>
<polyline fill="none" stroke="black" points="388,-36 388,-30 "/>
<polyline fill="none" stroke="black" points="394,-30 388,-30 "/>
<text text-anchor="middle" x="343.5" y="-13" font-family="PT Mono, monospace" font-size="20.00">integer</text>
</a>
</g>
</g>
<!-- bitwise&#45;&gt;integer -->
<g id="edge1" class="edge">
<title>bitwise&#45;&gt;integer</title>
<path fill="none" stroke="black" d="M355.92,-287.81C365.22,-248.89 384.61,-151.27 367.5,-72 365.54,-62.92 361.89,-53.52 358.01,-45.2"/>
<polygon fill="black" stroke="black" points="361.04,-43.42 353.45,-36.02 354.77,-46.53 361.04,-43.42"/>
</g>
<!-- integral&#45;&gt;integer -->
<g id="edge2" class="edge">
<title>integral&#45;&gt;integer</title>
<path fill="none" stroke="black" d="M311.88,-71.7C316.76,-63.56 322.69,-53.69 328.08,-44.7"/>
<polygon fill="black" stroke="black" points="331.09,-46.48 333.24,-36.1 325.09,-42.88 331.09,-46.48"/>
</g>
<!-- logical -->
<g id="node4" class="node">
<title>logical</title>
<g id="a_node4"><a xlink:href="PsyllaReference_Types.xhtml#PsyllaReference_Types_Details_logical" xlink:title="logical" target="_parent">
<polygon fill="linen" stroke="black" points="396,-396 301,-396 301,-360 402,-360 402,-390 396,-396"/>
<polyline fill="none" stroke="black" points="396,-396 396,-390 "/>
<polyline fill="none" stroke="black" points="402,-390 396,-390 "/>
<text text-anchor="middle" x="351.5" y="-373" font-family="PT Mono, monospace" font-size="20.00">logical</text>
</a>
</g>
</g>
<!-- logical&#45;&gt;bitwise -->
<g id="edge3" class="edge">
<title>logical&#45;&gt;bitwise</title>
<path fill="none" stroke="black" d="M351.5,-359.7C351.5,-351.98 351.5,-342.71 351.5,-334.11"/>
<polygon fill="black" stroke="black" points="355,-334.1 351.5,-324.1 348,-334.1 355,-334.1"/>
</g>
<!-- realnumeric -->
<g id="node5" class="node">
<title>realnumeric</title>
<g id="a_node5"><a xlink:href="PsyllaReference_Types.xhtml#PsyllaReference_Types_Details_realnumeric" xlink:title="realnumeric" target="_parent">
<polygon fill="linen" stroke="black" points="315,-180 172,-180 172,-144 321,-144 321,-174 315,-180"/>
<polyline fill="none" stroke="black" points="315,-180 315,-174 "/>
<polyline fill="none" stroke="black" points="321,-174 315,-174 "/>
<text text-anchor="middle" x="246.5" y="-157" font-family="PT Mono, monospace" font-size="20.00">realnumeric</text>
</a>
</g>
</g>
<!-- realnumeric&#45;&gt;integral -->
<g id="edge5" class="edge">
<title>realnumeric&#45;&gt;integral</title>
<path fill="none" stroke="black" d="M260.1,-143.7C266.62,-135.39 274.57,-125.28 281.75,-116.14"/>
<polygon fill="black" stroke="black" points="284.63,-118.13 288.06,-108.1 279.13,-113.81 284.63,-118.13"/>
</g>
<!-- object -->
<g id="node6" class="node">
<title>object</title>
<g id="a_node6"><a xlink:href="PsyllaReference_Types.xhtml#PsyllaReference_Types_Details_object" xlink:title="object" target="_parent">
<polygon fill="linen" stroke="black" points="268,-468 185,-468 185,-432 274,-432 274,-462 268,-468"/>
<polyline fill="none" stroke="black" points="268,-468 268,-462 "/>
<polyline fill="none" stroke="black" points="274,-462 268,-462 "/>
<text text-anchor="middle" x="229.5" y="-445" font-family="PT Mono, monospace" font-size="20.00">object</text>
</a>
</g>
</g>
<!-- object&#45;&gt;logical -->
<g id="edge6" class="edge">
<title>object&#45;&gt;logical</title>
<path fill="none" stroke="black" d="M259.34,-431.88C275.44,-422.64 295.5,-411.13 312.79,-401.21"/>
<polygon fill="black" stroke="black" points="314.61,-404.2 321.54,-396.19 311.13,-398.13 314.61,-404.2"/>
</g>
<!-- scalar -->
<g id="node8" class="node">
<title>scalar</title>
<g id="a_node8"><a xlink:href="PsyllaReference_Types.xhtml#PsyllaReference_Types_Details_scalar" xlink:title="scalar" target="_parent">
<polygon fill="linen" stroke="black" points="311,-252 228,-252 228,-216 317,-216 317,-246 311,-252"/>
<polyline fill="none" stroke="black" points="311,-252 311,-246 "/>
<polyline fill="none" stroke="black" points="317,-246 311,-246 "/>
<text text-anchor="middle" x="272.5" y="-229" font-family="PT Mono, monospace" font-size="20.00">scalar</text>
</a>
</g>
</g>
<!-- object&#45;&gt;scalar -->
<g id="edge11" class="edge">
<title>object&#45;&gt;scalar</title>
<path fill="none" stroke="black" d="M236.28,-431.56C240.03,-421.33 244.53,-408.08 247.5,-396 258.89,-349.6 266.13,-294.34 269.74,-262.11"/>
<polygon fill="black" stroke="black" points="273.23,-262.43 270.83,-252.11 266.27,-261.68 273.23,-262.43"/>
</g>
<!-- atomic -->
<g id="node9" class="node">
<title>atomic</title>
<g id="a_node9"><a xlink:href="PsyllaReference_Types.xhtml#PsyllaReference_Types_Details_atomic" xlink:title="atomic" target="_parent">
<polygon fill="linen" stroke="black" points="83,-324 0,-324 0,-288 89,-288 89,-318 83,-324"/>
<polyline fill="none" stroke="black" points="83,-324 83,-318 "/>
<polyline fill="none" stroke="black" points="89,-318 83,-318 "/>
<text text-anchor="middle" x="44.5" y="-301" font-family="PT Mono, monospace" font-size="20.00">atomic</text>
</a>
</g>
</g>
<!-- object&#45;&gt;atomic -->
<g id="edge12" class="edge">
<title>object&#45;&gt;atomic</title>
<path fill="none" stroke="black" d="M184.87,-433.84C162.64,-424.95 136.17,-412.26 115.5,-396 92.96,-378.28 73.18,-352.07 60.25,-332.68"/>
<polygon fill="black" stroke="black" points="63.03,-330.53 54.65,-324.04 57.16,-334.34 63.03,-330.53"/>
</g>
<!-- additive -->
<g id="node11" class="node">
<title>additive</title>
<g id="a_node11"><a xlink:href="PsyllaReference_Types.xhtml#PsyllaReference_Types_Details_additive" xlink:title="additive" target="_parent">
<polygon fill="linen" stroke="black" points="232,-396 125,-396 125,-360 238,-360 238,-390 232,-396"/>
<polyline fill="none" stroke="black" points="232,-396 232,-390 "/>
<polyline fill="none" stroke="black" points="238,-390 232,-390 "/>
<text text-anchor="middle" x="181.5" y="-373" font-family="PT Mono, monospace" font-size="20.00">additive</text>
</a>
</g>
</g>
<!-- object&#45;&gt;additive -->
<g id="edge14" class="edge">
<title>object&#45;&gt;additive</title>
<path fill="none" stroke="black" d="M217.63,-431.7C212,-423.47 205.15,-413.48 198.93,-404.42"/>
<polygon fill="black" stroke="black" points="201.77,-402.37 193.23,-396.1 196,-406.33 201.77,-402.37"/>
</g>
<!-- numeric -->
<g id="node7" class="node">
<title>numeric</title>
<g id="a_node7"><a xlink:href="PsyllaReference_Types.xhtml#PsyllaReference_Types_Details_numeric" xlink:title="numeric" target="_parent">
<polygon fill="linen" stroke="black" points="204,-252 109,-252 109,-216 210,-216 210,-246 204,-252"/>
<polyline fill="none" stroke="black" points="204,-252 204,-246 "/>
<polyline fill="none" stroke="black" points="210,-246 204,-246 "/>
<text text-anchor="middle" x="159.5" y="-229" font-family="PT Mono, monospace" font-size="20.00">numeric</text>
</a>
</g>
</g>
<!-- numeric&#45;&gt;realnumeric -->
<g id="edge7" class="edge">
<title>numeric&#45;&gt;realnumeric</title>
<path fill="none" stroke="black" d="M181.01,-215.7C191.96,-206.88 205.45,-196.03 217.32,-186.47"/>
<polygon fill="black" stroke="black" points="219.64,-189.1 225.24,-180.1 215.26,-183.65 219.64,-189.1"/>
</g>
<!-- scalar&#45;&gt;realnumeric -->
<g id="edge8" class="edge">
<title>scalar&#45;&gt;realnumeric</title>
<path fill="none" stroke="black" d="M266.07,-215.7C263.14,-207.81 259.61,-198.3 256.36,-189.55"/>
<polygon fill="black" stroke="black" points="259.62,-188.26 252.85,-180.1 253.05,-190.7 259.62,-188.26"/>
</g>
<!-- atomic&#45;&gt;numeric -->
<g id="edge9" class="edge">
<title>atomic&#45;&gt;numeric</title>
<path fill="none" stroke="black" d="M72.63,-287.88C87.67,-278.72 106.37,-267.34 122.56,-257.48"/>
<polygon fill="black" stroke="black" points="124.54,-260.38 131.26,-252.19 120.9,-254.4 124.54,-260.38"/>
</g>
<!-- arithmetic -->
<g id="node10" class="node">
<title>arithmetic</title>
<g id="a_node10"><a xlink:href="PsyllaReference_Types.xhtml#PsyllaReference_Types_Details_arithmetic" xlink:title="arithmetic" target="_parent">
<polygon fill="linen" stroke="black" points="238,-324 107,-324 107,-288 244,-288 244,-318 238,-324"/>
<polyline fill="none" stroke="black" points="238,-324 238,-318 "/>
<polyline fill="none" stroke="black" points="244,-318 238,-318 "/>
<text text-anchor="middle" x="175.5" y="-301" font-family="PT Mono, monospace" font-size="20.00">arithmetic</text>
</a>
</g>
</g>
<!-- arithmetic&#45;&gt;numeric -->
<g id="edge10" class="edge">
<title>arithmetic&#45;&gt;numeric</title>
<path fill="none" stroke="black" d="M171.54,-287.7C169.78,-279.98 167.66,-270.71 165.7,-262.11"/>
<polygon fill="black" stroke="black" points="169.05,-261.07 163.41,-252.1 162.23,-262.63 169.05,-261.07"/>
</g>
<!-- additive&#45;&gt;arithmetic -->
<g id="edge13" class="edge">
<title>additive&#45;&gt;arithmetic</title>
<path fill="none" stroke="black" d="M180.02,-359.7C179.36,-351.98 178.56,-342.71 177.82,-334.11"/>
<polygon fill="black" stroke="black" points="181.31,-333.77 176.97,-324.1 174.33,-334.37 181.31,-333.77"/>
</g>
</g>
</svg>
