<?xml version="1.0" encoding="UTF-8" standalone="no"?>
<!DOCTYPE svg PUBLIC "-//W3C//DTD SVG 1.1//EN"
 "http://www.w3.org/Graphics/SVG/1.1/DTD/svg11.dtd">
<!-- Generated by graphviz version 2.43.0 (0)
 -->
<!-- Title: formaldict Pages: 1 -->
<svg width="481pt" height="404pt"
 viewBox="0.00 0.00 481.00 404.00" xmlns="http://www.w3.org/2000/svg" xmlns:xlink="http://www.w3.org/1999/xlink">
<g id="graph0" class="graph" transform="scale(1 1) rotate(0) translate(4 400)">
<title>formaldict</title>
<polygon fill="transparent" stroke="transparent" points="-4,4 -4,-400 477,-400 477,4 -4,4"/>
<!-- container -->
<g id="node1" class="node">
<title>container</title>
<g id="a_node1"><a xlink:href="PsyllaReference_Types.xhtml#PsyllaReference_Types_Details_container" xlink:title="container" target="_parent">
<polygon fill="linen" stroke="black" points="342,-108 223,-108 223,-72 348,-72 348,-102 342,-108"/>
<polyline fill="none" stroke="black" points="342,-108 342,-102 "/>
<polyline fill="none" stroke="black" points="348,-102 342,-102 "/>
<text text-anchor="middle" x="285.5" y="-85" font-family="PT Mono, monospace" font-size="20.00">container</text>
</a>
</g>
</g>
<!-- formaldict -->
<g id="node4" class="node">
<title>formaldict</title>
<g id="a_node4"><a xlink:href="PsyllaReference_Types.xhtml#PsyllaReference_Types_Details_formaldict" xlink:title="formaldict" target="_parent">
<polygon fill="wheat" stroke="black" points="192,-36 61,-36 61,0 198,0 198,-30 192,-36"/>
<polyline fill="none" stroke="black" points="192,-36 192,-30 "/>
<polyline fill="none" stroke="black" points="198,-30 192,-30 "/>
<text text-anchor="middle" x="129.5" y="-13" font-family="PT Mono, monospace" font-size="20.00">formaldict</text>
</a>
</g>
</g>
<!-- container&#45;&gt;formaldict -->
<g id="edge1" class="edge">
<title>container&#45;&gt;formaldict</title>
<path fill="none" stroke="black" d="M247.34,-71.88C226.11,-62.35 199.49,-50.41 176.93,-40.28"/>
<polygon fill="black" stroke="black" points="178.09,-36.97 167.54,-36.07 175.23,-43.36 178.09,-36.97"/>
</g>
<!-- indexed -->
<g id="node2" class="node">
<title>indexed</title>
<g id="a_node2"><a xlink:href="PsyllaReference_Types.xhtml#PsyllaReference_Types_Details_indexed" xlink:title="indexed" target="_parent">
<polygon fill="linen" stroke="black" points="95,-252 0,-252 0,-216 101,-216 101,-246 95,-252"/>
<polyline fill="none" stroke="black" points="95,-252 95,-246 "/>
<polyline fill="none" stroke="black" points="101,-246 95,-246 "/>
<text text-anchor="middle" x="50.5" y="-229" font-family="PT Mono, monospace" font-size="20.00">indexed</text>
</a>
</g>
</g>
<!-- indexed&#45;&gt;formaldict -->
<g id="edge2" class="edge">
<title>indexed&#45;&gt;formaldict</title>
<path fill="none" stroke="black" d="M56.83,-215.85C70.55,-178.68 103.13,-90.44 119.6,-45.82"/>
<polygon fill="black" stroke="black" points="122.96,-46.83 123.14,-36.23 116.39,-44.4 122.96,-46.83"/>
</g>
<!-- sequential -->
<g id="node3" class="node">
<title>sequential</title>
<g id="a_node3"><a xlink:href="PsyllaReference_Types.xhtml#PsyllaReference_Types_Details_sequential" xlink:title="sequential" target="_parent">
<polygon fill="linen" stroke="black" points="289,-324 158,-324 158,-288 295,-288 295,-318 289,-324"/>
<polyline fill="none" stroke="black" points="289,-324 289,-318 "/>
<polyline fill="none" stroke="black" points="295,-318 289,-318 "/>
<text text-anchor="middle" x="226.5" y="-301" font-family="PT Mono, monospace" font-size="20.00">sequential</text>
</a>
</g>
</g>
<!-- sequential&#45;&gt;formaldict -->
<g id="edge3" class="edge">
<title>sequential&#45;&gt;formaldict</title>
<path fill="none" stroke="black" d="M187.77,-287.89C172.96,-279.32 157.49,-267.42 148.5,-252 110.28,-186.43 117.76,-92.32 124.57,-46.36"/>
<polygon fill="black" stroke="black" points="128.06,-46.7 126.17,-36.27 121.15,-45.6 128.06,-46.7"/>
</g>
<!-- streamable -->
<g id="node9" class="node">
<title>streamable</title>
<g id="a_node9"><a xlink:href="PsyllaReference_Types.xhtml#PsyllaReference_Types_Details_streamable" xlink:title="streamable" target="_parent">
<polygon fill="linen" stroke="black" points="289,-252 158,-252 158,-216 295,-216 295,-246 289,-252"/>
<polyline fill="none" stroke="black" points="289,-252 289,-246 "/>
<polyline fill="none" stroke="black" points="295,-246 289,-246 "/>
<text text-anchor="middle" x="226.5" y="-229" font-family="PT Mono, monospace" font-size="20.00">streamable</text>
</a>
</g>
</g>
<!-- sequential&#45;&gt;streamable -->
<g id="edge12" class="edge">
<title>sequential&#45;&gt;streamable</title>
<path fill="none" stroke="black" d="M226.5,-287.7C226.5,-279.98 226.5,-270.71 226.5,-262.11"/>
<polygon fill="black" stroke="black" points="230,-262.1 226.5,-252.1 223,-262.1 230,-262.1"/>
</g>
<!-- clearable -->
<g id="node5" class="node">
<title>clearable</title>
<g id="a_node5"><a xlink:href="PsyllaReference_Types.xhtml#PsyllaReference_Types_Details_clearable" xlink:title="clearable" target="_parent">
<polygon fill="linen" stroke="black" points="408,-180 289,-180 289,-144 414,-144 414,-174 408,-180"/>
<polyline fill="none" stroke="black" points="408,-180 408,-174 "/>
<polyline fill="none" stroke="black" points="414,-174 408,-174 "/>
<text text-anchor="middle" x="351.5" y="-157" font-family="PT Mono, monospace" font-size="20.00">clearable</text>
</a>
</g>
</g>
<!-- clearable&#45;&gt;container -->
<g id="edge4" class="edge">
<title>clearable&#45;&gt;container</title>
<path fill="none" stroke="black" d="M335.19,-143.7C327.19,-135.22 317.43,-124.86 308.68,-115.58"/>
<polygon fill="black" stroke="black" points="311.03,-112.98 301.63,-108.1 305.94,-117.78 311.03,-112.98"/>
</g>
<!-- iterable -->
<g id="node6" class="node">
<title>iterable</title>
<g id="a_node6"><a xlink:href="PsyllaReference_Types.xhtml#PsyllaReference_Types_Details_iterable" xlink:title="iterable" target="_parent">
<polygon fill="linen" stroke="black" points="265,-180 158,-180 158,-144 271,-144 271,-174 265,-180"/>
<polyline fill="none" stroke="black" points="265,-180 265,-174 "/>
<polyline fill="none" stroke="black" points="271,-174 265,-174 "/>
<text text-anchor="middle" x="214.5" y="-157" font-family="PT Mono, monospace" font-size="20.00">iterable</text>
</a>
</g>
</g>
<!-- iterable&#45;&gt;container -->
<g id="edge5" class="edge">
<title>iterable&#45;&gt;container</title>
<path fill="none" stroke="black" d="M232.05,-143.7C240.73,-135.14 251.36,-124.66 260.85,-115.3"/>
<polygon fill="black" stroke="black" points="263.49,-117.62 268.15,-108.1 258.57,-112.63 263.49,-117.62"/>
</g>
<!-- lengthy -->
<g id="node7" class="node">
<title>lengthy</title>
<g id="a_node7"><a xlink:href="PsyllaReference_Types.xhtml#PsyllaReference_Types_Details_lengthy" xlink:title="lengthy" target="_parent">
<polygon fill="linen" stroke="black" points="467,-324 372,-324 372,-288 473,-288 473,-318 467,-324"/>
<polyline fill="none" stroke="black" points="467,-324 467,-318 "/>
<polyline fill="none" stroke="black" points="473,-318 467,-318 "/>
<text text-anchor="middle" x="422.5" y="-301" font-family="PT Mono, monospace" font-size="20.00">lengthy</text>
</a>
</g>
</g>
<!-- lengthy&#45;&gt;container -->
<g id="edge6" class="edge">
<title>lengthy&#45;&gt;container</title>
<path fill="none" stroke="black" d="M428.26,-287.9C437.75,-256.34 452.76,-188.15 422.5,-144 407.67,-122.36 382.65,-109.56 358.01,-101.98"/>
<polygon fill="black" stroke="black" points="358.82,-98.57 348.24,-99.23 356.92,-105.31 358.82,-98.57"/>
</g>
<!-- object -->
<g id="node8" class="node">
<title>object</title>
<g id="a_node8"><a xlink:href="PsyllaReference_Types.xhtml#PsyllaReference_Types_Details_object" xlink:title="object" target="_parent">
<polygon fill="linen" stroke="black" points="327,-396 244,-396 244,-360 333,-360 333,-390 327,-396"/>
<polyline fill="none" stroke="black" points="327,-396 327,-390 "/>
<polyline fill="none" stroke="black" points="333,-390 327,-390 "/>
<text text-anchor="middle" x="288.5" y="-373" font-family="PT Mono, monospace" font-size="20.00">object</text>
</a>
</g>
</g>
<!-- object&#45;&gt;indexed -->
<g id="edge7" class="edge">
<title>object&#45;&gt;indexed</title>
<path fill="none" stroke="black" d="M243.97,-364.86C215.44,-355.96 178.31,-342.26 148.5,-324 119.43,-306.19 91.15,-279.15 72.5,-259.54"/>
<polygon fill="black" stroke="black" points="74.99,-257.08 65.61,-252.17 69.88,-261.86 74.99,-257.08"/>
</g>
<!-- object&#45;&gt;sequential -->
<g id="edge8" class="edge">
<title>object&#45;&gt;sequential</title>
<path fill="none" stroke="black" d="M273.17,-359.7C265.74,-351.3 256.68,-341.07 248.52,-331.86"/>
<polygon fill="black" stroke="black" points="250.9,-329.27 241.65,-324.1 245.66,-333.91 250.9,-329.27"/>
</g>
<!-- object&#45;&gt;clearable -->
<g id="edge9" class="edge">
<title>object&#45;&gt;clearable</title>
<path fill="none" stroke="black" d="M293.55,-359.85C304.47,-322.75 330.36,-234.81 343.52,-190.1"/>
<polygon fill="black" stroke="black" points="346.96,-190.81 346.43,-180.23 340.25,-188.84 346.96,-190.81"/>
</g>
<!-- object&#45;&gt;lengthy -->
<g id="edge11" class="edge">
<title>object&#45;&gt;lengthy</title>
<path fill="none" stroke="black" d="M321.28,-359.88C339.13,-350.55 361.4,-338.92 380.5,-328.94"/>
<polygon fill="black" stroke="black" points="382.35,-331.92 389.59,-324.19 379.11,-325.72 382.35,-331.92"/>
</g>
<!-- streamable&#45;&gt;iterable -->
<g id="edge10" class="edge">
<title>streamable&#45;&gt;iterable</title>
<path fill="none" stroke="black" d="M223.53,-215.7C222.21,-207.98 220.62,-198.71 219.15,-190.11"/>
<polygon fill="black" stroke="black" points="222.57,-189.37 217.43,-180.1 215.67,-190.55 222.57,-189.37"/>
</g>
</g>
</svg>
