<?xml version="1.0" encoding="UTF-8" standalone="no"?>
<!DOCTYPE svg PUBLIC "-//W3C//DTD SVG 1.1//EN"
 "http://www.w3.org/Graphics/SVG/1.1/DTD/svg11.dtd">
<!-- Generated by graphviz version 2.43.0 (0)
 -->
<!-- Title: systemdict Pages: 1 -->
<svg width="378pt" height="620pt"
 viewBox="0.00 0.00 378.00 620.00" xmlns="http://www.w3.org/2000/svg" xmlns:xlink="http://www.w3.org/1999/xlink">
<g id="graph0" class="graph" transform="scale(1 1) rotate(0) translate(4 616)">
<title>systemdict</title>
<polygon fill="transparent" stroke="transparent" points="-4,4 -4,-616 374,-616 374,4 -4,4"/>
<!-- module -->
<g id="node1" class="node">
<title>module</title>
<g id="a_node1"><a xlink:href="PsyllaReference_Types.xhtml#PsyllaReference_Types_Details_module" xlink:title="module" target="_parent">
<polygon fill="linen" stroke="black" points="122.5,-108 66.5,-108 66.5,-72 128.5,-72 128.5,-102 122.5,-108"/>
<polyline fill="none" stroke="black" points="122.5,-108 122.5,-102 "/>
<polyline fill="none" stroke="black" points="128.5,-102 122.5,-102 "/>
<text text-anchor="middle" x="97.5" y="-86.9" font-family="Consolas, monospace" font-size="12.00">module</text>
</a>
</g>
</g>
<!-- systemdict -->
<g id="node2" class="node">
<title>systemdict</title>
<g id="a_node2"><a xlink:href="PsyllaReference_Types.xhtml#PsyllaReference_Types_Details_systemdict" xlink:title="systemdict" target="_parent">
<polygon fill="wheat" stroke="black" points="137.5,-36 51.5,-36 51.5,0 143.5,0 143.5,-30 137.5,-36"/>
<polyline fill="none" stroke="black" points="137.5,-36 137.5,-30 "/>
<polyline fill="none" stroke="black" points="143.5,-30 137.5,-30 "/>
<text text-anchor="middle" x="97.5" y="-14.9" font-family="Consolas, monospace" font-size="12.00">systemdict</text>
</a>
</g>
</g>
<!-- module&#45;&gt;systemdict -->
<g id="edge1" class="edge">
<title>module&#45;&gt;systemdict</title>
<path fill="none" stroke="black" d="M97.5,-71.7C97.5,-63.98 97.5,-54.71 97.5,-46.11"/>
<polygon fill="black" stroke="black" points="101,-46.1 97.5,-36.1 94,-46.1 101,-46.1"/>
</g>
<!-- dict -->
<g id="node3" class="node">
<title>dict</title>
<g id="a_node3"><a xlink:href="PsyllaReference_Types.xhtml#PsyllaReference_Types_Details_dict" xlink:title="dict" target="_parent">
<polygon fill="linen" stroke="black" points="118.5,-180 70.5,-180 70.5,-144 124.5,-144 124.5,-174 118.5,-180"/>
<polyline fill="none" stroke="black" points="118.5,-180 118.5,-174 "/>
<polyline fill="none" stroke="black" points="124.5,-174 118.5,-174 "/>
<text text-anchor="middle" x="97.5" y="-158.9" font-family="Consolas, monospace" font-size="12.00">dict</text>
</a>
</g>
</g>
<!-- dict&#45;&gt;module -->
<g id="edge2" class="edge">
<title>dict&#45;&gt;module</title>
<path fill="none" stroke="black" d="M97.5,-143.7C97.5,-135.98 97.5,-126.71 97.5,-118.11"/>
<polygon fill="black" stroke="black" points="101,-118.1 97.5,-108.1 94,-118.1 101,-118.1"/>
</g>
<!-- formaldict -->
<g id="node4" class="node">
<title>formaldict</title>
<g id="a_node4"><a xlink:href="PsyllaReference_Types.xhtml#PsyllaReference_Types_Details_formaldict" xlink:title="formaldict" target="_parent">
<polygon fill="linen" stroke="black" points="137.5,-252 51.5,-252 51.5,-216 143.5,-216 143.5,-246 137.5,-252"/>
<polyline fill="none" stroke="black" points="137.5,-252 137.5,-246 "/>
<polyline fill="none" stroke="black" points="143.5,-246 137.5,-246 "/>
<text text-anchor="middle" x="97.5" y="-230.9" font-family="Consolas, monospace" font-size="12.00">formaldict</text>
</a>
</g>
</g>
<!-- formaldict&#45;&gt;dict -->
<g id="edge3" class="edge">
<title>formaldict&#45;&gt;dict</title>
<path fill="none" stroke="black" d="M97.5,-215.7C97.5,-207.98 97.5,-198.71 97.5,-190.11"/>
<polygon fill="black" stroke="black" points="101,-190.1 97.5,-180.1 94,-190.1 101,-190.1"/>
</g>
<!-- container -->
<g id="node5" class="node">
<title>container</title>
<g id="a_node5"><a xlink:href="PsyllaReference_Types.xhtml#PsyllaReference_Types_Details_container" xlink:title="container" target="_parent">
<polygon fill="linen" stroke="black" points="264.5,-324 186.5,-324 186.5,-288 270.5,-288 270.5,-318 264.5,-324"/>
<polyline fill="none" stroke="black" points="264.5,-324 264.5,-318 "/>
<polyline fill="none" stroke="black" points="270.5,-318 264.5,-318 "/>
<text text-anchor="middle" x="228.5" y="-302.9" font-family="Consolas, monospace" font-size="12.00">container</text>
</a>
</g>
</g>
<!-- container&#45;&gt;formaldict -->
<g id="edge4" class="edge">
<title>container&#45;&gt;formaldict</title>
<path fill="none" stroke="black" d="M196.45,-287.88C179.01,-278.55 157.23,-266.92 138.56,-256.94"/>
<polygon fill="black" stroke="black" points="140.14,-253.82 129.67,-252.19 136.84,-259.99 140.14,-253.82"/>
</g>
<!-- indexed -->
<g id="node6" class="node">
<title>indexed</title>
<g id="a_node6"><a xlink:href="PsyllaReference_Types.xhtml#PsyllaReference_Types_Details_indexed" xlink:title="indexed" target="_parent">
<polygon fill="linen" stroke="black" points="63,-396 0,-396 0,-360 69,-360 69,-390 63,-396"/>
<polyline fill="none" stroke="black" points="63,-396 63,-390 "/>
<polyline fill="none" stroke="black" points="69,-390 63,-390 "/>
<text text-anchor="middle" x="34.5" y="-374.9" font-family="Consolas, monospace" font-size="12.00">indexed</text>
</a>
</g>
</g>
<!-- indexed&#45;&gt;formaldict -->
<g id="edge5" class="edge">
<title>indexed&#45;&gt;formaldict</title>
<path fill="none" stroke="black" d="M42.1,-359.87C52.93,-335.46 72.91,-290.43 85.68,-261.64"/>
<polygon fill="black" stroke="black" points="89.02,-262.75 89.87,-252.19 82.62,-259.91 89.02,-262.75"/>
</g>
<!-- sequential -->
<g id="node7" class="node">
<title>sequential</title>
<g id="a_node7"><a xlink:href="PsyllaReference_Types.xhtml#PsyllaReference_Types_Details_sequential" xlink:title="sequential" target="_parent">
<polygon fill="linen" stroke="black" points="211.5,-540 125.5,-540 125.5,-504 217.5,-504 217.5,-534 211.5,-540"/>
<polyline fill="none" stroke="black" points="211.5,-540 211.5,-534 "/>
<polyline fill="none" stroke="black" points="217.5,-534 211.5,-534 "/>
<text text-anchor="middle" x="171.5" y="-518.9" font-family="Consolas, monospace" font-size="12.00">sequential</text>
</a>
</g>
</g>
<!-- sequential&#45;&gt;formaldict -->
<g id="edge6" class="edge">
<title>sequential&#45;&gt;formaldict</title>
<path fill="none" stroke="black" d="M146.91,-503.96C135.62,-494.71 123.26,-482.26 116.5,-468 84.14,-399.73 88.79,-307.55 93.74,-262.32"/>
<polygon fill="black" stroke="black" points="97.25,-262.48 94.95,-252.14 90.3,-261.65 97.25,-262.48"/>
</g>
<!-- streamable -->
<g id="node12" class="node">
<title>streamable</title>
<g id="a_node12"><a xlink:href="PsyllaReference_Types.xhtml#PsyllaReference_Types_Details_streamable" xlink:title="streamable" target="_parent">
<polygon fill="linen" stroke="black" points="211.5,-468 125.5,-468 125.5,-432 217.5,-432 217.5,-462 211.5,-468"/>
<polyline fill="none" stroke="black" points="211.5,-468 211.5,-462 "/>
<polyline fill="none" stroke="black" points="217.5,-462 211.5,-462 "/>
<text text-anchor="middle" x="171.5" y="-446.9" font-family="Consolas, monospace" font-size="12.00">streamable</text>
</a>
</g>
</g>
<!-- sequential&#45;&gt;streamable -->
<g id="edge15" class="edge">
<title>sequential&#45;&gt;streamable</title>
<path fill="none" stroke="black" d="M171.5,-503.7C171.5,-495.98 171.5,-486.71 171.5,-478.11"/>
<polygon fill="black" stroke="black" points="175,-478.1 171.5,-468.1 168,-478.1 175,-478.1"/>
</g>
<!-- clearable -->
<g id="node8" class="node">
<title>clearable</title>
<g id="a_node8"><a xlink:href="PsyllaReference_Types.xhtml#PsyllaReference_Types_Details_clearable" xlink:title="clearable" target="_parent">
<polygon fill="linen" stroke="black" points="313.5,-468 235.5,-468 235.5,-432 319.5,-432 319.5,-462 313.5,-468"/>
<polyline fill="none" stroke="black" points="313.5,-468 313.5,-462 "/>
<polyline fill="none" stroke="black" points="319.5,-462 313.5,-462 "/>
<text text-anchor="middle" x="277.5" y="-446.9" font-family="Consolas, monospace" font-size="12.00">clearable</text>
</a>
</g>
</g>
<!-- clearable&#45;&gt;container -->
<g id="edge7" class="edge">
<title>clearable&#45;&gt;container</title>
<path fill="none" stroke="black" d="M271.59,-431.87C263.2,-407.56 247.76,-362.82 237.82,-334.01"/>
<polygon fill="black" stroke="black" points="241,-332.5 234.43,-324.19 234.38,-334.78 241,-332.5"/>
</g>
<!-- iterable -->
<g id="node9" class="node">
<title>iterable</title>
<g id="a_node9"><a xlink:href="PsyllaReference_Types.xhtml#PsyllaReference_Types_Details_iterable" xlink:title="iterable" target="_parent">
<polygon fill="linen" stroke="black" points="223,-396 152,-396 152,-360 229,-360 229,-390 223,-396"/>
<polyline fill="none" stroke="black" points="223,-396 223,-390 "/>
<polyline fill="none" stroke="black" points="229,-390 223,-390 "/>
<text text-anchor="middle" x="190.5" y="-374.9" font-family="Consolas, monospace" font-size="12.00">iterable</text>
</a>
</g>
</g>
<!-- iterable&#45;&gt;container -->
<g id="edge8" class="edge">
<title>iterable&#45;&gt;container</title>
<path fill="none" stroke="black" d="M199.89,-359.7C204.26,-351.64 209.56,-341.89 214.4,-332.98"/>
<polygon fill="black" stroke="black" points="217.52,-334.56 219.21,-324.1 211.37,-331.22 217.52,-334.56"/>
</g>
<!-- lengthy -->
<g id="node10" class="node">
<title>lengthy</title>
<g id="a_node10"><a xlink:href="PsyllaReference_Types.xhtml#PsyllaReference_Types_Details_lengthy" xlink:title="lengthy" target="_parent">
<polygon fill="linen" stroke="black" points="364,-540 301,-540 301,-504 370,-504 370,-534 364,-540"/>
<polyline fill="none" stroke="black" points="364,-540 364,-534 "/>
<polyline fill="none" stroke="black" points="370,-534 364,-534 "/>
<text text-anchor="middle" x="335.5" y="-518.9" font-family="Consolas, monospace" font-size="12.00">lengthy</text>
</a>
</g>
</g>
<!-- lengthy&#45;&gt;container -->
<g id="edge9" class="edge">
<title>lengthy&#45;&gt;container</title>
<path fill="none" stroke="black" d="M337.06,-503.94C338.09,-485.51 337.85,-455.64 328.5,-432 312.64,-391.89 279.25,-354.47 255.42,-331.22"/>
<polygon fill="black" stroke="black" points="257.7,-328.56 248.06,-324.19 252.87,-333.62 257.7,-328.56"/>
</g>
<!-- object -->
<g id="node11" class="node">
<title>object</title>
<g id="a_node11"><a xlink:href="PsyllaReference_Types.xhtml#PsyllaReference_Types_Details_object" xlink:title="object" target="_parent">
<polygon fill="linen" stroke="black" points="233.5,-612 177.5,-612 177.5,-576 239.5,-576 239.5,-606 233.5,-612"/>
<polyline fill="none" stroke="black" points="233.5,-612 233.5,-606 "/>
<polyline fill="none" stroke="black" points="239.5,-606 233.5,-606 "/>
<text text-anchor="middle" x="208.5" y="-590.9" font-family="Consolas, monospace" font-size="12.00">object</text>
</a>
</g>
</g>
<!-- object&#45;&gt;indexed -->
<g id="edge10" class="edge">
<title>object&#45;&gt;indexed</title>
<path fill="none" stroke="black" d="M177.32,-580.56C157.92,-571.59 133.51,-557.91 116.5,-540 79.01,-500.53 54.67,-440.58 42.87,-406.06"/>
<polygon fill="black" stroke="black" points="46.08,-404.61 39.62,-396.22 39.43,-406.81 46.08,-404.61"/>
</g>
<!-- object&#45;&gt;sequential -->
<g id="edge11" class="edge">
<title>object&#45;&gt;sequential</title>
<path fill="none" stroke="black" d="M199.35,-575.7C195.1,-567.64 189.94,-557.89 185.23,-548.98"/>
<polygon fill="black" stroke="black" points="188.31,-547.31 180.54,-540.1 182.12,-550.58 188.31,-547.31"/>
</g>
<!-- object&#45;&gt;clearable -->
<g id="edge12" class="edge">
<title>object&#45;&gt;clearable</title>
<path fill="none" stroke="black" d="M216.82,-575.87C228.74,-551.35 250.76,-506.03 264.74,-477.26"/>
<polygon fill="black" stroke="black" points="267.92,-478.71 269.15,-468.19 261.63,-475.65 267.92,-478.71"/>
</g>
<!-- object&#45;&gt;lengthy -->
<g id="edge14" class="edge">
<title>object&#45;&gt;lengthy</title>
<path fill="none" stroke="black" d="M239.57,-575.88C256.33,-566.64 277.21,-555.13 295.2,-545.21"/>
<polygon fill="black" stroke="black" points="297.24,-548.08 304.31,-540.19 293.87,-541.95 297.24,-548.08"/>
</g>
<!-- streamable&#45;&gt;iterable -->
<g id="edge13" class="edge">
<title>streamable&#45;&gt;iterable</title>
<path fill="none" stroke="black" d="M176.2,-431.7C178.31,-423.9 180.86,-414.51 183.22,-405.83"/>
<polygon fill="black" stroke="black" points="186.62,-406.67 185.86,-396.1 179.86,-404.84 186.62,-406.67"/>
</g>
</g>
</svg>
