<?xml version="1.0" encoding="UTF-8" standalone="no"?>
<!DOCTYPE svg PUBLIC "-//W3C//DTD SVG 1.1//EN"
 "http://www.w3.org/Graphics/SVG/1.1/DTD/svg11.dtd">
<!-- Generated by graphviz version 2.43.0 (0)
 -->
<!-- Title: formalqueue Pages: 1 -->
<svg width="241pt" height="404pt"
 viewBox="0.00 0.00 241.00 404.00" xmlns="http://www.w3.org/2000/svg" xmlns:xlink="http://www.w3.org/1999/xlink">
<g id="graph0" class="graph" transform="scale(1 1) rotate(0) translate(4 400)">
<title>formalqueue</title>
<polygon fill="transparent" stroke="transparent" points="-4,4 -4,-400 237,-400 237,4 -4,4"/>
<!-- bounded -->
<g id="node1" class="node">
<title>bounded</title>
<g id="a_node1"><a xlink:href="PsyllaReference_Types.xhtml#PsyllaReference_Types_Details_bounded" xlink:title="bounded" target="_parent">
<polygon fill="linen" stroke="black" points="53,-108 0,-108 0,-72 59,-72 59,-102 53,-108"/>
<polyline fill="none" stroke="black" points="53,-108 53,-102 "/>
<polyline fill="none" stroke="black" points="59,-102 53,-102 "/>
<text text-anchor="middle" x="29.5" y="-87.5" font-family="PT Mono, monospace" font-size="10.00">bounded</text>
</a>
</g>
</g>
<!-- formalqueue -->
<g id="node3" class="node">
<title>formalqueue</title>
<g id="a_node3"><a xlink:href="PsyllaReference_Types.xhtml#PsyllaReference_Types_Details_formalqueue" xlink:title="formalqueue" target="_parent">
<polygon fill="wheat" stroke="black" points="106,-36 29,-36 29,0 112,0 112,-30 106,-36"/>
<polyline fill="none" stroke="black" points="106,-36 106,-30 "/>
<polyline fill="none" stroke="black" points="112,-30 106,-30 "/>
<text text-anchor="middle" x="70.5" y="-15.5" font-family="PT Mono, monospace" font-size="10.00">formalqueue</text>
</a>
</g>
</g>
<!-- bounded&#45;&gt;formalqueue -->
<g id="edge1" class="edge">
<title>bounded&#45;&gt;formalqueue</title>
<path fill="none" stroke="black" d="M39.63,-71.7C44.35,-63.64 50.06,-53.89 55.28,-44.98"/>
<polygon fill="black" stroke="black" points="58.45,-46.5 60.48,-36.1 52.41,-42.96 58.45,-46.5"/>
</g>
<!-- container -->
<g id="node2" class="node">
<title>container</title>
<g id="a_node2"><a xlink:href="PsyllaReference_Types.xhtml#PsyllaReference_Types_Details_container" xlink:title="container" target="_parent">
<polygon fill="linen" stroke="black" points="142,-108 77,-108 77,-72 148,-72 148,-102 142,-108"/>
<polyline fill="none" stroke="black" points="142,-108 142,-102 "/>
<polyline fill="none" stroke="black" points="148,-102 142,-102 "/>
<text text-anchor="middle" x="112.5" y="-87.5" font-family="PT Mono, monospace" font-size="10.00">container</text>
</a>
</g>
</g>
<!-- container&#45;&gt;formalqueue -->
<g id="edge2" class="edge">
<title>container&#45;&gt;formalqueue</title>
<path fill="none" stroke="black" d="M102.12,-71.7C97.24,-63.56 91.31,-53.69 85.92,-44.7"/>
<polygon fill="black" stroke="black" points="88.91,-42.88 80.76,-36.1 82.91,-46.48 88.91,-42.88"/>
</g>
<!-- lengthy -->
<g id="node4" class="node">
<title>lengthy</title>
<g id="a_node4"><a xlink:href="PsyllaReference_Types.xhtml#PsyllaReference_Types_Details_lengthy" xlink:title="lengthy" target="_parent">
<polygon fill="linen" stroke="black" points="62,-180 9,-180 9,-144 68,-144 68,-174 62,-180"/>
<polyline fill="none" stroke="black" points="62,-180 62,-174 "/>
<polyline fill="none" stroke="black" points="68,-174 62,-174 "/>
<text text-anchor="middle" x="38.5" y="-159.5" font-family="PT Mono, monospace" font-size="10.00">lengthy</text>
</a>
</g>
</g>
<!-- lengthy&#45;&gt;bounded -->
<g id="edge3" class="edge">
<title>lengthy&#45;&gt;bounded</title>
<path fill="none" stroke="black" d="M36.28,-143.7C35.28,-135.98 34.09,-126.71 32.99,-118.11"/>
<polygon fill="black" stroke="black" points="36.45,-117.58 31.7,-108.1 29.5,-118.47 36.45,-117.58"/>
</g>
<!-- lengthy&#45;&gt;container -->
<g id="edge6" class="edge">
<title>lengthy&#45;&gt;container</title>
<path fill="none" stroke="black" d="M56.79,-143.7C65.93,-135.05 77.14,-124.45 87.1,-115.03"/>
<polygon fill="black" stroke="black" points="89.56,-117.52 94.42,-108.1 84.75,-112.43 89.56,-117.52"/>
</g>
<!-- clearable -->
<g id="node5" class="node">
<title>clearable</title>
<g id="a_node5"><a xlink:href="PsyllaReference_Types.xhtml#PsyllaReference_Types_Details_clearable" xlink:title="clearable" target="_parent">
<polygon fill="linen" stroke="black" points="132,-252 67,-252 67,-216 138,-216 138,-246 132,-252"/>
<polyline fill="none" stroke="black" points="132,-252 132,-246 "/>
<polyline fill="none" stroke="black" points="138,-246 132,-246 "/>
<text text-anchor="middle" x="102.5" y="-231.5" font-family="PT Mono, monospace" font-size="10.00">clearable</text>
</a>
</g>
</g>
<!-- clearable&#45;&gt;container -->
<g id="edge4" class="edge">
<title>clearable&#45;&gt;container</title>
<path fill="none" stroke="black" d="M103.71,-215.87C105.41,-191.67 108.54,-147.21 110.57,-118.39"/>
<polygon fill="black" stroke="black" points="114.08,-118.41 111.29,-108.19 107.1,-117.92 114.08,-118.41"/>
</g>
<!-- iterable -->
<g id="node6" class="node">
<title>iterable</title>
<g id="a_node6"><a xlink:href="PsyllaReference_Types.xhtml#PsyllaReference_Types_Details_iterable" xlink:title="iterable" target="_parent">
<polygon fill="linen" stroke="black" points="210,-180 151,-180 151,-144 216,-144 216,-174 210,-180"/>
<polyline fill="none" stroke="black" points="210,-180 210,-174 "/>
<polyline fill="none" stroke="black" points="216,-174 210,-174 "/>
<text text-anchor="middle" x="183.5" y="-159.5" font-family="PT Mono, monospace" font-size="10.00">iterable</text>
</a>
</g>
</g>
<!-- iterable&#45;&gt;container -->
<g id="edge5" class="edge">
<title>iterable&#45;&gt;container</title>
<path fill="none" stroke="black" d="M165.95,-143.7C157.27,-135.14 146.64,-124.66 137.15,-115.3"/>
<polygon fill="black" stroke="black" points="139.43,-112.63 129.85,-108.1 134.51,-117.62 139.43,-112.63"/>
</g>
<!-- object -->
<g id="node7" class="node">
<title>object</title>
<g id="a_node7"><a xlink:href="PsyllaReference_Types.xhtml#PsyllaReference_Types_Details_object" xlink:title="object" target="_parent">
<polygon fill="linen" stroke="black" points="123.5,-396 75.5,-396 75.5,-360 129.5,-360 129.5,-390 123.5,-396"/>
<polyline fill="none" stroke="black" points="123.5,-396 123.5,-390 "/>
<polyline fill="none" stroke="black" points="129.5,-390 123.5,-390 "/>
<text text-anchor="middle" x="102.5" y="-375.5" font-family="PT Mono, monospace" font-size="10.00">object</text>
</a>
</g>
</g>
<!-- object&#45;&gt;lengthy -->
<g id="edge7" class="edge">
<title>object&#45;&gt;lengthy</title>
<path fill="none" stroke="black" d="M95.49,-359.85C85.93,-335.98 68.7,-291.26 57.5,-252 51.68,-231.62 46.75,-208.16 43.36,-190.44"/>
<polygon fill="black" stroke="black" points="46.73,-189.42 41.46,-180.23 39.85,-190.7 46.73,-189.42"/>
</g>
<!-- object&#45;&gt;clearable -->
<g id="edge8" class="edge">
<title>object&#45;&gt;clearable</title>
<path fill="none" stroke="black" d="M102.5,-359.87C102.5,-335.67 102.5,-291.21 102.5,-262.39"/>
<polygon fill="black" stroke="black" points="106,-262.19 102.5,-252.19 99,-262.19 106,-262.19"/>
</g>
<!-- sequential -->
<g id="node9" class="node">
<title>sequential</title>
<g id="a_node9"><a xlink:href="PsyllaReference_Types.xhtml#PsyllaReference_Types_Details_sequential" xlink:title="sequential" target="_parent">
<polygon fill="linen" stroke="black" points="214,-324 143,-324 143,-288 220,-288 220,-318 214,-324"/>
<polyline fill="none" stroke="black" points="214,-324 214,-318 "/>
<polyline fill="none" stroke="black" points="220,-318 214,-318 "/>
<text text-anchor="middle" x="181.5" y="-303.5" font-family="PT Mono, monospace" font-size="10.00">sequential</text>
</a>
</g>
</g>
<!-- object&#45;&gt;sequential -->
<g id="edge11" class="edge">
<title>object&#45;&gt;sequential</title>
<path fill="none" stroke="black" d="M122.03,-359.7C131.88,-350.97 143.99,-340.24 154.7,-330.75"/>
<polygon fill="black" stroke="black" points="157.03,-333.36 162.2,-324.1 152.39,-328.12 157.03,-333.36"/>
</g>
<!-- streamable -->
<g id="node8" class="node">
<title>streamable</title>
<g id="a_node8"><a xlink:href="PsyllaReference_Types.xhtml#PsyllaReference_Types_Details_streamable" xlink:title="streamable" target="_parent">
<polygon fill="linen" stroke="black" points="227,-252 156,-252 156,-216 233,-216 233,-246 227,-252"/>
<polyline fill="none" stroke="black" points="227,-252 227,-246 "/>
<polyline fill="none" stroke="black" points="233,-246 227,-246 "/>
<text text-anchor="middle" x="194.5" y="-231.5" font-family="PT Mono, monospace" font-size="10.00">streamable</text>
</a>
</g>
</g>
<!-- streamable&#45;&gt;iterable -->
<g id="edge9" class="edge">
<title>streamable&#45;&gt;iterable</title>
<path fill="none" stroke="black" d="M191.78,-215.7C190.57,-207.98 189.11,-198.71 187.76,-190.11"/>
<polygon fill="black" stroke="black" points="191.2,-189.44 186.19,-180.1 184.28,-190.53 191.2,-189.44"/>
</g>
<!-- sequential&#45;&gt;streamable -->
<g id="edge10" class="edge">
<title>sequential&#45;&gt;streamable</title>
<path fill="none" stroke="black" d="M184.71,-287.7C186.15,-279.98 187.87,-270.71 189.46,-262.11"/>
<polygon fill="black" stroke="black" points="192.94,-262.58 191.32,-252.1 186.06,-261.3 192.94,-262.58"/>
</g>
</g>
</svg>
