<?xml version="1.0" encoding="UTF-8" standalone="no"?>
<!DOCTYPE svg PUBLIC "-//W3C//DTD SVG 1.1//EN"
 "http://www.w3.org/Graphics/SVG/1.1/DTD/svg11.dtd">
<!-- Generated by graphviz version 2.43.0 (0)
 -->
<!-- Title: rational Pages: 1 -->
<svg width="596pt" height="404pt"
 viewBox="0.00 0.00 595.50 404.00" xmlns="http://www.w3.org/2000/svg" xmlns:xlink="http://www.w3.org/1999/xlink">
<g id="graph0" class="graph" transform="scale(1 1) rotate(0) translate(4 400)">
<title>rational</title>
<polygon fill="transparent" stroke="transparent" points="-4,4 -4,-400 591.5,-400 591.5,4 -4,4"/>
<!-- realnumeric -->
<g id="node1" class="node">
<title>realnumeric</title>
<g id="a_node1"><a xlink:href="PsyllaReference_Types.xhtml#PsyllaReference_Types_Details_realnumeric" xlink:title="realnumeric" target="_parent">
<polygon fill="linen" stroke="black" points="277,-108 184,-108 184,-72 283,-72 283,-102 277,-108"/>
<polyline fill="none" stroke="black" points="277,-108 277,-102 "/>
<polyline fill="none" stroke="black" points="283,-102 277,-102 "/>
<text text-anchor="middle" x="233.5" y="-86.9" font-family="Source Code Pro,monospace" font-size="12.00">realnumeric</text>
</a>
</g>
</g>
<!-- rational -->
<g id="node2" class="node">
<title>rational</title>
<g id="a_node2"><a xlink:href="PsyllaReference_Types.xhtml#PsyllaReference_Types_Details_rational" xlink:title="rational" target="_parent">
<polygon fill="wheat" stroke="black" points="266,-36 195,-36 195,0 272,0 272,-30 266,-36"/>
<polyline fill="none" stroke="black" points="266,-36 266,-30 "/>
<polyline fill="none" stroke="black" points="272,-30 266,-30 "/>
<text text-anchor="middle" x="233.5" y="-14.9" font-family="Source Code Pro,monospace" font-size="12.00">rational</text>
</a>
</g>
</g>
<!-- realnumeric&#45;&gt;rational -->
<g id="edge1" class="edge">
<title>realnumeric&#45;&gt;rational</title>
<path fill="none" stroke="black" d="M233.5,-71.7C233.5,-63.98 233.5,-54.71 233.5,-46.11"/>
<polygon fill="black" stroke="black" points="237,-46.1 233.5,-36.1 230,-46.1 237,-46.1"/>
</g>
<!-- numeric -->
<g id="node3" class="node">
<title>numeric</title>
<g id="a_node3"><a xlink:href="PsyllaReference_Types.xhtml#PsyllaReference_Types_Details_numeric" xlink:title="numeric" target="_parent">
<polygon fill="linen" stroke="black" points="391,-180 328,-180 328,-144 397,-144 397,-174 391,-180"/>
<polyline fill="none" stroke="black" points="391,-180 391,-174 "/>
<polyline fill="none" stroke="black" points="397,-174 391,-174 "/>
<text text-anchor="middle" x="362.5" y="-158.9" font-family="Source Code Pro,monospace" font-size="12.00">numeric</text>
</a>
</g>
</g>
<!-- numeric&#45;&gt;realnumeric -->
<g id="edge2" class="edge">
<title>numeric&#45;&gt;realnumeric</title>
<path fill="none" stroke="black" d="M330.94,-143.88C313.84,-134.6 292.52,-123.03 274.18,-113.08"/>
<polygon fill="black" stroke="black" points="275.64,-109.88 265.18,-108.19 272.3,-116.04 275.64,-109.88"/>
</g>
<!-- convertabletointeger -->
<g id="node4" class="node">
<title>convertabletointeger</title>
<g id="a_node4"><a xlink:href="PsyllaReference_Types.xhtml#PsyllaReference_Types_Details_convertabletointeger" xlink:title="convertabletointeger" target="_parent">
<polygon fill="linen" stroke="black" points="161,-180 0,-180 0,-144 167,-144 167,-174 161,-180"/>
<polyline fill="none" stroke="black" points="161,-180 161,-174 "/>
<polyline fill="none" stroke="black" points="167,-174 161,-174 "/>
<text text-anchor="middle" x="83.5" y="-158.9" font-family="Source Code Pro,monospace" font-size="12.00">convertabletointeger</text>
</a>
</g>
</g>
<!-- convertabletointeger&#45;&gt;realnumeric -->
<g id="edge3" class="edge">
<title>convertabletointeger&#45;&gt;realnumeric</title>
<path fill="none" stroke="black" d="M120.19,-143.88C140.52,-134.39 165.97,-122.51 187.6,-112.42"/>
<polygon fill="black" stroke="black" points="189.34,-115.47 196.93,-108.07 186.38,-109.13 189.34,-115.47"/>
</g>
<!-- convertabletointegral -->
<g id="node5" class="node">
<title>convertabletointegral</title>
<g id="a_node5"><a xlink:href="PsyllaReference_Types.xhtml#PsyllaReference_Types_Details_convertabletointegral" xlink:title="convertabletointegral" target="_parent">
<polygon fill="linen" stroke="black" points="269.5,-252 101.5,-252 101.5,-216 275.5,-216 275.5,-246 269.5,-252"/>
<polyline fill="none" stroke="black" points="269.5,-252 269.5,-246 "/>
<polyline fill="none" stroke="black" points="275.5,-246 269.5,-246 "/>
<text text-anchor="middle" x="188.5" y="-230.9" font-family="Source Code Pro,monospace" font-size="12.00">convertabletointegral</text>
</a>
</g>
</g>
<!-- convertabletointegral&#45;&gt;realnumeric -->
<g id="edge4" class="edge">
<title>convertabletointegral&#45;&gt;realnumeric</title>
<path fill="none" stroke="black" d="M193.93,-215.87C201.63,-191.56 215.81,-146.82 224.94,-118.01"/>
<polygon fill="black" stroke="black" points="228.37,-118.78 228.05,-108.19 221.7,-116.66 228.37,-118.78"/>
</g>
<!-- scalar -->
<g id="node6" class="node">
<title>scalar</title>
<g id="a_node6"><a xlink:href="PsyllaReference_Types.xhtml#PsyllaReference_Types_Details_scalar" xlink:title="scalar" target="_parent">
<polygon fill="linen" stroke="black" points="288.5,-180 232.5,-180 232.5,-144 294.5,-144 294.5,-174 288.5,-180"/>
<polyline fill="none" stroke="black" points="288.5,-180 288.5,-174 "/>
<polyline fill="none" stroke="black" points="294.5,-174 288.5,-174 "/>
<text text-anchor="middle" x="263.5" y="-158.9" font-family="Source Code Pro,monospace" font-size="12.00">scalar</text>
</a>
</g>
</g>
<!-- scalar&#45;&gt;realnumeric -->
<g id="edge5" class="edge">
<title>scalar&#45;&gt;realnumeric</title>
<path fill="none" stroke="black" d="M256.08,-143.7C252.71,-135.81 248.63,-126.3 244.88,-117.55"/>
<polygon fill="black" stroke="black" points="247.99,-115.92 240.83,-108.1 241.55,-118.67 247.99,-115.92"/>
</g>
<!-- atomic -->
<g id="node7" class="node">
<title>atomic</title>
<g id="a_node7"><a xlink:href="PsyllaReference_Types.xhtml#PsyllaReference_Types_Details_atomic" xlink:title="atomic" target="_parent">
<polygon fill="linen" stroke="black" points="387.5,-252 331.5,-252 331.5,-216 393.5,-216 393.5,-246 387.5,-252"/>
<polyline fill="none" stroke="black" points="387.5,-252 387.5,-246 "/>
<polyline fill="none" stroke="black" points="393.5,-246 387.5,-246 "/>
<text text-anchor="middle" x="362.5" y="-230.9" font-family="Source Code Pro,monospace" font-size="12.00">atomic</text>
</a>
</g>
</g>
<!-- atomic&#45;&gt;numeric -->
<g id="edge6" class="edge">
<title>atomic&#45;&gt;numeric</title>
<path fill="none" stroke="black" d="M362.5,-215.7C362.5,-207.98 362.5,-198.71 362.5,-190.11"/>
<polygon fill="black" stroke="black" points="366,-190.1 362.5,-180.1 359,-190.1 366,-190.1"/>
</g>
<!-- arithmetic -->
<g id="node8" class="node">
<title>arithmetic</title>
<g id="a_node8"><a xlink:href="PsyllaReference_Types.xhtml#PsyllaReference_Types_Details_arithmetic" xlink:title="arithmetic" target="_parent">
<polygon fill="linen" stroke="black" points="497.5,-252 411.5,-252 411.5,-216 503.5,-216 503.5,-246 497.5,-252"/>
<polyline fill="none" stroke="black" points="497.5,-252 497.5,-246 "/>
<polyline fill="none" stroke="black" points="503.5,-246 497.5,-246 "/>
<text text-anchor="middle" x="457.5" y="-230.9" font-family="Source Code Pro,monospace" font-size="12.00">arithmetic</text>
</a>
</g>
</g>
<!-- arithmetic&#45;&gt;numeric -->
<g id="edge7" class="edge">
<title>arithmetic&#45;&gt;numeric</title>
<path fill="none" stroke="black" d="M434.02,-215.7C421.94,-206.8 407.05,-195.82 393.98,-186.2"/>
<polygon fill="black" stroke="black" points="395.84,-183.22 385.71,-180.1 391.69,-188.85 395.84,-183.22"/>
</g>
<!-- object -->
<g id="node9" class="node">
<title>object</title>
<g id="a_node9"><a xlink:href="PsyllaReference_Types.xhtml#PsyllaReference_Types_Details_object" xlink:title="object" target="_parent">
<polygon fill="linen" stroke="black" points="347.5,-396 291.5,-396 291.5,-360 353.5,-360 353.5,-390 347.5,-396"/>
<polyline fill="none" stroke="black" points="347.5,-396 347.5,-390 "/>
<polyline fill="none" stroke="black" points="353.5,-390 347.5,-390 "/>
<text text-anchor="middle" x="322.5" y="-374.9" font-family="Source Code Pro,monospace" font-size="12.00">object</text>
</a>
</g>
</g>
<!-- object&#45;&gt;convertabletointeger -->
<g id="edge8" class="edge">
<title>object&#45;&gt;convertabletointeger</title>
<path fill="none" stroke="black" d="M291.23,-369.97C240.05,-356.66 139.44,-322.58 92.5,-252 80.51,-233.97 78.91,-209.18 79.94,-190.35"/>
<polygon fill="black" stroke="black" points="83.43,-190.56 80.76,-180.31 76.46,-189.99 83.43,-190.56"/>
</g>
<!-- object&#45;&gt;convertabletointegral -->
<g id="edge9" class="edge">
<title>object&#45;&gt;convertabletointegral</title>
<path fill="none" stroke="black" d="M306.34,-359.87C282.79,-334.92 238.94,-288.45 211.88,-259.77"/>
<polygon fill="black" stroke="black" points="214.13,-257.06 204.72,-252.19 209.04,-261.86 214.13,-257.06"/>
</g>
<!-- object&#45;&gt;scalar -->
<g id="edge10" class="edge">
<title>object&#45;&gt;scalar</title>
<path fill="none" stroke="black" d="M319.31,-359.86C313.59,-330.19 300.69,-267.51 284.5,-216 281.77,-207.31 278.29,-198.03 274.95,-189.69"/>
<polygon fill="black" stroke="black" points="278.19,-188.36 271.15,-180.44 271.71,-191.02 278.19,-188.36"/>
</g>
<!-- object&#45;&gt;atomic -->
<g id="edge11" class="edge">
<title>object&#45;&gt;atomic</title>
<path fill="none" stroke="black" d="M327.32,-359.87C334.17,-335.56 346.78,-290.82 354.89,-262.01"/>
<polygon fill="black" stroke="black" points="358.32,-262.76 357.66,-252.19 351.58,-260.87 358.32,-262.76"/>
</g>
<!-- additive -->
<g id="node10" class="node">
<title>additive</title>
<g id="a_node10"><a xlink:href="PsyllaReference_Types.xhtml#PsyllaReference_Types_Details_additive" xlink:title="additive" target="_parent">
<polygon fill="linen" stroke="black" points="441,-324 370,-324 370,-288 447,-288 447,-318 441,-324"/>
<polyline fill="none" stroke="black" points="441,-324 441,-318 "/>
<polyline fill="none" stroke="black" points="447,-318 441,-318 "/>
<text text-anchor="middle" x="408.5" y="-302.9" font-family="Source Code Pro,monospace" font-size="12.00">additive</text>
</a>
</g>
</g>
<!-- object&#45;&gt;additive -->
<g id="edge14" class="edge">
<title>object&#45;&gt;additive</title>
<path fill="none" stroke="black" d="M343.76,-359.7C354.59,-350.88 367.92,-340.03 379.66,-330.47"/>
<polygon fill="black" stroke="black" points="381.94,-333.13 387.49,-324.1 377.52,-327.7 381.94,-333.13"/>
</g>
<!-- multiplicative -->
<g id="node11" class="node">
<title>multiplicative</title>
<g id="a_node11"><a xlink:href="PsyllaReference_Types.xhtml#PsyllaReference_Types_Details_multiplicative" xlink:title="multiplicative" target="_parent">
<polygon fill="linen" stroke="black" points="581.5,-324 465.5,-324 465.5,-288 587.5,-288 587.5,-318 581.5,-324"/>
<polyline fill="none" stroke="black" points="581.5,-324 581.5,-318 "/>
<polyline fill="none" stroke="black" points="587.5,-318 581.5,-318 "/>
<text text-anchor="middle" x="526.5" y="-302.9" font-family="Source Code Pro,monospace" font-size="12.00">multiplicative</text>
</a>
</g>
</g>
<!-- object&#45;&gt;multiplicative -->
<g id="edge15" class="edge">
<title>object&#45;&gt;multiplicative</title>
<path fill="none" stroke="black" d="M353.93,-366.22C383.99,-355.9 430.09,-340.08 467.08,-327.39"/>
<polygon fill="black" stroke="black" points="468.44,-330.62 476.76,-324.07 466.17,-324 468.44,-330.62"/>
</g>
<!-- additive&#45;&gt;arithmetic -->
<g id="edge12" class="edge">
<title>additive&#45;&gt;arithmetic</title>
<path fill="none" stroke="black" d="M420.61,-287.7C426.37,-279.47 433.36,-269.48 439.71,-260.42"/>
<polygon fill="black" stroke="black" points="442.66,-262.3 445.53,-252.1 436.92,-258.29 442.66,-262.3"/>
</g>
<!-- multiplicative&#45;&gt;arithmetic -->
<g id="edge13" class="edge">
<title>multiplicative&#45;&gt;arithmetic</title>
<path fill="none" stroke="black" d="M509.44,-287.7C501,-279.14 490.68,-268.66 481.46,-259.3"/>
<polygon fill="black" stroke="black" points="483.87,-256.77 474.36,-252.1 478.89,-261.68 483.87,-256.77"/>
</g>
</g>
</svg>
