<?xml version="1.0" encoding="UTF-8" standalone="no"?>
<!DOCTYPE svg PUBLIC "-//W3C//DTD SVG 1.1//EN"
 "http://www.w3.org/Graphics/SVG/1.1/DTD/svg11.dtd">
<!-- Generated by graphviz version 2.43.0 (0)
 -->
<!-- Title: proc Pages: 1 -->
<svg width="521pt" height="548pt"
 viewBox="0.00 0.00 520.50 548.00" xmlns="http://www.w3.org/2000/svg" xmlns:xlink="http://www.w3.org/1999/xlink">
<g id="graph0" class="graph" transform="scale(1 1) rotate(0) translate(4 544)">
<title>proc</title>
<polygon fill="transparent" stroke="transparent" points="-4,4 -4,-544 516.5,-544 516.5,4 -4,4"/>
<!-- executable -->
<g id="node1" class="node">
<title>executable</title>
<g id="a_node1"><a xlink:href="PsyllaReference_Types.xhtml#PsyllaReference_Types_Details_executable" xlink:title="executable" target="_parent">
<polygon fill="linen" stroke="black" points="93,-396 0,-396 0,-360 99,-360 99,-390 93,-396"/>
<polyline fill="none" stroke="black" points="93,-396 93,-390 "/>
<polyline fill="none" stroke="black" points="99,-390 93,-390 "/>
<text text-anchor="middle" x="49.5" y="-374.3" font-family="Consolas, monospace" font-size="14.00">executable</text>
</a>
</g>
</g>
<!-- proc -->
<g id="node3" class="node">
<title>proc</title>
<g id="a_node3"><a xlink:href="PsyllaReference_Types.xhtml#PsyllaReference_Types_Details_proc" xlink:title="proc" target="_parent">
<polygon fill="wheat" stroke="black" points="88.5,-36 40.5,-36 40.5,0 94.5,0 94.5,-30 88.5,-36"/>
<polyline fill="none" stroke="black" points="88.5,-36 88.5,-30 "/>
<polyline fill="none" stroke="black" points="94.5,-30 88.5,-30 "/>
<text text-anchor="middle" x="67.5" y="-14.3" font-family="Consolas, monospace" font-size="14.00">proc</text>
</a>
</g>
</g>
<!-- executable&#45;&gt;proc -->
<g id="edge1" class="edge">
<title>executable&#45;&gt;proc</title>
<path fill="none" stroke="black" d="M47.52,-359.98C44.61,-333.36 39.5,-280.23 39.5,-235 39.5,-235 39.5,-235 39.5,-161 39.5,-120.27 50.73,-74.19 58.96,-45.86"/>
<polygon fill="black" stroke="black" points="62.32,-46.86 61.83,-36.27 55.61,-44.85 62.32,-46.86"/>
</g>
<!-- array -->
<g id="node2" class="node">
<title>array</title>
<g id="a_node2"><a xlink:href="PsyllaReference_Types.xhtml#PsyllaReference_Types_Details_array" xlink:title="array" target="_parent">
<polygon fill="linen" stroke="black" points="155.5,-108 103.5,-108 103.5,-72 161.5,-72 161.5,-102 155.5,-108"/>
<polyline fill="none" stroke="black" points="155.5,-108 155.5,-102 "/>
<polyline fill="none" stroke="black" points="161.5,-102 155.5,-102 "/>
<text text-anchor="middle" x="132.5" y="-86.3" font-family="Consolas, monospace" font-size="14.00">array</text>
</a>
</g>
</g>
<!-- array&#45;&gt;proc -->
<g id="edge2" class="edge">
<title>array&#45;&gt;proc</title>
<path fill="none" stroke="black" d="M116.43,-71.7C108.56,-63.22 98.94,-52.86 90.33,-43.58"/>
<polygon fill="black" stroke="black" points="92.75,-41.05 83.38,-36.1 87.62,-45.81 92.75,-41.05"/>
</g>
<!-- object -->
<g id="node4" class="node">
<title>object</title>
<g id="a_node4"><a xlink:href="PsyllaReference_Types.xhtml#PsyllaReference_Types_Details_object" xlink:title="object" target="_parent">
<polygon fill="linen" stroke="black" points="261.5,-540 201.5,-540 201.5,-504 267.5,-504 267.5,-534 261.5,-540"/>
<polyline fill="none" stroke="black" points="261.5,-540 261.5,-534 "/>
<polyline fill="none" stroke="black" points="267.5,-534 261.5,-534 "/>
<text text-anchor="middle" x="234.5" y="-518.3" font-family="Consolas, monospace" font-size="14.00">object</text>
</a>
</g>
</g>
<!-- object&#45;&gt;executable -->
<g id="edge3" class="edge">
<title>object&#45;&gt;executable</title>
<path fill="none" stroke="black" d="M201.49,-507.07C180.93,-497.6 154.49,-483.91 133.5,-468 108.87,-449.33 85.11,-423.14 69.18,-404"/>
<polygon fill="black" stroke="black" points="71.69,-401.54 62.65,-396.02 66.27,-405.97 71.69,-401.54"/>
</g>
<!-- appendable -->
<g id="node6" class="node">
<title>appendable</title>
<g id="a_node6"><a xlink:href="PsyllaReference_Types.xhtml#PsyllaReference_Types_Details_appendable" xlink:title="appendable" target="_parent">
<polygon fill="linen" stroke="black" points="161,-324 68,-324 68,-288 167,-288 167,-318 161,-324"/>
<polyline fill="none" stroke="black" points="161,-324 161,-318 "/>
<polyline fill="none" stroke="black" points="167,-318 161,-318 "/>
<text text-anchor="middle" x="117.5" y="-302.3" font-family="Consolas, monospace" font-size="14.00">appendable</text>
</a>
</g>
</g>
<!-- object&#45;&gt;appendable -->
<g id="edge9" class="edge">
<title>object&#45;&gt;appendable</title>
<path fill="none" stroke="black" d="M213.57,-503.78C202.88,-494.13 190.3,-481.37 181.5,-468 153.16,-424.92 134.07,-367.33 124.56,-333.99"/>
<polygon fill="black" stroke="black" points="127.85,-332.77 121.81,-324.07 121.11,-334.64 127.85,-332.77"/>
</g>
<!-- indexed -->
<g id="node8" class="node">
<title>indexed</title>
<g id="a_node8"><a xlink:href="PsyllaReference_Types.xhtml#PsyllaReference_Types_Details_indexed" xlink:title="indexed" target="_parent">
<polygon fill="linen" stroke="black" points="199.5,-252 131.5,-252 131.5,-216 205.5,-216 205.5,-246 199.5,-252"/>
<polyline fill="none" stroke="black" points="199.5,-252 199.5,-246 "/>
<polyline fill="none" stroke="black" points="205.5,-246 199.5,-246 "/>
<text text-anchor="middle" x="168.5" y="-230.3" font-family="Consolas, monospace" font-size="14.00">indexed</text>
</a>
</g>
</g>
<!-- object&#45;&gt;indexed -->
<g id="edge13" class="edge">
<title>object&#45;&gt;indexed</title>
<path fill="none" stroke="black" d="M227.09,-503.58C222.95,-493.36 217.95,-480.11 214.5,-468 193.65,-394.89 178.97,-306.23 172.39,-262.34"/>
<polygon fill="black" stroke="black" points="175.81,-261.57 170.89,-252.19 168.89,-262.59 175.81,-261.57"/>
</g>
<!-- sequential -->
<g id="node9" class="node">
<title>sequential</title>
<g id="a_node9"><a xlink:href="PsyllaReference_Types.xhtml#PsyllaReference_Types_Details_sequential" xlink:title="sequential" target="_parent">
<polygon fill="linen" stroke="black" points="317,-468 224,-468 224,-432 323,-432 323,-462 317,-468"/>
<polyline fill="none" stroke="black" points="317,-468 317,-462 "/>
<polyline fill="none" stroke="black" points="323,-462 317,-462 "/>
<text text-anchor="middle" x="273.5" y="-446.3" font-family="Consolas, monospace" font-size="14.00">sequential</text>
</a>
</g>
</g>
<!-- object&#45;&gt;sequential -->
<g id="edge14" class="edge">
<title>object&#45;&gt;sequential</title>
<path fill="none" stroke="black" d="M244.14,-503.7C248.63,-495.64 254.06,-485.89 259.02,-476.98"/>
<polygon fill="black" stroke="black" points="262.16,-478.54 263.97,-468.1 256.05,-475.14 262.16,-478.54"/>
</g>
<!-- clearable -->
<g id="node10" class="node">
<title>clearable</title>
<g id="a_node10"><a xlink:href="PsyllaReference_Types.xhtml#PsyllaReference_Types_Details_clearable" xlink:title="clearable" target="_parent">
<polygon fill="linen" stroke="black" points="464,-396 379,-396 379,-360 470,-360 470,-390 464,-396"/>
<polyline fill="none" stroke="black" points="464,-396 464,-390 "/>
<polyline fill="none" stroke="black" points="470,-390 464,-390 "/>
<text text-anchor="middle" x="424.5" y="-374.3" font-family="Consolas, monospace" font-size="14.00">clearable</text>
</a>
</g>
</g>
<!-- object&#45;&gt;clearable -->
<g id="edge15" class="edge">
<title>object&#45;&gt;clearable</title>
<path fill="none" stroke="black" d="M267.68,-505.6C287.05,-495.96 311.52,-482.62 331.5,-468 357.81,-448.74 384.34,-422.53 402.29,-403.54"/>
<polygon fill="black" stroke="black" points="404.93,-405.84 409.2,-396.14 399.82,-401.06 404.93,-405.84"/>
</g>
<!-- lengthy -->
<g id="node12" class="node">
<title>lengthy</title>
<g id="a_node12"><a xlink:href="PsyllaReference_Types.xhtml#PsyllaReference_Types_Details_lengthy" xlink:title="lengthy" target="_parent">
<polygon fill="linen" stroke="black" points="506.5,-468 438.5,-468 438.5,-432 512.5,-432 512.5,-462 506.5,-468"/>
<polyline fill="none" stroke="black" points="506.5,-468 506.5,-462 "/>
<polyline fill="none" stroke="black" points="512.5,-462 506.5,-462 "/>
<text text-anchor="middle" x="475.5" y="-446.3" font-family="Consolas, monospace" font-size="14.00">lengthy</text>
</a>
</g>
</g>
<!-- object&#45;&gt;lengthy -->
<g id="edge17" class="edge">
<title>object&#45;&gt;lengthy</title>
<path fill="none" stroke="black" d="M267.5,-511.41C309.15,-499.32 381.04,-478.44 428.43,-464.67"/>
<polygon fill="black" stroke="black" points="429.52,-468 438.15,-461.85 427.57,-461.28 429.52,-468"/>
</g>
<!-- formalarray -->
<g id="node5" class="node">
<title>formalarray</title>
<g id="a_node5"><a xlink:href="PsyllaReference_Types.xhtml#PsyllaReference_Types_Details_formalarray" xlink:title="formalarray" target="_parent">
<polygon fill="linen" stroke="black" points="216,-180 115,-180 115,-144 222,-144 222,-174 216,-180"/>
<polyline fill="none" stroke="black" points="216,-180 216,-174 "/>
<polyline fill="none" stroke="black" points="222,-174 216,-174 "/>
<text text-anchor="middle" x="168.5" y="-158.3" font-family="Consolas, monospace" font-size="14.00">formalarray</text>
</a>
</g>
</g>
<!-- formalarray&#45;&gt;array -->
<g id="edge4" class="edge">
<title>formalarray&#45;&gt;array</title>
<path fill="none" stroke="black" d="M159.6,-143.7C155.5,-135.73 150.55,-126.1 146.01,-117.26"/>
<polygon fill="black" stroke="black" points="148.98,-115.4 141.3,-108.1 142.76,-118.6 148.98,-115.4"/>
</g>
<!-- appendable&#45;&gt;formalarray -->
<g id="edge5" class="edge">
<title>appendable&#45;&gt;formalarray</title>
<path fill="none" stroke="black" d="M115.28,-287.89C113.59,-269.43 112.96,-239.52 122.5,-216 126.74,-205.56 133.91,-195.75 141.35,-187.48"/>
<polygon fill="black" stroke="black" points="144.08,-189.68 148.48,-180.04 139.03,-184.84 144.08,-189.68"/>
</g>
<!-- container -->
<g id="node7" class="node">
<title>container</title>
<g id="a_node7"><a xlink:href="PsyllaReference_Types.xhtml#PsyllaReference_Types_Details_container" xlink:title="container" target="_parent">
<polygon fill="linen" stroke="black" points="402,-252 317,-252 317,-216 408,-216 408,-246 402,-252"/>
<polyline fill="none" stroke="black" points="402,-252 402,-246 "/>
<polyline fill="none" stroke="black" points="408,-246 402,-246 "/>
<text text-anchor="middle" x="362.5" y="-230.3" font-family="Consolas, monospace" font-size="14.00">container</text>
</a>
</g>
</g>
<!-- container&#45;&gt;formalarray -->
<g id="edge6" class="edge">
<title>container&#45;&gt;formalarray</title>
<path fill="none" stroke="black" d="M316.52,-216.41C289.24,-206.57 254.44,-194.01 225.43,-183.54"/>
<polygon fill="black" stroke="black" points="226.43,-180.18 215.83,-180.08 224.05,-186.76 226.43,-180.18"/>
</g>
<!-- indexed&#45;&gt;formalarray -->
<g id="edge7" class="edge">
<title>indexed&#45;&gt;formalarray</title>
<path fill="none" stroke="black" d="M168.5,-215.7C168.5,-207.98 168.5,-198.71 168.5,-190.11"/>
<polygon fill="black" stroke="black" points="172,-190.1 168.5,-180.1 165,-190.1 172,-190.1"/>
</g>
<!-- sequential&#45;&gt;formalarray -->
<g id="edge8" class="edge">
<title>sequential&#45;&gt;formalarray</title>
<path fill="none" stroke="black" d="M265.74,-431.6C261.4,-421.38 256.15,-408.13 252.5,-396 228.91,-317.71 250.9,-289.21 214.5,-216 209.48,-205.91 202.09,-196.2 194.69,-187.91"/>
<polygon fill="black" stroke="black" points="197.07,-185.32 187.68,-180.42 191.96,-190.11 197.07,-185.32"/>
</g>
<!-- streamable -->
<g id="node13" class="node">
<title>streamable</title>
<g id="a_node13"><a xlink:href="PsyllaReference_Types.xhtml#PsyllaReference_Types_Details_streamable" xlink:title="streamable" target="_parent">
<polygon fill="linen" stroke="black" points="355,-396 262,-396 262,-360 361,-360 361,-390 355,-396"/>
<polyline fill="none" stroke="black" points="355,-396 355,-390 "/>
<polyline fill="none" stroke="black" points="361,-390 355,-390 "/>
<text text-anchor="middle" x="311.5" y="-374.3" font-family="Consolas, monospace" font-size="14.00">streamable</text>
</a>
</g>
</g>
<!-- sequential&#45;&gt;streamable -->
<g id="edge18" class="edge">
<title>sequential&#45;&gt;streamable</title>
<path fill="none" stroke="black" d="M282.89,-431.7C287.26,-423.64 292.56,-413.89 297.4,-404.98"/>
<polygon fill="black" stroke="black" points="300.52,-406.56 302.21,-396.1 294.37,-403.22 300.52,-406.56"/>
</g>
<!-- clearable&#45;&gt;container -->
<g id="edge10" class="edge">
<title>clearable&#45;&gt;container</title>
<path fill="none" stroke="black" d="M417.02,-359.87C406.36,-335.46 386.7,-290.43 374.13,-261.64"/>
<polygon fill="black" stroke="black" points="377.21,-259.95 370.01,-252.19 370.8,-262.75 377.21,-259.95"/>
</g>
<!-- iterable -->
<g id="node11" class="node">
<title>iterable</title>
<g id="a_node11"><a xlink:href="PsyllaReference_Types.xhtml#PsyllaReference_Types_Details_iterable" xlink:title="iterable" target="_parent">
<polygon fill="linen" stroke="black" points="358,-324 281,-324 281,-288 364,-288 364,-318 358,-324"/>
<polyline fill="none" stroke="black" points="358,-324 358,-318 "/>
<polyline fill="none" stroke="black" points="364,-318 358,-318 "/>
<text text-anchor="middle" x="322.5" y="-302.3" font-family="Consolas, monospace" font-size="14.00">iterable</text>
</a>
</g>
</g>
<!-- iterable&#45;&gt;container -->
<g id="edge11" class="edge">
<title>iterable&#45;&gt;container</title>
<path fill="none" stroke="black" d="M332.39,-287.7C336.99,-279.64 342.56,-269.89 347.65,-260.98"/>
<polygon fill="black" stroke="black" points="350.8,-262.52 352.73,-252.1 344.73,-259.05 350.8,-262.52"/>
</g>
<!-- lengthy&#45;&gt;container -->
<g id="edge12" class="edge">
<title>lengthy&#45;&gt;container</title>
<path fill="none" stroke="black" d="M479.97,-431.92C483.93,-413.49 487.76,-383.6 478.5,-360 461.81,-317.48 423.11,-280.82 394.99,-258.39"/>
<polygon fill="black" stroke="black" points="397.04,-255.55 387,-252.17 392.74,-261.07 397.04,-255.55"/>
</g>
<!-- streamable&#45;&gt;iterable -->
<g id="edge16" class="edge">
<title>streamable&#45;&gt;iterable</title>
<path fill="none" stroke="black" d="M314.22,-359.7C315.43,-351.98 316.89,-342.71 318.24,-334.11"/>
<polygon fill="black" stroke="black" points="321.72,-334.53 319.81,-324.1 314.8,-333.44 321.72,-334.53"/>
</g>
</g>
</svg>
