<?xml version="1.0" encoding="UTF-8" standalone="no"?>
<!DOCTYPE svg PUBLIC "-//W3C//DTD SVG 1.1//EN"
 "http://www.w3.org/Graphics/SVG/1.1/DTD/svg11.dtd">
<!-- Generated by graphviz version 2.49.3 (0)
 -->
<!-- Title: systemdict Pages: 1 -->
<svg width="312pt" height="620pt"
 viewBox="0.00 0.00 312.00 620.00" xmlns="http://www.w3.org/2000/svg" xmlns:xlink="http://www.w3.org/1999/xlink">
<g id="graph0" class="graph" transform="scale(1 1) rotate(0) translate(4 616)">
<title>systemdict</title>
<polygon fill="transparent" stroke="transparent" points="-4,4 -4,-616 308,-616 308,4 -4,4"/>
<!-- module -->
<g id="node1" class="node">
<title>module</title>
<g id="a_node1"><a xlink:href="PsyllaReference_Types.xhtml#PsyllaReference_Types_Details_module" xlink:title="module" target="_parent">
<polygon fill="linen" stroke="black" points="103,-108 55,-108 55,-72 109,-72 109,-102 103,-108"/>
<polyline fill="none" stroke="black" points="103,-108 103,-102 "/>
<polyline fill="none" stroke="black" points="109,-102 103,-102 "/>
<text text-anchor="middle" x="82" y="-86.4" font-family="Source Code Pro,monospace" font-size="12.00">module</text>
</a>
</g>
</g>
<!-- systemdict -->
<g id="node2" class="node">
<title>systemdict</title>
<g id="a_node2"><a xlink:href="PsyllaReference_Types.xhtml#PsyllaReference_Types_Details_systemdict" xlink:title="systemdict" target="_parent">
<polygon fill="wheat" stroke="black" points="109.83,-36 48.17,-36 48.17,0 115.83,0 115.83,-30 109.83,-36"/>
<polyline fill="none" stroke="black" points="109.83,-36 109.83,-30 "/>
<polyline fill="none" stroke="black" points="115.83,-30 109.83,-30 "/>
<text text-anchor="middle" x="82" y="-14.4" font-family="Source Code Pro,monospace" font-size="12.00">systemdict</text>
</a>
</g>
</g>
<!-- module&#45;&gt;systemdict -->
<g id="edge1" class="edge">
<title>module&#45;&gt;systemdict</title>
<path fill="none" stroke="black" d="M82,-71.7C82,-63.98 82,-54.71 82,-46.11"/>
<polygon fill="black" stroke="black" points="85.5,-46.1 82,-36.1 78.5,-46.1 85.5,-46.1"/>
</g>
<!-- dict -->
<g id="node3" class="node">
<title>dict</title>
<g id="a_node3"><a xlink:href="PsyllaReference_Types.xhtml#PsyllaReference_Types_Details_dict" xlink:title="dict" target="_parent">
<polygon fill="linen" stroke="black" points="103,-180 55,-180 55,-144 109,-144 109,-174 103,-180"/>
<polyline fill="none" stroke="black" points="103,-180 103,-174 "/>
<polyline fill="none" stroke="black" points="109,-174 103,-174 "/>
<text text-anchor="middle" x="82" y="-158.4" font-family="Source Code Pro,monospace" font-size="12.00">dict</text>
</a>
</g>
</g>
<!-- dict&#45;&gt;module -->
<g id="edge2" class="edge">
<title>dict&#45;&gt;module</title>
<path fill="none" stroke="black" d="M82,-143.7C82,-135.98 82,-126.71 82,-118.11"/>
<polygon fill="black" stroke="black" points="85.5,-118.1 82,-108.1 78.5,-118.1 85.5,-118.1"/>
</g>
<!-- formaldict -->
<g id="node4" class="node">
<title>formaldict</title>
<g id="a_node4"><a xlink:href="PsyllaReference_Types.xhtml#PsyllaReference_Types_Details_formaldict" xlink:title="formaldict" target="_parent">
<polygon fill="linen" stroke="black" points="108.98,-252 49.02,-252 49.02,-216 114.98,-216 114.98,-246 108.98,-252"/>
<polyline fill="none" stroke="black" points="108.98,-252 108.98,-246 "/>
<polyline fill="none" stroke="black" points="114.98,-246 108.98,-246 "/>
<text text-anchor="middle" x="82" y="-230.4" font-family="Source Code Pro,monospace" font-size="12.00">formaldict</text>
</a>
</g>
</g>
<!-- formaldict&#45;&gt;dict -->
<g id="edge3" class="edge">
<title>formaldict&#45;&gt;dict</title>
<path fill="none" stroke="black" d="M82,-215.7C82,-207.98 82,-198.71 82,-190.11"/>
<polygon fill="black" stroke="black" points="85.5,-190.1 82,-180.1 78.5,-190.1 85.5,-190.1"/>
</g>
<!-- container -->
<g id="node5" class="node">
<title>container</title>
<g id="a_node5"><a xlink:href="PsyllaReference_Types.xhtml#PsyllaReference_Types_Details_container" xlink:title="container" target="_parent">
<polygon fill="linen" stroke="black" points="212.15,-324 157.85,-324 157.85,-288 218.15,-288 218.15,-318 212.15,-324"/>
<polyline fill="none" stroke="black" points="212.15,-324 212.15,-318 "/>
<polyline fill="none" stroke="black" points="218.15,-318 212.15,-318 "/>
<text text-anchor="middle" x="188" y="-302.4" font-family="Source Code Pro,monospace" font-size="12.00">container</text>
</a>
</g>
</g>
<!-- container&#45;&gt;formaldict -->
<g id="edge4" class="edge">
<title>container&#45;&gt;formaldict</title>
<path fill="none" stroke="black" d="M162.07,-287.88C148.34,-278.81 131.29,-267.55 116.46,-257.76"/>
<polygon fill="black" stroke="black" points="118.3,-254.78 108.03,-252.19 114.45,-260.62 118.3,-254.78"/>
</g>
<!-- indexed -->
<g id="node6" class="node">
<title>indexed</title>
<g id="a_node6"><a xlink:href="PsyllaReference_Types.xhtml#PsyllaReference_Types_Details_indexed" xlink:title="indexed" target="_parent">
<polygon fill="linen" stroke="black" points="48,-396 0,-396 0,-360 54,-360 54,-390 48,-396"/>
<polyline fill="none" stroke="black" points="48,-396 48,-390 "/>
<polyline fill="none" stroke="black" points="54,-390 48,-390 "/>
<text text-anchor="middle" x="27" y="-374.4" font-family="Source Code Pro,monospace" font-size="12.00">indexed</text>
</a>
</g>
</g>
<!-- indexed&#45;&gt;formaldict -->
<g id="edge5" class="edge">
<title>indexed&#45;&gt;formaldict</title>
<path fill="none" stroke="black" d="M33.63,-359.87C43.09,-335.46 60.53,-290.43 71.68,-261.64"/>
<polygon fill="black" stroke="black" points="74.99,-262.78 75.34,-252.19 68.47,-260.25 74.99,-262.78"/>
</g>
<!-- sequential -->
<g id="node7" class="node">
<title>sequential</title>
<g id="a_node7"><a xlink:href="PsyllaReference_Types.xhtml#PsyllaReference_Types_Details_sequential" xlink:title="sequential" target="_parent">
<polygon fill="linen" stroke="black" points="170.15,-540 111.85,-540 111.85,-504 176.15,-504 176.15,-534 170.15,-540"/>
<polyline fill="none" stroke="black" points="170.15,-540 170.15,-534 "/>
<polyline fill="none" stroke="black" points="176.15,-534 170.15,-534 "/>
<text text-anchor="middle" x="144" y="-518.4" font-family="Source Code Pro,monospace" font-size="12.00">sequential</text>
</a>
</g>
</g>
<!-- sequential&#45;&gt;formaldict -->
<g id="edge6" class="edge">
<title>sequential&#45;&gt;formaldict</title>
<path fill="none" stroke="black" d="M125.41,-503.67C116.4,-494.08 106.38,-481.42 101,-468 72.94,-398.05 75.59,-306.99 79.16,-262.24"/>
<polygon fill="black" stroke="black" points="82.66,-262.43 80.05,-252.16 75.69,-261.81 82.66,-262.43"/>
</g>
<!-- streamable -->
<g id="node12" class="node">
<title>streamable</title>
<g id="a_node12"><a xlink:href="PsyllaReference_Types.xhtml#PsyllaReference_Types_Details_streamable" xlink:title="streamable" target="_parent">
<polygon fill="linen" stroke="black" points="171.97,-468 110.03,-468 110.03,-432 177.97,-432 177.97,-462 171.97,-468"/>
<polyline fill="none" stroke="black" points="171.97,-468 171.97,-462 "/>
<polyline fill="none" stroke="black" points="177.97,-462 171.97,-462 "/>
<text text-anchor="middle" x="144" y="-446.4" font-family="Source Code Pro,monospace" font-size="12.00">streamable</text>
</a>
</g>
</g>
<!-- sequential&#45;&gt;streamable -->
<g id="edge15" class="edge">
<title>sequential&#45;&gt;streamable</title>
<path fill="none" stroke="black" d="M144,-503.7C144,-495.98 144,-486.71 144,-478.11"/>
<polygon fill="black" stroke="black" points="147.5,-478.1 144,-468.1 140.5,-478.1 147.5,-478.1"/>
</g>
<!-- clearable -->
<g id="node8" class="node">
<title>clearable</title>
<g id="a_node8"><a xlink:href="PsyllaReference_Types.xhtml#PsyllaReference_Types_Details_clearable" xlink:title="clearable" target="_parent">
<polygon fill="linen" stroke="black" points="249.8,-468 196.2,-468 196.2,-432 255.8,-432 255.8,-462 249.8,-468"/>
<polyline fill="none" stroke="black" points="249.8,-468 249.8,-462 "/>
<polyline fill="none" stroke="black" points="255.8,-462 249.8,-462 "/>
<text text-anchor="middle" x="226" y="-446.4" font-family="Source Code Pro,monospace" font-size="12.00">clearable</text>
</a>
</g>
</g>
<!-- clearable&#45;&gt;container -->
<g id="edge7" class="edge">
<title>clearable&#45;&gt;container</title>
<path fill="none" stroke="black" d="M221.42,-431.87C214.91,-407.56 202.94,-362.82 195.23,-334.01"/>
<polygon fill="black" stroke="black" points="198.57,-332.94 192.6,-324.19 191.8,-334.75 198.57,-332.94"/>
</g>
<!-- iterable -->
<g id="node9" class="node">
<title>iterable</title>
<g id="a_node9"><a xlink:href="PsyllaReference_Types.xhtml#PsyllaReference_Types_Details_iterable" xlink:title="iterable" target="_parent">
<polygon fill="linen" stroke="black" points="178,-396 130,-396 130,-360 184,-360 184,-390 178,-396"/>
<polyline fill="none" stroke="black" points="178,-396 178,-390 "/>
<polyline fill="none" stroke="black" points="184,-390 178,-390 "/>
<text text-anchor="middle" x="157" y="-374.4" font-family="Source Code Pro,monospace" font-size="12.00">iterable</text>
</a>
</g>
</g>
<!-- iterable&#45;&gt;container -->
<g id="edge8" class="edge">
<title>iterable&#45;&gt;container</title>
<path fill="none" stroke="black" d="M164.66,-359.7C168.19,-351.73 172.46,-342.1 176.37,-333.26"/>
<polygon fill="black" stroke="black" points="179.58,-334.67 180.43,-324.1 173.18,-331.83 179.58,-334.67"/>
</g>
<!-- lengthy -->
<g id="node10" class="node">
<title>lengthy</title>
<g id="a_node10"><a xlink:href="PsyllaReference_Types.xhtml#PsyllaReference_Types_Details_lengthy" xlink:title="lengthy" target="_parent">
<polygon fill="linen" stroke="black" points="298,-540 250,-540 250,-504 304,-504 304,-534 298,-540"/>
<polyline fill="none" stroke="black" points="298,-540 298,-534 "/>
<polyline fill="none" stroke="black" points="304,-534 298,-534 "/>
<text text-anchor="middle" x="277" y="-518.4" font-family="Source Code Pro,monospace" font-size="12.00">lengthy</text>
</a>
</g>
</g>
<!-- lengthy&#45;&gt;container -->
<g id="edge9" class="edge">
<title>lengthy&#45;&gt;container</title>
<path fill="none" stroke="black" d="M276.77,-503.78C276.05,-485.48 273.51,-455.95 265,-432 251.78,-394.78 226.35,-356.82 208.34,-332.65"/>
<polygon fill="black" stroke="black" points="210.9,-330.24 202.07,-324.4 205.33,-334.48 210.9,-330.24"/>
</g>
<!-- object -->
<g id="node11" class="node">
<title>object</title>
<g id="a_node11"><a xlink:href="PsyllaReference_Types.xhtml#PsyllaReference_Types_Details_object" xlink:title="object" target="_parent">
<polygon fill="linen" stroke="black" points="195,-612 147,-612 147,-576 201,-576 201,-606 195,-612"/>
<polyline fill="none" stroke="black" points="195,-612 195,-606 "/>
<polyline fill="none" stroke="black" points="201,-606 195,-606 "/>
<text text-anchor="middle" x="174" y="-590.4" font-family="Source Code Pro,monospace" font-size="12.00">object</text>
</a>
</g>
</g>
<!-- object&#45;&gt;indexed -->
<g id="edge10" class="edge">
<title>object&#45;&gt;indexed</title>
<path fill="none" stroke="black" d="M146.88,-577.21C132.47,-567.8 115.25,-554.82 103,-540 68.9,-498.77 46.17,-439.69 35.02,-405.75"/>
<polygon fill="black" stroke="black" points="38.31,-404.53 31.93,-396.07 31.64,-406.66 38.31,-404.53"/>
</g>
<!-- object&#45;&gt;sequential -->
<g id="edge11" class="edge">
<title>object&#45;&gt;sequential</title>
<path fill="none" stroke="black" d="M166.58,-575.7C163.21,-567.81 159.13,-558.3 155.38,-549.55"/>
<polygon fill="black" stroke="black" points="158.49,-547.92 151.33,-540.1 152.05,-550.67 158.49,-547.92"/>
</g>
<!-- object&#45;&gt;clearable -->
<g id="edge12" class="edge">
<title>object&#45;&gt;clearable</title>
<path fill="none" stroke="black" d="M180.27,-575.87C189.21,-551.46 205.7,-506.43 216.25,-477.64"/>
<polygon fill="black" stroke="black" points="219.55,-478.78 219.71,-468.19 212.98,-476.38 219.55,-478.78"/>
</g>
<!-- object&#45;&gt;lengthy -->
<g id="edge14" class="edge">
<title>object&#45;&gt;lengthy</title>
<path fill="none" stroke="black" d="M199.2,-575.88C212.41,-566.89 228.79,-555.76 243.11,-546.03"/>
<polygon fill="black" stroke="black" points="245.4,-548.71 251.71,-540.19 241.47,-542.92 245.4,-548.71"/>
</g>
<!-- streamable&#45;&gt;iterable -->
<g id="edge13" class="edge">
<title>streamable&#45;&gt;iterable</title>
<path fill="none" stroke="black" d="M147.21,-431.7C148.65,-423.98 150.37,-414.71 151.96,-406.11"/>
<polygon fill="black" stroke="black" points="155.44,-406.58 153.82,-396.1 148.56,-405.3 155.44,-406.58"/>
</g>
</g>
</svg>
