<?xml version="1.0" encoding="UTF-8" standalone="no"?>
<!DOCTYPE svg PUBLIC "-//W3C//DTD SVG 1.1//EN"
 "http://www.w3.org/Graphics/SVG/1.1/DTD/svg11.dtd">
<!-- Generated by graphviz version 2.43.0 (0)
 -->
<!-- Title: integer Pages: 1 -->
<svg width="741pt" height="548pt"
 viewBox="0.00 0.00 740.50 548.00" xmlns="http://www.w3.org/2000/svg" xmlns:xlink="http://www.w3.org/1999/xlink">
<g id="graph0" class="graph" transform="scale(1 1) rotate(0) translate(4 544)">
<title>integer</title>
<polygon fill="transparent" stroke="transparent" points="-4,4 -4,-544 736.5,-544 736.5,4 -4,4"/>
<!-- bitwise -->
<g id="node1" class="node">
<title>bitwise</title>
<g id="a_node1"><a xlink:href="PsyllaReference_Types.xhtml#PsyllaReference_Types_Details_bitwise" xlink:title="bitwise" target="_parent">
<polygon fill="linen" stroke="black" points="68,-396 5,-396 5,-360 74,-360 74,-390 68,-396"/>
<polyline fill="none" stroke="black" points="68,-396 68,-390 "/>
<polyline fill="none" stroke="black" points="74,-390 68,-390 "/>
<text text-anchor="middle" x="39.5" y="-374.9" font-family="Source Code Pro,monospace" font-size="12.00">bitwise</text>
</a>
</g>
</g>
<!-- integral -->
<g id="node2" class="node">
<title>integral</title>
<g id="a_node2"><a xlink:href="PsyllaReference_Types.xhtml#PsyllaReference_Types_Details_integral" xlink:title="integral" target="_parent">
<polygon fill="linen" stroke="black" points="101,-108 30,-108 30,-72 107,-72 107,-102 101,-108"/>
<polyline fill="none" stroke="black" points="101,-108 101,-102 "/>
<polyline fill="none" stroke="black" points="107,-102 101,-102 "/>
<text text-anchor="middle" x="68.5" y="-86.9" font-family="Source Code Pro,monospace" font-size="12.00">integral</text>
</a>
</g>
</g>
<!-- bitwise&#45;&gt;integral -->
<g id="edge4" class="edge">
<title>bitwise&#45;&gt;integral</title>
<path fill="none" stroke="black" d="M41.23,-359.97C46.07,-312.19 59.82,-176.62 65.74,-118.27"/>
<polygon fill="black" stroke="black" points="69.22,-118.61 66.75,-108.31 62.25,-117.9 69.22,-118.61"/>
</g>
<!-- integer -->
<g id="node3" class="node">
<title>integer</title>
<g id="a_node3"><a xlink:href="PsyllaReference_Types.xhtml#PsyllaReference_Types_Details_integer" xlink:title="integer" target="_parent">
<polygon fill="wheat" stroke="black" points="63,-36 0,-36 0,0 69,0 69,-30 63,-36"/>
<polyline fill="none" stroke="black" points="63,-36 63,-30 "/>
<polyline fill="none" stroke="black" points="69,-30 63,-30 "/>
<text text-anchor="middle" x="34.5" y="-14.9" font-family="Source Code Pro,monospace" font-size="12.00">integer</text>
</a>
</g>
</g>
<!-- bitwise&#45;&gt;integer -->
<g id="edge1" class="edge">
<title>bitwise&#45;&gt;integer</title>
<path fill="none" stroke="black" d="M31.81,-359.91C20.71,-333.62 1.5,-281.45 1.5,-235 1.5,-235 1.5,-235 1.5,-161 1.5,-119.97 14.73,-73.97 24.44,-45.74"/>
<polygon fill="black" stroke="black" points="27.78,-46.78 27.82,-36.19 21.18,-44.45 27.78,-46.78"/>
</g>
<!-- integral&#45;&gt;integer -->
<g id="edge2" class="edge">
<title>integral&#45;&gt;integer</title>
<path fill="none" stroke="black" d="M60.1,-71.7C56.23,-63.73 51.55,-54.1 47.26,-45.26"/>
<polygon fill="black" stroke="black" points="50.33,-43.57 42.81,-36.1 44.03,-46.63 50.33,-43.57"/>
</g>
<!-- logical -->
<g id="node4" class="node">
<title>logical</title>
<g id="a_node4"><a xlink:href="PsyllaReference_Types.xhtml#PsyllaReference_Types_Details_logical" xlink:title="logical" target="_parent">
<polygon fill="linen" stroke="black" points="90,-468 27,-468 27,-432 96,-432 96,-462 90,-468"/>
<polyline fill="none" stroke="black" points="90,-468 90,-462 "/>
<polyline fill="none" stroke="black" points="96,-462 90,-462 "/>
<text text-anchor="middle" x="61.5" y="-446.9" font-family="Source Code Pro,monospace" font-size="12.00">logical</text>
</a>
</g>
</g>
<!-- logical&#45;&gt;bitwise -->
<g id="edge3" class="edge">
<title>logical&#45;&gt;bitwise</title>
<path fill="none" stroke="black" d="M56.06,-431.7C53.61,-423.9 50.66,-414.51 47.93,-405.83"/>
<polygon fill="black" stroke="black" points="51.21,-404.59 44.88,-396.1 44.54,-406.69 51.21,-404.59"/>
</g>
<!-- rational -->
<g id="node5" class="node">
<title>rational</title>
<g id="a_node5"><a xlink:href="PsyllaReference_Types.xhtml#PsyllaReference_Types_Details_rational" xlink:title="rational" target="_parent">
<polygon fill="linen" stroke="black" points="216,-180 145,-180 145,-144 222,-144 222,-174 216,-180"/>
<polyline fill="none" stroke="black" points="216,-180 216,-174 "/>
<polyline fill="none" stroke="black" points="222,-174 216,-174 "/>
<text text-anchor="middle" x="183.5" y="-158.9" font-family="Source Code Pro,monospace" font-size="12.00">rational</text>
</a>
</g>
</g>
<!-- rational&#45;&gt;integral -->
<g id="edge5" class="edge">
<title>rational&#45;&gt;integral</title>
<path fill="none" stroke="black" d="M155.37,-143.88C140.33,-134.72 121.63,-123.34 105.44,-113.48"/>
<polygon fill="black" stroke="black" points="107.1,-110.4 96.74,-108.19 103.46,-116.38 107.1,-110.4"/>
</g>
<!-- object -->
<g id="node6" class="node">
<title>object</title>
<g id="a_node6"><a xlink:href="PsyllaReference_Types.xhtml#PsyllaReference_Types_Details_object" xlink:title="object" target="_parent">
<polygon fill="linen" stroke="black" points="420.5,-540 364.5,-540 364.5,-504 426.5,-504 426.5,-534 420.5,-540"/>
<polyline fill="none" stroke="black" points="420.5,-540 420.5,-534 "/>
<polyline fill="none" stroke="black" points="426.5,-534 420.5,-534 "/>
<text text-anchor="middle" x="395.5" y="-518.9" font-family="Source Code Pro,monospace" font-size="12.00">object</text>
</a>
</g>
</g>
<!-- object&#45;&gt;logical -->
<g id="edge6" class="edge">
<title>object&#45;&gt;logical</title>
<path fill="none" stroke="black" d="M364.25,-515.08C314.9,-505.65 215.97,-486.4 132.5,-468 123.87,-466.1 114.67,-463.97 105.85,-461.88"/>
<polygon fill="black" stroke="black" points="106.65,-458.47 96.11,-459.55 105.02,-465.28 106.65,-458.47"/>
</g>
<!-- convertabletointeger -->
<g id="node9" class="node">
<title>convertabletointeger</title>
<g id="a_node9"><a xlink:href="PsyllaReference_Types.xhtml#PsyllaReference_Types_Details_convertabletointeger" xlink:title="convertabletointeger" target="_parent">
<polygon fill="linen" stroke="black" points="228,-324 67,-324 67,-288 234,-288 234,-318 228,-324"/>
<polyline fill="none" stroke="black" points="228,-324 228,-318 "/>
<polyline fill="none" stroke="black" points="234,-318 228,-318 "/>
<text text-anchor="middle" x="150.5" y="-302.9" font-family="Source Code Pro,monospace" font-size="12.00">convertabletointeger</text>
</a>
</g>
</g>
<!-- object&#45;&gt;convertabletointeger -->
<g id="edge15" class="edge">
<title>object&#45;&gt;convertabletointeger</title>
<path fill="none" stroke="black" d="M364.33,-513.51C313.77,-499.61 214.61,-464.8 165.5,-396 152.73,-378.11 149.45,-353.11 149.1,-334.16"/>
<polygon fill="black" stroke="black" points="152.6,-334.09 149.17,-324.07 145.6,-334.04 152.6,-334.09"/>
</g>
<!-- convertabletointegral -->
<g id="node10" class="node">
<title>convertabletointegral</title>
<g id="a_node10"><a xlink:href="PsyllaReference_Types.xhtml#PsyllaReference_Types_Details_convertabletointegral" xlink:title="convertabletointegral" target="_parent">
<polygon fill="linen" stroke="black" points="342.5,-396 174.5,-396 174.5,-360 348.5,-360 348.5,-390 342.5,-396"/>
<polyline fill="none" stroke="black" points="342.5,-396 342.5,-390 "/>
<polyline fill="none" stroke="black" points="348.5,-390 342.5,-390 "/>
<text text-anchor="middle" x="261.5" y="-374.9" font-family="Source Code Pro,monospace" font-size="12.00">convertabletointegral</text>
</a>
</g>
</g>
<!-- object&#45;&gt;convertabletointegral -->
<g id="edge16" class="edge">
<title>object&#45;&gt;convertabletointegral</title>
<path fill="none" stroke="black" d="M379.34,-503.87C355.79,-478.92 311.94,-432.45 284.88,-403.77"/>
<polygon fill="black" stroke="black" points="287.13,-401.06 277.72,-396.19 282.04,-405.86 287.13,-401.06"/>
</g>
<!-- convertabletorational -->
<g id="node11" class="node">
<title>convertabletorational</title>
<g id="a_node11"><a xlink:href="PsyllaReference_Types.xhtml#PsyllaReference_Types_Details_convertabletorational" xlink:title="convertabletorational" target="_parent">
<polygon fill="linen" stroke="black" points="457.5,-324 289.5,-324 289.5,-288 463.5,-288 463.5,-318 457.5,-324"/>
<polyline fill="none" stroke="black" points="457.5,-324 457.5,-318 "/>
<polyline fill="none" stroke="black" points="463.5,-318 457.5,-318 "/>
<text text-anchor="middle" x="376.5" y="-302.9" font-family="Source Code Pro,monospace" font-size="12.00">convertabletorational</text>
</a>
</g>
</g>
<!-- object&#45;&gt;convertabletorational -->
<g id="edge17" class="edge">
<title>object&#45;&gt;convertabletorational</title>
<path fill="none" stroke="black" d="M393.98,-503.85C390.69,-466.83 382.91,-379.18 378.93,-334.39"/>
<polygon fill="black" stroke="black" points="382.4,-333.88 378.03,-324.23 375.43,-334.5 382.4,-333.88"/>
</g>
<!-- scalar -->
<g id="node12" class="node">
<title>scalar</title>
<g id="a_node12"><a xlink:href="PsyllaReference_Types.xhtml#PsyllaReference_Types_Details_scalar" xlink:title="scalar" target="_parent">
<polygon fill="linen" stroke="black" points="460.5,-396 404.5,-396 404.5,-360 466.5,-360 466.5,-390 460.5,-396"/>
<polyline fill="none" stroke="black" points="460.5,-396 460.5,-390 "/>
<polyline fill="none" stroke="black" points="466.5,-390 460.5,-390 "/>
<text text-anchor="middle" x="435.5" y="-374.9" font-family="Source Code Pro,monospace" font-size="12.00">scalar</text>
</a>
</g>
</g>
<!-- object&#45;&gt;scalar -->
<g id="edge18" class="edge">
<title>object&#45;&gt;scalar</title>
<path fill="none" stroke="black" d="M400.32,-503.87C407.17,-479.56 419.78,-434.82 427.89,-406.01"/>
<polygon fill="black" stroke="black" points="431.32,-406.76 430.66,-396.19 424.58,-404.87 431.32,-406.76"/>
</g>
<!-- value -->
<g id="node14" class="node">
<title>value</title>
<g id="a_node14"><a xlink:href="PsyllaReference_Types.xhtml#PsyllaReference_Types_Details_value" xlink:title="value" target="_parent">
<polygon fill="linen" stroke="black" points="490.5,-468 442.5,-468 442.5,-432 496.5,-432 496.5,-462 490.5,-468"/>
<polyline fill="none" stroke="black" points="490.5,-468 490.5,-462 "/>
<polyline fill="none" stroke="black" points="496.5,-462 490.5,-462 "/>
<text text-anchor="middle" x="469.5" y="-446.9" font-family="Source Code Pro,monospace" font-size="12.00">value</text>
</a>
</g>
</g>
<!-- object&#45;&gt;value -->
<g id="edge21" class="edge">
<title>object&#45;&gt;value</title>
<path fill="none" stroke="black" d="M413.79,-503.7C422.93,-495.05 434.14,-484.45 444.1,-475.03"/>
<polygon fill="black" stroke="black" points="446.56,-477.52 451.42,-468.1 441.75,-472.43 446.56,-477.52"/>
</g>
<!-- additive -->
<g id="node15" class="node">
<title>additive</title>
<g id="a_node15"><a xlink:href="PsyllaReference_Types.xhtml#PsyllaReference_Types_Details_additive" xlink:title="additive" target="_parent">
<polygon fill="linen" stroke="black" points="586,-468 515,-468 515,-432 592,-432 592,-462 586,-468"/>
<polyline fill="none" stroke="black" points="586,-468 586,-462 "/>
<polyline fill="none" stroke="black" points="592,-462 586,-462 "/>
<text text-anchor="middle" x="553.5" y="-446.9" font-family="Source Code Pro,monospace" font-size="12.00">additive</text>
</a>
</g>
</g>
<!-- object&#45;&gt;additive -->
<g id="edge22" class="edge">
<title>object&#45;&gt;additive</title>
<path fill="none" stroke="black" d="M426.72,-507.17C449.3,-497.16 480.24,-483.46 505.9,-472.09"/>
<polygon fill="black" stroke="black" points="507.36,-475.27 515.09,-468.02 504.52,-468.87 507.36,-475.27"/>
</g>
<!-- multiplicative -->
<g id="node16" class="node">
<title>multiplicative</title>
<g id="a_node16"><a xlink:href="PsyllaReference_Types.xhtml#PsyllaReference_Types_Details_multiplicative" xlink:title="multiplicative" target="_parent">
<polygon fill="linen" stroke="black" points="726.5,-468 610.5,-468 610.5,-432 732.5,-432 732.5,-462 726.5,-468"/>
<polyline fill="none" stroke="black" points="726.5,-468 726.5,-462 "/>
<polyline fill="none" stroke="black" points="732.5,-462 726.5,-462 "/>
<text text-anchor="middle" x="671.5" y="-446.9" font-family="Source Code Pro,monospace" font-size="12.00">multiplicative</text>
</a>
</g>
</g>
<!-- object&#45;&gt;multiplicative -->
<g id="edge23" class="edge">
<title>object&#45;&gt;multiplicative</title>
<path fill="none" stroke="black" d="M426.62,-513.11C468.52,-502.48 544.27,-483.27 600.46,-469.02"/>
<polygon fill="black" stroke="black" points="601.53,-472.36 610.36,-466.51 599.81,-465.57 601.53,-472.36"/>
</g>
<!-- realnumeric -->
<g id="node7" class="node">
<title>realnumeric</title>
<g id="a_node7"><a xlink:href="PsyllaReference_Types.xhtml#PsyllaReference_Types_Details_realnumeric" xlink:title="realnumeric" target="_parent">
<polygon fill="linen" stroke="black" points="362,-252 269,-252 269,-216 368,-216 368,-246 362,-252"/>
<polyline fill="none" stroke="black" points="362,-252 362,-246 "/>
<polyline fill="none" stroke="black" points="368,-246 362,-246 "/>
<text text-anchor="middle" x="318.5" y="-230.9" font-family="Source Code Pro,monospace" font-size="12.00">realnumeric</text>
</a>
</g>
</g>
<!-- realnumeric&#45;&gt;rational -->
<g id="edge7" class="edge">
<title>realnumeric&#45;&gt;rational</title>
<path fill="none" stroke="black" d="M285.48,-215.88C267.42,-206.51 244.85,-194.81 225.55,-184.8"/>
<polygon fill="black" stroke="black" points="227.14,-181.69 216.65,-180.19 223.92,-187.9 227.14,-181.69"/>
</g>
<!-- numeric -->
<g id="node8" class="node">
<title>numeric</title>
<g id="a_node8"><a xlink:href="PsyllaReference_Types.xhtml#PsyllaReference_Types_Details_numeric" xlink:title="numeric" target="_parent">
<polygon fill="linen" stroke="black" points="583,-324 520,-324 520,-288 589,-288 589,-318 583,-324"/>
<polyline fill="none" stroke="black" points="583,-324 583,-318 "/>
<polyline fill="none" stroke="black" points="589,-318 583,-318 "/>
<text text-anchor="middle" x="554.5" y="-302.9" font-family="Source Code Pro,monospace" font-size="12.00">numeric</text>
</a>
</g>
</g>
<!-- numeric&#45;&gt;realnumeric -->
<g id="edge8" class="edge">
<title>numeric&#45;&gt;realnumeric</title>
<path fill="none" stroke="black" d="M519.78,-292.68C515,-291.06 510.14,-289.46 505.5,-288 463.28,-274.71 415.23,-261.12 378.41,-251.03"/>
<polygon fill="black" stroke="black" points="378.91,-247.54 368.34,-248.28 377.07,-254.29 378.91,-247.54"/>
</g>
<!-- convertabletointeger&#45;&gt;realnumeric -->
<g id="edge9" class="edge">
<title>convertabletointeger&#45;&gt;realnumeric</title>
<path fill="none" stroke="black" d="M191.6,-287.88C214.67,-278.26 243.64,-266.19 268.07,-256.01"/>
<polygon fill="black" stroke="black" points="269.65,-259.15 277.54,-252.07 266.96,-252.68 269.65,-259.15"/>
</g>
<!-- convertabletointegral&#45;&gt;realnumeric -->
<g id="edge10" class="edge">
<title>convertabletointegral&#45;&gt;realnumeric</title>
<path fill="none" stroke="black" d="M263.04,-359.96C265.17,-341.56 270.02,-311.7 280.5,-288 284.83,-278.21 291.14,-268.43 297.38,-259.98"/>
<polygon fill="black" stroke="black" points="300.18,-262.08 303.52,-252.03 294.64,-257.8 300.18,-262.08"/>
</g>
<!-- convertabletorational&#45;&gt;realnumeric -->
<g id="edge11" class="edge">
<title>convertabletorational&#45;&gt;realnumeric</title>
<path fill="none" stroke="black" d="M362.16,-287.7C355.21,-279.3 346.73,-269.07 339.1,-259.86"/>
<polygon fill="black" stroke="black" points="341.75,-257.57 332.67,-252.1 336.36,-262.04 341.75,-257.57"/>
</g>
<!-- scalar&#45;&gt;realnumeric -->
<g id="edge12" class="edge">
<title>scalar&#45;&gt;realnumeric</title>
<path fill="none" stroke="black" d="M452.28,-359.78C468.53,-340.95 488.54,-310.48 472.5,-288 451.22,-258.17 412.02,-244.96 378.5,-239.19"/>
<polygon fill="black" stroke="black" points="378.72,-235.68 368.3,-237.62 377.66,-242.6 378.72,-235.68"/>
</g>
<!-- arithmetic -->
<g id="node13" class="node">
<title>arithmetic</title>
<g id="a_node13"><a xlink:href="PsyllaReference_Types.xhtml#PsyllaReference_Types_Details_arithmetic" xlink:title="arithmetic" target="_parent">
<polygon fill="linen" stroke="black" points="608.5,-396 522.5,-396 522.5,-360 614.5,-360 614.5,-390 608.5,-396"/>
<polyline fill="none" stroke="black" points="608.5,-396 608.5,-390 "/>
<polyline fill="none" stroke="black" points="614.5,-390 608.5,-390 "/>
<text text-anchor="middle" x="568.5" y="-374.9" font-family="Source Code Pro,monospace" font-size="12.00">arithmetic</text>
</a>
</g>
</g>
<!-- arithmetic&#45;&gt;numeric -->
<g id="edge13" class="edge">
<title>arithmetic&#45;&gt;numeric</title>
<path fill="none" stroke="black" d="M565.04,-359.7C563.5,-351.98 561.64,-342.71 559.92,-334.11"/>
<polygon fill="black" stroke="black" points="563.31,-333.22 557.92,-324.1 556.45,-334.6 563.31,-333.22"/>
</g>
<!-- value&#45;&gt;numeric -->
<g id="edge14" class="edge">
<title>value&#45;&gt;numeric</title>
<path fill="none" stroke="black" d="M476.8,-431.73C484.84,-413.39 498.6,-383.82 513.5,-360 519.48,-350.43 526.82,-340.51 533.62,-331.87"/>
<polygon fill="black" stroke="black" points="536.38,-334.02 539.92,-324.03 530.93,-329.63 536.38,-334.02"/>
</g>
<!-- additive&#45;&gt;arithmetic -->
<g id="edge19" class="edge">
<title>additive&#45;&gt;arithmetic</title>
<path fill="none" stroke="black" d="M557.21,-431.7C558.86,-423.98 560.85,-414.71 562.69,-406.11"/>
<polygon fill="black" stroke="black" points="566.16,-406.62 564.83,-396.1 559.32,-405.15 566.16,-406.62"/>
</g>
<!-- multiplicative&#45;&gt;arithmetic -->
<g id="edge20" class="edge">
<title>multiplicative&#45;&gt;arithmetic</title>
<path fill="none" stroke="black" d="M646.3,-431.88C633.09,-422.89 616.71,-411.76 602.39,-402.03"/>
<polygon fill="black" stroke="black" points="604.03,-398.92 593.79,-396.19 600.1,-404.71 604.03,-398.92"/>
</g>
</g>
</svg>
