<?xml version="1.0" encoding="UTF-8" standalone="no"?>
<!DOCTYPE svg PUBLIC "-//W3C//DTD SVG 1.1//EN"
 "http://www.w3.org/Graphics/SVG/1.1/DTD/svg11.dtd">
<!-- Generated by graphviz version 2.49.3 (0)
 -->
<!-- Title: range Pages: 1 -->
<svg width="223pt" height="332pt"
 viewBox="0.00 0.00 222.65 332.00" xmlns="http://www.w3.org/2000/svg" xmlns:xlink="http://www.w3.org/1999/xlink">
<g id="graph0" class="graph" transform="scale(1 1) rotate(0) translate(4 328)">
<title>range</title>
<polygon fill="transparent" stroke="transparent" points="-4,4 -4,-328 218.65,-328 218.65,4 -4,4"/>
<!-- formalstream -->
<g id="node1" class="node">
<title>formalstream</title>
<g id="a_node1"><a xlink:href="PsyllaReference_Types.xhtml#PsyllaReference_Types_Details_formalstream" xlink:title="formalstream" target="_parent">
<polygon fill="linen" stroke="black" points="126.29,-108 52.35,-108 52.35,-72 132.29,-72 132.29,-102 126.29,-108"/>
<polyline fill="none" stroke="black" points="126.29,-108 126.29,-102 "/>
<polyline fill="none" stroke="black" points="132.29,-102 126.29,-102 "/>
<text text-anchor="middle" x="92.32" y="-86.4" font-family="Source Code Pro,monospace" font-size="12.00">formalstream</text>
</a>
</g>
</g>
<!-- range -->
<g id="node2" class="node">
<title>range</title>
<g id="a_node2"><a xlink:href="PsyllaReference_Types.xhtml#PsyllaReference_Types_Details_range" xlink:title="range" target="_parent">
<polygon fill="wheat" stroke="black" points="113.32,-36 65.32,-36 65.32,0 119.32,0 119.32,-30 113.32,-36"/>
<polyline fill="none" stroke="black" points="113.32,-36 113.32,-30 "/>
<polyline fill="none" stroke="black" points="119.32,-30 113.32,-30 "/>
<text text-anchor="middle" x="92.32" y="-14.4" font-family="Source Code Pro,monospace" font-size="12.00">range</text>
</a>
</g>
</g>
<!-- formalstream&#45;&gt;range -->
<g id="edge1" class="edge">
<title>formalstream&#45;&gt;range</title>
<path fill="none" stroke="black" d="M92.32,-71.7C92.32,-63.98 92.32,-54.71 92.32,-46.11"/>
<polygon fill="black" stroke="black" points="95.82,-46.1 92.32,-36.1 88.82,-46.1 95.82,-46.1"/>
</g>
<!-- streamable -->
<g id="node3" class="node">
<title>streamable</title>
<g id="a_node3"><a xlink:href="PsyllaReference_Types.xhtml#PsyllaReference_Types_Details_streamable" xlink:title="streamable" target="_parent">
<polygon fill="linen" stroke="black" points="196.3,-180 134.35,-180 134.35,-144 202.3,-144 202.3,-174 196.3,-180"/>
<polyline fill="none" stroke="black" points="196.3,-180 196.3,-174 "/>
<polyline fill="none" stroke="black" points="202.3,-174 196.3,-174 "/>
<text text-anchor="middle" x="168.32" y="-158.4" font-family="Source Code Pro,monospace" font-size="12.00">streamable</text>
</a>
</g>
</g>
<!-- streamable&#45;&gt;formalstream -->
<g id="edge2" class="edge">
<title>streamable&#45;&gt;formalstream</title>
<path fill="none" stroke="black" d="M149.54,-143.7C140.15,-135.05 128.64,-124.45 118.41,-115.03"/>
<polygon fill="black" stroke="black" points="120.62,-112.3 110.89,-108.1 115.88,-117.45 120.62,-112.3"/>
</g>
<!-- closeable -->
<g id="node4" class="node">
<title>closeable</title>
<g id="a_node4"><a xlink:href="PsyllaReference_Types.xhtml#PsyllaReference_Types_Details_closeable" xlink:title="closeable" target="_parent">
<polygon fill="linen" stroke="black" points="54.47,-180 0.18,-180 0.18,-144 60.47,-144 60.47,-174 54.47,-180"/>
<polyline fill="none" stroke="black" points="54.47,-180 54.47,-174 "/>
<polyline fill="none" stroke="black" points="60.47,-174 54.47,-174 "/>
<text text-anchor="middle" x="30.32" y="-158.4" font-family="Source Code Pro,monospace" font-size="12.00">closeable</text>
</a>
</g>
</g>
<!-- closeable&#45;&gt;formalstream -->
<g id="edge3" class="edge">
<title>closeable&#45;&gt;formalstream</title>
<path fill="none" stroke="black" d="M45.65,-143.7C53.08,-135.3 62.15,-125.07 70.3,-115.86"/>
<polygon fill="black" stroke="black" points="73.16,-117.91 77.17,-108.1 67.92,-113.27 73.16,-117.91"/>
</g>
<!-- concatenable -->
<g id="node5" class="node">
<title>concatenable</title>
<g id="a_node5"><a xlink:href="PsyllaReference_Types.xhtml#PsyllaReference_Types_Details_concatenable" xlink:title="concatenable" target="_parent">
<polygon fill="linen" stroke="black" points="125.45,-252 53.19,-252 53.19,-216 131.45,-216 131.45,-246 125.45,-252"/>
<polyline fill="none" stroke="black" points="125.45,-252 125.45,-246 "/>
<polyline fill="none" stroke="black" points="131.45,-246 125.45,-246 "/>
<text text-anchor="middle" x="92.32" y="-230.4" font-family="Source Code Pro,monospace" font-size="12.00">concatenable</text>
</a>
</g>
</g>
<!-- concatenable&#45;&gt;formalstream -->
<g id="edge4" class="edge">
<title>concatenable&#45;&gt;formalstream</title>
<path fill="none" stroke="black" d="M92.32,-215.87C92.32,-191.67 92.32,-147.21 92.32,-118.39"/>
<polygon fill="black" stroke="black" points="95.82,-118.19 92.32,-108.19 88.82,-118.19 95.82,-118.19"/>
</g>
<!-- sequential -->
<g id="node6" class="node">
<title>sequential</title>
<g id="a_node6"><a xlink:href="PsyllaReference_Types.xhtml#PsyllaReference_Types_Details_sequential" xlink:title="sequential" target="_parent">
<polygon fill="linen" stroke="black" points="208.47,-252 150.17,-252 150.17,-216 214.47,-216 214.47,-246 208.47,-252"/>
<polyline fill="none" stroke="black" points="208.47,-252 208.47,-246 "/>
<polyline fill="none" stroke="black" points="214.47,-246 208.47,-246 "/>
<text text-anchor="middle" x="182.32" y="-230.4" font-family="Source Code Pro,monospace" font-size="12.00">sequential</text>
</a>
</g>
</g>
<!-- sequential&#45;&gt;streamable -->
<g id="edge5" class="edge">
<title>sequential&#45;&gt;streamable</title>
<path fill="none" stroke="black" d="M178.86,-215.7C177.32,-207.98 175.46,-198.71 173.74,-190.11"/>
<polygon fill="black" stroke="black" points="177.14,-189.22 171.74,-180.1 170.27,-190.6 177.14,-189.22"/>
</g>
<!-- object -->
<g id="node7" class="node">
<title>object</title>
<g id="a_node7"><a xlink:href="PsyllaReference_Types.xhtml#PsyllaReference_Types_Details_object" xlink:title="object" target="_parent">
<polygon fill="linen" stroke="black" points="113.32,-324 65.32,-324 65.32,-288 119.32,-288 119.32,-318 113.32,-324"/>
<polyline fill="none" stroke="black" points="113.32,-324 113.32,-318 "/>
<polyline fill="none" stroke="black" points="119.32,-318 113.32,-318 "/>
<text text-anchor="middle" x="92.32" y="-302.4" font-family="Source Code Pro,monospace" font-size="12.00">object</text>
</a>
</g>
</g>
<!-- object&#45;&gt;closeable -->
<g id="edge6" class="edge">
<title>object&#45;&gt;closeable</title>
<path fill="none" stroke="black" d="M72.01,-287.87C62.06,-278.34 50.85,-265.66 44.32,-252 35.12,-232.74 31.75,-208.73 30.61,-190.5"/>
<polygon fill="black" stroke="black" points="34.09,-190.09 30.16,-180.25 27.1,-190.4 34.09,-190.09"/>
</g>
<!-- object&#45;&gt;concatenable -->
<g id="edge7" class="edge">
<title>object&#45;&gt;concatenable</title>
<path fill="none" stroke="black" d="M92.32,-287.7C92.32,-279.98 92.32,-270.71 92.32,-262.11"/>
<polygon fill="black" stroke="black" points="95.82,-262.1 92.32,-252.1 88.82,-262.1 95.82,-262.1"/>
</g>
<!-- object&#45;&gt;sequential -->
<g id="edge8" class="edge">
<title>object&#45;&gt;sequential</title>
<path fill="none" stroke="black" d="M114.57,-287.7C125.9,-278.88 139.85,-268.03 152.14,-258.47"/>
<polygon fill="black" stroke="black" points="154.59,-261.01 160.33,-252.1 150.29,-255.48 154.59,-261.01"/>
</g>
</g>
</svg>
