<?xml version="1.0" encoding="UTF-8" standalone="no"?>
<!DOCTYPE svg PUBLIC "-//W3C//DTD SVG 1.1//EN"
 "http://www.w3.org/Graphics/SVG/1.1/DTD/svg11.dtd">
<!-- Generated by graphviz version 2.49.3 (0)
 -->
<!-- Title: sequential Pages: 1 -->
<svg width="73pt" height="116pt"
 viewBox="0.00 0.00 72.65 116.00" xmlns="http://www.w3.org/2000/svg" xmlns:xlink="http://www.w3.org/1999/xlink">
<g id="graph0" class="graph" transform="scale(1 1) rotate(0) translate(4 112)">
<title>sequential</title>
<polygon fill="transparent" stroke="transparent" points="-4,4 -4,-112 68.65,-112 68.65,4 -4,4"/>
<!-- object -->
<g id="node1" class="node">
<title>object</title>
<g id="a_node1"><a xlink:href="PsyllaReference_Types.xhtml#PsyllaReference_Types_Details_object" xlink:title="object" target="_parent">
<polygon fill="linen" stroke="black" points="53.33,-108 5.33,-108 5.33,-72 59.33,-72 59.33,-102 53.33,-108"/>
<polyline fill="none" stroke="black" points="53.33,-108 53.33,-102 "/>
<polyline fill="none" stroke="black" points="59.33,-102 53.33,-102 "/>
<text text-anchor="middle" x="32.33" y="-86.4" font-family="Source Code Pro,monospace" font-size="12.00">object</text>
</a>
</g>
</g>
<!-- sequential -->
<g id="node2" class="node">
<title>sequential</title>
<g id="a_node2"><a xlink:href="PsyllaReference_Types.xhtml#PsyllaReference_Types_Details_sequential" xlink:title="sequential" target="_parent">
<polygon fill="wheat" stroke="black" points="58.48,-36 0.17,-36 0.17,0 64.48,0 64.48,-30 58.48,-36"/>
<polyline fill="none" stroke="black" points="58.48,-36 58.48,-30 "/>
<polyline fill="none" stroke="black" points="64.48,-30 58.48,-30 "/>
<text text-anchor="middle" x="32.33" y="-14.4" font-family="Source Code Pro,monospace" font-size="12.00">sequential</text>
</a>
</g>
</g>
<!-- object&#45;&gt;sequential -->
<g id="edge1" class="edge">
<title>object&#45;&gt;sequential</title>
<path fill="none" stroke="black" d="M32.33,-71.7C32.33,-63.98 32.33,-54.71 32.33,-46.11"/>
<polygon fill="black" stroke="black" points="35.83,-46.1 32.33,-36.1 28.83,-46.1 35.83,-46.1"/>
</g>
</g>
</svg>
