<?xml version="1.0" encoding="UTF-8" standalone="no"?>
<!DOCTYPE svg PUBLIC "-//W3C//DTD SVG 1.1//EN"
 "http://www.w3.org/Graphics/SVG/1.1/DTD/svg11.dtd">
<!-- Generated by graphviz version 2.43.0 (0)
 -->
<!-- Title: textual Pages: 1 -->
<svg width="539pt" height="332pt"
 viewBox="0.00 0.00 539.00 332.00" xmlns="http://www.w3.org/2000/svg" xmlns:xlink="http://www.w3.org/1999/xlink">
<g id="graph0" class="graph" transform="scale(1 1) rotate(0) translate(4 328)">
<title>textual</title>
<polygon fill="transparent" stroke="transparent" points="-4,4 -4,-328 535,-328 535,4 -4,4"/>
<!-- evaluable -->
<g id="node1" class="node">
<title>evaluable</title>
<g id="a_node1"><a xlink:href="PsyllaReference_Types.xhtml#PsyllaReference_Types_Details_evaluable" xlink:title="evaluable" target="_parent">
<polygon fill="linen" stroke="black" points="78,-180 0,-180 0,-144 84,-144 84,-174 78,-180"/>
<polyline fill="none" stroke="black" points="78,-180 78,-174 "/>
<polyline fill="none" stroke="black" points="84,-174 78,-174 "/>
<text text-anchor="middle" x="42" y="-158.9" font-family="Source Code Pro,monospace" font-size="12.00">evaluable</text>
</a>
</g>
</g>
<!-- textual -->
<g id="node7" class="node">
<title>textual</title>
<g id="a_node7"><a xlink:href="PsyllaReference_Types.xhtml#PsyllaReference_Types_Details_textual" xlink:title="textual" target="_parent">
<polygon fill="wheat" stroke="black" points="323.5,-36 260.5,-36 260.5,0 329.5,0 329.5,-30 323.5,-36"/>
<polyline fill="none" stroke="black" points="323.5,-36 323.5,-30 "/>
<polyline fill="none" stroke="black" points="329.5,-30 323.5,-30 "/>
<text text-anchor="middle" x="295" y="-14.9" font-family="Source Code Pro,monospace" font-size="12.00">textual</text>
</a>
</g>
</g>
<!-- evaluable&#45;&gt;textual -->
<g id="edge1" class="edge">
<title>evaluable&#45;&gt;textual</title>
<path fill="none" stroke="black" d="M40.37,-143.75C39.49,-123.73 41.37,-91.05 60,-72 86.05,-45.36 189.7,-30.13 250.29,-23.33"/>
<polygon fill="black" stroke="black" points="250.79,-26.8 260.35,-22.23 250.03,-19.84 250.79,-26.8"/>
</g>
<!-- convertabletointeger -->
<g id="node2" class="node">
<title>convertabletointeger</title>
<g id="a_node2"><a xlink:href="PsyllaReference_Types.xhtml#PsyllaReference_Types_Details_convertabletointeger" xlink:title="convertabletointeger" target="_parent">
<polygon fill="linen" stroke="black" points="230.5,-108 69.5,-108 69.5,-72 236.5,-72 236.5,-102 230.5,-108"/>
<polyline fill="none" stroke="black" points="230.5,-108 230.5,-102 "/>
<polyline fill="none" stroke="black" points="236.5,-102 230.5,-102 "/>
<text text-anchor="middle" x="153" y="-86.9" font-family="Source Code Pro,monospace" font-size="12.00">convertabletointeger</text>
</a>
</g>
</g>
<!-- convertabletointeger&#45;&gt;textual -->
<g id="edge2" class="edge">
<title>convertabletointeger&#45;&gt;textual</title>
<path fill="none" stroke="black" d="M187.74,-71.88C206.82,-62.47 230.68,-50.71 251.05,-40.67"/>
<polygon fill="black" stroke="black" points="252.71,-43.75 260.13,-36.19 249.61,-37.47 252.71,-43.75"/>
</g>
<!-- convertabletointegral -->
<g id="node3" class="node">
<title>convertabletointegral</title>
<g id="a_node3"><a xlink:href="PsyllaReference_Types.xhtml#PsyllaReference_Types_Details_convertabletointegral" xlink:title="convertabletointegral" target="_parent">
<polygon fill="linen" stroke="black" points="308,-180 140,-180 140,-144 314,-144 314,-174 308,-180"/>
<polyline fill="none" stroke="black" points="308,-180 308,-174 "/>
<polyline fill="none" stroke="black" points="314,-174 308,-174 "/>
<text text-anchor="middle" x="227" y="-158.9" font-family="Source Code Pro,monospace" font-size="12.00">convertabletointegral</text>
</a>
</g>
</g>
<!-- convertabletointegral&#45;&gt;textual -->
<g id="edge3" class="edge">
<title>convertabletointegral&#45;&gt;textual</title>
<path fill="none" stroke="black" d="M235.2,-143.87C246.94,-119.35 268.65,-74.03 282.43,-45.26"/>
<polygon fill="black" stroke="black" points="285.61,-46.72 286.77,-36.19 279.29,-43.7 285.61,-46.72"/>
</g>
<!-- iterable -->
<g id="node4" class="node">
<title>iterable</title>
<g id="a_node4"><a xlink:href="PsyllaReference_Types.xhtml#PsyllaReference_Types_Details_iterable" xlink:title="iterable" target="_parent">
<polygon fill="linen" stroke="black" points="498.5,-108 427.5,-108 427.5,-72 504.5,-72 504.5,-102 498.5,-108"/>
<polyline fill="none" stroke="black" points="498.5,-108 498.5,-102 "/>
<polyline fill="none" stroke="black" points="504.5,-102 498.5,-102 "/>
<text text-anchor="middle" x="466" y="-86.9" font-family="Source Code Pro,monospace" font-size="12.00">iterable</text>
</a>
</g>
</g>
<!-- iterable&#45;&gt;textual -->
<g id="edge4" class="edge">
<title>iterable&#45;&gt;textual</title>
<path fill="none" stroke="black" d="M427.2,-73.12C400.93,-62.36 366.18,-48.14 338.9,-36.97"/>
<polygon fill="black" stroke="black" points="340.17,-33.71 329.59,-33.16 337.52,-40.19 340.17,-33.71"/>
</g>
<!-- lengthy -->
<g id="node5" class="node">
<title>lengthy</title>
<g id="a_node5"><a xlink:href="PsyllaReference_Types.xhtml#PsyllaReference_Types_Details_lengthy" xlink:title="lengthy" target="_parent">
<polygon fill="linen" stroke="black" points="355.5,-108 292.5,-108 292.5,-72 361.5,-72 361.5,-102 355.5,-108"/>
<polyline fill="none" stroke="black" points="355.5,-108 355.5,-102 "/>
<polyline fill="none" stroke="black" points="361.5,-102 355.5,-102 "/>
<text text-anchor="middle" x="327" y="-86.9" font-family="Source Code Pro,monospace" font-size="12.00">lengthy</text>
</a>
</g>
</g>
<!-- lengthy&#45;&gt;textual -->
<g id="edge5" class="edge">
<title>lengthy&#45;&gt;textual</title>
<path fill="none" stroke="black" d="M319.09,-71.7C315.45,-63.73 311.05,-54.1 307.01,-45.26"/>
<polygon fill="black" stroke="black" points="310.16,-43.74 302.82,-36.1 303.79,-46.65 310.16,-43.74"/>
</g>
<!-- scalar -->
<g id="node6" class="node">
<title>scalar</title>
<g id="a_node6"><a xlink:href="PsyllaReference_Types.xhtml#PsyllaReference_Types_Details_scalar" xlink:title="scalar" target="_parent">
<polygon fill="linen" stroke="black" points="415,-252 359,-252 359,-216 421,-216 421,-246 415,-252"/>
<polyline fill="none" stroke="black" points="415,-252 415,-246 "/>
<polyline fill="none" stroke="black" points="421,-246 415,-246 "/>
<text text-anchor="middle" x="390" y="-230.9" font-family="Source Code Pro,monospace" font-size="12.00">scalar</text>
</a>
</g>
</g>
<!-- scalar&#45;&gt;textual -->
<g id="edge6" class="edge">
<title>scalar&#45;&gt;textual</title>
<path fill="none" stroke="black" d="M392.18,-215.57C395.19,-184.36 397.5,-117.91 370,-72 362.42,-59.34 350.52,-48.91 338.41,-40.75"/>
<polygon fill="black" stroke="black" points="339.95,-37.58 329.62,-35.21 336.21,-43.5 339.95,-37.58"/>
</g>
<!-- object -->
<g id="node8" class="node">
<title>object</title>
<g id="a_node8"><a xlink:href="PsyllaReference_Types.xhtml#PsyllaReference_Types_Details_object" xlink:title="object" target="_parent">
<polygon fill="linen" stroke="black" points="330,-324 274,-324 274,-288 336,-288 336,-318 330,-324"/>
<polyline fill="none" stroke="black" points="330,-324 330,-318 "/>
<polyline fill="none" stroke="black" points="336,-318 330,-318 "/>
<text text-anchor="middle" x="305" y="-302.9" font-family="Source Code Pro,monospace" font-size="12.00">object</text>
</a>
</g>
</g>
<!-- object&#45;&gt;evaluable -->
<g id="edge7" class="edge">
<title>object&#45;&gt;evaluable</title>
<path fill="none" stroke="black" d="M273.92,-304.07C230.59,-301.33 151.36,-290.9 98,-252 76.45,-236.29 61.26,-209.53 52.19,-189.44"/>
<polygon fill="black" stroke="black" points="55.38,-188.01 48.22,-180.19 48.95,-190.76 55.38,-188.01"/>
</g>
<!-- object&#45;&gt;convertabletointeger -->
<g id="edge8" class="edge">
<title>object&#45;&gt;convertabletointeger</title>
<path fill="none" stroke="black" d="M273.75,-293.22C232.32,-275.7 160.96,-238.41 131,-180 120.86,-160.22 128.33,-135.54 137.21,-117.18"/>
<polygon fill="black" stroke="black" points="140.37,-118.71 141.9,-108.22 134.16,-115.46 140.37,-118.71"/>
</g>
<!-- object&#45;&gt;convertabletointegral -->
<g id="edge9" class="edge">
<title>object&#45;&gt;convertabletointegral</title>
<path fill="none" stroke="black" d="M295.59,-287.87C282.12,-263.35 257.23,-218.03 241.42,-189.26"/>
<polygon fill="black" stroke="black" points="244.32,-187.27 236.44,-180.19 238.19,-190.64 244.32,-187.27"/>
</g>
<!-- object&#45;&gt;lengthy -->
<g id="edge11" class="edge">
<title>object&#45;&gt;lengthy</title>
<path fill="none" stroke="black" d="M308.04,-287.67C312.15,-263.6 319.36,-218.64 323,-180 324.95,-159.34 325.95,-135.89 326.47,-118.25"/>
<polygon fill="black" stroke="black" points="329.97,-118.18 326.73,-108.1 322.97,-118 329.97,-118.18"/>
</g>
<!-- object&#45;&gt;scalar -->
<g id="edge12" class="edge">
<title>object&#45;&gt;scalar</title>
<path fill="none" stroke="black" d="M326.01,-287.7C336.72,-278.88 349.89,-268.03 361.5,-258.47"/>
<polygon fill="black" stroke="black" points="363.74,-261.16 369.23,-252.1 359.29,-255.76 363.74,-261.16"/>
</g>
<!-- sequential -->
<g id="node10" class="node">
<title>sequential</title>
<g id="a_node10"><a xlink:href="PsyllaReference_Types.xhtml#PsyllaReference_Types_Details_sequential" xlink:title="sequential" target="_parent">
<polygon fill="linen" stroke="black" points="525,-252 439,-252 439,-216 531,-216 531,-246 525,-252"/>
<polyline fill="none" stroke="black" points="525,-252 525,-246 "/>
<polyline fill="none" stroke="black" points="531,-246 525,-246 "/>
<text text-anchor="middle" x="485" y="-230.9" font-family="Source Code Pro,monospace" font-size="12.00">sequential</text>
</a>
</g>
</g>
<!-- object&#45;&gt;sequential -->
<g id="edge14" class="edge">
<title>object&#45;&gt;sequential</title>
<path fill="none" stroke="black" d="M336.35,-292.81C362.64,-282.58 400.76,-267.76 431.81,-255.69"/>
<polygon fill="black" stroke="black" points="433.15,-258.92 441.2,-252.03 430.61,-252.4 433.15,-258.92"/>
</g>
<!-- streamable -->
<g id="node9" class="node">
<title>streamable</title>
<g id="a_node9"><a xlink:href="PsyllaReference_Types.xhtml#PsyllaReference_Types_Details_streamable" xlink:title="streamable" target="_parent">
<polygon fill="linen" stroke="black" points="515,-180 429,-180 429,-144 521,-144 521,-174 515,-180"/>
<polyline fill="none" stroke="black" points="515,-180 515,-174 "/>
<polyline fill="none" stroke="black" points="521,-174 515,-174 "/>
<text text-anchor="middle" x="475" y="-158.9" font-family="Source Code Pro,monospace" font-size="12.00">streamable</text>
</a>
</g>
</g>
<!-- streamable&#45;&gt;iterable -->
<g id="edge10" class="edge">
<title>streamable&#45;&gt;iterable</title>
<path fill="none" stroke="black" d="M472.78,-143.7C471.78,-135.98 470.59,-126.71 469.49,-118.11"/>
<polygon fill="black" stroke="black" points="472.95,-117.58 468.2,-108.1 466,-118.47 472.95,-117.58"/>
</g>
<!-- sequential&#45;&gt;streamable -->
<g id="edge13" class="edge">
<title>sequential&#45;&gt;streamable</title>
<path fill="none" stroke="black" d="M482.53,-215.7C481.43,-207.98 480.1,-198.71 478.87,-190.11"/>
<polygon fill="black" stroke="black" points="482.32,-189.51 477.44,-180.1 475.39,-190.5 482.32,-189.51"/>
</g>
</g>
</svg>
