<?xml version="1.0" encoding="UTF-8" standalone="no"?>
<!DOCTYPE svg PUBLIC "-//W3C//DTD SVG 1.1//EN"
 "http://www.w3.org/Graphics/SVG/1.1/DTD/svg11.dtd">
<!-- Generated by graphviz version 14.0.0 (0)
 -->
<!-- Title: input Pages: 1 -->
<svg width="234pt" height="260pt"
 viewBox="0.00 0.00 234.00 260.00" xmlns="http://www.w3.org/2000/svg" xmlns:xlink="http://www.w3.org/1999/xlink">
<g id="graph0" class="graph" transform="scale(1 1) rotate(0) translate(4 256)">
<title>input</title>
<polygon fill="none" stroke="none" points="-4,4 -4,-256 229.64,-256 229.64,4 -4,4"/>
<!-- closeable -->
<g id="node1" class="node">
<title>closeable</title>
<g id="a_node1"><a xlink:href="PsyllaReference_Types.xhtml#PsyllaReference_Types_Details_closeable" xlink:title="closeable" target="_parent">
<polygon fill="linen" stroke="black" points="54.64,-108 0,-108 0,-72 60.64,-72 60.64,-102 54.64,-108"/>
<polyline fill="none" stroke="black" points="54.64,-108 54.64,-102"/>
<polyline fill="none" stroke="black" points="60.64,-102 54.64,-102"/>
<text xml:space="preserve" text-anchor="middle" x="30.32" y="-86.4" font-family="Source Code Pro,monospace" font-size="12.00">closeable</text>
</a>
</g>
</g>
<!-- input -->
<g id="node5" class="node">
<title>input</title>
<g id="a_node5"><a xlink:href="PsyllaReference_Types.xhtml#PsyllaReference_Types_Details_input" xlink:title="input" target="_parent">
<polygon fill="wheat" stroke="black" points="156.32,-36 108.32,-36 108.32,0 162.32,0 162.32,-30 156.32,-36"/>
<polyline fill="none" stroke="black" points="156.32,-36 156.32,-30"/>
<polyline fill="none" stroke="black" points="162.32,-30 156.32,-30"/>
<text xml:space="preserve" text-anchor="middle" x="135.32" y="-14.4" font-family="Source Code Pro,monospace" font-size="12.00">input</text>
</a>
</g>
</g>
<!-- closeable&#45;&gt;input -->
<g id="edge1" class="edge">
<title>closeable&#45;&gt;input</title>
<path fill="none" stroke="black" d="M56.55,-71.52C69.67,-62.76 85.76,-52.04 99.96,-42.58"/>
<polygon fill="black" stroke="black" points="101.79,-45.56 108.17,-37.1 97.91,-39.73 101.79,-45.56"/>
</g>
<!-- readable -->
<g id="node2" class="node">
<title>readable</title>
<g id="a_node2"><a xlink:href="PsyllaReference_Types.xhtml#PsyllaReference_Types_Details_readable" xlink:title="readable" target="_parent">
<polygon fill="linen" stroke="black" points="129.64,-108 79,-108 79,-72 135.64,-72 135.64,-102 129.64,-108"/>
<polyline fill="none" stroke="black" points="129.64,-108 129.64,-102"/>
<polyline fill="none" stroke="black" points="135.64,-102 129.64,-102"/>
<text xml:space="preserve" text-anchor="middle" x="107.32" y="-86.4" font-family="Source Code Pro,monospace" font-size="12.00">readable</text>
</a>
</g>
</g>
<!-- readable&#45;&gt;input -->
<g id="edge2" class="edge">
<title>readable&#45;&gt;input</title>
<path fill="none" stroke="black" d="M114.24,-71.7C117.26,-64.15 120.87,-55.12 124.25,-46.68"/>
<polygon fill="black" stroke="black" points="127.45,-48.09 127.92,-37.51 120.95,-45.49 127.45,-48.09"/>
</g>
<!-- ready -->
<g id="node3" class="node">
<title>ready</title>
<g id="a_node3"><a xlink:href="PsyllaReference_Types.xhtml#PsyllaReference_Types_Details_ready" xlink:title="ready" target="_parent">
<polygon fill="linen" stroke="black" points="133.32,-180 85.32,-180 85.32,-144 139.32,-144 139.32,-174 133.32,-180"/>
<polyline fill="none" stroke="black" points="133.32,-180 133.32,-174"/>
<polyline fill="none" stroke="black" points="139.32,-174 133.32,-174"/>
<text xml:space="preserve" text-anchor="middle" x="112.32" y="-158.4" font-family="Source Code Pro,monospace" font-size="12.00">ready</text>
</a>
</g>
</g>
<!-- ready&#45;&gt;readable -->
<g id="edge6" class="edge">
<title>ready&#45;&gt;readable</title>
<path fill="none" stroke="black" d="M111.09,-143.7C110.56,-136.41 109.94,-127.73 109.36,-119.54"/>
<polygon fill="black" stroke="black" points="112.85,-119.34 108.65,-109.61 105.87,-119.84 112.85,-119.34"/>
</g>
<!-- ready&#45;&gt;input -->
<g id="edge3" class="edge">
<title>ready&#45;&gt;input</title>
<path fill="none" stroke="black" d="M125.89,-143.97C132.88,-134.09 140.69,-121.05 144.32,-108 149.83,-88.21 147.25,-65.12 143.46,-47.41"/>
<polygon fill="black" stroke="black" points="146.9,-46.76 141.16,-37.85 140.1,-48.4 146.9,-46.76"/>
</g>
<!-- resetable -->
<g id="node4" class="node">
<title>resetable</title>
<g id="a_node4"><a xlink:href="PsyllaReference_Types.xhtml#PsyllaReference_Types_Details_resetable" xlink:title="resetable" target="_parent">
<polygon fill="linen" stroke="black" points="219.64,-180 167,-180 167,-144 225.64,-144 225.64,-174 219.64,-180"/>
<polyline fill="none" stroke="black" points="219.64,-180 219.64,-174"/>
<polyline fill="none" stroke="black" points="225.64,-174 219.64,-174"/>
<text xml:space="preserve" text-anchor="middle" x="196.32" y="-158.4" font-family="Source Code Pro,monospace" font-size="12.00">resetable</text>
</a>
</g>
</g>
<!-- resetable&#45;&gt;input -->
<g id="edge4" class="edge">
<title>resetable&#45;&gt;input</title>
<path fill="none" stroke="black" d="M189.7,-143.82C182.69,-125.81 171.15,-96.74 160.32,-72 156.63,-63.58 152.43,-54.49 148.54,-46.27"/>
<polygon fill="black" stroke="black" points="151.79,-44.95 144.33,-37.44 145.48,-47.97 151.79,-44.95"/>
</g>
<!-- object -->
<g id="node6" class="node">
<title>object</title>
<g id="a_node6"><a xlink:href="PsyllaReference_Types.xhtml#PsyllaReference_Types_Details_object" xlink:title="object" target="_parent">
<polygon fill="linen" stroke="black" points="133.32,-252 85.32,-252 85.32,-216 139.32,-216 139.32,-246 133.32,-252"/>
<polyline fill="none" stroke="black" points="133.32,-252 133.32,-246"/>
<polyline fill="none" stroke="black" points="139.32,-246 133.32,-246"/>
<text xml:space="preserve" text-anchor="middle" x="112.32" y="-230.4" font-family="Source Code Pro,monospace" font-size="12.00">object</text>
</a>
</g>
</g>
<!-- object&#45;&gt;closeable -->
<g id="edge5" class="edge">
<title>object&#45;&gt;closeable</title>
<path fill="none" stroke="black" d="M99.78,-215.68C92.6,-205.48 83.6,-192.23 76.32,-180 64.39,-159.95 52.33,-136.47 43.55,-118.67"/>
<polygon fill="black" stroke="black" points="46.74,-117.21 39.21,-109.75 40.44,-120.28 46.74,-117.21"/>
</g>
<!-- object&#45;&gt;ready -->
<g id="edge7" class="edge">
<title>object&#45;&gt;ready</title>
<path fill="none" stroke="black" d="M112.32,-215.7C112.32,-208.41 112.32,-199.73 112.32,-191.54"/>
<polygon fill="black" stroke="black" points="115.82,-191.62 112.32,-181.62 108.82,-191.62 115.82,-191.62"/>
</g>
<!-- object&#45;&gt;resetable -->
<g id="edge8" class="edge">
<title>object&#45;&gt;resetable</title>
<path fill="none" stroke="black" d="M133.09,-215.7C143.28,-207.2 155.75,-196.81 166.9,-187.51"/>
<polygon fill="black" stroke="black" points="168.9,-190.41 174.34,-181.32 164.42,-185.03 168.9,-190.41"/>
</g>
</g>
</svg>
