<?xml version="1.0" encoding="UTF-8" standalone="no"?>
<!DOCTYPE svg PUBLIC "-//W3C//DTD SVG 1.1//EN"
 "http://www.w3.org/Graphics/SVG/1.1/DTD/svg11.dtd">
<!-- Generated by graphviz version 2.43.0 (0)
 -->
<!-- Title: appendable Pages: 1 -->
<svg width="100pt" height="116pt"
 viewBox="0.00 0.00 100.00 116.00" xmlns="http://www.w3.org/2000/svg" xmlns:xlink="http://www.w3.org/1999/xlink">
<g id="graph0" class="graph" transform="scale(1 1) rotate(0) translate(4 112)">
<title>appendable</title>
<polygon fill="transparent" stroke="transparent" points="-4,4 -4,-112 96,-112 96,4 -4,4"/>
<!-- object -->
<g id="node1" class="node">
<title>object</title>
<g id="a_node1"><a xlink:href="PsyllaReference_Types.xhtml#PsyllaReference_Types_Details_object" xlink:title="object" target="_parent">
<polygon fill="linen" stroke="black" points="71,-108 15,-108 15,-72 77,-72 77,-102 71,-108"/>
<polyline fill="none" stroke="black" points="71,-108 71,-102 "/>
<polyline fill="none" stroke="black" points="77,-102 71,-102 "/>
<text text-anchor="middle" x="46" y="-86.9" font-family="PT Mono, monospace" font-size="12.00">object</text>
</a>
</g>
</g>
<!-- appendable -->
<g id="node2" class="node">
<title>appendable</title>
<g id="a_node2"><a xlink:href="PsyllaReference_Types.xhtml#PsyllaReference_Types_Details_appendable" xlink:title="appendable" target="_parent">
<polygon fill="wheat" stroke="black" points="86,-36 0,-36 0,0 92,0 92,-30 86,-36"/>
<polyline fill="none" stroke="black" points="86,-36 86,-30 "/>
<polyline fill="none" stroke="black" points="92,-30 86,-30 "/>
<text text-anchor="middle" x="46" y="-14.9" font-family="PT Mono, monospace" font-size="12.00">appendable</text>
</a>
</g>
</g>
<!-- object&#45;&gt;appendable -->
<g id="edge1" class="edge">
<title>object&#45;&gt;appendable</title>
<path fill="none" stroke="black" d="M46,-71.7C46,-63.98 46,-54.71 46,-46.11"/>
<polygon fill="black" stroke="black" points="49.5,-46.1 46,-36.1 42.5,-46.1 49.5,-46.1"/>
</g>
</g>
</svg>
