<?xml version="1.0" encoding="UTF-8" standalone="no"?>
<!DOCTYPE svg PUBLIC "-//W3C//DTD SVG 1.1//EN"
 "http://www.w3.org/Graphics/SVG/1.1/DTD/svg11.dtd">
<!-- Generated by graphviz version 14.0.0 (0)
 -->
<!-- Title: bitarray Pages: 1 -->
<svg width="429pt" height="476pt"
 viewBox="0.00 0.00 429.00 476.00" xmlns="http://www.w3.org/2000/svg" xmlns:xlink="http://www.w3.org/1999/xlink">
<g id="graph0" class="graph" transform="scale(1 1) rotate(0) translate(4 472)">
<title>bitarray</title>
<polygon fill="none" stroke="none" points="-4,4 -4,-472 425,-472 425,4 -4,4"/>
<!-- formalarray -->
<g id="node1" class="node">
<title>formalarray</title>
<g id="a_node1"><a xlink:href="PsyllaReference_Types.xhtml#PsyllaReference_Types_Details_formalarray" xlink:title="formalarray" target="_parent">
<polygon fill="linen" stroke="black" points="174.32,-108 107.68,-108 107.68,-72 180.32,-72 180.32,-102 174.32,-108"/>
<polyline fill="none" stroke="black" points="174.32,-108 174.32,-102"/>
<polyline fill="none" stroke="black" points="180.32,-102 174.32,-102"/>
<text xml:space="preserve" text-anchor="middle" x="144" y="-86.4" font-family="Source Code Pro,monospace" font-size="12.00">formalarray</text>
</a>
</g>
</g>
<!-- bitarray -->
<g id="node3" class="node">
<title>bitarray</title>
<g id="a_node3"><a xlink:href="PsyllaReference_Types.xhtml#PsyllaReference_Types_Details_bitarray" xlink:title="bitarray" target="_parent">
<polygon fill="wheat" stroke="black" points="205,-36 157,-36 157,0 211,0 211,-30 205,-36"/>
<polyline fill="none" stroke="black" points="205,-36 205,-30"/>
<polyline fill="none" stroke="black" points="211,-30 205,-30"/>
<text xml:space="preserve" text-anchor="middle" x="184" y="-14.4" font-family="Source Code Pro,monospace" font-size="12.00">bitarray</text>
</a>
</g>
</g>
<!-- formalarray&#45;&gt;bitarray -->
<g id="edge1" class="edge">
<title>formalarray&#45;&gt;bitarray</title>
<path fill="none" stroke="black" d="M153.89,-71.7C158.34,-63.9 163.71,-54.51 168.67,-45.83"/>
<polygon fill="black" stroke="black" points="171.55,-47.84 173.48,-37.42 165.47,-44.36 171.55,-47.84"/>
</g>
<!-- bitwise -->
<g id="node2" class="node">
<title>bitwise</title>
<g id="a_node2"><a xlink:href="PsyllaReference_Types.xhtml#PsyllaReference_Types_Details_bitwise" xlink:title="bitwise" target="_parent">
<polygon fill="linen" stroke="black" points="327,-108 279,-108 279,-72 333,-72 333,-102 327,-108"/>
<polyline fill="none" stroke="black" points="327,-108 327,-102"/>
<polyline fill="none" stroke="black" points="333,-102 327,-102"/>
<text xml:space="preserve" text-anchor="middle" x="306" y="-86.4" font-family="Source Code Pro,monospace" font-size="12.00">bitwise</text>
</a>
</g>
</g>
<!-- bitwise&#45;&gt;bitarray -->
<g id="edge2" class="edge">
<title>bitwise&#45;&gt;bitarray</title>
<path fill="none" stroke="black" d="M278.62,-73.29C261.67,-63.56 239.68,-50.95 221.16,-40.32"/>
<polygon fill="black" stroke="black" points="223.02,-37.35 212.6,-35.41 219.53,-43.42 223.02,-37.35"/>
</g>
<!-- appendable -->
<g id="node4" class="node">
<title>appendable</title>
<g id="a_node4"><a xlink:href="PsyllaReference_Types.xhtml#PsyllaReference_Types_Details_appendable" xlink:title="appendable" target="_parent">
<polygon fill="linen" stroke="black" points="110.32,-252 45.68,-252 45.68,-216 116.32,-216 116.32,-246 110.32,-252"/>
<polyline fill="none" stroke="black" points="110.32,-252 110.32,-246"/>
<polyline fill="none" stroke="black" points="116.32,-246 110.32,-246"/>
<text xml:space="preserve" text-anchor="middle" x="81" y="-230.4" font-family="Source Code Pro,monospace" font-size="12.00">appendable</text>
</a>
</g>
</g>
<!-- appendable&#45;&gt;formalarray -->
<g id="edge3" class="edge">
<title>appendable&#45;&gt;formalarray</title>
<path fill="none" stroke="black" d="M88.73,-215.59C99.5,-191.29 119.17,-146.97 131.9,-118.27"/>
<polygon fill="black" stroke="black" points="134.94,-120.05 135.79,-109.49 128.54,-117.22 134.94,-120.05"/>
</g>
<!-- container -->
<g id="node5" class="node">
<title>container</title>
<g id="a_node5"><a xlink:href="PsyllaReference_Types.xhtml#PsyllaReference_Types_Details_container" xlink:title="container" target="_parent">
<polygon fill="linen" stroke="black" points="265.32,-180 210.68,-180 210.68,-144 271.32,-144 271.32,-174 265.32,-180"/>
<polyline fill="none" stroke="black" points="265.32,-180 265.32,-174"/>
<polyline fill="none" stroke="black" points="271.32,-174 265.32,-174"/>
<text xml:space="preserve" text-anchor="middle" x="241" y="-158.4" font-family="Source Code Pro,monospace" font-size="12.00">container</text>
</a>
</g>
</g>
<!-- container&#45;&gt;formalarray -->
<g id="edge4" class="edge">
<title>container&#45;&gt;formalarray</title>
<path fill="none" stroke="black" d="M217.02,-143.7C205.01,-135.03 190.28,-124.4 177.21,-114.96"/>
<polygon fill="black" stroke="black" points="179.42,-112.25 169.27,-109.23 175.33,-117.92 179.42,-112.25"/>
</g>
<!-- indexed -->
<g id="node6" class="node">
<title>indexed</title>
<g id="a_node6"><a xlink:href="PsyllaReference_Types.xhtml#PsyllaReference_Types_Details_indexed" xlink:title="indexed" target="_parent">
<polygon fill="linen" stroke="black" points="48,-180 0,-180 0,-144 54,-144 54,-174 48,-180"/>
<polyline fill="none" stroke="black" points="48,-180 48,-174"/>
<polyline fill="none" stroke="black" points="54,-174 48,-174"/>
<text xml:space="preserve" text-anchor="middle" x="27" y="-158.4" font-family="Source Code Pro,monospace" font-size="12.00">indexed</text>
</a>
</g>
</g>
<!-- indexed&#45;&gt;formalarray -->
<g id="edge5" class="edge">
<title>indexed&#45;&gt;formalarray</title>
<path fill="none" stroke="black" d="M54.43,-144.59C69.68,-135.47 88.89,-123.97 105.6,-113.97"/>
<polygon fill="black" stroke="black" points="107.02,-117.2 113.81,-109.06 103.43,-111.19 107.02,-117.2"/>
</g>
<!-- sequential -->
<g id="node7" class="node">
<title>sequential</title>
<g id="a_node7"><a xlink:href="PsyllaReference_Types.xhtml#PsyllaReference_Types_Details_sequential" xlink:title="sequential" target="_parent">
<polygon fill="linen" stroke="black" points="225.33,-396 166.67,-396 166.67,-360 231.33,-360 231.33,-390 225.33,-396"/>
<polyline fill="none" stroke="black" points="225.33,-396 225.33,-390"/>
<polyline fill="none" stroke="black" points="231.33,-390 225.33,-390"/>
<text xml:space="preserve" text-anchor="middle" x="199" y="-374.4" font-family="Source Code Pro,monospace" font-size="12.00">sequential</text>
</a>
</g>
</g>
<!-- sequential&#45;&gt;formalarray -->
<g id="edge6" class="edge">
<title>sequential&#45;&gt;formalarray</title>
<path fill="none" stroke="black" d="M180.25,-359.73C171.19,-350.16 161.18,-337.5 156,-324 129.34,-254.55 134.76,-164.82 139.95,-119.66"/>
<polygon fill="black" stroke="black" points="143.4,-120.27 141.16,-109.92 136.45,-119.41 143.4,-120.27"/>
</g>
<!-- streamable -->
<g id="node13" class="node">
<title>streamable</title>
<g id="a_node13"><a xlink:href="PsyllaReference_Types.xhtml#PsyllaReference_Types_Details_streamable" xlink:title="streamable" target="_parent">
<polygon fill="linen" stroke="black" points="226.99,-324 165.01,-324 165.01,-288 232.99,-288 232.99,-318 226.99,-324"/>
<polyline fill="none" stroke="black" points="226.99,-324 226.99,-318"/>
<polyline fill="none" stroke="black" points="232.99,-318 226.99,-318"/>
<text xml:space="preserve" text-anchor="middle" x="199" y="-302.4" font-family="Source Code Pro,monospace" font-size="12.00">streamable</text>
</a>
</g>
</g>
<!-- sequential&#45;&gt;streamable -->
<g id="edge18" class="edge">
<title>sequential&#45;&gt;streamable</title>
<path fill="none" stroke="black" d="M199,-359.7C199,-352.41 199,-343.73 199,-335.54"/>
<polygon fill="black" stroke="black" points="202.5,-335.62 199,-325.62 195.5,-335.62 202.5,-335.62"/>
</g>
<!-- logical -->
<g id="node8" class="node">
<title>logical</title>
<g id="a_node8"><a xlink:href="PsyllaReference_Types.xhtml#PsyllaReference_Types_Details_logical" xlink:title="logical" target="_parent">
<polygon fill="linen" stroke="black" points="415,-396 367,-396 367,-360 421,-360 421,-390 415,-396"/>
<polyline fill="none" stroke="black" points="415,-396 415,-390"/>
<polyline fill="none" stroke="black" points="421,-390 415,-390"/>
<text xml:space="preserve" text-anchor="middle" x="394" y="-374.4" font-family="Source Code Pro,monospace" font-size="12.00">logical</text>
</a>
</g>
</g>
<!-- logical&#45;&gt;bitwise -->
<g id="edge7" class="edge">
<title>logical&#45;&gt;bitwise</title>
<path fill="none" stroke="black" d="M393.08,-359.67C391.11,-329.73 385.25,-266.64 369,-216 357.63,-180.57 337.32,-142.8 322.84,-118.17"/>
<polygon fill="black" stroke="black" points="325.94,-116.54 317.81,-109.76 319.94,-120.14 325.94,-116.54"/>
</g>
<!-- object -->
<g id="node9" class="node">
<title>object</title>
<g id="a_node9"><a xlink:href="PsyllaReference_Types.xhtml#PsyllaReference_Types_Details_object" xlink:title="object" target="_parent">
<polygon fill="linen" stroke="black" points="261,-468 213,-468 213,-432 267,-432 267,-462 261,-468"/>
<polyline fill="none" stroke="black" points="261,-468 261,-462"/>
<polyline fill="none" stroke="black" points="267,-462 261,-462"/>
<text xml:space="preserve" text-anchor="middle" x="240" y="-446.4" font-family="Source Code Pro,monospace" font-size="12.00">object</text>
</a>
</g>
</g>
<!-- object&#45;&gt;appendable -->
<g id="edge8" class="edge">
<title>object&#45;&gt;appendable</title>
<path fill="none" stroke="black" d="M212.53,-436.15C195.14,-426.93 173.17,-413.13 158,-396 122.75,-356.19 100.16,-297.41 89.1,-262.98"/>
<polygon fill="black" stroke="black" points="92.54,-262.26 86.23,-253.74 85.85,-264.33 92.54,-262.26"/>
</g>
<!-- object&#45;&gt;indexed -->
<g id="edge12" class="edge">
<title>object&#45;&gt;indexed</title>
<path fill="none" stroke="black" d="M212.91,-440.84C188.8,-432.54 153.64,-417.78 129,-396 72.1,-345.7 62.34,-323.59 37,-252 30.13,-232.59 27.69,-209.44 26.94,-191.62"/>
<polygon fill="black" stroke="black" points="30.44,-191.67 26.69,-181.76 23.44,-191.84 30.44,-191.67"/>
</g>
<!-- object&#45;&gt;sequential -->
<g id="edge13" class="edge">
<title>object&#45;&gt;sequential</title>
<path fill="none" stroke="black" d="M229.87,-431.7C225.3,-423.9 219.8,-414.51 214.71,-405.83"/>
<polygon fill="black" stroke="black" points="217.86,-404.27 209.78,-397.41 211.82,-407.81 217.86,-404.27"/>
</g>
<!-- object&#45;&gt;logical -->
<g id="edge14" class="edge">
<title>object&#45;&gt;logical</title>
<path fill="none" stroke="black" d="M267.18,-436.65C291.88,-425.42 328.56,-408.75 356.13,-396.21"/>
<polygon fill="black" stroke="black" points="357.54,-399.42 365.2,-392.09 354.65,-393.04 357.54,-399.42"/>
</g>
<!-- clearable -->
<g id="node10" class="node">
<title>clearable</title>
<g id="a_node10"><a xlink:href="PsyllaReference_Types.xhtml#PsyllaReference_Types_Details_clearable" xlink:title="clearable" target="_parent">
<polygon fill="linen" stroke="black" points="304.65,-324 251.35,-324 251.35,-288 310.65,-288 310.65,-318 304.65,-324"/>
<polyline fill="none" stroke="black" points="304.65,-324 304.65,-318"/>
<polyline fill="none" stroke="black" points="310.65,-318 304.65,-318"/>
<text xml:space="preserve" text-anchor="middle" x="281" y="-302.4" font-family="Source Code Pro,monospace" font-size="12.00">clearable</text>
</a>
</g>
</g>
<!-- object&#45;&gt;clearable -->
<g id="edge15" class="edge">
<title>object&#45;&gt;clearable</title>
<path fill="none" stroke="black" d="M245.03,-431.59C251.98,-407.5 264.61,-363.75 272.91,-335.03"/>
<polygon fill="black" stroke="black" points="276.23,-336.14 275.64,-325.57 269.5,-334.2 276.23,-336.14"/>
</g>
<!-- lengthy -->
<g id="node12" class="node">
<title>lengthy</title>
<g id="a_node12"><a xlink:href="PsyllaReference_Types.xhtml#PsyllaReference_Types_Details_lengthy" xlink:title="lengthy" target="_parent">
<polygon fill="linen" stroke="black" points="354,-252 306,-252 306,-216 360,-216 360,-246 354,-252"/>
<polyline fill="none" stroke="black" points="354,-252 354,-246"/>
<polyline fill="none" stroke="black" points="360,-246 354,-246"/>
<text xml:space="preserve" text-anchor="middle" x="333" y="-230.4" font-family="Source Code Pro,monospace" font-size="12.00">lengthy</text>
</a>
</g>
</g>
<!-- object&#45;&gt;lengthy -->
<g id="edge17" class="edge">
<title>object&#45;&gt;lengthy</title>
<path fill="none" stroke="black" d="M254.61,-431.69C273.14,-408.71 304.55,-366.09 320,-324 327.13,-304.59 330.36,-281.44 331.82,-263.62"/>
<polygon fill="black" stroke="black" points="335.3,-263.96 332.47,-253.75 328.32,-263.5 335.3,-263.96"/>
</g>
<!-- clearable&#45;&gt;container -->
<g id="edge9" class="edge">
<title>clearable&#45;&gt;container</title>
<path fill="none" stroke="black" d="M276.1,-287.59C269.31,-263.5 256.99,-219.75 248.9,-191.03"/>
<polygon fill="black" stroke="black" points="252.31,-190.24 246.23,-181.57 245.57,-192.14 252.31,-190.24"/>
</g>
<!-- iterable -->
<g id="node11" class="node">
<title>iterable</title>
<g id="a_node11"><a xlink:href="PsyllaReference_Types.xhtml#PsyllaReference_Types_Details_iterable" xlink:title="iterable" target="_parent">
<polygon fill="linen" stroke="black" points="232,-252 184,-252 184,-216 238,-216 238,-246 232,-252"/>
<polyline fill="none" stroke="black" points="232,-252 232,-246"/>
<polyline fill="none" stroke="black" points="238,-246 232,-246"/>
<text xml:space="preserve" text-anchor="middle" x="211" y="-230.4" font-family="Source Code Pro,monospace" font-size="12.00">iterable</text>
</a>
</g>
</g>
<!-- iterable&#45;&gt;container -->
<g id="edge10" class="edge">
<title>iterable&#45;&gt;container</title>
<path fill="none" stroke="black" d="M218.42,-215.7C221.65,-208.15 225.52,-199.12 229.14,-190.68"/>
<polygon fill="black" stroke="black" points="232.35,-192.07 233.07,-181.5 225.92,-189.31 232.35,-192.07"/>
</g>
<!-- lengthy&#45;&gt;container -->
<g id="edge11" class="edge">
<title>lengthy&#45;&gt;container</title>
<path fill="none" stroke="black" d="M310.26,-215.7C298.98,-207.11 285.17,-196.61 272.86,-187.24"/>
<polygon fill="black" stroke="black" points="275.08,-184.53 265,-181.26 270.84,-190.1 275.08,-184.53"/>
</g>
<!-- streamable&#45;&gt;iterable -->
<g id="edge16" class="edge">
<title>streamable&#45;&gt;iterable</title>
<path fill="none" stroke="black" d="M201.97,-287.7C203.23,-280.32 204.74,-271.52 206.16,-263.25"/>
<polygon fill="black" stroke="black" points="209.57,-264.04 207.81,-253.6 202.67,-262.86 209.57,-264.04"/>
</g>
</g>
</svg>
