<?xml version="1.0" encoding="UTF-8" standalone="no"?>
<!DOCTYPE svg PUBLIC "-//W3C//DTD SVG 1.1//EN"
 "http://www.w3.org/Graphics/SVG/1.1/DTD/svg11.dtd">
<!-- Generated by graphviz version 2.43.0 (0)
 -->
<!-- Title: blockingqueue Pages: 1 -->
<svg width="364pt" height="476pt"
 viewBox="0.00 0.00 364.00 476.00" xmlns="http://www.w3.org/2000/svg" xmlns:xlink="http://www.w3.org/1999/xlink">
<g id="graph0" class="graph" transform="scale(1 1) rotate(0) translate(4 472)">
<title>blockingqueue</title>
<polygon fill="transparent" stroke="transparent" points="-4,4 -4,-472 360,-472 360,4 -4,4"/>
<!-- formalqueue -->
<g id="node1" class="node">
<title>formalqueue</title>
<g id="a_node1"><a xlink:href="PsyllaReference_Types.xhtml#PsyllaReference_Types_Details_formalqueue" xlink:title="formalqueue" target="_parent">
<polygon fill="linen" stroke="black" points="175,-108 74,-108 74,-72 181,-72 181,-102 175,-108"/>
<polyline fill="none" stroke="black" points="175,-108 175,-102 "/>
<polyline fill="none" stroke="black" points="181,-102 175,-102 "/>
<text text-anchor="middle" x="127.5" y="-86.3" font-family="Consolas, monospace" font-size="14.00">formalqueue</text>
</a>
</g>
</g>
<!-- blockingqueue -->
<g id="node3" class="node">
<title>blockingqueue</title>
<g id="a_node3"><a xlink:href="PsyllaReference_Types.xhtml#PsyllaReference_Types_Details_blockingqueue" xlink:title="blockingqueue" target="_parent">
<polygon fill="wheat" stroke="black" points="142.5,-36 24.5,-36 24.5,0 148.5,0 148.5,-30 142.5,-36"/>
<polyline fill="none" stroke="black" points="142.5,-36 142.5,-30 "/>
<polyline fill="none" stroke="black" points="148.5,-30 142.5,-30 "/>
<text text-anchor="middle" x="86.5" y="-14.3" font-family="Consolas, monospace" font-size="14.00">blockingqueue</text>
</a>
</g>
</g>
<!-- formalqueue&#45;&gt;blockingqueue -->
<g id="edge1" class="edge">
<title>formalqueue&#45;&gt;blockingqueue</title>
<path fill="none" stroke="black" d="M117.37,-71.7C112.65,-63.64 106.94,-53.89 101.72,-44.98"/>
<polygon fill="black" stroke="black" points="104.59,-42.96 96.52,-36.1 98.55,-46.5 104.59,-42.96"/>
</g>
<!-- closeable -->
<g id="node2" class="node">
<title>closeable</title>
<g id="a_node2"><a xlink:href="PsyllaReference_Types.xhtml#PsyllaReference_Types_Details_closeable" xlink:title="closeable" target="_parent">
<polygon fill="linen" stroke="black" points="85,-324 0,-324 0,-288 91,-288 91,-318 85,-324"/>
<polyline fill="none" stroke="black" points="85,-324 85,-318 "/>
<polyline fill="none" stroke="black" points="91,-318 85,-318 "/>
<text text-anchor="middle" x="45.5" y="-302.3" font-family="Consolas, monospace" font-size="14.00">closeable</text>
</a>
</g>
</g>
<!-- closeable&#45;&gt;blockingqueue -->
<g id="edge2" class="edge">
<title>closeable&#45;&gt;blockingqueue</title>
<path fill="none" stroke="black" d="M45.09,-287.76C44.55,-248.73 45.41,-150.89 64.5,-72 66.66,-63.09 70.1,-53.74 73.64,-45.42"/>
<polygon fill="black" stroke="black" points="76.87,-46.76 77.75,-36.2 70.48,-43.91 76.87,-46.76"/>
</g>
<!-- bounded -->
<g id="node4" class="node">
<title>bounded</title>
<g id="a_node4"><a xlink:href="PsyllaReference_Types.xhtml#PsyllaReference_Types_Details_bounded" xlink:title="bounded" target="_parent">
<polygon fill="linen" stroke="black" points="145.5,-180 77.5,-180 77.5,-144 151.5,-144 151.5,-174 145.5,-180"/>
<polyline fill="none" stroke="black" points="145.5,-180 145.5,-174 "/>
<polyline fill="none" stroke="black" points="151.5,-174 145.5,-174 "/>
<text text-anchor="middle" x="114.5" y="-158.3" font-family="Consolas, monospace" font-size="14.00">bounded</text>
</a>
</g>
</g>
<!-- bounded&#45;&gt;formalqueue -->
<g id="edge3" class="edge">
<title>bounded&#45;&gt;formalqueue</title>
<path fill="none" stroke="black" d="M117.71,-143.7C119.15,-135.98 120.87,-126.71 122.46,-118.11"/>
<polygon fill="black" stroke="black" points="125.94,-118.58 124.32,-108.1 119.06,-117.3 125.94,-118.58"/>
</g>
<!-- container -->
<g id="node5" class="node">
<title>container</title>
<g id="a_node5"><a xlink:href="PsyllaReference_Types.xhtml#PsyllaReference_Types_Details_container" xlink:title="container" target="_parent">
<polygon fill="linen" stroke="black" points="255,-180 170,-180 170,-144 261,-144 261,-174 255,-180"/>
<polyline fill="none" stroke="black" points="255,-180 255,-174 "/>
<polyline fill="none" stroke="black" points="261,-174 255,-174 "/>
<text text-anchor="middle" x="215.5" y="-158.3" font-family="Consolas, monospace" font-size="14.00">container</text>
</a>
</g>
</g>
<!-- container&#45;&gt;formalqueue -->
<g id="edge4" class="edge">
<title>container&#45;&gt;formalqueue</title>
<path fill="none" stroke="black" d="M193.75,-143.7C182.66,-134.88 169.03,-124.03 157.01,-114.47"/>
<polygon fill="black" stroke="black" points="159.01,-111.59 149,-108.1 154.65,-117.07 159.01,-111.59"/>
</g>
<!-- object -->
<g id="node6" class="node">
<title>object</title>
<g id="a_node6"><a xlink:href="PsyllaReference_Types.xhtml#PsyllaReference_Types_Details_object" xlink:title="object" target="_parent">
<polygon fill="linen" stroke="black" points="183.5,-468 123.5,-468 123.5,-432 189.5,-432 189.5,-462 183.5,-468"/>
<polyline fill="none" stroke="black" points="183.5,-468 183.5,-462 "/>
<polyline fill="none" stroke="black" points="189.5,-462 183.5,-462 "/>
<text text-anchor="middle" x="156.5" y="-446.3" font-family="Consolas, monospace" font-size="14.00">object</text>
</a>
</g>
</g>
<!-- object&#45;&gt;closeable -->
<g id="edge5" class="edge">
<title>object&#45;&gt;closeable</title>
<path fill="none" stroke="black" d="M138.23,-431.56C128.13,-421.55 115.61,-408.51 105.5,-396 89.14,-375.76 72.78,-351.12 61.28,-332.9"/>
<polygon fill="black" stroke="black" points="64,-330.64 55.74,-324.01 58.06,-334.35 64,-330.64"/>
</g>
<!-- lengthy -->
<g id="node7" class="node">
<title>lengthy</title>
<g id="a_node7"><a xlink:href="PsyllaReference_Types.xhtml#PsyllaReference_Types_Details_lengthy" xlink:title="lengthy" target="_parent">
<polygon fill="linen" stroke="black" points="150.5,-252 82.5,-252 82.5,-216 156.5,-216 156.5,-246 150.5,-252"/>
<polyline fill="none" stroke="black" points="150.5,-252 150.5,-246 "/>
<polyline fill="none" stroke="black" points="156.5,-246 150.5,-246 "/>
<text text-anchor="middle" x="119.5" y="-230.3" font-family="Consolas, monospace" font-size="14.00">lengthy</text>
</a>
</g>
</g>
<!-- object&#45;&gt;lengthy -->
<g id="edge10" class="edge">
<title>object&#45;&gt;lengthy</title>
<path fill="none" stroke="black" d="M149.56,-431.6C145.74,-421.38 141.24,-408.13 138.5,-396 128.01,-349.63 123.09,-294.36 120.96,-262.12"/>
<polygon fill="black" stroke="black" points="124.45,-261.88 120.34,-252.12 117.46,-262.32 124.45,-261.88"/>
</g>
<!-- clearable -->
<g id="node8" class="node">
<title>clearable</title>
<g id="a_node8"><a xlink:href="PsyllaReference_Types.xhtml#PsyllaReference_Types_Details_clearable" xlink:title="clearable" target="_parent">
<polygon fill="linen" stroke="black" points="233,-396 148,-396 148,-360 239,-360 239,-390 233,-396"/>
<polyline fill="none" stroke="black" points="233,-396 233,-390 "/>
<polyline fill="none" stroke="black" points="239,-390 233,-390 "/>
<text text-anchor="middle" x="193.5" y="-374.3" font-family="Consolas, monospace" font-size="14.00">clearable</text>
</a>
</g>
</g>
<!-- object&#45;&gt;clearable -->
<g id="edge11" class="edge">
<title>object&#45;&gt;clearable</title>
<path fill="none" stroke="black" d="M165.65,-431.7C169.9,-423.64 175.06,-413.89 179.77,-404.98"/>
<polygon fill="black" stroke="black" points="182.88,-406.58 184.46,-396.1 176.69,-403.31 182.88,-406.58"/>
</g>
<!-- sequential -->
<g id="node11" class="node">
<title>sequential</title>
<g id="a_node11"><a xlink:href="PsyllaReference_Types.xhtml#PsyllaReference_Types_Details_sequential" xlink:title="sequential" target="_parent">
<polygon fill="linen" stroke="black" points="350,-396 257,-396 257,-360 356,-360 356,-390 350,-396"/>
<polyline fill="none" stroke="black" points="350,-396 350,-390 "/>
<polyline fill="none" stroke="black" points="356,-390 350,-390 "/>
<text text-anchor="middle" x="306.5" y="-374.3" font-family="Consolas, monospace" font-size="14.00">sequential</text>
</a>
</g>
</g>
<!-- object&#45;&gt;sequential -->
<g id="edge14" class="edge">
<title>object&#45;&gt;sequential</title>
<path fill="none" stroke="black" d="M189.79,-433.46C210.65,-423.73 237.83,-411.05 260.7,-400.37"/>
<polygon fill="black" stroke="black" points="262.31,-403.49 269.89,-396.09 259.34,-397.14 262.31,-403.49"/>
</g>
<!-- lengthy&#45;&gt;bounded -->
<g id="edge6" class="edge">
<title>lengthy&#45;&gt;bounded</title>
<path fill="none" stroke="black" d="M118.26,-215.7C117.71,-207.98 117.05,-198.71 116.44,-190.11"/>
<polygon fill="black" stroke="black" points="119.93,-189.83 115.72,-180.1 112.94,-190.33 119.93,-189.83"/>
</g>
<!-- lengthy&#45;&gt;container -->
<g id="edge9" class="edge">
<title>lengthy&#45;&gt;container</title>
<path fill="none" stroke="black" d="M143.23,-215.7C155.44,-206.8 170.49,-195.82 183.68,-186.2"/>
<polygon fill="black" stroke="black" points="186.02,-188.82 192.04,-180.1 181.9,-183.17 186.02,-188.82"/>
</g>
<!-- clearable&#45;&gt;container -->
<g id="edge7" class="edge">
<title>clearable&#45;&gt;container</title>
<path fill="none" stroke="black" d="M195.26,-359.85C199.07,-322.83 208.08,-235.18 212.68,-190.39"/>
<polygon fill="black" stroke="black" points="216.19,-190.54 213.73,-180.23 209.22,-189.82 216.19,-190.54"/>
</g>
<!-- iterable -->
<g id="node9" class="node">
<title>iterable</title>
<g id="a_node9"><a xlink:href="PsyllaReference_Types.xhtml#PsyllaReference_Types_Details_iterable" xlink:title="iterable" target="_parent">
<polygon fill="linen" stroke="black" points="319,-252 242,-252 242,-216 325,-216 325,-246 319,-252"/>
<polyline fill="none" stroke="black" points="319,-252 319,-246 "/>
<polyline fill="none" stroke="black" points="325,-246 319,-246 "/>
<text text-anchor="middle" x="283.5" y="-230.3" font-family="Consolas, monospace" font-size="14.00">iterable</text>
</a>
</g>
</g>
<!-- iterable&#45;&gt;container -->
<g id="edge8" class="edge">
<title>iterable&#45;&gt;container</title>
<path fill="none" stroke="black" d="M266.69,-215.7C258.37,-207.14 248.19,-196.66 239.11,-187.3"/>
<polygon fill="black" stroke="black" points="241.59,-184.84 232.12,-180.1 236.57,-189.72 241.59,-184.84"/>
</g>
<!-- streamable -->
<g id="node10" class="node">
<title>streamable</title>
<g id="a_node10"><a xlink:href="PsyllaReference_Types.xhtml#PsyllaReference_Types_Details_streamable" xlink:title="streamable" target="_parent">
<polygon fill="linen" stroke="black" points="337,-324 244,-324 244,-288 343,-288 343,-318 337,-324"/>
<polyline fill="none" stroke="black" points="337,-324 337,-318 "/>
<polyline fill="none" stroke="black" points="343,-318 337,-318 "/>
<text text-anchor="middle" x="293.5" y="-302.3" font-family="Consolas, monospace" font-size="14.00">streamable</text>
</a>
</g>
</g>
<!-- streamable&#45;&gt;iterable -->
<g id="edge12" class="edge">
<title>streamable&#45;&gt;iterable</title>
<path fill="none" stroke="black" d="M291.03,-287.7C289.93,-279.98 288.6,-270.71 287.37,-262.11"/>
<polygon fill="black" stroke="black" points="290.82,-261.51 285.94,-252.1 283.89,-262.5 290.82,-261.51"/>
</g>
<!-- sequential&#45;&gt;streamable -->
<g id="edge13" class="edge">
<title>sequential&#45;&gt;streamable</title>
<path fill="none" stroke="black" d="M303.29,-359.7C301.85,-351.98 300.13,-342.71 298.54,-334.11"/>
<polygon fill="black" stroke="black" points="301.94,-333.3 296.68,-324.1 295.06,-334.58 301.94,-333.3"/>
</g>
</g>
</svg>
