<?xml version="1.0" encoding="UTF-8" standalone="no"?>
<!DOCTYPE svg PUBLIC "-//W3C//DTD SVG 1.1//EN"
 "http://www.w3.org/Graphics/SVG/1.1/DTD/svg11.dtd">
<!-- Generated by graphviz version 14.0.0 (0)
 -->
<!-- Title: bigfraction Pages: 1 -->
<svg width="577pt" height="476pt"
 viewBox="0.00 0.00 577.00 476.00" xmlns="http://www.w3.org/2000/svg" xmlns:xlink="http://www.w3.org/1999/xlink">
<g id="graph0" class="graph" transform="scale(1 1) rotate(0) translate(4 472)">
<title>bigfraction</title>
<polygon fill="none" stroke="none" points="-4,4 -4,-472 572.63,-472 572.63,4 -4,4"/>
<!-- rational -->
<g id="node1" class="node">
<title>rational</title>
<g id="a_node1"><a xlink:href="PsyllaReference_Types.xhtml#PsyllaReference_Types_Details_rational" xlink:title="rational" target="_parent">
<polygon fill="linen" stroke="black" points="252.31,-108 204.31,-108 204.31,-72 258.31,-72 258.31,-102 252.31,-108"/>
<polyline fill="none" stroke="black" points="252.31,-108 252.31,-102"/>
<polyline fill="none" stroke="black" points="258.31,-102 252.31,-102"/>
<text xml:space="preserve" text-anchor="middle" x="231.31" y="-86.4" font-family="Source Code Pro,monospace" font-size="12.00">rational</text>
</a>
</g>
</g>
<!-- bigfraction -->
<g id="node2" class="node">
<title>bigfraction</title>
<g id="a_node2"><a xlink:href="PsyllaReference_Types.xhtml#PsyllaReference_Types_Details_bigfraction" xlink:title="bigfraction" target="_parent">
<polygon fill="wheat" stroke="black" points="259.63,-36 196.99,-36 196.99,0 265.63,0 265.63,-30 259.63,-36"/>
<polyline fill="none" stroke="black" points="259.63,-36 259.63,-30"/>
<polyline fill="none" stroke="black" points="265.63,-30 259.63,-30"/>
<text xml:space="preserve" text-anchor="middle" x="231.31" y="-14.4" font-family="Source Code Pro,monospace" font-size="12.00">bigfraction</text>
</a>
</g>
</g>
<!-- rational&#45;&gt;bigfraction -->
<g id="edge1" class="edge">
<title>rational&#45;&gt;bigfraction</title>
<path fill="none" stroke="black" d="M231.31,-71.7C231.31,-64.41 231.31,-55.73 231.31,-47.54"/>
<polygon fill="black" stroke="black" points="234.81,-47.62 231.31,-37.62 227.81,-47.62 234.81,-47.62"/>
</g>
<!-- realnumeric -->
<g id="node3" class="node">
<title>realnumeric</title>
<g id="a_node3"><a xlink:href="PsyllaReference_Types.xhtml#PsyllaReference_Types_Details_realnumeric" xlink:title="realnumeric" target="_parent">
<polygon fill="linen" stroke="black" points="261.96,-180 194.66,-180 194.66,-144 267.96,-144 267.96,-174 261.96,-180"/>
<polyline fill="none" stroke="black" points="261.96,-180 261.96,-174"/>
<polyline fill="none" stroke="black" points="267.96,-174 261.96,-174"/>
<text xml:space="preserve" text-anchor="middle" x="231.31" y="-158.4" font-family="Source Code Pro,monospace" font-size="12.00">realnumeric</text>
</a>
</g>
</g>
<!-- realnumeric&#45;&gt;rational -->
<g id="edge2" class="edge">
<title>realnumeric&#45;&gt;rational</title>
<path fill="none" stroke="black" d="M231.31,-143.7C231.31,-136.41 231.31,-127.73 231.31,-119.54"/>
<polygon fill="black" stroke="black" points="234.81,-119.62 231.31,-109.62 227.81,-119.62 234.81,-119.62"/>
</g>
<!-- numeric -->
<g id="node4" class="node">
<title>numeric</title>
<g id="a_node4"><a xlink:href="PsyllaReference_Types.xhtml#PsyllaReference_Types_Details_numeric" xlink:title="numeric" target="_parent">
<polygon fill="linen" stroke="black" points="389.97,-252 340.65,-252 340.65,-216 395.97,-216 395.97,-246 389.97,-252"/>
<polyline fill="none" stroke="black" points="389.97,-252 389.97,-246"/>
<polyline fill="none" stroke="black" points="395.97,-246 389.97,-246"/>
<text xml:space="preserve" text-anchor="middle" x="368.31" y="-230.4" font-family="Source Code Pro,monospace" font-size="12.00">numeric</text>
</a>
</g>
</g>
<!-- numeric&#45;&gt;realnumeric -->
<g id="edge3" class="edge">
<title>numeric&#45;&gt;realnumeric</title>
<path fill="none" stroke="black" d="M340.25,-218.67C321.55,-209.11 296.58,-196.35 275.27,-185.46"/>
<polygon fill="black" stroke="black" points="276.99,-182.41 266.49,-180.97 273.8,-188.64 276.99,-182.41"/>
</g>
<!-- convertabletointeger -->
<g id="node5" class="node">
<title>convertabletointeger</title>
<g id="a_node5"><a xlink:href="PsyllaReference_Types.xhtml#PsyllaReference_Types_Details_convertabletointeger" xlink:title="convertabletointeger" target="_parent">
<polygon fill="linen" stroke="black" points="108.62,-324 0,-324 0,-288 114.62,-288 114.62,-318 108.62,-324"/>
<polyline fill="none" stroke="black" points="108.62,-324 108.62,-318"/>
<polyline fill="none" stroke="black" points="114.62,-318 108.62,-318"/>
<text xml:space="preserve" text-anchor="middle" x="57.31" y="-302.4" font-family="Source Code Pro,monospace" font-size="12.00">convertabletointeger</text>
</a>
</g>
</g>
<!-- convertabletointeger&#45;&gt;realnumeric -->
<g id="edge4" class="edge">
<title>convertabletointeger&#45;&gt;realnumeric</title>
<path fill="none" stroke="black" d="M56.26,-287.72C56.01,-267.98 58.69,-235.85 76.31,-216 103.28,-185.61 148.41,-172.64 183.04,-167.1"/>
<polygon fill="black" stroke="black" points="183.43,-170.58 192.84,-165.71 182.45,-163.65 183.43,-170.58"/>
</g>
<!-- convertabletointegral -->
<g id="node6" class="node">
<title>convertabletointegral</title>
<g id="a_node6"><a xlink:href="PsyllaReference_Types.xhtml#PsyllaReference_Types_Details_convertabletointegral" xlink:title="convertabletointegral" target="_parent">
<polygon fill="linen" stroke="black" points="197.29,-252 85.33,-252 85.33,-216 203.29,-216 203.29,-246 197.29,-252"/>
<polyline fill="none" stroke="black" points="197.29,-252 197.29,-246"/>
<polyline fill="none" stroke="black" points="203.29,-246 197.29,-246"/>
<text xml:space="preserve" text-anchor="middle" x="144.31" y="-230.4" font-family="Source Code Pro,monospace" font-size="12.00">convertabletointegral</text>
</a>
</g>
</g>
<!-- convertabletointegral&#45;&gt;realnumeric -->
<g id="edge5" class="edge">
<title>convertabletointegral&#45;&gt;realnumeric</title>
<path fill="none" stroke="black" d="M165.82,-215.7C176.38,-207.2 189.29,-196.81 200.84,-187.51"/>
<polygon fill="black" stroke="black" points="202.97,-190.29 208.57,-181.3 198.59,-184.84 202.97,-190.29"/>
</g>
<!-- convertabletorational -->
<g id="node7" class="node">
<title>convertabletorational</title>
<g id="a_node7"><a xlink:href="PsyllaReference_Types.xhtml#PsyllaReference_Types_Details_convertabletorational" xlink:title="convertabletorational" target="_parent">
<polygon fill="linen" stroke="black" points="282.29,-324 170.33,-324 170.33,-288 288.29,-288 288.29,-318 282.29,-324"/>
<polyline fill="none" stroke="black" points="282.29,-324 282.29,-318"/>
<polyline fill="none" stroke="black" points="288.29,-318 282.29,-318"/>
<text xml:space="preserve" text-anchor="middle" x="229.31" y="-302.4" font-family="Source Code Pro,monospace" font-size="12.00">convertabletorational</text>
</a>
</g>
</g>
<!-- convertabletorational&#45;&gt;realnumeric -->
<g id="edge6" class="edge">
<title>convertabletorational&#45;&gt;realnumeric</title>
<path fill="none" stroke="black" d="M229.55,-287.59C229.89,-263.61 230.5,-220.14 230.91,-191.42"/>
<polygon fill="black" stroke="black" points="234.41,-191.67 231.05,-181.62 227.41,-191.57 234.41,-191.67"/>
</g>
<!-- scalar -->
<g id="node8" class="node">
<title>scalar</title>
<g id="a_node8"><a xlink:href="PsyllaReference_Types.xhtml#PsyllaReference_Types_Details_scalar" xlink:title="scalar" target="_parent">
<polygon fill="linen" stroke="black" points="313.31,-252 265.31,-252 265.31,-216 319.31,-216 319.31,-246 313.31,-252"/>
<polyline fill="none" stroke="black" points="313.31,-252 313.31,-246"/>
<polyline fill="none" stroke="black" points="319.31,-246 313.31,-246"/>
<text xml:space="preserve" text-anchor="middle" x="292.31" y="-230.4" font-family="Source Code Pro,monospace" font-size="12.00">scalar</text>
</a>
</g>
</g>
<!-- scalar&#45;&gt;realnumeric -->
<g id="edge7" class="edge">
<title>scalar&#45;&gt;realnumeric</title>
<path fill="none" stroke="black" d="M277.23,-215.7C270.14,-207.56 261.54,-197.69 253.71,-188.7"/>
<polygon fill="black" stroke="black" points="256.42,-186.49 247.21,-181.25 251.14,-191.08 256.42,-186.49"/>
</g>
<!-- arithmetic -->
<g id="node9" class="node">
<title>arithmetic</title>
<g id="a_node9"><a xlink:href="PsyllaReference_Types.xhtml#PsyllaReference_Types_Details_arithmetic" xlink:title="arithmetic" target="_parent">
<polygon fill="linen" stroke="black" points="466.63,-324 407.99,-324 407.99,-288 472.63,-288 472.63,-318 466.63,-324"/>
<polyline fill="none" stroke="black" points="466.63,-324 466.63,-318"/>
<polyline fill="none" stroke="black" points="472.63,-318 466.63,-318"/>
<text xml:space="preserve" text-anchor="middle" x="440.31" y="-302.4" font-family="Source Code Pro,monospace" font-size="12.00">arithmetic</text>
</a>
</g>
</g>
<!-- arithmetic&#45;&gt;numeric -->
<g id="edge8" class="edge">
<title>arithmetic&#45;&gt;numeric</title>
<path fill="none" stroke="black" d="M422.51,-287.7C414.03,-279.45 403.72,-269.43 394.38,-260.35"/>
<polygon fill="black" stroke="black" points="396.85,-257.86 387.24,-253.4 391.97,-262.88 396.85,-257.86"/>
</g>
<!-- value -->
<g id="node10" class="node">
<title>value</title>
<g id="a_node10"><a xlink:href="PsyllaReference_Types.xhtml#PsyllaReference_Types_Details_value" xlink:title="value" target="_parent">
<polygon fill="linen" stroke="black" points="389.31,-396 341.31,-396 341.31,-360 395.31,-360 395.31,-390 389.31,-396"/>
<polyline fill="none" stroke="black" points="389.31,-396 389.31,-390"/>
<polyline fill="none" stroke="black" points="395.31,-390 389.31,-390"/>
<text xml:space="preserve" text-anchor="middle" x="368.31" y="-374.4" font-family="Source Code Pro,monospace" font-size="12.00">value</text>
</a>
</g>
</g>
<!-- value&#45;&gt;numeric -->
<g id="edge9" class="edge">
<title>value&#45;&gt;numeric</title>
<path fill="none" stroke="black" d="M368.31,-359.59C368.31,-335.61 368.31,-292.14 368.31,-263.42"/>
<polygon fill="black" stroke="black" points="371.81,-263.62 368.31,-253.62 364.81,-263.62 371.81,-263.62"/>
</g>
<!-- object -->
<g id="node11" class="node">
<title>object</title>
<g id="a_node11"><a xlink:href="PsyllaReference_Types.xhtml#PsyllaReference_Types_Details_object" xlink:title="object" target="_parent">
<polygon fill="linen" stroke="black" points="334.31,-468 286.31,-468 286.31,-432 340.31,-432 340.31,-462 334.31,-468"/>
<polyline fill="none" stroke="black" points="334.31,-468 334.31,-462"/>
<polyline fill="none" stroke="black" points="340.31,-462 334.31,-462"/>
<text xml:space="preserve" text-anchor="middle" x="313.31" y="-446.4" font-family="Source Code Pro,monospace" font-size="12.00">object</text>
</a>
</g>
</g>
<!-- object&#45;&gt;convertabletointeger -->
<g id="edge10" class="edge">
<title>object&#45;&gt;convertabletointeger</title>
<path fill="none" stroke="black" d="M286.03,-446.43C247.9,-441.73 177.78,-429 128.31,-396 104.64,-380.22 85.15,-354.05 72.61,-334.17"/>
<polygon fill="black" stroke="black" points="75.67,-332.46 67.49,-325.72 69.69,-336.09 75.67,-332.46"/>
</g>
<!-- object&#45;&gt;convertabletointegral -->
<g id="edge11" class="edge">
<title>object&#45;&gt;convertabletointegral</title>
<path fill="none" stroke="black" d="M285.85,-434.48C250.97,-414.5 191.65,-375.12 161.31,-324 150.49,-305.78 146.35,-282.09 144.86,-263.73"/>
<polygon fill="black" stroke="black" points="148.36,-263.58 144.29,-253.79 141.37,-263.98 148.36,-263.58"/>
</g>
<!-- object&#45;&gt;convertabletorational -->
<g id="edge12" class="edge">
<title>object&#45;&gt;convertabletorational</title>
<path fill="none" stroke="black" d="M303.01,-431.59C288.57,-407.18 262.19,-362.58 245.22,-333.89"/>
<polygon fill="black" stroke="black" points="248.31,-332.24 240.2,-325.41 242.28,-335.8 248.31,-332.24"/>
</g>
<!-- object&#45;&gt;scalar -->
<g id="edge13" class="edge">
<title>object&#45;&gt;scalar</title>
<path fill="none" stroke="black" d="M311.63,-431.85C308.02,-395.14 299.54,-308.66 295.11,-263.53"/>
<polygon fill="black" stroke="black" points="298.61,-263.35 294.15,-253.74 291.64,-264.03 298.61,-263.35"/>
</g>
<!-- object&#45;&gt;value -->
<g id="edge16" class="edge">
<title>object&#45;&gt;value</title>
<path fill="none" stroke="black" d="M326.91,-431.7C333.23,-423.64 340.89,-413.89 347.89,-404.98"/>
<polygon fill="black" stroke="black" points="350.51,-407.32 353.94,-397.29 345,-403 350.51,-407.32"/>
</g>
<!-- additive -->
<g id="node12" class="node">
<title>additive</title>
<g id="a_node12"><a xlink:href="PsyllaReference_Types.xhtml#PsyllaReference_Types_Details_additive" xlink:title="additive" target="_parent">
<polygon fill="linen" stroke="black" points="461.64,-396 412.98,-396 412.98,-360 467.64,-360 467.64,-390 461.64,-396"/>
<polyline fill="none" stroke="black" points="461.64,-396 461.64,-390"/>
<polyline fill="none" stroke="black" points="467.64,-390 461.64,-390"/>
<text xml:space="preserve" text-anchor="middle" x="440.31" y="-374.4" font-family="Source Code Pro,monospace" font-size="12.00">additive</text>
</a>
</g>
</g>
<!-- object&#45;&gt;additive -->
<g id="edge17" class="edge">
<title>object&#45;&gt;additive</title>
<path fill="none" stroke="black" d="M340.55,-433.98C358.68,-423.99 382.73,-410.74 402.67,-399.75"/>
<polygon fill="black" stroke="black" points="404.28,-402.86 411.35,-394.96 400.9,-396.73 404.28,-402.86"/>
</g>
<!-- multiplicative -->
<g id="node13" class="node">
<title>multiplicative</title>
<g id="a_node13"><a xlink:href="PsyllaReference_Types.xhtml#PsyllaReference_Types_Details_multiplicative" xlink:title="multiplicative" target="_parent">
<polygon fill="linen" stroke="black" points="562.63,-396 485.98,-396 485.98,-360 568.63,-360 568.63,-390 562.63,-396"/>
<polyline fill="none" stroke="black" points="562.63,-396 562.63,-390"/>
<polyline fill="none" stroke="black" points="568.63,-390 562.63,-390"/>
<text xml:space="preserve" text-anchor="middle" x="527.31" y="-374.4" font-family="Source Code Pro,monospace" font-size="12.00">multiplicative</text>
</a>
</g>
</g>
<!-- object&#45;&gt;multiplicative -->
<g id="edge18" class="edge">
<title>object&#45;&gt;multiplicative</title>
<path fill="none" stroke="black" d="M340.73,-440.15C371.11,-430.33 421.83,-413.9 474.92,-396.44"/>
<polygon fill="black" stroke="black" points="475.73,-399.87 484.13,-393.41 473.54,-393.22 475.73,-399.87"/>
</g>
<!-- additive&#45;&gt;arithmetic -->
<g id="edge14" class="edge">
<title>additive&#45;&gt;arithmetic</title>
<path fill="none" stroke="black" d="M440.31,-359.7C440.31,-352.41 440.31,-343.73 440.31,-335.54"/>
<polygon fill="black" stroke="black" points="443.81,-335.62 440.31,-325.62 436.81,-335.62 443.81,-335.62"/>
</g>
<!-- multiplicative&#45;&gt;arithmetic -->
<g id="edge15" class="edge">
<title>multiplicative&#45;&gt;arithmetic</title>
<path fill="none" stroke="black" d="M505.8,-359.7C495.24,-351.2 482.33,-340.81 470.78,-331.51"/>
<polygon fill="black" stroke="black" points="473.03,-328.84 463.05,-325.3 468.65,-334.29 473.03,-328.84"/>
</g>
</g>
</svg>
