<?xml version="1.0" encoding="UTF-8" standalone="no"?>
<!DOCTYPE svg PUBLIC "-//W3C//DTD SVG 1.1//EN"
 "http://www.w3.org/Graphics/SVG/1.1/DTD/svg11.dtd">
<!-- Generated by graphviz version 2.49.3 (0)
 -->
<!-- Title: module Pages: 1 -->
<svg width="312pt" height="548pt"
 viewBox="0.00 0.00 312.00 548.00" xmlns="http://www.w3.org/2000/svg" xmlns:xlink="http://www.w3.org/1999/xlink">
<g id="graph0" class="graph" transform="scale(1 1) rotate(0) translate(4 544)">
<title>module</title>
<polygon fill="transparent" stroke="transparent" points="-4,4 -4,-544 308,-544 308,4 -4,4"/>
<!-- dict -->
<g id="node1" class="node">
<title>dict</title>
<g id="a_node1"><a xlink:href="PsyllaReference_Types.xhtml#PsyllaReference_Types_Details_dict" xlink:title="dict" target="_parent">
<polygon fill="linen" stroke="black" points="103,-108 55,-108 55,-72 109,-72 109,-102 103,-108"/>
<polyline fill="none" stroke="black" points="103,-108 103,-102 "/>
<polyline fill="none" stroke="black" points="109,-102 103,-102 "/>
<text text-anchor="middle" x="82" y="-86.4" font-family="Source Code Pro,monospace" font-size="12.00">dict</text>
</a>
</g>
</g>
<!-- module -->
<g id="node2" class="node">
<title>module</title>
<g id="a_node2"><a xlink:href="PsyllaReference_Types.xhtml#PsyllaReference_Types_Details_module" xlink:title="module" target="_parent">
<polygon fill="wheat" stroke="black" points="103,-36 55,-36 55,0 109,0 109,-30 103,-36"/>
<polyline fill="none" stroke="black" points="103,-36 103,-30 "/>
<polyline fill="none" stroke="black" points="109,-30 103,-30 "/>
<text text-anchor="middle" x="82" y="-14.4" font-family="Source Code Pro,monospace" font-size="12.00">module</text>
</a>
</g>
</g>
<!-- dict&#45;&gt;module -->
<g id="edge1" class="edge">
<title>dict&#45;&gt;module</title>
<path fill="none" stroke="black" d="M82,-71.7C82,-63.98 82,-54.71 82,-46.11"/>
<polygon fill="black" stroke="black" points="85.5,-46.1 82,-36.1 78.5,-46.1 85.5,-46.1"/>
</g>
<!-- formaldict -->
<g id="node3" class="node">
<title>formaldict</title>
<g id="a_node3"><a xlink:href="PsyllaReference_Types.xhtml#PsyllaReference_Types_Details_formaldict" xlink:title="formaldict" target="_parent">
<polygon fill="linen" stroke="black" points="108.98,-180 49.02,-180 49.02,-144 114.98,-144 114.98,-174 108.98,-180"/>
<polyline fill="none" stroke="black" points="108.98,-180 108.98,-174 "/>
<polyline fill="none" stroke="black" points="114.98,-174 108.98,-174 "/>
<text text-anchor="middle" x="82" y="-158.4" font-family="Source Code Pro,monospace" font-size="12.00">formaldict</text>
</a>
</g>
</g>
<!-- formaldict&#45;&gt;dict -->
<g id="edge2" class="edge">
<title>formaldict&#45;&gt;dict</title>
<path fill="none" stroke="black" d="M82,-143.7C82,-135.98 82,-126.71 82,-118.11"/>
<polygon fill="black" stroke="black" points="85.5,-118.1 82,-108.1 78.5,-118.1 85.5,-118.1"/>
</g>
<!-- container -->
<g id="node4" class="node">
<title>container</title>
<g id="a_node4"><a xlink:href="PsyllaReference_Types.xhtml#PsyllaReference_Types_Details_container" xlink:title="container" target="_parent">
<polygon fill="linen" stroke="black" points="212.15,-252 157.85,-252 157.85,-216 218.15,-216 218.15,-246 212.15,-252"/>
<polyline fill="none" stroke="black" points="212.15,-252 212.15,-246 "/>
<polyline fill="none" stroke="black" points="218.15,-246 212.15,-246 "/>
<text text-anchor="middle" x="188" y="-230.4" font-family="Source Code Pro,monospace" font-size="12.00">container</text>
</a>
</g>
</g>
<!-- container&#45;&gt;formaldict -->
<g id="edge3" class="edge">
<title>container&#45;&gt;formaldict</title>
<path fill="none" stroke="black" d="M162.07,-215.88C148.34,-206.81 131.29,-195.55 116.46,-185.76"/>
<polygon fill="black" stroke="black" points="118.3,-182.78 108.03,-180.19 114.45,-188.62 118.3,-182.78"/>
</g>
<!-- indexed -->
<g id="node5" class="node">
<title>indexed</title>
<g id="a_node5"><a xlink:href="PsyllaReference_Types.xhtml#PsyllaReference_Types_Details_indexed" xlink:title="indexed" target="_parent">
<polygon fill="linen" stroke="black" points="48,-324 0,-324 0,-288 54,-288 54,-318 48,-324"/>
<polyline fill="none" stroke="black" points="48,-324 48,-318 "/>
<polyline fill="none" stroke="black" points="54,-318 48,-318 "/>
<text text-anchor="middle" x="27" y="-302.4" font-family="Source Code Pro,monospace" font-size="12.00">indexed</text>
</a>
</g>
</g>
<!-- indexed&#45;&gt;formaldict -->
<g id="edge4" class="edge">
<title>indexed&#45;&gt;formaldict</title>
<path fill="none" stroke="black" d="M33.63,-287.87C43.09,-263.46 60.53,-218.43 71.68,-189.64"/>
<polygon fill="black" stroke="black" points="74.99,-190.78 75.34,-180.19 68.47,-188.25 74.99,-190.78"/>
</g>
<!-- sequential -->
<g id="node6" class="node">
<title>sequential</title>
<g id="a_node6"><a xlink:href="PsyllaReference_Types.xhtml#PsyllaReference_Types_Details_sequential" xlink:title="sequential" target="_parent">
<polygon fill="linen" stroke="black" points="170.15,-468 111.85,-468 111.85,-432 176.15,-432 176.15,-462 170.15,-468"/>
<polyline fill="none" stroke="black" points="170.15,-468 170.15,-462 "/>
<polyline fill="none" stroke="black" points="176.15,-462 170.15,-462 "/>
<text text-anchor="middle" x="144" y="-446.4" font-family="Source Code Pro,monospace" font-size="12.00">sequential</text>
</a>
</g>
</g>
<!-- sequential&#45;&gt;formaldict -->
<g id="edge5" class="edge">
<title>sequential&#45;&gt;formaldict</title>
<path fill="none" stroke="black" d="M125.41,-431.67C116.4,-422.08 106.38,-409.42 101,-396 72.94,-326.05 75.59,-234.99 79.16,-190.24"/>
<polygon fill="black" stroke="black" points="82.66,-190.43 80.05,-180.16 75.69,-189.81 82.66,-190.43"/>
</g>
<!-- streamable -->
<g id="node11" class="node">
<title>streamable</title>
<g id="a_node11"><a xlink:href="PsyllaReference_Types.xhtml#PsyllaReference_Types_Details_streamable" xlink:title="streamable" target="_parent">
<polygon fill="linen" stroke="black" points="171.97,-396 110.03,-396 110.03,-360 177.97,-360 177.97,-390 171.97,-396"/>
<polyline fill="none" stroke="black" points="171.97,-396 171.97,-390 "/>
<polyline fill="none" stroke="black" points="177.97,-390 171.97,-390 "/>
<text text-anchor="middle" x="144" y="-374.4" font-family="Source Code Pro,monospace" font-size="12.00">streamable</text>
</a>
</g>
</g>
<!-- sequential&#45;&gt;streamable -->
<g id="edge14" class="edge">
<title>sequential&#45;&gt;streamable</title>
<path fill="none" stroke="black" d="M144,-431.7C144,-423.98 144,-414.71 144,-406.11"/>
<polygon fill="black" stroke="black" points="147.5,-406.1 144,-396.1 140.5,-406.1 147.5,-406.1"/>
</g>
<!-- clearable -->
<g id="node7" class="node">
<title>clearable</title>
<g id="a_node7"><a xlink:href="PsyllaReference_Types.xhtml#PsyllaReference_Types_Details_clearable" xlink:title="clearable" target="_parent">
<polygon fill="linen" stroke="black" points="249.8,-396 196.2,-396 196.2,-360 255.8,-360 255.8,-390 249.8,-396"/>
<polyline fill="none" stroke="black" points="249.8,-396 249.8,-390 "/>
<polyline fill="none" stroke="black" points="255.8,-390 249.8,-390 "/>
<text text-anchor="middle" x="226" y="-374.4" font-family="Source Code Pro,monospace" font-size="12.00">clearable</text>
</a>
</g>
</g>
<!-- clearable&#45;&gt;container -->
<g id="edge6" class="edge">
<title>clearable&#45;&gt;container</title>
<path fill="none" stroke="black" d="M221.42,-359.87C214.91,-335.56 202.94,-290.82 195.23,-262.01"/>
<polygon fill="black" stroke="black" points="198.57,-260.94 192.6,-252.19 191.8,-262.75 198.57,-260.94"/>
</g>
<!-- iterable -->
<g id="node8" class="node">
<title>iterable</title>
<g id="a_node8"><a xlink:href="PsyllaReference_Types.xhtml#PsyllaReference_Types_Details_iterable" xlink:title="iterable" target="_parent">
<polygon fill="linen" stroke="black" points="178,-324 130,-324 130,-288 184,-288 184,-318 178,-324"/>
<polyline fill="none" stroke="black" points="178,-324 178,-318 "/>
<polyline fill="none" stroke="black" points="184,-318 178,-318 "/>
<text text-anchor="middle" x="157" y="-302.4" font-family="Source Code Pro,monospace" font-size="12.00">iterable</text>
</a>
</g>
</g>
<!-- iterable&#45;&gt;container -->
<g id="edge7" class="edge">
<title>iterable&#45;&gt;container</title>
<path fill="none" stroke="black" d="M164.66,-287.7C168.19,-279.73 172.46,-270.1 176.37,-261.26"/>
<polygon fill="black" stroke="black" points="179.58,-262.67 180.43,-252.1 173.18,-259.83 179.58,-262.67"/>
</g>
<!-- lengthy -->
<g id="node9" class="node">
<title>lengthy</title>
<g id="a_node9"><a xlink:href="PsyllaReference_Types.xhtml#PsyllaReference_Types_Details_lengthy" xlink:title="lengthy" target="_parent">
<polygon fill="linen" stroke="black" points="298,-468 250,-468 250,-432 304,-432 304,-462 298,-468"/>
<polyline fill="none" stroke="black" points="298,-468 298,-462 "/>
<polyline fill="none" stroke="black" points="304,-462 298,-462 "/>
<text text-anchor="middle" x="277" y="-446.4" font-family="Source Code Pro,monospace" font-size="12.00">lengthy</text>
</a>
</g>
</g>
<!-- lengthy&#45;&gt;container -->
<g id="edge8" class="edge">
<title>lengthy&#45;&gt;container</title>
<path fill="none" stroke="black" d="M276.77,-431.78C276.05,-413.48 273.51,-383.95 265,-360 251.78,-322.78 226.35,-284.82 208.34,-260.65"/>
<polygon fill="black" stroke="black" points="210.9,-258.24 202.07,-252.4 205.33,-262.48 210.9,-258.24"/>
</g>
<!-- object -->
<g id="node10" class="node">
<title>object</title>
<g id="a_node10"><a xlink:href="PsyllaReference_Types.xhtml#PsyllaReference_Types_Details_object" xlink:title="object" target="_parent">
<polygon fill="linen" stroke="black" points="195,-540 147,-540 147,-504 201,-504 201,-534 195,-540"/>
<polyline fill="none" stroke="black" points="195,-540 195,-534 "/>
<polyline fill="none" stroke="black" points="201,-534 195,-534 "/>
<text text-anchor="middle" x="174" y="-518.4" font-family="Source Code Pro,monospace" font-size="12.00">object</text>
</a>
</g>
</g>
<!-- object&#45;&gt;indexed -->
<g id="edge9" class="edge">
<title>object&#45;&gt;indexed</title>
<path fill="none" stroke="black" d="M146.88,-505.21C132.47,-495.8 115.25,-482.82 103,-468 68.9,-426.77 46.17,-367.69 35.02,-333.75"/>
<polygon fill="black" stroke="black" points="38.31,-332.53 31.93,-324.07 31.64,-334.66 38.31,-332.53"/>
</g>
<!-- object&#45;&gt;sequential -->
<g id="edge10" class="edge">
<title>object&#45;&gt;sequential</title>
<path fill="none" stroke="black" d="M166.58,-503.7C163.21,-495.81 159.13,-486.3 155.38,-477.55"/>
<polygon fill="black" stroke="black" points="158.49,-475.92 151.33,-468.1 152.05,-478.67 158.49,-475.92"/>
</g>
<!-- object&#45;&gt;clearable -->
<g id="edge11" class="edge">
<title>object&#45;&gt;clearable</title>
<path fill="none" stroke="black" d="M180.27,-503.87C189.21,-479.46 205.7,-434.43 216.25,-405.64"/>
<polygon fill="black" stroke="black" points="219.55,-406.78 219.71,-396.19 212.98,-404.38 219.55,-406.78"/>
</g>
<!-- object&#45;&gt;lengthy -->
<g id="edge13" class="edge">
<title>object&#45;&gt;lengthy</title>
<path fill="none" stroke="black" d="M199.2,-503.88C212.41,-494.89 228.79,-483.76 243.11,-474.03"/>
<polygon fill="black" stroke="black" points="245.4,-476.71 251.71,-468.19 241.47,-470.92 245.4,-476.71"/>
</g>
<!-- streamable&#45;&gt;iterable -->
<g id="edge12" class="edge">
<title>streamable&#45;&gt;iterable</title>
<path fill="none" stroke="black" d="M147.21,-359.7C148.65,-351.98 150.37,-342.71 151.96,-334.11"/>
<polygon fill="black" stroke="black" points="155.44,-334.58 153.82,-324.1 148.56,-333.3 155.44,-334.58"/>
</g>
</g>
</svg>
