<?xml version="1.0" encoding="UTF-8" standalone="no"?>
<!DOCTYPE svg PUBLIC "-//W3C//DTD SVG 1.1//EN"
 "http://www.w3.org/Graphics/SVG/1.1/DTD/svg11.dtd">
<!-- Generated by graphviz version 14.0.0 (0)
 -->
<!-- Title: formalqueue Pages: 1 -->
<svg width="220pt" height="404pt"
 viewBox="0.00 0.00 220.00 404.00" xmlns="http://www.w3.org/2000/svg" xmlns:xlink="http://www.w3.org/1999/xlink">
<g id="graph0" class="graph" transform="scale(1 1) rotate(0) translate(4 400)">
<title>formalqueue</title>
<polygon fill="none" stroke="none" points="-4,4 -4,-400 215.65,-400 215.65,4 -4,4"/>
<!-- bounded -->
<g id="node1" class="node">
<title>bounded</title>
<g id="a_node1"><a xlink:href="PsyllaReference_Types.xhtml#PsyllaReference_Types_Details_bounded" xlink:title="bounded" target="_parent">
<polygon fill="linen" stroke="black" points="51.33,-108 0,-108 0,-72 57.33,-72 57.33,-102 51.33,-108"/>
<polyline fill="none" stroke="black" points="51.33,-108 51.33,-102"/>
<polyline fill="none" stroke="black" points="57.33,-102 51.33,-102"/>
<text xml:space="preserve" text-anchor="middle" x="28.66" y="-86.4" font-family="Source Code Pro,monospace" font-size="12.00">bounded</text>
</a>
</g>
</g>
<!-- formalqueue -->
<g id="node3" class="node">
<title>formalqueue</title>
<g id="a_node3"><a xlink:href="PsyllaReference_Types.xhtml#PsyllaReference_Types_Details_formalqueue" xlink:title="formalqueue" target="_parent">
<polygon fill="wheat" stroke="black" points="98.98,-36 28.34,-36 28.34,0 104.98,0 104.98,-30 98.98,-36"/>
<polyline fill="none" stroke="black" points="98.98,-36 98.98,-30"/>
<polyline fill="none" stroke="black" points="104.98,-30 98.98,-30"/>
<text xml:space="preserve" text-anchor="middle" x="66.66" y="-14.4" font-family="Source Code Pro,monospace" font-size="12.00">formalqueue</text>
</a>
</g>
</g>
<!-- bounded&#45;&gt;formalqueue -->
<g id="edge1" class="edge">
<title>bounded&#45;&gt;formalqueue</title>
<path fill="none" stroke="black" d="M38.06,-71.7C42.24,-63.98 47.28,-54.71 51.94,-46.11"/>
<polygon fill="black" stroke="black" points="54.96,-47.89 56.66,-37.43 48.81,-44.55 54.96,-47.89"/>
</g>
<!-- container -->
<g id="node2" class="node">
<title>container</title>
<g id="a_node2"><a xlink:href="PsyllaReference_Types.xhtml#PsyllaReference_Types_Details_container" xlink:title="container" target="_parent">
<polygon fill="linen" stroke="black" points="129.98,-108 75.34,-108 75.34,-72 135.98,-72 135.98,-102 129.98,-108"/>
<polyline fill="none" stroke="black" points="129.98,-108 129.98,-102"/>
<polyline fill="none" stroke="black" points="135.98,-102 129.98,-102"/>
<text xml:space="preserve" text-anchor="middle" x="105.66" y="-86.4" font-family="Source Code Pro,monospace" font-size="12.00">container</text>
</a>
</g>
</g>
<!-- container&#45;&gt;formalqueue -->
<g id="edge2" class="edge">
<title>container&#45;&gt;formalqueue</title>
<path fill="none" stroke="black" d="M96.02,-71.7C91.72,-63.98 86.56,-54.71 81.77,-46.11"/>
<polygon fill="black" stroke="black" points="84.85,-44.46 76.93,-37.43 78.74,-47.87 84.85,-44.46"/>
</g>
<!-- lengthy -->
<g id="node4" class="node">
<title>lengthy</title>
<g id="a_node4"><a xlink:href="PsyllaReference_Types.xhtml#PsyllaReference_Types_Details_lengthy" xlink:title="lengthy" target="_parent">
<polygon fill="linen" stroke="black" points="58.66,-180 10.66,-180 10.66,-144 64.66,-144 64.66,-174 58.66,-180"/>
<polyline fill="none" stroke="black" points="58.66,-180 58.66,-174"/>
<polyline fill="none" stroke="black" points="64.66,-174 58.66,-174"/>
<text xml:space="preserve" text-anchor="middle" x="37.66" y="-158.4" font-family="Source Code Pro,monospace" font-size="12.00">lengthy</text>
</a>
</g>
</g>
<!-- lengthy&#45;&gt;bounded -->
<g id="edge3" class="edge">
<title>lengthy&#45;&gt;bounded</title>
<path fill="none" stroke="black" d="M35.44,-143.7C34.49,-136.32 33.36,-127.52 32.3,-119.25"/>
<polygon fill="black" stroke="black" points="35.8,-119.08 31.06,-109.61 28.86,-119.97 35.8,-119.08"/>
</g>
<!-- lengthy&#45;&gt;container -->
<g id="edge6" class="edge">
<title>lengthy&#45;&gt;container</title>
<path fill="none" stroke="black" d="M54.47,-143.7C62.54,-135.39 72.37,-125.28 81.24,-116.14"/>
<polygon fill="black" stroke="black" points="83.54,-118.8 87.99,-109.19 78.51,-113.92 83.54,-118.8"/>
</g>
<!-- clearable -->
<g id="node5" class="node">
<title>clearable</title>
<g id="a_node5"><a xlink:href="PsyllaReference_Types.xhtml#PsyllaReference_Types_Details_clearable" xlink:title="clearable" target="_parent">
<polygon fill="linen" stroke="black" points="119.31,-252 66.02,-252 66.02,-216 125.31,-216 125.31,-246 119.31,-252"/>
<polyline fill="none" stroke="black" points="119.31,-252 119.31,-246"/>
<polyline fill="none" stroke="black" points="125.31,-246 119.31,-246"/>
<text xml:space="preserve" text-anchor="middle" x="95.66" y="-230.4" font-family="Source Code Pro,monospace" font-size="12.00">clearable</text>
</a>
</g>
</g>
<!-- clearable&#45;&gt;container -->
<g id="edge4" class="edge">
<title>clearable&#45;&gt;container</title>
<path fill="none" stroke="black" d="M96.89,-215.59C98.58,-191.61 101.64,-148.14 103.66,-119.42"/>
<polygon fill="black" stroke="black" points="107.14,-119.84 104.35,-109.62 100.16,-119.35 107.14,-119.84"/>
</g>
<!-- iterable -->
<g id="node6" class="node">
<title>iterable</title>
<g id="a_node6"><a xlink:href="PsyllaReference_Types.xhtml#PsyllaReference_Types_Details_iterable" xlink:title="iterable" target="_parent">
<polygon fill="linen" stroke="black" points="189.66,-180 141.66,-180 141.66,-144 195.66,-144 195.66,-174 189.66,-180"/>
<polyline fill="none" stroke="black" points="189.66,-180 189.66,-174"/>
<polyline fill="none" stroke="black" points="195.66,-174 189.66,-174"/>
<text xml:space="preserve" text-anchor="middle" x="168.66" y="-158.4" font-family="Source Code Pro,monospace" font-size="12.00">iterable</text>
</a>
</g>
</g>
<!-- iterable&#45;&gt;container -->
<g id="edge5" class="edge">
<title>iterable&#45;&gt;container</title>
<path fill="none" stroke="black" d="M153.09,-143.7C145.69,-135.47 136.7,-125.48 128.54,-116.42"/>
<polygon fill="black" stroke="black" points="131.36,-114.32 122.07,-109.23 126.16,-119 131.36,-114.32"/>
</g>
<!-- object -->
<g id="node7" class="node">
<title>object</title>
<g id="a_node7"><a xlink:href="PsyllaReference_Types.xhtml#PsyllaReference_Types_Details_object" xlink:title="object" target="_parent">
<polygon fill="linen" stroke="black" points="116.66,-396 68.66,-396 68.66,-360 122.66,-360 122.66,-390 116.66,-396"/>
<polyline fill="none" stroke="black" points="116.66,-396 116.66,-390"/>
<polyline fill="none" stroke="black" points="122.66,-390 116.66,-390"/>
<text xml:space="preserve" text-anchor="middle" x="95.66" y="-374.4" font-family="Source Code Pro,monospace" font-size="12.00">object</text>
</a>
</g>
</g>
<!-- object&#45;&gt;lengthy -->
<g id="edge7" class="edge">
<title>object&#45;&gt;lengthy</title>
<path fill="none" stroke="black" d="M89.73,-359.76C81.6,-335.78 66.87,-290.92 56.66,-252 51.39,-231.88 46.52,-208.93 43.03,-191.37"/>
<polygon fill="black" stroke="black" points="46.48,-190.8 41.13,-181.66 39.61,-192.14 46.48,-190.8"/>
</g>
<!-- object&#45;&gt;clearable -->
<g id="edge8" class="edge">
<title>object&#45;&gt;clearable</title>
<path fill="none" stroke="black" d="M95.66,-359.59C95.66,-335.61 95.66,-292.14 95.66,-263.42"/>
<polygon fill="black" stroke="black" points="99.16,-263.62 95.66,-253.62 92.16,-263.62 99.16,-263.62"/>
</g>
<!-- sequential -->
<g id="node9" class="node">
<title>sequential</title>
<g id="a_node9"><a xlink:href="PsyllaReference_Types.xhtml#PsyllaReference_Types_Details_sequential" xlink:title="sequential" target="_parent">
<polygon fill="linen" stroke="black" points="192.99,-324 134.34,-324 134.34,-288 198.99,-288 198.99,-318 192.99,-324"/>
<polyline fill="none" stroke="black" points="192.99,-324 192.99,-318"/>
<polyline fill="none" stroke="black" points="198.99,-318 192.99,-318"/>
<text xml:space="preserve" text-anchor="middle" x="166.66" y="-302.4" font-family="Source Code Pro,monospace" font-size="12.00">sequential</text>
</a>
</g>
</g>
<!-- object&#45;&gt;sequential -->
<g id="edge11" class="edge">
<title>object&#45;&gt;sequential</title>
<path fill="none" stroke="black" d="M113.21,-359.7C121.64,-351.39 131.9,-341.28 141.16,-332.14"/>
<polygon fill="black" stroke="black" points="143.57,-334.68 148.24,-325.17 138.66,-329.7 143.57,-334.68"/>
</g>
<!-- streamable -->
<g id="node8" class="node">
<title>streamable</title>
<g id="a_node8"><a xlink:href="PsyllaReference_Types.xhtml#PsyllaReference_Types_Details_streamable" xlink:title="streamable" target="_parent">
<polygon fill="linen" stroke="black" points="205.65,-252 143.68,-252 143.68,-216 211.65,-216 211.65,-246 205.65,-252"/>
<polyline fill="none" stroke="black" points="205.65,-252 205.65,-246"/>
<polyline fill="none" stroke="black" points="211.65,-246 205.65,-246"/>
<text xml:space="preserve" text-anchor="middle" x="177.66" y="-230.4" font-family="Source Code Pro,monospace" font-size="12.00">streamable</text>
</a>
</g>
</g>
<!-- streamable&#45;&gt;iterable -->
<g id="edge9" class="edge">
<title>streamable&#45;&gt;iterable</title>
<path fill="none" stroke="black" d="M175.44,-215.7C174.49,-208.32 173.36,-199.52 172.3,-191.25"/>
<polygon fill="black" stroke="black" points="175.8,-191.08 171.06,-181.61 168.86,-191.97 175.8,-191.08"/>
</g>
<!-- sequential&#45;&gt;streamable -->
<g id="edge10" class="edge">
<title>sequential&#45;&gt;streamable</title>
<path fill="none" stroke="black" d="M169.38,-287.7C170.54,-280.32 171.92,-271.52 173.22,-263.25"/>
<polygon fill="black" stroke="black" points="176.65,-264.02 174.74,-253.6 169.73,-262.93 176.65,-264.02"/>
</g>
</g>
</svg>
