<?xml version="1.0" encoding="UTF-8" standalone="no"?>
<!DOCTYPE svg PUBLIC "-//W3C//DTD SVG 1.1//EN"
 "http://www.w3.org/Graphics/SVG/1.1/DTD/svg11.dtd">
<!-- Generated by graphviz version 2.43.0 (0)
 -->
<!-- Title: name Pages: 1 -->
<svg width="360pt" height="404pt"
 viewBox="0.00 0.00 359.50 404.00" xmlns="http://www.w3.org/2000/svg" xmlns:xlink="http://www.w3.org/1999/xlink">
<g id="graph0" class="graph" transform="scale(1 1) rotate(0) translate(4 400)">
<title>name</title>
<polygon fill="transparent" stroke="transparent" points="-4,4 -4,-400 355.5,-400 355.5,4 -4,4"/>
<!-- atomic -->
<g id="node1" class="node">
<title>atomic</title>
<g id="a_node1"><a xlink:href="PsyllaReference_Types.xhtml#PsyllaReference_Types_Details_atomic" xlink:title="atomic" target="_parent">
<polygon fill="linen" stroke="black" points="60,-252 0,-252 0,-216 66,-216 66,-246 60,-252"/>
<polyline fill="none" stroke="black" points="60,-252 60,-246 "/>
<polyline fill="none" stroke="black" points="66,-246 60,-246 "/>
<text text-anchor="middle" x="33" y="-230.3" font-family="Consolas, monospace" font-size="14.00">atomic</text>
</a>
</g>
</g>
<!-- name -->
<g id="node3" class="node">
<title>name</title>
<g id="a_node3"><a xlink:href="PsyllaReference_Types.xhtml#PsyllaReference_Types_Details_name" xlink:title="name" target="_parent">
<polygon fill="wheat" stroke="black" points="128,-36 80,-36 80,0 134,0 134,-30 128,-36"/>
<polyline fill="none" stroke="black" points="128,-36 128,-30 "/>
<polyline fill="none" stroke="black" points="134,-30 128,-30 "/>
<text text-anchor="middle" x="107" y="-14.3" font-family="Consolas, monospace" font-size="14.00">name</text>
</a>
</g>
</g>
<!-- atomic&#45;&gt;name -->
<g id="edge1" class="edge">
<title>atomic&#45;&gt;name</title>
<path fill="none" stroke="black" d="M35.57,-216C38.55,-197.89 44.08,-168.51 52,-144 63.32,-108.95 81.16,-70.4 93.44,-45.51"/>
<polygon fill="black" stroke="black" points="96.67,-46.87 98,-36.36 90.4,-43.74 96.67,-46.87"/>
</g>
<!-- stringy -->
<g id="node2" class="node">
<title>stringy</title>
<g id="a_node2"><a xlink:href="PsyllaReference_Types.xhtml#PsyllaReference_Types_Details_stringy" xlink:title="stringy" target="_parent">
<polygon fill="linen" stroke="black" points="212,-108 144,-108 144,-72 218,-72 218,-102 212,-108"/>
<polyline fill="none" stroke="black" points="212,-108 212,-102 "/>
<polyline fill="none" stroke="black" points="218,-102 212,-102 "/>
<text text-anchor="middle" x="181" y="-86.3" font-family="Consolas, monospace" font-size="14.00">stringy</text>
</a>
</g>
</g>
<!-- stringy&#45;&gt;name -->
<g id="edge2" class="edge">
<title>stringy&#45;&gt;name</title>
<path fill="none" stroke="black" d="M162.71,-71.7C153.57,-63.05 142.36,-52.45 132.4,-43.03"/>
<polygon fill="black" stroke="black" points="134.75,-40.43 125.08,-36.1 129.94,-45.52 134.75,-40.43"/>
</g>
<!-- object -->
<g id="node4" class="node">
<title>object</title>
<g id="a_node4"><a xlink:href="PsyllaReference_Types.xhtml#PsyllaReference_Types_Details_object" xlink:title="object" target="_parent">
<polygon fill="linen" stroke="black" points="167,-396 107,-396 107,-360 173,-360 173,-390 167,-396"/>
<polyline fill="none" stroke="black" points="167,-396 167,-390 "/>
<polyline fill="none" stroke="black" points="173,-390 167,-390 "/>
<text text-anchor="middle" x="140" y="-374.3" font-family="Consolas, monospace" font-size="14.00">object</text>
</a>
</g>
</g>
<!-- object&#45;&gt;atomic -->
<g id="edge3" class="edge">
<title>object&#45;&gt;atomic</title>
<path fill="none" stroke="black" d="M116.8,-359.83C104.83,-350.2 90.57,-337.44 80,-324 64.89,-304.79 52.26,-280.01 43.91,-261.47"/>
<polygon fill="black" stroke="black" points="47.05,-259.91 39.84,-252.15 40.64,-262.72 47.05,-259.91"/>
</g>
<!-- evaluable -->
<g id="node5" class="node">
<title>evaluable</title>
<g id="a_node5"><a xlink:href="PsyllaReference_Types.xhtml#PsyllaReference_Types_Details_evaluable" xlink:title="evaluable" target="_parent">
<polygon fill="linen" stroke="black" points="146.5,-180 61.5,-180 61.5,-144 152.5,-144 152.5,-174 146.5,-180"/>
<polyline fill="none" stroke="black" points="146.5,-180 146.5,-174 "/>
<polyline fill="none" stroke="black" points="152.5,-174 146.5,-174 "/>
<text text-anchor="middle" x="107" y="-158.3" font-family="Consolas, monospace" font-size="14.00">evaluable</text>
</a>
</g>
</g>
<!-- object&#45;&gt;evaluable -->
<g id="edge8" class="edge">
<title>object&#45;&gt;evaluable</title>
<path fill="none" stroke="black" d="M135.44,-359.75C129.29,-335.77 118.48,-290.91 113,-252 110.1,-231.43 108.59,-207.98 107.81,-190.31"/>
<polygon fill="black" stroke="black" points="111.3,-189.99 107.42,-180.14 104.31,-190.27 111.3,-189.99"/>
</g>
<!-- lengthy -->
<g id="node7" class="node">
<title>lengthy</title>
<g id="a_node7"><a xlink:href="PsyllaReference_Types.xhtml#PsyllaReference_Types_Details_lengthy" xlink:title="lengthy" target="_parent">
<polygon fill="linen" stroke="black" points="190,-252 122,-252 122,-216 196,-216 196,-246 190,-252"/>
<polyline fill="none" stroke="black" points="190,-252 190,-246 "/>
<polyline fill="none" stroke="black" points="196,-246 190,-246 "/>
<text text-anchor="middle" x="159" y="-230.3" font-family="Consolas, monospace" font-size="14.00">lengthy</text>
</a>
</g>
</g>
<!-- object&#45;&gt;lengthy -->
<g id="edge10" class="edge">
<title>object&#45;&gt;lengthy</title>
<path fill="none" stroke="black" d="M142.29,-359.87C145.53,-335.67 151.48,-291.21 155.33,-262.39"/>
<polygon fill="black" stroke="black" points="158.84,-262.57 156.7,-252.19 151.9,-261.64 158.84,-262.57"/>
</g>
<!-- scalar -->
<g id="node8" class="node">
<title>scalar</title>
<g id="a_node8"><a xlink:href="PsyllaReference_Types.xhtml#PsyllaReference_Types_Details_scalar" xlink:title="scalar" target="_parent">
<polygon fill="linen" stroke="black" points="228,-324 168,-324 168,-288 234,-288 234,-318 228,-324"/>
<polyline fill="none" stroke="black" points="228,-324 228,-318 "/>
<polyline fill="none" stroke="black" points="234,-318 228,-318 "/>
<text text-anchor="middle" x="201" y="-302.3" font-family="Consolas, monospace" font-size="14.00">scalar</text>
</a>
</g>
</g>
<!-- object&#45;&gt;scalar -->
<g id="edge11" class="edge">
<title>object&#45;&gt;scalar</title>
<path fill="none" stroke="black" d="M155.08,-359.7C162.39,-351.3 171.31,-341.07 179.34,-331.86"/>
<polygon fill="black" stroke="black" points="182.16,-333.94 186.09,-324.1 176.89,-329.34 182.16,-333.94"/>
</g>
<!-- sequential -->
<g id="node10" class="node">
<title>sequential</title>
<g id="a_node10"><a xlink:href="PsyllaReference_Types.xhtml#PsyllaReference_Types_Details_sequential" xlink:title="sequential" target="_parent">
<polygon fill="linen" stroke="black" points="345.5,-324 252.5,-324 252.5,-288 351.5,-288 351.5,-318 345.5,-324"/>
<polyline fill="none" stroke="black" points="345.5,-324 345.5,-318 "/>
<polyline fill="none" stroke="black" points="351.5,-318 345.5,-318 "/>
<text text-anchor="middle" x="302" y="-302.3" font-family="Consolas, monospace" font-size="14.00">sequential</text>
</a>
</g>
</g>
<!-- object&#45;&gt;sequential -->
<g id="edge13" class="edge">
<title>object&#45;&gt;sequential</title>
<path fill="none" stroke="black" d="M173.17,-362.67C196.26,-352.69 227.42,-339.23 253.31,-328.04"/>
<polygon fill="black" stroke="black" points="254.79,-331.21 262.58,-324.03 252.02,-324.79 254.79,-331.21"/>
</g>
<!-- evaluable&#45;&gt;stringy -->
<g id="edge4" class="edge">
<title>evaluable&#45;&gt;stringy</title>
<path fill="none" stroke="black" d="M125.29,-143.7C134.43,-135.05 145.64,-124.45 155.6,-115.03"/>
<polygon fill="black" stroke="black" points="158.06,-117.52 162.92,-108.1 153.25,-112.43 158.06,-117.52"/>
</g>
<!-- iterable -->
<g id="node6" class="node">
<title>iterable</title>
<g id="a_node6"><a xlink:href="PsyllaReference_Types.xhtml#PsyllaReference_Types_Details_iterable" xlink:title="iterable" target="_parent">
<polygon fill="linen" stroke="black" points="333.5,-180 256.5,-180 256.5,-144 339.5,-144 339.5,-174 333.5,-180"/>
<polyline fill="none" stroke="black" points="333.5,-180 333.5,-174 "/>
<polyline fill="none" stroke="black" points="339.5,-174 333.5,-174 "/>
<text text-anchor="middle" x="298" y="-158.3" font-family="Consolas, monospace" font-size="14.00">iterable</text>
</a>
</g>
</g>
<!-- iterable&#45;&gt;stringy -->
<g id="edge5" class="edge">
<title>iterable&#45;&gt;stringy</title>
<path fill="none" stroke="black" d="M269.38,-143.88C254.08,-134.72 235.06,-123.34 218.58,-113.48"/>
<polygon fill="black" stroke="black" points="220.11,-110.32 209.73,-108.19 216.52,-116.33 220.11,-110.32"/>
</g>
<!-- lengthy&#45;&gt;stringy -->
<g id="edge6" class="edge">
<title>lengthy&#45;&gt;stringy</title>
<path fill="none" stroke="black" d="M161.65,-215.87C165.4,-191.67 172.29,-147.21 176.76,-118.39"/>
<polygon fill="black" stroke="black" points="180.26,-118.61 178.34,-108.19 173.35,-117.54 180.26,-118.61"/>
</g>
<!-- scalar&#45;&gt;stringy -->
<g id="edge7" class="edge">
<title>scalar&#45;&gt;stringy</title>
<path fill="none" stroke="black" d="M202.62,-287.83C203.52,-277.47 204.55,-263.99 205,-252 205.6,-236.01 206.52,-231.93 205,-216 201.76,-181.93 193.66,-143.33 187.76,-118.16"/>
<polygon fill="black" stroke="black" points="191.12,-117.15 185.39,-108.24 184.31,-118.78 191.12,-117.15"/>
</g>
<!-- streamable -->
<g id="node9" class="node">
<title>streamable</title>
<g id="a_node9"><a xlink:href="PsyllaReference_Types.xhtml#PsyllaReference_Types_Details_streamable" xlink:title="streamable" target="_parent">
<polygon fill="linen" stroke="black" points="345.5,-252 252.5,-252 252.5,-216 351.5,-216 351.5,-246 345.5,-252"/>
<polyline fill="none" stroke="black" points="345.5,-252 345.5,-246 "/>
<polyline fill="none" stroke="black" points="351.5,-246 345.5,-246 "/>
<text text-anchor="middle" x="302" y="-230.3" font-family="Consolas, monospace" font-size="14.00">streamable</text>
</a>
</g>
</g>
<!-- streamable&#45;&gt;iterable -->
<g id="edge9" class="edge">
<title>streamable&#45;&gt;iterable</title>
<path fill="none" stroke="black" d="M301.01,-215.7C300.57,-207.98 300.04,-198.71 299.55,-190.11"/>
<polygon fill="black" stroke="black" points="303.04,-189.89 298.98,-180.1 296.05,-190.29 303.04,-189.89"/>
</g>
<!-- sequential&#45;&gt;streamable -->
<g id="edge12" class="edge">
<title>sequential&#45;&gt;streamable</title>
<path fill="none" stroke="black" d="M302,-287.7C302,-279.98 302,-270.71 302,-262.11"/>
<polygon fill="black" stroke="black" points="305.5,-262.1 302,-252.1 298.5,-262.1 305.5,-262.1"/>
</g>
</g>
</svg>
