<?xml version="1.0" encoding="UTF-8" standalone="no"?>
<!DOCTYPE svg PUBLIC "-//W3C//DTD SVG 1.1//EN"
 "http://www.w3.org/Graphics/SVG/1.1/DTD/svg11.dtd">
<!-- Generated by graphviz version 2.43.0 (0)
 -->
<!-- Title: integral Pages: 1 -->
<svg width="714pt" height="476pt"
 viewBox="0.00 0.00 713.50 476.00" xmlns="http://www.w3.org/2000/svg" xmlns:xlink="http://www.w3.org/1999/xlink">
<g id="graph0" class="graph" transform="scale(1 1) rotate(0) translate(4 472)">
<title>integral</title>
<polygon fill="transparent" stroke="transparent" points="-4,4 -4,-472 709.5,-472 709.5,4 -4,4"/>
<!-- bitwise -->
<g id="node1" class="node">
<title>bitwise</title>
<g id="a_node1"><a xlink:href="PsyllaReference_Types.xhtml#PsyllaReference_Types_Details_bitwise" xlink:title="bitwise" target="_parent">
<polygon fill="linen" stroke="black" points="158,-180 95,-180 95,-144 164,-144 164,-174 158,-180"/>
<polyline fill="none" stroke="black" points="158,-180 158,-174 "/>
<polyline fill="none" stroke="black" points="164,-174 158,-174 "/>
<text text-anchor="middle" x="129.5" y="-158.9" font-family="Source Code Pro,monospace" font-size="12.00">bitwise</text>
</a>
</g>
</g>
<!-- integral -->
<g id="node3" class="node">
<title>integral</title>
<g id="a_node3"><a xlink:href="PsyllaReference_Types.xhtml#PsyllaReference_Types_Details_integral" xlink:title="integral" target="_parent">
<polygon fill="wheat" stroke="black" points="212,-36 141,-36 141,0 218,0 218,-30 212,-36"/>
<polyline fill="none" stroke="black" points="212,-36 212,-30 "/>
<polyline fill="none" stroke="black" points="218,-30 212,-30 "/>
<text text-anchor="middle" x="179.5" y="-14.9" font-family="Source Code Pro,monospace" font-size="12.00">integral</text>
</a>
</g>
</g>
<!-- bitwise&#45;&gt;integral -->
<g id="edge1" class="edge">
<title>bitwise&#45;&gt;integral</title>
<path fill="none" stroke="black" d="M135.53,-143.87C144.13,-119.46 159.98,-74.43 170.12,-45.64"/>
<polygon fill="black" stroke="black" points="173.43,-46.78 173.45,-36.19 166.82,-44.46 173.43,-46.78"/>
</g>
<!-- rational -->
<g id="node2" class="node">
<title>rational</title>
<g id="a_node2"><a xlink:href="PsyllaReference_Types.xhtml#PsyllaReference_Types_Details_rational" xlink:title="rational" target="_parent">
<polygon fill="linen" stroke="black" points="255,-108 184,-108 184,-72 261,-72 261,-102 255,-108"/>
<polyline fill="none" stroke="black" points="255,-108 255,-102 "/>
<polyline fill="none" stroke="black" points="261,-102 255,-102 "/>
<text text-anchor="middle" x="222.5" y="-86.9" font-family="Source Code Pro,monospace" font-size="12.00">rational</text>
</a>
</g>
</g>
<!-- rational&#45;&gt;integral -->
<g id="edge2" class="edge">
<title>rational&#45;&gt;integral</title>
<path fill="none" stroke="black" d="M211.87,-71.7C206.87,-63.56 200.81,-53.69 195.29,-44.7"/>
<polygon fill="black" stroke="black" points="198.22,-42.79 190.01,-36.1 192.26,-46.46 198.22,-42.79"/>
</g>
<!-- logical -->
<g id="node4" class="node">
<title>logical</title>
<g id="a_node4"><a xlink:href="PsyllaReference_Types.xhtml#PsyllaReference_Types_Details_logical" xlink:title="logical" target="_parent">
<polygon fill="linen" stroke="black" points="63,-396 0,-396 0,-360 69,-360 69,-390 63,-396"/>
<polyline fill="none" stroke="black" points="63,-396 63,-390 "/>
<polyline fill="none" stroke="black" points="69,-390 63,-390 "/>
<text text-anchor="middle" x="34.5" y="-374.9" font-family="Source Code Pro,monospace" font-size="12.00">logical</text>
</a>
</g>
</g>
<!-- logical&#45;&gt;bitwise -->
<g id="edge3" class="edge">
<title>logical&#45;&gt;bitwise</title>
<path fill="none" stroke="black" d="M28.55,-359.99C18.79,-328.89 3.06,-261.81 30.5,-216 42.43,-196.07 64.7,-183.22 85.1,-175.16"/>
<polygon fill="black" stroke="black" points="86.41,-178.41 94.6,-171.69 84.01,-171.84 86.41,-178.41"/>
</g>
<!-- realnumeric -->
<g id="node5" class="node">
<title>realnumeric</title>
<g id="a_node5"><a xlink:href="PsyllaReference_Types.xhtml#PsyllaReference_Types_Details_realnumeric" xlink:title="realnumeric" target="_parent">
<polygon fill="linen" stroke="black" points="335,-180 242,-180 242,-144 341,-144 341,-174 335,-180"/>
<polyline fill="none" stroke="black" points="335,-180 335,-174 "/>
<polyline fill="none" stroke="black" points="341,-174 335,-174 "/>
<text text-anchor="middle" x="291.5" y="-158.9" font-family="Source Code Pro,monospace" font-size="12.00">realnumeric</text>
</a>
</g>
</g>
<!-- realnumeric&#45;&gt;rational -->
<g id="edge4" class="edge">
<title>realnumeric&#45;&gt;rational</title>
<path fill="none" stroke="black" d="M274.44,-143.7C266,-135.14 255.68,-124.66 246.46,-115.3"/>
<polygon fill="black" stroke="black" points="248.87,-112.77 239.36,-108.1 243.89,-117.68 248.87,-112.77"/>
</g>
<!-- object -->
<g id="node6" class="node">
<title>object</title>
<g id="a_node6"><a xlink:href="PsyllaReference_Types.xhtml#PsyllaReference_Types_Details_object" xlink:title="object" target="_parent">
<polygon fill="linen" stroke="black" points="393.5,-468 337.5,-468 337.5,-432 399.5,-432 399.5,-462 393.5,-468"/>
<polyline fill="none" stroke="black" points="393.5,-468 393.5,-462 "/>
<polyline fill="none" stroke="black" points="399.5,-462 393.5,-462 "/>
<text text-anchor="middle" x="368.5" y="-446.9" font-family="Source Code Pro,monospace" font-size="12.00">object</text>
</a>
</g>
</g>
<!-- object&#45;&gt;logical -->
<g id="edge5" class="edge">
<title>object&#45;&gt;logical</title>
<path fill="none" stroke="black" d="M337.25,-443.08C287.9,-433.65 188.97,-414.4 105.5,-396 96.87,-394.1 87.67,-391.97 78.85,-389.88"/>
<polygon fill="black" stroke="black" points="79.65,-386.47 69.11,-387.55 78.02,-393.28 79.65,-386.47"/>
</g>
<!-- convertabletointeger -->
<g id="node8" class="node">
<title>convertabletointeger</title>
<g id="a_node8"><a xlink:href="PsyllaReference_Types.xhtml#PsyllaReference_Types_Details_convertabletointeger" xlink:title="convertabletointeger" target="_parent">
<polygon fill="linen" stroke="black" points="201,-252 40,-252 40,-216 207,-216 207,-246 201,-252"/>
<polyline fill="none" stroke="black" points="201,-252 201,-246 "/>
<polyline fill="none" stroke="black" points="207,-246 201,-246 "/>
<text text-anchor="middle" x="123.5" y="-230.9" font-family="Source Code Pro,monospace" font-size="12.00">convertabletointeger</text>
</a>
</g>
</g>
<!-- object&#45;&gt;convertabletointeger -->
<g id="edge13" class="edge">
<title>object&#45;&gt;convertabletointeger</title>
<path fill="none" stroke="black" d="M337.33,-441.51C286.77,-427.61 187.61,-392.8 138.5,-324 125.73,-306.11 122.45,-281.11 122.1,-262.16"/>
<polygon fill="black" stroke="black" points="125.6,-262.09 122.17,-252.07 118.6,-262.04 125.6,-262.09"/>
</g>
<!-- convertabletointegral -->
<g id="node9" class="node">
<title>convertabletointegral</title>
<g id="a_node9"><a xlink:href="PsyllaReference_Types.xhtml#PsyllaReference_Types_Details_convertabletointegral" xlink:title="convertabletointegral" target="_parent">
<polygon fill="linen" stroke="black" points="315.5,-324 147.5,-324 147.5,-288 321.5,-288 321.5,-318 315.5,-324"/>
<polyline fill="none" stroke="black" points="315.5,-324 315.5,-318 "/>
<polyline fill="none" stroke="black" points="321.5,-318 315.5,-318 "/>
<text text-anchor="middle" x="234.5" y="-302.9" font-family="Source Code Pro,monospace" font-size="12.00">convertabletointegral</text>
</a>
</g>
</g>
<!-- object&#45;&gt;convertabletointegral -->
<g id="edge14" class="edge">
<title>object&#45;&gt;convertabletointegral</title>
<path fill="none" stroke="black" d="M352.34,-431.87C328.79,-406.92 284.94,-360.45 257.88,-331.77"/>
<polygon fill="black" stroke="black" points="260.13,-329.06 250.72,-324.19 255.04,-333.86 260.13,-329.06"/>
</g>
<!-- convertabletorational -->
<g id="node10" class="node">
<title>convertabletorational</title>
<g id="a_node10"><a xlink:href="PsyllaReference_Types.xhtml#PsyllaReference_Types_Details_convertabletorational" xlink:title="convertabletorational" target="_parent">
<polygon fill="linen" stroke="black" points="430.5,-252 262.5,-252 262.5,-216 436.5,-216 436.5,-246 430.5,-252"/>
<polyline fill="none" stroke="black" points="430.5,-252 430.5,-246 "/>
<polyline fill="none" stroke="black" points="436.5,-246 430.5,-246 "/>
<text text-anchor="middle" x="349.5" y="-230.9" font-family="Source Code Pro,monospace" font-size="12.00">convertabletorational</text>
</a>
</g>
</g>
<!-- object&#45;&gt;convertabletorational -->
<g id="edge15" class="edge">
<title>object&#45;&gt;convertabletorational</title>
<path fill="none" stroke="black" d="M366.98,-431.85C363.69,-394.83 355.91,-307.18 351.93,-262.39"/>
<polygon fill="black" stroke="black" points="355.4,-261.88 351.03,-252.23 348.43,-262.5 355.4,-261.88"/>
</g>
<!-- scalar -->
<g id="node11" class="node">
<title>scalar</title>
<g id="a_node11"><a xlink:href="PsyllaReference_Types.xhtml#PsyllaReference_Types_Details_scalar" xlink:title="scalar" target="_parent">
<polygon fill="linen" stroke="black" points="433.5,-324 377.5,-324 377.5,-288 439.5,-288 439.5,-318 433.5,-324"/>
<polyline fill="none" stroke="black" points="433.5,-324 433.5,-318 "/>
<polyline fill="none" stroke="black" points="439.5,-318 433.5,-318 "/>
<text text-anchor="middle" x="408.5" y="-302.9" font-family="Source Code Pro,monospace" font-size="12.00">scalar</text>
</a>
</g>
</g>
<!-- object&#45;&gt;scalar -->
<g id="edge16" class="edge">
<title>object&#45;&gt;scalar</title>
<path fill="none" stroke="black" d="M373.32,-431.87C380.17,-407.56 392.78,-362.82 400.89,-334.01"/>
<polygon fill="black" stroke="black" points="404.32,-334.76 403.66,-324.19 397.58,-332.87 404.32,-334.76"/>
</g>
<!-- value -->
<g id="node13" class="node">
<title>value</title>
<g id="a_node13"><a xlink:href="PsyllaReference_Types.xhtml#PsyllaReference_Types_Details_value" xlink:title="value" target="_parent">
<polygon fill="linen" stroke="black" points="463.5,-396 415.5,-396 415.5,-360 469.5,-360 469.5,-390 463.5,-396"/>
<polyline fill="none" stroke="black" points="463.5,-396 463.5,-390 "/>
<polyline fill="none" stroke="black" points="469.5,-390 463.5,-390 "/>
<text text-anchor="middle" x="442.5" y="-374.9" font-family="Source Code Pro,monospace" font-size="12.00">value</text>
</a>
</g>
</g>
<!-- object&#45;&gt;value -->
<g id="edge19" class="edge">
<title>object&#45;&gt;value</title>
<path fill="none" stroke="black" d="M386.79,-431.7C395.93,-423.05 407.14,-412.45 417.1,-403.03"/>
<polygon fill="black" stroke="black" points="419.56,-405.52 424.42,-396.1 414.75,-400.43 419.56,-405.52"/>
</g>
<!-- additive -->
<g id="node14" class="node">
<title>additive</title>
<g id="a_node14"><a xlink:href="PsyllaReference_Types.xhtml#PsyllaReference_Types_Details_additive" xlink:title="additive" target="_parent">
<polygon fill="linen" stroke="black" points="559,-396 488,-396 488,-360 565,-360 565,-390 559,-396"/>
<polyline fill="none" stroke="black" points="559,-396 559,-390 "/>
<polyline fill="none" stroke="black" points="565,-390 559,-390 "/>
<text text-anchor="middle" x="526.5" y="-374.9" font-family="Source Code Pro,monospace" font-size="12.00">additive</text>
</a>
</g>
</g>
<!-- object&#45;&gt;additive -->
<g id="edge20" class="edge">
<title>object&#45;&gt;additive</title>
<path fill="none" stroke="black" d="M399.72,-435.17C422.3,-425.16 453.24,-411.46 478.9,-400.09"/>
<polygon fill="black" stroke="black" points="480.36,-403.27 488.09,-396.02 477.52,-396.87 480.36,-403.27"/>
</g>
<!-- multiplicative -->
<g id="node15" class="node">
<title>multiplicative</title>
<g id="a_node15"><a xlink:href="PsyllaReference_Types.xhtml#PsyllaReference_Types_Details_multiplicative" xlink:title="multiplicative" target="_parent">
<polygon fill="linen" stroke="black" points="699.5,-396 583.5,-396 583.5,-360 705.5,-360 705.5,-390 699.5,-396"/>
<polyline fill="none" stroke="black" points="699.5,-396 699.5,-390 "/>
<polyline fill="none" stroke="black" points="705.5,-390 699.5,-390 "/>
<text text-anchor="middle" x="644.5" y="-374.9" font-family="Source Code Pro,monospace" font-size="12.00">multiplicative</text>
</a>
</g>
</g>
<!-- object&#45;&gt;multiplicative -->
<g id="edge21" class="edge">
<title>object&#45;&gt;multiplicative</title>
<path fill="none" stroke="black" d="M399.62,-441.11C441.52,-430.48 517.27,-411.27 573.46,-397.02"/>
<polygon fill="black" stroke="black" points="574.53,-400.36 583.36,-394.51 572.81,-393.57 574.53,-400.36"/>
</g>
<!-- numeric -->
<g id="node7" class="node">
<title>numeric</title>
<g id="a_node7"><a xlink:href="PsyllaReference_Types.xhtml#PsyllaReference_Types_Details_numeric" xlink:title="numeric" target="_parent">
<polygon fill="linen" stroke="black" points="556,-252 493,-252 493,-216 562,-216 562,-246 556,-252"/>
<polyline fill="none" stroke="black" points="556,-252 556,-246 "/>
<polyline fill="none" stroke="black" points="562,-246 556,-246 "/>
<text text-anchor="middle" x="527.5" y="-230.9" font-family="Source Code Pro,monospace" font-size="12.00">numeric</text>
</a>
</g>
</g>
<!-- numeric&#45;&gt;realnumeric -->
<g id="edge6" class="edge">
<title>numeric&#45;&gt;realnumeric</title>
<path fill="none" stroke="black" d="M492.78,-220.68C488,-219.06 483.14,-217.46 478.5,-216 436.28,-202.71 388.23,-189.12 351.41,-179.03"/>
<polygon fill="black" stroke="black" points="351.91,-175.54 341.34,-176.28 350.07,-182.29 351.91,-175.54"/>
</g>
<!-- convertabletointeger&#45;&gt;realnumeric -->
<g id="edge7" class="edge">
<title>convertabletointeger&#45;&gt;realnumeric</title>
<path fill="none" stroke="black" d="M164.6,-215.88C187.67,-206.26 216.64,-194.19 241.07,-184.01"/>
<polygon fill="black" stroke="black" points="242.65,-187.15 250.54,-180.07 239.96,-180.68 242.65,-187.15"/>
</g>
<!-- convertabletointegral&#45;&gt;realnumeric -->
<g id="edge8" class="edge">
<title>convertabletointegral&#45;&gt;realnumeric</title>
<path fill="none" stroke="black" d="M236.04,-287.96C238.17,-269.56 243.02,-239.7 253.5,-216 257.83,-206.21 264.14,-196.43 270.38,-187.98"/>
<polygon fill="black" stroke="black" points="273.18,-190.08 276.52,-180.03 267.64,-185.8 273.18,-190.08"/>
</g>
<!-- convertabletorational&#45;&gt;realnumeric -->
<g id="edge9" class="edge">
<title>convertabletorational&#45;&gt;realnumeric</title>
<path fill="none" stroke="black" d="M335.16,-215.7C328.21,-207.3 319.73,-197.07 312.1,-187.86"/>
<polygon fill="black" stroke="black" points="314.75,-185.57 305.67,-180.1 309.36,-190.04 314.75,-185.57"/>
</g>
<!-- scalar&#45;&gt;realnumeric -->
<g id="edge10" class="edge">
<title>scalar&#45;&gt;realnumeric</title>
<path fill="none" stroke="black" d="M425.28,-287.78C441.53,-268.95 461.54,-238.48 445.5,-216 424.22,-186.17 385.02,-172.96 351.5,-167.19"/>
<polygon fill="black" stroke="black" points="351.72,-163.68 341.3,-165.62 350.66,-170.6 351.72,-163.68"/>
</g>
<!-- arithmetic -->
<g id="node12" class="node">
<title>arithmetic</title>
<g id="a_node12"><a xlink:href="PsyllaReference_Types.xhtml#PsyllaReference_Types_Details_arithmetic" xlink:title="arithmetic" target="_parent">
<polygon fill="linen" stroke="black" points="581.5,-324 495.5,-324 495.5,-288 587.5,-288 587.5,-318 581.5,-324"/>
<polyline fill="none" stroke="black" points="581.5,-324 581.5,-318 "/>
<polyline fill="none" stroke="black" points="587.5,-318 581.5,-318 "/>
<text text-anchor="middle" x="541.5" y="-302.9" font-family="Source Code Pro,monospace" font-size="12.00">arithmetic</text>
</a>
</g>
</g>
<!-- arithmetic&#45;&gt;numeric -->
<g id="edge11" class="edge">
<title>arithmetic&#45;&gt;numeric</title>
<path fill="none" stroke="black" d="M538.04,-287.7C536.5,-279.98 534.64,-270.71 532.92,-262.11"/>
<polygon fill="black" stroke="black" points="536.31,-261.22 530.92,-252.1 529.45,-262.6 536.31,-261.22"/>
</g>
<!-- value&#45;&gt;numeric -->
<g id="edge12" class="edge">
<title>value&#45;&gt;numeric</title>
<path fill="none" stroke="black" d="M449.8,-359.73C457.84,-341.39 471.6,-311.82 486.5,-288 492.48,-278.43 499.82,-268.51 506.62,-259.87"/>
<polygon fill="black" stroke="black" points="509.38,-262.02 512.92,-252.03 503.93,-257.63 509.38,-262.02"/>
</g>
<!-- additive&#45;&gt;arithmetic -->
<g id="edge17" class="edge">
<title>additive&#45;&gt;arithmetic</title>
<path fill="none" stroke="black" d="M530.21,-359.7C531.86,-351.98 533.85,-342.71 535.69,-334.11"/>
<polygon fill="black" stroke="black" points="539.16,-334.62 537.83,-324.1 532.32,-333.15 539.16,-334.62"/>
</g>
<!-- multiplicative&#45;&gt;arithmetic -->
<g id="edge18" class="edge">
<title>multiplicative&#45;&gt;arithmetic</title>
<path fill="none" stroke="black" d="M619.3,-359.88C606.09,-350.89 589.71,-339.76 575.39,-330.03"/>
<polygon fill="black" stroke="black" points="577.03,-326.92 566.79,-324.19 573.1,-332.71 577.03,-326.92"/>
</g>
</g>
</svg>
