<?xml version="1.0" encoding="UTF-8" standalone="no"?>
<!DOCTYPE svg PUBLIC "-//W3C//DTD SVG 1.1//EN"
 "http://www.w3.org/Graphics/SVG/1.1/DTD/svg11.dtd">
<!-- Generated by graphviz version 14.0.0 (0)
 -->
<!-- Title: reader Pages: 1 -->
<svg width="271pt" height="260pt"
 viewBox="0.00 0.00 271.00 260.00" xmlns="http://www.w3.org/2000/svg" xmlns:xlink="http://www.w3.org/1999/xlink">
<g id="graph0" class="graph" transform="scale(1 1) rotate(0) translate(4 256)">
<title>reader</title>
<polygon fill="none" stroke="none" points="-4,4 -4,-256 267.32,-256 267.32,4 -4,4"/>
<!-- closeable -->
<g id="node1" class="node">
<title>closeable</title>
<g id="a_node1"><a xlink:href="PsyllaReference_Types.xhtml#PsyllaReference_Types_Details_closeable" xlink:title="closeable" target="_parent">
<polygon fill="linen" stroke="black" points="54.64,-108 0,-108 0,-72 60.64,-72 60.64,-102 54.64,-108"/>
<polyline fill="none" stroke="black" points="54.64,-108 54.64,-102"/>
<polyline fill="none" stroke="black" points="60.64,-102 54.64,-102"/>
<text xml:space="preserve" text-anchor="middle" x="30.32" y="-86.4" font-family="Source Code Pro,monospace" font-size="12.00">closeable</text>
</a>
</g>
</g>
<!-- reader -->
<g id="node5" class="node">
<title>reader</title>
<g id="a_node5"><a xlink:href="PsyllaReference_Types.xhtml#PsyllaReference_Types_Details_reader" xlink:title="reader" target="_parent">
<polygon fill="wheat" stroke="black" points="159.32,-36 111.32,-36 111.32,0 165.32,0 165.32,-30 159.32,-36"/>
<polyline fill="none" stroke="black" points="159.32,-36 159.32,-30"/>
<polyline fill="none" stroke="black" points="165.32,-30 159.32,-30"/>
<text xml:space="preserve" text-anchor="middle" x="138.32" y="-14.4" font-family="Source Code Pro,monospace" font-size="12.00">reader</text>
</a>
</g>
</g>
<!-- closeable&#45;&gt;reader -->
<g id="edge1" class="edge">
<title>closeable&#45;&gt;reader</title>
<path fill="none" stroke="black" d="M57.3,-71.52C70.93,-62.68 87.66,-51.84 102.37,-42.3"/>
<polygon fill="black" stroke="black" points="103.93,-45.46 110.42,-37.08 100.13,-39.59 103.93,-45.46"/>
</g>
<!-- evaluable -->
<g id="node2" class="node">
<title>evaluable</title>
<g id="a_node2"><a xlink:href="PsyllaReference_Types.xhtml#PsyllaReference_Types_Details_evaluable" xlink:title="evaluable" target="_parent">
<polygon fill="linen" stroke="black" points="134.31,-108 78.33,-108 78.33,-72 140.31,-72 140.31,-102 134.31,-108"/>
<polyline fill="none" stroke="black" points="134.31,-108 134.31,-102"/>
<polyline fill="none" stroke="black" points="140.31,-102 134.31,-102"/>
<text xml:space="preserve" text-anchor="middle" x="109.32" y="-86.4" font-family="Source Code Pro,monospace" font-size="12.00">evaluable</text>
</a>
</g>
</g>
<!-- evaluable&#45;&gt;reader -->
<g id="edge2" class="edge">
<title>evaluable&#45;&gt;reader</title>
<path fill="none" stroke="black" d="M116.49,-71.7C119.62,-64.15 123.36,-55.12 126.85,-46.68"/>
<polygon fill="black" stroke="black" points="130.06,-48.08 130.66,-37.5 123.59,-45.4 130.06,-48.08"/>
</g>
<!-- readable -->
<g id="node3" class="node">
<title>readable</title>
<g id="a_node3"><a xlink:href="PsyllaReference_Types.xhtml#PsyllaReference_Types_Details_readable" xlink:title="readable" target="_parent">
<polygon fill="linen" stroke="black" points="254.64,-108 204,-108 204,-72 260.64,-72 260.64,-102 254.64,-108"/>
<polyline fill="none" stroke="black" points="254.64,-108 254.64,-102"/>
<polyline fill="none" stroke="black" points="260.64,-102 254.64,-102"/>
<text xml:space="preserve" text-anchor="middle" x="232.32" y="-86.4" font-family="Source Code Pro,monospace" font-size="12.00">readable</text>
</a>
</g>
</g>
<!-- readable&#45;&gt;reader -->
<g id="edge3" class="edge">
<title>readable&#45;&gt;reader</title>
<path fill="none" stroke="black" d="M209.09,-71.7C197.45,-63.03 183.17,-52.4 170.5,-42.96"/>
<polygon fill="black" stroke="black" points="172.94,-40.42 162.83,-37.25 168.76,-46.03 172.94,-40.42"/>
</g>
<!-- resetable -->
<g id="node4" class="node">
<title>resetable</title>
<g id="a_node4"><a xlink:href="PsyllaReference_Types.xhtml#PsyllaReference_Types_Details_resetable" xlink:title="resetable" target="_parent">
<polygon fill="linen" stroke="black" points="185.64,-180 133,-180 133,-144 191.64,-144 191.64,-174 185.64,-180"/>
<polyline fill="none" stroke="black" points="185.64,-180 185.64,-174"/>
<polyline fill="none" stroke="black" points="191.64,-174 185.64,-174"/>
<text xml:space="preserve" text-anchor="middle" x="162.32" y="-158.4" font-family="Source Code Pro,monospace" font-size="12.00">resetable</text>
</a>
</g>
</g>
<!-- resetable&#45;&gt;reader -->
<g id="edge4" class="edge">
<title>resetable&#45;&gt;reader</title>
<path fill="none" stroke="black" d="M160.09,-143.56C157.71,-125.58 153.69,-96.76 149.32,-72 147.89,-63.92 146.16,-55.18 144.49,-47.18"/>
<polygon fill="black" stroke="black" points="147.97,-46.67 142.46,-37.62 141.12,-48.13 147.97,-46.67"/>
</g>
<!-- object -->
<g id="node6" class="node">
<title>object</title>
<g id="a_node6"><a xlink:href="PsyllaReference_Types.xhtml#PsyllaReference_Types_Details_object" xlink:title="object" target="_parent">
<polygon fill="linen" stroke="black" points="154.32,-252 106.32,-252 106.32,-216 160.32,-216 160.32,-246 154.32,-252"/>
<polyline fill="none" stroke="black" points="154.32,-252 154.32,-246"/>
<polyline fill="none" stroke="black" points="160.32,-246 154.32,-246"/>
<text xml:space="preserve" text-anchor="middle" x="133.32" y="-230.4" font-family="Source Code Pro,monospace" font-size="12.00">object</text>
</a>
</g>
</g>
<!-- object&#45;&gt;closeable -->
<g id="edge5" class="edge">
<title>object&#45;&gt;closeable</title>
<path fill="none" stroke="black" d="M120.69,-215.59C102.83,-190.97 70.07,-145.8 49.28,-117.14"/>
<polygon fill="black" stroke="black" points="52.33,-115.38 43.62,-109.34 46.66,-119.49 52.33,-115.38"/>
</g>
<!-- object&#45;&gt;evaluable -->
<g id="edge6" class="edge">
<title>object&#45;&gt;evaluable</title>
<path fill="none" stroke="black" d="M130.4,-215.82C128.63,-205.44 126.35,-191.96 124.32,-180 120.9,-159.79 117.06,-137 114.12,-119.53"/>
<polygon fill="black" stroke="black" points="117.61,-119.17 112.5,-109.89 110.71,-120.33 117.61,-119.17"/>
</g>
<!-- object&#45;&gt;resetable -->
<g id="edge8" class="edge">
<title>object&#45;&gt;resetable</title>
<path fill="none" stroke="black" d="M140.49,-215.7C143.62,-208.15 147.36,-199.12 150.85,-190.68"/>
<polygon fill="black" stroke="black" points="154.06,-192.08 154.66,-181.5 147.59,-189.4 154.06,-192.08"/>
</g>
<!-- ready -->
<g id="node7" class="node">
<title>ready</title>
<g id="a_node7"><a xlink:href="PsyllaReference_Types.xhtml#PsyllaReference_Types_Details_ready" xlink:title="ready" target="_parent">
<polygon fill="linen" stroke="black" points="257.32,-180 209.32,-180 209.32,-144 263.32,-144 263.32,-174 257.32,-180"/>
<polyline fill="none" stroke="black" points="257.32,-180 257.32,-174"/>
<polyline fill="none" stroke="black" points="263.32,-174 257.32,-174"/>
<text xml:space="preserve" text-anchor="middle" x="236.32" y="-158.4" font-family="Source Code Pro,monospace" font-size="12.00">ready</text>
</a>
</g>
</g>
<!-- object&#45;&gt;ready -->
<g id="edge9" class="edge">
<title>object&#45;&gt;ready</title>
<path fill="none" stroke="black" d="M159.05,-215.52C171.92,-206.76 187.7,-196.04 201.63,-186.58"/>
<polygon fill="black" stroke="black" points="203.37,-189.63 209.67,-181.11 199.43,-183.84 203.37,-189.63"/>
</g>
<!-- ready&#45;&gt;readable -->
<g id="edge7" class="edge">
<title>ready&#45;&gt;readable</title>
<path fill="none" stroke="black" d="M235.33,-143.7C234.92,-136.41 234.42,-127.73 233.95,-119.54"/>
<polygon fill="black" stroke="black" points="237.45,-119.4 233.39,-109.62 230.46,-119.8 237.45,-119.4"/>
</g>
</g>
</svg>
