<?xml version="1.0" encoding="UTF-8" standalone="no"?>
<!DOCTYPE svg PUBLIC "-//W3C//DTD SVG 1.1//EN"
 "http://www.w3.org/Graphics/SVG/1.1/DTD/svg11.dtd">
<!-- Generated by graphviz version 2.49.3 (0)
 -->
<!-- Title: reader Pages: 1 -->
<svg width="271pt" height="260pt"
 viewBox="0.00 0.00 271.32 260.00" xmlns="http://www.w3.org/2000/svg" xmlns:xlink="http://www.w3.org/1999/xlink">
<g id="graph0" class="graph" transform="scale(1 1) rotate(0) translate(4 256)">
<title>reader</title>
<polygon fill="transparent" stroke="transparent" points="-4,4 -4,-256 267.32,-256 267.32,4 -4,4"/>
<!-- closeable -->
<g id="node1" class="node">
<title>closeable</title>
<g id="a_node1"><a xlink:href="PsyllaReference_Types.xhtml#PsyllaReference_Types_Details_closeable" xlink:title="closeable" target="_parent">
<polygon fill="linen" stroke="black" points="54.47,-108 0.18,-108 0.18,-72 60.47,-72 60.47,-102 54.47,-108"/>
<polyline fill="none" stroke="black" points="54.47,-108 54.47,-102 "/>
<polyline fill="none" stroke="black" points="60.47,-102 54.47,-102 "/>
<text text-anchor="middle" x="30.32" y="-86.4" font-family="Source Code Pro,monospace" font-size="12.00">closeable</text>
</a>
</g>
</g>
<!-- reader -->
<g id="node5" class="node">
<title>reader</title>
<g id="a_node5"><a xlink:href="PsyllaReference_Types.xhtml#PsyllaReference_Types_Details_reader" xlink:title="reader" target="_parent">
<polygon fill="wheat" stroke="black" points="159.32,-36 111.32,-36 111.32,0 165.32,0 165.32,-30 159.32,-36"/>
<polyline fill="none" stroke="black" points="159.32,-36 159.32,-30 "/>
<polyline fill="none" stroke="black" points="165.32,-30 159.32,-30 "/>
<text text-anchor="middle" x="138.32" y="-14.4" font-family="Source Code Pro,monospace" font-size="12.00">reader</text>
</a>
</g>
</g>
<!-- closeable&#45;&gt;reader -->
<g id="edge1" class="edge">
<title>closeable&#45;&gt;reader</title>
<path fill="none" stroke="black" d="M56.74,-71.88C70.73,-62.81 88.1,-51.55 103.21,-41.76"/>
<polygon fill="black" stroke="black" points="105.31,-44.57 111.8,-36.19 101.51,-38.69 105.31,-44.57"/>
</g>
<!-- evaluable -->
<g id="node2" class="node">
<title>evaluable</title>
<g id="a_node2"><a xlink:href="PsyllaReference_Types.xhtml#PsyllaReference_Types_Details_evaluable" xlink:title="evaluable" target="_parent">
<polygon fill="linen" stroke="black" points="134.3,-108 78.34,-108 78.34,-72 140.3,-72 140.3,-102 134.3,-108"/>
<polyline fill="none" stroke="black" points="134.3,-108 134.3,-102 "/>
<polyline fill="none" stroke="black" points="140.3,-102 134.3,-102 "/>
<text text-anchor="middle" x="109.32" y="-86.4" font-family="Source Code Pro,monospace" font-size="12.00">evaluable</text>
</a>
</g>
</g>
<!-- evaluable&#45;&gt;reader -->
<g id="edge2" class="edge">
<title>evaluable&#45;&gt;reader</title>
<path fill="none" stroke="black" d="M116.49,-71.7C119.76,-63.81 123.7,-54.3 127.32,-45.55"/>
<polygon fill="black" stroke="black" points="130.64,-46.68 131.24,-36.1 124.17,-44 130.64,-46.68"/>
</g>
<!-- readable -->
<g id="node3" class="node">
<title>readable</title>
<g id="a_node3"><a xlink:href="PsyllaReference_Types.xhtml#PsyllaReference_Types_Details_readable" xlink:title="readable" target="_parent">
<polygon fill="linen" stroke="black" points="254.46,-108 204.18,-108 204.18,-72 260.46,-72 260.46,-102 254.46,-108"/>
<polyline fill="none" stroke="black" points="254.46,-108 254.46,-102 "/>
<polyline fill="none" stroke="black" points="260.46,-102 254.46,-102 "/>
<text text-anchor="middle" x="232.32" y="-86.4" font-family="Source Code Pro,monospace" font-size="12.00">readable</text>
</a>
</g>
</g>
<!-- readable&#45;&gt;reader -->
<g id="edge3" class="edge">
<title>readable&#45;&gt;reader</title>
<path fill="none" stroke="black" d="M209.09,-71.7C197.13,-62.8 182.4,-51.82 169.47,-42.2"/>
<polygon fill="black" stroke="black" points="171.4,-39.27 161.29,-36.1 167.22,-44.88 171.4,-39.27"/>
</g>
<!-- resetable -->
<g id="node4" class="node">
<title>resetable</title>
<g id="a_node4"><a xlink:href="PsyllaReference_Types.xhtml#PsyllaReference_Types_Details_resetable" xlink:title="resetable" target="_parent">
<polygon fill="linen" stroke="black" points="185.46,-180 133.18,-180 133.18,-144 191.46,-144 191.46,-174 185.46,-180"/>
<polyline fill="none" stroke="black" points="185.46,-180 185.46,-174 "/>
<polyline fill="none" stroke="black" points="191.46,-174 185.46,-174 "/>
<text text-anchor="middle" x="162.32" y="-158.4" font-family="Source Code Pro,monospace" font-size="12.00">resetable</text>
</a>
</g>
</g>
<!-- resetable&#45;&gt;reader -->
<g id="edge4" class="edge">
<title>resetable&#45;&gt;reader</title>
<path fill="none" stroke="black" d="M160.13,-143.89C157.76,-125.93 153.72,-96.91 149.32,-72 147.83,-63.54 146,-54.37 144.26,-46.06"/>
<polygon fill="black" stroke="black" points="147.65,-45.19 142.15,-36.14 140.81,-46.65 147.65,-45.19"/>
</g>
<!-- object -->
<g id="node6" class="node">
<title>object</title>
<g id="a_node6"><a xlink:href="PsyllaReference_Types.xhtml#PsyllaReference_Types_Details_object" xlink:title="object" target="_parent">
<polygon fill="linen" stroke="black" points="154.32,-252 106.32,-252 106.32,-216 160.32,-216 160.32,-246 154.32,-252"/>
<polyline fill="none" stroke="black" points="154.32,-252 154.32,-246 "/>
<polyline fill="none" stroke="black" points="160.32,-246 154.32,-246 "/>
<text text-anchor="middle" x="133.32" y="-230.4" font-family="Source Code Pro,monospace" font-size="12.00">object</text>
</a>
</g>
</g>
<!-- object&#45;&gt;closeable -->
<g id="edge5" class="edge">
<title>object&#45;&gt;closeable</title>
<path fill="none" stroke="black" d="M120.9,-215.87C102.96,-191.14 69.67,-145.24 48.83,-116.51"/>
<polygon fill="black" stroke="black" points="51.49,-114.23 42.79,-108.19 45.83,-118.34 51.49,-114.23"/>
</g>
<!-- object&#45;&gt;evaluable -->
<g id="edge6" class="edge">
<title>object&#45;&gt;evaluable</title>
<path fill="none" stroke="black" d="M130.4,-215.82C128.63,-205.44 126.35,-191.96 124.32,-180 120.82,-159.27 116.86,-135.83 113.9,-118.21"/>
<polygon fill="black" stroke="black" points="117.3,-117.34 112.19,-108.06 110.4,-118.51 117.3,-117.34"/>
</g>
<!-- object&#45;&gt;resetable -->
<g id="edge8" class="edge">
<title>object&#45;&gt;resetable</title>
<path fill="none" stroke="black" d="M140.49,-215.7C143.76,-207.81 147.7,-198.3 151.32,-189.55"/>
<polygon fill="black" stroke="black" points="154.64,-190.68 155.24,-180.1 148.17,-188 154.64,-190.68"/>
</g>
<!-- ready -->
<g id="node7" class="node">
<title>ready</title>
<g id="a_node7"><a xlink:href="PsyllaReference_Types.xhtml#PsyllaReference_Types_Details_ready" xlink:title="ready" target="_parent">
<polygon fill="linen" stroke="black" points="257.32,-180 209.32,-180 209.32,-144 263.32,-144 263.32,-174 257.32,-180"/>
<polyline fill="none" stroke="black" points="257.32,-180 257.32,-174 "/>
<polyline fill="none" stroke="black" points="263.32,-174 257.32,-174 "/>
<text text-anchor="middle" x="236.32" y="-158.4" font-family="Source Code Pro,monospace" font-size="12.00">ready</text>
</a>
</g>
</g>
<!-- object&#45;&gt;ready -->
<g id="edge9" class="edge">
<title>object&#45;&gt;ready</title>
<path fill="none" stroke="black" d="M158.52,-215.88C171.74,-206.89 188.11,-195.76 202.43,-186.03"/>
<polygon fill="black" stroke="black" points="204.72,-188.71 211.03,-180.19 200.79,-182.92 204.72,-188.71"/>
</g>
<!-- ready&#45;&gt;readable -->
<g id="edge7" class="edge">
<title>ready&#45;&gt;readable</title>
<path fill="none" stroke="black" d="M235.33,-143.7C234.89,-135.98 234.36,-126.71 233.87,-118.11"/>
<polygon fill="black" stroke="black" points="237.36,-117.89 233.3,-108.1 230.38,-118.29 237.36,-117.89"/>
</g>
</g>
</svg>
