<?xml version="1.0" encoding="UTF-8" standalone="no"?>
<!DOCTYPE svg PUBLIC "-//W3C//DTD SVG 1.1//EN"
 "http://www.w3.org/Graphics/SVG/1.1/DTD/svg11.dtd">
<!-- Generated by graphviz version 2.43.0 (0)
 -->
<!-- Title: numeric Pages: 1 -->
<svg width="180pt" height="260pt"
 viewBox="0.00 0.00 180.00 260.00" xmlns="http://www.w3.org/2000/svg" xmlns:xlink="http://www.w3.org/1999/xlink">
<g id="graph0" class="graph" transform="scale(1 1) rotate(0) translate(4 256)">
<title>numeric</title>
<polygon fill="transparent" stroke="transparent" points="-4,4 -4,-256 176,-256 176,4 -4,4"/>
<!-- atomic -->
<g id="node1" class="node">
<title>atomic</title>
<g id="a_node1"><a xlink:href="PsyllaReference_Types.xhtml#PsyllaReference_Types_Details_atomic" xlink:title="atomic" target="_parent">
<polygon fill="linen" stroke="black" points="56,-108 0,-108 0,-72 62,-72 62,-102 56,-108"/>
<polyline fill="none" stroke="black" points="56,-108 56,-102 "/>
<polyline fill="none" stroke="black" points="62,-102 56,-102 "/>
<text text-anchor="middle" x="31" y="-86.9" font-family="Consolas, monospace" font-size="12.00">atomic</text>
</a>
</g>
</g>
<!-- numeric -->
<g id="node3" class="node">
<title>numeric</title>
<g id="a_node3"><a xlink:href="PsyllaReference_Types.xhtml#PsyllaReference_Types_Details_numeric" xlink:title="numeric" target="_parent">
<polygon fill="wheat" stroke="black" points="106.5,-36 43.5,-36 43.5,0 112.5,0 112.5,-30 106.5,-36"/>
<polyline fill="none" stroke="black" points="106.5,-36 106.5,-30 "/>
<polyline fill="none" stroke="black" points="112.5,-30 106.5,-30 "/>
<text text-anchor="middle" x="78" y="-14.9" font-family="Consolas, monospace" font-size="12.00">numeric</text>
</a>
</g>
</g>
<!-- atomic&#45;&gt;numeric -->
<g id="edge1" class="edge">
<title>atomic&#45;&gt;numeric</title>
<path fill="none" stroke="black" d="M42.62,-71.7C48.14,-63.47 54.85,-53.48 60.93,-44.42"/>
<polygon fill="black" stroke="black" points="63.85,-46.36 66.52,-36.1 58.04,-42.46 63.85,-46.36"/>
</g>
<!-- arithmetic -->
<g id="node2" class="node">
<title>arithmetic</title>
<g id="a_node2"><a xlink:href="PsyllaReference_Types.xhtml#PsyllaReference_Types_Details_arithmetic" xlink:title="arithmetic" target="_parent">
<polygon fill="linen" stroke="black" points="166,-108 80,-108 80,-72 172,-72 172,-102 166,-108"/>
<polyline fill="none" stroke="black" points="166,-108 166,-102 "/>
<polyline fill="none" stroke="black" points="172,-102 166,-102 "/>
<text text-anchor="middle" x="126" y="-86.9" font-family="Consolas, monospace" font-size="12.00">arithmetic</text>
</a>
</g>
</g>
<!-- arithmetic&#45;&gt;numeric -->
<g id="edge2" class="edge">
<title>arithmetic&#45;&gt;numeric</title>
<path fill="none" stroke="black" d="M114.13,-71.7C108.5,-63.47 101.65,-53.48 95.43,-44.42"/>
<polygon fill="black" stroke="black" points="98.27,-42.37 89.73,-36.1 92.5,-46.33 98.27,-42.37"/>
</g>
<!-- object -->
<g id="node4" class="node">
<title>object</title>
<g id="a_node4"><a xlink:href="PsyllaReference_Types.xhtml#PsyllaReference_Types_Details_object" xlink:title="object" target="_parent">
<polygon fill="linen" stroke="black" points="103,-252 47,-252 47,-216 109,-216 109,-246 103,-252"/>
<polyline fill="none" stroke="black" points="103,-252 103,-246 "/>
<polyline fill="none" stroke="black" points="109,-246 103,-246 "/>
<text text-anchor="middle" x="78" y="-230.9" font-family="Consolas, monospace" font-size="12.00">object</text>
</a>
</g>
</g>
<!-- object&#45;&gt;atomic -->
<g id="edge3" class="edge">
<title>object&#45;&gt;atomic</title>
<path fill="none" stroke="black" d="M72.33,-215.87C64.29,-191.56 49.48,-146.82 39.94,-118.01"/>
<polygon fill="black" stroke="black" points="43.15,-116.58 36.69,-108.19 36.51,-118.78 43.15,-116.58"/>
</g>
<!-- additive -->
<g id="node5" class="node">
<title>additive</title>
<g id="a_node5"><a xlink:href="PsyllaReference_Types.xhtml#PsyllaReference_Types_Details_additive" xlink:title="additive" target="_parent">
<polygon fill="linen" stroke="black" points="151.5,-180 80.5,-180 80.5,-144 157.5,-144 157.5,-174 151.5,-180"/>
<polyline fill="none" stroke="black" points="151.5,-180 151.5,-174 "/>
<polyline fill="none" stroke="black" points="157.5,-174 151.5,-174 "/>
<text text-anchor="middle" x="119" y="-158.9" font-family="Consolas, monospace" font-size="12.00">additive</text>
</a>
</g>
</g>
<!-- object&#45;&gt;additive -->
<g id="edge5" class="edge">
<title>object&#45;&gt;additive</title>
<path fill="none" stroke="black" d="M88.13,-215.7C92.85,-207.64 98.56,-197.89 103.78,-188.98"/>
<polygon fill="black" stroke="black" points="106.95,-190.5 108.98,-180.1 100.91,-186.96 106.95,-190.5"/>
</g>
<!-- additive&#45;&gt;arithmetic -->
<g id="edge4" class="edge">
<title>additive&#45;&gt;arithmetic</title>
<path fill="none" stroke="black" d="M120.73,-143.7C121.5,-135.98 122.43,-126.71 123.29,-118.11"/>
<polygon fill="black" stroke="black" points="126.78,-118.4 124.29,-108.1 119.81,-117.71 126.78,-118.4"/>
</g>
</g>
</svg>
