<?xml version="1.0" encoding="UTF-8" standalone="no"?>
<!DOCTYPE svg PUBLIC "-//W3C//DTD SVG 1.1//EN"
 "http://www.w3.org/Graphics/SVG/1.1/DTD/svg11.dtd">
<!-- Generated by graphviz version 2.43.0 (0)
 -->
<!-- Title: formalset Pages: 1 -->
<svg width="458pt" height="404pt"
 viewBox="0.00 0.00 458.00 404.00" xmlns="http://www.w3.org/2000/svg" xmlns:xlink="http://www.w3.org/1999/xlink">
<g id="graph0" class="graph" transform="scale(1 1) rotate(0) translate(4 400)">
<title>formalset</title>
<polygon fill="transparent" stroke="transparent" points="-4,4 -4,-400 454,-400 454,4 -4,4"/>
<!-- appendable -->
<g id="node1" class="node">
<title>appendable</title>
<g id="a_node1"><a xlink:href="PsyllaReference_Types.xhtml#PsyllaReference_Types_Details_appendable" xlink:title="appendable" target="_parent">
<polygon fill="linen" stroke="black" points="131,-252 0,-252 0,-216 137,-216 137,-246 131,-252"/>
<polyline fill="none" stroke="black" points="131,-252 131,-246 "/>
<polyline fill="none" stroke="black" points="137,-246 131,-246 "/>
<text text-anchor="middle" x="68.5" y="-229" font-family="PT Mono, monospace" font-size="20.00">appendable</text>
</a>
</g>
</g>
<!-- formalset -->
<g id="node3" class="node">
<title>formalset</title>
<g id="a_node3"><a xlink:href="PsyllaReference_Types.xhtml#PsyllaReference_Types_Details_formalset" xlink:title="formalset" target="_parent">
<polygon fill="wheat" stroke="black" points="172,-36 53,-36 53,0 178,0 178,-30 172,-36"/>
<polyline fill="none" stroke="black" points="172,-36 172,-30 "/>
<polyline fill="none" stroke="black" points="178,-30 172,-30 "/>
<text text-anchor="middle" x="115.5" y="-13" font-family="PT Mono, monospace" font-size="20.00">formalset</text>
</a>
</g>
</g>
<!-- appendable&#45;&gt;formalset -->
<g id="edge1" class="edge">
<title>appendable&#45;&gt;formalset</title>
<path fill="none" stroke="black" d="M72.27,-215.85C80.41,-178.75 99.73,-90.81 109.55,-46.1"/>
<polygon fill="black" stroke="black" points="112.99,-46.75 111.72,-36.23 106.15,-45.25 112.99,-46.75"/>
</g>
<!-- container -->
<g id="node2" class="node">
<title>container</title>
<g id="a_node2"><a xlink:href="PsyllaReference_Types.xhtml#PsyllaReference_Types_Details_container" xlink:title="container" target="_parent">
<polygon fill="linen" stroke="black" points="263,-108 144,-108 144,-72 269,-72 269,-102 263,-108"/>
<polyline fill="none" stroke="black" points="263,-108 263,-102 "/>
<polyline fill="none" stroke="black" points="269,-102 263,-102 "/>
<text text-anchor="middle" x="206.5" y="-85" font-family="PT Mono, monospace" font-size="20.00">container</text>
</a>
</g>
</g>
<!-- container&#45;&gt;formalset -->
<g id="edge2" class="edge">
<title>container&#45;&gt;formalset</title>
<path fill="none" stroke="black" d="M184.01,-71.7C172.54,-62.88 158.44,-52.03 146.02,-42.47"/>
<polygon fill="black" stroke="black" points="147.8,-39.43 137.74,-36.1 143.53,-44.98 147.8,-39.43"/>
</g>
<!-- object -->
<g id="node4" class="node">
<title>object</title>
<g id="a_node4"><a xlink:href="PsyllaReference_Types.xhtml#PsyllaReference_Types_Details_object" xlink:title="object" target="_parent">
<polygon fill="linen" stroke="black" points="243,-396 160,-396 160,-360 249,-360 249,-390 243,-396"/>
<polyline fill="none" stroke="black" points="243,-396 243,-390 "/>
<polyline fill="none" stroke="black" points="249,-390 243,-390 "/>
<text text-anchor="middle" x="204.5" y="-373" font-family="PT Mono, monospace" font-size="20.00">object</text>
</a>
</g>
</g>
<!-- object&#45;&gt;appendable -->
<g id="edge3" class="edge">
<title>object&#45;&gt;appendable</title>
<path fill="none" stroke="black" d="M187.16,-359.96C176.74,-349.65 163.25,-336.17 151.5,-324 130.88,-302.65 107.9,-277.93 91.35,-259.97"/>
<polygon fill="black" stroke="black" points="93.58,-257.22 84.24,-252.23 88.43,-261.96 93.58,-257.22"/>
</g>
<!-- clearable -->
<g id="node5" class="node">
<title>clearable</title>
<g id="a_node5"><a xlink:href="PsyllaReference_Types.xhtml#PsyllaReference_Types_Details_clearable" xlink:title="clearable" target="_parent">
<polygon fill="linen" stroke="black" points="219,-180 100,-180 100,-144 225,-144 225,-174 219,-180"/>
<polyline fill="none" stroke="black" points="219,-180 219,-174 "/>
<polyline fill="none" stroke="black" points="225,-174 219,-174 "/>
<text text-anchor="middle" x="162.5" y="-157" font-family="PT Mono, monospace" font-size="20.00">clearable</text>
</a>
</g>
</g>
<!-- object&#45;&gt;clearable -->
<g id="edge7" class="edge">
<title>object&#45;&gt;clearable</title>
<path fill="none" stroke="black" d="M196.82,-359.65C192.59,-349.45 187.59,-336.2 184.5,-324 172.79,-277.81 166.95,-222.49 164.34,-190.19"/>
<polygon fill="black" stroke="black" points="167.83,-189.87 163.57,-180.16 160.85,-190.4 167.83,-189.87"/>
</g>
<!-- lengthy -->
<g id="node7" class="node">
<title>lengthy</title>
<g id="a_node7"><a xlink:href="PsyllaReference_Types.xhtml#PsyllaReference_Types_Details_lengthy" xlink:title="lengthy" target="_parent">
<polygon fill="linen" stroke="black" points="289,-324 194,-324 194,-288 295,-288 295,-318 289,-324"/>
<polyline fill="none" stroke="black" points="289,-324 289,-318 "/>
<polyline fill="none" stroke="black" points="295,-318 289,-318 "/>
<text text-anchor="middle" x="244.5" y="-301" font-family="PT Mono, monospace" font-size="20.00">lengthy</text>
</a>
</g>
</g>
<!-- object&#45;&gt;lengthy -->
<g id="edge9" class="edge">
<title>object&#45;&gt;lengthy</title>
<path fill="none" stroke="black" d="M214.39,-359.7C218.99,-351.64 224.56,-341.89 229.65,-332.98"/>
<polygon fill="black" stroke="black" points="232.8,-334.52 234.73,-324.1 226.73,-331.05 232.8,-334.52"/>
</g>
<!-- sequential -->
<g id="node9" class="node">
<title>sequential</title>
<g id="a_node9"><a xlink:href="PsyllaReference_Types.xhtml#PsyllaReference_Types_Details_sequential" xlink:title="sequential" target="_parent">
<polygon fill="linen" stroke="black" points="444,-324 313,-324 313,-288 450,-288 450,-318 444,-324"/>
<polyline fill="none" stroke="black" points="444,-324 444,-318 "/>
<polyline fill="none" stroke="black" points="450,-318 444,-318 "/>
<text text-anchor="middle" x="381.5" y="-301" font-family="PT Mono, monospace" font-size="20.00">sequential</text>
</a>
</g>
</g>
<!-- object&#45;&gt;sequential -->
<g id="edge11" class="edge">
<title>object&#45;&gt;sequential</title>
<path fill="none" stroke="black" d="M247.8,-359.88C272.21,-350.22 302.9,-338.09 328.71,-327.88"/>
<polygon fill="black" stroke="black" points="330.33,-331 338.34,-324.07 327.76,-324.49 330.33,-331"/>
</g>
<!-- clearable&#45;&gt;container -->
<g id="edge4" class="edge">
<title>clearable&#45;&gt;container</title>
<path fill="none" stroke="black" d="M173.38,-143.7C178.49,-135.56 184.7,-125.69 190.34,-116.7"/>
<polygon fill="black" stroke="black" points="193.39,-118.43 195.75,-108.1 187.46,-114.71 193.39,-118.43"/>
</g>
<!-- iterable -->
<g id="node6" class="node">
<title>iterable</title>
<g id="a_node6"><a xlink:href="PsyllaReference_Types.xhtml#PsyllaReference_Types_Details_iterable" xlink:title="iterable" target="_parent">
<polygon fill="linen" stroke="black" points="403,-180 296,-180 296,-144 409,-144 409,-174 403,-180"/>
<polyline fill="none" stroke="black" points="403,-180 403,-174 "/>
<polyline fill="none" stroke="black" points="409,-174 403,-174 "/>
<text text-anchor="middle" x="352.5" y="-157" font-family="PT Mono, monospace" font-size="20.00">iterable</text>
</a>
</g>
</g>
<!-- iterable&#45;&gt;container -->
<g id="edge5" class="edge">
<title>iterable&#45;&gt;container</title>
<path fill="none" stroke="black" d="M316.78,-143.88C297,-134.39 272.23,-122.51 251.17,-112.42"/>
<polygon fill="black" stroke="black" points="252.63,-109.24 242.1,-108.07 249.6,-115.55 252.63,-109.24"/>
</g>
<!-- lengthy&#45;&gt;container -->
<g id="edge6" class="edge">
<title>lengthy&#45;&gt;container</title>
<path fill="none" stroke="black" d="M245.55,-287.7C246.89,-257.8 247.53,-194.77 233.5,-144 230.98,-134.89 226.81,-125.52 222.49,-117.23"/>
<polygon fill="black" stroke="black" points="225.53,-115.49 217.63,-108.42 219.4,-118.87 225.53,-115.49"/>
</g>
<!-- streamable -->
<g id="node8" class="node">
<title>streamable</title>
<g id="a_node8"><a xlink:href="PsyllaReference_Types.xhtml#PsyllaReference_Types_Details_streamable" xlink:title="streamable" target="_parent">
<polygon fill="linen" stroke="black" points="428,-252 297,-252 297,-216 434,-216 434,-246 428,-252"/>
<polyline fill="none" stroke="black" points="428,-252 428,-246 "/>
<polyline fill="none" stroke="black" points="434,-246 428,-246 "/>
<text text-anchor="middle" x="365.5" y="-229" font-family="PT Mono, monospace" font-size="20.00">streamable</text>
</a>
</g>
</g>
<!-- streamable&#45;&gt;iterable -->
<g id="edge8" class="edge">
<title>streamable&#45;&gt;iterable</title>
<path fill="none" stroke="black" d="M362.29,-215.7C360.85,-207.98 359.13,-198.71 357.54,-190.11"/>
<polygon fill="black" stroke="black" points="360.94,-189.3 355.68,-180.1 354.06,-190.58 360.94,-189.3"/>
</g>
<!-- sequential&#45;&gt;streamable -->
<g id="edge10" class="edge">
<title>sequential&#45;&gt;streamable</title>
<path fill="none" stroke="black" d="M377.54,-287.7C375.78,-279.98 373.66,-270.71 371.7,-262.11"/>
<polygon fill="black" stroke="black" points="375.05,-261.07 369.41,-252.1 368.23,-262.63 375.05,-261.07"/>
</g>
</g>
</svg>
