<?xml version="1.0" encoding="UTF-8" standalone="no"?>
<!DOCTYPE svg PUBLIC "-//W3C//DTD SVG 1.1//EN"
 "http://www.w3.org/Graphics/SVG/1.1/DTD/svg11.dtd">
<!-- Generated by graphviz version 14.0.0 (0)
 -->
<!-- Title: complex Pages: 1 -->
<svg width="218pt" height="332pt"
 viewBox="0.00 0.00 218.00 332.00" xmlns="http://www.w3.org/2000/svg" xmlns:xlink="http://www.w3.org/1999/xlink">
<g id="graph0" class="graph" transform="scale(1 1) rotate(0) translate(4 328)">
<title>complex</title>
<polygon fill="none" stroke="none" points="-4,4 -4,-328 214.33,-328 214.33,4 -4,4"/>
<!-- numeric -->
<g id="node1" class="node">
<title>numeric</title>
<g id="a_node1"><a xlink:href="PsyllaReference_Types.xhtml#PsyllaReference_Types_Details_numeric" xlink:title="numeric" target="_parent">
<polygon fill="linen" stroke="black" points="86.66,-108 37.34,-108 37.34,-72 92.66,-72 92.66,-102 86.66,-108"/>
<polyline fill="none" stroke="black" points="86.66,-108 86.66,-102"/>
<polyline fill="none" stroke="black" points="92.66,-102 86.66,-102"/>
<text xml:space="preserve" text-anchor="middle" x="65" y="-86.4" font-family="Source Code Pro,monospace" font-size="12.00">numeric</text>
</a>
</g>
</g>
<!-- complex -->
<g id="node2" class="node">
<title>complex</title>
<g id="a_node2"><a xlink:href="PsyllaReference_Types.xhtml#PsyllaReference_Types_Details_complex" xlink:title="complex" target="_parent">
<polygon fill="wheat" stroke="black" points="87.66,-36 36.34,-36 36.34,0 93.66,0 93.66,-30 87.66,-36"/>
<polyline fill="none" stroke="black" points="87.66,-36 87.66,-30"/>
<polyline fill="none" stroke="black" points="93.66,-30 87.66,-30"/>
<text xml:space="preserve" text-anchor="middle" x="65" y="-14.4" font-family="Source Code Pro,monospace" font-size="12.00">complex</text>
</a>
</g>
</g>
<!-- numeric&#45;&gt;complex -->
<g id="edge1" class="edge">
<title>numeric&#45;&gt;complex</title>
<path fill="none" stroke="black" d="M65,-71.7C65,-64.41 65,-55.73 65,-47.54"/>
<polygon fill="black" stroke="black" points="68.5,-47.62 65,-37.62 61.5,-47.62 68.5,-47.62"/>
</g>
<!-- arithmetic -->
<g id="node3" class="node">
<title>arithmetic</title>
<g id="a_node3"><a xlink:href="PsyllaReference_Types.xhtml#PsyllaReference_Types_Details_arithmetic" xlink:title="arithmetic" target="_parent">
<polygon fill="linen" stroke="black" points="130.32,-180 71.68,-180 71.68,-144 136.32,-144 136.32,-174 130.32,-180"/>
<polyline fill="none" stroke="black" points="130.32,-180 130.32,-174"/>
<polyline fill="none" stroke="black" points="136.32,-174 130.32,-174"/>
<text xml:space="preserve" text-anchor="middle" x="104" y="-158.4" font-family="Source Code Pro,monospace" font-size="12.00">arithmetic</text>
</a>
</g>
</g>
<!-- arithmetic&#45;&gt;numeric -->
<g id="edge2" class="edge">
<title>arithmetic&#45;&gt;numeric</title>
<path fill="none" stroke="black" d="M94.36,-143.7C90.06,-135.98 84.9,-126.71 80.11,-118.11"/>
<polygon fill="black" stroke="black" points="83.19,-116.46 75.27,-109.43 77.08,-119.87 83.19,-116.46"/>
</g>
<!-- value -->
<g id="node4" class="node">
<title>value</title>
<g id="a_node4"><a xlink:href="PsyllaReference_Types.xhtml#PsyllaReference_Types_Details_value" xlink:title="value" target="_parent">
<polygon fill="linen" stroke="black" points="48,-180 0,-180 0,-144 54,-144 54,-174 48,-180"/>
<polyline fill="none" stroke="black" points="48,-180 48,-174"/>
<polyline fill="none" stroke="black" points="54,-174 48,-174"/>
<text xml:space="preserve" text-anchor="middle" x="27" y="-158.4" font-family="Source Code Pro,monospace" font-size="12.00">value</text>
</a>
</g>
</g>
<!-- value&#45;&gt;numeric -->
<g id="edge3" class="edge">
<title>value&#45;&gt;numeric</title>
<path fill="none" stroke="black" d="M36.39,-143.7C40.58,-135.98 45.61,-126.71 50.28,-118.11"/>
<polygon fill="black" stroke="black" points="53.3,-119.89 54.99,-109.43 47.15,-116.55 53.3,-119.89"/>
</g>
<!-- additive -->
<g id="node5" class="node">
<title>additive</title>
<g id="a_node5"><a xlink:href="PsyllaReference_Types.xhtml#PsyllaReference_Types_Details_additive" xlink:title="additive" target="_parent">
<polygon fill="linen" stroke="black" points="103.33,-252 54.67,-252 54.67,-216 109.33,-216 109.33,-246 103.33,-252"/>
<polyline fill="none" stroke="black" points="103.33,-252 103.33,-246"/>
<polyline fill="none" stroke="black" points="109.33,-246 103.33,-246"/>
<text xml:space="preserve" text-anchor="middle" x="82" y="-230.4" font-family="Source Code Pro,monospace" font-size="12.00">additive</text>
</a>
</g>
</g>
<!-- additive&#45;&gt;arithmetic -->
<g id="edge4" class="edge">
<title>additive&#45;&gt;arithmetic</title>
<path fill="none" stroke="black" d="M87.44,-215.7C89.78,-208.24 92.58,-199.32 95.21,-190.97"/>
<polygon fill="black" stroke="black" points="98.51,-192.14 98.17,-181.55 91.83,-190.04 98.51,-192.14"/>
</g>
<!-- multiplicative -->
<g id="node6" class="node">
<title>multiplicative</title>
<g id="a_node6"><a xlink:href="PsyllaReference_Types.xhtml#PsyllaReference_Types_Details_multiplicative" xlink:title="multiplicative" target="_parent">
<polygon fill="linen" stroke="black" points="204.33,-252 127.67,-252 127.67,-216 210.33,-216 210.33,-246 204.33,-252"/>
<polyline fill="none" stroke="black" points="204.33,-252 204.33,-246"/>
<polyline fill="none" stroke="black" points="210.33,-246 204.33,-246"/>
<text xml:space="preserve" text-anchor="middle" x="169" y="-230.4" font-family="Source Code Pro,monospace" font-size="12.00">multiplicative</text>
</a>
</g>
</g>
<!-- multiplicative&#45;&gt;arithmetic -->
<g id="edge5" class="edge">
<title>multiplicative&#45;&gt;arithmetic</title>
<path fill="none" stroke="black" d="M152.93,-215.7C145.3,-207.47 136.02,-197.48 127.6,-188.42"/>
<polygon fill="black" stroke="black" points="130.28,-186.16 120.91,-181.21 125.15,-190.92 130.28,-186.16"/>
</g>
<!-- object -->
<g id="node7" class="node">
<title>object</title>
<g id="a_node7"><a xlink:href="PsyllaReference_Types.xhtml#PsyllaReference_Types_Details_object" xlink:title="object" target="_parent">
<polygon fill="linen" stroke="black" points="103,-324 55,-324 55,-288 109,-288 109,-318 103,-324"/>
<polyline fill="none" stroke="black" points="103,-324 103,-318"/>
<polyline fill="none" stroke="black" points="109,-318 103,-318"/>
<text xml:space="preserve" text-anchor="middle" x="82" y="-302.4" font-family="Source Code Pro,monospace" font-size="12.00">object</text>
</a>
</g>
</g>
<!-- object&#45;&gt;value -->
<g id="edge6" class="edge">
<title>object&#45;&gt;value</title>
<path fill="none" stroke="black" d="M67.84,-287.85C60.31,-277.93 51.5,-264.89 46,-252 37.74,-232.66 32.94,-209.38 30.23,-191.48"/>
<polygon fill="black" stroke="black" points="33.73,-191.26 28.9,-181.83 26.79,-192.21 33.73,-191.26"/>
</g>
<!-- object&#45;&gt;additive -->
<g id="edge7" class="edge">
<title>object&#45;&gt;additive</title>
<path fill="none" stroke="black" d="M82,-287.7C82,-280.41 82,-271.73 82,-263.54"/>
<polygon fill="black" stroke="black" points="85.5,-263.62 82,-253.62 78.5,-263.62 85.5,-263.62"/>
</g>
<!-- object&#45;&gt;multiplicative -->
<g id="edge8" class="edge">
<title>object&#45;&gt;multiplicative</title>
<path fill="none" stroke="black" d="M103.51,-287.7C114.07,-279.2 126.98,-268.81 138.53,-259.51"/>
<polygon fill="black" stroke="black" points="140.66,-262.29 146.26,-253.3 136.28,-256.84 140.66,-262.29"/>
</g>
</g>
</svg>
