<?xml version="1.0" encoding="UTF-8" standalone="no"?>
<!DOCTYPE svg PUBLIC "-//W3C//DTD SVG 1.1//EN"
 "http://www.w3.org/Graphics/SVG/1.1/DTD/svg11.dtd">
<!-- Generated by graphviz version 2.43.0 (0)
 -->
<!-- Title: dict Pages: 1 -->
<svg width="338pt" height="476pt"
 viewBox="0.00 0.00 338.00 476.00" xmlns="http://www.w3.org/2000/svg" xmlns:xlink="http://www.w3.org/1999/xlink">
<g id="graph0" class="graph" transform="scale(1 1) rotate(0) translate(4 472)">
<title>dict</title>
<polygon fill="transparent" stroke="transparent" points="-4,4 -4,-472 334,-472 334,4 -4,4"/>
<!-- formaldict -->
<g id="node1" class="node">
<title>formaldict</title>
<g id="a_node1"><a xlink:href="PsyllaReference_Types.xhtml#PsyllaReference_Types_Details_formaldict" xlink:title="formaldict" target="_parent">
<polygon fill="linen" stroke="black" points="120,-108 49,-108 49,-72 126,-72 126,-102 120,-108"/>
<polyline fill="none" stroke="black" points="120,-108 120,-102 "/>
<polyline fill="none" stroke="black" points="126,-102 120,-102 "/>
<text text-anchor="middle" x="87.5" y="-87.5" font-family="PT Mono, monospace" font-size="10.00">formaldict</text>
</a>
</g>
</g>
<!-- dict -->
<g id="node2" class="node">
<title>dict</title>
<g id="a_node2"><a xlink:href="PsyllaReference_Types.xhtml#PsyllaReference_Types_Details_dict" xlink:title="dict" target="_parent">
<polygon fill="wheat" stroke="black" points="108.5,-36 60.5,-36 60.5,0 114.5,0 114.5,-30 108.5,-36"/>
<polyline fill="none" stroke="black" points="108.5,-36 108.5,-30 "/>
<polyline fill="none" stroke="black" points="114.5,-30 108.5,-30 "/>
<text text-anchor="middle" x="87.5" y="-15.5" font-family="PT Mono, monospace" font-size="10.00">dict</text>
</a>
</g>
</g>
<!-- formaldict&#45;&gt;dict -->
<g id="edge1" class="edge">
<title>formaldict&#45;&gt;dict</title>
<path fill="none" stroke="black" d="M87.5,-71.7C87.5,-63.98 87.5,-54.71 87.5,-46.11"/>
<polygon fill="black" stroke="black" points="91,-46.1 87.5,-36.1 84,-46.1 91,-46.1"/>
</g>
<!-- container -->
<g id="node3" class="node">
<title>container</title>
<g id="a_node3"><a xlink:href="PsyllaReference_Types.xhtml#PsyllaReference_Types_Details_container" xlink:title="container" target="_parent">
<polygon fill="linen" stroke="black" points="233,-180 168,-180 168,-144 239,-144 239,-174 233,-180"/>
<polyline fill="none" stroke="black" points="233,-180 233,-174 "/>
<polyline fill="none" stroke="black" points="239,-174 233,-174 "/>
<text text-anchor="middle" x="203.5" y="-159.5" font-family="PT Mono, monospace" font-size="10.00">container</text>
</a>
</g>
</g>
<!-- container&#45;&gt;formaldict -->
<g id="edge2" class="edge">
<title>container&#45;&gt;formaldict</title>
<path fill="none" stroke="black" d="M175.12,-143.88C159.96,-134.72 141.09,-123.34 124.76,-113.48"/>
<polygon fill="black" stroke="black" points="126.36,-110.36 115.99,-108.19 122.74,-116.35 126.36,-110.36"/>
</g>
<!-- indexed -->
<g id="node4" class="node">
<title>indexed</title>
<g id="a_node4"><a xlink:href="PsyllaReference_Types.xhtml#PsyllaReference_Types_Details_indexed" xlink:title="indexed" target="_parent">
<polygon fill="linen" stroke="black" points="53,-252 0,-252 0,-216 59,-216 59,-246 53,-252"/>
<polyline fill="none" stroke="black" points="53,-252 53,-246 "/>
<polyline fill="none" stroke="black" points="59,-246 53,-246 "/>
<text text-anchor="middle" x="29.5" y="-231.5" font-family="PT Mono, monospace" font-size="10.00">indexed</text>
</a>
</g>
</g>
<!-- indexed&#45;&gt;formaldict -->
<g id="edge3" class="edge">
<title>indexed&#45;&gt;formaldict</title>
<path fill="none" stroke="black" d="M36.5,-215.87C46.47,-191.46 64.86,-146.43 76.62,-117.64"/>
<polygon fill="black" stroke="black" points="79.94,-118.77 80.48,-108.19 73.46,-116.12 79.94,-118.77"/>
</g>
<!-- sequential -->
<g id="node5" class="node">
<title>sequential</title>
<g id="a_node5"><a xlink:href="PsyllaReference_Types.xhtml#PsyllaReference_Types_Details_sequential" xlink:title="sequential" target="_parent">
<polygon fill="linen" stroke="black" points="187,-396 116,-396 116,-360 193,-360 193,-390 187,-396"/>
<polyline fill="none" stroke="black" points="187,-396 187,-390 "/>
<polyline fill="none" stroke="black" points="193,-390 187,-390 "/>
<text text-anchor="middle" x="154.5" y="-375.5" font-family="PT Mono, monospace" font-size="10.00">sequential</text>
</a>
</g>
</g>
<!-- sequential&#45;&gt;formaldict -->
<g id="edge4" class="edge">
<title>sequential&#45;&gt;formaldict</title>
<path fill="none" stroke="black" d="M133.26,-359.59C123.34,-350.17 112.42,-337.67 106.5,-324 76.55,-254.84 80.05,-163.42 84.24,-118.42"/>
<polygon fill="black" stroke="black" points="87.74,-118.58 85.27,-108.28 80.77,-117.87 87.74,-118.58"/>
</g>
<!-- streamable -->
<g id="node10" class="node">
<title>streamable</title>
<g id="a_node10"><a xlink:href="PsyllaReference_Types.xhtml#PsyllaReference_Types_Details_streamable" xlink:title="streamable" target="_parent">
<polygon fill="linen" stroke="black" points="187,-324 116,-324 116,-288 193,-288 193,-318 187,-324"/>
<polyline fill="none" stroke="black" points="187,-324 187,-318 "/>
<polyline fill="none" stroke="black" points="193,-318 187,-318 "/>
<text text-anchor="middle" x="154.5" y="-303.5" font-family="PT Mono, monospace" font-size="10.00">streamable</text>
</a>
</g>
</g>
<!-- sequential&#45;&gt;streamable -->
<g id="edge13" class="edge">
<title>sequential&#45;&gt;streamable</title>
<path fill="none" stroke="black" d="M154.5,-359.7C154.5,-351.98 154.5,-342.71 154.5,-334.11"/>
<polygon fill="black" stroke="black" points="158,-334.1 154.5,-324.1 151,-334.1 158,-334.1"/>
</g>
<!-- clearable -->
<g id="node6" class="node">
<title>clearable</title>
<g id="a_node6"><a xlink:href="PsyllaReference_Types.xhtml#PsyllaReference_Types_Details_clearable" xlink:title="clearable" target="_parent">
<polygon fill="linen" stroke="black" points="276,-324 211,-324 211,-288 282,-288 282,-318 276,-324"/>
<polyline fill="none" stroke="black" points="276,-324 276,-318 "/>
<polyline fill="none" stroke="black" points="282,-318 276,-318 "/>
<text text-anchor="middle" x="246.5" y="-303.5" font-family="PT Mono, monospace" font-size="10.00">clearable</text>
</a>
</g>
</g>
<!-- clearable&#45;&gt;container -->
<g id="edge5" class="edge">
<title>clearable&#45;&gt;container</title>
<path fill="none" stroke="black" d="M241.31,-287.87C233.95,-263.56 220.4,-218.82 211.68,-190.01"/>
<polygon fill="black" stroke="black" points="214.95,-188.75 208.71,-180.19 208.25,-190.77 214.95,-188.75"/>
</g>
<!-- iterable -->
<g id="node7" class="node">
<title>iterable</title>
<g id="a_node7"><a xlink:href="PsyllaReference_Types.xhtml#PsyllaReference_Types_Details_iterable" xlink:title="iterable" target="_parent">
<polygon fill="linen" stroke="black" points="196,-252 137,-252 137,-216 202,-216 202,-246 196,-252"/>
<polyline fill="none" stroke="black" points="196,-252 196,-246 "/>
<polyline fill="none" stroke="black" points="202,-246 196,-246 "/>
<text text-anchor="middle" x="169.5" y="-231.5" font-family="PT Mono, monospace" font-size="10.00">iterable</text>
</a>
</g>
</g>
<!-- iterable&#45;&gt;container -->
<g id="edge6" class="edge">
<title>iterable&#45;&gt;container</title>
<path fill="none" stroke="black" d="M177.9,-215.7C181.77,-207.73 186.45,-198.1 190.74,-189.26"/>
<polygon fill="black" stroke="black" points="193.97,-190.63 195.19,-180.1 187.67,-187.57 193.97,-190.63"/>
</g>
<!-- lengthy -->
<g id="node8" class="node">
<title>lengthy</title>
<g id="a_node8"><a xlink:href="PsyllaReference_Types.xhtml#PsyllaReference_Types_Details_lengthy" xlink:title="lengthy" target="_parent">
<polygon fill="linen" stroke="black" points="324,-396 271,-396 271,-360 330,-360 330,-390 324,-396"/>
<polyline fill="none" stroke="black" points="324,-396 324,-390 "/>
<polyline fill="none" stroke="black" points="330,-390 324,-390 "/>
<text text-anchor="middle" x="300.5" y="-375.5" font-family="PT Mono, monospace" font-size="10.00">lengthy</text>
</a>
</g>
</g>
<!-- lengthy&#45;&gt;container -->
<g id="edge7" class="edge">
<title>lengthy&#45;&gt;container</title>
<path fill="none" stroke="black" d="M301.03,-359.69C301.04,-341.32 299.43,-311.72 290.5,-288 276,-249.48 246.97,-211.6 226.44,-187.81"/>
<polygon fill="black" stroke="black" points="228.81,-185.2 219.57,-180.01 223.55,-189.82 228.81,-185.2"/>
</g>
<!-- object -->
<g id="node9" class="node">
<title>object</title>
<g id="a_node9"><a xlink:href="PsyllaReference_Types.xhtml#PsyllaReference_Types_Details_object" xlink:title="object" target="_parent">
<polygon fill="linen" stroke="black" points="208.5,-468 160.5,-468 160.5,-432 214.5,-432 214.5,-462 208.5,-468"/>
<polyline fill="none" stroke="black" points="208.5,-468 208.5,-462 "/>
<polyline fill="none" stroke="black" points="214.5,-462 208.5,-462 "/>
<text text-anchor="middle" x="187.5" y="-447.5" font-family="PT Mono, monospace" font-size="10.00">object</text>
</a>
</g>
</g>
<!-- object&#45;&gt;indexed -->
<g id="edge8" class="edge">
<title>object&#45;&gt;indexed</title>
<path fill="none" stroke="black" d="M160.33,-436.12C143.15,-426.88 121.44,-413.08 106.5,-396 71.19,-355.64 48.43,-296.25 37.39,-262.02"/>
<polygon fill="black" stroke="black" points="40.66,-260.75 34.34,-252.25 33.98,-262.84 40.66,-260.75"/>
</g>
<!-- object&#45;&gt;sequential -->
<g id="edge9" class="edge">
<title>object&#45;&gt;sequential</title>
<path fill="none" stroke="black" d="M179.34,-431.7C175.59,-423.73 171.05,-414.1 166.88,-405.26"/>
<polygon fill="black" stroke="black" points="169.99,-403.66 162.56,-396.1 163.66,-406.64 169.99,-403.66"/>
</g>
<!-- object&#45;&gt;clearable -->
<g id="edge10" class="edge">
<title>object&#45;&gt;clearable</title>
<path fill="none" stroke="black" d="M194.62,-431.87C204.76,-407.46 223.47,-362.43 235.43,-333.64"/>
<polygon fill="black" stroke="black" points="238.75,-334.77 239.36,-324.19 232.29,-332.08 238.75,-334.77"/>
</g>
<!-- object&#45;&gt;lengthy -->
<g id="edge12" class="edge">
<title>object&#45;&gt;lengthy</title>
<path fill="none" stroke="black" d="M214.57,-432.23C229.44,-423.02 248.09,-411.47 264.21,-401.48"/>
<polygon fill="black" stroke="black" points="266.21,-404.36 272.87,-396.12 262.53,-398.41 266.21,-404.36"/>
</g>
<!-- streamable&#45;&gt;iterable -->
<g id="edge11" class="edge">
<title>streamable&#45;&gt;iterable</title>
<path fill="none" stroke="black" d="M158.21,-287.7C159.86,-279.98 161.85,-270.71 163.69,-262.11"/>
<polygon fill="black" stroke="black" points="167.16,-262.62 165.83,-252.1 160.32,-261.15 167.16,-262.62"/>
</g>
</g>
</svg>
