<?xml version="1.0" encoding="UTF-8" standalone="no"?>
<!DOCTYPE svg PUBLIC "-//W3C//DTD SVG 1.1//EN"
 "http://www.w3.org/Graphics/SVG/1.1/DTD/svg11.dtd">
<!-- Generated by graphviz version 2.49.3 (0)
 -->
<!-- Title: arithmetic Pages: 1 -->
<svg width="164pt" height="188pt"
 viewBox="0.00 0.00 163.66 188.00" xmlns="http://www.w3.org/2000/svg" xmlns:xlink="http://www.w3.org/1999/xlink">
<g id="graph0" class="graph" transform="scale(1 1) rotate(0) translate(4 184)">
<title>arithmetic</title>
<polygon fill="transparent" stroke="transparent" points="-4,4 -4,-184 159.66,-184 159.66,4 -4,4"/>
<!-- additive -->
<g id="node1" class="node">
<title>additive</title>
<g id="a_node1"><a xlink:href="PsyllaReference_Types.xhtml#PsyllaReference_Types_Details_additive" xlink:title="additive" target="_parent">
<polygon fill="linen" stroke="black" points="48.49,-108 0.17,-108 0.17,-72 54.49,-72 54.49,-102 48.49,-108"/>
<polyline fill="none" stroke="black" points="48.49,-108 48.49,-102 "/>
<polyline fill="none" stroke="black" points="54.49,-102 48.49,-102 "/>
<text text-anchor="middle" x="27.33" y="-86.4" font-family="Source Code Pro,monospace" font-size="12.00">additive</text>
</a>
</g>
</g>
<!-- arithmetic -->
<g id="node3" class="node">
<title>arithmetic</title>
<g id="a_node3"><a xlink:href="PsyllaReference_Types.xhtml#PsyllaReference_Types_Details_arithmetic" xlink:title="arithmetic" target="_parent">
<polygon fill="wheat" stroke="black" points="96.48,-36 38.18,-36 38.18,0 102.48,0 102.48,-30 96.48,-36"/>
<polyline fill="none" stroke="black" points="96.48,-36 96.48,-30 "/>
<polyline fill="none" stroke="black" points="102.48,-30 96.48,-30 "/>
<text text-anchor="middle" x="70.33" y="-14.4" font-family="Source Code Pro,monospace" font-size="12.00">arithmetic</text>
</a>
</g>
</g>
<!-- additive&#45;&gt;arithmetic -->
<g id="edge1" class="edge">
<title>additive&#45;&gt;arithmetic</title>
<path fill="none" stroke="black" d="M37.96,-71.7C42.96,-63.56 49.02,-53.69 54.54,-44.7"/>
<polygon fill="black" stroke="black" points="57.57,-46.46 59.82,-36.1 51.61,-42.79 57.57,-46.46"/>
</g>
<!-- multiplicative -->
<g id="node2" class="node">
<title>multiplicative</title>
<g id="a_node2"><a xlink:href="PsyllaReference_Types.xhtml#PsyllaReference_Types_Details_multiplicative" xlink:title="multiplicative" target="_parent">
<polygon fill="linen" stroke="black" points="149.49,-108 73.17,-108 73.17,-72 155.49,-72 155.49,-102 149.49,-108"/>
<polyline fill="none" stroke="black" points="149.49,-108 149.49,-102 "/>
<polyline fill="none" stroke="black" points="155.49,-102 149.49,-102 "/>
<text text-anchor="middle" x="114.33" y="-86.4" font-family="Source Code Pro,monospace" font-size="12.00">multiplicative</text>
</a>
</g>
</g>
<!-- multiplicative&#45;&gt;arithmetic -->
<g id="edge2" class="edge">
<title>multiplicative&#45;&gt;arithmetic</title>
<path fill="none" stroke="black" d="M103.45,-71.7C98.34,-63.56 92.13,-53.69 86.48,-44.7"/>
<polygon fill="black" stroke="black" points="89.37,-42.71 81.08,-36.1 83.44,-46.43 89.37,-42.71"/>
</g>
<!-- object -->
<g id="node4" class="node">
<title>object</title>
<g id="a_node4"><a xlink:href="PsyllaReference_Types.xhtml#PsyllaReference_Types_Details_object" xlink:title="object" target="_parent">
<polygon fill="linen" stroke="black" points="91.33,-180 43.33,-180 43.33,-144 97.33,-144 97.33,-174 91.33,-180"/>
<polyline fill="none" stroke="black" points="91.33,-180 91.33,-174 "/>
<polyline fill="none" stroke="black" points="97.33,-174 91.33,-174 "/>
<text text-anchor="middle" x="70.33" y="-158.4" font-family="Source Code Pro,monospace" font-size="12.00">object</text>
</a>
</g>
</g>
<!-- object&#45;&gt;additive -->
<g id="edge3" class="edge">
<title>object&#45;&gt;additive</title>
<path fill="none" stroke="black" d="M59.7,-143.7C54.7,-135.56 48.64,-125.69 43.12,-116.7"/>
<polygon fill="black" stroke="black" points="46.05,-114.79 37.84,-108.1 40.09,-118.46 46.05,-114.79"/>
</g>
<!-- object&#45;&gt;multiplicative -->
<g id="edge4" class="edge">
<title>object&#45;&gt;multiplicative</title>
<path fill="none" stroke="black" d="M81.21,-143.7C86.32,-135.56 92.52,-125.69 98.17,-116.7"/>
<polygon fill="black" stroke="black" points="101.22,-118.43 103.58,-108.1 95.29,-114.71 101.22,-118.43"/>
</g>
</g>
</svg>
