<?xml version="1.0" encoding="UTF-8" standalone="no"?>
<!DOCTYPE svg PUBLIC "-//W3C//DTD SVG 1.1//EN"
 "http://www.w3.org/Graphics/SVG/1.1/DTD/svg11.dtd">
<!-- Generated by graphviz version 2.43.0 (0)
 -->
<!-- Title: range Pages: 1 -->
<svg width="288pt" height="332pt"
 viewBox="0.00 0.00 288.00 332.00" xmlns="http://www.w3.org/2000/svg" xmlns:xlink="http://www.w3.org/1999/xlink">
<g id="graph0" class="graph" transform="scale(1 1) rotate(0) translate(4 328)">
<title>range</title>
<polygon fill="transparent" stroke="transparent" points="-4,4 -4,-328 284,-328 284,4 -4,4"/>
<!-- formalstream -->
<g id="node1" class="node">
<title>formalstream</title>
<g id="a_node1"><a xlink:href="PsyllaReference_Types.xhtml#PsyllaReference_Types_Details_formalstream" xlink:title="formalstream" target="_parent">
<polygon fill="linen" stroke="black" points="211,-108 56,-108 56,-72 217,-72 217,-102 211,-108"/>
<polyline fill="none" stroke="black" points="211,-108 211,-102 "/>
<polyline fill="none" stroke="black" points="217,-102 211,-102 "/>
<text text-anchor="middle" x="136.5" y="-85" font-family="PT Mono, monospace" font-size="20.00">formalstream</text>
</a>
</g>
</g>
<!-- range -->
<g id="node2" class="node">
<title>range</title>
<g id="a_node2"><a xlink:href="PsyllaReference_Types.xhtml#PsyllaReference_Types_Details_range" xlink:title="range" target="_parent">
<polygon fill="wheat" stroke="black" points="169,-36 98,-36 98,0 175,0 175,-30 169,-36"/>
<polyline fill="none" stroke="black" points="169,-36 169,-30 "/>
<polyline fill="none" stroke="black" points="175,-30 169,-30 "/>
<text text-anchor="middle" x="136.5" y="-13" font-family="PT Mono, monospace" font-size="20.00">range</text>
</a>
</g>
</g>
<!-- formalstream&#45;&gt;range -->
<g id="edge1" class="edge">
<title>formalstream&#45;&gt;range</title>
<path fill="none" stroke="black" d="M136.5,-71.7C136.5,-63.98 136.5,-54.71 136.5,-46.11"/>
<polygon fill="black" stroke="black" points="140,-46.1 136.5,-36.1 133,-46.1 140,-46.1"/>
</g>
<!-- streamable -->
<g id="node3" class="node">
<title>streamable</title>
<g id="a_node3"><a xlink:href="PsyllaReference_Types.xhtml#PsyllaReference_Types_Details_streamable" xlink:title="streamable" target="_parent">
<polygon fill="linen" stroke="black" points="274,-180 143,-180 143,-144 280,-144 280,-174 274,-180"/>
<polyline fill="none" stroke="black" points="274,-180 274,-174 "/>
<polyline fill="none" stroke="black" points="280,-174 274,-174 "/>
<text text-anchor="middle" x="211.5" y="-157" font-family="PT Mono, monospace" font-size="20.00">streamable</text>
</a>
</g>
</g>
<!-- streamable&#45;&gt;formalstream -->
<g id="edge2" class="edge">
<title>streamable&#45;&gt;formalstream</title>
<path fill="none" stroke="black" d="M192.96,-143.7C183.7,-135.05 172.34,-124.45 162.24,-115.03"/>
<polygon fill="black" stroke="black" points="164.52,-112.37 154.83,-108.1 159.75,-117.49 164.52,-112.37"/>
</g>
<!-- closeable -->
<g id="node4" class="node">
<title>closeable</title>
<g id="a_node4"><a xlink:href="PsyllaReference_Types.xhtml#PsyllaReference_Types_Details_closeable" xlink:title="closeable" target="_parent">
<polygon fill="linen" stroke="black" points="119,-180 0,-180 0,-144 125,-144 125,-174 119,-180"/>
<polyline fill="none" stroke="black" points="119,-180 119,-174 "/>
<polyline fill="none" stroke="black" points="125,-174 119,-174 "/>
<text text-anchor="middle" x="62.5" y="-157" font-family="PT Mono, monospace" font-size="20.00">closeable</text>
</a>
</g>
</g>
<!-- closeable&#45;&gt;formalstream -->
<g id="edge3" class="edge">
<title>closeable&#45;&gt;formalstream</title>
<path fill="none" stroke="black" d="M80.79,-143.7C89.93,-135.05 101.14,-124.45 111.1,-115.03"/>
<polygon fill="black" stroke="black" points="113.56,-117.52 118.42,-108.1 108.75,-112.43 113.56,-117.52"/>
</g>
<!-- sequential -->
<g id="node5" class="node">
<title>sequential</title>
<g id="a_node5"><a xlink:href="PsyllaReference_Types.xhtml#PsyllaReference_Types_Details_sequential" xlink:title="sequential" target="_parent">
<polygon fill="linen" stroke="black" points="261,-252 130,-252 130,-216 267,-216 267,-246 261,-252"/>
<polyline fill="none" stroke="black" points="261,-252 261,-246 "/>
<polyline fill="none" stroke="black" points="267,-246 261,-246 "/>
<text text-anchor="middle" x="198.5" y="-229" font-family="PT Mono, monospace" font-size="20.00">sequential</text>
</a>
</g>
</g>
<!-- sequential&#45;&gt;streamable -->
<g id="edge4" class="edge">
<title>sequential&#45;&gt;streamable</title>
<path fill="none" stroke="black" d="M201.71,-215.7C203.15,-207.98 204.87,-198.71 206.46,-190.11"/>
<polygon fill="black" stroke="black" points="209.94,-190.58 208.32,-180.1 203.06,-189.3 209.94,-190.58"/>
</g>
<!-- object -->
<g id="node6" class="node">
<title>object</title>
<g id="a_node6"><a xlink:href="PsyllaReference_Types.xhtml#PsyllaReference_Types_Details_object" xlink:title="object" target="_parent">
<polygon fill="linen" stroke="black" points="175,-324 92,-324 92,-288 181,-288 181,-318 175,-324"/>
<polyline fill="none" stroke="black" points="175,-324 175,-318 "/>
<polyline fill="none" stroke="black" points="181,-318 175,-318 "/>
<text text-anchor="middle" x="136.5" y="-301" font-family="PT Mono, monospace" font-size="20.00">object</text>
</a>
</g>
</g>
<!-- object&#45;&gt;closeable -->
<g id="edge5" class="edge">
<title>object&#45;&gt;closeable</title>
<path fill="none" stroke="black" d="M127.57,-287.87C114.8,-263.35 91.18,-218.03 76.18,-189.26"/>
<polygon fill="black" stroke="black" points="79.18,-187.44 71.46,-180.19 72.98,-190.67 79.18,-187.44"/>
</g>
<!-- object&#45;&gt;sequential -->
<g id="edge6" class="edge">
<title>object&#45;&gt;sequential</title>
<path fill="none" stroke="black" d="M151.83,-287.7C159.26,-279.3 168.32,-269.07 176.48,-259.86"/>
<polygon fill="black" stroke="black" points="179.34,-261.91 183.35,-252.1 174.1,-257.27 179.34,-261.91"/>
</g>
</g>
</svg>
