<?xml version="1.0" encoding="UTF-8" standalone="no"?>
<!DOCTYPE svg PUBLIC "-//W3C//DTD SVG 1.1//EN"
 "http://www.w3.org/Graphics/SVG/1.1/DTD/svg11.dtd">
<!-- Generated by graphviz version 2.43.0 (0)
 -->
<!-- Title: operator Pages: 1 -->
<svg width="252pt" height="188pt"
 viewBox="0.00 0.00 252.00 188.00" xmlns="http://www.w3.org/2000/svg" xmlns:xlink="http://www.w3.org/1999/xlink">
<g id="graph0" class="graph" transform="scale(1 1) rotate(0) translate(4 184)">
<title>operator</title>
<polygon fill="transparent" stroke="transparent" points="-4,4 -4,-184 248,-184 248,4 -4,4"/>
<!-- atomic -->
<g id="node1" class="node">
<title>atomic</title>
<g id="a_node1"><a xlink:href="PsyllaReference_Types.xhtml#PsyllaReference_Types_Details_atomic" xlink:title="atomic" target="_parent">
<polygon fill="linen" stroke="black" points="83,-108 0,-108 0,-72 89,-72 89,-102 83,-108"/>
<polyline fill="none" stroke="black" points="83,-108 83,-102 "/>
<polyline fill="none" stroke="black" points="89,-102 83,-102 "/>
<text text-anchor="middle" x="44.5" y="-85" font-family="PT Mono, monospace" font-size="20.00">atomic</text>
</a>
</g>
</g>
<!-- operator -->
<g id="node3" class="node">
<title>operator</title>
<g id="a_node3"><a xlink:href="PsyllaReference_Types.xhtml#PsyllaReference_Types_Details_operator" xlink:title="operator" target="_parent">
<polygon fill="wheat" stroke="black" points="160,-36 53,-36 53,0 166,0 166,-30 160,-36"/>
<polyline fill="none" stroke="black" points="160,-36 160,-30 "/>
<polyline fill="none" stroke="black" points="166,-30 160,-30 "/>
<text text-anchor="middle" x="109.5" y="-13" font-family="PT Mono, monospace" font-size="20.00">operator</text>
</a>
</g>
</g>
<!-- atomic&#45;&gt;operator -->
<g id="edge1" class="edge">
<title>atomic&#45;&gt;operator</title>
<path fill="none" stroke="black" d="M60.57,-71.7C68.44,-63.22 78.06,-52.86 86.67,-43.58"/>
<polygon fill="black" stroke="black" points="89.38,-45.81 93.62,-36.1 84.25,-41.05 89.38,-45.81"/>
</g>
<!-- executable -->
<g id="node2" class="node">
<title>executable</title>
<g id="a_node2"><a xlink:href="PsyllaReference_Types.xhtml#PsyllaReference_Types_Details_executable" xlink:title="executable" target="_parent">
<polygon fill="linen" stroke="black" points="238,-108 107,-108 107,-72 244,-72 244,-102 238,-108"/>
<polyline fill="none" stroke="black" points="238,-108 238,-102 "/>
<polyline fill="none" stroke="black" points="244,-102 238,-102 "/>
<text text-anchor="middle" x="175.5" y="-85" font-family="PT Mono, monospace" font-size="20.00">executable</text>
</a>
</g>
</g>
<!-- executable&#45;&gt;operator -->
<g id="edge2" class="edge">
<title>executable&#45;&gt;operator</title>
<path fill="none" stroke="black" d="M159.19,-71.7C151.19,-63.22 141.43,-52.86 132.68,-43.58"/>
<polygon fill="black" stroke="black" points="135.03,-40.98 125.63,-36.1 129.94,-45.78 135.03,-40.98"/>
</g>
<!-- object -->
<g id="node4" class="node">
<title>object</title>
<g id="a_node4"><a xlink:href="PsyllaReference_Types.xhtml#PsyllaReference_Types_Details_object" xlink:title="object" target="_parent">
<polygon fill="linen" stroke="black" points="148,-180 65,-180 65,-144 154,-144 154,-174 148,-180"/>
<polyline fill="none" stroke="black" points="148,-180 148,-174 "/>
<polyline fill="none" stroke="black" points="154,-174 148,-174 "/>
<text text-anchor="middle" x="109.5" y="-157" font-family="PT Mono, monospace" font-size="20.00">object</text>
</a>
</g>
</g>
<!-- object&#45;&gt;atomic -->
<g id="edge3" class="edge">
<title>object&#45;&gt;atomic</title>
<path fill="none" stroke="black" d="M93.43,-143.7C85.56,-135.22 75.94,-124.86 67.33,-115.58"/>
<polygon fill="black" stroke="black" points="69.75,-113.05 60.38,-108.1 64.62,-117.81 69.75,-113.05"/>
</g>
<!-- object&#45;&gt;executable -->
<g id="edge4" class="edge">
<title>object&#45;&gt;executable</title>
<path fill="none" stroke="black" d="M125.81,-143.7C133.81,-135.22 143.57,-124.86 152.32,-115.58"/>
<polygon fill="black" stroke="black" points="155.06,-117.78 159.37,-108.1 149.97,-112.98 155.06,-117.78"/>
</g>
</g>
</svg>
