<?xml version="1.0" encoding="UTF-8" standalone="no"?>
<!DOCTYPE svg PUBLIC "-//W3C//DTD SVG 1.1//EN"
 "http://www.w3.org/Graphics/SVG/1.1/DTD/svg11.dtd">
<!-- Generated by graphviz version 2.43.0 (0)
 -->
<!-- Title: appendable Pages: 1 -->
<svg width="107pt" height="116pt"
 viewBox="0.00 0.00 107.00 116.00" xmlns="http://www.w3.org/2000/svg" xmlns:xlink="http://www.w3.org/1999/xlink">
<g id="graph0" class="graph" transform="scale(1 1) rotate(0) translate(4 112)">
<title>appendable</title>
<polygon fill="transparent" stroke="transparent" points="-4,4 -4,-112 103,-112 103,4 -4,4"/>
<!-- object -->
<g id="node1" class="node">
<title>object</title>
<g id="a_node1"><a xlink:href="PsyllaReference_Types.xhtml#PsyllaReference_Types_Details_object" xlink:title="object" target="_parent">
<polygon fill="linen" stroke="black" points="76.5,-108 16.5,-108 16.5,-72 82.5,-72 82.5,-102 76.5,-108"/>
<polyline fill="none" stroke="black" points="76.5,-108 76.5,-102 "/>
<polyline fill="none" stroke="black" points="82.5,-102 76.5,-102 "/>
<text text-anchor="middle" x="49.5" y="-86.3" font-family="Consolas, monospace" font-size="14.00">object</text>
</a>
</g>
</g>
<!-- appendable -->
<g id="node2" class="node">
<title>appendable</title>
<g id="a_node2"><a xlink:href="PsyllaReference_Types.xhtml#PsyllaReference_Types_Details_appendable" xlink:title="appendable" target="_parent">
<polygon fill="wheat" stroke="black" points="93,-36 0,-36 0,0 99,0 99,-30 93,-36"/>
<polyline fill="none" stroke="black" points="93,-36 93,-30 "/>
<polyline fill="none" stroke="black" points="99,-30 93,-30 "/>
<text text-anchor="middle" x="49.5" y="-14.3" font-family="Consolas, monospace" font-size="14.00">appendable</text>
</a>
</g>
</g>
<!-- object&#45;&gt;appendable -->
<g id="edge1" class="edge">
<title>object&#45;&gt;appendable</title>
<path fill="none" stroke="black" d="M49.5,-71.7C49.5,-63.98 49.5,-54.71 49.5,-46.11"/>
<polygon fill="black" stroke="black" points="53,-46.1 49.5,-36.1 46,-46.1 53,-46.1"/>
</g>
</g>
</svg>
