<?xml version="1.0" encoding="UTF-8" standalone="no"?>
<!DOCTYPE svg PUBLIC "-//W3C//DTD SVG 1.1//EN"
 "http://www.w3.org/Graphics/SVG/1.1/DTD/svg11.dtd">
<!-- Generated by graphviz version 14.0.0 (0)
 -->
<!-- Title: container Pages: 1 -->
<svg width="195pt" height="332pt"
 viewBox="0.00 0.00 195.00 332.00" xmlns="http://www.w3.org/2000/svg" xmlns:xlink="http://www.w3.org/1999/xlink">
<g id="graph0" class="graph" transform="scale(1 1) rotate(0) translate(4 328)">
<title>container</title>
<polygon fill="none" stroke="none" points="-4,4 -4,-328 190.63,-328 190.63,4 -4,4"/>
<!-- clearable -->
<g id="node1" class="node">
<title>clearable</title>
<g id="a_node1"><a xlink:href="PsyllaReference_Types.xhtml#PsyllaReference_Types_Details_clearable" xlink:title="clearable" target="_parent">
<polygon fill="linen" stroke="black" points="53.29,-180 0,-180 0,-144 59.29,-144 59.29,-174 53.29,-180"/>
<polyline fill="none" stroke="black" points="53.29,-180 53.29,-174"/>
<polyline fill="none" stroke="black" points="59.29,-174 53.29,-174"/>
<text xml:space="preserve" text-anchor="middle" x="29.65" y="-158.4" font-family="Source Code Pro,monospace" font-size="12.00">clearable</text>
</a>
</g>
</g>
<!-- container -->
<g id="node4" class="node">
<title>container</title>
<g id="a_node4"><a xlink:href="PsyllaReference_Types.xhtml#PsyllaReference_Types_Details_container" xlink:title="container" target="_parent">
<polygon fill="wheat" stroke="black" points="108.97,-36 54.33,-36 54.33,0 114.97,0 114.97,-30 108.97,-36"/>
<polyline fill="none" stroke="black" points="108.97,-36 108.97,-30"/>
<polyline fill="none" stroke="black" points="114.97,-30 108.97,-30"/>
<text xml:space="preserve" text-anchor="middle" x="84.65" y="-14.4" font-family="Source Code Pro,monospace" font-size="12.00">container</text>
</a>
</g>
</g>
<!-- clearable&#45;&gt;container -->
<g id="edge1" class="edge">
<title>clearable&#45;&gt;container</title>
<path fill="none" stroke="black" d="M31.34,-143.67C33.6,-125.29 38.54,-95.69 48.65,-72 52.56,-62.84 58.14,-53.6 63.75,-45.46"/>
<polygon fill="black" stroke="black" points="66.57,-47.53 69.6,-37.38 60.9,-43.42 66.57,-47.53"/>
</g>
<!-- iterable -->
<g id="node2" class="node">
<title>iterable</title>
<g id="a_node2"><a xlink:href="PsyllaReference_Types.xhtml#PsyllaReference_Types_Details_iterable" xlink:title="iterable" target="_parent">
<polygon fill="linen" stroke="black" points="177.65,-108 129.65,-108 129.65,-72 183.65,-72 183.65,-102 177.65,-108"/>
<polyline fill="none" stroke="black" points="177.65,-108 177.65,-102"/>
<polyline fill="none" stroke="black" points="183.65,-102 177.65,-102"/>
<text xml:space="preserve" text-anchor="middle" x="156.65" y="-86.4" font-family="Source Code Pro,monospace" font-size="12.00">iterable</text>
</a>
</g>
</g>
<!-- iterable&#45;&gt;container -->
<g id="edge2" class="edge">
<title>iterable&#45;&gt;container</title>
<path fill="none" stroke="black" d="M138.85,-71.7C130.37,-63.45 120.06,-53.43 110.72,-44.35"/>
<polygon fill="black" stroke="black" points="113.18,-41.86 103.58,-37.4 108.31,-46.88 113.18,-41.86"/>
</g>
<!-- lengthy -->
<g id="node3" class="node">
<title>lengthy</title>
<g id="a_node3"><a xlink:href="PsyllaReference_Types.xhtml#PsyllaReference_Types_Details_lengthy" xlink:title="lengthy" target="_parent">
<polygon fill="linen" stroke="black" points="105.65,-108 57.65,-108 57.65,-72 111.65,-72 111.65,-102 105.65,-108"/>
<polyline fill="none" stroke="black" points="105.65,-108 105.65,-102"/>
<polyline fill="none" stroke="black" points="111.65,-102 105.65,-102"/>
<text xml:space="preserve" text-anchor="middle" x="84.65" y="-86.4" font-family="Source Code Pro,monospace" font-size="12.00">lengthy</text>
</a>
</g>
</g>
<!-- lengthy&#45;&gt;container -->
<g id="edge3" class="edge">
<title>lengthy&#45;&gt;container</title>
<path fill="none" stroke="black" d="M84.65,-71.7C84.65,-64.41 84.65,-55.73 84.65,-47.54"/>
<polygon fill="black" stroke="black" points="88.15,-47.62 84.65,-37.62 81.15,-47.62 88.15,-47.62"/>
</g>
<!-- object -->
<g id="node5" class="node">
<title>object</title>
<g id="a_node5"><a xlink:href="PsyllaReference_Types.xhtml#PsyllaReference_Types_Details_object" xlink:title="object" target="_parent">
<polygon fill="linen" stroke="black" points="108.65,-324 60.65,-324 60.65,-288 114.65,-288 114.65,-318 108.65,-324"/>
<polyline fill="none" stroke="black" points="108.65,-324 108.65,-318"/>
<polyline fill="none" stroke="black" points="114.65,-318 108.65,-318"/>
<text xml:space="preserve" text-anchor="middle" x="87.65" y="-302.4" font-family="Source Code Pro,monospace" font-size="12.00">object</text>
</a>
</g>
</g>
<!-- object&#45;&gt;clearable -->
<g id="edge4" class="edge">
<title>object&#45;&gt;clearable</title>
<path fill="none" stroke="black" d="M80.54,-287.59C70.65,-263.4 52.67,-219.36 40.94,-190.65"/>
<polygon fill="black" stroke="black" points="44.23,-189.45 37.21,-181.51 37.75,-192.09 44.23,-189.45"/>
</g>
<!-- object&#45;&gt;lengthy -->
<g id="edge6" class="edge">
<title>object&#45;&gt;lengthy</title>
<path fill="none" stroke="black" d="M87.41,-287.85C86.89,-251.14 85.68,-164.66 85.05,-119.53"/>
<polygon fill="black" stroke="black" points="88.55,-119.7 84.91,-109.75 81.55,-119.79 88.55,-119.7"/>
</g>
<!-- sequential -->
<g id="node7" class="node">
<title>sequential</title>
<g id="a_node7"><a xlink:href="PsyllaReference_Types.xhtml#PsyllaReference_Types_Details_sequential" xlink:title="sequential" target="_parent">
<polygon fill="linen" stroke="black" points="174.97,-252 116.32,-252 116.32,-216 180.97,-216 180.97,-246 174.97,-252"/>
<polyline fill="none" stroke="black" points="174.97,-252 174.97,-246"/>
<polyline fill="none" stroke="black" points="180.97,-246 174.97,-246"/>
<text xml:space="preserve" text-anchor="middle" x="148.65" y="-230.4" font-family="Source Code Pro,monospace" font-size="12.00">sequential</text>
</a>
</g>
</g>
<!-- object&#45;&gt;sequential -->
<g id="edge8" class="edge">
<title>object&#45;&gt;sequential</title>
<path fill="none" stroke="black" d="M102.73,-287.7C109.82,-279.56 118.42,-269.69 126.25,-260.7"/>
<polygon fill="black" stroke="black" points="128.82,-263.08 132.75,-253.25 123.54,-258.49 128.82,-263.08"/>
</g>
<!-- streamable -->
<g id="node6" class="node">
<title>streamable</title>
<g id="a_node6"><a xlink:href="PsyllaReference_Types.xhtml#PsyllaReference_Types_Details_streamable" xlink:title="streamable" target="_parent">
<polygon fill="linen" stroke="black" points="180.63,-180 118.66,-180 118.66,-144 186.63,-144 186.63,-174 180.63,-180"/>
<polyline fill="none" stroke="black" points="180.63,-180 180.63,-174"/>
<polyline fill="none" stroke="black" points="186.63,-174 180.63,-174"/>
<text xml:space="preserve" text-anchor="middle" x="152.65" y="-158.4" font-family="Source Code Pro,monospace" font-size="12.00">streamable</text>
</a>
</g>
</g>
<!-- streamable&#45;&gt;iterable -->
<g id="edge5" class="edge">
<title>streamable&#45;&gt;iterable</title>
<path fill="none" stroke="black" d="M153.64,-143.7C154.05,-136.41 154.55,-127.73 155.02,-119.54"/>
<polygon fill="black" stroke="black" points="158.51,-119.8 155.58,-109.62 151.52,-119.4 158.51,-119.8"/>
</g>
<!-- sequential&#45;&gt;streamable -->
<g id="edge7" class="edge">
<title>sequential&#45;&gt;streamable</title>
<path fill="none" stroke="black" d="M149.64,-215.7C150.05,-208.41 150.55,-199.73 151.02,-191.54"/>
<polygon fill="black" stroke="black" points="154.51,-191.8 151.58,-181.62 147.52,-191.4 154.51,-191.8"/>
</g>
</g>
</svg>
