<?xml version="1.0" encoding="UTF-8" standalone="no"?>
<!DOCTYPE svg PUBLIC "-//W3C//DTD SVG 1.1//EN"
 "http://www.w3.org/Graphics/SVG/1.1/DTD/svg11.dtd">
<!-- Generated by graphviz version 2.43.0 (0)
 -->
<!-- Title: arithmetic Pages: 1 -->
<svg width="107pt" height="188pt"
 viewBox="0.00 0.00 107.00 188.00" xmlns="http://www.w3.org/2000/svg" xmlns:xlink="http://www.w3.org/1999/xlink">
<g id="graph0" class="graph" transform="scale(1 1) rotate(0) translate(4 184)">
<title>arithmetic</title>
<polygon fill="transparent" stroke="transparent" points="-4,4 -4,-184 103,-184 103,4 -4,4"/>
<!-- additive -->
<g id="node1" class="node">
<title>additive</title>
<g id="a_node1"><a xlink:href="PsyllaReference_Types.xhtml#PsyllaReference_Types_Details_additive" xlink:title="additive" target="_parent">
<polygon fill="linen" stroke="black" points="85,-108 8,-108 8,-72 91,-72 91,-102 85,-108"/>
<polyline fill="none" stroke="black" points="85,-108 85,-102 "/>
<polyline fill="none" stroke="black" points="91,-102 85,-102 "/>
<text text-anchor="middle" x="49.5" y="-86.3" font-family="Consolas, monospace" font-size="14.00">additive</text>
</a>
</g>
</g>
<!-- arithmetic -->
<g id="node2" class="node">
<title>arithmetic</title>
<g id="a_node2"><a xlink:href="PsyllaReference_Types.xhtml#PsyllaReference_Types_Details_arithmetic" xlink:title="arithmetic" target="_parent">
<polygon fill="wheat" stroke="black" points="93,-36 0,-36 0,0 99,0 99,-30 93,-36"/>
<polyline fill="none" stroke="black" points="93,-36 93,-30 "/>
<polyline fill="none" stroke="black" points="99,-30 93,-30 "/>
<text text-anchor="middle" x="49.5" y="-14.3" font-family="Consolas, monospace" font-size="14.00">arithmetic</text>
</a>
</g>
</g>
<!-- additive&#45;&gt;arithmetic -->
<g id="edge1" class="edge">
<title>additive&#45;&gt;arithmetic</title>
<path fill="none" stroke="black" d="M49.5,-71.7C49.5,-63.98 49.5,-54.71 49.5,-46.11"/>
<polygon fill="black" stroke="black" points="53,-46.1 49.5,-36.1 46,-46.1 53,-46.1"/>
</g>
<!-- object -->
<g id="node3" class="node">
<title>object</title>
<g id="a_node3"><a xlink:href="PsyllaReference_Types.xhtml#PsyllaReference_Types_Details_object" xlink:title="object" target="_parent">
<polygon fill="linen" stroke="black" points="76.5,-180 16.5,-180 16.5,-144 82.5,-144 82.5,-174 76.5,-180"/>
<polyline fill="none" stroke="black" points="76.5,-180 76.5,-174 "/>
<polyline fill="none" stroke="black" points="82.5,-174 76.5,-174 "/>
<text text-anchor="middle" x="49.5" y="-158.3" font-family="Consolas, monospace" font-size="14.00">object</text>
</a>
</g>
</g>
<!-- object&#45;&gt;additive -->
<g id="edge2" class="edge">
<title>object&#45;&gt;additive</title>
<path fill="none" stroke="black" d="M49.5,-143.7C49.5,-135.98 49.5,-126.71 49.5,-118.11"/>
<polygon fill="black" stroke="black" points="53,-118.1 49.5,-108.1 46,-118.1 53,-118.1"/>
</g>
</g>
</svg>
