<?xml version="1.0" encoding="UTF-8" standalone="no"?>
<!DOCTYPE svg PUBLIC "-//W3C//DTD SVG 1.1//EN"
 "http://www.w3.org/Graphics/SVG/1.1/DTD/svg11.dtd">
<!-- Generated by graphviz version 2.43.0 (0)
 -->
<!-- Title: numeric Pages: 1 -->
<svg width="158pt" height="260pt"
 viewBox="0.00 0.00 157.50 260.00" xmlns="http://www.w3.org/2000/svg" xmlns:xlink="http://www.w3.org/1999/xlink">
<g id="graph0" class="graph" transform="scale(1 1) rotate(0) translate(4 256)">
<title>numeric</title>
<polygon fill="transparent" stroke="transparent" points="-4,4 -4,-256 153.5,-256 153.5,4 -4,4"/>
<!-- atomic -->
<g id="node1" class="node">
<title>atomic</title>
<g id="a_node1"><a xlink:href="PsyllaReference_Types.xhtml#PsyllaReference_Types_Details_atomic" xlink:title="atomic" target="_parent">
<polygon fill="linen" stroke="black" points="48,-108 0,-108 0,-72 54,-72 54,-102 48,-108"/>
<polyline fill="none" stroke="black" points="48,-108 48,-102 "/>
<polyline fill="none" stroke="black" points="54,-102 48,-102 "/>
<text text-anchor="middle" x="27" y="-87.5" font-family="PT Mono, monospace" font-size="10.00">atomic</text>
</a>
</g>
</g>
<!-- numeric -->
<g id="node3" class="node">
<title>numeric</title>
<g id="a_node3"><a xlink:href="PsyllaReference_Types.xhtml#PsyllaReference_Types_Details_numeric" xlink:title="numeric" target="_parent">
<polygon fill="wheat" stroke="black" points="92.5,-36 39.5,-36 39.5,0 98.5,0 98.5,-30 92.5,-36"/>
<polyline fill="none" stroke="black" points="92.5,-36 92.5,-30 "/>
<polyline fill="none" stroke="black" points="98.5,-30 92.5,-30 "/>
<text text-anchor="middle" x="69" y="-15.5" font-family="PT Mono, monospace" font-size="10.00">numeric</text>
</a>
</g>
</g>
<!-- atomic&#45;&gt;numeric -->
<g id="edge1" class="edge">
<title>atomic&#45;&gt;numeric</title>
<path fill="none" stroke="black" d="M37.38,-71.7C42.26,-63.56 48.19,-53.69 53.58,-44.7"/>
<polygon fill="black" stroke="black" points="56.59,-46.48 58.74,-36.1 50.59,-42.88 56.59,-46.48"/>
</g>
<!-- arithmetic -->
<g id="node2" class="node">
<title>arithmetic</title>
<g id="a_node2"><a xlink:href="PsyllaReference_Types.xhtml#PsyllaReference_Types_Details_arithmetic" xlink:title="arithmetic" target="_parent">
<polygon fill="linen" stroke="black" points="143.5,-108 72.5,-108 72.5,-72 149.5,-72 149.5,-102 143.5,-108"/>
<polyline fill="none" stroke="black" points="143.5,-108 143.5,-102 "/>
<polyline fill="none" stroke="black" points="149.5,-102 143.5,-102 "/>
<text text-anchor="middle" x="111" y="-87.5" font-family="PT Mono, monospace" font-size="10.00">arithmetic</text>
</a>
</g>
</g>
<!-- arithmetic&#45;&gt;numeric -->
<g id="edge2" class="edge">
<title>arithmetic&#45;&gt;numeric</title>
<path fill="none" stroke="black" d="M100.62,-71.7C95.74,-63.56 89.81,-53.69 84.42,-44.7"/>
<polygon fill="black" stroke="black" points="87.41,-42.88 79.26,-36.1 81.41,-46.48 87.41,-42.88"/>
</g>
<!-- object -->
<g id="node4" class="node">
<title>object</title>
<g id="a_node4"><a xlink:href="PsyllaReference_Types.xhtml#PsyllaReference_Types_Details_object" xlink:title="object" target="_parent">
<polygon fill="linen" stroke="black" points="89,-252 41,-252 41,-216 95,-216 95,-246 89,-252"/>
<polyline fill="none" stroke="black" points="89,-252 89,-246 "/>
<polyline fill="none" stroke="black" points="95,-246 89,-246 "/>
<text text-anchor="middle" x="68" y="-231.5" font-family="PT Mono, monospace" font-size="10.00">object</text>
</a>
</g>
</g>
<!-- object&#45;&gt;atomic -->
<g id="edge3" class="edge">
<title>object&#45;&gt;atomic</title>
<path fill="none" stroke="black" d="M63.05,-215.87C56.04,-191.56 43.12,-146.82 34.8,-118.01"/>
<polygon fill="black" stroke="black" points="38.1,-116.83 31.96,-108.19 31.37,-118.77 38.1,-116.83"/>
</g>
<!-- additive -->
<g id="node5" class="node">
<title>additive</title>
<g id="a_node5"><a xlink:href="PsyllaReference_Types.xhtml#PsyllaReference_Types_Details_additive" xlink:title="additive" target="_parent">
<polygon fill="linen" stroke="black" points="131.5,-180 72.5,-180 72.5,-144 137.5,-144 137.5,-174 131.5,-180"/>
<polyline fill="none" stroke="black" points="131.5,-180 131.5,-174 "/>
<polyline fill="none" stroke="black" points="137.5,-174 131.5,-174 "/>
<text text-anchor="middle" x="105" y="-159.5" font-family="PT Mono, monospace" font-size="10.00">additive</text>
</a>
</g>
</g>
<!-- object&#45;&gt;additive -->
<g id="edge5" class="edge">
<title>object&#45;&gt;additive</title>
<path fill="none" stroke="black" d="M77.15,-215.7C81.4,-207.64 86.56,-197.89 91.27,-188.98"/>
<polygon fill="black" stroke="black" points="94.38,-190.58 95.96,-180.1 88.19,-187.31 94.38,-190.58"/>
</g>
<!-- additive&#45;&gt;arithmetic -->
<g id="edge4" class="edge">
<title>additive&#45;&gt;arithmetic</title>
<path fill="none" stroke="black" d="M106.48,-143.7C107.14,-135.98 107.94,-126.71 108.68,-118.11"/>
<polygon fill="black" stroke="black" points="112.17,-118.37 109.53,-108.1 105.19,-117.77 112.17,-118.37"/>
</g>
</g>
</svg>
