<?xml version="1.0" encoding="UTF-8" standalone="no"?>
<!DOCTYPE svg PUBLIC "-//W3C//DTD SVG 1.1//EN"
 "http://www.w3.org/Graphics/SVG/1.1/DTD/svg11.dtd">
<!-- Generated by graphviz version 2.43.0 (0)
 -->
<!-- Title: stringreader Pages: 1 -->
<svg width="338pt" height="332pt"
 viewBox="0.00 0.00 337.50 332.00" xmlns="http://www.w3.org/2000/svg" xmlns:xlink="http://www.w3.org/1999/xlink">
<g id="graph0" class="graph" transform="scale(1 1) rotate(0) translate(4 328)">
<title>stringreader</title>
<polygon fill="transparent" stroke="transparent" points="-4,4 -4,-328 333.5,-328 333.5,4 -4,4"/>
<!-- reader -->
<g id="node1" class="node">
<title>reader</title>
<g id="a_node1"><a xlink:href="PsyllaReference_Types.xhtml#PsyllaReference_Types_Details_reader" xlink:title="reader" target="_parent">
<polygon fill="linen" stroke="black" points="204,-108 148,-108 148,-72 210,-72 210,-102 204,-108"/>
<polyline fill="none" stroke="black" points="204,-108 204,-102 "/>
<polyline fill="none" stroke="black" points="210,-102 204,-102 "/>
<text text-anchor="middle" x="179" y="-86.9" font-family="Consolas, monospace" font-size="12.00">reader</text>
</a>
</g>
</g>
<!-- stringreader -->
<g id="node2" class="node">
<title>stringreader</title>
<g id="a_node2"><a xlink:href="PsyllaReference_Types.xhtml#PsyllaReference_Types_Details_stringreader" xlink:title="stringreader" target="_parent">
<polygon fill="wheat" stroke="black" points="226.5,-36 125.5,-36 125.5,0 232.5,0 232.5,-30 226.5,-36"/>
<polyline fill="none" stroke="black" points="226.5,-36 226.5,-30 "/>
<polyline fill="none" stroke="black" points="232.5,-30 226.5,-30 "/>
<text text-anchor="middle" x="179" y="-14.9" font-family="Consolas, monospace" font-size="12.00">stringreader</text>
</a>
</g>
</g>
<!-- reader&#45;&gt;stringreader -->
<g id="edge1" class="edge">
<title>reader&#45;&gt;stringreader</title>
<path fill="none" stroke="black" d="M179,-71.7C179,-63.98 179,-54.71 179,-46.11"/>
<polygon fill="black" stroke="black" points="182.5,-46.1 179,-36.1 175.5,-46.1 182.5,-46.1"/>
</g>
<!-- closeable -->
<g id="node3" class="node">
<title>closeable</title>
<g id="a_node3"><a xlink:href="PsyllaReference_Types.xhtml#PsyllaReference_Types_Details_closeable" xlink:title="closeable" target="_parent">
<polygon fill="linen" stroke="black" points="78,-180 0,-180 0,-144 84,-144 84,-174 78,-180"/>
<polyline fill="none" stroke="black" points="78,-180 78,-174 "/>
<polyline fill="none" stroke="black" points="84,-174 78,-174 "/>
<text text-anchor="middle" x="42" y="-158.9" font-family="Consolas, monospace" font-size="12.00">closeable</text>
</a>
</g>
</g>
<!-- closeable&#45;&gt;reader -->
<g id="edge2" class="edge">
<title>closeable&#45;&gt;reader</title>
<path fill="none" stroke="black" d="M75.51,-143.88C94.61,-134.12 118.67,-121.83 138.78,-111.55"/>
<polygon fill="black" stroke="black" points="140.4,-114.65 147.71,-106.99 137.21,-108.42 140.4,-114.65"/>
</g>
<!-- evaluable -->
<g id="node4" class="node">
<title>evaluable</title>
<g id="a_node4"><a xlink:href="PsyllaReference_Types.xhtml#PsyllaReference_Types_Details_evaluable" xlink:title="evaluable" target="_parent">
<polygon fill="linen" stroke="black" points="180,-180 102,-180 102,-144 186,-144 186,-174 180,-180"/>
<polyline fill="none" stroke="black" points="180,-180 180,-174 "/>
<polyline fill="none" stroke="black" points="186,-174 180,-174 "/>
<text text-anchor="middle" x="144" y="-158.9" font-family="Consolas, monospace" font-size="12.00">evaluable</text>
</a>
</g>
</g>
<!-- evaluable&#45;&gt;reader -->
<g id="edge3" class="edge">
<title>evaluable&#45;&gt;reader</title>
<path fill="none" stroke="black" d="M152.65,-143.7C156.64,-135.73 161.45,-126.1 165.87,-117.26"/>
<polygon fill="black" stroke="black" points="169.11,-118.61 170.45,-108.1 162.85,-115.48 169.11,-118.61"/>
</g>
<!-- readable -->
<g id="node5" class="node">
<title>readable</title>
<g id="a_node5"><a xlink:href="PsyllaReference_Types.xhtml#PsyllaReference_Types_Details_readable" xlink:title="readable" target="_parent">
<polygon fill="linen" stroke="black" points="323.5,-180 252.5,-180 252.5,-144 329.5,-144 329.5,-174 323.5,-180"/>
<polyline fill="none" stroke="black" points="323.5,-180 323.5,-174 "/>
<polyline fill="none" stroke="black" points="329.5,-174 323.5,-174 "/>
<text text-anchor="middle" x="291" y="-158.9" font-family="Consolas, monospace" font-size="12.00">readable</text>
</a>
</g>
</g>
<!-- readable&#45;&gt;reader -->
<g id="edge4" class="edge">
<title>readable&#45;&gt;reader</title>
<path fill="none" stroke="black" d="M263.6,-143.88C249.09,-134.81 231.08,-123.55 215.41,-113.76"/>
<polygon fill="black" stroke="black" points="216.84,-110.52 206.5,-108.19 213.13,-116.46 216.84,-110.52"/>
</g>
<!-- resetable -->
<g id="node6" class="node">
<title>resetable</title>
<g id="a_node6"><a xlink:href="PsyllaReference_Types.xhtml#PsyllaReference_Types_Details_resetable" xlink:title="resetable" target="_parent">
<polygon fill="linen" stroke="black" points="245,-252 167,-252 167,-216 251,-216 251,-246 245,-252"/>
<polyline fill="none" stroke="black" points="245,-252 245,-246 "/>
<polyline fill="none" stroke="black" points="251,-246 245,-246 "/>
<text text-anchor="middle" x="209" y="-230.9" font-family="Consolas, monospace" font-size="12.00">resetable</text>
</a>
</g>
</g>
<!-- resetable&#45;&gt;reader -->
<g id="edge5" class="edge">
<title>resetable&#45;&gt;reader</title>
<path fill="none" stroke="black" d="M207.01,-215.81C204.75,-197.78 200.64,-168.7 195,-144 193.02,-135.34 190.39,-126.02 187.83,-117.66"/>
<polygon fill="black" stroke="black" points="191.13,-116.51 184.79,-108.03 184.46,-118.62 191.13,-116.51"/>
</g>
<!-- object -->
<g id="node7" class="node">
<title>object</title>
<g id="a_node7"><a xlink:href="PsyllaReference_Types.xhtml#PsyllaReference_Types_Details_object" xlink:title="object" target="_parent">
<polygon fill="linen" stroke="black" points="199,-324 143,-324 143,-288 205,-288 205,-318 199,-324"/>
<polyline fill="none" stroke="black" points="199,-324 199,-318 "/>
<polyline fill="none" stroke="black" points="205,-318 199,-318 "/>
<text text-anchor="middle" x="174" y="-302.9" font-family="Consolas, monospace" font-size="12.00">object</text>
</a>
</g>
</g>
<!-- object&#45;&gt;closeable -->
<g id="edge6" class="edge">
<title>object&#45;&gt;closeable</title>
<path fill="none" stroke="black" d="M158.08,-287.87C134.89,-262.92 91.69,-216.45 65.03,-187.77"/>
<polygon fill="black" stroke="black" points="67.35,-185.13 57.98,-180.19 62.22,-189.9 67.35,-185.13"/>
</g>
<!-- object&#45;&gt;evaluable -->
<g id="edge7" class="edge">
<title>object&#45;&gt;evaluable</title>
<path fill="none" stroke="black" d="M168.21,-287.97C164.87,-277.66 160.78,-264.18 158,-252 153.33,-231.54 149.71,-208.09 147.32,-190.39"/>
<polygon fill="black" stroke="black" points="150.75,-189.66 145.99,-180.19 143.81,-190.56 150.75,-189.66"/>
</g>
<!-- object&#45;&gt;resetable -->
<g id="edge9" class="edge">
<title>object&#45;&gt;resetable</title>
<path fill="none" stroke="black" d="M182.65,-287.7C186.64,-279.73 191.45,-270.1 195.87,-261.26"/>
<polygon fill="black" stroke="black" points="199.11,-262.61 200.45,-252.1 192.85,-259.48 199.11,-262.61"/>
</g>
<!-- ready -->
<g id="node8" class="node">
<title>ready</title>
<g id="a_node8"><a xlink:href="PsyllaReference_Types.xhtml#PsyllaReference_Types_Details_ready" xlink:title="ready" target="_parent">
<polygon fill="linen" stroke="black" points="317,-252 269,-252 269,-216 323,-216 323,-246 317,-252"/>
<polyline fill="none" stroke="black" points="317,-252 317,-246 "/>
<polyline fill="none" stroke="black" points="323,-246 317,-246 "/>
<text text-anchor="middle" x="296" y="-230.9" font-family="Consolas, monospace" font-size="12.00">ready</text>
</a>
</g>
</g>
<!-- object&#45;&gt;ready -->
<g id="edge10" class="edge">
<title>object&#45;&gt;ready</title>
<path fill="none" stroke="black" d="M203.84,-287.88C220.78,-278.16 242.11,-265.92 259.97,-255.67"/>
<polygon fill="black" stroke="black" points="262.03,-258.53 268.96,-250.51 258.55,-252.46 262.03,-258.53"/>
</g>
<!-- ready&#45;&gt;readable -->
<g id="edge8" class="edge">
<title>ready&#45;&gt;readable</title>
<path fill="none" stroke="black" d="M294.76,-215.7C294.21,-207.98 293.55,-198.71 292.94,-190.11"/>
<polygon fill="black" stroke="black" points="296.43,-189.83 292.22,-180.1 289.44,-190.33 296.43,-189.83"/>
</g>
</g>
</svg>
