<?xml version="1.0" encoding="UTF-8" standalone="no"?>
<!DOCTYPE svg PUBLIC "-//W3C//DTD SVG 1.1//EN"
 "http://www.w3.org/Graphics/SVG/1.1/DTD/svg11.dtd">
<!-- Generated by graphviz version 2.43.0 (0)
 -->
<!-- Title: stream Pages: 1 -->
<svg width="202pt" height="332pt"
 viewBox="0.00 0.00 202.00 332.00" xmlns="http://www.w3.org/2000/svg" xmlns:xlink="http://www.w3.org/1999/xlink">
<g id="graph0" class="graph" transform="scale(1 1) rotate(0) translate(4 328)">
<title>stream</title>
<polygon fill="transparent" stroke="transparent" points="-4,4 -4,-328 198,-328 198,4 -4,4"/>
<!-- formalstream -->
<g id="node1" class="node">
<title>formalstream</title>
<g id="a_node1"><a xlink:href="PsyllaReference_Types.xhtml#PsyllaReference_Types_Details_formalstream" xlink:title="formalstream" target="_parent">
<polygon fill="linen" stroke="black" points="142.5,-108 41.5,-108 41.5,-72 148.5,-72 148.5,-102 142.5,-108"/>
<polyline fill="none" stroke="black" points="142.5,-108 142.5,-102 "/>
<polyline fill="none" stroke="black" points="148.5,-102 142.5,-102 "/>
<text text-anchor="middle" x="95" y="-86.9" font-family="Consolas, monospace" font-size="12.00">formalstream</text>
</a>
</g>
</g>
<!-- stream -->
<g id="node2" class="node">
<title>stream</title>
<g id="a_node2"><a xlink:href="PsyllaReference_Types.xhtml#PsyllaReference_Types_Details_stream" xlink:title="stream" target="_parent">
<polygon fill="wheat" stroke="black" points="120,-36 64,-36 64,0 126,0 126,-30 120,-36"/>
<polyline fill="none" stroke="black" points="120,-36 120,-30 "/>
<polyline fill="none" stroke="black" points="126,-30 120,-30 "/>
<text text-anchor="middle" x="95" y="-14.9" font-family="Consolas, monospace" font-size="12.00">stream</text>
</a>
</g>
</g>
<!-- formalstream&#45;&gt;stream -->
<g id="edge1" class="edge">
<title>formalstream&#45;&gt;stream</title>
<path fill="none" stroke="black" d="M95,-71.7C95,-63.98 95,-54.71 95,-46.11"/>
<polygon fill="black" stroke="black" points="98.5,-46.1 95,-36.1 91.5,-46.1 98.5,-46.1"/>
</g>
<!-- streamable -->
<g id="node3" class="node">
<title>streamable</title>
<g id="a_node3"><a xlink:href="PsyllaReference_Types.xhtml#PsyllaReference_Types_Details_streamable" xlink:title="streamable" target="_parent">
<polygon fill="linen" stroke="black" points="188,-180 102,-180 102,-144 194,-144 194,-174 188,-180"/>
<polyline fill="none" stroke="black" points="188,-180 188,-174 "/>
<polyline fill="none" stroke="black" points="194,-174 188,-174 "/>
<text text-anchor="middle" x="148" y="-158.9" font-family="Consolas, monospace" font-size="12.00">streamable</text>
</a>
</g>
</g>
<!-- streamable&#45;&gt;formalstream -->
<g id="edge2" class="edge">
<title>streamable&#45;&gt;formalstream</title>
<path fill="none" stroke="black" d="M134.9,-143.7C128.61,-135.39 120.95,-125.28 114.04,-116.14"/>
<polygon fill="black" stroke="black" points="116.78,-113.96 107.95,-108.1 111.2,-118.19 116.78,-113.96"/>
</g>
<!-- closeable -->
<g id="node4" class="node">
<title>closeable</title>
<g id="a_node4"><a xlink:href="PsyllaReference_Types.xhtml#PsyllaReference_Types_Details_closeable" xlink:title="closeable" target="_parent">
<polygon fill="linen" stroke="black" points="78,-180 0,-180 0,-144 84,-144 84,-174 78,-180"/>
<polyline fill="none" stroke="black" points="78,-180 78,-174 "/>
<polyline fill="none" stroke="black" points="84,-174 78,-174 "/>
<text text-anchor="middle" x="42" y="-158.9" font-family="Consolas, monospace" font-size="12.00">closeable</text>
</a>
</g>
</g>
<!-- closeable&#45;&gt;formalstream -->
<g id="edge3" class="edge">
<title>closeable&#45;&gt;formalstream</title>
<path fill="none" stroke="black" d="M55.1,-143.7C61.39,-135.39 69.05,-125.28 75.96,-116.14"/>
<polygon fill="black" stroke="black" points="78.8,-118.19 82.05,-108.1 73.22,-113.96 78.8,-118.19"/>
</g>
<!-- sequential -->
<g id="node5" class="node">
<title>sequential</title>
<g id="a_node5"><a xlink:href="PsyllaReference_Types.xhtml#PsyllaReference_Types_Details_sequential" xlink:title="sequential" target="_parent">
<polygon fill="linen" stroke="black" points="180,-252 94,-252 94,-216 186,-216 186,-246 180,-252"/>
<polyline fill="none" stroke="black" points="180,-252 180,-246 "/>
<polyline fill="none" stroke="black" points="186,-246 180,-246 "/>
<text text-anchor="middle" x="140" y="-230.9" font-family="Consolas, monospace" font-size="12.00">sequential</text>
</a>
</g>
</g>
<!-- sequential&#45;&gt;streamable -->
<g id="edge4" class="edge">
<title>sequential&#45;&gt;streamable</title>
<path fill="none" stroke="black" d="M141.98,-215.7C142.86,-207.98 143.92,-198.71 144.9,-190.11"/>
<polygon fill="black" stroke="black" points="148.39,-190.44 146.05,-180.1 141.43,-189.64 148.39,-190.44"/>
</g>
<!-- object -->
<g id="node6" class="node">
<title>object</title>
<g id="a_node6"><a xlink:href="PsyllaReference_Types.xhtml#PsyllaReference_Types_Details_object" xlink:title="object" target="_parent">
<polygon fill="linen" stroke="black" points="120,-324 64,-324 64,-288 126,-288 126,-318 120,-324"/>
<polyline fill="none" stroke="black" points="120,-324 120,-318 "/>
<polyline fill="none" stroke="black" points="126,-318 120,-318 "/>
<text text-anchor="middle" x="95" y="-302.9" font-family="Consolas, monospace" font-size="12.00">object</text>
</a>
</g>
</g>
<!-- object&#45;&gt;closeable -->
<g id="edge5" class="edge">
<title>object&#45;&gt;closeable</title>
<path fill="none" stroke="black" d="M88.61,-287.87C79.49,-263.46 62.69,-218.43 51.94,-189.64"/>
<polygon fill="black" stroke="black" points="55.19,-188.33 48.42,-180.19 48.63,-190.78 55.19,-188.33"/>
</g>
<!-- object&#45;&gt;sequential -->
<g id="edge6" class="edge">
<title>object&#45;&gt;sequential</title>
<path fill="none" stroke="black" d="M106.12,-287.7C111.36,-279.56 117.7,-269.69 123.48,-260.7"/>
<polygon fill="black" stroke="black" points="126.54,-262.41 129,-252.1 120.65,-258.62 126.54,-262.41"/>
</g>
</g>
</svg>
