<?xml version="1.0" encoding="UTF-8" standalone="no"?>
<!DOCTYPE svg PUBLIC "-//W3C//DTD SVG 1.1//EN"
 "http://www.w3.org/Graphics/SVG/1.1/DTD/svg11.dtd">
<!-- Generated by graphviz version 2.43.0 (0)
 -->
<!-- Title: real Pages: 1 -->
<svg width="742pt" height="404pt"
 viewBox="0.00 0.00 741.50 404.00" xmlns="http://www.w3.org/2000/svg" xmlns:xlink="http://www.w3.org/1999/xlink">
<g id="graph0" class="graph" transform="scale(1 1) rotate(0) translate(4 400)">
<title>real</title>
<polygon fill="transparent" stroke="transparent" points="-4,4 -4,-400 737.5,-400 737.5,4 -4,4"/>
<!-- realnumeric -->
<g id="node1" class="node">
<title>realnumeric</title>
<g id="a_node1"><a xlink:href="PsyllaReference_Types.xhtml#PsyllaReference_Types_Details_realnumeric" xlink:title="realnumeric" target="_parent">
<polygon fill="linen" stroke="black" points="357,-108 264,-108 264,-72 363,-72 363,-102 357,-108"/>
<polyline fill="none" stroke="black" points="357,-108 357,-102 "/>
<polyline fill="none" stroke="black" points="363,-102 357,-102 "/>
<text text-anchor="middle" x="313.5" y="-86.9" font-family="Source Code Pro,monospace" font-size="12.00">realnumeric</text>
</a>
</g>
</g>
<!-- real -->
<g id="node2" class="node">
<title>real</title>
<g id="a_node2"><a xlink:href="PsyllaReference_Types.xhtml#PsyllaReference_Types_Details_real" xlink:title="real" target="_parent">
<polygon fill="wheat" stroke="black" points="334.5,-36 286.5,-36 286.5,0 340.5,0 340.5,-30 334.5,-36"/>
<polyline fill="none" stroke="black" points="334.5,-36 334.5,-30 "/>
<polyline fill="none" stroke="black" points="340.5,-30 334.5,-30 "/>
<text text-anchor="middle" x="313.5" y="-14.9" font-family="Source Code Pro,monospace" font-size="12.00">real</text>
</a>
</g>
</g>
<!-- realnumeric&#45;&gt;real -->
<g id="edge1" class="edge">
<title>realnumeric&#45;&gt;real</title>
<path fill="none" stroke="black" d="M313.5,-71.7C313.5,-63.98 313.5,-54.71 313.5,-46.11"/>
<polygon fill="black" stroke="black" points="317,-46.1 313.5,-36.1 310,-46.1 317,-46.1"/>
</g>
<!-- numeric -->
<g id="node3" class="node">
<title>numeric</title>
<g id="a_node3"><a xlink:href="PsyllaReference_Types.xhtml#PsyllaReference_Types_Details_numeric" xlink:title="numeric" target="_parent">
<polygon fill="linen" stroke="black" points="499,-180 436,-180 436,-144 505,-144 505,-174 499,-180"/>
<polyline fill="none" stroke="black" points="499,-180 499,-174 "/>
<polyline fill="none" stroke="black" points="505,-174 499,-174 "/>
<text text-anchor="middle" x="470.5" y="-158.9" font-family="Source Code Pro,monospace" font-size="12.00">numeric</text>
</a>
</g>
</g>
<!-- numeric&#45;&gt;realnumeric -->
<g id="edge2" class="edge">
<title>numeric&#45;&gt;realnumeric</title>
<path fill="none" stroke="black" d="M435.66,-145.46C413.72,-135.69 385.13,-122.94 361.12,-112.23"/>
<polygon fill="black" stroke="black" points="362.38,-108.96 351.82,-108.09 359.53,-115.36 362.38,-108.96"/>
</g>
<!-- convertabletointeger -->
<g id="node4" class="node">
<title>convertabletointeger</title>
<g id="a_node4"><a xlink:href="PsyllaReference_Types.xhtml#PsyllaReference_Types_Details_convertabletointeger" xlink:title="convertabletointeger" target="_parent">
<polygon fill="linen" stroke="black" points="161,-252 0,-252 0,-216 167,-216 167,-246 161,-252"/>
<polyline fill="none" stroke="black" points="161,-252 161,-246 "/>
<polyline fill="none" stroke="black" points="167,-246 161,-246 "/>
<text text-anchor="middle" x="83.5" y="-230.9" font-family="Source Code Pro,monospace" font-size="12.00">convertabletointeger</text>
</a>
</g>
</g>
<!-- convertabletointeger&#45;&gt;realnumeric -->
<g id="edge3" class="edge">
<title>convertabletointeger&#45;&gt;realnumeric</title>
<path fill="none" stroke="black" d="M82.17,-215.81C81.62,-195.85 83.96,-163.22 102.5,-144 123.24,-122.51 198.89,-107.34 253.68,-98.89"/>
<polygon fill="black" stroke="black" points="254.28,-102.34 263.65,-97.39 253.24,-95.42 254.28,-102.34"/>
</g>
<!-- convertabletointegral -->
<g id="node5" class="node">
<title>convertabletointegral</title>
<g id="a_node5"><a xlink:href="PsyllaReference_Types.xhtml#PsyllaReference_Types_Details_convertabletointegral" xlink:title="convertabletointegral" target="_parent">
<polygon fill="linen" stroke="black" points="279.5,-180 111.5,-180 111.5,-144 285.5,-144 285.5,-174 279.5,-180"/>
<polyline fill="none" stroke="black" points="279.5,-180 279.5,-174 "/>
<polyline fill="none" stroke="black" points="285.5,-174 279.5,-174 "/>
<text text-anchor="middle" x="198.5" y="-158.9" font-family="Source Code Pro,monospace" font-size="12.00">convertabletointegral</text>
</a>
</g>
</g>
<!-- convertabletointegral&#45;&gt;realnumeric -->
<g id="edge4" class="edge">
<title>convertabletointegral&#45;&gt;realnumeric</title>
<path fill="none" stroke="black" d="M226.63,-143.88C241.67,-134.72 260.37,-123.34 276.56,-113.48"/>
<polygon fill="black" stroke="black" points="278.54,-116.38 285.26,-108.19 274.9,-110.4 278.54,-116.38"/>
</g>
<!-- convertabletorational -->
<g id="node6" class="node">
<title>convertabletorational</title>
<g id="a_node6"><a xlink:href="PsyllaReference_Types.xhtml#PsyllaReference_Types_Details_convertabletorational" xlink:title="convertabletorational" target="_parent">
<polygon fill="linen" stroke="black" points="390.5,-252 222.5,-252 222.5,-216 396.5,-216 396.5,-246 390.5,-252"/>
<polyline fill="none" stroke="black" points="390.5,-252 390.5,-246 "/>
<polyline fill="none" stroke="black" points="396.5,-246 390.5,-246 "/>
<text text-anchor="middle" x="309.5" y="-230.9" font-family="Source Code Pro,monospace" font-size="12.00">convertabletorational</text>
</a>
</g>
</g>
<!-- convertabletorational&#45;&gt;realnumeric -->
<g id="edge5" class="edge">
<title>convertabletorational&#45;&gt;realnumeric</title>
<path fill="none" stroke="black" d="M309.98,-215.87C310.66,-191.67 311.92,-147.21 312.73,-118.39"/>
<polygon fill="black" stroke="black" points="316.23,-118.28 313.02,-108.19 309.24,-118.09 316.23,-118.28"/>
</g>
<!-- scalar -->
<g id="node7" class="node">
<title>scalar</title>
<g id="a_node7"><a xlink:href="PsyllaReference_Types.xhtml#PsyllaReference_Types_Details_scalar" xlink:title="scalar" target="_parent">
<polygon fill="linen" stroke="black" points="404.5,-180 348.5,-180 348.5,-144 410.5,-144 410.5,-174 404.5,-180"/>
<polyline fill="none" stroke="black" points="404.5,-180 404.5,-174 "/>
<polyline fill="none" stroke="black" points="410.5,-174 404.5,-174 "/>
<text text-anchor="middle" x="379.5" y="-158.9" font-family="Source Code Pro,monospace" font-size="12.00">scalar</text>
</a>
</g>
</g>
<!-- scalar&#45;&gt;realnumeric -->
<g id="edge6" class="edge">
<title>scalar&#45;&gt;realnumeric</title>
<path fill="none" stroke="black" d="M363.19,-143.7C355.19,-135.22 345.43,-124.86 336.68,-115.58"/>
<polygon fill="black" stroke="black" points="339.03,-112.98 329.63,-108.1 333.94,-117.78 339.03,-112.98"/>
</g>
<!-- arithmetic -->
<g id="node8" class="node">
<title>arithmetic</title>
<g id="a_node8"><a xlink:href="PsyllaReference_Types.xhtml#PsyllaReference_Types_Details_arithmetic" xlink:title="arithmetic" target="_parent">
<polygon fill="linen" stroke="black" points="594.5,-252 508.5,-252 508.5,-216 600.5,-216 600.5,-246 594.5,-252"/>
<polyline fill="none" stroke="black" points="594.5,-252 594.5,-246 "/>
<polyline fill="none" stroke="black" points="600.5,-246 594.5,-246 "/>
<text text-anchor="middle" x="554.5" y="-230.9" font-family="Source Code Pro,monospace" font-size="12.00">arithmetic</text>
</a>
</g>
</g>
<!-- arithmetic&#45;&gt;numeric -->
<g id="edge7" class="edge">
<title>arithmetic&#45;&gt;numeric</title>
<path fill="none" stroke="black" d="M533.74,-215.7C523.26,-206.97 510.39,-196.24 499,-186.75"/>
<polygon fill="black" stroke="black" points="500.95,-183.82 491.03,-180.1 496.47,-189.19 500.95,-183.82"/>
</g>
<!-- value -->
<g id="node9" class="node">
<title>value</title>
<g id="a_node9"><a xlink:href="PsyllaReference_Types.xhtml#PsyllaReference_Types_Details_value" xlink:title="value" target="_parent">
<polygon fill="linen" stroke="black" points="491.5,-324 443.5,-324 443.5,-288 497.5,-288 497.5,-318 491.5,-324"/>
<polyline fill="none" stroke="black" points="491.5,-324 491.5,-318 "/>
<polyline fill="none" stroke="black" points="497.5,-318 491.5,-318 "/>
<text text-anchor="middle" x="470.5" y="-302.9" font-family="Source Code Pro,monospace" font-size="12.00">value</text>
</a>
</g>
</g>
<!-- value&#45;&gt;numeric -->
<g id="edge8" class="edge">
<title>value&#45;&gt;numeric</title>
<path fill="none" stroke="black" d="M470.5,-287.87C470.5,-263.67 470.5,-219.21 470.5,-190.39"/>
<polygon fill="black" stroke="black" points="474,-190.19 470.5,-180.19 467,-190.19 474,-190.19"/>
</g>
<!-- object -->
<g id="node10" class="node">
<title>object</title>
<g id="a_node10"><a xlink:href="PsyllaReference_Types.xhtml#PsyllaReference_Types_Details_object" xlink:title="object" target="_parent">
<polygon fill="linen" stroke="black" points="440.5,-396 384.5,-396 384.5,-360 446.5,-360 446.5,-390 440.5,-396"/>
<polyline fill="none" stroke="black" points="440.5,-396 440.5,-390 "/>
<polyline fill="none" stroke="black" points="446.5,-390 440.5,-390 "/>
<text text-anchor="middle" x="415.5" y="-374.9" font-family="Source Code Pro,monospace" font-size="12.00">object</text>
</a>
</g>
</g>
<!-- object&#45;&gt;convertabletointeger -->
<g id="edge9" class="edge">
<title>object&#45;&gt;convertabletointeger</title>
<path fill="none" stroke="black" d="M384.47,-375.09C337.77,-371.13 247.76,-359.2 180.5,-324 150.11,-308.1 122.01,-280.25 103.97,-259.93"/>
<polygon fill="black" stroke="black" points="106.53,-257.54 97.33,-252.28 101.24,-262.13 106.53,-257.54"/>
</g>
<!-- object&#45;&gt;convertabletointegral -->
<g id="edge10" class="edge">
<title>object&#45;&gt;convertabletointegral</title>
<path fill="none" stroke="black" d="M384.37,-367.05C338.88,-350.79 255.14,-313.95 213.5,-252 201.31,-233.87 197.95,-209.09 197.42,-190.28"/>
<polygon fill="black" stroke="black" points="200.92,-190.25 197.38,-180.26 193.92,-190.27 200.92,-190.25"/>
</g>
<!-- object&#45;&gt;convertabletorational -->
<g id="edge11" class="edge">
<title>object&#45;&gt;convertabletorational</title>
<path fill="none" stroke="black" d="M402.71,-359.87C384.25,-335.14 349.99,-289.24 328.54,-260.51"/>
<polygon fill="black" stroke="black" points="331.12,-258.11 322.33,-252.19 325.51,-262.3 331.12,-258.11"/>
</g>
<!-- object&#45;&gt;scalar -->
<g id="edge12" class="edge">
<title>object&#45;&gt;scalar</title>
<path fill="none" stroke="black" d="M416.61,-359.73C418.06,-329.87 418.99,-266.89 405.5,-216 403.12,-207.03 399.17,-197.77 395.06,-189.55"/>
<polygon fill="black" stroke="black" points="398.02,-187.66 390.25,-180.46 391.83,-190.94 398.02,-187.66"/>
</g>
<!-- object&#45;&gt;value -->
<g id="edge15" class="edge">
<title>object&#45;&gt;value</title>
<path fill="none" stroke="black" d="M429.1,-359.7C435.62,-351.39 443.57,-341.28 450.75,-332.14"/>
<polygon fill="black" stroke="black" points="453.63,-334.13 457.06,-324.1 448.13,-329.81 453.63,-334.13"/>
</g>
<!-- additive -->
<g id="node11" class="node">
<title>additive</title>
<g id="a_node11"><a xlink:href="PsyllaReference_Types.xhtml#PsyllaReference_Types_Details_additive" xlink:title="additive" target="_parent">
<polygon fill="linen" stroke="black" points="587,-324 516,-324 516,-288 593,-288 593,-318 587,-324"/>
<polyline fill="none" stroke="black" points="587,-324 587,-318 "/>
<polyline fill="none" stroke="black" points="593,-318 587,-318 "/>
<text text-anchor="middle" x="554.5" y="-302.9" font-family="Source Code Pro,monospace" font-size="12.00">additive</text>
</a>
</g>
</g>
<!-- object&#45;&gt;additive -->
<g id="edge16" class="edge">
<title>object&#45;&gt;additive</title>
<path fill="none" stroke="black" d="M446.69,-361.29C465.8,-351.67 490.52,-339.22 511.47,-328.67"/>
<polygon fill="black" stroke="black" points="513.13,-331.75 520.49,-324.13 509.98,-325.5 513.13,-331.75"/>
</g>
<!-- multiplicative -->
<g id="node12" class="node">
<title>multiplicative</title>
<g id="a_node12"><a xlink:href="PsyllaReference_Types.xhtml#PsyllaReference_Types_Details_multiplicative" xlink:title="multiplicative" target="_parent">
<polygon fill="linen" stroke="black" points="727.5,-324 611.5,-324 611.5,-288 733.5,-288 733.5,-318 727.5,-324"/>
<polyline fill="none" stroke="black" points="727.5,-324 727.5,-318 "/>
<polyline fill="none" stroke="black" points="733.5,-318 727.5,-318 "/>
<text text-anchor="middle" x="672.5" y="-302.9" font-family="Source Code Pro,monospace" font-size="12.00">multiplicative</text>
</a>
</g>
</g>
<!-- object&#45;&gt;multiplicative -->
<g id="edge17" class="edge">
<title>object&#45;&gt;multiplicative</title>
<path fill="none" stroke="black" d="M446.5,-368.56C484.61,-358.18 550.48,-340.23 601.31,-326.39"/>
<polygon fill="black" stroke="black" points="602.53,-329.69 611.26,-323.68 600.69,-322.93 602.53,-329.69"/>
</g>
<!-- additive&#45;&gt;arithmetic -->
<g id="edge13" class="edge">
<title>additive&#45;&gt;arithmetic</title>
<path fill="none" stroke="black" d="M554.5,-287.7C554.5,-279.98 554.5,-270.71 554.5,-262.11"/>
<polygon fill="black" stroke="black" points="558,-262.1 554.5,-252.1 551,-262.1 558,-262.1"/>
</g>
<!-- multiplicative&#45;&gt;arithmetic -->
<g id="edge14" class="edge">
<title>multiplicative&#45;&gt;arithmetic</title>
<path fill="none" stroke="black" d="M643.63,-287.88C628.21,-278.72 609.02,-267.34 592.4,-257.48"/>
<polygon fill="black" stroke="black" points="593.86,-254.28 583.48,-252.19 590.29,-260.3 593.86,-254.28"/>
</g>
</g>
</svg>
