<?xml version="1.0" encoding="UTF-8" standalone="no"?>
<!DOCTYPE svg PUBLIC "-//W3C//DTD SVG 1.1//EN"
 "http://www.w3.org/Graphics/SVG/1.1/DTD/svg11.dtd">
<!-- Generated by graphviz version 2.49.3 (0)
 -->
<!-- Title: array Pages: 1 -->
<svg width="365pt" height="476pt"
 viewBox="0.00 0.00 365.32 476.00" xmlns="http://www.w3.org/2000/svg" xmlns:xlink="http://www.w3.org/1999/xlink">
<g id="graph0" class="graph" transform="scale(1 1) rotate(0) translate(4 472)">
<title>array</title>
<polygon fill="transparent" stroke="transparent" points="-4,4 -4,-472 361.32,-472 361.32,4 -4,4"/>
<!-- formalarray -->
<g id="node1" class="node">
<title>formalarray</title>
<g id="a_node1"><a xlink:href="PsyllaReference_Types.xhtml#PsyllaReference_Types_Details_formalarray" xlink:title="formalarray" target="_parent">
<polygon fill="linen" stroke="black" points="152.45,-108 86.19,-108 86.19,-72 158.45,-72 158.45,-102 152.45,-108"/>
<polyline fill="none" stroke="black" points="152.45,-108 152.45,-102 "/>
<polyline fill="none" stroke="black" points="158.45,-102 152.45,-102 "/>
<text text-anchor="middle" x="122.32" y="-86.4" font-family="Source Code Pro,monospace" font-size="12.00">formalarray</text>
</a>
</g>
</g>
<!-- array -->
<g id="node2" class="node">
<title>array</title>
<g id="a_node2"><a xlink:href="PsyllaReference_Types.xhtml#PsyllaReference_Types_Details_array" xlink:title="array" target="_parent">
<polygon fill="wheat" stroke="black" points="143.32,-36 95.32,-36 95.32,0 149.32,0 149.32,-30 143.32,-36"/>
<polyline fill="none" stroke="black" points="143.32,-36 143.32,-30 "/>
<polyline fill="none" stroke="black" points="149.32,-30 143.32,-30 "/>
<text text-anchor="middle" x="122.32" y="-14.4" font-family="Source Code Pro,monospace" font-size="12.00">array</text>
</a>
</g>
</g>
<!-- formalarray&#45;&gt;array -->
<g id="edge1" class="edge">
<title>formalarray&#45;&gt;array</title>
<path fill="none" stroke="black" d="M122.32,-71.7C122.32,-63.98 122.32,-54.71 122.32,-46.11"/>
<polygon fill="black" stroke="black" points="125.82,-46.1 122.32,-36.1 118.82,-46.1 125.82,-46.1"/>
</g>
<!-- appendable -->
<g id="node3" class="node">
<title>appendable</title>
<g id="a_node3"><a xlink:href="PsyllaReference_Types.xhtml#PsyllaReference_Types_Details_appendable" xlink:title="appendable" target="_parent">
<polygon fill="linen" stroke="black" points="64.46,-324 0.18,-324 0.18,-288 70.46,-288 70.46,-318 64.46,-324"/>
<polyline fill="none" stroke="black" points="64.46,-324 64.46,-318 "/>
<polyline fill="none" stroke="black" points="70.46,-318 64.46,-318 "/>
<text text-anchor="middle" x="35.32" y="-302.4" font-family="Source Code Pro,monospace" font-size="12.00">appendable</text>
</a>
</g>
</g>
<!-- appendable&#45;&gt;formalarray -->
<g id="edge2" class="edge">
<title>appendable&#45;&gt;formalarray</title>
<path fill="none" stroke="black" d="M36.67,-287.82C38.51,-269.56 42.61,-240.06 51.32,-216 64.56,-179.42 87.99,-141.05 104.3,-116.63"/>
<polygon fill="black" stroke="black" points="107.24,-118.53 109.96,-108.29 101.45,-114.6 107.24,-118.53"/>
</g>
<!-- container -->
<g id="node4" class="node">
<title>container</title>
<g id="a_node4"><a xlink:href="PsyllaReference_Types.xhtml#PsyllaReference_Types_Details_container" xlink:title="container" target="_parent">
<polygon fill="linen" stroke="black" points="272.47,-180 218.18,-180 218.18,-144 278.47,-144 278.47,-174 272.47,-180"/>
<polyline fill="none" stroke="black" points="272.47,-180 272.47,-174 "/>
<polyline fill="none" stroke="black" points="278.47,-174 272.47,-174 "/>
<text text-anchor="middle" x="248.32" y="-158.4" font-family="Source Code Pro,monospace" font-size="12.00">container</text>
</a>
</g>
</g>
<!-- container&#45;&gt;formalarray -->
<g id="edge3" class="edge">
<title>container&#45;&gt;formalarray</title>
<path fill="none" stroke="black" d="M218.14,-144.23C201.4,-134.93 180.37,-123.25 162.28,-113.2"/>
<polygon fill="black" stroke="black" points="163.57,-109.91 153.13,-108.12 160.17,-116.03 163.57,-109.91"/>
</g>
<!-- indexed -->
<g id="node5" class="node">
<title>indexed</title>
<g id="a_node5"><a xlink:href="PsyllaReference_Types.xhtml#PsyllaReference_Types_Details_indexed" xlink:title="indexed" target="_parent">
<polygon fill="linen" stroke="black" points="108.32,-252 60.32,-252 60.32,-216 114.32,-216 114.32,-246 108.32,-252"/>
<polyline fill="none" stroke="black" points="108.32,-252 108.32,-246 "/>
<polyline fill="none" stroke="black" points="114.32,-246 108.32,-246 "/>
<text text-anchor="middle" x="87.32" y="-230.4" font-family="Source Code Pro,monospace" font-size="12.00">indexed</text>
</a>
</g>
</g>
<!-- indexed&#45;&gt;formalarray -->
<g id="edge4" class="edge">
<title>indexed&#45;&gt;formalarray</title>
<path fill="none" stroke="black" d="M91.54,-215.87C97.53,-191.56 108.56,-146.82 115.66,-118.01"/>
<polygon fill="black" stroke="black" points="119.09,-118.74 118.08,-108.19 112.29,-117.06 119.09,-118.74"/>
</g>
<!-- sequential -->
<g id="node6" class="node">
<title>sequential</title>
<g id="a_node6"><a xlink:href="PsyllaReference_Types.xhtml#PsyllaReference_Types_Details_sequential" xlink:title="sequential" target="_parent">
<polygon fill="linen" stroke="black" points="208.47,-396 150.17,-396 150.17,-360 214.47,-360 214.47,-390 208.47,-396"/>
<polyline fill="none" stroke="black" points="208.47,-396 208.47,-390 "/>
<polyline fill="none" stroke="black" points="214.47,-390 208.47,-390 "/>
<text text-anchor="middle" x="182.32" y="-374.4" font-family="Source Code Pro,monospace" font-size="12.00">sequential</text>
</a>
</g>
</g>
<!-- sequential&#45;&gt;formalarray -->
<g id="edge5" class="edge">
<title>sequential&#45;&gt;formalarray</title>
<path fill="none" stroke="black" d="M174.37,-359.65C169.97,-349.45 164.72,-336.2 161.32,-324 141.04,-251.15 129.74,-162.38 125.01,-118.4"/>
<polygon fill="black" stroke="black" points="128.47,-117.81 123.94,-108.23 121.5,-118.54 128.47,-117.81"/>
</g>
<!-- streamable -->
<g id="node11" class="node">
<title>streamable</title>
<g id="a_node11"><a xlink:href="PsyllaReference_Types.xhtml#PsyllaReference_Types_Details_streamable" xlink:title="streamable" target="_parent">
<polygon fill="linen" stroke="black" points="232.29,-324 170.35,-324 170.35,-288 238.29,-288 238.29,-318 232.29,-324"/>
<polyline fill="none" stroke="black" points="232.29,-324 232.29,-318 "/>
<polyline fill="none" stroke="black" points="238.29,-318 232.29,-318 "/>
<text text-anchor="middle" x="204.32" y="-302.4" font-family="Source Code Pro,monospace" font-size="12.00">streamable</text>
</a>
</g>
</g>
<!-- sequential&#45;&gt;streamable -->
<g id="edge15" class="edge">
<title>sequential&#45;&gt;streamable</title>
<path fill="none" stroke="black" d="M187.76,-359.7C190.21,-351.9 193.16,-342.51 195.89,-333.83"/>
<polygon fill="black" stroke="black" points="199.29,-334.69 198.95,-324.1 192.61,-332.59 199.29,-334.69"/>
</g>
<!-- object -->
<g id="node7" class="node">
<title>object</title>
<g id="a_node7"><a xlink:href="PsyllaReference_Types.xhtml#PsyllaReference_Types_Details_object" xlink:title="object" target="_parent">
<polygon fill="linen" stroke="black" points="203.32,-468 155.32,-468 155.32,-432 209.32,-432 209.32,-462 203.32,-468"/>
<polyline fill="none" stroke="black" points="203.32,-468 203.32,-462 "/>
<polyline fill="none" stroke="black" points="209.32,-462 203.32,-462 "/>
<text text-anchor="middle" x="182.32" y="-446.4" font-family="Source Code Pro,monospace" font-size="12.00">object</text>
</a>
</g>
</g>
<!-- object&#45;&gt;appendable -->
<g id="edge6" class="edge">
<title>object&#45;&gt;appendable</title>
<path fill="none" stroke="black" d="M155.17,-438.27C134.95,-429.26 107.62,-414.85 88.32,-396 70.02,-378.13 55.7,-352.65 46.58,-333.53"/>
<polygon fill="black" stroke="black" points="49.64,-331.81 42.29,-324.18 43.28,-334.73 49.64,-331.81"/>
</g>
<!-- object&#45;&gt;indexed -->
<g id="edge10" class="edge">
<title>object&#45;&gt;indexed</title>
<path fill="none" stroke="black" d="M166.69,-431.88C158.27,-421.97 148.23,-408.93 141.32,-396 117.61,-351.66 101.53,-294.95 93.43,-262.02"/>
<polygon fill="black" stroke="black" points="96.81,-261.12 91.08,-252.21 90.01,-262.75 96.81,-261.12"/>
</g>
<!-- object&#45;&gt;sequential -->
<g id="edge11" class="edge">
<title>object&#45;&gt;sequential</title>
<path fill="none" stroke="black" d="M182.32,-431.7C182.32,-423.98 182.32,-414.71 182.32,-406.11"/>
<polygon fill="black" stroke="black" points="185.82,-406.1 182.32,-396.1 178.82,-406.1 185.82,-406.1"/>
</g>
<!-- clearable -->
<g id="node8" class="node">
<title>clearable</title>
<g id="a_node8"><a xlink:href="PsyllaReference_Types.xhtml#PsyllaReference_Types_Details_clearable" xlink:title="clearable" target="_parent">
<polygon fill="linen" stroke="black" points="310.12,-324 256.52,-324 256.52,-288 316.12,-288 316.12,-318 310.12,-324"/>
<polyline fill="none" stroke="black" points="310.12,-324 310.12,-318 "/>
<polyline fill="none" stroke="black" points="316.12,-318 310.12,-318 "/>
<text text-anchor="middle" x="286.32" y="-302.4" font-family="Source Code Pro,monospace" font-size="12.00">clearable</text>
</a>
</g>
</g>
<!-- object&#45;&gt;clearable -->
<g id="edge12" class="edge">
<title>object&#45;&gt;clearable</title>
<path fill="none" stroke="black" d="M195.8,-431.95C203.89,-421.63 214.32,-408.16 223.32,-396 239,-374.82 256.26,-350.35 268.74,-332.44"/>
<polygon fill="black" stroke="black" points="271.62,-334.43 274.46,-324.22 265.88,-330.43 271.62,-334.43"/>
</g>
<!-- lengthy -->
<g id="node10" class="node">
<title>lengthy</title>
<g id="a_node10"><a xlink:href="PsyllaReference_Types.xhtml#PsyllaReference_Types_Details_lengthy" xlink:title="lengthy" target="_parent">
<polygon fill="linen" stroke="black" points="351.32,-396 303.32,-396 303.32,-360 357.32,-360 357.32,-390 351.32,-396"/>
<polyline fill="none" stroke="black" points="351.32,-396 351.32,-390 "/>
<polyline fill="none" stroke="black" points="357.32,-390 351.32,-390 "/>
<text text-anchor="middle" x="330.32" y="-374.4" font-family="Source Code Pro,monospace" font-size="12.00">lengthy</text>
</a>
</g>
</g>
<!-- object&#45;&gt;lengthy -->
<g id="edge14" class="edge">
<title>object&#45;&gt;lengthy</title>
<path fill="none" stroke="black" d="M209.47,-436.16C233.18,-424.95 267.79,-408.58 293.9,-396.23"/>
<polygon fill="black" stroke="black" points="295.55,-399.32 303.1,-391.88 292.56,-392.99 295.55,-399.32"/>
</g>
<!-- clearable&#45;&gt;container -->
<g id="edge7" class="edge">
<title>clearable&#45;&gt;container</title>
<path fill="none" stroke="black" d="M281.74,-287.87C275.23,-263.56 263.26,-218.82 255.55,-190.01"/>
<polygon fill="black" stroke="black" points="258.89,-188.94 252.92,-180.19 252.13,-190.75 258.89,-188.94"/>
</g>
<!-- iterable -->
<g id="node9" class="node">
<title>iterable</title>
<g id="a_node9"><a xlink:href="PsyllaReference_Types.xhtml#PsyllaReference_Types_Details_iterable" xlink:title="iterable" target="_parent">
<polygon fill="linen" stroke="black" points="238.32,-252 190.32,-252 190.32,-216 244.32,-216 244.32,-246 238.32,-252"/>
<polyline fill="none" stroke="black" points="238.32,-252 238.32,-246 "/>
<polyline fill="none" stroke="black" points="244.32,-246 238.32,-246 "/>
<text text-anchor="middle" x="217.32" y="-230.4" font-family="Source Code Pro,monospace" font-size="12.00">iterable</text>
</a>
</g>
</g>
<!-- iterable&#45;&gt;container -->
<g id="edge8" class="edge">
<title>iterable&#45;&gt;container</title>
<path fill="none" stroke="black" d="M224.98,-215.7C228.51,-207.73 232.78,-198.1 236.69,-189.26"/>
<polygon fill="black" stroke="black" points="239.9,-190.67 240.75,-180.1 233.5,-187.83 239.9,-190.67"/>
</g>
<!-- lengthy&#45;&gt;container -->
<g id="edge9" class="edge">
<title>lengthy&#45;&gt;container</title>
<path fill="none" stroke="black" d="M331.79,-359.83C332.81,-341.58 332.83,-312.08 325.32,-288 313.51,-250.13 287.6,-212.1 269.1,-188.11"/>
<polygon fill="black" stroke="black" points="271.83,-185.92 262.9,-180.23 266.33,-190.25 271.83,-185.92"/>
</g>
<!-- streamable&#45;&gt;iterable -->
<g id="edge13" class="edge">
<title>streamable&#45;&gt;iterable</title>
<path fill="none" stroke="black" d="M207.53,-287.7C208.97,-279.98 210.69,-270.71 212.29,-262.11"/>
<polygon fill="black" stroke="black" points="215.76,-262.58 214.14,-252.1 208.88,-261.3 215.76,-262.58"/>
</g>
</g>
</svg>
