<?xml version="1.0" encoding="UTF-8" standalone="no"?>
<!DOCTYPE svg PUBLIC "-//W3C//DTD SVG 1.1//EN"
 "http://www.w3.org/Graphics/SVG/1.1/DTD/svg11.dtd">
<!-- Generated by graphviz version 2.43.0 (0)
 -->
<!-- Title: bounded Pages: 1 -->
<svg width="82pt" height="188pt"
 viewBox="0.00 0.00 82.00 188.00" xmlns="http://www.w3.org/2000/svg" xmlns:xlink="http://www.w3.org/1999/xlink">
<g id="graph0" class="graph" transform="scale(1 1) rotate(0) translate(4 184)">
<title>bounded</title>
<polygon fill="transparent" stroke="transparent" points="-4,4 -4,-184 78,-184 78,4 -4,4"/>
<!-- lengthy -->
<g id="node1" class="node">
<title>lengthy</title>
<g id="a_node1"><a xlink:href="PsyllaReference_Types.xhtml#PsyllaReference_Types_Details_lengthy" xlink:title="lengthy" target="_parent">
<polygon fill="linen" stroke="black" points="68,-108 0,-108 0,-72 74,-72 74,-102 68,-108"/>
<polyline fill="none" stroke="black" points="68,-108 68,-102 "/>
<polyline fill="none" stroke="black" points="74,-102 68,-102 "/>
<text text-anchor="middle" x="37" y="-86.3" font-family="Consolas, monospace" font-size="14.00">lengthy</text>
</a>
</g>
</g>
<!-- bounded -->
<g id="node2" class="node">
<title>bounded</title>
<g id="a_node2"><a xlink:href="PsyllaReference_Types.xhtml#PsyllaReference_Types_Details_bounded" xlink:title="bounded" target="_parent">
<polygon fill="wheat" stroke="black" points="68,-36 0,-36 0,0 74,0 74,-30 68,-36"/>
<polyline fill="none" stroke="black" points="68,-36 68,-30 "/>
<polyline fill="none" stroke="black" points="74,-30 68,-30 "/>
<text text-anchor="middle" x="37" y="-14.3" font-family="Consolas, monospace" font-size="14.00">bounded</text>
</a>
</g>
</g>
<!-- lengthy&#45;&gt;bounded -->
<g id="edge1" class="edge">
<title>lengthy&#45;&gt;bounded</title>
<path fill="none" stroke="black" d="M37,-71.7C37,-63.98 37,-54.71 37,-46.11"/>
<polygon fill="black" stroke="black" points="40.5,-46.1 37,-36.1 33.5,-46.1 40.5,-46.1"/>
</g>
<!-- object -->
<g id="node3" class="node">
<title>object</title>
<g id="a_node3"><a xlink:href="PsyllaReference_Types.xhtml#PsyllaReference_Types_Details_object" xlink:title="object" target="_parent">
<polygon fill="linen" stroke="black" points="64,-180 4,-180 4,-144 70,-144 70,-174 64,-180"/>
<polyline fill="none" stroke="black" points="64,-180 64,-174 "/>
<polyline fill="none" stroke="black" points="70,-174 64,-174 "/>
<text text-anchor="middle" x="37" y="-158.3" font-family="Consolas, monospace" font-size="14.00">object</text>
</a>
</g>
</g>
<!-- object&#45;&gt;lengthy -->
<g id="edge2" class="edge">
<title>object&#45;&gt;lengthy</title>
<path fill="none" stroke="black" d="M37,-143.7C37,-135.98 37,-126.71 37,-118.11"/>
<polygon fill="black" stroke="black" points="40.5,-118.1 37,-108.1 33.5,-118.1 40.5,-118.1"/>
</g>
</g>
</svg>
