<?xml version="1.0" encoding="UTF-8" standalone="no"?>
<!DOCTYPE svg PUBLIC "-//W3C//DTD SVG 1.1//EN"
 "http://www.w3.org/Graphics/SVG/1.1/DTD/svg11.dtd">
<!-- Generated by graphviz version 2.43.0 (0)
 -->
<!-- Title: formalarray Pages: 1 -->
<svg width="572pt" height="404pt"
 viewBox="0.00 0.00 572.00 404.00" xmlns="http://www.w3.org/2000/svg" xmlns:xlink="http://www.w3.org/1999/xlink">
<g id="graph0" class="graph" transform="scale(1 1) rotate(0) translate(4 400)">
<title>formalarray</title>
<polygon fill="transparent" stroke="transparent" points="-4,4 -4,-400 568,-400 568,4 -4,4"/>
<!-- appendable -->
<g id="node1" class="node">
<title>appendable</title>
<g id="a_node1"><a xlink:href="PsyllaReference_Types.xhtml#PsyllaReference_Types_Details_appendable" xlink:title="appendable" target="_parent">
<polygon fill="linen" stroke="black" points="131,-252 0,-252 0,-216 137,-216 137,-246 131,-252"/>
<polyline fill="none" stroke="black" points="131,-252 131,-246 "/>
<polyline fill="none" stroke="black" points="137,-246 131,-246 "/>
<text text-anchor="middle" x="68.5" y="-229" font-family="PT Mono, monospace" font-size="20.00">appendable</text>
</a>
</g>
</g>
<!-- formalarray -->
<g id="node5" class="node">
<title>formalarray</title>
<g id="a_node5"><a xlink:href="PsyllaReference_Types.xhtml#PsyllaReference_Types_Details_formalarray" xlink:title="formalarray" target="_parent">
<polygon fill="wheat" stroke="black" points="249,-36 106,-36 106,0 255,0 255,-30 249,-36"/>
<polyline fill="none" stroke="black" points="249,-36 249,-30 "/>
<polyline fill="none" stroke="black" points="255,-30 249,-30 "/>
<text text-anchor="middle" x="180.5" y="-13" font-family="PT Mono, monospace" font-size="20.00">formalarray</text>
</a>
</g>
</g>
<!-- appendable&#45;&gt;formalarray -->
<g id="edge1" class="edge">
<title>appendable&#45;&gt;formalarray</title>
<path fill="none" stroke="black" d="M64.91,-215.8C59.36,-184.37 52.15,-116.8 81.5,-72 90.22,-58.69 103.44,-48.48 117.41,-40.74"/>
<polygon fill="black" stroke="black" points="119.35,-43.68 126.66,-36.01 116.16,-37.45 119.35,-43.68"/>
</g>
<!-- container -->
<g id="node2" class="node">
<title>container</title>
<g id="a_node2"><a xlink:href="PsyllaReference_Types.xhtml#PsyllaReference_Types_Details_container" xlink:title="container" target="_parent">
<polygon fill="linen" stroke="black" points="433,-108 314,-108 314,-72 439,-72 439,-102 433,-108"/>
<polyline fill="none" stroke="black" points="433,-108 433,-102 "/>
<polyline fill="none" stroke="black" points="439,-102 433,-102 "/>
<text text-anchor="middle" x="376.5" y="-85" font-family="PT Mono, monospace" font-size="20.00">container</text>
</a>
</g>
</g>
<!-- container&#45;&gt;formalarray -->
<g id="edge2" class="edge">
<title>container&#45;&gt;formalarray</title>
<path fill="none" stroke="black" d="M328.8,-71.97C301.42,-62.19 266.84,-49.84 237.97,-39.52"/>
<polygon fill="black" stroke="black" points="239,-36.18 228.41,-36.11 236.65,-42.77 239,-36.18"/>
</g>
<!-- indexed -->
<g id="node3" class="node">
<title>indexed</title>
<g id="a_node3"><a xlink:href="PsyllaReference_Types.xhtml#PsyllaReference_Types_Details_indexed" xlink:title="indexed" target="_parent">
<polygon fill="linen" stroke="black" points="186,-108 91,-108 91,-72 192,-72 192,-102 186,-108"/>
<polyline fill="none" stroke="black" points="186,-108 186,-102 "/>
<polyline fill="none" stroke="black" points="192,-102 186,-102 "/>
<text text-anchor="middle" x="141.5" y="-85" font-family="PT Mono, monospace" font-size="20.00">indexed</text>
</a>
</g>
</g>
<!-- indexed&#45;&gt;formalarray -->
<g id="edge3" class="edge">
<title>indexed&#45;&gt;formalarray</title>
<path fill="none" stroke="black" d="M151.14,-71.7C155.63,-63.64 161.06,-53.89 166.02,-44.98"/>
<polygon fill="black" stroke="black" points="169.16,-46.54 170.97,-36.1 163.05,-43.14 169.16,-46.54"/>
</g>
<!-- sequential -->
<g id="node4" class="node">
<title>sequential</title>
<g id="a_node4"><a xlink:href="PsyllaReference_Types.xhtml#PsyllaReference_Types_Details_sequential" xlink:title="sequential" target="_parent">
<polygon fill="linen" stroke="black" points="355,-324 224,-324 224,-288 361,-288 361,-318 355,-324"/>
<polyline fill="none" stroke="black" points="355,-324 355,-318 "/>
<polyline fill="none" stroke="black" points="361,-318 355,-318 "/>
<text text-anchor="middle" x="292.5" y="-301" font-family="PT Mono, monospace" font-size="20.00">sequential</text>
</a>
</g>
</g>
<!-- sequential&#45;&gt;formalarray -->
<g id="edge4" class="edge">
<title>sequential&#45;&gt;formalarray</title>
<path fill="none" stroke="black" d="M270.12,-287.86C259.29,-278.42 247.04,-265.82 239.5,-252 200.3,-180.14 223.68,-150.51 200.5,-72 197.97,-63.42 194.71,-54.24 191.56,-45.97"/>
<polygon fill="black" stroke="black" points="194.73,-44.48 187.83,-36.45 188.21,-47.03 194.73,-44.48"/>
</g>
<!-- streamable -->
<g id="node10" class="node">
<title>streamable</title>
<g id="a_node10"><a xlink:href="PsyllaReference_Types.xhtml#PsyllaReference_Types_Details_streamable" xlink:title="streamable" target="_parent">
<polygon fill="linen" stroke="black" points="380,-252 249,-252 249,-216 386,-216 386,-246 380,-252"/>
<polyline fill="none" stroke="black" points="380,-252 380,-246 "/>
<polyline fill="none" stroke="black" points="386,-246 380,-246 "/>
<text text-anchor="middle" x="317.5" y="-229" font-family="PT Mono, monospace" font-size="20.00">streamable</text>
</a>
</g>
</g>
<!-- sequential&#45;&gt;streamable -->
<g id="edge14" class="edge">
<title>sequential&#45;&gt;streamable</title>
<path fill="none" stroke="black" d="M298.68,-287.7C301.5,-279.81 304.89,-270.3 308.02,-261.55"/>
<polygon fill="black" stroke="black" points="311.32,-262.7 311.39,-252.1 304.73,-260.34 311.32,-262.7"/>
</g>
<!-- object -->
<g id="node6" class="node">
<title>object</title>
<g id="a_node6"><a xlink:href="PsyllaReference_Types.xhtml#PsyllaReference_Types_Details_object" xlink:title="object" target="_parent">
<polygon fill="linen" stroke="black" points="331,-396 248,-396 248,-360 337,-360 337,-390 331,-396"/>
<polyline fill="none" stroke="black" points="331,-396 331,-390 "/>
<polyline fill="none" stroke="black" points="337,-390 331,-390 "/>
<text text-anchor="middle" x="292.5" y="-373" font-family="PT Mono, monospace" font-size="20.00">object</text>
</a>
</g>
</g>
<!-- object&#45;&gt;appendable -->
<g id="edge5" class="edge">
<title>object&#45;&gt;appendable</title>
<path fill="none" stroke="black" d="M247.77,-363.39C221.73,-354.36 188.93,-341.04 162.5,-324 134.61,-306.02 107.62,-279.17 89.77,-259.67"/>
<polygon fill="black" stroke="black" points="92.23,-257.16 82.94,-252.07 87.02,-261.84 92.23,-257.16"/>
</g>
<!-- object&#45;&gt;indexed -->
<g id="edge9" class="edge">
<title>object&#45;&gt;indexed</title>
<path fill="none" stroke="black" d="M257,-359.77C242.02,-350.92 225.53,-338.85 214.5,-324 167.12,-260.2 149.98,-164.89 144.21,-118.44"/>
<polygon fill="black" stroke="black" points="147.65,-117.78 143.03,-108.25 140.7,-118.58 147.65,-117.78"/>
</g>
<!-- object&#45;&gt;sequential -->
<g id="edge10" class="edge">
<title>object&#45;&gt;sequential</title>
<path fill="none" stroke="black" d="M292.5,-359.7C292.5,-351.98 292.5,-342.71 292.5,-334.11"/>
<polygon fill="black" stroke="black" points="296,-334.1 292.5,-324.1 289,-334.1 296,-334.1"/>
</g>
<!-- clearable -->
<g id="node7" class="node">
<title>clearable</title>
<g id="a_node7"><a xlink:href="PsyllaReference_Types.xhtml#PsyllaReference_Types_Details_clearable" xlink:title="clearable" target="_parent">
<polygon fill="linen" stroke="black" points="499,-180 380,-180 380,-144 505,-144 505,-174 499,-180"/>
<polyline fill="none" stroke="black" points="499,-180 499,-174 "/>
<polyline fill="none" stroke="black" points="505,-174 499,-174 "/>
<text text-anchor="middle" x="442.5" y="-157" font-family="PT Mono, monospace" font-size="20.00">clearable</text>
</a>
</g>
</g>
<!-- object&#45;&gt;clearable -->
<g id="edge11" class="edge">
<title>object&#45;&gt;clearable</title>
<path fill="none" stroke="black" d="M325.17,-359.97C340.18,-350.88 357.31,-338.56 369.5,-324 403.59,-283.26 424.96,-224.01 435.22,-189.9"/>
<polygon fill="black" stroke="black" points="438.62,-190.75 438.05,-180.17 431.89,-188.8 438.62,-190.75"/>
</g>
<!-- lengthy -->
<g id="node9" class="node">
<title>lengthy</title>
<g id="a_node9"><a xlink:href="PsyllaReference_Types.xhtml#PsyllaReference_Types_Details_lengthy" xlink:title="lengthy" target="_parent">
<polygon fill="linen" stroke="black" points="558,-324 463,-324 463,-288 564,-288 564,-318 558,-324"/>
<polyline fill="none" stroke="black" points="558,-324 558,-318 "/>
<polyline fill="none" stroke="black" points="564,-318 558,-318 "/>
<text text-anchor="middle" x="513.5" y="-301" font-family="PT Mono, monospace" font-size="20.00">lengthy</text>
</a>
</g>
</g>
<!-- object&#45;&gt;lengthy -->
<g id="edge13" class="edge">
<title>object&#45;&gt;lengthy</title>
<path fill="none" stroke="black" d="M337.22,-362.83C370.57,-352.27 416.48,-337.73 453.08,-326.14"/>
<polygon fill="black" stroke="black" points="454.18,-329.46 462.66,-323.1 452.07,-322.79 454.18,-329.46"/>
</g>
<!-- clearable&#45;&gt;container -->
<g id="edge6" class="edge">
<title>clearable&#45;&gt;container</title>
<path fill="none" stroke="black" d="M426.19,-143.7C418.19,-135.22 408.43,-124.86 399.68,-115.58"/>
<polygon fill="black" stroke="black" points="402.03,-112.98 392.63,-108.1 396.94,-117.78 402.03,-112.98"/>
</g>
<!-- iterable -->
<g id="node8" class="node">
<title>iterable</title>
<g id="a_node8"><a xlink:href="PsyllaReference_Types.xhtml#PsyllaReference_Types_Details_iterable" xlink:title="iterable" target="_parent">
<polygon fill="linen" stroke="black" points="356,-180 249,-180 249,-144 362,-144 362,-174 356,-180"/>
<polyline fill="none" stroke="black" points="356,-180 356,-174 "/>
<polyline fill="none" stroke="black" points="362,-174 356,-174 "/>
<text text-anchor="middle" x="305.5" y="-157" font-family="PT Mono, monospace" font-size="20.00">iterable</text>
</a>
</g>
</g>
<!-- iterable&#45;&gt;container -->
<g id="edge7" class="edge">
<title>iterable&#45;&gt;container</title>
<path fill="none" stroke="black" d="M323.05,-143.7C331.73,-135.14 342.36,-124.66 351.85,-115.3"/>
<polygon fill="black" stroke="black" points="354.49,-117.62 359.15,-108.1 349.57,-112.63 354.49,-117.62"/>
</g>
<!-- lengthy&#45;&gt;container -->
<g id="edge8" class="edge">
<title>lengthy&#45;&gt;container</title>
<path fill="none" stroke="black" d="M519.26,-287.9C528.75,-256.34 543.76,-188.15 513.5,-144 498.67,-122.36 473.65,-109.56 449.01,-101.98"/>
<polygon fill="black" stroke="black" points="449.82,-98.57 439.24,-99.23 447.92,-105.31 449.82,-98.57"/>
</g>
<!-- streamable&#45;&gt;iterable -->
<g id="edge12" class="edge">
<title>streamable&#45;&gt;iterable</title>
<path fill="none" stroke="black" d="M314.53,-215.7C313.21,-207.98 311.62,-198.71 310.15,-190.11"/>
<polygon fill="black" stroke="black" points="313.57,-189.37 308.43,-180.1 306.67,-190.55 313.57,-189.37"/>
</g>
</g>
</svg>
