<?xml version="1.0" encoding="UTF-8" standalone="no"?>
<!DOCTYPE svg PUBLIC "-//W3C//DTD SVG 1.1//EN"
 "http://www.w3.org/Graphics/SVG/1.1/DTD/svg11.dtd">
<!-- Generated by graphviz version 2.43.0 (0)
 -->
<!-- Title: container Pages: 1 -->
<svg width="247pt" height="332pt"
 viewBox="0.00 0.00 247.00 332.00" xmlns="http://www.w3.org/2000/svg" xmlns:xlink="http://www.w3.org/1999/xlink">
<g id="graph0" class="graph" transform="scale(1 1) rotate(0) translate(4 328)">
<title>container</title>
<polygon fill="transparent" stroke="transparent" points="-4,4 -4,-328 243,-328 243,4 -4,4"/>
<!-- clearable -->
<g id="node1" class="node">
<title>clearable</title>
<g id="a_node1"><a xlink:href="PsyllaReference_Types.xhtml#PsyllaReference_Types_Details_clearable" xlink:title="clearable" target="_parent">
<polygon fill="linen" stroke="black" points="78,-180 0,-180 0,-144 84,-144 84,-174 78,-180"/>
<polyline fill="none" stroke="black" points="78,-180 78,-174 "/>
<polyline fill="none" stroke="black" points="84,-174 78,-174 "/>
<text text-anchor="middle" x="42" y="-158.9" font-family="Source Code Pro,monospace" font-size="12.00">clearable</text>
</a>
</g>
</g>
<!-- container -->
<g id="node4" class="node">
<title>container</title>
<g id="a_node4"><a xlink:href="PsyllaReference_Types.xhtml#PsyllaReference_Types_Details_container" xlink:title="container" target="_parent">
<polygon fill="wheat" stroke="black" points="141,-36 63,-36 63,0 147,0 147,-30 141,-36"/>
<polyline fill="none" stroke="black" points="141,-36 141,-30 "/>
<polyline fill="none" stroke="black" points="147,-30 141,-30 "/>
<text text-anchor="middle" x="105" y="-14.9" font-family="Source Code Pro,monospace" font-size="12.00">container</text>
</a>
</g>
</g>
<!-- clearable&#45;&gt;container -->
<g id="edge1" class="edge">
<title>clearable&#45;&gt;container</title>
<path fill="none" stroke="black" d="M43.22,-143.81C45.07,-125.28 49.69,-95.31 61,-72 65.9,-61.89 73.14,-52.06 80.33,-43.67"/>
<polygon fill="black" stroke="black" points="83.05,-45.88 87.13,-36.1 77.84,-41.2 83.05,-45.88"/>
</g>
<!-- iterable -->
<g id="node2" class="node">
<title>iterable</title>
<g id="a_node2"><a xlink:href="PsyllaReference_Types.xhtml#PsyllaReference_Types_Details_iterable" xlink:title="iterable" target="_parent">
<polygon fill="linen" stroke="black" points="228.5,-108 157.5,-108 157.5,-72 234.5,-72 234.5,-102 228.5,-108"/>
<polyline fill="none" stroke="black" points="228.5,-108 228.5,-102 "/>
<polyline fill="none" stroke="black" points="234.5,-102 228.5,-102 "/>
<text text-anchor="middle" x="196" y="-86.9" font-family="Source Code Pro,monospace" font-size="12.00">iterable</text>
</a>
</g>
</g>
<!-- iterable&#45;&gt;container -->
<g id="edge2" class="edge">
<title>iterable&#45;&gt;container</title>
<path fill="none" stroke="black" d="M173.51,-71.7C162.04,-62.88 147.94,-52.03 135.52,-42.47"/>
<polygon fill="black" stroke="black" points="137.3,-39.43 127.24,-36.1 133.03,-44.98 137.3,-39.43"/>
</g>
<!-- lengthy -->
<g id="node3" class="node">
<title>lengthy</title>
<g id="a_node3"><a xlink:href="PsyllaReference_Types.xhtml#PsyllaReference_Types_Details_lengthy" xlink:title="lengthy" target="_parent">
<polygon fill="linen" stroke="black" points="133.5,-108 70.5,-108 70.5,-72 139.5,-72 139.5,-102 133.5,-108"/>
<polyline fill="none" stroke="black" points="133.5,-108 133.5,-102 "/>
<polyline fill="none" stroke="black" points="139.5,-102 133.5,-102 "/>
<text text-anchor="middle" x="105" y="-86.9" font-family="Source Code Pro,monospace" font-size="12.00">lengthy</text>
</a>
</g>
</g>
<!-- lengthy&#45;&gt;container -->
<g id="edge3" class="edge">
<title>lengthy&#45;&gt;container</title>
<path fill="none" stroke="black" d="M105,-71.7C105,-63.98 105,-54.71 105,-46.11"/>
<polygon fill="black" stroke="black" points="108.5,-46.1 105,-36.1 101.5,-46.1 108.5,-46.1"/>
</g>
<!-- object -->
<g id="node5" class="node">
<title>object</title>
<g id="a_node5"><a xlink:href="PsyllaReference_Types.xhtml#PsyllaReference_Types_Details_object" xlink:title="object" target="_parent">
<polygon fill="linen" stroke="black" points="137,-324 81,-324 81,-288 143,-288 143,-318 137,-324"/>
<polyline fill="none" stroke="black" points="137,-324 137,-318 "/>
<polyline fill="none" stroke="black" points="143,-318 137,-318 "/>
<text text-anchor="middle" x="112" y="-302.9" font-family="Source Code Pro,monospace" font-size="12.00">object</text>
</a>
</g>
</g>
<!-- object&#45;&gt;clearable -->
<g id="edge4" class="edge">
<title>object&#45;&gt;clearable</title>
<path fill="none" stroke="black" d="M103.56,-287.87C91.47,-263.35 69.13,-218.03 54.94,-189.26"/>
<polygon fill="black" stroke="black" points="58.03,-187.61 50.47,-180.19 51.76,-190.71 58.03,-187.61"/>
</g>
<!-- object&#45;&gt;lengthy -->
<g id="edge6" class="edge">
<title>object&#45;&gt;lengthy</title>
<path fill="none" stroke="black" d="M111.44,-287.85C110.23,-250.83 107.36,-163.18 105.9,-118.39"/>
<polygon fill="black" stroke="black" points="109.39,-118.11 105.56,-108.23 102.39,-118.34 109.39,-118.11"/>
</g>
<!-- sequential -->
<g id="node7" class="node">
<title>sequential</title>
<g id="a_node7"><a xlink:href="PsyllaReference_Types.xhtml#PsyllaReference_Types_Details_sequential" xlink:title="sequential" target="_parent">
<polygon fill="linen" stroke="black" points="228,-252 142,-252 142,-216 234,-216 234,-246 228,-252"/>
<polyline fill="none" stroke="black" points="228,-252 228,-246 "/>
<polyline fill="none" stroke="black" points="234,-246 228,-246 "/>
<text text-anchor="middle" x="188" y="-230.9" font-family="Source Code Pro,monospace" font-size="12.00">sequential</text>
</a>
</g>
</g>
<!-- object&#45;&gt;sequential -->
<g id="edge8" class="edge">
<title>object&#45;&gt;sequential</title>
<path fill="none" stroke="black" d="M130.79,-287.7C140.17,-279.05 151.68,-268.45 161.91,-259.03"/>
<polygon fill="black" stroke="black" points="164.45,-261.45 169.43,-252.1 159.7,-256.3 164.45,-261.45"/>
</g>
<!-- streamable -->
<g id="node6" class="node">
<title>streamable</title>
<g id="a_node6"><a xlink:href="PsyllaReference_Types.xhtml#PsyllaReference_Types_Details_streamable" xlink:title="streamable" target="_parent">
<polygon fill="linen" stroke="black" points="233,-180 147,-180 147,-144 239,-144 239,-174 233,-180"/>
<polyline fill="none" stroke="black" points="233,-180 233,-174 "/>
<polyline fill="none" stroke="black" points="239,-174 233,-174 "/>
<text text-anchor="middle" x="193" y="-158.9" font-family="Source Code Pro,monospace" font-size="12.00">streamable</text>
</a>
</g>
</g>
<!-- streamable&#45;&gt;iterable -->
<g id="edge5" class="edge">
<title>streamable&#45;&gt;iterable</title>
<path fill="none" stroke="black" d="M193.74,-143.7C194.07,-135.98 194.47,-126.71 194.84,-118.11"/>
<polygon fill="black" stroke="black" points="198.34,-118.25 195.27,-108.1 191.34,-117.95 198.34,-118.25"/>
</g>
<!-- sequential&#45;&gt;streamable -->
<g id="edge7" class="edge">
<title>sequential&#45;&gt;streamable</title>
<path fill="none" stroke="black" d="M189.24,-215.7C189.79,-207.98 190.45,-198.71 191.06,-190.11"/>
<polygon fill="black" stroke="black" points="194.56,-190.33 191.78,-180.1 187.57,-189.83 194.56,-190.33"/>
</g>
</g>
</svg>
