<?xml version="1.0" encoding="UTF-8" standalone="no"?>
<!DOCTYPE svg PUBLIC "-//W3C//DTD SVG 1.1//EN"
 "http://www.w3.org/Graphics/SVG/1.1/DTD/svg11.dtd">
<!-- Generated by graphviz version 14.0.0 (0)
 -->
<!-- Title: output Pages: 1 -->
<svg width="220pt" height="188pt"
 viewBox="0.00 0.00 220.00 188.00" xmlns="http://www.w3.org/2000/svg" xmlns:xlink="http://www.w3.org/1999/xlink">
<g id="graph0" class="graph" transform="scale(1 1) rotate(0) translate(4 184)">
<title>output</title>
<polygon fill="none" stroke="none" points="-4,4 -4,-184 215.98,-184 215.98,4 -4,4"/>
<!-- closeable -->
<g id="node1" class="node">
<title>closeable</title>
<g id="a_node1"><a xlink:href="PsyllaReference_Types.xhtml#PsyllaReference_Types_Details_closeable" xlink:title="closeable" target="_parent">
<polygon fill="linen" stroke="black" points="54.64,-108 0,-108 0,-72 60.64,-72 60.64,-102 54.64,-108"/>
<polyline fill="none" stroke="black" points="54.64,-108 54.64,-102"/>
<polyline fill="none" stroke="black" points="60.64,-102 54.64,-102"/>
<text xml:space="preserve" text-anchor="middle" x="30.32" y="-86.4" font-family="Source Code Pro,monospace" font-size="12.00">closeable</text>
</a>
</g>
</g>
<!-- output -->
<g id="node4" class="node">
<title>output</title>
<g id="a_node4"><a xlink:href="PsyllaReference_Types.xhtml#PsyllaReference_Types_Details_output" xlink:title="output" target="_parent">
<polygon fill="wheat" stroke="black" points="129.32,-36 81.32,-36 81.32,0 135.32,0 135.32,-30 129.32,-36"/>
<polyline fill="none" stroke="black" points="129.32,-36 129.32,-30"/>
<polyline fill="none" stroke="black" points="135.32,-30 129.32,-30"/>
<text xml:space="preserve" text-anchor="middle" x="108.32" y="-14.4" font-family="Source Code Pro,monospace" font-size="12.00">output</text>
</a>
</g>
</g>
<!-- closeable&#45;&gt;output -->
<g id="edge1" class="edge">
<title>closeable&#45;&gt;output</title>
<path fill="none" stroke="black" d="M49.6,-71.7C58.98,-63.28 70.42,-53.02 80.7,-43.79"/>
<polygon fill="black" stroke="black" points="82.76,-46.64 87.87,-37.36 78.09,-41.43 82.76,-46.64"/>
</g>
<!-- flushable -->
<g id="node2" class="node">
<title>flushable</title>
<g id="a_node2"><a xlink:href="PsyllaReference_Types.xhtml#PsyllaReference_Types_Details_flushable" xlink:title="flushable" target="_parent">
<polygon fill="linen" stroke="black" points="132.31,-108 78.33,-108 78.33,-72 138.31,-72 138.31,-102 132.31,-108"/>
<polyline fill="none" stroke="black" points="132.31,-108 132.31,-102"/>
<polyline fill="none" stroke="black" points="138.31,-102 132.31,-102"/>
<text xml:space="preserve" text-anchor="middle" x="108.32" y="-86.4" font-family="Source Code Pro,monospace" font-size="12.00">flushable</text>
</a>
</g>
</g>
<!-- flushable&#45;&gt;output -->
<g id="edge2" class="edge">
<title>flushable&#45;&gt;output</title>
<path fill="none" stroke="black" d="M108.32,-71.7C108.32,-64.41 108.32,-55.73 108.32,-47.54"/>
<polygon fill="black" stroke="black" points="111.82,-47.62 108.32,-37.62 104.82,-47.62 111.82,-47.62"/>
</g>
<!-- writable -->
<g id="node3" class="node">
<title>writable</title>
<g id="a_node3"><a xlink:href="PsyllaReference_Types.xhtml#PsyllaReference_Types_Details_writable" xlink:title="writable" target="_parent">
<polygon fill="linen" stroke="black" points="205.98,-108 156.66,-108 156.66,-72 211.98,-72 211.98,-102 205.98,-108"/>
<polyline fill="none" stroke="black" points="205.98,-108 205.98,-102"/>
<polyline fill="none" stroke="black" points="211.98,-102 205.98,-102"/>
<text xml:space="preserve" text-anchor="middle" x="184.32" y="-86.4" font-family="Source Code Pro,monospace" font-size="12.00">writable</text>
</a>
</g>
</g>
<!-- writable&#45;&gt;output -->
<g id="edge3" class="edge">
<title>writable&#45;&gt;output</title>
<path fill="none" stroke="black" d="M165.53,-71.7C156.49,-63.37 145.48,-53.22 135.54,-44.07"/>
<polygon fill="black" stroke="black" points="138,-41.57 128.27,-37.37 133.25,-46.72 138,-41.57"/>
</g>
<!-- object -->
<g id="node5" class="node">
<title>object</title>
<g id="a_node5"><a xlink:href="PsyllaReference_Types.xhtml#PsyllaReference_Types_Details_object" xlink:title="object" target="_parent">
<polygon fill="linen" stroke="black" points="129.32,-180 81.32,-180 81.32,-144 135.32,-144 135.32,-174 129.32,-180"/>
<polyline fill="none" stroke="black" points="129.32,-180 129.32,-174"/>
<polyline fill="none" stroke="black" points="135.32,-174 129.32,-174"/>
<text xml:space="preserve" text-anchor="middle" x="108.32" y="-158.4" font-family="Source Code Pro,monospace" font-size="12.00">object</text>
</a>
</g>
</g>
<!-- object&#45;&gt;closeable -->
<g id="edge4" class="edge">
<title>object&#45;&gt;closeable</title>
<path fill="none" stroke="black" d="M89.04,-143.7C79.67,-135.28 68.23,-125.02 57.95,-115.79"/>
<polygon fill="black" stroke="black" points="60.56,-113.43 50.78,-109.36 55.88,-118.64 60.56,-113.43"/>
</g>
<!-- object&#45;&gt;flushable -->
<g id="edge5" class="edge">
<title>object&#45;&gt;flushable</title>
<path fill="none" stroke="black" d="M108.32,-143.7C108.32,-136.41 108.32,-127.73 108.32,-119.54"/>
<polygon fill="black" stroke="black" points="111.82,-119.62 108.32,-109.62 104.82,-119.62 111.82,-119.62"/>
</g>
<!-- object&#45;&gt;writable -->
<g id="edge6" class="edge">
<title>object&#45;&gt;writable</title>
<path fill="none" stroke="black" d="M127.11,-143.7C136.15,-135.37 147.16,-125.22 157.1,-116.07"/>
<polygon fill="black" stroke="black" points="159.39,-118.72 164.37,-109.37 154.65,-113.57 159.39,-118.72"/>
</g>
</g>
</svg>
