<?xml version="1.0" encoding="UTF-8" standalone="no"?>
<!DOCTYPE svg PUBLIC "-//W3C//DTD SVG 1.1//EN"
 "http://www.w3.org/Graphics/SVG/1.1/DTD/svg11.dtd">
<!-- Generated by graphviz version 2.43.0 (0)
 -->
<!-- Title: matcher Pages: 1 -->
<svg width="79pt" height="188pt"
 viewBox="0.00 0.00 79.00 188.00" xmlns="http://www.w3.org/2000/svg" xmlns:xlink="http://www.w3.org/1999/xlink">
<g id="graph0" class="graph" transform="scale(1 1) rotate(0) translate(4 184)">
<title>matcher</title>
<polygon fill="transparent" stroke="transparent" points="-4,4 -4,-184 75,-184 75,4 -4,4"/>
<!-- resetable -->
<g id="node1" class="node">
<title>resetable</title>
<g id="a_node1"><a xlink:href="PsyllaReference_Types.xhtml#PsyllaReference_Types_Details_resetable" xlink:title="resetable" target="_parent">
<polygon fill="linen" stroke="black" points="65,-108 0,-108 0,-72 71,-72 71,-102 65,-108"/>
<polyline fill="none" stroke="black" points="65,-108 65,-102 "/>
<polyline fill="none" stroke="black" points="71,-102 65,-102 "/>
<text text-anchor="middle" x="35.5" y="-87.5" font-family="PT Mono, monospace" font-size="10.00">resetable</text>
</a>
</g>
</g>
<!-- matcher -->
<g id="node2" class="node">
<title>matcher</title>
<g id="a_node2"><a xlink:href="PsyllaReference_Types.xhtml#PsyllaReference_Types_Details_matcher" xlink:title="matcher" target="_parent">
<polygon fill="wheat" stroke="black" points="59,-36 6,-36 6,0 65,0 65,-30 59,-36"/>
<polyline fill="none" stroke="black" points="59,-36 59,-30 "/>
<polyline fill="none" stroke="black" points="65,-30 59,-30 "/>
<text text-anchor="middle" x="35.5" y="-15.5" font-family="PT Mono, monospace" font-size="10.00">matcher</text>
</a>
</g>
</g>
<!-- resetable&#45;&gt;matcher -->
<g id="edge1" class="edge">
<title>resetable&#45;&gt;matcher</title>
<path fill="none" stroke="black" d="M35.5,-71.7C35.5,-63.98 35.5,-54.71 35.5,-46.11"/>
<polygon fill="black" stroke="black" points="39,-46.1 35.5,-36.1 32,-46.1 39,-46.1"/>
</g>
<!-- object -->
<g id="node3" class="node">
<title>object</title>
<g id="a_node3"><a xlink:href="PsyllaReference_Types.xhtml#PsyllaReference_Types_Details_object" xlink:title="object" target="_parent">
<polygon fill="linen" stroke="black" points="56.5,-180 8.5,-180 8.5,-144 62.5,-144 62.5,-174 56.5,-180"/>
<polyline fill="none" stroke="black" points="56.5,-180 56.5,-174 "/>
<polyline fill="none" stroke="black" points="62.5,-174 56.5,-174 "/>
<text text-anchor="middle" x="35.5" y="-159.5" font-family="PT Mono, monospace" font-size="10.00">object</text>
</a>
</g>
</g>
<!-- object&#45;&gt;resetable -->
<g id="edge2" class="edge">
<title>object&#45;&gt;resetable</title>
<path fill="none" stroke="black" d="M35.5,-143.7C35.5,-135.98 35.5,-126.71 35.5,-118.11"/>
<polygon fill="black" stroke="black" points="39,-118.1 35.5,-108.1 32,-118.1 39,-118.1"/>
</g>
</g>
</svg>
