<?xml version="1.0" encoding="UTF-8" standalone="no"?>
<!DOCTYPE svg PUBLIC "-//W3C//DTD SVG 1.1//EN"
 "http://www.w3.org/Graphics/SVG/1.1/DTD/svg11.dtd">
<!-- Generated by graphviz version 2.43.0 (0)
 -->
<!-- Title: realnumeric Pages: 1 -->
<svg width="202pt" height="332pt"
 viewBox="0.00 0.00 201.50 332.00" xmlns="http://www.w3.org/2000/svg" xmlns:xlink="http://www.w3.org/1999/xlink">
<g id="graph0" class="graph" transform="scale(1 1) rotate(0) translate(4 328)">
<title>realnumeric</title>
<polygon fill="transparent" stroke="transparent" points="-4,4 -4,-328 197.5,-328 197.5,4 -4,4"/>
<!-- numeric -->
<g id="node1" class="node">
<title>numeric</title>
<g id="a_node1"><a xlink:href="PsyllaReference_Types.xhtml#PsyllaReference_Types_Details_numeric" xlink:title="numeric" target="_parent">
<polygon fill="linen" stroke="black" points="108.5,-108 55.5,-108 55.5,-72 114.5,-72 114.5,-102 108.5,-108"/>
<polyline fill="none" stroke="black" points="108.5,-108 108.5,-102 "/>
<polyline fill="none" stroke="black" points="114.5,-102 108.5,-102 "/>
<text text-anchor="middle" x="85" y="-87.5" font-family="PT Mono, monospace" font-size="10.00">numeric</text>
</a>
</g>
</g>
<!-- realnumeric -->
<g id="node3" class="node">
<title>realnumeric</title>
<g id="a_node3"><a xlink:href="PsyllaReference_Types.xhtml#PsyllaReference_Types_Details_realnumeric" xlink:title="realnumeric" target="_parent">
<polygon fill="wheat" stroke="black" points="91.5,-36 14.5,-36 14.5,0 97.5,0 97.5,-30 91.5,-36"/>
<polyline fill="none" stroke="black" points="91.5,-36 91.5,-30 "/>
<polyline fill="none" stroke="black" points="97.5,-30 91.5,-30 "/>
<text text-anchor="middle" x="56" y="-15.5" font-family="PT Mono, monospace" font-size="10.00">realnumeric</text>
</a>
</g>
</g>
<!-- numeric&#45;&gt;realnumeric -->
<g id="edge1" class="edge">
<title>numeric&#45;&gt;realnumeric</title>
<path fill="none" stroke="black" d="M77.83,-71.7C74.57,-63.81 70.63,-54.3 67,-45.55"/>
<polygon fill="black" stroke="black" points="70.15,-44 63.09,-36.1 63.68,-46.68 70.15,-44"/>
</g>
<!-- scalar -->
<g id="node2" class="node">
<title>scalar</title>
<g id="a_node2"><a xlink:href="PsyllaReference_Types.xhtml#PsyllaReference_Types_Details_scalar" xlink:title="scalar" target="_parent">
<polygon fill="linen" stroke="black" points="48,-180 0,-180 0,-144 54,-144 54,-174 48,-180"/>
<polyline fill="none" stroke="black" points="48,-180 48,-174 "/>
<polyline fill="none" stroke="black" points="54,-174 48,-174 "/>
<text text-anchor="middle" x="27" y="-159.5" font-family="PT Mono, monospace" font-size="10.00">scalar</text>
</a>
</g>
</g>
<!-- scalar&#45;&gt;realnumeric -->
<g id="edge2" class="edge">
<title>scalar&#45;&gt;realnumeric</title>
<path fill="none" stroke="black" d="M30.5,-143.87C35.46,-119.56 44.6,-74.82 50.48,-46.01"/>
<polygon fill="black" stroke="black" points="53.92,-46.69 52.49,-36.19 47.06,-45.29 53.92,-46.69"/>
</g>
<!-- atomic -->
<g id="node4" class="node">
<title>atomic</title>
<g id="a_node4"><a xlink:href="PsyllaReference_Types.xhtml#PsyllaReference_Types_Details_atomic" xlink:title="atomic" target="_parent">
<polygon fill="linen" stroke="black" points="103,-252 55,-252 55,-216 109,-216 109,-246 103,-252"/>
<polyline fill="none" stroke="black" points="103,-252 103,-246 "/>
<polyline fill="none" stroke="black" points="109,-246 103,-246 "/>
<text text-anchor="middle" x="82" y="-231.5" font-family="PT Mono, monospace" font-size="10.00">atomic</text>
</a>
</g>
</g>
<!-- atomic&#45;&gt;numeric -->
<g id="edge3" class="edge">
<title>atomic&#45;&gt;numeric</title>
<path fill="none" stroke="black" d="M82.36,-215.87C82.87,-191.67 83.81,-147.21 84.42,-118.39"/>
<polygon fill="black" stroke="black" points="87.92,-118.26 84.64,-108.19 80.93,-118.11 87.92,-118.26"/>
</g>
<!-- arithmetic -->
<g id="node5" class="node">
<title>arithmetic</title>
<g id="a_node5"><a xlink:href="PsyllaReference_Types.xhtml#PsyllaReference_Types_Details_arithmetic" xlink:title="arithmetic" target="_parent">
<polygon fill="linen" stroke="black" points="187.5,-180 116.5,-180 116.5,-144 193.5,-144 193.5,-174 187.5,-180"/>
<polyline fill="none" stroke="black" points="187.5,-180 187.5,-174 "/>
<polyline fill="none" stroke="black" points="193.5,-174 187.5,-174 "/>
<text text-anchor="middle" x="155" y="-159.5" font-family="PT Mono, monospace" font-size="10.00">arithmetic</text>
</a>
</g>
</g>
<!-- arithmetic&#45;&gt;numeric -->
<g id="edge4" class="edge">
<title>arithmetic&#45;&gt;numeric</title>
<path fill="none" stroke="black" d="M137.7,-143.7C129.14,-135.14 118.66,-124.66 109.3,-115.3"/>
<polygon fill="black" stroke="black" points="111.65,-112.7 102.1,-108.1 106.7,-117.65 111.65,-112.7"/>
</g>
<!-- object -->
<g id="node6" class="node">
<title>object</title>
<g id="a_node6"><a xlink:href="PsyllaReference_Types.xhtml#PsyllaReference_Types_Details_object" xlink:title="object" target="_parent">
<polygon fill="linen" stroke="black" points="103,-324 55,-324 55,-288 109,-288 109,-318 103,-324"/>
<polyline fill="none" stroke="black" points="103,-324 103,-318 "/>
<polyline fill="none" stroke="black" points="109,-318 103,-318 "/>
<text text-anchor="middle" x="82" y="-303.5" font-family="PT Mono, monospace" font-size="10.00">object</text>
</a>
</g>
</g>
<!-- object&#45;&gt;scalar -->
<g id="edge5" class="edge">
<title>object&#45;&gt;scalar</title>
<path fill="none" stroke="black" d="M67.84,-287.85C60.31,-277.93 51.5,-264.89 46,-252 37.59,-232.29 32.76,-208.49 30.07,-190.46"/>
<polygon fill="black" stroke="black" points="33.51,-189.76 28.7,-180.33 26.57,-190.71 33.51,-189.76"/>
</g>
<!-- object&#45;&gt;atomic -->
<g id="edge6" class="edge">
<title>object&#45;&gt;atomic</title>
<path fill="none" stroke="black" d="M82,-287.7C82,-279.98 82,-270.71 82,-262.11"/>
<polygon fill="black" stroke="black" points="85.5,-262.1 82,-252.1 78.5,-262.1 85.5,-262.1"/>
</g>
<!-- additive -->
<g id="node7" class="node">
<title>additive</title>
<g id="a_node7"><a xlink:href="PsyllaReference_Types.xhtml#PsyllaReference_Types_Details_additive" xlink:title="additive" target="_parent">
<polygon fill="linen" stroke="black" points="186.5,-252 127.5,-252 127.5,-216 192.5,-216 192.5,-246 186.5,-252"/>
<polyline fill="none" stroke="black" points="186.5,-252 186.5,-246 "/>
<polyline fill="none" stroke="black" points="192.5,-246 186.5,-246 "/>
<text text-anchor="middle" x="160" y="-231.5" font-family="PT Mono, monospace" font-size="10.00">additive</text>
</a>
</g>
</g>
<!-- object&#45;&gt;additive -->
<g id="edge8" class="edge">
<title>object&#45;&gt;additive</title>
<path fill="none" stroke="black" d="M101.28,-287.7C110.92,-279.05 122.73,-268.45 133.23,-259.03"/>
<polygon fill="black" stroke="black" points="135.84,-261.39 140.94,-252.1 131.16,-256.18 135.84,-261.39"/>
</g>
<!-- additive&#45;&gt;arithmetic -->
<g id="edge7" class="edge">
<title>additive&#45;&gt;arithmetic</title>
<path fill="none" stroke="black" d="M158.76,-215.7C158.21,-207.98 157.55,-198.71 156.94,-190.11"/>
<polygon fill="black" stroke="black" points="160.43,-189.83 156.22,-180.1 153.44,-190.33 160.43,-189.83"/>
</g>
</g>
</svg>
