<?xml version="1.0" encoding="UTF-8" standalone="no"?>
<!DOCTYPE svg PUBLIC "-//W3C//DTD SVG 1.1//EN"
 "http://www.w3.org/Graphics/SVG/1.1/DTD/svg11.dtd">
<!-- Generated by graphviz version 2.49.3 (0)
 -->
<!-- Title: input Pages: 1 -->
<svg width="234pt" height="260pt"
 viewBox="0.00 0.00 233.64 260.00" xmlns="http://www.w3.org/2000/svg" xmlns:xlink="http://www.w3.org/1999/xlink">
<g id="graph0" class="graph" transform="scale(1 1) rotate(0) translate(4 256)">
<title>input</title>
<polygon fill="transparent" stroke="transparent" points="-4,4 -4,-256 229.64,-256 229.64,4 -4,4"/>
<!-- closeable -->
<g id="node1" class="node">
<title>closeable</title>
<g id="a_node1"><a xlink:href="PsyllaReference_Types.xhtml#PsyllaReference_Types_Details_closeable" xlink:title="closeable" target="_parent">
<polygon fill="linen" stroke="black" points="54.47,-108 0.18,-108 0.18,-72 60.47,-72 60.47,-102 54.47,-108"/>
<polyline fill="none" stroke="black" points="54.47,-108 54.47,-102 "/>
<polyline fill="none" stroke="black" points="60.47,-102 54.47,-102 "/>
<text text-anchor="middle" x="30.32" y="-86.4" font-family="Source Code Pro,monospace" font-size="12.00">closeable</text>
</a>
</g>
</g>
<!-- input -->
<g id="node5" class="node">
<title>input</title>
<g id="a_node5"><a xlink:href="PsyllaReference_Types.xhtml#PsyllaReference_Types_Details_input" xlink:title="input" target="_parent">
<polygon fill="wheat" stroke="black" points="156.32,-36 108.32,-36 108.32,0 162.32,0 162.32,-30 156.32,-36"/>
<polyline fill="none" stroke="black" points="156.32,-36 156.32,-30 "/>
<polyline fill="none" stroke="black" points="162.32,-30 156.32,-30 "/>
<text text-anchor="middle" x="135.32" y="-14.4" font-family="Source Code Pro,monospace" font-size="12.00">input</text>
</a>
</g>
</g>
<!-- closeable&#45;&gt;input -->
<g id="edge1" class="edge">
<title>closeable&#45;&gt;input</title>
<path fill="none" stroke="black" d="M56.01,-71.88C69.61,-62.81 86.49,-51.55 101.18,-41.76"/>
<polygon fill="black" stroke="black" points="103.16,-44.65 109.54,-36.19 99.28,-38.82 103.16,-44.65"/>
</g>
<!-- readable -->
<g id="node2" class="node">
<title>readable</title>
<g id="a_node2"><a xlink:href="PsyllaReference_Types.xhtml#PsyllaReference_Types_Details_readable" xlink:title="readable" target="_parent">
<polygon fill="linen" stroke="black" points="129.46,-108 79.18,-108 79.18,-72 135.46,-72 135.46,-102 129.46,-108"/>
<polyline fill="none" stroke="black" points="129.46,-108 129.46,-102 "/>
<polyline fill="none" stroke="black" points="135.46,-102 129.46,-102 "/>
<text text-anchor="middle" x="107.32" y="-86.4" font-family="Source Code Pro,monospace" font-size="12.00">readable</text>
</a>
</g>
</g>
<!-- readable&#45;&gt;input -->
<g id="edge2" class="edge">
<title>readable&#45;&gt;input</title>
<path fill="none" stroke="black" d="M114.24,-71.7C117.4,-63.81 121.2,-54.3 124.7,-45.55"/>
<polygon fill="black" stroke="black" points="128.02,-46.69 128.48,-36.1 121.52,-44.09 128.02,-46.69"/>
</g>
<!-- ready -->
<g id="node3" class="node">
<title>ready</title>
<g id="a_node3"><a xlink:href="PsyllaReference_Types.xhtml#PsyllaReference_Types_Details_ready" xlink:title="ready" target="_parent">
<polygon fill="linen" stroke="black" points="133.32,-180 85.32,-180 85.32,-144 139.32,-144 139.32,-174 133.32,-180"/>
<polyline fill="none" stroke="black" points="133.32,-180 133.32,-174 "/>
<polyline fill="none" stroke="black" points="139.32,-174 133.32,-174 "/>
<text text-anchor="middle" x="112.32" y="-158.4" font-family="Source Code Pro,monospace" font-size="12.00">ready</text>
</a>
</g>
</g>
<!-- ready&#45;&gt;readable -->
<g id="edge6" class="edge">
<title>ready&#45;&gt;readable</title>
<path fill="none" stroke="black" d="M111.09,-143.7C110.53,-135.98 109.87,-126.71 109.26,-118.11"/>
<polygon fill="black" stroke="black" points="112.75,-117.83 108.54,-108.1 105.76,-118.33 112.75,-117.83"/>
</g>
<!-- ready&#45;&gt;input -->
<g id="edge3" class="edge">
<title>ready&#45;&gt;input</title>
<path fill="none" stroke="black" d="M125.89,-143.97C132.88,-134.09 140.69,-121.05 144.32,-108 150,-87.61 147.08,-63.72 143.11,-45.82"/>
<polygon fill="black" stroke="black" points="146.5,-44.92 140.71,-36.05 139.7,-46.59 146.5,-44.92"/>
</g>
<!-- resetable -->
<g id="node4" class="node">
<title>resetable</title>
<g id="a_node4"><a xlink:href="PsyllaReference_Types.xhtml#PsyllaReference_Types_Details_resetable" xlink:title="resetable" target="_parent">
<polygon fill="linen" stroke="black" points="219.46,-180 167.18,-180 167.18,-144 225.46,-144 225.46,-174 219.46,-180"/>
<polyline fill="none" stroke="black" points="219.46,-180 219.46,-174 "/>
<polyline fill="none" stroke="black" points="225.46,-174 219.46,-174 "/>
<text text-anchor="middle" x="196.32" y="-158.4" font-family="Source Code Pro,monospace" font-size="12.00">resetable</text>
</a>
</g>
</g>
<!-- resetable&#45;&gt;input -->
<g id="edge4" class="edge">
<title>resetable&#45;&gt;input</title>
<path fill="none" stroke="black" d="M189.7,-143.82C182.69,-125.81 171.15,-96.74 160.32,-72 156.47,-63.2 152.06,-53.67 148.02,-45.16"/>
<polygon fill="black" stroke="black" points="151.15,-43.59 143.67,-36.07 144.83,-46.61 151.15,-43.59"/>
</g>
<!-- object -->
<g id="node6" class="node">
<title>object</title>
<g id="a_node6"><a xlink:href="PsyllaReference_Types.xhtml#PsyllaReference_Types_Details_object" xlink:title="object" target="_parent">
<polygon fill="linen" stroke="black" points="133.32,-252 85.32,-252 85.32,-216 139.32,-216 139.32,-246 133.32,-252"/>
<polyline fill="none" stroke="black" points="133.32,-252 133.32,-246 "/>
<polyline fill="none" stroke="black" points="139.32,-246 133.32,-246 "/>
<text text-anchor="middle" x="112.32" y="-230.4" font-family="Source Code Pro,monospace" font-size="12.00">object</text>
</a>
</g>
</g>
<!-- object&#45;&gt;closeable -->
<g id="edge5" class="edge">
<title>object&#45;&gt;closeable</title>
<path fill="none" stroke="black" d="M99.78,-215.68C92.6,-205.48 83.6,-192.23 76.32,-180 64.09,-159.44 51.72,-135.29 42.9,-117.33"/>
<polygon fill="black" stroke="black" points="45.91,-115.52 38.38,-108.06 39.61,-118.58 45.91,-115.52"/>
</g>
<!-- object&#45;&gt;ready -->
<g id="edge7" class="edge">
<title>object&#45;&gt;ready</title>
<path fill="none" stroke="black" d="M112.32,-215.7C112.32,-207.98 112.32,-198.71 112.32,-190.11"/>
<polygon fill="black" stroke="black" points="115.82,-190.1 112.32,-180.1 108.82,-190.1 115.82,-190.1"/>
</g>
<!-- object&#45;&gt;resetable -->
<g id="edge8" class="edge">
<title>object&#45;&gt;resetable</title>
<path fill="none" stroke="black" d="M133.09,-215.7C143.56,-206.97 156.43,-196.24 167.82,-186.75"/>
<polygon fill="black" stroke="black" points="170.36,-189.19 175.8,-180.1 165.87,-183.82 170.36,-189.19"/>
</g>
</g>
</svg>
