<?xml version="1.0" encoding="UTF-8" standalone="no"?>
<!DOCTYPE svg PUBLIC "-//W3C//DTD SVG 1.1//EN"
 "http://www.w3.org/Graphics/SVG/1.1/DTD/svg11.dtd">
<!-- Generated by graphviz version 2.43.0 (0)
 -->
<!-- Title: bounded Pages: 1 -->
<svg width="67pt" height="188pt"
 viewBox="0.00 0.00 67.00 188.00" xmlns="http://www.w3.org/2000/svg" xmlns:xlink="http://www.w3.org/1999/xlink">
<g id="graph0" class="graph" transform="scale(1 1) rotate(0) translate(4 184)">
<title>bounded</title>
<polygon fill="transparent" stroke="transparent" points="-4,4 -4,-184 63,-184 63,4 -4,4"/>
<!-- lengthy -->
<g id="node1" class="node">
<title>lengthy</title>
<g id="a_node1"><a xlink:href="PsyllaReference_Types.xhtml#PsyllaReference_Types_Details_lengthy" xlink:title="lengthy" target="_parent">
<polygon fill="linen" stroke="black" points="53,-108 0,-108 0,-72 59,-72 59,-102 53,-108"/>
<polyline fill="none" stroke="black" points="53,-108 53,-102 "/>
<polyline fill="none" stroke="black" points="59,-102 53,-102 "/>
<text text-anchor="middle" x="29.5" y="-87.5" font-family="PT Mono, monospace" font-size="10.00">lengthy</text>
</a>
</g>
</g>
<!-- bounded -->
<g id="node2" class="node">
<title>bounded</title>
<g id="a_node2"><a xlink:href="PsyllaReference_Types.xhtml#PsyllaReference_Types_Details_bounded" xlink:title="bounded" target="_parent">
<polygon fill="wheat" stroke="black" points="53,-36 0,-36 0,0 59,0 59,-30 53,-36"/>
<polyline fill="none" stroke="black" points="53,-36 53,-30 "/>
<polyline fill="none" stroke="black" points="59,-30 53,-30 "/>
<text text-anchor="middle" x="29.5" y="-15.5" font-family="PT Mono, monospace" font-size="10.00">bounded</text>
</a>
</g>
</g>
<!-- lengthy&#45;&gt;bounded -->
<g id="edge1" class="edge">
<title>lengthy&#45;&gt;bounded</title>
<path fill="none" stroke="black" d="M29.5,-71.7C29.5,-63.98 29.5,-54.71 29.5,-46.11"/>
<polygon fill="black" stroke="black" points="33,-46.1 29.5,-36.1 26,-46.1 33,-46.1"/>
</g>
<!-- object -->
<g id="node3" class="node">
<title>object</title>
<g id="a_node3"><a xlink:href="PsyllaReference_Types.xhtml#PsyllaReference_Types_Details_object" xlink:title="object" target="_parent">
<polygon fill="linen" stroke="black" points="50.5,-180 2.5,-180 2.5,-144 56.5,-144 56.5,-174 50.5,-180"/>
<polyline fill="none" stroke="black" points="50.5,-180 50.5,-174 "/>
<polyline fill="none" stroke="black" points="56.5,-174 50.5,-174 "/>
<text text-anchor="middle" x="29.5" y="-159.5" font-family="PT Mono, monospace" font-size="10.00">object</text>
</a>
</g>
</g>
<!-- object&#45;&gt;lengthy -->
<g id="edge2" class="edge">
<title>object&#45;&gt;lengthy</title>
<path fill="none" stroke="black" d="M29.5,-143.7C29.5,-135.98 29.5,-126.71 29.5,-118.11"/>
<polygon fill="black" stroke="black" points="33,-118.1 29.5,-108.1 26,-118.1 33,-118.1"/>
</g>
</g>
</svg>
