<?xml version="1.0" encoding="UTF-8" standalone="no"?>
<!DOCTYPE svg PUBLIC "-//W3C//DTD SVG 1.1//EN"
 "http://www.w3.org/Graphics/SVG/1.1/DTD/svg11.dtd">
<!-- Generated by graphviz version 14.0.0 (0)
 -->
<!-- Title: bitset Pages: 1 -->
<svg width="271pt" height="476pt"
 viewBox="0.00 0.00 271.00 476.00" xmlns="http://www.w3.org/2000/svg" xmlns:xlink="http://www.w3.org/1999/xlink">
<g id="graph0" class="graph" transform="scale(1 1) rotate(0) translate(4 472)">
<title>bitset</title>
<polygon fill="none" stroke="none" points="-4,4 -4,-472 266.64,-472 266.64,4 -4,4"/>
<!-- formalset -->
<g id="node1" class="node">
<title>formalset</title>
<g id="a_node1"><a xlink:href="PsyllaReference_Types.xhtml#PsyllaReference_Types_Details_formalset" xlink:title="formalset" target="_parent">
<polygon fill="linen" stroke="black" points="92.98,-108 37.66,-108 37.66,-72 98.98,-72 98.98,-102 92.98,-108"/>
<polyline fill="none" stroke="black" points="92.98,-108 92.98,-102"/>
<polyline fill="none" stroke="black" points="98.98,-102 92.98,-102"/>
<text xml:space="preserve" text-anchor="middle" x="68.32" y="-86.4" font-family="Source Code Pro,monospace" font-size="12.00">formalset</text>
</a>
</g>
</g>
<!-- bitset -->
<g id="node2" class="node">
<title>bitset</title>
<g id="a_node2"><a xlink:href="PsyllaReference_Types.xhtml#PsyllaReference_Types_Details_bitset" xlink:title="bitset" target="_parent">
<polygon fill="wheat" stroke="black" points="89.32,-36 41.32,-36 41.32,0 95.32,0 95.32,-30 89.32,-36"/>
<polyline fill="none" stroke="black" points="89.32,-36 89.32,-30"/>
<polyline fill="none" stroke="black" points="95.32,-30 89.32,-30"/>
<text xml:space="preserve" text-anchor="middle" x="68.32" y="-14.4" font-family="Source Code Pro,monospace" font-size="12.00">bitset</text>
</a>
</g>
</g>
<!-- formalset&#45;&gt;bitset -->
<g id="edge1" class="edge">
<title>formalset&#45;&gt;bitset</title>
<path fill="none" stroke="black" d="M68.32,-71.7C68.32,-64.41 68.32,-55.73 68.32,-47.54"/>
<polygon fill="black" stroke="black" points="71.82,-47.62 68.32,-37.62 64.82,-47.62 71.82,-47.62"/>
</g>
<!-- appendable -->
<g id="node3" class="node">
<title>appendable</title>
<g id="a_node3"><a xlink:href="PsyllaReference_Types.xhtml#PsyllaReference_Types_Details_appendable" xlink:title="appendable" target="_parent">
<polygon fill="linen" stroke="black" points="64.64,-324 0,-324 0,-288 70.64,-288 70.64,-318 64.64,-324"/>
<polyline fill="none" stroke="black" points="64.64,-324 64.64,-318"/>
<polyline fill="none" stroke="black" points="70.64,-318 64.64,-318"/>
<text xml:space="preserve" text-anchor="middle" x="35.32" y="-302.4" font-family="Source Code Pro,monospace" font-size="12.00">appendable</text>
</a>
</g>
</g>
<!-- appendable&#45;&gt;formalset -->
<g id="edge2" class="edge">
<title>appendable&#45;&gt;formalset</title>
<path fill="none" stroke="black" d="M37.96,-287.85C43.62,-251.14 56.96,-164.66 63.92,-119.53"/>
<polygon fill="black" stroke="black" points="67.37,-120.14 65.43,-109.73 60.45,-119.08 67.37,-120.14"/>
</g>
<!-- container -->
<g id="node4" class="node">
<title>container</title>
<g id="a_node4"><a xlink:href="PsyllaReference_Types.xhtml#PsyllaReference_Types_Details_container" xlink:title="container" target="_parent">
<polygon fill="linen" stroke="black" points="150.64,-180 96,-180 96,-144 156.64,-144 156.64,-174 150.64,-180"/>
<polyline fill="none" stroke="black" points="150.64,-180 150.64,-174"/>
<polyline fill="none" stroke="black" points="156.64,-174 150.64,-174"/>
<text xml:space="preserve" text-anchor="middle" x="126.32" y="-158.4" font-family="Source Code Pro,monospace" font-size="12.00">container</text>
</a>
</g>
</g>
<!-- container&#45;&gt;formalset -->
<g id="edge3" class="edge">
<title>container&#45;&gt;formalset</title>
<path fill="none" stroke="black" d="M111.98,-143.7C105.24,-135.56 97.06,-125.69 89.61,-116.7"/>
<polygon fill="black" stroke="black" points="92.53,-114.74 83.46,-109.27 87.14,-119.2 92.53,-114.74"/>
</g>
<!-- object -->
<g id="node5" class="node">
<title>object</title>
<g id="a_node5"><a xlink:href="PsyllaReference_Types.xhtml#PsyllaReference_Types_Details_object" xlink:title="object" target="_parent">
<polygon fill="linen" stroke="black" points="146.32,-468 98.32,-468 98.32,-432 152.32,-432 152.32,-462 146.32,-468"/>
<polyline fill="none" stroke="black" points="146.32,-468 146.32,-462"/>
<polyline fill="none" stroke="black" points="152.32,-462 146.32,-462"/>
<text xml:space="preserve" text-anchor="middle" x="125.32" y="-446.4" font-family="Source Code Pro,monospace" font-size="12.00">object</text>
</a>
</g>
</g>
<!-- object&#45;&gt;appendable -->
<g id="edge4" class="edge">
<title>object&#45;&gt;appendable</title>
<path fill="none" stroke="black" d="M110.95,-431.84C102.74,-421.7 92.49,-408.45 84.32,-396 71.19,-376 58.22,-352.21 48.93,-334.26"/>
<polygon fill="black" stroke="black" points="52.13,-332.85 44.46,-325.53 45.9,-336.03 52.13,-332.85"/>
</g>
<!-- clearable -->
<g id="node6" class="node">
<title>clearable</title>
<g id="a_node6"><a xlink:href="PsyllaReference_Types.xhtml#PsyllaReference_Types_Details_clearable" xlink:title="clearable" target="_parent">
<polygon fill="linen" stroke="black" points="120.97,-252 67.67,-252 67.67,-216 126.97,-216 126.97,-246 120.97,-252"/>
<polyline fill="none" stroke="black" points="120.97,-252 120.97,-246"/>
<polyline fill="none" stroke="black" points="126.97,-246 120.97,-246"/>
<text xml:space="preserve" text-anchor="middle" x="97.32" y="-230.4" font-family="Source Code Pro,monospace" font-size="12.00">clearable</text>
</a>
</g>
</g>
<!-- object&#45;&gt;clearable -->
<g id="edge8" class="edge">
<title>object&#45;&gt;clearable</title>
<path fill="none" stroke="black" d="M122.61,-431.83C121.01,-421.46 118.97,-407.98 117.32,-396 110.95,-349.73 104.44,-295.85 100.65,-263.64"/>
<polygon fill="black" stroke="black" points="104.15,-263.44 99.51,-253.91 97.2,-264.25 104.15,-263.44"/>
</g>
<!-- lengthy -->
<g id="node8" class="node">
<title>lengthy</title>
<g id="a_node8"><a xlink:href="PsyllaReference_Types.xhtml#PsyllaReference_Types_Details_lengthy" xlink:title="lengthy" target="_parent">
<polygon fill="linen" stroke="black" points="174.32,-396 126.32,-396 126.32,-360 180.32,-360 180.32,-390 174.32,-396"/>
<polyline fill="none" stroke="black" points="174.32,-396 174.32,-390"/>
<polyline fill="none" stroke="black" points="180.32,-390 174.32,-390"/>
<text xml:space="preserve" text-anchor="middle" x="153.32" y="-374.4" font-family="Source Code Pro,monospace" font-size="12.00">lengthy</text>
</a>
</g>
</g>
<!-- object&#45;&gt;lengthy -->
<g id="edge10" class="edge">
<title>object&#45;&gt;lengthy</title>
<path fill="none" stroke="black" d="M132.24,-431.7C135.26,-424.15 138.87,-415.12 142.25,-406.68"/>
<polygon fill="black" stroke="black" points="145.45,-408.09 145.92,-397.51 138.95,-405.49 145.45,-408.09"/>
</g>
<!-- sequential -->
<g id="node10" class="node">
<title>sequential</title>
<g id="a_node10"><a xlink:href="PsyllaReference_Types.xhtml#PsyllaReference_Types_Details_sequential" xlink:title="sequential" target="_parent">
<polygon fill="linen" stroke="black" points="256.64,-396 197.99,-396 197.99,-360 262.64,-360 262.64,-390 256.64,-396"/>
<polyline fill="none" stroke="black" points="256.64,-396 256.64,-390"/>
<polyline fill="none" stroke="black" points="262.64,-390 256.64,-390"/>
<text xml:space="preserve" text-anchor="middle" x="230.32" y="-374.4" font-family="Source Code Pro,monospace" font-size="12.00">sequential</text>
</a>
</g>
</g>
<!-- object&#45;&gt;sequential -->
<g id="edge12" class="edge">
<title>object&#45;&gt;sequential</title>
<path fill="none" stroke="black" d="M151.54,-431.52C164.67,-422.76 180.75,-412.04 194.96,-402.58"/>
<polygon fill="black" stroke="black" points="196.79,-405.56 203.17,-397.1 192.91,-399.73 196.79,-405.56"/>
</g>
<!-- clearable&#45;&gt;container -->
<g id="edge5" class="edge">
<title>clearable&#45;&gt;container</title>
<path fill="none" stroke="black" d="M104.49,-215.7C107.61,-208.15 111.36,-199.12 114.85,-190.68"/>
<polygon fill="black" stroke="black" points="118.06,-192.08 118.65,-181.5 111.59,-189.4 118.06,-192.08"/>
</g>
<!-- iterable -->
<g id="node7" class="node">
<title>iterable</title>
<g id="a_node7"><a xlink:href="PsyllaReference_Types.xhtml#PsyllaReference_Types_Details_iterable" xlink:title="iterable" target="_parent">
<polygon fill="linen" stroke="black" points="238.32,-252 190.32,-252 190.32,-216 244.32,-216 244.32,-246 238.32,-252"/>
<polyline fill="none" stroke="black" points="238.32,-252 238.32,-246"/>
<polyline fill="none" stroke="black" points="244.32,-246 238.32,-246"/>
<text xml:space="preserve" text-anchor="middle" x="217.32" y="-230.4" font-family="Source Code Pro,monospace" font-size="12.00">iterable</text>
</a>
</g>
</g>
<!-- iterable&#45;&gt;container -->
<g id="edge6" class="edge">
<title>iterable&#45;&gt;container</title>
<path fill="none" stroke="black" d="M194.82,-215.7C183.67,-207.11 170.01,-196.61 157.83,-187.24"/>
<polygon fill="black" stroke="black" points="160.13,-184.59 150.07,-181.27 155.86,-190.14 160.13,-184.59"/>
</g>
<!-- lengthy&#45;&gt;container -->
<g id="edge7" class="edge">
<title>lengthy&#45;&gt;container</title>
<path fill="none" stroke="black" d="M151.94,-359.55C149.51,-329.94 143.96,-268 136.32,-216 135.13,-207.91 133.59,-199.17 132.07,-191.16"/>
<polygon fill="black" stroke="black" points="135.56,-190.75 130.21,-181.61 128.69,-192.1 135.56,-190.75"/>
</g>
<!-- streamable -->
<g id="node9" class="node">
<title>streamable</title>
<g id="a_node9"><a xlink:href="PsyllaReference_Types.xhtml#PsyllaReference_Types_Details_streamable" xlink:title="streamable" target="_parent">
<polygon fill="linen" stroke="black" points="251.31,-324 189.33,-324 189.33,-288 257.31,-288 257.31,-318 251.31,-324"/>
<polyline fill="none" stroke="black" points="251.31,-324 251.31,-318"/>
<polyline fill="none" stroke="black" points="257.31,-318 251.31,-318"/>
<text xml:space="preserve" text-anchor="middle" x="223.32" y="-302.4" font-family="Source Code Pro,monospace" font-size="12.00">streamable</text>
</a>
</g>
</g>
<!-- streamable&#45;&gt;iterable -->
<g id="edge9" class="edge">
<title>streamable&#45;&gt;iterable</title>
<path fill="none" stroke="black" d="M221.84,-287.7C221.21,-280.41 220.47,-271.73 219.77,-263.54"/>
<polygon fill="black" stroke="black" points="223.26,-263.28 218.91,-253.61 216.28,-263.87 223.26,-263.28"/>
</g>
<!-- sequential&#45;&gt;streamable -->
<g id="edge11" class="edge">
<title>sequential&#45;&gt;streamable</title>
<path fill="none" stroke="black" d="M228.59,-359.7C227.86,-352.41 226.99,-343.73 226.17,-335.54"/>
<polygon fill="black" stroke="black" points="229.66,-335.21 225.18,-325.61 222.69,-335.91 229.66,-335.21"/>
</g>
</g>
</svg>
