<?xml version="1.0" encoding="UTF-8" standalone="no"?>
<!DOCTYPE svg PUBLIC "-//W3C//DTD SVG 1.1//EN"
 "http://www.w3.org/Graphics/SVG/1.1/DTD/svg11.dtd">
<!-- Generated by graphviz version 2.43.0 (0)
 -->
<!-- Title: writer Pages: 1 -->
<svg width="290pt" height="188pt"
 viewBox="0.00 0.00 289.50 188.00" xmlns="http://www.w3.org/2000/svg" xmlns:xlink="http://www.w3.org/1999/xlink">
<g id="graph0" class="graph" transform="scale(1 1) rotate(0) translate(4 184)">
<title>writer</title>
<polygon fill="transparent" stroke="transparent" points="-4,4 -4,-184 285.5,-184 285.5,4 -4,4"/>
<!-- closeable -->
<g id="node1" class="node">
<title>closeable</title>
<g id="a_node1"><a xlink:href="PsyllaReference_Types.xhtml#PsyllaReference_Types_Details_closeable" xlink:title="closeable" target="_parent">
<polygon fill="linen" stroke="black" points="78,-108 0,-108 0,-72 84,-72 84,-102 78,-108"/>
<polyline fill="none" stroke="black" points="78,-108 78,-102 "/>
<polyline fill="none" stroke="black" points="84,-102 78,-102 "/>
<text text-anchor="middle" x="42" y="-86.9" font-family="Source Code Pro,monospace" font-size="12.00">closeable</text>
</a>
</g>
</g>
<!-- writer -->
<g id="node4" class="node">
<title>writer</title>
<g id="a_node4"><a xlink:href="PsyllaReference_Types.xhtml#PsyllaReference_Types_Details_writer" xlink:title="writer" target="_parent">
<polygon fill="wheat" stroke="black" points="169,-36 113,-36 113,0 175,0 175,-30 169,-36"/>
<polyline fill="none" stroke="black" points="169,-36 169,-30 "/>
<polyline fill="none" stroke="black" points="175,-30 169,-30 "/>
<text text-anchor="middle" x="144" y="-14.9" font-family="Source Code Pro,monospace" font-size="12.00">writer</text>
</a>
</g>
</g>
<!-- closeable&#45;&gt;writer -->
<g id="edge1" class="edge">
<title>closeable&#45;&gt;writer</title>
<path fill="none" stroke="black" d="M66.95,-71.88C80.04,-62.89 96.26,-51.76 110.44,-42.03"/>
<polygon fill="black" stroke="black" points="112.69,-44.73 118.95,-36.19 108.73,-38.96 112.69,-44.73"/>
</g>
<!-- flushable -->
<g id="node2" class="node">
<title>flushable</title>
<g id="a_node2"><a xlink:href="PsyllaReference_Types.xhtml#PsyllaReference_Types_Details_flushable" xlink:title="flushable" target="_parent">
<polygon fill="linen" stroke="black" points="180,-108 102,-108 102,-72 186,-72 186,-102 180,-108"/>
<polyline fill="none" stroke="black" points="180,-108 180,-102 "/>
<polyline fill="none" stroke="black" points="186,-102 180,-102 "/>
<text text-anchor="middle" x="144" y="-86.9" font-family="Source Code Pro,monospace" font-size="12.00">flushable</text>
</a>
</g>
</g>
<!-- flushable&#45;&gt;writer -->
<g id="edge2" class="edge">
<title>flushable&#45;&gt;writer</title>
<path fill="none" stroke="black" d="M144,-71.7C144,-63.98 144,-54.71 144,-46.11"/>
<polygon fill="black" stroke="black" points="147.5,-46.1 144,-36.1 140.5,-46.1 147.5,-46.1"/>
</g>
<!-- writable -->
<g id="node3" class="node">
<title>writable</title>
<g id="a_node3"><a xlink:href="PsyllaReference_Types.xhtml#PsyllaReference_Types_Details_writable" xlink:title="writable" target="_parent">
<polygon fill="linen" stroke="black" points="275.5,-108 204.5,-108 204.5,-72 281.5,-72 281.5,-102 275.5,-108"/>
<polyline fill="none" stroke="black" points="275.5,-108 275.5,-102 "/>
<polyline fill="none" stroke="black" points="281.5,-102 275.5,-102 "/>
<text text-anchor="middle" x="243" y="-86.9" font-family="Source Code Pro,monospace" font-size="12.00">writable</text>
</a>
</g>
</g>
<!-- writable&#45;&gt;writer -->
<g id="edge3" class="edge">
<title>writable&#45;&gt;writer</title>
<path fill="none" stroke="black" d="M218.78,-71.88C206.08,-62.89 190.34,-51.76 176.58,-42.03"/>
<polygon fill="black" stroke="black" points="178.5,-39.11 168.31,-36.19 174.46,-44.82 178.5,-39.11"/>
</g>
<!-- object -->
<g id="node5" class="node">
<title>object</title>
<g id="a_node5"><a xlink:href="PsyllaReference_Types.xhtml#PsyllaReference_Types_Details_object" xlink:title="object" target="_parent">
<polygon fill="linen" stroke="black" points="169,-180 113,-180 113,-144 175,-144 175,-174 169,-180"/>
<polyline fill="none" stroke="black" points="169,-180 169,-174 "/>
<polyline fill="none" stroke="black" points="175,-174 169,-174 "/>
<text text-anchor="middle" x="144" y="-158.9" font-family="Source Code Pro,monospace" font-size="12.00">object</text>
</a>
</g>
</g>
<!-- object&#45;&gt;closeable -->
<g id="edge4" class="edge">
<title>object&#45;&gt;closeable</title>
<path fill="none" stroke="black" d="M119.05,-143.88C105.96,-134.89 89.74,-123.76 75.56,-114.03"/>
<polygon fill="black" stroke="black" points="77.27,-110.96 67.05,-108.19 73.31,-116.73 77.27,-110.96"/>
</g>
<!-- object&#45;&gt;flushable -->
<g id="edge5" class="edge">
<title>object&#45;&gt;flushable</title>
<path fill="none" stroke="black" d="M144,-143.7C144,-135.98 144,-126.71 144,-118.11"/>
<polygon fill="black" stroke="black" points="147.5,-118.1 144,-108.1 140.5,-118.1 147.5,-118.1"/>
</g>
<!-- object&#45;&gt;writable -->
<g id="edge6" class="edge">
<title>object&#45;&gt;writable</title>
<path fill="none" stroke="black" d="M168.22,-143.88C180.92,-134.89 196.66,-123.76 210.42,-114.03"/>
<polygon fill="black" stroke="black" points="212.54,-116.82 218.69,-108.19 208.5,-111.11 212.54,-116.82"/>
</g>
</g>
</svg>
