<?xml version="1.0" encoding="UTF-8" standalone="no"?>
<!DOCTYPE svg PUBLIC "-//W3C//DTD SVG 1.1//EN"
 "http://www.w3.org/Graphics/SVG/1.1/DTD/svg11.dtd">
<!-- Generated by graphviz version 14.0.0 (0)
 -->
<!-- Title: realnumeric Pages: 1 -->
<svg width="577pt" height="332pt"
 viewBox="0.00 0.00 577.00 332.00" xmlns="http://www.w3.org/2000/svg" xmlns:xlink="http://www.w3.org/1999/xlink">
<g id="graph0" class="graph" transform="scale(1 1) rotate(0) translate(4 328)">
<title>realnumeric</title>
<polygon fill="none" stroke="none" points="-4,4 -4,-328 572.63,-328 572.63,4 -4,4"/>
<!-- numeric -->
<g id="node1" class="node">
<title>numeric</title>
<g id="a_node1"><a xlink:href="PsyllaReference_Types.xhtml#PsyllaReference_Types_Details_numeric" xlink:title="numeric" target="_parent">
<polygon fill="linen" stroke="black" points="389.97,-108 340.65,-108 340.65,-72 395.97,-72 395.97,-102 389.97,-108"/>
<polyline fill="none" stroke="black" points="389.97,-108 389.97,-102"/>
<polyline fill="none" stroke="black" points="395.97,-102 389.97,-102"/>
<text xml:space="preserve" text-anchor="middle" x="368.31" y="-86.4" font-family="Source Code Pro,monospace" font-size="12.00">numeric</text>
</a>
</g>
</g>
<!-- realnumeric -->
<g id="node6" class="node">
<title>realnumeric</title>
<g id="a_node6"><a xlink:href="PsyllaReference_Types.xhtml#PsyllaReference_Types_Details_realnumeric" xlink:title="realnumeric" target="_parent">
<polygon fill="wheat" stroke="black" points="261.96,-36 194.66,-36 194.66,0 267.96,0 267.96,-30 261.96,-36"/>
<polyline fill="none" stroke="black" points="261.96,-36 261.96,-30"/>
<polyline fill="none" stroke="black" points="267.96,-30 261.96,-30"/>
<text xml:space="preserve" text-anchor="middle" x="231.31" y="-14.4" font-family="Source Code Pro,monospace" font-size="12.00">realnumeric</text>
</a>
</g>
</g>
<!-- numeric&#45;&gt;realnumeric -->
<g id="edge1" class="edge">
<title>numeric&#45;&gt;realnumeric</title>
<path fill="none" stroke="black" d="M340.25,-74.67C321.55,-65.11 296.58,-52.35 275.27,-41.46"/>
<polygon fill="black" stroke="black" points="276.99,-38.41 266.49,-36.97 273.8,-44.64 276.99,-38.41"/>
</g>
<!-- convertabletointeger -->
<g id="node2" class="node">
<title>convertabletointeger</title>
<g id="a_node2"><a xlink:href="PsyllaReference_Types.xhtml#PsyllaReference_Types_Details_convertabletointeger" xlink:title="convertabletointeger" target="_parent">
<polygon fill="linen" stroke="black" points="108.62,-180 0,-180 0,-144 114.62,-144 114.62,-174 108.62,-180"/>
<polyline fill="none" stroke="black" points="108.62,-180 108.62,-174"/>
<polyline fill="none" stroke="black" points="114.62,-174 108.62,-174"/>
<text xml:space="preserve" text-anchor="middle" x="57.31" y="-158.4" font-family="Source Code Pro,monospace" font-size="12.00">convertabletointeger</text>
</a>
</g>
</g>
<!-- convertabletointeger&#45;&gt;realnumeric -->
<g id="edge2" class="edge">
<title>convertabletointeger&#45;&gt;realnumeric</title>
<path fill="none" stroke="black" d="M56.26,-143.72C56.01,-123.98 58.69,-91.85 76.31,-72 103.28,-41.61 148.41,-28.64 183.04,-23.1"/>
<polygon fill="black" stroke="black" points="183.43,-26.58 192.84,-21.71 182.45,-19.65 183.43,-26.58"/>
</g>
<!-- convertabletointegral -->
<g id="node3" class="node">
<title>convertabletointegral</title>
<g id="a_node3"><a xlink:href="PsyllaReference_Types.xhtml#PsyllaReference_Types_Details_convertabletointegral" xlink:title="convertabletointegral" target="_parent">
<polygon fill="linen" stroke="black" points="197.29,-108 85.33,-108 85.33,-72 203.29,-72 203.29,-102 197.29,-108"/>
<polyline fill="none" stroke="black" points="197.29,-108 197.29,-102"/>
<polyline fill="none" stroke="black" points="203.29,-102 197.29,-102"/>
<text xml:space="preserve" text-anchor="middle" x="144.31" y="-86.4" font-family="Source Code Pro,monospace" font-size="12.00">convertabletointegral</text>
</a>
</g>
</g>
<!-- convertabletointegral&#45;&gt;realnumeric -->
<g id="edge3" class="edge">
<title>convertabletointegral&#45;&gt;realnumeric</title>
<path fill="none" stroke="black" d="M165.82,-71.7C176.38,-63.2 189.29,-52.81 200.84,-43.51"/>
<polygon fill="black" stroke="black" points="202.97,-46.29 208.57,-37.3 198.59,-40.84 202.97,-46.29"/>
</g>
<!-- convertabletorational -->
<g id="node4" class="node">
<title>convertabletorational</title>
<g id="a_node4"><a xlink:href="PsyllaReference_Types.xhtml#PsyllaReference_Types_Details_convertabletorational" xlink:title="convertabletorational" target="_parent">
<polygon fill="linen" stroke="black" points="282.29,-180 170.33,-180 170.33,-144 288.29,-144 288.29,-174 282.29,-180"/>
<polyline fill="none" stroke="black" points="282.29,-180 282.29,-174"/>
<polyline fill="none" stroke="black" points="288.29,-174 282.29,-174"/>
<text xml:space="preserve" text-anchor="middle" x="229.31" y="-158.4" font-family="Source Code Pro,monospace" font-size="12.00">convertabletorational</text>
</a>
</g>
</g>
<!-- convertabletorational&#45;&gt;realnumeric -->
<g id="edge4" class="edge">
<title>convertabletorational&#45;&gt;realnumeric</title>
<path fill="none" stroke="black" d="M229.55,-143.59C229.89,-119.61 230.5,-76.14 230.91,-47.42"/>
<polygon fill="black" stroke="black" points="234.41,-47.67 231.05,-37.62 227.41,-47.57 234.41,-47.67"/>
</g>
<!-- scalar -->
<g id="node5" class="node">
<title>scalar</title>
<g id="a_node5"><a xlink:href="PsyllaReference_Types.xhtml#PsyllaReference_Types_Details_scalar" xlink:title="scalar" target="_parent">
<polygon fill="linen" stroke="black" points="313.31,-108 265.31,-108 265.31,-72 319.31,-72 319.31,-102 313.31,-108"/>
<polyline fill="none" stroke="black" points="313.31,-108 313.31,-102"/>
<polyline fill="none" stroke="black" points="319.31,-102 313.31,-102"/>
<text xml:space="preserve" text-anchor="middle" x="292.31" y="-86.4" font-family="Source Code Pro,monospace" font-size="12.00">scalar</text>
</a>
</g>
</g>
<!-- scalar&#45;&gt;realnumeric -->
<g id="edge5" class="edge">
<title>scalar&#45;&gt;realnumeric</title>
<path fill="none" stroke="black" d="M277.23,-71.7C270.14,-63.56 261.54,-53.69 253.71,-44.7"/>
<polygon fill="black" stroke="black" points="256.42,-42.49 247.21,-37.25 251.14,-47.08 256.42,-42.49"/>
</g>
<!-- arithmetic -->
<g id="node7" class="node">
<title>arithmetic</title>
<g id="a_node7"><a xlink:href="PsyllaReference_Types.xhtml#PsyllaReference_Types_Details_arithmetic" xlink:title="arithmetic" target="_parent">
<polygon fill="linen" stroke="black" points="466.63,-180 407.99,-180 407.99,-144 472.63,-144 472.63,-174 466.63,-180"/>
<polyline fill="none" stroke="black" points="466.63,-180 466.63,-174"/>
<polyline fill="none" stroke="black" points="472.63,-174 466.63,-174"/>
<text xml:space="preserve" text-anchor="middle" x="440.31" y="-158.4" font-family="Source Code Pro,monospace" font-size="12.00">arithmetic</text>
</a>
</g>
</g>
<!-- arithmetic&#45;&gt;numeric -->
<g id="edge6" class="edge">
<title>arithmetic&#45;&gt;numeric</title>
<path fill="none" stroke="black" d="M422.51,-143.7C414.03,-135.45 403.72,-125.43 394.38,-116.35"/>
<polygon fill="black" stroke="black" points="396.85,-113.86 387.24,-109.4 391.97,-118.88 396.85,-113.86"/>
</g>
<!-- value -->
<g id="node8" class="node">
<title>value</title>
<g id="a_node8"><a xlink:href="PsyllaReference_Types.xhtml#PsyllaReference_Types_Details_value" xlink:title="value" target="_parent">
<polygon fill="linen" stroke="black" points="389.31,-252 341.31,-252 341.31,-216 395.31,-216 395.31,-246 389.31,-252"/>
<polyline fill="none" stroke="black" points="389.31,-252 389.31,-246"/>
<polyline fill="none" stroke="black" points="395.31,-246 389.31,-246"/>
<text xml:space="preserve" text-anchor="middle" x="368.31" y="-230.4" font-family="Source Code Pro,monospace" font-size="12.00">value</text>
</a>
</g>
</g>
<!-- value&#45;&gt;numeric -->
<g id="edge7" class="edge">
<title>value&#45;&gt;numeric</title>
<path fill="none" stroke="black" d="M368.31,-215.59C368.31,-191.61 368.31,-148.14 368.31,-119.42"/>
<polygon fill="black" stroke="black" points="371.81,-119.62 368.31,-109.62 364.81,-119.62 371.81,-119.62"/>
</g>
<!-- object -->
<g id="node9" class="node">
<title>object</title>
<g id="a_node9"><a xlink:href="PsyllaReference_Types.xhtml#PsyllaReference_Types_Details_object" xlink:title="object" target="_parent">
<polygon fill="linen" stroke="black" points="334.31,-324 286.31,-324 286.31,-288 340.31,-288 340.31,-318 334.31,-324"/>
<polyline fill="none" stroke="black" points="334.31,-324 334.31,-318"/>
<polyline fill="none" stroke="black" points="340.31,-318 334.31,-318"/>
<text xml:space="preserve" text-anchor="middle" x="313.31" y="-302.4" font-family="Source Code Pro,monospace" font-size="12.00">object</text>
</a>
</g>
</g>
<!-- object&#45;&gt;convertabletointeger -->
<g id="edge8" class="edge">
<title>object&#45;&gt;convertabletointeger</title>
<path fill="none" stroke="black" d="M286.03,-302.43C247.9,-297.73 177.78,-285 128.31,-252 104.64,-236.22 85.15,-210.05 72.61,-190.17"/>
<polygon fill="black" stroke="black" points="75.67,-188.46 67.49,-181.72 69.69,-192.09 75.67,-188.46"/>
</g>
<!-- object&#45;&gt;convertabletointegral -->
<g id="edge9" class="edge">
<title>object&#45;&gt;convertabletointegral</title>
<path fill="none" stroke="black" d="M285.85,-290.48C250.97,-270.5 191.65,-231.12 161.31,-180 150.49,-161.78 146.35,-138.09 144.86,-119.73"/>
<polygon fill="black" stroke="black" points="148.36,-119.58 144.29,-109.79 141.37,-119.98 148.36,-119.58"/>
</g>
<!-- object&#45;&gt;convertabletorational -->
<g id="edge10" class="edge">
<title>object&#45;&gt;convertabletorational</title>
<path fill="none" stroke="black" d="M303.01,-287.59C288.57,-263.18 262.19,-218.58 245.22,-189.89"/>
<polygon fill="black" stroke="black" points="248.31,-188.24 240.2,-181.41 242.28,-191.8 248.31,-188.24"/>
</g>
<!-- object&#45;&gt;scalar -->
<g id="edge11" class="edge">
<title>object&#45;&gt;scalar</title>
<path fill="none" stroke="black" d="M311.63,-287.85C308.02,-251.14 299.54,-164.66 295.11,-119.53"/>
<polygon fill="black" stroke="black" points="298.61,-119.35 294.15,-109.74 291.64,-120.03 298.61,-119.35"/>
</g>
<!-- object&#45;&gt;value -->
<g id="edge14" class="edge">
<title>object&#45;&gt;value</title>
<path fill="none" stroke="black" d="M326.91,-287.7C333.23,-279.64 340.89,-269.89 347.89,-260.98"/>
<polygon fill="black" stroke="black" points="350.51,-263.32 353.94,-253.29 345,-259 350.51,-263.32"/>
</g>
<!-- additive -->
<g id="node10" class="node">
<title>additive</title>
<g id="a_node10"><a xlink:href="PsyllaReference_Types.xhtml#PsyllaReference_Types_Details_additive" xlink:title="additive" target="_parent">
<polygon fill="linen" stroke="black" points="461.64,-252 412.98,-252 412.98,-216 467.64,-216 467.64,-246 461.64,-252"/>
<polyline fill="none" stroke="black" points="461.64,-252 461.64,-246"/>
<polyline fill="none" stroke="black" points="467.64,-246 461.64,-246"/>
<text xml:space="preserve" text-anchor="middle" x="440.31" y="-230.4" font-family="Source Code Pro,monospace" font-size="12.00">additive</text>
</a>
</g>
</g>
<!-- object&#45;&gt;additive -->
<g id="edge15" class="edge">
<title>object&#45;&gt;additive</title>
<path fill="none" stroke="black" d="M340.55,-289.98C358.68,-279.99 382.73,-266.74 402.67,-255.75"/>
<polygon fill="black" stroke="black" points="404.28,-258.86 411.35,-250.96 400.9,-252.73 404.28,-258.86"/>
</g>
<!-- multiplicative -->
<g id="node11" class="node">
<title>multiplicative</title>
<g id="a_node11"><a xlink:href="PsyllaReference_Types.xhtml#PsyllaReference_Types_Details_multiplicative" xlink:title="multiplicative" target="_parent">
<polygon fill="linen" stroke="black" points="562.63,-252 485.98,-252 485.98,-216 568.63,-216 568.63,-246 562.63,-252"/>
<polyline fill="none" stroke="black" points="562.63,-252 562.63,-246"/>
<polyline fill="none" stroke="black" points="568.63,-246 562.63,-246"/>
<text xml:space="preserve" text-anchor="middle" x="527.31" y="-230.4" font-family="Source Code Pro,monospace" font-size="12.00">multiplicative</text>
</a>
</g>
</g>
<!-- object&#45;&gt;multiplicative -->
<g id="edge16" class="edge">
<title>object&#45;&gt;multiplicative</title>
<path fill="none" stroke="black" d="M340.73,-296.15C371.11,-286.33 421.83,-269.9 474.92,-252.44"/>
<polygon fill="black" stroke="black" points="475.73,-255.87 484.13,-249.41 473.54,-249.22 475.73,-255.87"/>
</g>
<!-- additive&#45;&gt;arithmetic -->
<g id="edge12" class="edge">
<title>additive&#45;&gt;arithmetic</title>
<path fill="none" stroke="black" d="M440.31,-215.7C440.31,-208.41 440.31,-199.73 440.31,-191.54"/>
<polygon fill="black" stroke="black" points="443.81,-191.62 440.31,-181.62 436.81,-191.62 443.81,-191.62"/>
</g>
<!-- multiplicative&#45;&gt;arithmetic -->
<g id="edge13" class="edge">
<title>multiplicative&#45;&gt;arithmetic</title>
<path fill="none" stroke="black" d="M505.8,-215.7C495.24,-207.2 482.33,-196.81 470.78,-187.51"/>
<polygon fill="black" stroke="black" points="473.03,-184.84 463.05,-181.3 468.65,-190.29 473.03,-184.84"/>
</g>
</g>
</svg>
