<?xml version="1.0" encoding="UTF-8" standalone="no"?>
<!DOCTYPE svg PUBLIC "-//W3C//DTD SVG 1.1//EN"
 "http://www.w3.org/Graphics/SVG/1.1/DTD/svg11.dtd">
<!-- Generated by graphviz version 2.43.0 (0)
 -->
<!-- Title: stringwriter Pages: 1 -->
<svg width="290pt" height="260pt"
 viewBox="0.00 0.00 289.50 260.00" xmlns="http://www.w3.org/2000/svg" xmlns:xlink="http://www.w3.org/1999/xlink">
<g id="graph0" class="graph" transform="scale(1 1) rotate(0) translate(4 256)">
<title>stringwriter</title>
<polygon fill="transparent" stroke="transparent" points="-4,4 -4,-256 285.5,-256 285.5,4 -4,4"/>
<!-- writer -->
<g id="node1" class="node">
<title>writer</title>
<g id="a_node1"><a xlink:href="PsyllaReference_Types.xhtml#PsyllaReference_Types_Details_writer" xlink:title="writer" target="_parent">
<polygon fill="linen" stroke="black" points="169,-108 113,-108 113,-72 175,-72 175,-102 169,-108"/>
<polyline fill="none" stroke="black" points="169,-108 169,-102 "/>
<polyline fill="none" stroke="black" points="175,-102 169,-102 "/>
<text text-anchor="middle" x="144" y="-86.9" font-family="Source Code Pro,monospace" font-size="12.00">writer</text>
</a>
</g>
</g>
<!-- stringwriter -->
<g id="node2" class="node">
<title>stringwriter</title>
<g id="a_node2"><a xlink:href="PsyllaReference_Types.xhtml#PsyllaReference_Types_Details_stringwriter" xlink:title="stringwriter" target="_parent">
<polygon fill="wheat" stroke="black" points="191.5,-36 90.5,-36 90.5,0 197.5,0 197.5,-30 191.5,-36"/>
<polyline fill="none" stroke="black" points="191.5,-36 191.5,-30 "/>
<polyline fill="none" stroke="black" points="197.5,-30 191.5,-30 "/>
<text text-anchor="middle" x="144" y="-14.9" font-family="Source Code Pro,monospace" font-size="12.00">stringwriter</text>
</a>
</g>
</g>
<!-- writer&#45;&gt;stringwriter -->
<g id="edge1" class="edge">
<title>writer&#45;&gt;stringwriter</title>
<path fill="none" stroke="black" d="M144,-71.7C144,-63.98 144,-54.71 144,-46.11"/>
<polygon fill="black" stroke="black" points="147.5,-46.1 144,-36.1 140.5,-46.1 147.5,-46.1"/>
</g>
<!-- closeable -->
<g id="node3" class="node">
<title>closeable</title>
<g id="a_node3"><a xlink:href="PsyllaReference_Types.xhtml#PsyllaReference_Types_Details_closeable" xlink:title="closeable" target="_parent">
<polygon fill="linen" stroke="black" points="78,-180 0,-180 0,-144 84,-144 84,-174 78,-180"/>
<polyline fill="none" stroke="black" points="78,-180 78,-174 "/>
<polyline fill="none" stroke="black" points="84,-174 78,-174 "/>
<text text-anchor="middle" x="42" y="-158.9" font-family="Source Code Pro,monospace" font-size="12.00">closeable</text>
</a>
</g>
</g>
<!-- closeable&#45;&gt;writer -->
<g id="edge2" class="edge">
<title>closeable&#45;&gt;writer</title>
<path fill="none" stroke="black" d="M66.95,-143.88C80.04,-134.89 96.26,-123.76 110.44,-114.03"/>
<polygon fill="black" stroke="black" points="112.69,-116.73 118.95,-108.19 108.73,-110.96 112.69,-116.73"/>
</g>
<!-- flushable -->
<g id="node4" class="node">
<title>flushable</title>
<g id="a_node4"><a xlink:href="PsyllaReference_Types.xhtml#PsyllaReference_Types_Details_flushable" xlink:title="flushable" target="_parent">
<polygon fill="linen" stroke="black" points="180,-180 102,-180 102,-144 186,-144 186,-174 180,-180"/>
<polyline fill="none" stroke="black" points="180,-180 180,-174 "/>
<polyline fill="none" stroke="black" points="186,-174 180,-174 "/>
<text text-anchor="middle" x="144" y="-158.9" font-family="Source Code Pro,monospace" font-size="12.00">flushable</text>
</a>
</g>
</g>
<!-- flushable&#45;&gt;writer -->
<g id="edge3" class="edge">
<title>flushable&#45;&gt;writer</title>
<path fill="none" stroke="black" d="M144,-143.7C144,-135.98 144,-126.71 144,-118.11"/>
<polygon fill="black" stroke="black" points="147.5,-118.1 144,-108.1 140.5,-118.1 147.5,-118.1"/>
</g>
<!-- writable -->
<g id="node5" class="node">
<title>writable</title>
<g id="a_node5"><a xlink:href="PsyllaReference_Types.xhtml#PsyllaReference_Types_Details_writable" xlink:title="writable" target="_parent">
<polygon fill="linen" stroke="black" points="275.5,-180 204.5,-180 204.5,-144 281.5,-144 281.5,-174 275.5,-180"/>
<polyline fill="none" stroke="black" points="275.5,-180 275.5,-174 "/>
<polyline fill="none" stroke="black" points="281.5,-174 275.5,-174 "/>
<text text-anchor="middle" x="243" y="-158.9" font-family="Source Code Pro,monospace" font-size="12.00">writable</text>
</a>
</g>
</g>
<!-- writable&#45;&gt;writer -->
<g id="edge4" class="edge">
<title>writable&#45;&gt;writer</title>
<path fill="none" stroke="black" d="M218.78,-143.88C206.08,-134.89 190.34,-123.76 176.58,-114.03"/>
<polygon fill="black" stroke="black" points="178.5,-111.11 168.31,-108.19 174.46,-116.82 178.5,-111.11"/>
</g>
<!-- object -->
<g id="node6" class="node">
<title>object</title>
<g id="a_node6"><a xlink:href="PsyllaReference_Types.xhtml#PsyllaReference_Types_Details_object" xlink:title="object" target="_parent">
<polygon fill="linen" stroke="black" points="169,-252 113,-252 113,-216 175,-216 175,-246 169,-252"/>
<polyline fill="none" stroke="black" points="169,-252 169,-246 "/>
<polyline fill="none" stroke="black" points="175,-246 169,-246 "/>
<text text-anchor="middle" x="144" y="-230.9" font-family="Source Code Pro,monospace" font-size="12.00">object</text>
</a>
</g>
</g>
<!-- object&#45;&gt;closeable -->
<g id="edge5" class="edge">
<title>object&#45;&gt;closeable</title>
<path fill="none" stroke="black" d="M119.05,-215.88C105.96,-206.89 89.74,-195.76 75.56,-186.03"/>
<polygon fill="black" stroke="black" points="77.27,-182.96 67.05,-180.19 73.31,-188.73 77.27,-182.96"/>
</g>
<!-- object&#45;&gt;flushable -->
<g id="edge6" class="edge">
<title>object&#45;&gt;flushable</title>
<path fill="none" stroke="black" d="M144,-215.7C144,-207.98 144,-198.71 144,-190.11"/>
<polygon fill="black" stroke="black" points="147.5,-190.1 144,-180.1 140.5,-190.1 147.5,-190.1"/>
</g>
<!-- object&#45;&gt;writable -->
<g id="edge7" class="edge">
<title>object&#45;&gt;writable</title>
<path fill="none" stroke="black" d="M168.22,-215.88C180.92,-206.89 196.66,-195.76 210.42,-186.03"/>
<polygon fill="black" stroke="black" points="212.54,-188.82 218.69,-180.19 208.5,-183.11 212.54,-188.82"/>
</g>
</g>
</svg>
