<?xml version="1.0" encoding="UTF-8" standalone="no"?>
<!DOCTYPE svg PUBLIC "-//W3C//DTD SVG 1.1//EN"
 "http://www.w3.org/Graphics/SVG/1.1/DTD/svg11.dtd">
<!-- Generated by graphviz version 2.49.3 (0)
 -->
<!-- Title: error Pages: 1 -->
<svg width="75pt" height="188pt"
 viewBox="0.00 0.00 75.30 188.00" xmlns="http://www.w3.org/2000/svg" xmlns:xlink="http://www.w3.org/1999/xlink">
<g id="graph0" class="graph" transform="scale(1 1) rotate(0) translate(4 184)">
<title>error</title>
<polygon fill="transparent" stroke="transparent" points="-4,4 -4,-184 71.3,-184 71.3,4 -4,4"/>
<!-- executable -->
<g id="node1" class="node">
<title>executable</title>
<g id="a_node1"><a xlink:href="PsyllaReference_Types.xhtml#PsyllaReference_Types_Details_executable" xlink:title="executable" target="_parent">
<polygon fill="linen" stroke="black" points="61.46,-108 -0.15,-108 -0.15,-72 67.46,-72 67.46,-102 61.46,-108"/>
<polyline fill="none" stroke="black" points="61.46,-108 61.46,-102 "/>
<polyline fill="none" stroke="black" points="67.46,-102 61.46,-102 "/>
<text text-anchor="middle" x="33.65" y="-86.4" font-family="Source Code Pro,monospace" font-size="12.00">executable</text>
</a>
</g>
</g>
<!-- error -->
<g id="node2" class="node">
<title>error</title>
<g id="a_node2"><a xlink:href="PsyllaReference_Types.xhtml#PsyllaReference_Types_Details_error" xlink:title="error" target="_parent">
<polygon fill="wheat" stroke="black" points="54.65,-36 6.65,-36 6.65,0 60.65,0 60.65,-30 54.65,-36"/>
<polyline fill="none" stroke="black" points="54.65,-36 54.65,-30 "/>
<polyline fill="none" stroke="black" points="60.65,-30 54.65,-30 "/>
<text text-anchor="middle" x="33.65" y="-14.4" font-family="Source Code Pro,monospace" font-size="12.00">error</text>
</a>
</g>
</g>
<!-- executable&#45;&gt;error -->
<g id="edge1" class="edge">
<title>executable&#45;&gt;error</title>
<path fill="none" stroke="black" d="M33.65,-71.7C33.65,-63.98 33.65,-54.71 33.65,-46.11"/>
<polygon fill="black" stroke="black" points="37.15,-46.1 33.65,-36.1 30.15,-46.1 37.15,-46.1"/>
</g>
<!-- object -->
<g id="node3" class="node">
<title>object</title>
<g id="a_node3"><a xlink:href="PsyllaReference_Types.xhtml#PsyllaReference_Types_Details_object" xlink:title="object" target="_parent">
<polygon fill="linen" stroke="black" points="54.65,-180 6.65,-180 6.65,-144 60.65,-144 60.65,-174 54.65,-180"/>
<polyline fill="none" stroke="black" points="54.65,-180 54.65,-174 "/>
<polyline fill="none" stroke="black" points="60.65,-174 54.65,-174 "/>
<text text-anchor="middle" x="33.65" y="-158.4" font-family="Source Code Pro,monospace" font-size="12.00">object</text>
</a>
</g>
</g>
<!-- object&#45;&gt;executable -->
<g id="edge2" class="edge">
<title>object&#45;&gt;executable</title>
<path fill="none" stroke="black" d="M33.65,-143.7C33.65,-135.98 33.65,-126.71 33.65,-118.11"/>
<polygon fill="black" stroke="black" points="37.15,-118.1 33.65,-108.1 30.15,-118.1 37.15,-118.1"/>
</g>
</g>
</svg>
