<?xml version="1.0" encoding="UTF-8" standalone="no"?>
<!DOCTYPE svg PUBLIC "-//W3C//DTD SVG 1.1//EN"
 "http://www.w3.org/Graphics/SVG/1.1/DTD/svg11.dtd">
<!-- Generated by graphviz version 2.43.0 (0)
 -->
<!-- Title: operator Pages: 1 -->
<svg width="180pt" height="188pt"
 viewBox="0.00 0.00 180.00 188.00" xmlns="http://www.w3.org/2000/svg" xmlns:xlink="http://www.w3.org/1999/xlink">
<g id="graph0" class="graph" transform="scale(1 1) rotate(0) translate(4 184)">
<title>operator</title>
<polygon fill="transparent" stroke="transparent" points="-4,4 -4,-184 176,-184 176,4 -4,4"/>
<!-- atomic -->
<g id="node1" class="node">
<title>atomic</title>
<g id="a_node1"><a xlink:href="PsyllaReference_Types.xhtml#PsyllaReference_Types_Details_atomic" xlink:title="atomic" target="_parent">
<polygon fill="linen" stroke="black" points="56,-108 0,-108 0,-72 62,-72 62,-102 56,-108"/>
<polyline fill="none" stroke="black" points="56,-108 56,-102 "/>
<polyline fill="none" stroke="black" points="62,-102 56,-102 "/>
<text text-anchor="middle" x="31" y="-86.9" font-family="PT Mono, monospace" font-size="12.00">atomic</text>
</a>
</g>
</g>
<!-- operator -->
<g id="node3" class="node">
<title>operator</title>
<g id="a_node3"><a xlink:href="PsyllaReference_Types.xhtml#PsyllaReference_Types_Details_operator" xlink:title="operator" target="_parent">
<polygon fill="wheat" stroke="black" points="110.5,-36 39.5,-36 39.5,0 116.5,0 116.5,-30 110.5,-36"/>
<polyline fill="none" stroke="black" points="110.5,-36 110.5,-30 "/>
<polyline fill="none" stroke="black" points="116.5,-30 110.5,-30 "/>
<text text-anchor="middle" x="78" y="-14.9" font-family="PT Mono, monospace" font-size="12.00">operator</text>
</a>
</g>
</g>
<!-- atomic&#45;&gt;operator -->
<g id="edge1" class="edge">
<title>atomic&#45;&gt;operator</title>
<path fill="none" stroke="black" d="M42.62,-71.7C48.14,-63.47 54.85,-53.48 60.93,-44.42"/>
<polygon fill="black" stroke="black" points="63.85,-46.36 66.52,-36.1 58.04,-42.46 63.85,-46.36"/>
</g>
<!-- executable -->
<g id="node2" class="node">
<title>executable</title>
<g id="a_node2"><a xlink:href="PsyllaReference_Types.xhtml#PsyllaReference_Types_Details_executable" xlink:title="executable" target="_parent">
<polygon fill="linen" stroke="black" points="166,-108 80,-108 80,-72 172,-72 172,-102 166,-108"/>
<polyline fill="none" stroke="black" points="166,-108 166,-102 "/>
<polyline fill="none" stroke="black" points="172,-102 166,-102 "/>
<text text-anchor="middle" x="126" y="-86.9" font-family="PT Mono, monospace" font-size="12.00">executable</text>
</a>
</g>
</g>
<!-- executable&#45;&gt;operator -->
<g id="edge2" class="edge">
<title>executable&#45;&gt;operator</title>
<path fill="none" stroke="black" d="M114.13,-71.7C108.5,-63.47 101.65,-53.48 95.43,-44.42"/>
<polygon fill="black" stroke="black" points="98.27,-42.37 89.73,-36.1 92.5,-46.33 98.27,-42.37"/>
</g>
<!-- object -->
<g id="node4" class="node">
<title>object</title>
<g id="a_node4"><a xlink:href="PsyllaReference_Types.xhtml#PsyllaReference_Types_Details_object" xlink:title="object" target="_parent">
<polygon fill="linen" stroke="black" points="103,-180 47,-180 47,-144 109,-144 109,-174 103,-180"/>
<polyline fill="none" stroke="black" points="103,-180 103,-174 "/>
<polyline fill="none" stroke="black" points="109,-174 103,-174 "/>
<text text-anchor="middle" x="78" y="-158.9" font-family="PT Mono, monospace" font-size="12.00">object</text>
</a>
</g>
</g>
<!-- object&#45;&gt;atomic -->
<g id="edge3" class="edge">
<title>object&#45;&gt;atomic</title>
<path fill="none" stroke="black" d="M66.38,-143.7C60.86,-135.47 54.15,-125.48 48.07,-116.42"/>
<polygon fill="black" stroke="black" points="50.96,-114.46 42.48,-108.1 45.15,-118.36 50.96,-114.46"/>
</g>
<!-- object&#45;&gt;executable -->
<g id="edge4" class="edge">
<title>object&#45;&gt;executable</title>
<path fill="none" stroke="black" d="M89.87,-143.7C95.5,-135.47 102.35,-125.48 108.57,-116.42"/>
<polygon fill="black" stroke="black" points="111.5,-118.33 114.27,-108.1 105.73,-114.37 111.5,-118.33"/>
</g>
</g>
</svg>
