<?xml version="1.0" encoding="UTF-8" standalone="no"?>
<!DOCTYPE svg PUBLIC "-//W3C//DTD SVG 1.1//EN"
 "http://www.w3.org/Graphics/SVG/1.1/DTD/svg11.dtd">
<!-- Generated by graphviz version 2.43.0 (0)
 -->
<!-- Title: integral Pages: 1 -->
<svg width="390pt" height="476pt"
 viewBox="0.00 0.00 389.50 476.00" xmlns="http://www.w3.org/2000/svg" xmlns:xlink="http://www.w3.org/1999/xlink">
<g id="graph0" class="graph" transform="scale(1 1) rotate(0) translate(4 472)">
<title>integral</title>
<polygon fill="transparent" stroke="transparent" points="-4,4 -4,-472 385.5,-472 385.5,4 -4,4"/>
<!-- bitwise -->
<g id="node1" class="node">
<title>bitwise</title>
<g id="a_node1"><a xlink:href="PsyllaReference_Types.xhtml#PsyllaReference_Types_Details_bitwise" xlink:title="bitwise" target="_parent">
<polygon fill="linen" stroke="black" points="63,-180 0,-180 0,-144 69,-144 69,-174 63,-180"/>
<polyline fill="none" stroke="black" points="63,-180 63,-174 "/>
<polyline fill="none" stroke="black" points="69,-174 63,-174 "/>
<text text-anchor="middle" x="34.5" y="-158.9" font-family="PT Mono, monospace" font-size="12.00">bitwise</text>
</a>
</g>
</g>
<!-- integral -->
<g id="node3" class="node">
<title>integral</title>
<g id="a_node3"><a xlink:href="PsyllaReference_Types.xhtml#PsyllaReference_Types_Details_integral" xlink:title="integral" target="_parent">
<polygon fill="wheat" stroke="black" points="117,-36 46,-36 46,0 123,0 123,-30 117,-36"/>
<polyline fill="none" stroke="black" points="117,-36 117,-30 "/>
<polyline fill="none" stroke="black" points="123,-30 117,-30 "/>
<text text-anchor="middle" x="84.5" y="-14.9" font-family="PT Mono, monospace" font-size="12.00">integral</text>
</a>
</g>
</g>
<!-- bitwise&#45;&gt;integral -->
<g id="edge1" class="edge">
<title>bitwise&#45;&gt;integral</title>
<path fill="none" stroke="black" d="M40.53,-143.87C49.13,-119.46 64.98,-74.43 75.12,-45.64"/>
<polygon fill="black" stroke="black" points="78.43,-46.78 78.45,-36.19 71.82,-44.46 78.43,-46.78"/>
</g>
<!-- rational -->
<g id="node2" class="node">
<title>rational</title>
<g id="a_node2"><a xlink:href="PsyllaReference_Types.xhtml#PsyllaReference_Types_Details_rational" xlink:title="rational" target="_parent">
<polygon fill="linen" stroke="black" points="160,-108 89,-108 89,-72 166,-72 166,-102 160,-108"/>
<polyline fill="none" stroke="black" points="160,-108 160,-102 "/>
<polyline fill="none" stroke="black" points="166,-102 160,-102 "/>
<text text-anchor="middle" x="127.5" y="-86.9" font-family="PT Mono, monospace" font-size="12.00">rational</text>
</a>
</g>
</g>
<!-- rational&#45;&gt;integral -->
<g id="edge2" class="edge">
<title>rational&#45;&gt;integral</title>
<path fill="none" stroke="black" d="M116.87,-71.7C111.87,-63.56 105.81,-53.69 100.29,-44.7"/>
<polygon fill="black" stroke="black" points="103.22,-42.79 95.01,-36.1 97.26,-46.46 103.22,-42.79"/>
</g>
<!-- logical -->
<g id="node4" class="node">
<title>logical</title>
<g id="a_node4"><a xlink:href="PsyllaReference_Types.xhtml#PsyllaReference_Types_Details_logical" xlink:title="logical" target="_parent">
<polygon fill="linen" stroke="black" points="63,-396 0,-396 0,-360 69,-360 69,-390 63,-396"/>
<polyline fill="none" stroke="black" points="63,-396 63,-390 "/>
<polyline fill="none" stroke="black" points="69,-390 63,-390 "/>
<text text-anchor="middle" x="34.5" y="-374.9" font-family="PT Mono, monospace" font-size="12.00">logical</text>
</a>
</g>
</g>
<!-- logical&#45;&gt;bitwise -->
<g id="edge3" class="edge">
<title>logical&#45;&gt;bitwise</title>
<path fill="none" stroke="black" d="M34.5,-359.85C34.5,-322.83 34.5,-235.18 34.5,-190.39"/>
<polygon fill="black" stroke="black" points="38,-190.23 34.5,-180.23 31,-190.23 38,-190.23"/>
</g>
<!-- realnumeric -->
<g id="node5" class="node">
<title>realnumeric</title>
<g id="a_node5"><a xlink:href="PsyllaReference_Types.xhtml#PsyllaReference_Types_Details_realnumeric" xlink:title="realnumeric" target="_parent">
<polygon fill="linen" stroke="black" points="180,-180 87,-180 87,-144 186,-144 186,-174 180,-180"/>
<polyline fill="none" stroke="black" points="180,-180 180,-174 "/>
<polyline fill="none" stroke="black" points="186,-174 180,-174 "/>
<text text-anchor="middle" x="136.5" y="-158.9" font-family="PT Mono, monospace" font-size="12.00">realnumeric</text>
</a>
</g>
</g>
<!-- realnumeric&#45;&gt;rational -->
<g id="edge4" class="edge">
<title>realnumeric&#45;&gt;rational</title>
<path fill="none" stroke="black" d="M134.28,-143.7C133.28,-135.98 132.09,-126.71 130.99,-118.11"/>
<polygon fill="black" stroke="black" points="134.45,-117.58 129.7,-108.1 127.5,-118.47 134.45,-117.58"/>
</g>
<!-- object -->
<g id="node6" class="node">
<title>object</title>
<g id="a_node6"><a xlink:href="PsyllaReference_Types.xhtml#PsyllaReference_Types_Details_object" xlink:title="object" target="_parent">
<polygon fill="linen" stroke="black" points="160.5,-468 104.5,-468 104.5,-432 166.5,-432 166.5,-462 160.5,-468"/>
<polyline fill="none" stroke="black" points="160.5,-468 160.5,-462 "/>
<polyline fill="none" stroke="black" points="166.5,-462 160.5,-462 "/>
<text text-anchor="middle" x="135.5" y="-446.9" font-family="PT Mono, monospace" font-size="12.00">object</text>
</a>
</g>
</g>
<!-- object&#45;&gt;logical -->
<g id="edge5" class="edge">
<title>object&#45;&gt;logical</title>
<path fill="none" stroke="black" d="M110.79,-431.88C97.83,-422.89 81.77,-411.76 67.73,-402.03"/>
<polygon fill="black" stroke="black" points="69.52,-399.01 59.3,-396.19 65.53,-404.76 69.52,-399.01"/>
</g>
<!-- scalar -->
<g id="node8" class="node">
<title>scalar</title>
<g id="a_node8"><a xlink:href="PsyllaReference_Types.xhtml#PsyllaReference_Types_Details_scalar" xlink:title="scalar" target="_parent">
<polygon fill="linen" stroke="black" points="122.5,-252 66.5,-252 66.5,-216 128.5,-216 128.5,-246 122.5,-252"/>
<polyline fill="none" stroke="black" points="122.5,-252 122.5,-246 "/>
<polyline fill="none" stroke="black" points="128.5,-246 122.5,-246 "/>
<text text-anchor="middle" x="97.5" y="-230.9" font-family="PT Mono, monospace" font-size="12.00">scalar</text>
</a>
</g>
</g>
<!-- object&#45;&gt;scalar -->
<g id="edge10" class="edge">
<title>object&#45;&gt;scalar</title>
<path fill="none" stroke="black" d="M132.45,-431.85C125.87,-394.75 110.25,-306.81 102.31,-262.1"/>
<polygon fill="black" stroke="black" points="105.75,-261.47 100.56,-252.23 98.86,-262.69 105.75,-261.47"/>
</g>
<!-- atomic -->
<g id="node9" class="node">
<title>atomic</title>
<g id="a_node9"><a xlink:href="PsyllaReference_Types.xhtml#PsyllaReference_Types_Details_atomic" xlink:title="atomic" target="_parent">
<polygon fill="linen" stroke="black" points="181.5,-324 125.5,-324 125.5,-288 187.5,-288 187.5,-318 181.5,-324"/>
<polyline fill="none" stroke="black" points="181.5,-324 181.5,-318 "/>
<polyline fill="none" stroke="black" points="187.5,-318 181.5,-318 "/>
<text text-anchor="middle" x="156.5" y="-302.9" font-family="PT Mono, monospace" font-size="12.00">atomic</text>
</a>
</g>
</g>
<!-- object&#45;&gt;atomic -->
<g id="edge11" class="edge">
<title>object&#45;&gt;atomic</title>
<path fill="none" stroke="black" d="M138.03,-431.87C141.61,-407.67 148.19,-363.21 152.45,-334.39"/>
<polygon fill="black" stroke="black" points="155.96,-334.59 153.96,-324.19 149.03,-333.57 155.96,-334.59"/>
</g>
<!-- additive -->
<g id="node11" class="node">
<title>additive</title>
<g id="a_node11"><a xlink:href="PsyllaReference_Types.xhtml#PsyllaReference_Types_Details_additive" xlink:title="additive" target="_parent">
<polygon fill="linen" stroke="black" points="235,-396 164,-396 164,-360 241,-360 241,-390 235,-396"/>
<polyline fill="none" stroke="black" points="235,-396 235,-390 "/>
<polyline fill="none" stroke="black" points="241,-390 235,-390 "/>
<text text-anchor="middle" x="202.5" y="-374.9" font-family="PT Mono, monospace" font-size="12.00">additive</text>
</a>
</g>
</g>
<!-- object&#45;&gt;additive -->
<g id="edge14" class="edge">
<title>object&#45;&gt;additive</title>
<path fill="none" stroke="black" d="M152.06,-431.7C160.18,-423.22 170.09,-412.86 178.97,-403.58"/>
<polygon fill="black" stroke="black" points="181.74,-405.75 186.13,-396.1 176.69,-400.91 181.74,-405.75"/>
</g>
<!-- multiplicative -->
<g id="node12" class="node">
<title>multiplicative</title>
<g id="a_node12"><a xlink:href="PsyllaReference_Types.xhtml#PsyllaReference_Types_Details_multiplicative" xlink:title="multiplicative" target="_parent">
<polygon fill="linen" stroke="black" points="375.5,-396 259.5,-396 259.5,-360 381.5,-360 381.5,-390 375.5,-396"/>
<polyline fill="none" stroke="black" points="375.5,-396 375.5,-390 "/>
<polyline fill="none" stroke="black" points="381.5,-390 375.5,-390 "/>
<text text-anchor="middle" x="320.5" y="-374.9" font-family="PT Mono, monospace" font-size="12.00">multiplicative</text>
</a>
</g>
</g>
<!-- object&#45;&gt;multiplicative -->
<g id="edge15" class="edge">
<title>object&#45;&gt;multiplicative</title>
<path fill="none" stroke="black" d="M166.88,-437.13C193.88,-426.91 233.46,-411.94 265.68,-399.74"/>
<polygon fill="black" stroke="black" points="267.3,-402.87 275.42,-396.06 264.82,-396.32 267.3,-402.87"/>
</g>
<!-- numeric -->
<g id="node7" class="node">
<title>numeric</title>
<g id="a_node7"><a xlink:href="PsyllaReference_Types.xhtml#PsyllaReference_Types_Details_numeric" xlink:title="numeric" target="_parent">
<polygon fill="linen" stroke="black" points="210,-252 147,-252 147,-216 216,-216 216,-246 210,-252"/>
<polyline fill="none" stroke="black" points="210,-252 210,-246 "/>
<polyline fill="none" stroke="black" points="216,-246 210,-246 "/>
<text text-anchor="middle" x="181.5" y="-230.9" font-family="PT Mono, monospace" font-size="12.00">numeric</text>
</a>
</g>
</g>
<!-- numeric&#45;&gt;realnumeric -->
<g id="edge6" class="edge">
<title>numeric&#45;&gt;realnumeric</title>
<path fill="none" stroke="black" d="M170.38,-215.7C165.14,-207.56 158.8,-197.69 153.02,-188.7"/>
<polygon fill="black" stroke="black" points="155.85,-186.62 147.5,-180.1 149.96,-190.41 155.85,-186.62"/>
</g>
<!-- scalar&#45;&gt;realnumeric -->
<g id="edge7" class="edge">
<title>scalar&#45;&gt;realnumeric</title>
<path fill="none" stroke="black" d="M107.14,-215.7C111.63,-207.64 117.06,-197.89 122.02,-188.98"/>
<polygon fill="black" stroke="black" points="125.16,-190.54 126.97,-180.1 119.05,-187.14 125.16,-190.54"/>
</g>
<!-- atomic&#45;&gt;numeric -->
<g id="edge8" class="edge">
<title>atomic&#45;&gt;numeric</title>
<path fill="none" stroke="black" d="M162.68,-287.7C165.5,-279.81 168.89,-270.3 172.02,-261.55"/>
<polygon fill="black" stroke="black" points="175.32,-262.7 175.39,-252.1 168.73,-260.34 175.32,-262.7"/>
</g>
<!-- arithmetic -->
<g id="node10" class="node">
<title>arithmetic</title>
<g id="a_node10"><a xlink:href="PsyllaReference_Types.xhtml#PsyllaReference_Types_Details_arithmetic" xlink:title="arithmetic" target="_parent">
<polygon fill="linen" stroke="black" points="291.5,-324 205.5,-324 205.5,-288 297.5,-288 297.5,-318 291.5,-324"/>
<polyline fill="none" stroke="black" points="291.5,-324 291.5,-318 "/>
<polyline fill="none" stroke="black" points="297.5,-318 291.5,-318 "/>
<text text-anchor="middle" x="251.5" y="-302.9" font-family="PT Mono, monospace" font-size="12.00">arithmetic</text>
</a>
</g>
</g>
<!-- arithmetic&#45;&gt;numeric -->
<g id="edge9" class="edge">
<title>arithmetic&#45;&gt;numeric</title>
<path fill="none" stroke="black" d="M234.2,-287.7C225.64,-279.14 215.16,-268.66 205.8,-259.3"/>
<polygon fill="black" stroke="black" points="208.15,-256.7 198.6,-252.1 203.2,-261.65 208.15,-256.7"/>
</g>
<!-- additive&#45;&gt;arithmetic -->
<g id="edge12" class="edge">
<title>additive&#45;&gt;arithmetic</title>
<path fill="none" stroke="black" d="M214.61,-359.7C220.37,-351.47 227.36,-341.48 233.71,-332.42"/>
<polygon fill="black" stroke="black" points="236.66,-334.3 239.53,-324.1 230.92,-330.29 236.66,-334.3"/>
</g>
<!-- multiplicative&#45;&gt;arithmetic -->
<g id="edge13" class="edge">
<title>multiplicative&#45;&gt;arithmetic</title>
<path fill="none" stroke="black" d="M303.44,-359.7C295,-351.14 284.68,-340.66 275.46,-331.3"/>
<polygon fill="black" stroke="black" points="277.87,-328.77 268.36,-324.1 272.89,-333.68 277.87,-328.77"/>
</g>
</g>
</svg>
