<?xml version="1.0" encoding="UTF-8" standalone="no"?>
<!DOCTYPE svg PUBLIC "-//W3C//DTD SVG 1.1//EN"
 "http://www.w3.org/Graphics/SVG/1.1/DTD/svg11.dtd">
<!-- Generated by graphviz version 2.43.0 (0)
 -->
<!-- Title: realnumeric Pages: 1 -->
<svg width="742pt" height="332pt"
 viewBox="0.00 0.00 741.50 332.00" xmlns="http://www.w3.org/2000/svg" xmlns:xlink="http://www.w3.org/1999/xlink">
<g id="graph0" class="graph" transform="scale(1 1) rotate(0) translate(4 328)">
<title>realnumeric</title>
<polygon fill="transparent" stroke="transparent" points="-4,4 -4,-328 737.5,-328 737.5,4 -4,4"/>
<!-- numeric -->
<g id="node1" class="node">
<title>numeric</title>
<g id="a_node1"><a xlink:href="PsyllaReference_Types.xhtml#PsyllaReference_Types_Details_numeric" xlink:title="numeric" target="_parent">
<polygon fill="linen" stroke="black" points="499,-108 436,-108 436,-72 505,-72 505,-102 499,-108"/>
<polyline fill="none" stroke="black" points="499,-108 499,-102 "/>
<polyline fill="none" stroke="black" points="505,-102 499,-102 "/>
<text text-anchor="middle" x="470.5" y="-86.9" font-family="Source Code Pro,monospace" font-size="12.00">numeric</text>
</a>
</g>
</g>
<!-- realnumeric -->
<g id="node6" class="node">
<title>realnumeric</title>
<g id="a_node6"><a xlink:href="PsyllaReference_Types.xhtml#PsyllaReference_Types_Details_realnumeric" xlink:title="realnumeric" target="_parent">
<polygon fill="wheat" stroke="black" points="357,-36 264,-36 264,0 363,0 363,-30 357,-36"/>
<polyline fill="none" stroke="black" points="357,-36 357,-30 "/>
<polyline fill="none" stroke="black" points="363,-30 357,-30 "/>
<text text-anchor="middle" x="313.5" y="-14.9" font-family="Source Code Pro,monospace" font-size="12.00">realnumeric</text>
</a>
</g>
</g>
<!-- numeric&#45;&gt;realnumeric -->
<g id="edge1" class="edge">
<title>numeric&#45;&gt;realnumeric</title>
<path fill="none" stroke="black" d="M435.66,-73.46C413.72,-63.69 385.13,-50.94 361.12,-40.23"/>
<polygon fill="black" stroke="black" points="362.38,-36.96 351.82,-36.09 359.53,-43.36 362.38,-36.96"/>
</g>
<!-- convertabletointeger -->
<g id="node2" class="node">
<title>convertabletointeger</title>
<g id="a_node2"><a xlink:href="PsyllaReference_Types.xhtml#PsyllaReference_Types_Details_convertabletointeger" xlink:title="convertabletointeger" target="_parent">
<polygon fill="linen" stroke="black" points="161,-180 0,-180 0,-144 167,-144 167,-174 161,-180"/>
<polyline fill="none" stroke="black" points="161,-180 161,-174 "/>
<polyline fill="none" stroke="black" points="167,-174 161,-174 "/>
<text text-anchor="middle" x="83.5" y="-158.9" font-family="Source Code Pro,monospace" font-size="12.00">convertabletointeger</text>
</a>
</g>
</g>
<!-- convertabletointeger&#45;&gt;realnumeric -->
<g id="edge2" class="edge">
<title>convertabletointeger&#45;&gt;realnumeric</title>
<path fill="none" stroke="black" d="M82.17,-143.81C81.62,-123.85 83.96,-91.22 102.5,-72 123.24,-50.51 198.89,-35.34 253.68,-26.89"/>
<polygon fill="black" stroke="black" points="254.28,-30.34 263.65,-25.39 253.24,-23.42 254.28,-30.34"/>
</g>
<!-- convertabletointegral -->
<g id="node3" class="node">
<title>convertabletointegral</title>
<g id="a_node3"><a xlink:href="PsyllaReference_Types.xhtml#PsyllaReference_Types_Details_convertabletointegral" xlink:title="convertabletointegral" target="_parent">
<polygon fill="linen" stroke="black" points="279.5,-108 111.5,-108 111.5,-72 285.5,-72 285.5,-102 279.5,-108"/>
<polyline fill="none" stroke="black" points="279.5,-108 279.5,-102 "/>
<polyline fill="none" stroke="black" points="285.5,-102 279.5,-102 "/>
<text text-anchor="middle" x="198.5" y="-86.9" font-family="Source Code Pro,monospace" font-size="12.00">convertabletointegral</text>
</a>
</g>
</g>
<!-- convertabletointegral&#45;&gt;realnumeric -->
<g id="edge3" class="edge">
<title>convertabletointegral&#45;&gt;realnumeric</title>
<path fill="none" stroke="black" d="M226.63,-71.88C241.67,-62.72 260.37,-51.34 276.56,-41.48"/>
<polygon fill="black" stroke="black" points="278.54,-44.38 285.26,-36.19 274.9,-38.4 278.54,-44.38"/>
</g>
<!-- convertabletorational -->
<g id="node4" class="node">
<title>convertabletorational</title>
<g id="a_node4"><a xlink:href="PsyllaReference_Types.xhtml#PsyllaReference_Types_Details_convertabletorational" xlink:title="convertabletorational" target="_parent">
<polygon fill="linen" stroke="black" points="390.5,-180 222.5,-180 222.5,-144 396.5,-144 396.5,-174 390.5,-180"/>
<polyline fill="none" stroke="black" points="390.5,-180 390.5,-174 "/>
<polyline fill="none" stroke="black" points="396.5,-174 390.5,-174 "/>
<text text-anchor="middle" x="309.5" y="-158.9" font-family="Source Code Pro,monospace" font-size="12.00">convertabletorational</text>
</a>
</g>
</g>
<!-- convertabletorational&#45;&gt;realnumeric -->
<g id="edge4" class="edge">
<title>convertabletorational&#45;&gt;realnumeric</title>
<path fill="none" stroke="black" d="M309.98,-143.87C310.66,-119.67 311.92,-75.21 312.73,-46.39"/>
<polygon fill="black" stroke="black" points="316.23,-46.28 313.02,-36.19 309.24,-46.09 316.23,-46.28"/>
</g>
<!-- scalar -->
<g id="node5" class="node">
<title>scalar</title>
<g id="a_node5"><a xlink:href="PsyllaReference_Types.xhtml#PsyllaReference_Types_Details_scalar" xlink:title="scalar" target="_parent">
<polygon fill="linen" stroke="black" points="404.5,-108 348.5,-108 348.5,-72 410.5,-72 410.5,-102 404.5,-108"/>
<polyline fill="none" stroke="black" points="404.5,-108 404.5,-102 "/>
<polyline fill="none" stroke="black" points="410.5,-102 404.5,-102 "/>
<text text-anchor="middle" x="379.5" y="-86.9" font-family="Source Code Pro,monospace" font-size="12.00">scalar</text>
</a>
</g>
</g>
<!-- scalar&#45;&gt;realnumeric -->
<g id="edge5" class="edge">
<title>scalar&#45;&gt;realnumeric</title>
<path fill="none" stroke="black" d="M363.19,-71.7C355.19,-63.22 345.43,-52.86 336.68,-43.58"/>
<polygon fill="black" stroke="black" points="339.03,-40.98 329.63,-36.1 333.94,-45.78 339.03,-40.98"/>
</g>
<!-- arithmetic -->
<g id="node7" class="node">
<title>arithmetic</title>
<g id="a_node7"><a xlink:href="PsyllaReference_Types.xhtml#PsyllaReference_Types_Details_arithmetic" xlink:title="arithmetic" target="_parent">
<polygon fill="linen" stroke="black" points="594.5,-180 508.5,-180 508.5,-144 600.5,-144 600.5,-174 594.5,-180"/>
<polyline fill="none" stroke="black" points="594.5,-180 594.5,-174 "/>
<polyline fill="none" stroke="black" points="600.5,-174 594.5,-174 "/>
<text text-anchor="middle" x="554.5" y="-158.9" font-family="Source Code Pro,monospace" font-size="12.00">arithmetic</text>
</a>
</g>
</g>
<!-- arithmetic&#45;&gt;numeric -->
<g id="edge6" class="edge">
<title>arithmetic&#45;&gt;numeric</title>
<path fill="none" stroke="black" d="M533.74,-143.7C523.26,-134.97 510.39,-124.24 499,-114.75"/>
<polygon fill="black" stroke="black" points="500.95,-111.82 491.03,-108.1 496.47,-117.19 500.95,-111.82"/>
</g>
<!-- value -->
<g id="node8" class="node">
<title>value</title>
<g id="a_node8"><a xlink:href="PsyllaReference_Types.xhtml#PsyllaReference_Types_Details_value" xlink:title="value" target="_parent">
<polygon fill="linen" stroke="black" points="491.5,-252 443.5,-252 443.5,-216 497.5,-216 497.5,-246 491.5,-252"/>
<polyline fill="none" stroke="black" points="491.5,-252 491.5,-246 "/>
<polyline fill="none" stroke="black" points="497.5,-246 491.5,-246 "/>
<text text-anchor="middle" x="470.5" y="-230.9" font-family="Source Code Pro,monospace" font-size="12.00">value</text>
</a>
</g>
</g>
<!-- value&#45;&gt;numeric -->
<g id="edge7" class="edge">
<title>value&#45;&gt;numeric</title>
<path fill="none" stroke="black" d="M470.5,-215.87C470.5,-191.67 470.5,-147.21 470.5,-118.39"/>
<polygon fill="black" stroke="black" points="474,-118.19 470.5,-108.19 467,-118.19 474,-118.19"/>
</g>
<!-- object -->
<g id="node9" class="node">
<title>object</title>
<g id="a_node9"><a xlink:href="PsyllaReference_Types.xhtml#PsyllaReference_Types_Details_object" xlink:title="object" target="_parent">
<polygon fill="linen" stroke="black" points="440.5,-324 384.5,-324 384.5,-288 446.5,-288 446.5,-318 440.5,-324"/>
<polyline fill="none" stroke="black" points="440.5,-324 440.5,-318 "/>
<polyline fill="none" stroke="black" points="446.5,-318 440.5,-318 "/>
<text text-anchor="middle" x="415.5" y="-302.9" font-family="Source Code Pro,monospace" font-size="12.00">object</text>
</a>
</g>
</g>
<!-- object&#45;&gt;convertabletointeger -->
<g id="edge8" class="edge">
<title>object&#45;&gt;convertabletointeger</title>
<path fill="none" stroke="black" d="M384.47,-303.09C337.77,-299.13 247.76,-287.2 180.5,-252 150.11,-236.1 122.01,-208.25 103.97,-187.93"/>
<polygon fill="black" stroke="black" points="106.53,-185.54 97.33,-180.28 101.24,-190.13 106.53,-185.54"/>
</g>
<!-- object&#45;&gt;convertabletointegral -->
<g id="edge9" class="edge">
<title>object&#45;&gt;convertabletointegral</title>
<path fill="none" stroke="black" d="M384.37,-295.05C338.88,-278.79 255.14,-241.95 213.5,-180 201.31,-161.87 197.95,-137.09 197.42,-118.28"/>
<polygon fill="black" stroke="black" points="200.92,-118.25 197.38,-108.26 193.92,-118.27 200.92,-118.25"/>
</g>
<!-- object&#45;&gt;convertabletorational -->
<g id="edge10" class="edge">
<title>object&#45;&gt;convertabletorational</title>
<path fill="none" stroke="black" d="M402.71,-287.87C384.25,-263.14 349.99,-217.24 328.54,-188.51"/>
<polygon fill="black" stroke="black" points="331.12,-186.11 322.33,-180.19 325.51,-190.3 331.12,-186.11"/>
</g>
<!-- object&#45;&gt;scalar -->
<g id="edge11" class="edge">
<title>object&#45;&gt;scalar</title>
<path fill="none" stroke="black" d="M416.61,-287.73C418.06,-257.87 418.99,-194.89 405.5,-144 403.12,-135.03 399.17,-125.77 395.06,-117.55"/>
<polygon fill="black" stroke="black" points="398.02,-115.66 390.25,-108.46 391.83,-118.94 398.02,-115.66"/>
</g>
<!-- object&#45;&gt;value -->
<g id="edge14" class="edge">
<title>object&#45;&gt;value</title>
<path fill="none" stroke="black" d="M429.1,-287.7C435.62,-279.39 443.57,-269.28 450.75,-260.14"/>
<polygon fill="black" stroke="black" points="453.63,-262.13 457.06,-252.1 448.13,-257.81 453.63,-262.13"/>
</g>
<!-- additive -->
<g id="node10" class="node">
<title>additive</title>
<g id="a_node10"><a xlink:href="PsyllaReference_Types.xhtml#PsyllaReference_Types_Details_additive" xlink:title="additive" target="_parent">
<polygon fill="linen" stroke="black" points="587,-252 516,-252 516,-216 593,-216 593,-246 587,-252"/>
<polyline fill="none" stroke="black" points="587,-252 587,-246 "/>
<polyline fill="none" stroke="black" points="593,-246 587,-246 "/>
<text text-anchor="middle" x="554.5" y="-230.9" font-family="Source Code Pro,monospace" font-size="12.00">additive</text>
</a>
</g>
</g>
<!-- object&#45;&gt;additive -->
<g id="edge15" class="edge">
<title>object&#45;&gt;additive</title>
<path fill="none" stroke="black" d="M446.69,-289.29C465.8,-279.67 490.52,-267.22 511.47,-256.67"/>
<polygon fill="black" stroke="black" points="513.13,-259.75 520.49,-252.13 509.98,-253.5 513.13,-259.75"/>
</g>
<!-- multiplicative -->
<g id="node11" class="node">
<title>multiplicative</title>
<g id="a_node11"><a xlink:href="PsyllaReference_Types.xhtml#PsyllaReference_Types_Details_multiplicative" xlink:title="multiplicative" target="_parent">
<polygon fill="linen" stroke="black" points="727.5,-252 611.5,-252 611.5,-216 733.5,-216 733.5,-246 727.5,-252"/>
<polyline fill="none" stroke="black" points="727.5,-252 727.5,-246 "/>
<polyline fill="none" stroke="black" points="733.5,-246 727.5,-246 "/>
<text text-anchor="middle" x="672.5" y="-230.9" font-family="Source Code Pro,monospace" font-size="12.00">multiplicative</text>
</a>
</g>
</g>
<!-- object&#45;&gt;multiplicative -->
<g id="edge16" class="edge">
<title>object&#45;&gt;multiplicative</title>
<path fill="none" stroke="black" d="M446.5,-296.56C484.61,-286.18 550.48,-268.23 601.31,-254.39"/>
<polygon fill="black" stroke="black" points="602.53,-257.69 611.26,-251.68 600.69,-250.93 602.53,-257.69"/>
</g>
<!-- additive&#45;&gt;arithmetic -->
<g id="edge12" class="edge">
<title>additive&#45;&gt;arithmetic</title>
<path fill="none" stroke="black" d="M554.5,-215.7C554.5,-207.98 554.5,-198.71 554.5,-190.11"/>
<polygon fill="black" stroke="black" points="558,-190.1 554.5,-180.1 551,-190.1 558,-190.1"/>
</g>
<!-- multiplicative&#45;&gt;arithmetic -->
<g id="edge13" class="edge">
<title>multiplicative&#45;&gt;arithmetic</title>
<path fill="none" stroke="black" d="M643.63,-215.88C628.21,-206.72 609.02,-195.34 592.4,-185.48"/>
<polygon fill="black" stroke="black" points="593.86,-182.28 583.48,-180.19 590.29,-188.3 593.86,-182.28"/>
</g>
</g>
</svg>
