<?xml version="1.0" encoding="UTF-8" standalone="no"?>
<!DOCTYPE svg PUBLIC "-//W3C//DTD SVG 1.1//EN"
 "http://www.w3.org/Graphics/SVG/1.1/DTD/svg11.dtd">
<!-- Generated by graphviz version 14.0.0 (0)
 -->
<!-- Title: integral Pages: 1 -->
<svg width="571pt" height="476pt"
 viewBox="0.00 0.00 571.00 476.00" xmlns="http://www.w3.org/2000/svg" xmlns:xlink="http://www.w3.org/1999/xlink">
<g id="graph0" class="graph" transform="scale(1 1) rotate(0) translate(4 472)">
<title>integral</title>
<polygon fill="none" stroke="none" points="-4,4 -4,-472 567.33,-472 567.33,4 -4,4"/>
<!-- bitwise -->
<g id="node1" class="node">
<title>bitwise</title>
<g id="a_node1"><a xlink:href="PsyllaReference_Types.xhtml#PsyllaReference_Types_Details_bitwise" xlink:title="bitwise" target="_parent">
<polygon fill="linen" stroke="black" points="121,-180 73,-180 73,-144 127,-144 127,-174 121,-180"/>
<polyline fill="none" stroke="black" points="121,-180 121,-174"/>
<polyline fill="none" stroke="black" points="127,-174 121,-174"/>
<text xml:space="preserve" text-anchor="middle" x="100" y="-158.4" font-family="Source Code Pro,monospace" font-size="12.00">bitwise</text>
</a>
</g>
</g>
<!-- integral -->
<g id="node3" class="node">
<title>integral</title>
<g id="a_node3"><a xlink:href="PsyllaReference_Types.xhtml#PsyllaReference_Types_Details_integral" xlink:title="integral" target="_parent">
<polygon fill="wheat" stroke="black" points="161,-36 113,-36 113,0 167,0 167,-30 161,-36"/>
<polyline fill="none" stroke="black" points="161,-36 161,-30"/>
<polyline fill="none" stroke="black" points="167,-30 161,-30"/>
<text xml:space="preserve" text-anchor="middle" x="140" y="-14.4" font-family="Source Code Pro,monospace" font-size="12.00">integral</text>
</a>
</g>
</g>
<!-- bitwise&#45;&gt;integral -->
<g id="edge1" class="edge">
<title>bitwise&#45;&gt;integral</title>
<path fill="none" stroke="black" d="M104.9,-143.59C111.69,-119.5 124.01,-75.75 132.1,-47.03"/>
<polygon fill="black" stroke="black" points="135.43,-48.14 134.77,-37.57 128.69,-46.24 135.43,-48.14"/>
</g>
<!-- rational -->
<g id="node2" class="node">
<title>rational</title>
<g id="a_node2"><a xlink:href="PsyllaReference_Types.xhtml#PsyllaReference_Types_Details_rational" xlink:title="rational" target="_parent">
<polygon fill="linen" stroke="black" points="196,-108 148,-108 148,-72 202,-72 202,-102 196,-108"/>
<polyline fill="none" stroke="black" points="196,-108 196,-102"/>
<polyline fill="none" stroke="black" points="202,-102 196,-102"/>
<text xml:space="preserve" text-anchor="middle" x="175" y="-86.4" font-family="Source Code Pro,monospace" font-size="12.00">rational</text>
</a>
</g>
</g>
<!-- rational&#45;&gt;integral -->
<g id="edge2" class="edge">
<title>rational&#45;&gt;integral</title>
<path fill="none" stroke="black" d="M166.35,-71.7C162.53,-64.07 157.96,-54.92 153.7,-46.4"/>
<polygon fill="black" stroke="black" points="156.83,-44.84 149.23,-37.46 150.57,-47.97 156.83,-44.84"/>
</g>
<!-- logical -->
<g id="node4" class="node">
<title>logical</title>
<g id="a_node4"><a xlink:href="PsyllaReference_Types.xhtml#PsyllaReference_Types_Details_logical" xlink:title="logical" target="_parent">
<polygon fill="linen" stroke="black" points="48,-396 0,-396 0,-360 54,-360 54,-390 48,-396"/>
<polyline fill="none" stroke="black" points="48,-396 48,-390"/>
<polyline fill="none" stroke="black" points="54,-390 48,-390"/>
<text xml:space="preserve" text-anchor="middle" x="27" y="-374.4" font-family="Source Code Pro,monospace" font-size="12.00">logical</text>
</a>
</g>
</g>
<!-- logical&#45;&gt;bitwise -->
<g id="edge3" class="edge">
<title>logical&#45;&gt;bitwise</title>
<path fill="none" stroke="black" d="M23.03,-359.86C16.84,-329.11 7.94,-263.37 32,-216 38.85,-202.52 50.87,-191.43 62.93,-182.94"/>
<polygon fill="black" stroke="black" points="64.78,-185.91 71.24,-177.52 60.95,-180.05 64.78,-185.91"/>
</g>
<!-- realnumeric -->
<g id="node5" class="node">
<title>realnumeric</title>
<g id="a_node5"><a xlink:href="PsyllaReference_Types.xhtml#PsyllaReference_Types_Details_realnumeric" xlink:title="realnumeric" target="_parent">
<polygon fill="linen" stroke="black" points="256.65,-180 189.35,-180 189.35,-144 262.65,-144 262.65,-174 256.65,-180"/>
<polyline fill="none" stroke="black" points="256.65,-180 256.65,-174"/>
<polyline fill="none" stroke="black" points="262.65,-174 256.65,-174"/>
<text xml:space="preserve" text-anchor="middle" x="226" y="-158.4" font-family="Source Code Pro,monospace" font-size="12.00">realnumeric</text>
</a>
</g>
</g>
<!-- realnumeric&#45;&gt;rational -->
<g id="edge4" class="edge">
<title>realnumeric&#45;&gt;rational</title>
<path fill="none" stroke="black" d="M213.39,-143.7C207.59,-135.73 200.57,-126.1 194.14,-117.26"/>
<polygon fill="black" stroke="black" points="197.07,-115.35 188.35,-109.33 191.41,-119.47 197.07,-115.35"/>
</g>
<!-- object -->
<g id="node6" class="node">
<title>object</title>
<g id="a_node6"><a xlink:href="PsyllaReference_Types.xhtml#PsyllaReference_Types_Details_object" xlink:title="object" target="_parent">
<polygon fill="linen" stroke="black" points="310,-468 262,-468 262,-432 316,-432 316,-462 310,-468"/>
<polyline fill="none" stroke="black" points="310,-468 310,-462"/>
<polyline fill="none" stroke="black" points="316,-462 310,-462"/>
<text xml:space="preserve" text-anchor="middle" x="289" y="-446.4" font-family="Source Code Pro,monospace" font-size="12.00">object</text>
</a>
</g>
</g>
<!-- object&#45;&gt;logical -->
<g id="edge5" class="edge">
<title>object&#45;&gt;logical</title>
<path fill="none" stroke="black" d="M261.76,-442.48C222.07,-432.87 146.08,-414.1 82,-396 76.49,-394.44 70.69,-392.73 65.01,-391.02"/>
<polygon fill="black" stroke="black" points="66.37,-387.77 55.78,-388.18 64.32,-394.46 66.37,-387.77"/>
</g>
<!-- convertabletointeger -->
<g id="node8" class="node">
<title>convertabletointeger</title>
<g id="a_node8"><a xlink:href="PsyllaReference_Types.xhtml#PsyllaReference_Types_Details_convertabletointeger" xlink:title="convertabletointeger" target="_parent">
<polygon fill="linen" stroke="black" points="149.31,-252 40.69,-252 40.69,-216 155.31,-216 155.31,-246 149.31,-252"/>
<polyline fill="none" stroke="black" points="149.31,-252 149.31,-246"/>
<polyline fill="none" stroke="black" points="155.31,-246 149.31,-246"/>
<text xml:space="preserve" text-anchor="middle" x="98" y="-230.4" font-family="Source Code Pro,monospace" font-size="12.00">convertabletointeger</text>
</a>
</g>
</g>
<!-- object&#45;&gt;convertabletointeger -->
<g id="edge13" class="edge">
<title>object&#45;&gt;convertabletointeger</title>
<path fill="none" stroke="black" d="M261.63,-437.41C222.42,-419.3 151.03,-380.43 115,-324 103.54,-306.05 99.45,-282.21 98.13,-263.71"/>
<polygon fill="black" stroke="black" points="101.64,-263.79 97.69,-253.96 94.65,-264.11 101.64,-263.79"/>
</g>
<!-- convertabletointegral -->
<g id="node9" class="node">
<title>convertabletointegral</title>
<g id="a_node9"><a xlink:href="PsyllaReference_Types.xhtml#PsyllaReference_Types_Details_convertabletointegral" xlink:title="convertabletointegral" target="_parent">
<polygon fill="linen" stroke="black" points="235.98,-324 124.02,-324 124.02,-288 241.98,-288 241.98,-318 235.98,-324"/>
<polyline fill="none" stroke="black" points="235.98,-324 235.98,-318"/>
<polyline fill="none" stroke="black" points="241.98,-318 235.98,-318"/>
<text xml:space="preserve" text-anchor="middle" x="183" y="-302.4" font-family="Source Code Pro,monospace" font-size="12.00">convertabletointegral</text>
</a>
</g>
</g>
<!-- object&#45;&gt;convertabletointegral -->
<g id="edge14" class="edge">
<title>object&#45;&gt;convertabletointegral</title>
<path fill="none" stroke="black" d="M276,-431.59C257.62,-406.97 223.91,-361.8 202.51,-333.14"/>
<polygon fill="black" stroke="black" points="205.46,-331.24 196.68,-325.32 199.86,-335.43 205.46,-331.24"/>
</g>
<!-- convertabletorational -->
<g id="node10" class="node">
<title>convertabletorational</title>
<g id="a_node10"><a xlink:href="PsyllaReference_Types.xhtml#PsyllaReference_Types_Details_convertabletorational" xlink:title="convertabletorational" target="_parent">
<polygon fill="linen" stroke="black" points="322.98,-252 211.02,-252 211.02,-216 328.98,-216 328.98,-246 322.98,-252"/>
<polyline fill="none" stroke="black" points="322.98,-252 322.98,-246"/>
<polyline fill="none" stroke="black" points="328.98,-246 322.98,-246"/>
<text xml:space="preserve" text-anchor="middle" x="270" y="-230.4" font-family="Source Code Pro,monospace" font-size="12.00">convertabletorational</text>
</a>
</g>
</g>
<!-- object&#45;&gt;convertabletorational -->
<g id="edge15" class="edge">
<title>object&#45;&gt;convertabletorational</title>
<path fill="none" stroke="black" d="M287.48,-431.85C284.22,-395.14 276.54,-308.66 272.53,-263.53"/>
<polygon fill="black" stroke="black" points="276.03,-263.39 271.66,-253.74 269.06,-264.01 276.03,-263.39"/>
</g>
<!-- scalar -->
<g id="node11" class="node">
<title>scalar</title>
<g id="a_node11"><a xlink:href="PsyllaReference_Types.xhtml#PsyllaReference_Types_Details_scalar" xlink:title="scalar" target="_parent">
<polygon fill="linen" stroke="black" points="346,-324 298,-324 298,-288 352,-288 352,-318 346,-324"/>
<polyline fill="none" stroke="black" points="346,-324 346,-318"/>
<polyline fill="none" stroke="black" points="352,-318 346,-318"/>
<text xml:space="preserve" text-anchor="middle" x="325" y="-302.4" font-family="Source Code Pro,monospace" font-size="12.00">scalar</text>
</a>
</g>
</g>
<!-- object&#45;&gt;scalar -->
<g id="edge16" class="edge">
<title>object&#45;&gt;scalar</title>
<path fill="none" stroke="black" d="M293.41,-431.59C299.52,-407.5 310.61,-363.75 317.89,-335.03"/>
<polygon fill="black" stroke="black" points="321.23,-336.13 320.29,-325.58 314.44,-334.41 321.23,-336.13"/>
</g>
<!-- value -->
<g id="node13" class="node">
<title>value</title>
<g id="a_node13"><a xlink:href="PsyllaReference_Types.xhtml#PsyllaReference_Types_Details_value" xlink:title="value" target="_parent">
<polygon fill="linen" stroke="black" points="384,-396 336,-396 336,-360 390,-360 390,-390 384,-396"/>
<polyline fill="none" stroke="black" points="384,-396 384,-390"/>
<polyline fill="none" stroke="black" points="390,-390 384,-390"/>
<text xml:space="preserve" text-anchor="middle" x="363" y="-374.4" font-family="Source Code Pro,monospace" font-size="12.00">value</text>
</a>
</g>
</g>
<!-- object&#45;&gt;value -->
<g id="edge19" class="edge">
<title>object&#45;&gt;value</title>
<path fill="none" stroke="black" d="M307.29,-431.7C316.1,-423.37 326.82,-413.22 336.5,-404.07"/>
<polygon fill="black" stroke="black" points="338.7,-406.8 343.56,-397.39 333.89,-401.72 338.7,-406.8"/>
</g>
<!-- additive -->
<g id="node14" class="node">
<title>additive</title>
<g id="a_node14"><a xlink:href="PsyllaReference_Types.xhtml#PsyllaReference_Types_Details_additive" xlink:title="additive" target="_parent">
<polygon fill="linen" stroke="black" points="456.33,-396 407.67,-396 407.67,-360 462.33,-360 462.33,-390 456.33,-396"/>
<polyline fill="none" stroke="black" points="456.33,-396 456.33,-390"/>
<polyline fill="none" stroke="black" points="462.33,-390 456.33,-390"/>
<text xml:space="preserve" text-anchor="middle" x="435" y="-374.4" font-family="Source Code Pro,monospace" font-size="12.00">additive</text>
</a>
</g>
</g>
<!-- object&#45;&gt;additive -->
<g id="edge20" class="edge">
<title>object&#45;&gt;additive</title>
<path fill="none" stroke="black" d="M316.46,-435.83C339.3,-424.88 372.04,-409.18 397.33,-397.06"/>
<polygon fill="black" stroke="black" points="398.79,-400.24 406.3,-392.76 395.77,-393.93 398.79,-400.24"/>
</g>
<!-- multiplicative -->
<g id="node15" class="node">
<title>multiplicative</title>
<g id="a_node15"><a xlink:href="PsyllaReference_Types.xhtml#PsyllaReference_Types_Details_multiplicative" xlink:title="multiplicative" target="_parent">
<polygon fill="linen" stroke="black" points="557.33,-396 480.67,-396 480.67,-360 563.33,-360 563.33,-390 557.33,-396"/>
<polyline fill="none" stroke="black" points="557.33,-396 557.33,-390"/>
<polyline fill="none" stroke="black" points="563.33,-390 557.33,-390"/>
<text xml:space="preserve" text-anchor="middle" x="522" y="-374.4" font-family="Source Code Pro,monospace" font-size="12.00">multiplicative</text>
</a>
</g>
</g>
<!-- object&#45;&gt;multiplicative -->
<g id="edge21" class="edge">
<title>object&#45;&gt;multiplicative</title>
<path fill="none" stroke="black" d="M316.23,-441.42C349.88,-431.98 409.13,-415.11 469.43,-396.43"/>
<polygon fill="black" stroke="black" points="470.34,-399.81 478.85,-393.5 468.26,-393.13 470.34,-399.81"/>
</g>
<!-- numeric -->
<g id="node7" class="node">
<title>numeric</title>
<g id="a_node7"><a xlink:href="PsyllaReference_Types.xhtml#PsyllaReference_Types_Details_numeric" xlink:title="numeric" target="_parent">
<polygon fill="linen" stroke="black" points="434.66,-252 385.34,-252 385.34,-216 440.66,-216 440.66,-246 434.66,-252"/>
<polyline fill="none" stroke="black" points="434.66,-252 434.66,-246"/>
<polyline fill="none" stroke="black" points="440.66,-246 434.66,-246"/>
<text xml:space="preserve" text-anchor="middle" x="413" y="-230.4" font-family="Source Code Pro,monospace" font-size="12.00">numeric</text>
</a>
</g>
</g>
<!-- numeric&#45;&gt;realnumeric -->
<g id="edge6" class="edge">
<title>numeric&#45;&gt;realnumeric</title>
<path fill="none" stroke="black" d="M385.04,-221.53C380.36,-219.65 375.55,-217.75 371,-216 338.76,-203.59 302.23,-190.24 273.9,-180.04"/>
<polygon fill="black" stroke="black" points="275.1,-176.76 264.5,-176.67 272.73,-183.34 275.1,-176.76"/>
</g>
<!-- convertabletointeger&#45;&gt;realnumeric -->
<g id="edge7" class="edge">
<title>convertabletointeger&#45;&gt;realnumeric</title>
<path fill="none" stroke="black" d="M129.97,-215.52C146.43,-206.51 166.71,-195.42 184.38,-185.76"/>
<polygon fill="black" stroke="black" points="186.02,-188.86 193.11,-180.99 182.66,-182.71 186.02,-188.86"/>
</g>
<!-- convertabletointegral&#45;&gt;realnumeric -->
<g id="edge8" class="edge">
<title>convertabletointegral&#45;&gt;realnumeric</title>
<path fill="none" stroke="black" d="M185.57,-287.65C188.52,-269.5 194,-240.31 202,-216 204.78,-207.56 208.48,-198.65 212.15,-190.61"/>
<polygon fill="black" stroke="black" points="215.27,-192.19 216.38,-181.66 208.94,-189.2 215.27,-192.19"/>
</g>
<!-- convertabletorational&#45;&gt;realnumeric -->
<g id="edge9" class="edge">
<title>convertabletorational&#45;&gt;realnumeric</title>
<path fill="none" stroke="black" d="M259.12,-215.7C254.22,-207.9 248.32,-198.51 242.86,-189.83"/>
<polygon fill="black" stroke="black" points="245.84,-187.99 237.56,-181.39 239.92,-191.71 245.84,-187.99"/>
</g>
<!-- scalar&#45;&gt;realnumeric -->
<g id="edge10" class="edge">
<title>scalar&#45;&gt;realnumeric</title>
<path fill="none" stroke="black" d="M333.98,-287.51C342.4,-268.45 351.78,-237.77 338,-216 323.89,-193.72 297.62,-180.62 274.06,-173.03"/>
<polygon fill="black" stroke="black" points="275.16,-169.7 264.58,-170.24 273.19,-176.42 275.16,-169.7"/>
</g>
<!-- arithmetic -->
<g id="node12" class="node">
<title>arithmetic</title>
<g id="a_node12"><a xlink:href="PsyllaReference_Types.xhtml#PsyllaReference_Types_Details_arithmetic" xlink:title="arithmetic" target="_parent">
<polygon fill="linen" stroke="black" points="466.32,-324 407.68,-324 407.68,-288 472.32,-288 472.32,-318 466.32,-324"/>
<polyline fill="none" stroke="black" points="466.32,-324 466.32,-318"/>
<polyline fill="none" stroke="black" points="472.32,-318 466.32,-318"/>
<text xml:space="preserve" text-anchor="middle" x="440" y="-302.4" font-family="Source Code Pro,monospace" font-size="12.00">arithmetic</text>
</a>
</g>
</g>
<!-- arithmetic&#45;&gt;numeric -->
<g id="edge11" class="edge">
<title>arithmetic&#45;&gt;numeric</title>
<path fill="none" stroke="black" d="M433.33,-287.7C430.42,-280.15 426.93,-271.12 423.68,-262.68"/>
<polygon fill="black" stroke="black" points="427.01,-261.59 420.14,-253.52 420.48,-264.11 427.01,-261.59"/>
</g>
<!-- value&#45;&gt;numeric -->
<g id="edge12" class="edge">
<title>value&#45;&gt;numeric</title>
<path fill="none" stroke="black" d="M369.13,-359.59C377.65,-335.4 393.15,-291.36 403.26,-262.65"/>
<polygon fill="black" stroke="black" points="406.45,-264.13 406.47,-253.54 399.85,-261.81 406.45,-264.13"/>
</g>
<!-- additive&#45;&gt;arithmetic -->
<g id="edge17" class="edge">
<title>additive&#45;&gt;arithmetic</title>
<path fill="none" stroke="black" d="M436.24,-359.7C436.76,-352.41 437.38,-343.73 437.96,-335.54"/>
<polygon fill="black" stroke="black" points="441.45,-335.84 438.67,-325.61 434.47,-335.34 441.45,-335.84"/>
</g>
<!-- multiplicative&#45;&gt;arithmetic -->
<g id="edge18" class="edge">
<title>multiplicative&#45;&gt;arithmetic</title>
<path fill="none" stroke="black" d="M501.73,-359.7C491.87,-351.28 479.85,-341.02 469.04,-331.79"/>
<polygon fill="black" stroke="black" points="471.35,-329.16 461.47,-325.33 466.81,-334.48 471.35,-329.16"/>
</g>
</g>
</svg>
