<?xml version="1.0" encoding="UTF-8" standalone="no"?>
<!DOCTYPE svg PUBLIC "-//W3C//DTD SVG 1.1//EN"
 "http://www.w3.org/Graphics/SVG/1.1/DTD/svg11.dtd">
<!-- Generated by graphviz version 2.43.0 (0)
 -->
<!-- Title: formalqueue Pages: 1 -->
<svg width="295pt" height="404pt"
 viewBox="0.00 0.00 294.50 404.00" xmlns="http://www.w3.org/2000/svg" xmlns:xlink="http://www.w3.org/1999/xlink">
<g id="graph0" class="graph" transform="scale(1 1) rotate(0) translate(4 400)">
<title>formalqueue</title>
<polygon fill="transparent" stroke="transparent" points="-4,4 -4,-400 290.5,-400 290.5,4 -4,4"/>
<!-- bounded -->
<g id="node1" class="node">
<title>bounded</title>
<g id="a_node1"><a xlink:href="PsyllaReference_Types.xhtml#PsyllaReference_Types_Details_bounded" xlink:title="bounded" target="_parent">
<polygon fill="linen" stroke="black" points="68,-108 0,-108 0,-72 74,-72 74,-102 68,-108"/>
<polyline fill="none" stroke="black" points="68,-108 68,-102 "/>
<polyline fill="none" stroke="black" points="74,-102 68,-102 "/>
<text text-anchor="middle" x="37" y="-86.3" font-family="Consolas, monospace" font-size="14.00">bounded</text>
</a>
</g>
</g>
<!-- formalqueue -->
<g id="node3" class="node">
<title>formalqueue</title>
<g id="a_node3"><a xlink:href="PsyllaReference_Types.xhtml#PsyllaReference_Types_Details_formalqueue" xlink:title="formalqueue" target="_parent">
<polygon fill="wheat" stroke="black" points="134.5,-36 33.5,-36 33.5,0 140.5,0 140.5,-30 134.5,-36"/>
<polyline fill="none" stroke="black" points="134.5,-36 134.5,-30 "/>
<polyline fill="none" stroke="black" points="140.5,-30 134.5,-30 "/>
<text text-anchor="middle" x="87" y="-14.3" font-family="Consolas, monospace" font-size="14.00">formalqueue</text>
</a>
</g>
</g>
<!-- bounded&#45;&gt;formalqueue -->
<g id="edge1" class="edge">
<title>bounded&#45;&gt;formalqueue</title>
<path fill="none" stroke="black" d="M49.36,-71.7C55.23,-63.47 62.37,-53.48 68.84,-44.42"/>
<polygon fill="black" stroke="black" points="71.82,-46.28 74.78,-36.1 66.12,-42.21 71.82,-46.28"/>
</g>
<!-- container -->
<g id="node2" class="node">
<title>container</title>
<g id="a_node2"><a xlink:href="PsyllaReference_Types.xhtml#PsyllaReference_Types_Details_container" xlink:title="container" target="_parent">
<polygon fill="linen" stroke="black" points="177.5,-108 92.5,-108 92.5,-72 183.5,-72 183.5,-102 177.5,-108"/>
<polyline fill="none" stroke="black" points="177.5,-108 177.5,-102 "/>
<polyline fill="none" stroke="black" points="183.5,-102 177.5,-102 "/>
<text text-anchor="middle" x="138" y="-86.3" font-family="Consolas, monospace" font-size="14.00">container</text>
</a>
</g>
</g>
<!-- container&#45;&gt;formalqueue -->
<g id="edge2" class="edge">
<title>container&#45;&gt;formalqueue</title>
<path fill="none" stroke="black" d="M125.39,-71.7C119.4,-63.47 112.12,-53.48 105.52,-44.42"/>
<polygon fill="black" stroke="black" points="108.18,-42.13 99.46,-36.1 102.52,-46.25 108.18,-42.13"/>
</g>
<!-- lengthy -->
<g id="node4" class="node">
<title>lengthy</title>
<g id="a_node4"><a xlink:href="PsyllaReference_Types.xhtml#PsyllaReference_Types_Details_lengthy" xlink:title="lengthy" target="_parent">
<polygon fill="linen" stroke="black" points="81,-180 13,-180 13,-144 87,-144 87,-174 81,-180"/>
<polyline fill="none" stroke="black" points="81,-180 81,-174 "/>
<polyline fill="none" stroke="black" points="87,-174 81,-174 "/>
<text text-anchor="middle" x="50" y="-158.3" font-family="Consolas, monospace" font-size="14.00">lengthy</text>
</a>
</g>
</g>
<!-- lengthy&#45;&gt;bounded -->
<g id="edge3" class="edge">
<title>lengthy&#45;&gt;bounded</title>
<path fill="none" stroke="black" d="M46.79,-143.7C45.35,-135.98 43.63,-126.71 42.04,-118.11"/>
<polygon fill="black" stroke="black" points="45.44,-117.3 40.18,-108.1 38.56,-118.58 45.44,-117.3"/>
</g>
<!-- lengthy&#45;&gt;container -->
<g id="edge6" class="edge">
<title>lengthy&#45;&gt;container</title>
<path fill="none" stroke="black" d="M71.75,-143.7C82.84,-134.88 96.47,-124.03 108.49,-114.47"/>
<polygon fill="black" stroke="black" points="110.85,-117.07 116.5,-108.1 106.49,-111.59 110.85,-117.07"/>
</g>
<!-- clearable -->
<g id="node5" class="node">
<title>clearable</title>
<g id="a_node5"><a xlink:href="PsyllaReference_Types.xhtml#PsyllaReference_Types_Details_clearable" xlink:title="clearable" target="_parent">
<polygon fill="linen" stroke="black" points="163.5,-252 78.5,-252 78.5,-216 169.5,-216 169.5,-246 163.5,-252"/>
<polyline fill="none" stroke="black" points="163.5,-252 163.5,-246 "/>
<polyline fill="none" stroke="black" points="169.5,-246 163.5,-246 "/>
<text text-anchor="middle" x="124" y="-230.3" font-family="Consolas, monospace" font-size="14.00">clearable</text>
</a>
</g>
</g>
<!-- clearable&#45;&gt;container -->
<g id="edge4" class="edge">
<title>clearable&#45;&gt;container</title>
<path fill="none" stroke="black" d="M125.69,-215.87C128.07,-191.67 132.46,-147.21 135.3,-118.39"/>
<polygon fill="black" stroke="black" points="138.81,-118.48 136.31,-108.19 131.84,-117.8 138.81,-118.48"/>
</g>
<!-- iterable -->
<g id="node6" class="node">
<title>iterable</title>
<g id="a_node6"><a xlink:href="PsyllaReference_Types.xhtml#PsyllaReference_Types_Details_iterable" xlink:title="iterable" target="_parent">
<polygon fill="linen" stroke="black" points="257.5,-180 180.5,-180 180.5,-144 263.5,-144 263.5,-174 257.5,-180"/>
<polyline fill="none" stroke="black" points="257.5,-180 257.5,-174 "/>
<polyline fill="none" stroke="black" points="263.5,-174 257.5,-174 "/>
<text text-anchor="middle" x="222" y="-158.3" font-family="Consolas, monospace" font-size="14.00">iterable</text>
</a>
</g>
</g>
<!-- iterable&#45;&gt;container -->
<g id="edge5" class="edge">
<title>iterable&#45;&gt;container</title>
<path fill="none" stroke="black" d="M201.24,-143.7C190.76,-134.97 177.89,-124.24 166.5,-114.75"/>
<polygon fill="black" stroke="black" points="168.45,-111.82 158.53,-108.1 163.97,-117.19 168.45,-111.82"/>
</g>
<!-- object -->
<g id="node7" class="node">
<title>object</title>
<g id="a_node7"><a xlink:href="PsyllaReference_Types.xhtml#PsyllaReference_Types_Details_object" xlink:title="object" target="_parent">
<polygon fill="linen" stroke="black" points="151,-396 91,-396 91,-360 157,-360 157,-390 151,-396"/>
<polyline fill="none" stroke="black" points="151,-396 151,-390 "/>
<polyline fill="none" stroke="black" points="157,-390 151,-390 "/>
<text text-anchor="middle" x="124" y="-374.3" font-family="Consolas, monospace" font-size="14.00">object</text>
</a>
</g>
</g>
<!-- object&#45;&gt;lengthy -->
<g id="edge7" class="edge">
<title>object&#45;&gt;lengthy</title>
<path fill="none" stroke="black" d="M115,-359.64C103.01,-335.9 81.83,-291.71 69,-252 62.41,-231.61 57.47,-207.85 54.28,-190"/>
<polygon fill="black" stroke="black" points="57.71,-189.26 52.57,-180 50.81,-190.45 57.71,-189.26"/>
</g>
<!-- object&#45;&gt;clearable -->
<g id="edge8" class="edge">
<title>object&#45;&gt;clearable</title>
<path fill="none" stroke="black" d="M124,-359.87C124,-335.67 124,-291.21 124,-262.39"/>
<polygon fill="black" stroke="black" points="127.5,-262.19 124,-252.19 120.5,-262.19 127.5,-262.19"/>
</g>
<!-- sequential -->
<g id="node9" class="node">
<title>sequential</title>
<g id="a_node9"><a xlink:href="PsyllaReference_Types.xhtml#PsyllaReference_Types_Details_sequential" xlink:title="sequential" target="_parent">
<polygon fill="linen" stroke="black" points="262.5,-324 169.5,-324 169.5,-288 268.5,-288 268.5,-318 262.5,-324"/>
<polyline fill="none" stroke="black" points="262.5,-324 262.5,-318 "/>
<polyline fill="none" stroke="black" points="268.5,-318 262.5,-318 "/>
<text text-anchor="middle" x="219" y="-302.3" font-family="Consolas, monospace" font-size="14.00">sequential</text>
</a>
</g>
</g>
<!-- object&#45;&gt;sequential -->
<g id="edge11" class="edge">
<title>object&#45;&gt;sequential</title>
<path fill="none" stroke="black" d="M147.48,-359.7C159.56,-350.8 174.45,-339.82 187.52,-330.2"/>
<polygon fill="black" stroke="black" points="189.81,-332.85 195.79,-324.1 185.66,-327.22 189.81,-332.85"/>
</g>
<!-- streamable -->
<g id="node8" class="node">
<title>streamable</title>
<g id="a_node8"><a xlink:href="PsyllaReference_Types.xhtml#PsyllaReference_Types_Details_streamable" xlink:title="streamable" target="_parent">
<polygon fill="linen" stroke="black" points="280.5,-252 187.5,-252 187.5,-216 286.5,-216 286.5,-246 280.5,-252"/>
<polyline fill="none" stroke="black" points="280.5,-252 280.5,-246 "/>
<polyline fill="none" stroke="black" points="286.5,-246 280.5,-246 "/>
<text text-anchor="middle" x="237" y="-230.3" font-family="Consolas, monospace" font-size="14.00">streamable</text>
</a>
</g>
</g>
<!-- streamable&#45;&gt;iterable -->
<g id="edge9" class="edge">
<title>streamable&#45;&gt;iterable</title>
<path fill="none" stroke="black" d="M233.29,-215.7C231.64,-207.98 229.65,-198.71 227.81,-190.11"/>
<polygon fill="black" stroke="black" points="231.18,-189.15 225.67,-180.1 224.34,-190.62 231.18,-189.15"/>
</g>
<!-- sequential&#45;&gt;streamable -->
<g id="edge10" class="edge">
<title>sequential&#45;&gt;streamable</title>
<path fill="none" stroke="black" d="M223.45,-287.7C225.45,-279.9 227.87,-270.51 230.1,-261.83"/>
<polygon fill="black" stroke="black" points="233.5,-262.66 232.6,-252.1 226.72,-260.92 233.5,-262.66"/>
</g>
</g>
</svg>
