<?xml version="1.0" encoding="UTF-8" standalone="no"?>
<!DOCTYPE svg PUBLIC "-//W3C//DTD SVG 1.1//EN"
 "http://www.w3.org/Graphics/SVG/1.1/DTD/svg11.dtd">
<!-- Generated by graphviz version 14.0.0 (0)
 -->
<!-- Title: boolean Pages: 1 -->
<svg width="206pt" height="188pt"
 viewBox="0.00 0.00 206.00 188.00" xmlns="http://www.w3.org/2000/svg" xmlns:xlink="http://www.w3.org/1999/xlink">
<g id="graph0" class="graph" transform="scale(1 1) rotate(0) translate(4 184)">
<title>boolean</title>
<polygon fill="none" stroke="none" points="-4,4 -4,-184 202,-184 202,4 -4,4"/>
<!-- logical -->
<g id="node1" class="node">
<title>logical</title>
<g id="a_node1"><a xlink:href="PsyllaReference_Types.xhtml#PsyllaReference_Types_Details_logical" xlink:title="logical" target="_parent">
<polygon fill="linen" stroke="black" points="48,-108 0,-108 0,-72 54,-72 54,-102 48,-108"/>
<polyline fill="none" stroke="black" points="48,-108 48,-102"/>
<polyline fill="none" stroke="black" points="54,-102 48,-102"/>
<text xml:space="preserve" text-anchor="middle" x="27" y="-86.4" font-family="Source Code Pro,monospace" font-size="12.00">logical</text>
</a>
</g>
</g>
<!-- boolean -->
<g id="node4" class="node">
<title>boolean</title>
<g id="a_node4"><a xlink:href="PsyllaReference_Types.xhtml#PsyllaReference_Types_Details_boolean" xlink:title="boolean" target="_parent">
<polygon fill="wheat" stroke="black" points="120,-36 72,-36 72,0 126,0 126,-30 120,-36"/>
<polyline fill="none" stroke="black" points="120,-36 120,-30"/>
<polyline fill="none" stroke="black" points="126,-30 120,-30"/>
<text xml:space="preserve" text-anchor="middle" x="99" y="-14.4" font-family="Source Code Pro,monospace" font-size="12.00">boolean</text>
</a>
</g>
</g>
<!-- logical&#45;&gt;boolean -->
<g id="edge1" class="edge">
<title>logical&#45;&gt;boolean</title>
<path fill="none" stroke="black" d="M44.8,-71.7C53.28,-63.45 63.59,-53.43 72.93,-44.35"/>
<polygon fill="black" stroke="black" points="75.34,-46.88 80.07,-37.4 70.46,-41.86 75.34,-46.88"/>
</g>
<!-- scalar -->
<g id="node2" class="node">
<title>scalar</title>
<g id="a_node2"><a xlink:href="PsyllaReference_Types.xhtml#PsyllaReference_Types_Details_scalar" xlink:title="scalar" target="_parent">
<polygon fill="linen" stroke="black" points="120,-108 72,-108 72,-72 126,-72 126,-102 120,-108"/>
<polyline fill="none" stroke="black" points="120,-108 120,-102"/>
<polyline fill="none" stroke="black" points="126,-102 120,-102"/>
<text xml:space="preserve" text-anchor="middle" x="99" y="-86.4" font-family="Source Code Pro,monospace" font-size="12.00">scalar</text>
</a>
</g>
</g>
<!-- scalar&#45;&gt;boolean -->
<g id="edge2" class="edge">
<title>scalar&#45;&gt;boolean</title>
<path fill="none" stroke="black" d="M99,-71.7C99,-64.41 99,-55.73 99,-47.54"/>
<polygon fill="black" stroke="black" points="102.5,-47.62 99,-37.62 95.5,-47.62 102.5,-47.62"/>
</g>
<!-- value -->
<g id="node3" class="node">
<title>value</title>
<g id="a_node3"><a xlink:href="PsyllaReference_Types.xhtml#PsyllaReference_Types_Details_value" xlink:title="value" target="_parent">
<polygon fill="linen" stroke="black" points="192,-108 144,-108 144,-72 198,-72 198,-102 192,-108"/>
<polyline fill="none" stroke="black" points="192,-108 192,-102"/>
<polyline fill="none" stroke="black" points="198,-102 192,-102"/>
<text xml:space="preserve" text-anchor="middle" x="171" y="-86.4" font-family="Source Code Pro,monospace" font-size="12.00">value</text>
</a>
</g>
</g>
<!-- value&#45;&gt;boolean -->
<g id="edge3" class="edge">
<title>value&#45;&gt;boolean</title>
<path fill="none" stroke="black" d="M153.2,-71.7C144.72,-63.45 134.41,-53.43 125.07,-44.35"/>
<polygon fill="black" stroke="black" points="127.54,-41.86 117.93,-37.4 122.66,-46.88 127.54,-41.86"/>
</g>
<!-- object -->
<g id="node5" class="node">
<title>object</title>
<g id="a_node5"><a xlink:href="PsyllaReference_Types.xhtml#PsyllaReference_Types_Details_object" xlink:title="object" target="_parent">
<polygon fill="linen" stroke="black" points="120,-180 72,-180 72,-144 126,-144 126,-174 120,-180"/>
<polyline fill="none" stroke="black" points="120,-180 120,-174"/>
<polyline fill="none" stroke="black" points="126,-174 120,-174"/>
<text xml:space="preserve" text-anchor="middle" x="99" y="-158.4" font-family="Source Code Pro,monospace" font-size="12.00">object</text>
</a>
</g>
</g>
<!-- object&#45;&gt;logical -->
<g id="edge4" class="edge">
<title>object&#45;&gt;logical</title>
<path fill="none" stroke="black" d="M81.2,-143.7C72.72,-135.45 62.41,-125.43 53.07,-116.35"/>
<polygon fill="black" stroke="black" points="55.54,-113.86 45.93,-109.4 50.66,-118.88 55.54,-113.86"/>
</g>
<!-- object&#45;&gt;scalar -->
<g id="edge5" class="edge">
<title>object&#45;&gt;scalar</title>
<path fill="none" stroke="black" d="M99,-143.7C99,-136.41 99,-127.73 99,-119.54"/>
<polygon fill="black" stroke="black" points="102.5,-119.62 99,-109.62 95.5,-119.62 102.5,-119.62"/>
</g>
<!-- object&#45;&gt;value -->
<g id="edge6" class="edge">
<title>object&#45;&gt;value</title>
<path fill="none" stroke="black" d="M116.8,-143.7C125.28,-135.45 135.59,-125.43 144.93,-116.35"/>
<polygon fill="black" stroke="black" points="147.34,-118.88 152.07,-109.4 142.46,-113.86 147.34,-118.88"/>
</g>
</g>
</svg>
