<?xml version="1.0" encoding="UTF-8" standalone="no"?>
<!DOCTYPE svg PUBLIC "-//W3C//DTD SVG 1.1//EN"
 "http://www.w3.org/Graphics/SVG/1.1/DTD/svg11.dtd">
<!-- Generated by graphviz version 2.43.0 (0)
 -->
<!-- Title: real Pages: 1 -->
<svg width="686pt" height="404pt"
 viewBox="0.00 0.00 685.50 404.00" xmlns="http://www.w3.org/2000/svg" xmlns:xlink="http://www.w3.org/1999/xlink">
<g id="graph0" class="graph" transform="scale(1 1) rotate(0) translate(4 400)">
<title>real</title>
<polygon fill="transparent" stroke="transparent" points="-4,4 -4,-400 681.5,-400 681.5,4 -4,4"/>
<!-- realnumeric -->
<g id="node1" class="node">
<title>realnumeric</title>
<g id="a_node1"><a xlink:href="PsyllaReference_Types.xhtml#PsyllaReference_Types_Details_realnumeric" xlink:title="realnumeric" target="_parent">
<polygon fill="linen" stroke="black" points="353,-108 260,-108 260,-72 359,-72 359,-102 353,-108"/>
<polyline fill="none" stroke="black" points="353,-108 353,-102 "/>
<polyline fill="none" stroke="black" points="359,-102 353,-102 "/>
<text text-anchor="middle" x="309.5" y="-86.9" font-family="Source Code Pro,monospace" font-size="12.00">realnumeric</text>
</a>
</g>
</g>
<!-- real -->
<g id="node2" class="node">
<title>real</title>
<g id="a_node2"><a xlink:href="PsyllaReference_Types.xhtml#PsyllaReference_Types_Details_real" xlink:title="real" target="_parent">
<polygon fill="wheat" stroke="black" points="330.5,-36 282.5,-36 282.5,0 336.5,0 336.5,-30 330.5,-36"/>
<polyline fill="none" stroke="black" points="330.5,-36 330.5,-30 "/>
<polyline fill="none" stroke="black" points="336.5,-30 330.5,-30 "/>
<text text-anchor="middle" x="309.5" y="-14.9" font-family="Source Code Pro,monospace" font-size="12.00">real</text>
</a>
</g>
</g>
<!-- realnumeric&#45;&gt;real -->
<g id="edge1" class="edge">
<title>realnumeric&#45;&gt;real</title>
<path fill="none" stroke="black" d="M309.5,-71.7C309.5,-63.98 309.5,-54.71 309.5,-46.11"/>
<polygon fill="black" stroke="black" points="313,-46.1 309.5,-36.1 306,-46.1 313,-46.1"/>
</g>
<!-- numeric -->
<g id="node3" class="node">
<title>numeric</title>
<g id="a_node3"><a xlink:href="PsyllaReference_Types.xhtml#PsyllaReference_Types_Details_numeric" xlink:title="numeric" target="_parent">
<polygon fill="linen" stroke="black" points="516,-180 453,-180 453,-144 522,-144 522,-174 516,-180"/>
<polyline fill="none" stroke="black" points="516,-180 516,-174 "/>
<polyline fill="none" stroke="black" points="522,-174 516,-174 "/>
<text text-anchor="middle" x="487.5" y="-158.9" font-family="Source Code Pro,monospace" font-size="12.00">numeric</text>
</a>
</g>
</g>
<!-- numeric&#45;&gt;realnumeric -->
<g id="edge2" class="edge">
<title>numeric&#45;&gt;realnumeric</title>
<path fill="none" stroke="black" d="M452.76,-147.34C427.12,-137.26 391.78,-123.36 362.61,-111.89"/>
<polygon fill="black" stroke="black" points="363.57,-108.5 352.98,-108.1 361.01,-115.02 363.57,-108.5"/>
</g>
<!-- convertabletointeger -->
<g id="node4" class="node">
<title>convertabletointeger</title>
<g id="a_node4"><a xlink:href="PsyllaReference_Types.xhtml#PsyllaReference_Types_Details_convertabletointeger" xlink:title="convertabletointeger" target="_parent">
<polygon fill="linen" stroke="black" points="161,-180 0,-180 0,-144 167,-144 167,-174 161,-180"/>
<polyline fill="none" stroke="black" points="161,-180 161,-174 "/>
<polyline fill="none" stroke="black" points="167,-174 161,-174 "/>
<text text-anchor="middle" x="83.5" y="-158.9" font-family="Source Code Pro,monospace" font-size="12.00">convertabletointeger</text>
</a>
</g>
</g>
<!-- convertabletointeger&#45;&gt;realnumeric -->
<g id="edge3" class="edge">
<title>convertabletointeger&#45;&gt;realnumeric</title>
<path fill="none" stroke="black" d="M138.5,-143.97C172.15,-133.54 215.22,-120.2 249.72,-109.52"/>
<polygon fill="black" stroke="black" points="251.15,-112.74 259.67,-106.44 249.08,-106.05 251.15,-112.74"/>
</g>
<!-- convertabletointegral -->
<g id="node5" class="node">
<title>convertabletointegral</title>
<g id="a_node5"><a xlink:href="PsyllaReference_Types.xhtml#PsyllaReference_Types_Details_convertabletointegral" xlink:title="convertabletointegral" target="_parent">
<polygon fill="linen" stroke="black" points="279.5,-252 111.5,-252 111.5,-216 285.5,-216 285.5,-246 279.5,-252"/>
<polyline fill="none" stroke="black" points="279.5,-252 279.5,-246 "/>
<polyline fill="none" stroke="black" points="285.5,-246 279.5,-246 "/>
<text text-anchor="middle" x="198.5" y="-230.9" font-family="Source Code Pro,monospace" font-size="12.00">convertabletointegral</text>
</a>
</g>
</g>
<!-- convertabletointegral&#45;&gt;realnumeric -->
<g id="edge4" class="edge">
<title>convertabletointegral&#45;&gt;realnumeric</title>
<path fill="none" stroke="black" d="M197.19,-215.95C196.59,-196.72 198.37,-165.35 213.5,-144 222.8,-130.88 236.42,-120.64 250.5,-112.82"/>
<polygon fill="black" stroke="black" points="252.5,-115.73 259.77,-108.02 249.28,-109.51 252.5,-115.73"/>
</g>
<!-- convertabletorational -->
<g id="node6" class="node">
<title>convertabletorational</title>
<g id="a_node6"><a xlink:href="PsyllaReference_Types.xhtml#PsyllaReference_Types_Details_convertabletorational" xlink:title="convertabletorational" target="_parent">
<polygon fill="linen" stroke="black" points="390.5,-180 222.5,-180 222.5,-144 396.5,-144 396.5,-174 390.5,-180"/>
<polyline fill="none" stroke="black" points="390.5,-180 390.5,-174 "/>
<polyline fill="none" stroke="black" points="396.5,-174 390.5,-174 "/>
<text text-anchor="middle" x="309.5" y="-158.9" font-family="Source Code Pro,monospace" font-size="12.00">convertabletorational</text>
</a>
</g>
</g>
<!-- convertabletorational&#45;&gt;realnumeric -->
<g id="edge5" class="edge">
<title>convertabletorational&#45;&gt;realnumeric</title>
<path fill="none" stroke="black" d="M309.5,-143.7C309.5,-135.98 309.5,-126.71 309.5,-118.11"/>
<polygon fill="black" stroke="black" points="313,-118.1 309.5,-108.1 306,-118.1 313,-118.1"/>
</g>
<!-- scalar -->
<g id="node7" class="node">
<title>scalar</title>
<g id="a_node7"><a xlink:href="PsyllaReference_Types.xhtml#PsyllaReference_Types_Details_scalar" xlink:title="scalar" target="_parent">
<polygon fill="linen" stroke="black" points="397.5,-324 341.5,-324 341.5,-288 403.5,-288 403.5,-318 397.5,-324"/>
<polyline fill="none" stroke="black" points="397.5,-324 397.5,-318 "/>
<polyline fill="none" stroke="black" points="403.5,-318 397.5,-318 "/>
<text text-anchor="middle" x="372.5" y="-302.9" font-family="Source Code Pro,monospace" font-size="12.00">scalar</text>
</a>
</g>
</g>
<!-- scalar&#45;&gt;realnumeric -->
<g id="edge6" class="edge">
<title>scalar&#45;&gt;realnumeric</title>
<path fill="none" stroke="black" d="M383.44,-287.72C401.53,-256.76 433.05,-190.69 405.5,-144 397.01,-129.61 383.05,-118.85 368.38,-110.94"/>
<polygon fill="black" stroke="black" points="369.7,-107.69 359.19,-106.36 366.58,-113.95 369.7,-107.69"/>
</g>
<!-- atomic -->
<g id="node8" class="node">
<title>atomic</title>
<g id="a_node8"><a xlink:href="PsyllaReference_Types.xhtml#PsyllaReference_Types_Details_atomic" xlink:title="atomic" target="_parent">
<polygon fill="linen" stroke="black" points="508.5,-252 452.5,-252 452.5,-216 514.5,-216 514.5,-246 508.5,-252"/>
<polyline fill="none" stroke="black" points="508.5,-252 508.5,-246 "/>
<polyline fill="none" stroke="black" points="514.5,-246 508.5,-246 "/>
<text text-anchor="middle" x="483.5" y="-230.9" font-family="Source Code Pro,monospace" font-size="12.00">atomic</text>
</a>
</g>
</g>
<!-- atomic&#45;&gt;numeric -->
<g id="edge7" class="edge">
<title>atomic&#45;&gt;numeric</title>
<path fill="none" stroke="black" d="M484.49,-215.7C484.93,-207.98 485.46,-198.71 485.95,-190.11"/>
<polygon fill="black" stroke="black" points="489.45,-190.29 486.52,-180.1 482.46,-189.89 489.45,-190.29"/>
</g>
<!-- arithmetic -->
<g id="node9" class="node">
<title>arithmetic</title>
<g id="a_node9"><a xlink:href="PsyllaReference_Types.xhtml#PsyllaReference_Types_Details_arithmetic" xlink:title="arithmetic" target="_parent">
<polygon fill="linen" stroke="black" points="618.5,-252 532.5,-252 532.5,-216 624.5,-216 624.5,-246 618.5,-252"/>
<polyline fill="none" stroke="black" points="618.5,-252 618.5,-246 "/>
<polyline fill="none" stroke="black" points="624.5,-246 618.5,-246 "/>
<text text-anchor="middle" x="578.5" y="-230.9" font-family="Source Code Pro,monospace" font-size="12.00">arithmetic</text>
</a>
</g>
</g>
<!-- arithmetic&#45;&gt;numeric -->
<g id="edge8" class="edge">
<title>arithmetic&#45;&gt;numeric</title>
<path fill="none" stroke="black" d="M556.01,-215.7C544.54,-206.88 530.44,-196.03 518.02,-186.47"/>
<polygon fill="black" stroke="black" points="519.8,-183.43 509.74,-180.1 515.53,-188.98 519.8,-183.43"/>
</g>
<!-- object -->
<g id="node10" class="node">
<title>object</title>
<g id="a_node10"><a xlink:href="PsyllaReference_Types.xhtml#PsyllaReference_Types_Details_object" xlink:title="object" target="_parent">
<polygon fill="linen" stroke="black" points="397.5,-396 341.5,-396 341.5,-360 403.5,-360 403.5,-390 397.5,-396"/>
<polyline fill="none" stroke="black" points="397.5,-396 397.5,-390 "/>
<polyline fill="none" stroke="black" points="403.5,-390 397.5,-390 "/>
<text text-anchor="middle" x="372.5" y="-374.9" font-family="Source Code Pro,monospace" font-size="12.00">object</text>
</a>
</g>
</g>
<!-- object&#45;&gt;convertabletointeger -->
<g id="edge9" class="edge">
<title>object&#45;&gt;convertabletointeger</title>
<path fill="none" stroke="black" d="M341.39,-371.98C284.46,-361.08 163.78,-329.65 102.5,-252 88.77,-234.6 84.38,-209.56 83.22,-190.46"/>
<polygon fill="black" stroke="black" points="86.71,-190.15 82.87,-180.28 79.72,-190.4 86.71,-190.15"/>
</g>
<!-- object&#45;&gt;convertabletointegral -->
<g id="edge10" class="edge">
<title>object&#45;&gt;convertabletointegral</title>
<path fill="none" stroke="black" d="M347.74,-359.9C333.4,-349.78 315.15,-336.53 299.5,-324 273.25,-302.98 244.6,-277.47 224.54,-259.16"/>
<polygon fill="black" stroke="black" points="226.77,-256.45 217.03,-252.28 222.04,-261.61 226.77,-256.45"/>
</g>
<!-- object&#45;&gt;convertabletorational -->
<g id="edge11" class="edge">
<title>object&#45;&gt;convertabletorational</title>
<path fill="none" stroke="black" d="M355.94,-359.79C347.55,-350.05 337.99,-337.2 332.5,-324 314.09,-279.73 309.98,-223.36 309.3,-190.41"/>
<polygon fill="black" stroke="black" points="312.8,-190.15 309.19,-180.19 305.8,-190.23 312.8,-190.15"/>
</g>
<!-- object&#45;&gt;scalar -->
<g id="edge12" class="edge">
<title>object&#45;&gt;scalar</title>
<path fill="none" stroke="black" d="M372.5,-359.7C372.5,-351.98 372.5,-342.71 372.5,-334.11"/>
<polygon fill="black" stroke="black" points="376,-334.1 372.5,-324.1 369,-334.1 376,-334.1"/>
</g>
<!-- object&#45;&gt;atomic -->
<g id="edge13" class="edge">
<title>object&#45;&gt;atomic</title>
<path fill="none" stroke="black" d="M385.89,-359.87C405.31,-335.03 441.41,-288.85 463.85,-260.14"/>
<polygon fill="black" stroke="black" points="466.66,-262.22 470.06,-252.19 461.15,-257.91 466.66,-262.22"/>
</g>
<!-- additive -->
<g id="node11" class="node">
<title>additive</title>
<g id="a_node11"><a xlink:href="PsyllaReference_Types.xhtml#PsyllaReference_Types_Details_additive" xlink:title="additive" target="_parent">
<polygon fill="linen" stroke="black" points="531,-324 460,-324 460,-288 537,-288 537,-318 531,-324"/>
<polyline fill="none" stroke="black" points="531,-324 531,-318 "/>
<polyline fill="none" stroke="black" points="537,-318 531,-318 "/>
<text text-anchor="middle" x="498.5" y="-302.9" font-family="Source Code Pro,monospace" font-size="12.00">additive</text>
</a>
</g>
</g>
<!-- object&#45;&gt;additive -->
<g id="edge16" class="edge">
<title>object&#45;&gt;additive</title>
<path fill="none" stroke="black" d="M403.32,-359.88C419.95,-350.64 440.66,-339.13 458.52,-329.21"/>
<polygon fill="black" stroke="black" points="460.52,-332.11 467.56,-324.19 457.12,-325.99 460.52,-332.11"/>
</g>
<!-- multiplicative -->
<g id="node12" class="node">
<title>multiplicative</title>
<g id="a_node12"><a xlink:href="PsyllaReference_Types.xhtml#PsyllaReference_Types_Details_multiplicative" xlink:title="multiplicative" target="_parent">
<polygon fill="linen" stroke="black" points="671.5,-324 555.5,-324 555.5,-288 677.5,-288 677.5,-318 671.5,-324"/>
<polyline fill="none" stroke="black" points="671.5,-324 671.5,-318 "/>
<polyline fill="none" stroke="black" points="677.5,-318 671.5,-318 "/>
<text text-anchor="middle" x="616.5" y="-302.9" font-family="Source Code Pro,monospace" font-size="12.00">multiplicative</text>
</a>
</g>
</g>
<!-- object&#45;&gt;multiplicative -->
<g id="edge17" class="edge">
<title>object&#45;&gt;multiplicative</title>
<path fill="none" stroke="black" d="M403.9,-367.99C439.95,-357.65 500.18,-340.37 547.34,-326.84"/>
<polygon fill="black" stroke="black" points="548.55,-330.14 557.2,-324.01 546.62,-323.41 548.55,-330.14"/>
</g>
<!-- additive&#45;&gt;arithmetic -->
<g id="edge14" class="edge">
<title>additive&#45;&gt;arithmetic</title>
<path fill="none" stroke="black" d="M518.28,-287.7C528.25,-278.97 540.51,-268.24 551.36,-258.75"/>
<polygon fill="black" stroke="black" points="553.73,-261.32 558.95,-252.1 549.12,-256.06 553.73,-261.32"/>
</g>
<!-- multiplicative&#45;&gt;arithmetic -->
<g id="edge15" class="edge">
<title>multiplicative&#45;&gt;arithmetic</title>
<path fill="none" stroke="black" d="M607.11,-287.7C602.74,-279.64 597.44,-269.89 592.6,-260.98"/>
<polygon fill="black" stroke="black" points="595.63,-259.22 587.79,-252.1 589.48,-262.56 595.63,-259.22"/>
</g>
</g>
</svg>
