<?xml version="1.0" encoding="UTF-8" standalone="no"?>
<!DOCTYPE svg PUBLIC "-//W3C//DTD SVG 1.1//EN"
 "http://www.w3.org/Graphics/SVG/1.1/DTD/svg11.dtd">
<!-- Generated by graphviz version 2.43.0 (0)
 -->
<!-- Title: additive Pages: 1 -->
<svg width="91pt" height="116pt"
 viewBox="0.00 0.00 91.00 116.00" xmlns="http://www.w3.org/2000/svg" xmlns:xlink="http://www.w3.org/1999/xlink">
<g id="graph0" class="graph" transform="scale(1 1) rotate(0) translate(4 112)">
<title>additive</title>
<polygon fill="transparent" stroke="transparent" points="-4,4 -4,-112 87,-112 87,4 -4,4"/>
<!-- object -->
<g id="node1" class="node">
<title>object</title>
<g id="a_node1"><a xlink:href="PsyllaReference_Types.xhtml#PsyllaReference_Types_Details_object" xlink:title="object" target="_parent">
<polygon fill="linen" stroke="black" points="68.5,-108 8.5,-108 8.5,-72 74.5,-72 74.5,-102 68.5,-108"/>
<polyline fill="none" stroke="black" points="68.5,-108 68.5,-102 "/>
<polyline fill="none" stroke="black" points="74.5,-102 68.5,-102 "/>
<text text-anchor="middle" x="41.5" y="-86.3" font-family="Consolas, monospace" font-size="14.00">object</text>
</a>
</g>
</g>
<!-- additive -->
<g id="node2" class="node">
<title>additive</title>
<g id="a_node2"><a xlink:href="PsyllaReference_Types.xhtml#PsyllaReference_Types_Details_additive" xlink:title="additive" target="_parent">
<polygon fill="wheat" stroke="black" points="77,-36 0,-36 0,0 83,0 83,-30 77,-36"/>
<polyline fill="none" stroke="black" points="77,-36 77,-30 "/>
<polyline fill="none" stroke="black" points="83,-30 77,-30 "/>
<text text-anchor="middle" x="41.5" y="-14.3" font-family="Consolas, monospace" font-size="14.00">additive</text>
</a>
</g>
</g>
<!-- object&#45;&gt;additive -->
<g id="edge1" class="edge">
<title>object&#45;&gt;additive</title>
<path fill="none" stroke="black" d="M41.5,-71.7C41.5,-63.98 41.5,-54.71 41.5,-46.11"/>
<polygon fill="black" stroke="black" points="45,-46.1 41.5,-36.1 38,-46.1 45,-46.1"/>
</g>
</g>
</svg>
