<?xml version="1.0" encoding="UTF-8" standalone="no"?>
<!DOCTYPE svg PUBLIC "-//W3C//DTD SVG 1.1//EN"
 "http://www.w3.org/Graphics/SVG/1.1/DTD/svg11.dtd">
<!-- Generated by graphviz version 14.0.0 (0)
 -->
<!-- Title: blockingqueue Pages: 1 -->
<svg width="267pt" height="476pt"
 viewBox="0.00 0.00 267.00 476.00" xmlns="http://www.w3.org/2000/svg" xmlns:xlink="http://www.w3.org/1999/xlink">
<g id="graph0" class="graph" transform="scale(1 1) rotate(0) translate(4 472)">
<title>blockingqueue</title>
<polygon fill="none" stroke="none" points="-4,4 -4,-472 262.65,-472 262.65,4 -4,4"/>
<!-- formalqueue -->
<g id="node1" class="node">
<title>formalqueue</title>
<g id="a_node1"><a xlink:href="PsyllaReference_Types.xhtml#PsyllaReference_Types_Details_formalqueue" xlink:title="formalqueue" target="_parent">
<polygon fill="linen" stroke="black" points="128.64,-108 58,-108 58,-72 134.64,-72 134.64,-102 128.64,-108"/>
<polyline fill="none" stroke="black" points="128.64,-108 128.64,-102"/>
<polyline fill="none" stroke="black" points="134.64,-102 128.64,-102"/>
<text xml:space="preserve" text-anchor="middle" x="96.32" y="-86.4" font-family="Source Code Pro,monospace" font-size="12.00">formalqueue</text>
</a>
</g>
</g>
<!-- blockingqueue -->
<g id="node3" class="node">
<title>blockingqueue</title>
<g id="a_node3"><a xlink:href="PsyllaReference_Types.xhtml#PsyllaReference_Types_Details_blockingqueue" xlink:title="blockingqueue" target="_parent">
<polygon fill="wheat" stroke="black" points="100.64,-36 20,-36 20,0 106.64,0 106.64,-30 100.64,-36"/>
<polyline fill="none" stroke="black" points="100.64,-36 100.64,-30"/>
<polyline fill="none" stroke="black" points="106.64,-30 100.64,-30"/>
<text xml:space="preserve" text-anchor="middle" x="63.32" y="-14.4" font-family="Source Code Pro,monospace" font-size="12.00">blockingqueue</text>
</a>
</g>
</g>
<!-- formalqueue&#45;&gt;blockingqueue -->
<g id="edge1" class="edge">
<title>formalqueue&#45;&gt;blockingqueue</title>
<path fill="none" stroke="black" d="M88.16,-71.7C84.57,-64.07 80.25,-54.92 76.24,-46.4"/>
<polygon fill="black" stroke="black" points="79.46,-45.03 72.03,-37.47 73.13,-48.01 79.46,-45.03"/>
</g>
<!-- closeable -->
<g id="node2" class="node">
<title>closeable</title>
<g id="a_node2"><a xlink:href="PsyllaReference_Types.xhtml#PsyllaReference_Types_Details_closeable" xlink:title="closeable" target="_parent">
<polygon fill="linen" stroke="black" points="54.64,-324 0,-324 0,-288 60.64,-288 60.64,-318 54.64,-324"/>
<polyline fill="none" stroke="black" points="54.64,-324 54.64,-318"/>
<polyline fill="none" stroke="black" points="60.64,-318 54.64,-318"/>
<text xml:space="preserve" text-anchor="middle" x="30.32" y="-302.4" font-family="Source Code Pro,monospace" font-size="12.00">closeable</text>
</a>
</g>
</g>
<!-- closeable&#45;&gt;blockingqueue -->
<g id="edge2" class="edge">
<title>closeable&#45;&gt;blockingqueue</title>
<path fill="none" stroke="black" d="M30.69,-287.62C31.74,-248.73 35.64,-151.8 49.32,-72 50.7,-63.93 52.74,-55.3 54.83,-47.4"/>
<polygon fill="black" stroke="black" points="58.15,-48.53 57.46,-37.95 51.41,-46.65 58.15,-48.53"/>
</g>
<!-- bounded -->
<g id="node4" class="node">
<title>bounded</title>
<g id="a_node4"><a xlink:href="PsyllaReference_Types.xhtml#PsyllaReference_Types_Details_bounded" xlink:title="bounded" target="_parent">
<polygon fill="linen" stroke="black" points="110.98,-180 59.66,-180 59.66,-144 116.98,-144 116.98,-174 110.98,-180"/>
<polyline fill="none" stroke="black" points="110.98,-180 110.98,-174"/>
<polyline fill="none" stroke="black" points="116.98,-174 110.98,-174"/>
<text xml:space="preserve" text-anchor="middle" x="88.32" y="-158.4" font-family="Source Code Pro,monospace" font-size="12.00">bounded</text>
</a>
</g>
</g>
<!-- bounded&#45;&gt;formalqueue -->
<g id="edge3" class="edge">
<title>bounded&#45;&gt;formalqueue</title>
<path fill="none" stroke="black" d="M90.3,-143.7C91.13,-136.41 92.12,-127.73 93.06,-119.54"/>
<polygon fill="black" stroke="black" points="96.54,-119.94 94.19,-109.61 89.58,-119.15 96.54,-119.94"/>
</g>
<!-- container -->
<g id="node5" class="node">
<title>container</title>
<g id="a_node5"><a xlink:href="PsyllaReference_Types.xhtml#PsyllaReference_Types_Details_container" xlink:title="container" target="_parent">
<polygon fill="linen" stroke="black" points="189.64,-180 135,-180 135,-144 195.64,-144 195.64,-174 189.64,-180"/>
<polyline fill="none" stroke="black" points="189.64,-180 189.64,-174"/>
<polyline fill="none" stroke="black" points="195.64,-174 189.64,-174"/>
<text xml:space="preserve" text-anchor="middle" x="165.32" y="-158.4" font-family="Source Code Pro,monospace" font-size="12.00">container</text>
</a>
</g>
</g>
<!-- container&#45;&gt;formalqueue -->
<g id="edge4" class="edge">
<title>container&#45;&gt;formalqueue</title>
<path fill="none" stroke="black" d="M148.27,-143.7C140.08,-135.39 130.11,-125.28 121.1,-116.14"/>
<polygon fill="black" stroke="black" points="123.76,-113.85 114.24,-109.18 118.77,-118.76 123.76,-113.85"/>
</g>
<!-- object -->
<g id="node6" class="node">
<title>object</title>
<g id="a_node6"><a xlink:href="PsyllaReference_Types.xhtml#PsyllaReference_Types_Details_object" xlink:title="object" target="_parent">
<polygon fill="linen" stroke="black" points="138.32,-468 90.32,-468 90.32,-432 144.32,-432 144.32,-462 138.32,-468"/>
<polyline fill="none" stroke="black" points="138.32,-468 138.32,-462"/>
<polyline fill="none" stroke="black" points="144.32,-462 138.32,-462"/>
<text xml:space="preserve" text-anchor="middle" x="117.32" y="-446.4" font-family="Source Code Pro,monospace" font-size="12.00">object</text>
</a>
</g>
</g>
<!-- object&#45;&gt;closeable -->
<g id="edge5" class="edge">
<title>object&#45;&gt;closeable</title>
<path fill="none" stroke="black" d="M101.55,-431.6C92.93,-421.6 82.38,-408.57 74.32,-396 61.76,-376.42 50.21,-352.74 42.1,-334.73"/>
<polygon fill="black" stroke="black" points="45.37,-333.46 38.13,-325.73 38.96,-336.29 45.37,-333.46"/>
</g>
<!-- lengthy -->
<g id="node7" class="node">
<title>lengthy</title>
<g id="a_node7"><a xlink:href="PsyllaReference_Types.xhtml#PsyllaReference_Types_Details_lengthy" xlink:title="lengthy" target="_parent">
<polygon fill="linen" stroke="black" points="109.32,-252 61.32,-252 61.32,-216 115.32,-216 115.32,-246 109.32,-252"/>
<polyline fill="none" stroke="black" points="109.32,-252 109.32,-246"/>
<polyline fill="none" stroke="black" points="115.32,-246 109.32,-246"/>
<text xml:space="preserve" text-anchor="middle" x="88.32" y="-230.4" font-family="Source Code Pro,monospace" font-size="12.00">lengthy</text>
</a>
</g>
</g>
<!-- object&#45;&gt;lengthy -->
<g id="edge10" class="edge">
<title>object&#45;&gt;lengthy</title>
<path fill="none" stroke="black" d="M113.78,-431.87C111.71,-421.51 109.16,-408.03 107.32,-396 100.26,-349.87 94.37,-295.95 91.1,-263.69"/>
<polygon fill="black" stroke="black" points="94.61,-263.55 90.13,-253.95 87.64,-264.25 94.61,-263.55"/>
</g>
<!-- clearable -->
<g id="node8" class="node">
<title>clearable</title>
<g id="a_node8"><a xlink:href="PsyllaReference_Types.xhtml#PsyllaReference_Types_Details_clearable" xlink:title="clearable" target="_parent">
<polygon fill="linen" stroke="black" points="169.97,-396 116.67,-396 116.67,-360 175.97,-360 175.97,-390 169.97,-396"/>
<polyline fill="none" stroke="black" points="169.97,-396 169.97,-390"/>
<polyline fill="none" stroke="black" points="175.97,-390 169.97,-390"/>
<text xml:space="preserve" text-anchor="middle" x="146.32" y="-374.4" font-family="Source Code Pro,monospace" font-size="12.00">clearable</text>
</a>
</g>
</g>
<!-- object&#45;&gt;clearable -->
<g id="edge11" class="edge">
<title>object&#45;&gt;clearable</title>
<path fill="none" stroke="black" d="M124.49,-431.7C127.62,-424.15 131.36,-415.12 134.85,-406.68"/>
<polygon fill="black" stroke="black" points="138.06,-408.08 138.66,-397.5 131.59,-405.4 138.06,-408.08"/>
</g>
<!-- sequential -->
<g id="node11" class="node">
<title>sequential</title>
<g id="a_node11"><a xlink:href="PsyllaReference_Types.xhtml#PsyllaReference_Types_Details_sequential" xlink:title="sequential" target="_parent">
<polygon fill="linen" stroke="black" points="252.65,-396 194,-396 194,-360 258.65,-360 258.65,-390 252.65,-396"/>
<polyline fill="none" stroke="black" points="252.65,-396 252.65,-390"/>
<polyline fill="none" stroke="black" points="258.65,-390 252.65,-390"/>
<text xml:space="preserve" text-anchor="middle" x="226.32" y="-374.4" font-family="Source Code Pro,monospace" font-size="12.00">sequential</text>
</a>
</g>
</g>
<!-- object&#45;&gt;sequential -->
<g id="edge14" class="edge">
<title>object&#45;&gt;sequential</title>
<path fill="none" stroke="black" d="M144.55,-431.52C158.3,-422.68 175.19,-411.84 190.04,-402.3"/>
<polygon fill="black" stroke="black" points="191.65,-405.43 198.17,-397.08 187.86,-399.54 191.65,-405.43"/>
</g>
<!-- lengthy&#45;&gt;bounded -->
<g id="edge6" class="edge">
<title>lengthy&#45;&gt;bounded</title>
<path fill="none" stroke="black" d="M88.32,-215.7C88.32,-208.41 88.32,-199.73 88.32,-191.54"/>
<polygon fill="black" stroke="black" points="91.82,-191.62 88.32,-181.62 84.82,-191.62 91.82,-191.62"/>
</g>
<!-- lengthy&#45;&gt;container -->
<g id="edge9" class="edge">
<title>lengthy&#45;&gt;container</title>
<path fill="none" stroke="black" d="M107.36,-215.7C116.52,-207.37 127.68,-197.22 137.75,-188.07"/>
<polygon fill="black" stroke="black" points="140.07,-190.68 145.12,-181.37 135.37,-185.5 140.07,-190.68"/>
</g>
<!-- clearable&#45;&gt;container -->
<g id="edge7" class="edge">
<title>clearable&#45;&gt;container</title>
<path fill="none" stroke="black" d="M147.84,-359.85C151.1,-323.14 158.78,-236.66 162.79,-191.53"/>
<polygon fill="black" stroke="black" points="166.26,-192.01 163.66,-181.74 159.29,-191.39 166.26,-192.01"/>
</g>
<!-- iterable -->
<g id="node9" class="node">
<title>iterable</title>
<g id="a_node9"><a xlink:href="PsyllaReference_Types.xhtml#PsyllaReference_Types_Details_iterable" xlink:title="iterable" target="_parent">
<polygon fill="linen" stroke="black" points="237.32,-252 189.32,-252 189.32,-216 243.32,-216 243.32,-246 237.32,-252"/>
<polyline fill="none" stroke="black" points="237.32,-252 237.32,-246"/>
<polyline fill="none" stroke="black" points="243.32,-246 237.32,-246"/>
<text xml:space="preserve" text-anchor="middle" x="216.32" y="-230.4" font-family="Source Code Pro,monospace" font-size="12.00">iterable</text>
</a>
</g>
</g>
<!-- iterable&#45;&gt;container -->
<g id="edge8" class="edge">
<title>iterable&#45;&gt;container</title>
<path fill="none" stroke="black" d="M203.71,-215.7C197.91,-207.73 190.89,-198.1 184.46,-189.26"/>
<polygon fill="black" stroke="black" points="187.39,-187.35 178.67,-181.33 181.73,-191.47 187.39,-187.35"/>
</g>
<!-- streamable -->
<g id="node10" class="node">
<title>streamable</title>
<g id="a_node10"><a xlink:href="PsyllaReference_Types.xhtml#PsyllaReference_Types_Details_streamable" xlink:title="streamable" target="_parent">
<polygon fill="linen" stroke="black" points="249.31,-324 187.33,-324 187.33,-288 255.31,-288 255.31,-318 249.31,-324"/>
<polyline fill="none" stroke="black" points="249.31,-324 249.31,-318"/>
<polyline fill="none" stroke="black" points="255.31,-318 249.31,-318"/>
<text xml:space="preserve" text-anchor="middle" x="221.32" y="-302.4" font-family="Source Code Pro,monospace" font-size="12.00">streamable</text>
</a>
</g>
</g>
<!-- streamable&#45;&gt;iterable -->
<g id="edge12" class="edge">
<title>streamable&#45;&gt;iterable</title>
<path fill="none" stroke="black" d="M220.09,-287.7C219.56,-280.41 218.94,-271.73 218.36,-263.54"/>
<polygon fill="black" stroke="black" points="221.85,-263.34 217.65,-253.61 214.87,-263.84 221.85,-263.34"/>
</g>
<!-- sequential&#45;&gt;streamable -->
<g id="edge13" class="edge">
<title>sequential&#45;&gt;streamable</title>
<path fill="none" stroke="black" d="M225.09,-359.7C224.56,-352.41 223.94,-343.73 223.36,-335.54"/>
<polygon fill="black" stroke="black" points="226.85,-335.34 222.65,-325.61 219.87,-335.84 226.85,-335.34"/>
</g>
</g>
</svg>
