<?xml version="1.0" encoding="UTF-8" standalone="no"?>
<!DOCTYPE svg PUBLIC "-//W3C//DTD SVG 1.1//EN"
 "http://www.w3.org/Graphics/SVG/1.1/DTD/svg11.dtd">
<!-- Generated by graphviz version 2.43.0 (0)
 -->
<!-- Title: systemdict Pages: 1 -->
<svg width="398pt" height="620pt"
 viewBox="0.00 0.00 398.00 620.00" xmlns="http://www.w3.org/2000/svg" xmlns:xlink="http://www.w3.org/1999/xlink">
<g id="graph0" class="graph" transform="scale(1 1) rotate(0) translate(4 616)">
<title>systemdict</title>
<polygon fill="transparent" stroke="transparent" points="-4,4 -4,-616 394,-616 394,4 -4,4"/>
<!-- module -->
<g id="node1" class="node">
<title>module</title>
<g id="a_node1"><a xlink:href="PsyllaReference_Types.xhtml#PsyllaReference_Types_Details_module" xlink:title="module" target="_parent">
<polygon fill="linen" stroke="black" points="129,-108 69,-108 69,-72 135,-72 135,-102 129,-108"/>
<polyline fill="none" stroke="black" points="129,-108 129,-102 "/>
<polyline fill="none" stroke="black" points="135,-102 129,-102 "/>
<text text-anchor="middle" x="102" y="-86.3" font-family="Consolas, monospace" font-size="14.00">module</text>
</a>
</g>
</g>
<!-- systemdict -->
<g id="node2" class="node">
<title>systemdict</title>
<g id="a_node2"><a xlink:href="PsyllaReference_Types.xhtml#PsyllaReference_Types_Details_systemdict" xlink:title="systemdict" target="_parent">
<polygon fill="wheat" stroke="black" points="145.5,-36 52.5,-36 52.5,0 151.5,0 151.5,-30 145.5,-36"/>
<polyline fill="none" stroke="black" points="145.5,-36 145.5,-30 "/>
<polyline fill="none" stroke="black" points="151.5,-30 145.5,-30 "/>
<text text-anchor="middle" x="102" y="-14.3" font-family="Consolas, monospace" font-size="14.00">systemdict</text>
</a>
</g>
</g>
<!-- module&#45;&gt;systemdict -->
<g id="edge1" class="edge">
<title>module&#45;&gt;systemdict</title>
<path fill="none" stroke="black" d="M102,-71.7C102,-63.98 102,-54.71 102,-46.11"/>
<polygon fill="black" stroke="black" points="105.5,-46.1 102,-36.1 98.5,-46.1 105.5,-46.1"/>
</g>
<!-- dict -->
<g id="node3" class="node">
<title>dict</title>
<g id="a_node3"><a xlink:href="PsyllaReference_Types.xhtml#PsyllaReference_Types_Details_dict" xlink:title="dict" target="_parent">
<polygon fill="linen" stroke="black" points="123,-180 75,-180 75,-144 129,-144 129,-174 123,-180"/>
<polyline fill="none" stroke="black" points="123,-180 123,-174 "/>
<polyline fill="none" stroke="black" points="129,-174 123,-174 "/>
<text text-anchor="middle" x="102" y="-158.3" font-family="Consolas, monospace" font-size="14.00">dict</text>
</a>
</g>
</g>
<!-- dict&#45;&gt;module -->
<g id="edge2" class="edge">
<title>dict&#45;&gt;module</title>
<path fill="none" stroke="black" d="M102,-143.7C102,-135.98 102,-126.71 102,-118.11"/>
<polygon fill="black" stroke="black" points="105.5,-118.1 102,-108.1 98.5,-118.1 105.5,-118.1"/>
</g>
<!-- formaldict -->
<g id="node4" class="node">
<title>formaldict</title>
<g id="a_node4"><a xlink:href="PsyllaReference_Types.xhtml#PsyllaReference_Types_Details_formaldict" xlink:title="formaldict" target="_parent">
<polygon fill="linen" stroke="black" points="145.5,-252 52.5,-252 52.5,-216 151.5,-216 151.5,-246 145.5,-252"/>
<polyline fill="none" stroke="black" points="145.5,-252 145.5,-246 "/>
<polyline fill="none" stroke="black" points="151.5,-246 145.5,-246 "/>
<text text-anchor="middle" x="102" y="-230.3" font-family="Consolas, monospace" font-size="14.00">formaldict</text>
</a>
</g>
</g>
<!-- formaldict&#45;&gt;dict -->
<g id="edge3" class="edge">
<title>formaldict&#45;&gt;dict</title>
<path fill="none" stroke="black" d="M102,-215.7C102,-207.98 102,-198.71 102,-190.11"/>
<polygon fill="black" stroke="black" points="105.5,-190.1 102,-180.1 98.5,-190.1 105.5,-190.1"/>
</g>
<!-- container -->
<g id="node5" class="node">
<title>container</title>
<g id="a_node5"><a xlink:href="PsyllaReference_Types.xhtml#PsyllaReference_Types_Details_container" xlink:title="container" target="_parent">
<polygon fill="linen" stroke="black" points="280.5,-324 195.5,-324 195.5,-288 286.5,-288 286.5,-318 280.5,-324"/>
<polyline fill="none" stroke="black" points="280.5,-324 280.5,-318 "/>
<polyline fill="none" stroke="black" points="286.5,-318 280.5,-318 "/>
<text text-anchor="middle" x="241" y="-302.3" font-family="Consolas, monospace" font-size="14.00">container</text>
</a>
</g>
</g>
<!-- container&#45;&gt;formaldict -->
<g id="edge4" class="edge">
<title>container&#45;&gt;formaldict</title>
<path fill="none" stroke="black" d="M207,-287.88C188.4,-278.51 165.17,-266.81 145.29,-256.8"/>
<polygon fill="black" stroke="black" points="146.64,-253.56 136.13,-252.19 143.49,-259.81 146.64,-253.56"/>
</g>
<!-- indexed -->
<g id="node6" class="node">
<title>indexed</title>
<g id="a_node6"><a xlink:href="PsyllaReference_Types.xhtml#PsyllaReference_Types_Details_indexed" xlink:title="indexed" target="_parent">
<polygon fill="linen" stroke="black" points="68,-396 0,-396 0,-360 74,-360 74,-390 68,-396"/>
<polyline fill="none" stroke="black" points="68,-396 68,-390 "/>
<polyline fill="none" stroke="black" points="74,-390 68,-390 "/>
<text text-anchor="middle" x="37" y="-374.3" font-family="Consolas, monospace" font-size="14.00">indexed</text>
</a>
</g>
</g>
<!-- indexed&#45;&gt;formaldict -->
<g id="edge5" class="edge">
<title>indexed&#45;&gt;formaldict</title>
<path fill="none" stroke="black" d="M44.84,-359.87C56.02,-335.46 76.63,-290.43 89.81,-261.64"/>
<polygon fill="black" stroke="black" points="93.15,-262.74 94.13,-252.19 86.79,-259.83 93.15,-262.74"/>
</g>
<!-- sequential -->
<g id="node7" class="node">
<title>sequential</title>
<g id="a_node7"><a xlink:href="PsyllaReference_Types.xhtml#PsyllaReference_Types_Details_sequential" xlink:title="sequential" target="_parent">
<polygon fill="linen" stroke="black" points="223.5,-540 130.5,-540 130.5,-504 229.5,-504 229.5,-534 223.5,-540"/>
<polyline fill="none" stroke="black" points="223.5,-540 223.5,-534 "/>
<polyline fill="none" stroke="black" points="229.5,-534 223.5,-534 "/>
<text text-anchor="middle" x="180" y="-518.3" font-family="Consolas, monospace" font-size="14.00">sequential</text>
</a>
</g>
</g>
<!-- sequential&#45;&gt;formaldict -->
<g id="edge6" class="edge">
<title>sequential&#45;&gt;formaldict</title>
<path fill="none" stroke="black" d="M153.03,-503.86C141.09,-494.75 128.15,-482.43 121,-468 87.38,-400.16 92.67,-307.47 98.01,-262.17"/>
<polygon fill="black" stroke="black" points="101.49,-262.58 99.28,-252.22 94.54,-261.7 101.49,-262.58"/>
</g>
<!-- streamable -->
<g id="node12" class="node">
<title>streamable</title>
<g id="a_node12"><a xlink:href="PsyllaReference_Types.xhtml#PsyllaReference_Types_Details_streamable" xlink:title="streamable" target="_parent">
<polygon fill="linen" stroke="black" points="223.5,-468 130.5,-468 130.5,-432 229.5,-432 229.5,-462 223.5,-468"/>
<polyline fill="none" stroke="black" points="223.5,-468 223.5,-462 "/>
<polyline fill="none" stroke="black" points="229.5,-462 223.5,-462 "/>
<text text-anchor="middle" x="180" y="-446.3" font-family="Consolas, monospace" font-size="14.00">streamable</text>
</a>
</g>
</g>
<!-- sequential&#45;&gt;streamable -->
<g id="edge15" class="edge">
<title>sequential&#45;&gt;streamable</title>
<path fill="none" stroke="black" d="M180,-503.7C180,-495.98 180,-486.71 180,-478.11"/>
<polygon fill="black" stroke="black" points="183.5,-478.1 180,-468.1 176.5,-478.1 183.5,-478.1"/>
</g>
<!-- clearable -->
<g id="node8" class="node">
<title>clearable</title>
<g id="a_node8"><a xlink:href="PsyllaReference_Types.xhtml#PsyllaReference_Types_Details_clearable" xlink:title="clearable" target="_parent">
<polygon fill="linen" stroke="black" points="332.5,-468 247.5,-468 247.5,-432 338.5,-432 338.5,-462 332.5,-468"/>
<polyline fill="none" stroke="black" points="332.5,-468 332.5,-462 "/>
<polyline fill="none" stroke="black" points="338.5,-462 332.5,-462 "/>
<text text-anchor="middle" x="293" y="-446.3" font-family="Consolas, monospace" font-size="14.00">clearable</text>
</a>
</g>
</g>
<!-- clearable&#45;&gt;container -->
<g id="edge7" class="edge">
<title>clearable&#45;&gt;container</title>
<path fill="none" stroke="black" d="M286.73,-431.87C277.79,-407.46 261.3,-362.43 250.75,-333.64"/>
<polygon fill="black" stroke="black" points="254.02,-332.38 247.29,-324.19 247.45,-334.78 254.02,-332.38"/>
</g>
<!-- iterable -->
<g id="node9" class="node">
<title>iterable</title>
<g id="a_node9"><a xlink:href="PsyllaReference_Types.xhtml#PsyllaReference_Types_Details_iterable" xlink:title="iterable" target="_parent">
<polygon fill="linen" stroke="black" points="236.5,-396 159.5,-396 159.5,-360 242.5,-360 242.5,-390 236.5,-396"/>
<polyline fill="none" stroke="black" points="236.5,-396 236.5,-390 "/>
<polyline fill="none" stroke="black" points="242.5,-390 236.5,-390 "/>
<text text-anchor="middle" x="201" y="-374.3" font-family="Consolas, monospace" font-size="14.00">iterable</text>
</a>
</g>
</g>
<!-- iterable&#45;&gt;container -->
<g id="edge8" class="edge">
<title>iterable&#45;&gt;container</title>
<path fill="none" stroke="black" d="M210.89,-359.7C215.49,-351.64 221.06,-341.89 226.15,-332.98"/>
<polygon fill="black" stroke="black" points="229.3,-334.52 231.23,-324.1 223.23,-331.05 229.3,-334.52"/>
</g>
<!-- lengthy -->
<g id="node10" class="node">
<title>lengthy</title>
<g id="a_node10"><a xlink:href="PsyllaReference_Types.xhtml#PsyllaReference_Types_Details_lengthy" xlink:title="lengthy" target="_parent">
<polygon fill="linen" stroke="black" points="384,-540 316,-540 316,-504 390,-504 390,-534 384,-540"/>
<polyline fill="none" stroke="black" points="384,-540 384,-534 "/>
<polyline fill="none" stroke="black" points="390,-534 384,-534 "/>
<text text-anchor="middle" x="353" y="-518.3" font-family="Consolas, monospace" font-size="14.00">lengthy</text>
</a>
</g>
</g>
<!-- lengthy&#45;&gt;container -->
<g id="edge9" class="edge">
<title>lengthy&#45;&gt;container</title>
<path fill="none" stroke="black" d="M354.93,-503.9C356.32,-485.44 356.55,-455.54 347,-432 330.43,-391.14 295.08,-353.94 269.75,-330.95"/>
<polygon fill="black" stroke="black" points="272.05,-328.3 262.25,-324.28 267.4,-333.54 272.05,-328.3"/>
</g>
<!-- object -->
<g id="node11" class="node">
<title>object</title>
<g id="a_node11"><a xlink:href="PsyllaReference_Types.xhtml#PsyllaReference_Types_Details_object" xlink:title="object" target="_parent">
<polygon fill="linen" stroke="black" points="246,-612 186,-612 186,-576 252,-576 252,-606 246,-612"/>
<polyline fill="none" stroke="black" points="246,-612 246,-606 "/>
<polyline fill="none" stroke="black" points="252,-606 246,-606 "/>
<text text-anchor="middle" x="219" y="-590.3" font-family="Consolas, monospace" font-size="14.00">object</text>
</a>
</g>
</g>
<!-- object&#45;&gt;indexed -->
<g id="edge10" class="edge">
<title>object&#45;&gt;indexed</title>
<path fill="none" stroke="black" d="M185.84,-580.94C165.19,-572.12 139.19,-558.46 121,-540 82.5,-500.92 57.53,-440.59 45.48,-405.95"/>
<polygon fill="black" stroke="black" points="48.67,-404.43 42.16,-396.07 42.03,-406.67 48.67,-404.43"/>
</g>
<!-- object&#45;&gt;sequential -->
<g id="edge11" class="edge">
<title>object&#45;&gt;sequential</title>
<path fill="none" stroke="black" d="M209.36,-575.7C204.87,-567.64 199.44,-557.89 194.48,-548.98"/>
<polygon fill="black" stroke="black" points="197.45,-547.14 189.53,-540.1 191.34,-550.54 197.45,-547.14"/>
</g>
<!-- object&#45;&gt;clearable -->
<g id="edge12" class="edge">
<title>object&#45;&gt;clearable</title>
<path fill="none" stroke="black" d="M227.93,-575.87C240.7,-551.35 264.32,-506.03 279.32,-477.26"/>
<polygon fill="black" stroke="black" points="282.52,-478.67 284.04,-468.19 276.32,-475.44 282.52,-478.67"/>
</g>
<!-- object&#45;&gt;lengthy -->
<g id="edge14" class="edge">
<title>object&#45;&gt;lengthy</title>
<path fill="none" stroke="black" d="M251.78,-575.88C269.63,-566.55 291.9,-554.92 311,-544.94"/>
<polygon fill="black" stroke="black" points="312.85,-547.92 320.09,-540.19 309.61,-541.72 312.85,-547.92"/>
</g>
<!-- streamable&#45;&gt;iterable -->
<g id="edge13" class="edge">
<title>streamable&#45;&gt;iterable</title>
<path fill="none" stroke="black" d="M185.19,-431.7C187.53,-423.9 190.35,-414.51 192.95,-405.83"/>
<polygon fill="black" stroke="black" points="196.35,-406.69 195.87,-396.1 189.64,-404.68 196.35,-406.69"/>
</g>
</g>
</svg>
