<?xml version="1.0" encoding="UTF-8" standalone="no"?>
<!DOCTYPE svg PUBLIC "-//W3C//DTD SVG 1.1//EN"
 "http://www.w3.org/Graphics/SVG/1.1/DTD/svg11.dtd">
<!-- Generated by graphviz version 2.43.0 (0)
 -->
<!-- Title: bitwise Pages: 1 -->
<svg width="109pt" height="188pt"
 viewBox="0.00 0.00 109.00 188.00" xmlns="http://www.w3.org/2000/svg" xmlns:xlink="http://www.w3.org/1999/xlink">
<g id="graph0" class="graph" transform="scale(1 1) rotate(0) translate(4 184)">
<title>bitwise</title>
<polygon fill="transparent" stroke="transparent" points="-4,4 -4,-184 105,-184 105,4 -4,4"/>
<!-- logical -->
<g id="node1" class="node">
<title>logical</title>
<g id="a_node1"><a xlink:href="PsyllaReference_Types.xhtml#PsyllaReference_Types_Details_logical" xlink:title="logical" target="_parent">
<polygon fill="linen" stroke="black" points="95,-108 0,-108 0,-72 101,-72 101,-102 95,-108"/>
<polyline fill="none" stroke="black" points="95,-108 95,-102 "/>
<polyline fill="none" stroke="black" points="101,-102 95,-102 "/>
<text text-anchor="middle" x="50.5" y="-85" font-family="PT Mono, monospace" font-size="20.00">logical</text>
</a>
</g>
</g>
<!-- bitwise -->
<g id="node2" class="node">
<title>bitwise</title>
<g id="a_node2"><a xlink:href="PsyllaReference_Types.xhtml#PsyllaReference_Types_Details_bitwise" xlink:title="bitwise" target="_parent">
<polygon fill="wheat" stroke="black" points="95,-36 0,-36 0,0 101,0 101,-30 95,-36"/>
<polyline fill="none" stroke="black" points="95,-36 95,-30 "/>
<polyline fill="none" stroke="black" points="101,-30 95,-30 "/>
<text text-anchor="middle" x="50.5" y="-13" font-family="PT Mono, monospace" font-size="20.00">bitwise</text>
</a>
</g>
</g>
<!-- logical&#45;&gt;bitwise -->
<g id="edge1" class="edge">
<title>logical&#45;&gt;bitwise</title>
<path fill="none" stroke="black" d="M50.5,-71.7C50.5,-63.98 50.5,-54.71 50.5,-46.11"/>
<polygon fill="black" stroke="black" points="54,-46.1 50.5,-36.1 47,-46.1 54,-46.1"/>
</g>
<!-- object -->
<g id="node3" class="node">
<title>object</title>
<g id="a_node3"><a xlink:href="PsyllaReference_Types.xhtml#PsyllaReference_Types_Details_object" xlink:title="object" target="_parent">
<polygon fill="linen" stroke="black" points="89,-180 6,-180 6,-144 95,-144 95,-174 89,-180"/>
<polyline fill="none" stroke="black" points="89,-180 89,-174 "/>
<polyline fill="none" stroke="black" points="95,-174 89,-174 "/>
<text text-anchor="middle" x="50.5" y="-157" font-family="PT Mono, monospace" font-size="20.00">object</text>
</a>
</g>
</g>
<!-- object&#45;&gt;logical -->
<g id="edge2" class="edge">
<title>object&#45;&gt;logical</title>
<path fill="none" stroke="black" d="M50.5,-143.7C50.5,-135.98 50.5,-126.71 50.5,-118.11"/>
<polygon fill="black" stroke="black" points="54,-118.1 50.5,-108.1 47,-118.1 54,-118.1"/>
</g>
</g>
</svg>
