<?xml version="1.0" encoding="UTF-8" standalone="no"?>
<!DOCTYPE svg PUBLIC "-//W3C//DTD SVG 1.1//EN"
 "http://www.w3.org/Graphics/SVG/1.1/DTD/svg11.dtd">
<!-- Generated by graphviz version 2.43.0 (0)
 -->
<!-- Title: bitarray Pages: 1 -->
<svg width="517pt" height="476pt"
 viewBox="0.00 0.00 517.00 476.00" xmlns="http://www.w3.org/2000/svg" xmlns:xlink="http://www.w3.org/1999/xlink">
<g id="graph0" class="graph" transform="scale(1 1) rotate(0) translate(4 472)">
<title>bitarray</title>
<polygon fill="transparent" stroke="transparent" points="-4,4 -4,-472 513,-472 513,4 -4,4"/>
<!-- formalarray -->
<g id="node1" class="node">
<title>formalarray</title>
<g id="a_node1"><a xlink:href="PsyllaReference_Types.xhtml#PsyllaReference_Types_Details_formalarray" xlink:title="formalarray" target="_parent">
<polygon fill="linen" stroke="black" points="214,-108 121,-108 121,-72 220,-72 220,-102 214,-108"/>
<polyline fill="none" stroke="black" points="214,-108 214,-102 "/>
<polyline fill="none" stroke="black" points="220,-102 214,-102 "/>
<text text-anchor="middle" x="170.5" y="-86.9" font-family="Consolas, monospace" font-size="12.00">formalarray</text>
</a>
</g>
</g>
<!-- bitarray -->
<g id="node3" class="node">
<title>bitarray</title>
<g id="a_node3"><a xlink:href="PsyllaReference_Types.xhtml#PsyllaReference_Types_Details_bitarray" xlink:title="bitarray" target="_parent">
<polygon fill="wheat" stroke="black" points="254,-36 183,-36 183,0 260,0 260,-30 254,-36"/>
<polyline fill="none" stroke="black" points="254,-36 254,-30 "/>
<polyline fill="none" stroke="black" points="260,-30 254,-30 "/>
<text text-anchor="middle" x="221.5" y="-14.9" font-family="Consolas, monospace" font-size="12.00">bitarray</text>
</a>
</g>
</g>
<!-- formalarray&#45;&gt;bitarray -->
<g id="edge1" class="edge">
<title>formalarray&#45;&gt;bitarray</title>
<path fill="none" stroke="black" d="M183.11,-71.7C189.1,-63.47 196.38,-53.48 202.98,-44.42"/>
<polygon fill="black" stroke="black" points="205.98,-46.25 209.04,-36.1 200.32,-42.13 205.98,-46.25"/>
</g>
<!-- bitwise -->
<g id="node2" class="node">
<title>bitwise</title>
<g id="a_node2"><a xlink:href="PsyllaReference_Types.xhtml#PsyllaReference_Types_Details_bitwise" xlink:title="bitwise" target="_parent">
<polygon fill="linen" stroke="black" points="397,-108 334,-108 334,-72 403,-72 403,-102 397,-108"/>
<polyline fill="none" stroke="black" points="397,-108 397,-102 "/>
<polyline fill="none" stroke="black" points="403,-102 397,-102 "/>
<text text-anchor="middle" x="368.5" y="-86.9" font-family="Consolas, monospace" font-size="12.00">bitwise</text>
</a>
</g>
</g>
<!-- bitwise&#45;&gt;bitarray -->
<g id="edge2" class="edge">
<title>bitwise&#45;&gt;bitarray</title>
<path fill="none" stroke="black" d="M333.66,-72.41C313.62,-62.87 288.22,-50.77 266.65,-40.5"/>
<polygon fill="black" stroke="black" points="267.9,-37.22 257.36,-36.08 264.89,-43.54 267.9,-37.22"/>
</g>
<!-- appendable -->
<g id="node4" class="node">
<title>appendable</title>
<g id="a_node4"><a xlink:href="PsyllaReference_Types.xhtml#PsyllaReference_Types_Details_appendable" xlink:title="appendable" target="_parent">
<polygon fill="linen" stroke="black" points="136.5,-252 50.5,-252 50.5,-216 142.5,-216 142.5,-246 136.5,-252"/>
<polyline fill="none" stroke="black" points="136.5,-252 136.5,-246 "/>
<polyline fill="none" stroke="black" points="142.5,-246 136.5,-246 "/>
<text text-anchor="middle" x="96.5" y="-230.9" font-family="Consolas, monospace" font-size="12.00">appendable</text>
</a>
</g>
</g>
<!-- appendable&#45;&gt;formalarray -->
<g id="edge3" class="edge">
<title>appendable&#45;&gt;formalarray</title>
<path fill="none" stroke="black" d="M105.43,-215.87C118.2,-191.35 141.82,-146.03 156.82,-117.26"/>
<polygon fill="black" stroke="black" points="160.02,-118.67 161.54,-108.19 153.82,-115.44 160.02,-118.67"/>
</g>
<!-- container -->
<g id="node5" class="node">
<title>container</title>
<g id="a_node5"><a xlink:href="PsyllaReference_Types.xhtml#PsyllaReference_Types_Details_container" xlink:title="container" target="_parent">
<polygon fill="linen" stroke="black" points="326.5,-180 248.5,-180 248.5,-144 332.5,-144 332.5,-174 326.5,-180"/>
<polyline fill="none" stroke="black" points="326.5,-180 326.5,-174 "/>
<polyline fill="none" stroke="black" points="332.5,-174 326.5,-174 "/>
<text text-anchor="middle" x="290.5" y="-158.9" font-family="Consolas, monospace" font-size="12.00">container</text>
</a>
</g>
</g>
<!-- container&#45;&gt;formalarray -->
<g id="edge4" class="edge">
<title>container&#45;&gt;formalarray</title>
<path fill="none" stroke="black" d="M261.14,-143.88C245.45,-134.72 225.94,-123.34 209.05,-113.48"/>
<polygon fill="black" stroke="black" points="210.37,-110.21 199.97,-108.19 206.84,-116.25 210.37,-110.21"/>
</g>
<!-- indexed -->
<g id="node6" class="node">
<title>indexed</title>
<g id="a_node6"><a xlink:href="PsyllaReference_Types.xhtml#PsyllaReference_Types_Details_indexed" xlink:title="indexed" target="_parent">
<polygon fill="linen" stroke="black" points="63,-180 0,-180 0,-144 69,-144 69,-174 63,-180"/>
<polyline fill="none" stroke="black" points="63,-180 63,-174 "/>
<polyline fill="none" stroke="black" points="69,-174 63,-174 "/>
<text text-anchor="middle" x="34.5" y="-158.9" font-family="Consolas, monospace" font-size="12.00">indexed</text>
</a>
</g>
</g>
<!-- indexed&#45;&gt;formalarray -->
<g id="edge5" class="edge">
<title>indexed&#45;&gt;formalarray</title>
<path fill="none" stroke="black" d="M67.77,-143.88C85.96,-134.51 108.69,-122.81 128.14,-112.8"/>
<polygon fill="black" stroke="black" points="129.81,-115.88 137.1,-108.19 126.61,-109.65 129.81,-115.88"/>
</g>
<!-- sequential -->
<g id="node7" class="node">
<title>sequential</title>
<g id="a_node7"><a xlink:href="PsyllaReference_Types.xhtml#PsyllaReference_Types_Details_sequential" xlink:title="sequential" target="_parent">
<polygon fill="linen" stroke="black" points="275.5,-396 189.5,-396 189.5,-360 281.5,-360 281.5,-390 275.5,-396"/>
<polyline fill="none" stroke="black" points="275.5,-396 275.5,-390 "/>
<polyline fill="none" stroke="black" points="281.5,-390 275.5,-390 "/>
<text text-anchor="middle" x="235.5" y="-374.9" font-family="Consolas, monospace" font-size="12.00">sequential</text>
</a>
</g>
</g>
<!-- sequential&#45;&gt;formalarray -->
<g id="edge6" class="edge">
<title>sequential&#45;&gt;formalarray</title>
<path fill="none" stroke="black" d="M210.39,-359.84C199.12,-350.64 186.93,-338.27 180.5,-324 149.47,-255.14 158.35,-162.91 165.46,-117.94"/>
<polygon fill="black" stroke="black" points="168.91,-118.51 167.11,-108.07 162.01,-117.36 168.91,-118.51"/>
</g>
<!-- streamable -->
<g id="node13" class="node">
<title>streamable</title>
<g id="a_node13"><a xlink:href="PsyllaReference_Types.xhtml#PsyllaReference_Types_Details_streamable" xlink:title="streamable" target="_parent">
<polygon fill="linen" stroke="black" points="275.5,-324 189.5,-324 189.5,-288 281.5,-288 281.5,-318 275.5,-324"/>
<polyline fill="none" stroke="black" points="275.5,-324 275.5,-318 "/>
<polyline fill="none" stroke="black" points="281.5,-318 275.5,-318 "/>
<text text-anchor="middle" x="235.5" y="-302.9" font-family="Consolas, monospace" font-size="12.00">streamable</text>
</a>
</g>
</g>
<!-- sequential&#45;&gt;streamable -->
<g id="edge18" class="edge">
<title>sequential&#45;&gt;streamable</title>
<path fill="none" stroke="black" d="M235.5,-359.7C235.5,-351.98 235.5,-342.71 235.5,-334.11"/>
<polygon fill="black" stroke="black" points="239,-334.1 235.5,-324.1 232,-334.1 239,-334.1"/>
</g>
<!-- logical -->
<g id="node8" class="node">
<title>logical</title>
<g id="a_node8"><a xlink:href="PsyllaReference_Types.xhtml#PsyllaReference_Types_Details_logical" xlink:title="logical" target="_parent">
<polygon fill="linen" stroke="black" points="503,-396 440,-396 440,-360 509,-360 509,-390 503,-396"/>
<polyline fill="none" stroke="black" points="503,-396 503,-390 "/>
<polyline fill="none" stroke="black" points="509,-390 503,-390 "/>
<text text-anchor="middle" x="474.5" y="-374.9" font-family="Consolas, monospace" font-size="12.00">logical</text>
</a>
</g>
</g>
<!-- logical&#45;&gt;bitwise -->
<g id="edge7" class="edge">
<title>logical&#45;&gt;bitwise</title>
<path fill="none" stroke="black" d="M473.32,-359.52C470.82,-329.35 463.59,-265.93 444.5,-216 430.36,-179.03 405.27,-140.74 387.8,-116.44"/>
<polygon fill="black" stroke="black" points="390.47,-114.16 381.74,-108.15 384.82,-118.29 390.47,-114.16"/>
</g>
<!-- object -->
<g id="node9" class="node">
<title>object</title>
<g id="a_node9"><a xlink:href="PsyllaReference_Types.xhtml#PsyllaReference_Types_Details_object" xlink:title="object" target="_parent">
<polygon fill="linen" stroke="black" points="313.5,-468 257.5,-468 257.5,-432 319.5,-432 319.5,-462 313.5,-468"/>
<polyline fill="none" stroke="black" points="313.5,-468 313.5,-462 "/>
<polyline fill="none" stroke="black" points="319.5,-462 313.5,-462 "/>
<text text-anchor="middle" x="288.5" y="-446.9" font-family="Consolas, monospace" font-size="12.00">object</text>
</a>
</g>
</g>
<!-- object&#45;&gt;appendable -->
<g id="edge8" class="edge">
<title>object&#45;&gt;appendable</title>
<path fill="none" stroke="black" d="M257.42,-439.68C233.95,-431.34 202.18,-417.15 180.5,-396 141.23,-357.69 116.54,-297.08 104.75,-262.18"/>
<polygon fill="black" stroke="black" points="107.93,-260.65 101.5,-252.23 101.28,-262.82 107.93,-260.65"/>
</g>
<!-- object&#45;&gt;indexed -->
<g id="edge12" class="edge">
<title>object&#45;&gt;indexed</title>
<path fill="none" stroke="black" d="M257.35,-442.6C227.21,-435.23 181.37,-420.82 148.5,-396 84.87,-347.95 69.5,-326.66 41.5,-252 34.07,-232.2 32.58,-208.22 32.8,-190.14"/>
<polygon fill="black" stroke="black" points="36.3,-190.1 33.1,-180 29.3,-189.89 36.3,-190.1"/>
</g>
<!-- object&#45;&gt;sequential -->
<g id="edge13" class="edge">
<title>object&#45;&gt;sequential</title>
<path fill="none" stroke="black" d="M275.4,-431.7C269.11,-423.39 261.45,-413.28 254.54,-404.14"/>
<polygon fill="black" stroke="black" points="257.28,-401.96 248.45,-396.1 251.7,-406.19 257.28,-401.96"/>
</g>
<!-- object&#45;&gt;logical -->
<g id="edge14" class="edge">
<title>object&#45;&gt;logical</title>
<path fill="none" stroke="black" d="M319.63,-437.28C349.85,-425.91 396.01,-408.54 430.07,-395.72"/>
<polygon fill="black" stroke="black" points="431.66,-398.86 439.78,-392.07 429.19,-392.31 431.66,-398.86"/>
</g>
<!-- clearable -->
<g id="node10" class="node">
<title>clearable</title>
<g id="a_node10"><a xlink:href="PsyllaReference_Types.xhtml#PsyllaReference_Types_Details_clearable" xlink:title="clearable" target="_parent">
<polygon fill="linen" stroke="black" points="377.5,-324 299.5,-324 299.5,-288 383.5,-288 383.5,-318 377.5,-324"/>
<polyline fill="none" stroke="black" points="377.5,-324 377.5,-318 "/>
<polyline fill="none" stroke="black" points="383.5,-318 377.5,-318 "/>
<text text-anchor="middle" x="341.5" y="-302.9" font-family="Consolas, monospace" font-size="12.00">clearable</text>
</a>
</g>
</g>
<!-- object&#45;&gt;clearable -->
<g id="edge15" class="edge">
<title>object&#45;&gt;clearable</title>
<path fill="none" stroke="black" d="M294.89,-431.87C304.01,-407.46 320.81,-362.43 331.56,-333.64"/>
<polygon fill="black" stroke="black" points="334.87,-334.78 335.08,-324.19 328.31,-332.33 334.87,-334.78"/>
</g>
<!-- lengthy -->
<g id="node12" class="node">
<title>lengthy</title>
<g id="a_node12"><a xlink:href="PsyllaReference_Types.xhtml#PsyllaReference_Types_Details_lengthy" xlink:title="lengthy" target="_parent">
<polygon fill="linen" stroke="black" points="430,-252 367,-252 367,-216 436,-216 436,-246 430,-252"/>
<polyline fill="none" stroke="black" points="430,-252 430,-246 "/>
<polyline fill="none" stroke="black" points="436,-246 430,-246 "/>
<text text-anchor="middle" x="401.5" y="-230.9" font-family="Consolas, monospace" font-size="12.00">lengthy</text>
</a>
</g>
</g>
<!-- object&#45;&gt;lengthy -->
<g id="edge17" class="edge">
<title>object&#45;&gt;lengthy</title>
<path fill="none" stroke="black" d="M308.67,-431.92C333.22,-409.81 373.71,-368.77 392.5,-324 400.7,-304.46 402.72,-280.46 402.81,-262.31"/>
<polygon fill="black" stroke="black" points="406.31,-262.07 402.67,-252.12 399.31,-262.17 406.31,-262.07"/>
</g>
<!-- clearable&#45;&gt;container -->
<g id="edge9" class="edge">
<title>clearable&#45;&gt;container</title>
<path fill="none" stroke="black" d="M335.35,-287.87C326.58,-263.46 310.41,-218.43 300.07,-189.64"/>
<polygon fill="black" stroke="black" points="303.35,-188.42 296.67,-180.19 296.76,-190.78 303.35,-188.42"/>
</g>
<!-- iterable -->
<g id="node11" class="node">
<title>iterable</title>
<g id="a_node11"><a xlink:href="PsyllaReference_Types.xhtml#PsyllaReference_Types_Details_iterable" xlink:title="iterable" target="_parent">
<polygon fill="linen" stroke="black" points="286,-252 215,-252 215,-216 292,-216 292,-246 286,-252"/>
<polyline fill="none" stroke="black" points="286,-252 286,-246 "/>
<polyline fill="none" stroke="black" points="292,-246 286,-246 "/>
<text text-anchor="middle" x="253.5" y="-230.9" font-family="Consolas, monospace" font-size="12.00">iterable</text>
</a>
</g>
</g>
<!-- iterable&#45;&gt;container -->
<g id="edge10" class="edge">
<title>iterable&#45;&gt;container</title>
<path fill="none" stroke="black" d="M262.65,-215.7C266.9,-207.64 272.06,-197.89 276.77,-188.98"/>
<polygon fill="black" stroke="black" points="279.88,-190.58 281.46,-180.1 273.69,-187.31 279.88,-190.58"/>
</g>
<!-- lengthy&#45;&gt;container -->
<g id="edge11" class="edge">
<title>lengthy&#45;&gt;container</title>
<path fill="none" stroke="black" d="M374.35,-215.88C359.97,-206.81 342.12,-195.55 326.59,-185.76"/>
<polygon fill="black" stroke="black" points="328.08,-182.56 317.76,-180.19 324.35,-188.48 328.08,-182.56"/>
</g>
<!-- streamable&#45;&gt;iterable -->
<g id="edge16" class="edge">
<title>streamable&#45;&gt;iterable</title>
<path fill="none" stroke="black" d="M239.95,-287.7C241.95,-279.9 244.37,-270.51 246.6,-261.83"/>
<polygon fill="black" stroke="black" points="250,-262.66 249.1,-252.1 243.22,-260.92 250,-262.66"/>
</g>
</g>
</svg>
