<?xml version="1.0" encoding="UTF-8" standalone="no"?>
<!DOCTYPE svg PUBLIC "-//W3C//DTD SVG 1.1//EN"
 "http://www.w3.org/Graphics/SVG/1.1/DTD/svg11.dtd">
<!-- Generated by graphviz version 2.43.0 (0)
 -->
<!-- Title: integer Pages: 1 -->
<svg width="375pt" height="548pt"
 viewBox="0.00 0.00 374.50 548.00" xmlns="http://www.w3.org/2000/svg" xmlns:xlink="http://www.w3.org/1999/xlink">
<g id="graph0" class="graph" transform="scale(1 1) rotate(0) translate(4 544)">
<title>integer</title>
<polygon fill="transparent" stroke="transparent" points="-4,4 -4,-544 370.5,-544 370.5,4 -4,4"/>
<!-- bitwise -->
<g id="node1" class="node">
<title>bitwise</title>
<g id="a_node1"><a xlink:href="PsyllaReference_Types.xhtml#PsyllaReference_Types_Details_bitwise" xlink:title="bitwise" target="_parent">
<polygon fill="linen" stroke="black" points="63,-396 0,-396 0,-360 69,-360 69,-390 63,-396"/>
<polyline fill="none" stroke="black" points="63,-396 63,-390 "/>
<polyline fill="none" stroke="black" points="69,-390 63,-390 "/>
<text text-anchor="middle" x="34.5" y="-374.9" font-family="PT Mono, monospace" font-size="12.00">bitwise</text>
</a>
</g>
</g>
<!-- integral -->
<g id="node2" class="node">
<title>integral</title>
<g id="a_node2"><a xlink:href="PsyllaReference_Types.xhtml#PsyllaReference_Types_Details_integral" xlink:title="integral" target="_parent">
<polygon fill="linen" stroke="black" points="134,-108 63,-108 63,-72 140,-72 140,-102 134,-108"/>
<polyline fill="none" stroke="black" points="134,-108 134,-102 "/>
<polyline fill="none" stroke="black" points="140,-102 134,-102 "/>
<text text-anchor="middle" x="101.5" y="-86.9" font-family="PT Mono, monospace" font-size="12.00">integral</text>
</a>
</g>
</g>
<!-- bitwise&#45;&gt;integral -->
<g id="edge4" class="edge">
<title>bitwise&#45;&gt;integral</title>
<path fill="none" stroke="black" d="M39.19,-359.85C41.98,-349.49 45.55,-336.01 48.5,-324 66.79,-249.56 86.29,-161.2 95.72,-117.79"/>
<polygon fill="black" stroke="black" points="99.15,-118.52 97.84,-108 92.3,-117.04 99.15,-118.52"/>
</g>
<!-- integer -->
<g id="node3" class="node">
<title>integer</title>
<g id="a_node3"><a xlink:href="PsyllaReference_Types.xhtml#PsyllaReference_Types_Details_integer" xlink:title="integer" target="_parent">
<polygon fill="wheat" stroke="black" points="96,-36 33,-36 33,0 102,0 102,-30 96,-36"/>
<polyline fill="none" stroke="black" points="96,-36 96,-30 "/>
<polyline fill="none" stroke="black" points="102,-30 96,-30 "/>
<text text-anchor="middle" x="67.5" y="-14.9" font-family="PT Mono, monospace" font-size="12.00">integer</text>
</a>
</g>
</g>
<!-- bitwise&#45;&gt;integer -->
<g id="edge1" class="edge">
<title>bitwise&#45;&gt;integer</title>
<path fill="none" stroke="black" d="M34.5,-359.95C34.5,-333.29 34.5,-280.11 34.5,-235 34.5,-235 34.5,-235 34.5,-161 34.5,-119.97 47.73,-73.97 57.44,-45.74"/>
<polygon fill="black" stroke="black" points="60.78,-46.78 60.82,-36.19 54.18,-44.45 60.78,-46.78"/>
</g>
<!-- integral&#45;&gt;integer -->
<g id="edge2" class="edge">
<title>integral&#45;&gt;integer</title>
<path fill="none" stroke="black" d="M93.1,-71.7C89.23,-63.73 84.55,-54.1 80.26,-45.26"/>
<polygon fill="black" stroke="black" points="83.33,-43.57 75.81,-36.1 77.03,-46.63 83.33,-43.57"/>
</g>
<!-- logical -->
<g id="node4" class="node">
<title>logical</title>
<g id="a_node4"><a xlink:href="PsyllaReference_Types.xhtml#PsyllaReference_Types_Details_logical" xlink:title="logical" target="_parent">
<polygon fill="linen" stroke="black" points="63,-468 0,-468 0,-432 69,-432 69,-462 63,-468"/>
<polyline fill="none" stroke="black" points="63,-468 63,-462 "/>
<polyline fill="none" stroke="black" points="69,-462 63,-462 "/>
<text text-anchor="middle" x="34.5" y="-446.9" font-family="PT Mono, monospace" font-size="12.00">logical</text>
</a>
</g>
</g>
<!-- logical&#45;&gt;bitwise -->
<g id="edge3" class="edge">
<title>logical&#45;&gt;bitwise</title>
<path fill="none" stroke="black" d="M34.5,-431.7C34.5,-423.98 34.5,-414.71 34.5,-406.11"/>
<polygon fill="black" stroke="black" points="38,-406.1 34.5,-396.1 31,-406.1 38,-406.1"/>
</g>
<!-- rational -->
<g id="node5" class="node">
<title>rational</title>
<g id="a_node5"><a xlink:href="PsyllaReference_Types.xhtml#PsyllaReference_Types_Details_rational" xlink:title="rational" target="_parent">
<polygon fill="linen" stroke="black" points="191,-180 120,-180 120,-144 197,-144 197,-174 191,-180"/>
<polyline fill="none" stroke="black" points="191,-180 191,-174 "/>
<polyline fill="none" stroke="black" points="197,-174 191,-174 "/>
<text text-anchor="middle" x="158.5" y="-158.9" font-family="PT Mono, monospace" font-size="12.00">rational</text>
</a>
</g>
</g>
<!-- rational&#45;&gt;integral -->
<g id="edge5" class="edge">
<title>rational&#45;&gt;integral</title>
<path fill="none" stroke="black" d="M144.41,-143.7C137.58,-135.3 129.24,-125.07 121.74,-115.86"/>
<polygon fill="black" stroke="black" points="124.46,-113.65 115.43,-108.1 119.03,-118.07 124.46,-113.65"/>
</g>
<!-- object -->
<g id="node6" class="node">
<title>object</title>
<g id="a_node6"><a xlink:href="PsyllaReference_Types.xhtml#PsyllaReference_Types_Details_object" xlink:title="object" target="_parent">
<polygon fill="linen" stroke="black" points="189.5,-540 133.5,-540 133.5,-504 195.5,-504 195.5,-534 189.5,-540"/>
<polyline fill="none" stroke="black" points="189.5,-540 189.5,-534 "/>
<polyline fill="none" stroke="black" points="195.5,-534 189.5,-534 "/>
<text text-anchor="middle" x="164.5" y="-518.9" font-family="PT Mono, monospace" font-size="12.00">object</text>
</a>
</g>
</g>
<!-- object&#45;&gt;logical -->
<g id="edge6" class="edge">
<title>object&#45;&gt;logical</title>
<path fill="none" stroke="black" d="M133.36,-504.23C115.93,-494.85 94,-483.04 75.22,-472.93"/>
<polygon fill="black" stroke="black" points="76.75,-469.78 66.29,-468.12 73.43,-475.94 76.75,-469.78"/>
</g>
<!-- scalar -->
<g id="node9" class="node">
<title>scalar</title>
<g id="a_node9"><a xlink:href="PsyllaReference_Types.xhtml#PsyllaReference_Types_Details_scalar" xlink:title="scalar" target="_parent">
<polygon fill="linen" stroke="black" points="346.5,-324 290.5,-324 290.5,-288 352.5,-288 352.5,-318 346.5,-324"/>
<polyline fill="none" stroke="black" points="346.5,-324 346.5,-318 "/>
<polyline fill="none" stroke="black" points="352.5,-318 346.5,-318 "/>
<text text-anchor="middle" x="321.5" y="-302.9" font-family="PT Mono, monospace" font-size="12.00">scalar</text>
</a>
</g>
</g>
<!-- object&#45;&gt;scalar -->
<g id="edge12" class="edge">
<title>object&#45;&gt;scalar</title>
<path fill="none" stroke="black" d="M195.89,-516.74C244.3,-509.46 333.62,-492.94 352.5,-468 382.57,-428.27 357.03,-367.6 337.86,-333.2"/>
<polygon fill="black" stroke="black" points="340.71,-331.14 332.68,-324.23 334.65,-334.64 340.71,-331.14"/>
</g>
<!-- atomic -->
<g id="node10" class="node">
<title>atomic</title>
<g id="a_node10"><a xlink:href="PsyllaReference_Types.xhtml#PsyllaReference_Types_Details_atomic" xlink:title="atomic" target="_parent">
<polygon fill="linen" stroke="black" points="143.5,-396 87.5,-396 87.5,-360 149.5,-360 149.5,-390 143.5,-396"/>
<polyline fill="none" stroke="black" points="143.5,-396 143.5,-390 "/>
<polyline fill="none" stroke="black" points="149.5,-390 143.5,-390 "/>
<text text-anchor="middle" x="118.5" y="-374.9" font-family="PT Mono, monospace" font-size="12.00">atomic</text>
</a>
</g>
</g>
<!-- object&#45;&gt;atomic -->
<g id="edge13" class="edge">
<title>object&#45;&gt;atomic</title>
<path fill="none" stroke="black" d="M142.79,-503.79C132.74,-494.41 121.86,-481.9 116.5,-468 108.88,-448.23 109.99,-424.11 112.67,-405.97"/>
<polygon fill="black" stroke="black" points="116.13,-406.51 114.38,-396.06 109.23,-405.32 116.13,-406.51"/>
</g>
<!-- additive -->
<g id="node12" class="node">
<title>additive</title>
<g id="a_node12"><a xlink:href="PsyllaReference_Types.xhtml#PsyllaReference_Types_Details_additive" xlink:title="additive" target="_parent">
<polygon fill="linen" stroke="black" points="197,-468 126,-468 126,-432 203,-432 203,-462 197,-468"/>
<polyline fill="none" stroke="black" points="197,-468 197,-462 "/>
<polyline fill="none" stroke="black" points="203,-462 197,-462 "/>
<text text-anchor="middle" x="164.5" y="-446.9" font-family="PT Mono, monospace" font-size="12.00">additive</text>
</a>
</g>
</g>
<!-- object&#45;&gt;additive -->
<g id="edge16" class="edge">
<title>object&#45;&gt;additive</title>
<path fill="none" stroke="black" d="M164.5,-503.7C164.5,-495.98 164.5,-486.71 164.5,-478.11"/>
<polygon fill="black" stroke="black" points="168,-478.1 164.5,-468.1 161,-478.1 168,-478.1"/>
</g>
<!-- multiplicative -->
<g id="node13" class="node">
<title>multiplicative</title>
<g id="a_node13"><a xlink:href="PsyllaReference_Types.xhtml#PsyllaReference_Types_Details_multiplicative" xlink:title="multiplicative" target="_parent">
<polygon fill="linen" stroke="black" points="337.5,-468 221.5,-468 221.5,-432 343.5,-432 343.5,-462 337.5,-468"/>
<polyline fill="none" stroke="black" points="337.5,-468 337.5,-462 "/>
<polyline fill="none" stroke="black" points="343.5,-462 337.5,-462 "/>
<text text-anchor="middle" x="282.5" y="-446.9" font-family="PT Mono, monospace" font-size="12.00">multiplicative</text>
</a>
</g>
</g>
<!-- object&#45;&gt;multiplicative -->
<g id="edge17" class="edge">
<title>object&#45;&gt;multiplicative</title>
<path fill="none" stroke="black" d="M193.37,-503.88C208.79,-494.72 227.98,-483.34 244.6,-473.48"/>
<polygon fill="black" stroke="black" points="246.71,-476.3 253.52,-468.19 243.14,-470.28 246.71,-476.3"/>
</g>
<!-- realnumeric -->
<g id="node7" class="node">
<title>realnumeric</title>
<g id="a_node7"><a xlink:href="PsyllaReference_Types.xhtml#PsyllaReference_Types_Details_realnumeric" xlink:title="realnumeric" target="_parent">
<polygon fill="linen" stroke="black" points="232,-252 139,-252 139,-216 238,-216 238,-246 232,-252"/>
<polyline fill="none" stroke="black" points="232,-252 232,-246 "/>
<polyline fill="none" stroke="black" points="238,-246 232,-246 "/>
<text text-anchor="middle" x="188.5" y="-230.9" font-family="PT Mono, monospace" font-size="12.00">realnumeric</text>
</a>
</g>
</g>
<!-- realnumeric&#45;&gt;rational -->
<g id="edge7" class="edge">
<title>realnumeric&#45;&gt;rational</title>
<path fill="none" stroke="black" d="M181.08,-215.7C177.71,-207.81 173.63,-198.3 169.88,-189.55"/>
<polygon fill="black" stroke="black" points="172.99,-187.92 165.83,-180.1 166.55,-190.67 172.99,-187.92"/>
</g>
<!-- numeric -->
<g id="node8" class="node">
<title>numeric</title>
<g id="a_node8"><a xlink:href="PsyllaReference_Types.xhtml#PsyllaReference_Types_Details_numeric" xlink:title="numeric" target="_parent">
<polygon fill="linen" stroke="black" points="217,-324 154,-324 154,-288 223,-288 223,-318 217,-324"/>
<polyline fill="none" stroke="black" points="217,-324 217,-318 "/>
<polyline fill="none" stroke="black" points="223,-318 217,-318 "/>
<text text-anchor="middle" x="188.5" y="-302.9" font-family="PT Mono, monospace" font-size="12.00">numeric</text>
</a>
</g>
</g>
<!-- numeric&#45;&gt;realnumeric -->
<g id="edge8" class="edge">
<title>numeric&#45;&gt;realnumeric</title>
<path fill="none" stroke="black" d="M188.5,-287.7C188.5,-279.98 188.5,-270.71 188.5,-262.11"/>
<polygon fill="black" stroke="black" points="192,-262.1 188.5,-252.1 185,-262.1 192,-262.1"/>
</g>
<!-- scalar&#45;&gt;realnumeric -->
<g id="edge9" class="edge">
<title>scalar&#45;&gt;realnumeric</title>
<path fill="none" stroke="black" d="M290.32,-288.59C272.29,-279.1 249.38,-267.04 229.86,-256.77"/>
<polygon fill="black" stroke="black" points="231.36,-253.6 220.88,-252.04 228.1,-259.79 231.36,-253.6"/>
</g>
<!-- atomic&#45;&gt;numeric -->
<g id="edge10" class="edge">
<title>atomic&#45;&gt;numeric</title>
<path fill="none" stroke="black" d="M135.8,-359.7C144.36,-351.14 154.84,-340.66 164.2,-331.3"/>
<polygon fill="black" stroke="black" points="166.8,-333.65 171.4,-324.1 161.85,-328.7 166.8,-333.65"/>
</g>
<!-- arithmetic -->
<g id="node11" class="node">
<title>arithmetic</title>
<g id="a_node11"><a xlink:href="PsyllaReference_Types.xhtml#PsyllaReference_Types_Details_arithmetic" xlink:title="arithmetic" target="_parent">
<polygon fill="linen" stroke="black" points="253.5,-396 167.5,-396 167.5,-360 259.5,-360 259.5,-390 253.5,-396"/>
<polyline fill="none" stroke="black" points="253.5,-396 253.5,-390 "/>
<polyline fill="none" stroke="black" points="259.5,-390 253.5,-390 "/>
<text text-anchor="middle" x="213.5" y="-374.9" font-family="PT Mono, monospace" font-size="12.00">arithmetic</text>
</a>
</g>
</g>
<!-- arithmetic&#45;&gt;numeric -->
<g id="edge11" class="edge">
<title>arithmetic&#45;&gt;numeric</title>
<path fill="none" stroke="black" d="M207.32,-359.7C204.5,-351.81 201.11,-342.3 197.98,-333.55"/>
<polygon fill="black" stroke="black" points="201.27,-332.34 194.61,-324.1 194.68,-334.7 201.27,-332.34"/>
</g>
<!-- additive&#45;&gt;arithmetic -->
<g id="edge14" class="edge">
<title>additive&#45;&gt;arithmetic</title>
<path fill="none" stroke="black" d="M176.61,-431.7C182.37,-423.47 189.36,-413.48 195.71,-404.42"/>
<polygon fill="black" stroke="black" points="198.66,-406.3 201.53,-396.1 192.92,-402.29 198.66,-406.3"/>
</g>
<!-- multiplicative&#45;&gt;arithmetic -->
<g id="edge15" class="edge">
<title>multiplicative&#45;&gt;arithmetic</title>
<path fill="none" stroke="black" d="M265.44,-431.7C257,-423.14 246.68,-412.66 237.46,-403.3"/>
<polygon fill="black" stroke="black" points="239.87,-400.77 230.36,-396.1 234.89,-405.68 239.87,-400.77"/>
</g>
</g>
</svg>
