<?xml version="1.0" encoding="UTF-8" standalone="no"?>
<!DOCTYPE svg PUBLIC "-//W3C//DTD SVG 1.1//EN"
 "http://www.w3.org/Graphics/SVG/1.1/DTD/svg11.dtd">
<!-- Generated by graphviz version 2.43.0 (0)
 -->
<!-- Title: streamable Pages: 1 -->
<svg width="100pt" height="188pt"
 viewBox="0.00 0.00 100.00 188.00" xmlns="http://www.w3.org/2000/svg" xmlns:xlink="http://www.w3.org/1999/xlink">
<g id="graph0" class="graph" transform="scale(1 1) rotate(0) translate(4 184)">
<title>streamable</title>
<polygon fill="transparent" stroke="transparent" points="-4,4 -4,-184 96,-184 96,4 -4,4"/>
<!-- sequential -->
<g id="node1" class="node">
<title>sequential</title>
<g id="a_node1"><a xlink:href="PsyllaReference_Types.xhtml#PsyllaReference_Types_Details_sequential" xlink:title="sequential" target="_parent">
<polygon fill="linen" stroke="black" points="86,-108 0,-108 0,-72 92,-72 92,-102 86,-108"/>
<polyline fill="none" stroke="black" points="86,-108 86,-102 "/>
<polyline fill="none" stroke="black" points="92,-102 86,-102 "/>
<text text-anchor="middle" x="46" y="-86.9" font-family="Consolas, monospace" font-size="12.00">sequential</text>
</a>
</g>
</g>
<!-- streamable -->
<g id="node2" class="node">
<title>streamable</title>
<g id="a_node2"><a xlink:href="PsyllaReference_Types.xhtml#PsyllaReference_Types_Details_streamable" xlink:title="streamable" target="_parent">
<polygon fill="wheat" stroke="black" points="86,-36 0,-36 0,0 92,0 92,-30 86,-36"/>
<polyline fill="none" stroke="black" points="86,-36 86,-30 "/>
<polyline fill="none" stroke="black" points="92,-30 86,-30 "/>
<text text-anchor="middle" x="46" y="-14.9" font-family="Consolas, monospace" font-size="12.00">streamable</text>
</a>
</g>
</g>
<!-- sequential&#45;&gt;streamable -->
<g id="edge1" class="edge">
<title>sequential&#45;&gt;streamable</title>
<path fill="none" stroke="black" d="M46,-71.7C46,-63.98 46,-54.71 46,-46.11"/>
<polygon fill="black" stroke="black" points="49.5,-46.1 46,-36.1 42.5,-46.1 49.5,-46.1"/>
</g>
<!-- object -->
<g id="node3" class="node">
<title>object</title>
<g id="a_node3"><a xlink:href="PsyllaReference_Types.xhtml#PsyllaReference_Types_Details_object" xlink:title="object" target="_parent">
<polygon fill="linen" stroke="black" points="71,-180 15,-180 15,-144 77,-144 77,-174 71,-180"/>
<polyline fill="none" stroke="black" points="71,-180 71,-174 "/>
<polyline fill="none" stroke="black" points="77,-174 71,-174 "/>
<text text-anchor="middle" x="46" y="-158.9" font-family="Consolas, monospace" font-size="12.00">object</text>
</a>
</g>
</g>
<!-- object&#45;&gt;sequential -->
<g id="edge2" class="edge">
<title>object&#45;&gt;sequential</title>
<path fill="none" stroke="black" d="M46,-143.7C46,-135.98 46,-126.71 46,-118.11"/>
<polygon fill="black" stroke="black" points="49.5,-118.1 46,-108.1 42.5,-118.1 49.5,-118.1"/>
</g>
</g>
</svg>
