<?xml version="1.0" encoding="UTF-8" standalone="no"?>
<!DOCTYPE svg PUBLIC "-//W3C//DTD SVG 1.1//EN"
 "http://www.w3.org/Graphics/SVG/1.1/DTD/svg11.dtd">
<!-- Generated by graphviz version 2.49.3 (0)
 -->
<!-- Title: dict Pages: 1 -->
<svg width="312pt" height="476pt"
 viewBox="0.00 0.00 312.00 476.00" xmlns="http://www.w3.org/2000/svg" xmlns:xlink="http://www.w3.org/1999/xlink">
<g id="graph0" class="graph" transform="scale(1 1) rotate(0) translate(4 472)">
<title>dict</title>
<polygon fill="transparent" stroke="transparent" points="-4,4 -4,-472 308,-472 308,4 -4,4"/>
<!-- formaldict -->
<g id="node1" class="node">
<title>formaldict</title>
<g id="a_node1"><a xlink:href="PsyllaReference_Types.xhtml#PsyllaReference_Types_Details_formaldict" xlink:title="formaldict" target="_parent">
<polygon fill="linen" stroke="black" points="108.98,-108 49.02,-108 49.02,-72 114.98,-72 114.98,-102 108.98,-108"/>
<polyline fill="none" stroke="black" points="108.98,-108 108.98,-102 "/>
<polyline fill="none" stroke="black" points="114.98,-102 108.98,-102 "/>
<text text-anchor="middle" x="82" y="-86.4" font-family="Source Code Pro,monospace" font-size="12.00">formaldict</text>
</a>
</g>
</g>
<!-- dict -->
<g id="node2" class="node">
<title>dict</title>
<g id="a_node2"><a xlink:href="PsyllaReference_Types.xhtml#PsyllaReference_Types_Details_dict" xlink:title="dict" target="_parent">
<polygon fill="wheat" stroke="black" points="103,-36 55,-36 55,0 109,0 109,-30 103,-36"/>
<polyline fill="none" stroke="black" points="103,-36 103,-30 "/>
<polyline fill="none" stroke="black" points="109,-30 103,-30 "/>
<text text-anchor="middle" x="82" y="-14.4" font-family="Source Code Pro,monospace" font-size="12.00">dict</text>
</a>
</g>
</g>
<!-- formaldict&#45;&gt;dict -->
<g id="edge1" class="edge">
<title>formaldict&#45;&gt;dict</title>
<path fill="none" stroke="black" d="M82,-71.7C82,-63.98 82,-54.71 82,-46.11"/>
<polygon fill="black" stroke="black" points="85.5,-46.1 82,-36.1 78.5,-46.1 85.5,-46.1"/>
</g>
<!-- container -->
<g id="node3" class="node">
<title>container</title>
<g id="a_node3"><a xlink:href="PsyllaReference_Types.xhtml#PsyllaReference_Types_Details_container" xlink:title="container" target="_parent">
<polygon fill="linen" stroke="black" points="212.15,-180 157.85,-180 157.85,-144 218.15,-144 218.15,-174 212.15,-180"/>
<polyline fill="none" stroke="black" points="212.15,-180 212.15,-174 "/>
<polyline fill="none" stroke="black" points="218.15,-174 212.15,-174 "/>
<text text-anchor="middle" x="188" y="-158.4" font-family="Source Code Pro,monospace" font-size="12.00">container</text>
</a>
</g>
</g>
<!-- container&#45;&gt;formaldict -->
<g id="edge2" class="edge">
<title>container&#45;&gt;formaldict</title>
<path fill="none" stroke="black" d="M162.07,-143.88C148.34,-134.81 131.29,-123.55 116.46,-113.76"/>
<polygon fill="black" stroke="black" points="118.3,-110.78 108.03,-108.19 114.45,-116.62 118.3,-110.78"/>
</g>
<!-- indexed -->
<g id="node4" class="node">
<title>indexed</title>
<g id="a_node4"><a xlink:href="PsyllaReference_Types.xhtml#PsyllaReference_Types_Details_indexed" xlink:title="indexed" target="_parent">
<polygon fill="linen" stroke="black" points="48,-252 0,-252 0,-216 54,-216 54,-246 48,-252"/>
<polyline fill="none" stroke="black" points="48,-252 48,-246 "/>
<polyline fill="none" stroke="black" points="54,-246 48,-246 "/>
<text text-anchor="middle" x="27" y="-230.4" font-family="Source Code Pro,monospace" font-size="12.00">indexed</text>
</a>
</g>
</g>
<!-- indexed&#45;&gt;formaldict -->
<g id="edge3" class="edge">
<title>indexed&#45;&gt;formaldict</title>
<path fill="none" stroke="black" d="M33.63,-215.87C43.09,-191.46 60.53,-146.43 71.68,-117.64"/>
<polygon fill="black" stroke="black" points="74.99,-118.78 75.34,-108.19 68.47,-116.25 74.99,-118.78"/>
</g>
<!-- sequential -->
<g id="node5" class="node">
<title>sequential</title>
<g id="a_node5"><a xlink:href="PsyllaReference_Types.xhtml#PsyllaReference_Types_Details_sequential" xlink:title="sequential" target="_parent">
<polygon fill="linen" stroke="black" points="170.15,-396 111.85,-396 111.85,-360 176.15,-360 176.15,-390 170.15,-396"/>
<polyline fill="none" stroke="black" points="170.15,-396 170.15,-390 "/>
<polyline fill="none" stroke="black" points="176.15,-390 170.15,-390 "/>
<text text-anchor="middle" x="144" y="-374.4" font-family="Source Code Pro,monospace" font-size="12.00">sequential</text>
</a>
</g>
</g>
<!-- sequential&#45;&gt;formaldict -->
<g id="edge4" class="edge">
<title>sequential&#45;&gt;formaldict</title>
<path fill="none" stroke="black" d="M125.41,-359.67C116.4,-350.08 106.38,-337.42 101,-324 72.94,-254.05 75.59,-162.99 79.16,-118.24"/>
<polygon fill="black" stroke="black" points="82.66,-118.43 80.05,-108.16 75.69,-117.81 82.66,-118.43"/>
</g>
<!-- streamable -->
<g id="node10" class="node">
<title>streamable</title>
<g id="a_node10"><a xlink:href="PsyllaReference_Types.xhtml#PsyllaReference_Types_Details_streamable" xlink:title="streamable" target="_parent">
<polygon fill="linen" stroke="black" points="171.97,-324 110.03,-324 110.03,-288 177.97,-288 177.97,-318 171.97,-324"/>
<polyline fill="none" stroke="black" points="171.97,-324 171.97,-318 "/>
<polyline fill="none" stroke="black" points="177.97,-318 171.97,-318 "/>
<text text-anchor="middle" x="144" y="-302.4" font-family="Source Code Pro,monospace" font-size="12.00">streamable</text>
</a>
</g>
</g>
<!-- sequential&#45;&gt;streamable -->
<g id="edge13" class="edge">
<title>sequential&#45;&gt;streamable</title>
<path fill="none" stroke="black" d="M144,-359.7C144,-351.98 144,-342.71 144,-334.11"/>
<polygon fill="black" stroke="black" points="147.5,-334.1 144,-324.1 140.5,-334.1 147.5,-334.1"/>
</g>
<!-- clearable -->
<g id="node6" class="node">
<title>clearable</title>
<g id="a_node6"><a xlink:href="PsyllaReference_Types.xhtml#PsyllaReference_Types_Details_clearable" xlink:title="clearable" target="_parent">
<polygon fill="linen" stroke="black" points="249.8,-324 196.2,-324 196.2,-288 255.8,-288 255.8,-318 249.8,-324"/>
<polyline fill="none" stroke="black" points="249.8,-324 249.8,-318 "/>
<polyline fill="none" stroke="black" points="255.8,-318 249.8,-318 "/>
<text text-anchor="middle" x="226" y="-302.4" font-family="Source Code Pro,monospace" font-size="12.00">clearable</text>
</a>
</g>
</g>
<!-- clearable&#45;&gt;container -->
<g id="edge5" class="edge">
<title>clearable&#45;&gt;container</title>
<path fill="none" stroke="black" d="M221.42,-287.87C214.91,-263.56 202.94,-218.82 195.23,-190.01"/>
<polygon fill="black" stroke="black" points="198.57,-188.94 192.6,-180.19 191.8,-190.75 198.57,-188.94"/>
</g>
<!-- iterable -->
<g id="node7" class="node">
<title>iterable</title>
<g id="a_node7"><a xlink:href="PsyllaReference_Types.xhtml#PsyllaReference_Types_Details_iterable" xlink:title="iterable" target="_parent">
<polygon fill="linen" stroke="black" points="178,-252 130,-252 130,-216 184,-216 184,-246 178,-252"/>
<polyline fill="none" stroke="black" points="178,-252 178,-246 "/>
<polyline fill="none" stroke="black" points="184,-246 178,-246 "/>
<text text-anchor="middle" x="157" y="-230.4" font-family="Source Code Pro,monospace" font-size="12.00">iterable</text>
</a>
</g>
</g>
<!-- iterable&#45;&gt;container -->
<g id="edge6" class="edge">
<title>iterable&#45;&gt;container</title>
<path fill="none" stroke="black" d="M164.66,-215.7C168.19,-207.73 172.46,-198.1 176.37,-189.26"/>
<polygon fill="black" stroke="black" points="179.58,-190.67 180.43,-180.1 173.18,-187.83 179.58,-190.67"/>
</g>
<!-- lengthy -->
<g id="node8" class="node">
<title>lengthy</title>
<g id="a_node8"><a xlink:href="PsyllaReference_Types.xhtml#PsyllaReference_Types_Details_lengthy" xlink:title="lengthy" target="_parent">
<polygon fill="linen" stroke="black" points="298,-396 250,-396 250,-360 304,-360 304,-390 298,-396"/>
<polyline fill="none" stroke="black" points="298,-396 298,-390 "/>
<polyline fill="none" stroke="black" points="304,-390 298,-390 "/>
<text text-anchor="middle" x="277" y="-374.4" font-family="Source Code Pro,monospace" font-size="12.00">lengthy</text>
</a>
</g>
</g>
<!-- lengthy&#45;&gt;container -->
<g id="edge7" class="edge">
<title>lengthy&#45;&gt;container</title>
<path fill="none" stroke="black" d="M276.77,-359.78C276.05,-341.48 273.51,-311.95 265,-288 251.78,-250.78 226.35,-212.82 208.34,-188.65"/>
<polygon fill="black" stroke="black" points="210.9,-186.24 202.07,-180.4 205.33,-190.48 210.9,-186.24"/>
</g>
<!-- object -->
<g id="node9" class="node">
<title>object</title>
<g id="a_node9"><a xlink:href="PsyllaReference_Types.xhtml#PsyllaReference_Types_Details_object" xlink:title="object" target="_parent">
<polygon fill="linen" stroke="black" points="195,-468 147,-468 147,-432 201,-432 201,-462 195,-468"/>
<polyline fill="none" stroke="black" points="195,-468 195,-462 "/>
<polyline fill="none" stroke="black" points="201,-462 195,-462 "/>
<text text-anchor="middle" x="174" y="-446.4" font-family="Source Code Pro,monospace" font-size="12.00">object</text>
</a>
</g>
</g>
<!-- object&#45;&gt;indexed -->
<g id="edge8" class="edge">
<title>object&#45;&gt;indexed</title>
<path fill="none" stroke="black" d="M146.88,-433.21C132.47,-423.8 115.25,-410.82 103,-396 68.9,-354.77 46.17,-295.69 35.02,-261.75"/>
<polygon fill="black" stroke="black" points="38.31,-260.53 31.93,-252.07 31.64,-262.66 38.31,-260.53"/>
</g>
<!-- object&#45;&gt;sequential -->
<g id="edge9" class="edge">
<title>object&#45;&gt;sequential</title>
<path fill="none" stroke="black" d="M166.58,-431.7C163.21,-423.81 159.13,-414.3 155.38,-405.55"/>
<polygon fill="black" stroke="black" points="158.49,-403.92 151.33,-396.1 152.05,-406.67 158.49,-403.92"/>
</g>
<!-- object&#45;&gt;clearable -->
<g id="edge10" class="edge">
<title>object&#45;&gt;clearable</title>
<path fill="none" stroke="black" d="M180.27,-431.87C189.21,-407.46 205.7,-362.43 216.25,-333.64"/>
<polygon fill="black" stroke="black" points="219.55,-334.78 219.71,-324.19 212.98,-332.38 219.55,-334.78"/>
</g>
<!-- object&#45;&gt;lengthy -->
<g id="edge12" class="edge">
<title>object&#45;&gt;lengthy</title>
<path fill="none" stroke="black" d="M199.2,-431.88C212.41,-422.89 228.79,-411.76 243.11,-402.03"/>
<polygon fill="black" stroke="black" points="245.4,-404.71 251.71,-396.19 241.47,-398.92 245.4,-404.71"/>
</g>
<!-- streamable&#45;&gt;iterable -->
<g id="edge11" class="edge">
<title>streamable&#45;&gt;iterable</title>
<path fill="none" stroke="black" d="M147.21,-287.7C148.65,-279.98 150.37,-270.71 151.96,-262.11"/>
<polygon fill="black" stroke="black" points="155.44,-262.58 153.82,-252.1 148.56,-261.3 155.44,-262.58"/>
</g>
</g>
</svg>
