<?xml version="1.0" encoding="UTF-8" standalone="no"?>
<!DOCTYPE svg PUBLIC "-//W3C//DTD SVG 1.1//EN"
 "http://www.w3.org/Graphics/SVG/1.1/DTD/svg11.dtd">
<!-- Generated by graphviz version 2.43.0 (0)
 -->
<!-- Title: formaldict Pages: 1 -->
<svg width="382pt" height="404pt"
 viewBox="0.00 0.00 382.00 404.00" xmlns="http://www.w3.org/2000/svg" xmlns:xlink="http://www.w3.org/1999/xlink">
<g id="graph0" class="graph" transform="scale(1 1) rotate(0) translate(4 400)">
<title>formaldict</title>
<polygon fill="transparent" stroke="transparent" points="-4,4 -4,-400 378,-400 378,4 -4,4"/>
<!-- container -->
<g id="node1" class="node">
<title>container</title>
<g id="a_node1"><a xlink:href="PsyllaReference_Types.xhtml#PsyllaReference_Types_Details_container" xlink:title="container" target="_parent">
<polygon fill="linen" stroke="black" points="265.5,-108 180.5,-108 180.5,-72 271.5,-72 271.5,-102 265.5,-108"/>
<polyline fill="none" stroke="black" points="265.5,-108 265.5,-102 "/>
<polyline fill="none" stroke="black" points="271.5,-102 265.5,-102 "/>
<text text-anchor="middle" x="226" y="-86.3" font-family="Consolas, monospace" font-size="14.00">container</text>
</a>
</g>
</g>
<!-- formaldict -->
<g id="node4" class="node">
<title>formaldict</title>
<g id="a_node4"><a xlink:href="PsyllaReference_Types.xhtml#PsyllaReference_Types_Details_formaldict" xlink:title="formaldict" target="_parent">
<polygon fill="wheat" stroke="black" points="145.5,-36 52.5,-36 52.5,0 151.5,0 151.5,-30 145.5,-36"/>
<polyline fill="none" stroke="black" points="145.5,-36 145.5,-30 "/>
<polyline fill="none" stroke="black" points="151.5,-30 145.5,-30 "/>
<text text-anchor="middle" x="102" y="-14.3" font-family="Consolas, monospace" font-size="14.00">formaldict</text>
</a>
</g>
</g>
<!-- container&#45;&gt;formaldict -->
<g id="edge1" class="edge">
<title>container&#45;&gt;formaldict</title>
<path fill="none" stroke="black" d="M195.67,-71.88C179.3,-62.64 158.92,-51.13 141.35,-41.21"/>
<polygon fill="black" stroke="black" points="142.88,-38.06 132.45,-36.19 139.44,-44.15 142.88,-38.06"/>
</g>
<!-- indexed -->
<g id="node2" class="node">
<title>indexed</title>
<g id="a_node2"><a xlink:href="PsyllaReference_Types.xhtml#PsyllaReference_Types_Details_indexed" xlink:title="indexed" target="_parent">
<polygon fill="linen" stroke="black" points="68,-252 0,-252 0,-216 74,-216 74,-246 68,-252"/>
<polyline fill="none" stroke="black" points="68,-252 68,-246 "/>
<polyline fill="none" stroke="black" points="74,-246 68,-246 "/>
<text text-anchor="middle" x="37" y="-230.3" font-family="Consolas, monospace" font-size="14.00">indexed</text>
</a>
</g>
</g>
<!-- indexed&#45;&gt;formaldict -->
<g id="edge2" class="edge">
<title>indexed&#45;&gt;formaldict</title>
<path fill="none" stroke="black" d="M42.21,-215.85C53.5,-178.68 80.3,-90.44 93.85,-45.82"/>
<polygon fill="black" stroke="black" points="97.21,-46.82 96.77,-36.23 90.51,-44.78 97.21,-46.82"/>
</g>
<!-- sequential -->
<g id="node3" class="node">
<title>sequential</title>
<g id="a_node3"><a xlink:href="PsyllaReference_Types.xhtml#PsyllaReference_Types_Details_sequential" xlink:title="sequential" target="_parent">
<polygon fill="linen" stroke="black" points="223.5,-324 130.5,-324 130.5,-288 229.5,-288 229.5,-318 223.5,-324"/>
<polyline fill="none" stroke="black" points="223.5,-324 223.5,-318 "/>
<polyline fill="none" stroke="black" points="229.5,-318 223.5,-318 "/>
<text text-anchor="middle" x="180" y="-302.3" font-family="Consolas, monospace" font-size="14.00">sequential</text>
</a>
</g>
</g>
<!-- sequential&#45;&gt;formaldict -->
<g id="edge3" class="edge">
<title>sequential&#45;&gt;formaldict</title>
<path fill="none" stroke="black" d="M153.03,-287.86C141.09,-278.75 128.15,-266.43 121,-252 87.38,-184.16 92.67,-91.47 98.01,-46.17"/>
<polygon fill="black" stroke="black" points="101.49,-46.58 99.28,-36.22 94.54,-45.7 101.49,-46.58"/>
</g>
<!-- streamable -->
<g id="node9" class="node">
<title>streamable</title>
<g id="a_node9"><a xlink:href="PsyllaReference_Types.xhtml#PsyllaReference_Types_Details_streamable" xlink:title="streamable" target="_parent">
<polygon fill="linen" stroke="black" points="223.5,-252 130.5,-252 130.5,-216 229.5,-216 229.5,-246 223.5,-252"/>
<polyline fill="none" stroke="black" points="223.5,-252 223.5,-246 "/>
<polyline fill="none" stroke="black" points="229.5,-246 223.5,-246 "/>
<text text-anchor="middle" x="180" y="-230.3" font-family="Consolas, monospace" font-size="14.00">streamable</text>
</a>
</g>
</g>
<!-- sequential&#45;&gt;streamable -->
<g id="edge12" class="edge">
<title>sequential&#45;&gt;streamable</title>
<path fill="none" stroke="black" d="M180,-287.7C180,-279.98 180,-270.71 180,-262.11"/>
<polygon fill="black" stroke="black" points="183.5,-262.1 180,-252.1 176.5,-262.1 183.5,-262.1"/>
</g>
<!-- clearable -->
<g id="node5" class="node">
<title>clearable</title>
<g id="a_node5"><a xlink:href="PsyllaReference_Types.xhtml#PsyllaReference_Types_Details_clearable" xlink:title="clearable" target="_parent">
<polygon fill="linen" stroke="black" points="316.5,-180 231.5,-180 231.5,-144 322.5,-144 322.5,-174 316.5,-180"/>
<polyline fill="none" stroke="black" points="316.5,-180 316.5,-174 "/>
<polyline fill="none" stroke="black" points="322.5,-174 316.5,-174 "/>
<text text-anchor="middle" x="277" y="-158.3" font-family="Consolas, monospace" font-size="14.00">clearable</text>
</a>
</g>
</g>
<!-- clearable&#45;&gt;container -->
<g id="edge4" class="edge">
<title>clearable&#45;&gt;container</title>
<path fill="none" stroke="black" d="M264.39,-143.7C258.4,-135.47 251.12,-125.48 244.52,-116.42"/>
<polygon fill="black" stroke="black" points="247.18,-114.13 238.46,-108.1 241.52,-118.25 247.18,-114.13"/>
</g>
<!-- iterable -->
<g id="node6" class="node">
<title>iterable</title>
<g id="a_node6"><a xlink:href="PsyllaReference_Types.xhtml#PsyllaReference_Types_Details_iterable" xlink:title="iterable" target="_parent">
<polygon fill="linen" stroke="black" points="207.5,-180 130.5,-180 130.5,-144 213.5,-144 213.5,-174 207.5,-180"/>
<polyline fill="none" stroke="black" points="207.5,-180 207.5,-174 "/>
<polyline fill="none" stroke="black" points="213.5,-174 207.5,-174 "/>
<text text-anchor="middle" x="172" y="-158.3" font-family="Consolas, monospace" font-size="14.00">iterable</text>
</a>
</g>
</g>
<!-- iterable&#45;&gt;container -->
<g id="edge5" class="edge">
<title>iterable&#45;&gt;container</title>
<path fill="none" stroke="black" d="M185.35,-143.7C191.76,-135.39 199.56,-125.28 206.61,-116.14"/>
<polygon fill="black" stroke="black" points="209.47,-118.16 212.81,-108.1 203.93,-113.88 209.47,-118.16"/>
</g>
<!-- lengthy -->
<g id="node7" class="node">
<title>lengthy</title>
<g id="a_node7"><a xlink:href="PsyllaReference_Types.xhtml#PsyllaReference_Types_Details_lengthy" xlink:title="lengthy" target="_parent">
<polygon fill="linen" stroke="black" points="368,-324 300,-324 300,-288 374,-288 374,-318 368,-324"/>
<polyline fill="none" stroke="black" points="368,-324 368,-318 "/>
<polyline fill="none" stroke="black" points="374,-318 368,-318 "/>
<text text-anchor="middle" x="337" y="-302.3" font-family="Consolas, monospace" font-size="14.00">lengthy</text>
</a>
</g>
</g>
<!-- lengthy&#45;&gt;container -->
<g id="edge6" class="edge">
<title>lengthy&#45;&gt;container</title>
<path fill="none" stroke="black" d="M341.61,-287.83C348.99,-256.46 359.84,-188.97 331,-144 319.59,-126.21 300.24,-114.14 281.24,-106.07"/>
<polygon fill="black" stroke="black" points="282.26,-102.72 271.67,-102.32 279.7,-109.23 282.26,-102.72"/>
</g>
<!-- object -->
<g id="node8" class="node">
<title>object</title>
<g id="a_node8"><a xlink:href="PsyllaReference_Types.xhtml#PsyllaReference_Types_Details_object" xlink:title="object" target="_parent">
<polygon fill="linen" stroke="black" points="255,-396 195,-396 195,-360 261,-360 261,-390 255,-396"/>
<polyline fill="none" stroke="black" points="255,-396 255,-390 "/>
<polyline fill="none" stroke="black" points="261,-390 255,-390 "/>
<text text-anchor="middle" x="228" y="-374.3" font-family="Consolas, monospace" font-size="14.00">object</text>
</a>
</g>
</g>
<!-- object&#45;&gt;indexed -->
<g id="edge7" class="edge">
<title>object&#45;&gt;indexed</title>
<path fill="none" stroke="black" d="M194.93,-364.24C172.87,-354.89 143.83,-340.89 121,-324 96.16,-305.61 72.42,-279.38 56.56,-260.16"/>
<polygon fill="black" stroke="black" points="59.07,-257.7 50.06,-252.14 53.63,-262.11 59.07,-257.7"/>
</g>
<!-- object&#45;&gt;sequential -->
<g id="edge8" class="edge">
<title>object&#45;&gt;sequential</title>
<path fill="none" stroke="black" d="M216.13,-359.7C210.5,-351.47 203.65,-341.48 197.43,-332.42"/>
<polygon fill="black" stroke="black" points="200.27,-330.37 191.73,-324.1 194.5,-334.33 200.27,-330.37"/>
</g>
<!-- object&#45;&gt;clearable -->
<g id="edge9" class="edge">
<title>object&#45;&gt;clearable</title>
<path fill="none" stroke="black" d="M231.93,-359.85C240.42,-322.75 260.56,-234.81 270.79,-190.1"/>
<polygon fill="black" stroke="black" points="274.23,-190.76 273.05,-180.23 267.41,-189.2 274.23,-190.76"/>
</g>
<!-- object&#45;&gt;lengthy -->
<g id="edge11" class="edge">
<title>object&#45;&gt;lengthy</title>
<path fill="none" stroke="black" d="M254.66,-359.88C268.78,-350.81 286.31,-339.55 301.56,-329.76"/>
<polygon fill="black" stroke="black" points="303.71,-332.54 310.23,-324.19 299.93,-326.65 303.71,-332.54"/>
</g>
<!-- streamable&#45;&gt;iterable -->
<g id="edge10" class="edge">
<title>streamable&#45;&gt;iterable</title>
<path fill="none" stroke="black" d="M178.02,-215.7C177.14,-207.98 176.08,-198.71 175.1,-190.11"/>
<polygon fill="black" stroke="black" points="178.57,-189.64 173.95,-180.1 171.61,-190.44 178.57,-189.64"/>
</g>
</g>
</svg>
