<?xml version="1.0" encoding="UTF-8" standalone="no"?>
<!DOCTYPE svg PUBLIC "-//W3C//DTD SVG 1.1//EN"
 "http://www.w3.org/Graphics/SVG/1.1/DTD/svg11.dtd">
<!-- Generated by graphviz version 2.49.3 (0)
 -->
<!-- Title: bitarray Pages: 1 -->
<svg width="429pt" height="476pt"
 viewBox="0.00 0.00 429.00 476.00" xmlns="http://www.w3.org/2000/svg" xmlns:xlink="http://www.w3.org/1999/xlink">
<g id="graph0" class="graph" transform="scale(1 1) rotate(0) translate(4 472)">
<title>bitarray</title>
<polygon fill="transparent" stroke="transparent" points="-4,4 -4,-472 425,-472 425,4 -4,4"/>
<!-- formalarray -->
<g id="node1" class="node">
<title>formalarray</title>
<g id="a_node1"><a xlink:href="PsyllaReference_Types.xhtml#PsyllaReference_Types_Details_formalarray" xlink:title="formalarray" target="_parent">
<polygon fill="linen" stroke="black" points="174.13,-108 107.87,-108 107.87,-72 180.13,-72 180.13,-102 174.13,-108"/>
<polyline fill="none" stroke="black" points="174.13,-108 174.13,-102 "/>
<polyline fill="none" stroke="black" points="180.13,-102 174.13,-102 "/>
<text text-anchor="middle" x="144" y="-86.4" font-family="Source Code Pro,monospace" font-size="12.00">formalarray</text>
</a>
</g>
</g>
<!-- bitarray -->
<g id="node3" class="node">
<title>bitarray</title>
<g id="a_node3"><a xlink:href="PsyllaReference_Types.xhtml#PsyllaReference_Types_Details_bitarray" xlink:title="bitarray" target="_parent">
<polygon fill="wheat" stroke="black" points="205,-36 157,-36 157,0 211,0 211,-30 205,-36"/>
<polyline fill="none" stroke="black" points="205,-36 205,-30 "/>
<polyline fill="none" stroke="black" points="211,-30 205,-30 "/>
<text text-anchor="middle" x="184" y="-14.4" font-family="Source Code Pro,monospace" font-size="12.00">bitarray</text>
</a>
</g>
</g>
<!-- formalarray&#45;&gt;bitarray -->
<g id="edge1" class="edge">
<title>formalarray&#45;&gt;bitarray</title>
<path fill="none" stroke="black" d="M153.89,-71.7C158.49,-63.64 164.06,-53.89 169.15,-44.98"/>
<polygon fill="black" stroke="black" points="172.3,-46.52 174.23,-36.1 166.23,-43.05 172.3,-46.52"/>
</g>
<!-- bitwise -->
<g id="node2" class="node">
<title>bitwise</title>
<g id="a_node2"><a xlink:href="PsyllaReference_Types.xhtml#PsyllaReference_Types_Details_bitwise" xlink:title="bitwise" target="_parent">
<polygon fill="linen" stroke="black" points="327,-108 279,-108 279,-72 333,-72 333,-102 327,-108"/>
<polyline fill="none" stroke="black" points="327,-108 327,-102 "/>
<polyline fill="none" stroke="black" points="333,-102 327,-102 "/>
<text text-anchor="middle" x="306" y="-86.4" font-family="Source Code Pro,monospace" font-size="12.00">bitwise</text>
</a>
</g>
</g>
<!-- bitwise&#45;&gt;bitarray -->
<g id="edge2" class="edge">
<title>bitwise&#45;&gt;bitarray</title>
<path fill="none" stroke="black" d="M278.92,-73.46C261.55,-63.5 238.79,-50.44 219.91,-39.61"/>
<polygon fill="black" stroke="black" points="221.42,-36.43 211,-34.49 217.93,-42.5 221.42,-36.43"/>
</g>
<!-- appendable -->
<g id="node4" class="node">
<title>appendable</title>
<g id="a_node4"><a xlink:href="PsyllaReference_Types.xhtml#PsyllaReference_Types_Details_appendable" xlink:title="appendable" target="_parent">
<polygon fill="linen" stroke="black" points="110.14,-252 45.86,-252 45.86,-216 116.14,-216 116.14,-246 110.14,-252"/>
<polyline fill="none" stroke="black" points="110.14,-252 110.14,-246 "/>
<polyline fill="none" stroke="black" points="116.14,-246 110.14,-246 "/>
<text text-anchor="middle" x="81" y="-230.4" font-family="Source Code Pro,monospace" font-size="12.00">appendable</text>
</a>
</g>
</g>
<!-- appendable&#45;&gt;formalarray -->
<g id="edge3" class="edge">
<title>appendable&#45;&gt;formalarray</title>
<path fill="none" stroke="black" d="M88.6,-215.87C99.43,-191.46 119.41,-146.43 132.18,-117.64"/>
<polygon fill="black" stroke="black" points="135.52,-118.75 136.37,-108.19 129.12,-115.91 135.52,-118.75"/>
</g>
<!-- container -->
<g id="node5" class="node">
<title>container</title>
<g id="a_node5"><a xlink:href="PsyllaReference_Types.xhtml#PsyllaReference_Types_Details_container" xlink:title="container" target="_parent">
<polygon fill="linen" stroke="black" points="265.15,-180 210.85,-180 210.85,-144 271.15,-144 271.15,-174 265.15,-180"/>
<polyline fill="none" stroke="black" points="265.15,-180 265.15,-174 "/>
<polyline fill="none" stroke="black" points="271.15,-174 265.15,-174 "/>
<text text-anchor="middle" x="241" y="-158.4" font-family="Source Code Pro,monospace" font-size="12.00">container</text>
</a>
</g>
</g>
<!-- container&#45;&gt;formalarray -->
<g id="edge4" class="edge">
<title>container&#45;&gt;formalarray</title>
<path fill="none" stroke="black" d="M217.02,-143.7C204.69,-134.8 189.48,-123.82 176.15,-114.2"/>
<polygon fill="black" stroke="black" points="177.86,-111.12 167.7,-108.1 173.76,-116.79 177.86,-111.12"/>
</g>
<!-- indexed -->
<g id="node6" class="node">
<title>indexed</title>
<g id="a_node6"><a xlink:href="PsyllaReference_Types.xhtml#PsyllaReference_Types_Details_indexed" xlink:title="indexed" target="_parent">
<polygon fill="linen" stroke="black" points="48,-180 0,-180 0,-144 54,-144 54,-174 48,-180"/>
<polyline fill="none" stroke="black" points="48,-180 48,-174 "/>
<polyline fill="none" stroke="black" points="54,-174 48,-174 "/>
<text text-anchor="middle" x="27" y="-158.4" font-family="Source Code Pro,monospace" font-size="12.00">indexed</text>
</a>
</g>
</g>
<!-- indexed&#45;&gt;formalarray -->
<g id="edge5" class="edge">
<title>indexed&#45;&gt;formalarray</title>
<path fill="none" stroke="black" d="M54.14,-144.76C69.77,-135.41 89.65,-123.52 106.74,-113.29"/>
<polygon fill="black" stroke="black" points="108.59,-116.26 115.38,-108.12 105,-110.25 108.59,-116.26"/>
</g>
<!-- sequential -->
<g id="node7" class="node">
<title>sequential</title>
<g id="a_node7"><a xlink:href="PsyllaReference_Types.xhtml#PsyllaReference_Types_Details_sequential" xlink:title="sequential" target="_parent">
<polygon fill="linen" stroke="black" points="225.15,-396 166.85,-396 166.85,-360 231.15,-360 231.15,-390 225.15,-396"/>
<polyline fill="none" stroke="black" points="225.15,-396 225.15,-390 "/>
<polyline fill="none" stroke="black" points="231.15,-390 225.15,-390 "/>
<text text-anchor="middle" x="199" y="-374.4" font-family="Source Code Pro,monospace" font-size="12.00">sequential</text>
</a>
</g>
</g>
<!-- sequential&#45;&gt;formalarray -->
<g id="edge6" class="edge">
<title>sequential&#45;&gt;formalarray</title>
<path fill="none" stroke="black" d="M180.25,-359.73C171.19,-350.16 161.18,-337.5 156,-324 129.05,-253.78 134.88,-162.84 140.12,-118.18"/>
<polygon fill="black" stroke="black" points="143.61,-118.48 141.38,-108.12 136.66,-117.6 143.61,-118.48"/>
</g>
<!-- streamable -->
<g id="node13" class="node">
<title>streamable</title>
<g id="a_node13"><a xlink:href="PsyllaReference_Types.xhtml#PsyllaReference_Types_Details_streamable" xlink:title="streamable" target="_parent">
<polygon fill="linen" stroke="black" points="226.97,-324 165.03,-324 165.03,-288 232.97,-288 232.97,-318 226.97,-324"/>
<polyline fill="none" stroke="black" points="226.97,-324 226.97,-318 "/>
<polyline fill="none" stroke="black" points="232.97,-318 226.97,-318 "/>
<text text-anchor="middle" x="199" y="-302.4" font-family="Source Code Pro,monospace" font-size="12.00">streamable</text>
</a>
</g>
</g>
<!-- sequential&#45;&gt;streamable -->
<g id="edge18" class="edge">
<title>sequential&#45;&gt;streamable</title>
<path fill="none" stroke="black" d="M199,-359.7C199,-351.98 199,-342.71 199,-334.11"/>
<polygon fill="black" stroke="black" points="202.5,-334.1 199,-324.1 195.5,-334.1 202.5,-334.1"/>
</g>
<!-- logical -->
<g id="node8" class="node">
<title>logical</title>
<g id="a_node8"><a xlink:href="PsyllaReference_Types.xhtml#PsyllaReference_Types_Details_logical" xlink:title="logical" target="_parent">
<polygon fill="linen" stroke="black" points="415,-396 367,-396 367,-360 421,-360 421,-390 415,-396"/>
<polyline fill="none" stroke="black" points="415,-396 415,-390 "/>
<polyline fill="none" stroke="black" points="421,-390 415,-390 "/>
<text text-anchor="middle" x="394" y="-374.4" font-family="Source Code Pro,monospace" font-size="12.00">logical</text>
</a>
</g>
</g>
<!-- logical&#45;&gt;bitwise -->
<g id="edge7" class="edge">
<title>logical&#45;&gt;bitwise</title>
<path fill="none" stroke="black" d="M393.08,-359.67C391.11,-329.73 385.25,-266.64 369,-216 357.41,-179.89 336.54,-141.35 322.01,-116.77"/>
<polygon fill="black" stroke="black" points="324.93,-114.83 316.78,-108.06 318.93,-118.44 324.93,-114.83"/>
</g>
<!-- object -->
<g id="node9" class="node">
<title>object</title>
<g id="a_node9"><a xlink:href="PsyllaReference_Types.xhtml#PsyllaReference_Types_Details_object" xlink:title="object" target="_parent">
<polygon fill="linen" stroke="black" points="261,-468 213,-468 213,-432 267,-432 267,-462 261,-468"/>
<polyline fill="none" stroke="black" points="261,-468 261,-462 "/>
<polyline fill="none" stroke="black" points="267,-462 261,-462 "/>
<text text-anchor="middle" x="240" y="-446.4" font-family="Source Code Pro,monospace" font-size="12.00">object</text>
</a>
</g>
</g>
<!-- object&#45;&gt;appendable -->
<g id="edge8" class="edge">
<title>object&#45;&gt;appendable</title>
<path fill="none" stroke="black" d="M212.91,-436.36C195.47,-427.14 173.28,-413.26 158,-396 122.45,-355.85 99.77,-296.39 88.81,-262.09"/>
<polygon fill="black" stroke="black" points="92.08,-260.82 85.78,-252.3 85.39,-262.89 92.08,-260.82"/>
</g>
<!-- object&#45;&gt;indexed -->
<g id="edge12" class="edge">
<title>object&#45;&gt;indexed</title>
<path fill="none" stroke="black" d="M212.72,-440.59C188.86,-432.2 154.32,-417.46 130,-396 72.88,-345.58 62.6,-323.76 37,-252 29.91,-232.14 27.53,-208.34 26.85,-190.36"/>
<polygon fill="black" stroke="black" points="30.35,-190.17 26.63,-180.25 23.35,-190.33 30.35,-190.17"/>
</g>
<!-- object&#45;&gt;sequential -->
<g id="edge13" class="edge">
<title>object&#45;&gt;sequential</title>
<path fill="none" stroke="black" d="M229.87,-431.7C225.15,-423.64 219.44,-413.89 214.22,-404.98"/>
<polygon fill="black" stroke="black" points="217.09,-402.96 209.02,-396.1 211.05,-406.5 217.09,-402.96"/>
</g>
<!-- object&#45;&gt;logical -->
<g id="edge14" class="edge">
<title>object&#45;&gt;logical</title>
<path fill="none" stroke="black" d="M267.18,-436.65C292.28,-425.24 329.77,-408.2 357.48,-395.6"/>
<polygon fill="black" stroke="black" points="359.18,-398.67 366.84,-391.35 356.28,-392.3 359.18,-398.67"/>
</g>
<!-- clearable -->
<g id="node10" class="node">
<title>clearable</title>
<g id="a_node10"><a xlink:href="PsyllaReference_Types.xhtml#PsyllaReference_Types_Details_clearable" xlink:title="clearable" target="_parent">
<polygon fill="linen" stroke="black" points="304.8,-324 251.2,-324 251.2,-288 310.8,-288 310.8,-318 304.8,-324"/>
<polyline fill="none" stroke="black" points="304.8,-324 304.8,-318 "/>
<polyline fill="none" stroke="black" points="310.8,-318 304.8,-318 "/>
<text text-anchor="middle" x="281" y="-302.4" font-family="Source Code Pro,monospace" font-size="12.00">clearable</text>
</a>
</g>
</g>
<!-- object&#45;&gt;clearable -->
<g id="edge15" class="edge">
<title>object&#45;&gt;clearable</title>
<path fill="none" stroke="black" d="M244.95,-431.87C251.96,-407.56 264.88,-362.82 273.2,-334.01"/>
<polygon fill="black" stroke="black" points="276.63,-334.77 276.04,-324.19 269.9,-332.83 276.63,-334.77"/>
</g>
<!-- lengthy -->
<g id="node12" class="node">
<title>lengthy</title>
<g id="a_node12"><a xlink:href="PsyllaReference_Types.xhtml#PsyllaReference_Types_Details_lengthy" xlink:title="lengthy" target="_parent">
<polygon fill="linen" stroke="black" points="354,-252 306,-252 306,-216 360,-216 360,-246 354,-252"/>
<polyline fill="none" stroke="black" points="354,-252 354,-246 "/>
<polyline fill="none" stroke="black" points="360,-246 354,-246 "/>
<text text-anchor="middle" x="333" y="-230.4" font-family="Source Code Pro,monospace" font-size="12.00">lengthy</text>
</a>
</g>
</g>
<!-- object&#45;&gt;lengthy -->
<g id="edge17" class="edge">
<title>object&#45;&gt;lengthy</title>
<path fill="none" stroke="black" d="M254.61,-431.69C273.14,-408.71 304.55,-366.09 320,-324 327.3,-304.12 330.51,-280.32 331.92,-262.34"/>
<polygon fill="black" stroke="black" points="335.42,-262.45 332.57,-252.24 328.44,-262 335.42,-262.45"/>
</g>
<!-- clearable&#45;&gt;container -->
<g id="edge9" class="edge">
<title>clearable&#45;&gt;container</title>
<path fill="none" stroke="black" d="M276.18,-287.87C269.33,-263.56 256.72,-218.82 248.61,-190.01"/>
<polygon fill="black" stroke="black" points="251.92,-188.87 245.84,-180.19 245.18,-190.76 251.92,-188.87"/>
</g>
<!-- iterable -->
<g id="node11" class="node">
<title>iterable</title>
<g id="a_node11"><a xlink:href="PsyllaReference_Types.xhtml#PsyllaReference_Types_Details_iterable" xlink:title="iterable" target="_parent">
<polygon fill="linen" stroke="black" points="232,-252 184,-252 184,-216 238,-216 238,-246 232,-252"/>
<polyline fill="none" stroke="black" points="232,-252 232,-246 "/>
<polyline fill="none" stroke="black" points="238,-246 232,-246 "/>
<text text-anchor="middle" x="211" y="-230.4" font-family="Source Code Pro,monospace" font-size="12.00">iterable</text>
</a>
</g>
</g>
<!-- iterable&#45;&gt;container -->
<g id="edge10" class="edge">
<title>iterable&#45;&gt;container</title>
<path fill="none" stroke="black" d="M218.42,-215.7C221.79,-207.81 225.87,-198.3 229.62,-189.55"/>
<polygon fill="black" stroke="black" points="232.95,-190.67 233.67,-180.1 226.51,-187.92 232.95,-190.67"/>
</g>
<!-- lengthy&#45;&gt;container -->
<g id="edge11" class="edge">
<title>lengthy&#45;&gt;container</title>
<path fill="none" stroke="black" d="M310.26,-215.7C298.56,-206.8 284.14,-195.82 271.49,-186.2"/>
<polygon fill="black" stroke="black" points="273.56,-183.37 263.48,-180.1 269.32,-188.94 273.56,-183.37"/>
</g>
<!-- streamable&#45;&gt;iterable -->
<g id="edge16" class="edge">
<title>streamable&#45;&gt;iterable</title>
<path fill="none" stroke="black" d="M201.97,-287.7C203.29,-279.98 204.88,-270.71 206.35,-262.11"/>
<polygon fill="black" stroke="black" points="209.83,-262.55 208.07,-252.1 202.93,-261.37 209.83,-262.55"/>
</g>
</g>
</svg>
