<?xml version="1.0" encoding="UTF-8" standalone="no"?>
<!DOCTYPE svg PUBLIC "-//W3C//DTD SVG 1.1//EN"
 "http://www.w3.org/Graphics/SVG/1.1/DTD/svg11.dtd">
<!-- Generated by graphviz version 2.49.3 (0)
 -->
<!-- Title: clearable Pages: 1 -->
<svg width="67pt" height="116pt"
 viewBox="0.00 0.00 67.30 116.00" xmlns="http://www.w3.org/2000/svg" xmlns:xlink="http://www.w3.org/1999/xlink">
<g id="graph0" class="graph" transform="scale(1 1) rotate(0) translate(4 112)">
<title>clearable</title>
<polygon fill="transparent" stroke="transparent" points="-4,4 -4,-112 63.3,-112 63.3,4 -4,4"/>
<!-- object -->
<g id="node1" class="node">
<title>object</title>
<g id="a_node1"><a xlink:href="PsyllaReference_Types.xhtml#PsyllaReference_Types_Details_object" xlink:title="object" target="_parent">
<polygon fill="linen" stroke="black" points="50.65,-108 2.65,-108 2.65,-72 56.65,-72 56.65,-102 50.65,-108"/>
<polyline fill="none" stroke="black" points="50.65,-108 50.65,-102 "/>
<polyline fill="none" stroke="black" points="56.65,-102 50.65,-102 "/>
<text text-anchor="middle" x="29.65" y="-86.4" font-family="Source Code Pro,monospace" font-size="12.00">object</text>
</a>
</g>
</g>
<!-- clearable -->
<g id="node2" class="node">
<title>clearable</title>
<g id="a_node2"><a xlink:href="PsyllaReference_Types.xhtml#PsyllaReference_Types_Details_clearable" xlink:title="clearable" target="_parent">
<polygon fill="wheat" stroke="black" points="53.45,-36 -0.15,-36 -0.15,0 59.45,0 59.45,-30 53.45,-36"/>
<polyline fill="none" stroke="black" points="53.45,-36 53.45,-30 "/>
<polyline fill="none" stroke="black" points="59.45,-30 53.45,-30 "/>
<text text-anchor="middle" x="29.65" y="-14.4" font-family="Source Code Pro,monospace" font-size="12.00">clearable</text>
</a>
</g>
</g>
<!-- object&#45;&gt;clearable -->
<g id="edge1" class="edge">
<title>object&#45;&gt;clearable</title>
<path fill="none" stroke="black" d="M29.65,-71.7C29.65,-63.98 29.65,-54.71 29.65,-46.11"/>
<polygon fill="black" stroke="black" points="33.15,-46.1 29.65,-36.1 26.15,-46.1 33.15,-46.1"/>
</g>
</g>
</svg>
