<?xml version="1.0" encoding="UTF-8" standalone="no"?>
<!DOCTYPE svg PUBLIC "-//W3C//DTD SVG 1.1//EN"
 "http://www.w3.org/Graphics/SVG/1.1/DTD/svg11.dtd">
<!-- Generated by graphviz version 14.0.0 (0)
 -->
<!-- Title: readable Pages: 1 -->
<svg width="65pt" height="188pt"
 viewBox="0.00 0.00 65.00 188.00" xmlns="http://www.w3.org/2000/svg" xmlns:xlink="http://www.w3.org/1999/xlink">
<g id="graph0" class="graph" transform="scale(1 1) rotate(0) translate(4 184)">
<title>readable</title>
<polygon fill="none" stroke="none" points="-4,4 -4,-184 60.63,-184 60.63,4 -4,4"/>
<!-- ready -->
<g id="node1" class="node">
<title>ready</title>
<g id="a_node1"><a xlink:href="PsyllaReference_Types.xhtml#PsyllaReference_Types_Details_ready" xlink:title="ready" target="_parent">
<polygon fill="linen" stroke="black" points="49.32,-108 1.32,-108 1.32,-72 55.32,-72 55.32,-102 49.32,-108"/>
<polyline fill="none" stroke="black" points="49.32,-108 49.32,-102"/>
<polyline fill="none" stroke="black" points="55.32,-102 49.32,-102"/>
<text xml:space="preserve" text-anchor="middle" x="28.32" y="-86.4" font-family="Source Code Pro,monospace" font-size="12.00">ready</text>
</a>
</g>
</g>
<!-- readable -->
<g id="node2" class="node">
<title>readable</title>
<g id="a_node2"><a xlink:href="PsyllaReference_Types.xhtml#PsyllaReference_Types_Details_readable" xlink:title="readable" target="_parent">
<polygon fill="wheat" stroke="black" points="50.63,-36 0,-36 0,0 56.63,0 56.63,-30 50.63,-36"/>
<polyline fill="none" stroke="black" points="50.63,-36 50.63,-30"/>
<polyline fill="none" stroke="black" points="56.63,-30 50.63,-30"/>
<text xml:space="preserve" text-anchor="middle" x="28.32" y="-14.4" font-family="Source Code Pro,monospace" font-size="12.00">readable</text>
</a>
</g>
</g>
<!-- ready&#45;&gt;readable -->
<g id="edge1" class="edge">
<title>ready&#45;&gt;readable</title>
<path fill="none" stroke="black" d="M28.32,-71.7C28.32,-64.41 28.32,-55.73 28.32,-47.54"/>
<polygon fill="black" stroke="black" points="31.82,-47.62 28.32,-37.62 24.82,-47.62 31.82,-47.62"/>
</g>
<!-- object -->
<g id="node3" class="node">
<title>object</title>
<g id="a_node3"><a xlink:href="PsyllaReference_Types.xhtml#PsyllaReference_Types_Details_object" xlink:title="object" target="_parent">
<polygon fill="linen" stroke="black" points="49.32,-180 1.32,-180 1.32,-144 55.32,-144 55.32,-174 49.32,-180"/>
<polyline fill="none" stroke="black" points="49.32,-180 49.32,-174"/>
<polyline fill="none" stroke="black" points="55.32,-174 49.32,-174"/>
<text xml:space="preserve" text-anchor="middle" x="28.32" y="-158.4" font-family="Source Code Pro,monospace" font-size="12.00">object</text>
</a>
</g>
</g>
<!-- object&#45;&gt;ready -->
<g id="edge2" class="edge">
<title>object&#45;&gt;ready</title>
<path fill="none" stroke="black" d="M28.32,-143.7C28.32,-136.41 28.32,-127.73 28.32,-119.54"/>
<polygon fill="black" stroke="black" points="31.82,-119.62 28.32,-109.62 24.82,-119.62 31.82,-119.62"/>
</g>
</g>
</svg>
