<?xml version="1.0" encoding="UTF-8" standalone="no"?>
<!DOCTYPE svg PUBLIC "-//W3C//DTD SVG 1.1//EN"
 "http://www.w3.org/Graphics/SVG/1.1/DTD/svg11.dtd">
<!-- Generated by graphviz version 2.43.0 (0)
 -->
<!-- Title: array Pages: 1 -->
<svg width="395pt" height="476pt"
 viewBox="0.00 0.00 395.00 476.00" xmlns="http://www.w3.org/2000/svg" xmlns:xlink="http://www.w3.org/1999/xlink">
<g id="graph0" class="graph" transform="scale(1 1) rotate(0) translate(4 472)">
<title>array</title>
<polygon fill="transparent" stroke="transparent" points="-4,4 -4,-472 391,-472 391,4 -4,4"/>
<!-- formalarray -->
<g id="node1" class="node">
<title>formalarray</title>
<g id="a_node1"><a xlink:href="PsyllaReference_Types.xhtml#PsyllaReference_Types_Details_formalarray" xlink:title="formalarray" target="_parent">
<polygon fill="linen" stroke="black" points="168,-108 91,-108 91,-72 174,-72 174,-102 168,-108"/>
<polyline fill="none" stroke="black" points="168,-108 168,-102 "/>
<polyline fill="none" stroke="black" points="174,-102 168,-102 "/>
<text text-anchor="middle" x="132.5" y="-87.5" font-family="PT Mono, monospace" font-size="10.00">formalarray</text>
</a>
</g>
</g>
<!-- array -->
<g id="node2" class="node">
<title>array</title>
<g id="a_node2"><a xlink:href="PsyllaReference_Types.xhtml#PsyllaReference_Types_Details_array" xlink:title="array" target="_parent">
<polygon fill="wheat" stroke="black" points="153.5,-36 105.5,-36 105.5,0 159.5,0 159.5,-30 153.5,-36"/>
<polyline fill="none" stroke="black" points="153.5,-36 153.5,-30 "/>
<polyline fill="none" stroke="black" points="159.5,-30 153.5,-30 "/>
<text text-anchor="middle" x="132.5" y="-15.5" font-family="PT Mono, monospace" font-size="10.00">array</text>
</a>
</g>
</g>
<!-- formalarray&#45;&gt;array -->
<g id="edge1" class="edge">
<title>formalarray&#45;&gt;array</title>
<path fill="none" stroke="black" d="M132.5,-71.7C132.5,-63.98 132.5,-54.71 132.5,-46.11"/>
<polygon fill="black" stroke="black" points="136,-46.1 132.5,-36.1 129,-46.1 136,-46.1"/>
</g>
<!-- appendable -->
<g id="node3" class="node">
<title>appendable</title>
<g id="a_node3"><a xlink:href="PsyllaReference_Types.xhtml#PsyllaReference_Types_Details_appendable" xlink:title="appendable" target="_parent">
<polygon fill="linen" stroke="black" points="71,-324 0,-324 0,-288 77,-288 77,-318 71,-324"/>
<polyline fill="none" stroke="black" points="71,-324 71,-318 "/>
<polyline fill="none" stroke="black" points="77,-318 71,-318 "/>
<text text-anchor="middle" x="38.5" y="-303.5" font-family="PT Mono, monospace" font-size="10.00">appendable</text>
</a>
</g>
</g>
<!-- appendable&#45;&gt;formalarray -->
<g id="edge2" class="edge">
<title>appendable&#45;&gt;formalarray</title>
<path fill="none" stroke="black" d="M39.66,-287.75C41.33,-269.43 45.3,-239.88 54.5,-216 68.84,-178.8 94.63,-140.56 112.61,-116.34"/>
<polygon fill="black" stroke="black" points="115.62,-118.17 118.85,-108.08 110.03,-113.95 115.62,-118.17"/>
</g>
<!-- container -->
<g id="node4" class="node">
<title>container</title>
<g id="a_node4"><a xlink:href="PsyllaReference_Types.xhtml#PsyllaReference_Types_Details_container" xlink:title="container" target="_parent">
<polygon fill="linen" stroke="black" points="297,-180 232,-180 232,-144 303,-144 303,-174 297,-180"/>
<polyline fill="none" stroke="black" points="297,-180 297,-174 "/>
<polyline fill="none" stroke="black" points="303,-174 297,-174 "/>
<text text-anchor="middle" x="267.5" y="-159.5" font-family="PT Mono, monospace" font-size="10.00">container</text>
</a>
</g>
</g>
<!-- container&#45;&gt;formalarray -->
<g id="edge3" class="edge">
<title>container&#45;&gt;formalarray</title>
<path fill="none" stroke="black" d="M234.48,-143.88C216.42,-134.51 193.85,-122.81 174.55,-112.8"/>
<polygon fill="black" stroke="black" points="176.14,-109.69 165.65,-108.19 172.92,-115.9 176.14,-109.69"/>
</g>
<!-- indexed -->
<g id="node5" class="node">
<title>indexed</title>
<g id="a_node5"><a xlink:href="PsyllaReference_Types.xhtml#PsyllaReference_Types_Details_indexed" xlink:title="indexed" target="_parent">
<polygon fill="linen" stroke="black" points="117,-252 64,-252 64,-216 123,-216 123,-246 117,-252"/>
<polyline fill="none" stroke="black" points="117,-252 117,-246 "/>
<polyline fill="none" stroke="black" points="123,-246 117,-246 "/>
<text text-anchor="middle" x="93.5" y="-231.5" font-family="PT Mono, monospace" font-size="10.00">indexed</text>
</a>
</g>
</g>
<!-- indexed&#45;&gt;formalarray -->
<g id="edge4" class="edge">
<title>indexed&#45;&gt;formalarray</title>
<path fill="none" stroke="black" d="M98.2,-215.87C104.88,-191.56 117.17,-146.82 125.08,-118.01"/>
<polygon fill="black" stroke="black" points="128.51,-118.76 127.78,-108.19 121.76,-116.91 128.51,-118.76"/>
</g>
<!-- sequential -->
<g id="node6" class="node">
<title>sequential</title>
<g id="a_node6"><a xlink:href="PsyllaReference_Types.xhtml#PsyllaReference_Types_Details_sequential" xlink:title="sequential" target="_parent">
<polygon fill="linen" stroke="black" points="229,-396 158,-396 158,-360 235,-360 235,-390 229,-396"/>
<polyline fill="none" stroke="black" points="229,-396 229,-390 "/>
<polyline fill="none" stroke="black" points="235,-390 229,-390 "/>
<text text-anchor="middle" x="196.5" y="-375.5" font-family="PT Mono, monospace" font-size="10.00">sequential</text>
</a>
</g>
</g>
<!-- sequential&#45;&gt;formalarray -->
<g id="edge5" class="edge">
<title>sequential&#45;&gt;formalarray</title>
<path fill="none" stroke="black" d="M186.49,-359.87C180.99,-349.75 174.49,-336.5 170.5,-324 147.47,-251.83 137.89,-162.41 134.34,-118.27"/>
<polygon fill="black" stroke="black" points="137.81,-117.77 133.56,-108.07 130.83,-118.3 137.81,-117.77"/>
</g>
<!-- streamable -->
<g id="node11" class="node">
<title>streamable</title>
<g id="a_node11"><a xlink:href="PsyllaReference_Types.xhtml#PsyllaReference_Types_Details_streamable" xlink:title="streamable" target="_parent">
<polygon fill="linen" stroke="black" points="251,-324 180,-324 180,-288 257,-288 257,-318 251,-324"/>
<polyline fill="none" stroke="black" points="251,-324 251,-318 "/>
<polyline fill="none" stroke="black" points="257,-318 251,-318 "/>
<text text-anchor="middle" x="218.5" y="-303.5" font-family="PT Mono, monospace" font-size="10.00">streamable</text>
</a>
</g>
</g>
<!-- sequential&#45;&gt;streamable -->
<g id="edge15" class="edge">
<title>sequential&#45;&gt;streamable</title>
<path fill="none" stroke="black" d="M201.94,-359.7C204.39,-351.9 207.34,-342.51 210.07,-333.83"/>
<polygon fill="black" stroke="black" points="213.46,-334.69 213.12,-324.1 206.79,-332.59 213.46,-334.69"/>
</g>
<!-- object -->
<g id="node7" class="node">
<title>object</title>
<g id="a_node7"><a xlink:href="PsyllaReference_Types.xhtml#PsyllaReference_Types_Details_object" xlink:title="object" target="_parent">
<polygon fill="linen" stroke="black" points="217.5,-468 169.5,-468 169.5,-432 223.5,-432 223.5,-462 217.5,-468"/>
<polyline fill="none" stroke="black" points="217.5,-468 217.5,-462 "/>
<polyline fill="none" stroke="black" points="223.5,-462 217.5,-462 "/>
<text text-anchor="middle" x="196.5" y="-447.5" font-family="PT Mono, monospace" font-size="10.00">object</text>
</a>
</g>
</g>
<!-- object&#45;&gt;appendable -->
<g id="edge6" class="edge">
<title>object&#45;&gt;appendable</title>
<path fill="none" stroke="black" d="M169.15,-438.95C147.63,-430.07 117.82,-415.48 96.5,-396 77.05,-378.23 61.24,-352.57 51.07,-333.37"/>
<polygon fill="black" stroke="black" points="54.08,-331.57 46.41,-324.26 47.85,-334.76 54.08,-331.57"/>
</g>
<!-- object&#45;&gt;indexed -->
<g id="edge10" class="edge">
<title>object&#45;&gt;indexed</title>
<path fill="none" stroke="black" d="M177.61,-431.84C167.82,-422.11 156.32,-409.26 148.5,-396 122.92,-352.6 107.02,-295.57 99.24,-262.34"/>
<polygon fill="black" stroke="black" points="102.62,-261.41 97.01,-252.43 95.8,-262.95 102.62,-261.41"/>
</g>
<!-- object&#45;&gt;sequential -->
<g id="edge11" class="edge">
<title>object&#45;&gt;sequential</title>
<path fill="none" stroke="black" d="M196.5,-431.7C196.5,-423.98 196.5,-414.71 196.5,-406.11"/>
<polygon fill="black" stroke="black" points="200,-406.1 196.5,-396.1 193,-406.1 200,-406.1"/>
</g>
<!-- clearable -->
<g id="node8" class="node">
<title>clearable</title>
<g id="a_node8"><a xlink:href="PsyllaReference_Types.xhtml#PsyllaReference_Types_Details_clearable" xlink:title="clearable" target="_parent">
<polygon fill="linen" stroke="black" points="340,-324 275,-324 275,-288 346,-288 346,-318 340,-324"/>
<polyline fill="none" stroke="black" points="340,-324 340,-318 "/>
<polyline fill="none" stroke="black" points="346,-318 340,-318 "/>
<text text-anchor="middle" x="310.5" y="-303.5" font-family="PT Mono, monospace" font-size="10.00">clearable</text>
</a>
</g>
</g>
<!-- object&#45;&gt;clearable -->
<g id="edge12" class="edge">
<title>object&#45;&gt;clearable</title>
<path fill="none" stroke="black" d="M212.53,-431.64C221.79,-421.44 233.54,-408.19 243.5,-396 260.65,-375.03 279.09,-350.36 292.28,-332.32"/>
<polygon fill="black" stroke="black" points="295.25,-334.19 298.3,-324.04 289.58,-330.07 295.25,-334.19"/>
</g>
<!-- lengthy -->
<g id="node10" class="node">
<title>lengthy</title>
<g id="a_node10"><a xlink:href="PsyllaReference_Types.xhtml#PsyllaReference_Types_Details_lengthy" xlink:title="lengthy" target="_parent">
<polygon fill="linen" stroke="black" points="381,-396 328,-396 328,-360 387,-360 387,-390 381,-396"/>
<polyline fill="none" stroke="black" points="381,-396 381,-390 "/>
<polyline fill="none" stroke="black" points="387,-390 381,-390 "/>
<text text-anchor="middle" x="357.5" y="-375.5" font-family="PT Mono, monospace" font-size="10.00">lengthy</text>
</a>
</g>
</g>
<!-- object&#45;&gt;lengthy -->
<g id="edge14" class="edge">
<title>object&#45;&gt;lengthy</title>
<path fill="none" stroke="black" d="M223.81,-437.13C249.77,-425.84 289.07,-408.75 318.35,-396.02"/>
<polygon fill="black" stroke="black" points="320.09,-399.08 327.87,-391.88 317.3,-392.66 320.09,-399.08"/>
</g>
<!-- clearable&#45;&gt;container -->
<g id="edge7" class="edge">
<title>clearable&#45;&gt;container</title>
<path fill="none" stroke="black" d="M305.31,-287.87C297.95,-263.56 284.4,-218.82 275.68,-190.01"/>
<polygon fill="black" stroke="black" points="278.95,-188.75 272.71,-180.19 272.25,-190.77 278.95,-188.75"/>
</g>
<!-- iterable -->
<g id="node9" class="node">
<title>iterable</title>
<g id="a_node9"><a xlink:href="PsyllaReference_Types.xhtml#PsyllaReference_Types_Details_iterable" xlink:title="iterable" target="_parent">
<polygon fill="linen" stroke="black" points="260,-252 201,-252 201,-216 266,-216 266,-246 260,-252"/>
<polyline fill="none" stroke="black" points="260,-252 260,-246 "/>
<polyline fill="none" stroke="black" points="266,-246 260,-246 "/>
<text text-anchor="middle" x="233.5" y="-231.5" font-family="PT Mono, monospace" font-size="10.00">iterable</text>
</a>
</g>
</g>
<!-- iterable&#45;&gt;container -->
<g id="edge8" class="edge">
<title>iterable&#45;&gt;container</title>
<path fill="none" stroke="black" d="M241.9,-215.7C245.77,-207.73 250.45,-198.1 254.74,-189.26"/>
<polygon fill="black" stroke="black" points="257.97,-190.63 259.19,-180.1 251.67,-187.57 257.97,-190.63"/>
</g>
<!-- lengthy&#45;&gt;container -->
<g id="edge9" class="edge">
<title>lengthy&#45;&gt;container</title>
<path fill="none" stroke="black" d="M359.75,-359.77C361.49,-341.46 362.45,-311.91 354.5,-288 341.54,-249 312.25,-211.28 291.23,-187.66"/>
<polygon fill="black" stroke="black" points="293.77,-185.25 284.46,-180.21 288.59,-189.96 293.77,-185.25"/>
</g>
<!-- streamable&#45;&gt;iterable -->
<g id="edge13" class="edge">
<title>streamable&#45;&gt;iterable</title>
<path fill="none" stroke="black" d="M222.21,-287.7C223.86,-279.98 225.85,-270.71 227.69,-262.11"/>
<polygon fill="black" stroke="black" points="231.16,-262.62 229.83,-252.1 224.32,-261.15 231.16,-262.62"/>
</g>
</g>
</svg>
