<?xml version="1.0" encoding="UTF-8" standalone="no"?>
<!DOCTYPE svg PUBLIC "-//W3C//DTD SVG 1.1//EN"
 "http://www.w3.org/Graphics/SVG/1.1/DTD/svg11.dtd">
<!-- Generated by graphviz version 14.0.0 (0)
 -->
<!-- Title: error Pages: 1 -->
<svg width="75pt" height="188pt"
 viewBox="0.00 0.00 75.00 188.00" xmlns="http://www.w3.org/2000/svg" xmlns:xlink="http://www.w3.org/1999/xlink">
<g id="graph0" class="graph" transform="scale(1 1) rotate(0) translate(4 184)">
<title>error</title>
<polygon fill="none" stroke="none" points="-4,4 -4,-184 71.3,-184 71.3,4 -4,4"/>
<!-- executable -->
<g id="node1" class="node">
<title>executable</title>
<g id="a_node1"><a xlink:href="PsyllaReference_Types.xhtml#PsyllaReference_Types_Details_executable" xlink:title="executable" target="_parent">
<polygon fill="linen" stroke="black" points="61.3,-108 0,-108 0,-72 67.3,-72 67.3,-102 61.3,-108"/>
<polyline fill="none" stroke="black" points="61.3,-108 61.3,-102"/>
<polyline fill="none" stroke="black" points="67.3,-102 61.3,-102"/>
<text xml:space="preserve" text-anchor="middle" x="33.65" y="-86.4" font-family="Source Code Pro,monospace" font-size="12.00">executable</text>
</a>
</g>
</g>
<!-- error -->
<g id="node2" class="node">
<title>error</title>
<g id="a_node2"><a xlink:href="PsyllaReference_Types.xhtml#PsyllaReference_Types_Details_error" xlink:title="error" target="_parent">
<polygon fill="wheat" stroke="black" points="54.65,-36 6.65,-36 6.65,0 60.65,0 60.65,-30 54.65,-36"/>
<polyline fill="none" stroke="black" points="54.65,-36 54.65,-30"/>
<polyline fill="none" stroke="black" points="60.65,-30 54.65,-30"/>
<text xml:space="preserve" text-anchor="middle" x="33.65" y="-14.4" font-family="Source Code Pro,monospace" font-size="12.00">error</text>
</a>
</g>
</g>
<!-- executable&#45;&gt;error -->
<g id="edge1" class="edge">
<title>executable&#45;&gt;error</title>
<path fill="none" stroke="black" d="M33.65,-71.7C33.65,-64.41 33.65,-55.73 33.65,-47.54"/>
<polygon fill="black" stroke="black" points="37.15,-47.62 33.65,-37.62 30.15,-47.62 37.15,-47.62"/>
</g>
<!-- object -->
<g id="node3" class="node">
<title>object</title>
<g id="a_node3"><a xlink:href="PsyllaReference_Types.xhtml#PsyllaReference_Types_Details_object" xlink:title="object" target="_parent">
<polygon fill="linen" stroke="black" points="54.65,-180 6.65,-180 6.65,-144 60.65,-144 60.65,-174 54.65,-180"/>
<polyline fill="none" stroke="black" points="54.65,-180 54.65,-174"/>
<polyline fill="none" stroke="black" points="60.65,-174 54.65,-174"/>
<text xml:space="preserve" text-anchor="middle" x="33.65" y="-158.4" font-family="Source Code Pro,monospace" font-size="12.00">object</text>
</a>
</g>
</g>
<!-- object&#45;&gt;executable -->
<g id="edge2" class="edge">
<title>object&#45;&gt;executable</title>
<path fill="none" stroke="black" d="M33.65,-143.7C33.65,-136.41 33.65,-127.73 33.65,-119.54"/>
<polygon fill="black" stroke="black" points="37.15,-119.62 33.65,-109.62 30.15,-119.62 37.15,-119.62"/>
</g>
</g>
</svg>
