<?xml version="1.0" encoding="UTF-8" standalone="no"?>
<!DOCTYPE svg PUBLIC "-//W3C//DTD SVG 1.1//EN"
 "http://www.w3.org/Graphics/SVG/1.1/DTD/svg11.dtd">
<!-- Generated by graphviz version 14.0.0 (0)
 -->
<!-- Title: stringwriter Pages: 1 -->
<svg width="220pt" height="260pt"
 viewBox="0.00 0.00 220.00 260.00" xmlns="http://www.w3.org/2000/svg" xmlns:xlink="http://www.w3.org/1999/xlink">
<g id="graph0" class="graph" transform="scale(1 1) rotate(0) translate(4 256)">
<title>stringwriter</title>
<polygon fill="none" stroke="none" points="-4,4 -4,-256 215.98,-256 215.98,4 -4,4"/>
<!-- writer -->
<g id="node1" class="node">
<title>writer</title>
<g id="a_node1"><a xlink:href="PsyllaReference_Types.xhtml#PsyllaReference_Types_Details_writer" xlink:title="writer" target="_parent">
<polygon fill="linen" stroke="black" points="129.32,-108 81.32,-108 81.32,-72 135.32,-72 135.32,-102 129.32,-108"/>
<polyline fill="none" stroke="black" points="129.32,-108 129.32,-102"/>
<polyline fill="none" stroke="black" points="135.32,-102 129.32,-102"/>
<text xml:space="preserve" text-anchor="middle" x="108.32" y="-86.4" font-family="Source Code Pro,monospace" font-size="12.00">writer</text>
</a>
</g>
</g>
<!-- stringwriter -->
<g id="node2" class="node">
<title>stringwriter</title>
<g id="a_node2"><a xlink:href="PsyllaReference_Types.xhtml#PsyllaReference_Types_Details_stringwriter" xlink:title="stringwriter" target="_parent">
<polygon fill="wheat" stroke="black" points="138.31,-36 72.33,-36 72.33,0 144.31,0 144.31,-30 138.31,-36"/>
<polyline fill="none" stroke="black" points="138.31,-36 138.31,-30"/>
<polyline fill="none" stroke="black" points="144.31,-30 138.31,-30"/>
<text xml:space="preserve" text-anchor="middle" x="108.32" y="-14.4" font-family="Source Code Pro,monospace" font-size="12.00">stringwriter</text>
</a>
</g>
</g>
<!-- writer&#45;&gt;stringwriter -->
<g id="edge1" class="edge">
<title>writer&#45;&gt;stringwriter</title>
<path fill="none" stroke="black" d="M108.32,-71.7C108.32,-64.41 108.32,-55.73 108.32,-47.54"/>
<polygon fill="black" stroke="black" points="111.82,-47.62 108.32,-37.62 104.82,-47.62 111.82,-47.62"/>
</g>
<!-- closeable -->
<g id="node3" class="node">
<title>closeable</title>
<g id="a_node3"><a xlink:href="PsyllaReference_Types.xhtml#PsyllaReference_Types_Details_closeable" xlink:title="closeable" target="_parent">
<polygon fill="linen" stroke="black" points="54.64,-180 0,-180 0,-144 60.64,-144 60.64,-174 54.64,-180"/>
<polyline fill="none" stroke="black" points="54.64,-180 54.64,-174"/>
<polyline fill="none" stroke="black" points="60.64,-174 54.64,-174"/>
<text xml:space="preserve" text-anchor="middle" x="30.32" y="-158.4" font-family="Source Code Pro,monospace" font-size="12.00">closeable</text>
</a>
</g>
</g>
<!-- closeable&#45;&gt;writer -->
<g id="edge2" class="edge">
<title>closeable&#45;&gt;writer</title>
<path fill="none" stroke="black" d="M49.6,-143.7C58.98,-135.28 70.42,-125.02 80.7,-115.79"/>
<polygon fill="black" stroke="black" points="82.76,-118.64 87.87,-109.36 78.09,-113.43 82.76,-118.64"/>
</g>
<!-- flushable -->
<g id="node4" class="node">
<title>flushable</title>
<g id="a_node4"><a xlink:href="PsyllaReference_Types.xhtml#PsyllaReference_Types_Details_flushable" xlink:title="flushable" target="_parent">
<polygon fill="linen" stroke="black" points="132.31,-180 78.33,-180 78.33,-144 138.31,-144 138.31,-174 132.31,-180"/>
<polyline fill="none" stroke="black" points="132.31,-180 132.31,-174"/>
<polyline fill="none" stroke="black" points="138.31,-174 132.31,-174"/>
<text xml:space="preserve" text-anchor="middle" x="108.32" y="-158.4" font-family="Source Code Pro,monospace" font-size="12.00">flushable</text>
</a>
</g>
</g>
<!-- flushable&#45;&gt;writer -->
<g id="edge3" class="edge">
<title>flushable&#45;&gt;writer</title>
<path fill="none" stroke="black" d="M108.32,-143.7C108.32,-136.41 108.32,-127.73 108.32,-119.54"/>
<polygon fill="black" stroke="black" points="111.82,-119.62 108.32,-109.62 104.82,-119.62 111.82,-119.62"/>
</g>
<!-- writable -->
<g id="node5" class="node">
<title>writable</title>
<g id="a_node5"><a xlink:href="PsyllaReference_Types.xhtml#PsyllaReference_Types_Details_writable" xlink:title="writable" target="_parent">
<polygon fill="linen" stroke="black" points="205.98,-180 156.66,-180 156.66,-144 211.98,-144 211.98,-174 205.98,-180"/>
<polyline fill="none" stroke="black" points="205.98,-180 205.98,-174"/>
<polyline fill="none" stroke="black" points="211.98,-174 205.98,-174"/>
<text xml:space="preserve" text-anchor="middle" x="184.32" y="-158.4" font-family="Source Code Pro,monospace" font-size="12.00">writable</text>
</a>
</g>
</g>
<!-- writable&#45;&gt;writer -->
<g id="edge4" class="edge">
<title>writable&#45;&gt;writer</title>
<path fill="none" stroke="black" d="M165.53,-143.7C156.49,-135.37 145.48,-125.22 135.54,-116.07"/>
<polygon fill="black" stroke="black" points="138,-113.57 128.27,-109.37 133.25,-118.72 138,-113.57"/>
</g>
<!-- object -->
<g id="node6" class="node">
<title>object</title>
<g id="a_node6"><a xlink:href="PsyllaReference_Types.xhtml#PsyllaReference_Types_Details_object" xlink:title="object" target="_parent">
<polygon fill="linen" stroke="black" points="129.32,-252 81.32,-252 81.32,-216 135.32,-216 135.32,-246 129.32,-252"/>
<polyline fill="none" stroke="black" points="129.32,-252 129.32,-246"/>
<polyline fill="none" stroke="black" points="135.32,-246 129.32,-246"/>
<text xml:space="preserve" text-anchor="middle" x="108.32" y="-230.4" font-family="Source Code Pro,monospace" font-size="12.00">object</text>
</a>
</g>
</g>
<!-- object&#45;&gt;closeable -->
<g id="edge5" class="edge">
<title>object&#45;&gt;closeable</title>
<path fill="none" stroke="black" d="M89.04,-215.7C79.67,-207.28 68.23,-197.02 57.95,-187.79"/>
<polygon fill="black" stroke="black" points="60.56,-185.43 50.78,-181.36 55.88,-190.64 60.56,-185.43"/>
</g>
<!-- object&#45;&gt;flushable -->
<g id="edge6" class="edge">
<title>object&#45;&gt;flushable</title>
<path fill="none" stroke="black" d="M108.32,-215.7C108.32,-208.41 108.32,-199.73 108.32,-191.54"/>
<polygon fill="black" stroke="black" points="111.82,-191.62 108.32,-181.62 104.82,-191.62 111.82,-191.62"/>
</g>
<!-- object&#45;&gt;writable -->
<g id="edge7" class="edge">
<title>object&#45;&gt;writable</title>
<path fill="none" stroke="black" d="M127.11,-215.7C136.15,-207.37 147.16,-197.22 157.1,-188.07"/>
<polygon fill="black" stroke="black" points="159.39,-190.72 164.37,-181.37 154.65,-185.57 159.39,-190.72"/>
</g>
</g>
</svg>
