<?xml version="1.0" encoding="UTF-8" standalone="no"?>
<!DOCTYPE svg PUBLIC "-//W3C//DTD SVG 1.1//EN"
 "http://www.w3.org/Graphics/SVG/1.1/DTD/svg11.dtd">
<!-- Generated by graphviz version 2.43.0 (0)
 -->
<!-- Title: real Pages: 1 -->
<svg width="333pt" height="404pt"
 viewBox="0.00 0.00 333.00 404.00" xmlns="http://www.w3.org/2000/svg" xmlns:xlink="http://www.w3.org/1999/xlink">
<g id="graph0" class="graph" transform="scale(1 1) rotate(0) translate(4 400)">
<title>real</title>
<polygon fill="transparent" stroke="transparent" points="-4,4 -4,-400 329,-400 329,4 -4,4"/>
<!-- realnumeric -->
<g id="node1" class="node">
<title>realnumeric</title>
<g id="a_node1"><a xlink:href="PsyllaReference_Types.xhtml#PsyllaReference_Types_Details_realnumeric" xlink:title="realnumeric" target="_parent">
<polygon fill="linen" stroke="black" points="116.5,-108 23.5,-108 23.5,-72 122.5,-72 122.5,-102 116.5,-108"/>
<polyline fill="none" stroke="black" points="116.5,-108 116.5,-102 "/>
<polyline fill="none" stroke="black" points="122.5,-102 116.5,-102 "/>
<text text-anchor="middle" x="73" y="-86.9" font-family="PT Mono, monospace" font-size="12.00">realnumeric</text>
</a>
</g>
</g>
<!-- real -->
<g id="node2" class="node">
<title>real</title>
<g id="a_node2"><a xlink:href="PsyllaReference_Types.xhtml#PsyllaReference_Types_Details_real" xlink:title="real" target="_parent">
<polygon fill="wheat" stroke="black" points="94,-36 46,-36 46,0 100,0 100,-30 94,-36"/>
<polyline fill="none" stroke="black" points="94,-36 94,-30 "/>
<polyline fill="none" stroke="black" points="100,-30 94,-30 "/>
<text text-anchor="middle" x="73" y="-14.9" font-family="PT Mono, monospace" font-size="12.00">real</text>
</a>
</g>
</g>
<!-- realnumeric&#45;&gt;real -->
<g id="edge1" class="edge">
<title>realnumeric&#45;&gt;real</title>
<path fill="none" stroke="black" d="M73,-71.7C73,-63.98 73,-54.71 73,-46.11"/>
<polygon fill="black" stroke="black" points="76.5,-46.1 73,-36.1 69.5,-46.1 76.5,-46.1"/>
</g>
<!-- numeric -->
<g id="node3" class="node">
<title>numeric</title>
<g id="a_node3"><a xlink:href="PsyllaReference_Types.xhtml#PsyllaReference_Types_Details_numeric" xlink:title="numeric" target="_parent">
<polygon fill="linen" stroke="black" points="143.5,-180 80.5,-180 80.5,-144 149.5,-144 149.5,-174 143.5,-180"/>
<polyline fill="none" stroke="black" points="143.5,-180 143.5,-174 "/>
<polyline fill="none" stroke="black" points="149.5,-174 143.5,-174 "/>
<text text-anchor="middle" x="115" y="-158.9" font-family="PT Mono, monospace" font-size="12.00">numeric</text>
</a>
</g>
</g>
<!-- numeric&#45;&gt;realnumeric -->
<g id="edge2" class="edge">
<title>numeric&#45;&gt;realnumeric</title>
<path fill="none" stroke="black" d="M104.62,-143.7C99.74,-135.56 93.81,-125.69 88.42,-116.7"/>
<polygon fill="black" stroke="black" points="91.41,-114.88 83.26,-108.1 85.41,-118.48 91.41,-114.88"/>
</g>
<!-- scalar -->
<g id="node4" class="node">
<title>scalar</title>
<g id="a_node4"><a xlink:href="PsyllaReference_Types.xhtml#PsyllaReference_Types_Details_scalar" xlink:title="scalar" target="_parent">
<polygon fill="linen" stroke="black" points="56,-180 0,-180 0,-144 62,-144 62,-174 56,-180"/>
<polyline fill="none" stroke="black" points="56,-180 56,-174 "/>
<polyline fill="none" stroke="black" points="62,-174 56,-174 "/>
<text text-anchor="middle" x="31" y="-158.9" font-family="PT Mono, monospace" font-size="12.00">scalar</text>
</a>
</g>
</g>
<!-- scalar&#45;&gt;realnumeric -->
<g id="edge3" class="edge">
<title>scalar&#45;&gt;realnumeric</title>
<path fill="none" stroke="black" d="M41.38,-143.7C46.26,-135.56 52.19,-125.69 57.58,-116.7"/>
<polygon fill="black" stroke="black" points="60.59,-118.48 62.74,-108.1 54.59,-114.88 60.59,-118.48"/>
</g>
<!-- atomic -->
<g id="node5" class="node">
<title>atomic</title>
<g id="a_node5"><a xlink:href="PsyllaReference_Types.xhtml#PsyllaReference_Types_Details_atomic" xlink:title="atomic" target="_parent">
<polygon fill="linen" stroke="black" points="115,-252 59,-252 59,-216 121,-216 121,-246 115,-252"/>
<polyline fill="none" stroke="black" points="115,-252 115,-246 "/>
<polyline fill="none" stroke="black" points="121,-246 115,-246 "/>
<text text-anchor="middle" x="90" y="-230.9" font-family="PT Mono, monospace" font-size="12.00">atomic</text>
</a>
</g>
</g>
<!-- atomic&#45;&gt;numeric -->
<g id="edge4" class="edge">
<title>atomic&#45;&gt;numeric</title>
<path fill="none" stroke="black" d="M96.18,-215.7C99,-207.81 102.39,-198.3 105.52,-189.55"/>
<polygon fill="black" stroke="black" points="108.82,-190.7 108.89,-180.1 102.23,-188.34 108.82,-190.7"/>
</g>
<!-- arithmetic -->
<g id="node6" class="node">
<title>arithmetic</title>
<g id="a_node6"><a xlink:href="PsyllaReference_Types.xhtml#PsyllaReference_Types_Details_arithmetic" xlink:title="arithmetic" target="_parent">
<polygon fill="linen" stroke="black" points="225,-252 139,-252 139,-216 231,-216 231,-246 225,-252"/>
<polyline fill="none" stroke="black" points="225,-252 225,-246 "/>
<polyline fill="none" stroke="black" points="231,-246 225,-246 "/>
<text text-anchor="middle" x="185" y="-230.9" font-family="PT Mono, monospace" font-size="12.00">arithmetic</text>
</a>
</g>
</g>
<!-- arithmetic&#45;&gt;numeric -->
<g id="edge5" class="edge">
<title>arithmetic&#45;&gt;numeric</title>
<path fill="none" stroke="black" d="M167.7,-215.7C159.14,-207.14 148.66,-196.66 139.3,-187.3"/>
<polygon fill="black" stroke="black" points="141.65,-184.7 132.1,-180.1 136.7,-189.65 141.65,-184.7"/>
</g>
<!-- object -->
<g id="node7" class="node">
<title>object</title>
<g id="a_node7"><a xlink:href="PsyllaReference_Types.xhtml#PsyllaReference_Types_Details_object" xlink:title="object" target="_parent">
<polygon fill="linen" stroke="black" points="137,-396 81,-396 81,-360 143,-360 143,-390 137,-396"/>
<polyline fill="none" stroke="black" points="137,-396 137,-390 "/>
<polyline fill="none" stroke="black" points="143,-390 137,-390 "/>
<text text-anchor="middle" x="112" y="-374.9" font-family="PT Mono, monospace" font-size="12.00">object</text>
</a>
</g>
</g>
<!-- object&#45;&gt;scalar -->
<g id="edge6" class="edge">
<title>object&#45;&gt;scalar</title>
<path fill="none" stroke="black" d="M101.73,-359.8C88.07,-336.24 64.03,-292.26 50,-252 42.95,-231.77 38.03,-207.99 34.97,-190.11"/>
<polygon fill="black" stroke="black" points="38.4,-189.38 33.34,-180.07 31.49,-190.51 38.4,-189.38"/>
</g>
<!-- object&#45;&gt;atomic -->
<g id="edge7" class="edge">
<title>object&#45;&gt;atomic</title>
<path fill="none" stroke="black" d="M106.72,-359.98C103.72,-349.66 100.14,-336.19 98,-324 94.4,-303.5 92.37,-280.05 91.26,-262.36"/>
<polygon fill="black" stroke="black" points="94.75,-261.96 90.68,-252.17 87.76,-262.36 94.75,-261.96"/>
</g>
<!-- additive -->
<g id="node8" class="node">
<title>additive</title>
<g id="a_node8"><a xlink:href="PsyllaReference_Types.xhtml#PsyllaReference_Types_Details_additive" xlink:title="additive" target="_parent">
<polygon fill="linen" stroke="black" points="178.5,-324 107.5,-324 107.5,-288 184.5,-288 184.5,-318 178.5,-324"/>
<polyline fill="none" stroke="black" points="178.5,-324 178.5,-318 "/>
<polyline fill="none" stroke="black" points="184.5,-318 178.5,-318 "/>
<text text-anchor="middle" x="146" y="-302.9" font-family="PT Mono, monospace" font-size="12.00">additive</text>
</a>
</g>
</g>
<!-- object&#45;&gt;additive -->
<g id="edge10" class="edge">
<title>object&#45;&gt;additive</title>
<path fill="none" stroke="black" d="M120.4,-359.7C124.27,-351.73 128.95,-342.1 133.24,-333.26"/>
<polygon fill="black" stroke="black" points="136.47,-334.63 137.69,-324.1 130.17,-331.57 136.47,-334.63"/>
</g>
<!-- multiplicative -->
<g id="node9" class="node">
<title>multiplicative</title>
<g id="a_node9"><a xlink:href="PsyllaReference_Types.xhtml#PsyllaReference_Types_Details_multiplicative" xlink:title="multiplicative" target="_parent">
<polygon fill="linen" stroke="black" points="319,-324 203,-324 203,-288 325,-288 325,-318 319,-324"/>
<polyline fill="none" stroke="black" points="319,-324 319,-318 "/>
<polyline fill="none" stroke="black" points="325,-318 319,-318 "/>
<text text-anchor="middle" x="264" y="-302.9" font-family="PT Mono, monospace" font-size="12.00">multiplicative</text>
</a>
</g>
</g>
<!-- object&#45;&gt;multiplicative -->
<g id="edge11" class="edge">
<title>object&#45;&gt;multiplicative</title>
<path fill="none" stroke="black" d="M143.13,-362.67C164.6,-352.78 193.51,-339.46 217.67,-328.33"/>
<polygon fill="black" stroke="black" points="219.4,-331.39 227.02,-324.03 216.47,-325.04 219.4,-331.39"/>
</g>
<!-- additive&#45;&gt;arithmetic -->
<g id="edge8" class="edge">
<title>additive&#45;&gt;arithmetic</title>
<path fill="none" stroke="black" d="M155.64,-287.7C160.13,-279.64 165.56,-269.89 170.52,-260.98"/>
<polygon fill="black" stroke="black" points="173.66,-262.54 175.47,-252.1 167.55,-259.14 173.66,-262.54"/>
</g>
<!-- multiplicative&#45;&gt;arithmetic -->
<g id="edge9" class="edge">
<title>multiplicative&#45;&gt;arithmetic</title>
<path fill="none" stroke="black" d="M244.47,-287.7C234.62,-278.97 222.51,-268.24 211.8,-258.75"/>
<polygon fill="black" stroke="black" points="214.11,-256.12 204.3,-252.1 209.47,-261.36 214.11,-256.12"/>
</g>
</g>
</svg>
