<?xml version="1.0" encoding="UTF-8" standalone="no"?>
<!DOCTYPE svg PUBLIC "-//W3C//DTD SVG 1.1//EN"
 "http://www.w3.org/Graphics/SVG/1.1/DTD/svg11.dtd">
<!-- Generated by graphviz version 14.0.0 (0)
 -->
<!-- Title: bounded Pages: 1 -->
<svg width="65pt" height="188pt"
 viewBox="0.00 0.00 65.00 188.00" xmlns="http://www.w3.org/2000/svg" xmlns:xlink="http://www.w3.org/1999/xlink">
<g id="graph0" class="graph" transform="scale(1 1) rotate(0) translate(4 184)">
<title>bounded</title>
<polygon fill="none" stroke="none" points="-4,4 -4,-184 61.33,-184 61.33,4 -4,4"/>
<!-- lengthy -->
<g id="node1" class="node">
<title>lengthy</title>
<g id="a_node1"><a xlink:href="PsyllaReference_Types.xhtml#PsyllaReference_Types_Details_lengthy" xlink:title="lengthy" target="_parent">
<polygon fill="linen" stroke="black" points="49.66,-108 1.66,-108 1.66,-72 55.66,-72 55.66,-102 49.66,-108"/>
<polyline fill="none" stroke="black" points="49.66,-108 49.66,-102"/>
<polyline fill="none" stroke="black" points="55.66,-102 49.66,-102"/>
<text xml:space="preserve" text-anchor="middle" x="28.66" y="-86.4" font-family="Source Code Pro,monospace" font-size="12.00">lengthy</text>
</a>
</g>
</g>
<!-- bounded -->
<g id="node2" class="node">
<title>bounded</title>
<g id="a_node2"><a xlink:href="PsyllaReference_Types.xhtml#PsyllaReference_Types_Details_bounded" xlink:title="bounded" target="_parent">
<polygon fill="wheat" stroke="black" points="51.33,-36 0,-36 0,0 57.33,0 57.33,-30 51.33,-36"/>
<polyline fill="none" stroke="black" points="51.33,-36 51.33,-30"/>
<polyline fill="none" stroke="black" points="57.33,-30 51.33,-30"/>
<text xml:space="preserve" text-anchor="middle" x="28.66" y="-14.4" font-family="Source Code Pro,monospace" font-size="12.00">bounded</text>
</a>
</g>
</g>
<!-- lengthy&#45;&gt;bounded -->
<g id="edge1" class="edge">
<title>lengthy&#45;&gt;bounded</title>
<path fill="none" stroke="black" d="M28.66,-71.7C28.66,-64.41 28.66,-55.73 28.66,-47.54"/>
<polygon fill="black" stroke="black" points="32.16,-47.62 28.66,-37.62 25.16,-47.62 32.16,-47.62"/>
</g>
<!-- object -->
<g id="node3" class="node">
<title>object</title>
<g id="a_node3"><a xlink:href="PsyllaReference_Types.xhtml#PsyllaReference_Types_Details_object" xlink:title="object" target="_parent">
<polygon fill="linen" stroke="black" points="49.66,-180 1.66,-180 1.66,-144 55.66,-144 55.66,-174 49.66,-180"/>
<polyline fill="none" stroke="black" points="49.66,-180 49.66,-174"/>
<polyline fill="none" stroke="black" points="55.66,-174 49.66,-174"/>
<text xml:space="preserve" text-anchor="middle" x="28.66" y="-158.4" font-family="Source Code Pro,monospace" font-size="12.00">object</text>
</a>
</g>
</g>
<!-- object&#45;&gt;lengthy -->
<g id="edge2" class="edge">
<title>object&#45;&gt;lengthy</title>
<path fill="none" stroke="black" d="M28.66,-143.7C28.66,-136.41 28.66,-127.73 28.66,-119.54"/>
<polygon fill="black" stroke="black" points="32.16,-119.62 28.66,-109.62 25.16,-119.62 32.16,-119.62"/>
</g>
</g>
</svg>
