<?xml version="1.0" encoding="UTF-8" standalone="no"?>
<!DOCTYPE svg PUBLIC "-//W3C//DTD SVG 1.1//EN"
 "http://www.w3.org/Graphics/SVG/1.1/DTD/svg11.dtd">
<!-- Generated by graphviz version 2.43.0 (0)
 -->
<!-- Title: real Pages: 1 -->
<svg width="239pt" height="404pt"
 viewBox="0.00 0.00 239.00 404.00" xmlns="http://www.w3.org/2000/svg" xmlns:xlink="http://www.w3.org/1999/xlink">
<g id="graph0" class="graph" transform="scale(1 1) rotate(0) translate(4 400)">
<title>real</title>
<polygon fill="transparent" stroke="transparent" points="-4,4 -4,-400 235,-400 235,4 -4,4"/>
<!-- realnumeric -->
<g id="node1" class="node">
<title>realnumeric</title>
<g id="a_node1"><a xlink:href="PsyllaReference_Types.xhtml#PsyllaReference_Types_Details_realnumeric" xlink:title="realnumeric" target="_parent">
<polygon fill="linen" stroke="black" points="116.5,-108 23.5,-108 23.5,-72 122.5,-72 122.5,-102 116.5,-108"/>
<polyline fill="none" stroke="black" points="116.5,-108 116.5,-102 "/>
<polyline fill="none" stroke="black" points="122.5,-102 116.5,-102 "/>
<text text-anchor="middle" x="73" y="-86.9" font-family="PT Mono, monospace" font-size="12.00">realnumeric</text>
</a>
</g>
</g>
<!-- real -->
<g id="node2" class="node">
<title>real</title>
<g id="a_node2"><a xlink:href="PsyllaReference_Types.xhtml#PsyllaReference_Types_Details_real" xlink:title="real" target="_parent">
<polygon fill="wheat" stroke="black" points="94,-36 46,-36 46,0 100,0 100,-30 94,-36"/>
<polyline fill="none" stroke="black" points="94,-36 94,-30 "/>
<polyline fill="none" stroke="black" points="100,-30 94,-30 "/>
<text text-anchor="middle" x="73" y="-14.9" font-family="PT Mono, monospace" font-size="12.00">real</text>
</a>
</g>
</g>
<!-- realnumeric&#45;&gt;real -->
<g id="edge1" class="edge">
<title>realnumeric&#45;&gt;real</title>
<path fill="none" stroke="black" d="M73,-71.7C73,-63.98 73,-54.71 73,-46.11"/>
<polygon fill="black" stroke="black" points="76.5,-46.1 73,-36.1 69.5,-46.1 76.5,-46.1"/>
</g>
<!-- numeric -->
<g id="node3" class="node">
<title>numeric</title>
<g id="a_node3"><a xlink:href="PsyllaReference_Types.xhtml#PsyllaReference_Types_Details_numeric" xlink:title="numeric" target="_parent">
<polygon fill="linen" stroke="black" points="143.5,-180 80.5,-180 80.5,-144 149.5,-144 149.5,-174 143.5,-180"/>
<polyline fill="none" stroke="black" points="143.5,-180 143.5,-174 "/>
<polyline fill="none" stroke="black" points="149.5,-174 143.5,-174 "/>
<text text-anchor="middle" x="115" y="-158.9" font-family="PT Mono, monospace" font-size="12.00">numeric</text>
</a>
</g>
</g>
<!-- numeric&#45;&gt;realnumeric -->
<g id="edge2" class="edge">
<title>numeric&#45;&gt;realnumeric</title>
<path fill="none" stroke="black" d="M104.62,-143.7C99.74,-135.56 93.81,-125.69 88.42,-116.7"/>
<polygon fill="black" stroke="black" points="91.41,-114.88 83.26,-108.1 85.41,-118.48 91.41,-114.88"/>
</g>
<!-- scalar -->
<g id="node4" class="node">
<title>scalar</title>
<g id="a_node4"><a xlink:href="PsyllaReference_Types.xhtml#PsyllaReference_Types_Details_scalar" xlink:title="scalar" target="_parent">
<polygon fill="linen" stroke="black" points="56,-180 0,-180 0,-144 62,-144 62,-174 56,-180"/>
<polyline fill="none" stroke="black" points="56,-180 56,-174 "/>
<polyline fill="none" stroke="black" points="62,-174 56,-174 "/>
<text text-anchor="middle" x="31" y="-158.9" font-family="PT Mono, monospace" font-size="12.00">scalar</text>
</a>
</g>
</g>
<!-- scalar&#45;&gt;realnumeric -->
<g id="edge3" class="edge">
<title>scalar&#45;&gt;realnumeric</title>
<path fill="none" stroke="black" d="M41.38,-143.7C46.26,-135.56 52.19,-125.69 57.58,-116.7"/>
<polygon fill="black" stroke="black" points="60.59,-118.48 62.74,-108.1 54.59,-114.88 60.59,-118.48"/>
</g>
<!-- atomic -->
<g id="node5" class="node">
<title>atomic</title>
<g id="a_node5"><a xlink:href="PsyllaReference_Types.xhtml#PsyllaReference_Types_Details_atomic" xlink:title="atomic" target="_parent">
<polygon fill="linen" stroke="black" points="115,-252 59,-252 59,-216 121,-216 121,-246 115,-252"/>
<polyline fill="none" stroke="black" points="115,-252 115,-246 "/>
<polyline fill="none" stroke="black" points="121,-246 115,-246 "/>
<text text-anchor="middle" x="90" y="-230.9" font-family="PT Mono, monospace" font-size="12.00">atomic</text>
</a>
</g>
</g>
<!-- atomic&#45;&gt;numeric -->
<g id="edge4" class="edge">
<title>atomic&#45;&gt;numeric</title>
<path fill="none" stroke="black" d="M96.18,-215.7C99,-207.81 102.39,-198.3 105.52,-189.55"/>
<polygon fill="black" stroke="black" points="108.82,-190.7 108.89,-180.1 102.23,-188.34 108.82,-190.7"/>
</g>
<!-- arithmetic -->
<g id="node6" class="node">
<title>arithmetic</title>
<g id="a_node6"><a xlink:href="PsyllaReference_Types.xhtml#PsyllaReference_Types_Details_arithmetic" xlink:title="arithmetic" target="_parent">
<polygon fill="linen" stroke="black" points="225,-252 139,-252 139,-216 231,-216 231,-246 225,-252"/>
<polyline fill="none" stroke="black" points="225,-252 225,-246 "/>
<polyline fill="none" stroke="black" points="231,-246 225,-246 "/>
<text text-anchor="middle" x="185" y="-230.9" font-family="PT Mono, monospace" font-size="12.00">arithmetic</text>
</a>
</g>
</g>
<!-- arithmetic&#45;&gt;numeric -->
<g id="edge5" class="edge">
<title>arithmetic&#45;&gt;numeric</title>
<path fill="none" stroke="black" d="M167.7,-215.7C159.14,-207.14 148.66,-196.66 139.3,-187.3"/>
<polygon fill="black" stroke="black" points="141.65,-184.7 132.1,-180.1 136.7,-189.65 141.65,-184.7"/>
</g>
<!-- object -->
<g id="node7" class="node">
<title>object</title>
<g id="a_node7"><a xlink:href="PsyllaReference_Types.xhtml#PsyllaReference_Types_Details_object" xlink:title="object" target="_parent">
<polygon fill="linen" stroke="black" points="115,-396 59,-396 59,-360 121,-360 121,-390 115,-396"/>
<polyline fill="none" stroke="black" points="115,-396 115,-390 "/>
<polyline fill="none" stroke="black" points="121,-390 115,-390 "/>
<text text-anchor="middle" x="90" y="-374.9" font-family="PT Mono, monospace" font-size="12.00">object</text>
</a>
</g>
</g>
<!-- object&#45;&gt;scalar -->
<g id="edge6" class="edge">
<title>object&#45;&gt;scalar</title>
<path fill="none" stroke="black" d="M83.89,-359.77C75.52,-335.81 60.37,-290.97 50,-252 44.55,-231.52 39.59,-208.06 36.11,-190.37"/>
<polygon fill="black" stroke="black" points="39.48,-189.34 34.14,-180.18 32.6,-190.66 39.48,-189.34"/>
</g>
<!-- object&#45;&gt;atomic -->
<g id="edge7" class="edge">
<title>object&#45;&gt;atomic</title>
<path fill="none" stroke="black" d="M90,-359.87C90,-335.67 90,-291.21 90,-262.39"/>
<polygon fill="black" stroke="black" points="93.5,-262.19 90,-252.19 86.5,-262.19 93.5,-262.19"/>
</g>
<!-- additive -->
<g id="node8" class="node">
<title>additive</title>
<g id="a_node8"><a xlink:href="PsyllaReference_Types.xhtml#PsyllaReference_Types_Details_additive" xlink:title="additive" target="_parent">
<polygon fill="linen" stroke="black" points="203.5,-324 132.5,-324 132.5,-288 209.5,-288 209.5,-318 203.5,-324"/>
<polyline fill="none" stroke="black" points="203.5,-324 203.5,-318 "/>
<polyline fill="none" stroke="black" points="209.5,-318 203.5,-318 "/>
<text text-anchor="middle" x="171" y="-302.9" font-family="PT Mono, monospace" font-size="12.00">additive</text>
</a>
</g>
</g>
<!-- object&#45;&gt;additive -->
<g id="edge9" class="edge">
<title>object&#45;&gt;additive</title>
<path fill="none" stroke="black" d="M110.02,-359.7C120.13,-350.97 132.54,-340.24 143.52,-330.75"/>
<polygon fill="black" stroke="black" points="145.93,-333.29 151.21,-324.1 141.35,-327.99 145.93,-333.29"/>
</g>
<!-- additive&#45;&gt;arithmetic -->
<g id="edge8" class="edge">
<title>additive&#45;&gt;arithmetic</title>
<path fill="none" stroke="black" d="M174.46,-287.7C176,-279.98 177.86,-270.71 179.58,-262.11"/>
<polygon fill="black" stroke="black" points="183.05,-262.6 181.58,-252.1 176.19,-261.22 183.05,-262.6"/>
</g>
</g>
</svg>
