<?xml version="1.0" encoding="UTF-8" standalone="no"?>
<!DOCTYPE svg PUBLIC "-//W3C//DTD SVG 1.1//EN"
 "http://www.w3.org/Graphics/SVG/1.1/DTD/svg11.dtd">
<!-- Generated by graphviz version 2.43.0 (0)
 -->
<!-- Title: blockingqueue Pages: 1 -->
<svg width="342pt" height="476pt"
 viewBox="0.00 0.00 342.00 476.00" xmlns="http://www.w3.org/2000/svg" xmlns:xlink="http://www.w3.org/1999/xlink">
<g id="graph0" class="graph" transform="scale(1 1) rotate(0) translate(4 472)">
<title>blockingqueue</title>
<polygon fill="transparent" stroke="transparent" points="-4,4 -4,-472 338,-472 338,4 -4,4"/>
<!-- formalqueue -->
<g id="node1" class="node">
<title>formalqueue</title>
<g id="a_node1"><a xlink:href="PsyllaReference_Types.xhtml#PsyllaReference_Types_Details_formalqueue" xlink:title="formalqueue" target="_parent">
<polygon fill="linen" stroke="black" points="163.5,-108 70.5,-108 70.5,-72 169.5,-72 169.5,-102 163.5,-108"/>
<polyline fill="none" stroke="black" points="163.5,-108 163.5,-102 "/>
<polyline fill="none" stroke="black" points="169.5,-102 163.5,-102 "/>
<text text-anchor="middle" x="120" y="-86.9" font-family="Source Code Pro,monospace" font-size="12.00">formalqueue</text>
</a>
</g>
</g>
<!-- blockingqueue -->
<g id="node3" class="node">
<title>blockingqueue</title>
<g id="a_node3"><a xlink:href="PsyllaReference_Types.xhtml#PsyllaReference_Types_Details_blockingqueue" xlink:title="blockingqueue" target="_parent">
<polygon fill="wheat" stroke="black" points="132,-36 24,-36 24,0 138,0 138,-30 132,-36"/>
<polyline fill="none" stroke="black" points="132,-36 132,-30 "/>
<polyline fill="none" stroke="black" points="138,-30 132,-30 "/>
<text text-anchor="middle" x="81" y="-14.9" font-family="Source Code Pro,monospace" font-size="12.00">blockingqueue</text>
</a>
</g>
</g>
<!-- formalqueue&#45;&gt;blockingqueue -->
<g id="edge1" class="edge">
<title>formalqueue&#45;&gt;blockingqueue</title>
<path fill="none" stroke="black" d="M110.36,-71.7C105.87,-63.64 100.44,-53.89 95.48,-44.98"/>
<polygon fill="black" stroke="black" points="98.45,-43.14 90.53,-36.1 92.34,-46.54 98.45,-43.14"/>
</g>
<!-- closeable -->
<g id="node2" class="node">
<title>closeable</title>
<g id="a_node2"><a xlink:href="PsyllaReference_Types.xhtml#PsyllaReference_Types_Details_closeable" xlink:title="closeable" target="_parent">
<polygon fill="linen" stroke="black" points="78,-324 0,-324 0,-288 84,-288 84,-318 78,-324"/>
<polyline fill="none" stroke="black" points="78,-324 78,-318 "/>
<polyline fill="none" stroke="black" points="84,-318 78,-318 "/>
<text text-anchor="middle" x="42" y="-302.9" font-family="Source Code Pro,monospace" font-size="12.00">closeable</text>
</a>
</g>
</g>
<!-- closeable&#45;&gt;blockingqueue -->
<g id="edge2" class="edge">
<title>closeable&#45;&gt;blockingqueue</title>
<path fill="none" stroke="black" d="M41.77,-287.8C41.62,-248.86 43.2,-151.2 61,-72 62.96,-63.27 66.06,-54.05 69.23,-45.79"/>
<polygon fill="black" stroke="black" points="72.57,-46.87 73.07,-36.29 66.08,-44.25 72.57,-46.87"/>
</g>
<!-- bounded -->
<g id="node4" class="node">
<title>bounded</title>
<g id="a_node4"><a xlink:href="PsyllaReference_Types.xhtml#PsyllaReference_Types_Details_bounded" xlink:title="bounded" target="_parent">
<polygon fill="linen" stroke="black" points="136.5,-180 73.5,-180 73.5,-144 142.5,-144 142.5,-174 136.5,-180"/>
<polyline fill="none" stroke="black" points="136.5,-180 136.5,-174 "/>
<polyline fill="none" stroke="black" points="142.5,-174 136.5,-174 "/>
<text text-anchor="middle" x="108" y="-158.9" font-family="Source Code Pro,monospace" font-size="12.00">bounded</text>
</a>
</g>
</g>
<!-- bounded&#45;&gt;formalqueue -->
<g id="edge3" class="edge">
<title>bounded&#45;&gt;formalqueue</title>
<path fill="none" stroke="black" d="M110.97,-143.7C112.29,-135.98 113.88,-126.71 115.35,-118.11"/>
<polygon fill="black" stroke="black" points="118.83,-118.55 117.07,-108.1 111.93,-117.37 118.83,-118.55"/>
</g>
<!-- container -->
<g id="node5" class="node">
<title>container</title>
<g id="a_node5"><a xlink:href="PsyllaReference_Types.xhtml#PsyllaReference_Types_Details_container" xlink:title="container" target="_parent">
<polygon fill="linen" stroke="black" points="239,-180 161,-180 161,-144 245,-144 245,-174 239,-180"/>
<polyline fill="none" stroke="black" points="239,-180 239,-174 "/>
<polyline fill="none" stroke="black" points="245,-174 239,-174 "/>
<text text-anchor="middle" x="203" y="-158.9" font-family="Source Code Pro,monospace" font-size="12.00">container</text>
</a>
</g>
</g>
<!-- container&#45;&gt;formalqueue -->
<g id="edge4" class="edge">
<title>container&#45;&gt;formalqueue</title>
<path fill="none" stroke="black" d="M182.48,-143.7C172.13,-134.97 159.41,-124.24 148.16,-114.75"/>
<polygon fill="black" stroke="black" points="150.18,-111.88 140.28,-108.1 145.67,-117.23 150.18,-111.88"/>
</g>
<!-- object -->
<g id="node6" class="node">
<title>object</title>
<g id="a_node6"><a xlink:href="PsyllaReference_Types.xhtml#PsyllaReference_Types_Details_object" xlink:title="object" target="_parent">
<polygon fill="linen" stroke="black" points="172,-468 116,-468 116,-432 178,-432 178,-462 172,-468"/>
<polyline fill="none" stroke="black" points="172,-468 172,-462 "/>
<polyline fill="none" stroke="black" points="178,-462 172,-462 "/>
<text text-anchor="middle" x="147" y="-446.9" font-family="Source Code Pro,monospace" font-size="12.00">object</text>
</a>
</g>
</g>
<!-- object&#45;&gt;closeable -->
<g id="edge5" class="edge">
<title>object&#45;&gt;closeable</title>
<path fill="none" stroke="black" d="M129.36,-431.57C119.62,-421.57 107.6,-408.53 98,-396 82.49,-375.76 67.24,-351.12 56.58,-332.9"/>
<polygon fill="black" stroke="black" points="59.48,-330.92 51.44,-324.01 53.42,-334.42 59.48,-330.92"/>
</g>
<!-- lengthy -->
<g id="node7" class="node">
<title>lengthy</title>
<g id="a_node7"><a xlink:href="PsyllaReference_Types.xhtml#PsyllaReference_Types_Details_lengthy" xlink:title="lengthy" target="_parent">
<polygon fill="linen" stroke="black" points="140.5,-252 77.5,-252 77.5,-216 146.5,-216 146.5,-246 140.5,-252"/>
<polyline fill="none" stroke="black" points="140.5,-252 140.5,-246 "/>
<polyline fill="none" stroke="black" points="146.5,-246 140.5,-246 "/>
<text text-anchor="middle" x="112" y="-230.9" font-family="Source Code Pro,monospace" font-size="12.00">lengthy</text>
</a>
</g>
</g>
<!-- object&#45;&gt;lengthy -->
<g id="edge10" class="edge">
<title>object&#45;&gt;lengthy</title>
<path fill="none" stroke="black" d="M140.88,-431.53C137.51,-421.29 133.51,-408.04 131,-396 121.31,-349.46 116.13,-294.25 113.74,-262.06"/>
<polygon fill="black" stroke="black" points="117.23,-261.81 113.03,-252.08 110.24,-262.3 117.23,-261.81"/>
</g>
<!-- clearable -->
<g id="node8" class="node">
<title>clearable</title>
<g id="a_node8"><a xlink:href="PsyllaReference_Types.xhtml#PsyllaReference_Types_Details_clearable" xlink:title="clearable" target="_parent">
<polygon fill="linen" stroke="black" points="218,-396 140,-396 140,-360 224,-360 224,-390 218,-396"/>
<polyline fill="none" stroke="black" points="218,-396 218,-390 "/>
<polyline fill="none" stroke="black" points="224,-390 218,-390 "/>
<text text-anchor="middle" x="182" y="-374.9" font-family="Source Code Pro,monospace" font-size="12.00">clearable</text>
</a>
</g>
</g>
<!-- object&#45;&gt;clearable -->
<g id="edge11" class="edge">
<title>object&#45;&gt;clearable</title>
<path fill="none" stroke="black" d="M155.65,-431.7C159.64,-423.73 164.45,-414.1 168.87,-405.26"/>
<polygon fill="black" stroke="black" points="172.11,-406.61 173.45,-396.1 165.85,-403.48 172.11,-406.61"/>
</g>
<!-- sequential -->
<g id="node11" class="node">
<title>sequential</title>
<g id="a_node11"><a xlink:href="PsyllaReference_Types.xhtml#PsyllaReference_Types_Details_sequential" xlink:title="sequential" target="_parent">
<polygon fill="linen" stroke="black" points="328,-396 242,-396 242,-360 334,-360 334,-390 328,-396"/>
<polyline fill="none" stroke="black" points="328,-396 328,-390 "/>
<polyline fill="none" stroke="black" points="334,-390 328,-390 "/>
<text text-anchor="middle" x="288" y="-374.9" font-family="Source Code Pro,monospace" font-size="12.00">sequential</text>
</a>
</g>
</g>
<!-- object&#45;&gt;sequential -->
<g id="edge14" class="edge">
<title>object&#45;&gt;sequential</title>
<path fill="none" stroke="black" d="M178.29,-433.46C197.73,-423.82 222.99,-411.27 244.38,-400.66"/>
<polygon fill="black" stroke="black" points="246.18,-403.67 253.58,-396.09 243.07,-397.4 246.18,-403.67"/>
</g>
<!-- lengthy&#45;&gt;bounded -->
<g id="edge6" class="edge">
<title>lengthy&#45;&gt;bounded</title>
<path fill="none" stroke="black" d="M111.01,-215.7C110.57,-207.98 110.04,-198.71 109.55,-190.11"/>
<polygon fill="black" stroke="black" points="113.04,-189.89 108.98,-180.1 106.05,-190.29 113.04,-189.89"/>
</g>
<!-- lengthy&#45;&gt;container -->
<g id="edge9" class="edge">
<title>lengthy&#45;&gt;container</title>
<path fill="none" stroke="black" d="M134.49,-215.7C145.96,-206.88 160.06,-196.03 172.48,-186.47"/>
<polygon fill="black" stroke="black" points="174.97,-188.98 180.76,-180.1 170.7,-183.43 174.97,-188.98"/>
</g>
<!-- clearable&#45;&gt;container -->
<g id="edge7" class="edge">
<title>clearable&#45;&gt;container</title>
<path fill="none" stroke="black" d="M183.68,-359.85C187.32,-322.83 195.92,-235.18 200.31,-190.39"/>
<polygon fill="black" stroke="black" points="203.82,-190.53 201.31,-180.23 196.85,-189.84 203.82,-190.53"/>
</g>
<!-- iterable -->
<g id="node9" class="node">
<title>iterable</title>
<g id="a_node9"><a xlink:href="PsyllaReference_Types.xhtml#PsyllaReference_Types_Details_iterable" xlink:title="iterable" target="_parent">
<polygon fill="linen" stroke="black" points="299.5,-252 228.5,-252 228.5,-216 305.5,-216 305.5,-246 299.5,-252"/>
<polyline fill="none" stroke="black" points="299.5,-252 299.5,-246 "/>
<polyline fill="none" stroke="black" points="305.5,-246 299.5,-246 "/>
<text text-anchor="middle" x="267" y="-230.9" font-family="Source Code Pro,monospace" font-size="12.00">iterable</text>
</a>
</g>
</g>
<!-- iterable&#45;&gt;container -->
<g id="edge8" class="edge">
<title>iterable&#45;&gt;container</title>
<path fill="none" stroke="black" d="M251.18,-215.7C243.43,-207.22 233.96,-196.86 225.48,-187.58"/>
<polygon fill="black" stroke="black" points="227.97,-185.12 218.64,-180.1 222.8,-189.85 227.97,-185.12"/>
</g>
<!-- streamable -->
<g id="node10" class="node">
<title>streamable</title>
<g id="a_node10"><a xlink:href="PsyllaReference_Types.xhtml#PsyllaReference_Types_Details_streamable" xlink:title="streamable" target="_parent">
<polygon fill="linen" stroke="black" points="316,-324 230,-324 230,-288 322,-288 322,-318 316,-324"/>
<polyline fill="none" stroke="black" points="316,-324 316,-318 "/>
<polyline fill="none" stroke="black" points="322,-318 316,-318 "/>
<text text-anchor="middle" x="276" y="-302.9" font-family="Source Code Pro,monospace" font-size="12.00">streamable</text>
</a>
</g>
</g>
<!-- streamable&#45;&gt;iterable -->
<g id="edge12" class="edge">
<title>streamable&#45;&gt;iterable</title>
<path fill="none" stroke="black" d="M273.78,-287.7C272.78,-279.98 271.59,-270.71 270.49,-262.11"/>
<polygon fill="black" stroke="black" points="273.95,-261.58 269.2,-252.1 267,-262.47 273.95,-261.58"/>
</g>
<!-- sequential&#45;&gt;streamable -->
<g id="edge13" class="edge">
<title>sequential&#45;&gt;streamable</title>
<path fill="none" stroke="black" d="M285.03,-359.7C283.71,-351.98 282.12,-342.71 280.65,-334.11"/>
<polygon fill="black" stroke="black" points="284.07,-333.37 278.93,-324.1 277.17,-334.55 284.07,-333.37"/>
</g>
</g>
</svg>
