<?xml version="1.0" encoding="UTF-8" standalone="no"?>
<!DOCTYPE svg PUBLIC "-//W3C//DTD SVG 1.1//EN"
 "http://www.w3.org/Graphics/SVG/1.1/DTD/svg11.dtd">
<!-- Generated by graphviz version 2.49.3 (0)
 -->
<!-- Title: realnumeric Pages: 1 -->
<svg width="577pt" height="332pt"
 viewBox="0.00 0.00 576.64 332.00" xmlns="http://www.w3.org/2000/svg" xmlns:xlink="http://www.w3.org/1999/xlink">
<g id="graph0" class="graph" transform="scale(1 1) rotate(0) translate(4 328)">
<title>realnumeric</title>
<polygon fill="transparent" stroke="transparent" points="-4,4 -4,-328 572.64,-328 572.64,4 -4,4"/>
<!-- numeric -->
<g id="node1" class="node">
<title>numeric</title>
<g id="a_node1"><a xlink:href="PsyllaReference_Types.xhtml#PsyllaReference_Types_Details_numeric" xlink:title="numeric" target="_parent">
<polygon fill="linen" stroke="black" points="390.13,-108 340.49,-108 340.49,-72 396.13,-72 396.13,-102 390.13,-108"/>
<polyline fill="none" stroke="black" points="390.13,-108 390.13,-102 "/>
<polyline fill="none" stroke="black" points="396.13,-102 390.13,-102 "/>
<text text-anchor="middle" x="368.31" y="-86.4" font-family="Source Code Pro,monospace" font-size="12.00">numeric</text>
</a>
</g>
</g>
<!-- realnumeric -->
<g id="node6" class="node">
<title>realnumeric</title>
<g id="a_node6"><a xlink:href="PsyllaReference_Types.xhtml#PsyllaReference_Types_Details_realnumeric" xlink:title="realnumeric" target="_parent">
<polygon fill="wheat" stroke="black" points="262.11,-36 194.51,-36 194.51,0 268.11,0 268.11,-30 262.11,-36"/>
<polyline fill="none" stroke="black" points="262.11,-36 262.11,-30 "/>
<polyline fill="none" stroke="black" points="268.11,-30 262.11,-30 "/>
<text text-anchor="middle" x="231.31" y="-14.4" font-family="Source Code Pro,monospace" font-size="12.00">realnumeric</text>
</a>
</g>
</g>
<!-- numeric&#45;&gt;realnumeric -->
<g id="edge1" class="edge">
<title>numeric&#45;&gt;realnumeric</title>
<path fill="none" stroke="black" d="M340.59,-74.83C321.43,-65.05 295.59,-51.84 273.84,-40.73"/>
<polygon fill="black" stroke="black" points="275.3,-37.55 264.8,-36.11 272.12,-43.78 275.3,-37.55"/>
</g>
<!-- convertabletointeger -->
<g id="node2" class="node">
<title>convertabletointeger</title>
<g id="a_node2"><a xlink:href="PsyllaReference_Types.xhtml#PsyllaReference_Types_Details_convertabletointeger" xlink:title="convertabletointeger" target="_parent">
<polygon fill="linen" stroke="black" points="108.44,-180 0.19,-180 0.19,-144 114.44,-144 114.44,-174 108.44,-180"/>
<polyline fill="none" stroke="black" points="108.44,-180 108.44,-174 "/>
<polyline fill="none" stroke="black" points="114.44,-174 108.44,-174 "/>
<text text-anchor="middle" x="57.31" y="-158.4" font-family="Source Code Pro,monospace" font-size="12.00">convertabletointeger</text>
</a>
</g>
</g>
<!-- convertabletointeger&#45;&gt;realnumeric -->
<g id="edge2" class="edge">
<title>convertabletointeger&#45;&gt;realnumeric</title>
<path fill="none" stroke="black" d="M56.26,-143.72C56.02,-123.98 58.69,-91.85 76.31,-72 103.63,-41.22 149.59,-28.3 184.39,-22.89"/>
<polygon fill="black" stroke="black" points="184.93,-26.35 194.34,-21.49 183.95,-19.41 184.93,-26.35"/>
</g>
<!-- convertabletointegral -->
<g id="node3" class="node">
<title>convertabletointegral</title>
<g id="a_node3"><a xlink:href="PsyllaReference_Types.xhtml#PsyllaReference_Types_Details_convertabletointegral" xlink:title="convertabletointegral" target="_parent">
<polygon fill="linen" stroke="black" points="197.27,-108 85.35,-108 85.35,-72 203.27,-72 203.27,-102 197.27,-108"/>
<polyline fill="none" stroke="black" points="197.27,-108 197.27,-102 "/>
<polyline fill="none" stroke="black" points="203.27,-102 197.27,-102 "/>
<text text-anchor="middle" x="144.31" y="-86.4" font-family="Source Code Pro,monospace" font-size="12.00">convertabletointegral</text>
</a>
</g>
</g>
<!-- convertabletointegral&#45;&gt;realnumeric -->
<g id="edge3" class="edge">
<title>convertabletointegral&#45;&gt;realnumeric</title>
<path fill="none" stroke="black" d="M165.82,-71.7C176.77,-62.88 190.26,-52.03 202.14,-42.47"/>
<polygon fill="black" stroke="black" points="204.46,-45.1 210.05,-36.1 200.07,-39.65 204.46,-45.1"/>
</g>
<!-- convertabletorational -->
<g id="node4" class="node">
<title>convertabletorational</title>
<g id="a_node4"><a xlink:href="PsyllaReference_Types.xhtml#PsyllaReference_Types_Details_convertabletorational" xlink:title="convertabletorational" target="_parent">
<polygon fill="linen" stroke="black" points="282.27,-180 170.35,-180 170.35,-144 288.27,-144 288.27,-174 282.27,-180"/>
<polyline fill="none" stroke="black" points="282.27,-180 282.27,-174 "/>
<polyline fill="none" stroke="black" points="288.27,-174 282.27,-174 "/>
<text text-anchor="middle" x="229.31" y="-158.4" font-family="Source Code Pro,monospace" font-size="12.00">convertabletorational</text>
</a>
</g>
</g>
<!-- convertabletorational&#45;&gt;realnumeric -->
<g id="edge4" class="edge">
<title>convertabletorational&#45;&gt;realnumeric</title>
<path fill="none" stroke="black" d="M229.55,-143.87C229.89,-119.67 230.52,-75.21 230.93,-46.39"/>
<polygon fill="black" stroke="black" points="234.43,-46.24 231.07,-36.19 227.43,-46.14 234.43,-46.24"/>
</g>
<!-- scalar -->
<g id="node5" class="node">
<title>scalar</title>
<g id="a_node5"><a xlink:href="PsyllaReference_Types.xhtml#PsyllaReference_Types_Details_scalar" xlink:title="scalar" target="_parent">
<polygon fill="linen" stroke="black" points="313.31,-108 265.31,-108 265.31,-72 319.31,-72 319.31,-102 313.31,-108"/>
<polyline fill="none" stroke="black" points="313.31,-108 313.31,-102 "/>
<polyline fill="none" stroke="black" points="319.31,-102 313.31,-102 "/>
<text text-anchor="middle" x="292.31" y="-86.4" font-family="Source Code Pro,monospace" font-size="12.00">scalar</text>
</a>
</g>
</g>
<!-- scalar&#45;&gt;realnumeric -->
<g id="edge5" class="edge">
<title>scalar&#45;&gt;realnumeric</title>
<path fill="none" stroke="black" d="M277.23,-71.7C269.92,-63.3 261,-53.07 252.98,-43.86"/>
<polygon fill="black" stroke="black" points="255.43,-41.34 246.22,-36.1 250.15,-45.94 255.43,-41.34"/>
</g>
<!-- arithmetic -->
<g id="node7" class="node">
<title>arithmetic</title>
<g id="a_node7"><a xlink:href="PsyllaReference_Types.xhtml#PsyllaReference_Types_Details_arithmetic" xlink:title="arithmetic" target="_parent">
<polygon fill="linen" stroke="black" points="466.46,-180 408.16,-180 408.16,-144 472.46,-144 472.46,-174 466.46,-180"/>
<polyline fill="none" stroke="black" points="466.46,-180 466.46,-174 "/>
<polyline fill="none" stroke="black" points="472.46,-174 466.46,-174 "/>
<text text-anchor="middle" x="440.31" y="-158.4" font-family="Source Code Pro,monospace" font-size="12.00">arithmetic</text>
</a>
</g>
</g>
<!-- arithmetic&#45;&gt;numeric -->
<g id="edge6" class="edge">
<title>arithmetic&#45;&gt;numeric</title>
<path fill="none" stroke="black" d="M422.51,-143.7C413.71,-135.14 402.93,-124.66 393.31,-115.3"/>
<polygon fill="black" stroke="black" points="395.51,-112.57 385.91,-108.1 390.64,-117.58 395.51,-112.57"/>
</g>
<!-- value -->
<g id="node8" class="node">
<title>value</title>
<g id="a_node8"><a xlink:href="PsyllaReference_Types.xhtml#PsyllaReference_Types_Details_value" xlink:title="value" target="_parent">
<polygon fill="linen" stroke="black" points="389.31,-252 341.31,-252 341.31,-216 395.31,-216 395.31,-246 389.31,-252"/>
<polyline fill="none" stroke="black" points="389.31,-252 389.31,-246 "/>
<polyline fill="none" stroke="black" points="395.31,-246 389.31,-246 "/>
<text text-anchor="middle" x="368.31" y="-230.4" font-family="Source Code Pro,monospace" font-size="12.00">value</text>
</a>
</g>
</g>
<!-- value&#45;&gt;numeric -->
<g id="edge7" class="edge">
<title>value&#45;&gt;numeric</title>
<path fill="none" stroke="black" d="M368.31,-215.87C368.31,-191.67 368.31,-147.21 368.31,-118.39"/>
<polygon fill="black" stroke="black" points="371.81,-118.19 368.31,-108.19 364.81,-118.19 371.81,-118.19"/>
</g>
<!-- object -->
<g id="node9" class="node">
<title>object</title>
<g id="a_node9"><a xlink:href="PsyllaReference_Types.xhtml#PsyllaReference_Types_Details_object" xlink:title="object" target="_parent">
<polygon fill="linen" stroke="black" points="334.31,-324 286.31,-324 286.31,-288 340.31,-288 340.31,-318 334.31,-324"/>
<polyline fill="none" stroke="black" points="334.31,-324 334.31,-318 "/>
<polyline fill="none" stroke="black" points="340.31,-318 334.31,-318 "/>
<text text-anchor="middle" x="313.31" y="-302.4" font-family="Source Code Pro,monospace" font-size="12.00">object</text>
</a>
</g>
</g>
<!-- object&#45;&gt;convertabletointeger -->
<g id="edge8" class="edge">
<title>object&#45;&gt;convertabletointeger</title>
<path fill="none" stroke="black" d="M286.03,-302.43C247.9,-297.73 177.79,-285 128.31,-252 104.07,-235.83 84.2,-208.77 71.71,-188.72"/>
<polygon fill="black" stroke="black" points="74.66,-186.83 66.5,-180.07 68.66,-190.44 74.66,-186.83"/>
</g>
<!-- object&#45;&gt;convertabletointegral -->
<g id="edge9" class="edge">
<title>object&#45;&gt;convertabletointegral</title>
<path fill="none" stroke="black" d="M286.16,-290.65C251.31,-270.72 191.74,-231.27 161.31,-180 150.24,-161.34 146.16,-136.95 144.76,-118.43"/>
<polygon fill="black" stroke="black" points="148.24,-118.08 144.21,-108.28 141.25,-118.46 148.24,-118.08"/>
</g>
<!-- object&#45;&gt;convertabletorational -->
<g id="edge10" class="edge">
<title>object&#45;&gt;convertabletorational</title>
<path fill="none" stroke="black" d="M303.18,-287.87C288.61,-263.24 261.63,-217.64 244.62,-188.88"/>
<polygon fill="black" stroke="black" points="247.58,-187.01 239.48,-180.19 241.56,-190.58 247.58,-187.01"/>
</g>
<!-- object&#45;&gt;scalar -->
<g id="edge11" class="edge">
<title>object&#45;&gt;scalar</title>
<path fill="none" stroke="black" d="M311.63,-287.85C308,-250.83 299.4,-163.18 295,-118.39"/>
<polygon fill="black" stroke="black" points="298.46,-117.84 294,-108.23 291.5,-118.53 298.46,-117.84"/>
</g>
<!-- object&#45;&gt;value -->
<g id="edge14" class="edge">
<title>object&#45;&gt;value</title>
<path fill="none" stroke="black" d="M326.91,-287.7C333.43,-279.39 341.38,-269.28 348.56,-260.14"/>
<polygon fill="black" stroke="black" points="351.45,-262.13 354.87,-252.1 345.94,-257.81 351.45,-262.13"/>
</g>
<!-- additive -->
<g id="node10" class="node">
<title>additive</title>
<g id="a_node10"><a xlink:href="PsyllaReference_Types.xhtml#PsyllaReference_Types_Details_additive" xlink:title="additive" target="_parent">
<polygon fill="linen" stroke="black" points="461.47,-252 413.15,-252 413.15,-216 467.47,-216 467.47,-246 461.47,-252"/>
<polyline fill="none" stroke="black" points="461.47,-252 461.47,-246 "/>
<polyline fill="none" stroke="black" points="467.47,-246 461.47,-246 "/>
<text text-anchor="middle" x="440.31" y="-230.4" font-family="Source Code Pro,monospace" font-size="12.00">additive</text>
</a>
</g>
</g>
<!-- object&#45;&gt;additive -->
<g id="edge15" class="edge">
<title>object&#45;&gt;additive</title>
<path fill="none" stroke="black" d="M340.56,-289.98C359.14,-279.74 383.95,-266.07 404.18,-254.92"/>
<polygon fill="black" stroke="black" points="406.04,-257.88 413.11,-249.99 402.67,-251.75 406.04,-257.88"/>
</g>
<!-- multiplicative -->
<g id="node11" class="node">
<title>multiplicative</title>
<g id="a_node11"><a xlink:href="PsyllaReference_Types.xhtml#PsyllaReference_Types_Details_multiplicative" xlink:title="multiplicative" target="_parent">
<polygon fill="linen" stroke="black" points="562.47,-252 486.15,-252 486.15,-216 568.47,-216 568.47,-246 562.47,-252"/>
<polyline fill="none" stroke="black" points="562.47,-252 562.47,-246 "/>
<polyline fill="none" stroke="black" points="568.47,-246 562.47,-246 "/>
<text text-anchor="middle" x="527.31" y="-230.4" font-family="Source Code Pro,monospace" font-size="12.00">multiplicative</text>
</a>
</g>
</g>
<!-- object&#45;&gt;multiplicative -->
<g id="edge16" class="edge">
<title>object&#45;&gt;multiplicative</title>
<path fill="none" stroke="black" d="M340.44,-296.25C372.81,-285.79 428.55,-267.73 476.31,-252 476.41,-251.97 476.51,-251.93 476.61,-251.9"/>
<polygon fill="black" stroke="black" points="477.73,-255.22 486.12,-248.76 475.53,-248.57 477.73,-255.22"/>
</g>
<!-- additive&#45;&gt;arithmetic -->
<g id="edge12" class="edge">
<title>additive&#45;&gt;arithmetic</title>
<path fill="none" stroke="black" d="M440.31,-215.7C440.31,-207.98 440.31,-198.71 440.31,-190.11"/>
<polygon fill="black" stroke="black" points="443.81,-190.1 440.31,-180.1 436.81,-190.1 443.81,-190.1"/>
</g>
<!-- multiplicative&#45;&gt;arithmetic -->
<g id="edge13" class="edge">
<title>multiplicative&#45;&gt;arithmetic</title>
<path fill="none" stroke="black" d="M505.81,-215.7C494.85,-206.88 481.37,-196.03 469.49,-186.47"/>
<polygon fill="black" stroke="black" points="471.56,-183.65 461.57,-180.1 467.17,-189.1 471.56,-183.65"/>
</g>
</g>
</svg>
