<?xml version="1.0" encoding="UTF-8" standalone="no"?>
<!DOCTYPE svg PUBLIC "-//W3C//DTD SVG 1.1//EN"
 "http://www.w3.org/Graphics/SVG/1.1/DTD/svg11.dtd">
<!-- Generated by graphviz version 2.43.0 (0)
 -->
<!-- Title: string Pages: 1 -->
<svg width="499pt" height="476pt"
 viewBox="0.00 0.00 498.50 476.00" xmlns="http://www.w3.org/2000/svg" xmlns:xlink="http://www.w3.org/1999/xlink">
<g id="graph0" class="graph" transform="scale(1 1) rotate(0) translate(4 472)">
<title>string</title>
<polygon fill="transparent" stroke="transparent" points="-4,4 -4,-472 494.5,-472 494.5,4 -4,4"/>
<!-- textual -->
<g id="node1" class="node">
<title>textual</title>
<g id="a_node1"><a xlink:href="PsyllaReference_Types.xhtml#PsyllaReference_Types_Details_textual" xlink:title="textual" target="_parent">
<polygon fill="linen" stroke="black" points="137.5,-180 84.5,-180 84.5,-144 143.5,-144 143.5,-174 137.5,-180"/>
<polyline fill="none" stroke="black" points="137.5,-180 137.5,-174 "/>
<polyline fill="none" stroke="black" points="143.5,-174 137.5,-174 "/>
<text text-anchor="middle" x="114" y="-159.5" font-family="PT Mono, monospace" font-size="10.00">textual</text>
</a>
</g>
</g>
<!-- string -->
<g id="node3" class="node">
<title>string</title>
<g id="a_node3"><a xlink:href="PsyllaReference_Types.xhtml#PsyllaReference_Types_Details_string" xlink:title="string" target="_parent">
<polygon fill="wheat" stroke="black" points="250,-36 202,-36 202,0 256,0 256,-30 250,-36"/>
<polyline fill="none" stroke="black" points="250,-36 250,-30 "/>
<polyline fill="none" stroke="black" points="256,-30 250,-30 "/>
<text text-anchor="middle" x="229" y="-15.5" font-family="PT Mono, monospace" font-size="10.00">string</text>
</a>
</g>
</g>
<!-- textual&#45;&gt;string -->
<g id="edge1" class="edge">
<title>textual&#45;&gt;string</title>
<path fill="none" stroke="black" d="M127.87,-143.87C147.99,-119.03 185.39,-72.85 208.64,-44.14"/>
<polygon fill="black" stroke="black" points="211.51,-46.16 215.08,-36.19 206.07,-41.76 211.51,-46.16"/>
</g>
<!-- formalarray -->
<g id="node2" class="node">
<title>formalarray</title>
<g id="a_node2"><a xlink:href="PsyllaReference_Types.xhtml#PsyllaReference_Types_Details_formalarray" xlink:title="formalarray" target="_parent">
<polygon fill="linen" stroke="black" points="379.5,-108 302.5,-108 302.5,-72 385.5,-72 385.5,-102 379.5,-108"/>
<polyline fill="none" stroke="black" points="379.5,-108 379.5,-102 "/>
<polyline fill="none" stroke="black" points="385.5,-102 379.5,-102 "/>
<text text-anchor="middle" x="344" y="-87.5" font-family="PT Mono, monospace" font-size="10.00">formalarray</text>
</a>
</g>
</g>
<!-- formalarray&#45;&gt;string -->
<g id="edge2" class="edge">
<title>formalarray&#45;&gt;string</title>
<path fill="none" stroke="black" d="M315.87,-71.88C300.49,-62.52 281.29,-50.83 264.86,-40.83"/>
<polygon fill="black" stroke="black" points="266.41,-37.67 256.05,-35.47 262.77,-43.65 266.41,-37.67"/>
</g>
<!-- evaluable -->
<g id="node4" class="node">
<title>evaluable</title>
<g id="a_node4"><a xlink:href="PsyllaReference_Types.xhtml#PsyllaReference_Types_Details_evaluable" xlink:title="evaluable" target="_parent">
<polygon fill="linen" stroke="black" points="115.5,-324 50.5,-324 50.5,-288 121.5,-288 121.5,-318 115.5,-324"/>
<polyline fill="none" stroke="black" points="115.5,-324 115.5,-318 "/>
<polyline fill="none" stroke="black" points="121.5,-318 115.5,-318 "/>
<text text-anchor="middle" x="86" y="-303.5" font-family="PT Mono, monospace" font-size="10.00">evaluable</text>
</a>
</g>
</g>
<!-- evaluable&#45;&gt;textual -->
<g id="edge3" class="edge">
<title>evaluable&#45;&gt;textual</title>
<path fill="none" stroke="black" d="M79.57,-287.84C73.71,-269.6 67.08,-240.11 75,-216 78.31,-205.91 84.37,-196.15 90.73,-187.82"/>
<polygon fill="black" stroke="black" points="93.5,-189.97 97.11,-180.01 88.08,-185.54 93.5,-189.97"/>
</g>
<!-- iterable -->
<g id="node5" class="node">
<title>iterable</title>
<g id="a_node5"><a xlink:href="PsyllaReference_Types.xhtml#PsyllaReference_Types_Details_iterable" xlink:title="iterable" target="_parent">
<polygon fill="linen" stroke="black" points="309.5,-252 250.5,-252 250.5,-216 315.5,-216 315.5,-246 309.5,-252"/>
<polyline fill="none" stroke="black" points="309.5,-252 309.5,-246 "/>
<polyline fill="none" stroke="black" points="315.5,-246 309.5,-246 "/>
<text text-anchor="middle" x="283" y="-231.5" font-family="PT Mono, monospace" font-size="10.00">iterable</text>
</a>
</g>
</g>
<!-- iterable&#45;&gt;textual -->
<g id="edge4" class="edge">
<title>iterable&#45;&gt;textual</title>
<path fill="none" stroke="black" d="M250.42,-219.5C222.67,-208.01 182.72,-191.47 153.23,-179.25"/>
<polygon fill="black" stroke="black" points="154.23,-175.88 143.66,-175.28 151.55,-182.34 154.23,-175.88"/>
</g>
<!-- container -->
<g id="node9" class="node">
<title>container</title>
<g id="a_node9"><a xlink:href="PsyllaReference_Types.xhtml#PsyllaReference_Types_Details_container" xlink:title="container" target="_parent">
<polygon fill="linen" stroke="black" points="267.5,-180 202.5,-180 202.5,-144 273.5,-144 273.5,-174 267.5,-180"/>
<polyline fill="none" stroke="black" points="267.5,-180 267.5,-174 "/>
<polyline fill="none" stroke="black" points="273.5,-174 267.5,-174 "/>
<text text-anchor="middle" x="238" y="-159.5" font-family="PT Mono, monospace" font-size="10.00">container</text>
</a>
</g>
</g>
<!-- iterable&#45;&gt;container -->
<g id="edge17" class="edge">
<title>iterable&#45;&gt;container</title>
<path fill="none" stroke="black" d="M271.88,-215.7C266.64,-207.56 260.3,-197.69 254.52,-188.7"/>
<polygon fill="black" stroke="black" points="257.35,-186.62 249,-180.1 251.46,-190.41 257.35,-186.62"/>
</g>
<!-- lengthy -->
<g id="node6" class="node">
<title>lengthy</title>
<g id="a_node6"><a xlink:href="PsyllaReference_Types.xhtml#PsyllaReference_Types_Details_lengthy" xlink:title="lengthy" target="_parent">
<polygon fill="linen" stroke="black" points="137.5,-252 84.5,-252 84.5,-216 143.5,-216 143.5,-246 137.5,-252"/>
<polyline fill="none" stroke="black" points="137.5,-252 137.5,-246 "/>
<polyline fill="none" stroke="black" points="143.5,-246 137.5,-246 "/>
<text text-anchor="middle" x="114" y="-231.5" font-family="PT Mono, monospace" font-size="10.00">lengthy</text>
</a>
</g>
</g>
<!-- lengthy&#45;&gt;textual -->
<g id="edge5" class="edge">
<title>lengthy&#45;&gt;textual</title>
<path fill="none" stroke="black" d="M114,-215.7C114,-207.98 114,-198.71 114,-190.11"/>
<polygon fill="black" stroke="black" points="117.5,-190.1 114,-180.1 110.5,-190.1 117.5,-190.1"/>
</g>
<!-- lengthy&#45;&gt;container -->
<g id="edge18" class="edge">
<title>lengthy&#45;&gt;container</title>
<path fill="none" stroke="black" d="M143.7,-216.23C160.17,-206.93 180.87,-195.25 198.67,-185.2"/>
<polygon fill="black" stroke="black" points="200.69,-188.08 207.68,-180.12 197.25,-181.98 200.69,-188.08"/>
</g>
<!-- scalar -->
<g id="node7" class="node">
<title>scalar</title>
<g id="a_node7"><a xlink:href="PsyllaReference_Types.xhtml#PsyllaReference_Types_Details_scalar" xlink:title="scalar" target="_parent">
<polygon fill="linen" stroke="black" points="48,-396 0,-396 0,-360 54,-360 54,-390 48,-396"/>
<polyline fill="none" stroke="black" points="48,-396 48,-390 "/>
<polyline fill="none" stroke="black" points="54,-390 48,-390 "/>
<text text-anchor="middle" x="27" y="-375.5" font-family="PT Mono, monospace" font-size="10.00">scalar</text>
</a>
</g>
</g>
<!-- scalar&#45;&gt;textual -->
<g id="edge6" class="edge">
<title>scalar&#45;&gt;textual</title>
<path fill="none" stroke="black" d="M28.18,-359.8C30.97,-328.97 39.98,-263.09 68,-216 73.85,-206.16 81.61,-196.4 89.08,-187.99"/>
<polygon fill="black" stroke="black" points="91.89,-190.11 96.08,-180.39 86.74,-185.37 91.89,-190.11"/>
</g>
<!-- appendable -->
<g id="node8" class="node">
<title>appendable</title>
<g id="a_node8"><a xlink:href="PsyllaReference_Types.xhtml#PsyllaReference_Types_Details_appendable" xlink:title="appendable" target="_parent">
<polygon fill="linen" stroke="black" points="436.5,-324 365.5,-324 365.5,-288 442.5,-288 442.5,-318 436.5,-324"/>
<polyline fill="none" stroke="black" points="436.5,-324 436.5,-318 "/>
<polyline fill="none" stroke="black" points="442.5,-318 436.5,-318 "/>
<text text-anchor="middle" x="404" y="-303.5" font-family="PT Mono, monospace" font-size="10.00">appendable</text>
</a>
</g>
</g>
<!-- appendable&#45;&gt;formalarray -->
<g id="edge7" class="edge">
<title>appendable&#45;&gt;formalarray</title>
<path fill="none" stroke="black" d="M399.19,-287.85C388.79,-250.75 364.13,-162.81 351.6,-118.1"/>
<polygon fill="black" stroke="black" points="354.9,-116.92 348.83,-108.23 348.16,-118.81 354.9,-116.92"/>
</g>
<!-- container&#45;&gt;formalarray -->
<g id="edge8" class="edge">
<title>container&#45;&gt;formalarray</title>
<path fill="none" stroke="black" d="M263.93,-143.88C277.66,-134.81 294.71,-123.55 309.54,-113.76"/>
<polygon fill="black" stroke="black" points="311.55,-116.62 317.97,-108.19 307.7,-110.78 311.55,-116.62"/>
</g>
<!-- indexed -->
<g id="node10" class="node">
<title>indexed</title>
<g id="a_node10"><a xlink:href="PsyllaReference_Types.xhtml#PsyllaReference_Types_Details_indexed" xlink:title="indexed" target="_parent">
<polygon fill="linen" stroke="black" points="484.5,-180 431.5,-180 431.5,-144 490.5,-144 490.5,-174 484.5,-180"/>
<polyline fill="none" stroke="black" points="484.5,-180 484.5,-174 "/>
<polyline fill="none" stroke="black" points="490.5,-174 484.5,-174 "/>
<text text-anchor="middle" x="461" y="-159.5" font-family="PT Mono, monospace" font-size="10.00">indexed</text>
</a>
</g>
</g>
<!-- indexed&#45;&gt;formalarray -->
<g id="edge9" class="edge">
<title>indexed&#45;&gt;formalarray</title>
<path fill="none" stroke="black" d="M432.38,-143.88C417.08,-134.72 398.06,-123.34 381.58,-113.48"/>
<polygon fill="black" stroke="black" points="383.11,-110.32 372.73,-108.19 379.52,-116.33 383.11,-110.32"/>
</g>
<!-- sequential -->
<g id="node11" class="node">
<title>sequential</title>
<g id="a_node11"><a xlink:href="PsyllaReference_Types.xhtml#PsyllaReference_Types_Details_sequential" xlink:title="sequential" target="_parent">
<polygon fill="linen" stroke="black" points="302.5,-396 231.5,-396 231.5,-360 308.5,-360 308.5,-390 302.5,-396"/>
<polyline fill="none" stroke="black" points="302.5,-396 302.5,-390 "/>
<polyline fill="none" stroke="black" points="308.5,-390 302.5,-390 "/>
<text text-anchor="middle" x="270" y="-375.5" font-family="PT Mono, monospace" font-size="10.00">sequential</text>
</a>
</g>
</g>
<!-- sequential&#45;&gt;formalarray -->
<g id="edge10" class="edge">
<title>sequential&#45;&gt;formalarray</title>
<path fill="none" stroke="black" d="M290.12,-359.9C299.91,-350.38 310.88,-337.7 317,-324 347.86,-254.97 348.16,-163.49 345.99,-118.45"/>
<polygon fill="black" stroke="black" points="349.48,-118.08 345.42,-108.3 342.49,-118.48 349.48,-118.08"/>
</g>
<!-- streamable -->
<g id="node13" class="node">
<title>streamable</title>
<g id="a_node13"><a xlink:href="PsyllaReference_Types.xhtml#PsyllaReference_Types_Details_streamable" xlink:title="streamable" target="_parent">
<polygon fill="linen" stroke="black" points="302.5,-324 231.5,-324 231.5,-288 308.5,-288 308.5,-318 302.5,-324"/>
<polyline fill="none" stroke="black" points="302.5,-324 302.5,-318 "/>
<polyline fill="none" stroke="black" points="308.5,-318 302.5,-318 "/>
<text text-anchor="middle" x="270" y="-303.5" font-family="PT Mono, monospace" font-size="10.00">streamable</text>
</a>
</g>
</g>
<!-- sequential&#45;&gt;streamable -->
<g id="edge21" class="edge">
<title>sequential&#45;&gt;streamable</title>
<path fill="none" stroke="black" d="M270,-359.7C270,-351.98 270,-342.71 270,-334.11"/>
<polygon fill="black" stroke="black" points="273.5,-334.1 270,-324.1 266.5,-334.1 273.5,-334.1"/>
</g>
<!-- object -->
<g id="node12" class="node">
<title>object</title>
<g id="a_node12"><a xlink:href="PsyllaReference_Types.xhtml#PsyllaReference_Types_Details_object" xlink:title="object" target="_parent">
<polygon fill="linen" stroke="black" points="218,-468 170,-468 170,-432 224,-432 224,-462 218,-468"/>
<polyline fill="none" stroke="black" points="218,-468 218,-462 "/>
<polyline fill="none" stroke="black" points="224,-462 218,-462 "/>
<text text-anchor="middle" x="197" y="-447.5" font-family="PT Mono, monospace" font-size="10.00">object</text>
</a>
</g>
</g>
<!-- object&#45;&gt;evaluable -->
<g id="edge11" class="edge">
<title>object&#45;&gt;evaluable</title>
<path fill="none" stroke="black" d="M177.01,-431.91C166.03,-422 152.54,-408.96 142,-396 125.91,-376.22 110.71,-351.53 100.22,-333.18"/>
<polygon fill="black" stroke="black" points="103.13,-331.22 95.18,-324.22 97.03,-334.65 103.13,-331.22"/>
</g>
<!-- object&#45;&gt;lengthy -->
<g id="edge13" class="edge">
<title>object&#45;&gt;lengthy</title>
<path fill="none" stroke="black" d="M190.35,-431.85C175.93,-394.68 141.71,-306.44 124.4,-261.82"/>
<polygon fill="black" stroke="black" points="127.56,-260.29 120.68,-252.23 121.04,-262.82 127.56,-260.29"/>
</g>
<!-- object&#45;&gt;scalar -->
<g id="edge14" class="edge">
<title>object&#45;&gt;scalar</title>
<path fill="none" stroke="black" d="M169.69,-437.75C140.94,-425.92 95.52,-407.21 63.66,-394.1"/>
<polygon fill="black" stroke="black" points="64.83,-390.79 54.25,-390.22 62.16,-397.26 64.83,-390.79"/>
</g>
<!-- object&#45;&gt;appendable -->
<g id="edge15" class="edge">
<title>object&#45;&gt;appendable</title>
<path fill="none" stroke="black" d="M224.26,-440.32C249.63,-431.5 287.8,-416.25 317,-396 342.95,-378.01 367.62,-351.56 384.02,-332.17"/>
<polygon fill="black" stroke="black" points="386.82,-334.27 390.52,-324.34 381.44,-329.79 386.82,-334.27"/>
</g>
<!-- object&#45;&gt;indexed -->
<g id="edge19" class="edge">
<title>object&#45;&gt;indexed</title>
<path fill="none" stroke="black" d="M224.25,-445.6C279.75,-437 404.53,-408.66 451,-324 474.1,-281.91 470.75,-223.99 466.01,-190.31"/>
<polygon fill="black" stroke="black" points="469.45,-189.63 464.45,-180.28 462.53,-190.7 469.45,-189.63"/>
</g>
<!-- object&#45;&gt;sequential -->
<g id="edge20" class="edge">
<title>object&#45;&gt;sequential</title>
<path fill="none" stroke="black" d="M215.04,-431.7C224.06,-423.05 235.12,-412.45 244.94,-403.03"/>
<polygon fill="black" stroke="black" points="247.37,-405.55 252.16,-396.1 242.52,-400.5 247.37,-405.55"/>
</g>
<!-- clearable -->
<g id="node14" class="node">
<title>clearable</title>
<g id="a_node14"><a xlink:href="PsyllaReference_Types.xhtml#PsyllaReference_Types_Details_clearable" xlink:title="clearable" target="_parent">
<polygon fill="linen" stroke="black" points="226.5,-252 161.5,-252 161.5,-216 232.5,-216 232.5,-246 226.5,-252"/>
<polyline fill="none" stroke="black" points="226.5,-252 226.5,-246 "/>
<polyline fill="none" stroke="black" points="232.5,-246 226.5,-246 "/>
<text text-anchor="middle" x="197" y="-231.5" font-family="PT Mono, monospace" font-size="10.00">clearable</text>
</a>
</g>
</g>
<!-- object&#45;&gt;clearable -->
<g id="edge22" class="edge">
<title>object&#45;&gt;clearable</title>
<path fill="none" stroke="black" d="M197,-431.85C197,-394.83 197,-307.18 197,-262.39"/>
<polygon fill="black" stroke="black" points="200.5,-262.23 197,-252.23 193.5,-262.23 200.5,-262.23"/>
</g>
<!-- streamable&#45;&gt;iterable -->
<g id="edge12" class="edge">
<title>streamable&#45;&gt;iterable</title>
<path fill="none" stroke="black" d="M273.21,-287.7C274.65,-279.98 276.37,-270.71 277.96,-262.11"/>
<polygon fill="black" stroke="black" points="281.44,-262.58 279.82,-252.1 274.56,-261.3 281.44,-262.58"/>
</g>
<!-- clearable&#45;&gt;container -->
<g id="edge16" class="edge">
<title>clearable&#45;&gt;container</title>
<path fill="none" stroke="black" d="M207.13,-215.7C211.85,-207.64 217.56,-197.89 222.78,-188.98"/>
<polygon fill="black" stroke="black" points="225.95,-190.5 227.98,-180.1 219.91,-186.96 225.95,-190.5"/>
</g>
</g>
</svg>
