<?xml version="1.0" encoding="UTF-8" standalone="no"?>
<!DOCTYPE svg PUBLIC "-//W3C//DTD SVG 1.1//EN"
 "http://www.w3.org/Graphics/SVG/1.1/DTD/svg11.dtd">
<!-- Generated by graphviz version 2.43.0 (0)
 -->
<!-- Title: biginteger Pages: 1 -->
<svg width="336pt" height="476pt"
 viewBox="0.00 0.00 335.50 476.00" xmlns="http://www.w3.org/2000/svg" xmlns:xlink="http://www.w3.org/1999/xlink">
<g id="graph0" class="graph" transform="scale(1 1) rotate(0) translate(4 472)">
<title>biginteger</title>
<polygon fill="transparent" stroke="transparent" points="-4,4 -4,-472 331.5,-472 331.5,4 -4,4"/>
<!-- bitwise -->
<g id="node1" class="node">
<title>bitwise</title>
<g id="a_node1"><a xlink:href="PsyllaReference_Types.xhtml#PsyllaReference_Types_Details_bitwise" xlink:title="bitwise" target="_parent">
<polygon fill="linen" stroke="black" points="308,-324 240,-324 240,-288 314,-288 314,-318 308,-324"/>
<polyline fill="none" stroke="black" points="308,-324 308,-318 "/>
<polyline fill="none" stroke="black" points="314,-318 308,-318 "/>
<text text-anchor="middle" x="277" y="-302.3" font-family="Consolas, monospace" font-size="14.00">bitwise</text>
</a>
</g>
</g>
<!-- integral -->
<g id="node2" class="node">
<title>integral</title>
<g id="a_node2"><a xlink:href="PsyllaReference_Types.xhtml#PsyllaReference_Types_Details_integral" xlink:title="integral" target="_parent">
<polygon fill="linen" stroke="black" points="278.5,-108 201.5,-108 201.5,-72 284.5,-72 284.5,-102 278.5,-108"/>
<polyline fill="none" stroke="black" points="278.5,-108 278.5,-102 "/>
<polyline fill="none" stroke="black" points="284.5,-102 278.5,-102 "/>
<text text-anchor="middle" x="243" y="-86.3" font-family="Consolas, monospace" font-size="14.00">integral</text>
</a>
</g>
</g>
<!-- bitwise&#45;&gt;integral -->
<g id="edge4" class="edge">
<title>bitwise&#45;&gt;integral</title>
<path fill="none" stroke="black" d="M275.12,-287.53C271.81,-257.89 264.4,-195.91 255,-144 253.46,-135.51 251.49,-126.33 249.6,-118.03"/>
<polygon fill="black" stroke="black" points="252.96,-117.05 247.27,-108.11 246.15,-118.64 252.96,-117.05"/>
</g>
<!-- biginteger -->
<g id="node3" class="node">
<title>biginteger</title>
<g id="a_node3"><a xlink:href="PsyllaReference_Types.xhtml#PsyllaReference_Types_Details_biginteger" xlink:title="biginteger" target="_parent">
<polygon fill="wheat" stroke="black" points="321.5,-36 228.5,-36 228.5,0 327.5,0 327.5,-30 321.5,-36"/>
<polyline fill="none" stroke="black" points="321.5,-36 321.5,-30 "/>
<polyline fill="none" stroke="black" points="327.5,-30 321.5,-30 "/>
<text text-anchor="middle" x="278" y="-14.3" font-family="Consolas, monospace" font-size="14.00">biginteger</text>
</a>
</g>
</g>
<!-- bitwise&#45;&gt;biginteger -->
<g id="edge1" class="edge">
<title>bitwise&#45;&gt;biginteger</title>
<path fill="none" stroke="black" d="M280.79,-287.95C288.81,-249.32 305.85,-152.25 294,-72 292.72,-63.35 290.33,-54.15 287.78,-45.89"/>
<polygon fill="black" stroke="black" points="291.1,-44.78 284.65,-36.37 284.45,-46.96 291.1,-44.78"/>
</g>
<!-- integral&#45;&gt;biginteger -->
<g id="edge2" class="edge">
<title>integral&#45;&gt;biginteger</title>
<path fill="none" stroke="black" d="M251.65,-71.7C255.64,-63.73 260.45,-54.1 264.87,-45.26"/>
<polygon fill="black" stroke="black" points="268.11,-46.61 269.45,-36.1 261.85,-43.48 268.11,-46.61"/>
</g>
<!-- logical -->
<g id="node4" class="node">
<title>logical</title>
<g id="a_node4"><a xlink:href="PsyllaReference_Types.xhtml#PsyllaReference_Types_Details_logical" xlink:title="logical" target="_parent">
<polygon fill="linen" stroke="black" points="308,-396 240,-396 240,-360 314,-360 314,-390 308,-396"/>
<polyline fill="none" stroke="black" points="308,-396 308,-390 "/>
<polyline fill="none" stroke="black" points="314,-390 308,-390 "/>
<text text-anchor="middle" x="277" y="-374.3" font-family="Consolas, monospace" font-size="14.00">logical</text>
</a>
</g>
</g>
<!-- logical&#45;&gt;bitwise -->
<g id="edge3" class="edge">
<title>logical&#45;&gt;bitwise</title>
<path fill="none" stroke="black" d="M277,-359.7C277,-351.98 277,-342.71 277,-334.11"/>
<polygon fill="black" stroke="black" points="280.5,-334.1 277,-324.1 273.5,-334.1 280.5,-334.1"/>
</g>
<!-- realnumeric -->
<g id="node5" class="node">
<title>realnumeric</title>
<g id="a_node5"><a xlink:href="PsyllaReference_Types.xhtml#PsyllaReference_Types_Details_realnumeric" xlink:title="realnumeric" target="_parent">
<polygon fill="linen" stroke="black" points="240.5,-180 139.5,-180 139.5,-144 246.5,-144 246.5,-174 240.5,-180"/>
<polyline fill="none" stroke="black" points="240.5,-180 240.5,-174 "/>
<polyline fill="none" stroke="black" points="246.5,-174 240.5,-174 "/>
<text text-anchor="middle" x="193" y="-158.3" font-family="Consolas, monospace" font-size="14.00">realnumeric</text>
</a>
</g>
</g>
<!-- realnumeric&#45;&gt;integral -->
<g id="edge5" class="edge">
<title>realnumeric&#45;&gt;integral</title>
<path fill="none" stroke="black" d="M205.36,-143.7C211.23,-135.47 218.37,-125.48 224.84,-116.42"/>
<polygon fill="black" stroke="black" points="227.82,-118.28 230.78,-108.1 222.12,-114.21 227.82,-118.28"/>
</g>
<!-- object -->
<g id="node6" class="node">
<title>object</title>
<g id="a_node6"><a xlink:href="PsyllaReference_Types.xhtml#PsyllaReference_Types_Details_object" xlink:title="object" target="_parent">
<polygon fill="linen" stroke="black" points="204,-468 144,-468 144,-432 210,-432 210,-462 204,-468"/>
<polyline fill="none" stroke="black" points="204,-468 204,-462 "/>
<polyline fill="none" stroke="black" points="210,-462 204,-462 "/>
<text text-anchor="middle" x="177" y="-446.3" font-family="Consolas, monospace" font-size="14.00">object</text>
</a>
</g>
</g>
<!-- object&#45;&gt;logical -->
<g id="edge6" class="edge">
<title>object&#45;&gt;logical</title>
<path fill="none" stroke="black" d="M201.46,-431.88C214.3,-422.89 230.2,-411.76 244.09,-402.03"/>
<polygon fill="black" stroke="black" points="246.26,-404.79 252.44,-396.19 242.24,-399.06 246.26,-404.79"/>
</g>
<!-- scalar -->
<g id="node8" class="node">
<title>scalar</title>
<g id="a_node8"><a xlink:href="PsyllaReference_Types.xhtml#PsyllaReference_Types_Details_scalar" xlink:title="scalar" target="_parent">
<polygon fill="linen" stroke="black" points="239,-252 179,-252 179,-216 245,-216 245,-246 239,-252"/>
<polyline fill="none" stroke="black" points="239,-252 239,-246 "/>
<polyline fill="none" stroke="black" points="245,-246 239,-246 "/>
<text text-anchor="middle" x="212" y="-230.3" font-family="Consolas, monospace" font-size="14.00">scalar</text>
</a>
</g>
</g>
<!-- object&#45;&gt;scalar -->
<g id="edge11" class="edge">
<title>object&#45;&gt;scalar</title>
<path fill="none" stroke="black" d="M180.81,-431.86C183.05,-421.51 185.86,-408.03 188,-396 196.33,-349.26 204.06,-294.52 208.39,-262.42"/>
<polygon fill="black" stroke="black" points="211.87,-262.82 209.73,-252.44 204.93,-261.89 211.87,-262.82"/>
</g>
<!-- atomic -->
<g id="node9" class="node">
<title>atomic</title>
<g id="a_node9"><a xlink:href="PsyllaReference_Types.xhtml#PsyllaReference_Types_Details_atomic" xlink:title="atomic" target="_parent">
<polygon fill="linen" stroke="black" points="60,-324 0,-324 0,-288 66,-288 66,-318 60,-324"/>
<polyline fill="none" stroke="black" points="60,-324 60,-318 "/>
<polyline fill="none" stroke="black" points="66,-318 60,-318 "/>
<text text-anchor="middle" x="33" y="-302.3" font-family="Consolas, monospace" font-size="14.00">atomic</text>
</a>
</g>
</g>
<!-- object&#45;&gt;atomic -->
<g id="edge12" class="edge">
<title>object&#45;&gt;atomic</title>
<path fill="none" stroke="black" d="M143.96,-434.51C125.67,-425.35 103.39,-412.18 87,-396 68.62,-377.86 53.94,-352.25 44.55,-333.16"/>
<polygon fill="black" stroke="black" points="47.7,-331.64 40.25,-324.1 41.38,-334.64 47.7,-331.64"/>
</g>
<!-- additive -->
<g id="node11" class="node">
<title>additive</title>
<g id="a_node11"><a xlink:href="PsyllaReference_Types.xhtml#PsyllaReference_Types_Details_additive" xlink:title="additive" target="_parent">
<polygon fill="linen" stroke="black" points="173.5,-396 96.5,-396 96.5,-360 179.5,-360 179.5,-390 173.5,-396"/>
<polyline fill="none" stroke="black" points="173.5,-396 173.5,-390 "/>
<polyline fill="none" stroke="black" points="179.5,-390 173.5,-390 "/>
<text text-anchor="middle" x="138" y="-374.3" font-family="Consolas, monospace" font-size="14.00">additive</text>
</a>
</g>
</g>
<!-- object&#45;&gt;additive -->
<g id="edge14" class="edge">
<title>object&#45;&gt;additive</title>
<path fill="none" stroke="black" d="M167.36,-431.7C162.87,-423.64 157.44,-413.89 152.48,-404.98"/>
<polygon fill="black" stroke="black" points="155.45,-403.14 147.53,-396.1 149.34,-406.54 155.45,-403.14"/>
</g>
<!-- numeric -->
<g id="node7" class="node">
<title>numeric</title>
<g id="a_node7"><a xlink:href="PsyllaReference_Types.xhtml#PsyllaReference_Types_Details_numeric" xlink:title="numeric" target="_parent">
<polygon fill="linen" stroke="black" points="155,-252 87,-252 87,-216 161,-216 161,-246 155,-252"/>
<polyline fill="none" stroke="black" points="155,-252 155,-246 "/>
<polyline fill="none" stroke="black" points="161,-246 155,-246 "/>
<text text-anchor="middle" x="124" y="-230.3" font-family="Consolas, monospace" font-size="14.00">numeric</text>
</a>
</g>
</g>
<!-- numeric&#45;&gt;realnumeric -->
<g id="edge7" class="edge">
<title>numeric&#45;&gt;realnumeric</title>
<path fill="none" stroke="black" d="M141.06,-215.7C149.5,-207.14 159.82,-196.66 169.04,-187.3"/>
<polygon fill="black" stroke="black" points="171.61,-189.68 176.14,-180.1 166.63,-184.77 171.61,-189.68"/>
</g>
<!-- scalar&#45;&gt;realnumeric -->
<g id="edge8" class="edge">
<title>scalar&#45;&gt;realnumeric</title>
<path fill="none" stroke="black" d="M207.3,-215.7C205.19,-207.9 202.64,-198.51 200.28,-189.83"/>
<polygon fill="black" stroke="black" points="203.64,-188.84 197.64,-180.1 196.88,-190.67 203.64,-188.84"/>
</g>
<!-- atomic&#45;&gt;numeric -->
<g id="edge9" class="edge">
<title>atomic&#45;&gt;numeric</title>
<path fill="none" stroke="black" d="M55.49,-287.7C66.96,-278.88 81.06,-268.03 93.48,-258.47"/>
<polygon fill="black" stroke="black" points="95.97,-260.98 101.76,-252.1 91.7,-255.43 95.97,-260.98"/>
</g>
<!-- arithmetic -->
<g id="node10" class="node">
<title>arithmetic</title>
<g id="a_node10"><a xlink:href="PsyllaReference_Types.xhtml#PsyllaReference_Types_Details_arithmetic" xlink:title="arithmetic" target="_parent">
<polygon fill="linen" stroke="black" points="177.5,-324 84.5,-324 84.5,-288 183.5,-288 183.5,-318 177.5,-324"/>
<polyline fill="none" stroke="black" points="177.5,-324 177.5,-318 "/>
<polyline fill="none" stroke="black" points="183.5,-318 177.5,-318 "/>
<text text-anchor="middle" x="134" y="-302.3" font-family="Consolas, monospace" font-size="14.00">arithmetic</text>
</a>
</g>
</g>
<!-- arithmetic&#45;&gt;numeric -->
<g id="edge10" class="edge">
<title>arithmetic&#45;&gt;numeric</title>
<path fill="none" stroke="black" d="M131.53,-287.7C130.43,-279.98 129.1,-270.71 127.87,-262.11"/>
<polygon fill="black" stroke="black" points="131.32,-261.51 126.44,-252.1 124.39,-262.5 131.32,-261.51"/>
</g>
<!-- additive&#45;&gt;arithmetic -->
<g id="edge13" class="edge">
<title>additive&#45;&gt;arithmetic</title>
<path fill="none" stroke="black" d="M137.01,-359.7C136.57,-351.98 136.04,-342.71 135.55,-334.11"/>
<polygon fill="black" stroke="black" points="139.04,-333.89 134.98,-324.1 132.05,-334.29 139.04,-333.89"/>
</g>
</g>
</svg>
