<?xml version="1.0" encoding="UTF-8" standalone="no"?>
<!DOCTYPE svg PUBLIC "-//W3C//DTD SVG 1.1//EN"
 "http://www.w3.org/Graphics/SVG/1.1/DTD/svg11.dtd">
<!-- Generated by graphviz version 2.43.0 (0)
 -->
<!-- Title: array Pages: 1 -->
<svg width="441pt" height="476pt"
 viewBox="0.00 0.00 440.50 476.00" xmlns="http://www.w3.org/2000/svg" xmlns:xlink="http://www.w3.org/1999/xlink">
<g id="graph0" class="graph" transform="scale(1 1) rotate(0) translate(4 472)">
<title>array</title>
<polygon fill="transparent" stroke="transparent" points="-4,4 -4,-472 436.5,-472 436.5,4 -4,4"/>
<!-- formalarray -->
<g id="node1" class="node">
<title>formalarray</title>
<g id="a_node1"><a xlink:href="PsyllaReference_Types.xhtml#PsyllaReference_Types_Details_formalarray" xlink:title="formalarray" target="_parent">
<polygon fill="linen" stroke="black" points="191.5,-108 98.5,-108 98.5,-72 197.5,-72 197.5,-102 191.5,-108"/>
<polyline fill="none" stroke="black" points="191.5,-108 191.5,-102 "/>
<polyline fill="none" stroke="black" points="197.5,-102 191.5,-102 "/>
<text text-anchor="middle" x="148" y="-86.9" font-family="PT Mono, monospace" font-size="12.00">formalarray</text>
</a>
</g>
</g>
<!-- array -->
<g id="node2" class="node">
<title>array</title>
<g id="a_node2"><a xlink:href="PsyllaReference_Types.xhtml#PsyllaReference_Types_Details_array" xlink:title="array" target="_parent">
<polygon fill="wheat" stroke="black" points="169,-36 121,-36 121,0 175,0 175,-30 169,-36"/>
<polyline fill="none" stroke="black" points="169,-36 169,-30 "/>
<polyline fill="none" stroke="black" points="175,-30 169,-30 "/>
<text text-anchor="middle" x="148" y="-14.9" font-family="PT Mono, monospace" font-size="12.00">array</text>
</a>
</g>
</g>
<!-- formalarray&#45;&gt;array -->
<g id="edge1" class="edge">
<title>formalarray&#45;&gt;array</title>
<path fill="none" stroke="black" d="M148,-71.7C148,-63.98 148,-54.71 148,-46.11"/>
<polygon fill="black" stroke="black" points="151.5,-46.1 148,-36.1 144.5,-46.1 151.5,-46.1"/>
</g>
<!-- appendable -->
<g id="node3" class="node">
<title>appendable</title>
<g id="a_node3"><a xlink:href="PsyllaReference_Types.xhtml#PsyllaReference_Types_Details_appendable" xlink:title="appendable" target="_parent">
<polygon fill="linen" stroke="black" points="86,-324 0,-324 0,-288 92,-288 92,-318 86,-324"/>
<polyline fill="none" stroke="black" points="86,-324 86,-318 "/>
<polyline fill="none" stroke="black" points="92,-318 86,-318 "/>
<text text-anchor="middle" x="46" y="-302.9" font-family="PT Mono, monospace" font-size="12.00">appendable</text>
</a>
</g>
</g>
<!-- appendable&#45;&gt;formalarray -->
<g id="edge2" class="edge">
<title>appendable&#45;&gt;formalarray</title>
<path fill="none" stroke="black" d="M46.66,-288C47.86,-269.63 51.29,-239.79 61,-216 76.55,-177.9 105.35,-139.92 125.54,-116"/>
<polygon fill="black" stroke="black" points="128.43,-118.01 132.29,-108.15 123.12,-113.45 128.43,-118.01"/>
</g>
<!-- container -->
<g id="node4" class="node">
<title>container</title>
<g id="a_node4"><a xlink:href="PsyllaReference_Types.xhtml#PsyllaReference_Types_Details_container" xlink:title="container" target="_parent">
<polygon fill="linen" stroke="black" points="335,-180 257,-180 257,-144 341,-144 341,-174 335,-180"/>
<polyline fill="none" stroke="black" points="335,-180 335,-174 "/>
<polyline fill="none" stroke="black" points="341,-174 335,-174 "/>
<text text-anchor="middle" x="299" y="-158.9" font-family="PT Mono, monospace" font-size="12.00">container</text>
</a>
</g>
</g>
<!-- container&#45;&gt;formalarray -->
<g id="edge3" class="edge">
<title>container&#45;&gt;formalarray</title>
<path fill="none" stroke="black" d="M262.06,-143.88C241.51,-134.35 215.75,-122.41 193.91,-112.28"/>
<polygon fill="black" stroke="black" points="195.36,-109.1 184.82,-108.07 192.42,-115.45 195.36,-109.1"/>
</g>
<!-- indexed -->
<g id="node5" class="node">
<title>indexed</title>
<g id="a_node5"><a xlink:href="PsyllaReference_Types.xhtml#PsyllaReference_Types_Details_indexed" xlink:title="indexed" target="_parent">
<polygon fill="linen" stroke="black" points="133.5,-252 70.5,-252 70.5,-216 139.5,-216 139.5,-246 133.5,-252"/>
<polyline fill="none" stroke="black" points="133.5,-252 133.5,-246 "/>
<polyline fill="none" stroke="black" points="139.5,-246 133.5,-246 "/>
<text text-anchor="middle" x="105" y="-230.9" font-family="PT Mono, monospace" font-size="12.00">indexed</text>
</a>
</g>
</g>
<!-- indexed&#45;&gt;formalarray -->
<g id="edge4" class="edge">
<title>indexed&#45;&gt;formalarray</title>
<path fill="none" stroke="black" d="M110.19,-215.87C117.55,-191.56 131.1,-146.82 139.82,-118.01"/>
<polygon fill="black" stroke="black" points="143.25,-118.77 142.79,-108.19 136.55,-116.75 143.25,-118.77"/>
</g>
<!-- sequential -->
<g id="node6" class="node">
<title>sequential</title>
<g id="a_node6"><a xlink:href="PsyllaReference_Types.xhtml#PsyllaReference_Types_Details_sequential" xlink:title="sequential" target="_parent">
<polygon fill="linen" stroke="black" points="260,-396 174,-396 174,-360 266,-360 266,-390 260,-396"/>
<polyline fill="none" stroke="black" points="260,-396 260,-390 "/>
<polyline fill="none" stroke="black" points="266,-390 260,-390 "/>
<text text-anchor="middle" x="220" y="-374.9" font-family="PT Mono, monospace" font-size="12.00">sequential</text>
</a>
</g>
</g>
<!-- sequential&#45;&gt;formalarray -->
<g id="edge5" class="edge">
<title>sequential&#45;&gt;formalarray</title>
<path fill="none" stroke="black" d="M206.85,-359.76C199.9,-349.81 191.83,-336.78 187,-324 160.14,-252.94 151.73,-162.73 149.14,-118.28"/>
<polygon fill="black" stroke="black" points="152.63,-118.06 148.6,-108.26 145.64,-118.43 152.63,-118.06"/>
</g>
<!-- streamable -->
<g id="node11" class="node">
<title>streamable</title>
<g id="a_node11"><a xlink:href="PsyllaReference_Types.xhtml#PsyllaReference_Types_Details_streamable" xlink:title="streamable" target="_parent">
<polygon fill="linen" stroke="black" points="282,-324 196,-324 196,-288 288,-288 288,-318 282,-324"/>
<polyline fill="none" stroke="black" points="282,-324 282,-318 "/>
<polyline fill="none" stroke="black" points="288,-318 282,-318 "/>
<text text-anchor="middle" x="242" y="-302.9" font-family="PT Mono, monospace" font-size="12.00">streamable</text>
</a>
</g>
</g>
<!-- sequential&#45;&gt;streamable -->
<g id="edge15" class="edge">
<title>sequential&#45;&gt;streamable</title>
<path fill="none" stroke="black" d="M225.44,-359.7C227.89,-351.9 230.84,-342.51 233.57,-333.83"/>
<polygon fill="black" stroke="black" points="236.96,-334.69 236.62,-324.1 230.29,-332.59 236.96,-334.69"/>
</g>
<!-- object -->
<g id="node7" class="node">
<title>object</title>
<g id="a_node7"><a xlink:href="PsyllaReference_Types.xhtml#PsyllaReference_Types_Details_object" xlink:title="object" target="_parent">
<polygon fill="linen" stroke="black" points="245,-468 189,-468 189,-432 251,-432 251,-462 245,-468"/>
<polyline fill="none" stroke="black" points="245,-468 245,-462 "/>
<polyline fill="none" stroke="black" points="251,-462 245,-462 "/>
<text text-anchor="middle" x="220" y="-446.9" font-family="PT Mono, monospace" font-size="12.00">object</text>
</a>
</g>
</g>
<!-- object&#45;&gt;appendable -->
<g id="edge6" class="edge">
<title>object&#45;&gt;appendable</title>
<path fill="none" stroke="black" d="M188.72,-438.01C166.1,-429.05 135.65,-414.8 113,-396 91.54,-378.19 73.01,-352.22 60.9,-332.92"/>
<polygon fill="black" stroke="black" points="63.85,-331.03 55.65,-324.31 57.87,-334.67 63.85,-331.03"/>
</g>
<!-- object&#45;&gt;indexed -->
<g id="edge10" class="edge">
<title>object&#45;&gt;indexed</title>
<path fill="none" stroke="black" d="M198.13,-431.99C186.99,-422.41 173.94,-409.64 165,-396 136.96,-353.23 119.57,-295.54 111.14,-262.09"/>
<polygon fill="black" stroke="black" points="114.48,-261.02 108.71,-252.13 107.68,-262.68 114.48,-261.02"/>
</g>
<!-- object&#45;&gt;sequential -->
<g id="edge11" class="edge">
<title>object&#45;&gt;sequential</title>
<path fill="none" stroke="black" d="M220,-431.7C220,-423.98 220,-414.71 220,-406.11"/>
<polygon fill="black" stroke="black" points="223.5,-406.1 220,-396.1 216.5,-406.1 223.5,-406.1"/>
</g>
<!-- clearable -->
<g id="node8" class="node">
<title>clearable</title>
<g id="a_node8"><a xlink:href="PsyllaReference_Types.xhtml#PsyllaReference_Types_Details_clearable" xlink:title="clearable" target="_parent">
<polygon fill="linen" stroke="black" points="384,-324 306,-324 306,-288 390,-288 390,-318 384,-324"/>
<polyline fill="none" stroke="black" points="384,-324 384,-318 "/>
<polyline fill="none" stroke="black" points="390,-318 384,-318 "/>
<text text-anchor="middle" x="348" y="-302.9" font-family="PT Mono, monospace" font-size="12.00">clearable</text>
</a>
</g>
</g>
<!-- object&#45;&gt;clearable -->
<g id="edge12" class="edge">
<title>object&#45;&gt;clearable</title>
<path fill="none" stroke="black" d="M238.87,-431.85C249.74,-421.72 263.49,-408.47 275,-396 293.99,-375.43 314.05,-350.72 328.33,-332.57"/>
<polygon fill="black" stroke="black" points="331.45,-334.26 334.85,-324.23 325.93,-329.95 331.45,-334.26"/>
</g>
<!-- lengthy -->
<g id="node10" class="node">
<title>lengthy</title>
<g id="a_node10"><a xlink:href="PsyllaReference_Types.xhtml#PsyllaReference_Types_Details_lengthy" xlink:title="lengthy" target="_parent">
<polygon fill="linen" stroke="black" points="426.5,-396 363.5,-396 363.5,-360 432.5,-360 432.5,-390 426.5,-396"/>
<polyline fill="none" stroke="black" points="426.5,-396 426.5,-390 "/>
<polyline fill="none" stroke="black" points="432.5,-390 426.5,-390 "/>
<text text-anchor="middle" x="398" y="-374.9" font-family="PT Mono, monospace" font-size="12.00">lengthy</text>
</a>
</g>
</g>
<!-- object&#45;&gt;lengthy -->
<g id="edge14" class="edge">
<title>object&#45;&gt;lengthy</title>
<path fill="none" stroke="black" d="M251.01,-436.81C279.44,-425.62 321.86,-408.94 353.84,-396.37"/>
<polygon fill="black" stroke="black" points="355.37,-399.53 363.4,-392.61 352.81,-393.01 355.37,-399.53"/>
</g>
<!-- clearable&#45;&gt;container -->
<g id="edge7" class="edge">
<title>clearable&#45;&gt;container</title>
<path fill="none" stroke="black" d="M342.09,-287.87C333.7,-263.56 318.26,-218.82 308.32,-190.01"/>
<polygon fill="black" stroke="black" points="311.5,-188.5 304.93,-180.19 304.88,-190.78 311.5,-188.5"/>
</g>
<!-- iterable -->
<g id="node9" class="node">
<title>iterable</title>
<g id="a_node9"><a xlink:href="PsyllaReference_Types.xhtml#PsyllaReference_Types_Details_iterable" xlink:title="iterable" target="_parent">
<polygon fill="linen" stroke="black" points="293.5,-252 222.5,-252 222.5,-216 299.5,-216 299.5,-246 293.5,-252"/>
<polyline fill="none" stroke="black" points="293.5,-252 293.5,-246 "/>
<polyline fill="none" stroke="black" points="299.5,-246 293.5,-246 "/>
<text text-anchor="middle" x="261" y="-230.9" font-family="PT Mono, monospace" font-size="12.00">iterable</text>
</a>
</g>
</g>
<!-- iterable&#45;&gt;container -->
<g id="edge8" class="edge">
<title>iterable&#45;&gt;container</title>
<path fill="none" stroke="black" d="M270.39,-215.7C274.76,-207.64 280.06,-197.89 284.9,-188.98"/>
<polygon fill="black" stroke="black" points="288.02,-190.56 289.71,-180.1 281.87,-187.22 288.02,-190.56"/>
</g>
<!-- lengthy&#45;&gt;container -->
<g id="edge9" class="edge">
<title>lengthy&#45;&gt;container</title>
<path fill="none" stroke="black" d="M401.6,-359.71C404.65,-341.35 407.34,-311.77 399,-288 384.81,-247.54 351.39,-210.44 327.09,-187.35"/>
<polygon fill="black" stroke="black" points="329.26,-184.59 319.55,-180.36 324.5,-189.73 329.26,-184.59"/>
</g>
<!-- streamable&#45;&gt;iterable -->
<g id="edge13" class="edge">
<title>streamable&#45;&gt;iterable</title>
<path fill="none" stroke="black" d="M246.7,-287.7C248.81,-279.9 251.36,-270.51 253.72,-261.83"/>
<polygon fill="black" stroke="black" points="257.12,-262.67 256.36,-252.1 250.36,-260.84 257.12,-262.67"/>
</g>
</g>
</svg>
