<?xml version="1.0" encoding="UTF-8" standalone="no"?>
<!DOCTYPE svg PUBLIC "-//W3C//DTD SVG 1.1//EN"
 "http://www.w3.org/Graphics/SVG/1.1/DTD/svg11.dtd">
<!-- Generated by graphviz version 2.43.0 (0)
 -->
<!-- Title: context Pages: 1 -->
<svg width="109pt" height="116pt"
 viewBox="0.00 0.00 109.00 116.00" xmlns="http://www.w3.org/2000/svg" xmlns:xlink="http://www.w3.org/1999/xlink">
<g id="graph0" class="graph" transform="scale(1 1) rotate(0) translate(4 112)">
<title>context</title>
<polygon fill="transparent" stroke="transparent" points="-4,4 -4,-112 105,-112 105,4 -4,4"/>
<!-- object -->
<g id="node1" class="node">
<title>object</title>
<g id="a_node1"><a xlink:href="PsyllaReference_Types.xhtml#PsyllaReference_Types_Details_object" xlink:title="object" target="_parent">
<polygon fill="linen" stroke="black" points="89,-108 6,-108 6,-72 95,-72 95,-102 89,-108"/>
<polyline fill="none" stroke="black" points="89,-108 89,-102 "/>
<polyline fill="none" stroke="black" points="95,-102 89,-102 "/>
<text text-anchor="middle" x="50.5" y="-85" font-family="PT Mono, monospace" font-size="20.00">object</text>
</a>
</g>
</g>
<!-- context -->
<g id="node2" class="node">
<title>context</title>
<g id="a_node2"><a xlink:href="PsyllaReference_Types.xhtml#PsyllaReference_Types_Details_context" xlink:title="context" target="_parent">
<polygon fill="wheat" stroke="black" points="95,-36 0,-36 0,0 101,0 101,-30 95,-36"/>
<polyline fill="none" stroke="black" points="95,-36 95,-30 "/>
<polyline fill="none" stroke="black" points="101,-30 95,-30 "/>
<text text-anchor="middle" x="50.5" y="-13" font-family="PT Mono, monospace" font-size="20.00">context</text>
</a>
</g>
</g>
<!-- object&#45;&gt;context -->
<g id="edge1" class="edge">
<title>object&#45;&gt;context</title>
<path fill="none" stroke="black" d="M50.5,-71.7C50.5,-63.98 50.5,-54.71 50.5,-46.11"/>
<polygon fill="black" stroke="black" points="54,-46.1 50.5,-36.1 47,-46.1 54,-46.1"/>
</g>
</g>
</svg>
