<?xml version="1.0" encoding="UTF-8" standalone="no"?>
<!DOCTYPE svg PUBLIC "-//W3C//DTD SVG 1.1//EN"
 "http://www.w3.org/Graphics/SVG/1.1/DTD/svg11.dtd">
<!-- Generated by graphviz version 14.0.0 (0)
 -->
<!-- Title: writable Pages: 1 -->
<svg width="63pt" height="116pt"
 viewBox="0.00 0.00 63.00 116.00" xmlns="http://www.w3.org/2000/svg" xmlns:xlink="http://www.w3.org/1999/xlink">
<g id="graph0" class="graph" transform="scale(1 1) rotate(0) translate(4 112)">
<title>writable</title>
<polygon fill="none" stroke="none" points="-4,4 -4,-112 59.32,-112 59.32,4 -4,4"/>
<!-- object -->
<g id="node1" class="node">
<title>object</title>
<g id="a_node1"><a xlink:href="PsyllaReference_Types.xhtml#PsyllaReference_Types_Details_object" xlink:title="object" target="_parent">
<polygon fill="linen" stroke="black" points="48.66,-108 0.66,-108 0.66,-72 54.66,-72 54.66,-102 48.66,-108"/>
<polyline fill="none" stroke="black" points="48.66,-108 48.66,-102"/>
<polyline fill="none" stroke="black" points="54.66,-102 48.66,-102"/>
<text xml:space="preserve" text-anchor="middle" x="27.66" y="-86.4" font-family="Source Code Pro,monospace" font-size="12.00">object</text>
</a>
</g>
</g>
<!-- writable -->
<g id="node2" class="node">
<title>writable</title>
<g id="a_node2"><a xlink:href="PsyllaReference_Types.xhtml#PsyllaReference_Types_Details_writable" xlink:title="writable" target="_parent">
<polygon fill="wheat" stroke="black" points="49.32,-36 0,-36 0,0 55.32,0 55.32,-30 49.32,-36"/>
<polyline fill="none" stroke="black" points="49.32,-36 49.32,-30"/>
<polyline fill="none" stroke="black" points="55.32,-30 49.32,-30"/>
<text xml:space="preserve" text-anchor="middle" x="27.66" y="-14.4" font-family="Source Code Pro,monospace" font-size="12.00">writable</text>
</a>
</g>
</g>
<!-- object&#45;&gt;writable -->
<g id="edge1" class="edge">
<title>object&#45;&gt;writable</title>
<path fill="none" stroke="black" d="M27.66,-71.7C27.66,-64.41 27.66,-55.73 27.66,-47.54"/>
<polygon fill="black" stroke="black" points="31.16,-47.62 27.66,-37.62 24.16,-47.62 31.16,-47.62"/>
</g>
</g>
</svg>
