<?xml version="1.0" encoding="UTF-8" standalone="no"?>
<!DOCTYPE svg PUBLIC "-//W3C//DTD SVG 1.1//EN"
 "http://www.w3.org/Graphics/SVG/1.1/DTD/svg11.dtd">
<!-- Generated by graphviz version 2.43.0 (0)
 -->
<!-- Title: biginteger Pages: 1 -->
<svg width="322pt" height="476pt"
 viewBox="0.00 0.00 321.50 476.00" xmlns="http://www.w3.org/2000/svg" xmlns:xlink="http://www.w3.org/1999/xlink">
<g id="graph0" class="graph" transform="scale(1 1) rotate(0) translate(4 472)">
<title>biginteger</title>
<polygon fill="transparent" stroke="transparent" points="-4,4 -4,-472 317.5,-472 317.5,4 -4,4"/>
<!-- bitwise -->
<g id="node1" class="node">
<title>bitwise</title>
<g id="a_node1"><a xlink:href="PsyllaReference_Types.xhtml#PsyllaReference_Types_Details_bitwise" xlink:title="bitwise" target="_parent">
<polygon fill="linen" stroke="black" points="68,-180 0,-180 0,-144 74,-144 74,-174 68,-180"/>
<polyline fill="none" stroke="black" points="68,-180 68,-174 "/>
<polyline fill="none" stroke="black" points="74,-174 68,-174 "/>
<text text-anchor="middle" x="37" y="-158.3" font-family="Consolas, monospace" font-size="14.00">bitwise</text>
</a>
</g>
</g>
<!-- biginteger -->
<g id="node3" class="node">
<title>biginteger</title>
<g id="a_node3"><a xlink:href="PsyllaReference_Types.xhtml#PsyllaReference_Types_Details_biginteger" xlink:title="biginteger" target="_parent">
<polygon fill="wheat" stroke="black" points="134.5,-36 41.5,-36 41.5,0 140.5,0 140.5,-30 134.5,-36"/>
<polyline fill="none" stroke="black" points="134.5,-36 134.5,-30 "/>
<polyline fill="none" stroke="black" points="140.5,-30 134.5,-30 "/>
<text text-anchor="middle" x="91" y="-14.3" font-family="Consolas, monospace" font-size="14.00">biginteger</text>
</a>
</g>
</g>
<!-- bitwise&#45;&gt;biginteger -->
<g id="edge1" class="edge">
<title>bitwise&#45;&gt;biginteger</title>
<path fill="none" stroke="black" d="M43.51,-143.87C52.8,-119.46 69.92,-74.43 80.87,-45.64"/>
<polygon fill="black" stroke="black" points="84.18,-46.78 84.46,-36.19 77.64,-44.29 84.18,-46.78"/>
</g>
<!-- integral -->
<g id="node2" class="node">
<title>integral</title>
<g id="a_node2"><a xlink:href="PsyllaReference_Types.xhtml#PsyllaReference_Types_Details_integral" xlink:title="integral" target="_parent">
<polygon fill="linen" stroke="black" points="171.5,-108 94.5,-108 94.5,-72 177.5,-72 177.5,-102 171.5,-108"/>
<polyline fill="none" stroke="black" points="171.5,-108 171.5,-102 "/>
<polyline fill="none" stroke="black" points="177.5,-102 171.5,-102 "/>
<text text-anchor="middle" x="136" y="-86.3" font-family="Consolas, monospace" font-size="14.00">integral</text>
</a>
</g>
</g>
<!-- integral&#45;&gt;biginteger -->
<g id="edge2" class="edge">
<title>integral&#45;&gt;biginteger</title>
<path fill="none" stroke="black" d="M124.88,-71.7C119.64,-63.56 113.3,-53.69 107.52,-44.7"/>
<polygon fill="black" stroke="black" points="110.35,-42.62 102,-36.1 104.46,-46.41 110.35,-42.62"/>
</g>
<!-- logical -->
<g id="node4" class="node">
<title>logical</title>
<g id="a_node4"><a xlink:href="PsyllaReference_Types.xhtml#PsyllaReference_Types_Details_logical" xlink:title="logical" target="_parent">
<polygon fill="linen" stroke="black" points="68,-396 0,-396 0,-360 74,-360 74,-390 68,-396"/>
<polyline fill="none" stroke="black" points="68,-396 68,-390 "/>
<polyline fill="none" stroke="black" points="74,-390 68,-390 "/>
<text text-anchor="middle" x="37" y="-374.3" font-family="Consolas, monospace" font-size="14.00">logical</text>
</a>
</g>
</g>
<!-- logical&#45;&gt;bitwise -->
<g id="edge3" class="edge">
<title>logical&#45;&gt;bitwise</title>
<path fill="none" stroke="black" d="M37,-359.85C37,-322.83 37,-235.18 37,-190.39"/>
<polygon fill="black" stroke="black" points="40.5,-190.23 37,-180.23 33.5,-190.23 40.5,-190.23"/>
</g>
<!-- realnumeric -->
<g id="node5" class="node">
<title>realnumeric</title>
<g id="a_node5"><a xlink:href="PsyllaReference_Types.xhtml#PsyllaReference_Types_Details_realnumeric" xlink:title="realnumeric" target="_parent">
<polygon fill="linen" stroke="black" points="193.5,-180 92.5,-180 92.5,-144 199.5,-144 199.5,-174 193.5,-180"/>
<polyline fill="none" stroke="black" points="193.5,-180 193.5,-174 "/>
<polyline fill="none" stroke="black" points="199.5,-174 193.5,-174 "/>
<text text-anchor="middle" x="146" y="-158.3" font-family="Consolas, monospace" font-size="14.00">realnumeric</text>
</a>
</g>
</g>
<!-- realnumeric&#45;&gt;integral -->
<g id="edge4" class="edge">
<title>realnumeric&#45;&gt;integral</title>
<path fill="none" stroke="black" d="M143.53,-143.7C142.43,-135.98 141.1,-126.71 139.87,-118.11"/>
<polygon fill="black" stroke="black" points="143.32,-117.51 138.44,-108.1 136.39,-118.5 143.32,-117.51"/>
</g>
<!-- object -->
<g id="node6" class="node">
<title>object</title>
<g id="a_node6"><a xlink:href="PsyllaReference_Types.xhtml#PsyllaReference_Types_Details_object" xlink:title="object" target="_parent">
<polygon fill="linen" stroke="black" points="159,-468 99,-468 99,-432 165,-432 165,-462 159,-468"/>
<polyline fill="none" stroke="black" points="159,-468 159,-462 "/>
<polyline fill="none" stroke="black" points="165,-462 159,-462 "/>
<text text-anchor="middle" x="132" y="-446.3" font-family="Consolas, monospace" font-size="14.00">object</text>
</a>
</g>
</g>
<!-- object&#45;&gt;logical -->
<g id="edge5" class="edge">
<title>object&#45;&gt;logical</title>
<path fill="none" stroke="black" d="M108.52,-431.7C96.44,-422.8 81.55,-411.82 68.48,-402.2"/>
<polygon fill="black" stroke="black" points="70.34,-399.22 60.21,-396.1 66.19,-404.85 70.34,-399.22"/>
</g>
<!-- scalar -->
<g id="node8" class="node">
<title>scalar</title>
<g id="a_node8"><a xlink:href="PsyllaReference_Types.xhtml#PsyllaReference_Types_Details_scalar" xlink:title="scalar" target="_parent">
<polygon fill="linen" stroke="black" points="129,-252 69,-252 69,-216 135,-216 135,-246 129,-252"/>
<polyline fill="none" stroke="black" points="129,-252 129,-246 "/>
<polyline fill="none" stroke="black" points="135,-246 129,-246 "/>
<text text-anchor="middle" x="102" y="-230.3" font-family="Consolas, monospace" font-size="14.00">scalar</text>
</a>
</g>
</g>
<!-- object&#45;&gt;scalar -->
<g id="edge10" class="edge">
<title>object&#45;&gt;scalar</title>
<path fill="none" stroke="black" d="M129.6,-431.85C124.41,-394.83 112.12,-307.18 105.84,-262.39"/>
<polygon fill="black" stroke="black" points="109.27,-261.65 104.42,-252.23 102.34,-262.62 109.27,-261.65"/>
</g>
<!-- atomic -->
<g id="node9" class="node">
<title>atomic</title>
<g id="a_node9"><a xlink:href="PsyllaReference_Types.xhtml#PsyllaReference_Types_Details_atomic" xlink:title="atomic" target="_parent">
<polygon fill="linen" stroke="black" points="190,-324 130,-324 130,-288 196,-288 196,-318 190,-324"/>
<polyline fill="none" stroke="black" points="190,-324 190,-318 "/>
<polyline fill="none" stroke="black" points="196,-318 190,-318 "/>
<text text-anchor="middle" x="163" y="-302.3" font-family="Consolas, monospace" font-size="14.00">atomic</text>
</a>
</g>
</g>
<!-- object&#45;&gt;atomic -->
<g id="edge11" class="edge">
<title>object&#45;&gt;atomic</title>
<path fill="none" stroke="black" d="M135.74,-431.87C141.05,-407.56 150.81,-362.82 157.1,-334.01"/>
<polygon fill="black" stroke="black" points="160.53,-334.71 159.25,-324.19 153.7,-333.21 160.53,-334.71"/>
</g>
<!-- additive -->
<g id="node11" class="node">
<title>additive</title>
<g id="a_node11"><a xlink:href="PsyllaReference_Types.xhtml#PsyllaReference_Types_Details_additive" xlink:title="additive" target="_parent">
<polygon fill="linen" stroke="black" points="272.5,-396 195.5,-396 195.5,-360 278.5,-360 278.5,-390 272.5,-396"/>
<polyline fill="none" stroke="black" points="272.5,-396 272.5,-390 "/>
<polyline fill="none" stroke="black" points="278.5,-390 272.5,-390 "/>
<text text-anchor="middle" x="237" y="-374.3" font-family="Consolas, monospace" font-size="14.00">additive</text>
</a>
</g>
</g>
<!-- object&#45;&gt;additive -->
<g id="edge13" class="edge">
<title>object&#45;&gt;additive</title>
<path fill="none" stroke="black" d="M157.69,-431.88C171.29,-422.81 188.17,-411.55 202.86,-401.76"/>
<polygon fill="black" stroke="black" points="204.84,-404.65 211.22,-396.19 200.95,-398.82 204.84,-404.65"/>
</g>
<!-- numeric -->
<g id="node7" class="node">
<title>numeric</title>
<g id="a_node7"><a xlink:href="PsyllaReference_Types.xhtml#PsyllaReference_Types_Details_numeric" xlink:title="numeric" target="_parent">
<polygon fill="linen" stroke="black" points="221,-252 153,-252 153,-216 227,-216 227,-246 221,-252"/>
<polyline fill="none" stroke="black" points="221,-252 221,-246 "/>
<polyline fill="none" stroke="black" points="227,-246 221,-246 "/>
<text text-anchor="middle" x="190" y="-230.3" font-family="Consolas, monospace" font-size="14.00">numeric</text>
</a>
</g>
</g>
<!-- numeric&#45;&gt;realnumeric -->
<g id="edge6" class="edge">
<title>numeric&#45;&gt;realnumeric</title>
<path fill="none" stroke="black" d="M179.12,-215.7C174.01,-207.56 167.8,-197.69 162.16,-188.7"/>
<polygon fill="black" stroke="black" points="165.04,-186.71 156.75,-180.1 159.11,-190.43 165.04,-186.71"/>
</g>
<!-- scalar&#45;&gt;realnumeric -->
<g id="edge7" class="edge">
<title>scalar&#45;&gt;realnumeric</title>
<path fill="none" stroke="black" d="M112.88,-215.7C117.99,-207.56 124.2,-197.69 129.84,-188.7"/>
<polygon fill="black" stroke="black" points="132.89,-190.43 135.25,-180.1 126.96,-186.71 132.89,-190.43"/>
</g>
<!-- atomic&#45;&gt;numeric -->
<g id="edge8" class="edge">
<title>atomic&#45;&gt;numeric</title>
<path fill="none" stroke="black" d="M169.67,-287.7C172.71,-279.81 176.38,-270.3 179.76,-261.55"/>
<polygon fill="black" stroke="black" points="183.07,-262.69 183.4,-252.1 176.54,-260.17 183.07,-262.69"/>
</g>
<!-- arithmetic -->
<g id="node10" class="node">
<title>arithmetic</title>
<g id="a_node10"><a xlink:href="PsyllaReference_Types.xhtml#PsyllaReference_Types_Details_arithmetic" xlink:title="arithmetic" target="_parent">
<polygon fill="linen" stroke="black" points="307.5,-324 214.5,-324 214.5,-288 313.5,-288 313.5,-318 307.5,-324"/>
<polyline fill="none" stroke="black" points="307.5,-324 307.5,-318 "/>
<polyline fill="none" stroke="black" points="313.5,-318 307.5,-318 "/>
<text text-anchor="middle" x="264" y="-302.3" font-family="Consolas, monospace" font-size="14.00">arithmetic</text>
</a>
</g>
</g>
<!-- arithmetic&#45;&gt;numeric -->
<g id="edge9" class="edge">
<title>arithmetic&#45;&gt;numeric</title>
<path fill="none" stroke="black" d="M245.71,-287.7C236.57,-279.05 225.36,-268.45 215.4,-259.03"/>
<polygon fill="black" stroke="black" points="217.75,-256.43 208.08,-252.1 212.94,-261.52 217.75,-256.43"/>
</g>
<!-- additive&#45;&gt;arithmetic -->
<g id="edge12" class="edge">
<title>additive&#45;&gt;arithmetic</title>
<path fill="none" stroke="black" d="M243.67,-359.7C246.71,-351.81 250.38,-342.3 253.76,-333.55"/>
<polygon fill="black" stroke="black" points="257.07,-334.69 257.4,-324.1 250.54,-332.17 257.07,-334.69"/>
</g>
</g>
</svg>
