<?xml version="1.0" encoding="UTF-8" standalone="no"?>
<!DOCTYPE svg PUBLIC "-//W3C//DTD SVG 1.1//EN"
 "http://www.w3.org/Graphics/SVG/1.1/DTD/svg11.dtd">
<!-- Generated by graphviz version 2.43.0 (0)
 -->
<!-- Title: bitset Pages: 1 -->
<svg width="336pt" height="476pt"
 viewBox="0.00 0.00 336.00 476.00" xmlns="http://www.w3.org/2000/svg" xmlns:xlink="http://www.w3.org/1999/xlink">
<g id="graph0" class="graph" transform="scale(1 1) rotate(0) translate(4 472)">
<title>bitset</title>
<polygon fill="transparent" stroke="transparent" points="-4,4 -4,-472 332,-472 332,4 -4,4"/>
<!-- formalset -->
<g id="node1" class="node">
<title>formalset</title>
<g id="a_node1"><a xlink:href="PsyllaReference_Types.xhtml#PsyllaReference_Types_Details_formalset" xlink:title="formalset" target="_parent">
<polygon fill="linen" stroke="black" points="119,-108 41,-108 41,-72 125,-72 125,-102 119,-108"/>
<polyline fill="none" stroke="black" points="119,-108 119,-102 "/>
<polyline fill="none" stroke="black" points="125,-102 119,-102 "/>
<text text-anchor="middle" x="83" y="-86.9" font-family="Consolas, monospace" font-size="12.00">formalset</text>
</a>
</g>
</g>
<!-- bitset -->
<g id="node2" class="node">
<title>bitset</title>
<g id="a_node2"><a xlink:href="PsyllaReference_Types.xhtml#PsyllaReference_Types_Details_bitset" xlink:title="bitset" target="_parent">
<polygon fill="wheat" stroke="black" points="108,-36 52,-36 52,0 114,0 114,-30 108,-36"/>
<polyline fill="none" stroke="black" points="108,-36 108,-30 "/>
<polyline fill="none" stroke="black" points="114,-30 108,-30 "/>
<text text-anchor="middle" x="83" y="-14.9" font-family="Consolas, monospace" font-size="12.00">bitset</text>
</a>
</g>
</g>
<!-- formalset&#45;&gt;bitset -->
<g id="edge1" class="edge">
<title>formalset&#45;&gt;bitset</title>
<path fill="none" stroke="black" d="M83,-71.7C83,-63.98 83,-54.71 83,-46.11"/>
<polygon fill="black" stroke="black" points="86.5,-46.1 83,-36.1 79.5,-46.1 86.5,-46.1"/>
</g>
<!-- appendable -->
<g id="node3" class="node">
<title>appendable</title>
<g id="a_node3"><a xlink:href="PsyllaReference_Types.xhtml#PsyllaReference_Types_Details_appendable" xlink:title="appendable" target="_parent">
<polygon fill="linen" stroke="black" points="86,-324 0,-324 0,-288 92,-288 92,-318 86,-324"/>
<polyline fill="none" stroke="black" points="86,-324 86,-318 "/>
<polyline fill="none" stroke="black" points="92,-318 86,-318 "/>
<text text-anchor="middle" x="46" y="-302.9" font-family="Consolas, monospace" font-size="12.00">appendable</text>
</a>
</g>
</g>
<!-- appendable&#45;&gt;formalset -->
<g id="edge2" class="edge">
<title>appendable&#45;&gt;formalset</title>
<path fill="none" stroke="black" d="M48.97,-287.85C55.38,-250.75 70.58,-162.81 78.31,-118.1"/>
<polygon fill="black" stroke="black" points="81.77,-118.68 80.02,-108.23 74.87,-117.49 81.77,-118.68"/>
</g>
<!-- container -->
<g id="node4" class="node">
<title>container</title>
<g id="a_node4"><a xlink:href="PsyllaReference_Types.xhtml#PsyllaReference_Types_Details_container" xlink:title="container" target="_parent">
<polygon fill="linen" stroke="black" points="189,-180 111,-180 111,-144 195,-144 195,-174 189,-180"/>
<polyline fill="none" stroke="black" points="189,-180 189,-174 "/>
<polyline fill="none" stroke="black" points="195,-174 189,-174 "/>
<text text-anchor="middle" x="153" y="-158.9" font-family="Consolas, monospace" font-size="12.00">container</text>
</a>
</g>
</g>
<!-- container&#45;&gt;formalset -->
<g id="edge3" class="edge">
<title>container&#45;&gt;formalset</title>
<path fill="none" stroke="black" d="M135.7,-143.7C127.14,-135.14 116.66,-124.66 107.3,-115.3"/>
<polygon fill="black" stroke="black" points="109.65,-112.7 100.1,-108.1 104.7,-117.65 109.65,-112.7"/>
</g>
<!-- object -->
<g id="node5" class="node">
<title>object</title>
<g id="a_node5"><a xlink:href="PsyllaReference_Types.xhtml#PsyllaReference_Types_Details_object" xlink:title="object" target="_parent">
<polygon fill="linen" stroke="black" points="176,-468 120,-468 120,-432 182,-432 182,-462 176,-468"/>
<polyline fill="none" stroke="black" points="176,-468 176,-462 "/>
<polyline fill="none" stroke="black" points="182,-462 176,-462 "/>
<text text-anchor="middle" x="151" y="-446.9" font-family="Consolas, monospace" font-size="12.00">object</text>
</a>
</g>
</g>
<!-- object&#45;&gt;appendable -->
<g id="edge4" class="edge">
<title>object&#45;&gt;appendable</title>
<path fill="none" stroke="black" d="M135.5,-431.73C126.58,-421.56 115.33,-408.31 106,-396 90.38,-375.39 74.06,-350.96 62.39,-332.92"/>
<polygon fill="black" stroke="black" points="65.09,-330.64 56.74,-324.12 59.2,-334.42 65.09,-330.64"/>
</g>
<!-- clearable -->
<g id="node6" class="node">
<title>clearable</title>
<g id="a_node6"><a xlink:href="PsyllaReference_Types.xhtml#PsyllaReference_Types_Details_clearable" xlink:title="clearable" target="_parent">
<polygon fill="linen" stroke="black" points="154,-252 76,-252 76,-216 160,-216 160,-246 154,-252"/>
<polyline fill="none" stroke="black" points="154,-252 154,-246 "/>
<polyline fill="none" stroke="black" points="160,-246 154,-246 "/>
<text text-anchor="middle" x="118" y="-230.9" font-family="Consolas, monospace" font-size="12.00">clearable</text>
</a>
</g>
</g>
<!-- object&#45;&gt;clearable -->
<g id="edge8" class="edge">
<title>object&#45;&gt;clearable</title>
<path fill="none" stroke="black" d="M146.7,-431.9C144.21,-421.55 141.15,-408.07 139,-396 130.66,-349.13 124.18,-294.02 120.74,-261.95"/>
<polygon fill="black" stroke="black" points="124.22,-261.58 119.69,-252 117.26,-262.31 124.22,-261.58"/>
</g>
<!-- lengthy -->
<g id="node8" class="node">
<title>lengthy</title>
<g id="a_node8"><a xlink:href="PsyllaReference_Types.xhtml#PsyllaReference_Types_Details_lengthy" xlink:title="lengthy" target="_parent">
<polygon fill="linen" stroke="black" points="211.5,-396 148.5,-396 148.5,-360 217.5,-360 217.5,-390 211.5,-396"/>
<polyline fill="none" stroke="black" points="211.5,-396 211.5,-390 "/>
<polyline fill="none" stroke="black" points="217.5,-390 211.5,-390 "/>
<text text-anchor="middle" x="183" y="-374.9" font-family="Consolas, monospace" font-size="12.00">lengthy</text>
</a>
</g>
</g>
<!-- object&#45;&gt;lengthy -->
<g id="edge10" class="edge">
<title>object&#45;&gt;lengthy</title>
<path fill="none" stroke="black" d="M158.91,-431.7C162.55,-423.73 166.95,-414.1 170.99,-405.26"/>
<polygon fill="black" stroke="black" points="174.21,-406.65 175.18,-396.1 167.84,-403.74 174.21,-406.65"/>
</g>
<!-- sequential -->
<g id="node10" class="node">
<title>sequential</title>
<g id="a_node10"><a xlink:href="PsyllaReference_Types.xhtml#PsyllaReference_Types_Details_sequential" xlink:title="sequential" target="_parent">
<polygon fill="linen" stroke="black" points="322,-396 236,-396 236,-360 328,-360 328,-390 322,-396"/>
<polyline fill="none" stroke="black" points="322,-396 322,-390 "/>
<polyline fill="none" stroke="black" points="328,-390 322,-390 "/>
<text text-anchor="middle" x="282" y="-374.9" font-family="Consolas, monospace" font-size="12.00">sequential</text>
</a>
</g>
</g>
<!-- object&#45;&gt;sequential -->
<g id="edge12" class="edge">
<title>object&#45;&gt;sequential</title>
<path fill="none" stroke="black" d="M182.05,-432.41C199.6,-423.03 221.77,-411.18 240.77,-401.03"/>
<polygon fill="black" stroke="black" points="242.64,-404 249.81,-396.2 239.34,-397.83 242.64,-404"/>
</g>
<!-- clearable&#45;&gt;container -->
<g id="edge5" class="edge">
<title>clearable&#45;&gt;container</title>
<path fill="none" stroke="black" d="M126.65,-215.7C130.64,-207.73 135.45,-198.1 139.87,-189.26"/>
<polygon fill="black" stroke="black" points="143.11,-190.61 144.45,-180.1 136.85,-187.48 143.11,-190.61"/>
</g>
<!-- iterable -->
<g id="node7" class="node">
<title>iterable</title>
<g id="a_node7"><a xlink:href="PsyllaReference_Types.xhtml#PsyllaReference_Types_Details_iterable" xlink:title="iterable" target="_parent">
<polygon fill="linen" stroke="black" points="296.5,-252 225.5,-252 225.5,-216 302.5,-216 302.5,-246 296.5,-252"/>
<polyline fill="none" stroke="black" points="296.5,-252 296.5,-246 "/>
<polyline fill="none" stroke="black" points="302.5,-246 296.5,-246 "/>
<text text-anchor="middle" x="264" y="-230.9" font-family="Consolas, monospace" font-size="12.00">iterable</text>
</a>
</g>
</g>
<!-- iterable&#45;&gt;container -->
<g id="edge6" class="edge">
<title>iterable&#45;&gt;container</title>
<path fill="none" stroke="black" d="M236.85,-215.88C222.47,-206.81 204.62,-195.55 189.09,-185.76"/>
<polygon fill="black" stroke="black" points="190.58,-182.56 180.26,-180.19 186.85,-188.48 190.58,-182.56"/>
</g>
<!-- lengthy&#45;&gt;container -->
<g id="edge7" class="edge">
<title>lengthy&#45;&gt;container</title>
<path fill="none" stroke="black" d="M182.67,-359.92C181.84,-330.35 178.96,-267.8 169,-216 167.35,-207.41 164.85,-198.23 162.31,-189.97"/>
<polygon fill="black" stroke="black" points="165.65,-188.89 159.26,-180.44 158.98,-191.03 165.65,-188.89"/>
</g>
<!-- streamable -->
<g id="node9" class="node">
<title>streamable</title>
<g id="a_node9"><a xlink:href="PsyllaReference_Types.xhtml#PsyllaReference_Types_Details_streamable" xlink:title="streamable" target="_parent">
<polygon fill="linen" stroke="black" points="312,-324 226,-324 226,-288 318,-288 318,-318 312,-324"/>
<polyline fill="none" stroke="black" points="312,-324 312,-318 "/>
<polyline fill="none" stroke="black" points="318,-318 312,-318 "/>
<text text-anchor="middle" x="272" y="-302.9" font-family="Consolas, monospace" font-size="12.00">streamable</text>
</a>
</g>
</g>
<!-- streamable&#45;&gt;iterable -->
<g id="edge9" class="edge">
<title>streamable&#45;&gt;iterable</title>
<path fill="none" stroke="black" d="M270.02,-287.7C269.14,-279.98 268.08,-270.71 267.1,-262.11"/>
<polygon fill="black" stroke="black" points="270.57,-261.64 265.95,-252.1 263.61,-262.44 270.57,-261.64"/>
</g>
<!-- sequential&#45;&gt;streamable -->
<g id="edge11" class="edge">
<title>sequential&#45;&gt;streamable</title>
<path fill="none" stroke="black" d="M279.53,-359.7C278.43,-351.98 277.1,-342.71 275.87,-334.11"/>
<polygon fill="black" stroke="black" points="279.32,-333.51 274.44,-324.1 272.39,-334.5 279.32,-333.51"/>
</g>
</g>
</svg>
