<?xml version="1.0" encoding="UTF-8" standalone="no"?>
<!DOCTYPE svg PUBLIC "-//W3C//DTD SVG 1.1//EN"
 "http://www.w3.org/Graphics/SVG/1.1/DTD/svg11.dtd">
<!-- Generated by graphviz version 2.49.3 (0)
 -->
<!-- Title: numeric Pages: 1 -->
<svg width="218pt" height="260pt"
 viewBox="0.00 0.00 218.33 260.00" xmlns="http://www.w3.org/2000/svg" xmlns:xlink="http://www.w3.org/1999/xlink">
<g id="graph0" class="graph" transform="scale(1 1) rotate(0) translate(4 256)">
<title>numeric</title>
<polygon fill="transparent" stroke="transparent" points="-4,4 -4,-256 214.33,-256 214.33,4 -4,4"/>
<!-- arithmetic -->
<g id="node1" class="node">
<title>arithmetic</title>
<g id="a_node1"><a xlink:href="PsyllaReference_Types.xhtml#PsyllaReference_Types_Details_arithmetic" xlink:title="arithmetic" target="_parent">
<polygon fill="linen" stroke="black" points="130.15,-108 71.85,-108 71.85,-72 136.15,-72 136.15,-102 130.15,-108"/>
<polyline fill="none" stroke="black" points="130.15,-108 130.15,-102 "/>
<polyline fill="none" stroke="black" points="136.15,-102 130.15,-102 "/>
<text text-anchor="middle" x="104" y="-86.4" font-family="Source Code Pro,monospace" font-size="12.00">arithmetic</text>
</a>
</g>
</g>
<!-- numeric -->
<g id="node3" class="node">
<title>numeric</title>
<g id="a_node3"><a xlink:href="PsyllaReference_Types.xhtml#PsyllaReference_Types_Details_numeric" xlink:title="numeric" target="_parent">
<polygon fill="wheat" stroke="black" points="86.82,-36 37.18,-36 37.18,0 92.82,0 92.82,-30 86.82,-36"/>
<polyline fill="none" stroke="black" points="86.82,-36 86.82,-30 "/>
<polyline fill="none" stroke="black" points="92.82,-30 86.82,-30 "/>
<text text-anchor="middle" x="65" y="-14.4" font-family="Source Code Pro,monospace" font-size="12.00">numeric</text>
</a>
</g>
</g>
<!-- arithmetic&#45;&gt;numeric -->
<g id="edge1" class="edge">
<title>arithmetic&#45;&gt;numeric</title>
<path fill="none" stroke="black" d="M94.36,-71.7C89.87,-63.64 84.44,-53.89 79.48,-44.98"/>
<polygon fill="black" stroke="black" points="82.45,-43.14 74.53,-36.1 76.34,-46.54 82.45,-43.14"/>
</g>
<!-- value -->
<g id="node2" class="node">
<title>value</title>
<g id="a_node2"><a xlink:href="PsyllaReference_Types.xhtml#PsyllaReference_Types_Details_value" xlink:title="value" target="_parent">
<polygon fill="linen" stroke="black" points="48,-108 0,-108 0,-72 54,-72 54,-102 48,-108"/>
<polyline fill="none" stroke="black" points="48,-108 48,-102 "/>
<polyline fill="none" stroke="black" points="54,-102 48,-102 "/>
<text text-anchor="middle" x="27" y="-86.4" font-family="Source Code Pro,monospace" font-size="12.00">value</text>
</a>
</g>
</g>
<!-- value&#45;&gt;numeric -->
<g id="edge2" class="edge">
<title>value&#45;&gt;numeric</title>
<path fill="none" stroke="black" d="M36.39,-71.7C40.76,-63.64 46.06,-53.89 50.9,-44.98"/>
<polygon fill="black" stroke="black" points="54.02,-46.56 55.71,-36.1 47.87,-43.22 54.02,-46.56"/>
</g>
<!-- additive -->
<g id="node4" class="node">
<title>additive</title>
<g id="a_node4"><a xlink:href="PsyllaReference_Types.xhtml#PsyllaReference_Types_Details_additive" xlink:title="additive" target="_parent">
<polygon fill="linen" stroke="black" points="103.16,-180 54.84,-180 54.84,-144 109.16,-144 109.16,-174 103.16,-180"/>
<polyline fill="none" stroke="black" points="103.16,-180 103.16,-174 "/>
<polyline fill="none" stroke="black" points="109.16,-174 103.16,-174 "/>
<text text-anchor="middle" x="82" y="-158.4" font-family="Source Code Pro,monospace" font-size="12.00">additive</text>
</a>
</g>
</g>
<!-- additive&#45;&gt;arithmetic -->
<g id="edge3" class="edge">
<title>additive&#45;&gt;arithmetic</title>
<path fill="none" stroke="black" d="M87.44,-143.7C89.89,-135.9 92.84,-126.51 95.57,-117.83"/>
<polygon fill="black" stroke="black" points="98.96,-118.69 98.62,-108.1 92.29,-116.59 98.96,-118.69"/>
</g>
<!-- multiplicative -->
<g id="node5" class="node">
<title>multiplicative</title>
<g id="a_node5"><a xlink:href="PsyllaReference_Types.xhtml#PsyllaReference_Types_Details_multiplicative" xlink:title="multiplicative" target="_parent">
<polygon fill="linen" stroke="black" points="204.16,-180 127.84,-180 127.84,-144 210.16,-144 210.16,-174 204.16,-180"/>
<polyline fill="none" stroke="black" points="204.16,-180 204.16,-174 "/>
<polyline fill="none" stroke="black" points="210.16,-174 204.16,-174 "/>
<text text-anchor="middle" x="169" y="-158.4" font-family="Source Code Pro,monospace" font-size="12.00">multiplicative</text>
</a>
</g>
</g>
<!-- multiplicative&#45;&gt;arithmetic -->
<g id="edge4" class="edge">
<title>multiplicative&#45;&gt;arithmetic</title>
<path fill="none" stroke="black" d="M152.93,-143.7C145.06,-135.22 135.44,-124.86 126.83,-115.58"/>
<polygon fill="black" stroke="black" points="129.25,-113.05 119.88,-108.1 124.12,-117.81 129.25,-113.05"/>
</g>
<!-- object -->
<g id="node6" class="node">
<title>object</title>
<g id="a_node6"><a xlink:href="PsyllaReference_Types.xhtml#PsyllaReference_Types_Details_object" xlink:title="object" target="_parent">
<polygon fill="linen" stroke="black" points="103,-252 55,-252 55,-216 109,-216 109,-246 103,-252"/>
<polyline fill="none" stroke="black" points="103,-252 103,-246 "/>
<polyline fill="none" stroke="black" points="109,-246 103,-246 "/>
<text text-anchor="middle" x="82" y="-230.4" font-family="Source Code Pro,monospace" font-size="12.00">object</text>
</a>
</g>
</g>
<!-- object&#45;&gt;value -->
<g id="edge5" class="edge">
<title>object&#45;&gt;value</title>
<path fill="none" stroke="black" d="M67.84,-215.85C60.31,-205.93 51.5,-192.89 46,-180 37.59,-160.29 32.76,-136.49 30.07,-118.46"/>
<polygon fill="black" stroke="black" points="33.51,-117.76 28.7,-108.33 26.57,-118.71 33.51,-117.76"/>
</g>
<!-- object&#45;&gt;additive -->
<g id="edge6" class="edge">
<title>object&#45;&gt;additive</title>
<path fill="none" stroke="black" d="M82,-215.7C82,-207.98 82,-198.71 82,-190.11"/>
<polygon fill="black" stroke="black" points="85.5,-190.1 82,-180.1 78.5,-190.1 85.5,-190.1"/>
</g>
<!-- object&#45;&gt;multiplicative -->
<g id="edge7" class="edge">
<title>object&#45;&gt;multiplicative</title>
<path fill="none" stroke="black" d="M103.51,-215.7C114.46,-206.88 127.95,-196.03 139.82,-186.47"/>
<polygon fill="black" stroke="black" points="142.14,-189.1 147.74,-180.1 137.76,-183.65 142.14,-189.1"/>
</g>
</g>
</svg>
