<?xml version="1.0" encoding="UTF-8" standalone="no"?>
<!DOCTYPE svg PUBLIC "-//W3C//DTD SVG 1.1//EN"
 "http://www.w3.org/Graphics/SVG/1.1/DTD/svg11.dtd">
<!-- Generated by graphviz version 2.43.0 (0)
 -->
<!-- Title: string Pages: 1 -->
<svg width="715pt" height="476pt"
 viewBox="0.00 0.00 715.00 476.00" xmlns="http://www.w3.org/2000/svg" xmlns:xlink="http://www.w3.org/1999/xlink">
<g id="graph0" class="graph" transform="scale(1 1) rotate(0) translate(4 472)">
<title>string</title>
<polygon fill="transparent" stroke="transparent" points="-4,4 -4,-472 711,-472 711,4 -4,4"/>
<!-- textual -->
<g id="node1" class="node">
<title>textual</title>
<g id="a_node1"><a xlink:href="PsyllaReference_Types.xhtml#PsyllaReference_Types_Details_textual" xlink:title="textual" target="_parent">
<polygon fill="linen" stroke="black" points="188,-180 93,-180 93,-144 194,-144 194,-174 188,-180"/>
<polyline fill="none" stroke="black" points="188,-180 188,-174 "/>
<polyline fill="none" stroke="black" points="194,-174 188,-174 "/>
<text text-anchor="middle" x="143.5" y="-157" font-family="PT Mono, monospace" font-size="20.00">textual</text>
</a>
</g>
</g>
<!-- string -->
<g id="node3" class="node">
<title>string</title>
<g id="a_node3"><a xlink:href="PsyllaReference_Types.xhtml#PsyllaReference_Types_Details_string" xlink:title="string" target="_parent">
<polygon fill="wheat" stroke="black" points="359,-36 276,-36 276,0 365,0 365,-30 359,-36"/>
<polyline fill="none" stroke="black" points="359,-36 359,-30 "/>
<polyline fill="none" stroke="black" points="365,-30 359,-30 "/>
<text text-anchor="middle" x="320.5" y="-13" font-family="PT Mono, monospace" font-size="20.00">string</text>
</a>
</g>
</g>
<!-- textual&#45;&gt;string -->
<g id="edge1" class="edge">
<title>textual&#45;&gt;string</title>
<path fill="none" stroke="black" d="M164.85,-143.87C196.35,-118.6 255.37,-71.25 290.98,-42.68"/>
<polygon fill="black" stroke="black" points="293.46,-45.18 299.07,-36.19 289.08,-39.72 293.46,-45.18"/>
</g>
<!-- formalarray -->
<g id="node2" class="node">
<title>formalarray</title>
<g id="a_node2"><a xlink:href="PsyllaReference_Types.xhtml#PsyllaReference_Types_Details_formalarray" xlink:title="formalarray" target="_parent">
<polygon fill="linen" stroke="black" points="565,-108 422,-108 422,-72 571,-72 571,-102 565,-108"/>
<polyline fill="none" stroke="black" points="565,-108 565,-102 "/>
<polyline fill="none" stroke="black" points="571,-102 565,-102 "/>
<text text-anchor="middle" x="496.5" y="-85" font-family="PT Mono, monospace" font-size="20.00">formalarray</text>
</a>
</g>
</g>
<!-- formalarray&#45;&gt;string -->
<g id="edge2" class="edge">
<title>formalarray&#45;&gt;string</title>
<path fill="none" stroke="black" d="M453.45,-71.88C429.17,-62.22 398.66,-50.09 372.99,-39.88"/>
<polygon fill="black" stroke="black" points="374,-36.51 363.41,-36.07 371.41,-43.02 374,-36.51"/>
</g>
<!-- evaluable -->
<g id="node4" class="node">
<title>evaluable</title>
<g id="a_node4"><a xlink:href="PsyllaReference_Types.xhtml#PsyllaReference_Types_Details_evaluable" xlink:title="evaluable" target="_parent">
<polygon fill="linen" stroke="black" points="181,-324 62,-324 62,-288 187,-288 187,-318 181,-324"/>
<polyline fill="none" stroke="black" points="181,-324 181,-318 "/>
<polyline fill="none" stroke="black" points="187,-318 181,-318 "/>
<text text-anchor="middle" x="124.5" y="-301" font-family="PT Mono, monospace" font-size="20.00">evaluable</text>
</a>
</g>
</g>
<!-- evaluable&#45;&gt;textual -->
<g id="edge3" class="edge">
<title>evaluable&#45;&gt;textual</title>
<path fill="none" stroke="black" d="M106.33,-287.68C97.62,-278.1 88.09,-265.43 83.5,-252 78.33,-236.86 76.92,-230.59 83.5,-216 88.68,-204.52 97.71,-194.52 107.22,-186.4"/>
<polygon fill="black" stroke="black" points="109.59,-188.99 115.24,-180.03 105.23,-183.51 109.59,-188.99"/>
</g>
<!-- iterable -->
<g id="node5" class="node">
<title>iterable</title>
<g id="a_node5"><a xlink:href="PsyllaReference_Types.xhtml#PsyllaReference_Types_Details_iterable" xlink:title="iterable" target="_parent">
<polygon fill="linen" stroke="black" points="462,-252 355,-252 355,-216 468,-216 468,-246 462,-252"/>
<polyline fill="none" stroke="black" points="462,-252 462,-246 "/>
<polyline fill="none" stroke="black" points="468,-246 462,-246 "/>
<text text-anchor="middle" x="411.5" y="-229" font-family="PT Mono, monospace" font-size="20.00">iterable</text>
</a>
</g>
</g>
<!-- iterable&#45;&gt;textual -->
<g id="edge4" class="edge">
<title>iterable&#45;&gt;textual</title>
<path fill="none" stroke="black" d="M354.99,-218.24C310.64,-206.66 249.03,-190.56 203.74,-178.74"/>
<polygon fill="black" stroke="black" points="204.61,-175.34 194.05,-176.2 202.84,-182.12 204.61,-175.34"/>
</g>
<!-- container -->
<g id="node9" class="node">
<title>container</title>
<g id="a_node9"><a xlink:href="PsyllaReference_Types.xhtml#PsyllaReference_Types_Details_container" xlink:title="container" target="_parent">
<polygon fill="linen" stroke="black" points="396,-180 277,-180 277,-144 402,-144 402,-174 396,-180"/>
<polyline fill="none" stroke="black" points="396,-180 396,-174 "/>
<polyline fill="none" stroke="black" points="402,-174 396,-174 "/>
<text text-anchor="middle" x="339.5" y="-157" font-family="PT Mono, monospace" font-size="20.00">container</text>
</a>
</g>
</g>
<!-- iterable&#45;&gt;container -->
<g id="edge17" class="edge">
<title>iterable&#45;&gt;container</title>
<path fill="none" stroke="black" d="M393.7,-215.7C384.9,-207.14 374.12,-196.66 364.5,-187.3"/>
<polygon fill="black" stroke="black" points="366.7,-184.57 357.09,-180.1 361.82,-189.58 366.7,-184.57"/>
</g>
<!-- lengthy -->
<g id="node6" class="node">
<title>lengthy</title>
<g id="a_node6"><a xlink:href="PsyllaReference_Types.xhtml#PsyllaReference_Types_Details_lengthy" xlink:title="lengthy" target="_parent">
<polygon fill="linen" stroke="black" points="188,-252 93,-252 93,-216 194,-216 194,-246 188,-252"/>
<polyline fill="none" stroke="black" points="188,-252 188,-246 "/>
<polyline fill="none" stroke="black" points="194,-246 188,-246 "/>
<text text-anchor="middle" x="143.5" y="-229" font-family="PT Mono, monospace" font-size="20.00">lengthy</text>
</a>
</g>
</g>
<!-- lengthy&#45;&gt;textual -->
<g id="edge5" class="edge">
<title>lengthy&#45;&gt;textual</title>
<path fill="none" stroke="black" d="M143.5,-215.7C143.5,-207.98 143.5,-198.71 143.5,-190.11"/>
<polygon fill="black" stroke="black" points="147,-190.1 143.5,-180.1 140,-190.1 147,-190.1"/>
</g>
<!-- lengthy&#45;&gt;container -->
<g id="edge18" class="edge">
<title>lengthy&#45;&gt;container</title>
<path fill="none" stroke="black" d="M191.2,-215.97C218.58,-206.19 253.16,-193.84 282.03,-183.52"/>
<polygon fill="black" stroke="black" points="283.35,-186.77 291.59,-180.11 281,-180.18 283.35,-186.77"/>
</g>
<!-- scalar -->
<g id="node7" class="node">
<title>scalar</title>
<g id="a_node7"><a xlink:href="PsyllaReference_Types.xhtml#PsyllaReference_Types_Details_scalar" xlink:title="scalar" target="_parent">
<polygon fill="linen" stroke="black" points="83,-396 0,-396 0,-360 89,-360 89,-390 83,-396"/>
<polyline fill="none" stroke="black" points="83,-396 83,-390 "/>
<polyline fill="none" stroke="black" points="89,-390 83,-390 "/>
<text text-anchor="middle" x="44.5" y="-373" font-family="PT Mono, monospace" font-size="20.00">scalar</text>
</a>
</g>
</g>
<!-- scalar&#45;&gt;textual -->
<g id="edge6" class="edge">
<title>scalar&#45;&gt;textual</title>
<path fill="none" stroke="black" d="M43.47,-359.76C42.45,-328.27 44.4,-260.59 75.5,-216 83.48,-204.55 94.67,-194.41 105.67,-186.15"/>
<polygon fill="black" stroke="black" points="107.89,-188.87 113.99,-180.2 103.82,-183.17 107.89,-188.87"/>
</g>
<!-- appendable -->
<g id="node8" class="node">
<title>appendable</title>
<g id="a_node8"><a xlink:href="PsyllaReference_Types.xhtml#PsyllaReference_Types_Details_appendable" xlink:title="appendable" target="_parent">
<polygon fill="linen" stroke="black" points="642,-324 511,-324 511,-288 648,-288 648,-318 642,-324"/>
<polyline fill="none" stroke="black" points="642,-324 642,-318 "/>
<polyline fill="none" stroke="black" points="648,-318 642,-318 "/>
<text text-anchor="middle" x="579.5" y="-301" font-family="PT Mono, monospace" font-size="20.00">appendable</text>
</a>
</g>
</g>
<!-- appendable&#45;&gt;formalarray -->
<g id="edge7" class="edge">
<title>appendable&#45;&gt;formalarray</title>
<path fill="none" stroke="black" d="M572.85,-287.85C558.43,-250.68 524.21,-162.44 506.9,-117.82"/>
<polygon fill="black" stroke="black" points="510.06,-116.29 503.18,-108.23 503.54,-118.82 510.06,-116.29"/>
</g>
<!-- container&#45;&gt;formalarray -->
<g id="edge8" class="edge">
<title>container&#45;&gt;formalarray</title>
<path fill="none" stroke="black" d="M377.91,-143.88C399.37,-134.31 426.3,-122.3 449.07,-112.15"/>
<polygon fill="black" stroke="black" points="450.51,-115.34 458.22,-108.07 447.66,-108.94 450.51,-115.34"/>
</g>
<!-- indexed -->
<g id="node10" class="node">
<title>indexed</title>
<g id="a_node10"><a xlink:href="PsyllaReference_Types.xhtml#PsyllaReference_Types_Details_indexed" xlink:title="indexed" target="_parent">
<polygon fill="linen" stroke="black" points="701,-180 606,-180 606,-144 707,-144 707,-174 701,-180"/>
<polyline fill="none" stroke="black" points="701,-180 701,-174 "/>
<polyline fill="none" stroke="black" points="707,-174 701,-174 "/>
<text text-anchor="middle" x="656.5" y="-157" font-family="PT Mono, monospace" font-size="20.00">indexed</text>
</a>
</g>
</g>
<!-- indexed&#45;&gt;formalarray -->
<g id="edge9" class="edge">
<title>indexed&#45;&gt;formalarray</title>
<path fill="none" stroke="black" d="M617.36,-143.88C595.49,-134.31 568.04,-122.3 544.84,-112.15"/>
<polygon fill="black" stroke="black" points="546.08,-108.87 535.51,-108.07 543.27,-115.28 546.08,-108.87"/>
</g>
<!-- sequential -->
<g id="node11" class="node">
<title>sequential</title>
<g id="a_node11"><a xlink:href="PsyllaReference_Types.xhtml#PsyllaReference_Types_Details_sequential" xlink:title="sequential" target="_parent">
<polygon fill="linen" stroke="black" points="448,-396 317,-396 317,-360 454,-360 454,-390 448,-396"/>
<polyline fill="none" stroke="black" points="448,-396 448,-390 "/>
<polyline fill="none" stroke="black" points="454,-390 448,-390 "/>
<text text-anchor="middle" x="385.5" y="-373" font-family="PT Mono, monospace" font-size="20.00">sequential</text>
</a>
</g>
</g>
<!-- sequential&#45;&gt;formalarray -->
<g id="edge10" class="edge">
<title>sequential&#45;&gt;formalarray</title>
<path fill="none" stroke="black" d="M421.73,-359.99C436.56,-351.25 452.54,-339.2 462.5,-324 504.5,-259.9 503.22,-164.73 499.52,-118.37"/>
<polygon fill="black" stroke="black" points="502.99,-117.85 498.61,-108.2 496.02,-118.48 502.99,-117.85"/>
</g>
<!-- streamable -->
<g id="node13" class="node">
<title>streamable</title>
<g id="a_node13"><a xlink:href="PsyllaReference_Types.xhtml#PsyllaReference_Types_Details_streamable" xlink:title="streamable" target="_parent">
<polygon fill="linen" stroke="black" points="448,-324 317,-324 317,-288 454,-288 454,-318 448,-324"/>
<polyline fill="none" stroke="black" points="448,-324 448,-318 "/>
<polyline fill="none" stroke="black" points="454,-318 448,-318 "/>
<text text-anchor="middle" x="385.5" y="-301" font-family="PT Mono, monospace" font-size="20.00">streamable</text>
</a>
</g>
</g>
<!-- sequential&#45;&gt;streamable -->
<g id="edge21" class="edge">
<title>sequential&#45;&gt;streamable</title>
<path fill="none" stroke="black" d="M385.5,-359.7C385.5,-351.98 385.5,-342.71 385.5,-334.11"/>
<polygon fill="black" stroke="black" points="389,-334.1 385.5,-324.1 382,-334.1 389,-334.1"/>
</g>
<!-- object -->
<g id="node12" class="node">
<title>object</title>
<g id="a_node12"><a xlink:href="PsyllaReference_Types.xhtml#PsyllaReference_Types_Details_object" xlink:title="object" target="_parent">
<polygon fill="linen" stroke="black" points="313,-468 230,-468 230,-432 319,-432 319,-462 313,-468"/>
<polyline fill="none" stroke="black" points="313,-468 313,-462 "/>
<polyline fill="none" stroke="black" points="319,-462 313,-462 "/>
<text text-anchor="middle" x="274.5" y="-445" font-family="PT Mono, monospace" font-size="20.00">object</text>
</a>
</g>
</g>
<!-- object&#45;&gt;evaluable -->
<g id="edge11" class="edge">
<title>object&#45;&gt;evaluable</title>
<path fill="none" stroke="black" d="M254.91,-431.78C243.34,-421.51 228.46,-408.15 215.5,-396 192.65,-374.58 167.2,-349.59 149.04,-331.56"/>
<polygon fill="black" stroke="black" points="151.29,-328.86 141.73,-324.28 146.35,-333.82 151.29,-328.86"/>
</g>
<!-- object&#45;&gt;lengthy -->
<g id="edge13" class="edge">
<title>object&#45;&gt;lengthy</title>
<path fill="none" stroke="black" d="M268.09,-431.56C256.36,-400.89 229.5,-336.03 195.5,-288 188.3,-277.83 179.12,-267.78 170.49,-259.21"/>
<polygon fill="black" stroke="black" points="172.73,-256.52 163.1,-252.1 167.87,-261.56 172.73,-256.52"/>
</g>
<!-- object&#45;&gt;scalar -->
<g id="edge14" class="edge">
<title>object&#45;&gt;scalar</title>
<path fill="none" stroke="black" d="M229.88,-435.42C192.47,-424.03 138.91,-407.73 98.97,-395.58"/>
<polygon fill="black" stroke="black" points="99.97,-392.22 89.39,-392.66 97.93,-398.92 99.97,-392.22"/>
</g>
<!-- object&#45;&gt;appendable -->
<g id="edge15" class="edge">
<title>object&#45;&gt;appendable</title>
<path fill="none" stroke="black" d="M319.15,-441.33C358.36,-433.47 416.22,-419.08 462.5,-396 497.03,-378.78 531.58,-350.86 554.08,-330.89"/>
<polygon fill="black" stroke="black" points="556.44,-333.48 561.52,-324.18 551.75,-328.28 556.44,-333.48"/>
</g>
<!-- object&#45;&gt;indexed -->
<g id="edge19" class="edge">
<title>object&#45;&gt;indexed</title>
<path fill="none" stroke="black" d="M319.1,-441.59C411.77,-425.12 619.61,-382.3 656.5,-324 682.37,-283.12 673.26,-223.91 664.64,-189.86"/>
<polygon fill="black" stroke="black" points="668,-188.89 662.02,-180.14 661.25,-190.71 668,-188.89"/>
</g>
<!-- object&#45;&gt;sequential -->
<g id="edge20" class="edge">
<title>object&#45;&gt;sequential</title>
<path fill="none" stroke="black" d="M301.65,-431.88C316.03,-422.81 333.88,-411.55 349.41,-401.76"/>
<polygon fill="black" stroke="black" points="351.65,-404.48 358.24,-396.19 347.92,-398.56 351.65,-404.48"/>
</g>
<!-- clearable -->
<g id="node14" class="node">
<title>clearable</title>
<g id="a_node14"><a xlink:href="PsyllaReference_Types.xhtml#PsyllaReference_Types_Details_clearable" xlink:title="clearable" target="_parent">
<polygon fill="linen" stroke="black" points="331,-252 212,-252 212,-216 337,-216 337,-246 331,-252"/>
<polyline fill="none" stroke="black" points="331,-252 331,-246 "/>
<polyline fill="none" stroke="black" points="337,-246 331,-246 "/>
<text text-anchor="middle" x="274.5" y="-229" font-family="PT Mono, monospace" font-size="20.00">clearable</text>
</a>
</g>
</g>
<!-- object&#45;&gt;clearable -->
<g id="edge22" class="edge">
<title>object&#45;&gt;clearable</title>
<path fill="none" stroke="black" d="M274.5,-431.85C274.5,-394.83 274.5,-307.18 274.5,-262.39"/>
<polygon fill="black" stroke="black" points="278,-262.23 274.5,-252.23 271,-262.23 278,-262.23"/>
</g>
<!-- streamable&#45;&gt;iterable -->
<g id="edge12" class="edge">
<title>streamable&#45;&gt;iterable</title>
<path fill="none" stroke="black" d="M391.93,-287.7C394.86,-279.81 398.39,-270.3 401.64,-261.55"/>
<polygon fill="black" stroke="black" points="404.95,-262.7 405.15,-252.1 398.38,-260.26 404.95,-262.7"/>
</g>
<!-- clearable&#45;&gt;container -->
<g id="edge16" class="edge">
<title>clearable&#45;&gt;container</title>
<path fill="none" stroke="black" d="M290.57,-215.7C298.44,-207.22 308.06,-196.86 316.67,-187.58"/>
<polygon fill="black" stroke="black" points="319.38,-189.81 323.62,-180.1 314.25,-185.05 319.38,-189.81"/>
</g>
</g>
</svg>
