<?xml version="1.0" encoding="UTF-8" standalone="no"?>
<!DOCTYPE svg PUBLIC "-//W3C//DTD SVG 1.1//EN"
 "http://www.w3.org/Graphics/SVG/1.1/DTD/svg11.dtd">
<!-- Generated by graphviz version 14.0.0 (0)
 -->
<!-- Title: executable Pages: 1 -->
<svg width="75pt" height="116pt"
 viewBox="0.00 0.00 75.00 116.00" xmlns="http://www.w3.org/2000/svg" xmlns:xlink="http://www.w3.org/1999/xlink">
<g id="graph0" class="graph" transform="scale(1 1) rotate(0) translate(4 112)">
<title>executable</title>
<polygon fill="none" stroke="none" points="-4,4 -4,-112 71.3,-112 71.3,4 -4,4"/>
<!-- object -->
<g id="node1" class="node">
<title>object</title>
<g id="a_node1"><a xlink:href="PsyllaReference_Types.xhtml#PsyllaReference_Types_Details_object" xlink:title="object" target="_parent">
<polygon fill="linen" stroke="black" points="54.65,-108 6.65,-108 6.65,-72 60.65,-72 60.65,-102 54.65,-108"/>
<polyline fill="none" stroke="black" points="54.65,-108 54.65,-102"/>
<polyline fill="none" stroke="black" points="60.65,-102 54.65,-102"/>
<text xml:space="preserve" text-anchor="middle" x="33.65" y="-86.4" font-family="Source Code Pro,monospace" font-size="12.00">object</text>
</a>
</g>
</g>
<!-- executable -->
<g id="node2" class="node">
<title>executable</title>
<g id="a_node2"><a xlink:href="PsyllaReference_Types.xhtml#PsyllaReference_Types_Details_executable" xlink:title="executable" target="_parent">
<polygon fill="wheat" stroke="black" points="61.3,-36 0,-36 0,0 67.3,0 67.3,-30 61.3,-36"/>
<polyline fill="none" stroke="black" points="61.3,-36 61.3,-30"/>
<polyline fill="none" stroke="black" points="67.3,-30 61.3,-30"/>
<text xml:space="preserve" text-anchor="middle" x="33.65" y="-14.4" font-family="Source Code Pro,monospace" font-size="12.00">executable</text>
</a>
</g>
</g>
<!-- object&#45;&gt;executable -->
<g id="edge1" class="edge">
<title>object&#45;&gt;executable</title>
<path fill="none" stroke="black" d="M33.65,-71.7C33.65,-64.41 33.65,-55.73 33.65,-47.54"/>
<polygon fill="black" stroke="black" points="37.15,-47.62 33.65,-37.62 30.15,-47.62 37.15,-47.62"/>
</g>
</g>
</svg>
