<?xml version="1.0" encoding="UTF-8" standalone="no"?>
<!DOCTYPE svg PUBLIC "-//W3C//DTD SVG 1.1//EN"
 "http://www.w3.org/Graphics/SVG/1.1/DTD/svg11.dtd">
<!-- Generated by graphviz version 2.43.0 (0)
 -->
<!-- Title: realnumeric Pages: 1 -->
<svg width="226pt" height="332pt"
 viewBox="0.00 0.00 226.00 332.00" xmlns="http://www.w3.org/2000/svg" xmlns:xlink="http://www.w3.org/1999/xlink">
<g id="graph0" class="graph" transform="scale(1 1) rotate(0) translate(4 328)">
<title>realnumeric</title>
<polygon fill="transparent" stroke="transparent" points="-4,4 -4,-328 222,-328 222,4 -4,4"/>
<!-- numeric -->
<g id="node1" class="node">
<title>numeric</title>
<g id="a_node1"><a xlink:href="PsyllaReference_Types.xhtml#PsyllaReference_Types_Details_numeric" xlink:title="numeric" target="_parent">
<polygon fill="linen" stroke="black" points="122.5,-108 59.5,-108 59.5,-72 128.5,-72 128.5,-102 122.5,-108"/>
<polyline fill="none" stroke="black" points="122.5,-108 122.5,-102 "/>
<polyline fill="none" stroke="black" points="128.5,-102 122.5,-102 "/>
<text text-anchor="middle" x="94" y="-86.9" font-family="PT Mono, monospace" font-size="12.00">numeric</text>
</a>
</g>
</g>
<!-- realnumeric -->
<g id="node3" class="node">
<title>realnumeric</title>
<g id="a_node3"><a xlink:href="PsyllaReference_Types.xhtml#PsyllaReference_Types_Details_realnumeric" xlink:title="realnumeric" target="_parent">
<polygon fill="wheat" stroke="black" points="105.5,-36 12.5,-36 12.5,0 111.5,0 111.5,-30 105.5,-36"/>
<polyline fill="none" stroke="black" points="105.5,-36 105.5,-30 "/>
<polyline fill="none" stroke="black" points="111.5,-30 105.5,-30 "/>
<text text-anchor="middle" x="62" y="-14.9" font-family="PT Mono, monospace" font-size="12.00">realnumeric</text>
</a>
</g>
</g>
<!-- numeric&#45;&gt;realnumeric -->
<g id="edge1" class="edge">
<title>numeric&#45;&gt;realnumeric</title>
<path fill="none" stroke="black" d="M86.09,-71.7C82.45,-63.73 78.05,-54.1 74.01,-45.26"/>
<polygon fill="black" stroke="black" points="77.16,-43.74 69.82,-36.1 70.79,-46.65 77.16,-43.74"/>
</g>
<!-- scalar -->
<g id="node2" class="node">
<title>scalar</title>
<g id="a_node2"><a xlink:href="PsyllaReference_Types.xhtml#PsyllaReference_Types_Details_scalar" xlink:title="scalar" target="_parent">
<polygon fill="linen" stroke="black" points="56,-180 0,-180 0,-144 62,-144 62,-174 56,-180"/>
<polyline fill="none" stroke="black" points="56,-180 56,-174 "/>
<polyline fill="none" stroke="black" points="62,-174 56,-174 "/>
<text text-anchor="middle" x="31" y="-158.9" font-family="PT Mono, monospace" font-size="12.00">scalar</text>
</a>
</g>
</g>
<!-- scalar&#45;&gt;realnumeric -->
<g id="edge2" class="edge">
<title>scalar&#45;&gt;realnumeric</title>
<path fill="none" stroke="black" d="M34.58,-143.92C38.35,-126 44.5,-97 50,-72 51.85,-63.58 53.91,-54.41 55.79,-46.11"/>
<polygon fill="black" stroke="black" points="59.25,-46.7 58.06,-36.17 52.42,-45.15 59.25,-46.7"/>
</g>
<!-- atomic -->
<g id="node4" class="node">
<title>atomic</title>
<g id="a_node4"><a xlink:href="PsyllaReference_Types.xhtml#PsyllaReference_Types_Details_atomic" xlink:title="atomic" target="_parent">
<polygon fill="linen" stroke="black" points="115,-252 59,-252 59,-216 121,-216 121,-246 115,-252"/>
<polyline fill="none" stroke="black" points="115,-252 115,-246 "/>
<polyline fill="none" stroke="black" points="121,-246 115,-246 "/>
<text text-anchor="middle" x="90" y="-230.9" font-family="PT Mono, monospace" font-size="12.00">atomic</text>
</a>
</g>
</g>
<!-- atomic&#45;&gt;numeric -->
<g id="edge3" class="edge">
<title>atomic&#45;&gt;numeric</title>
<path fill="none" stroke="black" d="M90.48,-215.87C91.16,-191.67 92.42,-147.21 93.23,-118.39"/>
<polygon fill="black" stroke="black" points="96.73,-118.28 93.52,-108.19 89.74,-118.09 96.73,-118.28"/>
</g>
<!-- arithmetic -->
<g id="node5" class="node">
<title>arithmetic</title>
<g id="a_node5"><a xlink:href="PsyllaReference_Types.xhtml#PsyllaReference_Types_Details_arithmetic" xlink:title="arithmetic" target="_parent">
<polygon fill="linen" stroke="black" points="212,-180 126,-180 126,-144 218,-144 218,-174 212,-180"/>
<polyline fill="none" stroke="black" points="212,-180 212,-174 "/>
<polyline fill="none" stroke="black" points="218,-174 212,-174 "/>
<text text-anchor="middle" x="172" y="-158.9" font-family="PT Mono, monospace" font-size="12.00">arithmetic</text>
</a>
</g>
</g>
<!-- arithmetic&#45;&gt;numeric -->
<g id="edge4" class="edge">
<title>arithmetic&#45;&gt;numeric</title>
<path fill="none" stroke="black" d="M152.72,-143.7C143.08,-135.05 131.27,-124.45 120.77,-115.03"/>
<polygon fill="black" stroke="black" points="122.84,-112.18 113.06,-108.1 118.16,-117.39 122.84,-112.18"/>
</g>
<!-- object -->
<g id="node6" class="node">
<title>object</title>
<g id="a_node6"><a xlink:href="PsyllaReference_Types.xhtml#PsyllaReference_Types_Details_object" xlink:title="object" target="_parent">
<polygon fill="linen" stroke="black" points="115,-324 59,-324 59,-288 121,-288 121,-318 115,-324"/>
<polyline fill="none" stroke="black" points="115,-324 115,-318 "/>
<polyline fill="none" stroke="black" points="121,-318 115,-318 "/>
<text text-anchor="middle" x="90" y="-302.9" font-family="PT Mono, monospace" font-size="12.00">object</text>
</a>
</g>
</g>
<!-- object&#45;&gt;scalar -->
<g id="edge5" class="edge">
<title>object&#45;&gt;scalar</title>
<path fill="none" stroke="black" d="M73.8,-287.63C65.51,-277.84 55.94,-265 50,-252 41,-232.3 36.19,-208.17 33.67,-190.01"/>
<polygon fill="black" stroke="black" points="37.14,-189.58 32.43,-180.09 30.19,-190.45 37.14,-189.58"/>
</g>
<!-- object&#45;&gt;atomic -->
<g id="edge6" class="edge">
<title>object&#45;&gt;atomic</title>
<path fill="none" stroke="black" d="M90,-287.7C90,-279.98 90,-270.71 90,-262.11"/>
<polygon fill="black" stroke="black" points="93.5,-262.1 90,-252.1 86.5,-262.1 93.5,-262.1"/>
</g>
<!-- additive -->
<g id="node7" class="node">
<title>additive</title>
<g id="a_node7"><a xlink:href="PsyllaReference_Types.xhtml#PsyllaReference_Types_Details_additive" xlink:title="additive" target="_parent">
<polygon fill="linen" stroke="black" points="210.5,-252 139.5,-252 139.5,-216 216.5,-216 216.5,-246 210.5,-252"/>
<polyline fill="none" stroke="black" points="210.5,-252 210.5,-246 "/>
<polyline fill="none" stroke="black" points="216.5,-246 210.5,-246 "/>
<text text-anchor="middle" x="178" y="-230.9" font-family="PT Mono, monospace" font-size="12.00">additive</text>
</a>
</g>
</g>
<!-- object&#45;&gt;additive -->
<g id="edge8" class="edge">
<title>object&#45;&gt;additive</title>
<path fill="none" stroke="black" d="M111.75,-287.7C122.84,-278.88 136.47,-268.03 148.49,-258.47"/>
<polygon fill="black" stroke="black" points="150.85,-261.07 156.5,-252.1 146.49,-255.59 150.85,-261.07"/>
</g>
<!-- additive&#45;&gt;arithmetic -->
<g id="edge7" class="edge">
<title>additive&#45;&gt;arithmetic</title>
<path fill="none" stroke="black" d="M176.52,-215.7C175.86,-207.98 175.06,-198.71 174.32,-190.11"/>
<polygon fill="black" stroke="black" points="177.81,-189.77 173.47,-180.1 170.83,-190.37 177.81,-189.77"/>
</g>
</g>
</svg>
