<?xml version="1.0" encoding="UTF-8" standalone="no"?>
<!DOCTYPE svg PUBLIC "-//W3C//DTD SVG 1.1//EN"
 "http://www.w3.org/Graphics/SVG/1.1/DTD/svg11.dtd">
<!-- Generated by graphviz version 2.49.3 (0)
 -->
<!-- Title: bitset Pages: 1 -->
<svg width="271pt" height="476pt"
 viewBox="0.00 0.00 270.65 476.00" xmlns="http://www.w3.org/2000/svg" xmlns:xlink="http://www.w3.org/1999/xlink">
<g id="graph0" class="graph" transform="scale(1 1) rotate(0) translate(4 472)">
<title>bitset</title>
<polygon fill="transparent" stroke="transparent" points="-4,4 -4,-472 266.65,-472 266.65,4 -4,4"/>
<!-- formalset -->
<g id="node1" class="node">
<title>formalset</title>
<g id="a_node1"><a xlink:href="PsyllaReference_Types.xhtml#PsyllaReference_Types_Details_formalset" xlink:title="formalset" target="_parent">
<polygon fill="linen" stroke="black" points="93.14,-108 37.51,-108 37.51,-72 99.14,-72 99.14,-102 93.14,-108"/>
<polyline fill="none" stroke="black" points="93.14,-108 93.14,-102 "/>
<polyline fill="none" stroke="black" points="99.14,-102 93.14,-102 "/>
<text text-anchor="middle" x="68.32" y="-86.4" font-family="Source Code Pro,monospace" font-size="12.00">formalset</text>
</a>
</g>
</g>
<!-- bitset -->
<g id="node2" class="node">
<title>bitset</title>
<g id="a_node2"><a xlink:href="PsyllaReference_Types.xhtml#PsyllaReference_Types_Details_bitset" xlink:title="bitset" target="_parent">
<polygon fill="wheat" stroke="black" points="89.32,-36 41.32,-36 41.32,0 95.32,0 95.32,-30 89.32,-36"/>
<polyline fill="none" stroke="black" points="89.32,-36 89.32,-30 "/>
<polyline fill="none" stroke="black" points="95.32,-30 89.32,-30 "/>
<text text-anchor="middle" x="68.32" y="-14.4" font-family="Source Code Pro,monospace" font-size="12.00">bitset</text>
</a>
</g>
</g>
<!-- formalset&#45;&gt;bitset -->
<g id="edge1" class="edge">
<title>formalset&#45;&gt;bitset</title>
<path fill="none" stroke="black" d="M68.32,-71.7C68.32,-63.98 68.32,-54.71 68.32,-46.11"/>
<polygon fill="black" stroke="black" points="71.82,-46.1 68.32,-36.1 64.82,-46.1 71.82,-46.1"/>
</g>
<!-- appendable -->
<g id="node3" class="node">
<title>appendable</title>
<g id="a_node3"><a xlink:href="PsyllaReference_Types.xhtml#PsyllaReference_Types_Details_appendable" xlink:title="appendable" target="_parent">
<polygon fill="linen" stroke="black" points="64.46,-324 0.18,-324 0.18,-288 70.46,-288 70.46,-318 64.46,-324"/>
<polyline fill="none" stroke="black" points="64.46,-324 64.46,-318 "/>
<polyline fill="none" stroke="black" points="70.46,-318 64.46,-318 "/>
<text text-anchor="middle" x="35.32" y="-302.4" font-family="Source Code Pro,monospace" font-size="12.00">appendable</text>
</a>
</g>
</g>
<!-- appendable&#45;&gt;formalset -->
<g id="edge2" class="edge">
<title>appendable&#45;&gt;formalset</title>
<path fill="none" stroke="black" d="M37.97,-287.85C43.67,-250.83 57.19,-163.18 64.1,-118.39"/>
<polygon fill="black" stroke="black" points="67.6,-118.65 65.66,-108.23 60.68,-117.58 67.6,-118.65"/>
</g>
<!-- container -->
<g id="node4" class="node">
<title>container</title>
<g id="a_node4"><a xlink:href="PsyllaReference_Types.xhtml#PsyllaReference_Types_Details_container" xlink:title="container" target="_parent">
<polygon fill="linen" stroke="black" points="150.47,-180 96.18,-180 96.18,-144 156.47,-144 156.47,-174 150.47,-180"/>
<polyline fill="none" stroke="black" points="150.47,-180 150.47,-174 "/>
<polyline fill="none" stroke="black" points="156.47,-174 150.47,-174 "/>
<text text-anchor="middle" x="126.32" y="-158.4" font-family="Source Code Pro,monospace" font-size="12.00">container</text>
</a>
</g>
</g>
<!-- container&#45;&gt;formalset -->
<g id="edge3" class="edge">
<title>container&#45;&gt;formalset</title>
<path fill="none" stroke="black" d="M111.98,-143.7C105.03,-135.3 96.55,-125.07 88.92,-115.86"/>
<polygon fill="black" stroke="black" points="91.57,-113.57 82.49,-108.1 86.18,-118.04 91.57,-113.57"/>
</g>
<!-- object -->
<g id="node5" class="node">
<title>object</title>
<g id="a_node5"><a xlink:href="PsyllaReference_Types.xhtml#PsyllaReference_Types_Details_object" xlink:title="object" target="_parent">
<polygon fill="linen" stroke="black" points="146.32,-468 98.32,-468 98.32,-432 152.32,-432 152.32,-462 146.32,-468"/>
<polyline fill="none" stroke="black" points="146.32,-468 146.32,-462 "/>
<polyline fill="none" stroke="black" points="152.32,-462 146.32,-462 "/>
<text text-anchor="middle" x="125.32" y="-446.4" font-family="Source Code Pro,monospace" font-size="12.00">object</text>
</a>
</g>
</g>
<!-- object&#45;&gt;appendable -->
<g id="edge4" class="edge">
<title>object&#45;&gt;appendable</title>
<path fill="none" stroke="black" d="M110.95,-431.84C102.74,-421.7 92.49,-408.45 84.32,-396 71.01,-375.72 57.86,-351.54 48.54,-333.51"/>
<polygon fill="black" stroke="black" points="51.44,-331.5 43.78,-324.19 45.21,-334.68 51.44,-331.5"/>
</g>
<!-- clearable -->
<g id="node6" class="node">
<title>clearable</title>
<g id="a_node6"><a xlink:href="PsyllaReference_Types.xhtml#PsyllaReference_Types_Details_clearable" xlink:title="clearable" target="_parent">
<polygon fill="linen" stroke="black" points="121.12,-252 67.52,-252 67.52,-216 127.12,-216 127.12,-246 121.12,-252"/>
<polyline fill="none" stroke="black" points="121.12,-252 121.12,-246 "/>
<polyline fill="none" stroke="black" points="127.12,-246 121.12,-246 "/>
<text text-anchor="middle" x="97.32" y="-230.4" font-family="Source Code Pro,monospace" font-size="12.00">clearable</text>
</a>
</g>
</g>
<!-- object&#45;&gt;clearable -->
<g id="edge8" class="edge">
<title>object&#45;&gt;clearable</title>
<path fill="none" stroke="black" d="M122.61,-431.83C121.01,-421.46 118.97,-407.98 117.32,-396 110.87,-349.12 104.27,-294.43 100.5,-262.37"/>
<polygon fill="black" stroke="black" points="103.97,-261.94 99.33,-252.41 97.02,-262.75 103.97,-261.94"/>
</g>
<!-- lengthy -->
<g id="node8" class="node">
<title>lengthy</title>
<g id="a_node8"><a xlink:href="PsyllaReference_Types.xhtml#PsyllaReference_Types_Details_lengthy" xlink:title="lengthy" target="_parent">
<polygon fill="linen" stroke="black" points="174.32,-396 126.32,-396 126.32,-360 180.32,-360 180.32,-390 174.32,-396"/>
<polyline fill="none" stroke="black" points="174.32,-396 174.32,-390 "/>
<polyline fill="none" stroke="black" points="180.32,-390 174.32,-390 "/>
<text text-anchor="middle" x="153.32" y="-374.4" font-family="Source Code Pro,monospace" font-size="12.00">lengthy</text>
</a>
</g>
</g>
<!-- object&#45;&gt;lengthy -->
<g id="edge10" class="edge">
<title>object&#45;&gt;lengthy</title>
<path fill="none" stroke="black" d="M132.24,-431.7C135.4,-423.81 139.2,-414.3 142.7,-405.55"/>
<polygon fill="black" stroke="black" points="146.01,-406.69 146.48,-396.1 139.52,-404.09 146.01,-406.69"/>
</g>
<!-- sequential -->
<g id="node10" class="node">
<title>sequential</title>
<g id="a_node10"><a xlink:href="PsyllaReference_Types.xhtml#PsyllaReference_Types_Details_sequential" xlink:title="sequential" target="_parent">
<polygon fill="linen" stroke="black" points="256.47,-396 198.17,-396 198.17,-360 262.47,-360 262.47,-390 256.47,-396"/>
<polyline fill="none" stroke="black" points="256.47,-396 256.47,-390 "/>
<polyline fill="none" stroke="black" points="262.47,-390 256.47,-390 "/>
<text text-anchor="middle" x="230.32" y="-374.4" font-family="Source Code Pro,monospace" font-size="12.00">sequential</text>
</a>
</g>
</g>
<!-- object&#45;&gt;sequential -->
<g id="edge12" class="edge">
<title>object&#45;&gt;sequential</title>
<path fill="none" stroke="black" d="M151.01,-431.88C164.61,-422.81 181.49,-411.55 196.18,-401.76"/>
<polygon fill="black" stroke="black" points="198.16,-404.65 204.54,-396.19 194.27,-398.82 198.16,-404.65"/>
</g>
<!-- clearable&#45;&gt;container -->
<g id="edge5" class="edge">
<title>clearable&#45;&gt;container</title>
<path fill="none" stroke="black" d="M104.49,-215.7C107.76,-207.81 111.69,-198.3 115.32,-189.55"/>
<polygon fill="black" stroke="black" points="118.64,-190.68 119.23,-180.1 112.17,-188 118.64,-190.68"/>
</g>
<!-- iterable -->
<g id="node7" class="node">
<title>iterable</title>
<g id="a_node7"><a xlink:href="PsyllaReference_Types.xhtml#PsyllaReference_Types_Details_iterable" xlink:title="iterable" target="_parent">
<polygon fill="linen" stroke="black" points="238.32,-252 190.32,-252 190.32,-216 244.32,-216 244.32,-246 238.32,-252"/>
<polyline fill="none" stroke="black" points="238.32,-252 238.32,-246 "/>
<polyline fill="none" stroke="black" points="244.32,-246 238.32,-246 "/>
<text text-anchor="middle" x="217.32" y="-230.4" font-family="Source Code Pro,monospace" font-size="12.00">iterable</text>
</a>
</g>
</g>
<!-- iterable&#45;&gt;container -->
<g id="edge6" class="edge">
<title>iterable&#45;&gt;container</title>
<path fill="none" stroke="black" d="M194.83,-215.7C183.37,-206.88 169.26,-196.03 156.84,-186.47"/>
<polygon fill="black" stroke="black" points="158.62,-183.43 148.56,-180.1 154.35,-188.98 158.62,-183.43"/>
</g>
<!-- lengthy&#45;&gt;container -->
<g id="edge7" class="edge">
<title>lengthy&#45;&gt;container</title>
<path fill="none" stroke="black" d="M151.95,-359.55C149.51,-329.94 143.96,-268 136.32,-216 135.08,-207.53 133.45,-198.35 131.86,-190.05"/>
<polygon fill="black" stroke="black" points="135.28,-189.27 129.92,-180.13 128.41,-190.61 135.28,-189.27"/>
</g>
<!-- streamable -->
<g id="node9" class="node">
<title>streamable</title>
<g id="a_node9"><a xlink:href="PsyllaReference_Types.xhtml#PsyllaReference_Types_Details_streamable" xlink:title="streamable" target="_parent">
<polygon fill="linen" stroke="black" points="251.29,-324 189.35,-324 189.35,-288 257.29,-288 257.29,-318 251.29,-324"/>
<polyline fill="none" stroke="black" points="251.29,-324 251.29,-318 "/>
<polyline fill="none" stroke="black" points="257.29,-318 251.29,-318 "/>
<text text-anchor="middle" x="223.32" y="-302.4" font-family="Source Code Pro,monospace" font-size="12.00">streamable</text>
</a>
</g>
</g>
<!-- streamable&#45;&gt;iterable -->
<g id="edge9" class="edge">
<title>streamable&#45;&gt;iterable</title>
<path fill="none" stroke="black" d="M221.84,-287.7C221.18,-279.98 220.38,-270.71 219.64,-262.11"/>
<polygon fill="black" stroke="black" points="223.13,-261.77 218.79,-252.1 216.15,-262.37 223.13,-261.77"/>
</g>
<!-- sequential&#45;&gt;streamable -->
<g id="edge11" class="edge">
<title>sequential&#45;&gt;streamable</title>
<path fill="none" stroke="black" d="M228.59,-359.7C227.82,-351.98 226.89,-342.71 226.03,-334.11"/>
<polygon fill="black" stroke="black" points="229.51,-333.71 225.03,-324.1 222.54,-334.4 229.51,-333.71"/>
</g>
</g>
</svg>
