<?xml version="1.0" encoding="UTF-8" standalone="no"?>
<!DOCTYPE svg PUBLIC "-//W3C//DTD SVG 1.1//EN"
 "http://www.w3.org/Graphics/SVG/1.1/DTD/svg11.dtd">
<!-- Generated by graphviz version 2.49.3 (0)
 -->
<!-- Title: formalarray Pages: 1 -->
<svg width="360pt" height="404pt"
 viewBox="0.00 0.00 360.32 404.00" xmlns="http://www.w3.org/2000/svg" xmlns:xlink="http://www.w3.org/1999/xlink">
<g id="graph0" class="graph" transform="scale(1 1) rotate(0) translate(4 400)">
<title>formalarray</title>
<polygon fill="transparent" stroke="transparent" points="-4,4 -4,-400 356.32,-400 356.32,4 -4,4"/>
<!-- appendable -->
<g id="node1" class="node">
<title>appendable</title>
<g id="a_node1"><a xlink:href="PsyllaReference_Types.xhtml#PsyllaReference_Types_Details_appendable" xlink:title="appendable" target="_parent">
<polygon fill="linen" stroke="black" points="64.46,-252 0.18,-252 0.18,-216 70.46,-216 70.46,-246 64.46,-252"/>
<polyline fill="none" stroke="black" points="64.46,-252 64.46,-246 "/>
<polyline fill="none" stroke="black" points="70.46,-246 64.46,-246 "/>
<text text-anchor="middle" x="35.32" y="-230.4" font-family="Source Code Pro,monospace" font-size="12.00">appendable</text>
</a>
</g>
</g>
<!-- formalarray -->
<g id="node5" class="node">
<title>formalarray</title>
<g id="a_node5"><a xlink:href="PsyllaReference_Types.xhtml#PsyllaReference_Types_Details_formalarray" xlink:title="formalarray" target="_parent">
<polygon fill="wheat" stroke="black" points="144.45,-36 78.19,-36 78.19,0 150.45,0 150.45,-30 144.45,-36"/>
<polyline fill="none" stroke="black" points="144.45,-36 144.45,-30 "/>
<polyline fill="none" stroke="black" points="150.45,-30 144.45,-30 "/>
<text text-anchor="middle" x="114.32" y="-14.4" font-family="Source Code Pro,monospace" font-size="12.00">formalarray</text>
</a>
</g>
</g>
<!-- appendable&#45;&gt;formalarray -->
<g id="edge1" class="edge">
<title>appendable&#45;&gt;formalarray</title>
<path fill="none" stroke="black" d="M33,-215.83C29.67,-185.03 26.43,-119.21 51.32,-72 57.42,-60.43 67.22,-50.35 77.28,-42.19"/>
<polygon fill="black" stroke="black" points="79.5,-44.9 85.34,-36.06 75.26,-39.32 79.5,-44.9"/>
</g>
<!-- container -->
<g id="node2" class="node">
<title>container</title>
<g id="a_node2"><a xlink:href="PsyllaReference_Types.xhtml#PsyllaReference_Types_Details_container" xlink:title="container" target="_parent">
<polygon fill="linen" stroke="black" points="260.47,-108 206.18,-108 206.18,-72 266.47,-72 266.47,-102 260.47,-108"/>
<polyline fill="none" stroke="black" points="260.47,-108 260.47,-102 "/>
<polyline fill="none" stroke="black" points="266.47,-102 260.47,-102 "/>
<text text-anchor="middle" x="236.32" y="-86.4" font-family="Source Code Pro,monospace" font-size="12.00">container</text>
</a>
</g>
</g>
<!-- container&#45;&gt;formalarray -->
<g id="edge2" class="edge">
<title>container&#45;&gt;formalarray</title>
<path fill="none" stroke="black" d="M206.48,-71.88C190.38,-62.64 170.32,-51.13 153.03,-41.21"/>
<polygon fill="black" stroke="black" points="154.7,-38.13 144.28,-36.19 151.21,-44.2 154.7,-38.13"/>
</g>
<!-- indexed -->
<g id="node3" class="node">
<title>indexed</title>
<g id="a_node3"><a xlink:href="PsyllaReference_Types.xhtml#PsyllaReference_Types_Details_indexed" xlink:title="indexed" target="_parent">
<polygon fill="linen" stroke="black" points="108.32,-108 60.32,-108 60.32,-72 114.32,-72 114.32,-102 108.32,-108"/>
<polyline fill="none" stroke="black" points="108.32,-108 108.32,-102 "/>
<polyline fill="none" stroke="black" points="114.32,-102 108.32,-102 "/>
<text text-anchor="middle" x="87.32" y="-86.4" font-family="Source Code Pro,monospace" font-size="12.00">indexed</text>
</a>
</g>
</g>
<!-- indexed&#45;&gt;formalarray -->
<g id="edge3" class="edge">
<title>indexed&#45;&gt;formalarray</title>
<path fill="none" stroke="black" d="M94,-71.7C97.04,-63.81 100.7,-54.3 104.08,-45.55"/>
<polygon fill="black" stroke="black" points="107.39,-46.69 107.72,-36.1 100.86,-44.17 107.39,-46.69"/>
</g>
<!-- sequential -->
<g id="node4" class="node">
<title>sequential</title>
<g id="a_node4"><a xlink:href="PsyllaReference_Types.xhtml#PsyllaReference_Types_Details_sequential" xlink:title="sequential" target="_parent">
<polygon fill="linen" stroke="black" points="208.47,-324 150.17,-324 150.17,-288 214.47,-288 214.47,-318 208.47,-324"/>
<polyline fill="none" stroke="black" points="208.47,-324 208.47,-318 "/>
<polyline fill="none" stroke="black" points="214.47,-318 208.47,-318 "/>
<text text-anchor="middle" x="182.32" y="-302.4" font-family="Source Code Pro,monospace" font-size="12.00">sequential</text>
</a>
</g>
</g>
<!-- sequential&#45;&gt;formalarray -->
<g id="edge4" class="edge">
<title>sequential&#45;&gt;formalarray</title>
<path fill="none" stroke="black" d="M174.52,-287.61C170.17,-277.4 164.92,-264.15 161.32,-252 149.91,-213.5 128.69,-98.9 119.17,-46.14"/>
<polygon fill="black" stroke="black" points="122.59,-45.39 117.37,-36.16 115.7,-46.62 122.59,-45.39"/>
</g>
<!-- streamable -->
<g id="node10" class="node">
<title>streamable</title>
<g id="a_node10"><a xlink:href="PsyllaReference_Types.xhtml#PsyllaReference_Types_Details_streamable" xlink:title="streamable" target="_parent">
<polygon fill="linen" stroke="black" points="232.29,-252 170.35,-252 170.35,-216 238.29,-216 238.29,-246 232.29,-252"/>
<polyline fill="none" stroke="black" points="232.29,-252 232.29,-246 "/>
<polyline fill="none" stroke="black" points="238.29,-246 232.29,-246 "/>
<text text-anchor="middle" x="204.32" y="-230.4" font-family="Source Code Pro,monospace" font-size="12.00">streamable</text>
</a>
</g>
</g>
<!-- sequential&#45;&gt;streamable -->
<g id="edge14" class="edge">
<title>sequential&#45;&gt;streamable</title>
<path fill="none" stroke="black" d="M187.76,-287.7C190.21,-279.9 193.16,-270.51 195.89,-261.83"/>
<polygon fill="black" stroke="black" points="199.29,-262.69 198.95,-252.1 192.61,-260.59 199.29,-262.69"/>
</g>
<!-- object -->
<g id="node6" class="node">
<title>object</title>
<g id="a_node6"><a xlink:href="PsyllaReference_Types.xhtml#PsyllaReference_Types_Details_object" xlink:title="object" target="_parent">
<polygon fill="linen" stroke="black" points="203.32,-396 155.32,-396 155.32,-360 209.32,-360 209.32,-390 203.32,-396"/>
<polyline fill="none" stroke="black" points="203.32,-396 203.32,-390 "/>
<polyline fill="none" stroke="black" points="209.32,-390 203.32,-390 "/>
<text text-anchor="middle" x="182.32" y="-374.4" font-family="Source Code Pro,monospace" font-size="12.00">object</text>
</a>
</g>
</g>
<!-- object&#45;&gt;appendable -->
<g id="edge5" class="edge">
<title>object&#45;&gt;appendable</title>
<path fill="none" stroke="black" d="M155.17,-366.27C134.95,-357.26 107.62,-342.85 88.32,-324 70.02,-306.13 55.7,-280.65 46.58,-261.53"/>
<polygon fill="black" stroke="black" points="49.64,-259.81 42.29,-252.18 43.28,-262.73 49.64,-259.81"/>
</g>
<!-- object&#45;&gt;indexed -->
<g id="edge9" class="edge">
<title>object&#45;&gt;indexed</title>
<path fill="none" stroke="black" d="M165.79,-359.65C157.32,-349.87 147.51,-337.03 141.32,-324 108.26,-254.34 94.75,-163.15 89.82,-118.31"/>
<polygon fill="black" stroke="black" points="93.29,-117.79 88.77,-108.2 86.32,-118.51 93.29,-117.79"/>
</g>
<!-- object&#45;&gt;sequential -->
<g id="edge10" class="edge">
<title>object&#45;&gt;sequential</title>
<path fill="none" stroke="black" d="M182.32,-359.7C182.32,-351.98 182.32,-342.71 182.32,-334.11"/>
<polygon fill="black" stroke="black" points="185.82,-334.1 182.32,-324.1 178.82,-334.1 185.82,-334.1"/>
</g>
<!-- clearable -->
<g id="node7" class="node">
<title>clearable</title>
<g id="a_node7"><a xlink:href="PsyllaReference_Types.xhtml#PsyllaReference_Types_Details_clearable" xlink:title="clearable" target="_parent">
<polygon fill="linen" stroke="black" points="296.12,-180 242.52,-180 242.52,-144 302.12,-144 302.12,-174 296.12,-180"/>
<polyline fill="none" stroke="black" points="296.12,-180 296.12,-174 "/>
<polyline fill="none" stroke="black" points="302.12,-174 296.12,-174 "/>
<text text-anchor="middle" x="272.32" y="-158.4" font-family="Source Code Pro,monospace" font-size="12.00">clearable</text>
</a>
</g>
</g>
<!-- object&#45;&gt;clearable -->
<g id="edge11" class="edge">
<title>object&#45;&gt;clearable</title>
<path fill="none" stroke="black" d="M197.96,-359.88C206.38,-349.97 216.42,-336.93 223.32,-324 246.78,-280.04 260.73,-223.2 267.43,-190.15"/>
<polygon fill="black" stroke="black" points="270.87,-190.79 269.35,-180.3 264,-189.44 270.87,-190.79"/>
</g>
<!-- lengthy -->
<g id="node9" class="node">
<title>lengthy</title>
<g id="a_node9"><a xlink:href="PsyllaReference_Types.xhtml#PsyllaReference_Types_Details_lengthy" xlink:title="lengthy" target="_parent">
<polygon fill="linen" stroke="black" points="346.32,-324 298.32,-324 298.32,-288 352.32,-288 352.32,-318 346.32,-324"/>
<polyline fill="none" stroke="black" points="346.32,-324 346.32,-318 "/>
<polyline fill="none" stroke="black" points="352.32,-318 346.32,-318 "/>
<text text-anchor="middle" x="325.32" y="-302.4" font-family="Source Code Pro,monospace" font-size="12.00">lengthy</text>
</a>
</g>
</g>
<!-- object&#45;&gt;lengthy -->
<g id="edge13" class="edge">
<title>object&#45;&gt;lengthy</title>
<path fill="none" stroke="black" d="M209.55,-363.67C232.12,-352.62 264.38,-336.83 289.11,-324.72"/>
<polygon fill="black" stroke="black" points="290.75,-327.82 298.19,-320.28 287.67,-321.53 290.75,-327.82"/>
</g>
<!-- clearable&#45;&gt;container -->
<g id="edge6" class="edge">
<title>clearable&#45;&gt;container</title>
<path fill="none" stroke="black" d="M263.42,-143.7C259.32,-135.73 254.37,-126.1 249.83,-117.26"/>
<polygon fill="black" stroke="black" points="252.8,-115.4 245.12,-108.1 246.58,-118.6 252.8,-115.4"/>
</g>
<!-- iterable -->
<g id="node8" class="node">
<title>iterable</title>
<g id="a_node8"><a xlink:href="PsyllaReference_Types.xhtml#PsyllaReference_Types_Details_iterable" xlink:title="iterable" target="_parent">
<polygon fill="linen" stroke="black" points="218.32,-180 170.32,-180 170.32,-144 224.32,-144 224.32,-174 218.32,-180"/>
<polyline fill="none" stroke="black" points="218.32,-180 218.32,-174 "/>
<polyline fill="none" stroke="black" points="224.32,-174 218.32,-174 "/>
<text text-anchor="middle" x="197.32" y="-158.4" font-family="Source Code Pro,monospace" font-size="12.00">iterable</text>
</a>
</g>
</g>
<!-- iterable&#45;&gt;container -->
<g id="edge7" class="edge">
<title>iterable&#45;&gt;container</title>
<path fill="none" stroke="black" d="M206.96,-143.7C211.45,-135.64 216.88,-125.89 221.85,-116.98"/>
<polygon fill="black" stroke="black" points="224.98,-118.54 226.79,-108.1 218.87,-115.14 224.98,-118.54"/>
</g>
<!-- lengthy&#45;&gt;container -->
<g id="edge8" class="edge">
<title>lengthy&#45;&gt;container</title>
<path fill="none" stroke="black" d="M328.3,-287.63C332.72,-256.52 337.86,-190.23 311.32,-144 303.05,-129.59 289.09,-118.14 275.44,-109.61"/>
<polygon fill="black" stroke="black" points="276.98,-106.46 266.58,-104.43 273.45,-112.5 276.98,-106.46"/>
</g>
<!-- streamable&#45;&gt;iterable -->
<g id="edge12" class="edge">
<title>streamable&#45;&gt;iterable</title>
<path fill="none" stroke="black" d="M202.59,-215.7C201.82,-207.98 200.89,-198.71 200.03,-190.11"/>
<polygon fill="black" stroke="black" points="203.51,-189.71 199.03,-180.1 196.54,-190.4 203.51,-189.71"/>
</g>
</g>
</svg>
