<?xml version="1.0" encoding="UTF-8" standalone="no"?>
<!DOCTYPE svg PUBLIC "-//W3C//DTD SVG 1.1//EN"
 "http://www.w3.org/Graphics/SVG/1.1/DTD/svg11.dtd">
<!-- Generated by graphviz version 2.49.3 (0)
 -->
<!-- Title: proc Pages: 1 -->
<svg width="411pt" height="548pt"
 viewBox="0.00 0.00 410.65 548.00" xmlns="http://www.w3.org/2000/svg" xmlns:xlink="http://www.w3.org/1999/xlink">
<g id="graph0" class="graph" transform="scale(1 1) rotate(0) translate(4 544)">
<title>proc</title>
<polygon fill="transparent" stroke="transparent" points="-4,4 -4,-544 406.65,-544 406.65,4 -4,4"/>
<!-- executable -->
<g id="node1" class="node">
<title>executable</title>
<g id="a_node1"><a xlink:href="PsyllaReference_Types.xhtml#PsyllaReference_Types_Details_executable" xlink:title="executable" target="_parent">
<polygon fill="linen" stroke="black" points="61.46,-396 -0.15,-396 -0.15,-360 67.46,-360 67.46,-390 61.46,-396"/>
<polyline fill="none" stroke="black" points="61.46,-396 61.46,-390 "/>
<polyline fill="none" stroke="black" points="67.46,-390 61.46,-390 "/>
<text text-anchor="middle" x="33.65" y="-374.4" font-family="Source Code Pro,monospace" font-size="12.00">executable</text>
</a>
</g>
</g>
<!-- proc -->
<g id="node3" class="node">
<title>proc</title>
<g id="a_node3"><a xlink:href="PsyllaReference_Types.xhtml#PsyllaReference_Types_Details_proc" xlink:title="proc" target="_parent">
<polygon fill="wheat" stroke="black" points="74.65,-36 26.65,-36 26.65,0 80.65,0 80.65,-30 74.65,-36"/>
<polyline fill="none" stroke="black" points="74.65,-36 74.65,-30 "/>
<polyline fill="none" stroke="black" points="80.65,-30 74.65,-30 "/>
<text text-anchor="middle" x="53.65" y="-14.4" font-family="Source Code Pro,monospace" font-size="12.00">proc</text>
</a>
</g>
</g>
<!-- executable&#45;&gt;proc -->
<g id="edge1" class="edge">
<title>executable&#45;&gt;proc</title>
<path fill="none" stroke="black" d="M32.27,-359.96C30.23,-333.32 26.65,-280.17 26.65,-235 26.65,-235 26.65,-235 26.65,-161 26.65,-120.5 37.38,-74.63 45.31,-46.26"/>
<polygon fill="black" stroke="black" points="48.78,-46.87 48.19,-36.29 42.05,-44.93 48.78,-46.87"/>
</g>
<!-- array -->
<g id="node2" class="node">
<title>array</title>
<g id="a_node2"><a xlink:href="PsyllaReference_Types.xhtml#PsyllaReference_Types_Details_array" xlink:title="array" target="_parent">
<polygon fill="linen" stroke="black" points="129.65,-108 81.65,-108 81.65,-72 135.65,-72 135.65,-102 129.65,-108"/>
<polyline fill="none" stroke="black" points="129.65,-108 129.65,-102 "/>
<polyline fill="none" stroke="black" points="135.65,-102 129.65,-102 "/>
<text text-anchor="middle" x="108.65" y="-86.4" font-family="Source Code Pro,monospace" font-size="12.00">array</text>
</a>
</g>
</g>
<!-- array&#45;&gt;proc -->
<g id="edge2" class="edge">
<title>array&#45;&gt;proc</title>
<path fill="none" stroke="black" d="M95.06,-71.7C88.53,-63.39 80.58,-53.28 73.41,-44.14"/>
<polygon fill="black" stroke="black" points="76.02,-41.81 67.09,-36.1 70.52,-46.13 76.02,-41.81"/>
</g>
<!-- object -->
<g id="node4" class="node">
<title>object</title>
<g id="a_node4"><a xlink:href="PsyllaReference_Types.xhtml#PsyllaReference_Types_Details_object" xlink:title="object" target="_parent">
<polygon fill="linen" stroke="black" points="203.65,-540 155.65,-540 155.65,-504 209.65,-504 209.65,-534 203.65,-540"/>
<polyline fill="none" stroke="black" points="203.65,-540 203.65,-534 "/>
<polyline fill="none" stroke="black" points="209.65,-534 203.65,-534 "/>
<text text-anchor="middle" x="182.65" y="-518.4" font-family="Source Code Pro,monospace" font-size="12.00">object</text>
</a>
</g>
</g>
<!-- object&#45;&gt;executable -->
<g id="edge3" class="edge">
<title>object&#45;&gt;executable</title>
<path fill="none" stroke="black" d="M155.61,-508.56C137.08,-499.17 112.69,-485.01 94.65,-468 75.09,-449.56 58.29,-423.82 47.3,-404.77"/>
<polygon fill="black" stroke="black" points="50.34,-403.02 42.39,-396.01 44.23,-406.44 50.34,-403.02"/>
</g>
<!-- appendable -->
<g id="node6" class="node">
<title>appendable</title>
<g id="a_node6"><a xlink:href="PsyllaReference_Types.xhtml#PsyllaReference_Types_Details_appendable" xlink:title="appendable" target="_parent">
<polygon fill="linen" stroke="black" points="118.79,-324 54.51,-324 54.51,-288 124.79,-288 124.79,-318 118.79,-324"/>
<polyline fill="none" stroke="black" points="118.79,-324 118.79,-318 "/>
<polyline fill="none" stroke="black" points="124.79,-318 118.79,-318 "/>
<text text-anchor="middle" x="89.65" y="-302.4" font-family="Source Code Pro,monospace" font-size="12.00">appendable</text>
</a>
</g>
</g>
<!-- object&#45;&gt;appendable -->
<g id="edge9" class="edge">
<title>object&#45;&gt;appendable</title>
<path fill="none" stroke="black" d="M165.23,-503.67C156.23,-493.9 145.69,-481.06 138.65,-468 115.02,-424.13 101.13,-367.26 94.49,-334.18"/>
<polygon fill="black" stroke="black" points="97.92,-333.48 92.58,-324.32 91.04,-334.8 97.92,-333.48"/>
</g>
<!-- indexed -->
<g id="node8" class="node">
<title>indexed</title>
<g id="a_node8"><a xlink:href="PsyllaReference_Types.xhtml#PsyllaReference_Types_Details_indexed" xlink:title="indexed" target="_parent">
<polygon fill="linen" stroke="black" points="156.65,-252 108.65,-252 108.65,-216 162.65,-216 162.65,-246 156.65,-252"/>
<polyline fill="none" stroke="black" points="156.65,-252 156.65,-246 "/>
<polyline fill="none" stroke="black" points="162.65,-246 156.65,-246 "/>
<text text-anchor="middle" x="135.65" y="-230.4" font-family="Source Code Pro,monospace" font-size="12.00">indexed</text>
</a>
</g>
</g>
<!-- object&#45;&gt;indexed -->
<g id="edge13" class="edge">
<title>object&#45;&gt;indexed</title>
<path fill="none" stroke="black" d="M178.86,-503.86C176.63,-493.5 173.83,-480.02 171.65,-468 158.22,-393.74 145.46,-305.59 139.37,-262.07"/>
<polygon fill="black" stroke="black" points="142.82,-261.43 137.97,-252.01 135.89,-262.39 142.82,-261.43"/>
</g>
<!-- sequential -->
<g id="node9" class="node">
<title>sequential</title>
<g id="a_node9"><a xlink:href="PsyllaReference_Types.xhtml#PsyllaReference_Types_Details_sequential" xlink:title="sequential" target="_parent">
<polygon fill="linen" stroke="black" points="238.8,-468 180.5,-468 180.5,-432 244.8,-432 244.8,-462 238.8,-468"/>
<polyline fill="none" stroke="black" points="238.8,-468 238.8,-462 "/>
<polyline fill="none" stroke="black" points="244.8,-462 238.8,-462 "/>
<text text-anchor="middle" x="212.65" y="-446.4" font-family="Source Code Pro,monospace" font-size="12.00">sequential</text>
</a>
</g>
</g>
<!-- object&#45;&gt;sequential -->
<g id="edge14" class="edge">
<title>object&#45;&gt;sequential</title>
<path fill="none" stroke="black" d="M190.07,-503.7C193.45,-495.81 197.52,-486.3 201.27,-477.55"/>
<polygon fill="black" stroke="black" points="204.6,-478.67 205.32,-468.1 198.17,-475.92 204.6,-478.67"/>
</g>
<!-- clearable -->
<g id="node10" class="node">
<title>clearable</title>
<g id="a_node10"><a xlink:href="PsyllaReference_Types.xhtml#PsyllaReference_Types_Details_clearable" xlink:title="clearable" target="_parent">
<polygon fill="linen" stroke="black" points="358.45,-396 304.85,-396 304.85,-360 364.45,-360 364.45,-390 358.45,-396"/>
<polyline fill="none" stroke="black" points="358.45,-396 358.45,-390 "/>
<polyline fill="none" stroke="black" points="364.45,-390 358.45,-390 "/>
<text text-anchor="middle" x="334.65" y="-374.4" font-family="Source Code Pro,monospace" font-size="12.00">clearable</text>
</a>
</g>
</g>
<!-- object&#45;&gt;clearable -->
<g id="edge15" class="edge">
<title>object&#45;&gt;clearable</title>
<path fill="none" stroke="black" d="M207.88,-503.95C221.87,-494.07 239.3,-481.02 253.65,-468 275.76,-447.94 298.41,-422.56 314.13,-404.03"/>
<polygon fill="black" stroke="black" points="316.87,-406.21 320.62,-396.3 311.51,-401.71 316.87,-406.21"/>
</g>
<!-- lengthy -->
<g id="node12" class="node">
<title>lengthy</title>
<g id="a_node12"><a xlink:href="PsyllaReference_Types.xhtml#PsyllaReference_Types_Details_lengthy" xlink:title="lengthy" target="_parent">
<polygon fill="linen" stroke="black" points="396.65,-468 348.65,-468 348.65,-432 402.65,-432 402.65,-462 396.65,-468"/>
<polyline fill="none" stroke="black" points="396.65,-468 396.65,-462 "/>
<polyline fill="none" stroke="black" points="402.65,-462 396.65,-462 "/>
<text text-anchor="middle" x="375.65" y="-446.4" font-family="Source Code Pro,monospace" font-size="12.00">lengthy</text>
</a>
</g>
</g>
<!-- object&#45;&gt;lengthy -->
<g id="edge17" class="edge">
<title>object&#45;&gt;lengthy</title>
<path fill="none" stroke="black" d="M209.89,-511.12C243.66,-498.87 301.34,-477.95 338.97,-464.3"/>
<polygon fill="black" stroke="black" points="340.34,-467.53 348.55,-460.83 337.95,-460.95 340.34,-467.53"/>
</g>
<!-- formalarray -->
<g id="node5" class="node">
<title>formalarray</title>
<g id="a_node5"><a xlink:href="PsyllaReference_Types.xhtml#PsyllaReference_Types_Details_formalarray" xlink:title="formalarray" target="_parent">
<polygon fill="linen" stroke="black" points="165.78,-180 99.52,-180 99.52,-144 171.78,-144 171.78,-174 165.78,-180"/>
<polyline fill="none" stroke="black" points="165.78,-180 165.78,-174 "/>
<polyline fill="none" stroke="black" points="171.78,-174 165.78,-174 "/>
<text text-anchor="middle" x="135.65" y="-158.4" font-family="Source Code Pro,monospace" font-size="12.00">formalarray</text>
</a>
</g>
</g>
<!-- formalarray&#45;&gt;array -->
<g id="edge4" class="edge">
<title>formalarray&#45;&gt;array</title>
<path fill="none" stroke="black" d="M128.98,-143.7C125.94,-135.81 122.27,-126.3 118.89,-117.55"/>
<polygon fill="black" stroke="black" points="122.11,-116.17 115.25,-108.1 115.58,-118.69 122.11,-116.17"/>
</g>
<!-- appendable&#45;&gt;formalarray -->
<g id="edge5" class="edge">
<title>appendable&#45;&gt;formalarray</title>
<path fill="none" stroke="black" d="M89.17,-287.71C89.21,-269.35 90.86,-239.77 99.65,-216 103.2,-206.4 108.85,-196.85 114.64,-188.56"/>
<polygon fill="black" stroke="black" points="117.51,-190.55 120.62,-180.42 111.88,-186.4 117.51,-190.55"/>
</g>
<!-- container -->
<g id="node7" class="node">
<title>container</title>
<g id="a_node7"><a xlink:href="PsyllaReference_Types.xhtml#PsyllaReference_Types_Details_container" xlink:title="container" target="_parent">
<polygon fill="linen" stroke="black" points="314.8,-252 260.51,-252 260.51,-216 320.8,-216 320.8,-246 314.8,-252"/>
<polyline fill="none" stroke="black" points="314.8,-252 314.8,-246 "/>
<polyline fill="none" stroke="black" points="320.8,-246 314.8,-246 "/>
<text text-anchor="middle" x="290.65" y="-230.4" font-family="Source Code Pro,monospace" font-size="12.00">container</text>
</a>
</g>
</g>
<!-- container&#45;&gt;formalarray -->
<g id="edge6" class="edge">
<title>container&#45;&gt;formalarray</title>
<path fill="none" stroke="black" d="M260.4,-219.34C237.8,-209.13 206.54,-195.01 180.96,-183.46"/>
<polygon fill="black" stroke="black" points="182.38,-180.26 171.82,-179.33 179.49,-186.64 182.38,-180.26"/>
</g>
<!-- indexed&#45;&gt;formalarray -->
<g id="edge7" class="edge">
<title>indexed&#45;&gt;formalarray</title>
<path fill="none" stroke="black" d="M135.65,-215.7C135.65,-207.98 135.65,-198.71 135.65,-190.11"/>
<polygon fill="black" stroke="black" points="139.15,-190.1 135.65,-180.1 132.15,-190.1 139.15,-190.1"/>
</g>
<!-- sequential&#45;&gt;formalarray -->
<g id="edge8" class="edge">
<title>sequential&#45;&gt;formalarray</title>
<path fill="none" stroke="black" d="M210.56,-431.67C204.74,-384.66 187.71,-255.58 171.65,-216 167.74,-206.36 161.88,-196.69 156.02,-188.3"/>
<polygon fill="black" stroke="black" points="158.73,-186.07 150,-180.07 153.08,-190.21 158.73,-186.07"/>
</g>
<!-- streamable -->
<g id="node13" class="node">
<title>streamable</title>
<g id="a_node13"><a xlink:href="PsyllaReference_Types.xhtml#PsyllaReference_Types_Details_streamable" xlink:title="streamable" target="_parent">
<polygon fill="linen" stroke="black" points="280.63,-396 218.68,-396 218.68,-360 286.63,-360 286.63,-390 280.63,-396"/>
<polyline fill="none" stroke="black" points="280.63,-396 280.63,-390 "/>
<polyline fill="none" stroke="black" points="286.63,-390 280.63,-390 "/>
<text text-anchor="middle" x="252.65" y="-374.4" font-family="Source Code Pro,monospace" font-size="12.00">streamable</text>
</a>
</g>
</g>
<!-- sequential&#45;&gt;streamable -->
<g id="edge18" class="edge">
<title>sequential&#45;&gt;streamable</title>
<path fill="none" stroke="black" d="M222.54,-431.7C227.14,-423.64 232.71,-413.89 237.8,-404.98"/>
<polygon fill="black" stroke="black" points="240.96,-406.52 242.88,-396.1 234.88,-403.05 240.96,-406.52"/>
</g>
<!-- clearable&#45;&gt;container -->
<g id="edge10" class="edge">
<title>clearable&#45;&gt;container</title>
<path fill="none" stroke="black" d="M329.34,-359.87C321.81,-335.56 307.95,-290.82 299.02,-262.01"/>
<polygon fill="black" stroke="black" points="302.28,-260.71 295.98,-252.19 295.59,-262.78 302.28,-260.71"/>
</g>
<!-- iterable -->
<g id="node11" class="node">
<title>iterable</title>
<g id="a_node11"><a xlink:href="PsyllaReference_Types.xhtml#PsyllaReference_Types_Details_iterable" xlink:title="iterable" target="_parent">
<polygon fill="linen" stroke="black" points="280.65,-324 232.65,-324 232.65,-288 286.65,-288 286.65,-318 280.65,-324"/>
<polyline fill="none" stroke="black" points="280.65,-324 280.65,-318 "/>
<polyline fill="none" stroke="black" points="286.65,-318 280.65,-318 "/>
<text text-anchor="middle" x="259.65" y="-302.4" font-family="Source Code Pro,monospace" font-size="12.00">iterable</text>
</a>
</g>
</g>
<!-- iterable&#45;&gt;container -->
<g id="edge11" class="edge">
<title>iterable&#45;&gt;container</title>
<path fill="none" stroke="black" d="M267.31,-287.7C270.84,-279.73 275.11,-270.1 279.02,-261.26"/>
<polygon fill="black" stroke="black" points="282.23,-262.67 283.08,-252.1 275.83,-259.83 282.23,-262.67"/>
</g>
<!-- lengthy&#45;&gt;container -->
<g id="edge12" class="edge">
<title>lengthy&#45;&gt;container</title>
<path fill="none" stroke="black" d="M378,-431.82C379.88,-413.57 381.11,-384.06 373.65,-360 361.72,-321.49 333.89,-283.86 313.73,-260.12"/>
<polygon fill="black" stroke="black" points="316.16,-257.58 306.96,-252.32 310.88,-262.17 316.16,-257.58"/>
</g>
<!-- streamable&#45;&gt;iterable -->
<g id="edge16" class="edge">
<title>streamable&#45;&gt;iterable</title>
<path fill="none" stroke="black" d="M254.38,-359.7C255.15,-351.98 256.08,-342.71 256.94,-334.11"/>
<polygon fill="black" stroke="black" points="260.43,-334.4 257.94,-324.1 253.46,-333.71 260.43,-334.4"/>
</g>
</g>
</svg>
