<?xml version="1.0" encoding="UTF-8" standalone="no"?>
<!DOCTYPE svg PUBLIC "-//W3C//DTD SVG 1.1//EN"
 "http://www.w3.org/Graphics/SVG/1.1/DTD/svg11.dtd">
<!-- Generated by graphviz version 14.0.0 (0)
 -->
<!-- Title: streamable Pages: 1 -->
<svg width="76pt" height="188pt"
 viewBox="0.00 0.00 76.00 188.00" xmlns="http://www.w3.org/2000/svg" xmlns:xlink="http://www.w3.org/1999/xlink">
<g id="graph0" class="graph" transform="scale(1 1) rotate(0) translate(4 184)">
<title>streamable</title>
<polygon fill="none" stroke="none" points="-4,4 -4,-184 71.97,-184 71.97,4 -4,4"/>
<!-- sequential -->
<g id="node1" class="node">
<title>sequential</title>
<g id="a_node1"><a xlink:href="PsyllaReference_Types.xhtml#PsyllaReference_Types_Details_sequential" xlink:title="sequential" target="_parent">
<polygon fill="linen" stroke="black" points="60.31,-108 1.66,-108 1.66,-72 66.31,-72 66.31,-102 60.31,-108"/>
<polyline fill="none" stroke="black" points="60.31,-108 60.31,-102"/>
<polyline fill="none" stroke="black" points="66.31,-102 60.31,-102"/>
<text xml:space="preserve" text-anchor="middle" x="33.99" y="-86.4" font-family="Source Code Pro,monospace" font-size="12.00">sequential</text>
</a>
</g>
</g>
<!-- streamable -->
<g id="node2" class="node">
<title>streamable</title>
<g id="a_node2"><a xlink:href="PsyllaReference_Types.xhtml#PsyllaReference_Types_Details_streamable" xlink:title="streamable" target="_parent">
<polygon fill="wheat" stroke="black" points="61.97,-36 0,-36 0,0 67.97,0 67.97,-30 61.97,-36"/>
<polyline fill="none" stroke="black" points="61.97,-36 61.97,-30"/>
<polyline fill="none" stroke="black" points="67.97,-30 61.97,-30"/>
<text xml:space="preserve" text-anchor="middle" x="33.99" y="-14.4" font-family="Source Code Pro,monospace" font-size="12.00">streamable</text>
</a>
</g>
</g>
<!-- sequential&#45;&gt;streamable -->
<g id="edge1" class="edge">
<title>sequential&#45;&gt;streamable</title>
<path fill="none" stroke="black" d="M33.99,-71.7C33.99,-64.41 33.99,-55.73 33.99,-47.54"/>
<polygon fill="black" stroke="black" points="37.49,-47.62 33.99,-37.62 30.49,-47.62 37.49,-47.62"/>
</g>
<!-- object -->
<g id="node3" class="node">
<title>object</title>
<g id="a_node3"><a xlink:href="PsyllaReference_Types.xhtml#PsyllaReference_Types_Details_object" xlink:title="object" target="_parent">
<polygon fill="linen" stroke="black" points="54.99,-180 6.99,-180 6.99,-144 60.99,-144 60.99,-174 54.99,-180"/>
<polyline fill="none" stroke="black" points="54.99,-180 54.99,-174"/>
<polyline fill="none" stroke="black" points="60.99,-174 54.99,-174"/>
<text xml:space="preserve" text-anchor="middle" x="33.99" y="-158.4" font-family="Source Code Pro,monospace" font-size="12.00">object</text>
</a>
</g>
</g>
<!-- object&#45;&gt;sequential -->
<g id="edge2" class="edge">
<title>object&#45;&gt;sequential</title>
<path fill="none" stroke="black" d="M33.99,-143.7C33.99,-136.41 33.99,-127.73 33.99,-119.54"/>
<polygon fill="black" stroke="black" points="37.49,-119.62 33.99,-109.62 30.49,-119.62 37.49,-119.62"/>
</g>
</g>
</svg>
