<?xml version="1.0" encoding="UTF-8" standalone="no"?>
<!DOCTYPE svg PUBLIC "-//W3C//DTD SVG 1.1//EN"
 "http://www.w3.org/Graphics/SVG/1.1/DTD/svg11.dtd">
<!-- Generated by graphviz version 2.43.0 (0)
 -->
<!-- Title: textual Pages: 1 -->
<svg width="434pt" height="332pt"
 viewBox="0.00 0.00 434.00 332.00" xmlns="http://www.w3.org/2000/svg" xmlns:xlink="http://www.w3.org/1999/xlink">
<g id="graph0" class="graph" transform="scale(1 1) rotate(0) translate(4 328)">
<title>textual</title>
<polygon fill="transparent" stroke="transparent" points="-4,4 -4,-328 430,-328 430,4 -4,4"/>
<!-- evaluable -->
<g id="node1" class="node">
<title>evaluable</title>
<g id="a_node1"><a xlink:href="PsyllaReference_Types.xhtml#PsyllaReference_Types_Details_evaluable" xlink:title="evaluable" target="_parent">
<polygon fill="linen" stroke="black" points="119,-180 0,-180 0,-144 125,-144 125,-174 119,-180"/>
<polyline fill="none" stroke="black" points="119,-180 119,-174 "/>
<polyline fill="none" stroke="black" points="125,-174 119,-174 "/>
<text text-anchor="middle" x="62.5" y="-157" font-family="PT Mono, monospace" font-size="20.00">evaluable</text>
</a>
</g>
</g>
<!-- textual -->
<g id="node5" class="node">
<title>textual</title>
<g id="a_node5"><a xlink:href="PsyllaReference_Types.xhtml#PsyllaReference_Types_Details_textual" xlink:title="textual" target="_parent">
<polygon fill="wheat" stroke="black" points="234,-36 139,-36 139,0 240,0 240,-30 234,-36"/>
<polyline fill="none" stroke="black" points="234,-36 234,-30 "/>
<polyline fill="none" stroke="black" points="240,-30 234,-30 "/>
<text text-anchor="middle" x="189.5" y="-13" font-family="PT Mono, monospace" font-size="20.00">textual</text>
</a>
</g>
</g>
<!-- evaluable&#45;&gt;textual -->
<g id="edge1" class="edge">
<title>evaluable&#45;&gt;textual</title>
<path fill="none" stroke="black" d="M64.04,-143.76C66.58,-124.36 73.24,-92.83 90.5,-72 101.32,-58.95 116.21,-48.65 131.16,-40.74"/>
<polygon fill="black" stroke="black" points="133.04,-43.71 140.44,-36.12 129.92,-37.44 133.04,-43.71"/>
</g>
<!-- iterable -->
<g id="node2" class="node">
<title>iterable</title>
<g id="a_node2"><a xlink:href="PsyllaReference_Types.xhtml#PsyllaReference_Types_Details_iterable" xlink:title="iterable" target="_parent">
<polygon fill="linen" stroke="black" points="379,-108 272,-108 272,-72 385,-72 385,-102 379,-108"/>
<polyline fill="none" stroke="black" points="379,-108 379,-102 "/>
<polyline fill="none" stroke="black" points="385,-102 379,-102 "/>
<text text-anchor="middle" x="328.5" y="-85" font-family="PT Mono, monospace" font-size="20.00">iterable</text>
</a>
</g>
</g>
<!-- iterable&#45;&gt;textual -->
<g id="edge2" class="edge">
<title>iterable&#45;&gt;textual</title>
<path fill="none" stroke="black" d="M294.5,-71.88C275.9,-62.51 252.67,-50.81 232.79,-40.8"/>
<polygon fill="black" stroke="black" points="234.14,-37.56 223.63,-36.19 230.99,-43.81 234.14,-37.56"/>
</g>
<!-- lengthy -->
<g id="node3" class="node">
<title>lengthy</title>
<g id="a_node3"><a xlink:href="PsyllaReference_Types.xhtml#PsyllaReference_Types_Details_lengthy" xlink:title="lengthy" target="_parent">
<polygon fill="linen" stroke="black" points="195,-108 100,-108 100,-72 201,-72 201,-102 195,-108"/>
<polyline fill="none" stroke="black" points="195,-108 195,-102 "/>
<polyline fill="none" stroke="black" points="201,-102 195,-102 "/>
<text text-anchor="middle" x="150.5" y="-85" font-family="PT Mono, monospace" font-size="20.00">lengthy</text>
</a>
</g>
</g>
<!-- lengthy&#45;&gt;textual -->
<g id="edge3" class="edge">
<title>lengthy&#45;&gt;textual</title>
<path fill="none" stroke="black" d="M160.14,-71.7C164.63,-63.64 170.06,-53.89 175.02,-44.98"/>
<polygon fill="black" stroke="black" points="178.16,-46.54 179.97,-36.1 172.05,-43.14 178.16,-46.54"/>
</g>
<!-- scalar -->
<g id="node4" class="node">
<title>scalar</title>
<g id="a_node4"><a xlink:href="PsyllaReference_Types.xhtml#PsyllaReference_Types_Details_scalar" xlink:title="scalar" target="_parent">
<polygon fill="linen" stroke="black" points="265,-252 182,-252 182,-216 271,-216 271,-246 265,-252"/>
<polyline fill="none" stroke="black" points="265,-252 265,-246 "/>
<polyline fill="none" stroke="black" points="271,-246 265,-246 "/>
<text text-anchor="middle" x="226.5" y="-229" font-family="PT Mono, monospace" font-size="20.00">scalar</text>
</a>
</g>
</g>
<!-- scalar&#45;&gt;textual -->
<g id="edge4" class="edge">
<title>scalar&#45;&gt;textual</title>
<path fill="none" stroke="black" d="M226.12,-215.84C225.15,-186.14 221.7,-123.41 209.5,-72 207.43,-63.29 204.31,-54.08 201.14,-45.82"/>
<polygon fill="black" stroke="black" points="204.3,-44.29 197.32,-36.31 197.8,-46.9 204.3,-44.29"/>
</g>
<!-- object -->
<g id="node6" class="node">
<title>object</title>
<g id="a_node6"><a xlink:href="PsyllaReference_Types.xhtml#PsyllaReference_Types_Details_object" xlink:title="object" target="_parent">
<polygon fill="linen" stroke="black" points="228,-324 145,-324 145,-288 234,-288 234,-318 228,-324"/>
<polyline fill="none" stroke="black" points="228,-324 228,-318 "/>
<polyline fill="none" stroke="black" points="234,-318 228,-318 "/>
<text text-anchor="middle" x="189.5" y="-301" font-family="PT Mono, monospace" font-size="20.00">object</text>
</a>
</g>
</g>
<!-- object&#45;&gt;evaluable -->
<g id="edge5" class="edge">
<title>object&#45;&gt;evaluable</title>
<path fill="none" stroke="black" d="M173.1,-287.99C163.25,-277.68 150.52,-264.2 139.5,-252 120.26,-230.7 98.95,-205.98 83.63,-188"/>
<polygon fill="black" stroke="black" points="86.19,-185.61 77.05,-180.25 80.85,-190.14 86.19,-185.61"/>
</g>
<!-- object&#45;&gt;lengthy -->
<g id="edge7" class="edge">
<title>object&#45;&gt;lengthy</title>
<path fill="none" stroke="black" d="M183.05,-287.55C179.49,-277.31 175.24,-264.06 172.5,-252 161.96,-205.53 155.75,-150.29 152.75,-118.09"/>
<polygon fill="black" stroke="black" points="156.23,-117.74 151.85,-108.1 149.26,-118.37 156.23,-117.74"/>
</g>
<!-- object&#45;&gt;scalar -->
<g id="edge8" class="edge">
<title>object&#45;&gt;scalar</title>
<path fill="none" stroke="black" d="M198.65,-287.7C202.9,-279.64 208.06,-269.89 212.77,-260.98"/>
<polygon fill="black" stroke="black" points="215.88,-262.58 217.46,-252.1 209.69,-259.31 215.88,-262.58"/>
</g>
<!-- sequential -->
<g id="node8" class="node">
<title>sequential</title>
<g id="a_node8"><a xlink:href="PsyllaReference_Types.xhtml#PsyllaReference_Types_Details_sequential" xlink:title="sequential" target="_parent">
<polygon fill="linen" stroke="black" points="420,-252 289,-252 289,-216 426,-216 426,-246 420,-252"/>
<polyline fill="none" stroke="black" points="420,-252 420,-246 "/>
<polyline fill="none" stroke="black" points="426,-246 420,-246 "/>
<text text-anchor="middle" x="357.5" y="-229" font-family="PT Mono, monospace" font-size="20.00">sequential</text>
</a>
</g>
</g>
<!-- object&#45;&gt;sequential -->
<g id="edge10" class="edge">
<title>object&#45;&gt;sequential</title>
<path fill="none" stroke="black" d="M230.6,-287.88C253.67,-278.26 282.64,-266.19 307.07,-256.01"/>
<polygon fill="black" stroke="black" points="308.65,-259.15 316.54,-252.07 305.96,-252.68 308.65,-259.15"/>
</g>
<!-- streamable -->
<g id="node7" class="node">
<title>streamable</title>
<g id="a_node7"><a xlink:href="PsyllaReference_Types.xhtml#PsyllaReference_Types_Details_streamable" xlink:title="streamable" target="_parent">
<polygon fill="linen" stroke="black" points="404,-180 273,-180 273,-144 410,-144 410,-174 404,-180"/>
<polyline fill="none" stroke="black" points="404,-180 404,-174 "/>
<polyline fill="none" stroke="black" points="410,-174 404,-174 "/>
<text text-anchor="middle" x="341.5" y="-157" font-family="PT Mono, monospace" font-size="20.00">streamable</text>
</a>
</g>
</g>
<!-- streamable&#45;&gt;iterable -->
<g id="edge6" class="edge">
<title>streamable&#45;&gt;iterable</title>
<path fill="none" stroke="black" d="M338.29,-143.7C336.85,-135.98 335.13,-126.71 333.54,-118.11"/>
<polygon fill="black" stroke="black" points="336.94,-117.3 331.68,-108.1 330.06,-118.58 336.94,-117.3"/>
</g>
<!-- sequential&#45;&gt;streamable -->
<g id="edge9" class="edge">
<title>sequential&#45;&gt;streamable</title>
<path fill="none" stroke="black" d="M353.54,-215.7C351.78,-207.98 349.66,-198.71 347.7,-190.11"/>
<polygon fill="black" stroke="black" points="351.05,-189.07 345.41,-180.1 344.23,-190.63 351.05,-189.07"/>
</g>
</g>
</svg>
