<?xml version="1.0" encoding="UTF-8" standalone="no"?>
<!DOCTYPE svg PUBLIC "-//W3C//DTD SVG 1.1//EN"
 "http://www.w3.org/Graphics/SVG/1.1/DTD/svg11.dtd">
<!-- Generated by graphviz version 2.43.0 (0)
 -->
<!-- Title: proc Pages: 1 -->
<svg width="652pt" height="548pt"
 viewBox="0.00 0.00 652.00 548.00" xmlns="http://www.w3.org/2000/svg" xmlns:xlink="http://www.w3.org/1999/xlink">
<g id="graph0" class="graph" transform="scale(1 1) rotate(0) translate(4 544)">
<title>proc</title>
<polygon fill="transparent" stroke="transparent" points="-4,4 -4,-544 648,-544 648,4 -4,4"/>
<!-- executable -->
<g id="node1" class="node">
<title>executable</title>
<g id="a_node1"><a xlink:href="PsyllaReference_Types.xhtml#PsyllaReference_Types_Details_executable" xlink:title="executable" target="_parent">
<polygon fill="linen" stroke="black" points="131,-396 0,-396 0,-360 137,-360 137,-390 131,-396"/>
<polyline fill="none" stroke="black" points="131,-396 131,-390 "/>
<polyline fill="none" stroke="black" points="137,-390 131,-390 "/>
<text text-anchor="middle" x="68.5" y="-373" font-family="PT Mono, monospace" font-size="20.00">executable</text>
</a>
</g>
</g>
<!-- proc -->
<g id="node3" class="node">
<title>proc</title>
<g id="a_node3"><a xlink:href="PsyllaReference_Types.xhtml#PsyllaReference_Types_Details_proc" xlink:title="proc" target="_parent">
<polygon fill="wheat" stroke="black" points="113,-36 54,-36 54,0 119,0 119,-30 113,-36"/>
<polyline fill="none" stroke="black" points="113,-36 113,-30 "/>
<polyline fill="none" stroke="black" points="119,-30 113,-30 "/>
<text text-anchor="middle" x="86.5" y="-13" font-family="PT Mono, monospace" font-size="20.00">proc</text>
</a>
</g>
</g>
<!-- executable&#45;&gt;proc -->
<g id="edge1" class="edge">
<title>executable&#45;&gt;proc</title>
<path fill="none" stroke="black" d="M65.46,-359.57C61.08,-332.86 53.5,-280.12 53.5,-235 53.5,-235 53.5,-235 53.5,-161 53.5,-119.97 66.73,-73.97 76.44,-45.74"/>
<polygon fill="black" stroke="black" points="79.78,-46.78 79.82,-36.19 73.18,-44.45 79.78,-46.78"/>
</g>
<!-- array -->
<g id="node2" class="node">
<title>array</title>
<g id="a_node2"><a xlink:href="PsyllaReference_Types.xhtml#PsyllaReference_Types_Details_array" xlink:title="array" target="_parent">
<polygon fill="linen" stroke="black" points="196,-108 125,-108 125,-72 202,-72 202,-102 196,-108"/>
<polyline fill="none" stroke="black" points="196,-108 196,-102 "/>
<polyline fill="none" stroke="black" points="202,-102 196,-102 "/>
<text text-anchor="middle" x="163.5" y="-85" font-family="PT Mono, monospace" font-size="20.00">array</text>
</a>
</g>
</g>
<!-- array&#45;&gt;proc -->
<g id="edge2" class="edge">
<title>array&#45;&gt;proc</title>
<path fill="none" stroke="black" d="M144.47,-71.7C134.96,-63.05 123.29,-52.45 112.93,-43.03"/>
<polygon fill="black" stroke="black" points="115.07,-40.24 105.31,-36.1 110.36,-45.42 115.07,-40.24"/>
</g>
<!-- object -->
<g id="node4" class="node">
<title>object</title>
<g id="a_node4"><a xlink:href="PsyllaReference_Types.xhtml#PsyllaReference_Types_Details_object" xlink:title="object" target="_parent">
<polygon fill="linen" stroke="black" points="334,-540 251,-540 251,-504 340,-504 340,-534 334,-540"/>
<polyline fill="none" stroke="black" points="334,-540 334,-534 "/>
<polyline fill="none" stroke="black" points="340,-534 334,-534 "/>
<text text-anchor="middle" x="295.5" y="-517" font-family="PT Mono, monospace" font-size="20.00">object</text>
</a>
</g>
</g>
<!-- object&#45;&gt;executable -->
<g id="edge3" class="edge">
<title>object&#45;&gt;executable</title>
<path fill="none" stroke="black" d="M252.19,-503.96C230.08,-494.54 203.15,-481.94 180.5,-468 149.23,-448.76 116.72,-422.06 94.84,-402.93"/>
<polygon fill="black" stroke="black" points="97.09,-400.25 87.28,-396.25 92.46,-405.5 97.09,-400.25"/>
</g>
<!-- appendable -->
<g id="node6" class="node">
<title>appendable</title>
<g id="a_node6"><a xlink:href="PsyllaReference_Types.xhtml#PsyllaReference_Types_Details_appendable" xlink:title="appendable" target="_parent">
<polygon fill="linen" stroke="black" points="213,-324 82,-324 82,-288 219,-288 219,-318 213,-324"/>
<polyline fill="none" stroke="black" points="213,-324 213,-318 "/>
<polyline fill="none" stroke="black" points="219,-318 213,-318 "/>
<text text-anchor="middle" x="150.5" y="-301" font-family="PT Mono, monospace" font-size="20.00">appendable</text>
</a>
</g>
</g>
<!-- object&#45;&gt;appendable -->
<g id="edge9" class="edge">
<title>object&#45;&gt;appendable</title>
<path fill="none" stroke="black" d="M271.14,-503.77C258.81,-494.22 244.22,-481.54 233.5,-468 199.89,-425.55 173.94,-367.37 160.56,-333.82"/>
<polygon fill="black" stroke="black" points="163.71,-332.28 156.81,-324.25 157.19,-334.83 163.71,-332.28"/>
</g>
<!-- indexed -->
<g id="node8" class="node">
<title>indexed</title>
<g id="a_node8"><a xlink:href="PsyllaReference_Types.xhtml#PsyllaReference_Types_Details_indexed" xlink:title="indexed" target="_parent">
<polygon fill="linen" stroke="black" points="251,-252 156,-252 156,-216 257,-216 257,-246 251,-252"/>
<polyline fill="none" stroke="black" points="251,-252 251,-246 "/>
<polyline fill="none" stroke="black" points="257,-246 251,-246 "/>
<text text-anchor="middle" x="206.5" y="-229" font-family="PT Mono, monospace" font-size="20.00">indexed</text>
</a>
</g>
</g>
<!-- object&#45;&gt;indexed -->
<g id="edge13" class="edge">
<title>object&#45;&gt;indexed</title>
<path fill="none" stroke="black" d="M284.52,-503.93C278.44,-493.83 271.19,-480.58 266.5,-468 237.89,-391.31 251.32,-366.31 227.5,-288 224.85,-279.29 221.39,-269.99 218.05,-261.66"/>
<polygon fill="black" stroke="black" points="221.28,-260.32 214.23,-252.41 214.81,-262.99 221.28,-260.32"/>
</g>
<!-- sequential -->
<g id="node9" class="node">
<title>sequential</title>
<g id="a_node9"><a xlink:href="PsyllaReference_Types.xhtml#PsyllaReference_Types_Details_sequential" xlink:title="sequential" target="_parent">
<polygon fill="linen" stroke="black" points="407,-468 276,-468 276,-432 413,-432 413,-462 407,-468"/>
<polyline fill="none" stroke="black" points="407,-468 407,-462 "/>
<polyline fill="none" stroke="black" points="413,-462 407,-462 "/>
<text text-anchor="middle" x="344.5" y="-445" font-family="PT Mono, monospace" font-size="20.00">sequential</text>
</a>
</g>
</g>
<!-- object&#45;&gt;sequential -->
<g id="edge14" class="edge">
<title>object&#45;&gt;sequential</title>
<path fill="none" stroke="black" d="M307.61,-503.7C313.37,-495.47 320.36,-485.48 326.71,-476.42"/>
<polygon fill="black" stroke="black" points="329.66,-478.3 332.53,-468.1 323.92,-474.29 329.66,-478.3"/>
</g>
<!-- clearable -->
<g id="node10" class="node">
<title>clearable</title>
<g id="a_node10"><a xlink:href="PsyllaReference_Types.xhtml#PsyllaReference_Types_Details_clearable" xlink:title="clearable" target="_parent">
<polygon fill="linen" stroke="black" points="588,-396 469,-396 469,-360 594,-360 594,-390 588,-396"/>
<polyline fill="none" stroke="black" points="588,-396 588,-390 "/>
<polyline fill="none" stroke="black" points="594,-390 588,-390 "/>
<text text-anchor="middle" x="531.5" y="-373" font-family="PT Mono, monospace" font-size="20.00">clearable</text>
</a>
</g>
</g>
<!-- object&#45;&gt;clearable -->
<g id="edge15" class="edge">
<title>object&#45;&gt;clearable</title>
<path fill="none" stroke="black" d="M340.13,-505.76C364.92,-496.43 395.84,-483.35 421.5,-468 452.72,-449.32 484.62,-422.47 505.98,-403.16"/>
<polygon fill="black" stroke="black" points="508.61,-405.49 513.62,-396.15 503.89,-400.33 508.61,-405.49"/>
</g>
<!-- lengthy -->
<g id="node12" class="node">
<title>lengthy</title>
<g id="a_node12"><a xlink:href="PsyllaReference_Types.xhtml#PsyllaReference_Types_Details_lengthy" xlink:title="lengthy" target="_parent">
<polygon fill="linen" stroke="black" points="638,-468 543,-468 543,-432 644,-432 644,-462 638,-468"/>
<polyline fill="none" stroke="black" points="638,-468 638,-462 "/>
<polyline fill="none" stroke="black" points="644,-462 638,-462 "/>
<text text-anchor="middle" x="593.5" y="-445" font-family="PT Mono, monospace" font-size="20.00">lengthy</text>
</a>
</g>
</g>
<!-- object&#45;&gt;lengthy -->
<g id="edge17" class="edge">
<title>object&#45;&gt;lengthy</title>
<path fill="none" stroke="black" d="M340.11,-510.52C391.35,-498.49 475.68,-478.68 532.85,-465.25"/>
<polygon fill="black" stroke="black" points="533.9,-468.59 542.84,-462.9 532.3,-461.78 533.9,-468.59"/>
</g>
<!-- formalarray -->
<g id="node5" class="node">
<title>formalarray</title>
<g id="a_node5"><a xlink:href="PsyllaReference_Types.xhtml#PsyllaReference_Types_Details_formalarray" xlink:title="formalarray" target="_parent">
<polygon fill="linen" stroke="black" points="275,-180 132,-180 132,-144 281,-144 281,-174 275,-180"/>
<polyline fill="none" stroke="black" points="275,-180 275,-174 "/>
<polyline fill="none" stroke="black" points="281,-174 275,-174 "/>
<text text-anchor="middle" x="206.5" y="-157" font-family="PT Mono, monospace" font-size="20.00">formalarray</text>
</a>
</g>
</g>
<!-- formalarray&#45;&gt;array -->
<g id="edge4" class="edge">
<title>formalarray&#45;&gt;array</title>
<path fill="none" stroke="black" d="M195.87,-143.7C190.87,-135.56 184.81,-125.69 179.29,-116.7"/>
<polygon fill="black" stroke="black" points="182.22,-114.79 174.01,-108.1 176.26,-118.46 182.22,-114.79"/>
</g>
<!-- appendable&#45;&gt;formalarray -->
<g id="edge5" class="edge">
<title>appendable&#45;&gt;formalarray</title>
<path fill="none" stroke="black" d="M145.28,-287.74C140.65,-269.15 136.07,-239.12 146.5,-216 151.68,-204.52 160.71,-194.52 170.22,-186.4"/>
<polygon fill="black" stroke="black" points="172.59,-188.99 178.24,-180.03 168.23,-183.51 172.59,-188.99"/>
</g>
<!-- container -->
<g id="node7" class="node">
<title>container</title>
<g id="a_node7"><a xlink:href="PsyllaReference_Types.xhtml#PsyllaReference_Types_Details_container" xlink:title="container" target="_parent">
<polygon fill="linen" stroke="black" points="505,-252 386,-252 386,-216 511,-216 511,-246 505,-252"/>
<polyline fill="none" stroke="black" points="505,-252 505,-246 "/>
<polyline fill="none" stroke="black" points="511,-246 505,-246 "/>
<text text-anchor="middle" x="448.5" y="-229" font-family="PT Mono, monospace" font-size="20.00">container</text>
</a>
</g>
</g>
<!-- container&#45;&gt;formalarray -->
<g id="edge6" class="edge">
<title>container&#45;&gt;formalarray</title>
<path fill="none" stroke="black" d="M389.61,-215.97C355.21,-206.01 311.62,-193.41 275.6,-182.99"/>
<polygon fill="black" stroke="black" points="276.23,-179.53 265.65,-180.11 274.29,-186.25 276.23,-179.53"/>
</g>
<!-- indexed&#45;&gt;formalarray -->
<g id="edge7" class="edge">
<title>indexed&#45;&gt;formalarray</title>
<path fill="none" stroke="black" d="M206.5,-215.7C206.5,-207.98 206.5,-198.71 206.5,-190.11"/>
<polygon fill="black" stroke="black" points="210,-190.1 206.5,-180.1 203,-190.1 210,-190.1"/>
</g>
<!-- sequential&#45;&gt;formalarray -->
<g id="edge8" class="edge">
<title>sequential&#45;&gt;formalarray</title>
<path fill="none" stroke="black" d="M328.32,-431.62C320.03,-421.83 310.46,-408.99 304.5,-396 270.38,-321.59 306.61,-286.79 265.5,-216 259.07,-204.93 249.53,-194.91 239.99,-186.64"/>
<polygon fill="black" stroke="black" points="241.99,-183.75 232.04,-180.12 237.55,-189.17 241.99,-183.75"/>
</g>
<!-- streamable -->
<g id="node13" class="node">
<title>streamable</title>
<g id="a_node13"><a xlink:href="PsyllaReference_Types.xhtml#PsyllaReference_Types_Details_streamable" xlink:title="streamable" target="_parent">
<polygon fill="linen" stroke="black" points="445,-396 314,-396 314,-360 451,-360 451,-390 445,-396"/>
<polyline fill="none" stroke="black" points="445,-396 445,-390 "/>
<polyline fill="none" stroke="black" points="451,-390 445,-390 "/>
<text text-anchor="middle" x="382.5" y="-373" font-family="PT Mono, monospace" font-size="20.00">streamable</text>
</a>
</g>
</g>
<!-- sequential&#45;&gt;streamable -->
<g id="edge18" class="edge">
<title>sequential&#45;&gt;streamable</title>
<path fill="none" stroke="black" d="M353.89,-431.7C358.26,-423.64 363.56,-413.89 368.4,-404.98"/>
<polygon fill="black" stroke="black" points="371.52,-406.56 373.21,-396.1 365.37,-403.22 371.52,-406.56"/>
</g>
<!-- clearable&#45;&gt;container -->
<g id="edge10" class="edge">
<title>clearable&#45;&gt;container</title>
<path fill="none" stroke="black" d="M521.49,-359.87C507.09,-335.24 480.44,-289.64 463.63,-260.88"/>
<polygon fill="black" stroke="black" points="466.62,-259.06 458.55,-252.19 460.57,-262.59 466.62,-259.06"/>
</g>
<!-- iterable -->
<g id="node11" class="node">
<title>iterable</title>
<g id="a_node11"><a xlink:href="PsyllaReference_Types.xhtml#PsyllaReference_Types_Details_iterable" xlink:title="iterable" target="_parent">
<polygon fill="linen" stroke="black" points="449,-324 342,-324 342,-288 455,-288 455,-318 449,-324"/>
<polyline fill="none" stroke="black" points="449,-324 449,-318 "/>
<polyline fill="none" stroke="black" points="455,-318 449,-318 "/>
<text text-anchor="middle" x="398.5" y="-301" font-family="PT Mono, monospace" font-size="20.00">iterable</text>
</a>
</g>
</g>
<!-- iterable&#45;&gt;container -->
<g id="edge11" class="edge">
<title>iterable&#45;&gt;container</title>
<path fill="none" stroke="black" d="M410.86,-287.7C416.73,-279.47 423.87,-269.48 430.34,-260.42"/>
<polygon fill="black" stroke="black" points="433.32,-262.28 436.28,-252.1 427.62,-258.21 433.32,-262.28"/>
</g>
<!-- lengthy&#45;&gt;container -->
<g id="edge12" class="edge">
<title>lengthy&#45;&gt;container</title>
<path fill="none" stroke="black" d="M600.39,-431.69C606.68,-413.05 613.45,-382.99 602.5,-360 580.11,-313 530.46,-277.91 493.55,-257.07"/>
<polygon fill="black" stroke="black" points="494.91,-253.82 484.46,-252.07 491.54,-259.96 494.91,-253.82"/>
</g>
<!-- streamable&#45;&gt;iterable -->
<g id="edge16" class="edge">
<title>streamable&#45;&gt;iterable</title>
<path fill="none" stroke="black" d="M386.46,-359.7C388.22,-351.98 390.34,-342.71 392.3,-334.11"/>
<polygon fill="black" stroke="black" points="395.77,-334.63 394.59,-324.1 388.95,-333.07 395.77,-334.63"/>
</g>
</g>
</svg>
