<?xml version="1.0" encoding="UTF-8" standalone="no"?>
<!DOCTYPE svg PUBLIC "-//W3C//DTD SVG 1.1//EN"
 "http://www.w3.org/Graphics/SVG/1.1/DTD/svg11.dtd">
<!-- Generated by graphviz version 2.43.0 (0)
 -->
<!-- Title: formalset Pages: 1 -->
<svg width="336pt" height="404pt"
 viewBox="0.00 0.00 336.00 404.00" xmlns="http://www.w3.org/2000/svg" xmlns:xlink="http://www.w3.org/1999/xlink">
<g id="graph0" class="graph" transform="scale(1 1) rotate(0) translate(4 400)">
<title>formalset</title>
<polygon fill="transparent" stroke="transparent" points="-4,4 -4,-400 332,-400 332,4 -4,4"/>
<!-- appendable -->
<g id="node1" class="node">
<title>appendable</title>
<g id="a_node1"><a xlink:href="PsyllaReference_Types.xhtml#PsyllaReference_Types_Details_appendable" xlink:title="appendable" target="_parent">
<polygon fill="linen" stroke="black" points="86,-252 0,-252 0,-216 92,-216 92,-246 86,-252"/>
<polyline fill="none" stroke="black" points="86,-252 86,-246 "/>
<polyline fill="none" stroke="black" points="92,-246 86,-246 "/>
<text text-anchor="middle" x="46" y="-230.9" font-family="Consolas, monospace" font-size="12.00">appendable</text>
</a>
</g>
</g>
<!-- formalset -->
<g id="node3" class="node">
<title>formalset</title>
<g id="a_node3"><a xlink:href="PsyllaReference_Types.xhtml#PsyllaReference_Types_Details_formalset" xlink:title="formalset" target="_parent">
<polygon fill="wheat" stroke="black" points="118,-36 40,-36 40,0 124,0 124,-30 118,-36"/>
<polyline fill="none" stroke="black" points="118,-36 118,-30 "/>
<polyline fill="none" stroke="black" points="124,-30 118,-30 "/>
<text text-anchor="middle" x="82" y="-14.9" font-family="Consolas, monospace" font-size="12.00">formalset</text>
</a>
</g>
</g>
<!-- appendable&#45;&gt;formalset -->
<g id="edge1" class="edge">
<title>appendable&#45;&gt;formalset</title>
<path fill="none" stroke="black" d="M48.89,-215.85C55.13,-178.75 69.92,-90.81 77.44,-46.1"/>
<polygon fill="black" stroke="black" points="80.89,-46.67 79.1,-36.23 73.99,-45.51 80.89,-46.67"/>
</g>
<!-- container -->
<g id="node2" class="node">
<title>container</title>
<g id="a_node2"><a xlink:href="PsyllaReference_Types.xhtml#PsyllaReference_Types_Details_container" xlink:title="container" target="_parent">
<polygon fill="linen" stroke="black" points="188,-108 110,-108 110,-72 194,-72 194,-102 188,-108"/>
<polyline fill="none" stroke="black" points="188,-108 188,-102 "/>
<polyline fill="none" stroke="black" points="194,-102 188,-102 "/>
<text text-anchor="middle" x="152" y="-86.9" font-family="Consolas, monospace" font-size="12.00">container</text>
</a>
</g>
</g>
<!-- container&#45;&gt;formalset -->
<g id="edge2" class="edge">
<title>container&#45;&gt;formalset</title>
<path fill="none" stroke="black" d="M134.7,-71.7C126.14,-63.14 115.66,-52.66 106.3,-43.3"/>
<polygon fill="black" stroke="black" points="108.65,-40.7 99.1,-36.1 103.7,-45.65 108.65,-40.7"/>
</g>
<!-- object -->
<g id="node4" class="node">
<title>object</title>
<g id="a_node4"><a xlink:href="PsyllaReference_Types.xhtml#PsyllaReference_Types_Details_object" xlink:title="object" target="_parent">
<polygon fill="linen" stroke="black" points="176,-396 120,-396 120,-360 182,-360 182,-390 176,-396"/>
<polyline fill="none" stroke="black" points="176,-396 176,-390 "/>
<polyline fill="none" stroke="black" points="182,-390 176,-390 "/>
<text text-anchor="middle" x="151" y="-374.9" font-family="Consolas, monospace" font-size="12.00">object</text>
</a>
</g>
</g>
<!-- object&#45;&gt;appendable -->
<g id="edge3" class="edge">
<title>object&#45;&gt;appendable</title>
<path fill="none" stroke="black" d="M135.5,-359.73C126.58,-349.56 115.33,-336.31 106,-324 90.38,-303.39 74.06,-278.96 62.39,-260.92"/>
<polygon fill="black" stroke="black" points="65.09,-258.64 56.74,-252.12 59.2,-262.42 65.09,-258.64"/>
</g>
<!-- clearable -->
<g id="node5" class="node">
<title>clearable</title>
<g id="a_node5"><a xlink:href="PsyllaReference_Types.xhtml#PsyllaReference_Types_Details_clearable" xlink:title="clearable" target="_parent">
<polygon fill="linen" stroke="black" points="154,-180 76,-180 76,-144 160,-144 160,-174 154,-180"/>
<polyline fill="none" stroke="black" points="154,-180 154,-174 "/>
<polyline fill="none" stroke="black" points="160,-174 154,-174 "/>
<text text-anchor="middle" x="118" y="-158.9" font-family="Consolas, monospace" font-size="12.00">clearable</text>
</a>
</g>
</g>
<!-- object&#45;&gt;clearable -->
<g id="edge7" class="edge">
<title>object&#45;&gt;clearable</title>
<path fill="none" stroke="black" d="M146.7,-359.9C144.21,-349.55 141.15,-336.07 139,-324 130.66,-277.13 124.18,-222.02 120.74,-189.95"/>
<polygon fill="black" stroke="black" points="124.22,-189.58 119.69,-180 117.26,-190.31 124.22,-189.58"/>
</g>
<!-- lengthy -->
<g id="node7" class="node">
<title>lengthy</title>
<g id="a_node7"><a xlink:href="PsyllaReference_Types.xhtml#PsyllaReference_Types_Details_lengthy" xlink:title="lengthy" target="_parent">
<polygon fill="linen" stroke="black" points="211.5,-324 148.5,-324 148.5,-288 217.5,-288 217.5,-318 211.5,-324"/>
<polyline fill="none" stroke="black" points="211.5,-324 211.5,-318 "/>
<polyline fill="none" stroke="black" points="217.5,-318 211.5,-318 "/>
<text text-anchor="middle" x="183" y="-302.9" font-family="Consolas, monospace" font-size="12.00">lengthy</text>
</a>
</g>
</g>
<!-- object&#45;&gt;lengthy -->
<g id="edge9" class="edge">
<title>object&#45;&gt;lengthy</title>
<path fill="none" stroke="black" d="M158.91,-359.7C162.55,-351.73 166.95,-342.1 170.99,-333.26"/>
<polygon fill="black" stroke="black" points="174.21,-334.65 175.18,-324.1 167.84,-331.74 174.21,-334.65"/>
</g>
<!-- sequential -->
<g id="node9" class="node">
<title>sequential</title>
<g id="a_node9"><a xlink:href="PsyllaReference_Types.xhtml#PsyllaReference_Types_Details_sequential" xlink:title="sequential" target="_parent">
<polygon fill="linen" stroke="black" points="322,-324 236,-324 236,-288 328,-288 328,-318 322,-324"/>
<polyline fill="none" stroke="black" points="322,-324 322,-318 "/>
<polyline fill="none" stroke="black" points="328,-318 322,-318 "/>
<text text-anchor="middle" x="282" y="-302.9" font-family="Consolas, monospace" font-size="12.00">sequential</text>
</a>
</g>
</g>
<!-- object&#45;&gt;sequential -->
<g id="edge11" class="edge">
<title>object&#45;&gt;sequential</title>
<path fill="none" stroke="black" d="M182.05,-360.41C199.6,-351.03 221.77,-339.18 240.77,-329.03"/>
<polygon fill="black" stroke="black" points="242.64,-332 249.81,-324.2 239.34,-325.83 242.64,-332"/>
</g>
<!-- clearable&#45;&gt;container -->
<g id="edge4" class="edge">
<title>clearable&#45;&gt;container</title>
<path fill="none" stroke="black" d="M126.4,-143.7C130.27,-135.73 134.95,-126.1 139.24,-117.26"/>
<polygon fill="black" stroke="black" points="142.47,-118.63 143.69,-108.1 136.17,-115.57 142.47,-118.63"/>
</g>
<!-- iterable -->
<g id="node6" class="node">
<title>iterable</title>
<g id="a_node6"><a xlink:href="PsyllaReference_Types.xhtml#PsyllaReference_Types_Details_iterable" xlink:title="iterable" target="_parent">
<polygon fill="linen" stroke="black" points="296.5,-180 225.5,-180 225.5,-144 302.5,-144 302.5,-174 296.5,-180"/>
<polyline fill="none" stroke="black" points="296.5,-180 296.5,-174 "/>
<polyline fill="none" stroke="black" points="302.5,-174 296.5,-174 "/>
<text text-anchor="middle" x="264" y="-158.9" font-family="Consolas, monospace" font-size="12.00">iterable</text>
</a>
</g>
</g>
<!-- iterable&#45;&gt;container -->
<g id="edge5" class="edge">
<title>iterable&#45;&gt;container</title>
<path fill="none" stroke="black" d="M236.6,-143.88C222.09,-134.81 204.08,-123.55 188.41,-113.76"/>
<polygon fill="black" stroke="black" points="189.84,-110.52 179.5,-108.19 186.13,-116.46 189.84,-110.52"/>
</g>
<!-- lengthy&#45;&gt;container -->
<g id="edge6" class="edge">
<title>lengthy&#45;&gt;container</title>
<path fill="none" stroke="black" d="M182.76,-287.9C182.08,-258.3 179.4,-195.71 169,-144 167.27,-135.38 164.62,-126.19 161.92,-117.93"/>
<polygon fill="black" stroke="black" points="165.21,-116.74 158.67,-108.41 158.59,-119 165.21,-116.74"/>
</g>
<!-- streamable -->
<g id="node8" class="node">
<title>streamable</title>
<g id="a_node8"><a xlink:href="PsyllaReference_Types.xhtml#PsyllaReference_Types_Details_streamable" xlink:title="streamable" target="_parent">
<polygon fill="linen" stroke="black" points="312,-252 226,-252 226,-216 318,-216 318,-246 312,-252"/>
<polyline fill="none" stroke="black" points="312,-252 312,-246 "/>
<polyline fill="none" stroke="black" points="318,-246 312,-246 "/>
<text text-anchor="middle" x="272" y="-230.9" font-family="Consolas, monospace" font-size="12.00">streamable</text>
</a>
</g>
</g>
<!-- streamable&#45;&gt;iterable -->
<g id="edge8" class="edge">
<title>streamable&#45;&gt;iterable</title>
<path fill="none" stroke="black" d="M270.02,-215.7C269.14,-207.98 268.08,-198.71 267.1,-190.11"/>
<polygon fill="black" stroke="black" points="270.57,-189.64 265.95,-180.1 263.61,-190.44 270.57,-189.64"/>
</g>
<!-- sequential&#45;&gt;streamable -->
<g id="edge10" class="edge">
<title>sequential&#45;&gt;streamable</title>
<path fill="none" stroke="black" d="M279.53,-287.7C278.43,-279.98 277.1,-270.71 275.87,-262.11"/>
<polygon fill="black" stroke="black" points="279.32,-261.51 274.44,-252.1 272.39,-262.5 279.32,-261.51"/>
</g>
</g>
</svg>
