<?xml version="1.0" encoding="UTF-8" standalone="no"?>
<!DOCTYPE svg PUBLIC "-//W3C//DTD SVG 1.1//EN"
 "http://www.w3.org/Graphics/SVG/1.1/DTD/svg11.dtd">
<!-- Generated by graphviz version 14.0.0 (0)
 -->
<!-- Title: operator Pages: 1 -->
<svg width="148pt" height="188pt"
 viewBox="0.00 0.00 148.00 188.00" xmlns="http://www.w3.org/2000/svg" xmlns:xlink="http://www.w3.org/1999/xlink">
<g id="graph0" class="graph" transform="scale(1 1) rotate(0) translate(4 184)">
<title>operator</title>
<polygon fill="none" stroke="none" points="-4,4 -4,-184 143.65,-184 143.65,4 -4,4"/>
<!-- executable -->
<g id="node1" class="node">
<title>executable</title>
<g id="a_node1"><a xlink:href="PsyllaReference_Types.xhtml#PsyllaReference_Types_Details_executable" xlink:title="executable" target="_parent">
<polygon fill="linen" stroke="black" points="61.3,-108 0,-108 0,-72 67.3,-72 67.3,-102 61.3,-108"/>
<polyline fill="none" stroke="black" points="61.3,-108 61.3,-102"/>
<polyline fill="none" stroke="black" points="67.3,-102 61.3,-102"/>
<text xml:space="preserve" text-anchor="middle" x="33.65" y="-86.4" font-family="Source Code Pro,monospace" font-size="12.00">executable</text>
</a>
</g>
</g>
<!-- operator -->
<g id="node3" class="node">
<title>operator</title>
<g id="a_node3"><a xlink:href="PsyllaReference_Types.xhtml#PsyllaReference_Types_Details_operator" xlink:title="operator" target="_parent">
<polygon fill="wheat" stroke="black" points="94.64,-36 44.66,-36 44.66,0 100.64,0 100.64,-30 94.64,-36"/>
<polyline fill="none" stroke="black" points="94.64,-36 94.64,-30"/>
<polyline fill="none" stroke="black" points="100.64,-30 94.64,-30"/>
<text xml:space="preserve" text-anchor="middle" x="72.65" y="-14.4" font-family="Source Code Pro,monospace" font-size="12.00">operator</text>
</a>
</g>
</g>
<!-- executable&#45;&gt;operator -->
<g id="edge1" class="edge">
<title>executable&#45;&gt;operator</title>
<path fill="none" stroke="black" d="M43.29,-71.7C47.59,-63.98 52.75,-54.71 57.54,-46.11"/>
<polygon fill="black" stroke="black" points="60.57,-47.87 62.38,-37.43 54.46,-44.46 60.57,-47.87"/>
</g>
<!-- value -->
<g id="node2" class="node">
<title>value</title>
<g id="a_node2"><a xlink:href="PsyllaReference_Types.xhtml#PsyllaReference_Types_Details_value" xlink:title="value" target="_parent">
<polygon fill="linen" stroke="black" points="133.65,-108 85.65,-108 85.65,-72 139.65,-72 139.65,-102 133.65,-108"/>
<polyline fill="none" stroke="black" points="133.65,-108 133.65,-102"/>
<polyline fill="none" stroke="black" points="139.65,-102 133.65,-102"/>
<text xml:space="preserve" text-anchor="middle" x="112.65" y="-86.4" font-family="Source Code Pro,monospace" font-size="12.00">value</text>
</a>
</g>
</g>
<!-- value&#45;&gt;operator -->
<g id="edge2" class="edge">
<title>value&#45;&gt;operator</title>
<path fill="none" stroke="black" d="M102.76,-71.7C98.31,-63.9 92.94,-54.51 87.98,-45.83"/>
<polygon fill="black" stroke="black" points="91.17,-44.36 83.17,-37.42 85.1,-47.84 91.17,-44.36"/>
</g>
<!-- object -->
<g id="node4" class="node">
<title>object</title>
<g id="a_node4"><a xlink:href="PsyllaReference_Types.xhtml#PsyllaReference_Types_Details_object" xlink:title="object" target="_parent">
<polygon fill="linen" stroke="black" points="93.65,-180 45.65,-180 45.65,-144 99.65,-144 99.65,-174 93.65,-180"/>
<polyline fill="none" stroke="black" points="93.65,-180 93.65,-174"/>
<polyline fill="none" stroke="black" points="99.65,-174 93.65,-174"/>
<text xml:space="preserve" text-anchor="middle" x="72.65" y="-158.4" font-family="Source Code Pro,monospace" font-size="12.00">object</text>
</a>
</g>
</g>
<!-- object&#45;&gt;executable -->
<g id="edge3" class="edge">
<title>object&#45;&gt;executable</title>
<path fill="none" stroke="black" d="M63.01,-143.7C58.71,-135.98 53.55,-126.71 48.75,-118.11"/>
<polygon fill="black" stroke="black" points="51.84,-116.46 43.92,-109.43 45.73,-119.87 51.84,-116.46"/>
</g>
<!-- object&#45;&gt;value -->
<g id="edge4" class="edge">
<title>object&#45;&gt;value</title>
<path fill="none" stroke="black" d="M82.54,-143.7C86.99,-135.9 92.36,-126.51 97.32,-117.83"/>
<polygon fill="black" stroke="black" points="100.2,-119.84 102.12,-109.42 94.12,-116.36 100.2,-119.84"/>
</g>
</g>
</svg>
