<?xml version="1.0" encoding="UTF-8" standalone="no"?>
<!DOCTYPE svg PUBLIC "-//W3C//DTD SVG 1.1//EN"
 "http://www.w3.org/Graphics/SVG/1.1/DTD/svg11.dtd">
<!-- Generated by graphviz version 2.43.0 (0)
 -->
<!-- Title: set Pages: 1 -->
<svg width="296pt" height="476pt"
 viewBox="0.00 0.00 296.00 476.00" xmlns="http://www.w3.org/2000/svg" xmlns:xlink="http://www.w3.org/1999/xlink">
<g id="graph0" class="graph" transform="scale(1 1) rotate(0) translate(4 472)">
<title>set</title>
<polygon fill="transparent" stroke="transparent" points="-4,4 -4,-472 292,-472 292,4 -4,4"/>
<!-- formalset -->
<g id="node1" class="node">
<title>formalset</title>
<g id="a_node1"><a xlink:href="PsyllaReference_Types.xhtml#PsyllaReference_Types_Details_formalset" xlink:title="formalset" target="_parent">
<polygon fill="linen" stroke="black" points="102,-108 37,-108 37,-72 108,-72 108,-102 102,-108"/>
<polyline fill="none" stroke="black" points="102,-108 102,-102 "/>
<polyline fill="none" stroke="black" points="108,-102 102,-102 "/>
<text text-anchor="middle" x="72.5" y="-87.5" font-family="PT Mono, monospace" font-size="10.00">formalset</text>
</a>
</g>
</g>
<!-- set -->
<g id="node2" class="node">
<title>set</title>
<g id="a_node2"><a xlink:href="PsyllaReference_Types.xhtml#PsyllaReference_Types_Details_set" xlink:title="set" target="_parent">
<polygon fill="wheat" stroke="black" points="93.5,-36 45.5,-36 45.5,0 99.5,0 99.5,-30 93.5,-36"/>
<polyline fill="none" stroke="black" points="93.5,-36 93.5,-30 "/>
<polyline fill="none" stroke="black" points="99.5,-30 93.5,-30 "/>
<text text-anchor="middle" x="72.5" y="-15.5" font-family="PT Mono, monospace" font-size="10.00">set</text>
</a>
</g>
</g>
<!-- formalset&#45;&gt;set -->
<g id="edge1" class="edge">
<title>formalset&#45;&gt;set</title>
<path fill="none" stroke="black" d="M72.5,-71.7C72.5,-63.98 72.5,-54.71 72.5,-46.11"/>
<polygon fill="black" stroke="black" points="76,-46.1 72.5,-36.1 69,-46.1 76,-46.1"/>
</g>
<!-- appendable -->
<g id="node3" class="node">
<title>appendable</title>
<g id="a_node3"><a xlink:href="PsyllaReference_Types.xhtml#PsyllaReference_Types_Details_appendable" xlink:title="appendable" target="_parent">
<polygon fill="linen" stroke="black" points="71,-324 0,-324 0,-288 77,-288 77,-318 71,-324"/>
<polyline fill="none" stroke="black" points="71,-324 71,-318 "/>
<polyline fill="none" stroke="black" points="77,-318 71,-318 "/>
<text text-anchor="middle" x="38.5" y="-303.5" font-family="PT Mono, monospace" font-size="10.00">appendable</text>
</a>
</g>
</g>
<!-- appendable&#45;&gt;formalset -->
<g id="edge2" class="edge">
<title>appendable&#45;&gt;formalset</title>
<path fill="none" stroke="black" d="M41.22,-287.85C47.11,-250.83 61.03,-163.18 68.15,-118.39"/>
<polygon fill="black" stroke="black" points="71.65,-118.66 69.76,-108.23 64.74,-117.56 71.65,-118.66"/>
</g>
<!-- container -->
<g id="node4" class="node">
<title>container</title>
<g id="a_node4"><a xlink:href="PsyllaReference_Types.xhtml#PsyllaReference_Types_Details_container" xlink:title="container" target="_parent">
<polygon fill="linen" stroke="black" points="166,-180 101,-180 101,-144 172,-144 172,-174 166,-180"/>
<polyline fill="none" stroke="black" points="166,-180 166,-174 "/>
<polyline fill="none" stroke="black" points="172,-174 166,-174 "/>
<text text-anchor="middle" x="136.5" y="-159.5" font-family="PT Mono, monospace" font-size="10.00">container</text>
</a>
</g>
</g>
<!-- container&#45;&gt;formalset -->
<g id="edge3" class="edge">
<title>container&#45;&gt;formalset</title>
<path fill="none" stroke="black" d="M120.68,-143.7C112.93,-135.22 103.46,-124.86 94.98,-115.58"/>
<polygon fill="black" stroke="black" points="97.47,-113.12 88.14,-108.1 92.3,-117.85 97.47,-113.12"/>
</g>
<!-- object -->
<g id="node5" class="node">
<title>object</title>
<g id="a_node5"><a xlink:href="PsyllaReference_Types.xhtml#PsyllaReference_Types_Details_object" xlink:title="object" target="_parent">
<polygon fill="linen" stroke="black" points="155.5,-468 107.5,-468 107.5,-432 161.5,-432 161.5,-462 155.5,-468"/>
<polyline fill="none" stroke="black" points="155.5,-468 155.5,-462 "/>
<polyline fill="none" stroke="black" points="161.5,-462 155.5,-462 "/>
<text text-anchor="middle" x="134.5" y="-447.5" font-family="PT Mono, monospace" font-size="10.00">object</text>
</a>
</g>
</g>
<!-- object&#45;&gt;appendable -->
<g id="edge4" class="edge">
<title>object&#45;&gt;appendable</title>
<path fill="none" stroke="black" d="M119.51,-431.83C110.93,-421.69 100.18,-408.44 91.5,-396 77.21,-375.53 62.84,-351.09 52.67,-333.01"/>
<polygon fill="black" stroke="black" points="55.68,-331.22 47.76,-324.19 49.56,-334.63 55.68,-331.22"/>
</g>
<!-- clearable -->
<g id="node6" class="node">
<title>clearable</title>
<g id="a_node6"><a xlink:href="PsyllaReference_Types.xhtml#PsyllaReference_Types_Details_clearable" xlink:title="clearable" target="_parent">
<polygon fill="linen" stroke="black" points="134,-252 69,-252 69,-216 140,-216 140,-246 134,-252"/>
<polyline fill="none" stroke="black" points="134,-252 134,-246 "/>
<polyline fill="none" stroke="black" points="140,-246 134,-246 "/>
<text text-anchor="middle" x="104.5" y="-231.5" font-family="PT Mono, monospace" font-size="10.00">clearable</text>
</a>
</g>
</g>
<!-- object&#45;&gt;clearable -->
<g id="edge8" class="edge">
<title>object&#45;&gt;clearable</title>
<path fill="none" stroke="black" d="M130.98,-431.86C128.93,-421.51 126.38,-408.03 124.5,-396 117.19,-349.25 110.86,-294.52 107.37,-262.42"/>
<polygon fill="black" stroke="black" points="110.85,-262.01 106.3,-252.44 103.89,-262.76 110.85,-262.01"/>
</g>
<!-- lengthy -->
<g id="node8" class="node">
<title>lengthy</title>
<g id="a_node8"><a xlink:href="PsyllaReference_Types.xhtml#PsyllaReference_Types_Details_lengthy" xlink:title="lengthy" target="_parent">
<polygon fill="linen" stroke="black" points="187,-396 134,-396 134,-360 193,-360 193,-390 187,-396"/>
<polyline fill="none" stroke="black" points="187,-396 187,-390 "/>
<polyline fill="none" stroke="black" points="193,-390 187,-390 "/>
<text text-anchor="middle" x="163.5" y="-375.5" font-family="PT Mono, monospace" font-size="10.00">lengthy</text>
</a>
</g>
</g>
<!-- object&#45;&gt;lengthy -->
<g id="edge10" class="edge">
<title>object&#45;&gt;lengthy</title>
<path fill="none" stroke="black" d="M141.67,-431.7C144.93,-423.81 148.87,-414.3 152.5,-405.55"/>
<polygon fill="black" stroke="black" points="155.82,-406.68 156.41,-396.1 149.35,-404 155.82,-406.68"/>
</g>
<!-- sequential -->
<g id="node10" class="node">
<title>sequential</title>
<g id="a_node10"><a xlink:href="PsyllaReference_Types.xhtml#PsyllaReference_Types_Details_sequential" xlink:title="sequential" target="_parent">
<polygon fill="linen" stroke="black" points="282,-396 211,-396 211,-360 288,-360 288,-390 282,-396"/>
<polyline fill="none" stroke="black" points="282,-396 282,-390 "/>
<polyline fill="none" stroke="black" points="288,-390 282,-390 "/>
<text text-anchor="middle" x="249.5" y="-375.5" font-family="PT Mono, monospace" font-size="10.00">sequential</text>
</a>
</g>
</g>
<!-- object&#45;&gt;sequential -->
<g id="edge12" class="edge">
<title>object&#45;&gt;sequential</title>
<path fill="none" stroke="black" d="M161.75,-432.41C176.88,-423.2 195.92,-411.61 212.39,-401.59"/>
<polygon fill="black" stroke="black" points="214.52,-404.39 221.24,-396.2 210.88,-398.41 214.52,-404.39"/>
</g>
<!-- clearable&#45;&gt;container -->
<g id="edge5" class="edge">
<title>clearable&#45;&gt;container</title>
<path fill="none" stroke="black" d="M112.41,-215.7C116.05,-207.73 120.45,-198.1 124.49,-189.26"/>
<polygon fill="black" stroke="black" points="127.71,-190.65 128.68,-180.1 121.34,-187.74 127.71,-190.65"/>
</g>
<!-- iterable -->
<g id="node7" class="node">
<title>iterable</title>
<g id="a_node7"><a xlink:href="PsyllaReference_Types.xhtml#PsyllaReference_Types_Details_iterable" xlink:title="iterable" target="_parent">
<polygon fill="linen" stroke="black" points="263,-252 204,-252 204,-216 269,-216 269,-246 263,-252"/>
<polyline fill="none" stroke="black" points="263,-252 263,-246 "/>
<polyline fill="none" stroke="black" points="269,-246 263,-246 "/>
<text text-anchor="middle" x="236.5" y="-231.5" font-family="PT Mono, monospace" font-size="10.00">iterable</text>
</a>
</g>
</g>
<!-- iterable&#45;&gt;container -->
<g id="edge6" class="edge">
<title>iterable&#45;&gt;container</title>
<path fill="none" stroke="black" d="M212.04,-215.88C199.2,-206.89 183.3,-195.76 169.41,-186.03"/>
<polygon fill="black" stroke="black" points="171.26,-183.06 161.06,-180.19 167.24,-188.79 171.26,-183.06"/>
</g>
<!-- lengthy&#45;&gt;container -->
<g id="edge7" class="edge">
<title>lengthy&#45;&gt;container</title>
<path fill="none" stroke="black" d="M162.64,-359.99C161,-330.52 156.79,-268.12 148.5,-216 147.15,-207.48 145.23,-198.29 143.32,-189.99"/>
<polygon fill="black" stroke="black" points="146.68,-188.99 140.96,-180.08 139.87,-190.62 146.68,-188.99"/>
</g>
<!-- streamable -->
<g id="node9" class="node">
<title>streamable</title>
<g id="a_node9"><a xlink:href="PsyllaReference_Types.xhtml#PsyllaReference_Types_Details_streamable" xlink:title="streamable" target="_parent">
<polygon fill="linen" stroke="black" points="275,-324 204,-324 204,-288 281,-288 281,-318 275,-324"/>
<polyline fill="none" stroke="black" points="275,-324 275,-318 "/>
<polyline fill="none" stroke="black" points="281,-318 275,-318 "/>
<text text-anchor="middle" x="242.5" y="-303.5" font-family="PT Mono, monospace" font-size="10.00">streamable</text>
</a>
</g>
</g>
<!-- streamable&#45;&gt;iterable -->
<g id="edge9" class="edge">
<title>streamable&#45;&gt;iterable</title>
<path fill="none" stroke="black" d="M241.02,-287.7C240.36,-279.98 239.56,-270.71 238.82,-262.11"/>
<polygon fill="black" stroke="black" points="242.31,-261.77 237.97,-252.1 235.33,-262.37 242.31,-261.77"/>
</g>
<!-- sequential&#45;&gt;streamable -->
<g id="edge11" class="edge">
<title>sequential&#45;&gt;streamable</title>
<path fill="none" stroke="black" d="M247.77,-359.7C247,-351.98 246.07,-342.71 245.21,-334.11"/>
<polygon fill="black" stroke="black" points="248.69,-333.71 244.21,-324.1 241.72,-334.4 248.69,-333.71"/>
</g>
</g>
</svg>
