<?xml version="1.0" encoding="UTF-8" standalone="no"?>
<!DOCTYPE svg PUBLIC "-//W3C//DTD SVG 1.1//EN"
 "http://www.w3.org/Graphics/SVG/1.1/DTD/svg11.dtd">
<!-- Generated by graphviz version 14.0.0 (0)
 -->
<!-- Title: biginteger Pages: 1 -->
<svg width="583pt" height="548pt"
 viewBox="0.00 0.00 583.00 548.00" xmlns="http://www.w3.org/2000/svg" xmlns:xlink="http://www.w3.org/1999/xlink">
<g id="graph0" class="graph" transform="scale(1 1) rotate(0) translate(4 544)">
<title>biginteger</title>
<polygon fill="none" stroke="none" points="-4,4 -4,-544 578.7,-544 578.7,4 -4,4"/>
<!-- integral -->
<g id="node1" class="node">
<title>integral</title>
<g id="a_node1"><a xlink:href="PsyllaReference_Types.xhtml#PsyllaReference_Types_Details_integral" xlink:title="integral" target="_parent">
<polygon fill="linen" stroke="black" points="165.38,-108 117.38,-108 117.38,-72 171.38,-72 171.38,-102 165.38,-108"/>
<polyline fill="none" stroke="black" points="165.38,-108 165.38,-102"/>
<polyline fill="none" stroke="black" points="171.38,-102 165.38,-102"/>
<text xml:space="preserve" text-anchor="middle" x="144.38" y="-86.4" font-family="Source Code Pro,monospace" font-size="12.00">integral</text>
</a>
</g>
</g>
<!-- biginteger -->
<g id="node2" class="node">
<title>biginteger</title>
<g id="a_node2"><a xlink:href="PsyllaReference_Types.xhtml#PsyllaReference_Types_Details_biginteger" xlink:title="biginteger" target="_parent">
<polygon fill="wheat" stroke="black" points="170.7,-36 112.05,-36 112.05,0 176.7,0 176.7,-30 170.7,-36"/>
<polyline fill="none" stroke="black" points="170.7,-36 170.7,-30"/>
<polyline fill="none" stroke="black" points="176.7,-30 170.7,-30"/>
<text xml:space="preserve" text-anchor="middle" x="144.38" y="-14.4" font-family="Source Code Pro,monospace" font-size="12.00">biginteger</text>
</a>
</g>
</g>
<!-- integral&#45;&gt;biginteger -->
<g id="edge1" class="edge">
<title>integral&#45;&gt;biginteger</title>
<path fill="none" stroke="black" d="M144.38,-71.7C144.38,-64.41 144.38,-55.73 144.38,-47.54"/>
<polygon fill="black" stroke="black" points="147.88,-47.62 144.38,-37.62 140.88,-47.62 147.88,-47.62"/>
</g>
<!-- bitwise -->
<g id="node3" class="node">
<title>bitwise</title>
<g id="a_node3"><a xlink:href="PsyllaReference_Types.xhtml#PsyllaReference_Types_Details_bitwise" xlink:title="bitwise" target="_parent">
<polygon fill="linen" stroke="black" points="125.38,-252 77.38,-252 77.38,-216 131.38,-216 131.38,-246 125.38,-252"/>
<polyline fill="none" stroke="black" points="125.38,-252 125.38,-246"/>
<polyline fill="none" stroke="black" points="131.38,-246 125.38,-246"/>
<text xml:space="preserve" text-anchor="middle" x="104.38" y="-230.4" font-family="Source Code Pro,monospace" font-size="12.00">bitwise</text>
</a>
</g>
</g>
<!-- bitwise&#45;&gt;integral -->
<g id="edge2" class="edge">
<title>bitwise&#45;&gt;integral</title>
<path fill="none" stroke="black" d="M109.28,-215.59C116.07,-191.5 128.39,-147.75 136.48,-119.03"/>
<polygon fill="black" stroke="black" points="139.8,-120.14 139.15,-109.57 133.07,-118.24 139.8,-120.14"/>
</g>
<!-- rational -->
<g id="node4" class="node">
<title>rational</title>
<g id="a_node4"><a xlink:href="PsyllaReference_Types.xhtml#PsyllaReference_Types_Details_rational" xlink:title="rational" target="_parent">
<polygon fill="linen" stroke="black" points="234.38,-180 186.38,-180 186.38,-144 240.38,-144 240.38,-174 234.38,-180"/>
<polyline fill="none" stroke="black" points="234.38,-180 234.38,-174"/>
<polyline fill="none" stroke="black" points="240.38,-174 234.38,-174"/>
<text xml:space="preserve" text-anchor="middle" x="213.38" y="-158.4" font-family="Source Code Pro,monospace" font-size="12.00">rational</text>
</a>
</g>
</g>
<!-- rational&#45;&gt;integral -->
<g id="edge3" class="edge">
<title>rational&#45;&gt;integral</title>
<path fill="none" stroke="black" d="M196.32,-143.7C188.13,-135.39 178.16,-125.28 169.16,-116.14"/>
<polygon fill="black" stroke="black" points="171.81,-113.85 162.3,-109.18 166.83,-118.76 171.81,-113.85"/>
</g>
<!-- logical -->
<g id="node5" class="node">
<title>logical</title>
<g id="a_node5"><a xlink:href="PsyllaReference_Types.xhtml#PsyllaReference_Types_Details_logical" xlink:title="logical" target="_parent">
<polygon fill="linen" stroke="black" points="60.38,-468 12.38,-468 12.38,-432 66.38,-432 66.38,-462 60.38,-468"/>
<polyline fill="none" stroke="black" points="60.38,-468 60.38,-462"/>
<polyline fill="none" stroke="black" points="66.38,-462 60.38,-462"/>
<text xml:space="preserve" text-anchor="middle" x="39.38" y="-446.4" font-family="Source Code Pro,monospace" font-size="12.00">logical</text>
</a>
</g>
</g>
<!-- logical&#45;&gt;bitwise -->
<g id="edge4" class="edge">
<title>logical&#45;&gt;bitwise</title>
<path fill="none" stroke="black" d="M29.35,-431.71C12.84,-400.72 -15.71,-334.61 11.38,-288 23.25,-267.57 46.27,-254.36 66.44,-246.24"/>
<polygon fill="black" stroke="black" points="67.37,-249.62 75.53,-242.86 64.94,-243.06 67.37,-249.62"/>
</g>
<!-- realnumeric -->
<g id="node6" class="node">
<title>realnumeric</title>
<g id="a_node6"><a xlink:href="PsyllaReference_Types.xhtml#PsyllaReference_Types_Details_realnumeric" xlink:title="realnumeric" target="_parent">
<polygon fill="linen" stroke="black" points="285.03,-252 217.73,-252 217.73,-216 291.03,-216 291.03,-246 285.03,-252"/>
<polyline fill="none" stroke="black" points="285.03,-252 285.03,-246"/>
<polyline fill="none" stroke="black" points="291.03,-246 285.03,-246"/>
<text xml:space="preserve" text-anchor="middle" x="254.38" y="-230.4" font-family="Source Code Pro,monospace" font-size="12.00">realnumeric</text>
</a>
</g>
</g>
<!-- realnumeric&#45;&gt;rational -->
<g id="edge5" class="edge">
<title>realnumeric&#45;&gt;rational</title>
<path fill="none" stroke="black" d="M244.24,-215.7C239.67,-207.9 234.17,-198.51 229.09,-189.83"/>
<polygon fill="black" stroke="black" points="232.23,-188.27 224.16,-181.41 226.19,-191.81 232.23,-188.27"/>
</g>
<!-- object -->
<g id="node7" class="node">
<title>object</title>
<g id="a_node7"><a xlink:href="PsyllaReference_Types.xhtml#PsyllaReference_Types_Details_object" xlink:title="object" target="_parent">
<polygon fill="linen" stroke="black" points="352.38,-540 304.38,-540 304.38,-504 358.38,-504 358.38,-534 352.38,-540"/>
<polyline fill="none" stroke="black" points="352.38,-540 352.38,-534"/>
<polyline fill="none" stroke="black" points="358.38,-534 352.38,-534"/>
<text xml:space="preserve" text-anchor="middle" x="331.38" y="-518.4" font-family="Source Code Pro,monospace" font-size="12.00">object</text>
</a>
</g>
</g>
<!-- object&#45;&gt;logical -->
<g id="edge6" class="edge">
<title>object&#45;&gt;logical</title>
<path fill="none" stroke="black" d="M303.96,-515.53C259.81,-506.56 170.29,-487.75 95.38,-468 89.48,-466.45 83.27,-464.69 77.22,-462.9"/>
<polygon fill="black" stroke="black" points="78.64,-459.67 68.06,-460.14 76.62,-466.38 78.64,-459.67"/>
</g>
<!-- convertabletointeger -->
<g id="node9" class="node">
<title>convertabletointeger</title>
<g id="a_node9"><a xlink:href="PsyllaReference_Types.xhtml#PsyllaReference_Types_Details_convertabletointeger" xlink:title="convertabletointeger" target="_parent">
<polygon fill="linen" stroke="black" points="128.69,-324 20.07,-324 20.07,-288 134.69,-288 134.69,-318 128.69,-324"/>
<polyline fill="none" stroke="black" points="128.69,-324 128.69,-318"/>
<polyline fill="none" stroke="black" points="134.69,-318 128.69,-318"/>
<text xml:space="preserve" text-anchor="middle" x="77.38" y="-302.4" font-family="Source Code Pro,monospace" font-size="12.00">convertabletointeger</text>
</a>
</g>
</g>
<!-- object&#45;&gt;convertabletointeger -->
<g id="edge14" class="edge">
<title>object&#45;&gt;convertabletointeger</title>
<path fill="none" stroke="black" d="M304.04,-512.16C279.55,-503.4 243.43,-488.36 216.38,-468 164.95,-429.29 119.12,-368.66 95.1,-333.9"/>
<polygon fill="black" stroke="black" points="98.01,-331.96 89.49,-325.66 92.23,-335.9 98.01,-331.96"/>
</g>
<!-- convertabletointegral -->
<g id="node10" class="node">
<title>convertabletointegral</title>
<g id="a_node10"><a xlink:href="PsyllaReference_Types.xhtml#PsyllaReference_Types_Details_convertabletointegral" xlink:title="convertabletointegral" target="_parent">
<polygon fill="linen" stroke="black" points="264.35,-324 152.4,-324 152.4,-288 270.35,-288 270.35,-318 264.35,-324"/>
<polyline fill="none" stroke="black" points="264.35,-324 264.35,-318"/>
<polyline fill="none" stroke="black" points="270.35,-318 264.35,-318"/>
<text xml:space="preserve" text-anchor="middle" x="211.38" y="-302.4" font-family="Source Code Pro,monospace" font-size="12.00">convertabletointegral</text>
</a>
</g>
</g>
<!-- object&#45;&gt;convertabletointegral -->
<g id="edge15" class="edge">
<title>object&#45;&gt;convertabletointegral</title>
<path fill="none" stroke="black" d="M303.96,-505.08C271.7,-484.57 219.82,-445.59 198.38,-396 190.05,-376.74 194.04,-353.19 199.72,-335.15"/>
<polygon fill="black" stroke="black" points="202.96,-336.48 202.97,-325.88 196.36,-334.16 202.96,-336.48"/>
</g>
<!-- convertabletorational -->
<g id="node11" class="node">
<title>convertabletorational</title>
<g id="a_node11"><a xlink:href="PsyllaReference_Types.xhtml#PsyllaReference_Types_Details_convertabletorational" xlink:title="convertabletorational" target="_parent">
<polygon fill="linen" stroke="black" points="319.35,-396 207.4,-396 207.4,-360 325.35,-360 325.35,-390 319.35,-396"/>
<polyline fill="none" stroke="black" points="319.35,-396 319.35,-390"/>
<polyline fill="none" stroke="black" points="325.35,-390 319.35,-390"/>
<text xml:space="preserve" text-anchor="middle" x="266.38" y="-374.4" font-family="Source Code Pro,monospace" font-size="12.00">convertabletorational</text>
</a>
</g>
</g>
<!-- object&#45;&gt;convertabletorational -->
<g id="edge16" class="edge">
<title>object&#45;&gt;convertabletorational</title>
<path fill="none" stroke="black" d="M323.41,-503.59C312.28,-479.29 292,-434.97 278.86,-406.27"/>
<polygon fill="black" stroke="black" points="282.18,-405.12 274.84,-397.49 275.82,-408.04 282.18,-405.12"/>
</g>
<!-- scalar -->
<g id="node12" class="node">
<title>scalar</title>
<g id="a_node12"><a xlink:href="PsyllaReference_Types.xhtml#PsyllaReference_Types_Details_scalar" xlink:title="scalar" target="_parent">
<polygon fill="linen" stroke="black" points="374.38,-324 326.38,-324 326.38,-288 380.38,-288 380.38,-318 374.38,-324"/>
<polyline fill="none" stroke="black" points="374.38,-324 374.38,-318"/>
<polyline fill="none" stroke="black" points="380.38,-318 374.38,-318"/>
<text xml:space="preserve" text-anchor="middle" x="353.38" y="-302.4" font-family="Source Code Pro,monospace" font-size="12.00">scalar</text>
</a>
</g>
</g>
<!-- object&#45;&gt;scalar -->
<g id="edge17" class="edge">
<title>object&#45;&gt;scalar</title>
<path fill="none" stroke="black" d="M333.14,-503.85C336.91,-467.14 345.8,-380.66 350.44,-335.53"/>
<polygon fill="black" stroke="black" points="353.91,-336.04 351.45,-325.74 346.95,-335.33 353.91,-336.04"/>
</g>
<!-- value -->
<g id="node14" class="node">
<title>value</title>
<g id="a_node14"><a xlink:href="PsyllaReference_Types.xhtml#PsyllaReference_Types_Details_value" xlink:title="value" target="_parent">
<polygon fill="linen" stroke="black" points="429.38,-396 381.38,-396 381.38,-360 435.38,-360 435.38,-390 429.38,-396"/>
<polyline fill="none" stroke="black" points="429.38,-396 429.38,-390"/>
<polyline fill="none" stroke="black" points="435.38,-390 429.38,-390"/>
<text xml:space="preserve" text-anchor="middle" x="408.38" y="-374.4" font-family="Source Code Pro,monospace" font-size="12.00">value</text>
</a>
</g>
</g>
<!-- object&#45;&gt;value -->
<g id="edge20" class="edge">
<title>object&#45;&gt;value</title>
<path fill="none" stroke="black" d="M344.13,-503.8C351.37,-493.65 360.37,-480.4 367.38,-468 378.55,-448.22 389.22,-424.86 396.87,-407.04"/>
<polygon fill="black" stroke="black" points="400.08,-408.45 400.75,-397.87 393.63,-405.72 400.08,-408.45"/>
</g>
<!-- additive -->
<g id="node15" class="node">
<title>additive</title>
<g id="a_node15"><a xlink:href="PsyllaReference_Types.xhtml#PsyllaReference_Types_Details_additive" xlink:title="additive" target="_parent">
<polygon fill="linen" stroke="black" points="467.7,-468 419.05,-468 419.05,-432 473.7,-432 473.7,-462 467.7,-468"/>
<polyline fill="none" stroke="black" points="467.7,-468 467.7,-462"/>
<polyline fill="none" stroke="black" points="473.7,-462 467.7,-462"/>
<text xml:space="preserve" text-anchor="middle" x="446.38" y="-446.4" font-family="Source Code Pro,monospace" font-size="12.00">additive</text>
</a>
</g>
</g>
<!-- object&#45;&gt;additive -->
<g id="edge21" class="edge">
<title>object&#45;&gt;additive</title>
<path fill="none" stroke="black" d="M358.63,-504.41C373.84,-495.15 393.01,-483.49 409.54,-473.42"/>
<polygon fill="black" stroke="black" points="410.91,-476.69 417.63,-468.5 407.27,-470.71 410.91,-476.69"/>
</g>
<!-- multiplicative -->
<g id="node16" class="node">
<title>multiplicative</title>
<g id="a_node16"><a xlink:href="PsyllaReference_Types.xhtml#PsyllaReference_Types_Details_multiplicative" xlink:title="multiplicative" target="_parent">
<polygon fill="linen" stroke="black" points="568.7,-468 492.05,-468 492.05,-432 574.7,-432 574.7,-462 568.7,-468"/>
<polyline fill="none" stroke="black" points="568.7,-468 568.7,-462"/>
<polyline fill="none" stroke="black" points="574.7,-462 568.7,-462"/>
<text xml:space="preserve" text-anchor="middle" x="533.38" y="-446.4" font-family="Source Code Pro,monospace" font-size="12.00">multiplicative</text>
</a>
</g>
</g>
<!-- object&#45;&gt;multiplicative -->
<g id="edge22" class="edge">
<title>object&#45;&gt;multiplicative</title>
<path fill="none" stroke="black" d="M358.62,-511.56C389.92,-500.71 442.01,-482.66 481.19,-469.08"/>
<polygon fill="black" stroke="black" points="482.14,-472.46 490.44,-465.88 479.85,-465.85 482.14,-472.46"/>
</g>
<!-- numeric -->
<g id="node8" class="node">
<title>numeric</title>
<g id="a_node8"><a xlink:href="PsyllaReference_Types.xhtml#PsyllaReference_Types_Details_numeric" xlink:title="numeric" target="_parent">
<polygon fill="linen" stroke="black" points="448.04,-324 398.72,-324 398.72,-288 454.04,-288 454.04,-318 448.04,-324"/>
<polyline fill="none" stroke="black" points="448.04,-324 448.04,-318"/>
<polyline fill="none" stroke="black" points="454.04,-318 448.04,-318"/>
<text xml:space="preserve" text-anchor="middle" x="426.38" y="-302.4" font-family="Source Code Pro,monospace" font-size="12.00">numeric</text>
</a>
</g>
</g>
<!-- numeric&#45;&gt;realnumeric -->
<g id="edge7" class="edge">
<title>numeric&#45;&gt;realnumeric</title>
<path fill="none" stroke="black" d="M398.57,-292.02C395.48,-290.64 392.37,-289.27 389.38,-288 360.59,-275.75 327.95,-262.9 301.97,-252.93"/>
<polygon fill="black" stroke="black" points="303.28,-249.68 292.69,-249.38 300.78,-256.22 303.28,-249.68"/>
</g>
<!-- convertabletointeger&#45;&gt;realnumeric -->
<g id="edge8" class="edge">
<title>convertabletointeger&#45;&gt;realnumeric</title>
<path fill="none" stroke="black" d="M121.59,-287.52C147.5,-277.27 180.25,-264.32 206.74,-253.84"/>
<polygon fill="black" stroke="black" points="207.88,-257.15 215.89,-250.22 205.31,-250.64 207.88,-257.15"/>
</g>
<!-- convertabletointegral&#45;&gt;realnumeric -->
<g id="edge9" class="edge">
<title>convertabletointegral&#45;&gt;realnumeric</title>
<path fill="none" stroke="black" d="M222.01,-287.7C226.8,-279.9 232.56,-270.51 237.9,-261.83"/>
<polygon fill="black" stroke="black" points="240.83,-263.75 243.08,-253.39 234.86,-260.08 240.83,-263.75"/>
</g>
<!-- convertabletorational&#45;&gt;realnumeric -->
<g id="edge10" class="edge">
<title>convertabletorational&#45;&gt;realnumeric</title>
<path fill="none" stroke="black" d="M272.58,-359.8C278.23,-341.77 284.91,-312.69 279.38,-288 277.45,-279.4 273.97,-270.55 270.2,-262.61"/>
<polygon fill="black" stroke="black" points="273.36,-261.1 265.69,-253.79 267.13,-264.29 273.36,-261.1"/>
</g>
<!-- scalar&#45;&gt;realnumeric -->
<g id="edge11" class="edge">
<title>scalar&#45;&gt;realnumeric</title>
<path fill="none" stroke="black" d="M328.65,-287.52C316.39,-278.85 301.4,-268.25 288.11,-258.85"/>
<polygon fill="black" stroke="black" points="290.21,-256.05 280.02,-253.13 286.17,-261.77 290.21,-256.05"/>
</g>
<!-- arithmetic -->
<g id="node13" class="node">
<title>arithmetic</title>
<g id="a_node13"><a xlink:href="PsyllaReference_Types.xhtml#PsyllaReference_Types_Details_arithmetic" xlink:title="arithmetic" target="_parent">
<polygon fill="linen" stroke="black" points="511.7,-396 453.05,-396 453.05,-360 517.7,-360 517.7,-390 511.7,-396"/>
<polyline fill="none" stroke="black" points="511.7,-396 511.7,-390"/>
<polyline fill="none" stroke="black" points="517.7,-390 511.7,-390"/>
<text xml:space="preserve" text-anchor="middle" x="485.38" y="-374.4" font-family="Source Code Pro,monospace" font-size="12.00">arithmetic</text>
</a>
</g>
</g>
<!-- arithmetic&#45;&gt;numeric -->
<g id="edge12" class="edge">
<title>arithmetic&#45;&gt;numeric</title>
<path fill="none" stroke="black" d="M470.79,-359.7C463.93,-351.56 455.61,-341.69 448.04,-332.7"/>
<polygon fill="black" stroke="black" points="450.89,-330.65 441.77,-325.26 445.54,-335.16 450.89,-330.65"/>
</g>
<!-- value&#45;&gt;numeric -->
<g id="edge13" class="edge">
<title>value&#45;&gt;numeric</title>
<path fill="none" stroke="black" d="M412.83,-359.7C414.72,-352.32 416.99,-343.52 419.11,-335.25"/>
<polygon fill="black" stroke="black" points="422.5,-336.13 421.6,-325.57 415.72,-334.38 422.5,-336.13"/>
</g>
<!-- additive&#45;&gt;arithmetic -->
<g id="edge18" class="edge">
<title>additive&#45;&gt;arithmetic</title>
<path fill="none" stroke="black" d="M456.02,-431.7C460.32,-423.98 465.48,-414.71 470.27,-406.11"/>
<polygon fill="black" stroke="black" points="473.3,-407.87 475.11,-397.43 467.19,-404.46 473.3,-407.87"/>
</g>
<!-- multiplicative&#45;&gt;arithmetic -->
<g id="edge19" class="edge">
<title>multiplicative&#45;&gt;arithmetic</title>
<path fill="none" stroke="black" d="M521.51,-431.7C516.11,-423.81 509.59,-414.3 503.58,-405.55"/>
<polygon fill="black" stroke="black" points="506.5,-403.62 497.96,-397.35 500.73,-407.58 506.5,-403.62"/>
</g>
</g>
</svg>
