<?xml version="1.0" encoding="UTF-8" standalone="no"?>
<!DOCTYPE svg PUBLIC "-//W3C//DTD SVG 1.1//EN"
 "http://www.w3.org/Graphics/SVG/1.1/DTD/svg11.dtd">
<!-- Generated by graphviz version 2.49.3 (0)
 -->
<!-- Title: boolean Pages: 1 -->
<svg width="206pt" height="188pt"
 viewBox="0.00 0.00 206.00 188.00" xmlns="http://www.w3.org/2000/svg" xmlns:xlink="http://www.w3.org/1999/xlink">
<g id="graph0" class="graph" transform="scale(1 1) rotate(0) translate(4 184)">
<title>boolean</title>
<polygon fill="transparent" stroke="transparent" points="-4,4 -4,-184 202,-184 202,4 -4,4"/>
<!-- logical -->
<g id="node1" class="node">
<title>logical</title>
<g id="a_node1"><a xlink:href="PsyllaReference_Types.xhtml#PsyllaReference_Types_Details_logical" xlink:title="logical" target="_parent">
<polygon fill="linen" stroke="black" points="48,-108 0,-108 0,-72 54,-72 54,-102 48,-108"/>
<polyline fill="none" stroke="black" points="48,-108 48,-102 "/>
<polyline fill="none" stroke="black" points="54,-102 48,-102 "/>
<text text-anchor="middle" x="27" y="-86.4" font-family="Source Code Pro,monospace" font-size="12.00">logical</text>
</a>
</g>
</g>
<!-- boolean -->
<g id="node4" class="node">
<title>boolean</title>
<g id="a_node4"><a xlink:href="PsyllaReference_Types.xhtml#PsyllaReference_Types_Details_boolean" xlink:title="boolean" target="_parent">
<polygon fill="wheat" stroke="black" points="120,-36 72,-36 72,0 126,0 126,-30 120,-36"/>
<polyline fill="none" stroke="black" points="120,-36 120,-30 "/>
<polyline fill="none" stroke="black" points="126,-30 120,-30 "/>
<text text-anchor="middle" x="99" y="-14.4" font-family="Source Code Pro,monospace" font-size="12.00">boolean</text>
</a>
</g>
</g>
<!-- logical&#45;&gt;boolean -->
<g id="edge1" class="edge">
<title>logical&#45;&gt;boolean</title>
<path fill="none" stroke="black" d="M44.8,-71.7C53.6,-63.14 64.38,-52.66 74,-43.3"/>
<polygon fill="black" stroke="black" points="76.68,-45.58 81.41,-36.1 71.8,-40.57 76.68,-45.58"/>
</g>
<!-- scalar -->
<g id="node2" class="node">
<title>scalar</title>
<g id="a_node2"><a xlink:href="PsyllaReference_Types.xhtml#PsyllaReference_Types_Details_scalar" xlink:title="scalar" target="_parent">
<polygon fill="linen" stroke="black" points="120,-108 72,-108 72,-72 126,-72 126,-102 120,-108"/>
<polyline fill="none" stroke="black" points="120,-108 120,-102 "/>
<polyline fill="none" stroke="black" points="126,-102 120,-102 "/>
<text text-anchor="middle" x="99" y="-86.4" font-family="Source Code Pro,monospace" font-size="12.00">scalar</text>
</a>
</g>
</g>
<!-- scalar&#45;&gt;boolean -->
<g id="edge2" class="edge">
<title>scalar&#45;&gt;boolean</title>
<path fill="none" stroke="black" d="M99,-71.7C99,-63.98 99,-54.71 99,-46.11"/>
<polygon fill="black" stroke="black" points="102.5,-46.1 99,-36.1 95.5,-46.1 102.5,-46.1"/>
</g>
<!-- value -->
<g id="node3" class="node">
<title>value</title>
<g id="a_node3"><a xlink:href="PsyllaReference_Types.xhtml#PsyllaReference_Types_Details_value" xlink:title="value" target="_parent">
<polygon fill="linen" stroke="black" points="192,-108 144,-108 144,-72 198,-72 198,-102 192,-108"/>
<polyline fill="none" stroke="black" points="192,-108 192,-102 "/>
<polyline fill="none" stroke="black" points="198,-102 192,-102 "/>
<text text-anchor="middle" x="171" y="-86.4" font-family="Source Code Pro,monospace" font-size="12.00">value</text>
</a>
</g>
</g>
<!-- value&#45;&gt;boolean -->
<g id="edge3" class="edge">
<title>value&#45;&gt;boolean</title>
<path fill="none" stroke="black" d="M153.2,-71.7C144.4,-63.14 133.62,-52.66 124,-43.3"/>
<polygon fill="black" stroke="black" points="126.2,-40.57 116.59,-36.1 121.32,-45.58 126.2,-40.57"/>
</g>
<!-- object -->
<g id="node5" class="node">
<title>object</title>
<g id="a_node5"><a xlink:href="PsyllaReference_Types.xhtml#PsyllaReference_Types_Details_object" xlink:title="object" target="_parent">
<polygon fill="linen" stroke="black" points="120,-180 72,-180 72,-144 126,-144 126,-174 120,-180"/>
<polyline fill="none" stroke="black" points="120,-180 120,-174 "/>
<polyline fill="none" stroke="black" points="126,-174 120,-174 "/>
<text text-anchor="middle" x="99" y="-158.4" font-family="Source Code Pro,monospace" font-size="12.00">object</text>
</a>
</g>
</g>
<!-- object&#45;&gt;logical -->
<g id="edge4" class="edge">
<title>object&#45;&gt;logical</title>
<path fill="none" stroke="black" d="M81.2,-143.7C72.4,-135.14 61.62,-124.66 52,-115.3"/>
<polygon fill="black" stroke="black" points="54.2,-112.57 44.59,-108.1 49.32,-117.58 54.2,-112.57"/>
</g>
<!-- object&#45;&gt;scalar -->
<g id="edge5" class="edge">
<title>object&#45;&gt;scalar</title>
<path fill="none" stroke="black" d="M99,-143.7C99,-135.98 99,-126.71 99,-118.11"/>
<polygon fill="black" stroke="black" points="102.5,-118.1 99,-108.1 95.5,-118.1 102.5,-118.1"/>
</g>
<!-- object&#45;&gt;value -->
<g id="edge6" class="edge">
<title>object&#45;&gt;value</title>
<path fill="none" stroke="black" d="M116.8,-143.7C125.6,-135.14 136.38,-124.66 146,-115.3"/>
<polygon fill="black" stroke="black" points="148.68,-117.58 153.41,-108.1 143.8,-112.57 148.68,-117.58"/>
</g>
</g>
</svg>
