<?xml version="1.0" encoding="UTF-8" standalone="no"?>
<!DOCTYPE svg PUBLIC "-//W3C//DTD SVG 1.1//EN"
 "http://www.w3.org/Graphics/SVG/1.1/DTD/svg11.dtd">
<!-- Generated by graphviz version 2.43.0 (0)
 -->
<!-- Title: biginteger Pages: 1 -->
<svg width="593pt" height="548pt"
 viewBox="0.00 0.00 592.71 548.00" xmlns="http://www.w3.org/2000/svg" xmlns:xlink="http://www.w3.org/1999/xlink">
<g id="graph0" class="graph" transform="scale(1 1) rotate(0) translate(4 544)">
<title>biginteger</title>
<polygon fill="transparent" stroke="transparent" points="-4,4 -4,-544 588.71,-544 588.71,4 -4,4"/>
<!-- integral -->
<g id="node1" class="node">
<title>integral</title>
<g id="a_node1"><a xlink:href="PsyllaReference_Types.xhtml#PsyllaReference_Types_Details_integral" xlink:title="integral" target="_parent">
<polygon fill="linen" stroke="black" points="172.21,-108 101.21,-108 101.21,-72 178.21,-72 178.21,-102 172.21,-108"/>
<polyline fill="none" stroke="black" points="172.21,-108 172.21,-102 "/>
<polyline fill="none" stroke="black" points="178.21,-102 172.21,-102 "/>
<text text-anchor="middle" x="139.71" y="-86.9" font-family="Source Code Pro,monospace" font-size="12.00">integral</text>
</a>
</g>
</g>
<!-- biginteger -->
<g id="node2" class="node">
<title>biginteger</title>
<g id="a_node2"><a xlink:href="PsyllaReference_Types.xhtml#PsyllaReference_Types_Details_biginteger" xlink:title="biginteger" target="_parent">
<polygon fill="wheat" stroke="black" points="179.71,-36 93.71,-36 93.71,0 185.71,0 185.71,-30 179.71,-36"/>
<polyline fill="none" stroke="black" points="179.71,-36 179.71,-30 "/>
<polyline fill="none" stroke="black" points="185.71,-30 179.71,-30 "/>
<text text-anchor="middle" x="139.71" y="-14.9" font-family="Source Code Pro,monospace" font-size="12.00">biginteger</text>
</a>
</g>
</g>
<!-- integral&#45;&gt;biginteger -->
<g id="edge1" class="edge">
<title>integral&#45;&gt;biginteger</title>
<path fill="none" stroke="black" d="M139.71,-71.7C139.71,-63.98 139.71,-54.71 139.71,-46.11"/>
<polygon fill="black" stroke="black" points="143.21,-46.1 139.71,-36.1 136.21,-46.1 143.21,-46.1"/>
</g>
<!-- bitwise -->
<g id="node3" class="node">
<title>bitwise</title>
<g id="a_node3"><a xlink:href="PsyllaReference_Types.xhtml#PsyllaReference_Types_Details_bitwise" xlink:title="bitwise" target="_parent">
<polygon fill="linen" stroke="black" points="118.21,-252 55.21,-252 55.21,-216 124.21,-216 124.21,-246 118.21,-252"/>
<polyline fill="none" stroke="black" points="118.21,-252 118.21,-246 "/>
<polyline fill="none" stroke="black" points="124.21,-246 118.21,-246 "/>
<text text-anchor="middle" x="89.71" y="-230.9" font-family="Source Code Pro,monospace" font-size="12.00">bitwise</text>
</a>
</g>
</g>
<!-- bitwise&#45;&gt;integral -->
<g id="edge2" class="edge">
<title>bitwise&#45;&gt;integral</title>
<path fill="none" stroke="black" d="M95.74,-215.87C104.34,-191.46 120.2,-146.43 130.33,-117.64"/>
<polygon fill="black" stroke="black" points="133.64,-118.78 133.66,-108.19 127.04,-116.46 133.64,-118.78"/>
</g>
<!-- rational -->
<g id="node4" class="node">
<title>rational</title>
<g id="a_node4"><a xlink:href="PsyllaReference_Types.xhtml#PsyllaReference_Types_Details_rational" xlink:title="rational" target="_parent">
<polygon fill="linen" stroke="black" points="264.21,-180 193.21,-180 193.21,-144 270.21,-144 270.21,-174 264.21,-180"/>
<polyline fill="none" stroke="black" points="264.21,-180 264.21,-174 "/>
<polyline fill="none" stroke="black" points="270.21,-174 264.21,-174 "/>
<text text-anchor="middle" x="231.71" y="-158.9" font-family="Source Code Pro,monospace" font-size="12.00">rational</text>
</a>
</g>
</g>
<!-- rational&#45;&gt;integral -->
<g id="edge3" class="edge">
<title>rational&#45;&gt;integral</title>
<path fill="none" stroke="black" d="M208.97,-143.7C197.27,-134.8 182.85,-123.82 170.2,-114.2"/>
<polygon fill="black" stroke="black" points="172.27,-111.37 162.19,-108.1 168.03,-116.94 172.27,-111.37"/>
</g>
<!-- logical -->
<g id="node5" class="node">
<title>logical</title>
<g id="a_node5"><a xlink:href="PsyllaReference_Types.xhtml#PsyllaReference_Types_Details_logical" xlink:title="logical" target="_parent">
<polygon fill="linen" stroke="black" points="90.21,-468 27.21,-468 27.21,-432 96.21,-432 96.21,-462 90.21,-468"/>
<polyline fill="none" stroke="black" points="90.21,-468 90.21,-462 "/>
<polyline fill="none" stroke="black" points="96.21,-462 90.21,-462 "/>
<text text-anchor="middle" x="61.71" y="-446.9" font-family="Source Code Pro,monospace" font-size="12.00">logical</text>
</a>
</g>
</g>
<!-- logical&#45;&gt;bitwise -->
<g id="edge4" class="edge">
<title>logical&#45;&gt;bitwise</title>
<path fill="none" stroke="black" d="M47.28,-431.74C23.75,-401.36 -17.74,-336.92 8.71,-288 16.85,-272.94 31.34,-261.48 45.83,-253.13"/>
<polygon fill="black" stroke="black" points="47.64,-256.13 54.8,-248.33 44.33,-249.96 47.64,-256.13"/>
</g>
<!-- realnumeric -->
<g id="node6" class="node">
<title>realnumeric</title>
<g id="a_node6"><a xlink:href="PsyllaReference_Types.xhtml#PsyllaReference_Types_Details_realnumeric" xlink:title="realnumeric" target="_parent">
<polygon fill="linen" stroke="black" points="334.21,-252 241.21,-252 241.21,-216 340.21,-216 340.21,-246 334.21,-252"/>
<polyline fill="none" stroke="black" points="334.21,-252 334.21,-246 "/>
<polyline fill="none" stroke="black" points="340.21,-246 334.21,-246 "/>
<text text-anchor="middle" x="290.71" y="-230.9" font-family="Source Code Pro,monospace" font-size="12.00">realnumeric</text>
</a>
</g>
</g>
<!-- realnumeric&#45;&gt;rational -->
<g id="edge5" class="edge">
<title>realnumeric&#45;&gt;rational</title>
<path fill="none" stroke="black" d="M276.13,-215.7C269.05,-207.3 260.43,-197.07 252.67,-187.86"/>
<polygon fill="black" stroke="black" points="255.25,-185.49 246.13,-180.1 249.9,-190.01 255.25,-185.49"/>
</g>
<!-- object -->
<g id="node7" class="node">
<title>object</title>
<g id="a_node7"><a xlink:href="PsyllaReference_Types.xhtml#PsyllaReference_Types_Details_object" xlink:title="object" target="_parent">
<polygon fill="linen" stroke="black" points="325.71,-540 269.71,-540 269.71,-504 331.71,-504 331.71,-534 325.71,-540"/>
<polyline fill="none" stroke="black" points="325.71,-540 325.71,-534 "/>
<polyline fill="none" stroke="black" points="331.71,-534 325.71,-534 "/>
<text text-anchor="middle" x="300.71" y="-518.9" font-family="Source Code Pro,monospace" font-size="12.00">object</text>
</a>
</g>
</g>
<!-- object&#45;&gt;logical -->
<g id="edge6" class="edge">
<title>object&#45;&gt;logical</title>
<path fill="none" stroke="black" d="M269.47,-511.85C227.77,-499.64 153.67,-477.93 106.16,-464.02"/>
<polygon fill="black" stroke="black" points="107.03,-460.63 96.45,-461.18 105.06,-467.34 107.03,-460.63"/>
</g>
<!-- convertabletointeger -->
<g id="node9" class="node">
<title>convertabletointeger</title>
<g id="a_node9"><a xlink:href="PsyllaReference_Types.xhtml#PsyllaReference_Types_Details_convertabletointeger" xlink:title="convertabletointeger" target="_parent">
<polygon fill="linen" stroke="black" points="179.21,-324 18.21,-324 18.21,-288 185.21,-288 185.21,-318 179.21,-324"/>
<polyline fill="none" stroke="black" points="179.21,-324 179.21,-318 "/>
<polyline fill="none" stroke="black" points="185.21,-318 179.21,-318 "/>
<text text-anchor="middle" x="101.71" y="-302.9" font-family="Source Code Pro,monospace" font-size="12.00">convertabletointeger</text>
</a>
</g>
</g>
<!-- object&#45;&gt;convertabletointeger -->
<g id="edge13" class="edge">
<title>object&#45;&gt;convertabletointeger</title>
<path fill="none" stroke="black" d="M284.76,-503.85C249.61,-466.05 165.37,-375.45 124.59,-331.6"/>
<polygon fill="black" stroke="black" points="127.11,-329.17 117.74,-324.23 121.98,-333.94 127.11,-329.17"/>
</g>
<!-- convertabletointegral -->
<g id="node10" class="node">
<title>convertabletointegral</title>
<g id="a_node10"><a xlink:href="PsyllaReference_Types.xhtml#PsyllaReference_Types_Details_convertabletointegral" xlink:title="convertabletointegral" target="_parent">
<polygon fill="linen" stroke="black" points="371.71,-324 203.71,-324 203.71,-288 377.71,-288 377.71,-318 371.71,-324"/>
<polyline fill="none" stroke="black" points="371.71,-324 371.71,-318 "/>
<polyline fill="none" stroke="black" points="377.71,-318 371.71,-318 "/>
<text text-anchor="middle" x="290.71" y="-302.9" font-family="Source Code Pro,monospace" font-size="12.00">convertabletointegral</text>
</a>
</g>
</g>
<!-- object&#45;&gt;convertabletointegral -->
<g id="edge14" class="edge">
<title>object&#45;&gt;convertabletointegral</title>
<path fill="none" stroke="black" d="M296.35,-503.65C289.47,-474.18 277.29,-412.45 281.71,-360 282.43,-351.5 283.78,-342.31 285.22,-334.01"/>
<polygon fill="black" stroke="black" points="288.68,-334.56 287.06,-324.09 281.8,-333.29 288.68,-334.56"/>
</g>
<!-- scalar -->
<g id="node11" class="node">
<title>scalar</title>
<g id="a_node11"><a xlink:href="PsyllaReference_Types.xhtml#PsyllaReference_Types_Details_scalar" xlink:title="scalar" target="_parent">
<polygon fill="linen" stroke="black" points="346.71,-396 290.71,-396 290.71,-360 352.71,-360 352.71,-390 346.71,-396"/>
<polyline fill="none" stroke="black" points="346.71,-396 346.71,-390 "/>
<polyline fill="none" stroke="black" points="352.71,-390 346.71,-390 "/>
<text text-anchor="middle" x="321.71" y="-374.9" font-family="Source Code Pro,monospace" font-size="12.00">scalar</text>
</a>
</g>
</g>
<!-- object&#45;&gt;scalar -->
<g id="edge15" class="edge">
<title>object&#45;&gt;scalar</title>
<path fill="none" stroke="black" d="M303.24,-503.87C306.82,-479.67 313.4,-435.21 317.66,-406.39"/>
<polygon fill="black" stroke="black" points="321.17,-406.59 319.17,-396.19 314.24,-405.57 321.17,-406.59"/>
</g>
<!-- atomic -->
<g id="node12" class="node">
<title>atomic</title>
<g id="a_node12"><a xlink:href="PsyllaReference_Types.xhtml#PsyllaReference_Types_Details_atomic" xlink:title="atomic" target="_parent">
<polygon fill="linen" stroke="black" points="426.71,-396 370.71,-396 370.71,-360 432.71,-360 432.71,-390 426.71,-396"/>
<polyline fill="none" stroke="black" points="426.71,-396 426.71,-390 "/>
<polyline fill="none" stroke="black" points="432.71,-390 426.71,-390 "/>
<text text-anchor="middle" x="401.71" y="-374.9" font-family="Source Code Pro,monospace" font-size="12.00">atomic</text>
</a>
</g>
</g>
<!-- object&#45;&gt;atomic -->
<g id="edge16" class="edge">
<title>object&#45;&gt;atomic</title>
<path fill="none" stroke="black" d="M311.11,-503.92C322.34,-485.74 341.01,-456.3 358.71,-432 365.48,-422.71 373.29,-412.85 380.39,-404.19"/>
<polygon fill="black" stroke="black" points="383.23,-406.24 386.91,-396.31 377.84,-401.78 383.23,-406.24"/>
</g>
<!-- additive -->
<g id="node14" class="node">
<title>additive</title>
<g id="a_node14"><a xlink:href="PsyllaReference_Types.xhtml#PsyllaReference_Types_Details_additive" xlink:title="additive" target="_parent">
<polygon fill="linen" stroke="black" points="438.21,-468 367.21,-468 367.21,-432 444.21,-432 444.21,-462 438.21,-468"/>
<polyline fill="none" stroke="black" points="438.21,-468 438.21,-462 "/>
<polyline fill="none" stroke="black" points="444.21,-462 438.21,-462 "/>
<text text-anchor="middle" x="405.71" y="-446.9" font-family="Source Code Pro,monospace" font-size="12.00">additive</text>
</a>
</g>
</g>
<!-- object&#45;&gt;additive -->
<g id="edge19" class="edge">
<title>object&#45;&gt;additive</title>
<path fill="none" stroke="black" d="M326.4,-503.88C340,-494.81 356.88,-483.55 371.57,-473.76"/>
<polygon fill="black" stroke="black" points="373.55,-476.65 379.93,-468.19 369.66,-470.82 373.55,-476.65"/>
</g>
<!-- multiplicative -->
<g id="node15" class="node">
<title>multiplicative</title>
<g id="a_node15"><a xlink:href="PsyllaReference_Types.xhtml#PsyllaReference_Types_Details_multiplicative" xlink:title="multiplicative" target="_parent">
<polygon fill="linen" stroke="black" points="578.71,-468 462.71,-468 462.71,-432 584.71,-432 584.71,-462 578.71,-468"/>
<polyline fill="none" stroke="black" points="578.71,-468 578.71,-462 "/>
<polyline fill="none" stroke="black" points="584.71,-462 578.71,-462 "/>
<text text-anchor="middle" x="523.71" y="-446.9" font-family="Source Code Pro,monospace" font-size="12.00">multiplicative</text>
</a>
</g>
</g>
<!-- object&#45;&gt;multiplicative -->
<g id="edge20" class="edge">
<title>object&#45;&gt;multiplicative</title>
<path fill="none" stroke="black" d="M331.72,-511.27C364.69,-500.92 417.78,-484.25 459.78,-471.07"/>
<polygon fill="black" stroke="black" points="460.89,-474.39 469.38,-468.05 458.79,-467.71 460.89,-474.39"/>
</g>
<!-- numeric -->
<g id="node8" class="node">
<title>numeric</title>
<g id="a_node8"><a xlink:href="PsyllaReference_Types.xhtml#PsyllaReference_Types_Details_numeric" xlink:title="numeric" target="_parent">
<polygon fill="linen" stroke="black" points="497.21,-324 434.21,-324 434.21,-288 503.21,-288 503.21,-318 497.21,-324"/>
<polyline fill="none" stroke="black" points="497.21,-324 497.21,-318 "/>
<polyline fill="none" stroke="black" points="503.21,-318 497.21,-318 "/>
<text text-anchor="middle" x="468.71" y="-302.9" font-family="Source Code Pro,monospace" font-size="12.00">numeric</text>
</a>
</g>
</g>
<!-- numeric&#45;&gt;realnumeric -->
<g id="edge7" class="edge">
<title>numeric&#45;&gt;realnumeric</title>
<path fill="none" stroke="black" d="M433.97,-291.34C408.33,-281.26 372.99,-267.36 343.82,-255.89"/>
<polygon fill="black" stroke="black" points="344.78,-252.5 334.19,-252.1 342.22,-259.02 344.78,-252.5"/>
</g>
<!-- convertabletointeger&#45;&gt;realnumeric -->
<g id="edge8" class="edge">
<title>convertabletointeger&#45;&gt;realnumeric</title>
<path fill="none" stroke="black" d="M147.95,-287.88C174.24,-278.14 207.36,-265.87 235.07,-255.61"/>
<polygon fill="black" stroke="black" points="236.46,-258.82 244.63,-252.07 234.03,-252.26 236.46,-258.82"/>
</g>
<!-- convertabletointegral&#45;&gt;realnumeric -->
<g id="edge9" class="edge">
<title>convertabletointegral&#45;&gt;realnumeric</title>
<path fill="none" stroke="black" d="M290.71,-287.7C290.71,-279.98 290.71,-270.71 290.71,-262.11"/>
<polygon fill="black" stroke="black" points="294.21,-262.1 290.71,-252.1 287.21,-262.1 294.21,-262.1"/>
</g>
<!-- scalar&#45;&gt;realnumeric -->
<g id="edge10" class="edge">
<title>scalar&#45;&gt;realnumeric</title>
<path fill="none" stroke="black" d="M352.95,-360.01C365.92,-351.14 379.59,-338.99 386.71,-324 393.58,-309.55 394.84,-301.78 386.71,-288 378.22,-273.61 364.26,-262.85 349.59,-254.94"/>
<polygon fill="black" stroke="black" points="350.91,-251.69 340.4,-250.36 347.79,-257.95 350.91,-251.69"/>
</g>
<!-- atomic&#45;&gt;numeric -->
<g id="edge11" class="edge">
<title>atomic&#45;&gt;numeric</title>
<path fill="none" stroke="black" d="M418.27,-359.7C426.39,-351.22 436.3,-340.86 445.18,-331.58"/>
<polygon fill="black" stroke="black" points="447.95,-333.75 452.34,-324.1 442.9,-328.91 447.95,-333.75"/>
</g>
<!-- arithmetic -->
<g id="node13" class="node">
<title>arithmetic</title>
<g id="a_node13"><a xlink:href="PsyllaReference_Types.xhtml#PsyllaReference_Types_Details_arithmetic" xlink:title="arithmetic" target="_parent">
<polygon fill="linen" stroke="black" points="536.71,-396 450.71,-396 450.71,-360 542.71,-360 542.71,-390 536.71,-396"/>
<polyline fill="none" stroke="black" points="536.71,-396 536.71,-390 "/>
<polyline fill="none" stroke="black" points="542.71,-390 536.71,-390 "/>
<text text-anchor="middle" x="496.71" y="-374.9" font-family="Source Code Pro,monospace" font-size="12.00">arithmetic</text>
</a>
</g>
</g>
<!-- arithmetic&#45;&gt;numeric -->
<g id="edge12" class="edge">
<title>arithmetic&#45;&gt;numeric</title>
<path fill="none" stroke="black" d="M489.79,-359.7C486.64,-351.81 482.83,-342.3 479.33,-333.55"/>
<polygon fill="black" stroke="black" points="482.52,-332.09 475.55,-324.1 476.02,-334.69 482.52,-332.09"/>
</g>
<!-- additive&#45;&gt;arithmetic -->
<g id="edge17" class="edge">
<title>additive&#45;&gt;arithmetic</title>
<path fill="none" stroke="black" d="M428.21,-431.7C439.67,-422.88 453.77,-412.03 466.19,-402.47"/>
<polygon fill="black" stroke="black" points="468.68,-404.98 474.48,-396.1 464.42,-399.43 468.68,-404.98"/>
</g>
<!-- multiplicative&#45;&gt;arithmetic -->
<g id="edge18" class="edge">
<title>multiplicative&#45;&gt;arithmetic</title>
<path fill="none" stroke="black" d="M517.04,-431.7C514,-423.81 510.33,-414.3 506.95,-405.55"/>
<polygon fill="black" stroke="black" points="510.17,-404.17 503.31,-396.1 503.64,-406.69 510.17,-404.17"/>
</g>
</g>
</svg>
