<?xml version="1.0" encoding="UTF-8" standalone="no"?>
<!DOCTYPE svg PUBLIC "-//W3C//DTD SVG 1.1//EN"
 "http://www.w3.org/Graphics/SVG/1.1/DTD/svg11.dtd">
<!-- Generated by graphviz version 2.43.0 (0)
 -->
<!-- Title: condition Pages: 1 -->
<svg width="79pt" height="116pt"
 viewBox="0.00 0.00 79.00 116.00" xmlns="http://www.w3.org/2000/svg" xmlns:xlink="http://www.w3.org/1999/xlink">
<g id="graph0" class="graph" transform="scale(1 1) rotate(0) translate(4 112)">
<title>condition</title>
<polygon fill="transparent" stroke="transparent" points="-4,4 -4,-112 75,-112 75,4 -4,4"/>
<!-- object -->
<g id="node1" class="node">
<title>object</title>
<g id="a_node1"><a xlink:href="PsyllaReference_Types.xhtml#PsyllaReference_Types_Details_object" xlink:title="object" target="_parent">
<polygon fill="linen" stroke="black" points="56.5,-108 8.5,-108 8.5,-72 62.5,-72 62.5,-102 56.5,-108"/>
<polyline fill="none" stroke="black" points="56.5,-108 56.5,-102 "/>
<polyline fill="none" stroke="black" points="62.5,-102 56.5,-102 "/>
<text text-anchor="middle" x="35.5" y="-87.5" font-family="PT Mono, monospace" font-size="10.00">object</text>
</a>
</g>
</g>
<!-- condition -->
<g id="node2" class="node">
<title>condition</title>
<g id="a_node2"><a xlink:href="PsyllaReference_Types.xhtml#PsyllaReference_Types_Details_condition" xlink:title="condition" target="_parent">
<polygon fill="wheat" stroke="black" points="65,-36 0,-36 0,0 71,0 71,-30 65,-36"/>
<polyline fill="none" stroke="black" points="65,-36 65,-30 "/>
<polyline fill="none" stroke="black" points="71,-30 65,-30 "/>
<text text-anchor="middle" x="35.5" y="-15.5" font-family="PT Mono, monospace" font-size="10.00">condition</text>
</a>
</g>
</g>
<!-- object&#45;&gt;condition -->
<g id="edge1" class="edge">
<title>object&#45;&gt;condition</title>
<path fill="none" stroke="black" d="M35.5,-71.7C35.5,-63.98 35.5,-54.71 35.5,-46.11"/>
<polygon fill="black" stroke="black" points="39,-46.1 35.5,-36.1 32,-46.1 39,-46.1"/>
</g>
</g>
</svg>
