<?xml version="1.0" encoding="UTF-8" standalone="no"?>
<!DOCTYPE svg PUBLIC "-//W3C//DTD SVG 1.1//EN"
 "http://www.w3.org/Graphics/SVG/1.1/DTD/svg11.dtd">
<!-- Generated by graphviz version 2.43.0 (0)
 -->
<!-- Title: bigfraction Pages: 1 -->
<svg width="596pt" height="476pt"
 viewBox="0.00 0.00 595.50 476.00" xmlns="http://www.w3.org/2000/svg" xmlns:xlink="http://www.w3.org/1999/xlink">
<g id="graph0" class="graph" transform="scale(1 1) rotate(0) translate(4 472)">
<title>bigfraction</title>
<polygon fill="transparent" stroke="transparent" points="-4,4 -4,-472 591.5,-472 591.5,4 -4,4"/>
<!-- rational -->
<g id="node1" class="node">
<title>rational</title>
<g id="a_node1"><a xlink:href="PsyllaReference_Types.xhtml#PsyllaReference_Types_Details_rational" xlink:title="rational" target="_parent">
<polygon fill="linen" stroke="black" points="266,-108 195,-108 195,-72 272,-72 272,-102 266,-108"/>
<polyline fill="none" stroke="black" points="266,-108 266,-102 "/>
<polyline fill="none" stroke="black" points="272,-102 266,-102 "/>
<text text-anchor="middle" x="233.5" y="-86.9" font-family="Source Code Pro,monospace" font-size="12.00">rational</text>
</a>
</g>
</g>
<!-- bigfraction -->
<g id="node2" class="node">
<title>bigfraction</title>
<g id="a_node2"><a xlink:href="PsyllaReference_Types.xhtml#PsyllaReference_Types_Details_bigfraction" xlink:title="bigfraction" target="_parent">
<polygon fill="wheat" stroke="black" points="277,-36 184,-36 184,0 283,0 283,-30 277,-36"/>
<polyline fill="none" stroke="black" points="277,-36 277,-30 "/>
<polyline fill="none" stroke="black" points="283,-30 277,-30 "/>
<text text-anchor="middle" x="233.5" y="-14.9" font-family="Source Code Pro,monospace" font-size="12.00">bigfraction</text>
</a>
</g>
</g>
<!-- rational&#45;&gt;bigfraction -->
<g id="edge1" class="edge">
<title>rational&#45;&gt;bigfraction</title>
<path fill="none" stroke="black" d="M233.5,-71.7C233.5,-63.98 233.5,-54.71 233.5,-46.11"/>
<polygon fill="black" stroke="black" points="237,-46.1 233.5,-36.1 230,-46.1 237,-46.1"/>
</g>
<!-- realnumeric -->
<g id="node3" class="node">
<title>realnumeric</title>
<g id="a_node3"><a xlink:href="PsyllaReference_Types.xhtml#PsyllaReference_Types_Details_realnumeric" xlink:title="realnumeric" target="_parent">
<polygon fill="linen" stroke="black" points="277,-180 184,-180 184,-144 283,-144 283,-174 277,-180"/>
<polyline fill="none" stroke="black" points="277,-180 277,-174 "/>
<polyline fill="none" stroke="black" points="283,-174 277,-174 "/>
<text text-anchor="middle" x="233.5" y="-158.9" font-family="Source Code Pro,monospace" font-size="12.00">realnumeric</text>
</a>
</g>
</g>
<!-- realnumeric&#45;&gt;rational -->
<g id="edge2" class="edge">
<title>realnumeric&#45;&gt;rational</title>
<path fill="none" stroke="black" d="M233.5,-143.7C233.5,-135.98 233.5,-126.71 233.5,-118.11"/>
<polygon fill="black" stroke="black" points="237,-118.1 233.5,-108.1 230,-118.1 237,-118.1"/>
</g>
<!-- numeric -->
<g id="node4" class="node">
<title>numeric</title>
<g id="a_node4"><a xlink:href="PsyllaReference_Types.xhtml#PsyllaReference_Types_Details_numeric" xlink:title="numeric" target="_parent">
<polygon fill="linen" stroke="black" points="391,-252 328,-252 328,-216 397,-216 397,-246 391,-252"/>
<polyline fill="none" stroke="black" points="391,-252 391,-246 "/>
<polyline fill="none" stroke="black" points="397,-246 391,-246 "/>
<text text-anchor="middle" x="362.5" y="-230.9" font-family="Source Code Pro,monospace" font-size="12.00">numeric</text>
</a>
</g>
</g>
<!-- numeric&#45;&gt;realnumeric -->
<g id="edge3" class="edge">
<title>numeric&#45;&gt;realnumeric</title>
<path fill="none" stroke="black" d="M330.94,-215.88C313.84,-206.6 292.52,-195.03 274.18,-185.08"/>
<polygon fill="black" stroke="black" points="275.64,-181.88 265.18,-180.19 272.3,-188.04 275.64,-181.88"/>
</g>
<!-- convertabletointeger -->
<g id="node5" class="node">
<title>convertabletointeger</title>
<g id="a_node5"><a xlink:href="PsyllaReference_Types.xhtml#PsyllaReference_Types_Details_convertabletointeger" xlink:title="convertabletointeger" target="_parent">
<polygon fill="linen" stroke="black" points="161,-252 0,-252 0,-216 167,-216 167,-246 161,-252"/>
<polyline fill="none" stroke="black" points="161,-252 161,-246 "/>
<polyline fill="none" stroke="black" points="167,-246 161,-246 "/>
<text text-anchor="middle" x="83.5" y="-230.9" font-family="Source Code Pro,monospace" font-size="12.00">convertabletointeger</text>
</a>
</g>
</g>
<!-- convertabletointeger&#45;&gt;realnumeric -->
<g id="edge4" class="edge">
<title>convertabletointeger&#45;&gt;realnumeric</title>
<path fill="none" stroke="black" d="M120.19,-215.88C140.52,-206.39 165.97,-194.51 187.6,-184.42"/>
<polygon fill="black" stroke="black" points="189.34,-187.47 196.93,-180.07 186.38,-181.13 189.34,-187.47"/>
</g>
<!-- convertabletointegral -->
<g id="node6" class="node">
<title>convertabletointegral</title>
<g id="a_node6"><a xlink:href="PsyllaReference_Types.xhtml#PsyllaReference_Types_Details_convertabletointegral" xlink:title="convertabletointegral" target="_parent">
<polygon fill="linen" stroke="black" points="269.5,-324 101.5,-324 101.5,-288 275.5,-288 275.5,-318 269.5,-324"/>
<polyline fill="none" stroke="black" points="269.5,-324 269.5,-318 "/>
<polyline fill="none" stroke="black" points="275.5,-318 269.5,-318 "/>
<text text-anchor="middle" x="188.5" y="-302.9" font-family="Source Code Pro,monospace" font-size="12.00">convertabletointegral</text>
</a>
</g>
</g>
<!-- convertabletointegral&#45;&gt;realnumeric -->
<g id="edge5" class="edge">
<title>convertabletointegral&#45;&gt;realnumeric</title>
<path fill="none" stroke="black" d="M193.93,-287.87C201.63,-263.56 215.81,-218.82 224.94,-190.01"/>
<polygon fill="black" stroke="black" points="228.37,-190.78 228.05,-180.19 221.7,-188.66 228.37,-190.78"/>
</g>
<!-- scalar -->
<g id="node7" class="node">
<title>scalar</title>
<g id="a_node7"><a xlink:href="PsyllaReference_Types.xhtml#PsyllaReference_Types_Details_scalar" xlink:title="scalar" target="_parent">
<polygon fill="linen" stroke="black" points="288.5,-252 232.5,-252 232.5,-216 294.5,-216 294.5,-246 288.5,-252"/>
<polyline fill="none" stroke="black" points="288.5,-252 288.5,-246 "/>
<polyline fill="none" stroke="black" points="294.5,-246 288.5,-246 "/>
<text text-anchor="middle" x="263.5" y="-230.9" font-family="Source Code Pro,monospace" font-size="12.00">scalar</text>
</a>
</g>
</g>
<!-- scalar&#45;&gt;realnumeric -->
<g id="edge6" class="edge">
<title>scalar&#45;&gt;realnumeric</title>
<path fill="none" stroke="black" d="M256.08,-215.7C252.71,-207.81 248.63,-198.3 244.88,-189.55"/>
<polygon fill="black" stroke="black" points="247.99,-187.92 240.83,-180.1 241.55,-190.67 247.99,-187.92"/>
</g>
<!-- atomic -->
<g id="node8" class="node">
<title>atomic</title>
<g id="a_node8"><a xlink:href="PsyllaReference_Types.xhtml#PsyllaReference_Types_Details_atomic" xlink:title="atomic" target="_parent">
<polygon fill="linen" stroke="black" points="387.5,-324 331.5,-324 331.5,-288 393.5,-288 393.5,-318 387.5,-324"/>
<polyline fill="none" stroke="black" points="387.5,-324 387.5,-318 "/>
<polyline fill="none" stroke="black" points="393.5,-318 387.5,-318 "/>
<text text-anchor="middle" x="362.5" y="-302.9" font-family="Source Code Pro,monospace" font-size="12.00">atomic</text>
</a>
</g>
</g>
<!-- atomic&#45;&gt;numeric -->
<g id="edge7" class="edge">
<title>atomic&#45;&gt;numeric</title>
<path fill="none" stroke="black" d="M362.5,-287.7C362.5,-279.98 362.5,-270.71 362.5,-262.11"/>
<polygon fill="black" stroke="black" points="366,-262.1 362.5,-252.1 359,-262.1 366,-262.1"/>
</g>
<!-- arithmetic -->
<g id="node9" class="node">
<title>arithmetic</title>
<g id="a_node9"><a xlink:href="PsyllaReference_Types.xhtml#PsyllaReference_Types_Details_arithmetic" xlink:title="arithmetic" target="_parent">
<polygon fill="linen" stroke="black" points="497.5,-324 411.5,-324 411.5,-288 503.5,-288 503.5,-318 497.5,-324"/>
<polyline fill="none" stroke="black" points="497.5,-324 497.5,-318 "/>
<polyline fill="none" stroke="black" points="503.5,-318 497.5,-318 "/>
<text text-anchor="middle" x="457.5" y="-302.9" font-family="Source Code Pro,monospace" font-size="12.00">arithmetic</text>
</a>
</g>
</g>
<!-- arithmetic&#45;&gt;numeric -->
<g id="edge8" class="edge">
<title>arithmetic&#45;&gt;numeric</title>
<path fill="none" stroke="black" d="M434.02,-287.7C421.94,-278.8 407.05,-267.82 393.98,-258.2"/>
<polygon fill="black" stroke="black" points="395.84,-255.22 385.71,-252.1 391.69,-260.85 395.84,-255.22"/>
</g>
<!-- object -->
<g id="node10" class="node">
<title>object</title>
<g id="a_node10"><a xlink:href="PsyllaReference_Types.xhtml#PsyllaReference_Types_Details_object" xlink:title="object" target="_parent">
<polygon fill="linen" stroke="black" points="347.5,-468 291.5,-468 291.5,-432 353.5,-432 353.5,-462 347.5,-468"/>
<polyline fill="none" stroke="black" points="347.5,-468 347.5,-462 "/>
<polyline fill="none" stroke="black" points="353.5,-462 347.5,-462 "/>
<text text-anchor="middle" x="322.5" y="-446.9" font-family="Source Code Pro,monospace" font-size="12.00">object</text>
</a>
</g>
</g>
<!-- object&#45;&gt;convertabletointeger -->
<g id="edge9" class="edge">
<title>object&#45;&gt;convertabletointeger</title>
<path fill="none" stroke="black" d="M291.23,-441.97C240.05,-428.66 139.44,-394.58 92.5,-324 80.51,-305.97 78.91,-281.18 79.94,-262.35"/>
<polygon fill="black" stroke="black" points="83.43,-262.56 80.76,-252.31 76.46,-261.99 83.43,-262.56"/>
</g>
<!-- object&#45;&gt;convertabletointegral -->
<g id="edge10" class="edge">
<title>object&#45;&gt;convertabletointegral</title>
<path fill="none" stroke="black" d="M306.34,-431.87C282.79,-406.92 238.94,-360.45 211.88,-331.77"/>
<polygon fill="black" stroke="black" points="214.13,-329.06 204.72,-324.19 209.04,-333.86 214.13,-329.06"/>
</g>
<!-- object&#45;&gt;scalar -->
<g id="edge11" class="edge">
<title>object&#45;&gt;scalar</title>
<path fill="none" stroke="black" d="M319.31,-431.86C313.59,-402.19 300.69,-339.51 284.5,-288 281.77,-279.31 278.29,-270.03 274.95,-261.69"/>
<polygon fill="black" stroke="black" points="278.19,-260.36 271.15,-252.44 271.71,-263.02 278.19,-260.36"/>
</g>
<!-- object&#45;&gt;atomic -->
<g id="edge12" class="edge">
<title>object&#45;&gt;atomic</title>
<path fill="none" stroke="black" d="M327.32,-431.87C334.17,-407.56 346.78,-362.82 354.89,-334.01"/>
<polygon fill="black" stroke="black" points="358.32,-334.76 357.66,-324.19 351.58,-332.87 358.32,-334.76"/>
</g>
<!-- additive -->
<g id="node11" class="node">
<title>additive</title>
<g id="a_node11"><a xlink:href="PsyllaReference_Types.xhtml#PsyllaReference_Types_Details_additive" xlink:title="additive" target="_parent">
<polygon fill="linen" stroke="black" points="441,-396 370,-396 370,-360 447,-360 447,-390 441,-396"/>
<polyline fill="none" stroke="black" points="441,-396 441,-390 "/>
<polyline fill="none" stroke="black" points="447,-390 441,-390 "/>
<text text-anchor="middle" x="408.5" y="-374.9" font-family="Source Code Pro,monospace" font-size="12.00">additive</text>
</a>
</g>
</g>
<!-- object&#45;&gt;additive -->
<g id="edge15" class="edge">
<title>object&#45;&gt;additive</title>
<path fill="none" stroke="black" d="M343.76,-431.7C354.59,-422.88 367.92,-412.03 379.66,-402.47"/>
<polygon fill="black" stroke="black" points="381.94,-405.13 387.49,-396.1 377.52,-399.7 381.94,-405.13"/>
</g>
<!-- multiplicative -->
<g id="node12" class="node">
<title>multiplicative</title>
<g id="a_node12"><a xlink:href="PsyllaReference_Types.xhtml#PsyllaReference_Types_Details_multiplicative" xlink:title="multiplicative" target="_parent">
<polygon fill="linen" stroke="black" points="581.5,-396 465.5,-396 465.5,-360 587.5,-360 587.5,-390 581.5,-396"/>
<polyline fill="none" stroke="black" points="581.5,-396 581.5,-390 "/>
<polyline fill="none" stroke="black" points="587.5,-390 581.5,-390 "/>
<text text-anchor="middle" x="526.5" y="-374.9" font-family="Source Code Pro,monospace" font-size="12.00">multiplicative</text>
</a>
</g>
</g>
<!-- object&#45;&gt;multiplicative -->
<g id="edge16" class="edge">
<title>object&#45;&gt;multiplicative</title>
<path fill="none" stroke="black" d="M353.93,-438.22C383.99,-427.9 430.09,-412.08 467.08,-399.39"/>
<polygon fill="black" stroke="black" points="468.44,-402.62 476.76,-396.07 466.17,-396 468.44,-402.62"/>
</g>
<!-- additive&#45;&gt;arithmetic -->
<g id="edge13" class="edge">
<title>additive&#45;&gt;arithmetic</title>
<path fill="none" stroke="black" d="M420.61,-359.7C426.37,-351.47 433.36,-341.48 439.71,-332.42"/>
<polygon fill="black" stroke="black" points="442.66,-334.3 445.53,-324.1 436.92,-330.29 442.66,-334.3"/>
</g>
<!-- multiplicative&#45;&gt;arithmetic -->
<g id="edge14" class="edge">
<title>multiplicative&#45;&gt;arithmetic</title>
<path fill="none" stroke="black" d="M509.44,-359.7C501,-351.14 490.68,-340.66 481.46,-331.3"/>
<polygon fill="black" stroke="black" points="483.87,-328.77 474.36,-324.1 478.89,-333.68 483.87,-328.77"/>
</g>
</g>
</svg>
