<?xml version="1.0" encoding="UTF-8" standalone="no"?>
<!DOCTYPE svg PUBLIC "-//W3C//DTD SVG 1.1//EN"
 "http://www.w3.org/Graphics/SVG/1.1/DTD/svg11.dtd">
<!-- Generated by graphviz version 2.43.0 (0)
 -->
<!-- Title: formalstream Pages: 1 -->
<svg width="288pt" height="260pt"
 viewBox="0.00 0.00 288.00 260.00" xmlns="http://www.w3.org/2000/svg" xmlns:xlink="http://www.w3.org/1999/xlink">
<g id="graph0" class="graph" transform="scale(1 1) rotate(0) translate(4 256)">
<title>formalstream</title>
<polygon fill="transparent" stroke="transparent" points="-4,4 -4,-256 284,-256 284,4 -4,4"/>
<!-- streamable -->
<g id="node1" class="node">
<title>streamable</title>
<g id="a_node1"><a xlink:href="PsyllaReference_Types.xhtml#PsyllaReference_Types_Details_streamable" xlink:title="streamable" target="_parent">
<polygon fill="linen" stroke="black" points="274,-108 143,-108 143,-72 280,-72 280,-102 274,-108"/>
<polyline fill="none" stroke="black" points="274,-108 274,-102 "/>
<polyline fill="none" stroke="black" points="280,-102 274,-102 "/>
<text text-anchor="middle" x="211.5" y="-85" font-family="PT Mono, monospace" font-size="20.00">streamable</text>
</a>
</g>
</g>
<!-- formalstream -->
<g id="node3" class="node">
<title>formalstream</title>
<g id="a_node3"><a xlink:href="PsyllaReference_Types.xhtml#PsyllaReference_Types_Details_formalstream" xlink:title="formalstream" target="_parent">
<polygon fill="wheat" stroke="black" points="211,-36 56,-36 56,0 217,0 217,-30 211,-36"/>
<polyline fill="none" stroke="black" points="211,-36 211,-30 "/>
<polyline fill="none" stroke="black" points="217,-30 211,-30 "/>
<text text-anchor="middle" x="136.5" y="-13" font-family="PT Mono, monospace" font-size="20.00">formalstream</text>
</a>
</g>
</g>
<!-- streamable&#45;&gt;formalstream -->
<g id="edge1" class="edge">
<title>streamable&#45;&gt;formalstream</title>
<path fill="none" stroke="black" d="M192.96,-71.7C183.7,-63.05 172.34,-52.45 162.24,-43.03"/>
<polygon fill="black" stroke="black" points="164.52,-40.37 154.83,-36.1 159.75,-45.49 164.52,-40.37"/>
</g>
<!-- closeable -->
<g id="node2" class="node">
<title>closeable</title>
<g id="a_node2"><a xlink:href="PsyllaReference_Types.xhtml#PsyllaReference_Types_Details_closeable" xlink:title="closeable" target="_parent">
<polygon fill="linen" stroke="black" points="119,-108 0,-108 0,-72 125,-72 125,-102 119,-108"/>
<polyline fill="none" stroke="black" points="119,-108 119,-102 "/>
<polyline fill="none" stroke="black" points="125,-102 119,-102 "/>
<text text-anchor="middle" x="62.5" y="-85" font-family="PT Mono, monospace" font-size="20.00">closeable</text>
</a>
</g>
</g>
<!-- closeable&#45;&gt;formalstream -->
<g id="edge2" class="edge">
<title>closeable&#45;&gt;formalstream</title>
<path fill="none" stroke="black" d="M80.79,-71.7C89.93,-63.05 101.14,-52.45 111.1,-43.03"/>
<polygon fill="black" stroke="black" points="113.56,-45.52 118.42,-36.1 108.75,-40.43 113.56,-45.52"/>
</g>
<!-- sequential -->
<g id="node4" class="node">
<title>sequential</title>
<g id="a_node4"><a xlink:href="PsyllaReference_Types.xhtml#PsyllaReference_Types_Details_sequential" xlink:title="sequential" target="_parent">
<polygon fill="linen" stroke="black" points="261,-180 130,-180 130,-144 267,-144 267,-174 261,-180"/>
<polyline fill="none" stroke="black" points="261,-180 261,-174 "/>
<polyline fill="none" stroke="black" points="267,-174 261,-174 "/>
<text text-anchor="middle" x="198.5" y="-157" font-family="PT Mono, monospace" font-size="20.00">sequential</text>
</a>
</g>
</g>
<!-- sequential&#45;&gt;streamable -->
<g id="edge3" class="edge">
<title>sequential&#45;&gt;streamable</title>
<path fill="none" stroke="black" d="M201.71,-143.7C203.15,-135.98 204.87,-126.71 206.46,-118.11"/>
<polygon fill="black" stroke="black" points="209.94,-118.58 208.32,-108.1 203.06,-117.3 209.94,-118.58"/>
</g>
<!-- object -->
<g id="node5" class="node">
<title>object</title>
<g id="a_node5"><a xlink:href="PsyllaReference_Types.xhtml#PsyllaReference_Types_Details_object" xlink:title="object" target="_parent">
<polygon fill="linen" stroke="black" points="175,-252 92,-252 92,-216 181,-216 181,-246 175,-252"/>
<polyline fill="none" stroke="black" points="175,-252 175,-246 "/>
<polyline fill="none" stroke="black" points="181,-246 175,-246 "/>
<text text-anchor="middle" x="136.5" y="-229" font-family="PT Mono, monospace" font-size="20.00">object</text>
</a>
</g>
</g>
<!-- object&#45;&gt;closeable -->
<g id="edge4" class="edge">
<title>object&#45;&gt;closeable</title>
<path fill="none" stroke="black" d="M127.57,-215.87C114.8,-191.35 91.18,-146.03 76.18,-117.26"/>
<polygon fill="black" stroke="black" points="79.18,-115.44 71.46,-108.19 72.98,-118.67 79.18,-115.44"/>
</g>
<!-- object&#45;&gt;sequential -->
<g id="edge5" class="edge">
<title>object&#45;&gt;sequential</title>
<path fill="none" stroke="black" d="M151.83,-215.7C159.26,-207.3 168.32,-197.07 176.48,-187.86"/>
<polygon fill="black" stroke="black" points="179.34,-189.91 183.35,-180.1 174.1,-185.27 179.34,-189.91"/>
</g>
</g>
</svg>
