<?xml version="1.0" encoding="UTF-8" standalone="no"?>
<!DOCTYPE svg PUBLIC "-//W3C//DTD SVG 1.1//EN"
 "http://www.w3.org/Graphics/SVG/1.1/DTD/svg11.dtd">
<!-- Generated by graphviz version 2.43.0 (0)
 -->
<!-- Title: reader Pages: 1 -->
<svg width="300pt" height="260pt"
 viewBox="0.00 0.00 300.00 260.00" xmlns="http://www.w3.org/2000/svg" xmlns:xlink="http://www.w3.org/1999/xlink">
<g id="graph0" class="graph" transform="scale(1 1) rotate(0) translate(4 256)">
<title>reader</title>
<polygon fill="transparent" stroke="transparent" points="-4,4 -4,-256 296,-256 296,4 -4,4"/>
<!-- closeable -->
<g id="node1" class="node">
<title>closeable</title>
<g id="a_node1"><a xlink:href="PsyllaReference_Types.xhtml#PsyllaReference_Types_Details_closeable" xlink:title="closeable" target="_parent">
<polygon fill="linen" stroke="black" points="65,-108 0,-108 0,-72 71,-72 71,-102 65,-108"/>
<polyline fill="none" stroke="black" points="65,-108 65,-102 "/>
<polyline fill="none" stroke="black" points="71,-102 65,-102 "/>
<text text-anchor="middle" x="35.5" y="-87.5" font-family="PT Mono, monospace" font-size="10.00">closeable</text>
</a>
</g>
</g>
<!-- reader -->
<g id="node5" class="node">
<title>reader</title>
<g id="a_node5"><a xlink:href="PsyllaReference_Types.xhtml#PsyllaReference_Types_Details_reader" xlink:title="reader" target="_parent">
<polygon fill="wheat" stroke="black" points="177.5,-36 129.5,-36 129.5,0 183.5,0 183.5,-30 177.5,-36"/>
<polyline fill="none" stroke="black" points="177.5,-36 177.5,-30 "/>
<polyline fill="none" stroke="black" points="183.5,-30 177.5,-30 "/>
<text text-anchor="middle" x="156.5" y="-15.5" font-family="PT Mono, monospace" font-size="10.00">reader</text>
</a>
</g>
</g>
<!-- closeable&#45;&gt;reader -->
<g id="edge1" class="edge">
<title>closeable&#45;&gt;reader</title>
<path fill="none" stroke="black" d="M65.1,-71.88C81.78,-62.23 102.75,-50.1 120.39,-39.89"/>
<polygon fill="black" stroke="black" points="122.37,-42.79 129.27,-34.75 118.87,-36.73 122.37,-42.79"/>
</g>
<!-- evaluable -->
<g id="node2" class="node">
<title>evaluable</title>
<g id="a_node2"><a xlink:href="PsyllaReference_Types.xhtml#PsyllaReference_Types_Details_evaluable" xlink:title="evaluable" target="_parent">
<polygon fill="linen" stroke="black" points="154,-108 89,-108 89,-72 160,-72 160,-102 154,-108"/>
<polyline fill="none" stroke="black" points="154,-108 154,-102 "/>
<polyline fill="none" stroke="black" points="160,-102 154,-102 "/>
<text text-anchor="middle" x="124.5" y="-87.5" font-family="PT Mono, monospace" font-size="10.00">evaluable</text>
</a>
</g>
</g>
<!-- evaluable&#45;&gt;reader -->
<g id="edge2" class="edge">
<title>evaluable&#45;&gt;reader</title>
<path fill="none" stroke="black" d="M132.41,-71.7C136.05,-63.73 140.45,-54.1 144.49,-45.26"/>
<polygon fill="black" stroke="black" points="147.71,-46.65 148.68,-36.1 141.34,-43.74 147.71,-46.65"/>
</g>
<!-- readable -->
<g id="node3" class="node">
<title>readable</title>
<g id="a_node3"><a xlink:href="PsyllaReference_Types.xhtml#PsyllaReference_Types_Details_readable" xlink:title="readable" target="_parent">
<polygon fill="linen" stroke="black" points="286,-108 227,-108 227,-72 292,-72 292,-102 286,-108"/>
<polyline fill="none" stroke="black" points="286,-108 286,-102 "/>
<polyline fill="none" stroke="black" points="292,-102 286,-102 "/>
<text text-anchor="middle" x="259.5" y="-87.5" font-family="PT Mono, monospace" font-size="10.00">readable</text>
</a>
</g>
</g>
<!-- readable&#45;&gt;reader -->
<g id="edge3" class="edge">
<title>readable&#45;&gt;reader</title>
<path fill="none" stroke="black" d="M234.3,-71.88C221.09,-62.89 204.71,-51.76 190.39,-42.03"/>
<polygon fill="black" stroke="black" points="192.03,-38.92 181.79,-36.19 188.1,-44.71 192.03,-38.92"/>
</g>
<!-- resetable -->
<g id="node4" class="node">
<title>resetable</title>
<g id="a_node4"><a xlink:href="PsyllaReference_Types.xhtml#PsyllaReference_Types_Details_resetable" xlink:title="resetable" target="_parent">
<polygon fill="linen" stroke="black" points="213,-180 148,-180 148,-144 219,-144 219,-174 213,-180"/>
<polyline fill="none" stroke="black" points="213,-180 213,-174 "/>
<polyline fill="none" stroke="black" points="219,-174 213,-174 "/>
<text text-anchor="middle" x="183.5" y="-159.5" font-family="PT Mono, monospace" font-size="10.00">resetable</text>
</a>
</g>
</g>
<!-- resetable&#45;&gt;reader -->
<g id="edge4" class="edge">
<title>resetable&#45;&gt;reader</title>
<path fill="none" stroke="black" d="M180.91,-143.89C178.12,-125.93 173.41,-96.9 168.5,-72 166.83,-63.54 164.82,-54.36 162.93,-46.06"/>
<polygon fill="black" stroke="black" points="166.3,-45.09 160.63,-36.13 159.48,-46.67 166.3,-45.09"/>
</g>
<!-- object -->
<g id="node6" class="node">
<title>object</title>
<g id="a_node6"><a xlink:href="PsyllaReference_Types.xhtml#PsyllaReference_Types_Details_object" xlink:title="object" target="_parent">
<polygon fill="linen" stroke="black" points="172.5,-252 124.5,-252 124.5,-216 178.5,-216 178.5,-246 172.5,-252"/>
<polyline fill="none" stroke="black" points="172.5,-252 172.5,-246 "/>
<polyline fill="none" stroke="black" points="178.5,-246 172.5,-246 "/>
<text text-anchor="middle" x="151.5" y="-231.5" font-family="PT Mono, monospace" font-size="10.00">object</text>
</a>
</g>
</g>
<!-- object&#45;&gt;closeable -->
<g id="edge5" class="edge">
<title>object&#45;&gt;closeable</title>
<path fill="none" stroke="black" d="M137.51,-215.87C117.22,-191.03 79.49,-144.85 56.04,-116.14"/>
<polygon fill="black" stroke="black" points="58.58,-113.72 49.54,-108.19 53.16,-118.15 58.58,-113.72"/>
</g>
<!-- object&#45;&gt;evaluable -->
<g id="edge6" class="edge">
<title>object&#45;&gt;evaluable</title>
<path fill="none" stroke="black" d="M146.92,-215.9C144.24,-205.55 140.93,-192.08 138.5,-180 134.37,-159.43 130.72,-135.97 128.19,-118.31"/>
<polygon fill="black" stroke="black" points="131.61,-117.55 126.76,-108.14 124.68,-118.53 131.61,-117.55"/>
</g>
<!-- object&#45;&gt;resetable -->
<g id="edge8" class="edge">
<title>object&#45;&gt;resetable</title>
<path fill="none" stroke="black" d="M159.41,-215.7C163.05,-207.73 167.45,-198.1 171.49,-189.26"/>
<polygon fill="black" stroke="black" points="174.71,-190.65 175.68,-180.1 168.34,-187.74 174.71,-190.65"/>
</g>
<!-- ready -->
<g id="node7" class="node">
<title>ready</title>
<g id="a_node7"><a xlink:href="PsyllaReference_Types.xhtml#PsyllaReference_Types_Details_ready" xlink:title="ready" target="_parent">
<polygon fill="linen" stroke="black" points="285.5,-180 237.5,-180 237.5,-144 291.5,-144 291.5,-174 285.5,-180"/>
<polyline fill="none" stroke="black" points="285.5,-180 285.5,-174 "/>
<polyline fill="none" stroke="black" points="291.5,-174 285.5,-174 "/>
<text text-anchor="middle" x="264.5" y="-159.5" font-family="PT Mono, monospace" font-size="10.00">ready</text>
</a>
</g>
</g>
<!-- object&#45;&gt;ready -->
<g id="edge9" class="edge">
<title>object&#45;&gt;ready</title>
<path fill="none" stroke="black" d="M178.57,-216.23C193.55,-206.95 212.37,-195.29 228.57,-185.26"/>
<polygon fill="black" stroke="black" points="230.6,-188.11 237.26,-179.87 226.92,-182.16 230.6,-188.11"/>
</g>
<!-- ready&#45;&gt;readable -->
<g id="edge7" class="edge">
<title>ready&#45;&gt;readable</title>
<path fill="none" stroke="black" d="M263.26,-143.7C262.71,-135.98 262.05,-126.71 261.44,-118.11"/>
<polygon fill="black" stroke="black" points="264.93,-117.83 260.72,-108.1 257.94,-118.33 264.93,-117.83"/>
</g>
</g>
</svg>
