<?xml version="1.0" encoding="UTF-8" standalone="no"?>
<!DOCTYPE svg PUBLIC "-//W3C//DTD SVG 1.1//EN"
 "http://www.w3.org/Graphics/SVG/1.1/DTD/svg11.dtd">
<!-- Generated by graphviz version 2.43.0 (0)
 -->
<!-- Title: integral Pages: 1 -->
<svg width="410pt" height="404pt"
 viewBox="0.00 0.00 410.00 404.00" xmlns="http://www.w3.org/2000/svg" xmlns:xlink="http://www.w3.org/1999/xlink">
<g id="graph0" class="graph" transform="scale(1 1) rotate(0) translate(4 400)">
<title>integral</title>
<polygon fill="transparent" stroke="transparent" points="-4,4 -4,-400 406,-400 406,4 -4,4"/>
<!-- bitwise -->
<g id="node1" class="node">
<title>bitwise</title>
<g id="a_node1"><a xlink:href="PsyllaReference_Types.xhtml#PsyllaReference_Types_Details_bitwise" xlink:title="bitwise" target="_parent">
<polygon fill="linen" stroke="black" points="95,-108 0,-108 0,-72 101,-72 101,-102 95,-108"/>
<polyline fill="none" stroke="black" points="95,-108 95,-102 "/>
<polyline fill="none" stroke="black" points="101,-102 95,-102 "/>
<text text-anchor="middle" x="50.5" y="-85" font-family="PT Mono, monospace" font-size="20.00">bitwise</text>
</a>
</g>
</g>
<!-- integral -->
<g id="node3" class="node">
<title>integral</title>
<g id="a_node3"><a xlink:href="PsyllaReference_Types.xhtml#PsyllaReference_Types_Details_integral" xlink:title="integral" target="_parent">
<polygon fill="wheat" stroke="black" points="172,-36 65,-36 65,0 178,0 178,-30 172,-36"/>
<polyline fill="none" stroke="black" points="172,-36 172,-30 "/>
<polyline fill="none" stroke="black" points="178,-30 172,-30 "/>
<text text-anchor="middle" x="121.5" y="-13" font-family="PT Mono, monospace" font-size="20.00">integral</text>
</a>
</g>
</g>
<!-- bitwise&#45;&gt;integral -->
<g id="edge1" class="edge">
<title>bitwise&#45;&gt;integral</title>
<path fill="none" stroke="black" d="M68.05,-71.7C76.73,-63.14 87.36,-52.66 96.85,-43.3"/>
<polygon fill="black" stroke="black" points="99.49,-45.62 104.15,-36.1 94.57,-40.63 99.49,-45.62"/>
</g>
<!-- realnumeric -->
<g id="node2" class="node">
<title>realnumeric</title>
<g id="a_node2"><a xlink:href="PsyllaReference_Types.xhtml#PsyllaReference_Types_Details_realnumeric" xlink:title="realnumeric" target="_parent">
<polygon fill="linen" stroke="black" points="262,-108 119,-108 119,-72 268,-72 268,-102 262,-108"/>
<polyline fill="none" stroke="black" points="262,-108 262,-102 "/>
<polyline fill="none" stroke="black" points="268,-102 262,-102 "/>
<text text-anchor="middle" x="193.5" y="-85" font-family="PT Mono, monospace" font-size="20.00">realnumeric</text>
</a>
</g>
</g>
<!-- realnumeric&#45;&gt;integral -->
<g id="edge2" class="edge">
<title>realnumeric&#45;&gt;integral</title>
<path fill="none" stroke="black" d="M175.7,-71.7C166.9,-63.14 156.12,-52.66 146.5,-43.3"/>
<polygon fill="black" stroke="black" points="148.7,-40.57 139.09,-36.1 143.82,-45.58 148.7,-40.57"/>
</g>
<!-- logical -->
<g id="node4" class="node">
<title>logical</title>
<g id="a_node4"><a xlink:href="PsyllaReference_Types.xhtml#PsyllaReference_Types_Details_logical" xlink:title="logical" target="_parent">
<polygon fill="linen" stroke="black" points="95,-324 0,-324 0,-288 101,-288 101,-318 95,-324"/>
<polyline fill="none" stroke="black" points="95,-324 95,-318 "/>
<polyline fill="none" stroke="black" points="101,-318 95,-318 "/>
<text text-anchor="middle" x="50.5" y="-301" font-family="PT Mono, monospace" font-size="20.00">logical</text>
</a>
</g>
</g>
<!-- logical&#45;&gt;bitwise -->
<g id="edge3" class="edge">
<title>logical&#45;&gt;bitwise</title>
<path fill="none" stroke="black" d="M50.5,-287.85C50.5,-250.83 50.5,-163.18 50.5,-118.39"/>
<polygon fill="black" stroke="black" points="54,-118.23 50.5,-108.23 47,-118.23 54,-118.23"/>
</g>
<!-- numeric -->
<g id="node5" class="node">
<title>numeric</title>
<g id="a_node5"><a xlink:href="PsyllaReference_Types.xhtml#PsyllaReference_Types_Details_numeric" xlink:title="numeric" target="_parent">
<polygon fill="linen" stroke="black" points="287,-180 192,-180 192,-144 293,-144 293,-174 287,-180"/>
<polyline fill="none" stroke="black" points="287,-180 287,-174 "/>
<polyline fill="none" stroke="black" points="293,-174 287,-174 "/>
<text text-anchor="middle" x="242.5" y="-157" font-family="PT Mono, monospace" font-size="20.00">numeric</text>
</a>
</g>
</g>
<!-- numeric&#45;&gt;realnumeric -->
<g id="edge4" class="edge">
<title>numeric&#45;&gt;realnumeric</title>
<path fill="none" stroke="black" d="M230.39,-143.7C224.63,-135.47 217.64,-125.48 211.29,-116.42"/>
<polygon fill="black" stroke="black" points="214.08,-114.29 205.47,-108.1 208.34,-118.3 214.08,-114.29"/>
</g>
<!-- scalar -->
<g id="node6" class="node">
<title>scalar</title>
<g id="a_node6"><a xlink:href="PsyllaReference_Types.xhtml#PsyllaReference_Types_Details_scalar" xlink:title="scalar" target="_parent">
<polygon fill="linen" stroke="black" points="168,-180 85,-180 85,-144 174,-144 174,-174 168,-180"/>
<polyline fill="none" stroke="black" points="168,-180 168,-174 "/>
<polyline fill="none" stroke="black" points="174,-174 168,-174 "/>
<text text-anchor="middle" x="129.5" y="-157" font-family="PT Mono, monospace" font-size="20.00">scalar</text>
</a>
</g>
</g>
<!-- scalar&#45;&gt;realnumeric -->
<g id="edge5" class="edge">
<title>scalar&#45;&gt;realnumeric</title>
<path fill="none" stroke="black" d="M145.32,-143.7C153.07,-135.22 162.54,-124.86 171.02,-115.58"/>
<polygon fill="black" stroke="black" points="173.7,-117.85 177.86,-108.1 168.53,-113.12 173.7,-117.85"/>
</g>
<!-- object -->
<g id="node7" class="node">
<title>object</title>
<g id="a_node7"><a xlink:href="PsyllaReference_Types.xhtml#PsyllaReference_Types_Details_object" xlink:title="object" target="_parent">
<polygon fill="linen" stroke="black" points="204,-396 121,-396 121,-360 210,-360 210,-390 204,-396"/>
<polyline fill="none" stroke="black" points="204,-396 204,-390 "/>
<polyline fill="none" stroke="black" points="210,-390 204,-390 "/>
<text text-anchor="middle" x="165.5" y="-373" font-family="PT Mono, monospace" font-size="20.00">object</text>
</a>
</g>
</g>
<!-- object&#45;&gt;logical -->
<g id="edge6" class="edge">
<title>object&#45;&gt;logical</title>
<path fill="none" stroke="black" d="M137.37,-359.88C122.33,-350.72 103.63,-339.34 87.44,-329.48"/>
<polygon fill="black" stroke="black" points="89.1,-326.4 78.74,-324.19 85.46,-332.38 89.1,-326.4"/>
</g>
<!-- object&#45;&gt;scalar -->
<g id="edge9" class="edge">
<title>object&#45;&gt;scalar</title>
<path fill="none" stroke="black" d="M162.61,-359.85C156.37,-322.75 141.58,-234.81 134.06,-190.1"/>
<polygon fill="black" stroke="black" points="137.51,-189.51 132.4,-180.23 130.61,-190.67 137.51,-189.51"/>
</g>
<!-- atomic -->
<g id="node8" class="node">
<title>atomic</title>
<g id="a_node8"><a xlink:href="PsyllaReference_Types.xhtml#PsyllaReference_Types_Details_atomic" xlink:title="atomic" target="_parent">
<polygon fill="linen" stroke="black" points="241,-252 158,-252 158,-216 247,-216 247,-246 241,-252"/>
<polyline fill="none" stroke="black" points="241,-252 241,-246 "/>
<polyline fill="none" stroke="black" points="247,-246 241,-246 "/>
<text text-anchor="middle" x="202.5" y="-229" font-family="PT Mono, monospace" font-size="20.00">atomic</text>
</a>
</g>
</g>
<!-- object&#45;&gt;atomic -->
<g id="edge10" class="edge">
<title>object&#45;&gt;atomic</title>
<path fill="none" stroke="black" d="M169.96,-359.87C176.3,-335.56 187.96,-290.82 195.46,-262.01"/>
<polygon fill="black" stroke="black" points="198.89,-262.75 198.02,-252.19 192.11,-260.98 198.89,-262.75"/>
</g>
<!-- additive -->
<g id="node10" class="node">
<title>additive</title>
<g id="a_node10"><a xlink:href="PsyllaReference_Types.xhtml#PsyllaReference_Types_Details_additive" xlink:title="additive" target="_parent">
<polygon fill="linen" stroke="black" points="344,-324 237,-324 237,-288 350,-288 350,-318 344,-324"/>
<polyline fill="none" stroke="black" points="344,-324 344,-318 "/>
<polyline fill="none" stroke="black" points="350,-318 344,-318 "/>
<text text-anchor="middle" x="293.5" y="-301" font-family="PT Mono, monospace" font-size="20.00">additive</text>
</a>
</g>
</g>
<!-- object&#45;&gt;additive -->
<g id="edge12" class="edge">
<title>object&#45;&gt;additive</title>
<path fill="none" stroke="black" d="M196.81,-359.88C213.7,-350.64 234.75,-339.13 252.88,-329.21"/>
<polygon fill="black" stroke="black" points="254.97,-332.06 262.07,-324.19 251.61,-325.92 254.97,-332.06"/>
</g>
<!-- atomic&#45;&gt;numeric -->
<g id="edge7" class="edge">
<title>atomic&#45;&gt;numeric</title>
<path fill="none" stroke="black" d="M212.39,-215.7C216.99,-207.64 222.56,-197.89 227.65,-188.98"/>
<polygon fill="black" stroke="black" points="230.8,-190.52 232.73,-180.1 224.73,-187.05 230.8,-190.52"/>
</g>
<!-- arithmetic -->
<g id="node9" class="node">
<title>arithmetic</title>
<g id="a_node9"><a xlink:href="PsyllaReference_Types.xhtml#PsyllaReference_Types_Details_arithmetic" xlink:title="arithmetic" target="_parent">
<polygon fill="linen" stroke="black" points="396,-252 265,-252 265,-216 402,-216 402,-246 396,-252"/>
<polyline fill="none" stroke="black" points="396,-252 396,-246 "/>
<polyline fill="none" stroke="black" points="402,-246 396,-246 "/>
<text text-anchor="middle" x="333.5" y="-229" font-family="PT Mono, monospace" font-size="20.00">arithmetic</text>
</a>
</g>
</g>
<!-- arithmetic&#45;&gt;numeric -->
<g id="edge8" class="edge">
<title>arithmetic&#45;&gt;numeric</title>
<path fill="none" stroke="black" d="M311.01,-215.7C299.54,-206.88 285.44,-196.03 273.02,-186.47"/>
<polygon fill="black" stroke="black" points="274.8,-183.43 264.74,-180.1 270.53,-188.98 274.8,-183.43"/>
</g>
<!-- additive&#45;&gt;arithmetic -->
<g id="edge11" class="edge">
<title>additive&#45;&gt;arithmetic</title>
<path fill="none" stroke="black" d="M303.39,-287.7C307.99,-279.64 313.56,-269.89 318.65,-260.98"/>
<polygon fill="black" stroke="black" points="321.8,-262.52 323.73,-252.1 315.73,-259.05 321.8,-262.52"/>
</g>
</g>
</svg>
