<?xml version="1.0" encoding="UTF-8" standalone="no"?>
<!DOCTYPE svg PUBLIC "-//W3C//DTD SVG 1.1//EN"
 "http://www.w3.org/Graphics/SVG/1.1/DTD/svg11.dtd">
<!-- Generated by graphviz version 2.43.0 (0)
 -->
<!-- Title: operator Pages: 1 -->
<svg width="158pt" height="188pt"
 viewBox="0.00 0.00 157.50 188.00" xmlns="http://www.w3.org/2000/svg" xmlns:xlink="http://www.w3.org/1999/xlink">
<g id="graph0" class="graph" transform="scale(1 1) rotate(0) translate(4 184)">
<title>operator</title>
<polygon fill="transparent" stroke="transparent" points="-4,4 -4,-184 153.5,-184 153.5,4 -4,4"/>
<!-- atomic -->
<g id="node1" class="node">
<title>atomic</title>
<g id="a_node1"><a xlink:href="PsyllaReference_Types.xhtml#PsyllaReference_Types_Details_atomic" xlink:title="atomic" target="_parent">
<polygon fill="linen" stroke="black" points="48,-108 0,-108 0,-72 54,-72 54,-102 48,-108"/>
<polyline fill="none" stroke="black" points="48,-108 48,-102 "/>
<polyline fill="none" stroke="black" points="54,-102 48,-102 "/>
<text text-anchor="middle" x="27" y="-87.5" font-family="PT Mono, monospace" font-size="10.00">atomic</text>
</a>
</g>
</g>
<!-- operator -->
<g id="node3" class="node">
<title>operator</title>
<g id="a_node3"><a xlink:href="PsyllaReference_Types.xhtml#PsyllaReference_Types_Details_operator" xlink:title="operator" target="_parent">
<polygon fill="wheat" stroke="black" points="95.5,-36 36.5,-36 36.5,0 101.5,0 101.5,-30 95.5,-36"/>
<polyline fill="none" stroke="black" points="95.5,-36 95.5,-30 "/>
<polyline fill="none" stroke="black" points="101.5,-30 95.5,-30 "/>
<text text-anchor="middle" x="69" y="-15.5" font-family="PT Mono, monospace" font-size="10.00">operator</text>
</a>
</g>
</g>
<!-- atomic&#45;&gt;operator -->
<g id="edge1" class="edge">
<title>atomic&#45;&gt;operator</title>
<path fill="none" stroke="black" d="M37.38,-71.7C42.26,-63.56 48.19,-53.69 53.58,-44.7"/>
<polygon fill="black" stroke="black" points="56.59,-46.48 58.74,-36.1 50.59,-42.88 56.59,-46.48"/>
</g>
<!-- executable -->
<g id="node2" class="node">
<title>executable</title>
<g id="a_node2"><a xlink:href="PsyllaReference_Types.xhtml#PsyllaReference_Types_Details_executable" xlink:title="executable" target="_parent">
<polygon fill="linen" stroke="black" points="143.5,-108 72.5,-108 72.5,-72 149.5,-72 149.5,-102 143.5,-108"/>
<polyline fill="none" stroke="black" points="143.5,-108 143.5,-102 "/>
<polyline fill="none" stroke="black" points="149.5,-102 143.5,-102 "/>
<text text-anchor="middle" x="111" y="-87.5" font-family="PT Mono, monospace" font-size="10.00">executable</text>
</a>
</g>
</g>
<!-- executable&#45;&gt;operator -->
<g id="edge2" class="edge">
<title>executable&#45;&gt;operator</title>
<path fill="none" stroke="black" d="M100.62,-71.7C95.74,-63.56 89.81,-53.69 84.42,-44.7"/>
<polygon fill="black" stroke="black" points="87.41,-42.88 79.26,-36.1 81.41,-46.48 87.41,-42.88"/>
</g>
<!-- object -->
<g id="node4" class="node">
<title>object</title>
<g id="a_node4"><a xlink:href="PsyllaReference_Types.xhtml#PsyllaReference_Types_Details_object" xlink:title="object" target="_parent">
<polygon fill="linen" stroke="black" points="90,-180 42,-180 42,-144 96,-144 96,-174 90,-180"/>
<polyline fill="none" stroke="black" points="90,-180 90,-174 "/>
<polyline fill="none" stroke="black" points="96,-174 90,-174 "/>
<text text-anchor="middle" x="69" y="-159.5" font-family="PT Mono, monospace" font-size="10.00">object</text>
</a>
</g>
</g>
<!-- object&#45;&gt;atomic -->
<g id="edge3" class="edge">
<title>object&#45;&gt;atomic</title>
<path fill="none" stroke="black" d="M58.62,-143.7C53.74,-135.56 47.81,-125.69 42.42,-116.7"/>
<polygon fill="black" stroke="black" points="45.41,-114.88 37.26,-108.1 39.41,-118.48 45.41,-114.88"/>
</g>
<!-- object&#45;&gt;executable -->
<g id="edge4" class="edge">
<title>object&#45;&gt;executable</title>
<path fill="none" stroke="black" d="M79.38,-143.7C84.26,-135.56 90.19,-125.69 95.58,-116.7"/>
<polygon fill="black" stroke="black" points="98.59,-118.48 100.74,-108.1 92.59,-114.88 98.59,-118.48"/>
</g>
</g>
</svg>
