<?xml version="1.0" encoding="UTF-8" standalone="no"?>
<!DOCTYPE svg PUBLIC "-//W3C//DTD SVG 1.1//EN"
 "http://www.w3.org/Graphics/SVG/1.1/DTD/svg11.dtd">
<!-- Generated by graphviz version 14.0.0 (0)
 -->
<!-- Title: array Pages: 1 -->
<svg width="365pt" height="476pt"
 viewBox="0.00 0.00 365.00 476.00" xmlns="http://www.w3.org/2000/svg" xmlns:xlink="http://www.w3.org/1999/xlink">
<g id="graph0" class="graph" transform="scale(1 1) rotate(0) translate(4 472)">
<title>array</title>
<polygon fill="none" stroke="none" points="-4,4 -4,-472 361.32,-472 361.32,4 -4,4"/>
<!-- formalarray -->
<g id="node1" class="node">
<title>formalarray</title>
<g id="a_node1"><a xlink:href="PsyllaReference_Types.xhtml#PsyllaReference_Types_Details_formalarray" xlink:title="formalarray" target="_parent">
<polygon fill="linen" stroke="black" points="152.63,-108 86,-108 86,-72 158.63,-72 158.63,-102 152.63,-108"/>
<polyline fill="none" stroke="black" points="152.63,-108 152.63,-102"/>
<polyline fill="none" stroke="black" points="158.63,-102 152.63,-102"/>
<text xml:space="preserve" text-anchor="middle" x="122.32" y="-86.4" font-family="Source Code Pro,monospace" font-size="12.00">formalarray</text>
</a>
</g>
</g>
<!-- array -->
<g id="node2" class="node">
<title>array</title>
<g id="a_node2"><a xlink:href="PsyllaReference_Types.xhtml#PsyllaReference_Types_Details_array" xlink:title="array" target="_parent">
<polygon fill="wheat" stroke="black" points="143.32,-36 95.32,-36 95.32,0 149.32,0 149.32,-30 143.32,-36"/>
<polyline fill="none" stroke="black" points="143.32,-36 143.32,-30"/>
<polyline fill="none" stroke="black" points="149.32,-30 143.32,-30"/>
<text xml:space="preserve" text-anchor="middle" x="122.32" y="-14.4" font-family="Source Code Pro,monospace" font-size="12.00">array</text>
</a>
</g>
</g>
<!-- formalarray&#45;&gt;array -->
<g id="edge1" class="edge">
<title>formalarray&#45;&gt;array</title>
<path fill="none" stroke="black" d="M122.32,-71.7C122.32,-64.41 122.32,-55.73 122.32,-47.54"/>
<polygon fill="black" stroke="black" points="125.82,-47.62 122.32,-37.62 118.82,-47.62 125.82,-47.62"/>
</g>
<!-- appendable -->
<g id="node3" class="node">
<title>appendable</title>
<g id="a_node3"><a xlink:href="PsyllaReference_Types.xhtml#PsyllaReference_Types_Details_appendable" xlink:title="appendable" target="_parent">
<polygon fill="linen" stroke="black" points="64.64,-324 0,-324 0,-288 70.64,-288 70.64,-318 64.64,-324"/>
<polyline fill="none" stroke="black" points="64.64,-324 64.64,-318"/>
<polyline fill="none" stroke="black" points="70.64,-318 64.64,-318"/>
<text xml:space="preserve" text-anchor="middle" x="35.32" y="-302.4" font-family="Source Code Pro,monospace" font-size="12.00">appendable</text>
</a>
</g>
</g>
<!-- appendable&#45;&gt;formalarray -->
<g id="edge2" class="edge">
<title>appendable&#45;&gt;formalarray</title>
<path fill="none" stroke="black" d="M36.67,-287.82C38.51,-269.56 42.61,-240.06 51.32,-216 64.38,-179.9 87.38,-142.06 103.66,-117.6"/>
<polygon fill="black" stroke="black" points="106.4,-119.78 109.11,-109.54 100.6,-115.86 106.4,-119.78"/>
</g>
<!-- container -->
<g id="node4" class="node">
<title>container</title>
<g id="a_node4"><a xlink:href="PsyllaReference_Types.xhtml#PsyllaReference_Types_Details_container" xlink:title="container" target="_parent">
<polygon fill="linen" stroke="black" points="272.64,-180 218,-180 218,-144 278.64,-144 278.64,-174 272.64,-180"/>
<polyline fill="none" stroke="black" points="272.64,-180 272.64,-174"/>
<polyline fill="none" stroke="black" points="278.64,-174 272.64,-174"/>
<text xml:space="preserve" text-anchor="middle" x="248.32" y="-158.4" font-family="Source Code Pro,monospace" font-size="12.00">container</text>
</a>
</g>
</g>
<!-- container&#45;&gt;formalarray -->
<g id="edge3" class="edge">
<title>container&#45;&gt;formalarray</title>
<path fill="none" stroke="black" d="M217.82,-144.05C201.35,-134.91 180.8,-123.49 162.99,-113.59"/>
<polygon fill="black" stroke="black" points="165.18,-110.81 154.74,-109.01 161.78,-116.93 165.18,-110.81"/>
</g>
<!-- indexed -->
<g id="node5" class="node">
<title>indexed</title>
<g id="a_node5"><a xlink:href="PsyllaReference_Types.xhtml#PsyllaReference_Types_Details_indexed" xlink:title="indexed" target="_parent">
<polygon fill="linen" stroke="black" points="108.32,-252 60.32,-252 60.32,-216 114.32,-216 114.32,-246 108.32,-252"/>
<polyline fill="none" stroke="black" points="108.32,-252 108.32,-246"/>
<polyline fill="none" stroke="black" points="114.32,-246 108.32,-246"/>
<text xml:space="preserve" text-anchor="middle" x="87.32" y="-230.4" font-family="Source Code Pro,monospace" font-size="12.00">indexed</text>
</a>
</g>
</g>
<!-- indexed&#45;&gt;formalarray -->
<g id="edge4" class="edge">
<title>indexed&#45;&gt;formalarray</title>
<path fill="none" stroke="black" d="M91.61,-215.59C97.55,-191.5 108.33,-147.75 115.41,-119.03"/>
<polygon fill="black" stroke="black" points="118.74,-120.13 117.74,-109.58 111.95,-118.45 118.74,-120.13"/>
</g>
<!-- sequential -->
<g id="node6" class="node">
<title>sequential</title>
<g id="a_node6"><a xlink:href="PsyllaReference_Types.xhtml#PsyllaReference_Types_Details_sequential" xlink:title="sequential" target="_parent">
<polygon fill="linen" stroke="black" points="208.64,-396 149.99,-396 149.99,-360 214.64,-360 214.64,-390 208.64,-396"/>
<polyline fill="none" stroke="black" points="208.64,-396 208.64,-390"/>
<polyline fill="none" stroke="black" points="214.64,-390 208.64,-390"/>
<text xml:space="preserve" text-anchor="middle" x="182.32" y="-374.4" font-family="Source Code Pro,monospace" font-size="12.00">sequential</text>
</a>
</g>
</g>
<!-- sequential&#45;&gt;formalarray -->
<g id="edge5" class="edge">
<title>sequential&#45;&gt;formalarray</title>
<path fill="none" stroke="black" d="M174.37,-359.65C169.97,-349.45 164.72,-336.2 161.32,-324 141.21,-251.77 129.93,-163.88 125.13,-119.53"/>
<polygon fill="black" stroke="black" points="128.62,-119.31 124.1,-109.73 121.66,-120.04 128.62,-119.31"/>
</g>
<!-- streamable -->
<g id="node11" class="node">
<title>streamable</title>
<g id="a_node11"><a xlink:href="PsyllaReference_Types.xhtml#PsyllaReference_Types_Details_streamable" xlink:title="streamable" target="_parent">
<polygon fill="linen" stroke="black" points="232.31,-324 170.33,-324 170.33,-288 238.31,-288 238.31,-318 232.31,-324"/>
<polyline fill="none" stroke="black" points="232.31,-324 232.31,-318"/>
<polyline fill="none" stroke="black" points="238.31,-318 232.31,-318"/>
<text xml:space="preserve" text-anchor="middle" x="204.32" y="-302.4" font-family="Source Code Pro,monospace" font-size="12.00">streamable</text>
</a>
</g>
</g>
<!-- sequential&#45;&gt;streamable -->
<g id="edge15" class="edge">
<title>sequential&#45;&gt;streamable</title>
<path fill="none" stroke="black" d="M187.76,-359.7C190.1,-352.24 192.9,-343.32 195.53,-334.97"/>
<polygon fill="black" stroke="black" points="198.83,-336.14 198.49,-325.55 192.15,-334.04 198.83,-336.14"/>
</g>
<!-- object -->
<g id="node7" class="node">
<title>object</title>
<g id="a_node7"><a xlink:href="PsyllaReference_Types.xhtml#PsyllaReference_Types_Details_object" xlink:title="object" target="_parent">
<polygon fill="linen" stroke="black" points="203.32,-468 155.32,-468 155.32,-432 209.32,-432 209.32,-462 203.32,-468"/>
<polyline fill="none" stroke="black" points="203.32,-468 203.32,-462"/>
<polyline fill="none" stroke="black" points="209.32,-462 203.32,-462"/>
<text xml:space="preserve" text-anchor="middle" x="182.32" y="-446.4" font-family="Source Code Pro,monospace" font-size="12.00">object</text>
</a>
</g>
</g>
<!-- object&#45;&gt;appendable -->
<g id="edge6" class="edge">
<title>object&#45;&gt;appendable</title>
<path fill="none" stroke="black" d="M155.17,-438.27C134.95,-429.26 107.62,-414.85 88.32,-396 70.36,-378.46 56.23,-353.58 47.09,-334.59"/>
<polygon fill="black" stroke="black" points="50.29,-333.17 42.93,-325.56 43.93,-336.1 50.29,-333.17"/>
</g>
<!-- object&#45;&gt;indexed -->
<g id="edge10" class="edge">
<title>object&#45;&gt;indexed</title>
<path fill="none" stroke="black" d="M166.69,-431.88C158.27,-421.97 148.23,-408.93 141.32,-396 117.92,-352.24 101.95,-296.42 93.75,-263.32"/>
<polygon fill="black" stroke="black" points="97.17,-262.59 91.43,-253.69 90.37,-264.23 97.17,-262.59"/>
</g>
<!-- object&#45;&gt;sequential -->
<g id="edge11" class="edge">
<title>object&#45;&gt;sequential</title>
<path fill="none" stroke="black" d="M182.32,-431.7C182.32,-424.41 182.32,-415.73 182.32,-407.54"/>
<polygon fill="black" stroke="black" points="185.82,-407.62 182.32,-397.62 178.82,-407.62 185.82,-407.62"/>
</g>
<!-- clearable -->
<g id="node8" class="node">
<title>clearable</title>
<g id="a_node8"><a xlink:href="PsyllaReference_Types.xhtml#PsyllaReference_Types_Details_clearable" xlink:title="clearable" target="_parent">
<polygon fill="linen" stroke="black" points="309.97,-324 256.67,-324 256.67,-288 315.97,-288 315.97,-318 309.97,-324"/>
<polyline fill="none" stroke="black" points="309.97,-324 309.97,-318"/>
<polyline fill="none" stroke="black" points="315.97,-318 309.97,-318"/>
<text xml:space="preserve" text-anchor="middle" x="286.32" y="-302.4" font-family="Source Code Pro,monospace" font-size="12.00">clearable</text>
</a>
</g>
</g>
<!-- object&#45;&gt;clearable -->
<g id="edge12" class="edge">
<title>object&#45;&gt;clearable</title>
<path fill="none" stroke="black" d="M195.8,-431.95C203.89,-421.63 214.32,-408.16 223.32,-396 238.71,-375.2 255.63,-351.24 268.05,-333.42"/>
<polygon fill="black" stroke="black" points="270.76,-335.67 273.59,-325.46 265.01,-331.67 270.76,-335.67"/>
</g>
<!-- lengthy -->
<g id="node10" class="node">
<title>lengthy</title>
<g id="a_node10"><a xlink:href="PsyllaReference_Types.xhtml#PsyllaReference_Types_Details_lengthy" xlink:title="lengthy" target="_parent">
<polygon fill="linen" stroke="black" points="351.32,-396 303.32,-396 303.32,-360 357.32,-360 357.32,-390 351.32,-396"/>
<polyline fill="none" stroke="black" points="351.32,-396 351.32,-390"/>
<polyline fill="none" stroke="black" points="357.32,-390 351.32,-390"/>
<text xml:space="preserve" text-anchor="middle" x="330.32" y="-374.4" font-family="Source Code Pro,monospace" font-size="12.00">lengthy</text>
</a>
</g>
</g>
<!-- object&#45;&gt;lengthy -->
<g id="edge14" class="edge">
<title>object&#45;&gt;lengthy</title>
<path fill="none" stroke="black" d="M209.81,-436C233.17,-424.95 266.94,-408.98 292.79,-396.75"/>
<polygon fill="black" stroke="black" points="294.06,-400.02 301.61,-392.58 291.07,-393.69 294.06,-400.02"/>
</g>
<!-- clearable&#45;&gt;container -->
<g id="edge7" class="edge">
<title>clearable&#45;&gt;container</title>
<path fill="none" stroke="black" d="M281.66,-287.59C275.21,-263.5 263.51,-219.75 255.82,-191.03"/>
<polygon fill="black" stroke="black" points="259.26,-190.33 253.29,-181.57 252.49,-192.14 259.26,-190.33"/>
</g>
<!-- iterable -->
<g id="node9" class="node">
<title>iterable</title>
<g id="a_node9"><a xlink:href="PsyllaReference_Types.xhtml#PsyllaReference_Types_Details_iterable" xlink:title="iterable" target="_parent">
<polygon fill="linen" stroke="black" points="238.32,-252 190.32,-252 190.32,-216 244.32,-216 244.32,-246 238.32,-252"/>
<polyline fill="none" stroke="black" points="238.32,-252 238.32,-246"/>
<polyline fill="none" stroke="black" points="244.32,-246 238.32,-246"/>
<text xml:space="preserve" text-anchor="middle" x="217.32" y="-230.4" font-family="Source Code Pro,monospace" font-size="12.00">iterable</text>
</a>
</g>
</g>
<!-- iterable&#45;&gt;container -->
<g id="edge8" class="edge">
<title>iterable&#45;&gt;container</title>
<path fill="none" stroke="black" d="M224.98,-215.7C228.36,-208.07 232.41,-198.92 236.19,-190.4"/>
<polygon fill="black" stroke="black" points="239.28,-192.05 240.13,-181.49 232.88,-189.21 239.28,-192.05"/>
</g>
<!-- lengthy&#45;&gt;container -->
<g id="edge9" class="edge">
<title>lengthy&#45;&gt;container</title>
<path fill="none" stroke="black" d="M331.79,-359.83C332.8,-341.58 332.83,-312.08 325.32,-288 313.66,-250.62 288.27,-213.1 269.82,-189.06"/>
<polygon fill="black" stroke="black" points="272.76,-187.12 263.83,-181.42 267.25,-191.45 272.76,-187.12"/>
</g>
<!-- streamable&#45;&gt;iterable -->
<g id="edge13" class="edge">
<title>streamable&#45;&gt;iterable</title>
<path fill="none" stroke="black" d="M207.53,-287.7C208.9,-280.32 210.54,-271.52 212.07,-263.25"/>
<polygon fill="black" stroke="black" points="215.48,-264.06 213.87,-253.59 208.6,-262.79 215.48,-264.06"/>
</g>
</g>
</svg>
