<?xml version="1.0" encoding="UTF-8" standalone="no"?>
<!DOCTYPE svg PUBLIC "-//W3C//DTD SVG 1.1//EN"
 "http://www.w3.org/Graphics/SVG/1.1/DTD/svg11.dtd">
<!-- Generated by graphviz version 2.49.3 (0)
 -->
<!-- Title: flushable Pages: 1 -->
<svg width="68pt" height="116pt"
 viewBox="0.00 0.00 67.98 116.00" xmlns="http://www.w3.org/2000/svg" xmlns:xlink="http://www.w3.org/1999/xlink">
<g id="graph0" class="graph" transform="scale(1 1) rotate(0) translate(4 112)">
<title>flushable</title>
<polygon fill="transparent" stroke="transparent" points="-4,4 -4,-112 63.98,-112 63.98,4 -4,4"/>
<!-- object -->
<g id="node1" class="node">
<title>object</title>
<g id="a_node1"><a xlink:href="PsyllaReference_Types.xhtml#PsyllaReference_Types_Details_object" xlink:title="object" target="_parent">
<polygon fill="linen" stroke="black" points="50.99,-108 2.99,-108 2.99,-72 56.99,-72 56.99,-102 50.99,-108"/>
<polyline fill="none" stroke="black" points="50.99,-108 50.99,-102 "/>
<polyline fill="none" stroke="black" points="56.99,-102 50.99,-102 "/>
<text text-anchor="middle" x="29.99" y="-86.4" font-family="Source Code Pro,monospace" font-size="12.00">object</text>
</a>
</g>
</g>
<!-- flushable -->
<g id="node2" class="node">
<title>flushable</title>
<g id="a_node2"><a xlink:href="PsyllaReference_Types.xhtml#PsyllaReference_Types_Details_flushable" xlink:title="flushable" target="_parent">
<polygon fill="wheat" stroke="black" points="53.98,-36 0.01,-36 0.01,0 59.98,0 59.98,-30 53.98,-36"/>
<polyline fill="none" stroke="black" points="53.98,-36 53.98,-30 "/>
<polyline fill="none" stroke="black" points="59.98,-30 53.98,-30 "/>
<text text-anchor="middle" x="29.99" y="-14.4" font-family="Source Code Pro,monospace" font-size="12.00">flushable</text>
</a>
</g>
</g>
<!-- object&#45;&gt;flushable -->
<g id="edge1" class="edge">
<title>object&#45;&gt;flushable</title>
<path fill="none" stroke="black" d="M29.99,-71.7C29.99,-63.98 29.99,-54.71 29.99,-46.11"/>
<polygon fill="black" stroke="black" points="33.49,-46.1 29.99,-36.1 26.49,-46.1 33.49,-46.1"/>
</g>
</g>
</svg>
