<?xml version="1.0" encoding="UTF-8" standalone="no"?>
<!DOCTYPE svg PUBLIC "-//W3C//DTD SVG 1.1//EN"
 "http://www.w3.org/Graphics/SVG/1.1/DTD/svg11.dtd">
<!-- Generated by graphviz version 2.43.0 (0)
 -->
<!-- Title: formaldict Pages: 1 -->
<svg width="327pt" height="404pt"
 viewBox="0.00 0.00 327.00 404.00" xmlns="http://www.w3.org/2000/svg" xmlns:xlink="http://www.w3.org/1999/xlink">
<g id="graph0" class="graph" transform="scale(1 1) rotate(0) translate(4 400)">
<title>formaldict</title>
<polygon fill="transparent" stroke="transparent" points="-4,4 -4,-400 323,-400 323,4 -4,4"/>
<!-- container -->
<g id="node1" class="node">
<title>container</title>
<g id="a_node1"><a xlink:href="PsyllaReference_Types.xhtml#PsyllaReference_Types_Details_container" xlink:title="container" target="_parent">
<polygon fill="linen" stroke="black" points="222,-108 157,-108 157,-72 228,-72 228,-102 222,-108"/>
<polyline fill="none" stroke="black" points="222,-108 222,-102 "/>
<polyline fill="none" stroke="black" points="228,-102 222,-102 "/>
<text text-anchor="middle" x="192.5" y="-87.5" font-family="PT Mono, monospace" font-size="10.00">container</text>
</a>
</g>
</g>
<!-- formaldict -->
<g id="node4" class="node">
<title>formaldict</title>
<g id="a_node4"><a xlink:href="PsyllaReference_Types.xhtml#PsyllaReference_Types_Details_formaldict" xlink:title="formaldict" target="_parent">
<polygon fill="wheat" stroke="black" points="120,-36 49,-36 49,0 126,0 126,-30 120,-36"/>
<polyline fill="none" stroke="black" points="120,-36 120,-30 "/>
<polyline fill="none" stroke="black" points="126,-30 120,-30 "/>
<text text-anchor="middle" x="87.5" y="-15.5" font-family="PT Mono, monospace" font-size="10.00">formaldict</text>
</a>
</g>
</g>
<!-- container&#45;&gt;formaldict -->
<g id="edge1" class="edge">
<title>container&#45;&gt;formaldict</title>
<path fill="none" stroke="black" d="M166.81,-71.88C153.21,-62.81 136.33,-51.55 121.64,-41.76"/>
<polygon fill="black" stroke="black" points="123.55,-38.82 113.28,-36.19 119.66,-44.65 123.55,-38.82"/>
</g>
<!-- indexed -->
<g id="node2" class="node">
<title>indexed</title>
<g id="a_node2"><a xlink:href="PsyllaReference_Types.xhtml#PsyllaReference_Types_Details_indexed" xlink:title="indexed" target="_parent">
<polygon fill="linen" stroke="black" points="53,-252 0,-252 0,-216 59,-216 59,-246 53,-252"/>
<polyline fill="none" stroke="black" points="53,-252 53,-246 "/>
<polyline fill="none" stroke="black" points="59,-246 53,-246 "/>
<text text-anchor="middle" x="29.5" y="-231.5" font-family="PT Mono, monospace" font-size="10.00">indexed</text>
</a>
</g>
</g>
<!-- indexed&#45;&gt;formaldict -->
<g id="edge2" class="edge">
<title>indexed&#45;&gt;formaldict</title>
<path fill="none" stroke="black" d="M34.15,-215.85C44.2,-178.75 68.04,-90.81 80.15,-46.1"/>
<polygon fill="black" stroke="black" points="83.59,-46.8 82.83,-36.23 76.84,-44.97 83.59,-46.8"/>
</g>
<!-- sequential -->
<g id="node3" class="node">
<title>sequential</title>
<g id="a_node3"><a xlink:href="PsyllaReference_Types.xhtml#PsyllaReference_Types_Details_sequential" xlink:title="sequential" target="_parent">
<polygon fill="linen" stroke="black" points="187,-324 116,-324 116,-288 193,-288 193,-318 187,-324"/>
<polyline fill="none" stroke="black" points="187,-324 187,-318 "/>
<polyline fill="none" stroke="black" points="193,-318 187,-318 "/>
<text text-anchor="middle" x="154.5" y="-303.5" font-family="PT Mono, monospace" font-size="10.00">sequential</text>
</a>
</g>
</g>
<!-- sequential&#45;&gt;formaldict -->
<g id="edge3" class="edge">
<title>sequential&#45;&gt;formaldict</title>
<path fill="none" stroke="black" d="M133.26,-287.59C123.34,-278.17 112.42,-265.67 106.5,-252 76.55,-182.84 80.05,-91.42 84.24,-46.42"/>
<polygon fill="black" stroke="black" points="87.74,-46.58 85.27,-36.28 80.77,-45.87 87.74,-46.58"/>
</g>
<!-- streamable -->
<g id="node9" class="node">
<title>streamable</title>
<g id="a_node9"><a xlink:href="PsyllaReference_Types.xhtml#PsyllaReference_Types_Details_streamable" xlink:title="streamable" target="_parent">
<polygon fill="linen" stroke="black" points="187,-252 116,-252 116,-216 193,-216 193,-246 187,-252"/>
<polyline fill="none" stroke="black" points="187,-252 187,-246 "/>
<polyline fill="none" stroke="black" points="193,-246 187,-246 "/>
<text text-anchor="middle" x="154.5" y="-231.5" font-family="PT Mono, monospace" font-size="10.00">streamable</text>
</a>
</g>
</g>
<!-- sequential&#45;&gt;streamable -->
<g id="edge12" class="edge">
<title>sequential&#45;&gt;streamable</title>
<path fill="none" stroke="black" d="M154.5,-287.7C154.5,-279.98 154.5,-270.71 154.5,-262.11"/>
<polygon fill="black" stroke="black" points="158,-262.1 154.5,-252.1 151,-262.1 158,-262.1"/>
</g>
<!-- clearable -->
<g id="node5" class="node">
<title>clearable</title>
<g id="a_node5"><a xlink:href="PsyllaReference_Types.xhtml#PsyllaReference_Types_Details_clearable" xlink:title="clearable" target="_parent">
<polygon fill="linen" stroke="black" points="264,-180 199,-180 199,-144 270,-144 270,-174 264,-180"/>
<polyline fill="none" stroke="black" points="264,-180 264,-174 "/>
<polyline fill="none" stroke="black" points="270,-174 264,-174 "/>
<text text-anchor="middle" x="234.5" y="-159.5" font-family="PT Mono, monospace" font-size="10.00">clearable</text>
</a>
</g>
</g>
<!-- clearable&#45;&gt;container -->
<g id="edge4" class="edge">
<title>clearable&#45;&gt;container</title>
<path fill="none" stroke="black" d="M224.12,-143.7C219.24,-135.56 213.31,-125.69 207.92,-116.7"/>
<polygon fill="black" stroke="black" points="210.91,-114.88 202.76,-108.1 204.91,-118.48 210.91,-114.88"/>
</g>
<!-- iterable -->
<g id="node6" class="node">
<title>iterable</title>
<g id="a_node6"><a xlink:href="PsyllaReference_Types.xhtml#PsyllaReference_Types_Details_iterable" xlink:title="iterable" target="_parent">
<polygon fill="linen" stroke="black" points="175,-180 116,-180 116,-144 181,-144 181,-174 175,-180"/>
<polyline fill="none" stroke="black" points="175,-180 175,-174 "/>
<polyline fill="none" stroke="black" points="181,-174 175,-174 "/>
<text text-anchor="middle" x="148.5" y="-159.5" font-family="PT Mono, monospace" font-size="10.00">iterable</text>
</a>
</g>
</g>
<!-- iterable&#45;&gt;container -->
<g id="edge5" class="edge">
<title>iterable&#45;&gt;container</title>
<path fill="none" stroke="black" d="M159.38,-143.7C164.49,-135.56 170.7,-125.69 176.34,-116.7"/>
<polygon fill="black" stroke="black" points="179.39,-118.43 181.75,-108.1 173.46,-114.71 179.39,-118.43"/>
</g>
<!-- lengthy -->
<g id="node7" class="node">
<title>lengthy</title>
<g id="a_node7"><a xlink:href="PsyllaReference_Types.xhtml#PsyllaReference_Types_Details_lengthy" xlink:title="lengthy" target="_parent">
<polygon fill="linen" stroke="black" points="313,-324 260,-324 260,-288 319,-288 319,-318 313,-324"/>
<polyline fill="none" stroke="black" points="313,-324 313,-318 "/>
<polyline fill="none" stroke="black" points="319,-318 313,-318 "/>
<text text-anchor="middle" x="289.5" y="-303.5" font-family="PT Mono, monospace" font-size="10.00">lengthy</text>
</a>
</g>
</g>
<!-- lengthy&#45;&gt;container -->
<g id="edge6" class="edge">
<title>lengthy&#45;&gt;container</title>
<path fill="none" stroke="black" d="M293.08,-287.99C298.67,-256.88 306.17,-189.8 278.5,-144 269.03,-128.31 252.96,-116.6 237.26,-108.23"/>
<polygon fill="black" stroke="black" points="238.62,-105 228.11,-103.69 235.51,-111.27 238.62,-105"/>
</g>
<!-- object -->
<g id="node8" class="node">
<title>object</title>
<g id="a_node8"><a xlink:href="PsyllaReference_Types.xhtml#PsyllaReference_Types_Details_object" xlink:title="object" target="_parent">
<polygon fill="linen" stroke="black" points="215.5,-396 167.5,-396 167.5,-360 221.5,-360 221.5,-390 215.5,-396"/>
<polyline fill="none" stroke="black" points="215.5,-396 215.5,-390 "/>
<polyline fill="none" stroke="black" points="221.5,-390 215.5,-390 "/>
<text text-anchor="middle" x="194.5" y="-375.5" font-family="PT Mono, monospace" font-size="10.00">object</text>
</a>
</g>
</g>
<!-- object&#45;&gt;indexed -->
<g id="edge7" class="edge">
<title>object&#45;&gt;indexed</title>
<path fill="none" stroke="black" d="M167.25,-363.49C149.08,-353.81 125.19,-339.74 106.5,-324 84,-305.06 62.46,-279.28 47.91,-260.34"/>
<polygon fill="black" stroke="black" points="50.56,-258.04 41.74,-252.17 44.97,-262.26 50.56,-258.04"/>
</g>
<!-- object&#45;&gt;sequential -->
<g id="edge8" class="edge">
<title>object&#45;&gt;sequential</title>
<path fill="none" stroke="black" d="M184.61,-359.7C180.01,-351.64 174.44,-341.89 169.35,-332.98"/>
<polygon fill="black" stroke="black" points="172.27,-331.05 164.27,-324.1 166.2,-334.52 172.27,-331.05"/>
</g>
<!-- object&#45;&gt;clearable -->
<g id="edge9" class="edge">
<title>object&#45;&gt;clearable</title>
<path fill="none" stroke="black" d="M197.71,-359.85C204.64,-322.75 221.08,-234.81 229.43,-190.1"/>
<polygon fill="black" stroke="black" points="232.88,-190.71 231.28,-180.23 226,-189.42 232.88,-190.71"/>
</g>
<!-- object&#45;&gt;lengthy -->
<g id="edge11" class="edge">
<title>object&#45;&gt;lengthy</title>
<path fill="none" stroke="black" d="M217.98,-359.7C230.06,-350.8 244.95,-339.82 258.02,-330.2"/>
<polygon fill="black" stroke="black" points="260.31,-332.85 266.29,-324.1 256.16,-327.22 260.31,-332.85"/>
</g>
<!-- streamable&#45;&gt;iterable -->
<g id="edge10" class="edge">
<title>streamable&#45;&gt;iterable</title>
<path fill="none" stroke="black" d="M153.02,-215.7C152.36,-207.98 151.56,-198.71 150.82,-190.11"/>
<polygon fill="black" stroke="black" points="154.31,-189.77 149.97,-180.1 147.33,-190.37 154.31,-189.77"/>
</g>
</g>
</svg>
