<?xml version="1.0" encoding="UTF-8" standalone="no"?>
<!DOCTYPE svg PUBLIC "-//W3C//DTD SVG 1.1//EN"
 "http://www.w3.org/Graphics/SVG/1.1/DTD/svg11.dtd">
<!-- Generated by graphviz version 2.49.3 (0)
 -->
<!-- Title: formalqueue Pages: 1 -->
<svg width="220pt" height="404pt"
 viewBox="0.00 0.00 219.65 404.00" xmlns="http://www.w3.org/2000/svg" xmlns:xlink="http://www.w3.org/1999/xlink">
<g id="graph0" class="graph" transform="scale(1 1) rotate(0) translate(4 400)">
<title>formalqueue</title>
<polygon fill="transparent" stroke="transparent" points="-4,4 -4,-400 215.65,-400 215.65,4 -4,4"/>
<!-- bounded -->
<g id="node1" class="node">
<title>bounded</title>
<g id="a_node1"><a xlink:href="PsyllaReference_Types.xhtml#PsyllaReference_Types_Details_bounded" xlink:title="bounded" target="_parent">
<polygon fill="linen" stroke="black" points="51.49,-108 -0.16,-108 -0.16,-72 57.49,-72 57.49,-102 51.49,-108"/>
<polyline fill="none" stroke="black" points="51.49,-108 51.49,-102 "/>
<polyline fill="none" stroke="black" points="57.49,-102 51.49,-102 "/>
<text text-anchor="middle" x="28.66" y="-86.4" font-family="Source Code Pro,monospace" font-size="12.00">bounded</text>
</a>
</g>
</g>
<!-- formalqueue -->
<g id="node3" class="node">
<title>formalqueue</title>
<g id="a_node3"><a xlink:href="PsyllaReference_Types.xhtml#PsyllaReference_Types_Details_formalqueue" xlink:title="formalqueue" target="_parent">
<polygon fill="wheat" stroke="black" points="98.8,-36 28.52,-36 28.52,0 104.8,0 104.8,-30 98.8,-36"/>
<polyline fill="none" stroke="black" points="98.8,-36 98.8,-30 "/>
<polyline fill="none" stroke="black" points="104.8,-30 98.8,-30 "/>
<text text-anchor="middle" x="66.66" y="-14.4" font-family="Source Code Pro,monospace" font-size="12.00">formalqueue</text>
</a>
</g>
</g>
<!-- bounded&#45;&gt;formalqueue -->
<g id="edge1" class="edge">
<title>bounded&#45;&gt;formalqueue</title>
<path fill="none" stroke="black" d="M38.06,-71.7C42.43,-63.64 47.72,-53.89 52.56,-44.98"/>
<polygon fill="black" stroke="black" points="55.68,-46.56 57.38,-36.1 49.53,-43.22 55.68,-46.56"/>
</g>
<!-- container -->
<g id="node2" class="node">
<title>container</title>
<g id="a_node2"><a xlink:href="PsyllaReference_Types.xhtml#PsyllaReference_Types_Details_container" xlink:title="container" target="_parent">
<polygon fill="linen" stroke="black" points="129.81,-108 75.52,-108 75.52,-72 135.81,-72 135.81,-102 129.81,-108"/>
<polyline fill="none" stroke="black" points="129.81,-108 129.81,-102 "/>
<polyline fill="none" stroke="black" points="135.81,-102 129.81,-102 "/>
<text text-anchor="middle" x="105.66" y="-86.4" font-family="Source Code Pro,monospace" font-size="12.00">container</text>
</a>
</g>
</g>
<!-- container&#45;&gt;formalqueue -->
<g id="edge2" class="edge">
<title>container&#45;&gt;formalqueue</title>
<path fill="none" stroke="black" d="M96.02,-71.7C91.54,-63.64 86.1,-53.89 81.14,-44.98"/>
<polygon fill="black" stroke="black" points="84.12,-43.14 76.19,-36.1 78,-46.54 84.12,-43.14"/>
</g>
<!-- lengthy -->
<g id="node4" class="node">
<title>lengthy</title>
<g id="a_node4"><a xlink:href="PsyllaReference_Types.xhtml#PsyllaReference_Types_Details_lengthy" xlink:title="lengthy" target="_parent">
<polygon fill="linen" stroke="black" points="58.66,-180 10.66,-180 10.66,-144 64.66,-144 64.66,-174 58.66,-180"/>
<polyline fill="none" stroke="black" points="58.66,-180 58.66,-174 "/>
<polyline fill="none" stroke="black" points="64.66,-174 58.66,-174 "/>
<text text-anchor="middle" x="37.66" y="-158.4" font-family="Source Code Pro,monospace" font-size="12.00">lengthy</text>
</a>
</g>
</g>
<!-- lengthy&#45;&gt;bounded -->
<g id="edge3" class="edge">
<title>lengthy&#45;&gt;bounded</title>
<path fill="none" stroke="black" d="M35.44,-143.7C34.45,-135.98 33.26,-126.71 32.15,-118.11"/>
<polygon fill="black" stroke="black" points="35.61,-117.58 30.86,-108.1 28.67,-118.47 35.61,-117.58"/>
</g>
<!-- lengthy&#45;&gt;container -->
<g id="edge6" class="edge">
<title>lengthy&#45;&gt;container</title>
<path fill="none" stroke="black" d="M54.47,-143.7C62.79,-135.14 72.97,-124.66 82.05,-115.3"/>
<polygon fill="black" stroke="black" points="84.59,-117.72 89.05,-108.1 79.57,-112.84 84.59,-117.72"/>
</g>
<!-- clearable -->
<g id="node5" class="node">
<title>clearable</title>
<g id="a_node5"><a xlink:href="PsyllaReference_Types.xhtml#PsyllaReference_Types_Details_clearable" xlink:title="clearable" target="_parent">
<polygon fill="linen" stroke="black" points="119.46,-252 65.86,-252 65.86,-216 125.46,-216 125.46,-246 119.46,-252"/>
<polyline fill="none" stroke="black" points="119.46,-252 119.46,-246 "/>
<polyline fill="none" stroke="black" points="125.46,-246 119.46,-246 "/>
<text text-anchor="middle" x="95.66" y="-230.4" font-family="Source Code Pro,monospace" font-size="12.00">clearable</text>
</a>
</g>
</g>
<!-- clearable&#45;&gt;container -->
<g id="edge4" class="edge">
<title>clearable&#45;&gt;container</title>
<path fill="none" stroke="black" d="M96.87,-215.87C98.57,-191.67 101.7,-147.21 103.73,-118.39"/>
<polygon fill="black" stroke="black" points="107.24,-118.41 104.45,-108.19 100.26,-117.92 107.24,-118.41"/>
</g>
<!-- iterable -->
<g id="node6" class="node">
<title>iterable</title>
<g id="a_node6"><a xlink:href="PsyllaReference_Types.xhtml#PsyllaReference_Types_Details_iterable" xlink:title="iterable" target="_parent">
<polygon fill="linen" stroke="black" points="189.66,-180 141.66,-180 141.66,-144 195.66,-144 195.66,-174 189.66,-180"/>
<polyline fill="none" stroke="black" points="189.66,-180 189.66,-174 "/>
<polyline fill="none" stroke="black" points="195.66,-174 189.66,-174 "/>
<text text-anchor="middle" x="168.66" y="-158.4" font-family="Source Code Pro,monospace" font-size="12.00">iterable</text>
</a>
</g>
</g>
<!-- iterable&#45;&gt;container -->
<g id="edge5" class="edge">
<title>iterable&#45;&gt;container</title>
<path fill="none" stroke="black" d="M153.09,-143.7C145.46,-135.22 136.14,-124.86 127.79,-115.58"/>
<polygon fill="black" stroke="black" points="130.35,-113.2 121.06,-108.1 125.15,-117.88 130.35,-113.2"/>
</g>
<!-- object -->
<g id="node7" class="node">
<title>object</title>
<g id="a_node7"><a xlink:href="PsyllaReference_Types.xhtml#PsyllaReference_Types_Details_object" xlink:title="object" target="_parent">
<polygon fill="linen" stroke="black" points="116.66,-396 68.66,-396 68.66,-360 122.66,-360 122.66,-390 116.66,-396"/>
<polyline fill="none" stroke="black" points="116.66,-396 116.66,-390 "/>
<polyline fill="none" stroke="black" points="122.66,-390 116.66,-390 "/>
<text text-anchor="middle" x="95.66" y="-374.4" font-family="Source Code Pro,monospace" font-size="12.00">object</text>
</a>
</g>
</g>
<!-- object&#45;&gt;lengthy -->
<g id="edge7" class="edge">
<title>object&#45;&gt;lengthy</title>
<path fill="none" stroke="black" d="M89.73,-359.76C81.6,-335.78 66.87,-290.92 56.66,-252 51.29,-231.5 46.33,-208.04 42.83,-190.36"/>
<polygon fill="black" stroke="black" points="46.19,-189.32 40.84,-180.17 39.32,-190.66 46.19,-189.32"/>
</g>
<!-- object&#45;&gt;clearable -->
<g id="edge8" class="edge">
<title>object&#45;&gt;clearable</title>
<path fill="none" stroke="black" d="M95.66,-359.87C95.66,-335.67 95.66,-291.21 95.66,-262.39"/>
<polygon fill="black" stroke="black" points="99.16,-262.19 95.66,-252.19 92.16,-262.19 99.16,-262.19"/>
</g>
<!-- sequential -->
<g id="node9" class="node">
<title>sequential</title>
<g id="a_node9"><a xlink:href="PsyllaReference_Types.xhtml#PsyllaReference_Types_Details_sequential" xlink:title="sequential" target="_parent">
<polygon fill="linen" stroke="black" points="192.82,-324 134.51,-324 134.51,-288 198.82,-288 198.82,-318 192.82,-324"/>
<polyline fill="none" stroke="black" points="192.82,-324 192.82,-318 "/>
<polyline fill="none" stroke="black" points="198.82,-318 192.82,-318 "/>
<text text-anchor="middle" x="166.66" y="-302.4" font-family="Source Code Pro,monospace" font-size="12.00">sequential</text>
</a>
</g>
</g>
<!-- object&#45;&gt;sequential -->
<g id="edge11" class="edge">
<title>object&#45;&gt;sequential</title>
<path fill="none" stroke="black" d="M113.21,-359.7C121.9,-351.14 132.53,-340.66 142.01,-331.3"/>
<polygon fill="black" stroke="black" points="144.65,-333.62 149.31,-324.1 139.74,-328.63 144.65,-333.62"/>
</g>
<!-- streamable -->
<g id="node8" class="node">
<title>streamable</title>
<g id="a_node8"><a xlink:href="PsyllaReference_Types.xhtml#PsyllaReference_Types_Details_streamable" xlink:title="streamable" target="_parent">
<polygon fill="linen" stroke="black" points="205.64,-252 143.69,-252 143.69,-216 211.64,-216 211.64,-246 205.64,-252"/>
<polyline fill="none" stroke="black" points="205.64,-252 205.64,-246 "/>
<polyline fill="none" stroke="black" points="211.64,-246 205.64,-246 "/>
<text text-anchor="middle" x="177.66" y="-230.4" font-family="Source Code Pro,monospace" font-size="12.00">streamable</text>
</a>
</g>
</g>
<!-- streamable&#45;&gt;iterable -->
<g id="edge9" class="edge">
<title>streamable&#45;&gt;iterable</title>
<path fill="none" stroke="black" d="M175.44,-215.7C174.45,-207.98 173.26,-198.71 172.15,-190.11"/>
<polygon fill="black" stroke="black" points="175.61,-189.58 170.86,-180.1 168.67,-190.47 175.61,-189.58"/>
</g>
<!-- sequential&#45;&gt;streamable -->
<g id="edge10" class="edge">
<title>sequential&#45;&gt;streamable</title>
<path fill="none" stroke="black" d="M169.38,-287.7C170.59,-279.98 172.05,-270.71 173.4,-262.11"/>
<polygon fill="black" stroke="black" points="176.88,-262.53 174.98,-252.1 169.97,-261.44 176.88,-262.53"/>
</g>
</g>
</svg>
