<?xml version="1.0" encoding="UTF-8" standalone="no"?>
<!DOCTYPE svg PUBLIC "-//W3C//DTD SVG 1.1//EN"
 "http://www.w3.org/Graphics/SVG/1.1/DTD/svg11.dtd">
<!-- Generated by graphviz version 2.49.3 (0)
 -->
<!-- Title: name Pages: 1 -->
<svg width="648pt" height="476pt"
 viewBox="0.00 0.00 647.99 476.00" xmlns="http://www.w3.org/2000/svg" xmlns:xlink="http://www.w3.org/1999/xlink">
<g id="graph0" class="graph" transform="scale(1 1) rotate(0) translate(4 472)">
<title>name</title>
<polygon fill="transparent" stroke="transparent" points="-4,4 -4,-472 643.99,-472 643.99,4 -4,4"/>
<!-- string -->
<g id="node1" class="node">
<title>string</title>
<g id="a_node1"><a xlink:href="PsyllaReference_Types.xhtml#PsyllaReference_Types_Details_string" xlink:title="string" target="_parent">
<polygon fill="linen" stroke="black" points="115,-108 67,-108 67,-72 121,-72 121,-102 115,-108"/>
<polyline fill="none" stroke="black" points="115,-108 115,-102 "/>
<polyline fill="none" stroke="black" points="121,-102 115,-102 "/>
<text text-anchor="middle" x="94" y="-86.4" font-family="Source Code Pro,monospace" font-size="12.00">string</text>
</a>
</g>
</g>
<!-- name -->
<g id="node2" class="node">
<title>name</title>
<g id="a_node2"><a xlink:href="PsyllaReference_Types.xhtml#PsyllaReference_Types_Details_name" xlink:title="name" target="_parent">
<polygon fill="wheat" stroke="black" points="115,-36 67,-36 67,0 121,0 121,-30 115,-36"/>
<polyline fill="none" stroke="black" points="115,-36 115,-30 "/>
<polyline fill="none" stroke="black" points="121,-30 115,-30 "/>
<text text-anchor="middle" x="94" y="-14.4" font-family="Source Code Pro,monospace" font-size="12.00">name</text>
</a>
</g>
</g>
<!-- string&#45;&gt;name -->
<g id="edge1" class="edge">
<title>string&#45;&gt;name</title>
<path fill="none" stroke="black" d="M94,-71.7C94,-63.98 94,-54.71 94,-46.11"/>
<polygon fill="black" stroke="black" points="97.5,-46.1 94,-36.1 90.5,-46.1 97.5,-46.1"/>
</g>
<!-- textual -->
<g id="node3" class="node">
<title>textual</title>
<g id="a_node3"><a xlink:href="PsyllaReference_Types.xhtml#PsyllaReference_Types_Details_textual" xlink:title="textual" target="_parent">
<polygon fill="linen" stroke="black" points="397,-180 349,-180 349,-144 403,-144 403,-174 397,-180"/>
<polyline fill="none" stroke="black" points="397,-180 397,-174 "/>
<polyline fill="none" stroke="black" points="403,-174 397,-174 "/>
<text text-anchor="middle" x="376" y="-158.4" font-family="Source Code Pro,monospace" font-size="12.00">textual</text>
</a>
</g>
</g>
<!-- textual&#45;&gt;string -->
<g id="edge2" class="edge">
<title>textual&#45;&gt;string</title>
<path fill="none" stroke="black" d="M348.96,-154.29C298.24,-141.7 188.76,-114.52 131.16,-100.22"/>
<polygon fill="black" stroke="black" points="131.92,-96.81 121.37,-97.79 130.23,-103.6 131.92,-96.81"/>
</g>
<!-- value -->
<g id="node4" class="node">
<title>value</title>
<g id="a_node4"><a xlink:href="PsyllaReference_Types.xhtml#PsyllaReference_Types_Details_value" xlink:title="value" target="_parent">
<polygon fill="linen" stroke="black" points="48,-252 0,-252 0,-216 54,-216 54,-246 48,-252"/>
<polyline fill="none" stroke="black" points="48,-252 48,-246 "/>
<polyline fill="none" stroke="black" points="54,-246 48,-246 "/>
<text text-anchor="middle" x="27" y="-230.4" font-family="Source Code Pro,monospace" font-size="12.00">value</text>
</a>
</g>
</g>
<!-- value&#45;&gt;string -->
<g id="edge3" class="edge">
<title>value&#45;&gt;string</title>
<path fill="none" stroke="black" d="M28.02,-215.71C29.72,-197.1 34.19,-167.06 46,-144 51.28,-133.68 59.1,-123.83 66.9,-115.49"/>
<polygon fill="black" stroke="black" points="69.47,-117.87 73.99,-108.28 64.48,-112.96 69.47,-117.87"/>
</g>
<!-- concatenable -->
<g id="node5" class="node">
<title>concatenable</title>
<g id="a_node5"><a xlink:href="PsyllaReference_Types.xhtml#PsyllaReference_Types_Details_concatenable" xlink:title="concatenable" target="_parent">
<polygon fill="linen" stroke="black" points="127.13,-180 54.87,-180 54.87,-144 133.13,-144 133.13,-174 127.13,-180"/>
<polyline fill="none" stroke="black" points="127.13,-180 127.13,-174 "/>
<polyline fill="none" stroke="black" points="133.13,-174 127.13,-174 "/>
<text text-anchor="middle" x="94" y="-158.4" font-family="Source Code Pro,monospace" font-size="12.00">concatenable</text>
</a>
</g>
</g>
<!-- concatenable&#45;&gt;string -->
<g id="edge4" class="edge">
<title>concatenable&#45;&gt;string</title>
<path fill="none" stroke="black" d="M94,-143.7C94,-135.98 94,-126.71 94,-118.11"/>
<polygon fill="black" stroke="black" points="97.5,-118.1 94,-108.1 90.5,-118.1 97.5,-118.1"/>
</g>
<!-- evaluable -->
<g id="node6" class="node">
<title>evaluable</title>
<g id="a_node6"><a xlink:href="PsyllaReference_Types.xhtml#PsyllaReference_Types_Details_evaluable" xlink:title="evaluable" target="_parent">
<polygon fill="linen" stroke="black" points="165.98,-324 110.02,-324 110.02,-288 171.98,-288 171.98,-318 165.98,-324"/>
<polyline fill="none" stroke="black" points="165.98,-324 165.98,-318 "/>
<polyline fill="none" stroke="black" points="171.98,-318 165.98,-318 "/>
<text text-anchor="middle" x="141" y="-302.4" font-family="Source Code Pro,monospace" font-size="12.00">evaluable</text>
</a>
</g>
</g>
<!-- evaluable&#45;&gt;textual -->
<g id="edge5" class="edge">
<title>evaluable&#45;&gt;textual</title>
<path fill="none" stroke="black" d="M157.88,-287.71C177.59,-268.26 211.88,-236.69 246,-216 275.57,-198.07 312.29,-183.74 339.16,-174.52"/>
<polygon fill="black" stroke="black" points="340.57,-177.74 348.93,-171.24 338.34,-171.1 340.57,-177.74"/>
</g>
<!-- convertabletointeger -->
<g id="node7" class="node">
<title>convertabletointeger</title>
<g id="a_node7"><a xlink:href="PsyllaReference_Types.xhtml#PsyllaReference_Types_Details_convertabletointeger" xlink:title="convertabletointeger" target="_parent">
<polygon fill="linen" stroke="black" points="298.13,-324 189.87,-324 189.87,-288 304.13,-288 304.13,-318 298.13,-324"/>
<polyline fill="none" stroke="black" points="298.13,-324 298.13,-318 "/>
<polyline fill="none" stroke="black" points="304.13,-318 298.13,-318 "/>
<text text-anchor="middle" x="247" y="-302.4" font-family="Source Code Pro,monospace" font-size="12.00">convertabletointeger</text>
</a>
</g>
</g>
<!-- convertabletointeger&#45;&gt;textual -->
<g id="edge6" class="edge">
<title>convertabletointeger&#45;&gt;textual</title>
<path fill="none" stroke="black" d="M246.14,-287.74C246.08,-268.31 248.81,-236.76 265,-216 283.24,-192.62 314.35,-179.01 339.01,-171.45"/>
<polygon fill="black" stroke="black" points="340.12,-174.77 348.78,-168.66 338.2,-168.04 340.12,-174.77"/>
</g>
<!-- convertabletointegral -->
<g id="node8" class="node">
<title>convertabletointegral</title>
<g id="a_node8"><a xlink:href="PsyllaReference_Types.xhtml#PsyllaReference_Types_Details_convertabletointegral" xlink:title="convertabletointegral" target="_parent">
<polygon fill="linen" stroke="black" points="385.96,-252 274.04,-252 274.04,-216 391.96,-216 391.96,-246 385.96,-252"/>
<polyline fill="none" stroke="black" points="385.96,-252 385.96,-246 "/>
<polyline fill="none" stroke="black" points="391.96,-246 385.96,-246 "/>
<text text-anchor="middle" x="333" y="-230.4" font-family="Source Code Pro,monospace" font-size="12.00">convertabletointegral</text>
</a>
</g>
</g>
<!-- convertabletointegral&#45;&gt;textual -->
<g id="edge7" class="edge">
<title>convertabletointegral&#45;&gt;textual</title>
<path fill="none" stroke="black" d="M343.63,-215.7C348.63,-207.56 354.69,-197.69 360.21,-188.7"/>
<polygon fill="black" stroke="black" points="363.24,-190.46 365.49,-180.1 357.28,-186.79 363.24,-190.46"/>
</g>
<!-- convertabletorational -->
<g id="node9" class="node">
<title>convertabletorational</title>
<g id="a_node9"><a xlink:href="PsyllaReference_Types.xhtml#PsyllaReference_Types_Details_convertabletorational" xlink:title="convertabletorational" target="_parent">
<polygon fill="linen" stroke="black" points="471.96,-324 360.04,-324 360.04,-288 477.96,-288 477.96,-318 471.96,-324"/>
<polyline fill="none" stroke="black" points="471.96,-324 471.96,-318 "/>
<polyline fill="none" stroke="black" points="477.96,-318 471.96,-318 "/>
<text text-anchor="middle" x="419" y="-302.4" font-family="Source Code Pro,monospace" font-size="12.00">convertabletorational</text>
</a>
</g>
</g>
<!-- convertabletorational&#45;&gt;textual -->
<g id="edge8" class="edge">
<title>convertabletorational&#45;&gt;textual</title>
<path fill="none" stroke="black" d="M416.8,-287.95C414.17,-269.8 409.09,-240.39 401,-216 398.05,-207.12 394,-197.77 390.01,-189.45"/>
<polygon fill="black" stroke="black" points="393.01,-187.63 385.43,-180.23 386.74,-190.74 393.01,-187.63"/>
</g>
<!-- iterable -->
<g id="node10" class="node">
<title>iterable</title>
<g id="a_node10"><a xlink:href="PsyllaReference_Types.xhtml#PsyllaReference_Types_Details_iterable" xlink:title="iterable" target="_parent">
<polygon fill="linen" stroke="black" points="623,-252 575,-252 575,-216 629,-216 629,-246 623,-252"/>
<polyline fill="none" stroke="black" points="623,-252 623,-246 "/>
<polyline fill="none" stroke="black" points="629,-246 623,-246 "/>
<text text-anchor="middle" x="602" y="-230.4" font-family="Source Code Pro,monospace" font-size="12.00">iterable</text>
</a>
</g>
</g>
<!-- iterable&#45;&gt;textual -->
<g id="edge9" class="edge">
<title>iterable&#45;&gt;textual</title>
<path fill="none" stroke="black" d="M574.67,-222.03C569.18,-219.94 563.43,-217.84 558,-216 508.27,-199.19 449.86,-182.75 412.89,-172.75"/>
<polygon fill="black" stroke="black" points="413.62,-169.32 403.05,-170.1 411.8,-176.08 413.62,-169.32"/>
</g>
<!-- lengthy -->
<g id="node11" class="node">
<title>lengthy</title>
<g id="a_node11"><a xlink:href="PsyllaReference_Types.xhtml#PsyllaReference_Types_Details_lengthy" xlink:title="lengthy" target="_parent">
<polygon fill="linen" stroke="black" points="470,-396 422,-396 422,-360 476,-360 476,-390 470,-396"/>
<polyline fill="none" stroke="black" points="470,-396 470,-390 "/>
<polyline fill="none" stroke="black" points="476,-390 470,-390 "/>
<text text-anchor="middle" x="449" y="-374.4" font-family="Source Code Pro,monospace" font-size="12.00">lengthy</text>
</a>
</g>
</g>
<!-- lengthy&#45;&gt;textual -->
<g id="edge10" class="edge">
<title>lengthy&#45;&gt;textual</title>
<path fill="none" stroke="black" d="M465.46,-359.92C473.65,-350.22 482.7,-337.37 487,-324 491.9,-308.77 492.68,-302.96 487,-288 471.12,-246.2 434.15,-209.44 407.23,-186.79"/>
<polygon fill="black" stroke="black" points="409.18,-183.87 399.23,-180.23 404.74,-189.28 409.18,-183.87"/>
</g>
<!-- scalar -->
<g id="node12" class="node">
<title>scalar</title>
<g id="a_node12"><a xlink:href="PsyllaReference_Types.xhtml#PsyllaReference_Types_Details_scalar" xlink:title="scalar" target="_parent">
<polygon fill="linen" stroke="black" points="546,-396 498,-396 498,-360 552,-360 552,-390 546,-396"/>
<polyline fill="none" stroke="black" points="546,-396 546,-390 "/>
<polyline fill="none" stroke="black" points="552,-390 546,-390 "/>
<text text-anchor="middle" x="525" y="-374.4" font-family="Source Code Pro,monospace" font-size="12.00">scalar</text>
</a>
</g>
</g>
<!-- scalar&#45;&gt;textual -->
<g id="edge11" class="edge">
<title>scalar&#45;&gt;textual</title>
<path fill="none" stroke="black" d="M523.26,-359.64C519.14,-327.36 506.03,-257.6 467,-216 451.77,-199.76 430.44,-186.98 412.25,-178.04"/>
<polygon fill="black" stroke="black" points="413.62,-174.82 403.08,-173.72 410.64,-181.15 413.62,-174.82"/>
</g>
<!-- object -->
<g id="node13" class="node">
<title>object</title>
<g id="a_node13"><a xlink:href="PsyllaReference_Types.xhtml#PsyllaReference_Types_Details_object" xlink:title="object" target="_parent">
<polygon fill="linen" stroke="black" points="353,-468 305,-468 305,-432 359,-432 359,-462 353,-468"/>
<polyline fill="none" stroke="black" points="353,-468 353,-462 "/>
<polyline fill="none" stroke="black" points="359,-462 353,-462 "/>
<text text-anchor="middle" x="332" y="-446.4" font-family="Source Code Pro,monospace" font-size="12.00">object</text>
</a>
</g>
</g>
<!-- object&#45;&gt;value -->
<g id="edge12" class="edge">
<title>object&#45;&gt;value</title>
<path fill="none" stroke="black" d="M304.95,-447.16C244.67,-442.51 101.98,-428.28 68,-396 31.33,-361.16 25.66,-298.51 25.73,-262.49"/>
<polygon fill="black" stroke="black" points="29.23,-262.29 25.9,-252.23 22.23,-262.17 29.23,-262.29"/>
</g>
<!-- object&#45;&gt;concatenable -->
<g id="edge13" class="edge">
<title>object&#45;&gt;concatenable</title>
<path fill="none" stroke="black" d="M304.79,-443.93C253.64,-432.74 144.37,-400.58 101,-324 77.36,-282.26 82.25,-224.22 88.05,-190.43"/>
<polygon fill="black" stroke="black" points="91.54,-190.84 89.93,-180.36 84.65,-189.55 91.54,-190.84"/>
</g>
<!-- object&#45;&gt;evaluable -->
<g id="edge14" class="edge">
<title>object&#45;&gt;evaluable</title>
<path fill="none" stroke="black" d="M308.96,-431.87C274.83,-406.5 210.75,-358.85 172.36,-330.32"/>
<polygon fill="black" stroke="black" points="174.23,-327.35 164.12,-324.19 170.06,-332.96 174.23,-327.35"/>
</g>
<!-- object&#45;&gt;convertabletointeger -->
<g id="edge15" class="edge">
<title>object&#45;&gt;convertabletointeger</title>
<path fill="none" stroke="black" d="M321.75,-431.87C307.01,-407.24 279.71,-361.64 262.49,-332.88"/>
<polygon fill="black" stroke="black" points="265.43,-330.97 257.29,-324.19 259.42,-334.57 265.43,-330.97"/>
</g>
<!-- object&#45;&gt;convertabletointegral -->
<g id="edge16" class="edge">
<title>object&#45;&gt;convertabletointegral</title>
<path fill="none" stroke="black" d="M332.08,-431.85C332.25,-394.83 332.66,-307.18 332.87,-262.39"/>
<polygon fill="black" stroke="black" points="336.37,-262.25 332.92,-252.23 329.37,-262.22 336.37,-262.25"/>
</g>
<!-- object&#45;&gt;convertabletorational -->
<g id="edge17" class="edge">
<title>object&#45;&gt;convertabletorational</title>
<path fill="none" stroke="black" d="M342.49,-431.87C357.58,-407.24 385.52,-361.64 403.14,-332.88"/>
<polygon fill="black" stroke="black" points="406.23,-334.54 408.47,-324.19 400.26,-330.89 406.23,-334.54"/>
</g>
<!-- object&#45;&gt;lengthy -->
<g id="edge19" class="edge">
<title>object&#45;&gt;lengthy</title>
<path fill="none" stroke="black" d="M359.14,-432.76C375.12,-423.2 395.53,-410.99 412.86,-400.62"/>
<polygon fill="black" stroke="black" points="414.82,-403.53 421.61,-395.39 411.23,-397.52 414.82,-403.53"/>
</g>
<!-- object&#45;&gt;scalar -->
<g id="edge20" class="edge">
<title>object&#45;&gt;scalar</title>
<path fill="none" stroke="black" d="M359.01,-440.26C389.74,-430.18 441.32,-412.82 485,-396 486.19,-395.54 487.39,-395.07 488.61,-394.59"/>
<polygon fill="black" stroke="black" points="490.05,-397.78 497.99,-390.77 487.41,-391.3 490.05,-397.78"/>
</g>
<!-- sequential -->
<g id="node15" class="node">
<title>sequential</title>
<g id="a_node15"><a xlink:href="PsyllaReference_Types.xhtml#PsyllaReference_Types_Details_sequential" xlink:title="sequential" target="_parent">
<polygon fill="linen" stroke="black" points="630.15,-396 571.85,-396 571.85,-360 636.15,-360 636.15,-390 630.15,-396"/>
<polyline fill="none" stroke="black" points="630.15,-396 630.15,-390 "/>
<polyline fill="none" stroke="black" points="636.15,-390 630.15,-390 "/>
<text text-anchor="middle" x="604" y="-374.4" font-family="Source Code Pro,monospace" font-size="12.00">sequential</text>
</a>
</g>
</g>
<!-- object&#45;&gt;sequential -->
<g id="edge22" class="edge">
<title>object&#45;&gt;sequential</title>
<path fill="none" stroke="black" d="M359.14,-444.08C402.37,-435.94 489.31,-418.33 561,-396 561.33,-395.9 561.66,-395.79 561.99,-395.69"/>
<polygon fill="black" stroke="black" points="563.46,-398.89 571.78,-392.33 561.19,-392.26 563.46,-398.89"/>
</g>
<!-- streamable -->
<g id="node14" class="node">
<title>streamable</title>
<g id="a_node14"><a xlink:href="PsyllaReference_Types.xhtml#PsyllaReference_Types_Details_streamable" xlink:title="streamable" target="_parent">
<polygon fill="linen" stroke="black" points="633.97,-324 572.03,-324 572.03,-288 639.97,-288 639.97,-318 633.97,-324"/>
<polyline fill="none" stroke="black" points="633.97,-324 633.97,-318 "/>
<polyline fill="none" stroke="black" points="639.97,-318 633.97,-318 "/>
<text text-anchor="middle" x="606" y="-302.4" font-family="Source Code Pro,monospace" font-size="12.00">streamable</text>
</a>
</g>
</g>
<!-- streamable&#45;&gt;iterable -->
<g id="edge18" class="edge">
<title>streamable&#45;&gt;iterable</title>
<path fill="none" stroke="black" d="M605.01,-287.7C604.57,-279.98 604.04,-270.71 603.55,-262.11"/>
<polygon fill="black" stroke="black" points="607.04,-261.89 602.98,-252.1 600.05,-262.29 607.04,-261.89"/>
</g>
<!-- sequential&#45;&gt;streamable -->
<g id="edge21" class="edge">
<title>sequential&#45;&gt;streamable</title>
<path fill="none" stroke="black" d="M604.49,-359.7C604.71,-351.98 604.98,-342.71 605.23,-334.11"/>
<polygon fill="black" stroke="black" points="608.72,-334.2 605.51,-324.1 601.73,-334 608.72,-334.2"/>
</g>
</g>
</svg>
