<?xml version="1.0" encoding="UTF-8" standalone="no"?>
<!DOCTYPE svg PUBLIC "-//W3C//DTD SVG 1.1//EN"
 "http://www.w3.org/Graphics/SVG/1.1/DTD/svg11.dtd">
<!-- Generated by graphviz version 14.0.0 (0)
 -->
<!-- Title: proc Pages: 1 -->
<svg width="411pt" height="548pt"
 viewBox="0.00 0.00 411.00 548.00" xmlns="http://www.w3.org/2000/svg" xmlns:xlink="http://www.w3.org/1999/xlink">
<g id="graph0" class="graph" transform="scale(1 1) rotate(0) translate(4 544)">
<title>proc</title>
<polygon fill="none" stroke="none" points="-4,4 -4,-544 406.65,-544 406.65,4 -4,4"/>
<!-- executable -->
<g id="node1" class="node">
<title>executable</title>
<g id="a_node1"><a xlink:href="PsyllaReference_Types.xhtml#PsyllaReference_Types_Details_executable" xlink:title="executable" target="_parent">
<polygon fill="linen" stroke="black" points="61.3,-396 0,-396 0,-360 67.3,-360 67.3,-390 61.3,-396"/>
<polyline fill="none" stroke="black" points="61.3,-396 61.3,-390"/>
<polyline fill="none" stroke="black" points="67.3,-390 61.3,-390"/>
<text xml:space="preserve" text-anchor="middle" x="33.65" y="-374.4" font-family="Source Code Pro,monospace" font-size="12.00">executable</text>
</a>
</g>
</g>
<!-- proc -->
<g id="node3" class="node">
<title>proc</title>
<g id="a_node3"><a xlink:href="PsyllaReference_Types.xhtml#PsyllaReference_Types_Details_proc" xlink:title="proc" target="_parent">
<polygon fill="wheat" stroke="black" points="74.65,-36 26.65,-36 26.65,0 80.65,0 80.65,-30 74.65,-36"/>
<polyline fill="none" stroke="black" points="74.65,-36 74.65,-30"/>
<polyline fill="none" stroke="black" points="80.65,-30 74.65,-30"/>
<text xml:space="preserve" text-anchor="middle" x="53.65" y="-14.4" font-family="Source Code Pro,monospace" font-size="12.00">proc</text>
</a>
</g>
</g>
<!-- executable&#45;&gt;proc -->
<g id="edge1" class="edge">
<title>executable&#45;&gt;proc</title>
<path fill="none" stroke="black" d="M32.23,-359.52C30.19,-332.74 26.65,-279.92 26.65,-235 123.65,0 123.65,0 26.65,-161 26.65,-120.86 37.19,-75.44 45.1,-47.01"/>
<polygon fill="black" stroke="black" points="48.37,-48.32 47.77,-37.74 41.64,-46.38 48.37,-48.32"/>
</g>
<!-- array -->
<g id="node2" class="node">
<title>array</title>
<g id="a_node2"><a xlink:href="PsyllaReference_Types.xhtml#PsyllaReference_Types_Details_array" xlink:title="array" target="_parent">
<polygon fill="linen" stroke="black" points="129.65,-108 81.65,-108 81.65,-72 135.65,-72 135.65,-102 129.65,-108"/>
<polyline fill="none" stroke="black" points="129.65,-108 129.65,-102"/>
<polyline fill="none" stroke="black" points="135.65,-102 129.65,-102"/>
<text xml:space="preserve" text-anchor="middle" x="108.65" y="-86.4" font-family="Source Code Pro,monospace" font-size="12.00">array</text>
</a>
</g>
</g>
<!-- array&#45;&gt;proc -->
<g id="edge2" class="edge">
<title>array&#45;&gt;proc</title>
<path fill="none" stroke="black" d="M95.05,-71.7C88.73,-63.64 81.07,-53.89 74.06,-44.98"/>
<polygon fill="black" stroke="black" points="76.95,-43 68.02,-37.29 71.45,-47.32 76.95,-43"/>
</g>
<!-- object -->
<g id="node4" class="node">
<title>object</title>
<g id="a_node4"><a xlink:href="PsyllaReference_Types.xhtml#PsyllaReference_Types_Details_object" xlink:title="object" target="_parent">
<polygon fill="linen" stroke="black" points="203.65,-540 155.65,-540 155.65,-504 209.65,-504 209.65,-534 203.65,-540"/>
<polyline fill="none" stroke="black" points="203.65,-540 203.65,-534"/>
<polyline fill="none" stroke="black" points="209.65,-534 203.65,-534"/>
<text xml:space="preserve" text-anchor="middle" x="182.65" y="-518.4" font-family="Source Code Pro,monospace" font-size="12.00">object</text>
</a>
</g>
</g>
<!-- object&#45;&gt;executable -->
<g id="edge3" class="edge">
<title>object&#45;&gt;executable</title>
<path fill="none" stroke="black" d="M155.17,-509.99C135.04,-500.92 107.97,-486.56 88.65,-468 70.28,-450.35 55.53,-425.33 45.95,-406.31"/>
<polygon fill="black" stroke="black" points="49.21,-405.01 41.7,-397.53 42.91,-408.06 49.21,-405.01"/>
</g>
<!-- appendable -->
<g id="node6" class="node">
<title>appendable</title>
<g id="a_node6"><a xlink:href="PsyllaReference_Types.xhtml#PsyllaReference_Types_Details_appendable" xlink:title="appendable" target="_parent">
<polygon fill="linen" stroke="black" points="118.97,-324 54.33,-324 54.33,-288 124.97,-288 124.97,-318 118.97,-324"/>
<polyline fill="none" stroke="black" points="118.97,-324 118.97,-318"/>
<polyline fill="none" stroke="black" points="124.97,-318 118.97,-318"/>
<text xml:space="preserve" text-anchor="middle" x="89.65" y="-302.4" font-family="Source Code Pro,monospace" font-size="12.00">appendable</text>
</a>
</g>
</g>
<!-- object&#45;&gt;appendable -->
<g id="edge9" class="edge">
<title>object&#45;&gt;appendable</title>
<path fill="none" stroke="black" d="M165.23,-503.67C156.23,-493.9 145.68,-481.06 138.65,-468 115.32,-424.7 101.49,-368.74 94.75,-335.48"/>
<polygon fill="black" stroke="black" points="98.21,-334.96 92.87,-325.81 91.34,-336.29 98.21,-334.96"/>
</g>
<!-- indexed -->
<g id="node8" class="node">
<title>indexed</title>
<g id="a_node8"><a xlink:href="PsyllaReference_Types.xhtml#PsyllaReference_Types_Details_indexed" xlink:title="indexed" target="_parent">
<polygon fill="linen" stroke="black" points="156.65,-252 108.65,-252 108.65,-216 162.65,-216 162.65,-246 156.65,-252"/>
<polyline fill="none" stroke="black" points="156.65,-252 156.65,-246"/>
<polyline fill="none" stroke="black" points="162.65,-246 156.65,-246"/>
<text xml:space="preserve" text-anchor="middle" x="135.65" y="-230.4" font-family="Source Code Pro,monospace" font-size="12.00">indexed</text>
</a>
</g>
</g>
<!-- object&#45;&gt;indexed -->
<g id="edge13" class="edge">
<title>object&#45;&gt;indexed</title>
<path fill="none" stroke="black" d="M178.86,-503.86C176.63,-493.5 173.82,-480.02 171.65,-468 158.36,-394.55 145.74,-307.52 139.57,-263.52"/>
<polygon fill="black" stroke="black" points="143.07,-263.22 138.22,-253.8 136.13,-264.18 143.07,-263.22"/>
</g>
<!-- sequential -->
<g id="node9" class="node">
<title>sequential</title>
<g id="a_node9"><a xlink:href="PsyllaReference_Types.xhtml#PsyllaReference_Types_Details_sequential" xlink:title="sequential" target="_parent">
<polygon fill="linen" stroke="black" points="238.97,-468 180.32,-468 180.32,-432 244.97,-432 244.97,-462 238.97,-468"/>
<polyline fill="none" stroke="black" points="238.97,-468 238.97,-462"/>
<polyline fill="none" stroke="black" points="244.97,-462 238.97,-462"/>
<text xml:space="preserve" text-anchor="middle" x="212.65" y="-446.4" font-family="Source Code Pro,monospace" font-size="12.00">sequential</text>
</a>
</g>
</g>
<!-- object&#45;&gt;sequential -->
<g id="edge14" class="edge">
<title>object&#45;&gt;sequential</title>
<path fill="none" stroke="black" d="M190.07,-503.7C193.3,-496.15 197.17,-487.12 200.79,-478.68"/>
<polygon fill="black" stroke="black" points="204,-480.07 204.72,-469.5 197.57,-477.31 204,-480.07"/>
</g>
<!-- clearable -->
<g id="node10" class="node">
<title>clearable</title>
<g id="a_node10"><a xlink:href="PsyllaReference_Types.xhtml#PsyllaReference_Types_Details_clearable" xlink:title="clearable" target="_parent">
<polygon fill="linen" stroke="black" points="358.3,-396 305,-396 305,-360 364.3,-360 364.3,-390 358.3,-396"/>
<polyline fill="none" stroke="black" points="358.3,-396 358.3,-390"/>
<polyline fill="none" stroke="black" points="364.3,-390 358.3,-390"/>
<text xml:space="preserve" text-anchor="middle" x="334.65" y="-374.4" font-family="Source Code Pro,monospace" font-size="12.00">clearable</text>
</a>
</g>
</g>
<!-- object&#45;&gt;clearable -->
<g id="edge15" class="edge">
<title>object&#45;&gt;clearable</title>
<path fill="none" stroke="black" d="M208.21,-503.72C222.15,-493.86 239.41,-480.92 253.65,-468 275.36,-448.3 297.6,-423.47 313.27,-405.04"/>
<polygon fill="black" stroke="black" points="315.89,-407.37 319.64,-397.46 310.53,-402.86 315.89,-407.37"/>
</g>
<!-- lengthy -->
<g id="node12" class="node">
<title>lengthy</title>
<g id="a_node12"><a xlink:href="PsyllaReference_Types.xhtml#PsyllaReference_Types_Details_lengthy" xlink:title="lengthy" target="_parent">
<polygon fill="linen" stroke="black" points="396.65,-468 348.65,-468 348.65,-432 402.65,-432 402.65,-462 396.65,-468"/>
<polyline fill="none" stroke="black" points="396.65,-468 396.65,-462"/>
<polyline fill="none" stroke="black" points="402.65,-462 396.65,-462"/>
<text xml:space="preserve" text-anchor="middle" x="375.65" y="-446.4" font-family="Source Code Pro,monospace" font-size="12.00">lengthy</text>
</a>
</g>
</g>
<!-- object&#45;&gt;lengthy -->
<g id="edge17" class="edge">
<title>object&#45;&gt;lengthy</title>
<path fill="none" stroke="black" d="M209.89,-511.12C243.28,-499.01 300.03,-478.43 337.68,-464.77"/>
<polygon fill="black" stroke="black" points="338.6,-468.16 346.81,-461.46 336.22,-461.58 338.6,-468.16"/>
</g>
<!-- formalarray -->
<g id="node5" class="node">
<title>formalarray</title>
<g id="a_node5"><a xlink:href="PsyllaReference_Types.xhtml#PsyllaReference_Types_Details_formalarray" xlink:title="formalarray" target="_parent">
<polygon fill="linen" stroke="black" points="165.96,-180 99.33,-180 99.33,-144 171.96,-144 171.96,-174 165.96,-180"/>
<polyline fill="none" stroke="black" points="165.96,-180 165.96,-174"/>
<polyline fill="none" stroke="black" points="171.96,-174 165.96,-174"/>
<text xml:space="preserve" text-anchor="middle" x="135.65" y="-158.4" font-family="Source Code Pro,monospace" font-size="12.00">formalarray</text>
</a>
</g>
</g>
<!-- formalarray&#45;&gt;array -->
<g id="edge4" class="edge">
<title>formalarray&#45;&gt;array</title>
<path fill="none" stroke="black" d="M128.98,-143.7C126.07,-136.15 122.58,-127.12 119.33,-118.68"/>
<polygon fill="black" stroke="black" points="122.66,-117.59 115.79,-109.52 116.12,-120.11 122.66,-117.59"/>
</g>
<!-- appendable&#45;&gt;formalarray -->
<g id="edge5" class="edge">
<title>appendable&#45;&gt;formalarray</title>
<path fill="none" stroke="black" d="M89.17,-287.71C89.21,-269.35 90.86,-239.77 99.65,-216 103.05,-206.8 108.38,-197.66 113.9,-189.61"/>
<polygon fill="black" stroke="black" points="116.65,-191.78 119.73,-181.65 111,-187.65 116.65,-191.78"/>
</g>
<!-- container -->
<g id="node7" class="node">
<title>container</title>
<g id="a_node7"><a xlink:href="PsyllaReference_Types.xhtml#PsyllaReference_Types_Details_container" xlink:title="container" target="_parent">
<polygon fill="linen" stroke="black" points="314.97,-252 260.33,-252 260.33,-216 320.97,-216 320.97,-246 314.97,-252"/>
<polyline fill="none" stroke="black" points="314.97,-252 314.97,-246"/>
<polyline fill="none" stroke="black" points="320.97,-246 314.97,-246"/>
<text xml:space="preserve" text-anchor="middle" x="290.65" y="-230.4" font-family="Source Code Pro,monospace" font-size="12.00">container</text>
</a>
</g>
</g>
<!-- container&#45;&gt;formalarray -->
<g id="edge6" class="edge">
<title>container&#45;&gt;formalarray</title>
<path fill="none" stroke="black" d="M260.03,-219.17C237.95,-209.2 207.74,-195.56 182.62,-184.21"/>
<polygon fill="black" stroke="black" points="184.14,-181.06 173.59,-180.13 181.26,-187.44 184.14,-181.06"/>
</g>
<!-- indexed&#45;&gt;formalarray -->
<g id="edge7" class="edge">
<title>indexed&#45;&gt;formalarray</title>
<path fill="none" stroke="black" d="M135.65,-215.7C135.65,-208.41 135.65,-199.73 135.65,-191.54"/>
<polygon fill="black" stroke="black" points="139.15,-191.62 135.65,-181.62 132.15,-191.62 139.15,-191.62"/>
</g>
<!-- sequential&#45;&gt;formalarray -->
<g id="edge8" class="edge">
<title>sequential&#45;&gt;formalarray</title>
<path fill="none" stroke="black" d="M210.56,-431.67C204.74,-384.66 187.71,-255.58 171.65,-216 167.9,-206.77 162.37,-197.51 156.76,-189.37"/>
<polygon fill="black" stroke="black" points="159.6,-187.32 150.89,-181.3 153.94,-191.44 159.6,-187.32"/>
</g>
<!-- streamable -->
<g id="node13" class="node">
<title>streamable</title>
<g id="a_node13"><a xlink:href="PsyllaReference_Types.xhtml#PsyllaReference_Types_Details_streamable" xlink:title="streamable" target="_parent">
<polygon fill="linen" stroke="black" points="280.64,-396 218.66,-396 218.66,-360 286.64,-360 286.64,-390 280.64,-396"/>
<polyline fill="none" stroke="black" points="280.64,-396 280.64,-390"/>
<polyline fill="none" stroke="black" points="286.64,-390 280.64,-390"/>
<text xml:space="preserve" text-anchor="middle" x="252.65" y="-374.4" font-family="Source Code Pro,monospace" font-size="12.00">streamable</text>
</a>
</g>
</g>
<!-- sequential&#45;&gt;streamable -->
<g id="edge18" class="edge">
<title>sequential&#45;&gt;streamable</title>
<path fill="none" stroke="black" d="M222.54,-431.7C226.99,-423.9 232.36,-414.51 237.32,-405.83"/>
<polygon fill="black" stroke="black" points="240.2,-407.84 242.12,-397.42 234.12,-404.36 240.2,-407.84"/>
</g>
<!-- clearable&#45;&gt;container -->
<g id="edge10" class="edge">
<title>clearable&#45;&gt;container</title>
<path fill="none" stroke="black" d="M329.25,-359.59C321.79,-335.5 308.24,-291.75 299.34,-263.03"/>
<polygon fill="black" stroke="black" points="302.7,-262.07 296.4,-253.56 296.02,-264.14 302.7,-262.07"/>
</g>
<!-- iterable -->
<g id="node11" class="node">
<title>iterable</title>
<g id="a_node11"><a xlink:href="PsyllaReference_Types.xhtml#PsyllaReference_Types_Details_iterable" xlink:title="iterable" target="_parent">
<polygon fill="linen" stroke="black" points="280.65,-324 232.65,-324 232.65,-288 286.65,-288 286.65,-318 280.65,-324"/>
<polyline fill="none" stroke="black" points="280.65,-324 280.65,-318"/>
<polyline fill="none" stroke="black" points="286.65,-318 280.65,-318"/>
<text xml:space="preserve" text-anchor="middle" x="259.65" y="-302.4" font-family="Source Code Pro,monospace" font-size="12.00">iterable</text>
</a>
</g>
</g>
<!-- iterable&#45;&gt;container -->
<g id="edge11" class="edge">
<title>iterable&#45;&gt;container</title>
<path fill="none" stroke="black" d="M267.31,-287.7C270.69,-280.07 274.74,-270.92 278.52,-262.4"/>
<polygon fill="black" stroke="black" points="281.61,-264.05 282.46,-253.49 275.21,-261.21 281.61,-264.05"/>
</g>
<!-- lengthy&#45;&gt;container -->
<g id="edge12" class="edge">
<title>lengthy&#45;&gt;container</title>
<path fill="none" stroke="black" d="M378,-431.82C379.88,-413.57 381.1,-384.06 373.65,-360 361.82,-321.83 334.37,-284.52 314.26,-260.75"/>
<polygon fill="black" stroke="black" points="317.15,-258.73 307.95,-253.47 311.86,-263.32 317.15,-258.73"/>
</g>
<!-- streamable&#45;&gt;iterable -->
<g id="edge16" class="edge">
<title>streamable&#45;&gt;iterable</title>
<path fill="none" stroke="black" d="M254.38,-359.7C255.11,-352.41 255.98,-343.73 256.8,-335.54"/>
<polygon fill="black" stroke="black" points="260.28,-335.91 257.79,-325.61 253.31,-335.21 260.28,-335.91"/>
</g>
</g>
</svg>
