<?xml version="1.0" encoding="UTF-8" standalone="no"?>
<!DOCTYPE svg PUBLIC "-//W3C//DTD SVG 1.1//EN"
 "http://www.w3.org/Graphics/SVG/1.1/DTD/svg11.dtd">
<!-- Generated by graphviz version 2.43.0 (0)
 -->
<!-- Title: iterable Pages: 1 -->
<svg width="100pt" height="260pt"
 viewBox="0.00 0.00 100.00 260.00" xmlns="http://www.w3.org/2000/svg" xmlns:xlink="http://www.w3.org/1999/xlink">
<g id="graph0" class="graph" transform="scale(1 1) rotate(0) translate(4 256)">
<title>iterable</title>
<polygon fill="transparent" stroke="transparent" points="-4,4 -4,-256 96,-256 96,4 -4,4"/>
<!-- streamable -->
<g id="node1" class="node">
<title>streamable</title>
<g id="a_node1"><a xlink:href="PsyllaReference_Types.xhtml#PsyllaReference_Types_Details_streamable" xlink:title="streamable" target="_parent">
<polygon fill="linen" stroke="black" points="86,-108 0,-108 0,-72 92,-72 92,-102 86,-108"/>
<polyline fill="none" stroke="black" points="86,-108 86,-102 "/>
<polyline fill="none" stroke="black" points="92,-102 86,-102 "/>
<text text-anchor="middle" x="46" y="-86.9" font-family="Consolas, monospace" font-size="12.00">streamable</text>
</a>
</g>
</g>
<!-- iterable -->
<g id="node2" class="node">
<title>iterable</title>
<g id="a_node2"><a xlink:href="PsyllaReference_Types.xhtml#PsyllaReference_Types_Details_iterable" xlink:title="iterable" target="_parent">
<polygon fill="wheat" stroke="black" points="78.5,-36 7.5,-36 7.5,0 84.5,0 84.5,-30 78.5,-36"/>
<polyline fill="none" stroke="black" points="78.5,-36 78.5,-30 "/>
<polyline fill="none" stroke="black" points="84.5,-30 78.5,-30 "/>
<text text-anchor="middle" x="46" y="-14.9" font-family="Consolas, monospace" font-size="12.00">iterable</text>
</a>
</g>
</g>
<!-- streamable&#45;&gt;iterable -->
<g id="edge1" class="edge">
<title>streamable&#45;&gt;iterable</title>
<path fill="none" stroke="black" d="M46,-71.7C46,-63.98 46,-54.71 46,-46.11"/>
<polygon fill="black" stroke="black" points="49.5,-46.1 46,-36.1 42.5,-46.1 49.5,-46.1"/>
</g>
<!-- sequential -->
<g id="node3" class="node">
<title>sequential</title>
<g id="a_node3"><a xlink:href="PsyllaReference_Types.xhtml#PsyllaReference_Types_Details_sequential" xlink:title="sequential" target="_parent">
<polygon fill="linen" stroke="black" points="86,-180 0,-180 0,-144 92,-144 92,-174 86,-180"/>
<polyline fill="none" stroke="black" points="86,-180 86,-174 "/>
<polyline fill="none" stroke="black" points="92,-174 86,-174 "/>
<text text-anchor="middle" x="46" y="-158.9" font-family="Consolas, monospace" font-size="12.00">sequential</text>
</a>
</g>
</g>
<!-- sequential&#45;&gt;streamable -->
<g id="edge2" class="edge">
<title>sequential&#45;&gt;streamable</title>
<path fill="none" stroke="black" d="M46,-143.7C46,-135.98 46,-126.71 46,-118.11"/>
<polygon fill="black" stroke="black" points="49.5,-118.1 46,-108.1 42.5,-118.1 49.5,-118.1"/>
</g>
<!-- object -->
<g id="node4" class="node">
<title>object</title>
<g id="a_node4"><a xlink:href="PsyllaReference_Types.xhtml#PsyllaReference_Types_Details_object" xlink:title="object" target="_parent">
<polygon fill="linen" stroke="black" points="71,-252 15,-252 15,-216 77,-216 77,-246 71,-252"/>
<polyline fill="none" stroke="black" points="71,-252 71,-246 "/>
<polyline fill="none" stroke="black" points="77,-246 71,-246 "/>
<text text-anchor="middle" x="46" y="-230.9" font-family="Consolas, monospace" font-size="12.00">object</text>
</a>
</g>
</g>
<!-- object&#45;&gt;sequential -->
<g id="edge3" class="edge">
<title>object&#45;&gt;sequential</title>
<path fill="none" stroke="black" d="M46,-215.7C46,-207.98 46,-198.71 46,-190.11"/>
<polygon fill="black" stroke="black" points="49.5,-190.1 46,-180.1 42.5,-190.1 49.5,-190.1"/>
</g>
</g>
</svg>
