<?xml version="1.0" encoding="UTF-8" standalone="no"?>
<!DOCTYPE svg PUBLIC "-//W3C//DTD SVG 1.1//EN"
 "http://www.w3.org/Graphics/SVG/1.1/DTD/svg11.dtd">
<!-- Generated by graphviz version 2.49.3 (0)
 -->
<!-- Title: formalset Pages: 1 -->
<svg width="271pt" height="404pt"
 viewBox="0.00 0.00 270.65 404.00" xmlns="http://www.w3.org/2000/svg" xmlns:xlink="http://www.w3.org/1999/xlink">
<g id="graph0" class="graph" transform="scale(1 1) rotate(0) translate(4 400)">
<title>formalset</title>
<polygon fill="transparent" stroke="transparent" points="-4,4 -4,-400 266.65,-400 266.65,4 -4,4"/>
<!-- appendable -->
<g id="node1" class="node">
<title>appendable</title>
<g id="a_node1"><a xlink:href="PsyllaReference_Types.xhtml#PsyllaReference_Types_Details_appendable" xlink:title="appendable" target="_parent">
<polygon fill="linen" stroke="black" points="64.46,-252 0.18,-252 0.18,-216 70.46,-216 70.46,-246 64.46,-252"/>
<polyline fill="none" stroke="black" points="64.46,-252 64.46,-246 "/>
<polyline fill="none" stroke="black" points="70.46,-246 64.46,-246 "/>
<text text-anchor="middle" x="35.32" y="-230.4" font-family="Source Code Pro,monospace" font-size="12.00">appendable</text>
</a>
</g>
</g>
<!-- formalset -->
<g id="node3" class="node">
<title>formalset</title>
<g id="a_node3"><a xlink:href="PsyllaReference_Types.xhtml#PsyllaReference_Types_Details_formalset" xlink:title="formalset" target="_parent">
<polygon fill="wheat" stroke="black" points="91.14,-36 35.51,-36 35.51,0 97.14,0 97.14,-30 91.14,-36"/>
<polyline fill="none" stroke="black" points="91.14,-36 91.14,-30 "/>
<polyline fill="none" stroke="black" points="97.14,-30 91.14,-30 "/>
<text text-anchor="middle" x="66.32" y="-14.4" font-family="Source Code Pro,monospace" font-size="12.00">formalset</text>
</a>
</g>
</g>
<!-- appendable&#45;&gt;formalset -->
<g id="edge1" class="edge">
<title>appendable&#45;&gt;formalset</title>
<path fill="none" stroke="black" d="M37.81,-215.85C43.17,-178.83 55.86,-91.18 62.35,-46.39"/>
<polygon fill="black" stroke="black" points="65.85,-46.63 63.82,-36.23 58.93,-45.63 65.85,-46.63"/>
</g>
<!-- container -->
<g id="node2" class="node">
<title>container</title>
<g id="a_node2"><a xlink:href="PsyllaReference_Types.xhtml#PsyllaReference_Types_Details_container" xlink:title="container" target="_parent">
<polygon fill="linen" stroke="black" points="148.47,-108 94.18,-108 94.18,-72 154.47,-72 154.47,-102 148.47,-108"/>
<polyline fill="none" stroke="black" points="148.47,-108 148.47,-102 "/>
<polyline fill="none" stroke="black" points="154.47,-102 148.47,-102 "/>
<text text-anchor="middle" x="124.32" y="-86.4" font-family="Source Code Pro,monospace" font-size="12.00">container</text>
</a>
</g>
</g>
<!-- container&#45;&gt;formalset -->
<g id="edge2" class="edge">
<title>container&#45;&gt;formalset</title>
<path fill="none" stroke="black" d="M109.98,-71.7C103.03,-63.3 94.55,-53.07 86.92,-43.86"/>
<polygon fill="black" stroke="black" points="89.57,-41.57 80.49,-36.1 84.18,-46.04 89.57,-41.57"/>
</g>
<!-- object -->
<g id="node4" class="node">
<title>object</title>
<g id="a_node4"><a xlink:href="PsyllaReference_Types.xhtml#PsyllaReference_Types_Details_object" xlink:title="object" target="_parent">
<polygon fill="linen" stroke="black" points="146.32,-396 98.32,-396 98.32,-360 152.32,-360 152.32,-390 146.32,-396"/>
<polyline fill="none" stroke="black" points="146.32,-396 146.32,-390 "/>
<polyline fill="none" stroke="black" points="152.32,-390 146.32,-390 "/>
<text text-anchor="middle" x="125.32" y="-374.4" font-family="Source Code Pro,monospace" font-size="12.00">object</text>
</a>
</g>
</g>
<!-- object&#45;&gt;appendable -->
<g id="edge3" class="edge">
<title>object&#45;&gt;appendable</title>
<path fill="none" stroke="black" d="M110.95,-359.84C102.74,-349.7 92.49,-336.45 84.32,-324 71.01,-303.72 57.86,-279.54 48.54,-261.51"/>
<polygon fill="black" stroke="black" points="51.44,-259.5 43.78,-252.19 45.21,-262.68 51.44,-259.5"/>
</g>
<!-- clearable -->
<g id="node5" class="node">
<title>clearable</title>
<g id="a_node5"><a xlink:href="PsyllaReference_Types.xhtml#PsyllaReference_Types_Details_clearable" xlink:title="clearable" target="_parent">
<polygon fill="linen" stroke="black" points="121.12,-180 67.52,-180 67.52,-144 127.12,-144 127.12,-174 121.12,-180"/>
<polyline fill="none" stroke="black" points="121.12,-180 121.12,-174 "/>
<polyline fill="none" stroke="black" points="127.12,-174 121.12,-174 "/>
<text text-anchor="middle" x="97.32" y="-158.4" font-family="Source Code Pro,monospace" font-size="12.00">clearable</text>
</a>
</g>
</g>
<!-- object&#45;&gt;clearable -->
<g id="edge7" class="edge">
<title>object&#45;&gt;clearable</title>
<path fill="none" stroke="black" d="M122.61,-359.83C121.01,-349.46 118.97,-335.98 117.32,-324 110.87,-277.12 104.27,-222.43 100.5,-190.37"/>
<polygon fill="black" stroke="black" points="103.97,-189.94 99.33,-180.41 97.02,-190.75 103.97,-189.94"/>
</g>
<!-- lengthy -->
<g id="node7" class="node">
<title>lengthy</title>
<g id="a_node7"><a xlink:href="PsyllaReference_Types.xhtml#PsyllaReference_Types_Details_lengthy" xlink:title="lengthy" target="_parent">
<polygon fill="linen" stroke="black" points="174.32,-324 126.32,-324 126.32,-288 180.32,-288 180.32,-318 174.32,-324"/>
<polyline fill="none" stroke="black" points="174.32,-324 174.32,-318 "/>
<polyline fill="none" stroke="black" points="180.32,-318 174.32,-318 "/>
<text text-anchor="middle" x="153.32" y="-302.4" font-family="Source Code Pro,monospace" font-size="12.00">lengthy</text>
</a>
</g>
</g>
<!-- object&#45;&gt;lengthy -->
<g id="edge9" class="edge">
<title>object&#45;&gt;lengthy</title>
<path fill="none" stroke="black" d="M132.24,-359.7C135.4,-351.81 139.2,-342.3 142.7,-333.55"/>
<polygon fill="black" stroke="black" points="146.01,-334.69 146.48,-324.1 139.52,-332.09 146.01,-334.69"/>
</g>
<!-- sequential -->
<g id="node9" class="node">
<title>sequential</title>
<g id="a_node9"><a xlink:href="PsyllaReference_Types.xhtml#PsyllaReference_Types_Details_sequential" xlink:title="sequential" target="_parent">
<polygon fill="linen" stroke="black" points="256.47,-324 198.17,-324 198.17,-288 262.47,-288 262.47,-318 256.47,-324"/>
<polyline fill="none" stroke="black" points="256.47,-324 256.47,-318 "/>
<polyline fill="none" stroke="black" points="262.47,-318 256.47,-318 "/>
<text text-anchor="middle" x="230.32" y="-302.4" font-family="Source Code Pro,monospace" font-size="12.00">sequential</text>
</a>
</g>
</g>
<!-- object&#45;&gt;sequential -->
<g id="edge11" class="edge">
<title>object&#45;&gt;sequential</title>
<path fill="none" stroke="black" d="M151.01,-359.88C164.61,-350.81 181.49,-339.55 196.18,-329.76"/>
<polygon fill="black" stroke="black" points="198.16,-332.65 204.54,-324.19 194.27,-326.82 198.16,-332.65"/>
</g>
<!-- clearable&#45;&gt;container -->
<g id="edge4" class="edge">
<title>clearable&#45;&gt;container</title>
<path fill="none" stroke="black" d="M104,-143.7C107.04,-135.81 110.7,-126.3 114.08,-117.55"/>
<polygon fill="black" stroke="black" points="117.39,-118.69 117.72,-108.1 110.86,-116.17 117.39,-118.69"/>
</g>
<!-- iterable -->
<g id="node6" class="node">
<title>iterable</title>
<g id="a_node6"><a xlink:href="PsyllaReference_Types.xhtml#PsyllaReference_Types_Details_iterable" xlink:title="iterable" target="_parent">
<polygon fill="linen" stroke="black" points="238.32,-180 190.32,-180 190.32,-144 244.32,-144 244.32,-174 238.32,-180"/>
<polyline fill="none" stroke="black" points="238.32,-180 238.32,-174 "/>
<polyline fill="none" stroke="black" points="244.32,-174 238.32,-174 "/>
<text text-anchor="middle" x="217.32" y="-158.4" font-family="Source Code Pro,monospace" font-size="12.00">iterable</text>
</a>
</g>
</g>
<!-- iterable&#45;&gt;container -->
<g id="edge5" class="edge">
<title>iterable&#45;&gt;container</title>
<path fill="none" stroke="black" d="M194.33,-143.7C182.51,-134.8 167.93,-123.82 155.14,-114.2"/>
<polygon fill="black" stroke="black" points="157.14,-111.32 147.05,-108.1 152.93,-116.91 157.14,-111.32"/>
</g>
<!-- lengthy&#45;&gt;container -->
<g id="edge6" class="edge">
<title>lengthy&#45;&gt;container</title>
<path fill="none" stroke="black" d="M152.19,-287.99C150.07,-258.52 144.94,-196.13 136.32,-144 134.91,-135.49 132.98,-126.3 131.08,-118"/>
<polygon fill="black" stroke="black" points="134.44,-117.01 128.73,-108.09 127.63,-118.62 134.44,-117.01"/>
</g>
<!-- streamable -->
<g id="node8" class="node">
<title>streamable</title>
<g id="a_node8"><a xlink:href="PsyllaReference_Types.xhtml#PsyllaReference_Types_Details_streamable" xlink:title="streamable" target="_parent">
<polygon fill="linen" stroke="black" points="251.29,-252 189.35,-252 189.35,-216 257.29,-216 257.29,-246 251.29,-252"/>
<polyline fill="none" stroke="black" points="251.29,-252 251.29,-246 "/>
<polyline fill="none" stroke="black" points="257.29,-246 251.29,-246 "/>
<text text-anchor="middle" x="223.32" y="-230.4" font-family="Source Code Pro,monospace" font-size="12.00">streamable</text>
</a>
</g>
</g>
<!-- streamable&#45;&gt;iterable -->
<g id="edge8" class="edge">
<title>streamable&#45;&gt;iterable</title>
<path fill="none" stroke="black" d="M221.84,-215.7C221.18,-207.98 220.38,-198.71 219.64,-190.11"/>
<polygon fill="black" stroke="black" points="223.13,-189.77 218.79,-180.1 216.15,-190.37 223.13,-189.77"/>
</g>
<!-- sequential&#45;&gt;streamable -->
<g id="edge10" class="edge">
<title>sequential&#45;&gt;streamable</title>
<path fill="none" stroke="black" d="M228.59,-287.7C227.82,-279.98 226.89,-270.71 226.03,-262.11"/>
<polygon fill="black" stroke="black" points="229.51,-261.71 225.03,-252.1 222.54,-262.4 229.51,-261.71"/>
</g>
</g>
</svg>
