<?xml version="1.0" encoding="UTF-8" standalone="no"?>
<!DOCTYPE svg PUBLIC "-//W3C//DTD SVG 1.1//EN"
 "http://www.w3.org/Graphics/SVG/1.1/DTD/svg11.dtd">
<!-- Generated by graphviz version 2.43.0 (0)
 -->
<!-- Title: integral Pages: 1 -->
<svg width="593pt" height="476pt"
 viewBox="0.00 0.00 592.71 476.00" xmlns="http://www.w3.org/2000/svg" xmlns:xlink="http://www.w3.org/1999/xlink">
<g id="graph0" class="graph" transform="scale(1 1) rotate(0) translate(4 472)">
<title>integral</title>
<polygon fill="transparent" stroke="transparent" points="-4,4 -4,-472 588.71,-472 588.71,4 -4,4"/>
<!-- bitwise -->
<g id="node1" class="node">
<title>bitwise</title>
<g id="a_node1"><a xlink:href="PsyllaReference_Types.xhtml#PsyllaReference_Types_Details_bitwise" xlink:title="bitwise" target="_parent">
<polygon fill="linen" stroke="black" points="118.21,-180 55.21,-180 55.21,-144 124.21,-144 124.21,-174 118.21,-180"/>
<polyline fill="none" stroke="black" points="118.21,-180 118.21,-174 "/>
<polyline fill="none" stroke="black" points="124.21,-174 118.21,-174 "/>
<text text-anchor="middle" x="89.71" y="-158.9" font-family="Source Code Pro,monospace" font-size="12.00">bitwise</text>
</a>
</g>
</g>
<!-- integral -->
<g id="node3" class="node">
<title>integral</title>
<g id="a_node3"><a xlink:href="PsyllaReference_Types.xhtml#PsyllaReference_Types_Details_integral" xlink:title="integral" target="_parent">
<polygon fill="wheat" stroke="black" points="172.21,-36 101.21,-36 101.21,0 178.21,0 178.21,-30 172.21,-36"/>
<polyline fill="none" stroke="black" points="172.21,-36 172.21,-30 "/>
<polyline fill="none" stroke="black" points="178.21,-30 172.21,-30 "/>
<text text-anchor="middle" x="139.71" y="-14.9" font-family="Source Code Pro,monospace" font-size="12.00">integral</text>
</a>
</g>
</g>
<!-- bitwise&#45;&gt;integral -->
<g id="edge1" class="edge">
<title>bitwise&#45;&gt;integral</title>
<path fill="none" stroke="black" d="M95.74,-143.87C104.34,-119.46 120.2,-74.43 130.33,-45.64"/>
<polygon fill="black" stroke="black" points="133.64,-46.78 133.66,-36.19 127.04,-44.46 133.64,-46.78"/>
</g>
<!-- rational -->
<g id="node2" class="node">
<title>rational</title>
<g id="a_node2"><a xlink:href="PsyllaReference_Types.xhtml#PsyllaReference_Types_Details_rational" xlink:title="rational" target="_parent">
<polygon fill="linen" stroke="black" points="215.21,-108 144.21,-108 144.21,-72 221.21,-72 221.21,-102 215.21,-108"/>
<polyline fill="none" stroke="black" points="215.21,-108 215.21,-102 "/>
<polyline fill="none" stroke="black" points="221.21,-102 215.21,-102 "/>
<text text-anchor="middle" x="182.71" y="-86.9" font-family="Source Code Pro,monospace" font-size="12.00">rational</text>
</a>
</g>
</g>
<!-- rational&#45;&gt;integral -->
<g id="edge2" class="edge">
<title>rational&#45;&gt;integral</title>
<path fill="none" stroke="black" d="M172.08,-71.7C167.08,-63.56 161.02,-53.69 155.5,-44.7"/>
<polygon fill="black" stroke="black" points="158.43,-42.79 150.22,-36.1 152.47,-46.46 158.43,-42.79"/>
</g>
<!-- logical -->
<g id="node4" class="node">
<title>logical</title>
<g id="a_node4"><a xlink:href="PsyllaReference_Types.xhtml#PsyllaReference_Types_Details_logical" xlink:title="logical" target="_parent">
<polygon fill="linen" stroke="black" points="90.21,-396 27.21,-396 27.21,-360 96.21,-360 96.21,-390 90.21,-396"/>
<polyline fill="none" stroke="black" points="90.21,-396 90.21,-390 "/>
<polyline fill="none" stroke="black" points="96.21,-390 90.21,-390 "/>
<text text-anchor="middle" x="61.71" y="-374.9" font-family="Source Code Pro,monospace" font-size="12.00">logical</text>
</a>
</g>
</g>
<!-- logical&#45;&gt;bitwise -->
<g id="edge3" class="edge">
<title>logical&#45;&gt;bitwise</title>
<path fill="none" stroke="black" d="M47.28,-359.74C23.75,-329.36 -17.74,-264.92 8.71,-216 16.85,-200.94 31.34,-189.48 45.83,-181.13"/>
<polygon fill="black" stroke="black" points="47.64,-184.13 54.8,-176.33 44.33,-177.96 47.64,-184.13"/>
</g>
<!-- realnumeric -->
<g id="node5" class="node">
<title>realnumeric</title>
<g id="a_node5"><a xlink:href="PsyllaReference_Types.xhtml#PsyllaReference_Types_Details_realnumeric" xlink:title="realnumeric" target="_parent">
<polygon fill="linen" stroke="black" points="334.21,-180 241.21,-180 241.21,-144 340.21,-144 340.21,-174 334.21,-180"/>
<polyline fill="none" stroke="black" points="334.21,-180 334.21,-174 "/>
<polyline fill="none" stroke="black" points="340.21,-174 334.21,-174 "/>
<text text-anchor="middle" x="290.71" y="-158.9" font-family="Source Code Pro,monospace" font-size="12.00">realnumeric</text>
</a>
</g>
</g>
<!-- realnumeric&#45;&gt;rational -->
<g id="edge4" class="edge">
<title>realnumeric&#45;&gt;rational</title>
<path fill="none" stroke="black" d="M264.29,-143.88C250.3,-134.81 232.93,-123.55 217.83,-113.76"/>
<polygon fill="black" stroke="black" points="219.53,-110.69 209.23,-108.19 215.72,-116.57 219.53,-110.69"/>
</g>
<!-- object -->
<g id="node6" class="node">
<title>object</title>
<g id="a_node6"><a xlink:href="PsyllaReference_Types.xhtml#PsyllaReference_Types_Details_object" xlink:title="object" target="_parent">
<polygon fill="linen" stroke="black" points="325.71,-468 269.71,-468 269.71,-432 331.71,-432 331.71,-462 325.71,-468"/>
<polyline fill="none" stroke="black" points="325.71,-468 325.71,-462 "/>
<polyline fill="none" stroke="black" points="331.71,-462 325.71,-462 "/>
<text text-anchor="middle" x="300.71" y="-446.9" font-family="Source Code Pro,monospace" font-size="12.00">object</text>
</a>
</g>
</g>
<!-- object&#45;&gt;logical -->
<g id="edge5" class="edge">
<title>object&#45;&gt;logical</title>
<path fill="none" stroke="black" d="M269.47,-439.85C227.77,-427.64 153.67,-405.93 106.16,-392.02"/>
<polygon fill="black" stroke="black" points="107.03,-388.63 96.45,-389.18 105.06,-395.34 107.03,-388.63"/>
</g>
<!-- convertabletointeger -->
<g id="node8" class="node">
<title>convertabletointeger</title>
<g id="a_node8"><a xlink:href="PsyllaReference_Types.xhtml#PsyllaReference_Types_Details_convertabletointeger" xlink:title="convertabletointeger" target="_parent">
<polygon fill="linen" stroke="black" points="179.21,-252 18.21,-252 18.21,-216 185.21,-216 185.21,-246 179.21,-252"/>
<polyline fill="none" stroke="black" points="179.21,-252 179.21,-246 "/>
<polyline fill="none" stroke="black" points="185.21,-246 179.21,-246 "/>
<text text-anchor="middle" x="101.71" y="-230.9" font-family="Source Code Pro,monospace" font-size="12.00">convertabletointeger</text>
</a>
</g>
</g>
<!-- object&#45;&gt;convertabletointeger -->
<g id="edge12" class="edge">
<title>object&#45;&gt;convertabletointeger</title>
<path fill="none" stroke="black" d="M284.76,-431.85C249.61,-394.05 165.37,-303.45 124.59,-259.6"/>
<polygon fill="black" stroke="black" points="127.11,-257.17 117.74,-252.23 121.98,-261.94 127.11,-257.17"/>
</g>
<!-- convertabletointegral -->
<g id="node9" class="node">
<title>convertabletointegral</title>
<g id="a_node9"><a xlink:href="PsyllaReference_Types.xhtml#PsyllaReference_Types_Details_convertabletointegral" xlink:title="convertabletointegral" target="_parent">
<polygon fill="linen" stroke="black" points="371.71,-252 203.71,-252 203.71,-216 377.71,-216 377.71,-246 371.71,-252"/>
<polyline fill="none" stroke="black" points="371.71,-252 371.71,-246 "/>
<polyline fill="none" stroke="black" points="377.71,-246 371.71,-246 "/>
<text text-anchor="middle" x="290.71" y="-230.9" font-family="Source Code Pro,monospace" font-size="12.00">convertabletointegral</text>
</a>
</g>
</g>
<!-- object&#45;&gt;convertabletointegral -->
<g id="edge13" class="edge">
<title>object&#45;&gt;convertabletointegral</title>
<path fill="none" stroke="black" d="M296.35,-431.65C289.47,-402.18 277.29,-340.45 281.71,-288 282.43,-279.5 283.78,-270.31 285.22,-262.01"/>
<polygon fill="black" stroke="black" points="288.68,-262.56 287.06,-252.09 281.8,-261.29 288.68,-262.56"/>
</g>
<!-- scalar -->
<g id="node10" class="node">
<title>scalar</title>
<g id="a_node10"><a xlink:href="PsyllaReference_Types.xhtml#PsyllaReference_Types_Details_scalar" xlink:title="scalar" target="_parent">
<polygon fill="linen" stroke="black" points="346.71,-324 290.71,-324 290.71,-288 352.71,-288 352.71,-318 346.71,-324"/>
<polyline fill="none" stroke="black" points="346.71,-324 346.71,-318 "/>
<polyline fill="none" stroke="black" points="352.71,-318 346.71,-318 "/>
<text text-anchor="middle" x="321.71" y="-302.9" font-family="Source Code Pro,monospace" font-size="12.00">scalar</text>
</a>
</g>
</g>
<!-- object&#45;&gt;scalar -->
<g id="edge14" class="edge">
<title>object&#45;&gt;scalar</title>
<path fill="none" stroke="black" d="M303.24,-431.87C306.82,-407.67 313.4,-363.21 317.66,-334.39"/>
<polygon fill="black" stroke="black" points="321.17,-334.59 319.17,-324.19 314.24,-333.57 321.17,-334.59"/>
</g>
<!-- atomic -->
<g id="node11" class="node">
<title>atomic</title>
<g id="a_node11"><a xlink:href="PsyllaReference_Types.xhtml#PsyllaReference_Types_Details_atomic" xlink:title="atomic" target="_parent">
<polygon fill="linen" stroke="black" points="426.71,-324 370.71,-324 370.71,-288 432.71,-288 432.71,-318 426.71,-324"/>
<polyline fill="none" stroke="black" points="426.71,-324 426.71,-318 "/>
<polyline fill="none" stroke="black" points="432.71,-318 426.71,-318 "/>
<text text-anchor="middle" x="401.71" y="-302.9" font-family="Source Code Pro,monospace" font-size="12.00">atomic</text>
</a>
</g>
</g>
<!-- object&#45;&gt;atomic -->
<g id="edge15" class="edge">
<title>object&#45;&gt;atomic</title>
<path fill="none" stroke="black" d="M310.82,-431.86C321.78,-413.62 340.06,-384.14 357.71,-360 364.56,-350.64 372.53,-340.76 379.8,-332.1"/>
<polygon fill="black" stroke="black" points="382.68,-334.12 386.49,-324.23 377.34,-329.58 382.68,-334.12"/>
</g>
<!-- additive -->
<g id="node13" class="node">
<title>additive</title>
<g id="a_node13"><a xlink:href="PsyllaReference_Types.xhtml#PsyllaReference_Types_Details_additive" xlink:title="additive" target="_parent">
<polygon fill="linen" stroke="black" points="438.21,-396 367.21,-396 367.21,-360 444.21,-360 444.21,-390 438.21,-396"/>
<polyline fill="none" stroke="black" points="438.21,-396 438.21,-390 "/>
<polyline fill="none" stroke="black" points="444.21,-390 438.21,-390 "/>
<text text-anchor="middle" x="405.71" y="-374.9" font-family="Source Code Pro,monospace" font-size="12.00">additive</text>
</a>
</g>
</g>
<!-- object&#45;&gt;additive -->
<g id="edge18" class="edge">
<title>object&#45;&gt;additive</title>
<path fill="none" stroke="black" d="M326.4,-431.88C340,-422.81 356.88,-411.55 371.57,-401.76"/>
<polygon fill="black" stroke="black" points="373.55,-404.65 379.93,-396.19 369.66,-398.82 373.55,-404.65"/>
</g>
<!-- multiplicative -->
<g id="node14" class="node">
<title>multiplicative</title>
<g id="a_node14"><a xlink:href="PsyllaReference_Types.xhtml#PsyllaReference_Types_Details_multiplicative" xlink:title="multiplicative" target="_parent">
<polygon fill="linen" stroke="black" points="578.71,-396 462.71,-396 462.71,-360 584.71,-360 584.71,-390 578.71,-396"/>
<polyline fill="none" stroke="black" points="578.71,-396 578.71,-390 "/>
<polyline fill="none" stroke="black" points="584.71,-390 578.71,-390 "/>
<text text-anchor="middle" x="523.71" y="-374.9" font-family="Source Code Pro,monospace" font-size="12.00">multiplicative</text>
</a>
</g>
</g>
<!-- object&#45;&gt;multiplicative -->
<g id="edge19" class="edge">
<title>object&#45;&gt;multiplicative</title>
<path fill="none" stroke="black" d="M331.72,-439.27C364.69,-428.92 417.78,-412.25 459.78,-399.07"/>
<polygon fill="black" stroke="black" points="460.89,-402.39 469.38,-396.05 458.79,-395.71 460.89,-402.39"/>
</g>
<!-- numeric -->
<g id="node7" class="node">
<title>numeric</title>
<g id="a_node7"><a xlink:href="PsyllaReference_Types.xhtml#PsyllaReference_Types_Details_numeric" xlink:title="numeric" target="_parent">
<polygon fill="linen" stroke="black" points="497.21,-252 434.21,-252 434.21,-216 503.21,-216 503.21,-246 497.21,-252"/>
<polyline fill="none" stroke="black" points="497.21,-252 497.21,-246 "/>
<polyline fill="none" stroke="black" points="503.21,-246 497.21,-246 "/>
<text text-anchor="middle" x="468.71" y="-230.9" font-family="Source Code Pro,monospace" font-size="12.00">numeric</text>
</a>
</g>
</g>
<!-- numeric&#45;&gt;realnumeric -->
<g id="edge6" class="edge">
<title>numeric&#45;&gt;realnumeric</title>
<path fill="none" stroke="black" d="M433.97,-219.34C408.33,-209.26 372.99,-195.36 343.82,-183.89"/>
<polygon fill="black" stroke="black" points="344.78,-180.5 334.19,-180.1 342.22,-187.02 344.78,-180.5"/>
</g>
<!-- convertabletointeger&#45;&gt;realnumeric -->
<g id="edge7" class="edge">
<title>convertabletointeger&#45;&gt;realnumeric</title>
<path fill="none" stroke="black" d="M147.95,-215.88C174.24,-206.14 207.36,-193.87 235.07,-183.61"/>
<polygon fill="black" stroke="black" points="236.46,-186.82 244.63,-180.07 234.03,-180.26 236.46,-186.82"/>
</g>
<!-- convertabletointegral&#45;&gt;realnumeric -->
<g id="edge8" class="edge">
<title>convertabletointegral&#45;&gt;realnumeric</title>
<path fill="none" stroke="black" d="M290.71,-215.7C290.71,-207.98 290.71,-198.71 290.71,-190.11"/>
<polygon fill="black" stroke="black" points="294.21,-190.1 290.71,-180.1 287.21,-190.1 294.21,-190.1"/>
</g>
<!-- scalar&#45;&gt;realnumeric -->
<g id="edge9" class="edge">
<title>scalar&#45;&gt;realnumeric</title>
<path fill="none" stroke="black" d="M352.95,-288.01C365.92,-279.14 379.59,-266.99 386.71,-252 393.58,-237.55 394.84,-229.78 386.71,-216 378.22,-201.61 364.26,-190.85 349.59,-182.94"/>
<polygon fill="black" stroke="black" points="350.91,-179.69 340.4,-178.36 347.79,-185.95 350.91,-179.69"/>
</g>
<!-- atomic&#45;&gt;numeric -->
<g id="edge10" class="edge">
<title>atomic&#45;&gt;numeric</title>
<path fill="none" stroke="black" d="M418.27,-287.7C426.39,-279.22 436.3,-268.86 445.18,-259.58"/>
<polygon fill="black" stroke="black" points="447.95,-261.75 452.34,-252.1 442.9,-256.91 447.95,-261.75"/>
</g>
<!-- arithmetic -->
<g id="node12" class="node">
<title>arithmetic</title>
<g id="a_node12"><a xlink:href="PsyllaReference_Types.xhtml#PsyllaReference_Types_Details_arithmetic" xlink:title="arithmetic" target="_parent">
<polygon fill="linen" stroke="black" points="536.71,-324 450.71,-324 450.71,-288 542.71,-288 542.71,-318 536.71,-324"/>
<polyline fill="none" stroke="black" points="536.71,-324 536.71,-318 "/>
<polyline fill="none" stroke="black" points="542.71,-318 536.71,-318 "/>
<text text-anchor="middle" x="496.71" y="-302.9" font-family="Source Code Pro,monospace" font-size="12.00">arithmetic</text>
</a>
</g>
</g>
<!-- arithmetic&#45;&gt;numeric -->
<g id="edge11" class="edge">
<title>arithmetic&#45;&gt;numeric</title>
<path fill="none" stroke="black" d="M489.79,-287.7C486.64,-279.81 482.83,-270.3 479.33,-261.55"/>
<polygon fill="black" stroke="black" points="482.52,-260.09 475.55,-252.1 476.02,-262.69 482.52,-260.09"/>
</g>
<!-- additive&#45;&gt;arithmetic -->
<g id="edge16" class="edge">
<title>additive&#45;&gt;arithmetic</title>
<path fill="none" stroke="black" d="M428.21,-359.7C439.67,-350.88 453.77,-340.03 466.19,-330.47"/>
<polygon fill="black" stroke="black" points="468.68,-332.98 474.48,-324.1 464.42,-327.43 468.68,-332.98"/>
</g>
<!-- multiplicative&#45;&gt;arithmetic -->
<g id="edge17" class="edge">
<title>multiplicative&#45;&gt;arithmetic</title>
<path fill="none" stroke="black" d="M517.04,-359.7C514,-351.81 510.33,-342.3 506.95,-333.55"/>
<polygon fill="black" stroke="black" points="510.17,-332.17 503.31,-324.1 503.64,-334.69 510.17,-332.17"/>
</g>
</g>
</svg>
