<?xml version="1.0" encoding="UTF-8" standalone="no"?>
<!DOCTYPE svg PUBLIC "-//W3C//DTD SVG 1.1//EN"
 "http://www.w3.org/Graphics/SVG/1.1/DTD/svg11.dtd">
<!-- Generated by graphviz version 2.43.0 (0)
 -->
<!-- Title: biginteger Pages: 1 -->
<svg width="306pt" height="476pt"
 viewBox="0.00 0.00 305.50 476.00" xmlns="http://www.w3.org/2000/svg" xmlns:xlink="http://www.w3.org/1999/xlink">
<g id="graph0" class="graph" transform="scale(1 1) rotate(0) translate(4 472)">
<title>biginteger</title>
<polygon fill="transparent" stroke="transparent" points="-4,4 -4,-472 301.5,-472 301.5,4 -4,4"/>
<!-- integral -->
<g id="node1" class="node">
<title>integral</title>
<g id="a_node1"><a xlink:href="PsyllaReference_Types.xhtml#PsyllaReference_Types_Details_integral" xlink:title="integral" target="_parent">
<polygon fill="linen" stroke="black" points="118,-108 47,-108 47,-72 124,-72 124,-102 118,-108"/>
<polyline fill="none" stroke="black" points="118,-108 118,-102 "/>
<polyline fill="none" stroke="black" points="124,-102 118,-102 "/>
<text text-anchor="middle" x="85.5" y="-86.9" font-family="PT Mono, monospace" font-size="12.00">integral</text>
</a>
</g>
</g>
<!-- biginteger -->
<g id="node2" class="node">
<title>biginteger</title>
<g id="a_node2"><a xlink:href="PsyllaReference_Types.xhtml#PsyllaReference_Types_Details_biginteger" xlink:title="biginteger" target="_parent">
<polygon fill="wheat" stroke="black" points="125.5,-36 39.5,-36 39.5,0 131.5,0 131.5,-30 125.5,-36"/>
<polyline fill="none" stroke="black" points="125.5,-36 125.5,-30 "/>
<polyline fill="none" stroke="black" points="131.5,-30 125.5,-30 "/>
<text text-anchor="middle" x="85.5" y="-14.9" font-family="PT Mono, monospace" font-size="12.00">biginteger</text>
</a>
</g>
</g>
<!-- integral&#45;&gt;biginteger -->
<g id="edge1" class="edge">
<title>integral&#45;&gt;biginteger</title>
<path fill="none" stroke="black" d="M85.5,-71.7C85.5,-63.98 85.5,-54.71 85.5,-46.11"/>
<polygon fill="black" stroke="black" points="89,-46.1 85.5,-36.1 82,-46.1 89,-46.1"/>
</g>
<!-- bitwise -->
<g id="node3" class="node">
<title>bitwise</title>
<g id="a_node3"><a xlink:href="PsyllaReference_Types.xhtml#PsyllaReference_Types_Details_bitwise" xlink:title="bitwise" target="_parent">
<polygon fill="linen" stroke="black" points="63,-180 0,-180 0,-144 69,-144 69,-174 63,-180"/>
<polyline fill="none" stroke="black" points="63,-180 63,-174 "/>
<polyline fill="none" stroke="black" points="69,-174 63,-174 "/>
<text text-anchor="middle" x="34.5" y="-158.9" font-family="PT Mono, monospace" font-size="12.00">bitwise</text>
</a>
</g>
</g>
<!-- bitwise&#45;&gt;integral -->
<g id="edge2" class="edge">
<title>bitwise&#45;&gt;integral</title>
<path fill="none" stroke="black" d="M47.11,-143.7C53.1,-135.47 60.38,-125.48 66.98,-116.42"/>
<polygon fill="black" stroke="black" points="69.98,-118.25 73.04,-108.1 64.32,-114.13 69.98,-118.25"/>
</g>
<!-- realnumeric -->
<g id="node4" class="node">
<title>realnumeric</title>
<g id="a_node4"><a xlink:href="PsyllaReference_Types.xhtml#PsyllaReference_Types_Details_realnumeric" xlink:title="realnumeric" target="_parent">
<polygon fill="linen" stroke="black" points="180,-180 87,-180 87,-144 186,-144 186,-174 180,-180"/>
<polyline fill="none" stroke="black" points="180,-180 180,-174 "/>
<polyline fill="none" stroke="black" points="186,-174 180,-174 "/>
<text text-anchor="middle" x="136.5" y="-158.9" font-family="PT Mono, monospace" font-size="12.00">realnumeric</text>
</a>
</g>
</g>
<!-- realnumeric&#45;&gt;integral -->
<g id="edge3" class="edge">
<title>realnumeric&#45;&gt;integral</title>
<path fill="none" stroke="black" d="M123.89,-143.7C117.9,-135.47 110.62,-125.48 104.02,-116.42"/>
<polygon fill="black" stroke="black" points="106.68,-114.13 97.96,-108.1 101.02,-118.25 106.68,-114.13"/>
</g>
<!-- logical -->
<g id="node5" class="node">
<title>logical</title>
<g id="a_node5"><a xlink:href="PsyllaReference_Types.xhtml#PsyllaReference_Types_Details_logical" xlink:title="logical" target="_parent">
<polygon fill="linen" stroke="black" points="63,-396 0,-396 0,-360 69,-360 69,-390 63,-396"/>
<polyline fill="none" stroke="black" points="63,-396 63,-390 "/>
<polyline fill="none" stroke="black" points="69,-390 63,-390 "/>
<text text-anchor="middle" x="34.5" y="-374.9" font-family="PT Mono, monospace" font-size="12.00">logical</text>
</a>
</g>
</g>
<!-- logical&#45;&gt;bitwise -->
<g id="edge4" class="edge">
<title>logical&#45;&gt;bitwise</title>
<path fill="none" stroke="black" d="M34.5,-359.85C34.5,-322.83 34.5,-235.18 34.5,-190.39"/>
<polygon fill="black" stroke="black" points="38,-190.23 34.5,-180.23 31,-190.23 38,-190.23"/>
</g>
<!-- numeric -->
<g id="node6" class="node">
<title>numeric</title>
<g id="a_node6"><a xlink:href="PsyllaReference_Types.xhtml#PsyllaReference_Types_Details_numeric" xlink:title="numeric" target="_parent">
<polygon fill="linen" stroke="black" points="210,-252 147,-252 147,-216 216,-216 216,-246 210,-252"/>
<polyline fill="none" stroke="black" points="210,-252 210,-246 "/>
<polyline fill="none" stroke="black" points="216,-246 210,-246 "/>
<text text-anchor="middle" x="181.5" y="-230.9" font-family="PT Mono, monospace" font-size="12.00">numeric</text>
</a>
</g>
</g>
<!-- numeric&#45;&gt;realnumeric -->
<g id="edge5" class="edge">
<title>numeric&#45;&gt;realnumeric</title>
<path fill="none" stroke="black" d="M170.38,-215.7C165.14,-207.56 158.8,-197.69 153.02,-188.7"/>
<polygon fill="black" stroke="black" points="155.85,-186.62 147.5,-180.1 149.96,-190.41 155.85,-186.62"/>
</g>
<!-- scalar -->
<g id="node7" class="node">
<title>scalar</title>
<g id="a_node7"><a xlink:href="PsyllaReference_Types.xhtml#PsyllaReference_Types_Details_scalar" xlink:title="scalar" target="_parent">
<polygon fill="linen" stroke="black" points="122.5,-252 66.5,-252 66.5,-216 128.5,-216 128.5,-246 122.5,-252"/>
<polyline fill="none" stroke="black" points="122.5,-252 122.5,-246 "/>
<polyline fill="none" stroke="black" points="128.5,-246 122.5,-246 "/>
<text text-anchor="middle" x="97.5" y="-230.9" font-family="PT Mono, monospace" font-size="12.00">scalar</text>
</a>
</g>
</g>
<!-- scalar&#45;&gt;realnumeric -->
<g id="edge6" class="edge">
<title>scalar&#45;&gt;realnumeric</title>
<path fill="none" stroke="black" d="M107.14,-215.7C111.63,-207.64 117.06,-197.89 122.02,-188.98"/>
<polygon fill="black" stroke="black" points="125.16,-190.54 126.97,-180.1 119.05,-187.14 125.16,-190.54"/>
</g>
<!-- object -->
<g id="node8" class="node">
<title>object</title>
<g id="a_node8"><a xlink:href="PsyllaReference_Types.xhtml#PsyllaReference_Types_Details_object" xlink:title="object" target="_parent">
<polygon fill="linen" stroke="black" points="151.5,-468 95.5,-468 95.5,-432 157.5,-432 157.5,-462 151.5,-468"/>
<polyline fill="none" stroke="black" points="151.5,-468 151.5,-462 "/>
<polyline fill="none" stroke="black" points="157.5,-462 151.5,-462 "/>
<text text-anchor="middle" x="126.5" y="-446.9" font-family="PT Mono, monospace" font-size="12.00">object</text>
</a>
</g>
</g>
<!-- object&#45;&gt;logical -->
<g id="edge7" class="edge">
<title>object&#45;&gt;logical</title>
<path fill="none" stroke="black" d="M103.76,-431.7C92.06,-422.8 77.64,-411.82 64.99,-402.2"/>
<polygon fill="black" stroke="black" points="67.06,-399.37 56.98,-396.1 62.82,-404.94 67.06,-399.37"/>
</g>
<!-- object&#45;&gt;scalar -->
<g id="edge10" class="edge">
<title>object&#45;&gt;scalar</title>
<path fill="none" stroke="black" d="M124.18,-431.85C119.16,-394.83 107.28,-307.18 101.21,-262.39"/>
<polygon fill="black" stroke="black" points="104.65,-261.67 99.84,-252.23 97.71,-262.61 104.65,-261.67"/>
</g>
<!-- atomic -->
<g id="node9" class="node">
<title>atomic</title>
<g id="a_node9"><a xlink:href="PsyllaReference_Types.xhtml#PsyllaReference_Types_Details_atomic" xlink:title="atomic" target="_parent">
<polygon fill="linen" stroke="black" points="181.5,-324 125.5,-324 125.5,-288 187.5,-288 187.5,-318 181.5,-324"/>
<polyline fill="none" stroke="black" points="181.5,-324 181.5,-318 "/>
<polyline fill="none" stroke="black" points="187.5,-318 181.5,-318 "/>
<text text-anchor="middle" x="156.5" y="-302.9" font-family="PT Mono, monospace" font-size="12.00">atomic</text>
</a>
</g>
</g>
<!-- object&#45;&gt;atomic -->
<g id="edge11" class="edge">
<title>object&#45;&gt;atomic</title>
<path fill="none" stroke="black" d="M130.12,-431.87C135.25,-407.56 144.71,-362.82 150.79,-334.01"/>
<polygon fill="black" stroke="black" points="154.23,-334.7 152.87,-324.19 147.38,-333.25 154.23,-334.7"/>
</g>
<!-- additive -->
<g id="node11" class="node">
<title>additive</title>
<g id="a_node11"><a xlink:href="PsyllaReference_Types.xhtml#PsyllaReference_Types_Details_additive" xlink:title="additive" target="_parent">
<polygon fill="linen" stroke="black" points="260,-396 189,-396 189,-360 266,-360 266,-390 260,-396"/>
<polyline fill="none" stroke="black" points="260,-396 260,-390 "/>
<polyline fill="none" stroke="black" points="266,-390 260,-390 "/>
<text text-anchor="middle" x="227.5" y="-374.9" font-family="PT Mono, monospace" font-size="12.00">additive</text>
</a>
</g>
</g>
<!-- object&#45;&gt;additive -->
<g id="edge13" class="edge">
<title>object&#45;&gt;additive</title>
<path fill="none" stroke="black" d="M151.21,-431.88C164.17,-422.89 180.23,-411.76 194.27,-402.03"/>
<polygon fill="black" stroke="black" points="196.47,-404.76 202.7,-396.19 192.48,-399.01 196.47,-404.76"/>
</g>
<!-- atomic&#45;&gt;numeric -->
<g id="edge8" class="edge">
<title>atomic&#45;&gt;numeric</title>
<path fill="none" stroke="black" d="M162.68,-287.7C165.5,-279.81 168.89,-270.3 172.02,-261.55"/>
<polygon fill="black" stroke="black" points="175.32,-262.7 175.39,-252.1 168.73,-260.34 175.32,-262.7"/>
</g>
<!-- arithmetic -->
<g id="node10" class="node">
<title>arithmetic</title>
<g id="a_node10"><a xlink:href="PsyllaReference_Types.xhtml#PsyllaReference_Types_Details_arithmetic" xlink:title="arithmetic" target="_parent">
<polygon fill="linen" stroke="black" points="291.5,-324 205.5,-324 205.5,-288 297.5,-288 297.5,-318 291.5,-324"/>
<polyline fill="none" stroke="black" points="291.5,-324 291.5,-318 "/>
<polyline fill="none" stroke="black" points="297.5,-318 291.5,-318 "/>
<text text-anchor="middle" x="251.5" y="-302.9" font-family="PT Mono, monospace" font-size="12.00">arithmetic</text>
</a>
</g>
</g>
<!-- arithmetic&#45;&gt;numeric -->
<g id="edge9" class="edge">
<title>arithmetic&#45;&gt;numeric</title>
<path fill="none" stroke="black" d="M234.2,-287.7C225.64,-279.14 215.16,-268.66 205.8,-259.3"/>
<polygon fill="black" stroke="black" points="208.15,-256.7 198.6,-252.1 203.2,-261.65 208.15,-256.7"/>
</g>
<!-- additive&#45;&gt;arithmetic -->
<g id="edge12" class="edge">
<title>additive&#45;&gt;arithmetic</title>
<path fill="none" stroke="black" d="M233.43,-359.7C236.11,-351.9 239.33,-342.51 242.3,-333.83"/>
<polygon fill="black" stroke="black" points="245.7,-334.7 245.64,-324.1 239.08,-332.43 245.7,-334.7"/>
</g>
</g>
</svg>
