<?xml version="1.0" encoding="UTF-8" standalone="no"?>
<!DOCTYPE svg PUBLIC "-//W3C//DTD SVG 1.1//EN"
 "http://www.w3.org/Graphics/SVG/1.1/DTD/svg11.dtd">
<!-- Generated by graphviz version 2.43.0 (0)
 -->
<!-- Title: iterable Pages: 1 -->
<svg width="107pt" height="260pt"
 viewBox="0.00 0.00 107.00 260.00" xmlns="http://www.w3.org/2000/svg" xmlns:xlink="http://www.w3.org/1999/xlink">
<g id="graph0" class="graph" transform="scale(1 1) rotate(0) translate(4 256)">
<title>iterable</title>
<polygon fill="transparent" stroke="transparent" points="-4,4 -4,-256 103,-256 103,4 -4,4"/>
<!-- streamable -->
<g id="node1" class="node">
<title>streamable</title>
<g id="a_node1"><a xlink:href="PsyllaReference_Types.xhtml#PsyllaReference_Types_Details_streamable" xlink:title="streamable" target="_parent">
<polygon fill="linen" stroke="black" points="93,-108 0,-108 0,-72 99,-72 99,-102 93,-108"/>
<polyline fill="none" stroke="black" points="93,-108 93,-102 "/>
<polyline fill="none" stroke="black" points="99,-102 93,-102 "/>
<text text-anchor="middle" x="49.5" y="-86.3" font-family="Consolas, monospace" font-size="14.00">streamable</text>
</a>
</g>
</g>
<!-- iterable -->
<g id="node2" class="node">
<title>iterable</title>
<g id="a_node2"><a xlink:href="PsyllaReference_Types.xhtml#PsyllaReference_Types_Details_iterable" xlink:title="iterable" target="_parent">
<polygon fill="wheat" stroke="black" points="85,-36 8,-36 8,0 91,0 91,-30 85,-36"/>
<polyline fill="none" stroke="black" points="85,-36 85,-30 "/>
<polyline fill="none" stroke="black" points="91,-30 85,-30 "/>
<text text-anchor="middle" x="49.5" y="-14.3" font-family="Consolas, monospace" font-size="14.00">iterable</text>
</a>
</g>
</g>
<!-- streamable&#45;&gt;iterable -->
<g id="edge1" class="edge">
<title>streamable&#45;&gt;iterable</title>
<path fill="none" stroke="black" d="M49.5,-71.7C49.5,-63.98 49.5,-54.71 49.5,-46.11"/>
<polygon fill="black" stroke="black" points="53,-46.1 49.5,-36.1 46,-46.1 53,-46.1"/>
</g>
<!-- sequential -->
<g id="node3" class="node">
<title>sequential</title>
<g id="a_node3"><a xlink:href="PsyllaReference_Types.xhtml#PsyllaReference_Types_Details_sequential" xlink:title="sequential" target="_parent">
<polygon fill="linen" stroke="black" points="93,-180 0,-180 0,-144 99,-144 99,-174 93,-180"/>
<polyline fill="none" stroke="black" points="93,-180 93,-174 "/>
<polyline fill="none" stroke="black" points="99,-174 93,-174 "/>
<text text-anchor="middle" x="49.5" y="-158.3" font-family="Consolas, monospace" font-size="14.00">sequential</text>
</a>
</g>
</g>
<!-- sequential&#45;&gt;streamable -->
<g id="edge2" class="edge">
<title>sequential&#45;&gt;streamable</title>
<path fill="none" stroke="black" d="M49.5,-143.7C49.5,-135.98 49.5,-126.71 49.5,-118.11"/>
<polygon fill="black" stroke="black" points="53,-118.1 49.5,-108.1 46,-118.1 53,-118.1"/>
</g>
<!-- object -->
<g id="node4" class="node">
<title>object</title>
<g id="a_node4"><a xlink:href="PsyllaReference_Types.xhtml#PsyllaReference_Types_Details_object" xlink:title="object" target="_parent">
<polygon fill="linen" stroke="black" points="76.5,-252 16.5,-252 16.5,-216 82.5,-216 82.5,-246 76.5,-252"/>
<polyline fill="none" stroke="black" points="76.5,-252 76.5,-246 "/>
<polyline fill="none" stroke="black" points="82.5,-246 76.5,-246 "/>
<text text-anchor="middle" x="49.5" y="-230.3" font-family="Consolas, monospace" font-size="14.00">object</text>
</a>
</g>
</g>
<!-- object&#45;&gt;sequential -->
<g id="edge3" class="edge">
<title>object&#45;&gt;sequential</title>
<path fill="none" stroke="black" d="M49.5,-215.7C49.5,-207.98 49.5,-198.71 49.5,-190.11"/>
<polygon fill="black" stroke="black" points="53,-190.1 49.5,-180.1 46,-190.1 53,-190.1"/>
</g>
</g>
</svg>
