<?xml version="1.0" encoding="UTF-8" standalone="no"?>
<!DOCTYPE svg PUBLIC "-//W3C//DTD SVG 1.1//EN"
 "http://www.w3.org/Graphics/SVG/1.1/DTD/svg11.dtd">
<!-- Generated by graphviz version 2.43.0 (0)
 -->
<!-- Title: stringreader Pages: 1 -->
<svg width="463pt" height="332pt"
 viewBox="0.00 0.00 463.00 332.00" xmlns="http://www.w3.org/2000/svg" xmlns:xlink="http://www.w3.org/1999/xlink">
<g id="graph0" class="graph" transform="scale(1 1) rotate(0) translate(4 328)">
<title>stringreader</title>
<polygon fill="transparent" stroke="transparent" points="-4,4 -4,-328 459,-328 459,4 -4,4"/>
<!-- reader -->
<g id="node1" class="node">
<title>reader</title>
<g id="a_node1"><a xlink:href="PsyllaReference_Types.xhtml#PsyllaReference_Types_Details_reader" xlink:title="reader" target="_parent">
<polygon fill="linen" stroke="black" points="289,-108 206,-108 206,-72 295,-72 295,-102 289,-108"/>
<polyline fill="none" stroke="black" points="289,-108 289,-102 "/>
<polyline fill="none" stroke="black" points="295,-102 289,-102 "/>
<text text-anchor="middle" x="250.5" y="-85" font-family="PT Mono, monospace" font-size="20.00">reader</text>
</a>
</g>
</g>
<!-- stringreader -->
<g id="node2" class="node">
<title>stringreader</title>
<g id="a_node2"><a xlink:href="PsyllaReference_Types.xhtml#PsyllaReference_Types_Details_stringreader" xlink:title="stringreader" target="_parent">
<polygon fill="wheat" stroke="black" points="325,-36 170,-36 170,0 331,0 331,-30 325,-36"/>
<polyline fill="none" stroke="black" points="325,-36 325,-30 "/>
<polyline fill="none" stroke="black" points="331,-30 325,-30 "/>
<text text-anchor="middle" x="250.5" y="-13" font-family="PT Mono, monospace" font-size="20.00">stringreader</text>
</a>
</g>
</g>
<!-- reader&#45;&gt;stringreader -->
<g id="edge1" class="edge">
<title>reader&#45;&gt;stringreader</title>
<path fill="none" stroke="black" d="M250.5,-71.7C250.5,-63.98 250.5,-54.71 250.5,-46.11"/>
<polygon fill="black" stroke="black" points="254,-46.1 250.5,-36.1 247,-46.1 254,-46.1"/>
</g>
<!-- closeable -->
<g id="node3" class="node">
<title>closeable</title>
<g id="a_node3"><a xlink:href="PsyllaReference_Types.xhtml#PsyllaReference_Types_Details_closeable" xlink:title="closeable" target="_parent">
<polygon fill="linen" stroke="black" points="119,-180 0,-180 0,-144 125,-144 125,-174 119,-180"/>
<polyline fill="none" stroke="black" points="119,-180 119,-174 "/>
<polyline fill="none" stroke="black" points="125,-174 119,-174 "/>
<text text-anchor="middle" x="62.5" y="-157" font-family="PT Mono, monospace" font-size="20.00">closeable</text>
</a>
</g>
</g>
<!-- closeable&#45;&gt;reader -->
<g id="edge2" class="edge">
<title>closeable&#45;&gt;reader</title>
<path fill="none" stroke="black" d="M108.49,-143.88C135.04,-133.99 168.57,-121.51 196.38,-111.15"/>
<polygon fill="black" stroke="black" points="197.81,-114.35 205.96,-107.59 195.36,-107.79 197.81,-114.35"/>
</g>
<!-- evaluable -->
<g id="node4" class="node">
<title>evaluable</title>
<g id="a_node4"><a xlink:href="PsyllaReference_Types.xhtml#PsyllaReference_Types_Details_evaluable" xlink:title="evaluable" target="_parent">
<polygon fill="linen" stroke="black" points="262,-180 143,-180 143,-144 268,-144 268,-174 262,-180"/>
<polyline fill="none" stroke="black" points="262,-180 262,-174 "/>
<polyline fill="none" stroke="black" points="268,-174 262,-174 "/>
<text text-anchor="middle" x="205.5" y="-157" font-family="PT Mono, monospace" font-size="20.00">evaluable</text>
</a>
</g>
</g>
<!-- evaluable&#45;&gt;reader -->
<g id="edge3" class="edge">
<title>evaluable&#45;&gt;reader</title>
<path fill="none" stroke="black" d="M216.62,-143.7C221.86,-135.56 228.2,-125.69 233.98,-116.7"/>
<polygon fill="black" stroke="black" points="237.04,-118.41 239.5,-108.1 231.15,-114.62 237.04,-118.41"/>
</g>
<!-- readable -->
<g id="node5" class="node">
<title>readable</title>
<g id="a_node5"><a xlink:href="PsyllaReference_Types.xhtml#PsyllaReference_Types_Details_readable" xlink:title="readable" target="_parent">
<polygon fill="linen" stroke="black" points="449,-180 342,-180 342,-144 455,-144 455,-174 449,-180"/>
<polyline fill="none" stroke="black" points="449,-180 449,-174 "/>
<polyline fill="none" stroke="black" points="455,-174 449,-174 "/>
<text text-anchor="middle" x="398.5" y="-157" font-family="PT Mono, monospace" font-size="20.00">readable</text>
</a>
</g>
</g>
<!-- readable&#45;&gt;reader -->
<g id="edge4" class="edge">
<title>readable&#45;&gt;reader</title>
<path fill="none" stroke="black" d="M362.3,-143.88C342.24,-134.39 317.13,-122.51 295.79,-112.42"/>
<polygon fill="black" stroke="black" points="297.12,-109.18 286.59,-108.07 294.13,-115.51 297.12,-109.18"/>
</g>
<!-- resetable -->
<g id="node6" class="node">
<title>resetable</title>
<g id="a_node6"><a xlink:href="PsyllaReference_Types.xhtml#PsyllaReference_Types_Details_resetable" xlink:title="resetable" target="_parent">
<polygon fill="linen" stroke="black" points="344,-252 225,-252 225,-216 350,-216 350,-246 344,-252"/>
<polyline fill="none" stroke="black" points="344,-252 344,-246 "/>
<polyline fill="none" stroke="black" points="350,-246 344,-246 "/>
<text text-anchor="middle" x="287.5" y="-229" font-family="PT Mono, monospace" font-size="20.00">resetable</text>
</a>
</g>
</g>
<!-- resetable&#45;&gt;reader -->
<g id="edge5" class="edge">
<title>resetable&#45;&gt;reader</title>
<path fill="none" stroke="black" d="M287.07,-215.93C286.22,-197.75 283.75,-168.32 276.5,-144 273.78,-134.87 269.6,-125.37 265.39,-116.99"/>
<polygon fill="black" stroke="black" points="268.45,-115.29 260.69,-108.07 262.26,-118.55 268.45,-115.29"/>
</g>
<!-- object -->
<g id="node7" class="node">
<title>object</title>
<g id="a_node7"><a xlink:href="PsyllaReference_Types.xhtml#PsyllaReference_Types_Details_object" xlink:title="object" target="_parent">
<polygon fill="linen" stroke="black" points="280,-324 197,-324 197,-288 286,-288 286,-318 280,-324"/>
<polyline fill="none" stroke="black" points="280,-324 280,-318 "/>
<polyline fill="none" stroke="black" points="286,-318 280,-318 "/>
<text text-anchor="middle" x="241.5" y="-301" font-family="PT Mono, monospace" font-size="20.00">object</text>
</a>
</g>
</g>
<!-- object&#45;&gt;closeable -->
<g id="edge6" class="edge">
<title>object&#45;&gt;closeable</title>
<path fill="none" stroke="black" d="M219.91,-287.87C188.06,-262.6 128.37,-215.25 92.35,-186.68"/>
<polygon fill="black" stroke="black" points="94.18,-183.66 84.17,-180.19 89.83,-189.15 94.18,-183.66"/>
</g>
<!-- object&#45;&gt;evaluable -->
<g id="edge7" class="edge">
<title>object&#45;&gt;evaluable</title>
<path fill="none" stroke="black" d="M231.26,-287.94C225.68,-277.84 219.18,-264.59 215.5,-252 209.59,-231.76 207.14,-207.98 206.13,-190.1"/>
<polygon fill="black" stroke="black" points="209.63,-189.91 205.69,-180.07 202.64,-190.22 209.63,-189.91"/>
</g>
<!-- object&#45;&gt;resetable -->
<g id="edge9" class="edge">
<title>object&#45;&gt;resetable</title>
<path fill="none" stroke="black" d="M252.87,-287.7C258.22,-279.56 264.7,-269.69 270.61,-260.7"/>
<polygon fill="black" stroke="black" points="273.69,-262.38 276.26,-252.1 267.84,-258.54 273.69,-262.38"/>
</g>
<!-- ready -->
<g id="node8" class="node">
<title>ready</title>
<g id="a_node8"><a xlink:href="PsyllaReference_Types.xhtml#PsyllaReference_Types_Details_ready" xlink:title="ready" target="_parent">
<polygon fill="linen" stroke="black" points="439,-252 368,-252 368,-216 445,-216 445,-246 439,-252"/>
<polyline fill="none" stroke="black" points="439,-252 439,-246 "/>
<polyline fill="none" stroke="black" points="445,-246 439,-246 "/>
<text text-anchor="middle" x="406.5" y="-229" font-family="PT Mono, monospace" font-size="20.00">ready</text>
</a>
</g>
</g>
<!-- object&#45;&gt;ready -->
<g id="edge10" class="edge">
<title>object&#45;&gt;ready</title>
<path fill="none" stroke="black" d="M281.86,-287.88C305.03,-278.05 334.24,-265.65 358.57,-255.33"/>
<polygon fill="black" stroke="black" points="360.13,-258.47 367.97,-251.35 357.4,-252.03 360.13,-258.47"/>
</g>
<!-- ready&#45;&gt;readable -->
<g id="edge8" class="edge">
<title>ready&#45;&gt;readable</title>
<path fill="none" stroke="black" d="M404.52,-215.7C403.64,-207.98 402.58,-198.71 401.6,-190.11"/>
<polygon fill="black" stroke="black" points="405.07,-189.64 400.45,-180.1 398.11,-190.44 405.07,-189.64"/>
</g>
</g>
</svg>
