<?xml version="1.0" encoding="UTF-8" standalone="no"?>
<!DOCTYPE svg PUBLIC "-//W3C//DTD SVG 1.1//EN"
 "http://www.w3.org/Graphics/SVG/1.1/DTD/svg11.dtd">
<!-- Generated by graphviz version 2.49.3 (0)
 -->
<!-- Title: iterable Pages: 1 -->
<svg width="76pt" height="260pt"
 viewBox="0.00 0.00 75.97 260.00" xmlns="http://www.w3.org/2000/svg" xmlns:xlink="http://www.w3.org/1999/xlink">
<g id="graph0" class="graph" transform="scale(1 1) rotate(0) translate(4 256)">
<title>iterable</title>
<polygon fill="transparent" stroke="transparent" points="-4,4 -4,-256 71.97,-256 71.97,4 -4,4"/>
<!-- streamable -->
<g id="node1" class="node">
<title>streamable</title>
<g id="a_node1"><a xlink:href="PsyllaReference_Types.xhtml#PsyllaReference_Types_Details_streamable" xlink:title="streamable" target="_parent">
<polygon fill="linen" stroke="black" points="61.96,-108 0.01,-108 0.01,-72 67.96,-72 67.96,-102 61.96,-108"/>
<polyline fill="none" stroke="black" points="61.96,-108 61.96,-102 "/>
<polyline fill="none" stroke="black" points="67.96,-102 61.96,-102 "/>
<text text-anchor="middle" x="33.99" y="-86.4" font-family="Source Code Pro,monospace" font-size="12.00">streamable</text>
</a>
</g>
</g>
<!-- iterable -->
<g id="node2" class="node">
<title>iterable</title>
<g id="a_node2"><a xlink:href="PsyllaReference_Types.xhtml#PsyllaReference_Types_Details_iterable" xlink:title="iterable" target="_parent">
<polygon fill="wheat" stroke="black" points="54.99,-36 6.99,-36 6.99,0 60.99,0 60.99,-30 54.99,-36"/>
<polyline fill="none" stroke="black" points="54.99,-36 54.99,-30 "/>
<polyline fill="none" stroke="black" points="60.99,-30 54.99,-30 "/>
<text text-anchor="middle" x="33.99" y="-14.4" font-family="Source Code Pro,monospace" font-size="12.00">iterable</text>
</a>
</g>
</g>
<!-- streamable&#45;&gt;iterable -->
<g id="edge1" class="edge">
<title>streamable&#45;&gt;iterable</title>
<path fill="none" stroke="black" d="M33.99,-71.7C33.99,-63.98 33.99,-54.71 33.99,-46.11"/>
<polygon fill="black" stroke="black" points="37.49,-46.1 33.99,-36.1 30.49,-46.1 37.49,-46.1"/>
</g>
<!-- sequential -->
<g id="node3" class="node">
<title>sequential</title>
<g id="a_node3"><a xlink:href="PsyllaReference_Types.xhtml#PsyllaReference_Types_Details_sequential" xlink:title="sequential" target="_parent">
<polygon fill="linen" stroke="black" points="60.14,-180 1.83,-180 1.83,-144 66.14,-144 66.14,-174 60.14,-180"/>
<polyline fill="none" stroke="black" points="60.14,-180 60.14,-174 "/>
<polyline fill="none" stroke="black" points="66.14,-174 60.14,-174 "/>
<text text-anchor="middle" x="33.99" y="-158.4" font-family="Source Code Pro,monospace" font-size="12.00">sequential</text>
</a>
</g>
</g>
<!-- sequential&#45;&gt;streamable -->
<g id="edge2" class="edge">
<title>sequential&#45;&gt;streamable</title>
<path fill="none" stroke="black" d="M33.99,-143.7C33.99,-135.98 33.99,-126.71 33.99,-118.11"/>
<polygon fill="black" stroke="black" points="37.49,-118.1 33.99,-108.1 30.49,-118.1 37.49,-118.1"/>
</g>
<!-- object -->
<g id="node4" class="node">
<title>object</title>
<g id="a_node4"><a xlink:href="PsyllaReference_Types.xhtml#PsyllaReference_Types_Details_object" xlink:title="object" target="_parent">
<polygon fill="linen" stroke="black" points="54.99,-252 6.99,-252 6.99,-216 60.99,-216 60.99,-246 54.99,-252"/>
<polyline fill="none" stroke="black" points="54.99,-252 54.99,-246 "/>
<polyline fill="none" stroke="black" points="60.99,-246 54.99,-246 "/>
<text text-anchor="middle" x="33.99" y="-230.4" font-family="Source Code Pro,monospace" font-size="12.00">object</text>
</a>
</g>
</g>
<!-- object&#45;&gt;sequential -->
<g id="edge3" class="edge">
<title>object&#45;&gt;sequential</title>
<path fill="none" stroke="black" d="M33.99,-215.7C33.99,-207.98 33.99,-198.71 33.99,-190.11"/>
<polygon fill="black" stroke="black" points="37.49,-190.1 33.99,-180.1 30.49,-190.1 37.49,-190.1"/>
</g>
</g>
</svg>
