<?xml version="1.0" encoding="UTF-8" standalone="no"?>
<!DOCTYPE svg PUBLIC "-//W3C//DTD SVG 1.1//EN"
 "http://www.w3.org/Graphics/SVG/1.1/DTD/svg11.dtd">
<!-- Generated by graphviz version 2.43.0 (0)
 -->
<!-- Title: complex Pages: 1 -->
<svg width="180pt" height="332pt"
 viewBox="0.00 0.00 180.00 332.00" xmlns="http://www.w3.org/2000/svg" xmlns:xlink="http://www.w3.org/1999/xlink">
<g id="graph0" class="graph" transform="scale(1 1) rotate(0) translate(4 328)">
<title>complex</title>
<polygon fill="transparent" stroke="transparent" points="-4,4 -4,-328 176,-328 176,4 -4,4"/>
<!-- numeric -->
<g id="node1" class="node">
<title>numeric</title>
<g id="a_node1"><a xlink:href="PsyllaReference_Types.xhtml#PsyllaReference_Types_Details_numeric" xlink:title="numeric" target="_parent">
<polygon fill="linen" stroke="black" points="106.5,-108 43.5,-108 43.5,-72 112.5,-72 112.5,-102 106.5,-108"/>
<polyline fill="none" stroke="black" points="106.5,-108 106.5,-102 "/>
<polyline fill="none" stroke="black" points="112.5,-102 106.5,-102 "/>
<text text-anchor="middle" x="78" y="-86.9" font-family="Consolas, monospace" font-size="12.00">numeric</text>
</a>
</g>
</g>
<!-- complex -->
<g id="node2" class="node">
<title>complex</title>
<g id="a_node2"><a xlink:href="PsyllaReference_Types.xhtml#PsyllaReference_Types_Details_complex" xlink:title="complex" target="_parent">
<polygon fill="wheat" stroke="black" points="106.5,-36 43.5,-36 43.5,0 112.5,0 112.5,-30 106.5,-36"/>
<polyline fill="none" stroke="black" points="106.5,-36 106.5,-30 "/>
<polyline fill="none" stroke="black" points="112.5,-30 106.5,-30 "/>
<text text-anchor="middle" x="78" y="-14.9" font-family="Consolas, monospace" font-size="12.00">complex</text>
</a>
</g>
</g>
<!-- numeric&#45;&gt;complex -->
<g id="edge1" class="edge">
<title>numeric&#45;&gt;complex</title>
<path fill="none" stroke="black" d="M78,-71.7C78,-63.98 78,-54.71 78,-46.11"/>
<polygon fill="black" stroke="black" points="81.5,-46.1 78,-36.1 74.5,-46.1 81.5,-46.1"/>
</g>
<!-- atomic -->
<g id="node3" class="node">
<title>atomic</title>
<g id="a_node3"><a xlink:href="PsyllaReference_Types.xhtml#PsyllaReference_Types_Details_atomic" xlink:title="atomic" target="_parent">
<polygon fill="linen" stroke="black" points="56,-180 0,-180 0,-144 62,-144 62,-174 56,-180"/>
<polyline fill="none" stroke="black" points="56,-180 56,-174 "/>
<polyline fill="none" stroke="black" points="62,-174 56,-174 "/>
<text text-anchor="middle" x="31" y="-158.9" font-family="Consolas, monospace" font-size="12.00">atomic</text>
</a>
</g>
</g>
<!-- atomic&#45;&gt;numeric -->
<g id="edge2" class="edge">
<title>atomic&#45;&gt;numeric</title>
<path fill="none" stroke="black" d="M42.62,-143.7C48.14,-135.47 54.85,-125.48 60.93,-116.42"/>
<polygon fill="black" stroke="black" points="63.85,-118.36 66.52,-108.1 58.04,-114.46 63.85,-118.36"/>
</g>
<!-- arithmetic -->
<g id="node4" class="node">
<title>arithmetic</title>
<g id="a_node4"><a xlink:href="PsyllaReference_Types.xhtml#PsyllaReference_Types_Details_arithmetic" xlink:title="arithmetic" target="_parent">
<polygon fill="linen" stroke="black" points="166,-180 80,-180 80,-144 172,-144 172,-174 166,-180"/>
<polyline fill="none" stroke="black" points="166,-180 166,-174 "/>
<polyline fill="none" stroke="black" points="172,-174 166,-174 "/>
<text text-anchor="middle" x="126" y="-158.9" font-family="Consolas, monospace" font-size="12.00">arithmetic</text>
</a>
</g>
</g>
<!-- arithmetic&#45;&gt;numeric -->
<g id="edge3" class="edge">
<title>arithmetic&#45;&gt;numeric</title>
<path fill="none" stroke="black" d="M114.13,-143.7C108.5,-135.47 101.65,-125.48 95.43,-116.42"/>
<polygon fill="black" stroke="black" points="98.27,-114.37 89.73,-108.1 92.5,-118.33 98.27,-114.37"/>
</g>
<!-- object -->
<g id="node5" class="node">
<title>object</title>
<g id="a_node5"><a xlink:href="PsyllaReference_Types.xhtml#PsyllaReference_Types_Details_object" xlink:title="object" target="_parent">
<polygon fill="linen" stroke="black" points="103,-324 47,-324 47,-288 109,-288 109,-318 103,-324"/>
<polyline fill="none" stroke="black" points="103,-324 103,-318 "/>
<polyline fill="none" stroke="black" points="109,-318 103,-318 "/>
<text text-anchor="middle" x="78" y="-302.9" font-family="Consolas, monospace" font-size="12.00">object</text>
</a>
</g>
</g>
<!-- object&#45;&gt;atomic -->
<g id="edge4" class="edge">
<title>object&#45;&gt;atomic</title>
<path fill="none" stroke="black" d="M72.33,-287.87C64.29,-263.56 49.48,-218.82 39.94,-190.01"/>
<polygon fill="black" stroke="black" points="43.15,-188.58 36.69,-180.19 36.51,-190.78 43.15,-188.58"/>
</g>
<!-- additive -->
<g id="node6" class="node">
<title>additive</title>
<g id="a_node6"><a xlink:href="PsyllaReference_Types.xhtml#PsyllaReference_Types_Details_additive" xlink:title="additive" target="_parent">
<polygon fill="linen" stroke="black" points="151.5,-252 80.5,-252 80.5,-216 157.5,-216 157.5,-246 151.5,-252"/>
<polyline fill="none" stroke="black" points="151.5,-252 151.5,-246 "/>
<polyline fill="none" stroke="black" points="157.5,-246 151.5,-246 "/>
<text text-anchor="middle" x="119" y="-230.9" font-family="Consolas, monospace" font-size="12.00">additive</text>
</a>
</g>
</g>
<!-- object&#45;&gt;additive -->
<g id="edge6" class="edge">
<title>object&#45;&gt;additive</title>
<path fill="none" stroke="black" d="M88.13,-287.7C92.85,-279.64 98.56,-269.89 103.78,-260.98"/>
<polygon fill="black" stroke="black" points="106.95,-262.5 108.98,-252.1 100.91,-258.96 106.95,-262.5"/>
</g>
<!-- additive&#45;&gt;arithmetic -->
<g id="edge5" class="edge">
<title>additive&#45;&gt;arithmetic</title>
<path fill="none" stroke="black" d="M120.73,-215.7C121.5,-207.98 122.43,-198.71 123.29,-190.11"/>
<polygon fill="black" stroke="black" points="126.78,-190.4 124.29,-180.1 119.81,-189.71 126.78,-190.4"/>
</g>
</g>
</svg>
