<?xml version="1.0" encoding="UTF-8" standalone="no"?>
<!DOCTYPE svg PUBLIC "-//W3C//DTD SVG 1.1//EN"
 "http://www.w3.org/Graphics/SVG/1.1/DTD/svg11.dtd">
<!-- Generated by graphviz version 2.49.3 (0)
 -->
<!-- Title: filereader Pages: 1 -->
<svg width="271pt" height="332pt"
 viewBox="0.00 0.00 271.32 332.00" xmlns="http://www.w3.org/2000/svg" xmlns:xlink="http://www.w3.org/1999/xlink">
<g id="graph0" class="graph" transform="scale(1 1) rotate(0) translate(4 328)">
<title>filereader</title>
<polygon fill="transparent" stroke="transparent" points="-4,4 -4,-328 267.32,-328 267.32,4 -4,4"/>
<!-- reader -->
<g id="node1" class="node">
<title>reader</title>
<g id="a_node1"><a xlink:href="PsyllaReference_Types.xhtml#PsyllaReference_Types_Details_reader" xlink:title="reader" target="_parent">
<polygon fill="linen" stroke="black" points="159.32,-108 111.32,-108 111.32,-72 165.32,-72 165.32,-102 159.32,-108"/>
<polyline fill="none" stroke="black" points="159.32,-108 159.32,-102 "/>
<polyline fill="none" stroke="black" points="165.32,-102 159.32,-102 "/>
<text text-anchor="middle" x="138.32" y="-86.4" font-family="Source Code Pro,monospace" font-size="12.00">reader</text>
</a>
</g>
</g>
<!-- filereader -->
<g id="node2" class="node">
<title>filereader</title>
<g id="a_node2"><a xlink:href="PsyllaReference_Types.xhtml#PsyllaReference_Types_Details_filereader" xlink:title="filereader" target="_parent">
<polygon fill="wheat" stroke="black" points="163.28,-36 107.36,-36 107.36,0 169.28,0 169.28,-30 163.28,-36"/>
<polyline fill="none" stroke="black" points="163.28,-36 163.28,-30 "/>
<polyline fill="none" stroke="black" points="169.28,-30 163.28,-30 "/>
<text text-anchor="middle" x="138.32" y="-14.4" font-family="Source Code Pro,monospace" font-size="12.00">filereader</text>
</a>
</g>
</g>
<!-- reader&#45;&gt;filereader -->
<g id="edge1" class="edge">
<title>reader&#45;&gt;filereader</title>
<path fill="none" stroke="black" d="M138.32,-71.7C138.32,-63.98 138.32,-54.71 138.32,-46.11"/>
<polygon fill="black" stroke="black" points="141.82,-46.1 138.32,-36.1 134.82,-46.1 141.82,-46.1"/>
</g>
<!-- closeable -->
<g id="node3" class="node">
<title>closeable</title>
<g id="a_node3"><a xlink:href="PsyllaReference_Types.xhtml#PsyllaReference_Types_Details_closeable" xlink:title="closeable" target="_parent">
<polygon fill="linen" stroke="black" points="54.47,-180 0.18,-180 0.18,-144 60.47,-144 60.47,-174 54.47,-180"/>
<polyline fill="none" stroke="black" points="54.47,-180 54.47,-174 "/>
<polyline fill="none" stroke="black" points="60.47,-174 54.47,-174 "/>
<text text-anchor="middle" x="30.32" y="-158.4" font-family="Source Code Pro,monospace" font-size="12.00">closeable</text>
</a>
</g>
</g>
<!-- closeable&#45;&gt;reader -->
<g id="edge2" class="edge">
<title>closeable&#45;&gt;reader</title>
<path fill="none" stroke="black" d="M56.74,-143.88C70.73,-134.81 88.1,-123.55 103.21,-113.76"/>
<polygon fill="black" stroke="black" points="105.31,-116.57 111.8,-108.19 101.51,-110.69 105.31,-116.57"/>
</g>
<!-- evaluable -->
<g id="node4" class="node">
<title>evaluable</title>
<g id="a_node4"><a xlink:href="PsyllaReference_Types.xhtml#PsyllaReference_Types_Details_evaluable" xlink:title="evaluable" target="_parent">
<polygon fill="linen" stroke="black" points="134.3,-180 78.34,-180 78.34,-144 140.3,-144 140.3,-174 134.3,-180"/>
<polyline fill="none" stroke="black" points="134.3,-180 134.3,-174 "/>
<polyline fill="none" stroke="black" points="140.3,-174 134.3,-174 "/>
<text text-anchor="middle" x="109.32" y="-158.4" font-family="Source Code Pro,monospace" font-size="12.00">evaluable</text>
</a>
</g>
</g>
<!-- evaluable&#45;&gt;reader -->
<g id="edge3" class="edge">
<title>evaluable&#45;&gt;reader</title>
<path fill="none" stroke="black" d="M116.49,-143.7C119.76,-135.81 123.7,-126.3 127.32,-117.55"/>
<polygon fill="black" stroke="black" points="130.64,-118.68 131.24,-108.1 124.17,-116 130.64,-118.68"/>
</g>
<!-- readable -->
<g id="node5" class="node">
<title>readable</title>
<g id="a_node5"><a xlink:href="PsyllaReference_Types.xhtml#PsyllaReference_Types_Details_readable" xlink:title="readable" target="_parent">
<polygon fill="linen" stroke="black" points="254.46,-180 204.18,-180 204.18,-144 260.46,-144 260.46,-174 254.46,-180"/>
<polyline fill="none" stroke="black" points="254.46,-180 254.46,-174 "/>
<polyline fill="none" stroke="black" points="260.46,-174 254.46,-174 "/>
<text text-anchor="middle" x="232.32" y="-158.4" font-family="Source Code Pro,monospace" font-size="12.00">readable</text>
</a>
</g>
</g>
<!-- readable&#45;&gt;reader -->
<g id="edge4" class="edge">
<title>readable&#45;&gt;reader</title>
<path fill="none" stroke="black" d="M209.09,-143.7C197.13,-134.8 182.4,-123.82 169.47,-114.2"/>
<polygon fill="black" stroke="black" points="171.4,-111.27 161.29,-108.1 167.22,-116.88 171.4,-111.27"/>
</g>
<!-- resetable -->
<g id="node6" class="node">
<title>resetable</title>
<g id="a_node6"><a xlink:href="PsyllaReference_Types.xhtml#PsyllaReference_Types_Details_resetable" xlink:title="resetable" target="_parent">
<polygon fill="linen" stroke="black" points="185.46,-252 133.18,-252 133.18,-216 191.46,-216 191.46,-246 185.46,-252"/>
<polyline fill="none" stroke="black" points="185.46,-252 185.46,-246 "/>
<polyline fill="none" stroke="black" points="191.46,-246 185.46,-246 "/>
<text text-anchor="middle" x="162.32" y="-230.4" font-family="Source Code Pro,monospace" font-size="12.00">resetable</text>
</a>
</g>
</g>
<!-- resetable&#45;&gt;reader -->
<g id="edge5" class="edge">
<title>resetable&#45;&gt;reader</title>
<path fill="none" stroke="black" d="M160.13,-215.89C157.76,-197.93 153.72,-168.91 149.32,-144 147.83,-135.54 146,-126.37 144.26,-118.06"/>
<polygon fill="black" stroke="black" points="147.65,-117.19 142.15,-108.14 140.81,-118.65 147.65,-117.19"/>
</g>
<!-- object -->
<g id="node7" class="node">
<title>object</title>
<g id="a_node7"><a xlink:href="PsyllaReference_Types.xhtml#PsyllaReference_Types_Details_object" xlink:title="object" target="_parent">
<polygon fill="linen" stroke="black" points="154.32,-324 106.32,-324 106.32,-288 160.32,-288 160.32,-318 154.32,-324"/>
<polyline fill="none" stroke="black" points="154.32,-324 154.32,-318 "/>
<polyline fill="none" stroke="black" points="160.32,-318 154.32,-318 "/>
<text text-anchor="middle" x="133.32" y="-302.4" font-family="Source Code Pro,monospace" font-size="12.00">object</text>
</a>
</g>
</g>
<!-- object&#45;&gt;closeable -->
<g id="edge6" class="edge">
<title>object&#45;&gt;closeable</title>
<path fill="none" stroke="black" d="M120.9,-287.87C102.96,-263.14 69.67,-217.24 48.83,-188.51"/>
<polygon fill="black" stroke="black" points="51.49,-186.23 42.79,-180.19 45.83,-190.34 51.49,-186.23"/>
</g>
<!-- object&#45;&gt;evaluable -->
<g id="edge7" class="edge">
<title>object&#45;&gt;evaluable</title>
<path fill="none" stroke="black" d="M130.4,-287.82C128.63,-277.44 126.35,-263.96 124.32,-252 120.82,-231.27 116.86,-207.83 113.9,-190.21"/>
<polygon fill="black" stroke="black" points="117.3,-189.34 112.19,-180.06 110.4,-190.51 117.3,-189.34"/>
</g>
<!-- object&#45;&gt;resetable -->
<g id="edge9" class="edge">
<title>object&#45;&gt;resetable</title>
<path fill="none" stroke="black" d="M140.49,-287.7C143.76,-279.81 147.7,-270.3 151.32,-261.55"/>
<polygon fill="black" stroke="black" points="154.64,-262.68 155.24,-252.1 148.17,-260 154.64,-262.68"/>
</g>
<!-- ready -->
<g id="node8" class="node">
<title>ready</title>
<g id="a_node8"><a xlink:href="PsyllaReference_Types.xhtml#PsyllaReference_Types_Details_ready" xlink:title="ready" target="_parent">
<polygon fill="linen" stroke="black" points="257.32,-252 209.32,-252 209.32,-216 263.32,-216 263.32,-246 257.32,-252"/>
<polyline fill="none" stroke="black" points="257.32,-252 257.32,-246 "/>
<polyline fill="none" stroke="black" points="263.32,-246 257.32,-246 "/>
<text text-anchor="middle" x="236.32" y="-230.4" font-family="Source Code Pro,monospace" font-size="12.00">ready</text>
</a>
</g>
</g>
<!-- object&#45;&gt;ready -->
<g id="edge10" class="edge">
<title>object&#45;&gt;ready</title>
<path fill="none" stroke="black" d="M158.52,-287.88C171.74,-278.89 188.11,-267.76 202.43,-258.03"/>
<polygon fill="black" stroke="black" points="204.72,-260.71 211.03,-252.19 200.79,-254.92 204.72,-260.71"/>
</g>
<!-- ready&#45;&gt;readable -->
<g id="edge8" class="edge">
<title>ready&#45;&gt;readable</title>
<path fill="none" stroke="black" d="M235.33,-215.7C234.89,-207.98 234.36,-198.71 233.87,-190.11"/>
<polygon fill="black" stroke="black" points="237.36,-189.89 233.3,-180.1 230.38,-190.29 237.36,-189.89"/>
</g>
</g>
</svg>
