<?xml version="1.0" encoding="UTF-8" standalone="no"?>
<!DOCTYPE svg PUBLIC "-//W3C//DTD SVG 1.1//EN"
 "http://www.w3.org/Graphics/SVG/1.1/DTD/svg11.dtd">
<!-- Generated by graphviz version 14.0.0 (0)
 -->
<!-- Title: concatenable Pages: 1 -->
<svg width="87pt" height="116pt"
 viewBox="0.00 0.00 87.00 116.00" xmlns="http://www.w3.org/2000/svg" xmlns:xlink="http://www.w3.org/1999/xlink">
<g id="graph0" class="graph" transform="scale(1 1) rotate(0) translate(4 112)">
<title>concatenable</title>
<polygon fill="none" stroke="none" points="-4,4 -4,-112 82.62,-112 82.62,4 -4,4"/>
<!-- object -->
<g id="node1" class="node">
<title>object</title>
<g id="a_node1"><a xlink:href="PsyllaReference_Types.xhtml#PsyllaReference_Types_Details_object" xlink:title="object" target="_parent">
<polygon fill="linen" stroke="black" points="60.31,-108 12.31,-108 12.31,-72 66.31,-72 66.31,-102 60.31,-108"/>
<polyline fill="none" stroke="black" points="60.31,-108 60.31,-102"/>
<polyline fill="none" stroke="black" points="66.31,-102 60.31,-102"/>
<text xml:space="preserve" text-anchor="middle" x="39.31" y="-86.4" font-family="Source Code Pro,monospace" font-size="12.00">object</text>
</a>
</g>
</g>
<!-- concatenable -->
<g id="node2" class="node">
<title>concatenable</title>
<g id="a_node2"><a xlink:href="PsyllaReference_Types.xhtml#PsyllaReference_Types_Details_concatenable" xlink:title="concatenable" target="_parent">
<polygon fill="wheat" stroke="black" points="72.62,-36 0,-36 0,0 78.62,0 78.62,-30 72.62,-36"/>
<polyline fill="none" stroke="black" points="72.62,-36 72.62,-30"/>
<polyline fill="none" stroke="black" points="78.62,-30 72.62,-30"/>
<text xml:space="preserve" text-anchor="middle" x="39.31" y="-14.4" font-family="Source Code Pro,monospace" font-size="12.00">concatenable</text>
</a>
</g>
</g>
<!-- object&#45;&gt;concatenable -->
<g id="edge1" class="edge">
<title>object&#45;&gt;concatenable</title>
<path fill="none" stroke="black" d="M39.31,-71.7C39.31,-64.41 39.31,-55.73 39.31,-47.54"/>
<polygon fill="black" stroke="black" points="42.81,-47.62 39.31,-37.62 35.81,-47.62 42.81,-47.62"/>
</g>
</g>
</svg>
