<?xml version="1.0" encoding="UTF-8" standalone="no"?>
<!DOCTYPE svg PUBLIC "-//W3C//DTD SVG 1.1//EN"
 "http://www.w3.org/Graphics/SVG/1.1/DTD/svg11.dtd">
<!-- Generated by graphviz version 2.43.0 (0)
 -->
<!-- Title: writable Pages: 1 -->
<svg width="73pt" height="116pt"
 viewBox="0.00 0.00 73.00 116.00" xmlns="http://www.w3.org/2000/svg" xmlns:xlink="http://www.w3.org/1999/xlink">
<g id="graph0" class="graph" transform="scale(1 1) rotate(0) translate(4 112)">
<title>writable</title>
<polygon fill="transparent" stroke="transparent" points="-4,4 -4,-112 69,-112 69,4 -4,4"/>
<!-- object -->
<g id="node1" class="node">
<title>object</title>
<g id="a_node1"><a xlink:href="PsyllaReference_Types.xhtml#PsyllaReference_Types_Details_object" xlink:title="object" target="_parent">
<polygon fill="linen" stroke="black" points="53.5,-108 5.5,-108 5.5,-72 59.5,-72 59.5,-102 53.5,-108"/>
<polyline fill="none" stroke="black" points="53.5,-108 53.5,-102 "/>
<polyline fill="none" stroke="black" points="59.5,-102 53.5,-102 "/>
<text text-anchor="middle" x="32.5" y="-87.5" font-family="PT Mono, monospace" font-size="10.00">object</text>
</a>
</g>
</g>
<!-- writable -->
<g id="node2" class="node">
<title>writable</title>
<g id="a_node2"><a xlink:href="PsyllaReference_Types.xhtml#PsyllaReference_Types_Details_writable" xlink:title="writable" target="_parent">
<polygon fill="wheat" stroke="black" points="59,-36 0,-36 0,0 65,0 65,-30 59,-36"/>
<polyline fill="none" stroke="black" points="59,-36 59,-30 "/>
<polyline fill="none" stroke="black" points="65,-30 59,-30 "/>
<text text-anchor="middle" x="32.5" y="-15.5" font-family="PT Mono, monospace" font-size="10.00">writable</text>
</a>
</g>
</g>
<!-- object&#45;&gt;writable -->
<g id="edge1" class="edge">
<title>object&#45;&gt;writable</title>
<path fill="none" stroke="black" d="M32.5,-71.7C32.5,-63.98 32.5,-54.71 32.5,-46.11"/>
<polygon fill="black" stroke="black" points="36,-46.1 32.5,-36.1 29,-46.1 36,-46.1"/>
</g>
</g>
</svg>
