<?xml version="1.0" encoding="UTF-8" standalone="no"?>
<!DOCTYPE svg PUBLIC "-//W3C//DTD SVG 1.1//EN"
 "http://www.w3.org/Graphics/SVG/1.1/DTD/svg11.dtd">
<!-- Generated by graphviz version 2.49.3 (0)
 -->
<!-- Title: concatenable Pages: 1 -->
<svg width="87pt" height="116pt"
 viewBox="0.00 0.00 86.63 116.00" xmlns="http://www.w3.org/2000/svg" xmlns:xlink="http://www.w3.org/1999/xlink">
<g id="graph0" class="graph" transform="scale(1 1) rotate(0) translate(4 112)">
<title>concatenable</title>
<polygon fill="transparent" stroke="transparent" points="-4,4 -4,-112 82.63,-112 82.63,4 -4,4"/>
<!-- object -->
<g id="node1" class="node">
<title>object</title>
<g id="a_node1"><a xlink:href="PsyllaReference_Types.xhtml#PsyllaReference_Types_Details_object" xlink:title="object" target="_parent">
<polygon fill="linen" stroke="black" points="60.32,-108 12.32,-108 12.32,-72 66.32,-72 66.32,-102 60.32,-108"/>
<polyline fill="none" stroke="black" points="60.32,-108 60.32,-102 "/>
<polyline fill="none" stroke="black" points="66.32,-102 60.32,-102 "/>
<text text-anchor="middle" x="39.32" y="-86.4" font-family="Source Code Pro,monospace" font-size="12.00">object</text>
</a>
</g>
</g>
<!-- concatenable -->
<g id="node2" class="node">
<title>concatenable</title>
<g id="a_node2"><a xlink:href="PsyllaReference_Types.xhtml#PsyllaReference_Types_Details_concatenable" xlink:title="concatenable" target="_parent">
<polygon fill="wheat" stroke="black" points="72.45,-36 0.18,-36 0.18,0 78.45,0 78.45,-30 72.45,-36"/>
<polyline fill="none" stroke="black" points="72.45,-36 72.45,-30 "/>
<polyline fill="none" stroke="black" points="78.45,-30 72.45,-30 "/>
<text text-anchor="middle" x="39.32" y="-14.4" font-family="Source Code Pro,monospace" font-size="12.00">concatenable</text>
</a>
</g>
</g>
<!-- object&#45;&gt;concatenable -->
<g id="edge1" class="edge">
<title>object&#45;&gt;concatenable</title>
<path fill="none" stroke="black" d="M39.32,-71.7C39.32,-63.98 39.32,-54.71 39.32,-46.11"/>
<polygon fill="black" stroke="black" points="42.82,-46.1 39.32,-36.1 35.82,-46.1 42.82,-46.1"/>
</g>
</g>
</svg>
