<?xml version="1.0" encoding="UTF-8" standalone="no"?>
<!DOCTYPE svg PUBLIC "-//W3C//DTD SVG 1.1//EN"
 "http://www.w3.org/Graphics/SVG/1.1/DTD/svg11.dtd">
<!-- Generated by graphviz version 2.49.3 (0)
 -->
<!-- Title: streamable Pages: 1 -->
<svg width="76pt" height="188pt"
 viewBox="0.00 0.00 75.97 188.00" xmlns="http://www.w3.org/2000/svg" xmlns:xlink="http://www.w3.org/1999/xlink">
<g id="graph0" class="graph" transform="scale(1 1) rotate(0) translate(4 184)">
<title>streamable</title>
<polygon fill="transparent" stroke="transparent" points="-4,4 -4,-184 71.97,-184 71.97,4 -4,4"/>
<!-- sequential -->
<g id="node1" class="node">
<title>sequential</title>
<g id="a_node1"><a xlink:href="PsyllaReference_Types.xhtml#PsyllaReference_Types_Details_sequential" xlink:title="sequential" target="_parent">
<polygon fill="linen" stroke="black" points="60.14,-108 1.83,-108 1.83,-72 66.14,-72 66.14,-102 60.14,-108"/>
<polyline fill="none" stroke="black" points="60.14,-108 60.14,-102 "/>
<polyline fill="none" stroke="black" points="66.14,-102 60.14,-102 "/>
<text text-anchor="middle" x="33.99" y="-86.4" font-family="Source Code Pro,monospace" font-size="12.00">sequential</text>
</a>
</g>
</g>
<!-- streamable -->
<g id="node2" class="node">
<title>streamable</title>
<g id="a_node2"><a xlink:href="PsyllaReference_Types.xhtml#PsyllaReference_Types_Details_streamable" xlink:title="streamable" target="_parent">
<polygon fill="wheat" stroke="black" points="61.96,-36 0.01,-36 0.01,0 67.96,0 67.96,-30 61.96,-36"/>
<polyline fill="none" stroke="black" points="61.96,-36 61.96,-30 "/>
<polyline fill="none" stroke="black" points="67.96,-30 61.96,-30 "/>
<text text-anchor="middle" x="33.99" y="-14.4" font-family="Source Code Pro,monospace" font-size="12.00">streamable</text>
</a>
</g>
</g>
<!-- sequential&#45;&gt;streamable -->
<g id="edge1" class="edge">
<title>sequential&#45;&gt;streamable</title>
<path fill="none" stroke="black" d="M33.99,-71.7C33.99,-63.98 33.99,-54.71 33.99,-46.11"/>
<polygon fill="black" stroke="black" points="37.49,-46.1 33.99,-36.1 30.49,-46.1 37.49,-46.1"/>
</g>
<!-- object -->
<g id="node3" class="node">
<title>object</title>
<g id="a_node3"><a xlink:href="PsyllaReference_Types.xhtml#PsyllaReference_Types_Details_object" xlink:title="object" target="_parent">
<polygon fill="linen" stroke="black" points="54.99,-180 6.99,-180 6.99,-144 60.99,-144 60.99,-174 54.99,-180"/>
<polyline fill="none" stroke="black" points="54.99,-180 54.99,-174 "/>
<polyline fill="none" stroke="black" points="60.99,-174 54.99,-174 "/>
<text text-anchor="middle" x="33.99" y="-158.4" font-family="Source Code Pro,monospace" font-size="12.00">object</text>
</a>
</g>
</g>
<!-- object&#45;&gt;sequential -->
<g id="edge2" class="edge">
<title>object&#45;&gt;sequential</title>
<path fill="none" stroke="black" d="M33.99,-143.7C33.99,-135.98 33.99,-126.71 33.99,-118.11"/>
<polygon fill="black" stroke="black" points="37.49,-118.1 33.99,-108.1 30.49,-118.1 37.49,-118.1"/>
</g>
</g>
</svg>
