<?xml version="1.0" encoding="UTF-8" standalone="no"?>
<!DOCTYPE svg PUBLIC "-//W3C//DTD SVG 1.1//EN"
 "http://www.w3.org/Graphics/SVG/1.1/DTD/svg11.dtd">
<!-- Generated by graphviz version 2.43.0 (0)
 -->
<!-- Title: multiplicative Pages: 1 -->
<svg width="130pt" height="116pt"
 viewBox="0.00 0.00 130.00 116.00" xmlns="http://www.w3.org/2000/svg" xmlns:xlink="http://www.w3.org/1999/xlink">
<g id="graph0" class="graph" transform="scale(1 1) rotate(0) translate(4 112)">
<title>multiplicative</title>
<polygon fill="transparent" stroke="transparent" points="-4,4 -4,-112 126,-112 126,4 -4,4"/>
<!-- object -->
<g id="node1" class="node">
<title>object</title>
<g id="a_node1"><a xlink:href="PsyllaReference_Types.xhtml#PsyllaReference_Types_Details_object" xlink:title="object" target="_parent">
<polygon fill="linen" stroke="black" points="86,-108 30,-108 30,-72 92,-72 92,-102 86,-108"/>
<polyline fill="none" stroke="black" points="86,-108 86,-102 "/>
<polyline fill="none" stroke="black" points="92,-102 86,-102 "/>
<text text-anchor="middle" x="61" y="-86.9" font-family="Source Code Pro,monospace" font-size="12.00">object</text>
</a>
</g>
</g>
<!-- multiplicative -->
<g id="node2" class="node">
<title>multiplicative</title>
<g id="a_node2"><a xlink:href="PsyllaReference_Types.xhtml#PsyllaReference_Types_Details_multiplicative" xlink:title="multiplicative" target="_parent">
<polygon fill="wheat" stroke="black" points="116,-36 0,-36 0,0 122,0 122,-30 116,-36"/>
<polyline fill="none" stroke="black" points="116,-36 116,-30 "/>
<polyline fill="none" stroke="black" points="122,-30 116,-30 "/>
<text text-anchor="middle" x="61" y="-14.9" font-family="Source Code Pro,monospace" font-size="12.00">multiplicative</text>
</a>
</g>
</g>
<!-- object&#45;&gt;multiplicative -->
<g id="edge1" class="edge">
<title>object&#45;&gt;multiplicative</title>
<path fill="none" stroke="black" d="M61,-71.7C61,-63.98 61,-54.71 61,-46.11"/>
<polygon fill="black" stroke="black" points="64.5,-46.1 61,-36.1 57.5,-46.1 64.5,-46.1"/>
</g>
</g>
</svg>
