<?xml version="1.0" encoding="UTF-8" standalone="no"?>
<!DOCTYPE svg PUBLIC "-//W3C//DTD SVG 1.1//EN"
 "http://www.w3.org/Graphics/SVG/1.1/DTD/svg11.dtd">
<!-- Generated by graphviz version 2.43.0 (0)
 -->
<!-- Title: formalqueue Pages: 1 -->
<svg width="387pt" height="404pt"
 viewBox="0.00 0.00 387.00 404.00" xmlns="http://www.w3.org/2000/svg" xmlns:xlink="http://www.w3.org/1999/xlink">
<g id="graph0" class="graph" transform="scale(1 1) rotate(0) translate(4 400)">
<title>formalqueue</title>
<polygon fill="transparent" stroke="transparent" points="-4,4 -4,-400 383,-400 383,4 -4,4"/>
<!-- bounded -->
<g id="node1" class="node">
<title>bounded</title>
<g id="a_node1"><a xlink:href="PsyllaReference_Types.xhtml#PsyllaReference_Types_Details_bounded" xlink:title="bounded" target="_parent">
<polygon fill="linen" stroke="black" points="95,-108 0,-108 0,-72 101,-72 101,-102 95,-108"/>
<polyline fill="none" stroke="black" points="95,-108 95,-102 "/>
<polyline fill="none" stroke="black" points="101,-102 95,-102 "/>
<text text-anchor="middle" x="50.5" y="-85" font-family="PT Mono, monospace" font-size="20.00">bounded</text>
</a>
</g>
</g>
<!-- formalqueue -->
<g id="node3" class="node">
<title>formalqueue</title>
<g id="a_node3"><a xlink:href="PsyllaReference_Types.xhtml#PsyllaReference_Types_Details_formalqueue" xlink:title="formalqueue" target="_parent">
<polygon fill="wheat" stroke="black" points="184,-36 41,-36 41,0 190,0 190,-30 184,-36"/>
<polyline fill="none" stroke="black" points="184,-36 184,-30 "/>
<polyline fill="none" stroke="black" points="190,-30 184,-30 "/>
<text text-anchor="middle" x="115.5" y="-13" font-family="PT Mono, monospace" font-size="20.00">formalqueue</text>
</a>
</g>
</g>
<!-- bounded&#45;&gt;formalqueue -->
<g id="edge1" class="edge">
<title>bounded&#45;&gt;formalqueue</title>
<path fill="none" stroke="black" d="M66.57,-71.7C74.44,-63.22 84.06,-52.86 92.67,-43.58"/>
<polygon fill="black" stroke="black" points="95.38,-45.81 99.62,-36.1 90.25,-41.05 95.38,-45.81"/>
</g>
<!-- container -->
<g id="node2" class="node">
<title>container</title>
<g id="a_node2"><a xlink:href="PsyllaReference_Types.xhtml#PsyllaReference_Types_Details_container" xlink:title="container" target="_parent">
<polygon fill="linen" stroke="black" points="238,-108 119,-108 119,-72 244,-72 244,-102 238,-108"/>
<polyline fill="none" stroke="black" points="238,-108 238,-102 "/>
<polyline fill="none" stroke="black" points="244,-102 238,-102 "/>
<text text-anchor="middle" x="181.5" y="-85" font-family="PT Mono, monospace" font-size="20.00">container</text>
</a>
</g>
</g>
<!-- container&#45;&gt;formalqueue -->
<g id="edge2" class="edge">
<title>container&#45;&gt;formalqueue</title>
<path fill="none" stroke="black" d="M165.19,-71.7C157.19,-63.22 147.43,-52.86 138.68,-43.58"/>
<polygon fill="black" stroke="black" points="141.03,-40.98 131.63,-36.1 135.94,-45.78 141.03,-40.98"/>
</g>
<!-- lengthy -->
<g id="node4" class="node">
<title>lengthy</title>
<g id="a_node4"><a xlink:href="PsyllaReference_Types.xhtml#PsyllaReference_Types_Details_lengthy" xlink:title="lengthy" target="_parent">
<polygon fill="linen" stroke="black" points="115,-180 20,-180 20,-144 121,-144 121,-174 115,-180"/>
<polyline fill="none" stroke="black" points="115,-180 115,-174 "/>
<polyline fill="none" stroke="black" points="121,-174 115,-174 "/>
<text text-anchor="middle" x="70.5" y="-157" font-family="PT Mono, monospace" font-size="20.00">lengthy</text>
</a>
</g>
</g>
<!-- lengthy&#45;&gt;bounded -->
<g id="edge3" class="edge">
<title>lengthy&#45;&gt;bounded</title>
<path fill="none" stroke="black" d="M65.56,-143.7C63.33,-135.9 60.65,-126.51 58.17,-117.83"/>
<polygon fill="black" stroke="black" points="61.5,-116.76 55.39,-108.1 54.77,-118.68 61.5,-116.76"/>
</g>
<!-- lengthy&#45;&gt;container -->
<g id="edge6" class="edge">
<title>lengthy&#45;&gt;container</title>
<path fill="none" stroke="black" d="M97.65,-143.88C112.03,-134.81 129.88,-123.55 145.41,-113.76"/>
<polygon fill="black" stroke="black" points="147.65,-116.48 154.24,-108.19 143.92,-110.56 147.65,-116.48"/>
</g>
<!-- clearable -->
<g id="node5" class="node">
<title>clearable</title>
<g id="a_node5"><a xlink:href="PsyllaReference_Types.xhtml#PsyllaReference_Types_Details_clearable" xlink:title="clearable" target="_parent">
<polygon fill="linen" stroke="black" points="218,-252 99,-252 99,-216 224,-216 224,-246 218,-252"/>
<polyline fill="none" stroke="black" points="218,-252 218,-246 "/>
<polyline fill="none" stroke="black" points="224,-246 218,-246 "/>
<text text-anchor="middle" x="161.5" y="-229" font-family="PT Mono, monospace" font-size="20.00">clearable</text>
</a>
</g>
</g>
<!-- clearable&#45;&gt;container -->
<g id="edge4" class="edge">
<title>clearable&#45;&gt;container</title>
<path fill="none" stroke="black" d="M163.91,-215.87C167.32,-191.67 173.58,-147.21 177.64,-118.39"/>
<polygon fill="black" stroke="black" points="181.15,-118.58 179.08,-108.19 174.22,-117.6 181.15,-118.58"/>
</g>
<!-- iterable -->
<g id="node6" class="node">
<title>iterable</title>
<g id="a_node6"><a xlink:href="PsyllaReference_Types.xhtml#PsyllaReference_Types_Details_iterable" xlink:title="iterable" target="_parent">
<polygon fill="linen" stroke="black" points="339,-180 232,-180 232,-144 345,-144 345,-174 339,-180"/>
<polyline fill="none" stroke="black" points="339,-180 339,-174 "/>
<polyline fill="none" stroke="black" points="345,-174 339,-174 "/>
<text text-anchor="middle" x="288.5" y="-157" font-family="PT Mono, monospace" font-size="20.00">iterable</text>
</a>
</g>
</g>
<!-- iterable&#45;&gt;container -->
<g id="edge5" class="edge">
<title>iterable&#45;&gt;container</title>
<path fill="none" stroke="black" d="M262.32,-143.88C248.46,-134.81 231.26,-123.55 216.29,-113.76"/>
<polygon fill="black" stroke="black" points="218.06,-110.74 207.78,-108.19 214.23,-116.59 218.06,-110.74"/>
</g>
<!-- object -->
<g id="node7" class="node">
<title>object</title>
<g id="a_node7"><a xlink:href="PsyllaReference_Types.xhtml#PsyllaReference_Types_Details_object" xlink:title="object" target="_parent">
<polygon fill="linen" stroke="black" points="200,-396 117,-396 117,-360 206,-360 206,-390 200,-396"/>
<polyline fill="none" stroke="black" points="200,-396 200,-390 "/>
<polyline fill="none" stroke="black" points="206,-390 200,-390 "/>
<text text-anchor="middle" x="161.5" y="-373" font-family="PT Mono, monospace" font-size="20.00">object</text>
</a>
</g>
</g>
<!-- object&#45;&gt;lengthy -->
<g id="edge7" class="edge">
<title>object&#45;&gt;lengthy</title>
<path fill="none" stroke="black" d="M149.15,-359.67C133.08,-336.31 105.2,-292.92 89.5,-252 81.82,-232 76.95,-208.21 74.06,-190.26"/>
<polygon fill="black" stroke="black" points="77.49,-189.55 72.55,-180.18 70.57,-190.59 77.49,-189.55"/>
</g>
<!-- object&#45;&gt;clearable -->
<g id="edge8" class="edge">
<title>object&#45;&gt;clearable</title>
<path fill="none" stroke="black" d="M161.5,-359.87C161.5,-335.67 161.5,-291.21 161.5,-262.39"/>
<polygon fill="black" stroke="black" points="165,-262.19 161.5,-252.19 158,-262.19 165,-262.19"/>
</g>
<!-- sequential -->
<g id="node9" class="node">
<title>sequential</title>
<g id="a_node9"><a xlink:href="PsyllaReference_Types.xhtml#PsyllaReference_Types_Details_sequential" xlink:title="sequential" target="_parent">
<polygon fill="linen" stroke="black" points="347,-324 216,-324 216,-288 353,-288 353,-318 347,-324"/>
<polyline fill="none" stroke="black" points="347,-324 347,-318 "/>
<polyline fill="none" stroke="black" points="353,-318 347,-318 "/>
<text text-anchor="middle" x="284.5" y="-301" font-family="PT Mono, monospace" font-size="20.00">sequential</text>
</a>
</g>
</g>
<!-- object&#45;&gt;sequential -->
<g id="edge11" class="edge">
<title>object&#45;&gt;sequential</title>
<path fill="none" stroke="black" d="M191.59,-359.88C207.82,-350.64 228.04,-339.13 245.47,-329.21"/>
<polygon fill="black" stroke="black" points="247.34,-332.18 254.3,-324.19 243.87,-326.09 247.34,-332.18"/>
</g>
<!-- streamable -->
<g id="node8" class="node">
<title>streamable</title>
<g id="a_node8"><a xlink:href="PsyllaReference_Types.xhtml#PsyllaReference_Types_Details_streamable" xlink:title="streamable" target="_parent">
<polygon fill="linen" stroke="black" points="373,-252 242,-252 242,-216 379,-216 379,-246 373,-252"/>
<polyline fill="none" stroke="black" points="373,-252 373,-246 "/>
<polyline fill="none" stroke="black" points="379,-246 373,-246 "/>
<text text-anchor="middle" x="310.5" y="-229" font-family="PT Mono, monospace" font-size="20.00">streamable</text>
</a>
</g>
</g>
<!-- streamable&#45;&gt;iterable -->
<g id="edge9" class="edge">
<title>streamable&#45;&gt;iterable</title>
<path fill="none" stroke="black" d="M305.06,-215.7C302.61,-207.9 299.66,-198.51 296.93,-189.83"/>
<polygon fill="black" stroke="black" points="300.21,-188.59 293.88,-180.1 293.54,-190.69 300.21,-188.59"/>
</g>
<!-- sequential&#45;&gt;streamable -->
<g id="edge10" class="edge">
<title>sequential&#45;&gt;streamable</title>
<path fill="none" stroke="black" d="M290.93,-287.7C293.86,-279.81 297.39,-270.3 300.64,-261.55"/>
<polygon fill="black" stroke="black" points="303.95,-262.7 304.15,-252.1 297.38,-260.26 303.95,-262.7"/>
</g>
</g>
</svg>
