<?xml version="1.0" encoding="UTF-8" standalone="no"?>
<!DOCTYPE svg PUBLIC "-//W3C//DTD SVG 1.1//EN"
 "http://www.w3.org/Graphics/SVG/1.1/DTD/svg11.dtd">
<!-- Generated by graphviz version 2.43.0 (0)
 -->
<!-- Title: operator Pages: 1 -->
<svg width="172pt" height="188pt"
 viewBox="0.00 0.00 172.00 188.00" xmlns="http://www.w3.org/2000/svg" xmlns:xlink="http://www.w3.org/1999/xlink">
<g id="graph0" class="graph" transform="scale(1 1) rotate(0) translate(4 184)">
<title>operator</title>
<polygon fill="transparent" stroke="transparent" points="-4,4 -4,-184 168,-184 168,4 -4,4"/>
<!-- executable -->
<g id="node1" class="node">
<title>executable</title>
<g id="a_node1"><a xlink:href="PsyllaReference_Types.xhtml#PsyllaReference_Types_Details_executable" xlink:title="executable" target="_parent">
<polygon fill="linen" stroke="black" points="86,-108 0,-108 0,-72 92,-72 92,-102 86,-108"/>
<polyline fill="none" stroke="black" points="86,-108 86,-102 "/>
<polyline fill="none" stroke="black" points="92,-102 86,-102 "/>
<text text-anchor="middle" x="46" y="-86.9" font-family="Source Code Pro,monospace" font-size="12.00">executable</text>
</a>
</g>
</g>
<!-- operator -->
<g id="node3" class="node">
<title>operator</title>
<g id="a_node3"><a xlink:href="PsyllaReference_Types.xhtml#PsyllaReference_Types_Details_operator" xlink:title="operator" target="_parent">
<polygon fill="wheat" stroke="black" points="123.5,-36 52.5,-36 52.5,0 129.5,0 129.5,-30 123.5,-36"/>
<polyline fill="none" stroke="black" points="123.5,-36 123.5,-30 "/>
<polyline fill="none" stroke="black" points="129.5,-30 123.5,-30 "/>
<text text-anchor="middle" x="91" y="-14.9" font-family="Source Code Pro,monospace" font-size="12.00">operator</text>
</a>
</g>
</g>
<!-- executable&#45;&gt;operator -->
<g id="edge1" class="edge">
<title>executable&#45;&gt;operator</title>
<path fill="none" stroke="black" d="M57.12,-71.7C62.36,-63.56 68.7,-53.69 74.48,-44.7"/>
<polygon fill="black" stroke="black" points="77.54,-46.41 80,-36.1 71.65,-42.62 77.54,-46.41"/>
</g>
<!-- value -->
<g id="node2" class="node">
<title>value</title>
<g id="a_node2"><a xlink:href="PsyllaReference_Types.xhtml#PsyllaReference_Types_Details_value" xlink:title="value" target="_parent">
<polygon fill="linen" stroke="black" points="158,-108 110,-108 110,-72 164,-72 164,-102 158,-108"/>
<polyline fill="none" stroke="black" points="158,-108 158,-102 "/>
<polyline fill="none" stroke="black" points="164,-102 158,-102 "/>
<text text-anchor="middle" x="137" y="-86.9" font-family="Source Code Pro,monospace" font-size="12.00">value</text>
</a>
</g>
</g>
<!-- value&#45;&gt;operator -->
<g id="edge2" class="edge">
<title>value&#45;&gt;operator</title>
<path fill="none" stroke="black" d="M125.63,-71.7C120.28,-63.56 113.8,-53.69 107.89,-44.7"/>
<polygon fill="black" stroke="black" points="110.66,-42.54 102.24,-36.1 104.81,-46.38 110.66,-42.54"/>
</g>
<!-- object -->
<g id="node4" class="node">
<title>object</title>
<g id="a_node4"><a xlink:href="PsyllaReference_Types.xhtml#PsyllaReference_Types_Details_object" xlink:title="object" target="_parent">
<polygon fill="linen" stroke="black" points="116,-180 60,-180 60,-144 122,-144 122,-174 116,-180"/>
<polyline fill="none" stroke="black" points="116,-180 116,-174 "/>
<polyline fill="none" stroke="black" points="122,-174 116,-174 "/>
<text text-anchor="middle" x="91" y="-158.9" font-family="Source Code Pro,monospace" font-size="12.00">object</text>
</a>
</g>
</g>
<!-- object&#45;&gt;executable -->
<g id="edge3" class="edge">
<title>object&#45;&gt;executable</title>
<path fill="none" stroke="black" d="M79.88,-143.7C74.64,-135.56 68.3,-125.69 62.52,-116.7"/>
<polygon fill="black" stroke="black" points="65.35,-114.62 57,-108.1 59.46,-118.41 65.35,-114.62"/>
</g>
<!-- object&#45;&gt;value -->
<g id="edge4" class="edge">
<title>object&#45;&gt;value</title>
<path fill="none" stroke="black" d="M102.37,-143.7C107.72,-135.56 114.2,-125.69 120.11,-116.7"/>
<polygon fill="black" stroke="black" points="123.19,-118.38 125.76,-108.1 117.34,-114.54 123.19,-118.38"/>
</g>
</g>
</svg>
