<?xml version="1.0" encoding="UTF-8" standalone="no"?>
<!DOCTYPE svg PUBLIC "-//W3C//DTD SVG 1.1//EN"
 "http://www.w3.org/Graphics/SVG/1.1/DTD/svg11.dtd">
<!-- Generated by graphviz version 2.43.0 (0)
 -->
<!-- Title: boolean Pages: 1 -->
<svg width="212pt" height="188pt"
 viewBox="0.00 0.00 211.50 188.00" xmlns="http://www.w3.org/2000/svg" xmlns:xlink="http://www.w3.org/1999/xlink">
<g id="graph0" class="graph" transform="scale(1 1) rotate(0) translate(4 184)">
<title>boolean</title>
<polygon fill="transparent" stroke="transparent" points="-4,4 -4,-184 207.5,-184 207.5,4 -4,4"/>
<!-- atomic -->
<g id="node1" class="node">
<title>atomic</title>
<g id="a_node1"><a xlink:href="PsyllaReference_Types.xhtml#PsyllaReference_Types_Details_atomic" xlink:title="atomic" target="_parent">
<polygon fill="linen" stroke="black" points="48,-108 0,-108 0,-72 54,-72 54,-102 48,-108"/>
<polyline fill="none" stroke="black" points="48,-108 48,-102 "/>
<polyline fill="none" stroke="black" points="54,-102 48,-102 "/>
<text text-anchor="middle" x="27" y="-87.5" font-family="PT Mono, monospace" font-size="10.00">atomic</text>
</a>
</g>
</g>
<!-- boolean -->
<g id="node4" class="node">
<title>boolean</title>
<g id="a_node4"><a xlink:href="PsyllaReference_Types.xhtml#PsyllaReference_Types_Details_boolean" xlink:title="boolean" target="_parent">
<polygon fill="wheat" stroke="black" points="122.5,-36 69.5,-36 69.5,0 128.5,0 128.5,-30 122.5,-36"/>
<polyline fill="none" stroke="black" points="122.5,-36 122.5,-30 "/>
<polyline fill="none" stroke="black" points="128.5,-30 122.5,-30 "/>
<text text-anchor="middle" x="99" y="-15.5" font-family="PT Mono, monospace" font-size="10.00">boolean</text>
</a>
</g>
</g>
<!-- atomic&#45;&gt;boolean -->
<g id="edge1" class="edge">
<title>atomic&#45;&gt;boolean</title>
<path fill="none" stroke="black" d="M44.8,-71.7C53.6,-63.14 64.38,-52.66 74,-43.3"/>
<polygon fill="black" stroke="black" points="76.68,-45.58 81.41,-36.1 71.8,-40.57 76.68,-45.58"/>
</g>
<!-- scalar -->
<g id="node2" class="node">
<title>scalar</title>
<g id="a_node2"><a xlink:href="PsyllaReference_Types.xhtml#PsyllaReference_Types_Details_scalar" xlink:title="scalar" target="_parent">
<polygon fill="linen" stroke="black" points="120,-108 72,-108 72,-72 126,-72 126,-102 120,-108"/>
<polyline fill="none" stroke="black" points="120,-108 120,-102 "/>
<polyline fill="none" stroke="black" points="126,-102 120,-102 "/>
<text text-anchor="middle" x="99" y="-87.5" font-family="PT Mono, monospace" font-size="10.00">scalar</text>
</a>
</g>
</g>
<!-- scalar&#45;&gt;boolean -->
<g id="edge2" class="edge">
<title>scalar&#45;&gt;boolean</title>
<path fill="none" stroke="black" d="M99,-71.7C99,-63.98 99,-54.71 99,-46.11"/>
<polygon fill="black" stroke="black" points="102.5,-46.1 99,-36.1 95.5,-46.1 102.5,-46.1"/>
</g>
<!-- logical -->
<g id="node3" class="node">
<title>logical</title>
<g id="a_node3"><a xlink:href="PsyllaReference_Types.xhtml#PsyllaReference_Types_Details_logical" xlink:title="logical" target="_parent">
<polygon fill="linen" stroke="black" points="197.5,-108 144.5,-108 144.5,-72 203.5,-72 203.5,-102 197.5,-108"/>
<polyline fill="none" stroke="black" points="197.5,-108 197.5,-102 "/>
<polyline fill="none" stroke="black" points="203.5,-102 197.5,-102 "/>
<text text-anchor="middle" x="174" y="-87.5" font-family="PT Mono, monospace" font-size="10.00">logical</text>
</a>
</g>
</g>
<!-- logical&#45;&gt;boolean -->
<g id="edge3" class="edge">
<title>logical&#45;&gt;boolean</title>
<path fill="none" stroke="black" d="M155.46,-71.7C146.2,-63.05 134.84,-52.45 124.74,-43.03"/>
<polygon fill="black" stroke="black" points="127.02,-40.37 117.33,-36.1 122.25,-45.49 127.02,-40.37"/>
</g>
<!-- object -->
<g id="node5" class="node">
<title>object</title>
<g id="a_node5"><a xlink:href="PsyllaReference_Types.xhtml#PsyllaReference_Types_Details_object" xlink:title="object" target="_parent">
<polygon fill="linen" stroke="black" points="120,-180 72,-180 72,-144 126,-144 126,-174 120,-180"/>
<polyline fill="none" stroke="black" points="120,-180 120,-174 "/>
<polyline fill="none" stroke="black" points="126,-174 120,-174 "/>
<text text-anchor="middle" x="99" y="-159.5" font-family="PT Mono, monospace" font-size="10.00">object</text>
</a>
</g>
</g>
<!-- object&#45;&gt;atomic -->
<g id="edge4" class="edge">
<title>object&#45;&gt;atomic</title>
<path fill="none" stroke="black" d="M81.2,-143.7C72.4,-135.14 61.62,-124.66 52,-115.3"/>
<polygon fill="black" stroke="black" points="54.2,-112.57 44.59,-108.1 49.32,-117.58 54.2,-112.57"/>
</g>
<!-- object&#45;&gt;scalar -->
<g id="edge5" class="edge">
<title>object&#45;&gt;scalar</title>
<path fill="none" stroke="black" d="M99,-143.7C99,-135.98 99,-126.71 99,-118.11"/>
<polygon fill="black" stroke="black" points="102.5,-118.1 99,-108.1 95.5,-118.1 102.5,-118.1"/>
</g>
<!-- object&#45;&gt;logical -->
<g id="edge6" class="edge">
<title>object&#45;&gt;logical</title>
<path fill="none" stroke="black" d="M117.54,-143.7C126.8,-135.05 138.16,-124.45 148.26,-115.03"/>
<polygon fill="black" stroke="black" points="150.75,-117.49 155.67,-108.1 145.98,-112.37 150.75,-117.49"/>
</g>
</g>
</svg>
