<?xml version="1.0" encoding="UTF-8" standalone="no"?>
<!DOCTYPE svg PUBLIC "-//W3C//DTD SVG 1.1//EN"
 "http://www.w3.org/Graphics/SVG/1.1/DTD/svg11.dtd">
<!-- Generated by graphviz version 14.0.0 (0)
 -->
<!-- Title: fileinput Pages: 1 -->
<svg width="228pt" height="332pt"
 viewBox="0.00 0.00 228.00 332.00" xmlns="http://www.w3.org/2000/svg" xmlns:xlink="http://www.w3.org/1999/xlink">
<g id="graph0" class="graph" transform="scale(1 1) rotate(0) translate(4 328)">
<title>fileinput</title>
<polygon fill="none" stroke="none" points="-4,4 -4,-328 223.64,-328 223.64,4 -4,4"/>
<!-- input -->
<g id="node1" class="node">
<title>input</title>
<g id="a_node1"><a xlink:href="PsyllaReference_Types.xhtml#PsyllaReference_Types_Details_input" xlink:title="input" target="_parent">
<polygon fill="linen" stroke="black" points="137.32,-108 89.32,-108 89.32,-72 143.32,-72 143.32,-102 137.32,-108"/>
<polyline fill="none" stroke="black" points="137.32,-108 137.32,-102"/>
<polyline fill="none" stroke="black" points="143.32,-102 137.32,-102"/>
<text xml:space="preserve" text-anchor="middle" x="116.32" y="-86.4" font-family="Source Code Pro,monospace" font-size="12.00">input</text>
</a>
</g>
</g>
<!-- fileinput -->
<g id="node2" class="node">
<title>fileinput</title>
<g id="a_node2"><a xlink:href="PsyllaReference_Types.xhtml#PsyllaReference_Types_Details_fileinput" xlink:title="fileinput" target="_parent">
<polygon fill="wheat" stroke="black" points="138.65,-36 87.99,-36 87.99,0 144.65,0 144.65,-30 138.65,-36"/>
<polyline fill="none" stroke="black" points="138.65,-36 138.65,-30"/>
<polyline fill="none" stroke="black" points="144.65,-30 138.65,-30"/>
<text xml:space="preserve" text-anchor="middle" x="116.32" y="-14.4" font-family="Source Code Pro,monospace" font-size="12.00">fileinput</text>
</a>
</g>
</g>
<!-- input&#45;&gt;fileinput -->
<g id="edge1" class="edge">
<title>input&#45;&gt;fileinput</title>
<path fill="none" stroke="black" d="M116.32,-71.7C116.32,-64.41 116.32,-55.73 116.32,-47.54"/>
<polygon fill="black" stroke="black" points="119.82,-47.62 116.32,-37.62 112.82,-47.62 119.82,-47.62"/>
</g>
<!-- closeable -->
<g id="node3" class="node">
<title>closeable</title>
<g id="a_node3"><a xlink:href="PsyllaReference_Types.xhtml#PsyllaReference_Types_Details_closeable" xlink:title="closeable" target="_parent">
<polygon fill="linen" stroke="black" points="54.64,-180 0,-180 0,-144 60.64,-144 60.64,-174 54.64,-180"/>
<polyline fill="none" stroke="black" points="54.64,-180 54.64,-174"/>
<polyline fill="none" stroke="black" points="60.64,-174 54.64,-174"/>
<text xml:space="preserve" text-anchor="middle" x="30.32" y="-158.4" font-family="Source Code Pro,monospace" font-size="12.00">closeable</text>
</a>
</g>
</g>
<!-- closeable&#45;&gt;input -->
<g id="edge2" class="edge">
<title>closeable&#45;&gt;input</title>
<path fill="none" stroke="black" d="M51.58,-143.7C62.02,-135.2 74.78,-124.81 86.2,-115.51"/>
<polygon fill="black" stroke="black" points="88.29,-118.33 93.84,-109.3 83.87,-112.9 88.29,-118.33"/>
</g>
<!-- readable -->
<g id="node4" class="node">
<title>readable</title>
<g id="a_node4"><a xlink:href="PsyllaReference_Types.xhtml#PsyllaReference_Types_Details_readable" xlink:title="readable" target="_parent">
<polygon fill="linen" stroke="black" points="166.64,-180 116,-180 116,-144 172.64,-144 172.64,-174 166.64,-180"/>
<polyline fill="none" stroke="black" points="166.64,-180 166.64,-174"/>
<polyline fill="none" stroke="black" points="172.64,-174 166.64,-174"/>
<text xml:space="preserve" text-anchor="middle" x="144.32" y="-158.4" font-family="Source Code Pro,monospace" font-size="12.00">readable</text>
</a>
</g>
</g>
<!-- readable&#45;&gt;input -->
<g id="edge3" class="edge">
<title>readable&#45;&gt;input</title>
<path fill="none" stroke="black" d="M137.4,-143.7C134.38,-136.15 130.77,-127.12 127.39,-118.68"/>
<polygon fill="black" stroke="black" points="130.69,-117.49 123.73,-109.51 124.19,-120.09 130.69,-117.49"/>
</g>
<!-- ready -->
<g id="node5" class="node">
<title>ready</title>
<g id="a_node5"><a xlink:href="PsyllaReference_Types.xhtml#PsyllaReference_Types_Details_ready" xlink:title="ready" target="_parent">
<polygon fill="linen" stroke="black" points="128.32,-252 80.32,-252 80.32,-216 134.32,-216 134.32,-246 128.32,-252"/>
<polyline fill="none" stroke="black" points="128.32,-252 128.32,-246"/>
<polyline fill="none" stroke="black" points="134.32,-246 128.32,-246"/>
<text xml:space="preserve" text-anchor="middle" x="107.32" y="-230.4" font-family="Source Code Pro,monospace" font-size="12.00">ready</text>
</a>
</g>
</g>
<!-- ready&#45;&gt;input -->
<g id="edge4" class="edge">
<title>ready&#45;&gt;input</title>
<path fill="none" stroke="black" d="M106.46,-215.57C105.77,-197.6 105.23,-168.79 107.32,-144 108,-135.97 109.24,-127.33 110.59,-119.4"/>
<polygon fill="black" stroke="black" points="114.03,-120.05 112.39,-109.58 107.15,-118.79 114.03,-120.05"/>
</g>
<!-- ready&#45;&gt;readable -->
<g id="edge7" class="edge">
<title>ready&#45;&gt;readable</title>
<path fill="none" stroke="black" d="M116.47,-215.7C120.54,-207.98 125.44,-198.71 129.99,-190.11"/>
<polygon fill="black" stroke="black" points="132.99,-191.92 134.57,-181.44 126.81,-188.65 132.99,-191.92"/>
</g>
<!-- resetable -->
<g id="node6" class="node">
<title>resetable</title>
<g id="a_node6"><a xlink:href="PsyllaReference_Types.xhtml#PsyllaReference_Types_Details_resetable" xlink:title="resetable" target="_parent">
<polygon fill="linen" stroke="black" points="213.64,-252 161,-252 161,-216 219.64,-216 219.64,-246 213.64,-252"/>
<polyline fill="none" stroke="black" points="213.64,-252 213.64,-246"/>
<polyline fill="none" stroke="black" points="219.64,-246 213.64,-246"/>
<text xml:space="preserve" text-anchor="middle" x="190.32" y="-230.4" font-family="Source Code Pro,monospace" font-size="12.00">resetable</text>
</a>
</g>
</g>
<!-- resetable&#45;&gt;input -->
<g id="edge5" class="edge">
<title>resetable&#45;&gt;input</title>
<path fill="none" stroke="black" d="M192.32,-215.81C193.69,-197.01 193.47,-166.56 181.32,-144 174.64,-131.58 163.7,-120.97 152.69,-112.58"/>
<polygon fill="black" stroke="black" points="154.93,-109.88 144.75,-106.94 150.88,-115.58 154.93,-109.88"/>
</g>
<!-- object -->
<g id="node7" class="node">
<title>object</title>
<g id="a_node7"><a xlink:href="PsyllaReference_Types.xhtml#PsyllaReference_Types_Details_object" xlink:title="object" target="_parent">
<polygon fill="linen" stroke="black" points="128.32,-324 80.32,-324 80.32,-288 134.32,-288 134.32,-318 128.32,-324"/>
<polyline fill="none" stroke="black" points="128.32,-324 128.32,-318"/>
<polyline fill="none" stroke="black" points="134.32,-318 128.32,-318"/>
<text xml:space="preserve" text-anchor="middle" x="107.32" y="-302.4" font-family="Source Code Pro,monospace" font-size="12.00">object</text>
</a>
</g>
</g>
<!-- object&#45;&gt;closeable -->
<g id="edge6" class="edge">
<title>object&#45;&gt;closeable</title>
<path fill="none" stroke="black" d="M94.57,-287.8C87.32,-277.65 78.32,-264.4 71.32,-252 60.15,-232.22 49.48,-208.86 41.82,-191.04"/>
<polygon fill="black" stroke="black" points="45.07,-189.72 37.95,-181.87 38.62,-192.45 45.07,-189.72"/>
</g>
<!-- object&#45;&gt;ready -->
<g id="edge8" class="edge">
<title>object&#45;&gt;ready</title>
<path fill="none" stroke="black" d="M107.32,-287.7C107.32,-280.41 107.32,-271.73 107.32,-263.54"/>
<polygon fill="black" stroke="black" points="110.82,-263.62 107.32,-253.62 103.82,-263.62 110.82,-263.62"/>
</g>
<!-- object&#45;&gt;resetable -->
<g id="edge9" class="edge">
<title>object&#45;&gt;resetable</title>
<path fill="none" stroke="black" d="M127.84,-287.7C137.91,-279.2 150.23,-268.81 161.25,-259.51"/>
<polygon fill="black" stroke="black" points="163.21,-262.45 168.6,-253.32 158.69,-257.09 163.21,-262.45"/>
</g>
</g>
</svg>
