<?xml version="1.0" encoding="UTF-8" standalone="no"?>
<!DOCTYPE svg PUBLIC "-//W3C//DTD SVG 1.1//EN"
 "http://www.w3.org/Graphics/SVG/1.1/DTD/svg11.dtd">
<!-- Generated by graphviz version 2.49.3 (0)
 -->
<!-- Title: condition Pages: 1 -->
<svg width="69pt" height="116pt"
 viewBox="0.00 0.00 69.33 116.00" xmlns="http://www.w3.org/2000/svg" xmlns:xlink="http://www.w3.org/1999/xlink">
<g id="graph0" class="graph" transform="scale(1 1) rotate(0) translate(4 112)">
<title>condition</title>
<polygon fill="transparent" stroke="transparent" points="-4,4 -4,-112 65.33,-112 65.33,4 -4,4"/>
<!-- object -->
<g id="node1" class="node">
<title>object</title>
<g id="a_node1"><a xlink:href="PsyllaReference_Types.xhtml#PsyllaReference_Types_Details_object" xlink:title="object" target="_parent">
<polygon fill="linen" stroke="black" points="51.67,-108 3.67,-108 3.67,-72 57.67,-72 57.67,-102 51.67,-108"/>
<polyline fill="none" stroke="black" points="51.67,-108 51.67,-102 "/>
<polyline fill="none" stroke="black" points="57.67,-102 51.67,-102 "/>
<text text-anchor="middle" x="30.67" y="-86.4" font-family="Source Code Pro,monospace" font-size="12.00">object</text>
</a>
</g>
</g>
<!-- condition -->
<g id="node2" class="node">
<title>condition</title>
<g id="a_node2"><a xlink:href="PsyllaReference_Types.xhtml#PsyllaReference_Types_Details_condition" xlink:title="condition" target="_parent">
<polygon fill="wheat" stroke="black" points="55.5,-36 -0.17,-36 -0.17,0 61.5,0 61.5,-30 55.5,-36"/>
<polyline fill="none" stroke="black" points="55.5,-36 55.5,-30 "/>
<polyline fill="none" stroke="black" points="61.5,-30 55.5,-30 "/>
<text text-anchor="middle" x="30.67" y="-14.4" font-family="Source Code Pro,monospace" font-size="12.00">condition</text>
</a>
</g>
</g>
<!-- object&#45;&gt;condition -->
<g id="edge1" class="edge">
<title>object&#45;&gt;condition</title>
<path fill="none" stroke="black" d="M30.67,-71.7C30.67,-63.98 30.67,-54.71 30.67,-46.11"/>
<polygon fill="black" stroke="black" points="34.17,-46.1 30.67,-36.1 27.17,-46.1 34.17,-46.1"/>
</g>
</g>
</svg>
