<?xml version="1.0" encoding="UTF-8" standalone="no"?>
<!DOCTYPE svg PUBLIC "-//W3C//DTD SVG 1.1//EN"
 "http://www.w3.org/Graphics/SVG/1.1/DTD/svg11.dtd">
<!-- Generated by graphviz version 2.43.0 (0)
 -->
<!-- Title: formalstream Pages: 1 -->
<svg width="216pt" height="260pt"
 viewBox="0.00 0.00 216.00 260.00" xmlns="http://www.w3.org/2000/svg" xmlns:xlink="http://www.w3.org/1999/xlink">
<g id="graph0" class="graph" transform="scale(1 1) rotate(0) translate(4 256)">
<title>formalstream</title>
<polygon fill="transparent" stroke="transparent" points="-4,4 -4,-256 212,-256 212,4 -4,4"/>
<!-- streamable -->
<g id="node1" class="node">
<title>streamable</title>
<g id="a_node1"><a xlink:href="PsyllaReference_Types.xhtml#PsyllaReference_Types_Details_streamable" xlink:title="streamable" target="_parent">
<polygon fill="linen" stroke="black" points="202,-108 109,-108 109,-72 208,-72 208,-102 202,-108"/>
<polyline fill="none" stroke="black" points="202,-108 202,-102 "/>
<polyline fill="none" stroke="black" points="208,-102 202,-102 "/>
<text text-anchor="middle" x="158.5" y="-86.3" font-family="Consolas, monospace" font-size="14.00">streamable</text>
</a>
</g>
</g>
<!-- formalstream -->
<g id="node3" class="node">
<title>formalstream</title>
<g id="a_node3"><a xlink:href="PsyllaReference_Types.xhtml#PsyllaReference_Types_Details_formalstream" xlink:title="formalstream" target="_parent">
<polygon fill="wheat" stroke="black" points="153.5,-36 43.5,-36 43.5,0 159.5,0 159.5,-30 153.5,-36"/>
<polyline fill="none" stroke="black" points="153.5,-36 153.5,-30 "/>
<polyline fill="none" stroke="black" points="159.5,-30 153.5,-30 "/>
<text text-anchor="middle" x="101.5" y="-14.3" font-family="Consolas, monospace" font-size="14.00">formalstream</text>
</a>
</g>
</g>
<!-- streamable&#45;&gt;formalstream -->
<g id="edge1" class="edge">
<title>streamable&#45;&gt;formalstream</title>
<path fill="none" stroke="black" d="M144.41,-71.7C137.58,-63.3 129.24,-53.07 121.74,-43.86"/>
<polygon fill="black" stroke="black" points="124.46,-41.65 115.43,-36.1 119.03,-46.07 124.46,-41.65"/>
</g>
<!-- closeable -->
<g id="node2" class="node">
<title>closeable</title>
<g id="a_node2"><a xlink:href="PsyllaReference_Types.xhtml#PsyllaReference_Types_Details_closeable" xlink:title="closeable" target="_parent">
<polygon fill="linen" stroke="black" points="85,-108 0,-108 0,-72 91,-72 91,-102 85,-108"/>
<polyline fill="none" stroke="black" points="85,-108 85,-102 "/>
<polyline fill="none" stroke="black" points="91,-102 85,-102 "/>
<text text-anchor="middle" x="45.5" y="-86.3" font-family="Consolas, monospace" font-size="14.00">closeable</text>
</a>
</g>
</g>
<!-- closeable&#45;&gt;formalstream -->
<g id="edge2" class="edge">
<title>closeable&#45;&gt;formalstream</title>
<path fill="none" stroke="black" d="M59.34,-71.7C65.99,-63.39 74.08,-53.28 81.39,-44.14"/>
<polygon fill="black" stroke="black" points="84.3,-46.1 87.82,-36.1 78.84,-41.73 84.3,-46.1"/>
</g>
<!-- sequential -->
<g id="node4" class="node">
<title>sequential</title>
<g id="a_node4"><a xlink:href="PsyllaReference_Types.xhtml#PsyllaReference_Types_Details_sequential" xlink:title="sequential" target="_parent">
<polygon fill="linen" stroke="black" points="193,-180 100,-180 100,-144 199,-144 199,-174 193,-180"/>
<polyline fill="none" stroke="black" points="193,-180 193,-174 "/>
<polyline fill="none" stroke="black" points="199,-174 193,-174 "/>
<text text-anchor="middle" x="149.5" y="-158.3" font-family="Consolas, monospace" font-size="14.00">sequential</text>
</a>
</g>
</g>
<!-- sequential&#45;&gt;streamable -->
<g id="edge3" class="edge">
<title>sequential&#45;&gt;streamable</title>
<path fill="none" stroke="black" d="M151.72,-143.7C152.72,-135.98 153.91,-126.71 155.01,-118.11"/>
<polygon fill="black" stroke="black" points="158.5,-118.47 156.3,-108.1 151.55,-117.58 158.5,-118.47"/>
</g>
<!-- object -->
<g id="node5" class="node">
<title>object</title>
<g id="a_node5"><a xlink:href="PsyllaReference_Types.xhtml#PsyllaReference_Types_Details_object" xlink:title="object" target="_parent">
<polygon fill="linen" stroke="black" points="128.5,-252 68.5,-252 68.5,-216 134.5,-216 134.5,-246 128.5,-252"/>
<polyline fill="none" stroke="black" points="128.5,-252 128.5,-246 "/>
<polyline fill="none" stroke="black" points="134.5,-246 128.5,-246 "/>
<text text-anchor="middle" x="101.5" y="-230.3" font-family="Consolas, monospace" font-size="14.00">object</text>
</a>
</g>
</g>
<!-- object&#45;&gt;closeable -->
<g id="edge4" class="edge">
<title>object&#45;&gt;closeable</title>
<path fill="none" stroke="black" d="M94.75,-215.87C85.12,-191.46 67.36,-146.43 56,-117.64"/>
<polygon fill="black" stroke="black" points="59.2,-116.21 52.28,-108.19 52.69,-118.78 59.2,-116.21"/>
</g>
<!-- object&#45;&gt;sequential -->
<g id="edge5" class="edge">
<title>object&#45;&gt;sequential</title>
<path fill="none" stroke="black" d="M113.37,-215.7C119,-207.47 125.85,-197.48 132.07,-188.42"/>
<polygon fill="black" stroke="black" points="135,-190.33 137.77,-180.1 129.23,-186.37 135,-190.33"/>
</g>
</g>
</svg>
