<?xml version="1.0" encoding="UTF-8" standalone="no"?>
<!DOCTYPE svg PUBLIC "-//W3C//DTD SVG 1.1//EN"
 "http://www.w3.org/Graphics/SVG/1.1/DTD/svg11.dtd">
<!-- Generated by graphviz version 2.43.0 (0)
 -->
<!-- Title: bitset Pages: 1 -->
<svg width="355pt" height="476pt"
 viewBox="0.00 0.00 355.00 476.00" xmlns="http://www.w3.org/2000/svg" xmlns:xlink="http://www.w3.org/1999/xlink">
<g id="graph0" class="graph" transform="scale(1 1) rotate(0) translate(4 472)">
<title>bitset</title>
<polygon fill="transparent" stroke="transparent" points="-4,4 -4,-472 351,-472 351,4 -4,4"/>
<!-- formalset -->
<g id="node1" class="node">
<title>formalset</title>
<g id="a_node1"><a xlink:href="PsyllaReference_Types.xhtml#PsyllaReference_Types_Details_formalset" xlink:title="formalset" target="_parent">
<polygon fill="linen" stroke="black" points="128,-108 43,-108 43,-72 134,-72 134,-102 128,-108"/>
<polyline fill="none" stroke="black" points="128,-108 128,-102 "/>
<polyline fill="none" stroke="black" points="134,-102 128,-102 "/>
<text text-anchor="middle" x="88.5" y="-86.3" font-family="Consolas, monospace" font-size="14.00">formalset</text>
</a>
</g>
</g>
<!-- bitset -->
<g id="node2" class="node">
<title>bitset</title>
<g id="a_node2"><a xlink:href="PsyllaReference_Types.xhtml#PsyllaReference_Types_Details_bitset" xlink:title="bitset" target="_parent">
<polygon fill="wheat" stroke="black" points="115.5,-36 55.5,-36 55.5,0 121.5,0 121.5,-30 115.5,-36"/>
<polyline fill="none" stroke="black" points="115.5,-36 115.5,-30 "/>
<polyline fill="none" stroke="black" points="121.5,-30 115.5,-30 "/>
<text text-anchor="middle" x="88.5" y="-14.3" font-family="Consolas, monospace" font-size="14.00">bitset</text>
</a>
</g>
</g>
<!-- formalset&#45;&gt;bitset -->
<g id="edge1" class="edge">
<title>formalset&#45;&gt;bitset</title>
<path fill="none" stroke="black" d="M88.5,-71.7C88.5,-63.98 88.5,-54.71 88.5,-46.11"/>
<polygon fill="black" stroke="black" points="92,-46.1 88.5,-36.1 85,-46.1 92,-46.1"/>
</g>
<!-- appendable -->
<g id="node3" class="node">
<title>appendable</title>
<g id="a_node3"><a xlink:href="PsyllaReference_Types.xhtml#PsyllaReference_Types_Details_appendable" xlink:title="appendable" target="_parent">
<polygon fill="linen" stroke="black" points="93,-324 0,-324 0,-288 99,-288 99,-318 93,-324"/>
<polyline fill="none" stroke="black" points="93,-324 93,-318 "/>
<polyline fill="none" stroke="black" points="99,-318 93,-318 "/>
<text text-anchor="middle" x="49.5" y="-302.3" font-family="Consolas, monospace" font-size="14.00">appendable</text>
</a>
</g>
</g>
<!-- appendable&#45;&gt;formalset -->
<g id="edge2" class="edge">
<title>appendable&#45;&gt;formalset</title>
<path fill="none" stroke="black" d="M52.63,-287.85C59.39,-250.75 75.41,-162.81 83.56,-118.1"/>
<polygon fill="black" stroke="black" points="87.01,-118.7 85.36,-108.23 80.12,-117.44 87.01,-118.7"/>
</g>
<!-- container -->
<g id="node4" class="node">
<title>container</title>
<g id="a_node4"><a xlink:href="PsyllaReference_Types.xhtml#PsyllaReference_Types_Details_container" xlink:title="container" target="_parent">
<polygon fill="linen" stroke="black" points="202,-180 117,-180 117,-144 208,-144 208,-174 202,-180"/>
<polyline fill="none" stroke="black" points="202,-180 202,-174 "/>
<polyline fill="none" stroke="black" points="208,-174 202,-174 "/>
<text text-anchor="middle" x="162.5" y="-158.3" font-family="Consolas, monospace" font-size="14.00">container</text>
</a>
</g>
</g>
<!-- container&#45;&gt;formalset -->
<g id="edge3" class="edge">
<title>container&#45;&gt;formalset</title>
<path fill="none" stroke="black" d="M144.21,-143.7C135.07,-135.05 123.86,-124.45 113.9,-115.03"/>
<polygon fill="black" stroke="black" points="116.25,-112.43 106.58,-108.1 111.44,-117.52 116.25,-112.43"/>
</g>
<!-- object -->
<g id="node5" class="node">
<title>object</title>
<g id="a_node5"><a xlink:href="PsyllaReference_Types.xhtml#PsyllaReference_Types_Details_object" xlink:title="object" target="_parent">
<polygon fill="linen" stroke="black" points="186.5,-468 126.5,-468 126.5,-432 192.5,-432 192.5,-462 186.5,-468"/>
<polyline fill="none" stroke="black" points="186.5,-468 186.5,-462 "/>
<polyline fill="none" stroke="black" points="192.5,-462 186.5,-462 "/>
<text text-anchor="middle" x="159.5" y="-446.3" font-family="Consolas, monospace" font-size="14.00">object</text>
</a>
</g>
</g>
<!-- object&#45;&gt;appendable -->
<g id="edge4" class="edge">
<title>object&#45;&gt;appendable</title>
<path fill="none" stroke="black" d="M143.76,-431.67C134.67,-421.48 123.17,-408.23 113.5,-396 96.96,-375.09 79.36,-350.42 66.81,-332.36"/>
<polygon fill="black" stroke="black" points="69.65,-330.31 61.08,-324.07 63.89,-334.29 69.65,-330.31"/>
</g>
<!-- clearable -->
<g id="node6" class="node">
<title>clearable</title>
<g id="a_node6"><a xlink:href="PsyllaReference_Types.xhtml#PsyllaReference_Types_Details_clearable" xlink:title="clearable" target="_parent">
<polygon fill="linen" stroke="black" points="165,-252 80,-252 80,-216 171,-216 171,-246 165,-252"/>
<polyline fill="none" stroke="black" points="165,-252 165,-246 "/>
<polyline fill="none" stroke="black" points="171,-246 165,-246 "/>
<text text-anchor="middle" x="125.5" y="-230.3" font-family="Consolas, monospace" font-size="14.00">clearable</text>
</a>
</g>
</g>
<!-- object&#45;&gt;clearable -->
<g id="edge8" class="edge">
<title>object&#45;&gt;clearable</title>
<path fill="none" stroke="black" d="M154.8,-431.92C152.08,-421.58 148.77,-408.11 146.5,-396 137.74,-349.2 131.4,-294.07 128.1,-261.97"/>
<polygon fill="black" stroke="black" points="131.58,-261.62 127.09,-252.02 124.61,-262.32 131.58,-261.62"/>
</g>
<!-- lengthy -->
<g id="node8" class="node">
<title>lengthy</title>
<g id="a_node8"><a xlink:href="PsyllaReference_Types.xhtml#PsyllaReference_Types_Details_lengthy" xlink:title="lengthy" target="_parent">
<polygon fill="linen" stroke="black" points="223.5,-396 155.5,-396 155.5,-360 229.5,-360 229.5,-390 223.5,-396"/>
<polyline fill="none" stroke="black" points="223.5,-396 223.5,-390 "/>
<polyline fill="none" stroke="black" points="229.5,-390 223.5,-390 "/>
<text text-anchor="middle" x="192.5" y="-374.3" font-family="Consolas, monospace" font-size="14.00">lengthy</text>
</a>
</g>
</g>
<!-- object&#45;&gt;lengthy -->
<g id="edge10" class="edge">
<title>object&#45;&gt;lengthy</title>
<path fill="none" stroke="black" d="M167.66,-431.7C171.41,-423.73 175.95,-414.1 180.12,-405.26"/>
<polygon fill="black" stroke="black" points="183.34,-406.64 184.44,-396.1 177.01,-403.66 183.34,-406.64"/>
</g>
<!-- sequential -->
<g id="node10" class="node">
<title>sequential</title>
<g id="a_node10"><a xlink:href="PsyllaReference_Types.xhtml#PsyllaReference_Types_Details_sequential" xlink:title="sequential" target="_parent">
<polygon fill="linen" stroke="black" points="341,-396 248,-396 248,-360 347,-360 347,-390 341,-396"/>
<polyline fill="none" stroke="black" points="341,-396 341,-390 "/>
<polyline fill="none" stroke="black" points="347,-390 341,-390 "/>
<text text-anchor="middle" x="297.5" y="-374.3" font-family="Consolas, monospace" font-size="14.00">sequential</text>
</a>
</g>
</g>
<!-- object&#45;&gt;sequential -->
<g id="edge12" class="edge">
<title>object&#45;&gt;sequential</title>
<path fill="none" stroke="black" d="M192.55,-432.23C211.22,-422.76 234.77,-410.82 254.82,-400.65"/>
<polygon fill="black" stroke="black" points="256.42,-403.76 263.76,-396.12 253.25,-397.52 256.42,-403.76"/>
</g>
<!-- clearable&#45;&gt;container -->
<g id="edge5" class="edge">
<title>clearable&#45;&gt;container</title>
<path fill="none" stroke="black" d="M134.65,-215.7C138.9,-207.64 144.06,-197.89 148.77,-188.98"/>
<polygon fill="black" stroke="black" points="151.88,-190.58 153.46,-180.1 145.69,-187.31 151.88,-190.58"/>
</g>
<!-- iterable -->
<g id="node7" class="node">
<title>iterable</title>
<g id="a_node7"><a xlink:href="PsyllaReference_Types.xhtml#PsyllaReference_Types_Details_iterable" xlink:title="iterable" target="_parent">
<polygon fill="linen" stroke="black" points="314,-252 237,-252 237,-216 320,-216 320,-246 314,-252"/>
<polyline fill="none" stroke="black" points="314,-252 314,-246 "/>
<polyline fill="none" stroke="black" points="320,-246 314,-246 "/>
<text text-anchor="middle" x="278.5" y="-230.3" font-family="Consolas, monospace" font-size="14.00">iterable</text>
</a>
</g>
</g>
<!-- iterable&#45;&gt;container -->
<g id="edge6" class="edge">
<title>iterable&#45;&gt;container</title>
<path fill="none" stroke="black" d="M250.12,-215.88C234.96,-206.72 216.09,-195.34 199.76,-185.48"/>
<polygon fill="black" stroke="black" points="201.36,-182.36 190.99,-180.19 197.74,-188.35 201.36,-182.36"/>
</g>
<!-- lengthy&#45;&gt;container -->
<g id="edge7" class="edge">
<title>lengthy&#45;&gt;container</title>
<path fill="none" stroke="black" d="M192.4,-359.9C191.95,-330.3 189.74,-267.72 179.5,-216 177.79,-207.37 175.15,-198.18 172.45,-189.92"/>
<polygon fill="black" stroke="black" points="175.75,-188.73 169.2,-180.4 169.12,-190.99 175.75,-188.73"/>
</g>
<!-- streamable -->
<g id="node9" class="node">
<title>streamable</title>
<g id="a_node9"><a xlink:href="PsyllaReference_Types.xhtml#PsyllaReference_Types_Details_streamable" xlink:title="streamable" target="_parent">
<polygon fill="linen" stroke="black" points="331,-324 238,-324 238,-288 337,-288 337,-318 331,-324"/>
<polyline fill="none" stroke="black" points="331,-324 331,-318 "/>
<polyline fill="none" stroke="black" points="337,-318 331,-318 "/>
<text text-anchor="middle" x="287.5" y="-302.3" font-family="Consolas, monospace" font-size="14.00">streamable</text>
</a>
</g>
</g>
<!-- streamable&#45;&gt;iterable -->
<g id="edge9" class="edge">
<title>streamable&#45;&gt;iterable</title>
<path fill="none" stroke="black" d="M285.28,-287.7C284.28,-279.98 283.09,-270.71 281.99,-262.11"/>
<polygon fill="black" stroke="black" points="285.45,-261.58 280.7,-252.1 278.5,-262.47 285.45,-261.58"/>
</g>
<!-- sequential&#45;&gt;streamable -->
<g id="edge11" class="edge">
<title>sequential&#45;&gt;streamable</title>
<path fill="none" stroke="black" d="M295.03,-359.7C293.93,-351.98 292.6,-342.71 291.37,-334.11"/>
<polygon fill="black" stroke="black" points="294.82,-333.51 289.94,-324.1 287.89,-334.5 294.82,-333.51"/>
</g>
</g>
</svg>
