<?xml version="1.0" encoding="UTF-8" standalone="no"?>
<!DOCTYPE svg PUBLIC "-//W3C//DTD SVG 1.1//EN"
 "http://www.w3.org/Graphics/SVG/1.1/DTD/svg11.dtd">
<!-- Generated by graphviz version 2.49.3 (0)
 -->
<!-- Title: real Pages: 1 -->
<svg width="577pt" height="404pt"
 viewBox="0.00 0.00 576.64 404.00" xmlns="http://www.w3.org/2000/svg" xmlns:xlink="http://www.w3.org/1999/xlink">
<g id="graph0" class="graph" transform="scale(1 1) rotate(0) translate(4 400)">
<title>real</title>
<polygon fill="transparent" stroke="transparent" points="-4,4 -4,-400 572.64,-400 572.64,4 -4,4"/>
<!-- realnumeric -->
<g id="node1" class="node">
<title>realnumeric</title>
<g id="a_node1"><a xlink:href="PsyllaReference_Types.xhtml#PsyllaReference_Types_Details_realnumeric" xlink:title="realnumeric" target="_parent">
<polygon fill="linen" stroke="black" points="262.11,-108 194.51,-108 194.51,-72 268.11,-72 268.11,-102 262.11,-108"/>
<polyline fill="none" stroke="black" points="262.11,-108 262.11,-102 "/>
<polyline fill="none" stroke="black" points="268.11,-102 262.11,-102 "/>
<text text-anchor="middle" x="231.31" y="-86.4" font-family="Source Code Pro,monospace" font-size="12.00">realnumeric</text>
</a>
</g>
</g>
<!-- real -->
<g id="node2" class="node">
<title>real</title>
<g id="a_node2"><a xlink:href="PsyllaReference_Types.xhtml#PsyllaReference_Types_Details_real" xlink:title="real" target="_parent">
<polygon fill="wheat" stroke="black" points="252.31,-36 204.31,-36 204.31,0 258.31,0 258.31,-30 252.31,-36"/>
<polyline fill="none" stroke="black" points="252.31,-36 252.31,-30 "/>
<polyline fill="none" stroke="black" points="258.31,-30 252.31,-30 "/>
<text text-anchor="middle" x="231.31" y="-14.4" font-family="Source Code Pro,monospace" font-size="12.00">real</text>
</a>
</g>
</g>
<!-- realnumeric&#45;&gt;real -->
<g id="edge1" class="edge">
<title>realnumeric&#45;&gt;real</title>
<path fill="none" stroke="black" d="M231.31,-71.7C231.31,-63.98 231.31,-54.71 231.31,-46.11"/>
<polygon fill="black" stroke="black" points="234.81,-46.1 231.31,-36.1 227.81,-46.1 234.81,-46.1"/>
</g>
<!-- numeric -->
<g id="node3" class="node">
<title>numeric</title>
<g id="a_node3"><a xlink:href="PsyllaReference_Types.xhtml#PsyllaReference_Types_Details_numeric" xlink:title="numeric" target="_parent">
<polygon fill="linen" stroke="black" points="390.13,-180 340.49,-180 340.49,-144 396.13,-144 396.13,-174 390.13,-180"/>
<polyline fill="none" stroke="black" points="390.13,-180 390.13,-174 "/>
<polyline fill="none" stroke="black" points="396.13,-174 390.13,-174 "/>
<text text-anchor="middle" x="368.31" y="-158.4" font-family="Source Code Pro,monospace" font-size="12.00">numeric</text>
</a>
</g>
</g>
<!-- numeric&#45;&gt;realnumeric -->
<g id="edge2" class="edge">
<title>numeric&#45;&gt;realnumeric</title>
<path fill="none" stroke="black" d="M340.59,-146.83C321.43,-137.05 295.59,-123.84 273.84,-112.73"/>
<polygon fill="black" stroke="black" points="275.3,-109.55 264.8,-108.11 272.12,-115.78 275.3,-109.55"/>
</g>
<!-- convertabletointeger -->
<g id="node4" class="node">
<title>convertabletointeger</title>
<g id="a_node4"><a xlink:href="PsyllaReference_Types.xhtml#PsyllaReference_Types_Details_convertabletointeger" xlink:title="convertabletointeger" target="_parent">
<polygon fill="linen" stroke="black" points="108.44,-252 0.19,-252 0.19,-216 114.44,-216 114.44,-246 108.44,-252"/>
<polyline fill="none" stroke="black" points="108.44,-252 108.44,-246 "/>
<polyline fill="none" stroke="black" points="114.44,-246 108.44,-246 "/>
<text text-anchor="middle" x="57.31" y="-230.4" font-family="Source Code Pro,monospace" font-size="12.00">convertabletointeger</text>
</a>
</g>
</g>
<!-- convertabletointeger&#45;&gt;realnumeric -->
<g id="edge3" class="edge">
<title>convertabletointeger&#45;&gt;realnumeric</title>
<path fill="none" stroke="black" d="M56.26,-215.72C56.02,-195.98 58.69,-163.85 76.31,-144 103.63,-113.22 149.59,-100.3 184.39,-94.89"/>
<polygon fill="black" stroke="black" points="184.93,-98.35 194.34,-93.49 183.95,-91.41 184.93,-98.35"/>
</g>
<!-- convertabletointegral -->
<g id="node5" class="node">
<title>convertabletointegral</title>
<g id="a_node5"><a xlink:href="PsyllaReference_Types.xhtml#PsyllaReference_Types_Details_convertabletointegral" xlink:title="convertabletointegral" target="_parent">
<polygon fill="linen" stroke="black" points="197.27,-180 85.35,-180 85.35,-144 203.27,-144 203.27,-174 197.27,-180"/>
<polyline fill="none" stroke="black" points="197.27,-180 197.27,-174 "/>
<polyline fill="none" stroke="black" points="203.27,-174 197.27,-174 "/>
<text text-anchor="middle" x="144.31" y="-158.4" font-family="Source Code Pro,monospace" font-size="12.00">convertabletointegral</text>
</a>
</g>
</g>
<!-- convertabletointegral&#45;&gt;realnumeric -->
<g id="edge4" class="edge">
<title>convertabletointegral&#45;&gt;realnumeric</title>
<path fill="none" stroke="black" d="M165.82,-143.7C176.77,-134.88 190.26,-124.03 202.14,-114.47"/>
<polygon fill="black" stroke="black" points="204.46,-117.1 210.05,-108.1 200.07,-111.65 204.46,-117.1"/>
</g>
<!-- convertabletorational -->
<g id="node6" class="node">
<title>convertabletorational</title>
<g id="a_node6"><a xlink:href="PsyllaReference_Types.xhtml#PsyllaReference_Types_Details_convertabletorational" xlink:title="convertabletorational" target="_parent">
<polygon fill="linen" stroke="black" points="282.27,-252 170.35,-252 170.35,-216 288.27,-216 288.27,-246 282.27,-252"/>
<polyline fill="none" stroke="black" points="282.27,-252 282.27,-246 "/>
<polyline fill="none" stroke="black" points="288.27,-246 282.27,-246 "/>
<text text-anchor="middle" x="229.31" y="-230.4" font-family="Source Code Pro,monospace" font-size="12.00">convertabletorational</text>
</a>
</g>
</g>
<!-- convertabletorational&#45;&gt;realnumeric -->
<g id="edge5" class="edge">
<title>convertabletorational&#45;&gt;realnumeric</title>
<path fill="none" stroke="black" d="M229.55,-215.87C229.89,-191.67 230.52,-147.21 230.93,-118.39"/>
<polygon fill="black" stroke="black" points="234.43,-118.24 231.07,-108.19 227.43,-118.14 234.43,-118.24"/>
</g>
<!-- scalar -->
<g id="node7" class="node">
<title>scalar</title>
<g id="a_node7"><a xlink:href="PsyllaReference_Types.xhtml#PsyllaReference_Types_Details_scalar" xlink:title="scalar" target="_parent">
<polygon fill="linen" stroke="black" points="313.31,-180 265.31,-180 265.31,-144 319.31,-144 319.31,-174 313.31,-180"/>
<polyline fill="none" stroke="black" points="313.31,-180 313.31,-174 "/>
<polyline fill="none" stroke="black" points="319.31,-174 313.31,-174 "/>
<text text-anchor="middle" x="292.31" y="-158.4" font-family="Source Code Pro,monospace" font-size="12.00">scalar</text>
</a>
</g>
</g>
<!-- scalar&#45;&gt;realnumeric -->
<g id="edge6" class="edge">
<title>scalar&#45;&gt;realnumeric</title>
<path fill="none" stroke="black" d="M277.23,-143.7C269.92,-135.3 261,-125.07 252.98,-115.86"/>
<polygon fill="black" stroke="black" points="255.43,-113.34 246.22,-108.1 250.15,-117.94 255.43,-113.34"/>
</g>
<!-- arithmetic -->
<g id="node8" class="node">
<title>arithmetic</title>
<g id="a_node8"><a xlink:href="PsyllaReference_Types.xhtml#PsyllaReference_Types_Details_arithmetic" xlink:title="arithmetic" target="_parent">
<polygon fill="linen" stroke="black" points="466.46,-252 408.16,-252 408.16,-216 472.46,-216 472.46,-246 466.46,-252"/>
<polyline fill="none" stroke="black" points="466.46,-252 466.46,-246 "/>
<polyline fill="none" stroke="black" points="472.46,-246 466.46,-246 "/>
<text text-anchor="middle" x="440.31" y="-230.4" font-family="Source Code Pro,monospace" font-size="12.00">arithmetic</text>
</a>
</g>
</g>
<!-- arithmetic&#45;&gt;numeric -->
<g id="edge7" class="edge">
<title>arithmetic&#45;&gt;numeric</title>
<path fill="none" stroke="black" d="M422.51,-215.7C413.71,-207.14 402.93,-196.66 393.31,-187.3"/>
<polygon fill="black" stroke="black" points="395.51,-184.57 385.91,-180.1 390.64,-189.58 395.51,-184.57"/>
</g>
<!-- value -->
<g id="node9" class="node">
<title>value</title>
<g id="a_node9"><a xlink:href="PsyllaReference_Types.xhtml#PsyllaReference_Types_Details_value" xlink:title="value" target="_parent">
<polygon fill="linen" stroke="black" points="389.31,-324 341.31,-324 341.31,-288 395.31,-288 395.31,-318 389.31,-324"/>
<polyline fill="none" stroke="black" points="389.31,-324 389.31,-318 "/>
<polyline fill="none" stroke="black" points="395.31,-318 389.31,-318 "/>
<text text-anchor="middle" x="368.31" y="-302.4" font-family="Source Code Pro,monospace" font-size="12.00">value</text>
</a>
</g>
</g>
<!-- value&#45;&gt;numeric -->
<g id="edge8" class="edge">
<title>value&#45;&gt;numeric</title>
<path fill="none" stroke="black" d="M368.31,-287.87C368.31,-263.67 368.31,-219.21 368.31,-190.39"/>
<polygon fill="black" stroke="black" points="371.81,-190.19 368.31,-180.19 364.81,-190.19 371.81,-190.19"/>
</g>
<!-- object -->
<g id="node10" class="node">
<title>object</title>
<g id="a_node10"><a xlink:href="PsyllaReference_Types.xhtml#PsyllaReference_Types_Details_object" xlink:title="object" target="_parent">
<polygon fill="linen" stroke="black" points="334.31,-396 286.31,-396 286.31,-360 340.31,-360 340.31,-390 334.31,-396"/>
<polyline fill="none" stroke="black" points="334.31,-396 334.31,-390 "/>
<polyline fill="none" stroke="black" points="340.31,-390 334.31,-390 "/>
<text text-anchor="middle" x="313.31" y="-374.4" font-family="Source Code Pro,monospace" font-size="12.00">object</text>
</a>
</g>
</g>
<!-- object&#45;&gt;convertabletointeger -->
<g id="edge9" class="edge">
<title>object&#45;&gt;convertabletointeger</title>
<path fill="none" stroke="black" d="M286.03,-374.43C247.9,-369.73 177.79,-357 128.31,-324 104.07,-307.83 84.2,-280.77 71.71,-260.72"/>
<polygon fill="black" stroke="black" points="74.66,-258.83 66.5,-252.07 68.66,-262.44 74.66,-258.83"/>
</g>
<!-- object&#45;&gt;convertabletointegral -->
<g id="edge10" class="edge">
<title>object&#45;&gt;convertabletointegral</title>
<path fill="none" stroke="black" d="M286.16,-362.65C251.31,-342.72 191.74,-303.27 161.31,-252 150.24,-233.34 146.16,-208.95 144.76,-190.43"/>
<polygon fill="black" stroke="black" points="148.24,-190.08 144.21,-180.28 141.25,-190.46 148.24,-190.08"/>
</g>
<!-- object&#45;&gt;convertabletorational -->
<g id="edge11" class="edge">
<title>object&#45;&gt;convertabletorational</title>
<path fill="none" stroke="black" d="M303.18,-359.87C288.61,-335.24 261.63,-289.64 244.62,-260.88"/>
<polygon fill="black" stroke="black" points="247.58,-259.01 239.48,-252.19 241.56,-262.58 247.58,-259.01"/>
</g>
<!-- object&#45;&gt;scalar -->
<g id="edge12" class="edge">
<title>object&#45;&gt;scalar</title>
<path fill="none" stroke="black" d="M311.63,-359.85C308,-322.83 299.4,-235.18 295,-190.39"/>
<polygon fill="black" stroke="black" points="298.46,-189.84 294,-180.23 291.5,-190.53 298.46,-189.84"/>
</g>
<!-- object&#45;&gt;value -->
<g id="edge15" class="edge">
<title>object&#45;&gt;value</title>
<path fill="none" stroke="black" d="M326.91,-359.7C333.43,-351.39 341.38,-341.28 348.56,-332.14"/>
<polygon fill="black" stroke="black" points="351.45,-334.13 354.87,-324.1 345.94,-329.81 351.45,-334.13"/>
</g>
<!-- additive -->
<g id="node11" class="node">
<title>additive</title>
<g id="a_node11"><a xlink:href="PsyllaReference_Types.xhtml#PsyllaReference_Types_Details_additive" xlink:title="additive" target="_parent">
<polygon fill="linen" stroke="black" points="461.47,-324 413.15,-324 413.15,-288 467.47,-288 467.47,-318 461.47,-324"/>
<polyline fill="none" stroke="black" points="461.47,-324 461.47,-318 "/>
<polyline fill="none" stroke="black" points="467.47,-318 461.47,-318 "/>
<text text-anchor="middle" x="440.31" y="-302.4" font-family="Source Code Pro,monospace" font-size="12.00">additive</text>
</a>
</g>
</g>
<!-- object&#45;&gt;additive -->
<g id="edge16" class="edge">
<title>object&#45;&gt;additive</title>
<path fill="none" stroke="black" d="M340.56,-361.98C359.14,-351.74 383.95,-338.07 404.18,-326.92"/>
<polygon fill="black" stroke="black" points="406.04,-329.88 413.11,-321.99 402.67,-323.75 406.04,-329.88"/>
</g>
<!-- multiplicative -->
<g id="node12" class="node">
<title>multiplicative</title>
<g id="a_node12"><a xlink:href="PsyllaReference_Types.xhtml#PsyllaReference_Types_Details_multiplicative" xlink:title="multiplicative" target="_parent">
<polygon fill="linen" stroke="black" points="562.47,-324 486.15,-324 486.15,-288 568.47,-288 568.47,-318 562.47,-324"/>
<polyline fill="none" stroke="black" points="562.47,-324 562.47,-318 "/>
<polyline fill="none" stroke="black" points="568.47,-318 562.47,-318 "/>
<text text-anchor="middle" x="527.31" y="-302.4" font-family="Source Code Pro,monospace" font-size="12.00">multiplicative</text>
</a>
</g>
</g>
<!-- object&#45;&gt;multiplicative -->
<g id="edge17" class="edge">
<title>object&#45;&gt;multiplicative</title>
<path fill="none" stroke="black" d="M340.44,-368.25C372.81,-357.79 428.55,-339.73 476.31,-324 476.41,-323.97 476.51,-323.93 476.61,-323.9"/>
<polygon fill="black" stroke="black" points="477.73,-327.22 486.12,-320.76 475.53,-320.57 477.73,-327.22"/>
</g>
<!-- additive&#45;&gt;arithmetic -->
<g id="edge13" class="edge">
<title>additive&#45;&gt;arithmetic</title>
<path fill="none" stroke="black" d="M440.31,-287.7C440.31,-279.98 440.31,-270.71 440.31,-262.11"/>
<polygon fill="black" stroke="black" points="443.81,-262.1 440.31,-252.1 436.81,-262.1 443.81,-262.1"/>
</g>
<!-- multiplicative&#45;&gt;arithmetic -->
<g id="edge14" class="edge">
<title>multiplicative&#45;&gt;arithmetic</title>
<path fill="none" stroke="black" d="M505.81,-287.7C494.85,-278.88 481.37,-268.03 469.49,-258.47"/>
<polygon fill="black" stroke="black" points="471.56,-255.65 461.57,-252.1 467.17,-261.1 471.56,-255.65"/>
</g>
</g>
</svg>
