<?xml version="1.0" encoding="UTF-8" standalone="no"?>
<!DOCTYPE svg PUBLIC "-//W3C//DTD SVG 1.1//EN"
 "http://www.w3.org/Graphics/SVG/1.1/DTD/svg11.dtd">
<!-- Generated by graphviz version 2.43.0 (0)
 -->
<!-- Title: string Pages: 1 -->
<svg width="778pt" height="476pt"
 viewBox="0.00 0.00 777.50 476.00" xmlns="http://www.w3.org/2000/svg" xmlns:xlink="http://www.w3.org/1999/xlink">
<g id="graph0" class="graph" transform="scale(1 1) rotate(0) translate(4 472)">
<title>string</title>
<polygon fill="transparent" stroke="transparent" points="-4,4 -4,-472 773.5,-472 773.5,4 -4,4"/>
<!-- textual -->
<g id="node1" class="node">
<title>textual</title>
<g id="a_node1"><a xlink:href="PsyllaReference_Types.xhtml#PsyllaReference_Types_Details_textual" xlink:title="textual" target="_parent">
<polygon fill="linen" stroke="black" points="338.5,-180 275.5,-180 275.5,-144 344.5,-144 344.5,-174 338.5,-180"/>
<polyline fill="none" stroke="black" points="338.5,-180 338.5,-174 "/>
<polyline fill="none" stroke="black" points="344.5,-174 338.5,-174 "/>
<text text-anchor="middle" x="310" y="-158.9" font-family="Source Code Pro,monospace" font-size="12.00">textual</text>
</a>
</g>
</g>
<!-- string -->
<g id="node3" class="node">
<title>string</title>
<g id="a_node3"><a xlink:href="PsyllaReference_Types.xhtml#PsyllaReference_Types_Details_string" xlink:title="string" target="_parent">
<polygon fill="wheat" stroke="black" points="446,-36 390,-36 390,0 452,0 452,-30 446,-36"/>
<polyline fill="none" stroke="black" points="446,-36 446,-30 "/>
<polyline fill="none" stroke="black" points="452,-30 446,-30 "/>
<text text-anchor="middle" x="421" y="-14.9" font-family="Source Code Pro,monospace" font-size="12.00">string</text>
</a>
</g>
</g>
<!-- textual&#45;&gt;string -->
<g id="edge1" class="edge">
<title>textual&#45;&gt;string</title>
<path fill="none" stroke="black" d="M323.39,-143.87C342.81,-119.03 378.91,-72.85 401.35,-44.14"/>
<polygon fill="black" stroke="black" points="404.16,-46.22 407.56,-36.19 398.65,-41.91 404.16,-46.22"/>
</g>
<!-- formalarray -->
<g id="node2" class="node">
<title>formalarray</title>
<g id="a_node2"><a xlink:href="PsyllaReference_Types.xhtml#PsyllaReference_Types_Details_formalarray" xlink:title="formalarray" target="_parent">
<polygon fill="linen" stroke="black" points="575.5,-108 482.5,-108 482.5,-72 581.5,-72 581.5,-102 575.5,-108"/>
<polyline fill="none" stroke="black" points="575.5,-108 575.5,-102 "/>
<polyline fill="none" stroke="black" points="581.5,-102 575.5,-102 "/>
<text text-anchor="middle" x="532" y="-86.9" font-family="Source Code Pro,monospace" font-size="12.00">formalarray</text>
</a>
</g>
</g>
<!-- formalarray&#45;&gt;string -->
<g id="edge2" class="edge">
<title>formalarray&#45;&gt;string</title>
<path fill="none" stroke="black" d="M504.85,-71.88C490.47,-62.81 472.62,-51.55 457.09,-41.76"/>
<polygon fill="black" stroke="black" points="458.58,-38.56 448.26,-36.19 454.85,-44.48 458.58,-38.56"/>
</g>
<!-- evaluable -->
<g id="node4" class="node">
<title>evaluable</title>
<g id="a_node4"><a xlink:href="PsyllaReference_Types.xhtml#PsyllaReference_Types_Details_evaluable" xlink:title="evaluable" target="_parent">
<polygon fill="linen" stroke="black" points="126,-324 48,-324 48,-288 132,-288 132,-318 126,-324"/>
<polyline fill="none" stroke="black" points="126,-324 126,-318 "/>
<polyline fill="none" stroke="black" points="132,-318 126,-318 "/>
<text text-anchor="middle" x="90" y="-302.9" font-family="Source Code Pro,monospace" font-size="12.00">evaluable</text>
</a>
</g>
</g>
<!-- evaluable&#45;&gt;textual -->
<g id="edge3" class="edge">
<title>evaluable&#45;&gt;textual</title>
<path fill="none" stroke="black" d="M88.04,-287.89C86.77,-268.02 87.97,-235.46 106,-216 127.33,-192.97 211.69,-177.01 265.02,-168.98"/>
<polygon fill="black" stroke="black" points="265.86,-172.39 275.25,-167.48 264.85,-165.47 265.86,-172.39"/>
</g>
<!-- convertabletointeger -->
<g id="node5" class="node">
<title>convertabletointeger</title>
<g id="a_node5"><a xlink:href="PsyllaReference_Types.xhtml#PsyllaReference_Types_Details_convertabletointeger" xlink:title="convertabletointeger" target="_parent">
<polygon fill="linen" stroke="black" points="276.5,-252 115.5,-252 115.5,-216 282.5,-216 282.5,-246 276.5,-252"/>
<polyline fill="none" stroke="black" points="276.5,-252 276.5,-246 "/>
<polyline fill="none" stroke="black" points="282.5,-246 276.5,-246 "/>
<text text-anchor="middle" x="199" y="-230.9" font-family="Source Code Pro,monospace" font-size="12.00">convertabletointeger</text>
</a>
</g>
</g>
<!-- convertabletointeger&#45;&gt;textual -->
<g id="edge4" class="edge">
<title>convertabletointeger&#45;&gt;textual</title>
<path fill="none" stroke="black" d="M226.15,-215.88C240.53,-206.81 258.38,-195.55 273.91,-185.76"/>
<polygon fill="black" stroke="black" points="276.15,-188.48 282.74,-180.19 272.42,-182.56 276.15,-188.48"/>
</g>
<!-- convertabletointegral -->
<g id="node6" class="node">
<title>convertabletointegral</title>
<g id="a_node6"><a xlink:href="PsyllaReference_Types.xhtml#PsyllaReference_Types_Details_convertabletointegral" xlink:title="convertabletointegral" target="_parent">
<polygon fill="linen" stroke="black" points="356,-324 188,-324 188,-288 362,-288 362,-318 356,-324"/>
<polyline fill="none" stroke="black" points="356,-324 356,-318 "/>
<polyline fill="none" stroke="black" points="362,-318 356,-318 "/>
<text text-anchor="middle" x="275" y="-302.9" font-family="Source Code Pro,monospace" font-size="12.00">convertabletointegral</text>
</a>
</g>
</g>
<!-- convertabletointegral&#45;&gt;textual -->
<g id="edge5" class="edge">
<title>convertabletointegral&#45;&gt;textual</title>
<path fill="none" stroke="black" d="M280.55,-287.92C283.81,-277.58 287.89,-264.1 291,-252 296.28,-231.47 301.24,-208.02 304.77,-190.34"/>
<polygon fill="black" stroke="black" points="308.28,-190.65 306.78,-180.16 301.41,-189.3 308.28,-190.65"/>
</g>
<!-- iterable -->
<g id="node7" class="node">
<title>iterable</title>
<g id="a_node7"><a xlink:href="PsyllaReference_Types.xhtml#PsyllaReference_Types_Details_iterable" xlink:title="iterable" target="_parent">
<polygon fill="linen" stroke="black" points="496.5,-252 425.5,-252 425.5,-216 502.5,-216 502.5,-246 496.5,-252"/>
<polyline fill="none" stroke="black" points="496.5,-252 496.5,-246 "/>
<polyline fill="none" stroke="black" points="502.5,-246 496.5,-246 "/>
<text text-anchor="middle" x="464" y="-230.9" font-family="Source Code Pro,monospace" font-size="12.00">iterable</text>
</a>
</g>
</g>
<!-- iterable&#45;&gt;textual -->
<g id="edge6" class="edge">
<title>iterable&#45;&gt;textual</title>
<path fill="none" stroke="black" d="M426.33,-215.88C404.41,-205.92 376.69,-193.31 353.81,-182.91"/>
<polygon fill="black" stroke="black" points="355.2,-179.7 344.65,-178.75 352.31,-186.07 355.2,-179.7"/>
</g>
<!-- container -->
<g id="node11" class="node">
<title>container</title>
<g id="a_node11"><a xlink:href="PsyllaReference_Types.xhtml#PsyllaReference_Types_Details_container" xlink:title="container" target="_parent">
<polygon fill="linen" stroke="black" points="498,-180 420,-180 420,-144 504,-144 504,-174 498,-180"/>
<polyline fill="none" stroke="black" points="498,-180 498,-174 "/>
<polyline fill="none" stroke="black" points="504,-174 498,-174 "/>
<text text-anchor="middle" x="462" y="-158.9" font-family="Source Code Pro,monospace" font-size="12.00">container</text>
</a>
</g>
</g>
<!-- iterable&#45;&gt;container -->
<g id="edge21" class="edge">
<title>iterable&#45;&gt;container</title>
<path fill="none" stroke="black" d="M463.51,-215.7C463.29,-207.98 463.02,-198.71 462.77,-190.11"/>
<polygon fill="black" stroke="black" points="466.27,-190 462.49,-180.1 459.28,-190.2 466.27,-190"/>
</g>
<!-- lengthy -->
<g id="node8" class="node">
<title>lengthy</title>
<g id="a_node8"><a xlink:href="PsyllaReference_Types.xhtml#PsyllaReference_Types_Details_lengthy" xlink:title="lengthy" target="_parent">
<polygon fill="linen" stroke="black" points="401.5,-252 338.5,-252 338.5,-216 407.5,-216 407.5,-246 401.5,-252"/>
<polyline fill="none" stroke="black" points="401.5,-252 401.5,-246 "/>
<polyline fill="none" stroke="black" points="407.5,-246 401.5,-246 "/>
<text text-anchor="middle" x="373" y="-230.9" font-family="Source Code Pro,monospace" font-size="12.00">lengthy</text>
</a>
</g>
</g>
<!-- lengthy&#45;&gt;textual -->
<g id="edge7" class="edge">
<title>lengthy&#45;&gt;textual</title>
<path fill="none" stroke="black" d="M357.43,-215.7C349.8,-207.22 340.48,-196.86 332.12,-187.58"/>
<polygon fill="black" stroke="black" points="334.69,-185.2 325.39,-180.1 329.48,-189.88 334.69,-185.2"/>
</g>
<!-- lengthy&#45;&gt;container -->
<g id="edge22" class="edge">
<title>lengthy&#45;&gt;container</title>
<path fill="none" stroke="black" d="M395,-215.7C406.21,-206.88 420,-196.03 432.15,-186.47"/>
<polygon fill="black" stroke="black" points="434.56,-189.04 440.25,-180.1 430.23,-183.54 434.56,-189.04"/>
</g>
<!-- scalar -->
<g id="node9" class="node">
<title>scalar</title>
<g id="a_node9"><a xlink:href="PsyllaReference_Types.xhtml#PsyllaReference_Types_Details_scalar" xlink:title="scalar" target="_parent">
<polygon fill="linen" stroke="black" points="56,-396 0,-396 0,-360 62,-360 62,-390 56,-396"/>
<polyline fill="none" stroke="black" points="56,-396 56,-390 "/>
<polyline fill="none" stroke="black" points="62,-390 56,-390 "/>
<text text-anchor="middle" x="31" y="-374.9" font-family="Source Code Pro,monospace" font-size="12.00">scalar</text>
</a>
</g>
</g>
<!-- scalar&#45;&gt;textual -->
<g id="edge8" class="edge">
<title>scalar&#45;&gt;textual</title>
<path fill="none" stroke="black" d="M30.07,-359.74C29.65,-341.41 30.6,-311.85 39,-288 51.78,-251.73 55.43,-237.97 87,-216 140.55,-178.72 216.99,-167.46 265.02,-164.17"/>
<polygon fill="black" stroke="black" points="265.35,-167.66 275.12,-163.57 264.93,-160.67 265.35,-167.66"/>
</g>
<!-- appendable -->
<g id="node10" class="node">
<title>appendable</title>
<g id="a_node10"><a xlink:href="PsyllaReference_Types.xhtml#PsyllaReference_Types_Details_appendable" xlink:title="appendable" target="_parent">
<polygon fill="linen" stroke="black" points="697,-324 611,-324 611,-288 703,-288 703,-318 697,-324"/>
<polyline fill="none" stroke="black" points="697,-324 697,-318 "/>
<polyline fill="none" stroke="black" points="703,-318 697,-318 "/>
<text text-anchor="middle" x="657" y="-302.9" font-family="Source Code Pro,monospace" font-size="12.00">appendable</text>
</a>
</g>
</g>
<!-- appendable&#45;&gt;formalarray -->
<g id="edge9" class="edge">
<title>appendable&#45;&gt;formalarray</title>
<path fill="none" stroke="black" d="M659.71,-287.8C661.86,-269.27 663.04,-239.29 653,-216 634.55,-173.21 594.4,-136.6 565.4,-114.26"/>
<polygon fill="black" stroke="black" points="567.26,-111.28 557.17,-108.07 563.05,-116.88 567.26,-111.28"/>
</g>
<!-- container&#45;&gt;formalarray -->
<g id="edge10" class="edge">
<title>container&#45;&gt;formalarray</title>
<path fill="none" stroke="black" d="M479.3,-143.7C487.86,-135.14 498.34,-124.66 507.7,-115.3"/>
<polygon fill="black" stroke="black" points="510.3,-117.65 514.9,-108.1 505.35,-112.7 510.3,-117.65"/>
</g>
<!-- indexed -->
<g id="node12" class="node">
<title>indexed</title>
<g id="a_node12"><a xlink:href="PsyllaReference_Types.xhtml#PsyllaReference_Types_Details_indexed" xlink:title="indexed" target="_parent">
<polygon fill="linen" stroke="black" points="763.5,-180 700.5,-180 700.5,-144 769.5,-144 769.5,-174 763.5,-180"/>
<polyline fill="none" stroke="black" points="763.5,-180 763.5,-174 "/>
<polyline fill="none" stroke="black" points="769.5,-174 763.5,-174 "/>
<text text-anchor="middle" x="735" y="-158.9" font-family="Source Code Pro,monospace" font-size="12.00">indexed</text>
</a>
</g>
</g>
<!-- indexed&#45;&gt;formalarray -->
<g id="edge11" class="edge">
<title>indexed&#45;&gt;formalarray</title>
<path fill="none" stroke="black" d="M700.47,-149.01C695.61,-147.32 690.68,-145.62 686,-144 654.67,-133.17 619.73,-121.15 591.07,-111.29"/>
<polygon fill="black" stroke="black" points="592.19,-107.98 581.6,-108.03 589.92,-114.6 592.19,-107.98"/>
</g>
<!-- sequential -->
<g id="node13" class="node">
<title>sequential</title>
<g id="a_node13"><a xlink:href="PsyllaReference_Types.xhtml#PsyllaReference_Types_Details_sequential" xlink:title="sequential" target="_parent">
<polygon fill="linen" stroke="black" points="504,-396 418,-396 418,-360 510,-360 510,-390 504,-396"/>
<polyline fill="none" stroke="black" points="504,-396 504,-390 "/>
<polyline fill="none" stroke="black" points="510,-390 504,-390 "/>
<text text-anchor="middle" x="464" y="-374.9" font-family="Source Code Pro,monospace" font-size="12.00">sequential</text>
</a>
</g>
</g>
<!-- sequential&#45;&gt;formalarray -->
<g id="edge12" class="edge">
<title>sequential&#45;&gt;formalarray</title>
<path fill="none" stroke="black" d="M489.03,-359.8C500.28,-350.6 512.48,-338.22 519,-324 550.43,-255.44 543.02,-163.39 536.64,-118.26"/>
<polygon fill="black" stroke="black" points="540.06,-117.46 535.11,-108.09 533.14,-118.5 540.06,-117.46"/>
</g>
<!-- streamable -->
<g id="node15" class="node">
<title>streamable</title>
<g id="a_node15"><a xlink:href="PsyllaReference_Types.xhtml#PsyllaReference_Types_Details_streamable" xlink:title="streamable" target="_parent">
<polygon fill="linen" stroke="black" points="504,-324 418,-324 418,-288 510,-288 510,-318 504,-324"/>
<polyline fill="none" stroke="black" points="504,-324 504,-318 "/>
<polyline fill="none" stroke="black" points="510,-318 504,-318 "/>
<text text-anchor="middle" x="464" y="-302.9" font-family="Source Code Pro,monospace" font-size="12.00">streamable</text>
</a>
</g>
</g>
<!-- sequential&#45;&gt;streamable -->
<g id="edge25" class="edge">
<title>sequential&#45;&gt;streamable</title>
<path fill="none" stroke="black" d="M464,-359.7C464,-351.98 464,-342.71 464,-334.11"/>
<polygon fill="black" stroke="black" points="467.5,-334.1 464,-324.1 460.5,-334.1 467.5,-334.1"/>
</g>
<!-- object -->
<g id="node14" class="node">
<title>object</title>
<g id="a_node14"><a xlink:href="PsyllaReference_Types.xhtml#PsyllaReference_Types_Details_object" xlink:title="object" target="_parent">
<polygon fill="linen" stroke="black" points="415,-468 359,-468 359,-432 421,-432 421,-462 415,-468"/>
<polyline fill="none" stroke="black" points="415,-468 415,-462 "/>
<polyline fill="none" stroke="black" points="421,-462 415,-462 "/>
<text text-anchor="middle" x="390" y="-446.9" font-family="Source Code Pro,monospace" font-size="12.00">object</text>
</a>
</g>
</g>
<!-- object&#45;&gt;evaluable -->
<g id="edge13" class="edge">
<title>object&#45;&gt;evaluable</title>
<path fill="none" stroke="black" d="M358.86,-449.65C309.32,-449.18 211.48,-441.92 146,-396 124.16,-380.69 109.01,-353.87 100.03,-333.66"/>
<polygon fill="black" stroke="black" points="103.22,-332.21 96.11,-324.35 96.76,-334.93 103.22,-332.21"/>
</g>
<!-- object&#45;&gt;convertabletointeger -->
<g id="edge14" class="edge">
<title>object&#45;&gt;convertabletointeger</title>
<path fill="none" stroke="black" d="M358.92,-441.17C310.32,-427.05 217.9,-392.25 179,-324 167.98,-304.67 175.08,-279.75 183.73,-261.19"/>
<polygon fill="black" stroke="black" points="186.92,-262.64 188.31,-252.14 180.68,-259.48 186.92,-262.64"/>
</g>
<!-- object&#45;&gt;convertabletointegral -->
<g id="edge15" class="edge">
<title>object&#45;&gt;convertabletointegral</title>
<path fill="none" stroke="black" d="M376.13,-431.87C356.01,-407.03 318.61,-360.85 295.36,-332.14"/>
<polygon fill="black" stroke="black" points="297.93,-329.76 288.92,-324.19 292.49,-334.16 297.93,-329.76"/>
</g>
<!-- object&#45;&gt;lengthy -->
<g id="edge17" class="edge">
<title>object&#45;&gt;lengthy</title>
<path fill="none" stroke="black" d="M388.64,-431.85C385.7,-394.83 378.73,-307.18 375.18,-262.39"/>
<polygon fill="black" stroke="black" points="378.65,-261.92 374.37,-252.23 371.67,-262.48 378.65,-261.92"/>
</g>
<!-- object&#45;&gt;scalar -->
<g id="edge18" class="edge">
<title>object&#45;&gt;scalar</title>
<path fill="none" stroke="black" d="M358.63,-444.1C304.85,-435.52 191.68,-416.73 97,-396 88.86,-394.22 80.21,-392.13 71.95,-390.04"/>
<polygon fill="black" stroke="black" points="72.67,-386.61 62.11,-387.51 70.92,-393.39 72.67,-386.61"/>
</g>
<!-- object&#45;&gt;appendable -->
<g id="edge19" class="edge">
<title>object&#45;&gt;appendable</title>
<path fill="none" stroke="black" d="M421.04,-447.27C463.14,-443.58 539.12,-432.04 592,-396 615.2,-380.18 633.16,-353.25 644.27,-333.15"/>
<polygon fill="black" stroke="black" points="647.43,-334.66 649.02,-324.18 641.25,-331.38 647.43,-334.66"/>
</g>
<!-- object&#45;&gt;indexed -->
<g id="edge23" class="edge">
<title>object&#45;&gt;indexed</title>
<path fill="none" stroke="black" d="M421.24,-448.64C489.97,-445.88 652.87,-428.17 712,-324 735.9,-281.9 738.1,-223.98 736.95,-190.31"/>
<polygon fill="black" stroke="black" points="740.44,-190.11 736.48,-180.28 733.45,-190.44 740.44,-190.11"/>
</g>
<!-- object&#45;&gt;sequential -->
<g id="edge24" class="edge">
<title>object&#45;&gt;sequential</title>
<path fill="none" stroke="black" d="M408.29,-431.7C417.43,-423.05 428.64,-412.45 438.6,-403.03"/>
<polygon fill="black" stroke="black" points="441.06,-405.52 445.92,-396.1 436.25,-400.43 441.06,-405.52"/>
</g>
<!-- clearable -->
<g id="node16" class="node">
<title>clearable</title>
<g id="a_node16"><a xlink:href="PsyllaReference_Types.xhtml#PsyllaReference_Types_Details_clearable" xlink:title="clearable" target="_parent">
<polygon fill="linen" stroke="black" points="638,-252 560,-252 560,-216 644,-216 644,-246 638,-252"/>
<polyline fill="none" stroke="black" points="638,-252 638,-246 "/>
<polyline fill="none" stroke="black" points="644,-246 638,-246 "/>
<text text-anchor="middle" x="602" y="-230.9" font-family="Source Code Pro,monospace" font-size="12.00">clearable</text>
</a>
</g>
</g>
<!-- object&#45;&gt;clearable -->
<g id="edge26" class="edge">
<title>object&#45;&gt;clearable</title>
<path fill="none" stroke="black" d="M421.21,-442.68C449.62,-435.54 491.26,-421.45 519,-396 559.5,-358.85 583.38,-297.4 594.46,-262.13"/>
<polygon fill="black" stroke="black" points="597.83,-263.09 597.37,-252.5 591.13,-261.06 597.83,-263.09"/>
</g>
<!-- streamable&#45;&gt;iterable -->
<g id="edge16" class="edge">
<title>streamable&#45;&gt;iterable</title>
<path fill="none" stroke="black" d="M464,-287.7C464,-279.98 464,-270.71 464,-262.11"/>
<polygon fill="black" stroke="black" points="467.5,-262.1 464,-252.1 460.5,-262.1 467.5,-262.1"/>
</g>
<!-- clearable&#45;&gt;container -->
<g id="edge20" class="edge">
<title>clearable&#45;&gt;container</title>
<path fill="none" stroke="black" d="M567.75,-215.88C548.94,-206.47 525.42,-194.71 505.33,-184.67"/>
<polygon fill="black" stroke="black" points="506.89,-181.53 496.38,-180.19 503.76,-187.79 506.89,-181.53"/>
</g>
</g>
</svg>
