<?xml version="1.0" encoding="UTF-8" standalone="no"?>
<!DOCTYPE svg PUBLIC "-//W3C//DTD SVG 1.1//EN"
 "http://www.w3.org/Graphics/SVG/1.1/DTD/svg11.dtd">
<!-- Generated by graphviz version 2.49.3 (0)
 -->
<!-- Title: additive Pages: 1 -->
<svg width="63pt" height="116pt"
 viewBox="0.00 0.00 62.66 116.00" xmlns="http://www.w3.org/2000/svg" xmlns:xlink="http://www.w3.org/1999/xlink">
<g id="graph0" class="graph" transform="scale(1 1) rotate(0) translate(4 112)">
<title>additive</title>
<polygon fill="transparent" stroke="transparent" points="-4,4 -4,-112 58.66,-112 58.66,4 -4,4"/>
<!-- object -->
<g id="node1" class="node">
<title>object</title>
<g id="a_node1"><a xlink:href="PsyllaReference_Types.xhtml#PsyllaReference_Types_Details_object" xlink:title="object" target="_parent">
<polygon fill="linen" stroke="black" points="48.33,-108 0.33,-108 0.33,-72 54.33,-72 54.33,-102 48.33,-108"/>
<polyline fill="none" stroke="black" points="48.33,-108 48.33,-102 "/>
<polyline fill="none" stroke="black" points="54.33,-102 48.33,-102 "/>
<text text-anchor="middle" x="27.33" y="-86.4" font-family="Source Code Pro,monospace" font-size="12.00">object</text>
</a>
</g>
</g>
<!-- additive -->
<g id="node2" class="node">
<title>additive</title>
<g id="a_node2"><a xlink:href="PsyllaReference_Types.xhtml#PsyllaReference_Types_Details_additive" xlink:title="additive" target="_parent">
<polygon fill="wheat" stroke="black" points="48.49,-36 0.17,-36 0.17,0 54.49,0 54.49,-30 48.49,-36"/>
<polyline fill="none" stroke="black" points="48.49,-36 48.49,-30 "/>
<polyline fill="none" stroke="black" points="54.49,-30 48.49,-30 "/>
<text text-anchor="middle" x="27.33" y="-14.4" font-family="Source Code Pro,monospace" font-size="12.00">additive</text>
</a>
</g>
</g>
<!-- object&#45;&gt;additive -->
<g id="edge1" class="edge">
<title>object&#45;&gt;additive</title>
<path fill="none" stroke="black" d="M27.33,-71.7C27.33,-63.98 27.33,-54.71 27.33,-46.11"/>
<polygon fill="black" stroke="black" points="30.83,-46.1 27.33,-36.1 23.83,-46.1 30.83,-46.1"/>
</g>
</g>
</svg>
