<?xml version="1.0" encoding="UTF-8" standalone="no"?>
<!DOCTYPE svg PUBLIC "-//W3C//DTD SVG 1.1//EN"
 "http://www.w3.org/Graphics/SVG/1.1/DTD/svg11.dtd">
<!-- Generated by graphviz version 14.0.0 (0)
 -->
<!-- Title: condition Pages: 1 -->
<svg width="69pt" height="116pt"
 viewBox="0.00 0.00 69.00 116.00" xmlns="http://www.w3.org/2000/svg" xmlns:xlink="http://www.w3.org/1999/xlink">
<g id="graph0" class="graph" transform="scale(1 1) rotate(0) translate(4 112)">
<title>condition</title>
<polygon fill="none" stroke="none" points="-4,4 -4,-112 65.33,-112 65.33,4 -4,4"/>
<!-- object -->
<g id="node1" class="node">
<title>object</title>
<g id="a_node1"><a xlink:href="PsyllaReference_Types.xhtml#PsyllaReference_Types_Details_object" xlink:title="object" target="_parent">
<polygon fill="linen" stroke="black" points="51.66,-108 3.66,-108 3.66,-72 57.66,-72 57.66,-102 51.66,-108"/>
<polyline fill="none" stroke="black" points="51.66,-108 51.66,-102"/>
<polyline fill="none" stroke="black" points="57.66,-102 51.66,-102"/>
<text xml:space="preserve" text-anchor="middle" x="30.66" y="-86.4" font-family="Source Code Pro,monospace" font-size="12.00">object</text>
</a>
</g>
</g>
<!-- condition -->
<g id="node2" class="node">
<title>condition</title>
<g id="a_node2"><a xlink:href="PsyllaReference_Types.xhtml#PsyllaReference_Types_Details_condition" xlink:title="condition" target="_parent">
<polygon fill="wheat" stroke="black" points="55.33,-36 0,-36 0,0 61.33,0 61.33,-30 55.33,-36"/>
<polyline fill="none" stroke="black" points="55.33,-36 55.33,-30"/>
<polyline fill="none" stroke="black" points="61.33,-30 55.33,-30"/>
<text xml:space="preserve" text-anchor="middle" x="30.66" y="-14.4" font-family="Source Code Pro,monospace" font-size="12.00">condition</text>
</a>
</g>
</g>
<!-- object&#45;&gt;condition -->
<g id="edge1" class="edge">
<title>object&#45;&gt;condition</title>
<path fill="none" stroke="black" d="M30.66,-71.7C30.66,-64.41 30.66,-55.73 30.66,-47.54"/>
<polygon fill="black" stroke="black" points="34.16,-47.62 30.66,-37.62 27.16,-47.62 34.16,-47.62"/>
</g>
</g>
</svg>
