<?xml version="1.0" encoding="UTF-8" standalone="no"?>
<!DOCTYPE svg PUBLIC "-//W3C//DTD SVG 1.1//EN"
 "http://www.w3.org/Graphics/SVG/1.1/DTD/svg11.dtd">
<!-- Generated by graphviz version 2.43.0 (0)
 -->
<!-- Title: integral Pages: 1 -->
<svg width="322pt" height="404pt"
 viewBox="0.00 0.00 321.50 404.00" xmlns="http://www.w3.org/2000/svg" xmlns:xlink="http://www.w3.org/1999/xlink">
<g id="graph0" class="graph" transform="scale(1 1) rotate(0) translate(4 400)">
<title>integral</title>
<polygon fill="transparent" stroke="transparent" points="-4,4 -4,-400 317.5,-400 317.5,4 -4,4"/>
<!-- bitwise -->
<g id="node1" class="node">
<title>bitwise</title>
<g id="a_node1"><a xlink:href="PsyllaReference_Types.xhtml#PsyllaReference_Types_Details_bitwise" xlink:title="bitwise" target="_parent">
<polygon fill="linen" stroke="black" points="68,-108 0,-108 0,-72 74,-72 74,-102 68,-108"/>
<polyline fill="none" stroke="black" points="68,-108 68,-102 "/>
<polyline fill="none" stroke="black" points="74,-102 68,-102 "/>
<text text-anchor="middle" x="37" y="-86.3" font-family="Consolas, monospace" font-size="14.00">bitwise</text>
</a>
</g>
</g>
<!-- integral -->
<g id="node3" class="node">
<title>integral</title>
<g id="a_node3"><a xlink:href="PsyllaReference_Types.xhtml#PsyllaReference_Types_Details_integral" xlink:title="integral" target="_parent">
<polygon fill="wheat" stroke="black" points="126.5,-36 49.5,-36 49.5,0 132.5,0 132.5,-30 126.5,-36"/>
<polyline fill="none" stroke="black" points="126.5,-36 126.5,-30 "/>
<polyline fill="none" stroke="black" points="132.5,-30 126.5,-30 "/>
<text text-anchor="middle" x="91" y="-14.3" font-family="Consolas, monospace" font-size="14.00">integral</text>
</a>
</g>
</g>
<!-- bitwise&#45;&gt;integral -->
<g id="edge1" class="edge">
<title>bitwise&#45;&gt;integral</title>
<path fill="none" stroke="black" d="M50.35,-71.7C56.76,-63.39 64.56,-53.28 71.61,-44.14"/>
<polygon fill="black" stroke="black" points="74.47,-46.16 77.81,-36.1 68.93,-41.88 74.47,-46.16"/>
</g>
<!-- realnumeric -->
<g id="node2" class="node">
<title>realnumeric</title>
<g id="a_node2"><a xlink:href="PsyllaReference_Types.xhtml#PsyllaReference_Types_Details_realnumeric" xlink:title="realnumeric" target="_parent">
<polygon fill="linen" stroke="black" points="193.5,-108 92.5,-108 92.5,-72 199.5,-72 199.5,-102 193.5,-108"/>
<polyline fill="none" stroke="black" points="193.5,-108 193.5,-102 "/>
<polyline fill="none" stroke="black" points="199.5,-102 193.5,-102 "/>
<text text-anchor="middle" x="146" y="-86.3" font-family="Consolas, monospace" font-size="14.00">realnumeric</text>
</a>
</g>
</g>
<!-- realnumeric&#45;&gt;integral -->
<g id="edge2" class="edge">
<title>realnumeric&#45;&gt;integral</title>
<path fill="none" stroke="black" d="M132.4,-71.7C125.88,-63.39 117.93,-53.28 110.75,-44.14"/>
<polygon fill="black" stroke="black" points="113.37,-41.81 104.44,-36.1 107.87,-46.13 113.37,-41.81"/>
</g>
<!-- logical -->
<g id="node4" class="node">
<title>logical</title>
<g id="a_node4"><a xlink:href="PsyllaReference_Types.xhtml#PsyllaReference_Types_Details_logical" xlink:title="logical" target="_parent">
<polygon fill="linen" stroke="black" points="68,-324 0,-324 0,-288 74,-288 74,-318 68,-324"/>
<polyline fill="none" stroke="black" points="68,-324 68,-318 "/>
<polyline fill="none" stroke="black" points="74,-318 68,-318 "/>
<text text-anchor="middle" x="37" y="-302.3" font-family="Consolas, monospace" font-size="14.00">logical</text>
</a>
</g>
</g>
<!-- logical&#45;&gt;bitwise -->
<g id="edge3" class="edge">
<title>logical&#45;&gt;bitwise</title>
<path fill="none" stroke="black" d="M37,-287.85C37,-250.83 37,-163.18 37,-118.39"/>
<polygon fill="black" stroke="black" points="40.5,-118.23 37,-108.23 33.5,-118.23 40.5,-118.23"/>
</g>
<!-- numeric -->
<g id="node5" class="node">
<title>numeric</title>
<g id="a_node5"><a xlink:href="PsyllaReference_Types.xhtml#PsyllaReference_Types_Details_numeric" xlink:title="numeric" target="_parent">
<polygon fill="linen" stroke="black" points="221,-180 153,-180 153,-144 227,-144 227,-174 221,-180"/>
<polyline fill="none" stroke="black" points="221,-180 221,-174 "/>
<polyline fill="none" stroke="black" points="227,-174 221,-174 "/>
<text text-anchor="middle" x="190" y="-158.3" font-family="Consolas, monospace" font-size="14.00">numeric</text>
</a>
</g>
</g>
<!-- numeric&#45;&gt;realnumeric -->
<g id="edge4" class="edge">
<title>numeric&#45;&gt;realnumeric</title>
<path fill="none" stroke="black" d="M179.12,-143.7C174.01,-135.56 167.8,-125.69 162.16,-116.7"/>
<polygon fill="black" stroke="black" points="165.04,-114.71 156.75,-108.1 159.11,-118.43 165.04,-114.71"/>
</g>
<!-- scalar -->
<g id="node6" class="node">
<title>scalar</title>
<g id="a_node6"><a xlink:href="PsyllaReference_Types.xhtml#PsyllaReference_Types_Details_scalar" xlink:title="scalar" target="_parent">
<polygon fill="linen" stroke="black" points="129,-180 69,-180 69,-144 135,-144 135,-174 129,-180"/>
<polyline fill="none" stroke="black" points="129,-180 129,-174 "/>
<polyline fill="none" stroke="black" points="135,-174 129,-174 "/>
<text text-anchor="middle" x="102" y="-158.3" font-family="Consolas, monospace" font-size="14.00">scalar</text>
</a>
</g>
</g>
<!-- scalar&#45;&gt;realnumeric -->
<g id="edge5" class="edge">
<title>scalar&#45;&gt;realnumeric</title>
<path fill="none" stroke="black" d="M112.88,-143.7C117.99,-135.56 124.2,-125.69 129.84,-116.7"/>
<polygon fill="black" stroke="black" points="132.89,-118.43 135.25,-108.1 126.96,-114.71 132.89,-118.43"/>
</g>
<!-- object -->
<g id="node7" class="node">
<title>object</title>
<g id="a_node7"><a xlink:href="PsyllaReference_Types.xhtml#PsyllaReference_Types_Details_object" xlink:title="object" target="_parent">
<polygon fill="linen" stroke="black" points="159,-396 99,-396 99,-360 165,-360 165,-390 159,-396"/>
<polyline fill="none" stroke="black" points="159,-396 159,-390 "/>
<polyline fill="none" stroke="black" points="165,-390 159,-390 "/>
<text text-anchor="middle" x="132" y="-374.3" font-family="Consolas, monospace" font-size="14.00">object</text>
</a>
</g>
</g>
<!-- object&#45;&gt;logical -->
<g id="edge6" class="edge">
<title>object&#45;&gt;logical</title>
<path fill="none" stroke="black" d="M108.52,-359.7C96.44,-350.8 81.55,-339.82 68.48,-330.2"/>
<polygon fill="black" stroke="black" points="70.34,-327.22 60.21,-324.1 66.19,-332.85 70.34,-327.22"/>
</g>
<!-- object&#45;&gt;scalar -->
<g id="edge9" class="edge">
<title>object&#45;&gt;scalar</title>
<path fill="none" stroke="black" d="M129.6,-359.85C124.41,-322.83 112.12,-235.18 105.84,-190.39"/>
<polygon fill="black" stroke="black" points="109.27,-189.65 104.42,-180.23 102.34,-190.62 109.27,-189.65"/>
</g>
<!-- atomic -->
<g id="node8" class="node">
<title>atomic</title>
<g id="a_node8"><a xlink:href="PsyllaReference_Types.xhtml#PsyllaReference_Types_Details_atomic" xlink:title="atomic" target="_parent">
<polygon fill="linen" stroke="black" points="190,-252 130,-252 130,-216 196,-216 196,-246 190,-252"/>
<polyline fill="none" stroke="black" points="190,-252 190,-246 "/>
<polyline fill="none" stroke="black" points="196,-246 190,-246 "/>
<text text-anchor="middle" x="163" y="-230.3" font-family="Consolas, monospace" font-size="14.00">atomic</text>
</a>
</g>
</g>
<!-- object&#45;&gt;atomic -->
<g id="edge10" class="edge">
<title>object&#45;&gt;atomic</title>
<path fill="none" stroke="black" d="M135.74,-359.87C141.05,-335.56 150.81,-290.82 157.1,-262.01"/>
<polygon fill="black" stroke="black" points="160.53,-262.71 159.25,-252.19 153.7,-261.21 160.53,-262.71"/>
</g>
<!-- additive -->
<g id="node10" class="node">
<title>additive</title>
<g id="a_node10"><a xlink:href="PsyllaReference_Types.xhtml#PsyllaReference_Types_Details_additive" xlink:title="additive" target="_parent">
<polygon fill="linen" stroke="black" points="272.5,-324 195.5,-324 195.5,-288 278.5,-288 278.5,-318 272.5,-324"/>
<polyline fill="none" stroke="black" points="272.5,-324 272.5,-318 "/>
<polyline fill="none" stroke="black" points="278.5,-318 272.5,-318 "/>
<text text-anchor="middle" x="237" y="-302.3" font-family="Consolas, monospace" font-size="14.00">additive</text>
</a>
</g>
</g>
<!-- object&#45;&gt;additive -->
<g id="edge12" class="edge">
<title>object&#45;&gt;additive</title>
<path fill="none" stroke="black" d="M157.69,-359.88C171.29,-350.81 188.17,-339.55 202.86,-329.76"/>
<polygon fill="black" stroke="black" points="204.84,-332.65 211.22,-324.19 200.95,-326.82 204.84,-332.65"/>
</g>
<!-- atomic&#45;&gt;numeric -->
<g id="edge7" class="edge">
<title>atomic&#45;&gt;numeric</title>
<path fill="none" stroke="black" d="M169.67,-215.7C172.71,-207.81 176.38,-198.3 179.76,-189.55"/>
<polygon fill="black" stroke="black" points="183.07,-190.69 183.4,-180.1 176.54,-188.17 183.07,-190.69"/>
</g>
<!-- arithmetic -->
<g id="node9" class="node">
<title>arithmetic</title>
<g id="a_node9"><a xlink:href="PsyllaReference_Types.xhtml#PsyllaReference_Types_Details_arithmetic" xlink:title="arithmetic" target="_parent">
<polygon fill="linen" stroke="black" points="307.5,-252 214.5,-252 214.5,-216 313.5,-216 313.5,-246 307.5,-252"/>
<polyline fill="none" stroke="black" points="307.5,-252 307.5,-246 "/>
<polyline fill="none" stroke="black" points="313.5,-246 307.5,-246 "/>
<text text-anchor="middle" x="264" y="-230.3" font-family="Consolas, monospace" font-size="14.00">arithmetic</text>
</a>
</g>
</g>
<!-- arithmetic&#45;&gt;numeric -->
<g id="edge8" class="edge">
<title>arithmetic&#45;&gt;numeric</title>
<path fill="none" stroke="black" d="M245.71,-215.7C236.57,-207.05 225.36,-196.45 215.4,-187.03"/>
<polygon fill="black" stroke="black" points="217.75,-184.43 208.08,-180.1 212.94,-189.52 217.75,-184.43"/>
</g>
<!-- additive&#45;&gt;arithmetic -->
<g id="edge11" class="edge">
<title>additive&#45;&gt;arithmetic</title>
<path fill="none" stroke="black" d="M243.67,-287.7C246.71,-279.81 250.38,-270.3 253.76,-261.55"/>
<polygon fill="black" stroke="black" points="257.07,-262.69 257.4,-252.1 250.54,-260.17 257.07,-262.69"/>
</g>
</g>
</svg>
