<?xml version="1.0" encoding="UTF-8" standalone="no"?>
<!DOCTYPE svg PUBLIC "-//W3C//DTD SVG 1.1//EN"
 "http://www.w3.org/Graphics/SVG/1.1/DTD/svg11.dtd">
<!-- Generated by graphviz version 2.43.0 (0)
 -->
<!-- Title: module Pages: 1 -->
<svg width="378pt" height="548pt"
 viewBox="0.00 0.00 378.00 548.00" xmlns="http://www.w3.org/2000/svg" xmlns:xlink="http://www.w3.org/1999/xlink">
<g id="graph0" class="graph" transform="scale(1 1) rotate(0) translate(4 544)">
<title>module</title>
<polygon fill="transparent" stroke="transparent" points="-4,4 -4,-544 374,-544 374,4 -4,4"/>
<!-- dict -->
<g id="node1" class="node">
<title>dict</title>
<g id="a_node1"><a xlink:href="PsyllaReference_Types.xhtml#PsyllaReference_Types_Details_dict" xlink:title="dict" target="_parent">
<polygon fill="linen" stroke="black" points="118.5,-108 70.5,-108 70.5,-72 124.5,-72 124.5,-102 118.5,-108"/>
<polyline fill="none" stroke="black" points="118.5,-108 118.5,-102 "/>
<polyline fill="none" stroke="black" points="124.5,-102 118.5,-102 "/>
<text text-anchor="middle" x="97.5" y="-86.9" font-family="Consolas, monospace" font-size="12.00">dict</text>
</a>
</g>
</g>
<!-- module -->
<g id="node2" class="node">
<title>module</title>
<g id="a_node2"><a xlink:href="PsyllaReference_Types.xhtml#PsyllaReference_Types_Details_module" xlink:title="module" target="_parent">
<polygon fill="wheat" stroke="black" points="122.5,-36 66.5,-36 66.5,0 128.5,0 128.5,-30 122.5,-36"/>
<polyline fill="none" stroke="black" points="122.5,-36 122.5,-30 "/>
<polyline fill="none" stroke="black" points="128.5,-30 122.5,-30 "/>
<text text-anchor="middle" x="97.5" y="-14.9" font-family="Consolas, monospace" font-size="12.00">module</text>
</a>
</g>
</g>
<!-- dict&#45;&gt;module -->
<g id="edge1" class="edge">
<title>dict&#45;&gt;module</title>
<path fill="none" stroke="black" d="M97.5,-71.7C97.5,-63.98 97.5,-54.71 97.5,-46.11"/>
<polygon fill="black" stroke="black" points="101,-46.1 97.5,-36.1 94,-46.1 101,-46.1"/>
</g>
<!-- formaldict -->
<g id="node3" class="node">
<title>formaldict</title>
<g id="a_node3"><a xlink:href="PsyllaReference_Types.xhtml#PsyllaReference_Types_Details_formaldict" xlink:title="formaldict" target="_parent">
<polygon fill="linen" stroke="black" points="137.5,-180 51.5,-180 51.5,-144 143.5,-144 143.5,-174 137.5,-180"/>
<polyline fill="none" stroke="black" points="137.5,-180 137.5,-174 "/>
<polyline fill="none" stroke="black" points="143.5,-174 137.5,-174 "/>
<text text-anchor="middle" x="97.5" y="-158.9" font-family="Consolas, monospace" font-size="12.00">formaldict</text>
</a>
</g>
</g>
<!-- formaldict&#45;&gt;dict -->
<g id="edge2" class="edge">
<title>formaldict&#45;&gt;dict</title>
<path fill="none" stroke="black" d="M97.5,-143.7C97.5,-135.98 97.5,-126.71 97.5,-118.11"/>
<polygon fill="black" stroke="black" points="101,-118.1 97.5,-108.1 94,-118.1 101,-118.1"/>
</g>
<!-- container -->
<g id="node4" class="node">
<title>container</title>
<g id="a_node4"><a xlink:href="PsyllaReference_Types.xhtml#PsyllaReference_Types_Details_container" xlink:title="container" target="_parent">
<polygon fill="linen" stroke="black" points="264.5,-252 186.5,-252 186.5,-216 270.5,-216 270.5,-246 264.5,-252"/>
<polyline fill="none" stroke="black" points="264.5,-252 264.5,-246 "/>
<polyline fill="none" stroke="black" points="270.5,-246 264.5,-246 "/>
<text text-anchor="middle" x="228.5" y="-230.9" font-family="Consolas, monospace" font-size="12.00">container</text>
</a>
</g>
</g>
<!-- container&#45;&gt;formaldict -->
<g id="edge3" class="edge">
<title>container&#45;&gt;formaldict</title>
<path fill="none" stroke="black" d="M196.45,-215.88C179.01,-206.55 157.23,-194.92 138.56,-184.94"/>
<polygon fill="black" stroke="black" points="140.14,-181.82 129.67,-180.19 136.84,-187.99 140.14,-181.82"/>
</g>
<!-- indexed -->
<g id="node5" class="node">
<title>indexed</title>
<g id="a_node5"><a xlink:href="PsyllaReference_Types.xhtml#PsyllaReference_Types_Details_indexed" xlink:title="indexed" target="_parent">
<polygon fill="linen" stroke="black" points="63,-324 0,-324 0,-288 69,-288 69,-318 63,-324"/>
<polyline fill="none" stroke="black" points="63,-324 63,-318 "/>
<polyline fill="none" stroke="black" points="69,-318 63,-318 "/>
<text text-anchor="middle" x="34.5" y="-302.9" font-family="Consolas, monospace" font-size="12.00">indexed</text>
</a>
</g>
</g>
<!-- indexed&#45;&gt;formaldict -->
<g id="edge4" class="edge">
<title>indexed&#45;&gt;formaldict</title>
<path fill="none" stroke="black" d="M42.1,-287.87C52.93,-263.46 72.91,-218.43 85.68,-189.64"/>
<polygon fill="black" stroke="black" points="89.02,-190.75 89.87,-180.19 82.62,-187.91 89.02,-190.75"/>
</g>
<!-- sequential -->
<g id="node6" class="node">
<title>sequential</title>
<g id="a_node6"><a xlink:href="PsyllaReference_Types.xhtml#PsyllaReference_Types_Details_sequential" xlink:title="sequential" target="_parent">
<polygon fill="linen" stroke="black" points="211.5,-468 125.5,-468 125.5,-432 217.5,-432 217.5,-462 211.5,-468"/>
<polyline fill="none" stroke="black" points="211.5,-468 211.5,-462 "/>
<polyline fill="none" stroke="black" points="217.5,-462 211.5,-462 "/>
<text text-anchor="middle" x="171.5" y="-446.9" font-family="Consolas, monospace" font-size="12.00">sequential</text>
</a>
</g>
</g>
<!-- sequential&#45;&gt;formaldict -->
<g id="edge5" class="edge">
<title>sequential&#45;&gt;formaldict</title>
<path fill="none" stroke="black" d="M146.91,-431.96C135.62,-422.71 123.26,-410.26 116.5,-396 84.14,-327.73 88.79,-235.55 93.74,-190.32"/>
<polygon fill="black" stroke="black" points="97.25,-190.48 94.95,-180.14 90.3,-189.65 97.25,-190.48"/>
</g>
<!-- streamable -->
<g id="node11" class="node">
<title>streamable</title>
<g id="a_node11"><a xlink:href="PsyllaReference_Types.xhtml#PsyllaReference_Types_Details_streamable" xlink:title="streamable" target="_parent">
<polygon fill="linen" stroke="black" points="211.5,-396 125.5,-396 125.5,-360 217.5,-360 217.5,-390 211.5,-396"/>
<polyline fill="none" stroke="black" points="211.5,-396 211.5,-390 "/>
<polyline fill="none" stroke="black" points="217.5,-390 211.5,-390 "/>
<text text-anchor="middle" x="171.5" y="-374.9" font-family="Consolas, monospace" font-size="12.00">streamable</text>
</a>
</g>
</g>
<!-- sequential&#45;&gt;streamable -->
<g id="edge14" class="edge">
<title>sequential&#45;&gt;streamable</title>
<path fill="none" stroke="black" d="M171.5,-431.7C171.5,-423.98 171.5,-414.71 171.5,-406.11"/>
<polygon fill="black" stroke="black" points="175,-406.1 171.5,-396.1 168,-406.1 175,-406.1"/>
</g>
<!-- clearable -->
<g id="node7" class="node">
<title>clearable</title>
<g id="a_node7"><a xlink:href="PsyllaReference_Types.xhtml#PsyllaReference_Types_Details_clearable" xlink:title="clearable" target="_parent">
<polygon fill="linen" stroke="black" points="313.5,-396 235.5,-396 235.5,-360 319.5,-360 319.5,-390 313.5,-396"/>
<polyline fill="none" stroke="black" points="313.5,-396 313.5,-390 "/>
<polyline fill="none" stroke="black" points="319.5,-390 313.5,-390 "/>
<text text-anchor="middle" x="277.5" y="-374.9" font-family="Consolas, monospace" font-size="12.00">clearable</text>
</a>
</g>
</g>
<!-- clearable&#45;&gt;container -->
<g id="edge6" class="edge">
<title>clearable&#45;&gt;container</title>
<path fill="none" stroke="black" d="M271.59,-359.87C263.2,-335.56 247.76,-290.82 237.82,-262.01"/>
<polygon fill="black" stroke="black" points="241,-260.5 234.43,-252.19 234.38,-262.78 241,-260.5"/>
</g>
<!-- iterable -->
<g id="node8" class="node">
<title>iterable</title>
<g id="a_node8"><a xlink:href="PsyllaReference_Types.xhtml#PsyllaReference_Types_Details_iterable" xlink:title="iterable" target="_parent">
<polygon fill="linen" stroke="black" points="223,-324 152,-324 152,-288 229,-288 229,-318 223,-324"/>
<polyline fill="none" stroke="black" points="223,-324 223,-318 "/>
<polyline fill="none" stroke="black" points="229,-318 223,-318 "/>
<text text-anchor="middle" x="190.5" y="-302.9" font-family="Consolas, monospace" font-size="12.00">iterable</text>
</a>
</g>
</g>
<!-- iterable&#45;&gt;container -->
<g id="edge7" class="edge">
<title>iterable&#45;&gt;container</title>
<path fill="none" stroke="black" d="M199.89,-287.7C204.26,-279.64 209.56,-269.89 214.4,-260.98"/>
<polygon fill="black" stroke="black" points="217.52,-262.56 219.21,-252.1 211.37,-259.22 217.52,-262.56"/>
</g>
<!-- lengthy -->
<g id="node9" class="node">
<title>lengthy</title>
<g id="a_node9"><a xlink:href="PsyllaReference_Types.xhtml#PsyllaReference_Types_Details_lengthy" xlink:title="lengthy" target="_parent">
<polygon fill="linen" stroke="black" points="364,-468 301,-468 301,-432 370,-432 370,-462 364,-468"/>
<polyline fill="none" stroke="black" points="364,-468 364,-462 "/>
<polyline fill="none" stroke="black" points="370,-462 364,-462 "/>
<text text-anchor="middle" x="335.5" y="-446.9" font-family="Consolas, monospace" font-size="12.00">lengthy</text>
</a>
</g>
</g>
<!-- lengthy&#45;&gt;container -->
<g id="edge8" class="edge">
<title>lengthy&#45;&gt;container</title>
<path fill="none" stroke="black" d="M337.06,-431.94C338.09,-413.51 337.85,-383.64 328.5,-360 312.64,-319.89 279.25,-282.47 255.42,-259.22"/>
<polygon fill="black" stroke="black" points="257.7,-256.56 248.06,-252.19 252.87,-261.62 257.7,-256.56"/>
</g>
<!-- object -->
<g id="node10" class="node">
<title>object</title>
<g id="a_node10"><a xlink:href="PsyllaReference_Types.xhtml#PsyllaReference_Types_Details_object" xlink:title="object" target="_parent">
<polygon fill="linen" stroke="black" points="233.5,-540 177.5,-540 177.5,-504 239.5,-504 239.5,-534 233.5,-540"/>
<polyline fill="none" stroke="black" points="233.5,-540 233.5,-534 "/>
<polyline fill="none" stroke="black" points="239.5,-534 233.5,-534 "/>
<text text-anchor="middle" x="208.5" y="-518.9" font-family="Consolas, monospace" font-size="12.00">object</text>
</a>
</g>
</g>
<!-- object&#45;&gt;indexed -->
<g id="edge9" class="edge">
<title>object&#45;&gt;indexed</title>
<path fill="none" stroke="black" d="M177.32,-508.56C157.92,-499.59 133.51,-485.91 116.5,-468 79.01,-428.53 54.67,-368.58 42.87,-334.06"/>
<polygon fill="black" stroke="black" points="46.08,-332.61 39.62,-324.22 39.43,-334.81 46.08,-332.61"/>
</g>
<!-- object&#45;&gt;sequential -->
<g id="edge10" class="edge">
<title>object&#45;&gt;sequential</title>
<path fill="none" stroke="black" d="M199.35,-503.7C195.1,-495.64 189.94,-485.89 185.23,-476.98"/>
<polygon fill="black" stroke="black" points="188.31,-475.31 180.54,-468.1 182.12,-478.58 188.31,-475.31"/>
</g>
<!-- object&#45;&gt;clearable -->
<g id="edge11" class="edge">
<title>object&#45;&gt;clearable</title>
<path fill="none" stroke="black" d="M216.82,-503.87C228.74,-479.35 250.76,-434.03 264.74,-405.26"/>
<polygon fill="black" stroke="black" points="267.92,-406.71 269.15,-396.19 261.63,-403.65 267.92,-406.71"/>
</g>
<!-- object&#45;&gt;lengthy -->
<g id="edge13" class="edge">
<title>object&#45;&gt;lengthy</title>
<path fill="none" stroke="black" d="M239.57,-503.88C256.33,-494.64 277.21,-483.13 295.2,-473.21"/>
<polygon fill="black" stroke="black" points="297.24,-476.08 304.31,-468.19 293.87,-469.95 297.24,-476.08"/>
</g>
<!-- streamable&#45;&gt;iterable -->
<g id="edge12" class="edge">
<title>streamable&#45;&gt;iterable</title>
<path fill="none" stroke="black" d="M176.2,-359.7C178.31,-351.9 180.86,-342.51 183.22,-333.83"/>
<polygon fill="black" stroke="black" points="186.62,-334.67 185.86,-324.1 179.86,-332.84 186.62,-334.67"/>
</g>
</g>
</svg>
