<?xml version="1.0" encoding="UTF-8" standalone="no"?>
<!DOCTYPE svg PUBLIC "-//W3C//DTD SVG 1.1//EN"
 "http://www.w3.org/Graphics/SVG/1.1/DTD/svg11.dtd">
<!-- Generated by graphviz version 2.49.3 (0)
 -->
<!-- Title: convertabletointegral Pages: 1 -->
<svg width="126pt" height="116pt"
 viewBox="0.00 0.00 125.96 116.00" xmlns="http://www.w3.org/2000/svg" xmlns:xlink="http://www.w3.org/1999/xlink">
<g id="graph0" class="graph" transform="scale(1 1) rotate(0) translate(4 112)">
<title>convertabletointegral</title>
<polygon fill="transparent" stroke="transparent" points="-4,4 -4,-112 121.96,-112 121.96,4 -4,4"/>
<!-- object -->
<g id="node1" class="node">
<title>object</title>
<g id="a_node1"><a xlink:href="PsyllaReference_Types.xhtml#PsyllaReference_Types_Details_object" xlink:title="object" target="_parent">
<polygon fill="linen" stroke="black" points="79.98,-108 31.98,-108 31.98,-72 85.98,-72 85.98,-102 79.98,-108"/>
<polyline fill="none" stroke="black" points="79.98,-108 79.98,-102 "/>
<polyline fill="none" stroke="black" points="85.98,-102 79.98,-102 "/>
<text text-anchor="middle" x="58.98" y="-86.4" font-family="Source Code Pro,monospace" font-size="12.00">object</text>
</a>
</g>
</g>
<!-- convertabletointegral -->
<g id="node2" class="node">
<title>convertabletointegral</title>
<g id="a_node2"><a xlink:href="PsyllaReference_Types.xhtml#PsyllaReference_Types_Details_convertabletointegral" xlink:title="convertabletointegral" target="_parent">
<polygon fill="wheat" stroke="black" points="111.94,-36 0.02,-36 0.02,0 117.94,0 117.94,-30 111.94,-36"/>
<polyline fill="none" stroke="black" points="111.94,-36 111.94,-30 "/>
<polyline fill="none" stroke="black" points="117.94,-30 111.94,-30 "/>
<text text-anchor="middle" x="58.98" y="-14.4" font-family="Source Code Pro,monospace" font-size="12.00">convertabletointegral</text>
</a>
</g>
</g>
<!-- object&#45;&gt;convertabletointegral -->
<g id="edge1" class="edge">
<title>object&#45;&gt;convertabletointegral</title>
<path fill="none" stroke="black" d="M58.98,-71.7C58.98,-63.98 58.98,-54.71 58.98,-46.11"/>
<polygon fill="black" stroke="black" points="62.48,-46.1 58.98,-36.1 55.48,-46.1 62.48,-46.1"/>
</g>
</g>
</svg>
