<?xml version="1.0" encoding="UTF-8" standalone="no"?>
<!DOCTYPE svg PUBLIC "-//W3C//DTD SVG 1.1//EN"
 "http://www.w3.org/Graphics/SVG/1.1/DTD/svg11.dtd">
<!-- Generated by graphviz version 2.43.0 (0)
 -->
<!-- Title: readable Pages: 1 -->
<svg width="73pt" height="188pt"
 viewBox="0.00 0.00 73.00 188.00" xmlns="http://www.w3.org/2000/svg" xmlns:xlink="http://www.w3.org/1999/xlink">
<g id="graph0" class="graph" transform="scale(1 1) rotate(0) translate(4 184)">
<title>readable</title>
<polygon fill="transparent" stroke="transparent" points="-4,4 -4,-184 69,-184 69,4 -4,4"/>
<!-- ready -->
<g id="node1" class="node">
<title>ready</title>
<g id="a_node1"><a xlink:href="PsyllaReference_Types.xhtml#PsyllaReference_Types_Details_ready" xlink:title="ready" target="_parent">
<polygon fill="linen" stroke="black" points="53.5,-108 5.5,-108 5.5,-72 59.5,-72 59.5,-102 53.5,-108"/>
<polyline fill="none" stroke="black" points="53.5,-108 53.5,-102 "/>
<polyline fill="none" stroke="black" points="59.5,-102 53.5,-102 "/>
<text text-anchor="middle" x="32.5" y="-87.5" font-family="PT Mono, monospace" font-size="10.00">ready</text>
</a>
</g>
</g>
<!-- readable -->
<g id="node2" class="node">
<title>readable</title>
<g id="a_node2"><a xlink:href="PsyllaReference_Types.xhtml#PsyllaReference_Types_Details_readable" xlink:title="readable" target="_parent">
<polygon fill="wheat" stroke="black" points="59,-36 0,-36 0,0 65,0 65,-30 59,-36"/>
<polyline fill="none" stroke="black" points="59,-36 59,-30 "/>
<polyline fill="none" stroke="black" points="65,-30 59,-30 "/>
<text text-anchor="middle" x="32.5" y="-15.5" font-family="PT Mono, monospace" font-size="10.00">readable</text>
</a>
</g>
</g>
<!-- ready&#45;&gt;readable -->
<g id="edge1" class="edge">
<title>ready&#45;&gt;readable</title>
<path fill="none" stroke="black" d="M32.5,-71.7C32.5,-63.98 32.5,-54.71 32.5,-46.11"/>
<polygon fill="black" stroke="black" points="36,-46.1 32.5,-36.1 29,-46.1 36,-46.1"/>
</g>
<!-- object -->
<g id="node3" class="node">
<title>object</title>
<g id="a_node3"><a xlink:href="PsyllaReference_Types.xhtml#PsyllaReference_Types_Details_object" xlink:title="object" target="_parent">
<polygon fill="linen" stroke="black" points="53.5,-180 5.5,-180 5.5,-144 59.5,-144 59.5,-174 53.5,-180"/>
<polyline fill="none" stroke="black" points="53.5,-180 53.5,-174 "/>
<polyline fill="none" stroke="black" points="59.5,-174 53.5,-174 "/>
<text text-anchor="middle" x="32.5" y="-159.5" font-family="PT Mono, monospace" font-size="10.00">object</text>
</a>
</g>
</g>
<!-- object&#45;&gt;ready -->
<g id="edge2" class="edge">
<title>object&#45;&gt;ready</title>
<path fill="none" stroke="black" d="M32.5,-143.7C32.5,-135.98 32.5,-126.71 32.5,-118.11"/>
<polygon fill="black" stroke="black" points="36,-118.1 32.5,-108.1 29,-118.1 36,-118.1"/>
</g>
</g>
</svg>
