<?xml version="1.0" encoding="UTF-8" standalone="no"?>
<!DOCTYPE svg PUBLIC "-//W3C//DTD SVG 1.1//EN"
 "http://www.w3.org/Graphics/SVG/1.1/DTD/svg11.dtd">
<!-- Generated by graphviz version 2.49.3 (0)
 -->
<!-- Title: blockingqueue Pages: 1 -->
<svg width="267pt" height="476pt"
 viewBox="0.00 0.00 266.65 476.00" xmlns="http://www.w3.org/2000/svg" xmlns:xlink="http://www.w3.org/1999/xlink">
<g id="graph0" class="graph" transform="scale(1 1) rotate(0) translate(4 472)">
<title>blockingqueue</title>
<polygon fill="transparent" stroke="transparent" points="-4,4 -4,-472 262.65,-472 262.65,4 -4,4"/>
<!-- formalqueue -->
<g id="node1" class="node">
<title>formalqueue</title>
<g id="a_node1"><a xlink:href="PsyllaReference_Types.xhtml#PsyllaReference_Types_Details_formalqueue" xlink:title="formalqueue" target="_parent">
<polygon fill="linen" stroke="black" points="128.46,-108 58.18,-108 58.18,-72 134.46,-72 134.46,-102 128.46,-108"/>
<polyline fill="none" stroke="black" points="128.46,-108 128.46,-102 "/>
<polyline fill="none" stroke="black" points="134.46,-102 128.46,-102 "/>
<text text-anchor="middle" x="96.32" y="-86.4" font-family="Source Code Pro,monospace" font-size="12.00">formalqueue</text>
</a>
</g>
</g>
<!-- blockingqueue -->
<g id="node3" class="node">
<title>blockingqueue</title>
<g id="a_node3"><a xlink:href="PsyllaReference_Types.xhtml#PsyllaReference_Types_Details_blockingqueue" xlink:title="blockingqueue" target="_parent">
<polygon fill="wheat" stroke="black" points="100.47,-36 20.17,-36 20.17,0 106.47,0 106.47,-30 100.47,-36"/>
<polyline fill="none" stroke="black" points="100.47,-36 100.47,-30 "/>
<polyline fill="none" stroke="black" points="106.47,-30 100.47,-30 "/>
<text text-anchor="middle" x="63.32" y="-14.4" font-family="Source Code Pro,monospace" font-size="12.00">blockingqueue</text>
</a>
</g>
</g>
<!-- formalqueue&#45;&gt;blockingqueue -->
<g id="edge1" class="edge">
<title>formalqueue&#45;&gt;blockingqueue</title>
<path fill="none" stroke="black" d="M88.16,-71.7C84.41,-63.73 79.87,-54.1 75.7,-45.26"/>
<polygon fill="black" stroke="black" points="78.82,-43.66 71.39,-36.1 72.48,-46.64 78.82,-43.66"/>
</g>
<!-- closeable -->
<g id="node2" class="node">
<title>closeable</title>
<g id="a_node2"><a xlink:href="PsyllaReference_Types.xhtml#PsyllaReference_Types_Details_closeable" xlink:title="closeable" target="_parent">
<polygon fill="linen" stroke="black" points="54.47,-324 0.18,-324 0.18,-288 60.47,-288 60.47,-318 54.47,-324"/>
<polyline fill="none" stroke="black" points="54.47,-324 54.47,-318 "/>
<polyline fill="none" stroke="black" points="60.47,-318 54.47,-318 "/>
<text text-anchor="middle" x="30.32" y="-302.4" font-family="Source Code Pro,monospace" font-size="12.00">closeable</text>
</a>
</g>
</g>
<!-- closeable&#45;&gt;blockingqueue -->
<g id="edge2" class="edge">
<title>closeable&#45;&gt;blockingqueue</title>
<path fill="none" stroke="black" d="M30.68,-287.91C31.72,-249.21 35.6,-152 49.32,-72 50.81,-63.33 53.05,-54.01 55.3,-45.65"/>
<polygon fill="black" stroke="black" points="58.67,-46.59 58.01,-36.02 51.93,-44.7 58.67,-46.59"/>
</g>
<!-- bounded -->
<g id="node4" class="node">
<title>bounded</title>
<g id="a_node4"><a xlink:href="PsyllaReference_Types.xhtml#PsyllaReference_Types_Details_bounded" xlink:title="bounded" target="_parent">
<polygon fill="linen" stroke="black" points="111.15,-180 59.49,-180 59.49,-144 117.15,-144 117.15,-174 111.15,-180"/>
<polyline fill="none" stroke="black" points="111.15,-180 111.15,-174 "/>
<polyline fill="none" stroke="black" points="117.15,-174 111.15,-174 "/>
<text text-anchor="middle" x="88.32" y="-158.4" font-family="Source Code Pro,monospace" font-size="12.00">bounded</text>
</a>
</g>
</g>
<!-- bounded&#45;&gt;formalqueue -->
<g id="edge3" class="edge">
<title>bounded&#45;&gt;formalqueue</title>
<path fill="none" stroke="black" d="M90.3,-143.7C91.18,-135.98 92.24,-126.71 93.22,-118.11"/>
<polygon fill="black" stroke="black" points="96.71,-118.44 94.37,-108.1 89.75,-117.64 96.71,-118.44"/>
</g>
<!-- container -->
<g id="node5" class="node">
<title>container</title>
<g id="a_node5"><a xlink:href="PsyllaReference_Types.xhtml#PsyllaReference_Types_Details_container" xlink:title="container" target="_parent">
<polygon fill="linen" stroke="black" points="189.47,-180 135.18,-180 135.18,-144 195.47,-144 195.47,-174 189.47,-180"/>
<polyline fill="none" stroke="black" points="189.47,-180 189.47,-174 "/>
<polyline fill="none" stroke="black" points="195.47,-174 189.47,-174 "/>
<text text-anchor="middle" x="165.32" y="-158.4" font-family="Source Code Pro,monospace" font-size="12.00">container</text>
</a>
</g>
</g>
<!-- container&#45;&gt;formalqueue -->
<g id="edge4" class="edge">
<title>container&#45;&gt;formalqueue</title>
<path fill="none" stroke="black" d="M148.27,-143.7C139.83,-135.14 129.5,-124.66 120.28,-115.3"/>
<polygon fill="black" stroke="black" points="122.69,-112.77 113.18,-108.1 117.71,-117.68 122.69,-112.77"/>
</g>
<!-- object -->
<g id="node6" class="node">
<title>object</title>
<g id="a_node6"><a xlink:href="PsyllaReference_Types.xhtml#PsyllaReference_Types_Details_object" xlink:title="object" target="_parent">
<polygon fill="linen" stroke="black" points="138.32,-468 90.32,-468 90.32,-432 144.32,-432 144.32,-462 138.32,-468"/>
<polyline fill="none" stroke="black" points="138.32,-468 138.32,-462 "/>
<polyline fill="none" stroke="black" points="144.32,-462 138.32,-462 "/>
<text text-anchor="middle" x="117.32" y="-446.4" font-family="Source Code Pro,monospace" font-size="12.00">object</text>
</a>
</g>
</g>
<!-- object&#45;&gt;closeable -->
<g id="edge5" class="edge">
<title>object&#45;&gt;closeable</title>
<path fill="none" stroke="black" d="M101.55,-431.6C92.93,-421.6 82.38,-408.57 74.32,-396 61.44,-375.92 49.63,-351.55 41.5,-333.39"/>
<polygon fill="black" stroke="black" points="44.6,-331.75 37.37,-324 38.19,-334.57 44.6,-331.75"/>
</g>
<!-- lengthy -->
<g id="node7" class="node">
<title>lengthy</title>
<g id="a_node7"><a xlink:href="PsyllaReference_Types.xhtml#PsyllaReference_Types_Details_lengthy" xlink:title="lengthy" target="_parent">
<polygon fill="linen" stroke="black" points="109.32,-252 61.32,-252 61.32,-216 115.32,-216 115.32,-246 109.32,-252"/>
<polyline fill="none" stroke="black" points="109.32,-252 109.32,-246 "/>
<polyline fill="none" stroke="black" points="115.32,-246 109.32,-246 "/>
<text text-anchor="middle" x="88.32" y="-230.4" font-family="Source Code Pro,monospace" font-size="12.00">lengthy</text>
</a>
</g>
</g>
<!-- object&#45;&gt;lengthy -->
<g id="edge10" class="edge">
<title>object&#45;&gt;lengthy</title>
<path fill="none" stroke="black" d="M113.78,-431.87C111.71,-421.51 109.16,-408.03 107.32,-396 100.16,-349.26 94.22,-294.52 90.98,-262.42"/>
<polygon fill="black" stroke="black" points="94.46,-262.05 89.98,-252.45 87.49,-262.74 94.46,-262.05"/>
</g>
<!-- clearable -->
<g id="node8" class="node">
<title>clearable</title>
<g id="a_node8"><a xlink:href="PsyllaReference_Types.xhtml#PsyllaReference_Types_Details_clearable" xlink:title="clearable" target="_parent">
<polygon fill="linen" stroke="black" points="170.12,-396 116.52,-396 116.52,-360 176.12,-360 176.12,-390 170.12,-396"/>
<polyline fill="none" stroke="black" points="170.12,-396 170.12,-390 "/>
<polyline fill="none" stroke="black" points="176.12,-390 170.12,-390 "/>
<text text-anchor="middle" x="146.32" y="-374.4" font-family="Source Code Pro,monospace" font-size="12.00">clearable</text>
</a>
</g>
</g>
<!-- object&#45;&gt;clearable -->
<g id="edge11" class="edge">
<title>object&#45;&gt;clearable</title>
<path fill="none" stroke="black" d="M124.49,-431.7C127.76,-423.81 131.7,-414.3 135.32,-405.55"/>
<polygon fill="black" stroke="black" points="138.64,-406.68 139.24,-396.1 132.17,-404 138.64,-406.68"/>
</g>
<!-- sequential -->
<g id="node11" class="node">
<title>sequential</title>
<g id="a_node11"><a xlink:href="PsyllaReference_Types.xhtml#PsyllaReference_Types_Details_sequential" xlink:title="sequential" target="_parent">
<polygon fill="linen" stroke="black" points="252.47,-396 194.17,-396 194.17,-360 258.47,-360 258.47,-390 252.47,-396"/>
<polyline fill="none" stroke="black" points="252.47,-396 252.47,-390 "/>
<polyline fill="none" stroke="black" points="258.47,-390 252.47,-390 "/>
<text text-anchor="middle" x="226.32" y="-374.4" font-family="Source Code Pro,monospace" font-size="12.00">sequential</text>
</a>
</g>
</g>
<!-- object&#45;&gt;sequential -->
<g id="edge14" class="edge">
<title>object&#45;&gt;sequential</title>
<path fill="none" stroke="black" d="M143.99,-431.88C158.11,-422.81 175.63,-411.55 190.88,-401.76"/>
<polygon fill="black" stroke="black" points="193.03,-404.54 199.55,-396.19 189.25,-398.65 193.03,-404.54"/>
</g>
<!-- lengthy&#45;&gt;bounded -->
<g id="edge6" class="edge">
<title>lengthy&#45;&gt;bounded</title>
<path fill="none" stroke="black" d="M88.32,-215.7C88.32,-207.98 88.32,-198.71 88.32,-190.11"/>
<polygon fill="black" stroke="black" points="91.82,-190.1 88.32,-180.1 84.82,-190.1 91.82,-190.1"/>
</g>
<!-- lengthy&#45;&gt;container -->
<g id="edge9" class="edge">
<title>lengthy&#45;&gt;container</title>
<path fill="none" stroke="black" d="M107.36,-215.7C116.87,-207.05 128.53,-196.45 138.89,-187.03"/>
<polygon fill="black" stroke="black" points="141.46,-189.42 146.51,-180.1 136.75,-184.24 141.46,-189.42"/>
</g>
<!-- clearable&#45;&gt;container -->
<g id="edge7" class="edge">
<title>clearable&#45;&gt;container</title>
<path fill="none" stroke="black" d="M147.84,-359.85C151.13,-322.83 158.91,-235.18 162.89,-190.39"/>
<polygon fill="black" stroke="black" points="166.39,-190.5 163.79,-180.23 159.42,-189.88 166.39,-190.5"/>
</g>
<!-- iterable -->
<g id="node9" class="node">
<title>iterable</title>
<g id="a_node9"><a xlink:href="PsyllaReference_Types.xhtml#PsyllaReference_Types_Details_iterable" xlink:title="iterable" target="_parent">
<polygon fill="linen" stroke="black" points="237.32,-252 189.32,-252 189.32,-216 243.32,-216 243.32,-246 237.32,-252"/>
<polyline fill="none" stroke="black" points="237.32,-252 237.32,-246 "/>
<polyline fill="none" stroke="black" points="243.32,-246 237.32,-246 "/>
<text text-anchor="middle" x="216.32" y="-230.4" font-family="Source Code Pro,monospace" font-size="12.00">iterable</text>
</a>
</g>
</g>
<!-- iterable&#45;&gt;container -->
<g id="edge8" class="edge">
<title>iterable&#45;&gt;container</title>
<path fill="none" stroke="black" d="M203.72,-215.7C197.72,-207.47 190.45,-197.48 183.84,-188.42"/>
<polygon fill="black" stroke="black" points="186.5,-186.13 177.78,-180.1 180.84,-190.25 186.5,-186.13"/>
</g>
<!-- streamable -->
<g id="node10" class="node">
<title>streamable</title>
<g id="a_node10"><a xlink:href="PsyllaReference_Types.xhtml#PsyllaReference_Types_Details_streamable" xlink:title="streamable" target="_parent">
<polygon fill="linen" stroke="black" points="249.3,-324 187.35,-324 187.35,-288 255.3,-288 255.3,-318 249.3,-324"/>
<polyline fill="none" stroke="black" points="249.3,-324 249.3,-318 "/>
<polyline fill="none" stroke="black" points="255.3,-318 249.3,-318 "/>
<text text-anchor="middle" x="221.32" y="-302.4" font-family="Source Code Pro,monospace" font-size="12.00">streamable</text>
</a>
</g>
</g>
<!-- streamable&#45;&gt;iterable -->
<g id="edge12" class="edge">
<title>streamable&#45;&gt;iterable</title>
<path fill="none" stroke="black" d="M220.09,-287.7C219.53,-279.98 218.87,-270.71 218.26,-262.11"/>
<polygon fill="black" stroke="black" points="221.75,-261.83 217.54,-252.1 214.76,-262.33 221.75,-261.83"/>
</g>
<!-- sequential&#45;&gt;streamable -->
<g id="edge13" class="edge">
<title>sequential&#45;&gt;streamable</title>
<path fill="none" stroke="black" d="M225.09,-359.7C224.53,-351.98 223.87,-342.71 223.26,-334.11"/>
<polygon fill="black" stroke="black" points="226.75,-333.83 222.54,-324.1 219.76,-334.33 226.75,-333.83"/>
</g>
</g>
</svg>
