<?xml version="1.0" encoding="UTF-8" standalone="no"?>
<!DOCTYPE svg PUBLIC "-//W3C//DTD SVG 1.1//EN"
 "http://www.w3.org/Graphics/SVG/1.1/DTD/svg11.dtd">
<!-- Generated by graphviz version 2.43.0 (0)
 -->
<!-- Title: container Pages: 1 -->
<svg width="339pt" height="332pt"
 viewBox="0.00 0.00 339.00 332.00" xmlns="http://www.w3.org/2000/svg" xmlns:xlink="http://www.w3.org/1999/xlink">
<g id="graph0" class="graph" transform="scale(1 1) rotate(0) translate(4 328)">
<title>container</title>
<polygon fill="transparent" stroke="transparent" points="-4,4 -4,-328 335,-328 335,4 -4,4"/>
<!-- clearable -->
<g id="node1" class="node">
<title>clearable</title>
<g id="a_node1"><a xlink:href="PsyllaReference_Types.xhtml#PsyllaReference_Types_Details_clearable" xlink:title="clearable" target="_parent">
<polygon fill="linen" stroke="black" points="119,-180 0,-180 0,-144 125,-144 125,-174 119,-180"/>
<polyline fill="none" stroke="black" points="119,-180 119,-174 "/>
<polyline fill="none" stroke="black" points="125,-174 119,-174 "/>
<text text-anchor="middle" x="62.5" y="-157" font-family="PT Mono, monospace" font-size="20.00">clearable</text>
</a>
</g>
</g>
<!-- container -->
<g id="node4" class="node">
<title>container</title>
<g id="a_node4"><a xlink:href="PsyllaReference_Types.xhtml#PsyllaReference_Types_Details_container" xlink:title="container" target="_parent">
<polygon fill="wheat" stroke="black" points="198,-36 79,-36 79,0 204,0 204,-30 198,-36"/>
<polyline fill="none" stroke="black" points="198,-36 198,-30 "/>
<polyline fill="none" stroke="black" points="204,-30 198,-30 "/>
<text text-anchor="middle" x="141.5" y="-13" font-family="PT Mono, monospace" font-size="20.00">container</text>
</a>
</g>
</g>
<!-- clearable&#45;&gt;container -->
<g id="edge1" class="edge">
<title>clearable&#45;&gt;container</title>
<path fill="none" stroke="black" d="M63.01,-143.79C64.26,-124.97 68.35,-94.51 81.5,-72 88.08,-60.73 97.91,-50.6 107.71,-42.29"/>
<polygon fill="black" stroke="black" points="109.91,-45.01 115.51,-36.02 105.52,-39.56 109.91,-45.01"/>
</g>
<!-- iterable -->
<g id="node2" class="node">
<title>iterable</title>
<g id="a_node2"><a xlink:href="PsyllaReference_Types.xhtml#PsyllaReference_Types_Details_iterable" xlink:title="iterable" target="_parent">
<polygon fill="linen" stroke="black" points="317,-108 210,-108 210,-72 323,-72 323,-102 317,-108"/>
<polyline fill="none" stroke="black" points="317,-108 317,-102 "/>
<polyline fill="none" stroke="black" points="323,-102 317,-102 "/>
<text text-anchor="middle" x="266.5" y="-85" font-family="PT Mono, monospace" font-size="20.00">iterable</text>
</a>
</g>
</g>
<!-- iterable&#45;&gt;container -->
<g id="edge2" class="edge">
<title>iterable&#45;&gt;container</title>
<path fill="none" stroke="black" d="M235.92,-71.88C219.43,-62.64 198.88,-51.13 181.16,-41.21"/>
<polygon fill="black" stroke="black" points="182.63,-38.02 172.2,-36.19 179.21,-44.13 182.63,-38.02"/>
</g>
<!-- lengthy -->
<g id="node3" class="node">
<title>lengthy</title>
<g id="a_node3"><a xlink:href="PsyllaReference_Types.xhtml#PsyllaReference_Types_Details_lengthy" xlink:title="lengthy" target="_parent">
<polygon fill="linen" stroke="black" points="186,-108 91,-108 91,-72 192,-72 192,-102 186,-108"/>
<polyline fill="none" stroke="black" points="186,-108 186,-102 "/>
<polyline fill="none" stroke="black" points="192,-102 186,-102 "/>
<text text-anchor="middle" x="141.5" y="-85" font-family="PT Mono, monospace" font-size="20.00">lengthy</text>
</a>
</g>
</g>
<!-- lengthy&#45;&gt;container -->
<g id="edge3" class="edge">
<title>lengthy&#45;&gt;container</title>
<path fill="none" stroke="black" d="M141.5,-71.7C141.5,-63.98 141.5,-54.71 141.5,-46.11"/>
<polygon fill="black" stroke="black" points="145,-46.1 141.5,-36.1 138,-46.1 145,-46.1"/>
</g>
<!-- object -->
<g id="node5" class="node">
<title>object</title>
<g id="a_node5"><a xlink:href="PsyllaReference_Types.xhtml#PsyllaReference_Types_Details_object" xlink:title="object" target="_parent">
<polygon fill="linen" stroke="black" points="192,-324 109,-324 109,-288 198,-288 198,-318 192,-324"/>
<polyline fill="none" stroke="black" points="192,-324 192,-318 "/>
<polyline fill="none" stroke="black" points="198,-318 192,-318 "/>
<text text-anchor="middle" x="153.5" y="-301" font-family="PT Mono, monospace" font-size="20.00">object</text>
</a>
</g>
</g>
<!-- object&#45;&gt;clearable -->
<g id="edge4" class="edge">
<title>object&#45;&gt;clearable</title>
<path fill="none" stroke="black" d="M142.52,-287.87C126.74,-263.24 97.51,-217.64 79.09,-188.88"/>
<polygon fill="black" stroke="black" points="81.86,-186.72 73.52,-180.19 75.96,-190.5 81.86,-186.72"/>
</g>
<!-- object&#45;&gt;lengthy -->
<g id="edge6" class="edge">
<title>object&#45;&gt;lengthy</title>
<path fill="none" stroke="black" d="M152.54,-287.85C150.46,-250.83 145.55,-163.18 143.04,-118.39"/>
<polygon fill="black" stroke="black" points="146.52,-118.02 142.47,-108.23 139.53,-118.41 146.52,-118.02"/>
</g>
<!-- sequential -->
<g id="node7" class="node">
<title>sequential</title>
<g id="a_node7"><a xlink:href="PsyllaReference_Types.xhtml#PsyllaReference_Types_Details_sequential" xlink:title="sequential" target="_parent">
<polygon fill="linen" stroke="black" points="317,-252 186,-252 186,-216 323,-216 323,-246 317,-252"/>
<polyline fill="none" stroke="black" points="317,-252 317,-246 "/>
<polyline fill="none" stroke="black" points="323,-246 317,-246 "/>
<text text-anchor="middle" x="254.5" y="-229" font-family="PT Mono, monospace" font-size="20.00">sequential</text>
</a>
</g>
</g>
<!-- object&#45;&gt;sequential -->
<g id="edge8" class="edge">
<title>object&#45;&gt;sequential</title>
<path fill="none" stroke="black" d="M178.21,-287.88C191.17,-278.89 207.23,-267.76 221.27,-258.03"/>
<polygon fill="black" stroke="black" points="223.47,-260.76 229.7,-252.19 219.48,-255.01 223.47,-260.76"/>
</g>
<!-- streamable -->
<g id="node6" class="node">
<title>streamable</title>
<g id="a_node6"><a xlink:href="PsyllaReference_Types.xhtml#PsyllaReference_Types_Details_streamable" xlink:title="streamable" target="_parent">
<polygon fill="linen" stroke="black" points="325,-180 194,-180 194,-144 331,-144 331,-174 325,-180"/>
<polyline fill="none" stroke="black" points="325,-180 325,-174 "/>
<polyline fill="none" stroke="black" points="331,-174 325,-174 "/>
<text text-anchor="middle" x="262.5" y="-157" font-family="PT Mono, monospace" font-size="20.00">streamable</text>
</a>
</g>
</g>
<!-- streamable&#45;&gt;iterable -->
<g id="edge5" class="edge">
<title>streamable&#45;&gt;iterable</title>
<path fill="none" stroke="black" d="M263.49,-143.7C263.93,-135.98 264.46,-126.71 264.95,-118.11"/>
<polygon fill="black" stroke="black" points="268.45,-118.29 265.52,-108.1 261.46,-117.89 268.45,-118.29"/>
</g>
<!-- sequential&#45;&gt;streamable -->
<g id="edge7" class="edge">
<title>sequential&#45;&gt;streamable</title>
<path fill="none" stroke="black" d="M256.48,-215.7C257.36,-207.98 258.42,-198.71 259.4,-190.11"/>
<polygon fill="black" stroke="black" points="262.89,-190.44 260.55,-180.1 255.93,-189.64 262.89,-190.44"/>
</g>
</g>
</svg>
