<?xml version="1.0" encoding="UTF-8" standalone="no"?>
<!DOCTYPE svg PUBLIC "-//W3C//DTD SVG 1.1//EN"
 "http://www.w3.org/Graphics/SVG/1.1/DTD/svg11.dtd">
<!-- Generated by graphviz version 14.0.0 (0)
 -->
<!-- Title: dict Pages: 1 -->
<svg width="312pt" height="476pt"
 viewBox="0.00 0.00 312.00 476.00" xmlns="http://www.w3.org/2000/svg" xmlns:xlink="http://www.w3.org/1999/xlink">
<g id="graph0" class="graph" transform="scale(1 1) rotate(0) translate(4 472)">
<title>dict</title>
<polygon fill="none" stroke="none" points="-4,4 -4,-472 308,-472 308,4 -4,4"/>
<!-- formaldict -->
<g id="node1" class="node">
<title>formaldict</title>
<g id="a_node1"><a xlink:href="PsyllaReference_Types.xhtml#PsyllaReference_Types_Details_formaldict" xlink:title="formaldict" target="_parent">
<polygon fill="linen" stroke="black" points="108.99,-108 49.01,-108 49.01,-72 114.99,-72 114.99,-102 108.99,-108"/>
<polyline fill="none" stroke="black" points="108.99,-108 108.99,-102"/>
<polyline fill="none" stroke="black" points="114.99,-102 108.99,-102"/>
<text xml:space="preserve" text-anchor="middle" x="82" y="-86.4" font-family="Source Code Pro,monospace" font-size="12.00">formaldict</text>
</a>
</g>
</g>
<!-- dict -->
<g id="node2" class="node">
<title>dict</title>
<g id="a_node2"><a xlink:href="PsyllaReference_Types.xhtml#PsyllaReference_Types_Details_dict" xlink:title="dict" target="_parent">
<polygon fill="wheat" stroke="black" points="103,-36 55,-36 55,0 109,0 109,-30 103,-36"/>
<polyline fill="none" stroke="black" points="103,-36 103,-30"/>
<polyline fill="none" stroke="black" points="109,-30 103,-30"/>
<text xml:space="preserve" text-anchor="middle" x="82" y="-14.4" font-family="Source Code Pro,monospace" font-size="12.00">dict</text>
</a>
</g>
</g>
<!-- formaldict&#45;&gt;dict -->
<g id="edge1" class="edge">
<title>formaldict&#45;&gt;dict</title>
<path fill="none" stroke="black" d="M82,-71.7C82,-64.41 82,-55.73 82,-47.54"/>
<polygon fill="black" stroke="black" points="85.5,-47.62 82,-37.62 78.5,-47.62 85.5,-47.62"/>
</g>
<!-- container -->
<g id="node3" class="node">
<title>container</title>
<g id="a_node3"><a xlink:href="PsyllaReference_Types.xhtml#PsyllaReference_Types_Details_container" xlink:title="container" target="_parent">
<polygon fill="linen" stroke="black" points="212.32,-180 157.68,-180 157.68,-144 218.32,-144 218.32,-174 212.32,-180"/>
<polyline fill="none" stroke="black" points="212.32,-180 212.32,-174"/>
<polyline fill="none" stroke="black" points="218.32,-174 212.32,-174"/>
<text xml:space="preserve" text-anchor="middle" x="188" y="-158.4" font-family="Source Code Pro,monospace" font-size="12.00">container</text>
</a>
</g>
</g>
<!-- container&#45;&gt;formaldict -->
<g id="edge2" class="edge">
<title>container&#45;&gt;formaldict</title>
<path fill="none" stroke="black" d="M161.53,-143.52C148.27,-134.76 132.04,-124.04 117.7,-114.58"/>
<polygon fill="black" stroke="black" points="119.67,-111.68 109.4,-109.09 115.82,-117.53 119.67,-111.68"/>
</g>
<!-- indexed -->
<g id="node4" class="node">
<title>indexed</title>
<g id="a_node4"><a xlink:href="PsyllaReference_Types.xhtml#PsyllaReference_Types_Details_indexed" xlink:title="indexed" target="_parent">
<polygon fill="linen" stroke="black" points="48,-252 0,-252 0,-216 54,-216 54,-246 48,-252"/>
<polyline fill="none" stroke="black" points="48,-252 48,-246"/>
<polyline fill="none" stroke="black" points="54,-246 48,-246"/>
<text xml:space="preserve" text-anchor="middle" x="27" y="-230.4" font-family="Source Code Pro,monospace" font-size="12.00">indexed</text>
</a>
</g>
</g>
<!-- indexed&#45;&gt;formaldict -->
<g id="edge3" class="edge">
<title>indexed&#45;&gt;formaldict</title>
<path fill="none" stroke="black" d="M33.74,-215.59C43.11,-191.4 60.17,-147.36 71.29,-118.65"/>
<polygon fill="black" stroke="black" points="74.48,-120.11 74.83,-109.52 67.95,-117.58 74.48,-120.11"/>
</g>
<!-- sequential -->
<g id="node5" class="node">
<title>sequential</title>
<g id="a_node5"><a xlink:href="PsyllaReference_Types.xhtml#PsyllaReference_Types_Details_sequential" xlink:title="sequential" target="_parent">
<polygon fill="linen" stroke="black" points="170.33,-396 111.67,-396 111.67,-360 176.33,-360 176.33,-390 170.33,-396"/>
<polyline fill="none" stroke="black" points="170.33,-396 170.33,-390"/>
<polyline fill="none" stroke="black" points="176.33,-390 170.33,-390"/>
<text xml:space="preserve" text-anchor="middle" x="144" y="-374.4" font-family="Source Code Pro,monospace" font-size="12.00">sequential</text>
</a>
</g>
</g>
<!-- sequential&#45;&gt;formaldict -->
<g id="edge4" class="edge">
<title>sequential&#45;&gt;formaldict</title>
<path fill="none" stroke="black" d="M125.41,-359.67C116.4,-350.08 106.38,-337.42 101,-324 73.25,-254.82 75.54,-164.98 79.05,-119.73"/>
<polygon fill="black" stroke="black" points="82.52,-120.23 79.89,-109.96 75.54,-119.63 82.52,-120.23"/>
</g>
<!-- streamable -->
<g id="node10" class="node">
<title>streamable</title>
<g id="a_node10"><a xlink:href="PsyllaReference_Types.xhtml#PsyllaReference_Types_Details_streamable" xlink:title="streamable" target="_parent">
<polygon fill="linen" stroke="black" points="171.99,-324 110.01,-324 110.01,-288 177.99,-288 177.99,-318 171.99,-324"/>
<polyline fill="none" stroke="black" points="171.99,-324 171.99,-318"/>
<polyline fill="none" stroke="black" points="177.99,-318 171.99,-318"/>
<text xml:space="preserve" text-anchor="middle" x="144" y="-302.4" font-family="Source Code Pro,monospace" font-size="12.00">streamable</text>
</a>
</g>
</g>
<!-- sequential&#45;&gt;streamable -->
<g id="edge13" class="edge">
<title>sequential&#45;&gt;streamable</title>
<path fill="none" stroke="black" d="M144,-359.7C144,-352.41 144,-343.73 144,-335.54"/>
<polygon fill="black" stroke="black" points="147.5,-335.62 144,-325.62 140.5,-335.62 147.5,-335.62"/>
</g>
<!-- clearable -->
<g id="node6" class="node">
<title>clearable</title>
<g id="a_node6"><a xlink:href="PsyllaReference_Types.xhtml#PsyllaReference_Types_Details_clearable" xlink:title="clearable" target="_parent">
<polygon fill="linen" stroke="black" points="249.65,-324 196.35,-324 196.35,-288 255.65,-288 255.65,-318 249.65,-324"/>
<polyline fill="none" stroke="black" points="249.65,-324 249.65,-318"/>
<polyline fill="none" stroke="black" points="255.65,-318 249.65,-318"/>
<text xml:space="preserve" text-anchor="middle" x="226" y="-302.4" font-family="Source Code Pro,monospace" font-size="12.00">clearable</text>
</a>
</g>
</g>
<!-- clearable&#45;&gt;container -->
<g id="edge5" class="edge">
<title>clearable&#45;&gt;container</title>
<path fill="none" stroke="black" d="M221.34,-287.59C214.9,-263.5 203.19,-219.75 195.5,-191.03"/>
<polygon fill="black" stroke="black" points="198.94,-190.33 192.97,-181.57 192.17,-192.14 198.94,-190.33"/>
</g>
<!-- iterable -->
<g id="node7" class="node">
<title>iterable</title>
<g id="a_node7"><a xlink:href="PsyllaReference_Types.xhtml#PsyllaReference_Types_Details_iterable" xlink:title="iterable" target="_parent">
<polygon fill="linen" stroke="black" points="178,-252 130,-252 130,-216 184,-216 184,-246 178,-252"/>
<polyline fill="none" stroke="black" points="178,-252 178,-246"/>
<polyline fill="none" stroke="black" points="184,-246 178,-246"/>
<text xml:space="preserve" text-anchor="middle" x="157" y="-230.4" font-family="Source Code Pro,monospace" font-size="12.00">iterable</text>
</a>
</g>
</g>
<!-- iterable&#45;&gt;container -->
<g id="edge6" class="edge">
<title>iterable&#45;&gt;container</title>
<path fill="none" stroke="black" d="M164.66,-215.7C168.04,-208.07 172.09,-198.92 175.87,-190.4"/>
<polygon fill="black" stroke="black" points="178.96,-192.05 179.81,-181.49 172.56,-189.21 178.96,-192.05"/>
</g>
<!-- lengthy -->
<g id="node8" class="node">
<title>lengthy</title>
<g id="a_node8"><a xlink:href="PsyllaReference_Types.xhtml#PsyllaReference_Types_Details_lengthy" xlink:title="lengthy" target="_parent">
<polygon fill="linen" stroke="black" points="298,-396 250,-396 250,-360 304,-360 304,-390 298,-396"/>
<polyline fill="none" stroke="black" points="298,-396 298,-390"/>
<polyline fill="none" stroke="black" points="304,-390 298,-390"/>
<text xml:space="preserve" text-anchor="middle" x="277" y="-374.4" font-family="Source Code Pro,monospace" font-size="12.00">lengthy</text>
</a>
</g>
</g>
<!-- lengthy&#45;&gt;container -->
<g id="edge7" class="edge">
<title>lengthy&#45;&gt;container</title>
<path fill="none" stroke="black" d="M276.77,-359.78C276.05,-341.48 273.51,-311.95 265,-288 251.9,-251.11 226.79,-213.48 208.81,-189.29"/>
<polygon fill="black" stroke="black" points="211.82,-187.46 202.98,-181.6 206.24,-191.69 211.82,-187.46"/>
</g>
<!-- object -->
<g id="node9" class="node">
<title>object</title>
<g id="a_node9"><a xlink:href="PsyllaReference_Types.xhtml#PsyllaReference_Types_Details_object" xlink:title="object" target="_parent">
<polygon fill="linen" stroke="black" points="195,-468 147,-468 147,-432 201,-432 201,-462 195,-468"/>
<polyline fill="none" stroke="black" points="195,-468 195,-462"/>
<polyline fill="none" stroke="black" points="201,-462 195,-462"/>
<text xml:space="preserve" text-anchor="middle" x="174" y="-446.4" font-family="Source Code Pro,monospace" font-size="12.00">object</text>
</a>
</g>
</g>
<!-- object&#45;&gt;indexed -->
<g id="edge8" class="edge">
<title>object&#45;&gt;indexed</title>
<path fill="none" stroke="black" d="M146.53,-432.98C132.19,-423.59 115.16,-410.7 103,-396 69.2,-355.13 46.56,-296.71 35.31,-262.63"/>
<polygon fill="black" stroke="black" points="38.78,-261.97 32.39,-253.51 32.11,-264.1 38.78,-261.97"/>
</g>
<!-- object&#45;&gt;sequential -->
<g id="edge9" class="edge">
<title>object&#45;&gt;sequential</title>
<path fill="none" stroke="black" d="M166.58,-431.7C163.35,-424.15 159.48,-415.12 155.86,-406.68"/>
<polygon fill="black" stroke="black" points="159.08,-405.31 151.93,-397.5 152.65,-408.07 159.08,-405.31"/>
</g>
<!-- object&#45;&gt;clearable -->
<g id="edge10" class="edge">
<title>object&#45;&gt;clearable</title>
<path fill="none" stroke="black" d="M180.38,-431.59C189.23,-407.4 205.36,-363.36 215.87,-334.65"/>
<polygon fill="black" stroke="black" points="219.06,-336.13 219.21,-325.53 212.49,-333.72 219.06,-336.13"/>
</g>
<!-- object&#45;&gt;lengthy -->
<g id="edge12" class="edge">
<title>object&#45;&gt;lengthy</title>
<path fill="none" stroke="black" d="M199.73,-431.52C212.6,-422.76 228.38,-412.04 242.31,-402.58"/>
<polygon fill="black" stroke="black" points="244.05,-405.63 250.35,-397.11 240.11,-399.84 244.05,-405.63"/>
</g>
<!-- streamable&#45;&gt;iterable -->
<g id="edge11" class="edge">
<title>streamable&#45;&gt;iterable</title>
<path fill="none" stroke="black" d="M147.21,-287.7C148.58,-280.32 150.22,-271.52 151.75,-263.25"/>
<polygon fill="black" stroke="black" points="155.16,-264.06 153.55,-253.59 148.28,-262.79 155.16,-264.06"/>
</g>
</g>
</svg>
