<?xml version="1.0" encoding="UTF-8" standalone="no"?>
<!DOCTYPE svg PUBLIC "-//W3C//DTD SVG 1.1//EN"
 "http://www.w3.org/Graphics/SVG/1.1/DTD/svg11.dtd">
<!-- Generated by graphviz version 2.43.0 (0)
 -->
<!-- Title: command Pages: 1 -->
<svg width="312pt" height="476pt"
 viewBox="0.00 0.00 311.50 476.00" xmlns="http://www.w3.org/2000/svg" xmlns:xlink="http://www.w3.org/1999/xlink">
<g id="graph0" class="graph" transform="scale(1 1) rotate(0) translate(4 472)">
<title>command</title>
<polygon fill="transparent" stroke="transparent" points="-4,4 -4,-472 307.5,-472 307.5,4 -4,4"/>
<!-- name -->
<g id="node1" class="node">
<title>name</title>
<g id="a_node1"><a xlink:href="PsyllaReference_Types.xhtml#PsyllaReference_Types_Details_name" xlink:title="name" target="_parent">
<polygon fill="linen" stroke="black" points="112,-108 64,-108 64,-72 118,-72 118,-102 112,-108"/>
<polyline fill="none" stroke="black" points="112,-108 112,-102 "/>
<polyline fill="none" stroke="black" points="118,-102 112,-102 "/>
<text text-anchor="middle" x="91" y="-87.5" font-family="PT Mono, monospace" font-size="10.00">name</text>
</a>
</g>
</g>
<!-- command -->
<g id="node2" class="node">
<title>command</title>
<g id="a_node2"><a xlink:href="PsyllaReference_Types.xhtml#PsyllaReference_Types_Details_command" xlink:title="command" target="_parent">
<polygon fill="wheat" stroke="black" points="114.5,-36 61.5,-36 61.5,0 120.5,0 120.5,-30 114.5,-36"/>
<polyline fill="none" stroke="black" points="114.5,-36 114.5,-30 "/>
<polyline fill="none" stroke="black" points="120.5,-30 114.5,-30 "/>
<text text-anchor="middle" x="91" y="-15.5" font-family="PT Mono, monospace" font-size="10.00">command</text>
</a>
</g>
</g>
<!-- name&#45;&gt;command -->
<g id="edge1" class="edge">
<title>name&#45;&gt;command</title>
<path fill="none" stroke="black" d="M91,-71.7C91,-63.98 91,-54.71 91,-46.11"/>
<polygon fill="black" stroke="black" points="94.5,-46.1 91,-36.1 87.5,-46.1 94.5,-46.1"/>
</g>
<!-- atomic -->
<g id="node3" class="node">
<title>atomic</title>
<g id="a_node3"><a xlink:href="PsyllaReference_Types.xhtml#PsyllaReference_Types_Details_atomic" xlink:title="atomic" target="_parent">
<polygon fill="linen" stroke="black" points="48,-324 0,-324 0,-288 54,-288 54,-318 48,-324"/>
<polyline fill="none" stroke="black" points="48,-324 48,-318 "/>
<polyline fill="none" stroke="black" points="54,-318 48,-318 "/>
<text text-anchor="middle" x="27" y="-303.5" font-family="PT Mono, monospace" font-size="10.00">atomic</text>
</a>
</g>
</g>
<!-- atomic&#45;&gt;name -->
<g id="edge2" class="edge">
<title>atomic&#45;&gt;name</title>
<path fill="none" stroke="black" d="M29.96,-287.77C33.23,-269.72 38.98,-240.61 46,-216 55.84,-181.5 70.34,-142.77 80.2,-117.69"/>
<polygon fill="black" stroke="black" points="83.55,-118.73 83.99,-108.15 77.05,-116.15 83.55,-118.73"/>
</g>
<!-- textual -->
<g id="node4" class="node">
<title>textual</title>
<g id="a_node4"><a xlink:href="PsyllaReference_Types.xhtml#PsyllaReference_Types_Details_textual" xlink:title="textual" target="_parent">
<polygon fill="linen" stroke="black" points="178.5,-180 125.5,-180 125.5,-144 184.5,-144 184.5,-174 178.5,-180"/>
<polyline fill="none" stroke="black" points="178.5,-180 178.5,-174 "/>
<polyline fill="none" stroke="black" points="184.5,-174 178.5,-174 "/>
<text text-anchor="middle" x="155" y="-159.5" font-family="PT Mono, monospace" font-size="10.00">textual</text>
</a>
</g>
</g>
<!-- textual&#45;&gt;name -->
<g id="edge3" class="edge">
<title>textual&#45;&gt;name</title>
<path fill="none" stroke="black" d="M139.18,-143.7C131.43,-135.22 121.96,-124.86 113.48,-115.58"/>
<polygon fill="black" stroke="black" points="115.97,-113.12 106.64,-108.1 110.8,-117.85 115.97,-113.12"/>
</g>
<!-- object -->
<g id="node5" class="node">
<title>object</title>
<g id="a_node5"><a xlink:href="PsyllaReference_Types.xhtml#PsyllaReference_Types_Details_object" xlink:title="object" target="_parent">
<polygon fill="linen" stroke="black" points="147,-468 99,-468 99,-432 153,-432 153,-462 147,-468"/>
<polyline fill="none" stroke="black" points="147,-468 147,-462 "/>
<polyline fill="none" stroke="black" points="153,-462 147,-462 "/>
<text text-anchor="middle" x="126" y="-447.5" font-family="PT Mono, monospace" font-size="10.00">object</text>
</a>
</g>
</g>
<!-- object&#45;&gt;atomic -->
<g id="edge4" class="edge">
<title>object&#45;&gt;atomic</title>
<path fill="none" stroke="black" d="M103.32,-431.92C91.67,-422.31 77.9,-409.55 68,-396 54.03,-376.88 43.13,-352.23 36.09,-333.73"/>
<polygon fill="black" stroke="black" points="39.31,-332.34 32.58,-324.15 32.73,-334.74 39.31,-332.34"/>
</g>
<!-- evaluable -->
<g id="node6" class="node">
<title>evaluable</title>
<g id="a_node6"><a xlink:href="PsyllaReference_Types.xhtml#PsyllaReference_Types_Details_evaluable" xlink:title="evaluable" target="_parent">
<polygon fill="linen" stroke="black" points="120.5,-252 55.5,-252 55.5,-216 126.5,-216 126.5,-246 120.5,-252"/>
<polyline fill="none" stroke="black" points="120.5,-252 120.5,-246 "/>
<polyline fill="none" stroke="black" points="126.5,-246 120.5,-246 "/>
<text text-anchor="middle" x="91" y="-231.5" font-family="PT Mono, monospace" font-size="10.00">evaluable</text>
</a>
</g>
</g>
<!-- object&#45;&gt;evaluable -->
<g id="edge9" class="edge">
<title>object&#45;&gt;evaluable</title>
<path fill="none" stroke="black" d="M122.05,-431.69C116.67,-407.64 107.03,-362.7 101,-324 97.79,-303.39 95.2,-279.94 93.46,-262.29"/>
<polygon fill="black" stroke="black" points="96.92,-261.74 92.49,-252.12 89.95,-262.41 96.92,-261.74"/>
</g>
<!-- lengthy -->
<g id="node8" class="node">
<title>lengthy</title>
<g id="a_node8"><a xlink:href="PsyllaReference_Types.xhtml#PsyllaReference_Types_Details_lengthy" xlink:title="lengthy" target="_parent">
<polygon fill="linen" stroke="black" points="163.5,-324 110.5,-324 110.5,-288 169.5,-288 169.5,-318 163.5,-324"/>
<polyline fill="none" stroke="black" points="163.5,-324 163.5,-318 "/>
<polyline fill="none" stroke="black" points="169.5,-318 163.5,-318 "/>
<text text-anchor="middle" x="140" y="-303.5" font-family="PT Mono, monospace" font-size="10.00">lengthy</text>
</a>
</g>
</g>
<!-- object&#45;&gt;lengthy -->
<g id="edge11" class="edge">
<title>object&#45;&gt;lengthy</title>
<path fill="none" stroke="black" d="M127.69,-431.87C130.07,-407.67 134.46,-363.21 137.3,-334.39"/>
<polygon fill="black" stroke="black" points="140.81,-334.48 138.31,-324.19 133.84,-333.8 140.81,-334.48"/>
</g>
<!-- scalar -->
<g id="node9" class="node">
<title>scalar</title>
<g id="a_node9"><a xlink:href="PsyllaReference_Types.xhtml#PsyllaReference_Types_Details_scalar" xlink:title="scalar" target="_parent">
<polygon fill="linen" stroke="black" points="202,-396 154,-396 154,-360 208,-360 208,-390 202,-396"/>
<polyline fill="none" stroke="black" points="202,-396 202,-390 "/>
<polyline fill="none" stroke="black" points="208,-390 202,-390 "/>
<text text-anchor="middle" x="181" y="-375.5" font-family="PT Mono, monospace" font-size="10.00">scalar</text>
</a>
</g>
</g>
<!-- object&#45;&gt;scalar -->
<g id="edge12" class="edge">
<title>object&#45;&gt;scalar</title>
<path fill="none" stroke="black" d="M139.6,-431.7C146.12,-423.39 154.07,-413.28 161.25,-404.14"/>
<polygon fill="black" stroke="black" points="164.13,-406.13 167.56,-396.1 158.63,-401.81 164.13,-406.13"/>
</g>
<!-- sequential -->
<g id="node11" class="node">
<title>sequential</title>
<g id="a_node11"><a xlink:href="PsyllaReference_Types.xhtml#PsyllaReference_Types_Details_sequential" xlink:title="sequential" target="_parent">
<polygon fill="linen" stroke="black" points="297.5,-396 226.5,-396 226.5,-360 303.5,-360 303.5,-390 297.5,-396"/>
<polyline fill="none" stroke="black" points="297.5,-396 297.5,-390 "/>
<polyline fill="none" stroke="black" points="303.5,-390 297.5,-390 "/>
<text text-anchor="middle" x="265" y="-375.5" font-family="PT Mono, monospace" font-size="10.00">sequential</text>
</a>
</g>
</g>
<!-- object&#45;&gt;sequential -->
<g id="edge14" class="edge">
<title>object&#45;&gt;sequential</title>
<path fill="none" stroke="black" d="M153.13,-435.34C172.71,-425.48 199.55,-411.96 222.03,-400.64"/>
<polygon fill="black" stroke="black" points="223.69,-403.72 231.05,-396.1 220.54,-397.47 223.69,-403.72"/>
</g>
<!-- evaluable&#45;&gt;textual -->
<g id="edge5" class="edge">
<title>evaluable&#45;&gt;textual</title>
<path fill="none" stroke="black" d="M106.82,-215.7C114.57,-207.22 124.04,-196.86 132.52,-187.58"/>
<polygon fill="black" stroke="black" points="135.2,-189.85 139.36,-180.1 130.03,-185.12 135.2,-189.85"/>
</g>
<!-- iterable -->
<g id="node7" class="node">
<title>iterable</title>
<g id="a_node7"><a xlink:href="PsyllaReference_Types.xhtml#PsyllaReference_Types_Details_iterable" xlink:title="iterable" target="_parent">
<polygon fill="linen" stroke="black" points="288.5,-252 229.5,-252 229.5,-216 294.5,-216 294.5,-246 288.5,-252"/>
<polyline fill="none" stroke="black" points="288.5,-252 288.5,-246 "/>
<polyline fill="none" stroke="black" points="294.5,-246 288.5,-246 "/>
<text text-anchor="middle" x="262" y="-231.5" font-family="PT Mono, monospace" font-size="10.00">iterable</text>
</a>
</g>
</g>
<!-- iterable&#45;&gt;textual -->
<g id="edge6" class="edge">
<title>iterable&#45;&gt;textual</title>
<path fill="none" stroke="black" d="M235.82,-215.88C221.96,-206.81 204.76,-195.55 189.79,-185.76"/>
<polygon fill="black" stroke="black" points="191.56,-182.74 181.28,-180.19 187.73,-188.59 191.56,-182.74"/>
</g>
<!-- lengthy&#45;&gt;textual -->
<g id="edge7" class="edge">
<title>lengthy&#45;&gt;textual</title>
<path fill="none" stroke="black" d="M141.81,-287.87C144.37,-263.67 149.06,-219.21 152.11,-190.39"/>
<polygon fill="black" stroke="black" points="155.61,-190.5 153.18,-180.19 148.65,-189.77 155.61,-190.5"/>
</g>
<!-- scalar&#45;&gt;textual -->
<g id="edge8" class="edge">
<title>scalar&#45;&gt;textual</title>
<path fill="none" stroke="black" d="M181.17,-359.89C181.18,-341.93 180.7,-312.9 178,-288 174.32,-254.02 166.68,-215.41 161.21,-190.2"/>
<polygon fill="black" stroke="black" points="164.59,-189.28 159.02,-180.27 157.76,-190.79 164.59,-189.28"/>
</g>
<!-- streamable -->
<g id="node10" class="node">
<title>streamable</title>
<g id="a_node10"><a xlink:href="PsyllaReference_Types.xhtml#PsyllaReference_Types_Details_streamable" xlink:title="streamable" target="_parent">
<polygon fill="linen" stroke="black" points="297.5,-324 226.5,-324 226.5,-288 303.5,-288 303.5,-318 297.5,-324"/>
<polyline fill="none" stroke="black" points="297.5,-324 297.5,-318 "/>
<polyline fill="none" stroke="black" points="303.5,-318 297.5,-318 "/>
<text text-anchor="middle" x="265" y="-303.5" font-family="PT Mono, monospace" font-size="10.00">streamable</text>
</a>
</g>
</g>
<!-- streamable&#45;&gt;iterable -->
<g id="edge10" class="edge">
<title>streamable&#45;&gt;iterable</title>
<path fill="none" stroke="black" d="M264.26,-287.7C263.93,-279.98 263.53,-270.71 263.16,-262.11"/>
<polygon fill="black" stroke="black" points="266.66,-261.95 262.73,-252.1 259.66,-262.25 266.66,-261.95"/>
</g>
<!-- sequential&#45;&gt;streamable -->
<g id="edge13" class="edge">
<title>sequential&#45;&gt;streamable</title>
<path fill="none" stroke="black" d="M265,-359.7C265,-351.98 265,-342.71 265,-334.11"/>
<polygon fill="black" stroke="black" points="268.5,-334.1 265,-324.1 261.5,-334.1 268.5,-334.1"/>
</g>
</g>
</svg>
