<?xml version="1.0" encoding="UTF-8" standalone="no"?>
<!DOCTYPE svg PUBLIC "-//W3C//DTD SVG 1.1//EN"
 "http://www.w3.org/Graphics/SVG/1.1/DTD/svg11.dtd">
<!-- Generated by graphviz version 2.43.0 (0)
 -->
<!-- Title: boolean Pages: 1 -->
<svg width="323pt" height="188pt"
 viewBox="0.00 0.00 323.00 188.00" xmlns="http://www.w3.org/2000/svg" xmlns:xlink="http://www.w3.org/1999/xlink">
<g id="graph0" class="graph" transform="scale(1 1) rotate(0) translate(4 184)">
<title>boolean</title>
<polygon fill="transparent" stroke="transparent" points="-4,4 -4,-184 319,-184 319,4 -4,4"/>
<!-- atomic -->
<g id="node1" class="node">
<title>atomic</title>
<g id="a_node1"><a xlink:href="PsyllaReference_Types.xhtml#PsyllaReference_Types_Details_atomic" xlink:title="atomic" target="_parent">
<polygon fill="linen" stroke="black" points="83,-108 0,-108 0,-72 89,-72 89,-102 83,-108"/>
<polyline fill="none" stroke="black" points="83,-108 83,-102 "/>
<polyline fill="none" stroke="black" points="89,-102 83,-102 "/>
<text text-anchor="middle" x="44.5" y="-85" font-family="PT Mono, monospace" font-size="20.00">atomic</text>
</a>
</g>
</g>
<!-- boolean -->
<g id="node4" class="node">
<title>boolean</title>
<g id="a_node4"><a xlink:href="PsyllaReference_Types.xhtml#PsyllaReference_Types_Details_boolean" xlink:title="boolean" target="_parent">
<polygon fill="wheat" stroke="black" points="196,-36 101,-36 101,0 202,0 202,-30 196,-36"/>
<polyline fill="none" stroke="black" points="196,-36 196,-30 "/>
<polyline fill="none" stroke="black" points="202,-30 196,-30 "/>
<text text-anchor="middle" x="151.5" y="-13" font-family="PT Mono, monospace" font-size="20.00">boolean</text>
</a>
</g>
</g>
<!-- atomic&#45;&gt;boolean -->
<g id="edge1" class="edge">
<title>atomic&#45;&gt;boolean</title>
<path fill="none" stroke="black" d="M70.68,-71.88C84.54,-62.81 101.74,-51.55 116.71,-41.76"/>
<polygon fill="black" stroke="black" points="118.77,-44.59 125.22,-36.19 114.94,-38.74 118.77,-44.59"/>
</g>
<!-- scalar -->
<g id="node2" class="node">
<title>scalar</title>
<g id="a_node2"><a xlink:href="PsyllaReference_Types.xhtml#PsyllaReference_Types_Details_scalar" xlink:title="scalar" target="_parent">
<polygon fill="linen" stroke="black" points="190,-108 107,-108 107,-72 196,-72 196,-102 190,-108"/>
<polyline fill="none" stroke="black" points="190,-108 190,-102 "/>
<polyline fill="none" stroke="black" points="196,-102 190,-102 "/>
<text text-anchor="middle" x="151.5" y="-85" font-family="PT Mono, monospace" font-size="20.00">scalar</text>
</a>
</g>
</g>
<!-- scalar&#45;&gt;boolean -->
<g id="edge2" class="edge">
<title>scalar&#45;&gt;boolean</title>
<path fill="none" stroke="black" d="M151.5,-71.7C151.5,-63.98 151.5,-54.71 151.5,-46.11"/>
<polygon fill="black" stroke="black" points="155,-46.1 151.5,-36.1 148,-46.1 155,-46.1"/>
</g>
<!-- logical -->
<g id="node3" class="node">
<title>logical</title>
<g id="a_node3"><a xlink:href="PsyllaReference_Types.xhtml#PsyllaReference_Types_Details_logical" xlink:title="logical" target="_parent">
<polygon fill="linen" stroke="black" points="309,-108 214,-108 214,-72 315,-72 315,-102 309,-108"/>
<polyline fill="none" stroke="black" points="309,-108 309,-102 "/>
<polyline fill="none" stroke="black" points="315,-102 309,-102 "/>
<text text-anchor="middle" x="264.5" y="-85" font-family="PT Mono, monospace" font-size="20.00">logical</text>
</a>
</g>
</g>
<!-- logical&#45;&gt;boolean -->
<g id="edge3" class="edge">
<title>logical&#45;&gt;boolean</title>
<path fill="none" stroke="black" d="M236.86,-71.88C222.08,-62.72 203.71,-51.34 187.8,-41.48"/>
<polygon fill="black" stroke="black" points="189.59,-38.48 179.25,-36.19 185.91,-44.43 189.59,-38.48"/>
</g>
<!-- object -->
<g id="node5" class="node">
<title>object</title>
<g id="a_node5"><a xlink:href="PsyllaReference_Types.xhtml#PsyllaReference_Types_Details_object" xlink:title="object" target="_parent">
<polygon fill="linen" stroke="black" points="190,-180 107,-180 107,-144 196,-144 196,-174 190,-180"/>
<polyline fill="none" stroke="black" points="190,-180 190,-174 "/>
<polyline fill="none" stroke="black" points="196,-174 190,-174 "/>
<text text-anchor="middle" x="151.5" y="-157" font-family="PT Mono, monospace" font-size="20.00">object</text>
</a>
</g>
</g>
<!-- object&#45;&gt;atomic -->
<g id="edge4" class="edge">
<title>object&#45;&gt;atomic</title>
<path fill="none" stroke="black" d="M125.32,-143.88C111.46,-134.81 94.26,-123.55 79.29,-113.76"/>
<polygon fill="black" stroke="black" points="81.06,-110.74 70.78,-108.19 77.23,-116.59 81.06,-110.74"/>
</g>
<!-- object&#45;&gt;scalar -->
<g id="edge5" class="edge">
<title>object&#45;&gt;scalar</title>
<path fill="none" stroke="black" d="M151.5,-143.7C151.5,-135.98 151.5,-126.71 151.5,-118.11"/>
<polygon fill="black" stroke="black" points="155,-118.1 151.5,-108.1 148,-118.1 155,-118.1"/>
</g>
<!-- object&#45;&gt;logical -->
<g id="edge6" class="edge">
<title>object&#45;&gt;logical</title>
<path fill="none" stroke="black" d="M179.14,-143.88C193.92,-134.72 212.29,-123.34 228.2,-113.48"/>
<polygon fill="black" stroke="black" points="230.09,-116.43 236.75,-108.19 226.41,-110.48 230.09,-116.43"/>
</g>
</g>
</svg>
