<?xml version="1.0" encoding="UTF-8" standalone="no"?>
<!DOCTYPE svg PUBLIC "-//W3C//DTD SVG 1.1//EN"
 "http://www.w3.org/Graphics/SVG/1.1/DTD/svg11.dtd">
<!-- Generated by graphviz version 2.43.0 (0)
 -->
<!-- Title: null Pages: 1 -->
<svg width="74pt" height="188pt"
 viewBox="0.00 0.00 74.00 188.00" xmlns="http://www.w3.org/2000/svg" xmlns:xlink="http://www.w3.org/1999/xlink">
<g id="graph0" class="graph" transform="scale(1 1) rotate(0) translate(4 184)">
<title>null</title>
<polygon fill="transparent" stroke="transparent" points="-4,4 -4,-184 70,-184 70,4 -4,4"/>
<!-- atomic -->
<g id="node1" class="node">
<title>atomic</title>
<g id="a_node1"><a xlink:href="PsyllaReference_Types.xhtml#PsyllaReference_Types_Details_atomic" xlink:title="atomic" target="_parent">
<polygon fill="linen" stroke="black" points="60,-108 0,-108 0,-72 66,-72 66,-102 60,-108"/>
<polyline fill="none" stroke="black" points="60,-108 60,-102 "/>
<polyline fill="none" stroke="black" points="66,-102 60,-102 "/>
<text text-anchor="middle" x="33" y="-86.3" font-family="Consolas, monospace" font-size="14.00">atomic</text>
</a>
</g>
</g>
<!-- null -->
<g id="node2" class="node">
<title>null</title>
<g id="a_node2"><a xlink:href="PsyllaReference_Types.xhtml#PsyllaReference_Types_Details_null" xlink:title="null" target="_parent">
<polygon fill="wheat" stroke="black" points="54,-36 6,-36 6,0 60,0 60,-30 54,-36"/>
<polyline fill="none" stroke="black" points="54,-36 54,-30 "/>
<polyline fill="none" stroke="black" points="60,-30 54,-30 "/>
<text text-anchor="middle" x="33" y="-14.3" font-family="Consolas, monospace" font-size="14.00">null</text>
</a>
</g>
</g>
<!-- atomic&#45;&gt;null -->
<g id="edge1" class="edge">
<title>atomic&#45;&gt;null</title>
<path fill="none" stroke="black" d="M33,-71.7C33,-63.98 33,-54.71 33,-46.11"/>
<polygon fill="black" stroke="black" points="36.5,-46.1 33,-36.1 29.5,-46.1 36.5,-46.1"/>
</g>
<!-- object -->
<g id="node3" class="node">
<title>object</title>
<g id="a_node3"><a xlink:href="PsyllaReference_Types.xhtml#PsyllaReference_Types_Details_object" xlink:title="object" target="_parent">
<polygon fill="linen" stroke="black" points="60,-180 0,-180 0,-144 66,-144 66,-174 60,-180"/>
<polyline fill="none" stroke="black" points="60,-180 60,-174 "/>
<polyline fill="none" stroke="black" points="66,-174 60,-174 "/>
<text text-anchor="middle" x="33" y="-158.3" font-family="Consolas, monospace" font-size="14.00">object</text>
</a>
</g>
</g>
<!-- object&#45;&gt;atomic -->
<g id="edge2" class="edge">
<title>object&#45;&gt;atomic</title>
<path fill="none" stroke="black" d="M33,-143.7C33,-135.98 33,-126.71 33,-118.11"/>
<polygon fill="black" stroke="black" points="36.5,-118.1 33,-108.1 29.5,-118.1 36.5,-118.1"/>
</g>
</g>
</svg>
