<?xml version="1.0" encoding="UTF-8" standalone="no"?>
<!DOCTYPE svg PUBLIC "-//W3C//DTD SVG 1.1//EN"
 "http://www.w3.org/Graphics/SVG/1.1/DTD/svg11.dtd">
<!-- Generated by graphviz version 14.0.0 (0)
 -->
<!-- Title: iterable Pages: 1 -->
<svg width="76pt" height="260pt"
 viewBox="0.00 0.00 76.00 260.00" xmlns="http://www.w3.org/2000/svg" xmlns:xlink="http://www.w3.org/1999/xlink">
<g id="graph0" class="graph" transform="scale(1 1) rotate(0) translate(4 256)">
<title>iterable</title>
<polygon fill="none" stroke="none" points="-4,4 -4,-256 71.97,-256 71.97,4 -4,4"/>
<!-- streamable -->
<g id="node1" class="node">
<title>streamable</title>
<g id="a_node1"><a xlink:href="PsyllaReference_Types.xhtml#PsyllaReference_Types_Details_streamable" xlink:title="streamable" target="_parent">
<polygon fill="linen" stroke="black" points="61.97,-108 0,-108 0,-72 67.97,-72 67.97,-102 61.97,-108"/>
<polyline fill="none" stroke="black" points="61.97,-108 61.97,-102"/>
<polyline fill="none" stroke="black" points="67.97,-102 61.97,-102"/>
<text xml:space="preserve" text-anchor="middle" x="33.99" y="-86.4" font-family="Source Code Pro,monospace" font-size="12.00">streamable</text>
</a>
</g>
</g>
<!-- iterable -->
<g id="node2" class="node">
<title>iterable</title>
<g id="a_node2"><a xlink:href="PsyllaReference_Types.xhtml#PsyllaReference_Types_Details_iterable" xlink:title="iterable" target="_parent">
<polygon fill="wheat" stroke="black" points="54.99,-36 6.99,-36 6.99,0 60.99,0 60.99,-30 54.99,-36"/>
<polyline fill="none" stroke="black" points="54.99,-36 54.99,-30"/>
<polyline fill="none" stroke="black" points="60.99,-30 54.99,-30"/>
<text xml:space="preserve" text-anchor="middle" x="33.99" y="-14.4" font-family="Source Code Pro,monospace" font-size="12.00">iterable</text>
</a>
</g>
</g>
<!-- streamable&#45;&gt;iterable -->
<g id="edge1" class="edge">
<title>streamable&#45;&gt;iterable</title>
<path fill="none" stroke="black" d="M33.99,-71.7C33.99,-64.41 33.99,-55.73 33.99,-47.54"/>
<polygon fill="black" stroke="black" points="37.49,-47.62 33.99,-37.62 30.49,-47.62 37.49,-47.62"/>
</g>
<!-- sequential -->
<g id="node3" class="node">
<title>sequential</title>
<g id="a_node3"><a xlink:href="PsyllaReference_Types.xhtml#PsyllaReference_Types_Details_sequential" xlink:title="sequential" target="_parent">
<polygon fill="linen" stroke="black" points="60.31,-180 1.66,-180 1.66,-144 66.31,-144 66.31,-174 60.31,-180"/>
<polyline fill="none" stroke="black" points="60.31,-180 60.31,-174"/>
<polyline fill="none" stroke="black" points="66.31,-174 60.31,-174"/>
<text xml:space="preserve" text-anchor="middle" x="33.99" y="-158.4" font-family="Source Code Pro,monospace" font-size="12.00">sequential</text>
</a>
</g>
</g>
<!-- sequential&#45;&gt;streamable -->
<g id="edge2" class="edge">
<title>sequential&#45;&gt;streamable</title>
<path fill="none" stroke="black" d="M33.99,-143.7C33.99,-136.41 33.99,-127.73 33.99,-119.54"/>
<polygon fill="black" stroke="black" points="37.49,-119.62 33.99,-109.62 30.49,-119.62 37.49,-119.62"/>
</g>
<!-- object -->
<g id="node4" class="node">
<title>object</title>
<g id="a_node4"><a xlink:href="PsyllaReference_Types.xhtml#PsyllaReference_Types_Details_object" xlink:title="object" target="_parent">
<polygon fill="linen" stroke="black" points="54.99,-252 6.99,-252 6.99,-216 60.99,-216 60.99,-246 54.99,-252"/>
<polyline fill="none" stroke="black" points="54.99,-252 54.99,-246"/>
<polyline fill="none" stroke="black" points="60.99,-246 54.99,-246"/>
<text xml:space="preserve" text-anchor="middle" x="33.99" y="-230.4" font-family="Source Code Pro,monospace" font-size="12.00">object</text>
</a>
</g>
</g>
<!-- object&#45;&gt;sequential -->
<g id="edge3" class="edge">
<title>object&#45;&gt;sequential</title>
<path fill="none" stroke="black" d="M33.99,-215.7C33.99,-208.41 33.99,-199.73 33.99,-191.54"/>
<polygon fill="black" stroke="black" points="37.49,-191.62 33.99,-181.62 30.49,-191.62 37.49,-191.62"/>
</g>
</g>
</svg>
