<?xml version="1.0" encoding="UTF-8" standalone="no"?>
<!DOCTYPE svg PUBLIC "-//W3C//DTD SVG 1.1//EN"
 "http://www.w3.org/Graphics/SVG/1.1/DTD/svg11.dtd">
<!-- Generated by graphviz version 14.0.0 (0)
 -->
<!-- Title: matcher Pages: 1 -->
<svg width="67pt" height="188pt"
 viewBox="0.00 0.00 67.00 188.00" xmlns="http://www.w3.org/2000/svg" xmlns:xlink="http://www.w3.org/1999/xlink">
<g id="graph0" class="graph" transform="scale(1 1) rotate(0) translate(4 184)">
<title>matcher</title>
<polygon fill="none" stroke="none" points="-4,4 -4,-184 62.64,-184 62.64,4 -4,4"/>
<!-- resetable -->
<g id="node1" class="node">
<title>resetable</title>
<g id="a_node1"><a xlink:href="PsyllaReference_Types.xhtml#PsyllaReference_Types_Details_resetable" xlink:title="resetable" target="_parent">
<polygon fill="linen" stroke="black" points="52.64,-108 0,-108 0,-72 58.64,-72 58.64,-102 52.64,-108"/>
<polyline fill="none" stroke="black" points="52.64,-108 52.64,-102"/>
<polyline fill="none" stroke="black" points="58.64,-102 52.64,-102"/>
<text xml:space="preserve" text-anchor="middle" x="29.32" y="-86.4" font-family="Source Code Pro,monospace" font-size="12.00">resetable</text>
</a>
</g>
</g>
<!-- matcher -->
<g id="node2" class="node">
<title>matcher</title>
<g id="a_node2"><a xlink:href="PsyllaReference_Types.xhtml#PsyllaReference_Types_Details_matcher" xlink:title="matcher" target="_parent">
<polygon fill="wheat" stroke="black" points="50.64,-36 2,-36 2,0 56.64,0 56.64,-30 50.64,-36"/>
<polyline fill="none" stroke="black" points="50.64,-36 50.64,-30"/>
<polyline fill="none" stroke="black" points="56.64,-30 50.64,-30"/>
<text xml:space="preserve" text-anchor="middle" x="29.32" y="-14.4" font-family="Source Code Pro,monospace" font-size="12.00">matcher</text>
</a>
</g>
</g>
<!-- resetable&#45;&gt;matcher -->
<g id="edge1" class="edge">
<title>resetable&#45;&gt;matcher</title>
<path fill="none" stroke="black" d="M29.32,-71.7C29.32,-64.41 29.32,-55.73 29.32,-47.54"/>
<polygon fill="black" stroke="black" points="32.82,-47.62 29.32,-37.62 25.82,-47.62 32.82,-47.62"/>
</g>
<!-- object -->
<g id="node3" class="node">
<title>object</title>
<g id="a_node3"><a xlink:href="PsyllaReference_Types.xhtml#PsyllaReference_Types_Details_object" xlink:title="object" target="_parent">
<polygon fill="linen" stroke="black" points="50.32,-180 2.32,-180 2.32,-144 56.32,-144 56.32,-174 50.32,-180"/>
<polyline fill="none" stroke="black" points="50.32,-180 50.32,-174"/>
<polyline fill="none" stroke="black" points="56.32,-174 50.32,-174"/>
<text xml:space="preserve" text-anchor="middle" x="29.32" y="-158.4" font-family="Source Code Pro,monospace" font-size="12.00">object</text>
</a>
</g>
</g>
<!-- object&#45;&gt;resetable -->
<g id="edge2" class="edge">
<title>object&#45;&gt;resetable</title>
<path fill="none" stroke="black" d="M29.32,-143.7C29.32,-136.41 29.32,-127.73 29.32,-119.54"/>
<polygon fill="black" stroke="black" points="32.82,-119.62 29.32,-109.62 25.82,-119.62 32.82,-119.62"/>
</g>
</g>
</svg>
