<?xml version="1.0" encoding="UTF-8" standalone="no"?>
<!DOCTYPE svg PUBLIC "-//W3C//DTD SVG 1.1//EN"
 "http://www.w3.org/Graphics/SVG/1.1/DTD/svg11.dtd">
<!-- Generated by graphviz version 14.0.0 (0)
 -->
<!-- Title: scalar Pages: 1 -->
<svg width="62pt" height="116pt"
 viewBox="0.00 0.00 62.00 116.00" xmlns="http://www.w3.org/2000/svg" xmlns:xlink="http://www.w3.org/1999/xlink">
<g id="graph0" class="graph" transform="scale(1 1) rotate(0) translate(4 112)">
<title>scalar</title>
<polygon fill="none" stroke="none" points="-4,4 -4,-112 58,-112 58,4 -4,4"/>
<!-- object -->
<g id="node1" class="node">
<title>object</title>
<g id="a_node1"><a xlink:href="PsyllaReference_Types.xhtml#PsyllaReference_Types_Details_object" xlink:title="object" target="_parent">
<polygon fill="linen" stroke="black" points="48,-108 0,-108 0,-72 54,-72 54,-102 48,-108"/>
<polyline fill="none" stroke="black" points="48,-108 48,-102"/>
<polyline fill="none" stroke="black" points="54,-102 48,-102"/>
<text xml:space="preserve" text-anchor="middle" x="27" y="-86.4" font-family="Source Code Pro,monospace" font-size="12.00">object</text>
</a>
</g>
</g>
<!-- scalar -->
<g id="node2" class="node">
<title>scalar</title>
<g id="a_node2"><a xlink:href="PsyllaReference_Types.xhtml#PsyllaReference_Types_Details_scalar" xlink:title="scalar" target="_parent">
<polygon fill="wheat" stroke="black" points="48,-36 0,-36 0,0 54,0 54,-30 48,-36"/>
<polyline fill="none" stroke="black" points="48,-36 48,-30"/>
<polyline fill="none" stroke="black" points="54,-30 48,-30"/>
<text xml:space="preserve" text-anchor="middle" x="27" y="-14.4" font-family="Source Code Pro,monospace" font-size="12.00">scalar</text>
</a>
</g>
</g>
<!-- object&#45;&gt;scalar -->
<g id="edge1" class="edge">
<title>object&#45;&gt;scalar</title>
<path fill="none" stroke="black" d="M27,-71.7C27,-64.41 27,-55.73 27,-47.54"/>
<polygon fill="black" stroke="black" points="30.5,-47.62 27,-37.62 23.5,-47.62 30.5,-47.62"/>
</g>
</g>
</svg>
