<?xml version="1.0" encoding="UTF-8" standalone="no"?>
<!DOCTYPE svg PUBLIC "-//W3C//DTD SVG 1.1//EN"
 "http://www.w3.org/Graphics/SVG/1.1/DTD/svg11.dtd">
<!-- Generated by graphviz version 2.43.0 (0)
 -->
<!-- Title: namespace Pages: 1 -->
<svg width="398pt" height="548pt"
 viewBox="0.00 0.00 398.00 548.00" xmlns="http://www.w3.org/2000/svg" xmlns:xlink="http://www.w3.org/1999/xlink">
<g id="graph0" class="graph" transform="scale(1 1) rotate(0) translate(4 544)">
<title>namespace</title>
<polygon fill="transparent" stroke="transparent" points="-4,4 -4,-544 394,-544 394,4 -4,4"/>
<!-- dict -->
<g id="node1" class="node">
<title>dict</title>
<g id="a_node1"><a xlink:href="PsyllaReference_Types.xhtml#PsyllaReference_Types_Details_dict" xlink:title="dict" target="_parent">
<polygon fill="linen" stroke="black" points="123,-108 75,-108 75,-72 129,-72 129,-102 123,-108"/>
<polyline fill="none" stroke="black" points="123,-108 123,-102 "/>
<polyline fill="none" stroke="black" points="129,-102 123,-102 "/>
<text text-anchor="middle" x="102" y="-86.3" font-family="Consolas, monospace" font-size="14.00">dict</text>
</a>
</g>
</g>
<!-- namespace -->
<g id="node2" class="node">
<title>namespace</title>
<g id="a_node2"><a xlink:href="PsyllaReference_Types.xhtml#PsyllaReference_Types_Details_namespace" xlink:title="namespace" target="_parent">
<polygon fill="wheat" stroke="black" points="141.5,-36 56.5,-36 56.5,0 147.5,0 147.5,-30 141.5,-36"/>
<polyline fill="none" stroke="black" points="141.5,-36 141.5,-30 "/>
<polyline fill="none" stroke="black" points="147.5,-30 141.5,-30 "/>
<text text-anchor="middle" x="102" y="-14.3" font-family="Consolas, monospace" font-size="14.00">namespace</text>
</a>
</g>
</g>
<!-- dict&#45;&gt;namespace -->
<g id="edge1" class="edge">
<title>dict&#45;&gt;namespace</title>
<path fill="none" stroke="black" d="M102,-71.7C102,-63.98 102,-54.71 102,-46.11"/>
<polygon fill="black" stroke="black" points="105.5,-46.1 102,-36.1 98.5,-46.1 105.5,-46.1"/>
</g>
<!-- formaldict -->
<g id="node3" class="node">
<title>formaldict</title>
<g id="a_node3"><a xlink:href="PsyllaReference_Types.xhtml#PsyllaReference_Types_Details_formaldict" xlink:title="formaldict" target="_parent">
<polygon fill="linen" stroke="black" points="145.5,-180 52.5,-180 52.5,-144 151.5,-144 151.5,-174 145.5,-180"/>
<polyline fill="none" stroke="black" points="145.5,-180 145.5,-174 "/>
<polyline fill="none" stroke="black" points="151.5,-174 145.5,-174 "/>
<text text-anchor="middle" x="102" y="-158.3" font-family="Consolas, monospace" font-size="14.00">formaldict</text>
</a>
</g>
</g>
<!-- formaldict&#45;&gt;dict -->
<g id="edge2" class="edge">
<title>formaldict&#45;&gt;dict</title>
<path fill="none" stroke="black" d="M102,-143.7C102,-135.98 102,-126.71 102,-118.11"/>
<polygon fill="black" stroke="black" points="105.5,-118.1 102,-108.1 98.5,-118.1 105.5,-118.1"/>
</g>
<!-- container -->
<g id="node4" class="node">
<title>container</title>
<g id="a_node4"><a xlink:href="PsyllaReference_Types.xhtml#PsyllaReference_Types_Details_container" xlink:title="container" target="_parent">
<polygon fill="linen" stroke="black" points="280.5,-252 195.5,-252 195.5,-216 286.5,-216 286.5,-246 280.5,-252"/>
<polyline fill="none" stroke="black" points="280.5,-252 280.5,-246 "/>
<polyline fill="none" stroke="black" points="286.5,-246 280.5,-246 "/>
<text text-anchor="middle" x="241" y="-230.3" font-family="Consolas, monospace" font-size="14.00">container</text>
</a>
</g>
</g>
<!-- container&#45;&gt;formaldict -->
<g id="edge3" class="edge">
<title>container&#45;&gt;formaldict</title>
<path fill="none" stroke="black" d="M207,-215.88C188.4,-206.51 165.17,-194.81 145.29,-184.8"/>
<polygon fill="black" stroke="black" points="146.64,-181.56 136.13,-180.19 143.49,-187.81 146.64,-181.56"/>
</g>
<!-- indexed -->
<g id="node5" class="node">
<title>indexed</title>
<g id="a_node5"><a xlink:href="PsyllaReference_Types.xhtml#PsyllaReference_Types_Details_indexed" xlink:title="indexed" target="_parent">
<polygon fill="linen" stroke="black" points="68,-324 0,-324 0,-288 74,-288 74,-318 68,-324"/>
<polyline fill="none" stroke="black" points="68,-324 68,-318 "/>
<polyline fill="none" stroke="black" points="74,-318 68,-318 "/>
<text text-anchor="middle" x="37" y="-302.3" font-family="Consolas, monospace" font-size="14.00">indexed</text>
</a>
</g>
</g>
<!-- indexed&#45;&gt;formaldict -->
<g id="edge4" class="edge">
<title>indexed&#45;&gt;formaldict</title>
<path fill="none" stroke="black" d="M44.84,-287.87C56.02,-263.46 76.63,-218.43 89.81,-189.64"/>
<polygon fill="black" stroke="black" points="93.15,-190.74 94.13,-180.19 86.79,-187.83 93.15,-190.74"/>
</g>
<!-- sequential -->
<g id="node6" class="node">
<title>sequential</title>
<g id="a_node6"><a xlink:href="PsyllaReference_Types.xhtml#PsyllaReference_Types_Details_sequential" xlink:title="sequential" target="_parent">
<polygon fill="linen" stroke="black" points="223.5,-468 130.5,-468 130.5,-432 229.5,-432 229.5,-462 223.5,-468"/>
<polyline fill="none" stroke="black" points="223.5,-468 223.5,-462 "/>
<polyline fill="none" stroke="black" points="229.5,-462 223.5,-462 "/>
<text text-anchor="middle" x="180" y="-446.3" font-family="Consolas, monospace" font-size="14.00">sequential</text>
</a>
</g>
</g>
<!-- sequential&#45;&gt;formaldict -->
<g id="edge5" class="edge">
<title>sequential&#45;&gt;formaldict</title>
<path fill="none" stroke="black" d="M153.03,-431.86C141.09,-422.75 128.15,-410.43 121,-396 87.38,-328.16 92.67,-235.47 98.01,-190.17"/>
<polygon fill="black" stroke="black" points="101.49,-190.58 99.28,-180.22 94.54,-189.7 101.49,-190.58"/>
</g>
<!-- streamable -->
<g id="node11" class="node">
<title>streamable</title>
<g id="a_node11"><a xlink:href="PsyllaReference_Types.xhtml#PsyllaReference_Types_Details_streamable" xlink:title="streamable" target="_parent">
<polygon fill="linen" stroke="black" points="223.5,-396 130.5,-396 130.5,-360 229.5,-360 229.5,-390 223.5,-396"/>
<polyline fill="none" stroke="black" points="223.5,-396 223.5,-390 "/>
<polyline fill="none" stroke="black" points="229.5,-390 223.5,-390 "/>
<text text-anchor="middle" x="180" y="-374.3" font-family="Consolas, monospace" font-size="14.00">streamable</text>
</a>
</g>
</g>
<!-- sequential&#45;&gt;streamable -->
<g id="edge14" class="edge">
<title>sequential&#45;&gt;streamable</title>
<path fill="none" stroke="black" d="M180,-431.7C180,-423.98 180,-414.71 180,-406.11"/>
<polygon fill="black" stroke="black" points="183.5,-406.1 180,-396.1 176.5,-406.1 183.5,-406.1"/>
</g>
<!-- clearable -->
<g id="node7" class="node">
<title>clearable</title>
<g id="a_node7"><a xlink:href="PsyllaReference_Types.xhtml#PsyllaReference_Types_Details_clearable" xlink:title="clearable" target="_parent">
<polygon fill="linen" stroke="black" points="332.5,-396 247.5,-396 247.5,-360 338.5,-360 338.5,-390 332.5,-396"/>
<polyline fill="none" stroke="black" points="332.5,-396 332.5,-390 "/>
<polyline fill="none" stroke="black" points="338.5,-390 332.5,-390 "/>
<text text-anchor="middle" x="293" y="-374.3" font-family="Consolas, monospace" font-size="14.00">clearable</text>
</a>
</g>
</g>
<!-- clearable&#45;&gt;container -->
<g id="edge6" class="edge">
<title>clearable&#45;&gt;container</title>
<path fill="none" stroke="black" d="M286.73,-359.87C277.79,-335.46 261.3,-290.43 250.75,-261.64"/>
<polygon fill="black" stroke="black" points="254.02,-260.38 247.29,-252.19 247.45,-262.78 254.02,-260.38"/>
</g>
<!-- iterable -->
<g id="node8" class="node">
<title>iterable</title>
<g id="a_node8"><a xlink:href="PsyllaReference_Types.xhtml#PsyllaReference_Types_Details_iterable" xlink:title="iterable" target="_parent">
<polygon fill="linen" stroke="black" points="236.5,-324 159.5,-324 159.5,-288 242.5,-288 242.5,-318 236.5,-324"/>
<polyline fill="none" stroke="black" points="236.5,-324 236.5,-318 "/>
<polyline fill="none" stroke="black" points="242.5,-318 236.5,-318 "/>
<text text-anchor="middle" x="201" y="-302.3" font-family="Consolas, monospace" font-size="14.00">iterable</text>
</a>
</g>
</g>
<!-- iterable&#45;&gt;container -->
<g id="edge7" class="edge">
<title>iterable&#45;&gt;container</title>
<path fill="none" stroke="black" d="M210.89,-287.7C215.49,-279.64 221.06,-269.89 226.15,-260.98"/>
<polygon fill="black" stroke="black" points="229.3,-262.52 231.23,-252.1 223.23,-259.05 229.3,-262.52"/>
</g>
<!-- lengthy -->
<g id="node9" class="node">
<title>lengthy</title>
<g id="a_node9"><a xlink:href="PsyllaReference_Types.xhtml#PsyllaReference_Types_Details_lengthy" xlink:title="lengthy" target="_parent">
<polygon fill="linen" stroke="black" points="384,-468 316,-468 316,-432 390,-432 390,-462 384,-468"/>
<polyline fill="none" stroke="black" points="384,-468 384,-462 "/>
<polyline fill="none" stroke="black" points="390,-462 384,-462 "/>
<text text-anchor="middle" x="353" y="-446.3" font-family="Consolas, monospace" font-size="14.00">lengthy</text>
</a>
</g>
</g>
<!-- lengthy&#45;&gt;container -->
<g id="edge8" class="edge">
<title>lengthy&#45;&gt;container</title>
<path fill="none" stroke="black" d="M354.93,-431.9C356.32,-413.44 356.55,-383.54 347,-360 330.43,-319.14 295.08,-281.94 269.75,-258.95"/>
<polygon fill="black" stroke="black" points="272.05,-256.3 262.25,-252.28 267.4,-261.54 272.05,-256.3"/>
</g>
<!-- object -->
<g id="node10" class="node">
<title>object</title>
<g id="a_node10"><a xlink:href="PsyllaReference_Types.xhtml#PsyllaReference_Types_Details_object" xlink:title="object" target="_parent">
<polygon fill="linen" stroke="black" points="246,-540 186,-540 186,-504 252,-504 252,-534 246,-540"/>
<polyline fill="none" stroke="black" points="246,-540 246,-534 "/>
<polyline fill="none" stroke="black" points="252,-534 246,-534 "/>
<text text-anchor="middle" x="219" y="-518.3" font-family="Consolas, monospace" font-size="14.00">object</text>
</a>
</g>
</g>
<!-- object&#45;&gt;indexed -->
<g id="edge9" class="edge">
<title>object&#45;&gt;indexed</title>
<path fill="none" stroke="black" d="M185.84,-508.94C165.19,-500.12 139.19,-486.46 121,-468 82.5,-428.92 57.53,-368.59 45.48,-333.95"/>
<polygon fill="black" stroke="black" points="48.67,-332.43 42.16,-324.07 42.03,-334.67 48.67,-332.43"/>
</g>
<!-- object&#45;&gt;sequential -->
<g id="edge10" class="edge">
<title>object&#45;&gt;sequential</title>
<path fill="none" stroke="black" d="M209.36,-503.7C204.87,-495.64 199.44,-485.89 194.48,-476.98"/>
<polygon fill="black" stroke="black" points="197.45,-475.14 189.53,-468.1 191.34,-478.54 197.45,-475.14"/>
</g>
<!-- object&#45;&gt;clearable -->
<g id="edge11" class="edge">
<title>object&#45;&gt;clearable</title>
<path fill="none" stroke="black" d="M227.93,-503.87C240.7,-479.35 264.32,-434.03 279.32,-405.26"/>
<polygon fill="black" stroke="black" points="282.52,-406.67 284.04,-396.19 276.32,-403.44 282.52,-406.67"/>
</g>
<!-- object&#45;&gt;lengthy -->
<g id="edge13" class="edge">
<title>object&#45;&gt;lengthy</title>
<path fill="none" stroke="black" d="M251.78,-503.88C269.63,-494.55 291.9,-482.92 311,-472.94"/>
<polygon fill="black" stroke="black" points="312.85,-475.92 320.09,-468.19 309.61,-469.72 312.85,-475.92"/>
</g>
<!-- streamable&#45;&gt;iterable -->
<g id="edge12" class="edge">
<title>streamable&#45;&gt;iterable</title>
<path fill="none" stroke="black" d="M185.19,-359.7C187.53,-351.9 190.35,-342.51 192.95,-333.83"/>
<polygon fill="black" stroke="black" points="196.35,-334.69 195.87,-324.1 189.64,-332.68 196.35,-334.69"/>
</g>
</g>
</svg>
