<?xml version="1.0" encoding="UTF-8" standalone="no"?>
<!DOCTYPE svg PUBLIC "-//W3C//DTD SVG 1.1//EN"
 "http://www.w3.org/Graphics/SVG/1.1/DTD/svg11.dtd">
<!-- Generated by graphviz version 2.43.0 (0)
 -->
<!-- Title: numeric Pages: 1 -->
<svg width="192pt" height="260pt"
 viewBox="0.00 0.00 191.50 260.00" xmlns="http://www.w3.org/2000/svg" xmlns:xlink="http://www.w3.org/1999/xlink">
<g id="graph0" class="graph" transform="scale(1 1) rotate(0) translate(4 256)">
<title>numeric</title>
<polygon fill="transparent" stroke="transparent" points="-4,4 -4,-256 187.5,-256 187.5,4 -4,4"/>
<!-- atomic -->
<g id="node1" class="node">
<title>atomic</title>
<g id="a_node1"><a xlink:href="PsyllaReference_Types.xhtml#PsyllaReference_Types_Details_atomic" xlink:title="atomic" target="_parent">
<polygon fill="linen" stroke="black" points="60,-108 0,-108 0,-72 66,-72 66,-102 60,-108"/>
<polyline fill="none" stroke="black" points="60,-108 60,-102 "/>
<polyline fill="none" stroke="black" points="66,-102 60,-102 "/>
<text text-anchor="middle" x="33" y="-86.3" font-family="Consolas, monospace" font-size="14.00">atomic</text>
</a>
</g>
</g>
<!-- numeric -->
<g id="node3" class="node">
<title>numeric</title>
<g id="a_node3"><a xlink:href="PsyllaReference_Types.xhtml#PsyllaReference_Types_Details_numeric" xlink:title="numeric" target="_parent">
<polygon fill="wheat" stroke="black" points="114,-36 46,-36 46,0 120,0 120,-30 114,-36"/>
<polyline fill="none" stroke="black" points="114,-36 114,-30 "/>
<polyline fill="none" stroke="black" points="120,-30 114,-30 "/>
<text text-anchor="middle" x="83" y="-14.3" font-family="Consolas, monospace" font-size="14.00">numeric</text>
</a>
</g>
</g>
<!-- atomic&#45;&gt;numeric -->
<g id="edge1" class="edge">
<title>atomic&#45;&gt;numeric</title>
<path fill="none" stroke="black" d="M45.36,-71.7C51.23,-63.47 58.37,-53.48 64.84,-44.42"/>
<polygon fill="black" stroke="black" points="67.82,-46.28 70.78,-36.1 62.12,-42.21 67.82,-46.28"/>
</g>
<!-- arithmetic -->
<g id="node2" class="node">
<title>arithmetic</title>
<g id="a_node2"><a xlink:href="PsyllaReference_Types.xhtml#PsyllaReference_Types_Details_arithmetic" xlink:title="arithmetic" target="_parent">
<polygon fill="linen" stroke="black" points="177.5,-108 84.5,-108 84.5,-72 183.5,-72 183.5,-102 177.5,-108"/>
<polyline fill="none" stroke="black" points="177.5,-108 177.5,-102 "/>
<polyline fill="none" stroke="black" points="183.5,-102 177.5,-102 "/>
<text text-anchor="middle" x="134" y="-86.3" font-family="Consolas, monospace" font-size="14.00">arithmetic</text>
</a>
</g>
</g>
<!-- arithmetic&#45;&gt;numeric -->
<g id="edge2" class="edge">
<title>arithmetic&#45;&gt;numeric</title>
<path fill="none" stroke="black" d="M121.39,-71.7C115.4,-63.47 108.12,-53.48 101.52,-44.42"/>
<polygon fill="black" stroke="black" points="104.18,-42.13 95.46,-36.1 98.52,-46.25 104.18,-42.13"/>
</g>
<!-- object -->
<g id="node4" class="node">
<title>object</title>
<g id="a_node4"><a xlink:href="PsyllaReference_Types.xhtml#PsyllaReference_Types_Details_object" xlink:title="object" target="_parent">
<polygon fill="linen" stroke="black" points="110,-252 50,-252 50,-216 116,-216 116,-246 110,-252"/>
<polyline fill="none" stroke="black" points="110,-252 110,-246 "/>
<polyline fill="none" stroke="black" points="116,-246 110,-246 "/>
<text text-anchor="middle" x="83" y="-230.3" font-family="Consolas, monospace" font-size="14.00">object</text>
</a>
</g>
</g>
<!-- object&#45;&gt;atomic -->
<g id="edge3" class="edge">
<title>object&#45;&gt;atomic</title>
<path fill="none" stroke="black" d="M76.97,-215.87C68.37,-191.46 52.52,-146.43 42.38,-117.64"/>
<polygon fill="black" stroke="black" points="45.68,-116.46 39.05,-108.19 39.07,-118.78 45.68,-116.46"/>
</g>
<!-- additive -->
<g id="node5" class="node">
<title>additive</title>
<g id="a_node5"><a xlink:href="PsyllaReference_Types.xhtml#PsyllaReference_Types_Details_additive" xlink:title="additive" target="_parent">
<polygon fill="linen" stroke="black" points="161.5,-180 84.5,-180 84.5,-144 167.5,-144 167.5,-174 161.5,-180"/>
<polyline fill="none" stroke="black" points="161.5,-180 161.5,-174 "/>
<polyline fill="none" stroke="black" points="167.5,-174 161.5,-174 "/>
<text text-anchor="middle" x="126" y="-158.3" font-family="Consolas, monospace" font-size="14.00">additive</text>
</a>
</g>
</g>
<!-- object&#45;&gt;additive -->
<g id="edge5" class="edge">
<title>object&#45;&gt;additive</title>
<path fill="none" stroke="black" d="M93.63,-215.7C98.63,-207.56 104.69,-197.69 110.21,-188.7"/>
<polygon fill="black" stroke="black" points="113.24,-190.46 115.49,-180.1 107.28,-186.79 113.24,-190.46"/>
</g>
<!-- additive&#45;&gt;arithmetic -->
<g id="edge4" class="edge">
<title>additive&#45;&gt;arithmetic</title>
<path fill="none" stroke="black" d="M127.98,-143.7C128.86,-135.98 129.92,-126.71 130.9,-118.11"/>
<polygon fill="black" stroke="black" points="134.39,-118.44 132.05,-108.1 127.43,-117.64 134.39,-118.44"/>
</g>
</g>
</svg>
