<?xml version="1.0" encoding="UTF-8" standalone="no"?>
<!DOCTYPE svg PUBLIC "-//W3C//DTD SVG 1.1//EN"
 "http://www.w3.org/Graphics/SVG/1.1/DTD/svg11.dtd">
<!-- Generated by graphviz version 14.0.0 (0)
 -->
<!-- Title: additive Pages: 1 -->
<svg width="63pt" height="116pt"
 viewBox="0.00 0.00 63.00 116.00" xmlns="http://www.w3.org/2000/svg" xmlns:xlink="http://www.w3.org/1999/xlink">
<g id="graph0" class="graph" transform="scale(1 1) rotate(0) translate(4 112)">
<title>additive</title>
<polygon fill="none" stroke="none" points="-4,4 -4,-112 58.65,-112 58.65,4 -4,4"/>
<!-- object -->
<g id="node1" class="node">
<title>object</title>
<g id="a_node1"><a xlink:href="PsyllaReference_Types.xhtml#PsyllaReference_Types_Details_object" xlink:title="object" target="_parent">
<polygon fill="linen" stroke="black" points="48.33,-108 0.33,-108 0.33,-72 54.33,-72 54.33,-102 48.33,-108"/>
<polyline fill="none" stroke="black" points="48.33,-108 48.33,-102"/>
<polyline fill="none" stroke="black" points="54.33,-102 48.33,-102"/>
<text xml:space="preserve" text-anchor="middle" x="27.33" y="-86.4" font-family="Source Code Pro,monospace" font-size="12.00">object</text>
</a>
</g>
</g>
<!-- additive -->
<g id="node2" class="node">
<title>additive</title>
<g id="a_node2"><a xlink:href="PsyllaReference_Types.xhtml#PsyllaReference_Types_Details_additive" xlink:title="additive" target="_parent">
<polygon fill="wheat" stroke="black" points="48.65,-36 0,-36 0,0 54.65,0 54.65,-30 48.65,-36"/>
<polyline fill="none" stroke="black" points="48.65,-36 48.65,-30"/>
<polyline fill="none" stroke="black" points="54.65,-30 48.65,-30"/>
<text xml:space="preserve" text-anchor="middle" x="27.33" y="-14.4" font-family="Source Code Pro,monospace" font-size="12.00">additive</text>
</a>
</g>
</g>
<!-- object&#45;&gt;additive -->
<g id="edge1" class="edge">
<title>object&#45;&gt;additive</title>
<path fill="none" stroke="black" d="M27.33,-71.7C27.33,-64.41 27.33,-55.73 27.33,-47.54"/>
<polygon fill="black" stroke="black" points="30.83,-47.62 27.33,-37.62 23.83,-47.62 30.83,-47.62"/>
</g>
</g>
</svg>
