<?xml version="1.0" encoding="UTF-8" standalone="no"?>
<!DOCTYPE svg PUBLIC "-//W3C//DTD SVG 1.1//EN"
 "http://www.w3.org/Graphics/SVG/1.1/DTD/svg11.dtd">
<!-- Generated by graphviz version 2.43.0 (0)
 -->
<!-- Title: biginteger Pages: 1 -->
<svg width="288pt" height="476pt"
 viewBox="0.00 0.00 287.50 476.00" xmlns="http://www.w3.org/2000/svg" xmlns:xlink="http://www.w3.org/1999/xlink">
<g id="graph0" class="graph" transform="scale(1 1) rotate(0) translate(4 472)">
<title>biginteger</title>
<polygon fill="transparent" stroke="transparent" points="-4,4 -4,-472 283.5,-472 283.5,4 -4,4"/>
<!-- bitwise -->
<g id="node1" class="node">
<title>bitwise</title>
<g id="a_node1"><a xlink:href="PsyllaReference_Types.xhtml#PsyllaReference_Types_Details_bitwise" xlink:title="bitwise" target="_parent">
<polygon fill="linen" stroke="black" points="259.5,-324 206.5,-324 206.5,-288 265.5,-288 265.5,-318 259.5,-324"/>
<polyline fill="none" stroke="black" points="259.5,-324 259.5,-318 "/>
<polyline fill="none" stroke="black" points="265.5,-318 259.5,-318 "/>
<text text-anchor="middle" x="236" y="-303.5" font-family="PT Mono, monospace" font-size="10.00">bitwise</text>
</a>
</g>
</g>
<!-- integral -->
<g id="node2" class="node">
<title>integral</title>
<g id="a_node2"><a xlink:href="PsyllaReference_Types.xhtml#PsyllaReference_Types_Details_integral" xlink:title="integral" target="_parent">
<polygon fill="linen" stroke="black" points="237.5,-108 178.5,-108 178.5,-72 243.5,-72 243.5,-102 237.5,-108"/>
<polyline fill="none" stroke="black" points="237.5,-108 237.5,-102 "/>
<polyline fill="none" stroke="black" points="243.5,-102 237.5,-102 "/>
<text text-anchor="middle" x="211" y="-87.5" font-family="PT Mono, monospace" font-size="10.00">integral</text>
</a>
</g>
</g>
<!-- bitwise&#45;&gt;integral -->
<g id="edge4" class="edge">
<title>bitwise&#45;&gt;integral</title>
<path fill="none" stroke="black" d="M234,-287.85C229.67,-250.83 219.43,-163.18 214.2,-118.39"/>
<polygon fill="black" stroke="black" points="217.65,-117.76 213.01,-108.23 210.7,-118.57 217.65,-117.76"/>
</g>
<!-- biginteger -->
<g id="node3" class="node">
<title>biginteger</title>
<g id="a_node3"><a xlink:href="PsyllaReference_Types.xhtml#PsyllaReference_Types_Details_biginteger" xlink:title="biginteger" target="_parent">
<polygon fill="wheat" stroke="black" points="273.5,-36 202.5,-36 202.5,0 279.5,0 279.5,-30 273.5,-36"/>
<polyline fill="none" stroke="black" points="273.5,-36 273.5,-30 "/>
<polyline fill="none" stroke="black" points="279.5,-30 273.5,-30 "/>
<text text-anchor="middle" x="241" y="-15.5" font-family="PT Mono, monospace" font-size="10.00">biginteger</text>
</a>
</g>
</g>
<!-- bitwise&#45;&gt;biginteger -->
<g id="edge1" class="edge">
<title>bitwise&#45;&gt;biginteger</title>
<path fill="none" stroke="black" d="M239.43,-287.71C246.64,-249 261.99,-152.41 253,-72 252.04,-63.43 250.24,-54.22 248.31,-45.93"/>
<polygon fill="black" stroke="black" points="251.66,-44.89 245.87,-36.02 244.87,-46.57 251.66,-44.89"/>
</g>
<!-- integral&#45;&gt;biginteger -->
<g id="edge2" class="edge">
<title>integral&#45;&gt;biginteger</title>
<path fill="none" stroke="black" d="M218.42,-71.7C221.79,-63.81 225.87,-54.3 229.62,-45.55"/>
<polygon fill="black" stroke="black" points="232.95,-46.67 233.67,-36.1 226.51,-43.92 232.95,-46.67"/>
</g>
<!-- logical -->
<g id="node4" class="node">
<title>logical</title>
<g id="a_node4"><a xlink:href="PsyllaReference_Types.xhtml#PsyllaReference_Types_Details_logical" xlink:title="logical" target="_parent">
<polygon fill="linen" stroke="black" points="259.5,-396 206.5,-396 206.5,-360 265.5,-360 265.5,-390 259.5,-396"/>
<polyline fill="none" stroke="black" points="259.5,-396 259.5,-390 "/>
<polyline fill="none" stroke="black" points="265.5,-390 259.5,-390 "/>
<text text-anchor="middle" x="236" y="-375.5" font-family="PT Mono, monospace" font-size="10.00">logical</text>
</a>
</g>
</g>
<!-- logical&#45;&gt;bitwise -->
<g id="edge3" class="edge">
<title>logical&#45;&gt;bitwise</title>
<path fill="none" stroke="black" d="M236,-359.7C236,-351.98 236,-342.71 236,-334.11"/>
<polygon fill="black" stroke="black" points="239.5,-334.1 236,-324.1 232.5,-334.1 239.5,-334.1"/>
</g>
<!-- realnumeric -->
<g id="node5" class="node">
<title>realnumeric</title>
<g id="a_node5"><a xlink:href="PsyllaReference_Types.xhtml#PsyllaReference_Types_Details_realnumeric" xlink:title="realnumeric" target="_parent">
<polygon fill="linen" stroke="black" points="199.5,-180 122.5,-180 122.5,-144 205.5,-144 205.5,-174 199.5,-180"/>
<polyline fill="none" stroke="black" points="199.5,-180 199.5,-174 "/>
<polyline fill="none" stroke="black" points="205.5,-174 199.5,-174 "/>
<text text-anchor="middle" x="164" y="-159.5" font-family="PT Mono, monospace" font-size="10.00">realnumeric</text>
</a>
</g>
</g>
<!-- realnumeric&#45;&gt;integral -->
<g id="edge5" class="edge">
<title>realnumeric&#45;&gt;integral</title>
<path fill="none" stroke="black" d="M175.62,-143.7C181.14,-135.47 187.85,-125.48 193.93,-116.42"/>
<polygon fill="black" stroke="black" points="196.85,-118.36 199.52,-108.1 191.04,-114.46 196.85,-118.36"/>
</g>
<!-- object -->
<g id="node6" class="node">
<title>object</title>
<g id="a_node6"><a xlink:href="PsyllaReference_Types.xhtml#PsyllaReference_Types_Details_object" xlink:title="object" target="_parent">
<polygon fill="linen" stroke="black" points="168,-468 120,-468 120,-432 174,-432 174,-462 168,-468"/>
<polyline fill="none" stroke="black" points="168,-468 168,-462 "/>
<polyline fill="none" stroke="black" points="174,-462 168,-462 "/>
<text text-anchor="middle" x="147" y="-447.5" font-family="PT Mono, monospace" font-size="10.00">object</text>
</a>
</g>
</g>
<!-- object&#45;&gt;logical -->
<g id="edge6" class="edge">
<title>object&#45;&gt;logical</title>
<path fill="none" stroke="black" d="M169,-431.7C180.21,-422.88 194,-412.03 206.15,-402.47"/>
<polygon fill="black" stroke="black" points="208.56,-405.04 214.25,-396.1 204.23,-399.54 208.56,-405.04"/>
</g>
<!-- scalar -->
<g id="node8" class="node">
<title>scalar</title>
<g id="a_node8"><a xlink:href="PsyllaReference_Types.xhtml#PsyllaReference_Types_Details_scalar" xlink:title="scalar" target="_parent">
<polygon fill="linen" stroke="black" points="199,-252 151,-252 151,-216 205,-216 205,-246 199,-252"/>
<polyline fill="none" stroke="black" points="199,-252 199,-246 "/>
<polyline fill="none" stroke="black" points="205,-246 199,-246 "/>
<text text-anchor="middle" x="178" y="-231.5" font-family="PT Mono, monospace" font-size="10.00">scalar</text>
</a>
</g>
</g>
<!-- object&#45;&gt;scalar -->
<g id="edge11" class="edge">
<title>object&#45;&gt;scalar</title>
<path fill="none" stroke="black" d="M149.63,-431.82C151.21,-421.45 153.24,-407.97 155,-396 161.89,-349.07 169.65,-294.39 174.16,-262.35"/>
<polygon fill="black" stroke="black" points="177.63,-262.79 175.56,-252.4 170.7,-261.81 177.63,-262.79"/>
</g>
<!-- atomic -->
<g id="node9" class="node">
<title>atomic</title>
<g id="a_node9"><a xlink:href="PsyllaReference_Types.xhtml#PsyllaReference_Types_Details_atomic" xlink:title="atomic" target="_parent">
<polygon fill="linen" stroke="black" points="48,-324 0,-324 0,-288 54,-288 54,-318 48,-324"/>
<polyline fill="none" stroke="black" points="48,-324 48,-318 "/>
<polyline fill="none" stroke="black" points="54,-318 48,-318 "/>
<text text-anchor="middle" x="27" y="-303.5" font-family="PT Mono, monospace" font-size="10.00">atomic</text>
</a>
</g>
</g>
<!-- object&#45;&gt;atomic -->
<g id="edge12" class="edge">
<title>object&#45;&gt;atomic</title>
<path fill="none" stroke="black" d="M119.86,-434.31C104.37,-424.91 85.44,-411.57 72,-396 56.08,-377.55 44.07,-352.5 36.48,-333.67"/>
<polygon fill="black" stroke="black" points="39.68,-332.26 32.81,-324.2 33.16,-334.79 39.68,-332.26"/>
</g>
<!-- additive -->
<g id="node11" class="node">
<title>additive</title>
<g id="a_node11"><a xlink:href="PsyllaReference_Types.xhtml#PsyllaReference_Types_Details_additive" xlink:title="additive" target="_parent">
<polygon fill="linen" stroke="black" points="140.5,-396 81.5,-396 81.5,-360 146.5,-360 146.5,-390 140.5,-396"/>
<polyline fill="none" stroke="black" points="140.5,-396 140.5,-390 "/>
<polyline fill="none" stroke="black" points="146.5,-390 140.5,-390 "/>
<text text-anchor="middle" x="114" y="-375.5" font-family="PT Mono, monospace" font-size="10.00">additive</text>
</a>
</g>
</g>
<!-- object&#45;&gt;additive -->
<g id="edge14" class="edge">
<title>object&#45;&gt;additive</title>
<path fill="none" stroke="black" d="M138.84,-431.7C135.09,-423.73 130.55,-414.1 126.38,-405.26"/>
<polygon fill="black" stroke="black" points="129.49,-403.66 122.06,-396.1 123.16,-406.64 129.49,-403.66"/>
</g>
<!-- numeric -->
<g id="node7" class="node">
<title>numeric</title>
<g id="a_node7"><a xlink:href="PsyllaReference_Types.xhtml#PsyllaReference_Types_Details_numeric" xlink:title="numeric" target="_parent">
<polygon fill="linen" stroke="black" points="126.5,-252 73.5,-252 73.5,-216 132.5,-216 132.5,-246 126.5,-252"/>
<polyline fill="none" stroke="black" points="126.5,-252 126.5,-246 "/>
<polyline fill="none" stroke="black" points="132.5,-246 126.5,-246 "/>
<text text-anchor="middle" x="103" y="-231.5" font-family="PT Mono, monospace" font-size="10.00">numeric</text>
</a>
</g>
</g>
<!-- numeric&#45;&gt;realnumeric -->
<g id="edge7" class="edge">
<title>numeric&#45;&gt;realnumeric</title>
<path fill="none" stroke="black" d="M118.08,-215.7C125.39,-207.3 134.31,-197.07 142.34,-187.86"/>
<polygon fill="black" stroke="black" points="145.16,-189.94 149.09,-180.1 139.89,-185.34 145.16,-189.94"/>
</g>
<!-- scalar&#45;&gt;realnumeric -->
<g id="edge8" class="edge">
<title>scalar&#45;&gt;realnumeric</title>
<path fill="none" stroke="black" d="M174.54,-215.7C173,-207.98 171.14,-198.71 169.42,-190.11"/>
<polygon fill="black" stroke="black" points="172.81,-189.22 167.42,-180.1 165.95,-190.6 172.81,-189.22"/>
</g>
<!-- atomic&#45;&gt;numeric -->
<g id="edge9" class="edge">
<title>atomic&#45;&gt;numeric</title>
<path fill="none" stroke="black" d="M45.79,-287.7C55.17,-279.05 66.68,-268.45 76.91,-259.03"/>
<polygon fill="black" stroke="black" points="79.45,-261.45 84.43,-252.1 74.7,-256.3 79.45,-261.45"/>
</g>
<!-- arithmetic -->
<g id="node10" class="node">
<title>arithmetic</title>
<g id="a_node10"><a xlink:href="PsyllaReference_Types.xhtml#PsyllaReference_Types_Details_arithmetic" xlink:title="arithmetic" target="_parent">
<polygon fill="linen" stroke="black" points="143.5,-324 72.5,-324 72.5,-288 149.5,-288 149.5,-318 143.5,-324"/>
<polyline fill="none" stroke="black" points="143.5,-324 143.5,-318 "/>
<polyline fill="none" stroke="black" points="149.5,-318 143.5,-318 "/>
<text text-anchor="middle" x="111" y="-303.5" font-family="PT Mono, monospace" font-size="10.00">arithmetic</text>
</a>
</g>
</g>
<!-- arithmetic&#45;&gt;numeric -->
<g id="edge10" class="edge">
<title>arithmetic&#45;&gt;numeric</title>
<path fill="none" stroke="black" d="M109.02,-287.7C108.14,-279.98 107.08,-270.71 106.1,-262.11"/>
<polygon fill="black" stroke="black" points="109.57,-261.64 104.95,-252.1 102.61,-262.44 109.57,-261.64"/>
</g>
<!-- additive&#45;&gt;arithmetic -->
<g id="edge13" class="edge">
<title>additive&#45;&gt;arithmetic</title>
<path fill="none" stroke="black" d="M113.26,-359.7C112.93,-351.98 112.53,-342.71 112.16,-334.11"/>
<polygon fill="black" stroke="black" points="115.66,-333.95 111.73,-324.1 108.66,-334.25 115.66,-333.95"/>
</g>
</g>
</svg>
