<?xml version="1.0" encoding="UTF-8" standalone="no"?>
<!DOCTYPE svg PUBLIC "-//W3C//DTD SVG 1.1//EN"
 "http://www.w3.org/Graphics/SVG/1.1/DTD/svg11.dtd">
<!-- Generated by graphviz version 2.43.0 (0)
 -->
<!-- Title: realnumeric Pages: 1 -->
<svg width="238pt" height="332pt"
 viewBox="0.00 0.00 237.50 332.00" xmlns="http://www.w3.org/2000/svg" xmlns:xlink="http://www.w3.org/1999/xlink">
<g id="graph0" class="graph" transform="scale(1 1) rotate(0) translate(4 328)">
<title>realnumeric</title>
<polygon fill="transparent" stroke="transparent" points="-4,4 -4,-328 233.5,-328 233.5,4 -4,4"/>
<!-- numeric -->
<g id="node1" class="node">
<title>numeric</title>
<g id="a_node1"><a xlink:href="PsyllaReference_Types.xhtml#PsyllaReference_Types_Details_numeric" xlink:title="numeric" target="_parent">
<polygon fill="linen" stroke="black" points="129,-108 61,-108 61,-72 135,-72 135,-102 129,-108"/>
<polyline fill="none" stroke="black" points="129,-108 129,-102 "/>
<polyline fill="none" stroke="black" points="135,-102 129,-102 "/>
<text text-anchor="middle" x="98" y="-86.3" font-family="Consolas, monospace" font-size="14.00">numeric</text>
</a>
</g>
</g>
<!-- realnumeric -->
<g id="node3" class="node">
<title>realnumeric</title>
<g id="a_node3"><a xlink:href="PsyllaReference_Types.xhtml#PsyllaReference_Types_Details_realnumeric" xlink:title="realnumeric" target="_parent">
<polygon fill="wheat" stroke="black" points="112.5,-36 11.5,-36 11.5,0 118.5,0 118.5,-30 112.5,-36"/>
<polyline fill="none" stroke="black" points="112.5,-36 112.5,-30 "/>
<polyline fill="none" stroke="black" points="118.5,-30 112.5,-30 "/>
<text text-anchor="middle" x="65" y="-14.3" font-family="Consolas, monospace" font-size="14.00">realnumeric</text>
</a>
</g>
</g>
<!-- numeric&#45;&gt;realnumeric -->
<g id="edge1" class="edge">
<title>numeric&#45;&gt;realnumeric</title>
<path fill="none" stroke="black" d="M89.84,-71.7C86.09,-63.73 81.55,-54.1 77.38,-45.26"/>
<polygon fill="black" stroke="black" points="80.49,-43.66 73.06,-36.1 74.16,-46.64 80.49,-43.66"/>
</g>
<!-- scalar -->
<g id="node2" class="node">
<title>scalar</title>
<g id="a_node2"><a xlink:href="PsyllaReference_Types.xhtml#PsyllaReference_Types_Details_scalar" xlink:title="scalar" target="_parent">
<polygon fill="linen" stroke="black" points="60,-180 0,-180 0,-144 66,-144 66,-174 60,-180"/>
<polyline fill="none" stroke="black" points="60,-180 60,-174 "/>
<polyline fill="none" stroke="black" points="66,-174 60,-174 "/>
<text text-anchor="middle" x="33" y="-158.3" font-family="Consolas, monospace" font-size="14.00">scalar</text>
</a>
</g>
</g>
<!-- scalar&#45;&gt;realnumeric -->
<g id="edge2" class="edge">
<title>scalar&#45;&gt;realnumeric</title>
<path fill="none" stroke="black" d="M36.49,-143.9C40.19,-125.96 46.28,-96.95 52,-72 53.94,-63.56 56.15,-54.39 58.19,-46.09"/>
<polygon fill="black" stroke="black" points="61.64,-46.7 60.65,-36.15 54.85,-45.02 61.64,-46.7"/>
</g>
<!-- atomic -->
<g id="node4" class="node">
<title>atomic</title>
<g id="a_node4"><a xlink:href="PsyllaReference_Types.xhtml#PsyllaReference_Types_Details_atomic" xlink:title="atomic" target="_parent">
<polygon fill="linen" stroke="black" points="121,-252 61,-252 61,-216 127,-216 127,-246 121,-252"/>
<polyline fill="none" stroke="black" points="121,-252 121,-246 "/>
<polyline fill="none" stroke="black" points="127,-246 121,-246 "/>
<text text-anchor="middle" x="94" y="-230.3" font-family="Consolas, monospace" font-size="14.00">atomic</text>
</a>
</g>
</g>
<!-- atomic&#45;&gt;numeric -->
<g id="edge3" class="edge">
<title>atomic&#45;&gt;numeric</title>
<path fill="none" stroke="black" d="M94.48,-215.87C95.16,-191.67 96.42,-147.21 97.23,-118.39"/>
<polygon fill="black" stroke="black" points="100.73,-118.28 97.52,-108.19 93.74,-118.09 100.73,-118.28"/>
</g>
<!-- arithmetic -->
<g id="node5" class="node">
<title>arithmetic</title>
<g id="a_node5"><a xlink:href="PsyllaReference_Types.xhtml#PsyllaReference_Types_Details_arithmetic" xlink:title="arithmetic" target="_parent">
<polygon fill="linen" stroke="black" points="223.5,-180 130.5,-180 130.5,-144 229.5,-144 229.5,-174 223.5,-180"/>
<polyline fill="none" stroke="black" points="223.5,-180 223.5,-174 "/>
<polyline fill="none" stroke="black" points="229.5,-174 223.5,-174 "/>
<text text-anchor="middle" x="180" y="-158.3" font-family="Consolas, monospace" font-size="14.00">arithmetic</text>
</a>
</g>
</g>
<!-- arithmetic&#45;&gt;numeric -->
<g id="edge4" class="edge">
<title>arithmetic&#45;&gt;numeric</title>
<path fill="none" stroke="black" d="M159.73,-143.7C149.5,-134.97 136.94,-124.24 125.82,-114.75"/>
<polygon fill="black" stroke="black" points="127.91,-111.94 118.04,-108.1 123.37,-117.26 127.91,-111.94"/>
</g>
<!-- object -->
<g id="node6" class="node">
<title>object</title>
<g id="a_node6"><a xlink:href="PsyllaReference_Types.xhtml#PsyllaReference_Types_Details_object" xlink:title="object" target="_parent">
<polygon fill="linen" stroke="black" points="121,-324 61,-324 61,-288 127,-288 127,-318 121,-324"/>
<polyline fill="none" stroke="black" points="121,-324 121,-318 "/>
<polyline fill="none" stroke="black" points="127,-318 121,-318 "/>
<text text-anchor="middle" x="94" y="-302.3" font-family="Consolas, monospace" font-size="14.00">object</text>
</a>
</g>
</g>
<!-- object&#45;&gt;scalar -->
<g id="edge5" class="edge">
<title>object&#45;&gt;scalar</title>
<path fill="none" stroke="black" d="M76.96,-287.76C68.25,-278.02 58.2,-265.17 52,-252 42.77,-232.4 37.98,-208.27 35.52,-190.08"/>
<polygon fill="black" stroke="black" points="38.99,-189.65 34.32,-180.14 32.04,-190.49 38.99,-189.65"/>
</g>
<!-- object&#45;&gt;atomic -->
<g id="edge6" class="edge">
<title>object&#45;&gt;atomic</title>
<path fill="none" stroke="black" d="M94,-287.7C94,-279.98 94,-270.71 94,-262.11"/>
<polygon fill="black" stroke="black" points="97.5,-262.1 94,-252.1 90.5,-262.1 97.5,-262.1"/>
</g>
<!-- additive -->
<g id="node7" class="node">
<title>additive</title>
<g id="a_node7"><a xlink:href="PsyllaReference_Types.xhtml#PsyllaReference_Types_Details_additive" xlink:title="additive" target="_parent">
<polygon fill="linen" stroke="black" points="222.5,-252 145.5,-252 145.5,-216 228.5,-216 228.5,-246 222.5,-252"/>
<polyline fill="none" stroke="black" points="222.5,-252 222.5,-246 "/>
<polyline fill="none" stroke="black" points="228.5,-246 222.5,-246 "/>
<text text-anchor="middle" x="187" y="-230.3" font-family="Consolas, monospace" font-size="14.00">additive</text>
</a>
</g>
</g>
<!-- object&#45;&gt;additive -->
<g id="edge8" class="edge">
<title>object&#45;&gt;additive</title>
<path fill="none" stroke="black" d="M116.99,-287.7C128.81,-278.8 143.39,-267.82 156.18,-258.2"/>
<polygon fill="black" stroke="black" points="158.39,-260.91 164.28,-252.1 154.18,-255.32 158.39,-260.91"/>
</g>
<!-- additive&#45;&gt;arithmetic -->
<g id="edge7" class="edge">
<title>additive&#45;&gt;arithmetic</title>
<path fill="none" stroke="black" d="M185.27,-215.7C184.5,-207.98 183.57,-198.71 182.71,-190.11"/>
<polygon fill="black" stroke="black" points="186.19,-189.71 181.71,-180.1 179.22,-190.4 186.19,-189.71"/>
</g>
</g>
</svg>
