<?xml version="1.0" encoding="UTF-8" standalone="no"?>
<!DOCTYPE svg PUBLIC "-//W3C//DTD SVG 1.1//EN"
 "http://www.w3.org/Graphics/SVG/1.1/DTD/svg11.dtd">
<!-- Generated by graphviz version 2.43.0 (0)
 -->
<!-- Title: ready Pages: 1 -->
<svg width="97pt" height="116pt"
 viewBox="0.00 0.00 97.00 116.00" xmlns="http://www.w3.org/2000/svg" xmlns:xlink="http://www.w3.org/1999/xlink">
<g id="graph0" class="graph" transform="scale(1 1) rotate(0) translate(4 112)">
<title>ready</title>
<polygon fill="transparent" stroke="transparent" points="-4,4 -4,-112 93,-112 93,4 -4,4"/>
<!-- object -->
<g id="node1" class="node">
<title>object</title>
<g id="a_node1"><a xlink:href="PsyllaReference_Types.xhtml#PsyllaReference_Types_Details_object" xlink:title="object" target="_parent">
<polygon fill="linen" stroke="black" points="83,-108 0,-108 0,-72 89,-72 89,-102 83,-108"/>
<polyline fill="none" stroke="black" points="83,-108 83,-102 "/>
<polyline fill="none" stroke="black" points="89,-102 83,-102 "/>
<text text-anchor="middle" x="44.5" y="-85" font-family="PT Mono, monospace" font-size="20.00">object</text>
</a>
</g>
</g>
<!-- ready -->
<g id="node2" class="node">
<title>ready</title>
<g id="a_node2"><a xlink:href="PsyllaReference_Types.xhtml#PsyllaReference_Types_Details_ready" xlink:title="ready" target="_parent">
<polygon fill="wheat" stroke="black" points="77,-36 6,-36 6,0 83,0 83,-30 77,-36"/>
<polyline fill="none" stroke="black" points="77,-36 77,-30 "/>
<polyline fill="none" stroke="black" points="83,-30 77,-30 "/>
<text text-anchor="middle" x="44.5" y="-13" font-family="PT Mono, monospace" font-size="20.00">ready</text>
</a>
</g>
</g>
<!-- object&#45;&gt;ready -->
<g id="edge1" class="edge">
<title>object&#45;&gt;ready</title>
<path fill="none" stroke="black" d="M44.5,-71.7C44.5,-63.98 44.5,-54.71 44.5,-46.11"/>
<polygon fill="black" stroke="black" points="48,-46.1 44.5,-36.1 41,-46.1 48,-46.1"/>
</g>
</g>
</svg>
