<?xml version="1.0" encoding="UTF-8" standalone="no"?>
<!DOCTYPE svg PUBLIC "-//W3C//DTD SVG 1.1//EN"
 "http://www.w3.org/Graphics/SVG/1.1/DTD/svg11.dtd">
<!-- Generated by graphviz version 2.43.0 (0)
 -->
<!-- Title: boolean Pages: 1 -->
<svg width="230pt" height="188pt"
 viewBox="0.00 0.00 229.50 188.00" xmlns="http://www.w3.org/2000/svg" xmlns:xlink="http://www.w3.org/1999/xlink">
<g id="graph0" class="graph" transform="scale(1 1) rotate(0) translate(4 184)">
<title>boolean</title>
<polygon fill="transparent" stroke="transparent" points="-4,4 -4,-184 225.5,-184 225.5,4 -4,4"/>
<!-- logical -->
<g id="node1" class="node">
<title>logical</title>
<g id="a_node1"><a xlink:href="PsyllaReference_Types.xhtml#PsyllaReference_Types_Details_logical" xlink:title="logical" target="_parent">
<polygon fill="linen" stroke="black" points="63,-108 0,-108 0,-72 69,-72 69,-102 63,-108"/>
<polyline fill="none" stroke="black" points="63,-108 63,-102 "/>
<polyline fill="none" stroke="black" points="69,-102 63,-102 "/>
<text text-anchor="middle" x="34.5" y="-86.9" font-family="Source Code Pro,monospace" font-size="12.00">logical</text>
</a>
</g>
</g>
<!-- boolean -->
<g id="node4" class="node">
<title>boolean</title>
<g id="a_node4"><a xlink:href="PsyllaReference_Types.xhtml#PsyllaReference_Types_Details_boolean" xlink:title="boolean" target="_parent">
<polygon fill="wheat" stroke="black" points="147,-36 84,-36 84,0 153,0 153,-30 147,-36"/>
<polyline fill="none" stroke="black" points="147,-36 147,-30 "/>
<polyline fill="none" stroke="black" points="153,-30 147,-30 "/>
<text text-anchor="middle" x="118.5" y="-14.9" font-family="Source Code Pro,monospace" font-size="12.00">boolean</text>
</a>
</g>
</g>
<!-- logical&#45;&gt;boolean -->
<g id="edge1" class="edge">
<title>logical&#45;&gt;boolean</title>
<path fill="none" stroke="black" d="M55.26,-71.7C65.74,-62.97 78.61,-52.24 90,-42.75"/>
<polygon fill="black" stroke="black" points="92.53,-45.19 97.97,-36.1 88.05,-39.82 92.53,-45.19"/>
</g>
<!-- scalar -->
<g id="node2" class="node">
<title>scalar</title>
<g id="a_node2"><a xlink:href="PsyllaReference_Types.xhtml#PsyllaReference_Types_Details_scalar" xlink:title="scalar" target="_parent">
<polygon fill="linen" stroke="black" points="143.5,-108 87.5,-108 87.5,-72 149.5,-72 149.5,-102 143.5,-108"/>
<polyline fill="none" stroke="black" points="143.5,-108 143.5,-102 "/>
<polyline fill="none" stroke="black" points="149.5,-102 143.5,-102 "/>
<text text-anchor="middle" x="118.5" y="-86.9" font-family="Source Code Pro,monospace" font-size="12.00">scalar</text>
</a>
</g>
</g>
<!-- scalar&#45;&gt;boolean -->
<g id="edge2" class="edge">
<title>scalar&#45;&gt;boolean</title>
<path fill="none" stroke="black" d="M118.5,-71.7C118.5,-63.98 118.5,-54.71 118.5,-46.11"/>
<polygon fill="black" stroke="black" points="122,-46.1 118.5,-36.1 115,-46.1 122,-46.1"/>
</g>
<!-- value -->
<g id="node3" class="node">
<title>value</title>
<g id="a_node3"><a xlink:href="PsyllaReference_Types.xhtml#PsyllaReference_Types_Details_value" xlink:title="value" target="_parent">
<polygon fill="linen" stroke="black" points="215.5,-108 167.5,-108 167.5,-72 221.5,-72 221.5,-102 215.5,-108"/>
<polyline fill="none" stroke="black" points="215.5,-108 215.5,-102 "/>
<polyline fill="none" stroke="black" points="221.5,-102 215.5,-102 "/>
<text text-anchor="middle" x="194.5" y="-86.9" font-family="Source Code Pro,monospace" font-size="12.00">value</text>
</a>
</g>
</g>
<!-- value&#45;&gt;boolean -->
<g id="edge3" class="edge">
<title>value&#45;&gt;boolean</title>
<path fill="none" stroke="black" d="M175.71,-71.7C166.33,-63.05 154.82,-52.45 144.59,-43.03"/>
<polygon fill="black" stroke="black" points="146.8,-40.3 137.07,-36.1 142.05,-45.45 146.8,-40.3"/>
</g>
<!-- object -->
<g id="node5" class="node">
<title>object</title>
<g id="a_node5"><a xlink:href="PsyllaReference_Types.xhtml#PsyllaReference_Types_Details_object" xlink:title="object" target="_parent">
<polygon fill="linen" stroke="black" points="143.5,-180 87.5,-180 87.5,-144 149.5,-144 149.5,-174 143.5,-180"/>
<polyline fill="none" stroke="black" points="143.5,-180 143.5,-174 "/>
<polyline fill="none" stroke="black" points="149.5,-174 143.5,-174 "/>
<text text-anchor="middle" x="118.5" y="-158.9" font-family="Source Code Pro,monospace" font-size="12.00">object</text>
</a>
</g>
</g>
<!-- object&#45;&gt;logical -->
<g id="edge4" class="edge">
<title>object&#45;&gt;logical</title>
<path fill="none" stroke="black" d="M97.74,-143.7C87.26,-134.97 74.39,-124.24 63,-114.75"/>
<polygon fill="black" stroke="black" points="64.95,-111.82 55.03,-108.1 60.47,-117.19 64.95,-111.82"/>
</g>
<!-- object&#45;&gt;scalar -->
<g id="edge5" class="edge">
<title>object&#45;&gt;scalar</title>
<path fill="none" stroke="black" d="M118.5,-143.7C118.5,-135.98 118.5,-126.71 118.5,-118.11"/>
<polygon fill="black" stroke="black" points="122,-118.1 118.5,-108.1 115,-118.1 122,-118.1"/>
</g>
<!-- object&#45;&gt;value -->
<g id="edge6" class="edge">
<title>object&#45;&gt;value</title>
<path fill="none" stroke="black" d="M137.29,-143.7C146.67,-135.05 158.18,-124.45 168.41,-115.03"/>
<polygon fill="black" stroke="black" points="170.95,-117.45 175.93,-108.1 166.2,-112.3 170.95,-117.45"/>
</g>
</g>
</svg>
