<?xml version="1.0" encoding="UTF-8" standalone="no"?>
<!DOCTYPE svg PUBLIC "-//W3C//DTD SVG 1.1//EN"
 "http://www.w3.org/Graphics/SVG/1.1/DTD/svg11.dtd">
<!-- Generated by graphviz version 2.43.0 (0)
 -->
<!-- Title: bitset Pages: 1 -->
<svg width="458pt" height="476pt"
 viewBox="0.00 0.00 458.00 476.00" xmlns="http://www.w3.org/2000/svg" xmlns:xlink="http://www.w3.org/1999/xlink">
<g id="graph0" class="graph" transform="scale(1 1) rotate(0) translate(4 472)">
<title>bitset</title>
<polygon fill="transparent" stroke="transparent" points="-4,4 -4,-472 454,-472 454,4 -4,4"/>
<!-- formalset -->
<g id="node1" class="node">
<title>formalset</title>
<g id="a_node1"><a xlink:href="PsyllaReference_Types.xhtml#PsyllaReference_Types_Details_formalset" xlink:title="formalset" target="_parent">
<polygon fill="linen" stroke="black" points="173,-108 54,-108 54,-72 179,-72 179,-102 173,-108"/>
<polyline fill="none" stroke="black" points="173,-108 173,-102 "/>
<polyline fill="none" stroke="black" points="179,-102 173,-102 "/>
<text text-anchor="middle" x="116.5" y="-85" font-family="PT Mono, monospace" font-size="20.00">formalset</text>
</a>
</g>
</g>
<!-- bitset -->
<g id="node2" class="node">
<title>bitset</title>
<g id="a_node2"><a xlink:href="PsyllaReference_Types.xhtml#PsyllaReference_Types_Details_bitset" xlink:title="bitset" target="_parent">
<polygon fill="wheat" stroke="black" points="155,-36 72,-36 72,0 161,0 161,-30 155,-36"/>
<polyline fill="none" stroke="black" points="155,-36 155,-30 "/>
<polyline fill="none" stroke="black" points="161,-30 155,-30 "/>
<text text-anchor="middle" x="116.5" y="-13" font-family="PT Mono, monospace" font-size="20.00">bitset</text>
</a>
</g>
</g>
<!-- formalset&#45;&gt;bitset -->
<g id="edge1" class="edge">
<title>formalset&#45;&gt;bitset</title>
<path fill="none" stroke="black" d="M116.5,-71.7C116.5,-63.98 116.5,-54.71 116.5,-46.11"/>
<polygon fill="black" stroke="black" points="120,-46.1 116.5,-36.1 113,-46.1 120,-46.1"/>
</g>
<!-- appendable -->
<g id="node3" class="node">
<title>appendable</title>
<g id="a_node3"><a xlink:href="PsyllaReference_Types.xhtml#PsyllaReference_Types_Details_appendable" xlink:title="appendable" target="_parent">
<polygon fill="linen" stroke="black" points="131,-324 0,-324 0,-288 137,-288 137,-318 131,-324"/>
<polyline fill="none" stroke="black" points="131,-324 131,-318 "/>
<polyline fill="none" stroke="black" points="137,-318 131,-318 "/>
<text text-anchor="middle" x="68.5" y="-301" font-family="PT Mono, monospace" font-size="20.00">appendable</text>
</a>
</g>
</g>
<!-- appendable&#45;&gt;formalset -->
<g id="edge2" class="edge">
<title>appendable&#45;&gt;formalset</title>
<path fill="none" stroke="black" d="M72.35,-287.85C80.67,-250.75 100.39,-162.81 110.42,-118.1"/>
<polygon fill="black" stroke="black" points="113.86,-118.76 112.63,-108.23 107.03,-117.22 113.86,-118.76"/>
</g>
<!-- container -->
<g id="node4" class="node">
<title>container</title>
<g id="a_node4"><a xlink:href="PsyllaReference_Types.xhtml#PsyllaReference_Types_Details_container" xlink:title="container" target="_parent">
<polygon fill="linen" stroke="black" points="264,-180 145,-180 145,-144 270,-144 270,-174 264,-180"/>
<polyline fill="none" stroke="black" points="264,-180 264,-174 "/>
<polyline fill="none" stroke="black" points="270,-174 264,-174 "/>
<text text-anchor="middle" x="207.5" y="-157" font-family="PT Mono, monospace" font-size="20.00">container</text>
</a>
</g>
</g>
<!-- container&#45;&gt;formalset -->
<g id="edge3" class="edge">
<title>container&#45;&gt;formalset</title>
<path fill="none" stroke="black" d="M185.01,-143.7C173.54,-134.88 159.44,-124.03 147.02,-114.47"/>
<polygon fill="black" stroke="black" points="148.8,-111.43 138.74,-108.1 144.53,-116.98 148.8,-111.43"/>
</g>
<!-- object -->
<g id="node5" class="node">
<title>object</title>
<g id="a_node5"><a xlink:href="PsyllaReference_Types.xhtml#PsyllaReference_Types_Details_object" xlink:title="object" target="_parent">
<polygon fill="linen" stroke="black" points="243,-468 160,-468 160,-432 249,-432 249,-462 243,-468"/>
<polyline fill="none" stroke="black" points="243,-468 243,-462 "/>
<polyline fill="none" stroke="black" points="249,-462 243,-462 "/>
<text text-anchor="middle" x="204.5" y="-445" font-family="PT Mono, monospace" font-size="20.00">object</text>
</a>
</g>
</g>
<!-- object&#45;&gt;appendable -->
<g id="edge4" class="edge">
<title>object&#45;&gt;appendable</title>
<path fill="none" stroke="black" d="M187.16,-431.96C176.74,-421.65 163.25,-408.17 151.5,-396 130.88,-374.65 107.9,-349.93 91.35,-331.97"/>
<polygon fill="black" stroke="black" points="93.58,-329.22 84.24,-324.23 88.43,-333.96 93.58,-329.22"/>
</g>
<!-- clearable -->
<g id="node6" class="node">
<title>clearable</title>
<g id="a_node6"><a xlink:href="PsyllaReference_Types.xhtml#PsyllaReference_Types_Details_clearable" xlink:title="clearable" target="_parent">
<polygon fill="linen" stroke="black" points="219,-252 100,-252 100,-216 225,-216 225,-246 219,-252"/>
<polyline fill="none" stroke="black" points="219,-252 219,-246 "/>
<polyline fill="none" stroke="black" points="225,-246 219,-246 "/>
<text text-anchor="middle" x="162.5" y="-229" font-family="PT Mono, monospace" font-size="20.00">clearable</text>
</a>
</g>
</g>
<!-- object&#45;&gt;clearable -->
<g id="edge8" class="edge">
<title>object&#45;&gt;clearable</title>
<path fill="none" stroke="black" d="M196.82,-431.65C192.59,-421.45 187.59,-408.2 184.5,-396 172.79,-349.81 166.95,-294.49 164.34,-262.19"/>
<polygon fill="black" stroke="black" points="167.83,-261.87 163.57,-252.16 160.85,-262.4 167.83,-261.87"/>
</g>
<!-- lengthy -->
<g id="node8" class="node">
<title>lengthy</title>
<g id="a_node8"><a xlink:href="PsyllaReference_Types.xhtml#PsyllaReference_Types_Details_lengthy" xlink:title="lengthy" target="_parent">
<polygon fill="linen" stroke="black" points="289,-396 194,-396 194,-360 295,-360 295,-390 289,-396"/>
<polyline fill="none" stroke="black" points="289,-396 289,-390 "/>
<polyline fill="none" stroke="black" points="295,-390 289,-390 "/>
<text text-anchor="middle" x="244.5" y="-373" font-family="PT Mono, monospace" font-size="20.00">lengthy</text>
</a>
</g>
</g>
<!-- object&#45;&gt;lengthy -->
<g id="edge10" class="edge">
<title>object&#45;&gt;lengthy</title>
<path fill="none" stroke="black" d="M214.39,-431.7C218.99,-423.64 224.56,-413.89 229.65,-404.98"/>
<polygon fill="black" stroke="black" points="232.8,-406.52 234.73,-396.1 226.73,-403.05 232.8,-406.52"/>
</g>
<!-- sequential -->
<g id="node10" class="node">
<title>sequential</title>
<g id="a_node10"><a xlink:href="PsyllaReference_Types.xhtml#PsyllaReference_Types_Details_sequential" xlink:title="sequential" target="_parent">
<polygon fill="linen" stroke="black" points="444,-396 313,-396 313,-360 450,-360 450,-390 444,-396"/>
<polyline fill="none" stroke="black" points="444,-396 444,-390 "/>
<polyline fill="none" stroke="black" points="450,-390 444,-390 "/>
<text text-anchor="middle" x="381.5" y="-373" font-family="PT Mono, monospace" font-size="20.00">sequential</text>
</a>
</g>
</g>
<!-- object&#45;&gt;sequential -->
<g id="edge12" class="edge">
<title>object&#45;&gt;sequential</title>
<path fill="none" stroke="black" d="M247.8,-431.88C272.21,-422.22 302.9,-410.09 328.71,-399.88"/>
<polygon fill="black" stroke="black" points="330.33,-403 338.34,-396.07 327.76,-396.49 330.33,-403"/>
</g>
<!-- clearable&#45;&gt;container -->
<g id="edge5" class="edge">
<title>clearable&#45;&gt;container</title>
<path fill="none" stroke="black" d="M173.62,-215.7C178.86,-207.56 185.2,-197.69 190.98,-188.7"/>
<polygon fill="black" stroke="black" points="194.04,-190.41 196.5,-180.1 188.15,-186.62 194.04,-190.41"/>
</g>
<!-- iterable -->
<g id="node7" class="node">
<title>iterable</title>
<g id="a_node7"><a xlink:href="PsyllaReference_Types.xhtml#PsyllaReference_Types_Details_iterable" xlink:title="iterable" target="_parent">
<polygon fill="linen" stroke="black" points="403,-252 296,-252 296,-216 409,-216 409,-246 403,-252"/>
<polyline fill="none" stroke="black" points="403,-252 403,-246 "/>
<polyline fill="none" stroke="black" points="409,-246 403,-246 "/>
<text text-anchor="middle" x="352.5" y="-229" font-family="PT Mono, monospace" font-size="20.00">iterable</text>
</a>
</g>
</g>
<!-- iterable&#45;&gt;container -->
<g id="edge6" class="edge">
<title>iterable&#45;&gt;container</title>
<path fill="none" stroke="black" d="M317.03,-215.88C297.38,-206.39 272.78,-194.51 251.87,-184.42"/>
<polygon fill="black" stroke="black" points="253.38,-181.26 242.86,-180.07 250.34,-187.57 253.38,-181.26"/>
</g>
<!-- lengthy&#45;&gt;container -->
<g id="edge7" class="edge">
<title>lengthy&#45;&gt;container</title>
<path fill="none" stroke="black" d="M245.47,-359.72C246.68,-329.85 247.15,-266.87 233.5,-216 231.09,-207.04 227.14,-197.78 223.03,-189.56"/>
<polygon fill="black" stroke="black" points="225.99,-187.67 218.22,-180.47 219.8,-190.95 225.99,-187.67"/>
</g>
<!-- streamable -->
<g id="node9" class="node">
<title>streamable</title>
<g id="a_node9"><a xlink:href="PsyllaReference_Types.xhtml#PsyllaReference_Types_Details_streamable" xlink:title="streamable" target="_parent">
<polygon fill="linen" stroke="black" points="428,-324 297,-324 297,-288 434,-288 434,-318 428,-324"/>
<polyline fill="none" stroke="black" points="428,-324 428,-318 "/>
<polyline fill="none" stroke="black" points="434,-318 428,-318 "/>
<text text-anchor="middle" x="365.5" y="-301" font-family="PT Mono, monospace" font-size="20.00">streamable</text>
</a>
</g>
</g>
<!-- streamable&#45;&gt;iterable -->
<g id="edge9" class="edge">
<title>streamable&#45;&gt;iterable</title>
<path fill="none" stroke="black" d="M362.29,-287.7C360.85,-279.98 359.13,-270.71 357.54,-262.11"/>
<polygon fill="black" stroke="black" points="360.94,-261.3 355.68,-252.1 354.06,-262.58 360.94,-261.3"/>
</g>
<!-- sequential&#45;&gt;streamable -->
<g id="edge11" class="edge">
<title>sequential&#45;&gt;streamable</title>
<path fill="none" stroke="black" d="M377.54,-359.7C375.78,-351.98 373.66,-342.71 371.7,-334.11"/>
<polygon fill="black" stroke="black" points="375.05,-333.07 369.41,-324.1 368.23,-334.63 375.05,-333.07"/>
</g>
</g>
</svg>
