<?xml version="1.0" encoding="UTF-8" standalone="no"?>
<!DOCTYPE svg PUBLIC "-//W3C//DTD SVG 1.1//EN"
 "http://www.w3.org/Graphics/SVG/1.1/DTD/svg11.dtd">
<!-- Generated by graphviz version 2.49.3 (0)
 -->
<!-- Title: fraction Pages: 1 -->
<svg width="577pt" height="476pt"
 viewBox="0.00 0.00 576.64 476.00" xmlns="http://www.w3.org/2000/svg" xmlns:xlink="http://www.w3.org/1999/xlink">
<g id="graph0" class="graph" transform="scale(1 1) rotate(0) translate(4 472)">
<title>fraction</title>
<polygon fill="transparent" stroke="transparent" points="-4,4 -4,-472 572.64,-472 572.64,4 -4,4"/>
<!-- rational -->
<g id="node1" class="node">
<title>rational</title>
<g id="a_node1"><a xlink:href="PsyllaReference_Types.xhtml#PsyllaReference_Types_Details_rational" xlink:title="rational" target="_parent">
<polygon fill="linen" stroke="black" points="252.31,-108 204.31,-108 204.31,-72 258.31,-72 258.31,-102 252.31,-108"/>
<polyline fill="none" stroke="black" points="252.31,-108 252.31,-102 "/>
<polyline fill="none" stroke="black" points="258.31,-102 252.31,-102 "/>
<text text-anchor="middle" x="231.31" y="-86.4" font-family="Source Code Pro,monospace" font-size="12.00">rational</text>
</a>
</g>
</g>
<!-- fraction -->
<g id="node2" class="node">
<title>fraction</title>
<g id="a_node2"><a xlink:href="PsyllaReference_Types.xhtml#PsyllaReference_Types_Details_fraction" xlink:title="fraction" target="_parent">
<polygon fill="wheat" stroke="black" points="252.31,-36 204.31,-36 204.31,0 258.31,0 258.31,-30 252.31,-36"/>
<polyline fill="none" stroke="black" points="252.31,-36 252.31,-30 "/>
<polyline fill="none" stroke="black" points="258.31,-30 252.31,-30 "/>
<text text-anchor="middle" x="231.31" y="-14.4" font-family="Source Code Pro,monospace" font-size="12.00">fraction</text>
</a>
</g>
</g>
<!-- rational&#45;&gt;fraction -->
<g id="edge1" class="edge">
<title>rational&#45;&gt;fraction</title>
<path fill="none" stroke="black" d="M231.31,-71.7C231.31,-63.98 231.31,-54.71 231.31,-46.11"/>
<polygon fill="black" stroke="black" points="234.81,-46.1 231.31,-36.1 227.81,-46.1 234.81,-46.1"/>
</g>
<!-- realnumeric -->
<g id="node3" class="node">
<title>realnumeric</title>
<g id="a_node3"><a xlink:href="PsyllaReference_Types.xhtml#PsyllaReference_Types_Details_realnumeric" xlink:title="realnumeric" target="_parent">
<polygon fill="linen" stroke="black" points="262.11,-180 194.51,-180 194.51,-144 268.11,-144 268.11,-174 262.11,-180"/>
<polyline fill="none" stroke="black" points="262.11,-180 262.11,-174 "/>
<polyline fill="none" stroke="black" points="268.11,-174 262.11,-174 "/>
<text text-anchor="middle" x="231.31" y="-158.4" font-family="Source Code Pro,monospace" font-size="12.00">realnumeric</text>
</a>
</g>
</g>
<!-- realnumeric&#45;&gt;rational -->
<g id="edge2" class="edge">
<title>realnumeric&#45;&gt;rational</title>
<path fill="none" stroke="black" d="M231.31,-143.7C231.31,-135.98 231.31,-126.71 231.31,-118.11"/>
<polygon fill="black" stroke="black" points="234.81,-118.1 231.31,-108.1 227.81,-118.1 234.81,-118.1"/>
</g>
<!-- numeric -->
<g id="node4" class="node">
<title>numeric</title>
<g id="a_node4"><a xlink:href="PsyllaReference_Types.xhtml#PsyllaReference_Types_Details_numeric" xlink:title="numeric" target="_parent">
<polygon fill="linen" stroke="black" points="390.13,-252 340.49,-252 340.49,-216 396.13,-216 396.13,-246 390.13,-252"/>
<polyline fill="none" stroke="black" points="390.13,-252 390.13,-246 "/>
<polyline fill="none" stroke="black" points="396.13,-246 390.13,-246 "/>
<text text-anchor="middle" x="368.31" y="-230.4" font-family="Source Code Pro,monospace" font-size="12.00">numeric</text>
</a>
</g>
</g>
<!-- numeric&#45;&gt;realnumeric -->
<g id="edge3" class="edge">
<title>numeric&#45;&gt;realnumeric</title>
<path fill="none" stroke="black" d="M340.59,-218.83C321.43,-209.05 295.59,-195.84 273.84,-184.73"/>
<polygon fill="black" stroke="black" points="275.3,-181.55 264.8,-180.11 272.12,-187.78 275.3,-181.55"/>
</g>
<!-- convertabletointeger -->
<g id="node5" class="node">
<title>convertabletointeger</title>
<g id="a_node5"><a xlink:href="PsyllaReference_Types.xhtml#PsyllaReference_Types_Details_convertabletointeger" xlink:title="convertabletointeger" target="_parent">
<polygon fill="linen" stroke="black" points="108.44,-324 0.19,-324 0.19,-288 114.44,-288 114.44,-318 108.44,-324"/>
<polyline fill="none" stroke="black" points="108.44,-324 108.44,-318 "/>
<polyline fill="none" stroke="black" points="114.44,-318 108.44,-318 "/>
<text text-anchor="middle" x="57.31" y="-302.4" font-family="Source Code Pro,monospace" font-size="12.00">convertabletointeger</text>
</a>
</g>
</g>
<!-- convertabletointeger&#45;&gt;realnumeric -->
<g id="edge4" class="edge">
<title>convertabletointeger&#45;&gt;realnumeric</title>
<path fill="none" stroke="black" d="M56.26,-287.72C56.02,-267.98 58.69,-235.85 76.31,-216 103.63,-185.22 149.59,-172.3 184.39,-166.89"/>
<polygon fill="black" stroke="black" points="184.93,-170.35 194.34,-165.49 183.95,-163.41 184.93,-170.35"/>
</g>
<!-- convertabletointegral -->
<g id="node6" class="node">
<title>convertabletointegral</title>
<g id="a_node6"><a xlink:href="PsyllaReference_Types.xhtml#PsyllaReference_Types_Details_convertabletointegral" xlink:title="convertabletointegral" target="_parent">
<polygon fill="linen" stroke="black" points="197.27,-252 85.35,-252 85.35,-216 203.27,-216 203.27,-246 197.27,-252"/>
<polyline fill="none" stroke="black" points="197.27,-252 197.27,-246 "/>
<polyline fill="none" stroke="black" points="203.27,-246 197.27,-246 "/>
<text text-anchor="middle" x="144.31" y="-230.4" font-family="Source Code Pro,monospace" font-size="12.00">convertabletointegral</text>
</a>
</g>
</g>
<!-- convertabletointegral&#45;&gt;realnumeric -->
<g id="edge5" class="edge">
<title>convertabletointegral&#45;&gt;realnumeric</title>
<path fill="none" stroke="black" d="M165.82,-215.7C176.77,-206.88 190.26,-196.03 202.14,-186.47"/>
<polygon fill="black" stroke="black" points="204.46,-189.1 210.05,-180.1 200.07,-183.65 204.46,-189.1"/>
</g>
<!-- convertabletorational -->
<g id="node7" class="node">
<title>convertabletorational</title>
<g id="a_node7"><a xlink:href="PsyllaReference_Types.xhtml#PsyllaReference_Types_Details_convertabletorational" xlink:title="convertabletorational" target="_parent">
<polygon fill="linen" stroke="black" points="282.27,-324 170.35,-324 170.35,-288 288.27,-288 288.27,-318 282.27,-324"/>
<polyline fill="none" stroke="black" points="282.27,-324 282.27,-318 "/>
<polyline fill="none" stroke="black" points="288.27,-318 282.27,-318 "/>
<text text-anchor="middle" x="229.31" y="-302.4" font-family="Source Code Pro,monospace" font-size="12.00">convertabletorational</text>
</a>
</g>
</g>
<!-- convertabletorational&#45;&gt;realnumeric -->
<g id="edge6" class="edge">
<title>convertabletorational&#45;&gt;realnumeric</title>
<path fill="none" stroke="black" d="M229.55,-287.87C229.89,-263.67 230.52,-219.21 230.93,-190.39"/>
<polygon fill="black" stroke="black" points="234.43,-190.24 231.07,-180.19 227.43,-190.14 234.43,-190.24"/>
</g>
<!-- scalar -->
<g id="node8" class="node">
<title>scalar</title>
<g id="a_node8"><a xlink:href="PsyllaReference_Types.xhtml#PsyllaReference_Types_Details_scalar" xlink:title="scalar" target="_parent">
<polygon fill="linen" stroke="black" points="313.31,-252 265.31,-252 265.31,-216 319.31,-216 319.31,-246 313.31,-252"/>
<polyline fill="none" stroke="black" points="313.31,-252 313.31,-246 "/>
<polyline fill="none" stroke="black" points="319.31,-246 313.31,-246 "/>
<text text-anchor="middle" x="292.31" y="-230.4" font-family="Source Code Pro,monospace" font-size="12.00">scalar</text>
</a>
</g>
</g>
<!-- scalar&#45;&gt;realnumeric -->
<g id="edge7" class="edge">
<title>scalar&#45;&gt;realnumeric</title>
<path fill="none" stroke="black" d="M277.23,-215.7C269.92,-207.3 261,-197.07 252.98,-187.86"/>
<polygon fill="black" stroke="black" points="255.43,-185.34 246.22,-180.1 250.15,-189.94 255.43,-185.34"/>
</g>
<!-- arithmetic -->
<g id="node9" class="node">
<title>arithmetic</title>
<g id="a_node9"><a xlink:href="PsyllaReference_Types.xhtml#PsyllaReference_Types_Details_arithmetic" xlink:title="arithmetic" target="_parent">
<polygon fill="linen" stroke="black" points="466.46,-324 408.16,-324 408.16,-288 472.46,-288 472.46,-318 466.46,-324"/>
<polyline fill="none" stroke="black" points="466.46,-324 466.46,-318 "/>
<polyline fill="none" stroke="black" points="472.46,-318 466.46,-318 "/>
<text text-anchor="middle" x="440.31" y="-302.4" font-family="Source Code Pro,monospace" font-size="12.00">arithmetic</text>
</a>
</g>
</g>
<!-- arithmetic&#45;&gt;numeric -->
<g id="edge8" class="edge">
<title>arithmetic&#45;&gt;numeric</title>
<path fill="none" stroke="black" d="M422.51,-287.7C413.71,-279.14 402.93,-268.66 393.31,-259.3"/>
<polygon fill="black" stroke="black" points="395.51,-256.57 385.91,-252.1 390.64,-261.58 395.51,-256.57"/>
</g>
<!-- value -->
<g id="node10" class="node">
<title>value</title>
<g id="a_node10"><a xlink:href="PsyllaReference_Types.xhtml#PsyllaReference_Types_Details_value" xlink:title="value" target="_parent">
<polygon fill="linen" stroke="black" points="389.31,-396 341.31,-396 341.31,-360 395.31,-360 395.31,-390 389.31,-396"/>
<polyline fill="none" stroke="black" points="389.31,-396 389.31,-390 "/>
<polyline fill="none" stroke="black" points="395.31,-390 389.31,-390 "/>
<text text-anchor="middle" x="368.31" y="-374.4" font-family="Source Code Pro,monospace" font-size="12.00">value</text>
</a>
</g>
</g>
<!-- value&#45;&gt;numeric -->
<g id="edge9" class="edge">
<title>value&#45;&gt;numeric</title>
<path fill="none" stroke="black" d="M368.31,-359.87C368.31,-335.67 368.31,-291.21 368.31,-262.39"/>
<polygon fill="black" stroke="black" points="371.81,-262.19 368.31,-252.19 364.81,-262.19 371.81,-262.19"/>
</g>
<!-- object -->
<g id="node11" class="node">
<title>object</title>
<g id="a_node11"><a xlink:href="PsyllaReference_Types.xhtml#PsyllaReference_Types_Details_object" xlink:title="object" target="_parent">
<polygon fill="linen" stroke="black" points="334.31,-468 286.31,-468 286.31,-432 340.31,-432 340.31,-462 334.31,-468"/>
<polyline fill="none" stroke="black" points="334.31,-468 334.31,-462 "/>
<polyline fill="none" stroke="black" points="340.31,-462 334.31,-462 "/>
<text text-anchor="middle" x="313.31" y="-446.4" font-family="Source Code Pro,monospace" font-size="12.00">object</text>
</a>
</g>
</g>
<!-- object&#45;&gt;convertabletointeger -->
<g id="edge10" class="edge">
<title>object&#45;&gt;convertabletointeger</title>
<path fill="none" stroke="black" d="M286.03,-446.43C247.9,-441.73 177.79,-429 128.31,-396 104.07,-379.83 84.2,-352.77 71.71,-332.72"/>
<polygon fill="black" stroke="black" points="74.66,-330.83 66.5,-324.07 68.66,-334.44 74.66,-330.83"/>
</g>
<!-- object&#45;&gt;convertabletointegral -->
<g id="edge11" class="edge">
<title>object&#45;&gt;convertabletointegral</title>
<path fill="none" stroke="black" d="M286.16,-434.65C251.31,-414.72 191.74,-375.27 161.31,-324 150.24,-305.34 146.16,-280.95 144.76,-262.43"/>
<polygon fill="black" stroke="black" points="148.24,-262.08 144.21,-252.28 141.25,-262.46 148.24,-262.08"/>
</g>
<!-- object&#45;&gt;convertabletorational -->
<g id="edge12" class="edge">
<title>object&#45;&gt;convertabletorational</title>
<path fill="none" stroke="black" d="M303.18,-431.87C288.61,-407.24 261.63,-361.64 244.62,-332.88"/>
<polygon fill="black" stroke="black" points="247.58,-331.01 239.48,-324.19 241.56,-334.58 247.58,-331.01"/>
</g>
<!-- object&#45;&gt;scalar -->
<g id="edge13" class="edge">
<title>object&#45;&gt;scalar</title>
<path fill="none" stroke="black" d="M311.63,-431.85C308,-394.83 299.4,-307.18 295,-262.39"/>
<polygon fill="black" stroke="black" points="298.46,-261.84 294,-252.23 291.5,-262.53 298.46,-261.84"/>
</g>
<!-- object&#45;&gt;value -->
<g id="edge16" class="edge">
<title>object&#45;&gt;value</title>
<path fill="none" stroke="black" d="M326.91,-431.7C333.43,-423.39 341.38,-413.28 348.56,-404.14"/>
<polygon fill="black" stroke="black" points="351.45,-406.13 354.87,-396.1 345.94,-401.81 351.45,-406.13"/>
</g>
<!-- additive -->
<g id="node12" class="node">
<title>additive</title>
<g id="a_node12"><a xlink:href="PsyllaReference_Types.xhtml#PsyllaReference_Types_Details_additive" xlink:title="additive" target="_parent">
<polygon fill="linen" stroke="black" points="461.47,-396 413.15,-396 413.15,-360 467.47,-360 467.47,-390 461.47,-396"/>
<polyline fill="none" stroke="black" points="461.47,-396 461.47,-390 "/>
<polyline fill="none" stroke="black" points="467.47,-390 461.47,-390 "/>
<text text-anchor="middle" x="440.31" y="-374.4" font-family="Source Code Pro,monospace" font-size="12.00">additive</text>
</a>
</g>
</g>
<!-- object&#45;&gt;additive -->
<g id="edge17" class="edge">
<title>object&#45;&gt;additive</title>
<path fill="none" stroke="black" d="M340.56,-433.98C359.14,-423.74 383.95,-410.07 404.18,-398.92"/>
<polygon fill="black" stroke="black" points="406.04,-401.88 413.11,-393.99 402.67,-395.75 406.04,-401.88"/>
</g>
<!-- multiplicative -->
<g id="node13" class="node">
<title>multiplicative</title>
<g id="a_node13"><a xlink:href="PsyllaReference_Types.xhtml#PsyllaReference_Types_Details_multiplicative" xlink:title="multiplicative" target="_parent">
<polygon fill="linen" stroke="black" points="562.47,-396 486.15,-396 486.15,-360 568.47,-360 568.47,-390 562.47,-396"/>
<polyline fill="none" stroke="black" points="562.47,-396 562.47,-390 "/>
<polyline fill="none" stroke="black" points="568.47,-390 562.47,-390 "/>
<text text-anchor="middle" x="527.31" y="-374.4" font-family="Source Code Pro,monospace" font-size="12.00">multiplicative</text>
</a>
</g>
</g>
<!-- object&#45;&gt;multiplicative -->
<g id="edge18" class="edge">
<title>object&#45;&gt;multiplicative</title>
<path fill="none" stroke="black" d="M340.44,-440.25C372.81,-429.79 428.55,-411.73 476.31,-396 476.41,-395.97 476.51,-395.93 476.61,-395.9"/>
<polygon fill="black" stroke="black" points="477.73,-399.22 486.12,-392.76 475.53,-392.57 477.73,-399.22"/>
</g>
<!-- additive&#45;&gt;arithmetic -->
<g id="edge14" class="edge">
<title>additive&#45;&gt;arithmetic</title>
<path fill="none" stroke="black" d="M440.31,-359.7C440.31,-351.98 440.31,-342.71 440.31,-334.11"/>
<polygon fill="black" stroke="black" points="443.81,-334.1 440.31,-324.1 436.81,-334.1 443.81,-334.1"/>
</g>
<!-- multiplicative&#45;&gt;arithmetic -->
<g id="edge15" class="edge">
<title>multiplicative&#45;&gt;arithmetic</title>
<path fill="none" stroke="black" d="M505.81,-359.7C494.85,-350.88 481.37,-340.03 469.49,-330.47"/>
<polygon fill="black" stroke="black" points="471.56,-327.65 461.57,-324.1 467.17,-333.1 471.56,-327.65"/>
</g>
</g>
</svg>
