<?xml version="1.0" encoding="UTF-8" standalone="no"?>
<!DOCTYPE svg PUBLIC "-//W3C//DTD SVG 1.1//EN"
 "http://www.w3.org/Graphics/SVG/1.1/DTD/svg11.dtd">
<!-- Generated by graphviz version 2.43.0 (0)
 -->
<!-- Title: command Pages: 1 -->
<svg width="449pt" height="476pt"
 viewBox="0.00 0.00 449.00 476.00" xmlns="http://www.w3.org/2000/svg" xmlns:xlink="http://www.w3.org/1999/xlink">
<g id="graph0" class="graph" transform="scale(1 1) rotate(0) translate(4 472)">
<title>command</title>
<polygon fill="transparent" stroke="transparent" points="-4,4 -4,-472 445,-472 445,4 -4,4"/>
<!-- name -->
<g id="node1" class="node">
<title>name</title>
<g id="a_node1"><a xlink:href="PsyllaReference_Types.xhtml#PsyllaReference_Types_Details_name" xlink:title="name" target="_parent">
<polygon fill="linen" stroke="black" points="162,-108 103,-108 103,-72 168,-72 168,-102 162,-108"/>
<polyline fill="none" stroke="black" points="162,-108 162,-102 "/>
<polyline fill="none" stroke="black" points="168,-102 162,-102 "/>
<text text-anchor="middle" x="135.5" y="-85" font-family="PT Mono, monospace" font-size="20.00">name</text>
</a>
</g>
</g>
<!-- command -->
<g id="node2" class="node">
<title>command</title>
<g id="a_node2"><a xlink:href="PsyllaReference_Types.xhtml#PsyllaReference_Types_Details_command" xlink:title="command" target="_parent">
<polygon fill="wheat" stroke="black" points="180,-36 85,-36 85,0 186,0 186,-30 180,-36"/>
<polyline fill="none" stroke="black" points="180,-36 180,-30 "/>
<polyline fill="none" stroke="black" points="186,-30 180,-30 "/>
<text text-anchor="middle" x="135.5" y="-13" font-family="PT Mono, monospace" font-size="20.00">command</text>
</a>
</g>
</g>
<!-- name&#45;&gt;command -->
<g id="edge1" class="edge">
<title>name&#45;&gt;command</title>
<path fill="none" stroke="black" d="M135.5,-71.7C135.5,-63.98 135.5,-54.71 135.5,-46.11"/>
<polygon fill="black" stroke="black" points="139,-46.1 135.5,-36.1 132,-46.1 139,-46.1"/>
</g>
<!-- atomic -->
<g id="node3" class="node">
<title>atomic</title>
<g id="a_node3"><a xlink:href="PsyllaReference_Types.xhtml#PsyllaReference_Types_Details_atomic" xlink:title="atomic" target="_parent">
<polygon fill="linen" stroke="black" points="83,-324 0,-324 0,-288 89,-288 89,-318 83,-324"/>
<polyline fill="none" stroke="black" points="83,-324 83,-318 "/>
<polyline fill="none" stroke="black" points="89,-318 83,-318 "/>
<text text-anchor="middle" x="44.5" y="-301" font-family="PT Mono, monospace" font-size="20.00">atomic</text>
</a>
</g>
</g>
<!-- atomic&#45;&gt;name -->
<g id="edge2" class="edge">
<title>atomic&#45;&gt;name</title>
<path fill="none" stroke="black" d="M46.55,-287.82C49.09,-269.55 54.27,-240.04 63.5,-216 77.49,-179.56 101.13,-141.16 117.49,-116.69"/>
<polygon fill="black" stroke="black" points="120.44,-118.58 123.15,-108.33 114.64,-114.65 120.44,-118.58"/>
</g>
<!-- textual -->
<g id="node4" class="node">
<title>textual</title>
<g id="a_node4"><a xlink:href="PsyllaReference_Types.xhtml#PsyllaReference_Types_Details_textual" xlink:title="textual" target="_parent">
<polygon fill="linen" stroke="black" points="271,-180 176,-180 176,-144 277,-144 277,-174 271,-180"/>
<polyline fill="none" stroke="black" points="271,-180 271,-174 "/>
<polyline fill="none" stroke="black" points="277,-174 271,-174 "/>
<text text-anchor="middle" x="226.5" y="-157" font-family="PT Mono, monospace" font-size="20.00">textual</text>
</a>
</g>
</g>
<!-- textual&#45;&gt;name -->
<g id="edge3" class="edge">
<title>textual&#45;&gt;name</title>
<path fill="none" stroke="black" d="M204.01,-143.7C192.54,-134.88 178.44,-124.03 166.02,-114.47"/>
<polygon fill="black" stroke="black" points="167.8,-111.43 157.74,-108.1 163.53,-116.98 167.8,-111.43"/>
</g>
<!-- object -->
<g id="node5" class="node">
<title>object</title>
<g id="a_node5"><a xlink:href="PsyllaReference_Types.xhtml#PsyllaReference_Types_Details_object" xlink:title="object" target="_parent">
<polygon fill="linen" stroke="black" points="207,-468 124,-468 124,-432 213,-432 213,-462 207,-468"/>
<polyline fill="none" stroke="black" points="207,-468 207,-462 "/>
<polyline fill="none" stroke="black" points="213,-462 207,-462 "/>
<text text-anchor="middle" x="168.5" y="-445" font-family="PT Mono, monospace" font-size="20.00">object</text>
</a>
</g>
</g>
<!-- object&#45;&gt;atomic -->
<g id="edge4" class="edge">
<title>object&#45;&gt;atomic</title>
<path fill="none" stroke="black" d="M144.15,-431.93C131.25,-422.23 115.62,-409.38 103.5,-396 85.93,-376.61 69.8,-351.54 58.86,-332.96"/>
<polygon fill="black" stroke="black" points="61.81,-331.06 53.78,-324.15 55.75,-334.56 61.81,-331.06"/>
</g>
<!-- evaluable -->
<g id="node6" class="node">
<title>evaluable</title>
<g id="a_node6"><a xlink:href="PsyllaReference_Types.xhtml#PsyllaReference_Types_Details_evaluable" xlink:title="evaluable" target="_parent">
<polygon fill="linen" stroke="black" points="192,-252 73,-252 73,-216 198,-216 198,-246 192,-252"/>
<polyline fill="none" stroke="black" points="192,-252 192,-246 "/>
<polyline fill="none" stroke="black" points="198,-246 192,-246 "/>
<text text-anchor="middle" x="135.5" y="-229" font-family="PT Mono, monospace" font-size="20.00">evaluable</text>
</a>
</g>
</g>
<!-- object&#45;&gt;evaluable -->
<g id="edge9" class="edge">
<title>object&#45;&gt;evaluable</title>
<path fill="none" stroke="black" d="M162.72,-431.87C154.99,-408.02 141.68,-363.31 136.5,-324 133.79,-303.45 133.65,-279.99 134.12,-262.32"/>
<polygon fill="black" stroke="black" points="137.63,-262.27 134.48,-252.15 130.63,-262.02 137.63,-262.27"/>
</g>
<!-- lengthy -->
<g id="node8" class="node">
<title>lengthy</title>
<g id="a_node8"><a xlink:href="PsyllaReference_Types.xhtml#PsyllaReference_Types_Details_lengthy" xlink:title="lengthy" target="_parent">
<polygon fill="linen" stroke="black" points="241,-324 146,-324 146,-288 247,-288 247,-318 241,-324"/>
<polyline fill="none" stroke="black" points="241,-324 241,-318 "/>
<polyline fill="none" stroke="black" points="247,-318 241,-318 "/>
<text text-anchor="middle" x="196.5" y="-301" font-family="PT Mono, monospace" font-size="20.00">lengthy</text>
</a>
</g>
</g>
<!-- object&#45;&gt;lengthy -->
<g id="edge11" class="edge">
<title>object&#45;&gt;lengthy</title>
<path fill="none" stroke="black" d="M171.88,-431.87C176.67,-407.56 185.49,-362.82 191.17,-334.01"/>
<polygon fill="black" stroke="black" points="194.61,-334.68 193.11,-324.19 187.74,-333.32 194.61,-334.68"/>
</g>
<!-- scalar -->
<g id="node9" class="node">
<title>scalar</title>
<g id="a_node9"><a xlink:href="PsyllaReference_Types.xhtml#PsyllaReference_Types_Details_scalar" xlink:title="scalar" target="_parent">
<polygon fill="linen" stroke="black" points="280,-396 197,-396 197,-360 286,-360 286,-390 280,-396"/>
<polyline fill="none" stroke="black" points="280,-396 280,-390 "/>
<polyline fill="none" stroke="black" points="286,-390 280,-390 "/>
<text text-anchor="middle" x="241.5" y="-373" font-family="PT Mono, monospace" font-size="20.00">scalar</text>
</a>
</g>
</g>
<!-- object&#45;&gt;scalar -->
<g id="edge12" class="edge">
<title>object&#45;&gt;scalar</title>
<path fill="none" stroke="black" d="M186.54,-431.7C195.56,-423.05 206.62,-412.45 216.44,-403.03"/>
<polygon fill="black" stroke="black" points="218.87,-405.55 223.66,-396.1 214.02,-400.5 218.87,-405.55"/>
</g>
<!-- sequential -->
<g id="node11" class="node">
<title>sequential</title>
<g id="a_node11"><a xlink:href="PsyllaReference_Types.xhtml#PsyllaReference_Types_Details_sequential" xlink:title="sequential" target="_parent">
<polygon fill="linen" stroke="black" points="435,-396 304,-396 304,-360 441,-360 441,-390 435,-396"/>
<polyline fill="none" stroke="black" points="435,-396 435,-390 "/>
<polyline fill="none" stroke="black" points="441,-390 435,-390 "/>
<text text-anchor="middle" x="372.5" y="-373" font-family="PT Mono, monospace" font-size="20.00">sequential</text>
</a>
</g>
</g>
<!-- object&#45;&gt;sequential -->
<g id="edge14" class="edge">
<title>object&#45;&gt;sequential</title>
<path fill="none" stroke="black" d="M213.02,-433.72C242.34,-423.66 281.08,-410.37 313.03,-399.41"/>
<polygon fill="black" stroke="black" points="314.39,-402.64 322.71,-396.09 312.11,-396.02 314.39,-402.64"/>
</g>
<!-- evaluable&#45;&gt;textual -->
<g id="edge5" class="edge">
<title>evaluable&#45;&gt;textual</title>
<path fill="none" stroke="black" d="M157.99,-215.7C169.46,-206.88 183.56,-196.03 195.98,-186.47"/>
<polygon fill="black" stroke="black" points="198.47,-188.98 204.26,-180.1 194.2,-183.43 198.47,-188.98"/>
</g>
<!-- iterable -->
<g id="node7" class="node">
<title>iterable</title>
<g id="a_node7"><a xlink:href="PsyllaReference_Types.xhtml#PsyllaReference_Types_Details_iterable" xlink:title="iterable" target="_parent">
<polygon fill="linen" stroke="black" points="417,-252 310,-252 310,-216 423,-216 423,-246 417,-252"/>
<polyline fill="none" stroke="black" points="417,-252 417,-246 "/>
<polyline fill="none" stroke="black" points="423,-246 417,-246 "/>
<text text-anchor="middle" x="366.5" y="-229" font-family="PT Mono, monospace" font-size="20.00">iterable</text>
</a>
</g>
</g>
<!-- iterable&#45;&gt;textual -->
<g id="edge6" class="edge">
<title>iterable&#45;&gt;textual</title>
<path fill="none" stroke="black" d="M332.25,-215.88C313.44,-206.47 289.92,-194.71 269.83,-184.67"/>
<polygon fill="black" stroke="black" points="271.39,-181.53 260.88,-180.19 268.26,-187.79 271.39,-181.53"/>
</g>
<!-- lengthy&#45;&gt;textual -->
<g id="edge7" class="edge">
<title>lengthy&#45;&gt;textual</title>
<path fill="none" stroke="black" d="M200.12,-287.87C205.25,-263.56 214.71,-218.82 220.79,-190.01"/>
<polygon fill="black" stroke="black" points="224.23,-190.7 222.87,-180.19 217.38,-189.25 224.23,-190.7"/>
</g>
<!-- scalar&#45;&gt;textual -->
<g id="edge8" class="edge">
<title>scalar&#45;&gt;textual</title>
<path fill="none" stroke="black" d="M247.32,-359.56C250.43,-349.33 253.93,-336.08 255.5,-324 261.67,-276.48 247.11,-221.65 236.46,-189.8"/>
<polygon fill="black" stroke="black" points="239.75,-188.61 233.18,-180.31 233.14,-190.9 239.75,-188.61"/>
</g>
<!-- streamable -->
<g id="node10" class="node">
<title>streamable</title>
<g id="a_node10"><a xlink:href="PsyllaReference_Types.xhtml#PsyllaReference_Types_Details_streamable" xlink:title="streamable" target="_parent">
<polygon fill="linen" stroke="black" points="435,-324 304,-324 304,-288 441,-288 441,-318 435,-324"/>
<polyline fill="none" stroke="black" points="435,-324 435,-318 "/>
<polyline fill="none" stroke="black" points="441,-318 435,-318 "/>
<text text-anchor="middle" x="372.5" y="-301" font-family="PT Mono, monospace" font-size="20.00">streamable</text>
</a>
</g>
</g>
<!-- streamable&#45;&gt;iterable -->
<g id="edge10" class="edge">
<title>streamable&#45;&gt;iterable</title>
<path fill="none" stroke="black" d="M371.02,-287.7C370.36,-279.98 369.56,-270.71 368.82,-262.11"/>
<polygon fill="black" stroke="black" points="372.31,-261.77 367.97,-252.1 365.33,-262.37 372.31,-261.77"/>
</g>
<!-- sequential&#45;&gt;streamable -->
<g id="edge13" class="edge">
<title>sequential&#45;&gt;streamable</title>
<path fill="none" stroke="black" d="M372.5,-359.7C372.5,-351.98 372.5,-342.71 372.5,-334.11"/>
<polygon fill="black" stroke="black" points="376,-334.1 372.5,-324.1 369,-334.1 376,-334.1"/>
</g>
</g>
</svg>
