<?xml version="1.0" encoding="UTF-8" standalone="no"?>
<!DOCTYPE svg PUBLIC "-//W3C//DTD SVG 1.1//EN"
 "http://www.w3.org/Graphics/SVG/1.1/DTD/svg11.dtd">
<!-- Generated by graphviz version 2.43.0 (0)
 -->
<!-- Title: numeric Pages: 1 -->
<svg width="281pt" height="260pt"
 viewBox="0.00 0.00 281.00 260.00" xmlns="http://www.w3.org/2000/svg" xmlns:xlink="http://www.w3.org/1999/xlink">
<g id="graph0" class="graph" transform="scale(1 1) rotate(0) translate(4 256)">
<title>numeric</title>
<polygon fill="transparent" stroke="transparent" points="-4,4 -4,-256 277,-256 277,4 -4,4"/>
<!-- arithmetic -->
<g id="node1" class="node">
<title>arithmetic</title>
<g id="a_node1"><a xlink:href="PsyllaReference_Types.xhtml#PsyllaReference_Types_Details_arithmetic" xlink:title="arithmetic" target="_parent">
<polygon fill="linen" stroke="black" points="158,-108 72,-108 72,-72 164,-72 164,-102 158,-108"/>
<polyline fill="none" stroke="black" points="158,-108 158,-102 "/>
<polyline fill="none" stroke="black" points="164,-102 158,-102 "/>
<text text-anchor="middle" x="118" y="-86.9" font-family="Source Code Pro,monospace" font-size="12.00">arithmetic</text>
</a>
</g>
</g>
<!-- numeric -->
<g id="node3" class="node">
<title>numeric</title>
<g id="a_node3"><a xlink:href="PsyllaReference_Types.xhtml#PsyllaReference_Types_Details_numeric" xlink:title="numeric" target="_parent">
<polygon fill="wheat" stroke="black" points="100.5,-36 37.5,-36 37.5,0 106.5,0 106.5,-30 100.5,-36"/>
<polyline fill="none" stroke="black" points="100.5,-36 100.5,-30 "/>
<polyline fill="none" stroke="black" points="106.5,-30 100.5,-30 "/>
<text text-anchor="middle" x="72" y="-14.9" font-family="Source Code Pro,monospace" font-size="12.00">numeric</text>
</a>
</g>
</g>
<!-- arithmetic&#45;&gt;numeric -->
<g id="edge1" class="edge">
<title>arithmetic&#45;&gt;numeric</title>
<path fill="none" stroke="black" d="M106.63,-71.7C101.28,-63.56 94.8,-53.69 88.89,-44.7"/>
<polygon fill="black" stroke="black" points="91.66,-42.54 83.24,-36.1 85.81,-46.38 91.66,-42.54"/>
</g>
<!-- value -->
<g id="node2" class="node">
<title>value</title>
<g id="a_node2"><a xlink:href="PsyllaReference_Types.xhtml#PsyllaReference_Types_Details_value" xlink:title="value" target="_parent">
<polygon fill="linen" stroke="black" points="48,-108 0,-108 0,-72 54,-72 54,-102 48,-108"/>
<polyline fill="none" stroke="black" points="48,-108 48,-102 "/>
<polyline fill="none" stroke="black" points="54,-102 48,-102 "/>
<text text-anchor="middle" x="27" y="-86.9" font-family="Source Code Pro,monospace" font-size="12.00">value</text>
</a>
</g>
</g>
<!-- value&#45;&gt;numeric -->
<g id="edge2" class="edge">
<title>value&#45;&gt;numeric</title>
<path fill="none" stroke="black" d="M38.12,-71.7C43.36,-63.56 49.7,-53.69 55.48,-44.7"/>
<polygon fill="black" stroke="black" points="58.54,-46.41 61,-36.1 52.65,-42.62 58.54,-46.41"/>
</g>
<!-- additive -->
<g id="node4" class="node">
<title>additive</title>
<g id="a_node4"><a xlink:href="PsyllaReference_Types.xhtml#PsyllaReference_Types_Details_additive" xlink:title="additive" target="_parent">
<polygon fill="linen" stroke="black" points="126.5,-180 55.5,-180 55.5,-144 132.5,-144 132.5,-174 126.5,-180"/>
<polyline fill="none" stroke="black" points="126.5,-180 126.5,-174 "/>
<polyline fill="none" stroke="black" points="132.5,-174 126.5,-174 "/>
<text text-anchor="middle" x="94" y="-158.9" font-family="Source Code Pro,monospace" font-size="12.00">additive</text>
</a>
</g>
</g>
<!-- additive&#45;&gt;arithmetic -->
<g id="edge3" class="edge">
<title>additive&#45;&gt;arithmetic</title>
<path fill="none" stroke="black" d="M99.93,-143.7C102.61,-135.9 105.83,-126.51 108.8,-117.83"/>
<polygon fill="black" stroke="black" points="112.2,-118.7 112.14,-108.1 105.58,-116.43 112.2,-118.7"/>
</g>
<!-- multiplicative -->
<g id="node5" class="node">
<title>multiplicative</title>
<g id="a_node5"><a xlink:href="PsyllaReference_Types.xhtml#PsyllaReference_Types_Details_multiplicative" xlink:title="multiplicative" target="_parent">
<polygon fill="linen" stroke="black" points="267,-180 151,-180 151,-144 273,-144 273,-174 267,-180"/>
<polyline fill="none" stroke="black" points="267,-180 267,-174 "/>
<polyline fill="none" stroke="black" points="273,-174 267,-174 "/>
<text text-anchor="middle" x="212" y="-158.9" font-family="Source Code Pro,monospace" font-size="12.00">multiplicative</text>
</a>
</g>
</g>
<!-- multiplicative&#45;&gt;arithmetic -->
<g id="edge4" class="edge">
<title>multiplicative&#45;&gt;arithmetic</title>
<path fill="none" stroke="black" d="M188.76,-143.7C176.81,-134.8 162.08,-123.82 149.15,-114.2"/>
<polygon fill="black" stroke="black" points="151.08,-111.27 140.97,-108.1 146.9,-116.88 151.08,-111.27"/>
</g>
<!-- object -->
<g id="node6" class="node">
<title>object</title>
<g id="a_node6"><a xlink:href="PsyllaReference_Types.xhtml#PsyllaReference_Types_Details_object" xlink:title="object" target="_parent">
<polygon fill="linen" stroke="black" points="119,-252 63,-252 63,-216 125,-216 125,-246 119,-252"/>
<polyline fill="none" stroke="black" points="119,-252 119,-246 "/>
<polyline fill="none" stroke="black" points="125,-246 119,-246 "/>
<text text-anchor="middle" x="94" y="-230.9" font-family="Source Code Pro,monospace" font-size="12.00">object</text>
</a>
</g>
</g>
<!-- object&#45;&gt;value -->
<g id="edge5" class="edge">
<title>object&#45;&gt;value</title>
<path fill="none" stroke="black" d="M73.99,-215.72C64.13,-206.15 52.9,-193.48 46,-180 36.13,-160.72 31.38,-136.57 29.1,-118.29"/>
<polygon fill="black" stroke="black" points="32.57,-117.85 28.02,-108.29 25.62,-118.6 32.57,-117.85"/>
</g>
<!-- object&#45;&gt;additive -->
<g id="edge6" class="edge">
<title>object&#45;&gt;additive</title>
<path fill="none" stroke="black" d="M94,-215.7C94,-207.98 94,-198.71 94,-190.11"/>
<polygon fill="black" stroke="black" points="97.5,-190.1 94,-180.1 90.5,-190.1 97.5,-190.1"/>
</g>
<!-- object&#45;&gt;multiplicative -->
<g id="edge7" class="edge">
<title>object&#45;&gt;multiplicative</title>
<path fill="none" stroke="black" d="M122.87,-215.88C138.29,-206.72 157.48,-195.34 174.1,-185.48"/>
<polygon fill="black" stroke="black" points="176.21,-188.3 183.02,-180.19 172.64,-182.28 176.21,-188.3"/>
</g>
</g>
</svg>
