<?xml version="1.0" encoding="UTF-8" standalone="no"?>
<!DOCTYPE svg PUBLIC "-//W3C//DTD SVG 1.1//EN"
 "http://www.w3.org/Graphics/SVG/1.1/DTD/svg11.dtd">
<!-- Generated by graphviz version 2.43.0 (0)
 -->
<!-- Title: name Pages: 1 -->
<svg width="312pt" height="404pt"
 viewBox="0.00 0.00 311.50 404.00" xmlns="http://www.w3.org/2000/svg" xmlns:xlink="http://www.w3.org/1999/xlink">
<g id="graph0" class="graph" transform="scale(1 1) rotate(0) translate(4 400)">
<title>name</title>
<polygon fill="transparent" stroke="transparent" points="-4,4 -4,-400 307.5,-400 307.5,4 -4,4"/>
<!-- atomic -->
<g id="node1" class="node">
<title>atomic</title>
<g id="a_node1"><a xlink:href="PsyllaReference_Types.xhtml#PsyllaReference_Types_Details_atomic" xlink:title="atomic" target="_parent">
<polygon fill="linen" stroke="black" points="48,-252 0,-252 0,-216 54,-216 54,-246 48,-252"/>
<polyline fill="none" stroke="black" points="48,-252 48,-246 "/>
<polyline fill="none" stroke="black" points="54,-246 48,-246 "/>
<text text-anchor="middle" x="27" y="-231.5" font-family="PT Mono, monospace" font-size="10.00">atomic</text>
</a>
</g>
</g>
<!-- name -->
<g id="node3" class="node">
<title>name</title>
<g id="a_node3"><a xlink:href="PsyllaReference_Types.xhtml#PsyllaReference_Types_Details_name" xlink:title="name" target="_parent">
<polygon fill="wheat" stroke="black" points="112,-36 64,-36 64,0 118,0 118,-30 112,-36"/>
<polyline fill="none" stroke="black" points="112,-36 112,-30 "/>
<polyline fill="none" stroke="black" points="118,-30 112,-30 "/>
<text text-anchor="middle" x="91" y="-15.5" font-family="PT Mono, monospace" font-size="10.00">name</text>
</a>
</g>
</g>
<!-- atomic&#45;&gt;name -->
<g id="edge1" class="edge">
<title>atomic&#45;&gt;name</title>
<path fill="none" stroke="black" d="M29.96,-215.77C33.23,-197.72 38.98,-168.61 46,-144 55.84,-109.5 70.34,-70.77 80.2,-45.69"/>
<polygon fill="black" stroke="black" points="83.55,-46.73 83.99,-36.15 77.05,-44.15 83.55,-46.73"/>
</g>
<!-- textual -->
<g id="node2" class="node">
<title>textual</title>
<g id="a_node2"><a xlink:href="PsyllaReference_Types.xhtml#PsyllaReference_Types_Details_textual" xlink:title="textual" target="_parent">
<polygon fill="linen" stroke="black" points="178.5,-108 125.5,-108 125.5,-72 184.5,-72 184.5,-102 178.5,-108"/>
<polyline fill="none" stroke="black" points="178.5,-108 178.5,-102 "/>
<polyline fill="none" stroke="black" points="184.5,-102 178.5,-102 "/>
<text text-anchor="middle" x="155" y="-87.5" font-family="PT Mono, monospace" font-size="10.00">textual</text>
</a>
</g>
</g>
<!-- textual&#45;&gt;name -->
<g id="edge2" class="edge">
<title>textual&#45;&gt;name</title>
<path fill="none" stroke="black" d="M139.18,-71.7C131.43,-63.22 121.96,-52.86 113.48,-43.58"/>
<polygon fill="black" stroke="black" points="115.97,-41.12 106.64,-36.1 110.8,-45.85 115.97,-41.12"/>
</g>
<!-- object -->
<g id="node4" class="node">
<title>object</title>
<g id="a_node4"><a xlink:href="PsyllaReference_Types.xhtml#PsyllaReference_Types_Details_object" xlink:title="object" target="_parent">
<polygon fill="linen" stroke="black" points="147,-396 99,-396 99,-360 153,-360 153,-390 147,-396"/>
<polyline fill="none" stroke="black" points="147,-396 147,-390 "/>
<polyline fill="none" stroke="black" points="153,-390 147,-390 "/>
<text text-anchor="middle" x="126" y="-375.5" font-family="PT Mono, monospace" font-size="10.00">object</text>
</a>
</g>
</g>
<!-- object&#45;&gt;atomic -->
<g id="edge3" class="edge">
<title>object&#45;&gt;atomic</title>
<path fill="none" stroke="black" d="M103.32,-359.92C91.67,-350.31 77.9,-337.55 68,-324 54.03,-304.88 43.13,-280.23 36.09,-261.73"/>
<polygon fill="black" stroke="black" points="39.31,-260.34 32.58,-252.15 32.73,-262.74 39.31,-260.34"/>
</g>
<!-- evaluable -->
<g id="node5" class="node">
<title>evaluable</title>
<g id="a_node5"><a xlink:href="PsyllaReference_Types.xhtml#PsyllaReference_Types_Details_evaluable" xlink:title="evaluable" target="_parent">
<polygon fill="linen" stroke="black" points="120.5,-180 55.5,-180 55.5,-144 126.5,-144 126.5,-174 120.5,-180"/>
<polyline fill="none" stroke="black" points="120.5,-180 120.5,-174 "/>
<polyline fill="none" stroke="black" points="126.5,-174 120.5,-174 "/>
<text text-anchor="middle" x="91" y="-159.5" font-family="PT Mono, monospace" font-size="10.00">evaluable</text>
</a>
</g>
</g>
<!-- object&#45;&gt;evaluable -->
<g id="edge8" class="edge">
<title>object&#45;&gt;evaluable</title>
<path fill="none" stroke="black" d="M122.05,-359.69C116.67,-335.64 107.03,-290.7 101,-252 97.79,-231.39 95.2,-207.94 93.46,-190.29"/>
<polygon fill="black" stroke="black" points="96.92,-189.74 92.49,-180.12 89.95,-190.41 96.92,-189.74"/>
</g>
<!-- lengthy -->
<g id="node7" class="node">
<title>lengthy</title>
<g id="a_node7"><a xlink:href="PsyllaReference_Types.xhtml#PsyllaReference_Types_Details_lengthy" xlink:title="lengthy" target="_parent">
<polygon fill="linen" stroke="black" points="163.5,-252 110.5,-252 110.5,-216 169.5,-216 169.5,-246 163.5,-252"/>
<polyline fill="none" stroke="black" points="163.5,-252 163.5,-246 "/>
<polyline fill="none" stroke="black" points="169.5,-246 163.5,-246 "/>
<text text-anchor="middle" x="140" y="-231.5" font-family="PT Mono, monospace" font-size="10.00">lengthy</text>
</a>
</g>
</g>
<!-- object&#45;&gt;lengthy -->
<g id="edge10" class="edge">
<title>object&#45;&gt;lengthy</title>
<path fill="none" stroke="black" d="M127.69,-359.87C130.07,-335.67 134.46,-291.21 137.3,-262.39"/>
<polygon fill="black" stroke="black" points="140.81,-262.48 138.31,-252.19 133.84,-261.8 140.81,-262.48"/>
</g>
<!-- scalar -->
<g id="node8" class="node">
<title>scalar</title>
<g id="a_node8"><a xlink:href="PsyllaReference_Types.xhtml#PsyllaReference_Types_Details_scalar" xlink:title="scalar" target="_parent">
<polygon fill="linen" stroke="black" points="202,-324 154,-324 154,-288 208,-288 208,-318 202,-324"/>
<polyline fill="none" stroke="black" points="202,-324 202,-318 "/>
<polyline fill="none" stroke="black" points="208,-318 202,-318 "/>
<text text-anchor="middle" x="181" y="-303.5" font-family="PT Mono, monospace" font-size="10.00">scalar</text>
</a>
</g>
</g>
<!-- object&#45;&gt;scalar -->
<g id="edge11" class="edge">
<title>object&#45;&gt;scalar</title>
<path fill="none" stroke="black" d="M139.6,-359.7C146.12,-351.39 154.07,-341.28 161.25,-332.14"/>
<polygon fill="black" stroke="black" points="164.13,-334.13 167.56,-324.1 158.63,-329.81 164.13,-334.13"/>
</g>
<!-- sequential -->
<g id="node10" class="node">
<title>sequential</title>
<g id="a_node10"><a xlink:href="PsyllaReference_Types.xhtml#PsyllaReference_Types_Details_sequential" xlink:title="sequential" target="_parent">
<polygon fill="linen" stroke="black" points="297.5,-324 226.5,-324 226.5,-288 303.5,-288 303.5,-318 297.5,-324"/>
<polyline fill="none" stroke="black" points="297.5,-324 297.5,-318 "/>
<polyline fill="none" stroke="black" points="303.5,-318 297.5,-318 "/>
<text text-anchor="middle" x="265" y="-303.5" font-family="PT Mono, monospace" font-size="10.00">sequential</text>
</a>
</g>
</g>
<!-- object&#45;&gt;sequential -->
<g id="edge13" class="edge">
<title>object&#45;&gt;sequential</title>
<path fill="none" stroke="black" d="M153.13,-363.34C172.71,-353.48 199.55,-339.96 222.03,-328.64"/>
<polygon fill="black" stroke="black" points="223.69,-331.72 231.05,-324.1 220.54,-325.47 223.69,-331.72"/>
</g>
<!-- evaluable&#45;&gt;textual -->
<g id="edge4" class="edge">
<title>evaluable&#45;&gt;textual</title>
<path fill="none" stroke="black" d="M106.82,-143.7C114.57,-135.22 124.04,-124.86 132.52,-115.58"/>
<polygon fill="black" stroke="black" points="135.2,-117.85 139.36,-108.1 130.03,-113.12 135.2,-117.85"/>
</g>
<!-- iterable -->
<g id="node6" class="node">
<title>iterable</title>
<g id="a_node6"><a xlink:href="PsyllaReference_Types.xhtml#PsyllaReference_Types_Details_iterable" xlink:title="iterable" target="_parent">
<polygon fill="linen" stroke="black" points="288.5,-180 229.5,-180 229.5,-144 294.5,-144 294.5,-174 288.5,-180"/>
<polyline fill="none" stroke="black" points="288.5,-180 288.5,-174 "/>
<polyline fill="none" stroke="black" points="294.5,-174 288.5,-174 "/>
<text text-anchor="middle" x="262" y="-159.5" font-family="PT Mono, monospace" font-size="10.00">iterable</text>
</a>
</g>
</g>
<!-- iterable&#45;&gt;textual -->
<g id="edge5" class="edge">
<title>iterable&#45;&gt;textual</title>
<path fill="none" stroke="black" d="M235.82,-143.88C221.96,-134.81 204.76,-123.55 189.79,-113.76"/>
<polygon fill="black" stroke="black" points="191.56,-110.74 181.28,-108.19 187.73,-116.59 191.56,-110.74"/>
</g>
<!-- lengthy&#45;&gt;textual -->
<g id="edge6" class="edge">
<title>lengthy&#45;&gt;textual</title>
<path fill="none" stroke="black" d="M141.81,-215.87C144.37,-191.67 149.06,-147.21 152.11,-118.39"/>
<polygon fill="black" stroke="black" points="155.61,-118.5 153.18,-108.19 148.65,-117.77 155.61,-118.5"/>
</g>
<!-- scalar&#45;&gt;textual -->
<g id="edge7" class="edge">
<title>scalar&#45;&gt;textual</title>
<path fill="none" stroke="black" d="M181.17,-287.89C181.18,-269.93 180.7,-240.9 178,-216 174.32,-182.02 166.68,-143.41 161.21,-118.2"/>
<polygon fill="black" stroke="black" points="164.59,-117.28 159.02,-108.27 157.76,-118.79 164.59,-117.28"/>
</g>
<!-- streamable -->
<g id="node9" class="node">
<title>streamable</title>
<g id="a_node9"><a xlink:href="PsyllaReference_Types.xhtml#PsyllaReference_Types_Details_streamable" xlink:title="streamable" target="_parent">
<polygon fill="linen" stroke="black" points="297.5,-252 226.5,-252 226.5,-216 303.5,-216 303.5,-246 297.5,-252"/>
<polyline fill="none" stroke="black" points="297.5,-252 297.5,-246 "/>
<polyline fill="none" stroke="black" points="303.5,-246 297.5,-246 "/>
<text text-anchor="middle" x="265" y="-231.5" font-family="PT Mono, monospace" font-size="10.00">streamable</text>
</a>
</g>
</g>
<!-- streamable&#45;&gt;iterable -->
<g id="edge9" class="edge">
<title>streamable&#45;&gt;iterable</title>
<path fill="none" stroke="black" d="M264.26,-215.7C263.93,-207.98 263.53,-198.71 263.16,-190.11"/>
<polygon fill="black" stroke="black" points="266.66,-189.95 262.73,-180.1 259.66,-190.25 266.66,-189.95"/>
</g>
<!-- sequential&#45;&gt;streamable -->
<g id="edge12" class="edge">
<title>sequential&#45;&gt;streamable</title>
<path fill="none" stroke="black" d="M265,-287.7C265,-279.98 265,-270.71 265,-262.11"/>
<polygon fill="black" stroke="black" points="268.5,-262.1 265,-252.1 261.5,-262.1 268.5,-262.1"/>
</g>
</g>
</svg>
