<?xml version="1.0" encoding="UTF-8" standalone="no"?>
<!DOCTYPE svg PUBLIC "-//W3C//DTD SVG 1.1//EN"
 "http://www.w3.org/Graphics/SVG/1.1/DTD/svg11.dtd">
<!-- Generated by graphviz version 2.43.0 (0)
 -->
<!-- Title: formalset Pages: 1 -->
<svg width="355pt" height="404pt"
 viewBox="0.00 0.00 355.00 404.00" xmlns="http://www.w3.org/2000/svg" xmlns:xlink="http://www.w3.org/1999/xlink">
<g id="graph0" class="graph" transform="scale(1 1) rotate(0) translate(4 400)">
<title>formalset</title>
<polygon fill="transparent" stroke="transparent" points="-4,4 -4,-400 351,-400 351,4 -4,4"/>
<!-- appendable -->
<g id="node1" class="node">
<title>appendable</title>
<g id="a_node1"><a xlink:href="PsyllaReference_Types.xhtml#PsyllaReference_Types_Details_appendable" xlink:title="appendable" target="_parent">
<polygon fill="linen" stroke="black" points="93,-252 0,-252 0,-216 99,-216 99,-246 93,-252"/>
<polyline fill="none" stroke="black" points="93,-252 93,-246 "/>
<polyline fill="none" stroke="black" points="99,-246 93,-246 "/>
<text text-anchor="middle" x="49.5" y="-230.3" font-family="Consolas, monospace" font-size="14.00">appendable</text>
</a>
</g>
</g>
<!-- formalset -->
<g id="node3" class="node">
<title>formalset</title>
<g id="a_node3"><a xlink:href="PsyllaReference_Types.xhtml#PsyllaReference_Types_Details_formalset" xlink:title="formalset" target="_parent">
<polygon fill="wheat" stroke="black" points="127,-36 42,-36 42,0 133,0 133,-30 127,-36"/>
<polyline fill="none" stroke="black" points="127,-36 127,-30 "/>
<polyline fill="none" stroke="black" points="133,-30 127,-30 "/>
<text text-anchor="middle" x="87.5" y="-14.3" font-family="Consolas, monospace" font-size="14.00">formalset</text>
</a>
</g>
</g>
<!-- appendable&#45;&gt;formalset -->
<g id="edge1" class="edge">
<title>appendable&#45;&gt;formalset</title>
<path fill="none" stroke="black" d="M52.55,-215.85C59.13,-178.75 74.75,-90.81 82.69,-46.1"/>
<polygon fill="black" stroke="black" points="86.14,-46.69 84.44,-36.23 79.25,-45.47 86.14,-46.69"/>
</g>
<!-- container -->
<g id="node2" class="node">
<title>container</title>
<g id="a_node2"><a xlink:href="PsyllaReference_Types.xhtml#PsyllaReference_Types_Details_container" xlink:title="container" target="_parent">
<polygon fill="linen" stroke="black" points="201,-108 116,-108 116,-72 207,-72 207,-102 201,-108"/>
<polyline fill="none" stroke="black" points="201,-108 201,-102 "/>
<polyline fill="none" stroke="black" points="207,-102 201,-102 "/>
<text text-anchor="middle" x="161.5" y="-86.3" font-family="Consolas, monospace" font-size="14.00">container</text>
</a>
</g>
</g>
<!-- container&#45;&gt;formalset -->
<g id="edge2" class="edge">
<title>container&#45;&gt;formalset</title>
<path fill="none" stroke="black" d="M143.21,-71.7C134.07,-63.05 122.86,-52.45 112.9,-43.03"/>
<polygon fill="black" stroke="black" points="115.25,-40.43 105.58,-36.1 110.44,-45.52 115.25,-40.43"/>
</g>
<!-- object -->
<g id="node4" class="node">
<title>object</title>
<g id="a_node4"><a xlink:href="PsyllaReference_Types.xhtml#PsyllaReference_Types_Details_object" xlink:title="object" target="_parent">
<polygon fill="linen" stroke="black" points="186.5,-396 126.5,-396 126.5,-360 192.5,-360 192.5,-390 186.5,-396"/>
<polyline fill="none" stroke="black" points="186.5,-396 186.5,-390 "/>
<polyline fill="none" stroke="black" points="192.5,-390 186.5,-390 "/>
<text text-anchor="middle" x="159.5" y="-374.3" font-family="Consolas, monospace" font-size="14.00">object</text>
</a>
</g>
</g>
<!-- object&#45;&gt;appendable -->
<g id="edge3" class="edge">
<title>object&#45;&gt;appendable</title>
<path fill="none" stroke="black" d="M143.76,-359.67C134.67,-349.48 123.17,-336.23 113.5,-324 96.96,-303.09 79.36,-278.42 66.81,-260.36"/>
<polygon fill="black" stroke="black" points="69.65,-258.31 61.08,-252.07 63.89,-262.29 69.65,-258.31"/>
</g>
<!-- clearable -->
<g id="node5" class="node">
<title>clearable</title>
<g id="a_node5"><a xlink:href="PsyllaReference_Types.xhtml#PsyllaReference_Types_Details_clearable" xlink:title="clearable" target="_parent">
<polygon fill="linen" stroke="black" points="165,-180 80,-180 80,-144 171,-144 171,-174 165,-180"/>
<polyline fill="none" stroke="black" points="165,-180 165,-174 "/>
<polyline fill="none" stroke="black" points="171,-174 165,-174 "/>
<text text-anchor="middle" x="125.5" y="-158.3" font-family="Consolas, monospace" font-size="14.00">clearable</text>
</a>
</g>
</g>
<!-- object&#45;&gt;clearable -->
<g id="edge7" class="edge">
<title>object&#45;&gt;clearable</title>
<path fill="none" stroke="black" d="M154.8,-359.92C152.08,-349.58 148.77,-336.11 146.5,-324 137.74,-277.2 131.4,-222.07 128.1,-189.97"/>
<polygon fill="black" stroke="black" points="131.58,-189.62 127.09,-180.02 124.61,-190.32 131.58,-189.62"/>
</g>
<!-- lengthy -->
<g id="node7" class="node">
<title>lengthy</title>
<g id="a_node7"><a xlink:href="PsyllaReference_Types.xhtml#PsyllaReference_Types_Details_lengthy" xlink:title="lengthy" target="_parent">
<polygon fill="linen" stroke="black" points="223.5,-324 155.5,-324 155.5,-288 229.5,-288 229.5,-318 223.5,-324"/>
<polyline fill="none" stroke="black" points="223.5,-324 223.5,-318 "/>
<polyline fill="none" stroke="black" points="229.5,-318 223.5,-318 "/>
<text text-anchor="middle" x="192.5" y="-302.3" font-family="Consolas, monospace" font-size="14.00">lengthy</text>
</a>
</g>
</g>
<!-- object&#45;&gt;lengthy -->
<g id="edge9" class="edge">
<title>object&#45;&gt;lengthy</title>
<path fill="none" stroke="black" d="M167.66,-359.7C171.41,-351.73 175.95,-342.1 180.12,-333.26"/>
<polygon fill="black" stroke="black" points="183.34,-334.64 184.44,-324.1 177.01,-331.66 183.34,-334.64"/>
</g>
<!-- sequential -->
<g id="node9" class="node">
<title>sequential</title>
<g id="a_node9"><a xlink:href="PsyllaReference_Types.xhtml#PsyllaReference_Types_Details_sequential" xlink:title="sequential" target="_parent">
<polygon fill="linen" stroke="black" points="341,-324 248,-324 248,-288 347,-288 347,-318 341,-324"/>
<polyline fill="none" stroke="black" points="341,-324 341,-318 "/>
<polyline fill="none" stroke="black" points="347,-318 341,-318 "/>
<text text-anchor="middle" x="297.5" y="-302.3" font-family="Consolas, monospace" font-size="14.00">sequential</text>
</a>
</g>
</g>
<!-- object&#45;&gt;sequential -->
<g id="edge11" class="edge">
<title>object&#45;&gt;sequential</title>
<path fill="none" stroke="black" d="M192.55,-360.23C211.22,-350.76 234.77,-338.82 254.82,-328.65"/>
<polygon fill="black" stroke="black" points="256.42,-331.76 263.76,-324.12 253.25,-325.52 256.42,-331.76"/>
</g>
<!-- clearable&#45;&gt;container -->
<g id="edge4" class="edge">
<title>clearable&#45;&gt;container</title>
<path fill="none" stroke="black" d="M134.4,-143.7C138.5,-135.73 143.45,-126.1 147.99,-117.26"/>
<polygon fill="black" stroke="black" points="151.24,-118.6 152.7,-108.1 145.02,-115.4 151.24,-118.6"/>
</g>
<!-- iterable -->
<g id="node6" class="node">
<title>iterable</title>
<g id="a_node6"><a xlink:href="PsyllaReference_Types.xhtml#PsyllaReference_Types_Details_iterable" xlink:title="iterable" target="_parent">
<polygon fill="linen" stroke="black" points="314,-180 237,-180 237,-144 320,-144 320,-174 314,-180"/>
<polyline fill="none" stroke="black" points="314,-180 314,-174 "/>
<polyline fill="none" stroke="black" points="320,-174 314,-174 "/>
<text text-anchor="middle" x="278.5" y="-158.3" font-family="Consolas, monospace" font-size="14.00">iterable</text>
</a>
</g>
</g>
<!-- iterable&#45;&gt;container -->
<g id="edge5" class="edge">
<title>iterable&#45;&gt;container</title>
<path fill="none" stroke="black" d="M249.88,-143.88C234.58,-134.72 215.56,-123.34 199.08,-113.48"/>
<polygon fill="black" stroke="black" points="200.61,-110.32 190.23,-108.19 197.02,-116.33 200.61,-110.32"/>
</g>
<!-- lengthy&#45;&gt;container -->
<g id="edge6" class="edge">
<title>lengthy&#45;&gt;container</title>
<path fill="none" stroke="black" d="M192.5,-287.88C192.18,-258.26 190.18,-195.63 179.5,-144 177.71,-135.34 174.92,-126.14 172.06,-117.88"/>
<polygon fill="black" stroke="black" points="175.31,-116.57 168.61,-108.36 168.73,-118.96 175.31,-116.57"/>
</g>
<!-- streamable -->
<g id="node8" class="node">
<title>streamable</title>
<g id="a_node8"><a xlink:href="PsyllaReference_Types.xhtml#PsyllaReference_Types_Details_streamable" xlink:title="streamable" target="_parent">
<polygon fill="linen" stroke="black" points="331,-252 238,-252 238,-216 337,-216 337,-246 331,-252"/>
<polyline fill="none" stroke="black" points="331,-252 331,-246 "/>
<polyline fill="none" stroke="black" points="337,-246 331,-246 "/>
<text text-anchor="middle" x="287.5" y="-230.3" font-family="Consolas, monospace" font-size="14.00">streamable</text>
</a>
</g>
</g>
<!-- streamable&#45;&gt;iterable -->
<g id="edge8" class="edge">
<title>streamable&#45;&gt;iterable</title>
<path fill="none" stroke="black" d="M285.28,-215.7C284.28,-207.98 283.09,-198.71 281.99,-190.11"/>
<polygon fill="black" stroke="black" points="285.45,-189.58 280.7,-180.1 278.5,-190.47 285.45,-189.58"/>
</g>
<!-- sequential&#45;&gt;streamable -->
<g id="edge10" class="edge">
<title>sequential&#45;&gt;streamable</title>
<path fill="none" stroke="black" d="M295.03,-287.7C293.93,-279.98 292.6,-270.71 291.37,-262.11"/>
<polygon fill="black" stroke="black" points="294.82,-261.51 289.94,-252.1 287.89,-262.5 294.82,-261.51"/>
</g>
</g>
</svg>
