<?xml version="1.0" encoding="UTF-8" standalone="no"?>
<!DOCTYPE svg PUBLIC "-//W3C//DTD SVG 1.1//EN"
 "http://www.w3.org/Graphics/SVG/1.1/DTD/svg11.dtd">
<!-- Generated by graphviz version 2.43.0 (0)
 -->
<!-- Title: array Pages: 1 -->
<svg width="465pt" height="476pt"
 viewBox="0.00 0.00 464.50 476.00" xmlns="http://www.w3.org/2000/svg" xmlns:xlink="http://www.w3.org/1999/xlink">
<g id="graph0" class="graph" transform="scale(1 1) rotate(0) translate(4 472)">
<title>array</title>
<polygon fill="transparent" stroke="transparent" points="-4,4 -4,-472 460.5,-472 460.5,4 -4,4"/>
<!-- formalarray -->
<g id="node1" class="node">
<title>formalarray</title>
<g id="a_node1"><a xlink:href="PsyllaReference_Types.xhtml#PsyllaReference_Types_Details_formalarray" xlink:title="formalarray" target="_parent">
<polygon fill="linen" stroke="black" points="203,-108 102,-108 102,-72 209,-72 209,-102 203,-108"/>
<polyline fill="none" stroke="black" points="203,-108 203,-102 "/>
<polyline fill="none" stroke="black" points="209,-102 203,-102 "/>
<text text-anchor="middle" x="155.5" y="-86.3" font-family="Consolas, monospace" font-size="14.00">formalarray</text>
</a>
</g>
</g>
<!-- array -->
<g id="node2" class="node">
<title>array</title>
<g id="a_node2"><a xlink:href="PsyllaReference_Types.xhtml#PsyllaReference_Types_Details_array" xlink:title="array" target="_parent">
<polygon fill="wheat" stroke="black" points="178.5,-36 126.5,-36 126.5,0 184.5,0 184.5,-30 178.5,-36"/>
<polyline fill="none" stroke="black" points="178.5,-36 178.5,-30 "/>
<polyline fill="none" stroke="black" points="184.5,-30 178.5,-30 "/>
<text text-anchor="middle" x="155.5" y="-14.3" font-family="Consolas, monospace" font-size="14.00">array</text>
</a>
</g>
</g>
<!-- formalarray&#45;&gt;array -->
<g id="edge1" class="edge">
<title>formalarray&#45;&gt;array</title>
<path fill="none" stroke="black" d="M155.5,-71.7C155.5,-63.98 155.5,-54.71 155.5,-46.11"/>
<polygon fill="black" stroke="black" points="159,-46.1 155.5,-36.1 152,-46.1 159,-46.1"/>
</g>
<!-- appendable -->
<g id="node3" class="node">
<title>appendable</title>
<g id="a_node3"><a xlink:href="PsyllaReference_Types.xhtml#PsyllaReference_Types_Details_appendable" xlink:title="appendable" target="_parent">
<polygon fill="linen" stroke="black" points="93,-324 0,-324 0,-288 99,-288 99,-318 93,-324"/>
<polyline fill="none" stroke="black" points="93,-324 93,-318 "/>
<polyline fill="none" stroke="black" points="99,-318 93,-318 "/>
<text text-anchor="middle" x="49.5" y="-302.3" font-family="Consolas, monospace" font-size="14.00">appendable</text>
</a>
</g>
</g>
<!-- appendable&#45;&gt;formalarray -->
<g id="edge2" class="edge">
<title>appendable&#45;&gt;formalarray</title>
<path fill="none" stroke="black" d="M50.06,-287.96C51.18,-269.55 54.54,-239.69 64.5,-216 80.77,-177.32 111.1,-139.27 132.26,-115.5"/>
<polygon fill="black" stroke="black" points="134.92,-117.77 139.04,-108.01 129.74,-113.07 134.92,-117.77"/>
</g>
<!-- container -->
<g id="node4" class="node">
<title>container</title>
<g id="a_node4"><a xlink:href="PsyllaReference_Types.xhtml#PsyllaReference_Types_Details_container" xlink:title="container" target="_parent">
<polygon fill="linen" stroke="black" points="354,-180 269,-180 269,-144 360,-144 360,-174 354,-180"/>
<polyline fill="none" stroke="black" points="354,-180 354,-174 "/>
<polyline fill="none" stroke="black" points="360,-174 354,-174 "/>
<text text-anchor="middle" x="314.5" y="-158.3" font-family="Consolas, monospace" font-size="14.00">container</text>
</a>
</g>
</g>
<!-- container&#45;&gt;formalarray -->
<g id="edge3" class="edge">
<title>container&#45;&gt;formalarray</title>
<path fill="none" stroke="black" d="M275.6,-143.88C253.87,-134.31 226.6,-122.3 203.54,-112.15"/>
<polygon fill="black" stroke="black" points="204.83,-108.89 194.27,-108.07 202.01,-115.3 204.83,-108.89"/>
</g>
<!-- indexed -->
<g id="node5" class="node">
<title>indexed</title>
<g id="a_node5"><a xlink:href="PsyllaReference_Types.xhtml#PsyllaReference_Types_Details_indexed" xlink:title="indexed" target="_parent">
<polygon fill="linen" stroke="black" points="141.5,-252 73.5,-252 73.5,-216 147.5,-216 147.5,-246 141.5,-252"/>
<polyline fill="none" stroke="black" points="141.5,-252 141.5,-246 "/>
<polyline fill="none" stroke="black" points="147.5,-246 141.5,-246 "/>
<text text-anchor="middle" x="110.5" y="-230.3" font-family="Consolas, monospace" font-size="14.00">indexed</text>
</a>
</g>
</g>
<!-- indexed&#45;&gt;formalarray -->
<g id="edge4" class="edge">
<title>indexed&#45;&gt;formalarray</title>
<path fill="none" stroke="black" d="M115.93,-215.87C123.63,-191.56 137.81,-146.82 146.94,-118.01"/>
<polygon fill="black" stroke="black" points="150.37,-118.78 150.05,-108.19 143.7,-116.66 150.37,-118.78"/>
</g>
<!-- sequential -->
<g id="node6" class="node">
<title>sequential</title>
<g id="a_node6"><a xlink:href="PsyllaReference_Types.xhtml#PsyllaReference_Types_Details_sequential" xlink:title="sequential" target="_parent">
<polygon fill="linen" stroke="black" points="275,-396 182,-396 182,-360 281,-360 281,-390 275,-396"/>
<polyline fill="none" stroke="black" points="275,-396 275,-390 "/>
<polyline fill="none" stroke="black" points="281,-390 275,-390 "/>
<text text-anchor="middle" x="231.5" y="-374.3" font-family="Consolas, monospace" font-size="14.00">sequential</text>
</a>
</g>
</g>
<!-- sequential&#45;&gt;formalarray -->
<g id="edge5" class="edge">
<title>sequential&#45;&gt;formalarray</title>
<path fill="none" stroke="black" d="M216.33,-359.53C208.61,-349.72 199.76,-336.88 194.5,-324 165.71,-253.49 158.17,-162.68 156.19,-118.12"/>
<polygon fill="black" stroke="black" points="159.69,-117.93 155.81,-108.07 152.7,-118.2 159.69,-117.93"/>
</g>
<!-- streamable -->
<g id="node11" class="node">
<title>streamable</title>
<g id="a_node11"><a xlink:href="PsyllaReference_Types.xhtml#PsyllaReference_Types_Details_streamable" xlink:title="streamable" target="_parent">
<polygon fill="linen" stroke="black" points="297,-324 204,-324 204,-288 303,-288 303,-318 297,-324"/>
<polyline fill="none" stroke="black" points="297,-324 297,-318 "/>
<polyline fill="none" stroke="black" points="303,-318 297,-318 "/>
<text text-anchor="middle" x="253.5" y="-302.3" font-family="Consolas, monospace" font-size="14.00">streamable</text>
</a>
</g>
</g>
<!-- sequential&#45;&gt;streamable -->
<g id="edge15" class="edge">
<title>sequential&#45;&gt;streamable</title>
<path fill="none" stroke="black" d="M236.94,-359.7C239.39,-351.9 242.34,-342.51 245.07,-333.83"/>
<polygon fill="black" stroke="black" points="248.46,-334.69 248.12,-324.1 241.79,-332.59 248.46,-334.69"/>
</g>
<!-- object -->
<g id="node7" class="node">
<title>object</title>
<g id="a_node7"><a xlink:href="PsyllaReference_Types.xhtml#PsyllaReference_Types_Details_object" xlink:title="object" target="_parent">
<polygon fill="linen" stroke="black" points="258.5,-468 198.5,-468 198.5,-432 264.5,-432 264.5,-462 258.5,-468"/>
<polyline fill="none" stroke="black" points="258.5,-468 258.5,-462 "/>
<polyline fill="none" stroke="black" points="264.5,-462 258.5,-462 "/>
<text text-anchor="middle" x="231.5" y="-446.3" font-family="Consolas, monospace" font-size="14.00">object</text>
</a>
</g>
</g>
<!-- object&#45;&gt;appendable -->
<g id="edge6" class="edge">
<title>object&#45;&gt;appendable</title>
<path fill="none" stroke="black" d="M198.2,-437.67C174.91,-428.71 143.91,-414.6 120.5,-396 98.19,-378.27 78.49,-352.29 65.54,-332.96"/>
<polygon fill="black" stroke="black" points="68.31,-330.8 59.91,-324.35 62.45,-334.63 68.31,-330.8"/>
</g>
<!-- object&#45;&gt;indexed -->
<g id="edge10" class="edge">
<title>object&#45;&gt;indexed</title>
<path fill="none" stroke="black" d="M207.47,-431.77C195.65,-422.31 181.95,-409.72 172.5,-396 143.37,-353.71 125.45,-295.86 116.79,-262.25"/>
<polygon fill="black" stroke="black" points="120.11,-261.1 114.3,-252.24 113.32,-262.79 120.11,-261.1"/>
</g>
<!-- object&#45;&gt;sequential -->
<g id="edge11" class="edge">
<title>object&#45;&gt;sequential</title>
<path fill="none" stroke="black" d="M231.5,-431.7C231.5,-423.98 231.5,-414.71 231.5,-406.11"/>
<polygon fill="black" stroke="black" points="235,-406.1 231.5,-396.1 228,-406.1 235,-406.1"/>
</g>
<!-- clearable -->
<g id="node8" class="node">
<title>clearable</title>
<g id="a_node8"><a xlink:href="PsyllaReference_Types.xhtml#PsyllaReference_Types_Details_clearable" xlink:title="clearable" target="_parent">
<polygon fill="linen" stroke="black" points="406,-324 321,-324 321,-288 412,-288 412,-318 406,-324"/>
<polyline fill="none" stroke="black" points="406,-324 406,-318 "/>
<polyline fill="none" stroke="black" points="412,-318 406,-318 "/>
<text text-anchor="middle" x="366.5" y="-302.3" font-family="Consolas, monospace" font-size="14.00">clearable</text>
</a>
</g>
</g>
<!-- object&#45;&gt;clearable -->
<g id="edge12" class="edge">
<title>object&#45;&gt;clearable</title>
<path fill="none" stroke="black" d="M251.37,-431.88C262.82,-421.76 277.32,-408.51 289.5,-396 309.64,-375.3 331.02,-350.33 346.12,-332.11"/>
<polygon fill="black" stroke="black" points="348.94,-334.2 352.59,-324.25 343.53,-329.75 348.94,-334.2"/>
</g>
<!-- lengthy -->
<g id="node10" class="node">
<title>lengthy</title>
<g id="a_node10"><a xlink:href="PsyllaReference_Types.xhtml#PsyllaReference_Types_Details_lengthy" xlink:title="lengthy" target="_parent">
<polygon fill="linen" stroke="black" points="450.5,-396 382.5,-396 382.5,-360 456.5,-360 456.5,-390 450.5,-396"/>
<polyline fill="none" stroke="black" points="450.5,-396 450.5,-390 "/>
<polyline fill="none" stroke="black" points="456.5,-390 450.5,-390 "/>
<text text-anchor="middle" x="419.5" y="-374.3" font-family="Consolas, monospace" font-size="14.00">lengthy</text>
</a>
</g>
</g>
<!-- object&#45;&gt;lengthy -->
<g id="edge14" class="edge">
<title>object&#45;&gt;lengthy</title>
<path fill="none" stroke="black" d="M264.68,-436.65C294.71,-425.47 339.25,-408.88 372.86,-396.37"/>
<polygon fill="black" stroke="black" points="374.32,-399.56 382.47,-392.79 371.88,-393 374.32,-399.56"/>
</g>
<!-- clearable&#45;&gt;container -->
<g id="edge7" class="edge">
<title>clearable&#45;&gt;container</title>
<path fill="none" stroke="black" d="M360.23,-287.87C351.29,-263.46 334.8,-218.43 324.25,-189.64"/>
<polygon fill="black" stroke="black" points="327.52,-188.38 320.79,-180.19 320.95,-190.78 327.52,-188.38"/>
</g>
<!-- iterable -->
<g id="node9" class="node">
<title>iterable</title>
<g id="a_node9"><a xlink:href="PsyllaReference_Types.xhtml#PsyllaReference_Types_Details_iterable" xlink:title="iterable" target="_parent">
<polygon fill="linen" stroke="black" points="310,-252 233,-252 233,-216 316,-216 316,-246 310,-252"/>
<polyline fill="none" stroke="black" points="310,-252 310,-246 "/>
<polyline fill="none" stroke="black" points="316,-246 310,-246 "/>
<text text-anchor="middle" x="274.5" y="-230.3" font-family="Consolas, monospace" font-size="14.00">iterable</text>
</a>
</g>
</g>
<!-- iterable&#45;&gt;container -->
<g id="edge8" class="edge">
<title>iterable&#45;&gt;container</title>
<path fill="none" stroke="black" d="M284.39,-215.7C288.99,-207.64 294.56,-197.89 299.65,-188.98"/>
<polygon fill="black" stroke="black" points="302.8,-190.52 304.73,-180.1 296.73,-187.05 302.8,-190.52"/>
</g>
<!-- lengthy&#45;&gt;container -->
<g id="edge9" class="edge">
<title>lengthy&#45;&gt;container</title>
<path fill="none" stroke="black" d="M423.18,-360C426.36,-341.63 429.23,-311.79 420.5,-288 405.31,-246.6 369.67,-209.52 343.9,-186.7"/>
<polygon fill="black" stroke="black" points="346.11,-183.98 336.25,-180.08 341.53,-189.27 346.11,-183.98"/>
</g>
<!-- streamable&#45;&gt;iterable -->
<g id="edge13" class="edge">
<title>streamable&#45;&gt;iterable</title>
<path fill="none" stroke="black" d="M258.69,-287.7C261.03,-279.9 263.85,-270.51 266.45,-261.83"/>
<polygon fill="black" stroke="black" points="269.85,-262.69 269.37,-252.1 263.14,-260.68 269.85,-262.69"/>
</g>
</g>
</svg>
