<?xml version="1.0" encoding="UTF-8" standalone="no"?>
<!DOCTYPE svg PUBLIC "-//W3C//DTD SVG 1.1//EN"
 "http://www.w3.org/Graphics/SVG/1.1/DTD/svg11.dtd">
<!-- Generated by graphviz version 2.43.0 (0)
 -->
<!-- Title: fractional Pages: 1 -->
<svg width="333pt" height="476pt"
 viewBox="0.00 0.00 333.00 476.00" xmlns="http://www.w3.org/2000/svg" xmlns:xlink="http://www.w3.org/1999/xlink">
<g id="graph0" class="graph" transform="scale(1 1) rotate(0) translate(4 472)">
<title>fractional</title>
<polygon fill="transparent" stroke="transparent" points="-4,4 -4,-472 329,-472 329,4 -4,4"/>
<!-- rational -->
<g id="node1" class="node">
<title>rational</title>
<g id="a_node1"><a xlink:href="PsyllaReference_Types.xhtml#PsyllaReference_Types_Details_rational" xlink:title="rational" target="_parent">
<polygon fill="linen" stroke="black" points="105.5,-108 34.5,-108 34.5,-72 111.5,-72 111.5,-102 105.5,-108"/>
<polyline fill="none" stroke="black" points="105.5,-108 105.5,-102 "/>
<polyline fill="none" stroke="black" points="111.5,-102 105.5,-102 "/>
<text text-anchor="middle" x="73" y="-86.9" font-family="PT Mono, monospace" font-size="12.00">rational</text>
</a>
</g>
</g>
<!-- fractional -->
<g id="node2" class="node">
<title>fractional</title>
<g id="a_node2"><a xlink:href="PsyllaReference_Types.xhtml#PsyllaReference_Types_Details_fractional" xlink:title="fractional" target="_parent">
<polygon fill="wheat" stroke="black" points="113,-36 27,-36 27,0 119,0 119,-30 113,-36"/>
<polyline fill="none" stroke="black" points="113,-36 113,-30 "/>
<polyline fill="none" stroke="black" points="119,-30 113,-30 "/>
<text text-anchor="middle" x="73" y="-14.9" font-family="PT Mono, monospace" font-size="12.00">fractional</text>
</a>
</g>
</g>
<!-- rational&#45;&gt;fractional -->
<g id="edge1" class="edge">
<title>rational&#45;&gt;fractional</title>
<path fill="none" stroke="black" d="M73,-71.7C73,-63.98 73,-54.71 73,-46.11"/>
<polygon fill="black" stroke="black" points="76.5,-46.1 73,-36.1 69.5,-46.1 76.5,-46.1"/>
</g>
<!-- realnumeric -->
<g id="node3" class="node">
<title>realnumeric</title>
<g id="a_node3"><a xlink:href="PsyllaReference_Types.xhtml#PsyllaReference_Types_Details_realnumeric" xlink:title="realnumeric" target="_parent">
<polygon fill="linen" stroke="black" points="116.5,-180 23.5,-180 23.5,-144 122.5,-144 122.5,-174 116.5,-180"/>
<polyline fill="none" stroke="black" points="116.5,-180 116.5,-174 "/>
<polyline fill="none" stroke="black" points="122.5,-174 116.5,-174 "/>
<text text-anchor="middle" x="73" y="-158.9" font-family="PT Mono, monospace" font-size="12.00">realnumeric</text>
</a>
</g>
</g>
<!-- realnumeric&#45;&gt;rational -->
<g id="edge2" class="edge">
<title>realnumeric&#45;&gt;rational</title>
<path fill="none" stroke="black" d="M73,-143.7C73,-135.98 73,-126.71 73,-118.11"/>
<polygon fill="black" stroke="black" points="76.5,-118.1 73,-108.1 69.5,-118.1 76.5,-118.1"/>
</g>
<!-- numeric -->
<g id="node4" class="node">
<title>numeric</title>
<g id="a_node4"><a xlink:href="PsyllaReference_Types.xhtml#PsyllaReference_Types_Details_numeric" xlink:title="numeric" target="_parent">
<polygon fill="linen" stroke="black" points="143.5,-252 80.5,-252 80.5,-216 149.5,-216 149.5,-246 143.5,-252"/>
<polyline fill="none" stroke="black" points="143.5,-252 143.5,-246 "/>
<polyline fill="none" stroke="black" points="149.5,-246 143.5,-246 "/>
<text text-anchor="middle" x="115" y="-230.9" font-family="PT Mono, monospace" font-size="12.00">numeric</text>
</a>
</g>
</g>
<!-- numeric&#45;&gt;realnumeric -->
<g id="edge3" class="edge">
<title>numeric&#45;&gt;realnumeric</title>
<path fill="none" stroke="black" d="M104.62,-215.7C99.74,-207.56 93.81,-197.69 88.42,-188.7"/>
<polygon fill="black" stroke="black" points="91.41,-186.88 83.26,-180.1 85.41,-190.48 91.41,-186.88"/>
</g>
<!-- scalar -->
<g id="node5" class="node">
<title>scalar</title>
<g id="a_node5"><a xlink:href="PsyllaReference_Types.xhtml#PsyllaReference_Types_Details_scalar" xlink:title="scalar" target="_parent">
<polygon fill="linen" stroke="black" points="56,-252 0,-252 0,-216 62,-216 62,-246 56,-252"/>
<polyline fill="none" stroke="black" points="56,-252 56,-246 "/>
<polyline fill="none" stroke="black" points="62,-246 56,-246 "/>
<text text-anchor="middle" x="31" y="-230.9" font-family="PT Mono, monospace" font-size="12.00">scalar</text>
</a>
</g>
</g>
<!-- scalar&#45;&gt;realnumeric -->
<g id="edge4" class="edge">
<title>scalar&#45;&gt;realnumeric</title>
<path fill="none" stroke="black" d="M41.38,-215.7C46.26,-207.56 52.19,-197.69 57.58,-188.7"/>
<polygon fill="black" stroke="black" points="60.59,-190.48 62.74,-180.1 54.59,-186.88 60.59,-190.48"/>
</g>
<!-- atomic -->
<g id="node6" class="node">
<title>atomic</title>
<g id="a_node6"><a xlink:href="PsyllaReference_Types.xhtml#PsyllaReference_Types_Details_atomic" xlink:title="atomic" target="_parent">
<polygon fill="linen" stroke="black" points="115,-324 59,-324 59,-288 121,-288 121,-318 115,-324"/>
<polyline fill="none" stroke="black" points="115,-324 115,-318 "/>
<polyline fill="none" stroke="black" points="121,-318 115,-318 "/>
<text text-anchor="middle" x="90" y="-302.9" font-family="PT Mono, monospace" font-size="12.00">atomic</text>
</a>
</g>
</g>
<!-- atomic&#45;&gt;numeric -->
<g id="edge5" class="edge">
<title>atomic&#45;&gt;numeric</title>
<path fill="none" stroke="black" d="M96.18,-287.7C99,-279.81 102.39,-270.3 105.52,-261.55"/>
<polygon fill="black" stroke="black" points="108.82,-262.7 108.89,-252.1 102.23,-260.34 108.82,-262.7"/>
</g>
<!-- arithmetic -->
<g id="node7" class="node">
<title>arithmetic</title>
<g id="a_node7"><a xlink:href="PsyllaReference_Types.xhtml#PsyllaReference_Types_Details_arithmetic" xlink:title="arithmetic" target="_parent">
<polygon fill="linen" stroke="black" points="225,-324 139,-324 139,-288 231,-288 231,-318 225,-324"/>
<polyline fill="none" stroke="black" points="225,-324 225,-318 "/>
<polyline fill="none" stroke="black" points="231,-318 225,-318 "/>
<text text-anchor="middle" x="185" y="-302.9" font-family="PT Mono, monospace" font-size="12.00">arithmetic</text>
</a>
</g>
</g>
<!-- arithmetic&#45;&gt;numeric -->
<g id="edge6" class="edge">
<title>arithmetic&#45;&gt;numeric</title>
<path fill="none" stroke="black" d="M167.7,-287.7C159.14,-279.14 148.66,-268.66 139.3,-259.3"/>
<polygon fill="black" stroke="black" points="141.65,-256.7 132.1,-252.1 136.7,-261.65 141.65,-256.7"/>
</g>
<!-- object -->
<g id="node8" class="node">
<title>object</title>
<g id="a_node8"><a xlink:href="PsyllaReference_Types.xhtml#PsyllaReference_Types_Details_object" xlink:title="object" target="_parent">
<polygon fill="linen" stroke="black" points="137,-468 81,-468 81,-432 143,-432 143,-462 137,-468"/>
<polyline fill="none" stroke="black" points="137,-468 137,-462 "/>
<polyline fill="none" stroke="black" points="143,-462 137,-462 "/>
<text text-anchor="middle" x="112" y="-446.9" font-family="PT Mono, monospace" font-size="12.00">object</text>
</a>
</g>
</g>
<!-- object&#45;&gt;scalar -->
<g id="edge7" class="edge">
<title>object&#45;&gt;scalar</title>
<path fill="none" stroke="black" d="M101.73,-431.8C88.07,-408.24 64.03,-364.26 50,-324 42.95,-303.77 38.03,-279.99 34.97,-262.11"/>
<polygon fill="black" stroke="black" points="38.4,-261.38 33.34,-252.07 31.49,-262.51 38.4,-261.38"/>
</g>
<!-- object&#45;&gt;atomic -->
<g id="edge8" class="edge">
<title>object&#45;&gt;atomic</title>
<path fill="none" stroke="black" d="M106.72,-431.98C103.72,-421.66 100.14,-408.19 98,-396 94.4,-375.5 92.37,-352.05 91.26,-334.36"/>
<polygon fill="black" stroke="black" points="94.75,-333.96 90.68,-324.17 87.76,-334.36 94.75,-333.96"/>
</g>
<!-- additive -->
<g id="node9" class="node">
<title>additive</title>
<g id="a_node9"><a xlink:href="PsyllaReference_Types.xhtml#PsyllaReference_Types_Details_additive" xlink:title="additive" target="_parent">
<polygon fill="linen" stroke="black" points="178.5,-396 107.5,-396 107.5,-360 184.5,-360 184.5,-390 178.5,-396"/>
<polyline fill="none" stroke="black" points="178.5,-396 178.5,-390 "/>
<polyline fill="none" stroke="black" points="184.5,-390 178.5,-390 "/>
<text text-anchor="middle" x="146" y="-374.9" font-family="PT Mono, monospace" font-size="12.00">additive</text>
</a>
</g>
</g>
<!-- object&#45;&gt;additive -->
<g id="edge11" class="edge">
<title>object&#45;&gt;additive</title>
<path fill="none" stroke="black" d="M120.4,-431.7C124.27,-423.73 128.95,-414.1 133.24,-405.26"/>
<polygon fill="black" stroke="black" points="136.47,-406.63 137.69,-396.1 130.17,-403.57 136.47,-406.63"/>
</g>
<!-- multiplicative -->
<g id="node10" class="node">
<title>multiplicative</title>
<g id="a_node10"><a xlink:href="PsyllaReference_Types.xhtml#PsyllaReference_Types_Details_multiplicative" xlink:title="multiplicative" target="_parent">
<polygon fill="linen" stroke="black" points="319,-396 203,-396 203,-360 325,-360 325,-390 319,-396"/>
<polyline fill="none" stroke="black" points="319,-396 319,-390 "/>
<polyline fill="none" stroke="black" points="325,-390 319,-390 "/>
<text text-anchor="middle" x="264" y="-374.9" font-family="PT Mono, monospace" font-size="12.00">multiplicative</text>
</a>
</g>
</g>
<!-- object&#45;&gt;multiplicative -->
<g id="edge12" class="edge">
<title>object&#45;&gt;multiplicative</title>
<path fill="none" stroke="black" d="M143.13,-434.67C164.6,-424.78 193.51,-411.46 217.67,-400.33"/>
<polygon fill="black" stroke="black" points="219.4,-403.39 227.02,-396.03 216.47,-397.04 219.4,-403.39"/>
</g>
<!-- additive&#45;&gt;arithmetic -->
<g id="edge9" class="edge">
<title>additive&#45;&gt;arithmetic</title>
<path fill="none" stroke="black" d="M155.64,-359.7C160.13,-351.64 165.56,-341.89 170.52,-332.98"/>
<polygon fill="black" stroke="black" points="173.66,-334.54 175.47,-324.1 167.55,-331.14 173.66,-334.54"/>
</g>
<!-- multiplicative&#45;&gt;arithmetic -->
<g id="edge10" class="edge">
<title>multiplicative&#45;&gt;arithmetic</title>
<path fill="none" stroke="black" d="M244.47,-359.7C234.62,-350.97 222.51,-340.24 211.8,-330.75"/>
<polygon fill="black" stroke="black" points="214.11,-328.12 204.3,-324.1 209.47,-333.36 214.11,-328.12"/>
</g>
</g>
</svg>
