<?xml version="1.0" encoding="UTF-8" standalone="no"?>
<!DOCTYPE svg PUBLIC "-//W3C//DTD SVG 1.1//EN"
 "http://www.w3.org/Graphics/SVG/1.1/DTD/svg11.dtd">
<!-- Generated by graphviz version 2.43.0 (0)
 -->
<!-- Title: formalqueue Pages: 1 -->
<svg width="277pt" height="404pt"
 viewBox="0.00 0.00 276.50 404.00" xmlns="http://www.w3.org/2000/svg" xmlns:xlink="http://www.w3.org/1999/xlink">
<g id="graph0" class="graph" transform="scale(1 1) rotate(0) translate(4 400)">
<title>formalqueue</title>
<polygon fill="transparent" stroke="transparent" points="-4,4 -4,-400 272.5,-400 272.5,4 -4,4"/>
<!-- bounded -->
<g id="node1" class="node">
<title>bounded</title>
<g id="a_node1"><a xlink:href="PsyllaReference_Types.xhtml#PsyllaReference_Types_Details_bounded" xlink:title="bounded" target="_parent">
<polygon fill="linen" stroke="black" points="63,-108 0,-108 0,-72 69,-72 69,-102 63,-108"/>
<polyline fill="none" stroke="black" points="63,-108 63,-102 "/>
<polyline fill="none" stroke="black" points="69,-102 63,-102 "/>
<text text-anchor="middle" x="34.5" y="-86.9" font-family="PT Mono, monospace" font-size="12.00">bounded</text>
</a>
</g>
</g>
<!-- formalqueue -->
<g id="node3" class="node">
<title>formalqueue</title>
<g id="a_node3"><a xlink:href="PsyllaReference_Types.xhtml#PsyllaReference_Types_Details_formalqueue" xlink:title="formalqueue" target="_parent">
<polygon fill="wheat" stroke="black" points="125,-36 32,-36 32,0 131,0 131,-30 125,-36"/>
<polyline fill="none" stroke="black" points="125,-36 125,-30 "/>
<polyline fill="none" stroke="black" points="131,-30 125,-30 "/>
<text text-anchor="middle" x="81.5" y="-14.9" font-family="PT Mono, monospace" font-size="12.00">formalqueue</text>
</a>
</g>
</g>
<!-- bounded&#45;&gt;formalqueue -->
<g id="edge1" class="edge">
<title>bounded&#45;&gt;formalqueue</title>
<path fill="none" stroke="black" d="M46.12,-71.7C51.64,-63.47 58.35,-53.48 64.43,-44.42"/>
<polygon fill="black" stroke="black" points="67.35,-46.36 70.02,-36.1 61.54,-42.46 67.35,-46.36"/>
</g>
<!-- container -->
<g id="node2" class="node">
<title>container</title>
<g id="a_node2"><a xlink:href="PsyllaReference_Types.xhtml#PsyllaReference_Types_Details_container" xlink:title="container" target="_parent">
<polygon fill="linen" stroke="black" points="165.5,-108 87.5,-108 87.5,-72 171.5,-72 171.5,-102 165.5,-108"/>
<polyline fill="none" stroke="black" points="165.5,-108 165.5,-102 "/>
<polyline fill="none" stroke="black" points="171.5,-102 165.5,-102 "/>
<text text-anchor="middle" x="129.5" y="-86.9" font-family="PT Mono, monospace" font-size="12.00">container</text>
</a>
</g>
</g>
<!-- container&#45;&gt;formalqueue -->
<g id="edge2" class="edge">
<title>container&#45;&gt;formalqueue</title>
<path fill="none" stroke="black" d="M117.63,-71.7C112,-63.47 105.15,-53.48 98.93,-44.42"/>
<polygon fill="black" stroke="black" points="101.77,-42.37 93.23,-36.1 96,-46.33 101.77,-42.37"/>
</g>
<!-- lengthy -->
<g id="node4" class="node">
<title>lengthy</title>
<g id="a_node4"><a xlink:href="PsyllaReference_Types.xhtml#PsyllaReference_Types_Details_lengthy" xlink:title="lengthy" target="_parent">
<polygon fill="linen" stroke="black" points="75,-180 12,-180 12,-144 81,-144 81,-174 75,-180"/>
<polyline fill="none" stroke="black" points="75,-180 75,-174 "/>
<polyline fill="none" stroke="black" points="81,-174 75,-174 "/>
<text text-anchor="middle" x="46.5" y="-158.9" font-family="PT Mono, monospace" font-size="12.00">lengthy</text>
</a>
</g>
</g>
<!-- lengthy&#45;&gt;bounded -->
<g id="edge3" class="edge">
<title>lengthy&#45;&gt;bounded</title>
<path fill="none" stroke="black" d="M43.53,-143.7C42.21,-135.98 40.62,-126.71 39.15,-118.11"/>
<polygon fill="black" stroke="black" points="42.57,-117.37 37.43,-108.1 35.67,-118.55 42.57,-117.37"/>
</g>
<!-- lengthy&#45;&gt;container -->
<g id="edge6" class="edge">
<title>lengthy&#45;&gt;container</title>
<path fill="none" stroke="black" d="M67.02,-143.7C77.37,-134.97 90.09,-124.24 101.34,-114.75"/>
<polygon fill="black" stroke="black" points="103.83,-117.23 109.22,-108.1 99.32,-111.88 103.83,-117.23"/>
</g>
<!-- clearable -->
<g id="node5" class="node">
<title>clearable</title>
<g id="a_node5"><a xlink:href="PsyllaReference_Types.xhtml#PsyllaReference_Types_Details_clearable" xlink:title="clearable" target="_parent">
<polygon fill="linen" stroke="black" points="152.5,-252 74.5,-252 74.5,-216 158.5,-216 158.5,-246 152.5,-252"/>
<polyline fill="none" stroke="black" points="152.5,-252 152.5,-246 "/>
<polyline fill="none" stroke="black" points="158.5,-246 152.5,-246 "/>
<text text-anchor="middle" x="116.5" y="-230.9" font-family="PT Mono, monospace" font-size="12.00">clearable</text>
</a>
</g>
</g>
<!-- clearable&#45;&gt;container -->
<g id="edge4" class="edge">
<title>clearable&#45;&gt;container</title>
<path fill="none" stroke="black" d="M118.07,-215.87C120.28,-191.67 124.35,-147.21 126.99,-118.39"/>
<polygon fill="black" stroke="black" points="130.5,-118.47 127.93,-108.19 123.53,-117.83 130.5,-118.47"/>
</g>
<!-- iterable -->
<g id="node6" class="node">
<title>iterable</title>
<g id="a_node6"><a xlink:href="PsyllaReference_Types.xhtml#PsyllaReference_Types_Details_iterable" xlink:title="iterable" target="_parent">
<polygon fill="linen" stroke="black" points="241,-180 170,-180 170,-144 247,-144 247,-174 241,-180"/>
<polyline fill="none" stroke="black" points="241,-180 241,-174 "/>
<polyline fill="none" stroke="black" points="247,-174 241,-174 "/>
<text text-anchor="middle" x="208.5" y="-158.9" font-family="PT Mono, monospace" font-size="12.00">iterable</text>
</a>
</g>
</g>
<!-- iterable&#45;&gt;container -->
<g id="edge5" class="edge">
<title>iterable&#45;&gt;container</title>
<path fill="none" stroke="black" d="M188.97,-143.7C179.12,-134.97 167.01,-124.24 156.3,-114.75"/>
<polygon fill="black" stroke="black" points="158.61,-112.12 148.8,-108.1 153.97,-117.36 158.61,-112.12"/>
</g>
<!-- object -->
<g id="node7" class="node">
<title>object</title>
<g id="a_node7"><a xlink:href="PsyllaReference_Types.xhtml#PsyllaReference_Types_Details_object" xlink:title="object" target="_parent">
<polygon fill="linen" stroke="black" points="141.5,-396 85.5,-396 85.5,-360 147.5,-360 147.5,-390 141.5,-396"/>
<polyline fill="none" stroke="black" points="141.5,-396 141.5,-390 "/>
<polyline fill="none" stroke="black" points="147.5,-390 141.5,-390 "/>
<text text-anchor="middle" x="116.5" y="-374.9" font-family="PT Mono, monospace" font-size="12.00">object</text>
</a>
</g>
</g>
<!-- object&#45;&gt;lengthy -->
<g id="edge7" class="edge">
<title>object&#45;&gt;lengthy</title>
<path fill="none" stroke="black" d="M108.42,-359.96C97.42,-336.22 77.71,-291.65 65.5,-252 59.23,-231.65 54.3,-208.05 51.03,-190.28"/>
<polygon fill="black" stroke="black" points="54.45,-189.53 49.26,-180.29 47.56,-190.75 54.45,-189.53"/>
</g>
<!-- object&#45;&gt;clearable -->
<g id="edge8" class="edge">
<title>object&#45;&gt;clearable</title>
<path fill="none" stroke="black" d="M116.5,-359.87C116.5,-335.67 116.5,-291.21 116.5,-262.39"/>
<polygon fill="black" stroke="black" points="120,-262.19 116.5,-252.19 113,-262.19 120,-262.19"/>
</g>
<!-- sequential -->
<g id="node9" class="node">
<title>sequential</title>
<g id="a_node9"><a xlink:href="PsyllaReference_Types.xhtml#PsyllaReference_Types_Details_sequential" xlink:title="sequential" target="_parent">
<polygon fill="linen" stroke="black" points="246.5,-324 160.5,-324 160.5,-288 252.5,-288 252.5,-318 246.5,-324"/>
<polyline fill="none" stroke="black" points="246.5,-324 246.5,-318 "/>
<polyline fill="none" stroke="black" points="252.5,-318 246.5,-318 "/>
<text text-anchor="middle" x="206.5" y="-302.9" font-family="PT Mono, monospace" font-size="12.00">sequential</text>
</a>
</g>
</g>
<!-- object&#45;&gt;sequential -->
<g id="edge11" class="edge">
<title>object&#45;&gt;sequential</title>
<path fill="none" stroke="black" d="M138.75,-359.7C150.08,-350.88 164.03,-340.03 176.32,-330.47"/>
<polygon fill="black" stroke="black" points="178.76,-333.01 184.51,-324.1 174.47,-327.48 178.76,-333.01"/>
</g>
<!-- streamable -->
<g id="node8" class="node">
<title>streamable</title>
<g id="a_node8"><a xlink:href="PsyllaReference_Types.xhtml#PsyllaReference_Types_Details_streamable" xlink:title="streamable" target="_parent">
<polygon fill="linen" stroke="black" points="262.5,-252 176.5,-252 176.5,-216 268.5,-216 268.5,-246 262.5,-252"/>
<polyline fill="none" stroke="black" points="262.5,-252 262.5,-246 "/>
<polyline fill="none" stroke="black" points="268.5,-246 262.5,-246 "/>
<text text-anchor="middle" x="222.5" y="-230.9" font-family="PT Mono, monospace" font-size="12.00">streamable</text>
</a>
</g>
</g>
<!-- streamable&#45;&gt;iterable -->
<g id="edge9" class="edge">
<title>streamable&#45;&gt;iterable</title>
<path fill="none" stroke="black" d="M219.04,-215.7C217.5,-207.98 215.64,-198.71 213.92,-190.11"/>
<polygon fill="black" stroke="black" points="217.31,-189.22 211.92,-180.1 210.45,-190.6 217.31,-189.22"/>
</g>
<!-- sequential&#45;&gt;streamable -->
<g id="edge10" class="edge">
<title>sequential&#45;&gt;streamable</title>
<path fill="none" stroke="black" d="M210.46,-287.7C212.22,-279.98 214.34,-270.71 216.3,-262.11"/>
<polygon fill="black" stroke="black" points="219.77,-262.63 218.59,-252.1 212.95,-261.07 219.77,-262.63"/>
</g>
</g>
</svg>
