<?xml version="1.0" encoding="UTF-8" standalone="no"?>
<!DOCTYPE svg PUBLIC "-//W3C//DTD SVG 1.1//EN"
 "http://www.w3.org/Graphics/SVG/1.1/DTD/svg11.dtd">
<!-- Generated by graphviz version 2.43.0 (0)
 -->
<!-- Title: bigfraction Pages: 1 -->
<svg width="742pt" height="476pt"
 viewBox="0.00 0.00 741.50 476.00" xmlns="http://www.w3.org/2000/svg" xmlns:xlink="http://www.w3.org/1999/xlink">
<g id="graph0" class="graph" transform="scale(1 1) rotate(0) translate(4 472)">
<title>bigfraction</title>
<polygon fill="transparent" stroke="transparent" points="-4,4 -4,-472 737.5,-472 737.5,4 -4,4"/>
<!-- rational -->
<g id="node1" class="node">
<title>rational</title>
<g id="a_node1"><a xlink:href="PsyllaReference_Types.xhtml#PsyllaReference_Types_Details_rational" xlink:title="rational" target="_parent">
<polygon fill="linen" stroke="black" points="346,-108 275,-108 275,-72 352,-72 352,-102 346,-108"/>
<polyline fill="none" stroke="black" points="346,-108 346,-102 "/>
<polyline fill="none" stroke="black" points="352,-102 346,-102 "/>
<text text-anchor="middle" x="313.5" y="-86.9" font-family="Source Code Pro,monospace" font-size="12.00">rational</text>
</a>
</g>
</g>
<!-- bigfraction -->
<g id="node2" class="node">
<title>bigfraction</title>
<g id="a_node2"><a xlink:href="PsyllaReference_Types.xhtml#PsyllaReference_Types_Details_bigfraction" xlink:title="bigfraction" target="_parent">
<polygon fill="wheat" stroke="black" points="357,-36 264,-36 264,0 363,0 363,-30 357,-36"/>
<polyline fill="none" stroke="black" points="357,-36 357,-30 "/>
<polyline fill="none" stroke="black" points="363,-30 357,-30 "/>
<text text-anchor="middle" x="313.5" y="-14.9" font-family="Source Code Pro,monospace" font-size="12.00">bigfraction</text>
</a>
</g>
</g>
<!-- rational&#45;&gt;bigfraction -->
<g id="edge1" class="edge">
<title>rational&#45;&gt;bigfraction</title>
<path fill="none" stroke="black" d="M313.5,-71.7C313.5,-63.98 313.5,-54.71 313.5,-46.11"/>
<polygon fill="black" stroke="black" points="317,-46.1 313.5,-36.1 310,-46.1 317,-46.1"/>
</g>
<!-- realnumeric -->
<g id="node3" class="node">
<title>realnumeric</title>
<g id="a_node3"><a xlink:href="PsyllaReference_Types.xhtml#PsyllaReference_Types_Details_realnumeric" xlink:title="realnumeric" target="_parent">
<polygon fill="linen" stroke="black" points="357,-180 264,-180 264,-144 363,-144 363,-174 357,-180"/>
<polyline fill="none" stroke="black" points="357,-180 357,-174 "/>
<polyline fill="none" stroke="black" points="363,-174 357,-174 "/>
<text text-anchor="middle" x="313.5" y="-158.9" font-family="Source Code Pro,monospace" font-size="12.00">realnumeric</text>
</a>
</g>
</g>
<!-- realnumeric&#45;&gt;rational -->
<g id="edge2" class="edge">
<title>realnumeric&#45;&gt;rational</title>
<path fill="none" stroke="black" d="M313.5,-143.7C313.5,-135.98 313.5,-126.71 313.5,-118.11"/>
<polygon fill="black" stroke="black" points="317,-118.1 313.5,-108.1 310,-118.1 317,-118.1"/>
</g>
<!-- numeric -->
<g id="node4" class="node">
<title>numeric</title>
<g id="a_node4"><a xlink:href="PsyllaReference_Types.xhtml#PsyllaReference_Types_Details_numeric" xlink:title="numeric" target="_parent">
<polygon fill="linen" stroke="black" points="499,-252 436,-252 436,-216 505,-216 505,-246 499,-252"/>
<polyline fill="none" stroke="black" points="499,-252 499,-246 "/>
<polyline fill="none" stroke="black" points="505,-246 499,-246 "/>
<text text-anchor="middle" x="470.5" y="-230.9" font-family="Source Code Pro,monospace" font-size="12.00">numeric</text>
</a>
</g>
</g>
<!-- numeric&#45;&gt;realnumeric -->
<g id="edge3" class="edge">
<title>numeric&#45;&gt;realnumeric</title>
<path fill="none" stroke="black" d="M435.66,-217.46C413.72,-207.69 385.13,-194.94 361.12,-184.23"/>
<polygon fill="black" stroke="black" points="362.38,-180.96 351.82,-180.09 359.53,-187.36 362.38,-180.96"/>
</g>
<!-- convertabletointeger -->
<g id="node5" class="node">
<title>convertabletointeger</title>
<g id="a_node5"><a xlink:href="PsyllaReference_Types.xhtml#PsyllaReference_Types_Details_convertabletointeger" xlink:title="convertabletointeger" target="_parent">
<polygon fill="linen" stroke="black" points="161,-324 0,-324 0,-288 167,-288 167,-318 161,-324"/>
<polyline fill="none" stroke="black" points="161,-324 161,-318 "/>
<polyline fill="none" stroke="black" points="167,-318 161,-318 "/>
<text text-anchor="middle" x="83.5" y="-302.9" font-family="Source Code Pro,monospace" font-size="12.00">convertabletointeger</text>
</a>
</g>
</g>
<!-- convertabletointeger&#45;&gt;realnumeric -->
<g id="edge4" class="edge">
<title>convertabletointeger&#45;&gt;realnumeric</title>
<path fill="none" stroke="black" d="M82.17,-287.81C81.62,-267.85 83.96,-235.22 102.5,-216 123.24,-194.51 198.89,-179.34 253.68,-170.89"/>
<polygon fill="black" stroke="black" points="254.28,-174.34 263.65,-169.39 253.24,-167.42 254.28,-174.34"/>
</g>
<!-- convertabletointegral -->
<g id="node6" class="node">
<title>convertabletointegral</title>
<g id="a_node6"><a xlink:href="PsyllaReference_Types.xhtml#PsyllaReference_Types_Details_convertabletointegral" xlink:title="convertabletointegral" target="_parent">
<polygon fill="linen" stroke="black" points="279.5,-252 111.5,-252 111.5,-216 285.5,-216 285.5,-246 279.5,-252"/>
<polyline fill="none" stroke="black" points="279.5,-252 279.5,-246 "/>
<polyline fill="none" stroke="black" points="285.5,-246 279.5,-246 "/>
<text text-anchor="middle" x="198.5" y="-230.9" font-family="Source Code Pro,monospace" font-size="12.00">convertabletointegral</text>
</a>
</g>
</g>
<!-- convertabletointegral&#45;&gt;realnumeric -->
<g id="edge5" class="edge">
<title>convertabletointegral&#45;&gt;realnumeric</title>
<path fill="none" stroke="black" d="M226.63,-215.88C241.67,-206.72 260.37,-195.34 276.56,-185.48"/>
<polygon fill="black" stroke="black" points="278.54,-188.38 285.26,-180.19 274.9,-182.4 278.54,-188.38"/>
</g>
<!-- convertabletorational -->
<g id="node7" class="node">
<title>convertabletorational</title>
<g id="a_node7"><a xlink:href="PsyllaReference_Types.xhtml#PsyllaReference_Types_Details_convertabletorational" xlink:title="convertabletorational" target="_parent">
<polygon fill="linen" stroke="black" points="390.5,-324 222.5,-324 222.5,-288 396.5,-288 396.5,-318 390.5,-324"/>
<polyline fill="none" stroke="black" points="390.5,-324 390.5,-318 "/>
<polyline fill="none" stroke="black" points="396.5,-318 390.5,-318 "/>
<text text-anchor="middle" x="309.5" y="-302.9" font-family="Source Code Pro,monospace" font-size="12.00">convertabletorational</text>
</a>
</g>
</g>
<!-- convertabletorational&#45;&gt;realnumeric -->
<g id="edge6" class="edge">
<title>convertabletorational&#45;&gt;realnumeric</title>
<path fill="none" stroke="black" d="M309.98,-287.87C310.66,-263.67 311.92,-219.21 312.73,-190.39"/>
<polygon fill="black" stroke="black" points="316.23,-190.28 313.02,-180.19 309.24,-190.09 316.23,-190.28"/>
</g>
<!-- scalar -->
<g id="node8" class="node">
<title>scalar</title>
<g id="a_node8"><a xlink:href="PsyllaReference_Types.xhtml#PsyllaReference_Types_Details_scalar" xlink:title="scalar" target="_parent">
<polygon fill="linen" stroke="black" points="404.5,-252 348.5,-252 348.5,-216 410.5,-216 410.5,-246 404.5,-252"/>
<polyline fill="none" stroke="black" points="404.5,-252 404.5,-246 "/>
<polyline fill="none" stroke="black" points="410.5,-246 404.5,-246 "/>
<text text-anchor="middle" x="379.5" y="-230.9" font-family="Source Code Pro,monospace" font-size="12.00">scalar</text>
</a>
</g>
</g>
<!-- scalar&#45;&gt;realnumeric -->
<g id="edge7" class="edge">
<title>scalar&#45;&gt;realnumeric</title>
<path fill="none" stroke="black" d="M363.19,-215.7C355.19,-207.22 345.43,-196.86 336.68,-187.58"/>
<polygon fill="black" stroke="black" points="339.03,-184.98 329.63,-180.1 333.94,-189.78 339.03,-184.98"/>
</g>
<!-- arithmetic -->
<g id="node9" class="node">
<title>arithmetic</title>
<g id="a_node9"><a xlink:href="PsyllaReference_Types.xhtml#PsyllaReference_Types_Details_arithmetic" xlink:title="arithmetic" target="_parent">
<polygon fill="linen" stroke="black" points="594.5,-324 508.5,-324 508.5,-288 600.5,-288 600.5,-318 594.5,-324"/>
<polyline fill="none" stroke="black" points="594.5,-324 594.5,-318 "/>
<polyline fill="none" stroke="black" points="600.5,-318 594.5,-318 "/>
<text text-anchor="middle" x="554.5" y="-302.9" font-family="Source Code Pro,monospace" font-size="12.00">arithmetic</text>
</a>
</g>
</g>
<!-- arithmetic&#45;&gt;numeric -->
<g id="edge8" class="edge">
<title>arithmetic&#45;&gt;numeric</title>
<path fill="none" stroke="black" d="M533.74,-287.7C523.26,-278.97 510.39,-268.24 499,-258.75"/>
<polygon fill="black" stroke="black" points="500.95,-255.82 491.03,-252.1 496.47,-261.19 500.95,-255.82"/>
</g>
<!-- value -->
<g id="node10" class="node">
<title>value</title>
<g id="a_node10"><a xlink:href="PsyllaReference_Types.xhtml#PsyllaReference_Types_Details_value" xlink:title="value" target="_parent">
<polygon fill="linen" stroke="black" points="491.5,-396 443.5,-396 443.5,-360 497.5,-360 497.5,-390 491.5,-396"/>
<polyline fill="none" stroke="black" points="491.5,-396 491.5,-390 "/>
<polyline fill="none" stroke="black" points="497.5,-390 491.5,-390 "/>
<text text-anchor="middle" x="470.5" y="-374.9" font-family="Source Code Pro,monospace" font-size="12.00">value</text>
</a>
</g>
</g>
<!-- value&#45;&gt;numeric -->
<g id="edge9" class="edge">
<title>value&#45;&gt;numeric</title>
<path fill="none" stroke="black" d="M470.5,-359.87C470.5,-335.67 470.5,-291.21 470.5,-262.39"/>
<polygon fill="black" stroke="black" points="474,-262.19 470.5,-252.19 467,-262.19 474,-262.19"/>
</g>
<!-- object -->
<g id="node11" class="node">
<title>object</title>
<g id="a_node11"><a xlink:href="PsyllaReference_Types.xhtml#PsyllaReference_Types_Details_object" xlink:title="object" target="_parent">
<polygon fill="linen" stroke="black" points="440.5,-468 384.5,-468 384.5,-432 446.5,-432 446.5,-462 440.5,-468"/>
<polyline fill="none" stroke="black" points="440.5,-468 440.5,-462 "/>
<polyline fill="none" stroke="black" points="446.5,-462 440.5,-462 "/>
<text text-anchor="middle" x="415.5" y="-446.9" font-family="Source Code Pro,monospace" font-size="12.00">object</text>
</a>
</g>
</g>
<!-- object&#45;&gt;convertabletointeger -->
<g id="edge10" class="edge">
<title>object&#45;&gt;convertabletointeger</title>
<path fill="none" stroke="black" d="M384.47,-447.09C337.77,-443.13 247.76,-431.2 180.5,-396 150.11,-380.1 122.01,-352.25 103.97,-331.93"/>
<polygon fill="black" stroke="black" points="106.53,-329.54 97.33,-324.28 101.24,-334.13 106.53,-329.54"/>
</g>
<!-- object&#45;&gt;convertabletointegral -->
<g id="edge11" class="edge">
<title>object&#45;&gt;convertabletointegral</title>
<path fill="none" stroke="black" d="M384.37,-439.05C338.88,-422.79 255.14,-385.95 213.5,-324 201.31,-305.87 197.95,-281.09 197.42,-262.28"/>
<polygon fill="black" stroke="black" points="200.92,-262.25 197.38,-252.26 193.92,-262.27 200.92,-262.25"/>
</g>
<!-- object&#45;&gt;convertabletorational -->
<g id="edge12" class="edge">
<title>object&#45;&gt;convertabletorational</title>
<path fill="none" stroke="black" d="M402.71,-431.87C384.25,-407.14 349.99,-361.24 328.54,-332.51"/>
<polygon fill="black" stroke="black" points="331.12,-330.11 322.33,-324.19 325.51,-334.3 331.12,-330.11"/>
</g>
<!-- object&#45;&gt;scalar -->
<g id="edge13" class="edge">
<title>object&#45;&gt;scalar</title>
<path fill="none" stroke="black" d="M416.61,-431.73C418.06,-401.87 418.99,-338.89 405.5,-288 403.12,-279.03 399.17,-269.77 395.06,-261.55"/>
<polygon fill="black" stroke="black" points="398.02,-259.66 390.25,-252.46 391.83,-262.94 398.02,-259.66"/>
</g>
<!-- object&#45;&gt;value -->
<g id="edge16" class="edge">
<title>object&#45;&gt;value</title>
<path fill="none" stroke="black" d="M429.1,-431.7C435.62,-423.39 443.57,-413.28 450.75,-404.14"/>
<polygon fill="black" stroke="black" points="453.63,-406.13 457.06,-396.1 448.13,-401.81 453.63,-406.13"/>
</g>
<!-- additive -->
<g id="node12" class="node">
<title>additive</title>
<g id="a_node12"><a xlink:href="PsyllaReference_Types.xhtml#PsyllaReference_Types_Details_additive" xlink:title="additive" target="_parent">
<polygon fill="linen" stroke="black" points="587,-396 516,-396 516,-360 593,-360 593,-390 587,-396"/>
<polyline fill="none" stroke="black" points="587,-396 587,-390 "/>
<polyline fill="none" stroke="black" points="593,-390 587,-390 "/>
<text text-anchor="middle" x="554.5" y="-374.9" font-family="Source Code Pro,monospace" font-size="12.00">additive</text>
</a>
</g>
</g>
<!-- object&#45;&gt;additive -->
<g id="edge17" class="edge">
<title>object&#45;&gt;additive</title>
<path fill="none" stroke="black" d="M446.69,-433.29C465.8,-423.67 490.52,-411.22 511.47,-400.67"/>
<polygon fill="black" stroke="black" points="513.13,-403.75 520.49,-396.13 509.98,-397.5 513.13,-403.75"/>
</g>
<!-- multiplicative -->
<g id="node13" class="node">
<title>multiplicative</title>
<g id="a_node13"><a xlink:href="PsyllaReference_Types.xhtml#PsyllaReference_Types_Details_multiplicative" xlink:title="multiplicative" target="_parent">
<polygon fill="linen" stroke="black" points="727.5,-396 611.5,-396 611.5,-360 733.5,-360 733.5,-390 727.5,-396"/>
<polyline fill="none" stroke="black" points="727.5,-396 727.5,-390 "/>
<polyline fill="none" stroke="black" points="733.5,-390 727.5,-390 "/>
<text text-anchor="middle" x="672.5" y="-374.9" font-family="Source Code Pro,monospace" font-size="12.00">multiplicative</text>
</a>
</g>
</g>
<!-- object&#45;&gt;multiplicative -->
<g id="edge18" class="edge">
<title>object&#45;&gt;multiplicative</title>
<path fill="none" stroke="black" d="M446.5,-440.56C484.61,-430.18 550.48,-412.23 601.31,-398.39"/>
<polygon fill="black" stroke="black" points="602.53,-401.69 611.26,-395.68 600.69,-394.93 602.53,-401.69"/>
</g>
<!-- additive&#45;&gt;arithmetic -->
<g id="edge14" class="edge">
<title>additive&#45;&gt;arithmetic</title>
<path fill="none" stroke="black" d="M554.5,-359.7C554.5,-351.98 554.5,-342.71 554.5,-334.11"/>
<polygon fill="black" stroke="black" points="558,-334.1 554.5,-324.1 551,-334.1 558,-334.1"/>
</g>
<!-- multiplicative&#45;&gt;arithmetic -->
<g id="edge15" class="edge">
<title>multiplicative&#45;&gt;arithmetic</title>
<path fill="none" stroke="black" d="M643.63,-359.88C628.21,-350.72 609.02,-339.34 592.4,-329.48"/>
<polygon fill="black" stroke="black" points="593.86,-326.28 583.48,-324.19 590.29,-332.3 593.86,-326.28"/>
</g>
</g>
</svg>
