<?xml version="1.0" encoding="UTF-8" standalone="no"?>
<!DOCTYPE svg PUBLIC "-//W3C//DTD SVG 1.1//EN"
 "http://www.w3.org/Graphics/SVG/1.1/DTD/svg11.dtd">
<!-- Generated by graphviz version 2.49.3 (0)
 -->
<!-- Title: formaldict Pages: 1 -->
<svg width="300pt" height="404pt"
 viewBox="0.00 0.00 300.00 404.00" xmlns="http://www.w3.org/2000/svg" xmlns:xlink="http://www.w3.org/1999/xlink">
<g id="graph0" class="graph" transform="scale(1 1) rotate(0) translate(4 400)">
<title>formaldict</title>
<polygon fill="transparent" stroke="transparent" points="-4,4 -4,-400 296,-400 296,4 -4,4"/>
<!-- container -->
<g id="node1" class="node">
<title>container</title>
<g id="a_node1"><a xlink:href="PsyllaReference_Types.xhtml#PsyllaReference_Types_Details_container" xlink:title="container" target="_parent">
<polygon fill="linen" stroke="black" points="200.15,-108 145.85,-108 145.85,-72 206.15,-72 206.15,-102 200.15,-108"/>
<polyline fill="none" stroke="black" points="200.15,-108 200.15,-102 "/>
<polyline fill="none" stroke="black" points="206.15,-102 200.15,-102 "/>
<text text-anchor="middle" x="176" y="-86.4" font-family="Source Code Pro,monospace" font-size="12.00">container</text>
</a>
</g>
</g>
<!-- formaldict -->
<g id="node4" class="node">
<title>formaldict</title>
<g id="a_node4"><a xlink:href="PsyllaReference_Types.xhtml#PsyllaReference_Types_Details_formaldict" xlink:title="formaldict" target="_parent">
<polygon fill="wheat" stroke="black" points="108.98,-36 49.02,-36 49.02,0 114.98,0 114.98,-30 108.98,-36"/>
<polyline fill="none" stroke="black" points="108.98,-36 108.98,-30 "/>
<polyline fill="none" stroke="black" points="114.98,-30 108.98,-30 "/>
<text text-anchor="middle" x="82" y="-14.4" font-family="Source Code Pro,monospace" font-size="12.00">formaldict</text>
</a>
</g>
</g>
<!-- container&#45;&gt;formaldict -->
<g id="edge1" class="edge">
<title>container&#45;&gt;formaldict</title>
<path fill="none" stroke="black" d="M152.76,-71.7C140.81,-62.8 126.08,-51.82 113.15,-42.2"/>
<polygon fill="black" stroke="black" points="115.08,-39.27 104.97,-36.1 110.9,-44.88 115.08,-39.27"/>
</g>
<!-- indexed -->
<g id="node2" class="node">
<title>indexed</title>
<g id="a_node2"><a xlink:href="PsyllaReference_Types.xhtml#PsyllaReference_Types_Details_indexed" xlink:title="indexed" target="_parent">
<polygon fill="linen" stroke="black" points="48,-252 0,-252 0,-216 54,-216 54,-246 48,-252"/>
<polyline fill="none" stroke="black" points="48,-252 48,-246 "/>
<polyline fill="none" stroke="black" points="54,-246 48,-246 "/>
<text text-anchor="middle" x="27" y="-230.4" font-family="Source Code Pro,monospace" font-size="12.00">indexed</text>
</a>
</g>
</g>
<!-- indexed&#45;&gt;formaldict -->
<g id="edge2" class="edge">
<title>indexed&#45;&gt;formaldict</title>
<path fill="none" stroke="black" d="M31.38,-215.6C38.82,-186.05 54.46,-124.21 68,-72 70.18,-63.58 72.59,-54.42 74.79,-46.11"/>
<polygon fill="black" stroke="black" points="78.24,-46.74 77.42,-36.18 71.48,-44.95 78.24,-46.74"/>
</g>
<!-- sequential -->
<g id="node3" class="node">
<title>sequential</title>
<g id="a_node3"><a xlink:href="PsyllaReference_Types.xhtml#PsyllaReference_Types_Details_sequential" xlink:title="sequential" target="_parent">
<polygon fill="linen" stroke="black" points="170.15,-324 111.85,-324 111.85,-288 176.15,-288 176.15,-318 170.15,-324"/>
<polyline fill="none" stroke="black" points="170.15,-324 170.15,-318 "/>
<polyline fill="none" stroke="black" points="176.15,-318 170.15,-318 "/>
<text text-anchor="middle" x="144" y="-302.4" font-family="Source Code Pro,monospace" font-size="12.00">sequential</text>
</a>
</g>
</g>
<!-- sequential&#45;&gt;formaldict -->
<g id="edge3" class="edge">
<title>sequential&#45;&gt;formaldict</title>
<path fill="none" stroke="black" d="M125.41,-287.67C116.4,-278.08 106.38,-265.42 101,-252 72.94,-182.05 75.59,-90.99 79.16,-46.24"/>
<polygon fill="black" stroke="black" points="82.66,-46.43 80.05,-36.16 75.69,-45.81 82.66,-46.43"/>
</g>
<!-- streamable -->
<g id="node9" class="node">
<title>streamable</title>
<g id="a_node9"><a xlink:href="PsyllaReference_Types.xhtml#PsyllaReference_Types_Details_streamable" xlink:title="streamable" target="_parent">
<polygon fill="linen" stroke="black" points="171.97,-252 110.03,-252 110.03,-216 177.97,-216 177.97,-246 171.97,-252"/>
<polyline fill="none" stroke="black" points="171.97,-252 171.97,-246 "/>
<polyline fill="none" stroke="black" points="177.97,-246 171.97,-246 "/>
<text text-anchor="middle" x="144" y="-230.4" font-family="Source Code Pro,monospace" font-size="12.00">streamable</text>
</a>
</g>
</g>
<!-- sequential&#45;&gt;streamable -->
<g id="edge12" class="edge">
<title>sequential&#45;&gt;streamable</title>
<path fill="none" stroke="black" d="M144,-287.7C144,-279.98 144,-270.71 144,-262.11"/>
<polygon fill="black" stroke="black" points="147.5,-262.1 144,-252.1 140.5,-262.1 147.5,-262.1"/>
</g>
<!-- clearable -->
<g id="node5" class="node">
<title>clearable</title>
<g id="a_node5"><a xlink:href="PsyllaReference_Types.xhtml#PsyllaReference_Types_Details_clearable" xlink:title="clearable" target="_parent">
<polygon fill="linen" stroke="black" points="235.8,-180 182.2,-180 182.2,-144 241.8,-144 241.8,-174 235.8,-180"/>
<polyline fill="none" stroke="black" points="235.8,-180 235.8,-174 "/>
<polyline fill="none" stroke="black" points="241.8,-174 235.8,-174 "/>
<text text-anchor="middle" x="212" y="-158.4" font-family="Source Code Pro,monospace" font-size="12.00">clearable</text>
</a>
</g>
</g>
<!-- clearable&#45;&gt;container -->
<g id="edge4" class="edge">
<title>clearable&#45;&gt;container</title>
<path fill="none" stroke="black" d="M203.1,-143.7C199,-135.73 194.05,-126.1 189.51,-117.26"/>
<polygon fill="black" stroke="black" points="192.48,-115.4 184.8,-108.1 186.26,-118.6 192.48,-115.4"/>
</g>
<!-- iterable -->
<g id="node6" class="node">
<title>iterable</title>
<g id="a_node6"><a xlink:href="PsyllaReference_Types.xhtml#PsyllaReference_Types_Details_iterable" xlink:title="iterable" target="_parent">
<polygon fill="linen" stroke="black" points="158,-180 110,-180 110,-144 164,-144 164,-174 158,-180"/>
<polyline fill="none" stroke="black" points="158,-180 158,-174 "/>
<polyline fill="none" stroke="black" points="164,-174 158,-174 "/>
<text text-anchor="middle" x="137" y="-158.4" font-family="Source Code Pro,monospace" font-size="12.00">iterable</text>
</a>
</g>
</g>
<!-- iterable&#45;&gt;container -->
<g id="edge5" class="edge">
<title>iterable&#45;&gt;container</title>
<path fill="none" stroke="black" d="M146.64,-143.7C151.13,-135.64 156.56,-125.89 161.52,-116.98"/>
<polygon fill="black" stroke="black" points="164.66,-118.54 166.47,-108.1 158.55,-115.14 164.66,-118.54"/>
</g>
<!-- lengthy -->
<g id="node7" class="node">
<title>lengthy</title>
<g id="a_node7"><a xlink:href="PsyllaReference_Types.xhtml#PsyllaReference_Types_Details_lengthy" xlink:title="lengthy" target="_parent">
<polygon fill="linen" stroke="black" points="286,-324 238,-324 238,-288 292,-288 292,-318 286,-324"/>
<polyline fill="none" stroke="black" points="286,-324 286,-318 "/>
<polyline fill="none" stroke="black" points="292,-318 286,-318 "/>
<text text-anchor="middle" x="265" y="-302.4" font-family="Source Code Pro,monospace" font-size="12.00">lengthy</text>
</a>
</g>
</g>
<!-- lengthy&#45;&gt;container -->
<g id="edge6" class="edge">
<title>lengthy&#45;&gt;container</title>
<path fill="none" stroke="black" d="M267.98,-287.63C272.4,-256.52 277.54,-190.23 251,-144 242.73,-129.59 228.77,-118.14 215.12,-109.61"/>
<polygon fill="black" stroke="black" points="216.66,-106.46 206.26,-104.43 213.13,-112.5 216.66,-106.46"/>
</g>
<!-- object -->
<g id="node8" class="node">
<title>object</title>
<g id="a_node8"><a xlink:href="PsyllaReference_Types.xhtml#PsyllaReference_Types_Details_object" xlink:title="object" target="_parent">
<polygon fill="linen" stroke="black" points="199,-396 151,-396 151,-360 205,-360 205,-390 199,-396"/>
<polyline fill="none" stroke="black" points="199,-396 199,-390 "/>
<polyline fill="none" stroke="black" points="205,-390 199,-390 "/>
<text text-anchor="middle" x="178" y="-374.4" font-family="Source Code Pro,monospace" font-size="12.00">object</text>
</a>
</g>
</g>
<!-- object&#45;&gt;indexed -->
<g id="edge7" class="edge">
<title>object&#45;&gt;indexed</title>
<path fill="none" stroke="black" d="M150.75,-360.12C135.95,-350.38 117.72,-337.43 103,-324 81.52,-304.41 60.31,-278.91 45.78,-260.23"/>
<polygon fill="black" stroke="black" points="48.46,-257.98 39.59,-252.18 42.91,-262.24 48.46,-257.98"/>
</g>
<!-- object&#45;&gt;sequential -->
<g id="edge8" class="edge">
<title>object&#45;&gt;sequential</title>
<path fill="none" stroke="black" d="M169.6,-359.7C165.73,-351.73 161.05,-342.1 156.76,-333.26"/>
<polygon fill="black" stroke="black" points="159.83,-331.57 152.31,-324.1 153.53,-334.63 159.83,-331.57"/>
</g>
<!-- object&#45;&gt;clearable -->
<g id="edge9" class="edge">
<title>object&#45;&gt;clearable</title>
<path fill="none" stroke="black" d="M180.72,-359.85C186.61,-322.83 200.53,-235.18 207.65,-190.39"/>
<polygon fill="black" stroke="black" points="211.15,-190.66 209.26,-180.23 204.24,-189.56 211.15,-190.66"/>
</g>
<!-- object&#45;&gt;lengthy -->
<g id="edge11" class="edge">
<title>object&#45;&gt;lengthy</title>
<path fill="none" stroke="black" d="M199.51,-359.7C210.46,-350.88 223.95,-340.03 235.82,-330.47"/>
<polygon fill="black" stroke="black" points="238.14,-333.1 243.74,-324.1 233.76,-327.65 238.14,-333.1"/>
</g>
<!-- streamable&#45;&gt;iterable -->
<g id="edge10" class="edge">
<title>streamable&#45;&gt;iterable</title>
<path fill="none" stroke="black" d="M142.27,-215.7C141.5,-207.98 140.57,-198.71 139.71,-190.11"/>
<polygon fill="black" stroke="black" points="143.19,-189.71 138.71,-180.1 136.22,-190.4 143.19,-189.71"/>
</g>
</g>
</svg>
