<?xml version="1.0" encoding="UTF-8" standalone="no"?>
<!DOCTYPE svg PUBLIC "-//W3C//DTD SVG 1.1//EN"
 "http://www.w3.org/Graphics/SVG/1.1/DTD/svg11.dtd">
<!-- Generated by graphviz version 2.43.0 (0)
 -->
<!-- Title: writer Pages: 1 -->
<svg width="251pt" height="188pt"
 viewBox="0.00 0.00 251.00 188.00" xmlns="http://www.w3.org/2000/svg" xmlns:xlink="http://www.w3.org/1999/xlink">
<g id="graph0" class="graph" transform="scale(1 1) rotate(0) translate(4 184)">
<title>writer</title>
<polygon fill="transparent" stroke="transparent" points="-4,4 -4,-184 247,-184 247,4 -4,4"/>
<!-- closeable -->
<g id="node1" class="node">
<title>closeable</title>
<g id="a_node1"><a xlink:href="PsyllaReference_Types.xhtml#PsyllaReference_Types_Details_closeable" xlink:title="closeable" target="_parent">
<polygon fill="linen" stroke="black" points="65,-108 0,-108 0,-72 71,-72 71,-102 65,-108"/>
<polyline fill="none" stroke="black" points="65,-108 65,-102 "/>
<polyline fill="none" stroke="black" points="71,-102 65,-102 "/>
<text text-anchor="middle" x="35.5" y="-87.5" font-family="PT Mono, monospace" font-size="10.00">closeable</text>
</a>
</g>
</g>
<!-- writer -->
<g id="node4" class="node">
<title>writer</title>
<g id="a_node4"><a xlink:href="PsyllaReference_Types.xhtml#PsyllaReference_Types_Details_writer" xlink:title="writer" target="_parent">
<polygon fill="wheat" stroke="black" points="145.5,-36 97.5,-36 97.5,0 151.5,0 151.5,-30 145.5,-36"/>
<polyline fill="none" stroke="black" points="145.5,-36 145.5,-30 "/>
<polyline fill="none" stroke="black" points="151.5,-30 145.5,-30 "/>
<text text-anchor="middle" x="124.5" y="-15.5" font-family="PT Mono, monospace" font-size="10.00">writer</text>
</a>
</g>
</g>
<!-- closeable&#45;&gt;writer -->
<g id="edge1" class="edge">
<title>closeable&#45;&gt;writer</title>
<path fill="none" stroke="black" d="M57.5,-71.7C68.71,-62.88 82.5,-52.03 94.65,-42.47"/>
<polygon fill="black" stroke="black" points="97.06,-45.04 102.75,-36.1 92.73,-39.54 97.06,-45.04"/>
</g>
<!-- flushable -->
<g id="node2" class="node">
<title>flushable</title>
<g id="a_node2"><a xlink:href="PsyllaReference_Types.xhtml#PsyllaReference_Types_Details_flushable" xlink:title="flushable" target="_parent">
<polygon fill="linen" stroke="black" points="154,-108 89,-108 89,-72 160,-72 160,-102 154,-108"/>
<polyline fill="none" stroke="black" points="154,-108 154,-102 "/>
<polyline fill="none" stroke="black" points="160,-102 154,-102 "/>
<text text-anchor="middle" x="124.5" y="-87.5" font-family="PT Mono, monospace" font-size="10.00">flushable</text>
</a>
</g>
</g>
<!-- flushable&#45;&gt;writer -->
<g id="edge2" class="edge">
<title>flushable&#45;&gt;writer</title>
<path fill="none" stroke="black" d="M124.5,-71.7C124.5,-63.98 124.5,-54.71 124.5,-46.11"/>
<polygon fill="black" stroke="black" points="128,-46.1 124.5,-36.1 121,-46.1 128,-46.1"/>
</g>
<!-- writable -->
<g id="node3" class="node">
<title>writable</title>
<g id="a_node3"><a xlink:href="PsyllaReference_Types.xhtml#PsyllaReference_Types_Details_writable" xlink:title="writable" target="_parent">
<polygon fill="linen" stroke="black" points="237,-108 178,-108 178,-72 243,-72 243,-102 237,-108"/>
<polyline fill="none" stroke="black" points="237,-108 237,-102 "/>
<polyline fill="none" stroke="black" points="243,-102 237,-102 "/>
<text text-anchor="middle" x="210.5" y="-87.5" font-family="PT Mono, monospace" font-size="10.00">writable</text>
</a>
</g>
</g>
<!-- writable&#45;&gt;writer -->
<g id="edge3" class="edge">
<title>writable&#45;&gt;writer</title>
<path fill="none" stroke="black" d="M189.24,-71.7C178.41,-62.88 165.08,-52.03 153.34,-42.47"/>
<polygon fill="black" stroke="black" points="155.48,-39.7 145.51,-36.1 151.06,-45.13 155.48,-39.7"/>
</g>
<!-- object -->
<g id="node5" class="node">
<title>object</title>
<g id="a_node5"><a xlink:href="PsyllaReference_Types.xhtml#PsyllaReference_Types_Details_object" xlink:title="object" target="_parent">
<polygon fill="linen" stroke="black" points="145.5,-180 97.5,-180 97.5,-144 151.5,-144 151.5,-174 145.5,-180"/>
<polyline fill="none" stroke="black" points="145.5,-180 145.5,-174 "/>
<polyline fill="none" stroke="black" points="151.5,-174 145.5,-174 "/>
<text text-anchor="middle" x="124.5" y="-159.5" font-family="PT Mono, monospace" font-size="10.00">object</text>
</a>
</g>
</g>
<!-- object&#45;&gt;closeable -->
<g id="edge4" class="edge">
<title>object&#45;&gt;closeable</title>
<path fill="none" stroke="black" d="M102.5,-143.7C91.29,-134.88 77.5,-124.03 65.35,-114.47"/>
<polygon fill="black" stroke="black" points="67.27,-111.54 57.25,-108.1 62.94,-117.04 67.27,-111.54"/>
</g>
<!-- object&#45;&gt;flushable -->
<g id="edge5" class="edge">
<title>object&#45;&gt;flushable</title>
<path fill="none" stroke="black" d="M124.5,-143.7C124.5,-135.98 124.5,-126.71 124.5,-118.11"/>
<polygon fill="black" stroke="black" points="128,-118.1 124.5,-108.1 121,-118.1 128,-118.1"/>
</g>
<!-- object&#45;&gt;writable -->
<g id="edge6" class="edge">
<title>object&#45;&gt;writable</title>
<path fill="none" stroke="black" d="M145.76,-143.7C156.59,-134.88 169.92,-124.03 181.66,-114.47"/>
<polygon fill="black" stroke="black" points="183.94,-117.13 189.49,-108.1 179.52,-111.7 183.94,-117.13"/>
</g>
</g>
</svg>
