<?xml version="1.0" encoding="UTF-8" standalone="no"?>
<!DOCTYPE svg PUBLIC "-//W3C//DTD SVG 1.1//EN"
 "http://www.w3.org/Graphics/SVG/1.1/DTD/svg11.dtd">
<!-- Generated by graphviz version 2.43.0 (0)
 -->
<!-- Title: dict Pages: 1 -->
<svg width="398pt" height="476pt"
 viewBox="0.00 0.00 398.00 476.00" xmlns="http://www.w3.org/2000/svg" xmlns:xlink="http://www.w3.org/1999/xlink">
<g id="graph0" class="graph" transform="scale(1 1) rotate(0) translate(4 472)">
<title>dict</title>
<polygon fill="transparent" stroke="transparent" points="-4,4 -4,-472 394,-472 394,4 -4,4"/>
<!-- formaldict -->
<g id="node1" class="node">
<title>formaldict</title>
<g id="a_node1"><a xlink:href="PsyllaReference_Types.xhtml#PsyllaReference_Types_Details_formaldict" xlink:title="formaldict" target="_parent">
<polygon fill="linen" stroke="black" points="145.5,-108 52.5,-108 52.5,-72 151.5,-72 151.5,-102 145.5,-108"/>
<polyline fill="none" stroke="black" points="145.5,-108 145.5,-102 "/>
<polyline fill="none" stroke="black" points="151.5,-102 145.5,-102 "/>
<text text-anchor="middle" x="102" y="-86.3" font-family="Consolas, monospace" font-size="14.00">formaldict</text>
</a>
</g>
</g>
<!-- dict -->
<g id="node2" class="node">
<title>dict</title>
<g id="a_node2"><a xlink:href="PsyllaReference_Types.xhtml#PsyllaReference_Types_Details_dict" xlink:title="dict" target="_parent">
<polygon fill="wheat" stroke="black" points="123,-36 75,-36 75,0 129,0 129,-30 123,-36"/>
<polyline fill="none" stroke="black" points="123,-36 123,-30 "/>
<polyline fill="none" stroke="black" points="129,-30 123,-30 "/>
<text text-anchor="middle" x="102" y="-14.3" font-family="Consolas, monospace" font-size="14.00">dict</text>
</a>
</g>
</g>
<!-- formaldict&#45;&gt;dict -->
<g id="edge1" class="edge">
<title>formaldict&#45;&gt;dict</title>
<path fill="none" stroke="black" d="M102,-71.7C102,-63.98 102,-54.71 102,-46.11"/>
<polygon fill="black" stroke="black" points="105.5,-46.1 102,-36.1 98.5,-46.1 105.5,-46.1"/>
</g>
<!-- container -->
<g id="node3" class="node">
<title>container</title>
<g id="a_node3"><a xlink:href="PsyllaReference_Types.xhtml#PsyllaReference_Types_Details_container" xlink:title="container" target="_parent">
<polygon fill="linen" stroke="black" points="280.5,-180 195.5,-180 195.5,-144 286.5,-144 286.5,-174 280.5,-180"/>
<polyline fill="none" stroke="black" points="280.5,-180 280.5,-174 "/>
<polyline fill="none" stroke="black" points="286.5,-174 280.5,-174 "/>
<text text-anchor="middle" x="241" y="-158.3" font-family="Consolas, monospace" font-size="14.00">container</text>
</a>
</g>
</g>
<!-- container&#45;&gt;formaldict -->
<g id="edge2" class="edge">
<title>container&#45;&gt;formaldict</title>
<path fill="none" stroke="black" d="M207,-143.88C188.4,-134.51 165.17,-122.81 145.29,-112.8"/>
<polygon fill="black" stroke="black" points="146.64,-109.56 136.13,-108.19 143.49,-115.81 146.64,-109.56"/>
</g>
<!-- indexed -->
<g id="node4" class="node">
<title>indexed</title>
<g id="a_node4"><a xlink:href="PsyllaReference_Types.xhtml#PsyllaReference_Types_Details_indexed" xlink:title="indexed" target="_parent">
<polygon fill="linen" stroke="black" points="68,-252 0,-252 0,-216 74,-216 74,-246 68,-252"/>
<polyline fill="none" stroke="black" points="68,-252 68,-246 "/>
<polyline fill="none" stroke="black" points="74,-246 68,-246 "/>
<text text-anchor="middle" x="37" y="-230.3" font-family="Consolas, monospace" font-size="14.00">indexed</text>
</a>
</g>
</g>
<!-- indexed&#45;&gt;formaldict -->
<g id="edge3" class="edge">
<title>indexed&#45;&gt;formaldict</title>
<path fill="none" stroke="black" d="M44.84,-215.87C56.02,-191.46 76.63,-146.43 89.81,-117.64"/>
<polygon fill="black" stroke="black" points="93.15,-118.74 94.13,-108.19 86.79,-115.83 93.15,-118.74"/>
</g>
<!-- sequential -->
<g id="node5" class="node">
<title>sequential</title>
<g id="a_node5"><a xlink:href="PsyllaReference_Types.xhtml#PsyllaReference_Types_Details_sequential" xlink:title="sequential" target="_parent">
<polygon fill="linen" stroke="black" points="223.5,-396 130.5,-396 130.5,-360 229.5,-360 229.5,-390 223.5,-396"/>
<polyline fill="none" stroke="black" points="223.5,-396 223.5,-390 "/>
<polyline fill="none" stroke="black" points="229.5,-390 223.5,-390 "/>
<text text-anchor="middle" x="180" y="-374.3" font-family="Consolas, monospace" font-size="14.00">sequential</text>
</a>
</g>
</g>
<!-- sequential&#45;&gt;formaldict -->
<g id="edge4" class="edge">
<title>sequential&#45;&gt;formaldict</title>
<path fill="none" stroke="black" d="M153.03,-359.86C141.09,-350.75 128.15,-338.43 121,-324 87.38,-256.16 92.67,-163.47 98.01,-118.17"/>
<polygon fill="black" stroke="black" points="101.49,-118.58 99.28,-108.22 94.54,-117.7 101.49,-118.58"/>
</g>
<!-- streamable -->
<g id="node10" class="node">
<title>streamable</title>
<g id="a_node10"><a xlink:href="PsyllaReference_Types.xhtml#PsyllaReference_Types_Details_streamable" xlink:title="streamable" target="_parent">
<polygon fill="linen" stroke="black" points="223.5,-324 130.5,-324 130.5,-288 229.5,-288 229.5,-318 223.5,-324"/>
<polyline fill="none" stroke="black" points="223.5,-324 223.5,-318 "/>
<polyline fill="none" stroke="black" points="229.5,-318 223.5,-318 "/>
<text text-anchor="middle" x="180" y="-302.3" font-family="Consolas, monospace" font-size="14.00">streamable</text>
</a>
</g>
</g>
<!-- sequential&#45;&gt;streamable -->
<g id="edge13" class="edge">
<title>sequential&#45;&gt;streamable</title>
<path fill="none" stroke="black" d="M180,-359.7C180,-351.98 180,-342.71 180,-334.11"/>
<polygon fill="black" stroke="black" points="183.5,-334.1 180,-324.1 176.5,-334.1 183.5,-334.1"/>
</g>
<!-- clearable -->
<g id="node6" class="node">
<title>clearable</title>
<g id="a_node6"><a xlink:href="PsyllaReference_Types.xhtml#PsyllaReference_Types_Details_clearable" xlink:title="clearable" target="_parent">
<polygon fill="linen" stroke="black" points="332.5,-324 247.5,-324 247.5,-288 338.5,-288 338.5,-318 332.5,-324"/>
<polyline fill="none" stroke="black" points="332.5,-324 332.5,-318 "/>
<polyline fill="none" stroke="black" points="338.5,-318 332.5,-318 "/>
<text text-anchor="middle" x="293" y="-302.3" font-family="Consolas, monospace" font-size="14.00">clearable</text>
</a>
</g>
</g>
<!-- clearable&#45;&gt;container -->
<g id="edge5" class="edge">
<title>clearable&#45;&gt;container</title>
<path fill="none" stroke="black" d="M286.73,-287.87C277.79,-263.46 261.3,-218.43 250.75,-189.64"/>
<polygon fill="black" stroke="black" points="254.02,-188.38 247.29,-180.19 247.45,-190.78 254.02,-188.38"/>
</g>
<!-- iterable -->
<g id="node7" class="node">
<title>iterable</title>
<g id="a_node7"><a xlink:href="PsyllaReference_Types.xhtml#PsyllaReference_Types_Details_iterable" xlink:title="iterable" target="_parent">
<polygon fill="linen" stroke="black" points="236.5,-252 159.5,-252 159.5,-216 242.5,-216 242.5,-246 236.5,-252"/>
<polyline fill="none" stroke="black" points="236.5,-252 236.5,-246 "/>
<polyline fill="none" stroke="black" points="242.5,-246 236.5,-246 "/>
<text text-anchor="middle" x="201" y="-230.3" font-family="Consolas, monospace" font-size="14.00">iterable</text>
</a>
</g>
</g>
<!-- iterable&#45;&gt;container -->
<g id="edge6" class="edge">
<title>iterable&#45;&gt;container</title>
<path fill="none" stroke="black" d="M210.89,-215.7C215.49,-207.64 221.06,-197.89 226.15,-188.98"/>
<polygon fill="black" stroke="black" points="229.3,-190.52 231.23,-180.1 223.23,-187.05 229.3,-190.52"/>
</g>
<!-- lengthy -->
<g id="node8" class="node">
<title>lengthy</title>
<g id="a_node8"><a xlink:href="PsyllaReference_Types.xhtml#PsyllaReference_Types_Details_lengthy" xlink:title="lengthy" target="_parent">
<polygon fill="linen" stroke="black" points="384,-396 316,-396 316,-360 390,-360 390,-390 384,-396"/>
<polyline fill="none" stroke="black" points="384,-396 384,-390 "/>
<polyline fill="none" stroke="black" points="390,-390 384,-390 "/>
<text text-anchor="middle" x="353" y="-374.3" font-family="Consolas, monospace" font-size="14.00">lengthy</text>
</a>
</g>
</g>
<!-- lengthy&#45;&gt;container -->
<g id="edge7" class="edge">
<title>lengthy&#45;&gt;container</title>
<path fill="none" stroke="black" d="M354.93,-359.9C356.32,-341.44 356.55,-311.54 347,-288 330.43,-247.14 295.08,-209.94 269.75,-186.95"/>
<polygon fill="black" stroke="black" points="272.05,-184.3 262.25,-180.28 267.4,-189.54 272.05,-184.3"/>
</g>
<!-- object -->
<g id="node9" class="node">
<title>object</title>
<g id="a_node9"><a xlink:href="PsyllaReference_Types.xhtml#PsyllaReference_Types_Details_object" xlink:title="object" target="_parent">
<polygon fill="linen" stroke="black" points="246,-468 186,-468 186,-432 252,-432 252,-462 246,-468"/>
<polyline fill="none" stroke="black" points="246,-468 246,-462 "/>
<polyline fill="none" stroke="black" points="252,-462 246,-462 "/>
<text text-anchor="middle" x="219" y="-446.3" font-family="Consolas, monospace" font-size="14.00">object</text>
</a>
</g>
</g>
<!-- object&#45;&gt;indexed -->
<g id="edge8" class="edge">
<title>object&#45;&gt;indexed</title>
<path fill="none" stroke="black" d="M185.84,-436.94C165.19,-428.12 139.19,-414.46 121,-396 82.5,-356.92 57.53,-296.59 45.48,-261.95"/>
<polygon fill="black" stroke="black" points="48.67,-260.43 42.16,-252.07 42.03,-262.67 48.67,-260.43"/>
</g>
<!-- object&#45;&gt;sequential -->
<g id="edge9" class="edge">
<title>object&#45;&gt;sequential</title>
<path fill="none" stroke="black" d="M209.36,-431.7C204.87,-423.64 199.44,-413.89 194.48,-404.98"/>
<polygon fill="black" stroke="black" points="197.45,-403.14 189.53,-396.1 191.34,-406.54 197.45,-403.14"/>
</g>
<!-- object&#45;&gt;clearable -->
<g id="edge10" class="edge">
<title>object&#45;&gt;clearable</title>
<path fill="none" stroke="black" d="M227.93,-431.87C240.7,-407.35 264.32,-362.03 279.32,-333.26"/>
<polygon fill="black" stroke="black" points="282.52,-334.67 284.04,-324.19 276.32,-331.44 282.52,-334.67"/>
</g>
<!-- object&#45;&gt;lengthy -->
<g id="edge12" class="edge">
<title>object&#45;&gt;lengthy</title>
<path fill="none" stroke="black" d="M251.78,-431.88C269.63,-422.55 291.9,-410.92 311,-400.94"/>
<polygon fill="black" stroke="black" points="312.85,-403.92 320.09,-396.19 309.61,-397.72 312.85,-403.92"/>
</g>
<!-- streamable&#45;&gt;iterable -->
<g id="edge11" class="edge">
<title>streamable&#45;&gt;iterable</title>
<path fill="none" stroke="black" d="M185.19,-287.7C187.53,-279.9 190.35,-270.51 192.95,-261.83"/>
<polygon fill="black" stroke="black" points="196.35,-262.69 195.87,-252.1 189.64,-260.68 196.35,-262.69"/>
</g>
</g>
</svg>
