<?xml version="1.0" encoding="UTF-8" standalone="no"?>
<!DOCTYPE svg PUBLIC "-//W3C//DTD SVG 1.1//EN"
 "http://www.w3.org/Graphics/SVG/1.1/DTD/svg11.dtd">
<!-- Generated by graphviz version 2.43.0 (0)
 -->
<!-- Title: flushable Pages: 1 -->
<svg width="133pt" height="116pt"
 viewBox="0.00 0.00 133.00 116.00" xmlns="http://www.w3.org/2000/svg" xmlns:xlink="http://www.w3.org/1999/xlink">
<g id="graph0" class="graph" transform="scale(1 1) rotate(0) translate(4 112)">
<title>flushable</title>
<polygon fill="transparent" stroke="transparent" points="-4,4 -4,-112 129,-112 129,4 -4,4"/>
<!-- object -->
<g id="node1" class="node">
<title>object</title>
<g id="a_node1"><a xlink:href="PsyllaReference_Types.xhtml#PsyllaReference_Types_Details_object" xlink:title="object" target="_parent">
<polygon fill="linen" stroke="black" points="101,-108 18,-108 18,-72 107,-72 107,-102 101,-108"/>
<polyline fill="none" stroke="black" points="101,-108 101,-102 "/>
<polyline fill="none" stroke="black" points="107,-102 101,-102 "/>
<text text-anchor="middle" x="62.5" y="-85" font-family="PT Mono, monospace" font-size="20.00">object</text>
</a>
</g>
</g>
<!-- flushable -->
<g id="node2" class="node">
<title>flushable</title>
<g id="a_node2"><a xlink:href="PsyllaReference_Types.xhtml#PsyllaReference_Types_Details_flushable" xlink:title="flushable" target="_parent">
<polygon fill="wheat" stroke="black" points="119,-36 0,-36 0,0 125,0 125,-30 119,-36"/>
<polyline fill="none" stroke="black" points="119,-36 119,-30 "/>
<polyline fill="none" stroke="black" points="125,-30 119,-30 "/>
<text text-anchor="middle" x="62.5" y="-13" font-family="PT Mono, monospace" font-size="20.00">flushable</text>
</a>
</g>
</g>
<!-- object&#45;&gt;flushable -->
<g id="edge1" class="edge">
<title>object&#45;&gt;flushable</title>
<path fill="none" stroke="black" d="M62.5,-71.7C62.5,-63.98 62.5,-54.71 62.5,-46.11"/>
<polygon fill="black" stroke="black" points="66,-46.1 62.5,-36.1 59,-46.1 66,-46.1"/>
</g>
</g>
</svg>
