<?xml version="1.0" encoding="UTF-8" standalone="no"?>
<!DOCTYPE svg PUBLIC "-//W3C//DTD SVG 1.1//EN"
 "http://www.w3.org/Graphics/SVG/1.1/DTD/svg11.dtd">
<!-- Generated by graphviz version 2.43.0 (0)
 -->
<!-- Title: real Pages: 1 -->
<svg width="213pt" height="404pt"
 viewBox="0.00 0.00 212.50 404.00" xmlns="http://www.w3.org/2000/svg" xmlns:xlink="http://www.w3.org/1999/xlink">
<g id="graph0" class="graph" transform="scale(1 1) rotate(0) translate(4 400)">
<title>real</title>
<polygon fill="transparent" stroke="transparent" points="-4,4 -4,-400 208.5,-400 208.5,4 -4,4"/>
<!-- realnumeric -->
<g id="node1" class="node">
<title>realnumeric</title>
<g id="a_node1"><a xlink:href="PsyllaReference_Types.xhtml#PsyllaReference_Types_Details_realnumeric" xlink:title="realnumeric" target="_parent">
<polygon fill="linen" stroke="black" points="99.5,-108 22.5,-108 22.5,-72 105.5,-72 105.5,-102 99.5,-108"/>
<polyline fill="none" stroke="black" points="99.5,-108 99.5,-102 "/>
<polyline fill="none" stroke="black" points="105.5,-102 99.5,-102 "/>
<text text-anchor="middle" x="64" y="-87.5" font-family="PT Mono, monospace" font-size="10.00">realnumeric</text>
</a>
</g>
</g>
<!-- real -->
<g id="node2" class="node">
<title>real</title>
<g id="a_node2"><a xlink:href="PsyllaReference_Types.xhtml#PsyllaReference_Types_Details_real" xlink:title="real" target="_parent">
<polygon fill="wheat" stroke="black" points="85,-36 37,-36 37,0 91,0 91,-30 85,-36"/>
<polyline fill="none" stroke="black" points="85,-36 85,-30 "/>
<polyline fill="none" stroke="black" points="91,-30 85,-30 "/>
<text text-anchor="middle" x="64" y="-15.5" font-family="PT Mono, monospace" font-size="10.00">real</text>
</a>
</g>
</g>
<!-- realnumeric&#45;&gt;real -->
<g id="edge1" class="edge">
<title>realnumeric&#45;&gt;real</title>
<path fill="none" stroke="black" d="M64,-71.7C64,-63.98 64,-54.71 64,-46.11"/>
<polygon fill="black" stroke="black" points="67.5,-46.1 64,-36.1 60.5,-46.1 67.5,-46.1"/>
</g>
<!-- numeric -->
<g id="node3" class="node">
<title>numeric</title>
<g id="a_node3"><a xlink:href="PsyllaReference_Types.xhtml#PsyllaReference_Types_Details_numeric" xlink:title="numeric" target="_parent">
<polygon fill="linen" stroke="black" points="125.5,-180 72.5,-180 72.5,-144 131.5,-144 131.5,-174 125.5,-180"/>
<polyline fill="none" stroke="black" points="125.5,-180 125.5,-174 "/>
<polyline fill="none" stroke="black" points="131.5,-174 125.5,-174 "/>
<text text-anchor="middle" x="102" y="-159.5" font-family="PT Mono, monospace" font-size="10.00">numeric</text>
</a>
</g>
</g>
<!-- numeric&#45;&gt;realnumeric -->
<g id="edge2" class="edge">
<title>numeric&#45;&gt;realnumeric</title>
<path fill="none" stroke="black" d="M92.61,-143.7C88.24,-135.64 82.94,-125.89 78.1,-116.98"/>
<polygon fill="black" stroke="black" points="81.13,-115.22 73.29,-108.1 74.98,-118.56 81.13,-115.22"/>
</g>
<!-- scalar -->
<g id="node4" class="node">
<title>scalar</title>
<g id="a_node4"><a xlink:href="PsyllaReference_Types.xhtml#PsyllaReference_Types_Details_scalar" xlink:title="scalar" target="_parent">
<polygon fill="linen" stroke="black" points="48,-180 0,-180 0,-144 54,-144 54,-174 48,-180"/>
<polyline fill="none" stroke="black" points="48,-180 48,-174 "/>
<polyline fill="none" stroke="black" points="54,-174 48,-174 "/>
<text text-anchor="middle" x="27" y="-159.5" font-family="PT Mono, monospace" font-size="10.00">scalar</text>
</a>
</g>
</g>
<!-- scalar&#45;&gt;realnumeric -->
<g id="edge3" class="edge">
<title>scalar&#45;&gt;realnumeric</title>
<path fill="none" stroke="black" d="M36.15,-143.7C40.4,-135.64 45.56,-125.89 50.27,-116.98"/>
<polygon fill="black" stroke="black" points="53.38,-118.58 54.96,-108.1 47.19,-115.31 53.38,-118.58"/>
</g>
<!-- atomic -->
<g id="node5" class="node">
<title>atomic</title>
<g id="a_node5"><a xlink:href="PsyllaReference_Types.xhtml#PsyllaReference_Types_Details_atomic" xlink:title="atomic" target="_parent">
<polygon fill="linen" stroke="black" points="103,-252 55,-252 55,-216 109,-216 109,-246 103,-252"/>
<polyline fill="none" stroke="black" points="103,-252 103,-246 "/>
<polyline fill="none" stroke="black" points="109,-246 103,-246 "/>
<text text-anchor="middle" x="82" y="-231.5" font-family="PT Mono, monospace" font-size="10.00">atomic</text>
</a>
</g>
</g>
<!-- atomic&#45;&gt;numeric -->
<g id="edge4" class="edge">
<title>atomic&#45;&gt;numeric</title>
<path fill="none" stroke="black" d="M86.94,-215.7C89.17,-207.9 91.85,-198.51 94.33,-189.83"/>
<polygon fill="black" stroke="black" points="97.73,-190.68 97.11,-180.1 91,-188.76 97.73,-190.68"/>
</g>
<!-- arithmetic -->
<g id="node6" class="node">
<title>arithmetic</title>
<g id="a_node6"><a xlink:href="PsyllaReference_Types.xhtml#PsyllaReference_Types_Details_arithmetic" xlink:title="arithmetic" target="_parent">
<polygon fill="linen" stroke="black" points="198.5,-252 127.5,-252 127.5,-216 204.5,-216 204.5,-246 198.5,-252"/>
<polyline fill="none" stroke="black" points="198.5,-252 198.5,-246 "/>
<polyline fill="none" stroke="black" points="204.5,-246 198.5,-246 "/>
<text text-anchor="middle" x="166" y="-231.5" font-family="PT Mono, monospace" font-size="10.00">arithmetic</text>
</a>
</g>
</g>
<!-- arithmetic&#45;&gt;numeric -->
<g id="edge5" class="edge">
<title>arithmetic&#45;&gt;numeric</title>
<path fill="none" stroke="black" d="M150.18,-215.7C142.43,-207.22 132.96,-196.86 124.48,-187.58"/>
<polygon fill="black" stroke="black" points="126.97,-185.12 117.64,-180.1 121.8,-189.85 126.97,-185.12"/>
</g>
<!-- object -->
<g id="node7" class="node">
<title>object</title>
<g id="a_node7"><a xlink:href="PsyllaReference_Types.xhtml#PsyllaReference_Types_Details_object" xlink:title="object" target="_parent">
<polygon fill="linen" stroke="black" points="103,-396 55,-396 55,-360 109,-360 109,-390 103,-396"/>
<polyline fill="none" stroke="black" points="103,-396 103,-390 "/>
<polyline fill="none" stroke="black" points="109,-390 103,-390 "/>
<text text-anchor="middle" x="82" y="-375.5" font-family="PT Mono, monospace" font-size="10.00">object</text>
</a>
</g>
</g>
<!-- object&#45;&gt;scalar -->
<g id="edge6" class="edge">
<title>object&#45;&gt;scalar</title>
<path fill="none" stroke="black" d="M76.61,-359.71C69.2,-335.69 55.71,-290.78 46,-252 40.85,-231.44 35.88,-207.99 32.32,-190.32"/>
<polygon fill="black" stroke="black" points="35.68,-189.27 30.29,-180.14 28.81,-190.63 35.68,-189.27"/>
</g>
<!-- object&#45;&gt;atomic -->
<g id="edge7" class="edge">
<title>object&#45;&gt;atomic</title>
<path fill="none" stroke="black" d="M82,-359.87C82,-335.67 82,-291.21 82,-262.39"/>
<polygon fill="black" stroke="black" points="85.5,-262.19 82,-252.19 78.5,-262.19 85.5,-262.19"/>
</g>
<!-- additive -->
<g id="node8" class="node">
<title>additive</title>
<g id="a_node8"><a xlink:href="PsyllaReference_Types.xhtml#PsyllaReference_Types_Details_additive" xlink:title="additive" target="_parent">
<polygon fill="linen" stroke="black" points="180.5,-324 121.5,-324 121.5,-288 186.5,-288 186.5,-318 180.5,-324"/>
<polyline fill="none" stroke="black" points="180.5,-324 180.5,-318 "/>
<polyline fill="none" stroke="black" points="186.5,-318 180.5,-318 "/>
<text text-anchor="middle" x="154" y="-303.5" font-family="PT Mono, monospace" font-size="10.00">additive</text>
</a>
</g>
</g>
<!-- object&#45;&gt;additive -->
<g id="edge9" class="edge">
<title>object&#45;&gt;additive</title>
<path fill="none" stroke="black" d="M99.8,-359.7C108.6,-351.14 119.38,-340.66 129,-331.3"/>
<polygon fill="black" stroke="black" points="131.68,-333.58 136.41,-324.1 126.8,-328.57 131.68,-333.58"/>
</g>
<!-- additive&#45;&gt;arithmetic -->
<g id="edge8" class="edge">
<title>additive&#45;&gt;arithmetic</title>
<path fill="none" stroke="black" d="M156.97,-287.7C158.29,-279.98 159.88,-270.71 161.35,-262.11"/>
<polygon fill="black" stroke="black" points="164.83,-262.55 163.07,-252.1 157.93,-261.37 164.83,-262.55"/>
</g>
</g>
</svg>
