<?xml version="1.0" encoding="UTF-8" standalone="no"?>
<!DOCTYPE svg PUBLIC "-//W3C//DTD SVG 1.1//EN"
 "http://www.w3.org/Graphics/SVG/1.1/DTD/svg11.dtd">
<!-- Generated by graphviz version 2.43.0 (0)
 -->
<!-- Title: biginteger Pages: 1 -->
<svg width="759pt" height="548pt"
 viewBox="0.00 0.00 759.01 548.00" xmlns="http://www.w3.org/2000/svg" xmlns:xlink="http://www.w3.org/1999/xlink">
<g id="graph0" class="graph" transform="scale(1 1) rotate(0) translate(4 544)">
<title>biginteger</title>
<polygon fill="transparent" stroke="transparent" points="-4,4 -4,-544 755.01,-544 755.01,4 -4,4"/>
<!-- integral -->
<g id="node1" class="node">
<title>integral</title>
<g id="a_node1"><a xlink:href="PsyllaReference_Types.xhtml#PsyllaReference_Types_Details_integral" xlink:title="integral" target="_parent">
<polygon fill="linen" stroke="black" points="231.51,-108 160.51,-108 160.51,-72 237.51,-72 237.51,-102 231.51,-108"/>
<polyline fill="none" stroke="black" points="231.51,-108 231.51,-102 "/>
<polyline fill="none" stroke="black" points="237.51,-102 231.51,-102 "/>
<text text-anchor="middle" x="199.01" y="-86.9" font-family="Source Code Pro,monospace" font-size="12.00">integral</text>
</a>
</g>
</g>
<!-- biginteger -->
<g id="node2" class="node">
<title>biginteger</title>
<g id="a_node2"><a xlink:href="PsyllaReference_Types.xhtml#PsyllaReference_Types_Details_biginteger" xlink:title="biginteger" target="_parent">
<polygon fill="wheat" stroke="black" points="239.01,-36 153.01,-36 153.01,0 245.01,0 245.01,-30 239.01,-36"/>
<polyline fill="none" stroke="black" points="239.01,-36 239.01,-30 "/>
<polyline fill="none" stroke="black" points="245.01,-30 239.01,-30 "/>
<text text-anchor="middle" x="199.01" y="-14.9" font-family="Source Code Pro,monospace" font-size="12.00">biginteger</text>
</a>
</g>
</g>
<!-- integral&#45;&gt;biginteger -->
<g id="edge1" class="edge">
<title>integral&#45;&gt;biginteger</title>
<path fill="none" stroke="black" d="M199.01,-71.7C199.01,-63.98 199.01,-54.71 199.01,-46.11"/>
<polygon fill="black" stroke="black" points="202.51,-46.1 199.01,-36.1 195.51,-46.1 202.51,-46.1"/>
</g>
<!-- bitwise -->
<g id="node3" class="node">
<title>bitwise</title>
<g id="a_node3"><a xlink:href="PsyllaReference_Types.xhtml#PsyllaReference_Types_Details_bitwise" xlink:title="bitwise" target="_parent">
<polygon fill="linen" stroke="black" points="177.51,-252 114.51,-252 114.51,-216 183.51,-216 183.51,-246 177.51,-252"/>
<polyline fill="none" stroke="black" points="177.51,-252 177.51,-246 "/>
<polyline fill="none" stroke="black" points="183.51,-246 177.51,-246 "/>
<text text-anchor="middle" x="149.01" y="-230.9" font-family="Source Code Pro,monospace" font-size="12.00">bitwise</text>
</a>
</g>
</g>
<!-- bitwise&#45;&gt;integral -->
<g id="edge2" class="edge">
<title>bitwise&#45;&gt;integral</title>
<path fill="none" stroke="black" d="M155.04,-215.87C163.64,-191.46 179.5,-146.43 189.63,-117.64"/>
<polygon fill="black" stroke="black" points="192.94,-118.78 192.96,-108.19 186.34,-116.46 192.94,-118.78"/>
</g>
<!-- rational -->
<g id="node4" class="node">
<title>rational</title>
<g id="a_node4"><a xlink:href="PsyllaReference_Types.xhtml#PsyllaReference_Types_Details_rational" xlink:title="rational" target="_parent">
<polygon fill="linen" stroke="black" points="323.51,-180 252.51,-180 252.51,-144 329.51,-144 329.51,-174 323.51,-180"/>
<polyline fill="none" stroke="black" points="323.51,-180 323.51,-174 "/>
<polyline fill="none" stroke="black" points="329.51,-174 323.51,-174 "/>
<text text-anchor="middle" x="291.01" y="-158.9" font-family="Source Code Pro,monospace" font-size="12.00">rational</text>
</a>
</g>
</g>
<!-- rational&#45;&gt;integral -->
<g id="edge3" class="edge">
<title>rational&#45;&gt;integral</title>
<path fill="none" stroke="black" d="M268.27,-143.7C256.57,-134.8 242.15,-123.82 229.5,-114.2"/>
<polygon fill="black" stroke="black" points="231.57,-111.37 221.49,-108.1 227.33,-116.94 231.57,-111.37"/>
</g>
<!-- logical -->
<g id="node5" class="node">
<title>logical</title>
<g id="a_node5"><a xlink:href="PsyllaReference_Types.xhtml#PsyllaReference_Types_Details_logical" xlink:title="logical" target="_parent">
<polygon fill="linen" stroke="black" points="92.51,-468 29.51,-468 29.51,-432 98.51,-432 98.51,-462 92.51,-468"/>
<polyline fill="none" stroke="black" points="92.51,-468 92.51,-462 "/>
<polyline fill="none" stroke="black" points="98.51,-462 92.51,-462 "/>
<text text-anchor="middle" x="64.01" y="-446.9" font-family="Source Code Pro,monospace" font-size="12.00">logical</text>
</a>
</g>
</g>
<!-- logical&#45;&gt;bitwise -->
<g id="edge4" class="edge">
<title>logical&#45;&gt;bitwise</title>
<path fill="none" stroke="black" d="M48.95,-431.6C23.88,-400.45 -20.65,-334.08 11.01,-288 31.8,-257.75 72.43,-244.76 104.25,-239.18"/>
<polygon fill="black" stroke="black" points="104.89,-242.62 114.23,-237.62 103.81,-235.71 104.89,-242.62"/>
</g>
<!-- realnumeric -->
<g id="node6" class="node">
<title>realnumeric</title>
<g id="a_node6"><a xlink:href="PsyllaReference_Types.xhtml#PsyllaReference_Types_Details_realnumeric" xlink:title="realnumeric" target="_parent">
<polygon fill="linen" stroke="black" points="393.51,-252 300.51,-252 300.51,-216 399.51,-216 399.51,-246 393.51,-252"/>
<polyline fill="none" stroke="black" points="393.51,-252 393.51,-246 "/>
<polyline fill="none" stroke="black" points="399.51,-246 393.51,-246 "/>
<text text-anchor="middle" x="350.01" y="-230.9" font-family="Source Code Pro,monospace" font-size="12.00">realnumeric</text>
</a>
</g>
</g>
<!-- realnumeric&#45;&gt;rational -->
<g id="edge5" class="edge">
<title>realnumeric&#45;&gt;rational</title>
<path fill="none" stroke="black" d="M335.43,-215.7C328.36,-207.3 319.73,-197.07 311.97,-187.86"/>
<polygon fill="black" stroke="black" points="314.55,-185.49 305.43,-180.1 309.2,-190.01 314.55,-185.49"/>
</g>
<!-- object -->
<g id="node7" class="node">
<title>object</title>
<g id="a_node7"><a xlink:href="PsyllaReference_Types.xhtml#PsyllaReference_Types_Details_object" xlink:title="object" target="_parent">
<polygon fill="linen" stroke="black" points="463.01,-540 407.01,-540 407.01,-504 469.01,-504 469.01,-534 463.01,-540"/>
<polyline fill="none" stroke="black" points="463.01,-540 463.01,-534 "/>
<polyline fill="none" stroke="black" points="469.01,-534 463.01,-534 "/>
<text text-anchor="middle" x="438.01" y="-518.9" font-family="Source Code Pro,monospace" font-size="12.00">object</text>
</a>
</g>
</g>
<!-- object&#45;&gt;logical -->
<g id="edge6" class="edge">
<title>object&#45;&gt;logical</title>
<path fill="none" stroke="black" d="M406.71,-516.07C351.89,-507.29 235.01,-488.02 137.01,-468 127.84,-466.13 118.05,-463.96 108.72,-461.82"/>
<polygon fill="black" stroke="black" points="109.37,-458.37 98.83,-459.52 107.78,-465.19 109.37,-458.37"/>
</g>
<!-- convertabletointeger -->
<g id="node9" class="node">
<title>convertabletointeger</title>
<g id="a_node9"><a xlink:href="PsyllaReference_Types.xhtml#PsyllaReference_Types_Details_convertabletointeger" xlink:title="convertabletointeger" target="_parent">
<polygon fill="linen" stroke="black" points="181.51,-324 20.51,-324 20.51,-288 187.51,-288 187.51,-318 181.51,-324"/>
<polyline fill="none" stroke="black" points="181.51,-324 181.51,-318 "/>
<polyline fill="none" stroke="black" points="187.51,-318 181.51,-318 "/>
<text text-anchor="middle" x="104.01" y="-302.9" font-family="Source Code Pro,monospace" font-size="12.00">convertabletointeger</text>
</a>
</g>
</g>
<!-- object&#45;&gt;convertabletointeger -->
<g id="edge14" class="edge">
<title>object&#45;&gt;convertabletointeger</title>
<path fill="none" stroke="black" d="M407,-514.64C373.92,-506.97 320.77,-492.01 280.01,-468 216.26,-430.45 155.76,-366.89 125.03,-331.91"/>
<polygon fill="black" stroke="black" points="127.43,-329.34 118.23,-324.08 122.15,-333.93 127.43,-329.34"/>
</g>
<!-- convertabletointegral -->
<g id="node10" class="node">
<title>convertabletointegral</title>
<g id="a_node10"><a xlink:href="PsyllaReference_Types.xhtml#PsyllaReference_Types_Details_convertabletointegral" xlink:title="convertabletointegral" target="_parent">
<polygon fill="linen" stroke="black" points="374.01,-324 206.01,-324 206.01,-288 380.01,-288 380.01,-318 374.01,-324"/>
<polyline fill="none" stroke="black" points="374.01,-324 374.01,-318 "/>
<polyline fill="none" stroke="black" points="380.01,-318 374.01,-318 "/>
<text text-anchor="middle" x="293.01" y="-302.9" font-family="Source Code Pro,monospace" font-size="12.00">convertabletointegral</text>
</a>
</g>
</g>
<!-- object&#45;&gt;convertabletointegral -->
<g id="edge15" class="edge">
<title>object&#45;&gt;convertabletointegral</title>
<path fill="none" stroke="black" d="M406.83,-510.22C363.79,-493.43 287.88,-456.55 256.01,-396 245.1,-375.26 257.2,-350.57 270.41,-332.46"/>
<polygon fill="black" stroke="black" points="273.5,-334.19 276.88,-324.15 267.98,-329.89 273.5,-334.19"/>
</g>
<!-- convertabletorational -->
<g id="node11" class="node">
<title>convertabletorational</title>
<g id="a_node11"><a xlink:href="PsyllaReference_Types.xhtml#PsyllaReference_Types_Details_convertabletorational" xlink:title="convertabletorational" target="_parent">
<polygon fill="linen" stroke="black" points="433.01,-396 265.01,-396 265.01,-360 439.01,-360 439.01,-390 433.01,-396"/>
<polyline fill="none" stroke="black" points="433.01,-396 433.01,-390 "/>
<polyline fill="none" stroke="black" points="439.01,-390 433.01,-390 "/>
<text text-anchor="middle" x="352.01" y="-374.9" font-family="Source Code Pro,monospace" font-size="12.00">convertabletorational</text>
</a>
</g>
</g>
<!-- object&#45;&gt;convertabletorational -->
<g id="edge16" class="edge">
<title>object&#45;&gt;convertabletorational</title>
<path fill="none" stroke="black" d="M427.64,-503.87C412.72,-479.24 385.1,-433.64 367.69,-404.88"/>
<polygon fill="black" stroke="black" points="370.6,-402.93 362.42,-396.19 364.61,-406.56 370.6,-402.93"/>
</g>
<!-- scalar -->
<g id="node12" class="node">
<title>scalar</title>
<g id="a_node12"><a xlink:href="PsyllaReference_Types.xhtml#PsyllaReference_Types_Details_scalar" xlink:title="scalar" target="_parent">
<polygon fill="linen" stroke="black" points="492.01,-324 436.01,-324 436.01,-288 498.01,-288 498.01,-318 492.01,-324"/>
<polyline fill="none" stroke="black" points="492.01,-324 492.01,-318 "/>
<polyline fill="none" stroke="black" points="498.01,-318 492.01,-318 "/>
<text text-anchor="middle" x="467.01" y="-302.9" font-family="Source Code Pro,monospace" font-size="12.00">scalar</text>
</a>
</g>
</g>
<!-- object&#45;&gt;scalar -->
<g id="edge17" class="edge">
<title>object&#45;&gt;scalar</title>
<path fill="none" stroke="black" d="M440.34,-503.85C445.35,-466.83 457.23,-379.18 463.3,-334.39"/>
<polygon fill="black" stroke="black" points="466.8,-334.61 464.68,-324.23 459.87,-333.67 466.8,-334.61"/>
</g>
<!-- atomic -->
<g id="node13" class="node">
<title>atomic</title>
<g id="a_node13"><a xlink:href="PsyllaReference_Types.xhtml#PsyllaReference_Types_Details_atomic" xlink:title="atomic" target="_parent">
<polygon fill="linen" stroke="black" points="551.01,-396 495.01,-396 495.01,-360 557.01,-360 557.01,-390 551.01,-396"/>
<polyline fill="none" stroke="black" points="551.01,-396 551.01,-390 "/>
<polyline fill="none" stroke="black" points="557.01,-390 551.01,-390 "/>
<text text-anchor="middle" x="526.01" y="-374.9" font-family="Source Code Pro,monospace" font-size="12.00">atomic</text>
</a>
</g>
</g>
<!-- object&#45;&gt;atomic -->
<g id="edge18" class="edge">
<title>object&#45;&gt;atomic</title>
<path fill="none" stroke="black" d="M453.74,-503.57C462.35,-493.56 472.9,-480.53 481.01,-468 493.96,-448.02 505.98,-423.82 514.34,-405.7"/>
<polygon fill="black" stroke="black" points="517.65,-406.88 518.59,-396.33 511.27,-403.99 517.65,-406.88"/>
</g>
<!-- additive -->
<g id="node15" class="node">
<title>additive</title>
<g id="a_node15"><a xlink:href="PsyllaReference_Types.xhtml#PsyllaReference_Types_Details_additive" xlink:title="additive" target="_parent">
<polygon fill="linen" stroke="black" points="604.51,-468 533.51,-468 533.51,-432 610.51,-432 610.51,-462 604.51,-468"/>
<polyline fill="none" stroke="black" points="604.51,-468 604.51,-462 "/>
<polyline fill="none" stroke="black" points="610.51,-462 604.51,-462 "/>
<text text-anchor="middle" x="572.01" y="-446.9" font-family="Source Code Pro,monospace" font-size="12.00">additive</text>
</a>
</g>
</g>
<!-- object&#45;&gt;additive -->
<g id="edge21" class="edge">
<title>object&#45;&gt;additive</title>
<path fill="none" stroke="black" d="M469.09,-504.76C487.25,-495.28 510.4,-483.19 530.14,-472.87"/>
<polygon fill="black" stroke="black" points="531.99,-475.86 539.23,-468.12 528.75,-469.65 531.99,-475.86"/>
</g>
<!-- multiplicative -->
<g id="node16" class="node">
<title>multiplicative</title>
<g id="a_node16"><a xlink:href="PsyllaReference_Types.xhtml#PsyllaReference_Types_Details_multiplicative" xlink:title="multiplicative" target="_parent">
<polygon fill="linen" stroke="black" points="745.01,-468 629.01,-468 629.01,-432 751.01,-432 751.01,-462 745.01,-468"/>
<polyline fill="none" stroke="black" points="745.01,-468 745.01,-462 "/>
<polyline fill="none" stroke="black" points="751.01,-462 745.01,-462 "/>
<text text-anchor="middle" x="690.01" y="-446.9" font-family="Source Code Pro,monospace" font-size="12.00">multiplicative</text>
</a>
</g>
</g>
<!-- object&#45;&gt;multiplicative -->
<g id="edge22" class="edge">
<title>object&#45;&gt;multiplicative</title>
<path fill="none" stroke="black" d="M469.17,-512.35C506.39,-502.01 569.82,-484.39 619.18,-470.68"/>
<polygon fill="black" stroke="black" points="620.15,-474.04 628.85,-467.99 618.28,-467.29 620.15,-474.04"/>
</g>
<!-- numeric -->
<g id="node8" class="node">
<title>numeric</title>
<g id="a_node8"><a xlink:href="PsyllaReference_Types.xhtml#PsyllaReference_Types_Details_numeric" xlink:title="numeric" target="_parent">
<polygon fill="linen" stroke="black" points="579.51,-324 516.51,-324 516.51,-288 585.51,-288 585.51,-318 579.51,-324"/>
<polyline fill="none" stroke="black" points="579.51,-324 579.51,-318 "/>
<polyline fill="none" stroke="black" points="585.51,-318 579.51,-318 "/>
<text text-anchor="middle" x="551.01" y="-302.9" font-family="Source Code Pro,monospace" font-size="12.00">numeric</text>
</a>
</g>
</g>
<!-- numeric&#45;&gt;realnumeric -->
<g id="edge7" class="edge">
<title>numeric&#45;&gt;realnumeric</title>
<path fill="none" stroke="black" d="M516.48,-291.5C513.29,-290.3 510.09,-289.11 507.01,-288 474.93,-276.39 438.88,-264.17 409.42,-254.38"/>
<polygon fill="black" stroke="black" points="410.29,-250.99 399.7,-251.17 408.09,-257.63 410.29,-250.99"/>
</g>
<!-- convertabletointeger&#45;&gt;realnumeric -->
<g id="edge8" class="edge">
<title>convertabletointeger&#45;&gt;realnumeric</title>
<path fill="none" stroke="black" d="M163.88,-287.97C202.26,-277.04 251.9,-262.92 290.26,-252"/>
<polygon fill="black" stroke="black" points="291.6,-255.26 300.26,-249.16 289.68,-248.53 291.6,-255.26"/>
</g>
<!-- convertabletointegral&#45;&gt;realnumeric -->
<g id="edge9" class="edge">
<title>convertabletointegral&#45;&gt;realnumeric</title>
<path fill="none" stroke="black" d="M307.1,-287.7C313.94,-279.3 322.27,-269.07 329.77,-259.86"/>
<polygon fill="black" stroke="black" points="332.49,-262.07 336.09,-252.1 327.06,-257.65 332.49,-262.07"/>
</g>
<!-- convertabletorational&#45;&gt;realnumeric -->
<g id="edge10" class="edge">
<title>convertabletorational&#45;&gt;realnumeric</title>
<path fill="none" stroke="black" d="M368.05,-359.85C376.03,-350.12 384.84,-337.27 389.01,-324 393.81,-308.74 394,-303.2 389.01,-288 385.7,-277.91 379.65,-268.15 373.28,-259.82"/>
<polygon fill="black" stroke="black" points="375.94,-257.54 366.9,-252.01 370.51,-261.97 375.94,-257.54"/>
</g>
<!-- scalar&#45;&gt;realnumeric -->
<g id="edge11" class="edge">
<title>scalar&#45;&gt;realnumeric</title>
<path fill="none" stroke="black" d="M438.39,-287.88C423.09,-278.72 404.07,-267.34 387.6,-257.48"/>
<polygon fill="black" stroke="black" points="389.12,-254.32 378.74,-252.19 385.53,-260.33 389.12,-254.32"/>
</g>
<!-- atomic&#45;&gt;numeric -->
<g id="edge12" class="edge">
<title>atomic&#45;&gt;numeric</title>
<path fill="none" stroke="black" d="M532.19,-359.7C535.01,-351.81 538.4,-342.3 541.53,-333.55"/>
<polygon fill="black" stroke="black" points="544.84,-334.7 544.9,-324.1 538.24,-332.34 544.84,-334.7"/>
</g>
<!-- arithmetic -->
<g id="node14" class="node">
<title>arithmetic</title>
<g id="a_node14"><a xlink:href="PsyllaReference_Types.xhtml#PsyllaReference_Types_Details_arithmetic" xlink:title="arithmetic" target="_parent">
<polygon fill="linen" stroke="black" points="661.01,-396 575.01,-396 575.01,-360 667.01,-360 667.01,-390 661.01,-396"/>
<polyline fill="none" stroke="black" points="661.01,-396 661.01,-390 "/>
<polyline fill="none" stroke="black" points="667.01,-390 661.01,-390 "/>
<text text-anchor="middle" x="621.01" y="-374.9" font-family="Source Code Pro,monospace" font-size="12.00">arithmetic</text>
</a>
</g>
</g>
<!-- arithmetic&#45;&gt;numeric -->
<g id="edge13" class="edge">
<title>arithmetic&#45;&gt;numeric</title>
<path fill="none" stroke="black" d="M603.71,-359.7C595.15,-351.14 584.67,-340.66 575.32,-331.3"/>
<polygon fill="black" stroke="black" points="577.66,-328.7 568.12,-324.1 572.71,-333.65 577.66,-328.7"/>
</g>
<!-- additive&#45;&gt;arithmetic -->
<g id="edge19" class="edge">
<title>additive&#45;&gt;arithmetic</title>
<path fill="none" stroke="black" d="M584.13,-431.7C589.88,-423.47 596.87,-413.48 603.22,-404.42"/>
<polygon fill="black" stroke="black" points="606.17,-406.3 609.04,-396.1 600.44,-402.29 606.17,-406.3"/>
</g>
<!-- multiplicative&#45;&gt;arithmetic -->
<g id="edge20" class="edge">
<title>multiplicative&#45;&gt;arithmetic</title>
<path fill="none" stroke="black" d="M672.96,-431.7C664.52,-423.14 654.19,-412.66 644.97,-403.3"/>
<polygon fill="black" stroke="black" points="647.39,-400.77 637.87,-396.1 642.4,-405.68 647.39,-400.77"/>
</g>
</g>
</svg>
