<?xml version="1.0" encoding="UTF-8" standalone="no"?>
<!DOCTYPE svg PUBLIC "-//W3C//DTD SVG 1.1//EN"
 "http://www.w3.org/Graphics/SVG/1.1/DTD/svg11.dtd">
<!-- Generated by graphviz version 2.43.0 (0)
 -->
<!-- Title: null Pages: 1 -->
<svg width="97pt" height="188pt"
 viewBox="0.00 0.00 97.00 188.00" xmlns="http://www.w3.org/2000/svg" xmlns:xlink="http://www.w3.org/1999/xlink">
<g id="graph0" class="graph" transform="scale(1 1) rotate(0) translate(4 184)">
<title>null</title>
<polygon fill="transparent" stroke="transparent" points="-4,4 -4,-184 93,-184 93,4 -4,4"/>
<!-- atomic -->
<g id="node1" class="node">
<title>atomic</title>
<g id="a_node1"><a xlink:href="PsyllaReference_Types.xhtml#PsyllaReference_Types_Details_atomic" xlink:title="atomic" target="_parent">
<polygon fill="linen" stroke="black" points="83,-108 0,-108 0,-72 89,-72 89,-102 83,-108"/>
<polyline fill="none" stroke="black" points="83,-108 83,-102 "/>
<polyline fill="none" stroke="black" points="89,-102 83,-102 "/>
<text text-anchor="middle" x="44.5" y="-85" font-family="PT Mono, monospace" font-size="20.00">atomic</text>
</a>
</g>
</g>
<!-- null -->
<g id="node2" class="node">
<title>null</title>
<g id="a_node2"><a xlink:href="PsyllaReference_Types.xhtml#PsyllaReference_Types_Details_null" xlink:title="null" target="_parent">
<polygon fill="wheat" stroke="black" points="71,-36 12,-36 12,0 77,0 77,-30 71,-36"/>
<polyline fill="none" stroke="black" points="71,-36 71,-30 "/>
<polyline fill="none" stroke="black" points="77,-30 71,-30 "/>
<text text-anchor="middle" x="44.5" y="-13" font-family="PT Mono, monospace" font-size="20.00">null</text>
</a>
</g>
</g>
<!-- atomic&#45;&gt;null -->
<g id="edge1" class="edge">
<title>atomic&#45;&gt;null</title>
<path fill="none" stroke="black" d="M44.5,-71.7C44.5,-63.98 44.5,-54.71 44.5,-46.11"/>
<polygon fill="black" stroke="black" points="48,-46.1 44.5,-36.1 41,-46.1 48,-46.1"/>
</g>
<!-- object -->
<g id="node3" class="node">
<title>object</title>
<g id="a_node3"><a xlink:href="PsyllaReference_Types.xhtml#PsyllaReference_Types_Details_object" xlink:title="object" target="_parent">
<polygon fill="linen" stroke="black" points="83,-180 0,-180 0,-144 89,-144 89,-174 83,-180"/>
<polyline fill="none" stroke="black" points="83,-180 83,-174 "/>
<polyline fill="none" stroke="black" points="89,-174 83,-174 "/>
<text text-anchor="middle" x="44.5" y="-157" font-family="PT Mono, monospace" font-size="20.00">object</text>
</a>
</g>
</g>
<!-- object&#45;&gt;atomic -->
<g id="edge2" class="edge">
<title>object&#45;&gt;atomic</title>
<path fill="none" stroke="black" d="M44.5,-143.7C44.5,-135.98 44.5,-126.71 44.5,-118.11"/>
<polygon fill="black" stroke="black" points="48,-118.1 44.5,-108.1 41,-118.1 48,-118.1"/>
</g>
</g>
</svg>
