<?xml version="1.0" encoding="UTF-8" standalone="no"?>
<!DOCTYPE svg PUBLIC "-//W3C//DTD SVG 1.1//EN"
 "http://www.w3.org/Graphics/SVG/1.1/DTD/svg11.dtd">
<!-- Generated by graphviz version 2.43.0 (0)
 -->
<!-- Title: module Pages: 1 -->
<svg width="338pt" height="548pt"
 viewBox="0.00 0.00 338.00 548.00" xmlns="http://www.w3.org/2000/svg" xmlns:xlink="http://www.w3.org/1999/xlink">
<g id="graph0" class="graph" transform="scale(1 1) rotate(0) translate(4 544)">
<title>module</title>
<polygon fill="transparent" stroke="transparent" points="-4,4 -4,-544 334,-544 334,4 -4,4"/>
<!-- dict -->
<g id="node1" class="node">
<title>dict</title>
<g id="a_node1"><a xlink:href="PsyllaReference_Types.xhtml#PsyllaReference_Types_Details_dict" xlink:title="dict" target="_parent">
<polygon fill="linen" stroke="black" points="108.5,-108 60.5,-108 60.5,-72 114.5,-72 114.5,-102 108.5,-108"/>
<polyline fill="none" stroke="black" points="108.5,-108 108.5,-102 "/>
<polyline fill="none" stroke="black" points="114.5,-102 108.5,-102 "/>
<text text-anchor="middle" x="87.5" y="-87.5" font-family="PT Mono, monospace" font-size="10.00">dict</text>
</a>
</g>
</g>
<!-- module -->
<g id="node2" class="node">
<title>module</title>
<g id="a_node2"><a xlink:href="PsyllaReference_Types.xhtml#PsyllaReference_Types_Details_module" xlink:title="module" target="_parent">
<polygon fill="wheat" stroke="black" points="108.5,-36 60.5,-36 60.5,0 114.5,0 114.5,-30 108.5,-36"/>
<polyline fill="none" stroke="black" points="108.5,-36 108.5,-30 "/>
<polyline fill="none" stroke="black" points="114.5,-30 108.5,-30 "/>
<text text-anchor="middle" x="87.5" y="-15.5" font-family="PT Mono, monospace" font-size="10.00">module</text>
</a>
</g>
</g>
<!-- dict&#45;&gt;module -->
<g id="edge1" class="edge">
<title>dict&#45;&gt;module</title>
<path fill="none" stroke="black" d="M87.5,-71.7C87.5,-63.98 87.5,-54.71 87.5,-46.11"/>
<polygon fill="black" stroke="black" points="91,-46.1 87.5,-36.1 84,-46.1 91,-46.1"/>
</g>
<!-- formaldict -->
<g id="node3" class="node">
<title>formaldict</title>
<g id="a_node3"><a xlink:href="PsyllaReference_Types.xhtml#PsyllaReference_Types_Details_formaldict" xlink:title="formaldict" target="_parent">
<polygon fill="linen" stroke="black" points="120,-180 49,-180 49,-144 126,-144 126,-174 120,-180"/>
<polyline fill="none" stroke="black" points="120,-180 120,-174 "/>
<polyline fill="none" stroke="black" points="126,-174 120,-174 "/>
<text text-anchor="middle" x="87.5" y="-159.5" font-family="PT Mono, monospace" font-size="10.00">formaldict</text>
</a>
</g>
</g>
<!-- formaldict&#45;&gt;dict -->
<g id="edge2" class="edge">
<title>formaldict&#45;&gt;dict</title>
<path fill="none" stroke="black" d="M87.5,-143.7C87.5,-135.98 87.5,-126.71 87.5,-118.11"/>
<polygon fill="black" stroke="black" points="91,-118.1 87.5,-108.1 84,-118.1 91,-118.1"/>
</g>
<!-- container -->
<g id="node4" class="node">
<title>container</title>
<g id="a_node4"><a xlink:href="PsyllaReference_Types.xhtml#PsyllaReference_Types_Details_container" xlink:title="container" target="_parent">
<polygon fill="linen" stroke="black" points="233,-252 168,-252 168,-216 239,-216 239,-246 233,-252"/>
<polyline fill="none" stroke="black" points="233,-252 233,-246 "/>
<polyline fill="none" stroke="black" points="239,-246 233,-246 "/>
<text text-anchor="middle" x="203.5" y="-231.5" font-family="PT Mono, monospace" font-size="10.00">container</text>
</a>
</g>
</g>
<!-- container&#45;&gt;formaldict -->
<g id="edge3" class="edge">
<title>container&#45;&gt;formaldict</title>
<path fill="none" stroke="black" d="M175.12,-215.88C159.96,-206.72 141.09,-195.34 124.76,-185.48"/>
<polygon fill="black" stroke="black" points="126.36,-182.36 115.99,-180.19 122.74,-188.35 126.36,-182.36"/>
</g>
<!-- indexed -->
<g id="node5" class="node">
<title>indexed</title>
<g id="a_node5"><a xlink:href="PsyllaReference_Types.xhtml#PsyllaReference_Types_Details_indexed" xlink:title="indexed" target="_parent">
<polygon fill="linen" stroke="black" points="53,-324 0,-324 0,-288 59,-288 59,-318 53,-324"/>
<polyline fill="none" stroke="black" points="53,-324 53,-318 "/>
<polyline fill="none" stroke="black" points="59,-318 53,-318 "/>
<text text-anchor="middle" x="29.5" y="-303.5" font-family="PT Mono, monospace" font-size="10.00">indexed</text>
</a>
</g>
</g>
<!-- indexed&#45;&gt;formaldict -->
<g id="edge4" class="edge">
<title>indexed&#45;&gt;formaldict</title>
<path fill="none" stroke="black" d="M36.5,-287.87C46.47,-263.46 64.86,-218.43 76.62,-189.64"/>
<polygon fill="black" stroke="black" points="79.94,-190.77 80.48,-180.19 73.46,-188.12 79.94,-190.77"/>
</g>
<!-- sequential -->
<g id="node6" class="node">
<title>sequential</title>
<g id="a_node6"><a xlink:href="PsyllaReference_Types.xhtml#PsyllaReference_Types_Details_sequential" xlink:title="sequential" target="_parent">
<polygon fill="linen" stroke="black" points="187,-468 116,-468 116,-432 193,-432 193,-462 187,-468"/>
<polyline fill="none" stroke="black" points="187,-468 187,-462 "/>
<polyline fill="none" stroke="black" points="193,-462 187,-462 "/>
<text text-anchor="middle" x="154.5" y="-447.5" font-family="PT Mono, monospace" font-size="10.00">sequential</text>
</a>
</g>
</g>
<!-- sequential&#45;&gt;formaldict -->
<g id="edge5" class="edge">
<title>sequential&#45;&gt;formaldict</title>
<path fill="none" stroke="black" d="M133.26,-431.59C123.34,-422.17 112.42,-409.67 106.5,-396 76.55,-326.84 80.05,-235.42 84.24,-190.42"/>
<polygon fill="black" stroke="black" points="87.74,-190.58 85.27,-180.28 80.77,-189.87 87.74,-190.58"/>
</g>
<!-- streamable -->
<g id="node11" class="node">
<title>streamable</title>
<g id="a_node11"><a xlink:href="PsyllaReference_Types.xhtml#PsyllaReference_Types_Details_streamable" xlink:title="streamable" target="_parent">
<polygon fill="linen" stroke="black" points="187,-396 116,-396 116,-360 193,-360 193,-390 187,-396"/>
<polyline fill="none" stroke="black" points="187,-396 187,-390 "/>
<polyline fill="none" stroke="black" points="193,-390 187,-390 "/>
<text text-anchor="middle" x="154.5" y="-375.5" font-family="PT Mono, monospace" font-size="10.00">streamable</text>
</a>
</g>
</g>
<!-- sequential&#45;&gt;streamable -->
<g id="edge14" class="edge">
<title>sequential&#45;&gt;streamable</title>
<path fill="none" stroke="black" d="M154.5,-431.7C154.5,-423.98 154.5,-414.71 154.5,-406.11"/>
<polygon fill="black" stroke="black" points="158,-406.1 154.5,-396.1 151,-406.1 158,-406.1"/>
</g>
<!-- clearable -->
<g id="node7" class="node">
<title>clearable</title>
<g id="a_node7"><a xlink:href="PsyllaReference_Types.xhtml#PsyllaReference_Types_Details_clearable" xlink:title="clearable" target="_parent">
<polygon fill="linen" stroke="black" points="276,-396 211,-396 211,-360 282,-360 282,-390 276,-396"/>
<polyline fill="none" stroke="black" points="276,-396 276,-390 "/>
<polyline fill="none" stroke="black" points="282,-390 276,-390 "/>
<text text-anchor="middle" x="246.5" y="-375.5" font-family="PT Mono, monospace" font-size="10.00">clearable</text>
</a>
</g>
</g>
<!-- clearable&#45;&gt;container -->
<g id="edge6" class="edge">
<title>clearable&#45;&gt;container</title>
<path fill="none" stroke="black" d="M241.31,-359.87C233.95,-335.56 220.4,-290.82 211.68,-262.01"/>
<polygon fill="black" stroke="black" points="214.95,-260.75 208.71,-252.19 208.25,-262.77 214.95,-260.75"/>
</g>
<!-- iterable -->
<g id="node8" class="node">
<title>iterable</title>
<g id="a_node8"><a xlink:href="PsyllaReference_Types.xhtml#PsyllaReference_Types_Details_iterable" xlink:title="iterable" target="_parent">
<polygon fill="linen" stroke="black" points="196,-324 137,-324 137,-288 202,-288 202,-318 196,-324"/>
<polyline fill="none" stroke="black" points="196,-324 196,-318 "/>
<polyline fill="none" stroke="black" points="202,-318 196,-318 "/>
<text text-anchor="middle" x="169.5" y="-303.5" font-family="PT Mono, monospace" font-size="10.00">iterable</text>
</a>
</g>
</g>
<!-- iterable&#45;&gt;container -->
<g id="edge7" class="edge">
<title>iterable&#45;&gt;container</title>
<path fill="none" stroke="black" d="M177.9,-287.7C181.77,-279.73 186.45,-270.1 190.74,-261.26"/>
<polygon fill="black" stroke="black" points="193.97,-262.63 195.19,-252.1 187.67,-259.57 193.97,-262.63"/>
</g>
<!-- lengthy -->
<g id="node9" class="node">
<title>lengthy</title>
<g id="a_node9"><a xlink:href="PsyllaReference_Types.xhtml#PsyllaReference_Types_Details_lengthy" xlink:title="lengthy" target="_parent">
<polygon fill="linen" stroke="black" points="324,-468 271,-468 271,-432 330,-432 330,-462 324,-468"/>
<polyline fill="none" stroke="black" points="324,-468 324,-462 "/>
<polyline fill="none" stroke="black" points="330,-462 324,-462 "/>
<text text-anchor="middle" x="300.5" y="-447.5" font-family="PT Mono, monospace" font-size="10.00">lengthy</text>
</a>
</g>
</g>
<!-- lengthy&#45;&gt;container -->
<g id="edge8" class="edge">
<title>lengthy&#45;&gt;container</title>
<path fill="none" stroke="black" d="M301.03,-431.69C301.04,-413.32 299.43,-383.72 290.5,-360 276,-321.48 246.97,-283.6 226.44,-259.81"/>
<polygon fill="black" stroke="black" points="228.81,-257.2 219.57,-252.01 223.55,-261.82 228.81,-257.2"/>
</g>
<!-- object -->
<g id="node10" class="node">
<title>object</title>
<g id="a_node10"><a xlink:href="PsyllaReference_Types.xhtml#PsyllaReference_Types_Details_object" xlink:title="object" target="_parent">
<polygon fill="linen" stroke="black" points="208.5,-540 160.5,-540 160.5,-504 214.5,-504 214.5,-534 208.5,-540"/>
<polyline fill="none" stroke="black" points="208.5,-540 208.5,-534 "/>
<polyline fill="none" stroke="black" points="214.5,-534 208.5,-534 "/>
<text text-anchor="middle" x="187.5" y="-519.5" font-family="PT Mono, monospace" font-size="10.00">object</text>
</a>
</g>
</g>
<!-- object&#45;&gt;indexed -->
<g id="edge9" class="edge">
<title>object&#45;&gt;indexed</title>
<path fill="none" stroke="black" d="M160.33,-508.12C143.15,-498.88 121.44,-485.08 106.5,-468 71.19,-427.64 48.43,-368.25 37.39,-334.02"/>
<polygon fill="black" stroke="black" points="40.66,-332.75 34.34,-324.25 33.98,-334.84 40.66,-332.75"/>
</g>
<!-- object&#45;&gt;sequential -->
<g id="edge10" class="edge">
<title>object&#45;&gt;sequential</title>
<path fill="none" stroke="black" d="M179.34,-503.7C175.59,-495.73 171.05,-486.1 166.88,-477.26"/>
<polygon fill="black" stroke="black" points="169.99,-475.66 162.56,-468.1 163.66,-478.64 169.99,-475.66"/>
</g>
<!-- object&#45;&gt;clearable -->
<g id="edge11" class="edge">
<title>object&#45;&gt;clearable</title>
<path fill="none" stroke="black" d="M194.62,-503.87C204.76,-479.46 223.47,-434.43 235.43,-405.64"/>
<polygon fill="black" stroke="black" points="238.75,-406.77 239.36,-396.19 232.29,-404.08 238.75,-406.77"/>
</g>
<!-- object&#45;&gt;lengthy -->
<g id="edge13" class="edge">
<title>object&#45;&gt;lengthy</title>
<path fill="none" stroke="black" d="M214.57,-504.23C229.44,-495.02 248.09,-483.47 264.21,-473.48"/>
<polygon fill="black" stroke="black" points="266.21,-476.36 272.87,-468.12 262.53,-470.41 266.21,-476.36"/>
</g>
<!-- streamable&#45;&gt;iterable -->
<g id="edge12" class="edge">
<title>streamable&#45;&gt;iterable</title>
<path fill="none" stroke="black" d="M158.21,-359.7C159.86,-351.98 161.85,-342.71 163.69,-334.11"/>
<polygon fill="black" stroke="black" points="167.16,-334.62 165.83,-324.1 160.32,-333.15 167.16,-334.62"/>
</g>
</g>
</svg>
