<?xml version="1.0" encoding="UTF-8" standalone="no"?>
<!DOCTYPE svg PUBLIC "-//W3C//DTD SVG 1.1//EN"
 "http://www.w3.org/Graphics/SVG/1.1/DTD/svg11.dtd">
<!-- Generated by graphviz version 2.43.0 (0)
 -->
<!-- Title: bitarray Pages: 1 -->
<svg width="544pt" height="476pt"
 viewBox="0.00 0.00 544.00 476.00" xmlns="http://www.w3.org/2000/svg" xmlns:xlink="http://www.w3.org/1999/xlink">
<g id="graph0" class="graph" transform="scale(1 1) rotate(0) translate(4 472)">
<title>bitarray</title>
<polygon fill="transparent" stroke="transparent" points="-4,4 -4,-472 540,-472 540,4 -4,4"/>
<!-- formalarray -->
<g id="node1" class="node">
<title>formalarray</title>
<g id="a_node1"><a xlink:href="PsyllaReference_Types.xhtml#PsyllaReference_Types_Details_formalarray" xlink:title="formalarray" target="_parent">
<polygon fill="linen" stroke="black" points="226.5,-108 125.5,-108 125.5,-72 232.5,-72 232.5,-102 226.5,-108"/>
<polyline fill="none" stroke="black" points="226.5,-108 226.5,-102 "/>
<polyline fill="none" stroke="black" points="232.5,-102 226.5,-102 "/>
<text text-anchor="middle" x="179" y="-86.3" font-family="Consolas, monospace" font-size="14.00">formalarray</text>
</a>
</g>
</g>
<!-- bitarray -->
<g id="node3" class="node">
<title>bitarray</title>
<g id="a_node3"><a xlink:href="PsyllaReference_Types.xhtml#PsyllaReference_Types_Details_bitarray" xlink:title="bitarray" target="_parent">
<polygon fill="wheat" stroke="black" points="268.5,-36 191.5,-36 191.5,0 274.5,0 274.5,-30 268.5,-36"/>
<polyline fill="none" stroke="black" points="268.5,-36 268.5,-30 "/>
<polyline fill="none" stroke="black" points="274.5,-30 268.5,-30 "/>
<text text-anchor="middle" x="233" y="-14.3" font-family="Consolas, monospace" font-size="14.00">bitarray</text>
</a>
</g>
</g>
<!-- formalarray&#45;&gt;bitarray -->
<g id="edge1" class="edge">
<title>formalarray&#45;&gt;bitarray</title>
<path fill="none" stroke="black" d="M192.35,-71.7C198.76,-63.39 206.56,-53.28 213.61,-44.14"/>
<polygon fill="black" stroke="black" points="216.47,-46.16 219.81,-36.1 210.93,-41.88 216.47,-46.16"/>
</g>
<!-- bitwise -->
<g id="node2" class="node">
<title>bitwise</title>
<g id="a_node2"><a xlink:href="PsyllaReference_Types.xhtml#PsyllaReference_Types_Details_bitwise" xlink:title="bitwise" target="_parent">
<polygon fill="linen" stroke="black" points="419,-108 351,-108 351,-72 425,-72 425,-102 419,-108"/>
<polyline fill="none" stroke="black" points="419,-108 419,-102 "/>
<polyline fill="none" stroke="black" points="425,-102 419,-102 "/>
<text text-anchor="middle" x="388" y="-86.3" font-family="Consolas, monospace" font-size="14.00">bitwise</text>
</a>
</g>
</g>
<!-- bitwise&#45;&gt;bitarray -->
<g id="edge2" class="edge">
<title>bitwise&#45;&gt;bitarray</title>
<path fill="none" stroke="black" d="M350.87,-72.23C329.62,-62.63 302.75,-50.5 280.03,-40.24"/>
<polygon fill="black" stroke="black" points="281.45,-37.04 270.9,-36.12 278.57,-43.42 281.45,-37.04"/>
</g>
<!-- appendable -->
<g id="node4" class="node">
<title>appendable</title>
<g id="a_node4"><a xlink:href="PsyllaReference_Types.xhtml#PsyllaReference_Types_Details_appendable" xlink:title="appendable" target="_parent">
<polygon fill="linen" stroke="black" points="144.5,-252 51.5,-252 51.5,-216 150.5,-216 150.5,-246 144.5,-252"/>
<polyline fill="none" stroke="black" points="144.5,-252 144.5,-246 "/>
<polyline fill="none" stroke="black" points="150.5,-246 144.5,-246 "/>
<text text-anchor="middle" x="101" y="-230.3" font-family="Consolas, monospace" font-size="14.00">appendable</text>
</a>
</g>
</g>
<!-- appendable&#45;&gt;formalarray -->
<g id="edge3" class="edge">
<title>appendable&#45;&gt;formalarray</title>
<path fill="none" stroke="black" d="M110.41,-215.87C123.88,-191.35 148.77,-146.03 164.58,-117.26"/>
<polygon fill="black" stroke="black" points="167.81,-118.64 169.56,-108.19 161.68,-115.27 167.81,-118.64"/>
</g>
<!-- container -->
<g id="node5" class="node">
<title>container</title>
<g id="a_node5"><a xlink:href="PsyllaReference_Types.xhtml#PsyllaReference_Types_Details_container" xlink:title="container" target="_parent">
<polygon fill="linen" stroke="black" points="345.5,-180 260.5,-180 260.5,-144 351.5,-144 351.5,-174 345.5,-180"/>
<polyline fill="none" stroke="black" points="345.5,-180 345.5,-174 "/>
<polyline fill="none" stroke="black" points="351.5,-174 345.5,-174 "/>
<text text-anchor="middle" x="306" y="-158.3" font-family="Consolas, monospace" font-size="14.00">container</text>
</a>
</g>
</g>
<!-- container&#45;&gt;formalarray -->
<g id="edge4" class="edge">
<title>container&#45;&gt;formalarray</title>
<path fill="none" stroke="black" d="M274.93,-143.88C258.17,-134.64 237.29,-123.13 219.3,-113.21"/>
<polygon fill="black" stroke="black" points="220.63,-109.95 210.19,-108.19 217.26,-116.08 220.63,-109.95"/>
</g>
<!-- indexed -->
<g id="node6" class="node">
<title>indexed</title>
<g id="a_node6"><a xlink:href="PsyllaReference_Types.xhtml#PsyllaReference_Types_Details_indexed" xlink:title="indexed" target="_parent">
<polygon fill="linen" stroke="black" points="68,-180 0,-180 0,-144 74,-144 74,-174 68,-180"/>
<polyline fill="none" stroke="black" points="68,-180 68,-174 "/>
<polyline fill="none" stroke="black" points="74,-174 68,-174 "/>
<text text-anchor="middle" x="37" y="-158.3" font-family="Consolas, monospace" font-size="14.00">indexed</text>
</a>
</g>
</g>
<!-- indexed&#45;&gt;formalarray -->
<g id="edge5" class="edge">
<title>indexed&#45;&gt;formalarray</title>
<path fill="none" stroke="black" d="M71.74,-143.88C90.82,-134.47 114.68,-122.71 135.05,-112.67"/>
<polygon fill="black" stroke="black" points="136.71,-115.75 144.13,-108.19 133.61,-109.47 136.71,-115.75"/>
</g>
<!-- sequential -->
<g id="node7" class="node">
<title>sequential</title>
<g id="a_node7"><a xlink:href="PsyllaReference_Types.xhtml#PsyllaReference_Types_Details_sequential" xlink:title="sequential" target="_parent">
<polygon fill="linen" stroke="black" points="290.5,-396 197.5,-396 197.5,-360 296.5,-360 296.5,-390 290.5,-396"/>
<polyline fill="none" stroke="black" points="290.5,-396 290.5,-390 "/>
<polyline fill="none" stroke="black" points="296.5,-390 290.5,-390 "/>
<text text-anchor="middle" x="247" y="-374.3" font-family="Consolas, monospace" font-size="14.00">sequential</text>
</a>
</g>
</g>
<!-- sequential&#45;&gt;formalarray -->
<g id="edge6" class="edge">
<title>sequential&#45;&gt;formalarray</title>
<path fill="none" stroke="black" d="M219.76,-359.99C207.76,-350.91 194.84,-338.58 188,-324 155.92,-255.64 165.81,-163.18 173.54,-118.05"/>
<polygon fill="black" stroke="black" points="177,-118.61 175.34,-108.14 170.11,-117.36 177,-118.61"/>
</g>
<!-- streamable -->
<g id="node13" class="node">
<title>streamable</title>
<g id="a_node13"><a xlink:href="PsyllaReference_Types.xhtml#PsyllaReference_Types_Details_streamable" xlink:title="streamable" target="_parent">
<polygon fill="linen" stroke="black" points="290.5,-324 197.5,-324 197.5,-288 296.5,-288 296.5,-318 290.5,-324"/>
<polyline fill="none" stroke="black" points="290.5,-324 290.5,-318 "/>
<polyline fill="none" stroke="black" points="296.5,-318 290.5,-318 "/>
<text text-anchor="middle" x="247" y="-302.3" font-family="Consolas, monospace" font-size="14.00">streamable</text>
</a>
</g>
</g>
<!-- sequential&#45;&gt;streamable -->
<g id="edge18" class="edge">
<title>sequential&#45;&gt;streamable</title>
<path fill="none" stroke="black" d="M247,-359.7C247,-351.98 247,-342.71 247,-334.11"/>
<polygon fill="black" stroke="black" points="250.5,-334.1 247,-324.1 243.5,-334.1 250.5,-334.1"/>
</g>
<!-- logical -->
<g id="node8" class="node">
<title>logical</title>
<g id="a_node8"><a xlink:href="PsyllaReference_Types.xhtml#PsyllaReference_Types_Details_logical" xlink:title="logical" target="_parent">
<polygon fill="linen" stroke="black" points="530,-396 462,-396 462,-360 536,-360 536,-390 530,-396"/>
<polyline fill="none" stroke="black" points="530,-396 530,-390 "/>
<polyline fill="none" stroke="black" points="536,-390 530,-390 "/>
<text text-anchor="middle" x="499" y="-374.3" font-family="Consolas, monospace" font-size="14.00">logical</text>
</a>
</g>
</g>
<!-- logical&#45;&gt;bitwise -->
<g id="edge7" class="edge">
<title>logical&#45;&gt;bitwise</title>
<path fill="none" stroke="black" d="M497.84,-359.96C495.34,-329.91 487.94,-265.97 468,-216 453.05,-178.54 426.47,-140.15 408.07,-115.98"/>
<polygon fill="black" stroke="black" points="410.82,-113.82 401.94,-108.05 405.29,-118.1 410.82,-113.82"/>
</g>
<!-- object -->
<g id="node9" class="node">
<title>object</title>
<g id="a_node9"><a xlink:href="PsyllaReference_Types.xhtml#PsyllaReference_Types_Details_object" xlink:title="object" target="_parent">
<polygon fill="linen" stroke="black" points="330,-468 270,-468 270,-432 336,-432 336,-462 330,-468"/>
<polyline fill="none" stroke="black" points="330,-468 330,-462 "/>
<polyline fill="none" stroke="black" points="336,-462 330,-462 "/>
<text text-anchor="middle" x="303" y="-446.3" font-family="Consolas, monospace" font-size="14.00">object</text>
</a>
</g>
</g>
<!-- object&#45;&gt;appendable -->
<g id="edge8" class="edge">
<title>object&#45;&gt;appendable</title>
<path fill="none" stroke="black" d="M270,-440.05C245.05,-431.92 211.24,-417.81 188,-396 147.51,-358.01 121.76,-296.86 109.49,-261.88"/>
<polygon fill="black" stroke="black" points="112.78,-260.67 106.25,-252.33 106.15,-262.92 112.78,-260.67"/>
</g>
<!-- object&#45;&gt;indexed -->
<g id="edge12" class="edge">
<title>object&#45;&gt;indexed</title>
<path fill="none" stroke="black" d="M269.92,-442.73C238.16,-435.5 189.98,-421.22 155,-396 89.01,-348.42 70.71,-328.12 42,-252 34.55,-232.24 33.62,-208.26 34.38,-190.17"/>
<polygon fill="black" stroke="black" points="37.88,-190.22 35,-180.02 30.89,-189.79 37.88,-190.22"/>
</g>
<!-- object&#45;&gt;sequential -->
<g id="edge13" class="edge">
<title>object&#45;&gt;sequential</title>
<path fill="none" stroke="black" d="M289.16,-431.7C282.51,-423.39 274.42,-413.28 267.11,-404.14"/>
<polygon fill="black" stroke="black" points="269.66,-401.73 260.68,-396.1 264.2,-406.1 269.66,-401.73"/>
</g>
<!-- object&#45;&gt;logical -->
<g id="edge14" class="edge">
<title>object&#45;&gt;logical</title>
<path fill="none" stroke="black" d="M336.25,-437.13C368.1,-425.75 416.45,-408.48 452.19,-395.72"/>
<polygon fill="black" stroke="black" points="453.67,-398.91 461.91,-392.25 451.31,-392.31 453.67,-398.91"/>
</g>
<!-- clearable -->
<g id="node10" class="node">
<title>clearable</title>
<g id="a_node10"><a xlink:href="PsyllaReference_Types.xhtml#PsyllaReference_Types_Details_clearable" xlink:title="clearable" target="_parent">
<polygon fill="linen" stroke="black" points="399.5,-324 314.5,-324 314.5,-288 405.5,-288 405.5,-318 399.5,-324"/>
<polyline fill="none" stroke="black" points="399.5,-324 399.5,-318 "/>
<polyline fill="none" stroke="black" points="405.5,-318 399.5,-318 "/>
<text text-anchor="middle" x="360" y="-302.3" font-family="Consolas, monospace" font-size="14.00">clearable</text>
</a>
</g>
</g>
<!-- object&#45;&gt;clearable -->
<g id="edge15" class="edge">
<title>object&#45;&gt;clearable</title>
<path fill="none" stroke="black" d="M309.88,-431.87C319.68,-407.46 337.75,-362.43 349.31,-333.64"/>
<polygon fill="black" stroke="black" points="352.62,-334.77 353.1,-324.19 346.13,-332.17 352.62,-334.77"/>
</g>
<!-- lengthy -->
<g id="node12" class="node">
<title>lengthy</title>
<g id="a_node12"><a xlink:href="PsyllaReference_Types.xhtml#PsyllaReference_Types_Details_lengthy" xlink:title="lengthy" target="_parent">
<polygon fill="linen" stroke="black" points="453,-252 385,-252 385,-216 459,-216 459,-246 453,-252"/>
<polyline fill="none" stroke="black" points="453,-252 453,-246 "/>
<polyline fill="none" stroke="black" points="459,-246 453,-246 "/>
<text text-anchor="middle" x="422" y="-230.3" font-family="Consolas, monospace" font-size="14.00">lengthy</text>
</a>
</g>
</g>
<!-- object&#45;&gt;lengthy -->
<g id="edge17" class="edge">
<title>object&#45;&gt;lengthy</title>
<path fill="none" stroke="black" d="M325.07,-431.88C351.4,-410.03 394.31,-369.56 414,-324 422.4,-304.57 424.12,-280.57 423.89,-262.39"/>
<polygon fill="black" stroke="black" points="427.38,-262.05 423.55,-252.17 420.38,-262.28 427.38,-262.05"/>
</g>
<!-- clearable&#45;&gt;container -->
<g id="edge9" class="edge">
<title>clearable&#45;&gt;container</title>
<path fill="none" stroke="black" d="M353.49,-287.87C344.2,-263.46 327.08,-218.43 316.13,-189.64"/>
<polygon fill="black" stroke="black" points="319.36,-188.29 312.54,-180.19 312.82,-190.78 319.36,-188.29"/>
</g>
<!-- iterable -->
<g id="node11" class="node">
<title>iterable</title>
<g id="a_node11"><a xlink:href="PsyllaReference_Types.xhtml#PsyllaReference_Types_Details_iterable" xlink:title="iterable" target="_parent">
<polygon fill="linen" stroke="black" points="302.5,-252 225.5,-252 225.5,-216 308.5,-216 308.5,-246 302.5,-252"/>
<polyline fill="none" stroke="black" points="302.5,-252 302.5,-246 "/>
<polyline fill="none" stroke="black" points="308.5,-246 302.5,-246 "/>
<text text-anchor="middle" x="267" y="-230.3" font-family="Consolas, monospace" font-size="14.00">iterable</text>
</a>
</g>
</g>
<!-- iterable&#45;&gt;container -->
<g id="edge10" class="edge">
<title>iterable&#45;&gt;container</title>
<path fill="none" stroke="black" d="M276.64,-215.7C281.13,-207.64 286.56,-197.89 291.52,-188.98"/>
<polygon fill="black" stroke="black" points="294.66,-190.54 296.47,-180.1 288.55,-187.14 294.66,-190.54"/>
</g>
<!-- lengthy&#45;&gt;container -->
<g id="edge11" class="edge">
<title>lengthy&#45;&gt;container</title>
<path fill="none" stroke="black" d="M393.62,-215.88C378.46,-206.72 359.59,-195.34 343.26,-185.48"/>
<polygon fill="black" stroke="black" points="344.86,-182.36 334.49,-180.19 341.24,-188.35 344.86,-182.36"/>
</g>
<!-- streamable&#45;&gt;iterable -->
<g id="edge16" class="edge">
<title>streamable&#45;&gt;iterable</title>
<path fill="none" stroke="black" d="M251.94,-287.7C254.17,-279.9 256.85,-270.51 259.33,-261.83"/>
<polygon fill="black" stroke="black" points="262.73,-262.68 262.11,-252.1 256,-260.76 262.73,-262.68"/>
</g>
</g>
</svg>
