<?xml version="1.0" encoding="UTF-8" standalone="no"?>
<!DOCTYPE svg PUBLIC "-//W3C//DTD SVG 1.1//EN"
 "http://www.w3.org/Graphics/SVG/1.1/DTD/svg11.dtd">
<!-- Generated by graphviz version 2.43.0 (0)
 -->
<!-- Title: stream Pages: 1 -->
<svg width="216pt" height="332pt"
 viewBox="0.00 0.00 216.00 332.00" xmlns="http://www.w3.org/2000/svg" xmlns:xlink="http://www.w3.org/1999/xlink">
<g id="graph0" class="graph" transform="scale(1 1) rotate(0) translate(4 328)">
<title>stream</title>
<polygon fill="transparent" stroke="transparent" points="-4,4 -4,-328 212,-328 212,4 -4,4"/>
<!-- formalstream -->
<g id="node1" class="node">
<title>formalstream</title>
<g id="a_node1"><a xlink:href="PsyllaReference_Types.xhtml#PsyllaReference_Types_Details_formalstream" xlink:title="formalstream" target="_parent">
<polygon fill="linen" stroke="black" points="153.5,-108 43.5,-108 43.5,-72 159.5,-72 159.5,-102 153.5,-108"/>
<polyline fill="none" stroke="black" points="153.5,-108 153.5,-102 "/>
<polyline fill="none" stroke="black" points="159.5,-102 153.5,-102 "/>
<text text-anchor="middle" x="101.5" y="-86.3" font-family="Consolas, monospace" font-size="14.00">formalstream</text>
</a>
</g>
</g>
<!-- stream -->
<g id="node2" class="node">
<title>stream</title>
<g id="a_node2"><a xlink:href="PsyllaReference_Types.xhtml#PsyllaReference_Types_Details_stream" xlink:title="stream" target="_parent">
<polygon fill="wheat" stroke="black" points="128.5,-36 68.5,-36 68.5,0 134.5,0 134.5,-30 128.5,-36"/>
<polyline fill="none" stroke="black" points="128.5,-36 128.5,-30 "/>
<polyline fill="none" stroke="black" points="134.5,-30 128.5,-30 "/>
<text text-anchor="middle" x="101.5" y="-14.3" font-family="Consolas, monospace" font-size="14.00">stream</text>
</a>
</g>
</g>
<!-- formalstream&#45;&gt;stream -->
<g id="edge1" class="edge">
<title>formalstream&#45;&gt;stream</title>
<path fill="none" stroke="black" d="M101.5,-71.7C101.5,-63.98 101.5,-54.71 101.5,-46.11"/>
<polygon fill="black" stroke="black" points="105,-46.1 101.5,-36.1 98,-46.1 105,-46.1"/>
</g>
<!-- streamable -->
<g id="node3" class="node">
<title>streamable</title>
<g id="a_node3"><a xlink:href="PsyllaReference_Types.xhtml#PsyllaReference_Types_Details_streamable" xlink:title="streamable" target="_parent">
<polygon fill="linen" stroke="black" points="202,-180 109,-180 109,-144 208,-144 208,-174 202,-180"/>
<polyline fill="none" stroke="black" points="202,-180 202,-174 "/>
<polyline fill="none" stroke="black" points="208,-174 202,-174 "/>
<text text-anchor="middle" x="158.5" y="-158.3" font-family="Consolas, monospace" font-size="14.00">streamable</text>
</a>
</g>
</g>
<!-- streamable&#45;&gt;formalstream -->
<g id="edge2" class="edge">
<title>streamable&#45;&gt;formalstream</title>
<path fill="none" stroke="black" d="M144.41,-143.7C137.58,-135.3 129.24,-125.07 121.74,-115.86"/>
<polygon fill="black" stroke="black" points="124.46,-113.65 115.43,-108.1 119.03,-118.07 124.46,-113.65"/>
</g>
<!-- closeable -->
<g id="node4" class="node">
<title>closeable</title>
<g id="a_node4"><a xlink:href="PsyllaReference_Types.xhtml#PsyllaReference_Types_Details_closeable" xlink:title="closeable" target="_parent">
<polygon fill="linen" stroke="black" points="85,-180 0,-180 0,-144 91,-144 91,-174 85,-180"/>
<polyline fill="none" stroke="black" points="85,-180 85,-174 "/>
<polyline fill="none" stroke="black" points="91,-174 85,-174 "/>
<text text-anchor="middle" x="45.5" y="-158.3" font-family="Consolas, monospace" font-size="14.00">closeable</text>
</a>
</g>
</g>
<!-- closeable&#45;&gt;formalstream -->
<g id="edge3" class="edge">
<title>closeable&#45;&gt;formalstream</title>
<path fill="none" stroke="black" d="M59.34,-143.7C65.99,-135.39 74.08,-125.28 81.39,-116.14"/>
<polygon fill="black" stroke="black" points="84.3,-118.1 87.82,-108.1 78.84,-113.73 84.3,-118.1"/>
</g>
<!-- sequential -->
<g id="node5" class="node">
<title>sequential</title>
<g id="a_node5"><a xlink:href="PsyllaReference_Types.xhtml#PsyllaReference_Types_Details_sequential" xlink:title="sequential" target="_parent">
<polygon fill="linen" stroke="black" points="193,-252 100,-252 100,-216 199,-216 199,-246 193,-252"/>
<polyline fill="none" stroke="black" points="193,-252 193,-246 "/>
<polyline fill="none" stroke="black" points="199,-246 193,-246 "/>
<text text-anchor="middle" x="149.5" y="-230.3" font-family="Consolas, monospace" font-size="14.00">sequential</text>
</a>
</g>
</g>
<!-- sequential&#45;&gt;streamable -->
<g id="edge4" class="edge">
<title>sequential&#45;&gt;streamable</title>
<path fill="none" stroke="black" d="M151.72,-215.7C152.72,-207.98 153.91,-198.71 155.01,-190.11"/>
<polygon fill="black" stroke="black" points="158.5,-190.47 156.3,-180.1 151.55,-189.58 158.5,-190.47"/>
</g>
<!-- object -->
<g id="node6" class="node">
<title>object</title>
<g id="a_node6"><a xlink:href="PsyllaReference_Types.xhtml#PsyllaReference_Types_Details_object" xlink:title="object" target="_parent">
<polygon fill="linen" stroke="black" points="128.5,-324 68.5,-324 68.5,-288 134.5,-288 134.5,-318 128.5,-324"/>
<polyline fill="none" stroke="black" points="128.5,-324 128.5,-318 "/>
<polyline fill="none" stroke="black" points="134.5,-318 128.5,-318 "/>
<text text-anchor="middle" x="101.5" y="-302.3" font-family="Consolas, monospace" font-size="14.00">object</text>
</a>
</g>
</g>
<!-- object&#45;&gt;closeable -->
<g id="edge5" class="edge">
<title>object&#45;&gt;closeable</title>
<path fill="none" stroke="black" d="M94.75,-287.87C85.12,-263.46 67.36,-218.43 56,-189.64"/>
<polygon fill="black" stroke="black" points="59.2,-188.21 52.28,-180.19 52.69,-190.78 59.2,-188.21"/>
</g>
<!-- object&#45;&gt;sequential -->
<g id="edge6" class="edge">
<title>object&#45;&gt;sequential</title>
<path fill="none" stroke="black" d="M113.37,-287.7C119,-279.47 125.85,-269.48 132.07,-260.42"/>
<polygon fill="black" stroke="black" points="135,-262.33 137.77,-252.1 129.23,-258.37 135,-262.33"/>
</g>
</g>
</svg>
