<?xml version="1.0" encoding="UTF-8" standalone="no"?>
<!DOCTYPE svg PUBLIC "-//W3C//DTD SVG 1.1//EN"
 "http://www.w3.org/Graphics/SVG/1.1/DTD/svg11.dtd">
<!-- Generated by graphviz version 2.43.0 (0)
 -->
<!-- Title: proc Pages: 1 -->
<svg width="495pt" height="548pt"
 viewBox="0.00 0.00 494.50 548.00" xmlns="http://www.w3.org/2000/svg" xmlns:xlink="http://www.w3.org/1999/xlink">
<g id="graph0" class="graph" transform="scale(1 1) rotate(0) translate(4 544)">
<title>proc</title>
<polygon fill="transparent" stroke="transparent" points="-4,4 -4,-544 490.5,-544 490.5,4 -4,4"/>
<!-- executable -->
<g id="node1" class="node">
<title>executable</title>
<g id="a_node1"><a xlink:href="PsyllaReference_Types.xhtml#PsyllaReference_Types_Details_executable" xlink:title="executable" target="_parent">
<polygon fill="linen" stroke="black" points="86,-396 0,-396 0,-360 92,-360 92,-390 86,-396"/>
<polyline fill="none" stroke="black" points="86,-396 86,-390 "/>
<polyline fill="none" stroke="black" points="92,-390 86,-390 "/>
<text text-anchor="middle" x="46" y="-374.9" font-family="PT Mono, monospace" font-size="12.00">executable</text>
</a>
</g>
</g>
<!-- proc -->
<g id="node3" class="node">
<title>proc</title>
<g id="a_node3"><a xlink:href="PsyllaReference_Types.xhtml#PsyllaReference_Types_Details_proc" xlink:title="proc" target="_parent">
<polygon fill="wheat" stroke="black" points="85,-36 37,-36 37,0 91,0 91,-30 85,-36"/>
<polyline fill="none" stroke="black" points="85,-36 85,-30 "/>
<polyline fill="none" stroke="black" points="91,-30 85,-30 "/>
<text text-anchor="middle" x="64" y="-14.9" font-family="PT Mono, monospace" font-size="12.00">proc</text>
</a>
</g>
</g>
<!-- executable&#45;&gt;proc -->
<g id="edge1" class="edge">
<title>executable&#45;&gt;proc</title>
<path fill="none" stroke="black" d="M44.22,-359.97C41.6,-333.34 37,-280.21 37,-235 37,-235 37,-235 37,-161 37,-120.5 47.73,-74.63 55.66,-46.26"/>
<polygon fill="black" stroke="black" points="59.13,-46.87 58.54,-36.29 52.4,-44.93 59.13,-46.87"/>
</g>
<!-- array -->
<g id="node2" class="node">
<title>array</title>
<g id="a_node2"><a xlink:href="PsyllaReference_Types.xhtml#PsyllaReference_Types_Details_array" xlink:title="array" target="_parent">
<polygon fill="linen" stroke="black" points="147,-108 99,-108 99,-72 153,-72 153,-102 147,-108"/>
<polyline fill="none" stroke="black" points="147,-108 147,-102 "/>
<polyline fill="none" stroke="black" points="153,-102 147,-102 "/>
<text text-anchor="middle" x="126" y="-86.9" font-family="PT Mono, monospace" font-size="12.00">array</text>
</a>
</g>
</g>
<!-- array&#45;&gt;proc -->
<g id="edge2" class="edge">
<title>array&#45;&gt;proc</title>
<path fill="none" stroke="black" d="M110.67,-71.7C103.24,-63.3 94.18,-53.07 86.02,-43.86"/>
<polygon fill="black" stroke="black" points="88.4,-41.27 79.15,-36.1 83.16,-45.91 88.4,-41.27"/>
</g>
<!-- object -->
<g id="node4" class="node">
<title>object</title>
<g id="a_node4"><a xlink:href="PsyllaReference_Types.xhtml#PsyllaReference_Types_Details_object" xlink:title="object" target="_parent">
<polygon fill="linen" stroke="black" points="247,-540 191,-540 191,-504 253,-504 253,-534 247,-540"/>
<polyline fill="none" stroke="black" points="247,-540 247,-534 "/>
<polyline fill="none" stroke="black" points="253,-534 247,-534 "/>
<text text-anchor="middle" x="222" y="-518.9" font-family="PT Mono, monospace" font-size="12.00">object</text>
</a>
</g>
</g>
<!-- object&#45;&gt;executable -->
<g id="edge3" class="edge">
<title>object&#45;&gt;executable</title>
<path fill="none" stroke="black" d="M190.7,-507.59C170.55,-498.13 144.41,-484.29 124,-468 100.74,-449.44 78.84,-423.4 64.2,-404.28"/>
<polygon fill="black" stroke="black" points="66.81,-401.93 58,-396.03 61.21,-406.13 66.81,-401.93"/>
</g>
<!-- appendable -->
<g id="node6" class="node">
<title>appendable</title>
<g id="a_node6"><a xlink:href="PsyllaReference_Types.xhtml#PsyllaReference_Types_Details_appendable" xlink:title="appendable" target="_parent">
<polygon fill="linen" stroke="black" points="151,-324 65,-324 65,-288 157,-288 157,-318 151,-324"/>
<polyline fill="none" stroke="black" points="151,-324 151,-318 "/>
<polyline fill="none" stroke="black" points="157,-318 151,-318 "/>
<text text-anchor="middle" x="111" y="-302.9" font-family="PT Mono, monospace" font-size="12.00">appendable</text>
</a>
</g>
</g>
<!-- object&#45;&gt;appendable -->
<g id="edge9" class="edge">
<title>object&#45;&gt;appendable</title>
<path fill="none" stroke="black" d="M202.03,-503.95C191.66,-494.26 179.43,-481.4 171,-468 143.77,-424.71 126.1,-367.19 117.4,-333.92"/>
<polygon fill="black" stroke="black" points="120.74,-332.85 114.89,-324.02 113.96,-334.57 120.74,-332.85"/>
</g>
<!-- indexed -->
<g id="node8" class="node">
<title>indexed</title>
<g id="a_node8"><a xlink:href="PsyllaReference_Types.xhtml#PsyllaReference_Types_Details_indexed" xlink:title="indexed" target="_parent">
<polygon fill="linen" stroke="black" points="188.5,-252 125.5,-252 125.5,-216 194.5,-216 194.5,-246 188.5,-252"/>
<polyline fill="none" stroke="black" points="188.5,-252 188.5,-246 "/>
<polyline fill="none" stroke="black" points="194.5,-246 188.5,-246 "/>
<text text-anchor="middle" x="160" y="-230.9" font-family="PT Mono, monospace" font-size="12.00">indexed</text>
</a>
</g>
</g>
<!-- object&#45;&gt;indexed -->
<g id="edge13" class="edge">
<title>object&#45;&gt;indexed</title>
<path fill="none" stroke="black" d="M215.37,-503.52C211.66,-493.28 207.16,-480.03 204,-468 184.71,-394.59 170.38,-306.06 163.87,-262.27"/>
<polygon fill="black" stroke="black" points="167.3,-261.53 162.39,-252.14 160.38,-262.54 167.3,-261.53"/>
</g>
<!-- sequential -->
<g id="node9" class="node">
<title>sequential</title>
<g id="a_node9"><a xlink:href="PsyllaReference_Types.xhtml#PsyllaReference_Types_Details_sequential" xlink:title="sequential" target="_parent">
<polygon fill="linen" stroke="black" points="299,-468 213,-468 213,-432 305,-432 305,-462 299,-468"/>
<polyline fill="none" stroke="black" points="299,-468 299,-462 "/>
<polyline fill="none" stroke="black" points="305,-462 299,-462 "/>
<text text-anchor="middle" x="259" y="-446.9" font-family="PT Mono, monospace" font-size="12.00">sequential</text>
</a>
</g>
</g>
<!-- object&#45;&gt;sequential -->
<g id="edge14" class="edge">
<title>object&#45;&gt;sequential</title>
<path fill="none" stroke="black" d="M231.15,-503.7C235.4,-495.64 240.56,-485.89 245.27,-476.98"/>
<polygon fill="black" stroke="black" points="248.38,-478.58 249.96,-468.1 242.19,-475.31 248.38,-478.58"/>
</g>
<!-- clearable -->
<g id="node10" class="node">
<title>clearable</title>
<g id="a_node10"><a xlink:href="PsyllaReference_Types.xhtml#PsyllaReference_Types_Details_clearable" xlink:title="clearable" target="_parent">
<polygon fill="linen" stroke="black" points="439,-396 361,-396 361,-360 445,-360 445,-390 439,-396"/>
<polyline fill="none" stroke="black" points="439,-396 439,-390 "/>
<polyline fill="none" stroke="black" points="445,-390 439,-390 "/>
<text text-anchor="middle" x="403" y="-374.9" font-family="PT Mono, monospace" font-size="12.00">clearable</text>
</a>
</g>
</g>
<!-- object&#45;&gt;clearable -->
<g id="edge15" class="edge">
<title>object&#45;&gt;clearable</title>
<path fill="none" stroke="black" d="M253.1,-505.72C271.55,-496.02 294.98,-482.58 314,-468 339.19,-448.69 364.45,-422.64 381.58,-403.72"/>
<polygon fill="black" stroke="black" points="384.35,-405.87 388.41,-396.08 379.13,-401.21 384.35,-405.87"/>
</g>
<!-- lengthy -->
<g id="node12" class="node">
<title>lengthy</title>
<g id="a_node12"><a xlink:href="PsyllaReference_Types.xhtml#PsyllaReference_Types_Details_lengthy" xlink:title="lengthy" target="_parent">
<polygon fill="linen" stroke="black" points="480.5,-468 417.5,-468 417.5,-432 486.5,-432 486.5,-462 480.5,-468"/>
<polyline fill="none" stroke="black" points="480.5,-468 480.5,-462 "/>
<polyline fill="none" stroke="black" points="486.5,-462 480.5,-462 "/>
<text text-anchor="middle" x="452" y="-446.9" font-family="PT Mono, monospace" font-size="12.00">lengthy</text>
</a>
</g>
</g>
<!-- object&#45;&gt;lengthy -->
<g id="edge17" class="edge">
<title>object&#45;&gt;lengthy</title>
<path fill="none" stroke="black" d="M253.02,-511.56C292.89,-499.43 362.36,-478.28 407.77,-464.46"/>
<polygon fill="black" stroke="black" points="408.8,-467.81 417.35,-461.55 406.76,-461.11 408.8,-467.81"/>
</g>
<!-- formalarray -->
<g id="node5" class="node">
<title>formalarray</title>
<g id="a_node5"><a xlink:href="PsyllaReference_Types.xhtml#PsyllaReference_Types_Details_formalarray" xlink:title="formalarray" target="_parent">
<polygon fill="linen" stroke="black" points="203.5,-180 110.5,-180 110.5,-144 209.5,-144 209.5,-174 203.5,-180"/>
<polyline fill="none" stroke="black" points="203.5,-180 203.5,-174 "/>
<polyline fill="none" stroke="black" points="209.5,-174 203.5,-174 "/>
<text text-anchor="middle" x="160" y="-158.9" font-family="PT Mono, monospace" font-size="12.00">formalarray</text>
</a>
</g>
</g>
<!-- formalarray&#45;&gt;array -->
<g id="edge4" class="edge">
<title>formalarray&#45;&gt;array</title>
<path fill="none" stroke="black" d="M151.6,-143.7C147.73,-135.73 143.05,-126.1 138.76,-117.26"/>
<polygon fill="black" stroke="black" points="141.83,-115.57 134.31,-108.1 135.53,-118.63 141.83,-115.57"/>
</g>
<!-- appendable&#45;&gt;formalarray -->
<g id="edge5" class="edge">
<title>appendable&#45;&gt;formalarray</title>
<path fill="none" stroke="black" d="M108.88,-287.93C107.27,-269.5 106.72,-239.62 116,-216 120.04,-205.71 126.91,-195.94 134.02,-187.66"/>
<polygon fill="black" stroke="black" points="136.68,-189.94 140.84,-180.2 131.51,-185.22 136.68,-189.94"/>
</g>
<!-- container -->
<g id="node7" class="node">
<title>container</title>
<g id="a_node7"><a xlink:href="PsyllaReference_Types.xhtml#PsyllaReference_Types_Details_container" xlink:title="container" target="_parent">
<polygon fill="linen" stroke="black" points="381,-252 303,-252 303,-216 387,-216 387,-246 381,-252"/>
<polyline fill="none" stroke="black" points="381,-252 381,-246 "/>
<polyline fill="none" stroke="black" points="387,-246 381,-246 "/>
<text text-anchor="middle" x="345" y="-230.9" font-family="PT Mono, monospace" font-size="12.00">container</text>
</a>
</g>
</g>
<!-- container&#45;&gt;formalarray -->
<g id="edge6" class="edge">
<title>container&#45;&gt;formalarray</title>
<path fill="none" stroke="black" d="M302.56,-216.94C276.51,-207.08 242.87,-194.36 214.82,-183.74"/>
<polygon fill="black" stroke="black" points="215.74,-180.35 205.15,-180.08 213.27,-186.9 215.74,-180.35"/>
</g>
<!-- indexed&#45;&gt;formalarray -->
<g id="edge7" class="edge">
<title>indexed&#45;&gt;formalarray</title>
<path fill="none" stroke="black" d="M160,-215.7C160,-207.98 160,-198.71 160,-190.11"/>
<polygon fill="black" stroke="black" points="163.5,-190.1 160,-180.1 156.5,-190.1 163.5,-190.1"/>
</g>
<!-- sequential&#45;&gt;formalarray -->
<g id="edge8" class="edge">
<title>sequential&#45;&gt;formalarray</title>
<path fill="none" stroke="black" d="M253.06,-431.94C249.59,-421.61 245.25,-408.13 242,-396 220.81,-316.93 238.42,-289.8 203,-216 198.18,-205.96 191.11,-196.15 184.08,-187.76"/>
<polygon fill="black" stroke="black" points="186.66,-185.39 177.44,-180.18 181.4,-190 186.66,-185.39"/>
</g>
<!-- streamable -->
<g id="node13" class="node">
<title>streamable</title>
<g id="a_node13"><a xlink:href="PsyllaReference_Types.xhtml#PsyllaReference_Types_Details_streamable" xlink:title="streamable" target="_parent">
<polygon fill="linen" stroke="black" points="337,-396 251,-396 251,-360 343,-360 343,-390 337,-396"/>
<polyline fill="none" stroke="black" points="337,-396 337,-390 "/>
<polyline fill="none" stroke="black" points="343,-390 337,-390 "/>
<text text-anchor="middle" x="297" y="-374.9" font-family="PT Mono, monospace" font-size="12.00">streamable</text>
</a>
</g>
</g>
<!-- sequential&#45;&gt;streamable -->
<g id="edge18" class="edge">
<title>sequential&#45;&gt;streamable</title>
<path fill="none" stroke="black" d="M268.39,-431.7C272.76,-423.64 278.06,-413.89 282.9,-404.98"/>
<polygon fill="black" stroke="black" points="286.02,-406.56 287.71,-396.1 279.87,-403.22 286.02,-406.56"/>
</g>
<!-- clearable&#45;&gt;container -->
<g id="edge10" class="edge">
<title>clearable&#45;&gt;container</title>
<path fill="none" stroke="black" d="M396,-359.87C386.03,-335.46 367.64,-290.43 355.88,-261.64"/>
<polygon fill="black" stroke="black" points="359.04,-260.12 352.02,-252.19 352.56,-262.77 359.04,-260.12"/>
</g>
<!-- iterable -->
<g id="node11" class="node">
<title>iterable</title>
<g id="a_node11"><a xlink:href="PsyllaReference_Types.xhtml#PsyllaReference_Types_Details_iterable" xlink:title="iterable" target="_parent">
<polygon fill="linen" stroke="black" points="339.5,-324 268.5,-324 268.5,-288 345.5,-288 345.5,-318 339.5,-324"/>
<polyline fill="none" stroke="black" points="339.5,-324 339.5,-318 "/>
<polyline fill="none" stroke="black" points="345.5,-318 339.5,-318 "/>
<text text-anchor="middle" x="307" y="-302.9" font-family="PT Mono, monospace" font-size="12.00">iterable</text>
</a>
</g>
</g>
<!-- iterable&#45;&gt;container -->
<g id="edge11" class="edge">
<title>iterable&#45;&gt;container</title>
<path fill="none" stroke="black" d="M316.39,-287.7C320.76,-279.64 326.06,-269.89 330.9,-260.98"/>
<polygon fill="black" stroke="black" points="334.02,-262.56 335.71,-252.1 327.87,-259.22 334.02,-262.56"/>
</g>
<!-- lengthy&#45;&gt;container -->
<g id="edge12" class="edge">
<title>lengthy&#45;&gt;container</title>
<path fill="none" stroke="black" d="M456.04,-431.97C459.57,-413.58 462.89,-383.73 454,-360 438.43,-318.46 402.13,-281.65 375.68,-258.92"/>
<polygon fill="black" stroke="black" points="377.73,-256.07 367.82,-252.32 373.23,-261.43 377.73,-256.07"/>
</g>
<!-- streamable&#45;&gt;iterable -->
<g id="edge16" class="edge">
<title>streamable&#45;&gt;iterable</title>
<path fill="none" stroke="black" d="M299.47,-359.7C300.57,-351.98 301.9,-342.71 303.13,-334.11"/>
<polygon fill="black" stroke="black" points="306.61,-334.5 304.56,-324.1 299.68,-333.51 306.61,-334.5"/>
</g>
</g>
</svg>
