<?xml version="1.0" encoding="UTF-8" standalone="no"?>
<!DOCTYPE svg PUBLIC "-//W3C//DTD SVG 1.1//EN"
 "http://www.w3.org/Graphics/SVG/1.1/DTD/svg11.dtd">
<!-- Generated by graphviz version 2.43.0 (0)
 -->
<!-- Title: realnumeric Pages: 1 -->
<svg width="572pt" height="332pt"
 viewBox="0.00 0.00 571.50 332.00" xmlns="http://www.w3.org/2000/svg" xmlns:xlink="http://www.w3.org/1999/xlink">
<g id="graph0" class="graph" transform="scale(1 1) rotate(0) translate(4 328)">
<title>realnumeric</title>
<polygon fill="transparent" stroke="transparent" points="-4,4 -4,-328 567.5,-328 567.5,4 -4,4"/>
<!-- numeric -->
<g id="node1" class="node">
<title>numeric</title>
<g id="a_node1"><a xlink:href="PsyllaReference_Types.xhtml#PsyllaReference_Types_Details_numeric" xlink:title="numeric" target="_parent">
<polygon fill="linen" stroke="black" points="403,-108 340,-108 340,-72 409,-72 409,-102 403,-108"/>
<polyline fill="none" stroke="black" points="403,-108 403,-102 "/>
<polyline fill="none" stroke="black" points="409,-102 403,-102 "/>
<text text-anchor="middle" x="374.5" y="-86.9" font-family="Source Code Pro,monospace" font-size="12.00">numeric</text>
</a>
</g>
</g>
<!-- realnumeric -->
<g id="node5" class="node">
<title>realnumeric</title>
<g id="a_node5"><a xlink:href="PsyllaReference_Types.xhtml#PsyllaReference_Types_Details_realnumeric" xlink:title="realnumeric" target="_parent">
<polygon fill="wheat" stroke="black" points="297,-36 204,-36 204,0 303,0 303,-30 297,-36"/>
<polyline fill="none" stroke="black" points="297,-36 297,-30 "/>
<polyline fill="none" stroke="black" points="303,-30 297,-30 "/>
<text text-anchor="middle" x="253.5" y="-14.9" font-family="Source Code Pro,monospace" font-size="12.00">realnumeric</text>
</a>
</g>
</g>
<!-- numeric&#45;&gt;realnumeric -->
<g id="edge1" class="edge">
<title>numeric&#45;&gt;realnumeric</title>
<path fill="none" stroke="black" d="M344.9,-71.88C328.93,-62.64 309.04,-51.13 291.89,-41.21"/>
<polygon fill="black" stroke="black" points="293.62,-38.17 283.21,-36.19 290.12,-44.23 293.62,-38.17"/>
</g>
<!-- convertabletointeger -->
<g id="node2" class="node">
<title>convertabletointeger</title>
<g id="a_node2"><a xlink:href="PsyllaReference_Types.xhtml#PsyllaReference_Types_Details_convertabletointeger" xlink:title="convertabletointeger" target="_parent">
<polygon fill="linen" stroke="black" points="161,-180 0,-180 0,-144 167,-144 167,-174 161,-180"/>
<polyline fill="none" stroke="black" points="161,-180 161,-174 "/>
<polyline fill="none" stroke="black" points="167,-174 161,-174 "/>
<text text-anchor="middle" x="83.5" y="-158.9" font-family="Source Code Pro,monospace" font-size="12.00">convertabletointeger</text>
</a>
</g>
</g>
<!-- convertabletointeger&#45;&gt;realnumeric -->
<g id="edge2" class="edge">
<title>convertabletointeger&#45;&gt;realnumeric</title>
<path fill="none" stroke="black" d="M82.02,-143.77C81.29,-124.07 83.21,-91.99 100.5,-72 123.81,-45.04 161.56,-31.79 193.73,-25.27"/>
<polygon fill="black" stroke="black" points="194.75,-28.64 203.95,-23.39 193.48,-21.76 194.75,-28.64"/>
</g>
<!-- convertabletointegral -->
<g id="node3" class="node">
<title>convertabletointegral</title>
<g id="a_node3"><a xlink:href="PsyllaReference_Types.xhtml#PsyllaReference_Types_Details_convertabletointegral" xlink:title="convertabletointegral" target="_parent">
<polygon fill="linen" stroke="black" points="277.5,-108 109.5,-108 109.5,-72 283.5,-72 283.5,-102 277.5,-108"/>
<polyline fill="none" stroke="black" points="277.5,-108 277.5,-102 "/>
<polyline fill="none" stroke="black" points="283.5,-102 277.5,-102 "/>
<text text-anchor="middle" x="196.5" y="-86.9" font-family="Source Code Pro,monospace" font-size="12.00">convertabletointegral</text>
</a>
</g>
</g>
<!-- convertabletointegral&#45;&gt;realnumeric -->
<g id="edge3" class="edge">
<title>convertabletointegral&#45;&gt;realnumeric</title>
<path fill="none" stroke="black" d="M210.59,-71.7C217.42,-63.3 225.76,-53.07 233.26,-43.86"/>
<polygon fill="black" stroke="black" points="235.97,-46.07 239.57,-36.1 230.54,-41.65 235.97,-46.07"/>
</g>
<!-- scalar -->
<g id="node4" class="node">
<title>scalar</title>
<g id="a_node4"><a xlink:href="PsyllaReference_Types.xhtml#PsyllaReference_Types_Details_scalar" xlink:title="scalar" target="_parent">
<polygon fill="linen" stroke="black" points="280.5,-180 224.5,-180 224.5,-144 286.5,-144 286.5,-174 280.5,-180"/>
<polyline fill="none" stroke="black" points="280.5,-180 280.5,-174 "/>
<polyline fill="none" stroke="black" points="286.5,-174 280.5,-174 "/>
<text text-anchor="middle" x="255.5" y="-158.9" font-family="Source Code Pro,monospace" font-size="12.00">scalar</text>
</a>
</g>
</g>
<!-- scalar&#45;&gt;realnumeric -->
<g id="edge4" class="edge">
<title>scalar&#45;&gt;realnumeric</title>
<path fill="none" stroke="black" d="M271.54,-143.85C279.51,-134.12 288.33,-121.27 292.5,-108 297.3,-92.74 297.49,-87.2 292.5,-72 289.19,-61.91 283.13,-52.15 276.77,-43.82"/>
<polygon fill="black" stroke="black" points="279.42,-41.54 270.39,-36.01 274,-45.97 279.42,-41.54"/>
</g>
<!-- atomic -->
<g id="node6" class="node">
<title>atomic</title>
<g id="a_node6"><a xlink:href="PsyllaReference_Types.xhtml#PsyllaReference_Types_Details_atomic" xlink:title="atomic" target="_parent">
<polygon fill="linen" stroke="black" points="321.5,-252 265.5,-252 265.5,-216 327.5,-216 327.5,-246 321.5,-252"/>
<polyline fill="none" stroke="black" points="321.5,-252 321.5,-246 "/>
<polyline fill="none" stroke="black" points="327.5,-246 321.5,-246 "/>
<text text-anchor="middle" x="296.5" y="-230.9" font-family="Source Code Pro,monospace" font-size="12.00">atomic</text>
</a>
</g>
</g>
<!-- atomic&#45;&gt;numeric -->
<g id="edge5" class="edge">
<title>atomic&#45;&gt;numeric</title>
<path fill="none" stroke="black" d="M302.06,-215.97C308.41,-197.58 319.72,-167.73 333.5,-144 339.02,-134.49 346.05,-124.78 352.73,-116.32"/>
<polygon fill="black" stroke="black" points="355.64,-118.29 359.22,-108.32 350.2,-113.88 355.64,-118.29"/>
</g>
<!-- arithmetic -->
<g id="node7" class="node">
<title>arithmetic</title>
<g id="a_node7"><a xlink:href="PsyllaReference_Types.xhtml#PsyllaReference_Types_Details_arithmetic" xlink:title="arithmetic" target="_parent">
<polygon fill="linen" stroke="black" points="428.5,-180 342.5,-180 342.5,-144 434.5,-144 434.5,-174 428.5,-180"/>
<polyline fill="none" stroke="black" points="428.5,-180 428.5,-174 "/>
<polyline fill="none" stroke="black" points="434.5,-174 428.5,-174 "/>
<text text-anchor="middle" x="388.5" y="-158.9" font-family="Source Code Pro,monospace" font-size="12.00">arithmetic</text>
</a>
</g>
</g>
<!-- arithmetic&#45;&gt;numeric -->
<g id="edge6" class="edge">
<title>arithmetic&#45;&gt;numeric</title>
<path fill="none" stroke="black" d="M385.04,-143.7C383.5,-135.98 381.64,-126.71 379.92,-118.11"/>
<polygon fill="black" stroke="black" points="383.31,-117.22 377.92,-108.1 376.45,-118.6 383.31,-117.22"/>
</g>
<!-- object -->
<g id="node8" class="node">
<title>object</title>
<g id="a_node8"><a xlink:href="PsyllaReference_Types.xhtml#PsyllaReference_Types_Details_object" xlink:title="object" target="_parent">
<polygon fill="linen" stroke="black" points="291.5,-324 235.5,-324 235.5,-288 297.5,-288 297.5,-318 291.5,-324"/>
<polyline fill="none" stroke="black" points="291.5,-324 291.5,-318 "/>
<polyline fill="none" stroke="black" points="297.5,-318 291.5,-318 "/>
<text text-anchor="middle" x="266.5" y="-302.9" font-family="Source Code Pro,monospace" font-size="12.00">object</text>
</a>
</g>
</g>
<!-- object&#45;&gt;convertabletointeger -->
<g id="edge7" class="edge">
<title>object&#45;&gt;convertabletointeger</title>
<path fill="none" stroke="black" d="M236.53,-287.78C220.12,-277.94 199.69,-265 182.5,-252 155.65,-231.69 127.3,-205.68 107.86,-187.03"/>
<polygon fill="black" stroke="black" points="110.23,-184.46 100.61,-180.02 105.36,-189.49 110.23,-184.46"/>
</g>
<!-- object&#45;&gt;convertabletointegral -->
<g id="edge8" class="edge">
<title>object&#45;&gt;convertabletointegral</title>
<path fill="none" stroke="black" d="M258.42,-287.96C247.42,-264.22 227.71,-219.65 215.5,-180 209.23,-159.65 204.3,-136.05 201.03,-118.28"/>
<polygon fill="black" stroke="black" points="204.45,-117.53 199.26,-108.29 197.56,-118.75 204.45,-117.53"/>
</g>
<!-- object&#45;&gt;scalar -->
<g id="edge9" class="edge">
<title>object&#45;&gt;scalar</title>
<path fill="none" stroke="black" d="M262.49,-287.92C260.26,-277.59 257.7,-264.11 256.5,-252 254.45,-231.37 254.28,-207.92 254.57,-190.27"/>
<polygon fill="black" stroke="black" points="258.08,-190.19 254.81,-180.11 251.08,-190.03 258.08,-190.19"/>
</g>
<!-- object&#45;&gt;atomic -->
<g id="edge10" class="edge">
<title>object&#45;&gt;atomic</title>
<path fill="none" stroke="black" d="M273.92,-287.7C277.29,-279.81 281.37,-270.3 285.12,-261.55"/>
<polygon fill="black" stroke="black" points="288.45,-262.67 289.17,-252.1 282.01,-259.92 288.45,-262.67"/>
</g>
<!-- additive -->
<g id="node9" class="node">
<title>additive</title>
<g id="a_node9"><a xlink:href="PsyllaReference_Types.xhtml#PsyllaReference_Types_Details_additive" xlink:title="additive" target="_parent">
<polygon fill="linen" stroke="black" points="417,-252 346,-252 346,-216 423,-216 423,-246 417,-252"/>
<polyline fill="none" stroke="black" points="417,-252 417,-246 "/>
<polyline fill="none" stroke="black" points="423,-246 417,-246 "/>
<text text-anchor="middle" x="384.5" y="-230.9" font-family="Source Code Pro,monospace" font-size="12.00">additive</text>
</a>
</g>
</g>
<!-- object&#45;&gt;additive -->
<g id="edge13" class="edge">
<title>object&#45;&gt;additive</title>
<path fill="none" stroke="black" d="M295.37,-287.88C310.79,-278.72 329.98,-267.34 346.6,-257.48"/>
<polygon fill="black" stroke="black" points="348.71,-260.3 355.52,-252.19 345.14,-254.28 348.71,-260.3"/>
</g>
<!-- multiplicative -->
<g id="node10" class="node">
<title>multiplicative</title>
<g id="a_node10"><a xlink:href="PsyllaReference_Types.xhtml#PsyllaReference_Types_Details_multiplicative" xlink:title="multiplicative" target="_parent">
<polygon fill="linen" stroke="black" points="557.5,-252 441.5,-252 441.5,-216 563.5,-216 563.5,-246 557.5,-252"/>
<polyline fill="none" stroke="black" points="557.5,-252 557.5,-246 "/>
<polyline fill="none" stroke="black" points="563.5,-246 557.5,-246 "/>
<text text-anchor="middle" x="502.5" y="-230.9" font-family="Source Code Pro,monospace" font-size="12.00">multiplicative</text>
</a>
</g>
</g>
<!-- object&#45;&gt;multiplicative -->
<g id="edge14" class="edge">
<title>object&#45;&gt;multiplicative</title>
<path fill="none" stroke="black" d="M297.84,-295.7C332.77,-285.34 390.27,-268.29 435.44,-254.89"/>
<polygon fill="black" stroke="black" points="436.58,-258.2 445.17,-252 434.59,-251.49 436.58,-258.2"/>
</g>
<!-- additive&#45;&gt;arithmetic -->
<g id="edge11" class="edge">
<title>additive&#45;&gt;arithmetic</title>
<path fill="none" stroke="black" d="M385.49,-215.7C385.93,-207.98 386.46,-198.71 386.95,-190.11"/>
<polygon fill="black" stroke="black" points="390.45,-190.29 387.52,-180.1 383.46,-189.89 390.45,-190.29"/>
</g>
<!-- multiplicative&#45;&gt;arithmetic -->
<g id="edge12" class="edge">
<title>multiplicative&#45;&gt;arithmetic</title>
<path fill="none" stroke="black" d="M474.61,-215.88C459.71,-206.72 441.17,-195.34 425.12,-185.48"/>
<polygon fill="black" stroke="black" points="426.85,-182.44 416.49,-180.19 423.19,-188.41 426.85,-182.44"/>
</g>
</g>
</svg>
