<?xml version="1.0" encoding="UTF-8" standalone="no"?>
<!DOCTYPE svg PUBLIC "-//W3C//DTD SVG 1.1//EN"
 "http://www.w3.org/Graphics/SVG/1.1/DTD/svg11.dtd">
<!-- Generated by graphviz version 2.43.0 (0)
 -->
<!-- Title: filewriter Pages: 1 -->
<svg width="309pt" height="260pt"
 viewBox="0.00 0.00 309.00 260.00" xmlns="http://www.w3.org/2000/svg" xmlns:xlink="http://www.w3.org/1999/xlink">
<g id="graph0" class="graph" transform="scale(1 1) rotate(0) translate(4 256)">
<title>filewriter</title>
<polygon fill="transparent" stroke="transparent" points="-4,4 -4,-256 305,-256 305,4 -4,4"/>
<!-- writer -->
<g id="node1" class="node">
<title>writer</title>
<g id="a_node1"><a xlink:href="PsyllaReference_Types.xhtml#PsyllaReference_Types_Details_writer" xlink:title="writer" target="_parent">
<polygon fill="linen" stroke="black" points="181.5,-108 121.5,-108 121.5,-72 187.5,-72 187.5,-102 181.5,-108"/>
<polyline fill="none" stroke="black" points="181.5,-108 181.5,-102 "/>
<polyline fill="none" stroke="black" points="187.5,-102 181.5,-102 "/>
<text text-anchor="middle" x="154.5" y="-86.3" font-family="Consolas, monospace" font-size="14.00">writer</text>
</a>
</g>
</g>
<!-- filewriter -->
<g id="node2" class="node">
<title>filewriter</title>
<g id="a_node2"><a xlink:href="PsyllaReference_Types.xhtml#PsyllaReference_Types_Details_filewriter" xlink:title="filewriter" target="_parent">
<polygon fill="wheat" stroke="black" points="198,-36 105,-36 105,0 204,0 204,-30 198,-36"/>
<polyline fill="none" stroke="black" points="198,-36 198,-30 "/>
<polyline fill="none" stroke="black" points="204,-30 198,-30 "/>
<text text-anchor="middle" x="154.5" y="-14.3" font-family="Consolas, monospace" font-size="14.00">filewriter</text>
</a>
</g>
</g>
<!-- writer&#45;&gt;filewriter -->
<g id="edge1" class="edge">
<title>writer&#45;&gt;filewriter</title>
<path fill="none" stroke="black" d="M154.5,-71.7C154.5,-63.98 154.5,-54.71 154.5,-46.11"/>
<polygon fill="black" stroke="black" points="158,-46.1 154.5,-36.1 151,-46.1 158,-46.1"/>
</g>
<!-- closeable -->
<g id="node3" class="node">
<title>closeable</title>
<g id="a_node3"><a xlink:href="PsyllaReference_Types.xhtml#PsyllaReference_Types_Details_closeable" xlink:title="closeable" target="_parent">
<polygon fill="linen" stroke="black" points="85,-180 0,-180 0,-144 91,-144 91,-174 85,-180"/>
<polyline fill="none" stroke="black" points="85,-180 85,-174 "/>
<polyline fill="none" stroke="black" points="91,-174 85,-174 "/>
<text text-anchor="middle" x="45.5" y="-158.3" font-family="Consolas, monospace" font-size="14.00">closeable</text>
</a>
</g>
</g>
<!-- closeable&#45;&gt;writer -->
<g id="edge2" class="edge">
<title>closeable&#45;&gt;writer</title>
<path fill="none" stroke="black" d="M72.16,-143.88C86.28,-134.81 103.81,-123.55 119.06,-113.76"/>
<polygon fill="black" stroke="black" points="121.21,-116.54 127.73,-108.19 117.43,-110.65 121.21,-116.54"/>
</g>
<!-- flushable -->
<g id="node4" class="node">
<title>flushable</title>
<g id="a_node4"><a xlink:href="PsyllaReference_Types.xhtml#PsyllaReference_Types_Details_flushable" xlink:title="flushable" target="_parent">
<polygon fill="linen" stroke="black" points="194,-180 109,-180 109,-144 200,-144 200,-174 194,-180"/>
<polyline fill="none" stroke="black" points="194,-180 194,-174 "/>
<polyline fill="none" stroke="black" points="200,-174 194,-174 "/>
<text text-anchor="middle" x="154.5" y="-158.3" font-family="Consolas, monospace" font-size="14.00">flushable</text>
</a>
</g>
</g>
<!-- flushable&#45;&gt;writer -->
<g id="edge3" class="edge">
<title>flushable&#45;&gt;writer</title>
<path fill="none" stroke="black" d="M154.5,-143.7C154.5,-135.98 154.5,-126.71 154.5,-118.11"/>
<polygon fill="black" stroke="black" points="158,-118.1 154.5,-108.1 151,-118.1 158,-118.1"/>
</g>
<!-- writable -->
<g id="node5" class="node">
<title>writable</title>
<g id="a_node5"><a xlink:href="PsyllaReference_Types.xhtml#PsyllaReference_Types_Details_writable" xlink:title="writable" target="_parent">
<polygon fill="linen" stroke="black" points="295,-180 218,-180 218,-144 301,-144 301,-174 295,-180"/>
<polyline fill="none" stroke="black" points="295,-180 295,-174 "/>
<polyline fill="none" stroke="black" points="301,-174 295,-174 "/>
<text text-anchor="middle" x="259.5" y="-158.3" font-family="Consolas, monospace" font-size="14.00">writable</text>
</a>
</g>
</g>
<!-- writable&#45;&gt;writer -->
<g id="edge4" class="edge">
<title>writable&#45;&gt;writer</title>
<path fill="none" stroke="black" d="M233.81,-143.88C220.21,-134.81 203.33,-123.55 188.64,-113.76"/>
<polygon fill="black" stroke="black" points="190.55,-110.82 180.28,-108.19 186.66,-116.65 190.55,-110.82"/>
</g>
<!-- object -->
<g id="node6" class="node">
<title>object</title>
<g id="a_node6"><a xlink:href="PsyllaReference_Types.xhtml#PsyllaReference_Types_Details_object" xlink:title="object" target="_parent">
<polygon fill="linen" stroke="black" points="181.5,-252 121.5,-252 121.5,-216 187.5,-216 187.5,-246 181.5,-252"/>
<polyline fill="none" stroke="black" points="181.5,-252 181.5,-246 "/>
<polyline fill="none" stroke="black" points="187.5,-246 181.5,-246 "/>
<text text-anchor="middle" x="154.5" y="-230.3" font-family="Consolas, monospace" font-size="14.00">object</text>
</a>
</g>
</g>
<!-- object&#45;&gt;closeable -->
<g id="edge5" class="edge">
<title>object&#45;&gt;closeable</title>
<path fill="none" stroke="black" d="M127.84,-215.88C113.72,-206.81 96.19,-195.55 80.94,-185.76"/>
<polygon fill="black" stroke="black" points="82.57,-182.65 72.27,-180.19 78.79,-188.54 82.57,-182.65"/>
</g>
<!-- object&#45;&gt;flushable -->
<g id="edge6" class="edge">
<title>object&#45;&gt;flushable</title>
<path fill="none" stroke="black" d="M154.5,-215.7C154.5,-207.98 154.5,-198.71 154.5,-190.11"/>
<polygon fill="black" stroke="black" points="158,-190.1 154.5,-180.1 151,-190.1 158,-190.1"/>
</g>
<!-- object&#45;&gt;writable -->
<g id="edge7" class="edge">
<title>object&#45;&gt;writable</title>
<path fill="none" stroke="black" d="M180.19,-215.88C193.79,-206.81 210.67,-195.55 225.36,-185.76"/>
<polygon fill="black" stroke="black" points="227.34,-188.65 233.72,-180.19 223.45,-182.82 227.34,-188.65"/>
</g>
</g>
</svg>
