<?xml version="1.0" encoding="UTF-8" standalone="no"?>
<!DOCTYPE svg PUBLIC "-//W3C//DTD SVG 1.1//EN"
 "http://www.w3.org/Graphics/SVG/1.1/DTD/svg11.dtd">
<!-- Generated by graphviz version 14.0.0 (0)
 -->
<!-- Title: formalarray Pages: 1 -->
<svg width="360pt" height="404pt"
 viewBox="0.00 0.00 360.00 404.00" xmlns="http://www.w3.org/2000/svg" xmlns:xlink="http://www.w3.org/1999/xlink">
<g id="graph0" class="graph" transform="scale(1 1) rotate(0) translate(4 400)">
<title>formalarray</title>
<polygon fill="none" stroke="none" points="-4,4 -4,-400 356.32,-400 356.32,4 -4,4"/>
<!-- appendable -->
<g id="node1" class="node">
<title>appendable</title>
<g id="a_node1"><a xlink:href="PsyllaReference_Types.xhtml#PsyllaReference_Types_Details_appendable" xlink:title="appendable" target="_parent">
<polygon fill="linen" stroke="black" points="64.64,-252 0,-252 0,-216 70.64,-216 70.64,-246 64.64,-252"/>
<polyline fill="none" stroke="black" points="64.64,-252 64.64,-246"/>
<polyline fill="none" stroke="black" points="70.64,-246 64.64,-246"/>
<text xml:space="preserve" text-anchor="middle" x="35.32" y="-230.4" font-family="Source Code Pro,monospace" font-size="12.00">appendable</text>
</a>
</g>
</g>
<!-- formalarray -->
<g id="node5" class="node">
<title>formalarray</title>
<g id="a_node5"><a xlink:href="PsyllaReference_Types.xhtml#PsyllaReference_Types_Details_formalarray" xlink:title="formalarray" target="_parent">
<polygon fill="wheat" stroke="black" points="144.63,-36 78,-36 78,0 150.63,0 150.63,-30 144.63,-36"/>
<polyline fill="none" stroke="black" points="144.63,-36 144.63,-30"/>
<polyline fill="none" stroke="black" points="150.63,-30 144.63,-30"/>
<text xml:space="preserve" text-anchor="middle" x="114.32" y="-14.4" font-family="Source Code Pro,monospace" font-size="12.00">formalarray</text>
</a>
</g>
</g>
<!-- appendable&#45;&gt;formalarray -->
<g id="edge1" class="edge">
<title>appendable&#45;&gt;formalarray</title>
<path fill="none" stroke="black" d="M33,-215.83C29.67,-185.03 26.43,-119.21 51.32,-72 57.19,-60.87 66.47,-51.12 76.13,-43.13"/>
<polygon fill="black" stroke="black" points="78.03,-46.09 83.81,-37.21 73.76,-40.54 78.03,-46.09"/>
</g>
<!-- container -->
<g id="node2" class="node">
<title>container</title>
<g id="a_node2"><a xlink:href="PsyllaReference_Types.xhtml#PsyllaReference_Types_Details_container" xlink:title="container" target="_parent">
<polygon fill="linen" stroke="black" points="260.64,-108 206,-108 206,-72 266.64,-72 266.64,-102 260.64,-108"/>
<polyline fill="none" stroke="black" points="260.64,-108 260.64,-102"/>
<polyline fill="none" stroke="black" points="266.64,-102 260.64,-102"/>
<text xml:space="preserve" text-anchor="middle" x="236.32" y="-86.4" font-family="Source Code Pro,monospace" font-size="12.00">container</text>
</a>
</g>
</g>
<!-- container&#45;&gt;formalarray -->
<g id="edge2" class="edge">
<title>container&#45;&gt;formalarray</title>
<path fill="none" stroke="black" d="M205.85,-71.52C190.15,-62.51 170.83,-51.42 153.99,-41.76"/>
<polygon fill="black" stroke="black" points="156.13,-38.95 145.71,-37.01 152.65,-45.03 156.13,-38.95"/>
</g>
<!-- indexed -->
<g id="node3" class="node">
<title>indexed</title>
<g id="a_node3"><a xlink:href="PsyllaReference_Types.xhtml#PsyllaReference_Types_Details_indexed" xlink:title="indexed" target="_parent">
<polygon fill="linen" stroke="black" points="108.32,-108 60.32,-108 60.32,-72 114.32,-72 114.32,-102 108.32,-108"/>
<polyline fill="none" stroke="black" points="108.32,-108 108.32,-102"/>
<polyline fill="none" stroke="black" points="114.32,-102 108.32,-102"/>
<text xml:space="preserve" text-anchor="middle" x="87.32" y="-86.4" font-family="Source Code Pro,monospace" font-size="12.00">indexed</text>
</a>
</g>
</g>
<!-- indexed&#45;&gt;formalarray -->
<g id="edge3" class="edge">
<title>indexed&#45;&gt;formalarray</title>
<path fill="none" stroke="black" d="M93.99,-71.7C96.9,-64.15 100.39,-55.12 103.64,-46.68"/>
<polygon fill="black" stroke="black" points="106.84,-48.11 107.18,-37.52 100.31,-45.59 106.84,-48.11"/>
</g>
<!-- sequential -->
<g id="node4" class="node">
<title>sequential</title>
<g id="a_node4"><a xlink:href="PsyllaReference_Types.xhtml#PsyllaReference_Types_Details_sequential" xlink:title="sequential" target="_parent">
<polygon fill="linen" stroke="black" points="208.64,-324 149.99,-324 149.99,-288 214.64,-288 214.64,-318 208.64,-324"/>
<polyline fill="none" stroke="black" points="208.64,-324 208.64,-318"/>
<polyline fill="none" stroke="black" points="214.64,-318 208.64,-318"/>
<text xml:space="preserve" text-anchor="middle" x="182.32" y="-302.4" font-family="Source Code Pro,monospace" font-size="12.00">sequential</text>
</a>
</g>
</g>
<!-- sequential&#45;&gt;formalarray -->
<g id="edge4" class="edge">
<title>sequential&#45;&gt;formalarray</title>
<path fill="none" stroke="black" d="M174.52,-287.61C170.17,-277.4 164.92,-264.15 161.32,-252 150,-213.83 129.04,-100.81 119.41,-47.48"/>
<polygon fill="black" stroke="black" points="122.85,-46.87 117.64,-37.65 115.96,-48.11 122.85,-46.87"/>
</g>
<!-- streamable -->
<g id="node10" class="node">
<title>streamable</title>
<g id="a_node10"><a xlink:href="PsyllaReference_Types.xhtml#PsyllaReference_Types_Details_streamable" xlink:title="streamable" target="_parent">
<polygon fill="linen" stroke="black" points="232.31,-252 170.33,-252 170.33,-216 238.31,-216 238.31,-246 232.31,-252"/>
<polyline fill="none" stroke="black" points="232.31,-252 232.31,-246"/>
<polyline fill="none" stroke="black" points="238.31,-246 232.31,-246"/>
<text xml:space="preserve" text-anchor="middle" x="204.32" y="-230.4" font-family="Source Code Pro,monospace" font-size="12.00">streamable</text>
</a>
</g>
</g>
<!-- sequential&#45;&gt;streamable -->
<g id="edge14" class="edge">
<title>sequential&#45;&gt;streamable</title>
<path fill="none" stroke="black" d="M187.76,-287.7C190.1,-280.24 192.9,-271.32 195.53,-262.97"/>
<polygon fill="black" stroke="black" points="198.83,-264.14 198.49,-253.55 192.15,-262.04 198.83,-264.14"/>
</g>
<!-- object -->
<g id="node6" class="node">
<title>object</title>
<g id="a_node6"><a xlink:href="PsyllaReference_Types.xhtml#PsyllaReference_Types_Details_object" xlink:title="object" target="_parent">
<polygon fill="linen" stroke="black" points="203.32,-396 155.32,-396 155.32,-360 209.32,-360 209.32,-390 203.32,-396"/>
<polyline fill="none" stroke="black" points="203.32,-396 203.32,-390"/>
<polyline fill="none" stroke="black" points="209.32,-390 203.32,-390"/>
<text xml:space="preserve" text-anchor="middle" x="182.32" y="-374.4" font-family="Source Code Pro,monospace" font-size="12.00">object</text>
</a>
</g>
</g>
<!-- object&#45;&gt;appendable -->
<g id="edge5" class="edge">
<title>object&#45;&gt;appendable</title>
<path fill="none" stroke="black" d="M155.17,-366.27C134.95,-357.26 107.62,-342.85 88.32,-324 70.36,-306.46 56.23,-281.58 47.09,-262.59"/>
<polygon fill="black" stroke="black" points="50.29,-261.17 42.93,-253.56 43.93,-264.1 50.29,-261.17"/>
</g>
<!-- object&#45;&gt;indexed -->
<g id="edge9" class="edge">
<title>object&#45;&gt;indexed</title>
<path fill="none" stroke="black" d="M165.79,-359.65C157.32,-349.87 147.5,-337.03 141.32,-324 108.62,-255.1 95.05,-165.14 89.99,-119.8"/>
<polygon fill="black" stroke="black" points="93.48,-119.58 88.96,-110 86.52,-120.32 93.48,-119.58"/>
</g>
<!-- object&#45;&gt;sequential -->
<g id="edge10" class="edge">
<title>object&#45;&gt;sequential</title>
<path fill="none" stroke="black" d="M182.32,-359.7C182.32,-352.41 182.32,-343.73 182.32,-335.54"/>
<polygon fill="black" stroke="black" points="185.82,-335.62 182.32,-325.62 178.82,-335.62 185.82,-335.62"/>
</g>
<!-- clearable -->
<g id="node7" class="node">
<title>clearable</title>
<g id="a_node7"><a xlink:href="PsyllaReference_Types.xhtml#PsyllaReference_Types_Details_clearable" xlink:title="clearable" target="_parent">
<polygon fill="linen" stroke="black" points="295.97,-180 242.67,-180 242.67,-144 301.97,-144 301.97,-174 295.97,-180"/>
<polyline fill="none" stroke="black" points="295.97,-180 295.97,-174"/>
<polyline fill="none" stroke="black" points="301.97,-174 295.97,-174"/>
<text xml:space="preserve" text-anchor="middle" x="272.32" y="-158.4" font-family="Source Code Pro,monospace" font-size="12.00">clearable</text>
</a>
</g>
</g>
<!-- object&#45;&gt;clearable -->
<g id="edge11" class="edge">
<title>object&#45;&gt;clearable</title>
<path fill="none" stroke="black" d="M197.96,-359.88C206.38,-349.97 216.42,-336.93 223.32,-324 246.47,-280.61 260.36,-224.67 267.16,-191.45"/>
<polygon fill="black" stroke="black" points="270.56,-192.27 269.06,-181.79 263.7,-190.92 270.56,-192.27"/>
</g>
<!-- lengthy -->
<g id="node9" class="node">
<title>lengthy</title>
<g id="a_node9"><a xlink:href="PsyllaReference_Types.xhtml#PsyllaReference_Types_Details_lengthy" xlink:title="lengthy" target="_parent">
<polygon fill="linen" stroke="black" points="346.32,-324 298.32,-324 298.32,-288 352.32,-288 352.32,-318 346.32,-324"/>
<polyline fill="none" stroke="black" points="346.32,-324 346.32,-318"/>
<polyline fill="none" stroke="black" points="352.32,-318 346.32,-318"/>
<text xml:space="preserve" text-anchor="middle" x="325.32" y="-302.4" font-family="Source Code Pro,monospace" font-size="12.00">lengthy</text>
</a>
</g>
</g>
<!-- object&#45;&gt;lengthy -->
<g id="edge13" class="edge">
<title>object&#45;&gt;lengthy</title>
<path fill="none" stroke="black" d="M209.55,-363.67C231.82,-352.77 263.52,-337.25 288.13,-325.21"/>
<polygon fill="black" stroke="black" points="289.38,-328.49 296.83,-320.95 286.31,-322.2 289.38,-328.49"/>
</g>
<!-- clearable&#45;&gt;container -->
<g id="edge6" class="edge">
<title>clearable&#45;&gt;container</title>
<path fill="none" stroke="black" d="M263.42,-143.7C259.45,-135.98 254.69,-126.71 250.26,-118.11"/>
<polygon fill="black" stroke="black" points="253.49,-116.74 245.81,-109.45 247.27,-119.94 253.49,-116.74"/>
</g>
<!-- iterable -->
<g id="node8" class="node">
<title>iterable</title>
<g id="a_node8"><a xlink:href="PsyllaReference_Types.xhtml#PsyllaReference_Types_Details_iterable" xlink:title="iterable" target="_parent">
<polygon fill="linen" stroke="black" points="218.32,-180 170.32,-180 170.32,-144 224.32,-144 224.32,-174 218.32,-180"/>
<polyline fill="none" stroke="black" points="218.32,-180 218.32,-174"/>
<polyline fill="none" stroke="black" points="224.32,-174 218.32,-174"/>
<text xml:space="preserve" text-anchor="middle" x="197.32" y="-158.4" font-family="Source Code Pro,monospace" font-size="12.00">iterable</text>
</a>
</g>
</g>
<!-- iterable&#45;&gt;container -->
<g id="edge7" class="edge">
<title>iterable&#45;&gt;container</title>
<path fill="none" stroke="black" d="M206.96,-143.7C211.26,-135.98 216.42,-126.71 221.21,-118.11"/>
<polygon fill="black" stroke="black" points="224.24,-119.87 226.05,-109.43 218.13,-116.46 224.24,-119.87"/>
</g>
<!-- lengthy&#45;&gt;container -->
<g id="edge8" class="edge">
<title>lengthy&#45;&gt;container</title>
<path fill="none" stroke="black" d="M328.3,-287.63C332.72,-256.52 337.86,-190.23 311.32,-144 303.27,-129.98 289.83,-118.75 276.54,-110.3"/>
<polygon fill="black" stroke="black" points="278.65,-107.49 268.26,-105.41 275.09,-113.51 278.65,-107.49"/>
</g>
<!-- streamable&#45;&gt;iterable -->
<g id="edge12" class="edge">
<title>streamable&#45;&gt;iterable</title>
<path fill="none" stroke="black" d="M202.59,-215.7C201.86,-208.41 200.99,-199.73 200.17,-191.54"/>
<polygon fill="black" stroke="black" points="203.66,-191.21 199.18,-181.61 196.69,-191.91 203.66,-191.21"/>
</g>
</g>
</svg>
