<?xml version="1.0" encoding="UTF-8" standalone="no"?>
<!DOCTYPE svg PUBLIC "-//W3C//DTD SVG 1.1//EN"
 "http://www.w3.org/Graphics/SVG/1.1/DTD/svg11.dtd">
<!-- Generated by graphviz version 2.43.0 (0)
 -->
<!-- Title: command Pages: 1 -->
<svg width="619pt" height="476pt"
 viewBox="0.00 0.00 619.00 476.00" xmlns="http://www.w3.org/2000/svg" xmlns:xlink="http://www.w3.org/1999/xlink">
<g id="graph0" class="graph" transform="scale(1 1) rotate(0) translate(4 472)">
<title>command</title>
<polygon fill="transparent" stroke="transparent" points="-4,4 -4,-472 615,-472 615,4 -4,4"/>
<!-- name -->
<g id="node1" class="node">
<title>name</title>
<g id="a_node1"><a xlink:href="PsyllaReference_Types.xhtml#PsyllaReference_Types_Details_name" xlink:title="name" target="_parent">
<polygon fill="linen" stroke="black" points="250,-108 202,-108 202,-72 256,-72 256,-102 250,-108"/>
<polyline fill="none" stroke="black" points="250,-108 250,-102 "/>
<polyline fill="none" stroke="black" points="256,-102 250,-102 "/>
<text text-anchor="middle" x="229" y="-86.9" font-family="Source Code Pro,monospace" font-size="12.00">name</text>
</a>
</g>
</g>
<!-- command -->
<g id="node2" class="node">
<title>command</title>
<g id="a_node2"><a xlink:href="PsyllaReference_Types.xhtml#PsyllaReference_Types_Details_command" xlink:title="command" target="_parent">
<polygon fill="wheat" stroke="black" points="257.5,-36 194.5,-36 194.5,0 263.5,0 263.5,-30 257.5,-36"/>
<polyline fill="none" stroke="black" points="257.5,-36 257.5,-30 "/>
<polyline fill="none" stroke="black" points="263.5,-30 257.5,-30 "/>
<text text-anchor="middle" x="229" y="-14.9" font-family="Source Code Pro,monospace" font-size="12.00">command</text>
</a>
</g>
</g>
<!-- name&#45;&gt;command -->
<g id="edge1" class="edge">
<title>name&#45;&gt;command</title>
<path fill="none" stroke="black" d="M229,-71.7C229,-63.98 229,-54.71 229,-46.11"/>
<polygon fill="black" stroke="black" points="232.5,-46.1 229,-36.1 225.5,-46.1 232.5,-46.1"/>
</g>
<!-- textual -->
<g id="node3" class="node">
<title>textual</title>
<g id="a_node3"><a xlink:href="PsyllaReference_Types.xhtml#PsyllaReference_Types_Details_textual" xlink:title="textual" target="_parent">
<polygon fill="linen" stroke="black" points="345.5,-180 282.5,-180 282.5,-144 351.5,-144 351.5,-174 345.5,-180"/>
<polyline fill="none" stroke="black" points="345.5,-180 345.5,-174 "/>
<polyline fill="none" stroke="black" points="351.5,-174 345.5,-174 "/>
<text text-anchor="middle" x="317" y="-158.9" font-family="Source Code Pro,monospace" font-size="12.00">textual</text>
</a>
</g>
</g>
<!-- textual&#45;&gt;name -->
<g id="edge2" class="edge">
<title>textual&#45;&gt;name</title>
<path fill="none" stroke="black" d="M295.25,-143.7C284.16,-134.88 270.53,-124.03 258.51,-114.47"/>
<polygon fill="black" stroke="black" points="260.51,-111.59 250.5,-108.1 256.15,-117.07 260.51,-111.59"/>
</g>
<!-- value -->
<g id="node4" class="node">
<title>value</title>
<g id="a_node4"><a xlink:href="PsyllaReference_Types.xhtml#PsyllaReference_Types_Details_value" xlink:title="value" target="_parent">
<polygon fill="linen" stroke="black" points="48,-252 0,-252 0,-216 54,-216 54,-246 48,-252"/>
<polyline fill="none" stroke="black" points="48,-252 48,-246 "/>
<polyline fill="none" stroke="black" points="54,-246 48,-246 "/>
<text text-anchor="middle" x="27" y="-230.9" font-family="Source Code Pro,monospace" font-size="12.00">value</text>
</a>
</g>
</g>
<!-- value&#45;&gt;name -->
<g id="edge3" class="edge">
<title>value&#45;&gt;name</title>
<path fill="none" stroke="black" d="M51.37,-215.87C87.61,-190.39 155.81,-142.45 196.34,-113.96"/>
<polygon fill="black" stroke="black" points="198.38,-116.8 204.55,-108.19 194.35,-111.08 198.38,-116.8"/>
</g>
<!-- evaluable -->
<g id="node5" class="node">
<title>evaluable</title>
<g id="a_node5"><a xlink:href="PsyllaReference_Types.xhtml#PsyllaReference_Types_Details_evaluable" xlink:title="evaluable" target="_parent">
<polygon fill="linen" stroke="black" points="105,-324 27,-324 27,-288 111,-288 111,-318 105,-324"/>
<polyline fill="none" stroke="black" points="105,-324 105,-318 "/>
<polyline fill="none" stroke="black" points="111,-318 105,-318 "/>
<text text-anchor="middle" x="69" y="-302.9" font-family="Source Code Pro,monospace" font-size="12.00">evaluable</text>
</a>
</g>
</g>
<!-- evaluable&#45;&gt;textual -->
<g id="edge4" class="edge">
<title>evaluable&#45;&gt;textual</title>
<path fill="none" stroke="black" d="M93.15,-287.93C120.06,-269.24 165.17,-238.88 206,-216 227.65,-203.87 252.51,-191.83 273.22,-182.3"/>
<polygon fill="black" stroke="black" points="274.76,-185.44 282.41,-178.11 271.86,-179.07 274.76,-185.44"/>
</g>
<!-- convertabletointeger -->
<g id="node6" class="node">
<title>convertabletointeger</title>
<g id="a_node6"><a xlink:href="PsyllaReference_Types.xhtml#PsyllaReference_Types_Details_convertabletointeger" xlink:title="convertabletointeger" target="_parent">
<polygon fill="linen" stroke="black" points="289.5,-324 128.5,-324 128.5,-288 295.5,-288 295.5,-318 289.5,-324"/>
<polyline fill="none" stroke="black" points="289.5,-324 289.5,-318 "/>
<polyline fill="none" stroke="black" points="295.5,-318 289.5,-318 "/>
<text text-anchor="middle" x="212" y="-302.9" font-family="Source Code Pro,monospace" font-size="12.00">convertabletointeger</text>
</a>
</g>
</g>
<!-- convertabletointeger&#45;&gt;textual -->
<g id="edge5" class="edge">
<title>convertabletointeger&#45;&gt;textual</title>
<path fill="none" stroke="black" d="M209.29,-287.71C207.23,-268.55 206.8,-237.51 221,-216 233.11,-197.65 253.84,-185.07 272.93,-176.79"/>
<polygon fill="black" stroke="black" points="274.47,-179.95 282.42,-172.95 271.84,-173.46 274.47,-179.95"/>
</g>
<!-- convertabletointegral -->
<g id="node7" class="node">
<title>convertabletointegral</title>
<g id="a_node7"><a xlink:href="PsyllaReference_Types.xhtml#PsyllaReference_Types_Details_convertabletointegral" xlink:title="convertabletointegral" target="_parent">
<polygon fill="linen" stroke="black" points="398,-252 230,-252 230,-216 404,-216 404,-246 398,-252"/>
<polyline fill="none" stroke="black" points="398,-252 398,-246 "/>
<polyline fill="none" stroke="black" points="404,-246 398,-246 "/>
<text text-anchor="middle" x="317" y="-230.9" font-family="Source Code Pro,monospace" font-size="12.00">convertabletointegral</text>
</a>
</g>
</g>
<!-- convertabletointegral&#45;&gt;textual -->
<g id="edge6" class="edge">
<title>convertabletointegral&#45;&gt;textual</title>
<path fill="none" stroke="black" d="M317,-215.7C317,-207.98 317,-198.71 317,-190.11"/>
<polygon fill="black" stroke="black" points="320.5,-190.1 317,-180.1 313.5,-190.1 320.5,-190.1"/>
</g>
<!-- iterable -->
<g id="node8" class="node">
<title>iterable</title>
<g id="a_node8"><a xlink:href="PsyllaReference_Types.xhtml#PsyllaReference_Types_Details_iterable" xlink:title="iterable" target="_parent">
<polygon fill="linen" stroke="black" points="583.5,-252 512.5,-252 512.5,-216 589.5,-216 589.5,-246 583.5,-252"/>
<polyline fill="none" stroke="black" points="583.5,-252 583.5,-246 "/>
<polyline fill="none" stroke="black" points="589.5,-246 583.5,-246 "/>
<text text-anchor="middle" x="551" y="-230.9" font-family="Source Code Pro,monospace" font-size="12.00">iterable</text>
</a>
</g>
</g>
<!-- iterable&#45;&gt;textual -->
<g id="edge7" class="edge">
<title>iterable&#45;&gt;textual</title>
<path fill="none" stroke="black" d="M512.36,-221.44C470.93,-209.05 405.25,-189.4 361.64,-176.35"/>
<polygon fill="black" stroke="black" points="362.46,-172.95 351.87,-173.43 360.45,-179.65 362.46,-172.95"/>
</g>
<!-- lengthy -->
<g id="node9" class="node">
<title>lengthy</title>
<g id="a_node9"><a xlink:href="PsyllaReference_Types.xhtml#PsyllaReference_Types_Details_lengthy" xlink:title="lengthy" target="_parent">
<polygon fill="linen" stroke="black" points="414.5,-396 351.5,-396 351.5,-360 420.5,-360 420.5,-390 414.5,-396"/>
<polyline fill="none" stroke="black" points="414.5,-396 414.5,-390 "/>
<polyline fill="none" stroke="black" points="420.5,-390 414.5,-390 "/>
<text text-anchor="middle" x="386" y="-374.9" font-family="Source Code Pro,monospace" font-size="12.00">lengthy</text>
</a>
</g>
</g>
<!-- lengthy&#45;&gt;textual -->
<g id="edge8" class="edge">
<title>lengthy&#45;&gt;textual</title>
<path fill="none" stroke="black" d="M395.92,-359.66C412.24,-328.6 440.37,-262.37 413,-216 401.69,-196.84 380.7,-184.13 361.22,-175.97"/>
<polygon fill="black" stroke="black" points="362.42,-172.68 351.83,-172.32 359.89,-179.2 362.42,-172.68"/>
</g>
<!-- scalar -->
<g id="node10" class="node">
<title>scalar</title>
<g id="a_node10"><a xlink:href="PsyllaReference_Types.xhtml#PsyllaReference_Types_Details_scalar" xlink:title="scalar" target="_parent">
<polygon fill="linen" stroke="black" points="495,-396 439,-396 439,-360 501,-360 501,-390 495,-396"/>
<polyline fill="none" stroke="black" points="495,-396 495,-390 "/>
<polyline fill="none" stroke="black" points="501,-390 495,-390 "/>
<text text-anchor="middle" x="470" y="-374.9" font-family="Source Code Pro,monospace" font-size="12.00">scalar</text>
</a>
</g>
</g>
<!-- scalar&#45;&gt;textual -->
<g id="edge9" class="edge">
<title>scalar&#45;&gt;textual</title>
<path fill="none" stroke="black" d="M470.74,-359.85C471.21,-327.9 467.8,-258.68 433,-216 415.05,-193.98 385.94,-180.72 361.38,-172.97"/>
<polygon fill="black" stroke="black" points="362.11,-169.53 351.53,-170.07 360.14,-176.25 362.11,-169.53"/>
</g>
<!-- object -->
<g id="node11" class="node">
<title>object</title>
<g id="a_node11"><a xlink:href="PsyllaReference_Types.xhtml#PsyllaReference_Types_Details_object" xlink:title="object" target="_parent">
<polygon fill="linen" stroke="black" points="348,-468 292,-468 292,-432 354,-432 354,-462 348,-468"/>
<polyline fill="none" stroke="black" points="348,-468 348,-462 "/>
<polyline fill="none" stroke="black" points="354,-462 348,-462 "/>
<text text-anchor="middle" x="323" y="-446.9" font-family="Source Code Pro,monospace" font-size="12.00">object</text>
</a>
</g>
</g>
<!-- object&#45;&gt;value -->
<g id="edge10" class="edge">
<title>object&#45;&gt;value</title>
<path fill="none" stroke="black" d="M291.81,-447.46C226.69,-442.34 77.42,-420.14 18,-324 6.56,-305.5 10.34,-280.6 16.1,-261.84"/>
<polygon fill="black" stroke="black" points="19.49,-262.73 19.42,-252.13 12.87,-260.46 19.49,-262.73"/>
</g>
<!-- object&#45;&gt;evaluable -->
<g id="edge11" class="edge">
<title>object&#45;&gt;evaluable</title>
<path fill="none" stroke="black" d="M292.36,-431.87C246.31,-406.12 159.24,-357.45 108.48,-329.07"/>
<polygon fill="black" stroke="black" points="110.18,-326.01 99.75,-324.19 106.77,-332.12 110.18,-326.01"/>
</g>
<!-- object&#45;&gt;convertabletointeger -->
<g id="edge12" class="edge">
<title>object&#45;&gt;convertabletointeger</title>
<path fill="none" stroke="black" d="M309.61,-431.87C290.19,-407.03 254.09,-360.85 231.65,-332.14"/>
<polygon fill="black" stroke="black" points="234.35,-329.91 225.44,-324.19 228.84,-334.22 234.35,-329.91"/>
</g>
<!-- object&#45;&gt;convertabletointegral -->
<g id="edge13" class="edge">
<title>object&#45;&gt;convertabletointegral</title>
<path fill="none" stroke="black" d="M322.52,-431.85C321.48,-394.83 319.02,-307.18 317.77,-262.39"/>
<polygon fill="black" stroke="black" points="321.26,-262.13 317.48,-252.23 314.26,-262.33 321.26,-262.13"/>
</g>
<!-- object&#45;&gt;lengthy -->
<g id="edge15" class="edge">
<title>object&#45;&gt;lengthy</title>
<path fill="none" stroke="black" d="M338.57,-431.7C346.2,-423.22 355.52,-412.86 363.88,-403.58"/>
<polygon fill="black" stroke="black" points="366.52,-405.88 370.61,-396.1 361.31,-401.2 366.52,-405.88"/>
</g>
<!-- object&#45;&gt;scalar -->
<g id="edge16" class="edge">
<title>object&#45;&gt;scalar</title>
<path fill="none" stroke="black" d="M354.17,-434.15C376.2,-423.67 405.91,-409.52 429.73,-398.18"/>
<polygon fill="black" stroke="black" points="431.35,-401.28 438.87,-393.82 428.34,-394.96 431.35,-401.28"/>
</g>
<!-- sequential -->
<g id="node13" class="node">
<title>sequential</title>
<g id="a_node13"><a xlink:href="PsyllaReference_Types.xhtml#PsyllaReference_Types_Details_sequential" xlink:title="sequential" target="_parent">
<polygon fill="linen" stroke="black" points="605,-396 519,-396 519,-360 611,-360 611,-390 605,-396"/>
<polyline fill="none" stroke="black" points="605,-396 605,-390 "/>
<polyline fill="none" stroke="black" points="611,-390 605,-390 "/>
<text text-anchor="middle" x="565" y="-374.9" font-family="Source Code Pro,monospace" font-size="12.00">sequential</text>
</a>
</g>
</g>
<!-- object&#45;&gt;sequential -->
<g id="edge18" class="edge">
<title>object&#45;&gt;sequential</title>
<path fill="none" stroke="black" d="M354.17,-440.41C389.45,-430.63 448.89,-414 509.14,-396.22"/>
<polygon fill="black" stroke="black" points="510.21,-399.56 518.81,-393.36 508.23,-392.84 510.21,-399.56"/>
</g>
<!-- streamable -->
<g id="node12" class="node">
<title>streamable</title>
<g id="a_node12"><a xlink:href="PsyllaReference_Types.xhtml#PsyllaReference_Types_Details_streamable" xlink:title="streamable" target="_parent">
<polygon fill="linen" stroke="black" points="598,-324 512,-324 512,-288 604,-288 604,-318 598,-324"/>
<polyline fill="none" stroke="black" points="598,-324 598,-318 "/>
<polyline fill="none" stroke="black" points="604,-318 598,-318 "/>
<text text-anchor="middle" x="558" y="-302.9" font-family="Source Code Pro,monospace" font-size="12.00">streamable</text>
</a>
</g>
</g>
<!-- streamable&#45;&gt;iterable -->
<g id="edge14" class="edge">
<title>streamable&#45;&gt;iterable</title>
<path fill="none" stroke="black" d="M556.27,-287.7C555.5,-279.98 554.57,-270.71 553.71,-262.11"/>
<polygon fill="black" stroke="black" points="557.19,-261.71 552.71,-252.1 550.22,-262.4 557.19,-261.71"/>
</g>
<!-- sequential&#45;&gt;streamable -->
<g id="edge17" class="edge">
<title>sequential&#45;&gt;streamable</title>
<path fill="none" stroke="black" d="M563.27,-359.7C562.5,-351.98 561.57,-342.71 560.71,-334.11"/>
<polygon fill="black" stroke="black" points="564.19,-333.71 559.71,-324.1 557.22,-334.4 564.19,-333.71"/>
</g>
</g>
</svg>
