<?xml version="1.0" encoding="UTF-8" standalone="no"?>
<!DOCTYPE svg PUBLIC "-//W3C//DTD SVG 1.1//EN"
 "http://www.w3.org/Graphics/SVG/1.1/DTD/svg11.dtd">
<!-- Generated by graphviz version 2.43.0 (0)
 -->
<!-- Title: formalarray Pages: 1 -->
<svg width="434pt" height="404pt"
 viewBox="0.00 0.00 433.50 404.00" xmlns="http://www.w3.org/2000/svg" xmlns:xlink="http://www.w3.org/1999/xlink">
<g id="graph0" class="graph" transform="scale(1 1) rotate(0) translate(4 400)">
<title>formalarray</title>
<polygon fill="transparent" stroke="transparent" points="-4,4 -4,-400 429.5,-400 429.5,4 -4,4"/>
<!-- appendable -->
<g id="node1" class="node">
<title>appendable</title>
<g id="a_node1"><a xlink:href="PsyllaReference_Types.xhtml#PsyllaReference_Types_Details_appendable" xlink:title="appendable" target="_parent">
<polygon fill="linen" stroke="black" points="86,-252 0,-252 0,-216 92,-216 92,-246 86,-252"/>
<polyline fill="none" stroke="black" points="86,-252 86,-246 "/>
<polyline fill="none" stroke="black" points="92,-246 86,-246 "/>
<text text-anchor="middle" x="46" y="-230.9" font-family="Source Code Pro,monospace" font-size="12.00">appendable</text>
</a>
</g>
</g>
<!-- formalarray -->
<g id="node5" class="node">
<title>formalarray</title>
<g id="a_node5"><a xlink:href="PsyllaReference_Types.xhtml#PsyllaReference_Types_Details_formalarray" xlink:title="formalarray" target="_parent">
<polygon fill="wheat" stroke="black" points="179.5,-36 86.5,-36 86.5,0 185.5,0 185.5,-30 179.5,-36"/>
<polyline fill="none" stroke="black" points="179.5,-36 179.5,-30 "/>
<polyline fill="none" stroke="black" points="185.5,-30 179.5,-30 "/>
<text text-anchor="middle" x="136" y="-14.9" font-family="Source Code Pro,monospace" font-size="12.00">formalarray</text>
</a>
</g>
</g>
<!-- appendable&#45;&gt;formalarray -->
<g id="edge1" class="edge">
<title>appendable&#45;&gt;formalarray</title>
<path fill="none" stroke="black" d="M43.15,-215.62C38.97,-184.49 34.3,-118.17 61,-72 68.13,-59.67 79.41,-49.49 91.09,-41.47"/>
<polygon fill="black" stroke="black" points="93.07,-44.35 99.6,-36 89.29,-38.46 93.07,-44.35"/>
</g>
<!-- container -->
<g id="node2" class="node">
<title>container</title>
<g id="a_node2"><a xlink:href="PsyllaReference_Types.xhtml#PsyllaReference_Types_Details_container" xlink:title="container" target="_parent">
<polygon fill="linen" stroke="black" points="322,-108 244,-108 244,-72 328,-72 328,-102 322,-108"/>
<polyline fill="none" stroke="black" points="322,-108 322,-102 "/>
<polyline fill="none" stroke="black" points="328,-102 322,-102 "/>
<text text-anchor="middle" x="286" y="-86.9" font-family="Source Code Pro,monospace" font-size="12.00">container</text>
</a>
</g>
</g>
<!-- container&#45;&gt;formalarray -->
<g id="edge2" class="edge">
<title>container&#45;&gt;formalarray</title>
<path fill="none" stroke="black" d="M249.31,-71.88C228.98,-62.39 203.53,-50.51 181.9,-40.42"/>
<polygon fill="black" stroke="black" points="183.12,-37.13 172.57,-36.07 180.16,-43.47 183.12,-37.13"/>
</g>
<!-- indexed -->
<g id="node3" class="node">
<title>indexed</title>
<g id="a_node3"><a xlink:href="PsyllaReference_Types.xhtml#PsyllaReference_Types_Details_indexed" xlink:title="indexed" target="_parent">
<polygon fill="linen" stroke="black" points="133.5,-108 70.5,-108 70.5,-72 139.5,-72 139.5,-102 133.5,-108"/>
<polyline fill="none" stroke="black" points="133.5,-108 133.5,-102 "/>
<polyline fill="none" stroke="black" points="139.5,-102 133.5,-102 "/>
<text text-anchor="middle" x="105" y="-86.9" font-family="Source Code Pro,monospace" font-size="12.00">indexed</text>
</a>
</g>
</g>
<!-- indexed&#45;&gt;formalarray -->
<g id="edge3" class="edge">
<title>indexed&#45;&gt;formalarray</title>
<path fill="none" stroke="black" d="M112.66,-71.7C116.19,-63.73 120.46,-54.1 124.37,-45.26"/>
<polygon fill="black" stroke="black" points="127.58,-46.67 128.43,-36.1 121.18,-43.83 127.58,-46.67"/>
</g>
<!-- sequential -->
<g id="node4" class="node">
<title>sequential</title>
<g id="a_node4"><a xlink:href="PsyllaReference_Types.xhtml#PsyllaReference_Types_Details_sequential" xlink:title="sequential" target="_parent">
<polygon fill="linen" stroke="black" points="260,-324 174,-324 174,-288 266,-288 266,-318 260,-324"/>
<polyline fill="none" stroke="black" points="260,-324 260,-318 "/>
<polyline fill="none" stroke="black" points="266,-318 260,-318 "/>
<text text-anchor="middle" x="220" y="-302.9" font-family="Source Code Pro,monospace" font-size="12.00">sequential</text>
</a>
</g>
</g>
<!-- sequential&#45;&gt;formalarray -->
<g id="edge4" class="edge">
<title>sequential&#45;&gt;formalarray</title>
<path fill="none" stroke="black" d="M207.08,-287.67C200.21,-277.69 192.13,-264.66 187,-252 156.25,-176.14 165.7,-151.92 148,-72 146.13,-63.58 144.07,-54.42 142.19,-46.11"/>
<polygon fill="black" stroke="black" points="145.56,-45.15 139.93,-36.18 138.73,-46.7 145.56,-45.15"/>
</g>
<!-- streamable -->
<g id="node10" class="node">
<title>streamable</title>
<g id="a_node10"><a xlink:href="PsyllaReference_Types.xhtml#PsyllaReference_Types_Details_streamable" xlink:title="streamable" target="_parent">
<polygon fill="linen" stroke="black" points="282,-252 196,-252 196,-216 288,-216 288,-246 282,-252"/>
<polyline fill="none" stroke="black" points="282,-252 282,-246 "/>
<polyline fill="none" stroke="black" points="288,-246 282,-246 "/>
<text text-anchor="middle" x="242" y="-230.9" font-family="Source Code Pro,monospace" font-size="12.00">streamable</text>
</a>
</g>
</g>
<!-- sequential&#45;&gt;streamable -->
<g id="edge14" class="edge">
<title>sequential&#45;&gt;streamable</title>
<path fill="none" stroke="black" d="M225.44,-287.7C227.89,-279.9 230.84,-270.51 233.57,-261.83"/>
<polygon fill="black" stroke="black" points="236.96,-262.69 236.62,-252.1 230.29,-260.59 236.96,-262.69"/>
</g>
<!-- object -->
<g id="node6" class="node">
<title>object</title>
<g id="a_node6"><a xlink:href="PsyllaReference_Types.xhtml#PsyllaReference_Types_Details_object" xlink:title="object" target="_parent">
<polygon fill="linen" stroke="black" points="245,-396 189,-396 189,-360 251,-360 251,-390 245,-396"/>
<polyline fill="none" stroke="black" points="245,-396 245,-390 "/>
<polyline fill="none" stroke="black" points="251,-390 245,-390 "/>
<text text-anchor="middle" x="220" y="-374.9" font-family="Source Code Pro,monospace" font-size="12.00">object</text>
</a>
</g>
</g>
<!-- object&#45;&gt;appendable -->
<g id="edge5" class="edge">
<title>object&#45;&gt;appendable</title>
<path fill="none" stroke="black" d="M188.72,-366.01C166.1,-357.05 135.65,-342.8 113,-324 91.54,-306.19 73.01,-280.22 60.9,-260.92"/>
<polygon fill="black" stroke="black" points="63.85,-259.03 55.65,-252.31 57.87,-262.67 63.85,-259.03"/>
</g>
<!-- object&#45;&gt;indexed -->
<g id="edge9" class="edge">
<title>object&#45;&gt;indexed</title>
<path fill="none" stroke="black" d="M196.99,-359.89C185.81,-350.46 173.08,-337.86 165,-324 125.74,-256.69 111.84,-163.75 107.18,-118.28"/>
<polygon fill="black" stroke="black" points="110.67,-117.92 106.23,-108.3 103.7,-118.58 110.67,-117.92"/>
</g>
<!-- object&#45;&gt;sequential -->
<g id="edge10" class="edge">
<title>object&#45;&gt;sequential</title>
<path fill="none" stroke="black" d="M220,-359.7C220,-351.98 220,-342.71 220,-334.11"/>
<polygon fill="black" stroke="black" points="223.5,-334.1 220,-324.1 216.5,-334.1 223.5,-334.1"/>
</g>
<!-- clearable -->
<g id="node7" class="node">
<title>clearable</title>
<g id="a_node7"><a xlink:href="PsyllaReference_Types.xhtml#PsyllaReference_Types_Details_clearable" xlink:title="clearable" target="_parent">
<polygon fill="linen" stroke="black" points="370,-180 292,-180 292,-144 376,-144 376,-174 370,-180"/>
<polyline fill="none" stroke="black" points="370,-180 370,-174 "/>
<polyline fill="none" stroke="black" points="376,-174 370,-174 "/>
<text text-anchor="middle" x="334" y="-158.9" font-family="Source Code Pro,monospace" font-size="12.00">clearable</text>
</a>
</g>
</g>
<!-- object&#45;&gt;clearable -->
<g id="edge11" class="edge">
<title>object&#45;&gt;clearable</title>
<path fill="none" stroke="black" d="M242.17,-359.78C253.26,-350.23 266.17,-337.55 275,-324 302.87,-281.24 319.87,-223.54 328.06,-190.1"/>
<polygon fill="black" stroke="black" points="331.52,-190.67 330.42,-180.14 324.71,-189.06 331.52,-190.67"/>
</g>
<!-- lengthy -->
<g id="node9" class="node">
<title>lengthy</title>
<g id="a_node9"><a xlink:href="PsyllaReference_Types.xhtml#PsyllaReference_Types_Details_lengthy" xlink:title="lengthy" target="_parent">
<polygon fill="linen" stroke="black" points="419.5,-324 356.5,-324 356.5,-288 425.5,-288 425.5,-318 419.5,-324"/>
<polyline fill="none" stroke="black" points="419.5,-324 419.5,-318 "/>
<polyline fill="none" stroke="black" points="425.5,-318 419.5,-318 "/>
<text text-anchor="middle" x="391" y="-302.9" font-family="Source Code Pro,monospace" font-size="12.00">lengthy</text>
</a>
</g>
</g>
<!-- object&#45;&gt;lengthy -->
<g id="edge13" class="edge">
<title>object&#45;&gt;lengthy</title>
<path fill="none" stroke="black" d="M251.36,-364.16C278.16,-353.19 317.01,-337.29 346.93,-325.04"/>
<polygon fill="black" stroke="black" points="348.38,-328.23 356.31,-321.2 345.72,-321.75 348.38,-328.23"/>
</g>
<!-- clearable&#45;&gt;container -->
<g id="edge6" class="edge">
<title>clearable&#45;&gt;container</title>
<path fill="none" stroke="black" d="M322.13,-143.7C316.5,-135.47 309.65,-125.48 303.43,-116.42"/>
<polygon fill="black" stroke="black" points="306.27,-114.37 297.73,-108.1 300.5,-118.33 306.27,-114.37"/>
</g>
<!-- iterable -->
<g id="node8" class="node">
<title>iterable</title>
<g id="a_node8"><a xlink:href="PsyllaReference_Types.xhtml#PsyllaReference_Types_Details_iterable" xlink:title="iterable" target="_parent">
<polygon fill="linen" stroke="black" points="267.5,-180 196.5,-180 196.5,-144 273.5,-144 273.5,-174 267.5,-180"/>
<polyline fill="none" stroke="black" points="267.5,-180 267.5,-174 "/>
<polyline fill="none" stroke="black" points="273.5,-174 267.5,-174 "/>
<text text-anchor="middle" x="235" y="-158.9" font-family="Source Code Pro,monospace" font-size="12.00">iterable</text>
</a>
</g>
</g>
<!-- iterable&#45;&gt;container -->
<g id="edge7" class="edge">
<title>iterable&#45;&gt;container</title>
<path fill="none" stroke="black" d="M247.61,-143.7C253.6,-135.47 260.88,-125.48 267.48,-116.42"/>
<polygon fill="black" stroke="black" points="270.48,-118.25 273.54,-108.1 264.82,-114.13 270.48,-118.25"/>
</g>
<!-- lengthy&#45;&gt;container -->
<g id="edge8" class="edge">
<title>lengthy&#45;&gt;container</title>
<path fill="none" stroke="black" d="M395.51,-287.9C402.71,-256.63 413.3,-189.31 385,-144 374.18,-126.68 355.64,-114.66 337.51,-106.5"/>
<polygon fill="black" stroke="black" points="338.69,-103.2 328.11,-102.58 336,-109.66 338.69,-103.2"/>
</g>
<!-- streamable&#45;&gt;iterable -->
<g id="edge12" class="edge">
<title>streamable&#45;&gt;iterable</title>
<path fill="none" stroke="black" d="M240.27,-215.7C239.5,-207.98 238.57,-198.71 237.71,-190.11"/>
<polygon fill="black" stroke="black" points="241.19,-189.71 236.71,-180.1 234.22,-190.4 241.19,-189.71"/>
</g>
</g>
</svg>
