<?xml version="1.0" encoding="UTF-8" standalone="no"?>
<!DOCTYPE svg PUBLIC "-//W3C//DTD SVG 1.1//EN"
 "http://www.w3.org/Graphics/SVG/1.1/DTD/svg11.dtd">
<!-- Generated by graphviz version 2.43.0 (0)
 -->
<!-- Title: output Pages: 1 -->
<svg width="309pt" height="188pt"
 viewBox="0.00 0.00 309.00 188.00" xmlns="http://www.w3.org/2000/svg" xmlns:xlink="http://www.w3.org/1999/xlink">
<g id="graph0" class="graph" transform="scale(1 1) rotate(0) translate(4 184)">
<title>output</title>
<polygon fill="transparent" stroke="transparent" points="-4,4 -4,-184 305,-184 305,4 -4,4"/>
<!-- closeable -->
<g id="node1" class="node">
<title>closeable</title>
<g id="a_node1"><a xlink:href="PsyllaReference_Types.xhtml#PsyllaReference_Types_Details_closeable" xlink:title="closeable" target="_parent">
<polygon fill="linen" stroke="black" points="85,-108 0,-108 0,-72 91,-72 91,-102 85,-108"/>
<polyline fill="none" stroke="black" points="85,-108 85,-102 "/>
<polyline fill="none" stroke="black" points="91,-102 85,-102 "/>
<text text-anchor="middle" x="45.5" y="-86.3" font-family="Consolas, monospace" font-size="14.00">closeable</text>
</a>
</g>
</g>
<!-- output -->
<g id="node4" class="node">
<title>output</title>
<g id="a_node4"><a xlink:href="PsyllaReference_Types.xhtml#PsyllaReference_Types_Details_output" xlink:title="output" target="_parent">
<polygon fill="wheat" stroke="black" points="181.5,-36 121.5,-36 121.5,0 187.5,0 187.5,-30 181.5,-36"/>
<polyline fill="none" stroke="black" points="181.5,-36 181.5,-30 "/>
<polyline fill="none" stroke="black" points="187.5,-30 181.5,-30 "/>
<text text-anchor="middle" x="154.5" y="-14.3" font-family="Consolas, monospace" font-size="14.00">output</text>
</a>
</g>
</g>
<!-- closeable&#45;&gt;output -->
<g id="edge1" class="edge">
<title>closeable&#45;&gt;output</title>
<path fill="none" stroke="black" d="M72.16,-71.88C86.28,-62.81 103.81,-51.55 119.06,-41.76"/>
<polygon fill="black" stroke="black" points="121.21,-44.54 127.73,-36.19 117.43,-38.65 121.21,-44.54"/>
</g>
<!-- flushable -->
<g id="node2" class="node">
<title>flushable</title>
<g id="a_node2"><a xlink:href="PsyllaReference_Types.xhtml#PsyllaReference_Types_Details_flushable" xlink:title="flushable" target="_parent">
<polygon fill="linen" stroke="black" points="194,-108 109,-108 109,-72 200,-72 200,-102 194,-108"/>
<polyline fill="none" stroke="black" points="194,-108 194,-102 "/>
<polyline fill="none" stroke="black" points="200,-102 194,-102 "/>
<text text-anchor="middle" x="154.5" y="-86.3" font-family="Consolas, monospace" font-size="14.00">flushable</text>
</a>
</g>
</g>
<!-- flushable&#45;&gt;output -->
<g id="edge2" class="edge">
<title>flushable&#45;&gt;output</title>
<path fill="none" stroke="black" d="M154.5,-71.7C154.5,-63.98 154.5,-54.71 154.5,-46.11"/>
<polygon fill="black" stroke="black" points="158,-46.1 154.5,-36.1 151,-46.1 158,-46.1"/>
</g>
<!-- writable -->
<g id="node3" class="node">
<title>writable</title>
<g id="a_node3"><a xlink:href="PsyllaReference_Types.xhtml#PsyllaReference_Types_Details_writable" xlink:title="writable" target="_parent">
<polygon fill="linen" stroke="black" points="295,-108 218,-108 218,-72 301,-72 301,-102 295,-108"/>
<polyline fill="none" stroke="black" points="295,-108 295,-102 "/>
<polyline fill="none" stroke="black" points="301,-102 295,-102 "/>
<text text-anchor="middle" x="259.5" y="-86.3" font-family="Consolas, monospace" font-size="14.00">writable</text>
</a>
</g>
</g>
<!-- writable&#45;&gt;output -->
<g id="edge3" class="edge">
<title>writable&#45;&gt;output</title>
<path fill="none" stroke="black" d="M233.81,-71.88C220.21,-62.81 203.33,-51.55 188.64,-41.76"/>
<polygon fill="black" stroke="black" points="190.55,-38.82 180.28,-36.19 186.66,-44.65 190.55,-38.82"/>
</g>
<!-- object -->
<g id="node5" class="node">
<title>object</title>
<g id="a_node5"><a xlink:href="PsyllaReference_Types.xhtml#PsyllaReference_Types_Details_object" xlink:title="object" target="_parent">
<polygon fill="linen" stroke="black" points="181.5,-180 121.5,-180 121.5,-144 187.5,-144 187.5,-174 181.5,-180"/>
<polyline fill="none" stroke="black" points="181.5,-180 181.5,-174 "/>
<polyline fill="none" stroke="black" points="187.5,-174 181.5,-174 "/>
<text text-anchor="middle" x="154.5" y="-158.3" font-family="Consolas, monospace" font-size="14.00">object</text>
</a>
</g>
</g>
<!-- object&#45;&gt;closeable -->
<g id="edge4" class="edge">
<title>object&#45;&gt;closeable</title>
<path fill="none" stroke="black" d="M127.84,-143.88C113.72,-134.81 96.19,-123.55 80.94,-113.76"/>
<polygon fill="black" stroke="black" points="82.57,-110.65 72.27,-108.19 78.79,-116.54 82.57,-110.65"/>
</g>
<!-- object&#45;&gt;flushable -->
<g id="edge5" class="edge">
<title>object&#45;&gt;flushable</title>
<path fill="none" stroke="black" d="M154.5,-143.7C154.5,-135.98 154.5,-126.71 154.5,-118.11"/>
<polygon fill="black" stroke="black" points="158,-118.1 154.5,-108.1 151,-118.1 158,-118.1"/>
</g>
<!-- object&#45;&gt;writable -->
<g id="edge6" class="edge">
<title>object&#45;&gt;writable</title>
<path fill="none" stroke="black" d="M180.19,-143.88C193.79,-134.81 210.67,-123.55 225.36,-113.76"/>
<polygon fill="black" stroke="black" points="227.34,-116.65 233.72,-108.19 223.45,-110.82 227.34,-116.65"/>
</g>
</g>
</svg>
