<?xml version="1.0" encoding="UTF-8" standalone="no"?>
<!DOCTYPE svg PUBLIC "-//W3C//DTD SVG 1.1//EN"
 "http://www.w3.org/Graphics/SVG/1.1/DTD/svg11.dtd">
<!-- Generated by graphviz version 2.43.0 (0)
 -->
<!-- Title: systemdict Pages: 1 -->
<svg width="506pt" height="620pt"
 viewBox="0.00 0.00 506.00 620.00" xmlns="http://www.w3.org/2000/svg" xmlns:xlink="http://www.w3.org/1999/xlink">
<g id="graph0" class="graph" transform="scale(1 1) rotate(0) translate(4 616)">
<title>systemdict</title>
<polygon fill="transparent" stroke="transparent" points="-4,4 -4,-616 502,-616 502,4 -4,4"/>
<!-- module -->
<g id="node1" class="node">
<title>module</title>
<g id="a_node1"><a xlink:href="PsyllaReference_Types.xhtml#PsyllaReference_Types_Details_module" xlink:title="module" target="_parent">
<polygon fill="linen" stroke="black" points="168,-108 85,-108 85,-72 174,-72 174,-102 168,-108"/>
<polyline fill="none" stroke="black" points="168,-108 168,-102 "/>
<polyline fill="none" stroke="black" points="174,-102 168,-102 "/>
<text text-anchor="middle" x="129.5" y="-85" font-family="PT Mono, monospace" font-size="20.00">module</text>
</a>
</g>
</g>
<!-- systemdict -->
<g id="node2" class="node">
<title>systemdict</title>
<g id="a_node2"><a xlink:href="PsyllaReference_Types.xhtml#PsyllaReference_Types_Details_systemdict" xlink:title="systemdict" target="_parent">
<polygon fill="wheat" stroke="black" points="192,-36 61,-36 61,0 198,0 198,-30 192,-36"/>
<polyline fill="none" stroke="black" points="192,-36 192,-30 "/>
<polyline fill="none" stroke="black" points="198,-30 192,-30 "/>
<text text-anchor="middle" x="129.5" y="-13" font-family="PT Mono, monospace" font-size="20.00">systemdict</text>
</a>
</g>
</g>
<!-- module&#45;&gt;systemdict -->
<g id="edge1" class="edge">
<title>module&#45;&gt;systemdict</title>
<path fill="none" stroke="black" d="M129.5,-71.7C129.5,-63.98 129.5,-54.71 129.5,-46.11"/>
<polygon fill="black" stroke="black" points="133,-46.1 129.5,-36.1 126,-46.1 133,-46.1"/>
</g>
<!-- dict -->
<g id="node3" class="node">
<title>dict</title>
<g id="a_node3"><a xlink:href="PsyllaReference_Types.xhtml#PsyllaReference_Types_Details_dict" xlink:title="dict" target="_parent">
<polygon fill="linen" stroke="black" points="156,-180 97,-180 97,-144 162,-144 162,-174 156,-180"/>
<polyline fill="none" stroke="black" points="156,-180 156,-174 "/>
<polyline fill="none" stroke="black" points="162,-174 156,-174 "/>
<text text-anchor="middle" x="129.5" y="-157" font-family="PT Mono, monospace" font-size="20.00">dict</text>
</a>
</g>
</g>
<!-- dict&#45;&gt;module -->
<g id="edge2" class="edge">
<title>dict&#45;&gt;module</title>
<path fill="none" stroke="black" d="M129.5,-143.7C129.5,-135.98 129.5,-126.71 129.5,-118.11"/>
<polygon fill="black" stroke="black" points="133,-118.1 129.5,-108.1 126,-118.1 133,-118.1"/>
</g>
<!-- formaldict -->
<g id="node4" class="node">
<title>formaldict</title>
<g id="a_node4"><a xlink:href="PsyllaReference_Types.xhtml#PsyllaReference_Types_Details_formaldict" xlink:title="formaldict" target="_parent">
<polygon fill="linen" stroke="black" points="192,-252 61,-252 61,-216 198,-216 198,-246 192,-252"/>
<polyline fill="none" stroke="black" points="192,-252 192,-246 "/>
<polyline fill="none" stroke="black" points="198,-246 192,-246 "/>
<text text-anchor="middle" x="129.5" y="-229" font-family="PT Mono, monospace" font-size="20.00">formaldict</text>
</a>
</g>
</g>
<!-- formaldict&#45;&gt;dict -->
<g id="edge3" class="edge">
<title>formaldict&#45;&gt;dict</title>
<path fill="none" stroke="black" d="M129.5,-215.7C129.5,-207.98 129.5,-198.71 129.5,-190.11"/>
<polygon fill="black" stroke="black" points="133,-190.1 129.5,-180.1 126,-190.1 133,-190.1"/>
</g>
<!-- container -->
<g id="node5" class="node">
<title>container</title>
<g id="a_node5"><a xlink:href="PsyllaReference_Types.xhtml#PsyllaReference_Types_Details_container" xlink:title="container" target="_parent">
<polygon fill="linen" stroke="black" points="365,-324 246,-324 246,-288 371,-288 371,-318 365,-324"/>
<polyline fill="none" stroke="black" points="365,-324 365,-318 "/>
<polyline fill="none" stroke="black" points="371,-318 365,-318 "/>
<text text-anchor="middle" x="308.5" y="-301" font-family="PT Mono, monospace" font-size="20.00">container</text>
</a>
</g>
</g>
<!-- container&#45;&gt;formaldict -->
<g id="edge4" class="edge">
<title>container&#45;&gt;formaldict</title>
<path fill="none" stroke="black" d="M264.71,-287.88C239.92,-278.18 208.72,-265.98 182.54,-255.74"/>
<polygon fill="black" stroke="black" points="183.73,-252.45 173.15,-252.07 181.18,-258.97 183.73,-252.45"/>
</g>
<!-- indexed -->
<g id="node6" class="node">
<title>indexed</title>
<g id="a_node6"><a xlink:href="PsyllaReference_Types.xhtml#PsyllaReference_Types_Details_indexed" xlink:title="indexed" target="_parent">
<polygon fill="linen" stroke="black" points="95,-396 0,-396 0,-360 101,-360 101,-390 95,-396"/>
<polyline fill="none" stroke="black" points="95,-396 95,-390 "/>
<polyline fill="none" stroke="black" points="101,-390 95,-390 "/>
<text text-anchor="middle" x="50.5" y="-373" font-family="PT Mono, monospace" font-size="20.00">indexed</text>
</a>
</g>
</g>
<!-- indexed&#45;&gt;formaldict -->
<g id="edge5" class="edge">
<title>indexed&#45;&gt;formaldict</title>
<path fill="none" stroke="black" d="M60.03,-359.87C73.67,-335.35 98.88,-290.03 114.89,-261.26"/>
<polygon fill="black" stroke="black" points="118.13,-262.63 119.94,-252.19 112.02,-259.23 118.13,-262.63"/>
</g>
<!-- sequential -->
<g id="node7" class="node">
<title>sequential</title>
<g id="a_node7"><a xlink:href="PsyllaReference_Types.xhtml#PsyllaReference_Types_Details_sequential" xlink:title="sequential" target="_parent">
<polygon fill="linen" stroke="black" points="289,-540 158,-540 158,-504 295,-504 295,-534 289,-540"/>
<polyline fill="none" stroke="black" points="289,-540 289,-534 "/>
<polyline fill="none" stroke="black" points="295,-534 289,-534 "/>
<text text-anchor="middle" x="226.5" y="-517" font-family="PT Mono, monospace" font-size="20.00">sequential</text>
</a>
</g>
</g>
<!-- sequential&#45;&gt;formaldict -->
<g id="edge6" class="edge">
<title>sequential&#45;&gt;formaldict</title>
<path fill="none" stroke="black" d="M187.77,-503.89C172.96,-495.32 157.49,-483.42 148.5,-468 110.28,-402.43 117.76,-308.32 124.57,-262.36"/>
<polygon fill="black" stroke="black" points="128.06,-262.7 126.17,-252.27 121.15,-261.6 128.06,-262.7"/>
</g>
<!-- streamable -->
<g id="node12" class="node">
<title>streamable</title>
<g id="a_node12"><a xlink:href="PsyllaReference_Types.xhtml#PsyllaReference_Types_Details_streamable" xlink:title="streamable" target="_parent">
<polygon fill="linen" stroke="black" points="289,-468 158,-468 158,-432 295,-432 295,-462 289,-468"/>
<polyline fill="none" stroke="black" points="289,-468 289,-462 "/>
<polyline fill="none" stroke="black" points="295,-462 289,-462 "/>
<text text-anchor="middle" x="226.5" y="-445" font-family="PT Mono, monospace" font-size="20.00">streamable</text>
</a>
</g>
</g>
<!-- sequential&#45;&gt;streamable -->
<g id="edge15" class="edge">
<title>sequential&#45;&gt;streamable</title>
<path fill="none" stroke="black" d="M226.5,-503.7C226.5,-495.98 226.5,-486.71 226.5,-478.11"/>
<polygon fill="black" stroke="black" points="230,-478.1 226.5,-468.1 223,-478.1 230,-478.1"/>
</g>
<!-- clearable -->
<g id="node8" class="node">
<title>clearable</title>
<g id="a_node8"><a xlink:href="PsyllaReference_Types.xhtml#PsyllaReference_Types_Details_clearable" xlink:title="clearable" target="_parent">
<polygon fill="linen" stroke="black" points="432,-468 313,-468 313,-432 438,-432 438,-462 432,-468"/>
<polyline fill="none" stroke="black" points="432,-468 432,-462 "/>
<polyline fill="none" stroke="black" points="438,-462 432,-462 "/>
<text text-anchor="middle" x="375.5" y="-445" font-family="PT Mono, monospace" font-size="20.00">clearable</text>
</a>
</g>
</g>
<!-- clearable&#45;&gt;container -->
<g id="edge7" class="edge">
<title>clearable&#45;&gt;container</title>
<path fill="none" stroke="black" d="M367.42,-431.87C355.85,-407.35 334.47,-362.03 320.89,-333.26"/>
<polygon fill="black" stroke="black" points="324.04,-331.74 316.61,-324.19 317.71,-334.73 324.04,-331.74"/>
</g>
<!-- iterable -->
<g id="node9" class="node">
<title>iterable</title>
<g id="a_node9"><a xlink:href="PsyllaReference_Types.xhtml#PsyllaReference_Types_Details_iterable" xlink:title="iterable" target="_parent">
<polygon fill="linen" stroke="black" points="309,-396 202,-396 202,-360 315,-360 315,-390 309,-396"/>
<polyline fill="none" stroke="black" points="309,-396 309,-390 "/>
<polyline fill="none" stroke="black" points="315,-390 309,-390 "/>
<text text-anchor="middle" x="258.5" y="-373" font-family="PT Mono, monospace" font-size="20.00">iterable</text>
</a>
</g>
</g>
<!-- iterable&#45;&gt;container -->
<g id="edge8" class="edge">
<title>iterable&#45;&gt;container</title>
<path fill="none" stroke="black" d="M270.86,-359.7C276.73,-351.47 283.87,-341.48 290.34,-332.42"/>
<polygon fill="black" stroke="black" points="293.32,-334.28 296.28,-324.1 287.62,-330.21 293.32,-334.28"/>
</g>
<!-- lengthy -->
<g id="node10" class="node">
<title>lengthy</title>
<g id="a_node10"><a xlink:href="PsyllaReference_Types.xhtml#PsyllaReference_Types_Details_lengthy" xlink:title="lengthy" target="_parent">
<polygon fill="linen" stroke="black" points="492,-540 397,-540 397,-504 498,-504 498,-534 492,-540"/>
<polyline fill="none" stroke="black" points="492,-540 492,-534 "/>
<polyline fill="none" stroke="black" points="498,-534 492,-534 "/>
<text text-anchor="middle" x="447.5" y="-517" font-family="PT Mono, monospace" font-size="20.00">lengthy</text>
</a>
</g>
</g>
<!-- lengthy&#45;&gt;container -->
<g id="edge9" class="edge">
<title>lengthy&#45;&gt;container</title>
<path fill="none" stroke="black" d="M451.24,-503.73C454.39,-485.13 456.9,-455.11 446.5,-432 426.22,-386.95 380.96,-351.13 347.79,-329.59"/>
<polygon fill="black" stroke="black" points="349.53,-326.55 339.21,-324.16 345.78,-332.46 349.53,-326.55"/>
</g>
<!-- object -->
<g id="node11" class="node">
<title>object</title>
<g id="a_node11"><a xlink:href="PsyllaReference_Types.xhtml#PsyllaReference_Types_Details_object" xlink:title="object" target="_parent">
<polygon fill="linen" stroke="black" points="313,-612 230,-612 230,-576 319,-576 319,-606 313,-612"/>
<polyline fill="none" stroke="black" points="313,-612 313,-606 "/>
<polyline fill="none" stroke="black" points="319,-606 313,-606 "/>
<text text-anchor="middle" x="274.5" y="-589" font-family="PT Mono, monospace" font-size="20.00">object</text>
</a>
</g>
</g>
<!-- object&#45;&gt;indexed -->
<g id="edge10" class="edge">
<title>object&#45;&gt;indexed</title>
<path fill="none" stroke="black" d="M229.96,-581.75C204,-573.49 171.87,-560.14 148.5,-540 105.18,-502.68 75.33,-441.29 60.76,-406.08"/>
<polygon fill="black" stroke="black" points="63.87,-404.44 56.89,-396.47 57.37,-407.05 63.87,-404.44"/>
</g>
<!-- object&#45;&gt;sequential -->
<g id="edge11" class="edge">
<title>object&#45;&gt;sequential</title>
<path fill="none" stroke="black" d="M262.63,-575.7C257,-567.47 250.15,-557.48 243.93,-548.42"/>
<polygon fill="black" stroke="black" points="246.77,-546.37 238.23,-540.1 241,-550.33 246.77,-546.37"/>
</g>
<!-- object&#45;&gt;clearable -->
<g id="edge12" class="edge">
<title>object&#45;&gt;clearable</title>
<path fill="none" stroke="black" d="M286.68,-575.87C304.28,-551.14 336.92,-505.24 357.35,-476.51"/>
<polygon fill="black" stroke="black" points="360.33,-478.37 363.27,-468.19 354.63,-474.31 360.33,-478.37"/>
</g>
<!-- object&#45;&gt;lengthy -->
<g id="edge14" class="edge">
<title>object&#45;&gt;lengthy</title>
<path fill="none" stroke="black" d="M316.82,-575.88C340.68,-566.22 370.67,-554.09 395.9,-543.88"/>
<polygon fill="black" stroke="black" points="397.36,-547.06 405.32,-540.07 394.73,-540.57 397.36,-547.06"/>
</g>
<!-- streamable&#45;&gt;iterable -->
<g id="edge13" class="edge">
<title>streamable&#45;&gt;iterable</title>
<path fill="none" stroke="black" d="M234.41,-431.7C238.05,-423.73 242.45,-414.1 246.49,-405.26"/>
<polygon fill="black" stroke="black" points="249.71,-406.65 250.68,-396.1 243.34,-403.74 249.71,-406.65"/>
</g>
</g>
</svg>
