<?xml version="1.0" encoding="UTF-8" standalone="no"?>
<!DOCTYPE svg PUBLIC "-//W3C//DTD SVG 1.1//EN"
 "http://www.w3.org/Graphics/SVG/1.1/DTD/svg11.dtd">
<!-- Generated by graphviz version 2.43.0 (0)
 -->
<!-- Title: formaldict Pages: 1 -->
<svg width="363pt" height="404pt"
 viewBox="0.00 0.00 363.00 404.00" xmlns="http://www.w3.org/2000/svg" xmlns:xlink="http://www.w3.org/1999/xlink">
<g id="graph0" class="graph" transform="scale(1 1) rotate(0) translate(4 400)">
<title>formaldict</title>
<polygon fill="transparent" stroke="transparent" points="-4,4 -4,-400 359,-400 359,4 -4,4"/>
<!-- container -->
<g id="node1" class="node">
<title>container</title>
<g id="a_node1"><a xlink:href="PsyllaReference_Types.xhtml#PsyllaReference_Types_Details_container" xlink:title="container" target="_parent">
<polygon fill="linen" stroke="black" points="251.5,-108 173.5,-108 173.5,-72 257.5,-72 257.5,-102 251.5,-108"/>
<polyline fill="none" stroke="black" points="251.5,-108 251.5,-102 "/>
<polyline fill="none" stroke="black" points="257.5,-102 251.5,-102 "/>
<text text-anchor="middle" x="215.5" y="-86.9" font-family="Consolas, monospace" font-size="12.00">container</text>
</a>
</g>
</g>
<!-- formaldict -->
<g id="node4" class="node">
<title>formaldict</title>
<g id="a_node4"><a xlink:href="PsyllaReference_Types.xhtml#PsyllaReference_Types_Details_formaldict" xlink:title="formaldict" target="_parent">
<polygon fill="wheat" stroke="black" points="137.5,-36 51.5,-36 51.5,0 143.5,0 143.5,-30 137.5,-36"/>
<polyline fill="none" stroke="black" points="137.5,-36 137.5,-30 "/>
<polyline fill="none" stroke="black" points="143.5,-30 137.5,-30 "/>
<text text-anchor="middle" x="97.5" y="-14.9" font-family="Consolas, monospace" font-size="12.00">formaldict</text>
</a>
</g>
</g>
<!-- container&#45;&gt;formaldict -->
<g id="edge1" class="edge">
<title>container&#45;&gt;formaldict</title>
<path fill="none" stroke="black" d="M186.63,-71.88C171.21,-62.72 152.02,-51.34 135.4,-41.48"/>
<polygon fill="black" stroke="black" points="136.86,-38.28 126.48,-36.19 133.29,-44.3 136.86,-38.28"/>
</g>
<!-- indexed -->
<g id="node2" class="node">
<title>indexed</title>
<g id="a_node2"><a xlink:href="PsyllaReference_Types.xhtml#PsyllaReference_Types_Details_indexed" xlink:title="indexed" target="_parent">
<polygon fill="linen" stroke="black" points="63,-252 0,-252 0,-216 69,-216 69,-246 63,-252"/>
<polyline fill="none" stroke="black" points="63,-252 63,-246 "/>
<polyline fill="none" stroke="black" points="69,-246 63,-246 "/>
<text text-anchor="middle" x="34.5" y="-230.9" font-family="Consolas, monospace" font-size="12.00">indexed</text>
</a>
</g>
</g>
<!-- indexed&#45;&gt;formaldict -->
<g id="edge2" class="edge">
<title>indexed&#45;&gt;formaldict</title>
<path fill="none" stroke="black" d="M39.55,-215.85C50.47,-178.75 76.36,-90.81 89.52,-46.1"/>
<polygon fill="black" stroke="black" points="92.96,-46.81 92.43,-36.23 86.25,-44.84 92.96,-46.81"/>
</g>
<!-- sequential -->
<g id="node3" class="node">
<title>sequential</title>
<g id="a_node3"><a xlink:href="PsyllaReference_Types.xhtml#PsyllaReference_Types_Details_sequential" xlink:title="sequential" target="_parent">
<polygon fill="linen" stroke="black" points="211.5,-324 125.5,-324 125.5,-288 217.5,-288 217.5,-318 211.5,-324"/>
<polyline fill="none" stroke="black" points="211.5,-324 211.5,-318 "/>
<polyline fill="none" stroke="black" points="217.5,-318 211.5,-318 "/>
<text text-anchor="middle" x="171.5" y="-302.9" font-family="Consolas, monospace" font-size="12.00">sequential</text>
</a>
</g>
</g>
<!-- sequential&#45;&gt;formaldict -->
<g id="edge3" class="edge">
<title>sequential&#45;&gt;formaldict</title>
<path fill="none" stroke="black" d="M146.91,-287.96C135.62,-278.71 123.26,-266.26 116.5,-252 84.14,-183.73 88.79,-91.55 93.74,-46.32"/>
<polygon fill="black" stroke="black" points="97.25,-46.48 94.95,-36.14 90.3,-45.65 97.25,-46.48"/>
</g>
<!-- streamable -->
<g id="node9" class="node">
<title>streamable</title>
<g id="a_node9"><a xlink:href="PsyllaReference_Types.xhtml#PsyllaReference_Types_Details_streamable" xlink:title="streamable" target="_parent">
<polygon fill="linen" stroke="black" points="211.5,-252 125.5,-252 125.5,-216 217.5,-216 217.5,-246 211.5,-252"/>
<polyline fill="none" stroke="black" points="211.5,-252 211.5,-246 "/>
<polyline fill="none" stroke="black" points="217.5,-246 211.5,-246 "/>
<text text-anchor="middle" x="171.5" y="-230.9" font-family="Consolas, monospace" font-size="12.00">streamable</text>
</a>
</g>
</g>
<!-- sequential&#45;&gt;streamable -->
<g id="edge12" class="edge">
<title>sequential&#45;&gt;streamable</title>
<path fill="none" stroke="black" d="M171.5,-287.7C171.5,-279.98 171.5,-270.71 171.5,-262.11"/>
<polygon fill="black" stroke="black" points="175,-262.1 171.5,-252.1 168,-262.1 175,-262.1"/>
</g>
<!-- clearable -->
<g id="node5" class="node">
<title>clearable</title>
<g id="a_node5"><a xlink:href="PsyllaReference_Types.xhtml#PsyllaReference_Types_Details_clearable" xlink:title="clearable" target="_parent">
<polygon fill="linen" stroke="black" points="299.5,-180 221.5,-180 221.5,-144 305.5,-144 305.5,-174 299.5,-180"/>
<polyline fill="none" stroke="black" points="299.5,-180 299.5,-174 "/>
<polyline fill="none" stroke="black" points="305.5,-174 299.5,-174 "/>
<text text-anchor="middle" x="263.5" y="-158.9" font-family="Consolas, monospace" font-size="12.00">clearable</text>
</a>
</g>
</g>
<!-- clearable&#45;&gt;container -->
<g id="edge4" class="edge">
<title>clearable&#45;&gt;container</title>
<path fill="none" stroke="black" d="M251.63,-143.7C246,-135.47 239.15,-125.48 232.93,-116.42"/>
<polygon fill="black" stroke="black" points="235.77,-114.37 227.23,-108.1 230,-118.33 235.77,-114.37"/>
</g>
<!-- iterable -->
<g id="node6" class="node">
<title>iterable</title>
<g id="a_node6"><a xlink:href="PsyllaReference_Types.xhtml#PsyllaReference_Types_Details_iterable" xlink:title="iterable" target="_parent">
<polygon fill="linen" stroke="black" points="197,-180 126,-180 126,-144 203,-144 203,-174 197,-180"/>
<polyline fill="none" stroke="black" points="197,-180 197,-174 "/>
<polyline fill="none" stroke="black" points="203,-174 197,-174 "/>
<text text-anchor="middle" x="164.5" y="-158.9" font-family="Consolas, monospace" font-size="12.00">iterable</text>
</a>
</g>
</g>
<!-- iterable&#45;&gt;container -->
<g id="edge5" class="edge">
<title>iterable&#45;&gt;container</title>
<path fill="none" stroke="black" d="M177.11,-143.7C183.1,-135.47 190.38,-125.48 196.98,-116.42"/>
<polygon fill="black" stroke="black" points="199.98,-118.25 203.04,-108.1 194.32,-114.13 199.98,-118.25"/>
</g>
<!-- lengthy -->
<g id="node7" class="node">
<title>lengthy</title>
<g id="a_node7"><a xlink:href="PsyllaReference_Types.xhtml#PsyllaReference_Types_Details_lengthy" xlink:title="lengthy" target="_parent">
<polygon fill="linen" stroke="black" points="349,-324 286,-324 286,-288 355,-288 355,-318 349,-324"/>
<polyline fill="none" stroke="black" points="349,-324 349,-318 "/>
<polyline fill="none" stroke="black" points="355,-318 349,-318 "/>
<text text-anchor="middle" x="320.5" y="-302.9" font-family="Consolas, monospace" font-size="12.00">lengthy</text>
</a>
</g>
</g>
<!-- lengthy&#45;&gt;container -->
<g id="edge6" class="edge">
<title>lengthy&#45;&gt;container</title>
<path fill="none" stroke="black" d="M325.01,-287.9C332.21,-256.63 342.8,-189.31 314.5,-144 303.68,-126.68 285.14,-114.66 267.01,-106.5"/>
<polygon fill="black" stroke="black" points="268.19,-103.2 257.61,-102.58 265.5,-109.66 268.19,-103.2"/>
</g>
<!-- object -->
<g id="node8" class="node">
<title>object</title>
<g id="a_node8"><a xlink:href="PsyllaReference_Types.xhtml#PsyllaReference_Types_Details_object" xlink:title="object" target="_parent">
<polygon fill="linen" stroke="black" points="242.5,-396 186.5,-396 186.5,-360 248.5,-360 248.5,-390 242.5,-396"/>
<polyline fill="none" stroke="black" points="242.5,-396 242.5,-390 "/>
<polyline fill="none" stroke="black" points="248.5,-390 242.5,-390 "/>
<text text-anchor="middle" x="217.5" y="-374.9" font-family="Consolas, monospace" font-size="12.00">object</text>
</a>
</g>
</g>
<!-- object&#45;&gt;indexed -->
<g id="edge7" class="edge">
<title>object&#45;&gt;indexed</title>
<path fill="none" stroke="black" d="M186.27,-364C165.43,-354.54 138.02,-340.52 116.5,-324 92.26,-305.39 69.09,-279.19 53.6,-260.04"/>
<polygon fill="black" stroke="black" points="56.21,-257.7 47.25,-252.04 50.73,-262.05 56.21,-257.7"/>
</g>
<!-- object&#45;&gt;sequential -->
<g id="edge8" class="edge">
<title>object&#45;&gt;sequential</title>
<path fill="none" stroke="black" d="M206.13,-359.7C200.78,-351.56 194.3,-341.69 188.39,-332.7"/>
<polygon fill="black" stroke="black" points="191.16,-330.54 182.74,-324.1 185.31,-334.38 191.16,-330.54"/>
</g>
<!-- object&#45;&gt;clearable -->
<g id="edge9" class="edge">
<title>object&#45;&gt;clearable</title>
<path fill="none" stroke="black" d="M221.19,-359.85C229.16,-322.75 248.06,-234.81 257.67,-190.1"/>
<polygon fill="black" stroke="black" points="261.12,-190.74 259.8,-180.23 254.27,-189.27 261.12,-190.74"/>
</g>
<!-- object&#45;&gt;lengthy -->
<g id="edge11" class="edge">
<title>object&#45;&gt;lengthy</title>
<path fill="none" stroke="black" d="M242.7,-359.88C255.91,-350.89 272.29,-339.76 286.61,-330.03"/>
<polygon fill="black" stroke="black" points="288.9,-332.71 295.21,-324.19 284.97,-326.92 288.9,-332.71"/>
</g>
<!-- streamable&#45;&gt;iterable -->
<g id="edge10" class="edge">
<title>streamable&#45;&gt;iterable</title>
<path fill="none" stroke="black" d="M169.77,-215.7C169,-207.98 168.07,-198.71 167.21,-190.11"/>
<polygon fill="black" stroke="black" points="170.69,-189.71 166.21,-180.1 163.72,-190.4 170.69,-189.71"/>
</g>
</g>
</svg>
