<?xml version="1.0" encoding="UTF-8" standalone="no"?>
<!DOCTYPE svg PUBLIC "-//W3C//DTD SVG 1.1//EN"
 "http://www.w3.org/Graphics/SVG/1.1/DTD/svg11.dtd">
<!-- Generated by graphviz version 2.43.0 (0)
 -->
<!-- Title: complex Pages: 1 -->
<svg width="192pt" height="332pt"
 viewBox="0.00 0.00 191.50 332.00" xmlns="http://www.w3.org/2000/svg" xmlns:xlink="http://www.w3.org/1999/xlink">
<g id="graph0" class="graph" transform="scale(1 1) rotate(0) translate(4 328)">
<title>complex</title>
<polygon fill="transparent" stroke="transparent" points="-4,4 -4,-328 187.5,-328 187.5,4 -4,4"/>
<!-- numeric -->
<g id="node1" class="node">
<title>numeric</title>
<g id="a_node1"><a xlink:href="PsyllaReference_Types.xhtml#PsyllaReference_Types_Details_numeric" xlink:title="numeric" target="_parent">
<polygon fill="linen" stroke="black" points="114,-108 46,-108 46,-72 120,-72 120,-102 114,-108"/>
<polyline fill="none" stroke="black" points="114,-108 114,-102 "/>
<polyline fill="none" stroke="black" points="120,-102 114,-102 "/>
<text text-anchor="middle" x="83" y="-86.3" font-family="Consolas, monospace" font-size="14.00">numeric</text>
</a>
</g>
</g>
<!-- complex -->
<g id="node2" class="node">
<title>complex</title>
<g id="a_node2"><a xlink:href="PsyllaReference_Types.xhtml#PsyllaReference_Types_Details_complex" xlink:title="complex" target="_parent">
<polygon fill="wheat" stroke="black" points="114,-36 46,-36 46,0 120,0 120,-30 114,-36"/>
<polyline fill="none" stroke="black" points="114,-36 114,-30 "/>
<polyline fill="none" stroke="black" points="120,-30 114,-30 "/>
<text text-anchor="middle" x="83" y="-14.3" font-family="Consolas, monospace" font-size="14.00">complex</text>
</a>
</g>
</g>
<!-- numeric&#45;&gt;complex -->
<g id="edge1" class="edge">
<title>numeric&#45;&gt;complex</title>
<path fill="none" stroke="black" d="M83,-71.7C83,-63.98 83,-54.71 83,-46.11"/>
<polygon fill="black" stroke="black" points="86.5,-46.1 83,-36.1 79.5,-46.1 86.5,-46.1"/>
</g>
<!-- atomic -->
<g id="node3" class="node">
<title>atomic</title>
<g id="a_node3"><a xlink:href="PsyllaReference_Types.xhtml#PsyllaReference_Types_Details_atomic" xlink:title="atomic" target="_parent">
<polygon fill="linen" stroke="black" points="60,-180 0,-180 0,-144 66,-144 66,-174 60,-180"/>
<polyline fill="none" stroke="black" points="60,-180 60,-174 "/>
<polyline fill="none" stroke="black" points="66,-174 60,-174 "/>
<text text-anchor="middle" x="33" y="-158.3" font-family="Consolas, monospace" font-size="14.00">atomic</text>
</a>
</g>
</g>
<!-- atomic&#45;&gt;numeric -->
<g id="edge2" class="edge">
<title>atomic&#45;&gt;numeric</title>
<path fill="none" stroke="black" d="M45.36,-143.7C51.23,-135.47 58.37,-125.48 64.84,-116.42"/>
<polygon fill="black" stroke="black" points="67.82,-118.28 70.78,-108.1 62.12,-114.21 67.82,-118.28"/>
</g>
<!-- arithmetic -->
<g id="node4" class="node">
<title>arithmetic</title>
<g id="a_node4"><a xlink:href="PsyllaReference_Types.xhtml#PsyllaReference_Types_Details_arithmetic" xlink:title="arithmetic" target="_parent">
<polygon fill="linen" stroke="black" points="177.5,-180 84.5,-180 84.5,-144 183.5,-144 183.5,-174 177.5,-180"/>
<polyline fill="none" stroke="black" points="177.5,-180 177.5,-174 "/>
<polyline fill="none" stroke="black" points="183.5,-174 177.5,-174 "/>
<text text-anchor="middle" x="134" y="-158.3" font-family="Consolas, monospace" font-size="14.00">arithmetic</text>
</a>
</g>
</g>
<!-- arithmetic&#45;&gt;numeric -->
<g id="edge3" class="edge">
<title>arithmetic&#45;&gt;numeric</title>
<path fill="none" stroke="black" d="M121.39,-143.7C115.4,-135.47 108.12,-125.48 101.52,-116.42"/>
<polygon fill="black" stroke="black" points="104.18,-114.13 95.46,-108.1 98.52,-118.25 104.18,-114.13"/>
</g>
<!-- object -->
<g id="node5" class="node">
<title>object</title>
<g id="a_node5"><a xlink:href="PsyllaReference_Types.xhtml#PsyllaReference_Types_Details_object" xlink:title="object" target="_parent">
<polygon fill="linen" stroke="black" points="110,-324 50,-324 50,-288 116,-288 116,-318 110,-324"/>
<polyline fill="none" stroke="black" points="110,-324 110,-318 "/>
<polyline fill="none" stroke="black" points="116,-318 110,-318 "/>
<text text-anchor="middle" x="83" y="-302.3" font-family="Consolas, monospace" font-size="14.00">object</text>
</a>
</g>
</g>
<!-- object&#45;&gt;atomic -->
<g id="edge4" class="edge">
<title>object&#45;&gt;atomic</title>
<path fill="none" stroke="black" d="M76.97,-287.87C68.37,-263.46 52.52,-218.43 42.38,-189.64"/>
<polygon fill="black" stroke="black" points="45.68,-188.46 39.05,-180.19 39.07,-190.78 45.68,-188.46"/>
</g>
<!-- additive -->
<g id="node6" class="node">
<title>additive</title>
<g id="a_node6"><a xlink:href="PsyllaReference_Types.xhtml#PsyllaReference_Types_Details_additive" xlink:title="additive" target="_parent">
<polygon fill="linen" stroke="black" points="161.5,-252 84.5,-252 84.5,-216 167.5,-216 167.5,-246 161.5,-252"/>
<polyline fill="none" stroke="black" points="161.5,-252 161.5,-246 "/>
<polyline fill="none" stroke="black" points="167.5,-246 161.5,-246 "/>
<text text-anchor="middle" x="126" y="-230.3" font-family="Consolas, monospace" font-size="14.00">additive</text>
</a>
</g>
</g>
<!-- object&#45;&gt;additive -->
<g id="edge6" class="edge">
<title>object&#45;&gt;additive</title>
<path fill="none" stroke="black" d="M93.63,-287.7C98.63,-279.56 104.69,-269.69 110.21,-260.7"/>
<polygon fill="black" stroke="black" points="113.24,-262.46 115.49,-252.1 107.28,-258.79 113.24,-262.46"/>
</g>
<!-- additive&#45;&gt;arithmetic -->
<g id="edge5" class="edge">
<title>additive&#45;&gt;arithmetic</title>
<path fill="none" stroke="black" d="M127.98,-215.7C128.86,-207.98 129.92,-198.71 130.9,-190.11"/>
<polygon fill="black" stroke="black" points="134.39,-190.44 132.05,-180.1 127.43,-189.64 134.39,-190.44"/>
</g>
</g>
</svg>
