<?xml version="1.0" encoding="UTF-8" standalone="no"?>
<!DOCTYPE svg PUBLIC "-//W3C//DTD SVG 1.1//EN"
 "http://www.w3.org/Graphics/SVG/1.1/DTD/svg11.dtd">
<!-- Generated by graphviz version 2.43.0 (0)
 -->
<!-- Title: complex Pages: 1 -->
<svg width="252pt" height="332pt"
 viewBox="0.00 0.00 252.00 332.00" xmlns="http://www.w3.org/2000/svg" xmlns:xlink="http://www.w3.org/1999/xlink">
<g id="graph0" class="graph" transform="scale(1 1) rotate(0) translate(4 328)">
<title>complex</title>
<polygon fill="transparent" stroke="transparent" points="-4,4 -4,-328 248,-328 248,4 -4,4"/>
<!-- numeric -->
<g id="node1" class="node">
<title>numeric</title>
<g id="a_node1"><a xlink:href="PsyllaReference_Types.xhtml#PsyllaReference_Types_Details_numeric" xlink:title="numeric" target="_parent">
<polygon fill="linen" stroke="black" points="154,-108 59,-108 59,-72 160,-72 160,-102 154,-108"/>
<polyline fill="none" stroke="black" points="154,-108 154,-102 "/>
<polyline fill="none" stroke="black" points="160,-102 154,-102 "/>
<text text-anchor="middle" x="109.5" y="-85" font-family="PT Mono, monospace" font-size="20.00">numeric</text>
</a>
</g>
</g>
<!-- complex -->
<g id="node2" class="node">
<title>complex</title>
<g id="a_node2"><a xlink:href="PsyllaReference_Types.xhtml#PsyllaReference_Types_Details_complex" xlink:title="complex" target="_parent">
<polygon fill="wheat" stroke="black" points="154,-36 59,-36 59,0 160,0 160,-30 154,-36"/>
<polyline fill="none" stroke="black" points="154,-36 154,-30 "/>
<polyline fill="none" stroke="black" points="160,-30 154,-30 "/>
<text text-anchor="middle" x="109.5" y="-13" font-family="PT Mono, monospace" font-size="20.00">complex</text>
</a>
</g>
</g>
<!-- numeric&#45;&gt;complex -->
<g id="edge1" class="edge">
<title>numeric&#45;&gt;complex</title>
<path fill="none" stroke="black" d="M109.5,-71.7C109.5,-63.98 109.5,-54.71 109.5,-46.11"/>
<polygon fill="black" stroke="black" points="113,-46.1 109.5,-36.1 106,-46.1 113,-46.1"/>
</g>
<!-- atomic -->
<g id="node3" class="node">
<title>atomic</title>
<g id="a_node3"><a xlink:href="PsyllaReference_Types.xhtml#PsyllaReference_Types_Details_atomic" xlink:title="atomic" target="_parent">
<polygon fill="linen" stroke="black" points="83,-180 0,-180 0,-144 89,-144 89,-174 83,-180"/>
<polyline fill="none" stroke="black" points="83,-180 83,-174 "/>
<polyline fill="none" stroke="black" points="89,-174 83,-174 "/>
<text text-anchor="middle" x="44.5" y="-157" font-family="PT Mono, monospace" font-size="20.00">atomic</text>
</a>
</g>
</g>
<!-- atomic&#45;&gt;numeric -->
<g id="edge2" class="edge">
<title>atomic&#45;&gt;numeric</title>
<path fill="none" stroke="black" d="M60.57,-143.7C68.44,-135.22 78.06,-124.86 86.67,-115.58"/>
<polygon fill="black" stroke="black" points="89.38,-117.81 93.62,-108.1 84.25,-113.05 89.38,-117.81"/>
</g>
<!-- arithmetic -->
<g id="node4" class="node">
<title>arithmetic</title>
<g id="a_node4"><a xlink:href="PsyllaReference_Types.xhtml#PsyllaReference_Types_Details_arithmetic" xlink:title="arithmetic" target="_parent">
<polygon fill="linen" stroke="black" points="238,-180 107,-180 107,-144 244,-144 244,-174 238,-180"/>
<polyline fill="none" stroke="black" points="238,-180 238,-174 "/>
<polyline fill="none" stroke="black" points="244,-174 238,-174 "/>
<text text-anchor="middle" x="175.5" y="-157" font-family="PT Mono, monospace" font-size="20.00">arithmetic</text>
</a>
</g>
</g>
<!-- arithmetic&#45;&gt;numeric -->
<g id="edge3" class="edge">
<title>arithmetic&#45;&gt;numeric</title>
<path fill="none" stroke="black" d="M159.19,-143.7C151.19,-135.22 141.43,-124.86 132.68,-115.58"/>
<polygon fill="black" stroke="black" points="135.03,-112.98 125.63,-108.1 129.94,-117.78 135.03,-112.98"/>
</g>
<!-- object -->
<g id="node5" class="node">
<title>object</title>
<g id="a_node5"><a xlink:href="PsyllaReference_Types.xhtml#PsyllaReference_Types_Details_object" xlink:title="object" target="_parent">
<polygon fill="linen" stroke="black" points="148,-324 65,-324 65,-288 154,-288 154,-318 148,-324"/>
<polyline fill="none" stroke="black" points="148,-324 148,-318 "/>
<polyline fill="none" stroke="black" points="154,-318 148,-318 "/>
<text text-anchor="middle" x="109.5" y="-301" font-family="PT Mono, monospace" font-size="20.00">object</text>
</a>
</g>
</g>
<!-- object&#45;&gt;atomic -->
<g id="edge4" class="edge">
<title>object&#45;&gt;atomic</title>
<path fill="none" stroke="black" d="M101.66,-287.87C90.48,-263.46 69.87,-218.43 56.69,-189.64"/>
<polygon fill="black" stroke="black" points="59.71,-187.83 52.37,-180.19 53.35,-190.74 59.71,-187.83"/>
</g>
<!-- additive -->
<g id="node6" class="node">
<title>additive</title>
<g id="a_node6"><a xlink:href="PsyllaReference_Types.xhtml#PsyllaReference_Types_Details_additive" xlink:title="additive" target="_parent">
<polygon fill="linen" stroke="black" points="214,-252 107,-252 107,-216 220,-216 220,-246 214,-252"/>
<polyline fill="none" stroke="black" points="214,-252 214,-246 "/>
<polyline fill="none" stroke="black" points="220,-246 214,-246 "/>
<text text-anchor="middle" x="163.5" y="-229" font-family="PT Mono, monospace" font-size="20.00">additive</text>
</a>
</g>
</g>
<!-- object&#45;&gt;additive -->
<g id="edge6" class="edge">
<title>object&#45;&gt;additive</title>
<path fill="none" stroke="black" d="M122.85,-287.7C129.26,-279.39 137.06,-269.28 144.11,-260.14"/>
<polygon fill="black" stroke="black" points="146.97,-262.16 150.31,-252.1 141.43,-257.88 146.97,-262.16"/>
</g>
<!-- additive&#45;&gt;arithmetic -->
<g id="edge5" class="edge">
<title>additive&#45;&gt;arithmetic</title>
<path fill="none" stroke="black" d="M166.47,-215.7C167.79,-207.98 169.38,-198.71 170.85,-190.11"/>
<polygon fill="black" stroke="black" points="174.33,-190.55 172.57,-180.1 167.43,-189.37 174.33,-190.55"/>
</g>
</g>
</svg>
