<?xml version="1.0" encoding="UTF-8" standalone="no"?>
<!DOCTYPE svg PUBLIC "-//W3C//DTD SVG 1.1//EN"
 "http://www.w3.org/Graphics/SVG/1.1/DTD/svg11.dtd">
<!-- Generated by graphviz version 2.43.0 (0)
 -->
<!-- Title: name Pages: 1 -->
<svg width="608pt" height="404pt"
 viewBox="0.00 0.00 608.00 404.00" xmlns="http://www.w3.org/2000/svg" xmlns:xlink="http://www.w3.org/1999/xlink">
<g id="graph0" class="graph" transform="scale(1 1) rotate(0) translate(4 400)">
<title>name</title>
<polygon fill="transparent" stroke="transparent" points="-4,4 -4,-400 604,-400 604,4 -4,4"/>
<!-- atomic -->
<g id="node1" class="node">
<title>atomic</title>
<g id="a_node1"><a xlink:href="PsyllaReference_Types.xhtml#PsyllaReference_Types_Details_atomic" xlink:title="atomic" target="_parent">
<polygon fill="linen" stroke="black" points="56,-252 0,-252 0,-216 62,-216 62,-246 56,-252"/>
<polyline fill="none" stroke="black" points="56,-252 56,-246 "/>
<polyline fill="none" stroke="black" points="62,-246 56,-246 "/>
<text text-anchor="middle" x="31" y="-230.9" font-family="Source Code Pro,monospace" font-size="12.00">atomic</text>
</a>
</g>
</g>
<!-- name -->
<g id="node3" class="node">
<title>name</title>
<g id="a_node3"><a xlink:href="PsyllaReference_Types.xhtml#PsyllaReference_Types_Details_name" xlink:title="name" target="_parent">
<polygon fill="wheat" stroke="black" points="184,-36 136,-36 136,0 190,0 190,-30 184,-36"/>
<polyline fill="none" stroke="black" points="184,-36 184,-30 "/>
<polyline fill="none" stroke="black" points="190,-30 184,-30 "/>
<text text-anchor="middle" x="163" y="-14.9" font-family="Source Code Pro,monospace" font-size="12.00">name</text>
</a>
</g>
</g>
<!-- atomic&#45;&gt;name -->
<g id="edge1" class="edge">
<title>atomic&#45;&gt;name</title>
<path fill="none" stroke="black" d="M35.84,-215.93C41.44,-197.49 51.64,-167.61 65,-144 86.35,-106.27 118.44,-67.73 140.03,-43.61"/>
<polygon fill="black" stroke="black" points="142.79,-45.77 146.91,-36.01 137.61,-41.07 142.79,-45.77"/>
</g>
<!-- textual -->
<g id="node2" class="node">
<title>textual</title>
<g id="a_node2"><a xlink:href="PsyllaReference_Types.xhtml#PsyllaReference_Types_Details_textual" xlink:title="textual" target="_parent">
<polygon fill="linen" stroke="black" points="334.5,-108 271.5,-108 271.5,-72 340.5,-72 340.5,-102 334.5,-108"/>
<polyline fill="none" stroke="black" points="334.5,-108 334.5,-102 "/>
<polyline fill="none" stroke="black" points="340.5,-102 334.5,-102 "/>
<text text-anchor="middle" x="306" y="-86.9" font-family="Source Code Pro,monospace" font-size="12.00">textual</text>
</a>
</g>
</g>
<!-- textual&#45;&gt;name -->
<g id="edge2" class="edge">
<title>textual&#45;&gt;name</title>
<path fill="none" stroke="black" d="M271.38,-72.05C249.54,-61.36 221.37,-47.57 199.23,-36.73"/>
<polygon fill="black" stroke="black" points="200.66,-33.54 190.14,-32.29 197.59,-39.83 200.66,-33.54"/>
</g>
<!-- object -->
<g id="node4" class="node">
<title>object</title>
<g id="a_node4"><a xlink:href="PsyllaReference_Types.xhtml#PsyllaReference_Types_Details_object" xlink:title="object" target="_parent">
<polygon fill="linen" stroke="black" points="337,-396 281,-396 281,-360 343,-360 343,-390 337,-396"/>
<polyline fill="none" stroke="black" points="337,-396 337,-390 "/>
<polyline fill="none" stroke="black" points="343,-390 337,-390 "/>
<text text-anchor="middle" x="312" y="-374.9" font-family="Source Code Pro,monospace" font-size="12.00">object</text>
</a>
</g>
</g>
<!-- object&#45;&gt;atomic -->
<g id="edge3" class="edge">
<title>object&#45;&gt;atomic</title>
<path fill="none" stroke="black" d="M280.65,-373.31C224.04,-366.11 107.72,-348.71 76,-324 56.23,-308.6 44.43,-282.15 37.9,-262.08"/>
<polygon fill="black" stroke="black" points="41.18,-260.83 34.96,-252.26 34.48,-262.84 41.18,-260.83"/>
</g>
<!-- evaluable -->
<g id="node5" class="node">
<title>evaluable</title>
<g id="a_node5"><a xlink:href="PsyllaReference_Types.xhtml#PsyllaReference_Types_Details_evaluable" xlink:title="evaluable" target="_parent">
<polygon fill="linen" stroke="black" points="152,-180 74,-180 74,-144 158,-144 158,-174 152,-180"/>
<polyline fill="none" stroke="black" points="152,-180 152,-174 "/>
<polyline fill="none" stroke="black" points="158,-174 152,-174 "/>
<text text-anchor="middle" x="116" y="-158.9" font-family="Source Code Pro,monospace" font-size="12.00">evaluable</text>
</a>
</g>
</g>
<!-- object&#45;&gt;evaluable -->
<g id="edge10" class="edge">
<title>object&#45;&gt;evaluable</title>
<path fill="none" stroke="black" d="M280.76,-368.48C233.43,-353.7 145.14,-318.32 108,-252 97.45,-233.16 100.74,-208.49 105.94,-189.9"/>
<polygon fill="black" stroke="black" points="109.3,-190.87 108.94,-180.28 102.62,-188.78 109.3,-190.87"/>
</g>
<!-- convertabletointeger -->
<g id="node6" class="node">
<title>convertabletointeger</title>
<g id="a_node6"><a xlink:href="PsyllaReference_Types.xhtml#PsyllaReference_Types_Details_convertabletointeger" xlink:title="convertabletointeger" target="_parent">
<polygon fill="linen" stroke="black" points="278.5,-252 117.5,-252 117.5,-216 284.5,-216 284.5,-246 278.5,-252"/>
<polyline fill="none" stroke="black" points="278.5,-252 278.5,-246 "/>
<polyline fill="none" stroke="black" points="284.5,-246 278.5,-246 "/>
<text text-anchor="middle" x="201" y="-230.9" font-family="Source Code Pro,monospace" font-size="12.00">convertabletointeger</text>
</a>
</g>
</g>
<!-- object&#45;&gt;convertabletointeger -->
<g id="edge11" class="edge">
<title>object&#45;&gt;convertabletointeger</title>
<path fill="none" stroke="black" d="M298.61,-359.87C279.19,-335.03 243.09,-288.85 220.65,-260.14"/>
<polygon fill="black" stroke="black" points="223.35,-257.91 214.44,-252.19 217.84,-262.22 223.35,-257.91"/>
</g>
<!-- convertabletointegral -->
<g id="node7" class="node">
<title>convertabletointegral</title>
<g id="a_node7"><a xlink:href="PsyllaReference_Types.xhtml#PsyllaReference_Types_Details_convertabletointegral" xlink:title="convertabletointegral" target="_parent">
<polygon fill="linen" stroke="black" points="387,-180 219,-180 219,-144 393,-144 393,-174 387,-180"/>
<polyline fill="none" stroke="black" points="387,-180 387,-174 "/>
<polyline fill="none" stroke="black" points="393,-174 387,-174 "/>
<text text-anchor="middle" x="306" y="-158.9" font-family="Source Code Pro,monospace" font-size="12.00">convertabletointegral</text>
</a>
</g>
</g>
<!-- object&#45;&gt;convertabletointegral -->
<g id="edge12" class="edge">
<title>object&#45;&gt;convertabletointegral</title>
<path fill="none" stroke="black" d="M311.52,-359.85C310.48,-322.83 308.02,-235.18 306.77,-190.39"/>
<polygon fill="black" stroke="black" points="310.26,-190.13 306.48,-180.23 303.26,-190.33 310.26,-190.13"/>
</g>
<!-- lengthy -->
<g id="node9" class="node">
<title>lengthy</title>
<g id="a_node9"><a xlink:href="PsyllaReference_Types.xhtml#PsyllaReference_Types_Details_lengthy" xlink:title="lengthy" target="_parent">
<polygon fill="linen" stroke="black" points="403.5,-324 340.5,-324 340.5,-288 409.5,-288 409.5,-318 403.5,-324"/>
<polyline fill="none" stroke="black" points="403.5,-324 403.5,-318 "/>
<polyline fill="none" stroke="black" points="409.5,-318 403.5,-318 "/>
<text text-anchor="middle" x="375" y="-302.9" font-family="Source Code Pro,monospace" font-size="12.00">lengthy</text>
</a>
</g>
</g>
<!-- object&#45;&gt;lengthy -->
<g id="edge14" class="edge">
<title>object&#45;&gt;lengthy</title>
<path fill="none" stroke="black" d="M327.57,-359.7C335.2,-351.22 344.52,-340.86 352.88,-331.58"/>
<polygon fill="black" stroke="black" points="355.52,-333.88 359.61,-324.1 350.31,-329.2 355.52,-333.88"/>
</g>
<!-- scalar -->
<g id="node10" class="node">
<title>scalar</title>
<g id="a_node10"><a xlink:href="PsyllaReference_Types.xhtml#PsyllaReference_Types_Details_scalar" xlink:title="scalar" target="_parent">
<polygon fill="linen" stroke="black" points="484,-324 428,-324 428,-288 490,-288 490,-318 484,-324"/>
<polyline fill="none" stroke="black" points="484,-324 484,-318 "/>
<polyline fill="none" stroke="black" points="490,-318 484,-318 "/>
<text text-anchor="middle" x="459" y="-302.9" font-family="Source Code Pro,monospace" font-size="12.00">scalar</text>
</a>
</g>
</g>
<!-- object&#45;&gt;scalar -->
<g id="edge15" class="edge">
<title>object&#45;&gt;scalar</title>
<path fill="none" stroke="black" d="M343.17,-362.15C365.2,-351.67 394.91,-337.52 418.73,-326.18"/>
<polygon fill="black" stroke="black" points="420.35,-329.28 427.87,-321.82 417.34,-322.96 420.35,-329.28"/>
</g>
<!-- sequential -->
<g id="node12" class="node">
<title>sequential</title>
<g id="a_node12"><a xlink:href="PsyllaReference_Types.xhtml#PsyllaReference_Types_Details_sequential" xlink:title="sequential" target="_parent">
<polygon fill="linen" stroke="black" points="594,-324 508,-324 508,-288 600,-288 600,-318 594,-324"/>
<polyline fill="none" stroke="black" points="594,-324 594,-318 "/>
<polyline fill="none" stroke="black" points="600,-318 594,-318 "/>
<text text-anchor="middle" x="554" y="-302.9" font-family="Source Code Pro,monospace" font-size="12.00">sequential</text>
</a>
</g>
</g>
<!-- object&#45;&gt;sequential -->
<g id="edge17" class="edge">
<title>object&#45;&gt;sequential</title>
<path fill="none" stroke="black" d="M343.17,-368.41C378.45,-358.63 437.89,-342 498.14,-324.22"/>
<polygon fill="black" stroke="black" points="499.21,-327.56 507.81,-321.36 497.23,-320.84 499.21,-327.56"/>
</g>
<!-- evaluable&#45;&gt;textual -->
<g id="edge4" class="edge">
<title>evaluable&#45;&gt;textual</title>
<path fill="none" stroke="black" d="M158.17,-145.46C188.85,-134.16 230.31,-118.89 261.51,-107.39"/>
<polygon fill="black" stroke="black" points="263.08,-110.54 271.26,-103.8 260.66,-103.97 263.08,-110.54"/>
</g>
<!-- convertabletointeger&#45;&gt;textual -->
<g id="edge5" class="edge">
<title>convertabletointeger&#45;&gt;textual</title>
<path fill="none" stroke="black" d="M198.29,-215.71C196.23,-196.55 195.8,-165.51 210,-144 222.11,-125.65 242.84,-113.07 261.93,-104.79"/>
<polygon fill="black" stroke="black" points="263.47,-107.95 271.42,-100.95 260.84,-101.46 263.47,-107.95"/>
</g>
<!-- convertabletointegral&#45;&gt;textual -->
<g id="edge6" class="edge">
<title>convertabletointegral&#45;&gt;textual</title>
<path fill="none" stroke="black" d="M306,-143.7C306,-135.98 306,-126.71 306,-118.11"/>
<polygon fill="black" stroke="black" points="309.5,-118.1 306,-108.1 302.5,-118.1 309.5,-118.1"/>
</g>
<!-- iterable -->
<g id="node8" class="node">
<title>iterable</title>
<g id="a_node8"><a xlink:href="PsyllaReference_Types.xhtml#PsyllaReference_Types_Details_iterable" xlink:title="iterable" target="_parent">
<polygon fill="linen" stroke="black" points="567.5,-180 496.5,-180 496.5,-144 573.5,-144 573.5,-174 567.5,-180"/>
<polyline fill="none" stroke="black" points="567.5,-180 567.5,-174 "/>
<polyline fill="none" stroke="black" points="573.5,-174 567.5,-174 "/>
<text text-anchor="middle" x="535" y="-158.9" font-family="Source Code Pro,monospace" font-size="12.00">iterable</text>
</a>
</g>
</g>
<!-- iterable&#45;&gt;textual -->
<g id="edge7" class="edge">
<title>iterable&#45;&gt;textual</title>
<path fill="none" stroke="black" d="M496.41,-149.2C456.05,-136.87 392.79,-117.53 350.39,-104.57"/>
<polygon fill="black" stroke="black" points="351.2,-101.16 340.62,-101.58 349.16,-107.85 351.2,-101.16"/>
</g>
<!-- lengthy&#45;&gt;textual -->
<g id="edge8" class="edge">
<title>lengthy&#45;&gt;textual</title>
<path fill="none" stroke="black" d="M384.92,-287.66C401.24,-256.6 429.37,-190.37 402,-144 390.69,-124.84 369.7,-112.13 350.22,-103.97"/>
<polygon fill="black" stroke="black" points="351.42,-100.68 340.83,-100.32 348.89,-107.2 351.42,-100.68"/>
</g>
<!-- scalar&#45;&gt;textual -->
<g id="edge9" class="edge">
<title>scalar&#45;&gt;textual</title>
<path fill="none" stroke="black" d="M459.74,-287.85C460.21,-255.9 456.8,-186.68 422,-144 404.05,-121.98 374.94,-108.72 350.38,-100.97"/>
<polygon fill="black" stroke="black" points="351.11,-97.53 340.53,-98.07 349.14,-104.25 351.11,-97.53"/>
</g>
<!-- streamable -->
<g id="node11" class="node">
<title>streamable</title>
<g id="a_node11"><a xlink:href="PsyllaReference_Types.xhtml#PsyllaReference_Types_Details_streamable" xlink:title="streamable" target="_parent">
<polygon fill="linen" stroke="black" points="584,-252 498,-252 498,-216 590,-216 590,-246 584,-252"/>
<polyline fill="none" stroke="black" points="584,-252 584,-246 "/>
<polyline fill="none" stroke="black" points="590,-246 584,-246 "/>
<text text-anchor="middle" x="544" y="-230.9" font-family="Source Code Pro,monospace" font-size="12.00">streamable</text>
</a>
</g>
</g>
<!-- streamable&#45;&gt;iterable -->
<g id="edge13" class="edge">
<title>streamable&#45;&gt;iterable</title>
<path fill="none" stroke="black" d="M541.78,-215.7C540.78,-207.98 539.59,-198.71 538.49,-190.11"/>
<polygon fill="black" stroke="black" points="541.95,-189.58 537.2,-180.1 535,-190.47 541.95,-189.58"/>
</g>
<!-- sequential&#45;&gt;streamable -->
<g id="edge16" class="edge">
<title>sequential&#45;&gt;streamable</title>
<path fill="none" stroke="black" d="M551.53,-287.7C550.43,-279.98 549.1,-270.71 547.87,-262.11"/>
<polygon fill="black" stroke="black" points="551.32,-261.51 546.44,-252.1 544.39,-262.5 551.32,-261.51"/>
</g>
</g>
</svg>
