<?xml version="1.0" encoding="UTF-8" standalone="no"?>
<!DOCTYPE svg PUBLIC "-//W3C//DTD SVG 1.1//EN"
 "http://www.w3.org/Graphics/SVG/1.1/DTD/svg11.dtd">
<!-- Generated by graphviz version 2.43.0 (0)
 -->
<!-- Title: blockingqueue Pages: 1 -->
<svg width="470pt" height="476pt"
 viewBox="0.00 0.00 470.00 476.00" xmlns="http://www.w3.org/2000/svg" xmlns:xlink="http://www.w3.org/1999/xlink">
<g id="graph0" class="graph" transform="scale(1 1) rotate(0) translate(4 472)">
<title>blockingqueue</title>
<polygon fill="transparent" stroke="transparent" points="-4,4 -4,-472 466,-472 466,4 -4,4"/>
<!-- formalqueue -->
<g id="node1" class="node">
<title>formalqueue</title>
<g id="a_node1"><a xlink:href="PsyllaReference_Types.xhtml#PsyllaReference_Types_Details_formalqueue" xlink:title="formalqueue" target="_parent">
<polygon fill="linen" stroke="black" points="233,-108 90,-108 90,-72 239,-72 239,-102 233,-108"/>
<polyline fill="none" stroke="black" points="233,-108 233,-102 "/>
<polyline fill="none" stroke="black" points="239,-102 233,-102 "/>
<text text-anchor="middle" x="164.5" y="-85" font-family="PT Mono, monospace" font-size="20.00">formalqueue</text>
</a>
</g>
</g>
<!-- blockingqueue -->
<g id="node3" class="node">
<title>blockingqueue</title>
<g id="a_node3"><a xlink:href="PsyllaReference_Types.xhtml#PsyllaReference_Types_Details_blockingqueue" xlink:title="blockingqueue" target="_parent">
<polygon fill="wheat" stroke="black" points="194,-36 27,-36 27,0 200,0 200,-30 194,-36"/>
<polyline fill="none" stroke="black" points="194,-36 194,-30 "/>
<polyline fill="none" stroke="black" points="200,-30 194,-30 "/>
<text text-anchor="middle" x="113.5" y="-13" font-family="PT Mono, monospace" font-size="20.00">blockingqueue</text>
</a>
</g>
</g>
<!-- formalqueue&#45;&gt;blockingqueue -->
<g id="edge1" class="edge">
<title>formalqueue&#45;&gt;blockingqueue</title>
<path fill="none" stroke="black" d="M151.89,-71.7C145.9,-63.47 138.62,-53.48 132.02,-44.42"/>
<polygon fill="black" stroke="black" points="134.68,-42.13 125.96,-36.1 129.02,-46.25 134.68,-42.13"/>
</g>
<!-- closeable -->
<g id="node2" class="node">
<title>closeable</title>
<g id="a_node2"><a xlink:href="PsyllaReference_Types.xhtml#PsyllaReference_Types_Details_closeable" xlink:title="closeable" target="_parent">
<polygon fill="linen" stroke="black" points="119,-324 0,-324 0,-288 125,-288 125,-318 119,-324"/>
<polyline fill="none" stroke="black" points="119,-324 119,-318 "/>
<polyline fill="none" stroke="black" points="125,-318 119,-318 "/>
<text text-anchor="middle" x="62.5" y="-301" font-family="PT Mono, monospace" font-size="20.00">closeable</text>
</a>
</g>
</g>
<!-- closeable&#45;&gt;blockingqueue -->
<g id="edge2" class="edge">
<title>closeable&#45;&gt;blockingqueue</title>
<path fill="none" stroke="black" d="M61.1,-287.79C58.46,-248.44 55.14,-149.29 80.5,-72 83.63,-62.47 88.8,-52.91 94.14,-44.58"/>
<polygon fill="black" stroke="black" points="97.19,-46.32 99.91,-36.08 91.39,-42.39 97.19,-46.32"/>
</g>
<!-- bounded -->
<g id="node4" class="node">
<title>bounded</title>
<g id="a_node4"><a xlink:href="PsyllaReference_Types.xhtml#PsyllaReference_Types_Details_bounded" xlink:title="bounded" target="_parent">
<polygon fill="linen" stroke="black" points="192,-180 97,-180 97,-144 198,-144 198,-174 192,-180"/>
<polyline fill="none" stroke="black" points="192,-180 192,-174 "/>
<polyline fill="none" stroke="black" points="198,-174 192,-174 "/>
<text text-anchor="middle" x="147.5" y="-157" font-family="PT Mono, monospace" font-size="20.00">bounded</text>
</a>
</g>
</g>
<!-- bounded&#45;&gt;formalqueue -->
<g id="edge3" class="edge">
<title>bounded&#45;&gt;formalqueue</title>
<path fill="none" stroke="black" d="M151.7,-143.7C153.6,-135.9 155.88,-126.51 157.98,-117.83"/>
<polygon fill="black" stroke="black" points="161.39,-118.65 160.35,-108.1 154.58,-117 161.39,-118.65"/>
</g>
<!-- container -->
<g id="node5" class="node">
<title>container</title>
<g id="a_node5"><a xlink:href="PsyllaReference_Types.xhtml#PsyllaReference_Types_Details_container" xlink:title="container" target="_parent">
<polygon fill="linen" stroke="black" points="335,-180 216,-180 216,-144 341,-144 341,-174 335,-180"/>
<polyline fill="none" stroke="black" points="335,-180 335,-174 "/>
<polyline fill="none" stroke="black" points="341,-174 335,-174 "/>
<text text-anchor="middle" x="278.5" y="-157" font-family="PT Mono, monospace" font-size="20.00">container</text>
</a>
</g>
</g>
<!-- container&#45;&gt;formalqueue -->
<g id="edge4" class="edge">
<title>container&#45;&gt;formalqueue</title>
<path fill="none" stroke="black" d="M250.61,-143.88C235.71,-134.72 217.17,-123.34 201.12,-113.48"/>
<polygon fill="black" stroke="black" points="202.85,-110.44 192.49,-108.19 199.19,-116.41 202.85,-110.44"/>
</g>
<!-- object -->
<g id="node6" class="node">
<title>object</title>
<g id="a_node6"><a xlink:href="PsyllaReference_Types.xhtml#PsyllaReference_Types_Details_object" xlink:title="object" target="_parent">
<polygon fill="linen" stroke="black" points="237,-468 154,-468 154,-432 243,-432 243,-462 237,-468"/>
<polyline fill="none" stroke="black" points="237,-468 237,-462 "/>
<polyline fill="none" stroke="black" points="243,-462 237,-462 "/>
<text text-anchor="middle" x="198.5" y="-445" font-family="PT Mono, monospace" font-size="20.00">object</text>
</a>
</g>
</g>
<!-- object&#45;&gt;closeable -->
<g id="edge5" class="edge">
<title>object&#45;&gt;closeable</title>
<path fill="none" stroke="black" d="M178.26,-431.93C166.6,-421.83 151.85,-408.58 139.5,-396 119.27,-375.39 97.9,-350.41 82.83,-332.16"/>
<polygon fill="black" stroke="black" points="85.42,-329.8 76.37,-324.29 80.01,-334.24 85.42,-329.8"/>
</g>
<!-- lengthy -->
<g id="node7" class="node">
<title>lengthy</title>
<g id="a_node7"><a xlink:href="PsyllaReference_Types.xhtml#PsyllaReference_Types_Details_lengthy" xlink:title="lengthy" target="_parent">
<polygon fill="linen" stroke="black" points="198,-252 103,-252 103,-216 204,-216 204,-246 198,-252"/>
<polyline fill="none" stroke="black" points="198,-252 198,-246 "/>
<polyline fill="none" stroke="black" points="204,-246 198,-246 "/>
<text text-anchor="middle" x="153.5" y="-229" font-family="PT Mono, monospace" font-size="20.00">lengthy</text>
</a>
</g>
</g>
<!-- object&#45;&gt;lengthy -->
<g id="edge10" class="edge">
<title>object&#45;&gt;lengthy</title>
<path fill="none" stroke="black" d="M188.28,-431.94C182.71,-421.83 176.21,-408.58 172.5,-396 159.05,-350.4 155.08,-294.89 153.93,-262.39"/>
<polygon fill="black" stroke="black" points="157.43,-262.2 153.64,-252.3 150.43,-262.4 157.43,-262.2"/>
</g>
<!-- clearable -->
<g id="node8" class="node">
<title>clearable</title>
<g id="a_node8"><a xlink:href="PsyllaReference_Types.xhtml#PsyllaReference_Types_Details_clearable" xlink:title="clearable" target="_parent">
<polygon fill="linen" stroke="black" points="301,-396 182,-396 182,-360 307,-360 307,-390 301,-396"/>
<polyline fill="none" stroke="black" points="301,-396 301,-390 "/>
<polyline fill="none" stroke="black" points="307,-390 301,-390 "/>
<text text-anchor="middle" x="244.5" y="-373" font-family="PT Mono, monospace" font-size="20.00">clearable</text>
</a>
</g>
</g>
<!-- object&#45;&gt;clearable -->
<g id="edge11" class="edge">
<title>object&#45;&gt;clearable</title>
<path fill="none" stroke="black" d="M209.87,-431.7C215.22,-423.56 221.7,-413.69 227.61,-404.7"/>
<polygon fill="black" stroke="black" points="230.69,-406.38 233.26,-396.1 224.84,-402.54 230.69,-406.38"/>
</g>
<!-- sequential -->
<g id="node11" class="node">
<title>sequential</title>
<g id="a_node11"><a xlink:href="PsyllaReference_Types.xhtml#PsyllaReference_Types_Details_sequential" xlink:title="sequential" target="_parent">
<polygon fill="linen" stroke="black" points="456,-396 325,-396 325,-360 462,-360 462,-390 456,-396"/>
<polyline fill="none" stroke="black" points="456,-396 456,-390 "/>
<polyline fill="none" stroke="black" points="462,-390 456,-390 "/>
<text text-anchor="middle" x="393.5" y="-373" font-family="PT Mono, monospace" font-size="20.00">sequential</text>
</a>
</g>
</g>
<!-- object&#45;&gt;sequential -->
<g id="edge14" class="edge">
<title>object&#45;&gt;sequential</title>
<path fill="none" stroke="black" d="M243.24,-432.94C270.94,-423 306.77,-410.14 336.49,-399.47"/>
<polygon fill="black" stroke="black" points="337.68,-402.76 345.91,-396.08 335.31,-396.17 337.68,-402.76"/>
</g>
<!-- lengthy&#45;&gt;bounded -->
<g id="edge6" class="edge">
<title>lengthy&#45;&gt;bounded</title>
<path fill="none" stroke="black" d="M152.02,-215.7C151.36,-207.98 150.56,-198.71 149.82,-190.11"/>
<polygon fill="black" stroke="black" points="153.31,-189.77 148.97,-180.1 146.33,-190.37 153.31,-189.77"/>
</g>
<!-- lengthy&#45;&gt;container -->
<g id="edge9" class="edge">
<title>lengthy&#45;&gt;container</title>
<path fill="none" stroke="black" d="M184.08,-215.88C200.57,-206.64 221.12,-195.13 238.84,-185.21"/>
<polygon fill="black" stroke="black" points="240.79,-188.13 247.8,-180.19 237.37,-182.02 240.79,-188.13"/>
</g>
<!-- clearable&#45;&gt;container -->
<g id="edge7" class="edge">
<title>clearable&#45;&gt;container</title>
<path fill="none" stroke="black" d="M247.22,-359.85C253.11,-322.83 267.03,-235.18 274.15,-190.39"/>
<polygon fill="black" stroke="black" points="277.65,-190.66 275.76,-180.23 270.74,-189.56 277.65,-190.66"/>
</g>
<!-- iterable -->
<g id="node9" class="node">
<title>iterable</title>
<g id="a_node9"><a xlink:href="PsyllaReference_Types.xhtml#PsyllaReference_Types_Details_iterable" xlink:title="iterable" target="_parent">
<polygon fill="linen" stroke="black" points="410,-252 303,-252 303,-216 416,-216 416,-246 410,-252"/>
<polyline fill="none" stroke="black" points="410,-252 410,-246 "/>
<polyline fill="none" stroke="black" points="416,-246 410,-246 "/>
<text text-anchor="middle" x="359.5" y="-229" font-family="PT Mono, monospace" font-size="20.00">iterable</text>
</a>
</g>
</g>
<!-- iterable&#45;&gt;container -->
<g id="edge8" class="edge">
<title>iterable&#45;&gt;container</title>
<path fill="none" stroke="black" d="M339.48,-215.7C329.37,-206.97 316.96,-196.24 305.98,-186.75"/>
<polygon fill="black" stroke="black" points="308.15,-183.99 298.29,-180.1 303.57,-189.29 308.15,-183.99"/>
</g>
<!-- streamable -->
<g id="node10" class="node">
<title>streamable</title>
<g id="a_node10"><a xlink:href="PsyllaReference_Types.xhtml#PsyllaReference_Types_Details_streamable" xlink:title="streamable" target="_parent">
<polygon fill="linen" stroke="black" points="437,-324 306,-324 306,-288 443,-288 443,-318 437,-324"/>
<polyline fill="none" stroke="black" points="437,-324 437,-318 "/>
<polyline fill="none" stroke="black" points="443,-318 437,-318 "/>
<text text-anchor="middle" x="374.5" y="-301" font-family="PT Mono, monospace" font-size="20.00">streamable</text>
</a>
</g>
</g>
<!-- streamable&#45;&gt;iterable -->
<g id="edge12" class="edge">
<title>streamable&#45;&gt;iterable</title>
<path fill="none" stroke="black" d="M370.79,-287.7C369.14,-279.98 367.15,-270.71 365.31,-262.11"/>
<polygon fill="black" stroke="black" points="368.68,-261.15 363.17,-252.1 361.84,-262.62 368.68,-261.15"/>
</g>
<!-- sequential&#45;&gt;streamable -->
<g id="edge13" class="edge">
<title>sequential&#45;&gt;streamable</title>
<path fill="none" stroke="black" d="M388.8,-359.7C386.69,-351.9 384.14,-342.51 381.78,-333.83"/>
<polygon fill="black" stroke="black" points="385.14,-332.84 379.14,-324.1 378.38,-334.67 385.14,-332.84"/>
</g>
</g>
</svg>
