<?xml version="1.0" encoding="UTF-8" standalone="no"?>
<!DOCTYPE svg PUBLIC "-//W3C//DTD SVG 1.1//EN"
 "http://www.w3.org/Graphics/SVG/1.1/DTD/svg11.dtd">
<!-- Generated by graphviz version 2.43.0 (0)
 -->
<!-- Title: readable Pages: 1 -->
<svg width="91pt" height="188pt"
 viewBox="0.00 0.00 91.00 188.00" xmlns="http://www.w3.org/2000/svg" xmlns:xlink="http://www.w3.org/1999/xlink">
<g id="graph0" class="graph" transform="scale(1 1) rotate(0) translate(4 184)">
<title>readable</title>
<polygon fill="transparent" stroke="transparent" points="-4,4 -4,-184 87,-184 87,4 -4,4"/>
<!-- ready -->
<g id="node1" class="node">
<title>ready</title>
<g id="a_node1"><a xlink:href="PsyllaReference_Types.xhtml#PsyllaReference_Types_Details_ready" xlink:title="ready" target="_parent">
<polygon fill="linen" stroke="black" points="64.5,-108 12.5,-108 12.5,-72 70.5,-72 70.5,-102 64.5,-108"/>
<polyline fill="none" stroke="black" points="64.5,-108 64.5,-102 "/>
<polyline fill="none" stroke="black" points="70.5,-102 64.5,-102 "/>
<text text-anchor="middle" x="41.5" y="-86.3" font-family="Consolas, monospace" font-size="14.00">ready</text>
</a>
</g>
</g>
<!-- readable -->
<g id="node2" class="node">
<title>readable</title>
<g id="a_node2"><a xlink:href="PsyllaReference_Types.xhtml#PsyllaReference_Types_Details_readable" xlink:title="readable" target="_parent">
<polygon fill="wheat" stroke="black" points="77,-36 0,-36 0,0 83,0 83,-30 77,-36"/>
<polyline fill="none" stroke="black" points="77,-36 77,-30 "/>
<polyline fill="none" stroke="black" points="83,-30 77,-30 "/>
<text text-anchor="middle" x="41.5" y="-14.3" font-family="Consolas, monospace" font-size="14.00">readable</text>
</a>
</g>
</g>
<!-- ready&#45;&gt;readable -->
<g id="edge1" class="edge">
<title>ready&#45;&gt;readable</title>
<path fill="none" stroke="black" d="M41.5,-71.7C41.5,-63.98 41.5,-54.71 41.5,-46.11"/>
<polygon fill="black" stroke="black" points="45,-46.1 41.5,-36.1 38,-46.1 45,-46.1"/>
</g>
<!-- object -->
<g id="node3" class="node">
<title>object</title>
<g id="a_node3"><a xlink:href="PsyllaReference_Types.xhtml#PsyllaReference_Types_Details_object" xlink:title="object" target="_parent">
<polygon fill="linen" stroke="black" points="68.5,-180 8.5,-180 8.5,-144 74.5,-144 74.5,-174 68.5,-180"/>
<polyline fill="none" stroke="black" points="68.5,-180 68.5,-174 "/>
<polyline fill="none" stroke="black" points="74.5,-174 68.5,-174 "/>
<text text-anchor="middle" x="41.5" y="-158.3" font-family="Consolas, monospace" font-size="14.00">object</text>
</a>
</g>
</g>
<!-- object&#45;&gt;ready -->
<g id="edge2" class="edge">
<title>object&#45;&gt;ready</title>
<path fill="none" stroke="black" d="M41.5,-143.7C41.5,-135.98 41.5,-126.71 41.5,-118.11"/>
<polygon fill="black" stroke="black" points="45,-118.1 41.5,-108.1 38,-118.1 45,-118.1"/>
</g>
</g>
</svg>
