<?xml version="1.0" encoding="UTF-8" standalone="no"?>
<!DOCTYPE svg PUBLIC "-//W3C//DTD SVG 1.1//EN"
 "http://www.w3.org/Graphics/SVG/1.1/DTD/svg11.dtd">
<!-- Generated by graphviz version 2.43.0 (0)
 -->
<!-- Title: command Pages: 1 -->
<svg width="360pt" height="476pt"
 viewBox="0.00 0.00 359.50 476.00" xmlns="http://www.w3.org/2000/svg" xmlns:xlink="http://www.w3.org/1999/xlink">
<g id="graph0" class="graph" transform="scale(1 1) rotate(0) translate(4 472)">
<title>command</title>
<polygon fill="transparent" stroke="transparent" points="-4,4 -4,-472 355.5,-472 355.5,4 -4,4"/>
<!-- name -->
<g id="node1" class="node">
<title>name</title>
<g id="a_node1"><a xlink:href="PsyllaReference_Types.xhtml#PsyllaReference_Types_Details_name" xlink:title="name" target="_parent">
<polygon fill="linen" stroke="black" points="128,-108 80,-108 80,-72 134,-72 134,-102 128,-108"/>
<polyline fill="none" stroke="black" points="128,-108 128,-102 "/>
<polyline fill="none" stroke="black" points="134,-102 128,-102 "/>
<text text-anchor="middle" x="107" y="-86.3" font-family="Consolas, monospace" font-size="14.00">name</text>
</a>
</g>
</g>
<!-- command -->
<g id="node2" class="node">
<title>command</title>
<g id="a_node2"><a xlink:href="PsyllaReference_Types.xhtml#PsyllaReference_Types_Details_command" xlink:title="command" target="_parent">
<polygon fill="wheat" stroke="black" points="138,-36 70,-36 70,0 144,0 144,-30 138,-36"/>
<polyline fill="none" stroke="black" points="138,-36 138,-30 "/>
<polyline fill="none" stroke="black" points="144,-30 138,-30 "/>
<text text-anchor="middle" x="107" y="-14.3" font-family="Consolas, monospace" font-size="14.00">command</text>
</a>
</g>
</g>
<!-- name&#45;&gt;command -->
<g id="edge1" class="edge">
<title>name&#45;&gt;command</title>
<path fill="none" stroke="black" d="M107,-71.7C107,-63.98 107,-54.71 107,-46.11"/>
<polygon fill="black" stroke="black" points="110.5,-46.1 107,-36.1 103.5,-46.1 110.5,-46.1"/>
</g>
<!-- atomic -->
<g id="node3" class="node">
<title>atomic</title>
<g id="a_node3"><a xlink:href="PsyllaReference_Types.xhtml#PsyllaReference_Types_Details_atomic" xlink:title="atomic" target="_parent">
<polygon fill="linen" stroke="black" points="60,-324 0,-324 0,-288 66,-288 66,-318 60,-324"/>
<polyline fill="none" stroke="black" points="60,-324 60,-318 "/>
<polyline fill="none" stroke="black" points="66,-318 60,-318 "/>
<text text-anchor="middle" x="33" y="-302.3" font-family="Consolas, monospace" font-size="14.00">atomic</text>
</a>
</g>
</g>
<!-- atomic&#45;&gt;name -->
<g id="edge2" class="edge">
<title>atomic&#45;&gt;name</title>
<path fill="none" stroke="black" d="M35.57,-288C38.55,-269.89 44.08,-240.51 52,-216 63.32,-180.95 81.16,-142.4 93.44,-117.51"/>
<polygon fill="black" stroke="black" points="96.67,-118.87 98,-108.36 90.4,-115.74 96.67,-118.87"/>
</g>
<!-- stringy -->
<g id="node4" class="node">
<title>stringy</title>
<g id="a_node4"><a xlink:href="PsyllaReference_Types.xhtml#PsyllaReference_Types_Details_stringy" xlink:title="stringy" target="_parent">
<polygon fill="linen" stroke="black" points="212,-180 144,-180 144,-144 218,-144 218,-174 212,-180"/>
<polyline fill="none" stroke="black" points="212,-180 212,-174 "/>
<polyline fill="none" stroke="black" points="218,-174 212,-174 "/>
<text text-anchor="middle" x="181" y="-158.3" font-family="Consolas, monospace" font-size="14.00">stringy</text>
</a>
</g>
</g>
<!-- stringy&#45;&gt;name -->
<g id="edge3" class="edge">
<title>stringy&#45;&gt;name</title>
<path fill="none" stroke="black" d="M162.71,-143.7C153.57,-135.05 142.36,-124.45 132.4,-115.03"/>
<polygon fill="black" stroke="black" points="134.75,-112.43 125.08,-108.1 129.94,-117.52 134.75,-112.43"/>
</g>
<!-- object -->
<g id="node5" class="node">
<title>object</title>
<g id="a_node5"><a xlink:href="PsyllaReference_Types.xhtml#PsyllaReference_Types_Details_object" xlink:title="object" target="_parent">
<polygon fill="linen" stroke="black" points="167,-468 107,-468 107,-432 173,-432 173,-462 167,-468"/>
<polyline fill="none" stroke="black" points="167,-468 167,-462 "/>
<polyline fill="none" stroke="black" points="173,-462 167,-462 "/>
<text text-anchor="middle" x="140" y="-446.3" font-family="Consolas, monospace" font-size="14.00">object</text>
</a>
</g>
</g>
<!-- object&#45;&gt;atomic -->
<g id="edge4" class="edge">
<title>object&#45;&gt;atomic</title>
<path fill="none" stroke="black" d="M116.8,-431.83C104.83,-422.2 90.57,-409.44 80,-396 64.89,-376.79 52.26,-352.01 43.91,-333.47"/>
<polygon fill="black" stroke="black" points="47.05,-331.91 39.84,-324.15 40.64,-334.72 47.05,-331.91"/>
</g>
<!-- evaluable -->
<g id="node6" class="node">
<title>evaluable</title>
<g id="a_node6"><a xlink:href="PsyllaReference_Types.xhtml#PsyllaReference_Types_Details_evaluable" xlink:title="evaluable" target="_parent">
<polygon fill="linen" stroke="black" points="146.5,-252 61.5,-252 61.5,-216 152.5,-216 152.5,-246 146.5,-252"/>
<polyline fill="none" stroke="black" points="146.5,-252 146.5,-246 "/>
<polyline fill="none" stroke="black" points="152.5,-246 146.5,-246 "/>
<text text-anchor="middle" x="107" y="-230.3" font-family="Consolas, monospace" font-size="14.00">evaluable</text>
</a>
</g>
</g>
<!-- object&#45;&gt;evaluable -->
<g id="edge9" class="edge">
<title>object&#45;&gt;evaluable</title>
<path fill="none" stroke="black" d="M135.44,-431.75C129.29,-407.77 118.48,-362.91 113,-324 110.1,-303.43 108.59,-279.98 107.81,-262.31"/>
<polygon fill="black" stroke="black" points="111.3,-261.99 107.42,-252.14 104.31,-262.27 111.3,-261.99"/>
</g>
<!-- lengthy -->
<g id="node8" class="node">
<title>lengthy</title>
<g id="a_node8"><a xlink:href="PsyllaReference_Types.xhtml#PsyllaReference_Types_Details_lengthy" xlink:title="lengthy" target="_parent">
<polygon fill="linen" stroke="black" points="190,-324 122,-324 122,-288 196,-288 196,-318 190,-324"/>
<polyline fill="none" stroke="black" points="190,-324 190,-318 "/>
<polyline fill="none" stroke="black" points="196,-318 190,-318 "/>
<text text-anchor="middle" x="159" y="-302.3" font-family="Consolas, monospace" font-size="14.00">lengthy</text>
</a>
</g>
</g>
<!-- object&#45;&gt;lengthy -->
<g id="edge11" class="edge">
<title>object&#45;&gt;lengthy</title>
<path fill="none" stroke="black" d="M142.29,-431.87C145.53,-407.67 151.48,-363.21 155.33,-334.39"/>
<polygon fill="black" stroke="black" points="158.84,-334.57 156.7,-324.19 151.9,-333.64 158.84,-334.57"/>
</g>
<!-- scalar -->
<g id="node9" class="node">
<title>scalar</title>
<g id="a_node9"><a xlink:href="PsyllaReference_Types.xhtml#PsyllaReference_Types_Details_scalar" xlink:title="scalar" target="_parent">
<polygon fill="linen" stroke="black" points="228,-396 168,-396 168,-360 234,-360 234,-390 228,-396"/>
<polyline fill="none" stroke="black" points="228,-396 228,-390 "/>
<polyline fill="none" stroke="black" points="234,-390 228,-390 "/>
<text text-anchor="middle" x="201" y="-374.3" font-family="Consolas, monospace" font-size="14.00">scalar</text>
</a>
</g>
</g>
<!-- object&#45;&gt;scalar -->
<g id="edge12" class="edge">
<title>object&#45;&gt;scalar</title>
<path fill="none" stroke="black" d="M155.08,-431.7C162.39,-423.3 171.31,-413.07 179.34,-403.86"/>
<polygon fill="black" stroke="black" points="182.16,-405.94 186.09,-396.1 176.89,-401.34 182.16,-405.94"/>
</g>
<!-- sequential -->
<g id="node11" class="node">
<title>sequential</title>
<g id="a_node11"><a xlink:href="PsyllaReference_Types.xhtml#PsyllaReference_Types_Details_sequential" xlink:title="sequential" target="_parent">
<polygon fill="linen" stroke="black" points="345.5,-396 252.5,-396 252.5,-360 351.5,-360 351.5,-390 345.5,-396"/>
<polyline fill="none" stroke="black" points="345.5,-396 345.5,-390 "/>
<polyline fill="none" stroke="black" points="351.5,-390 345.5,-390 "/>
<text text-anchor="middle" x="302" y="-374.3" font-family="Consolas, monospace" font-size="14.00">sequential</text>
</a>
</g>
</g>
<!-- object&#45;&gt;sequential -->
<g id="edge14" class="edge">
<title>object&#45;&gt;sequential</title>
<path fill="none" stroke="black" d="M173.17,-434.67C196.26,-424.69 227.42,-411.23 253.31,-400.04"/>
<polygon fill="black" stroke="black" points="254.79,-403.21 262.58,-396.03 252.02,-396.79 254.79,-403.21"/>
</g>
<!-- evaluable&#45;&gt;stringy -->
<g id="edge5" class="edge">
<title>evaluable&#45;&gt;stringy</title>
<path fill="none" stroke="black" d="M125.29,-215.7C134.43,-207.05 145.64,-196.45 155.6,-187.03"/>
<polygon fill="black" stroke="black" points="158.06,-189.52 162.92,-180.1 153.25,-184.43 158.06,-189.52"/>
</g>
<!-- iterable -->
<g id="node7" class="node">
<title>iterable</title>
<g id="a_node7"><a xlink:href="PsyllaReference_Types.xhtml#PsyllaReference_Types_Details_iterable" xlink:title="iterable" target="_parent">
<polygon fill="linen" stroke="black" points="333.5,-252 256.5,-252 256.5,-216 339.5,-216 339.5,-246 333.5,-252"/>
<polyline fill="none" stroke="black" points="333.5,-252 333.5,-246 "/>
<polyline fill="none" stroke="black" points="339.5,-246 333.5,-246 "/>
<text text-anchor="middle" x="298" y="-230.3" font-family="Consolas, monospace" font-size="14.00">iterable</text>
</a>
</g>
</g>
<!-- iterable&#45;&gt;stringy -->
<g id="edge6" class="edge">
<title>iterable&#45;&gt;stringy</title>
<path fill="none" stroke="black" d="M269.38,-215.88C254.08,-206.72 235.06,-195.34 218.58,-185.48"/>
<polygon fill="black" stroke="black" points="220.11,-182.32 209.73,-180.19 216.52,-188.33 220.11,-182.32"/>
</g>
<!-- lengthy&#45;&gt;stringy -->
<g id="edge7" class="edge">
<title>lengthy&#45;&gt;stringy</title>
<path fill="none" stroke="black" d="M161.65,-287.87C165.4,-263.67 172.29,-219.21 176.76,-190.39"/>
<polygon fill="black" stroke="black" points="180.26,-190.61 178.34,-180.19 173.35,-189.54 180.26,-190.61"/>
</g>
<!-- scalar&#45;&gt;stringy -->
<g id="edge8" class="edge">
<title>scalar&#45;&gt;stringy</title>
<path fill="none" stroke="black" d="M202.62,-359.83C203.52,-349.47 204.55,-335.99 205,-324 205.6,-308.01 206.52,-303.93 205,-288 201.76,-253.93 193.66,-215.33 187.76,-190.16"/>
<polygon fill="black" stroke="black" points="191.12,-189.15 185.39,-180.24 184.31,-190.78 191.12,-189.15"/>
</g>
<!-- streamable -->
<g id="node10" class="node">
<title>streamable</title>
<g id="a_node10"><a xlink:href="PsyllaReference_Types.xhtml#PsyllaReference_Types_Details_streamable" xlink:title="streamable" target="_parent">
<polygon fill="linen" stroke="black" points="345.5,-324 252.5,-324 252.5,-288 351.5,-288 351.5,-318 345.5,-324"/>
<polyline fill="none" stroke="black" points="345.5,-324 345.5,-318 "/>
<polyline fill="none" stroke="black" points="351.5,-318 345.5,-318 "/>
<text text-anchor="middle" x="302" y="-302.3" font-family="Consolas, monospace" font-size="14.00">streamable</text>
</a>
</g>
</g>
<!-- streamable&#45;&gt;iterable -->
<g id="edge10" class="edge">
<title>streamable&#45;&gt;iterable</title>
<path fill="none" stroke="black" d="M301.01,-287.7C300.57,-279.98 300.04,-270.71 299.55,-262.11"/>
<polygon fill="black" stroke="black" points="303.04,-261.89 298.98,-252.1 296.05,-262.29 303.04,-261.89"/>
</g>
<!-- sequential&#45;&gt;streamable -->
<g id="edge13" class="edge">
<title>sequential&#45;&gt;streamable</title>
<path fill="none" stroke="black" d="M302,-359.7C302,-351.98 302,-342.71 302,-334.11"/>
<polygon fill="black" stroke="black" points="305.5,-334.1 302,-324.1 298.5,-334.1 305.5,-334.1"/>
</g>
</g>
</svg>
