<?xml version="1.0" encoding="UTF-8" standalone="no"?>
<!DOCTYPE svg PUBLIC "-//W3C//DTD SVG 1.1//EN"
 "http://www.w3.org/Graphics/SVG/1.1/DTD/svg11.dtd">
<!-- Generated by graphviz version 14.0.0 (0)
 -->
<!-- Title: integer Pages: 1 -->
<svg width="596pt" height="548pt"
 viewBox="0.00 0.00 596.00 548.00" xmlns="http://www.w3.org/2000/svg" xmlns:xlink="http://www.w3.org/1999/xlink">
<g id="graph0" class="graph" transform="scale(1 1) rotate(0) translate(4 544)">
<title>integer</title>
<polygon fill="none" stroke="none" points="-4,4 -4,-544 592.33,-544 592.33,4 -4,4"/>
<!-- bitwise -->
<g id="node1" class="node">
<title>bitwise</title>
<g id="a_node1"><a xlink:href="PsyllaReference_Types.xhtml#PsyllaReference_Types_Details_bitwise" xlink:title="bitwise" target="_parent">
<polygon fill="linen" stroke="black" points="59,-396 11,-396 11,-360 65,-360 65,-390 59,-396"/>
<polyline fill="none" stroke="black" points="59,-396 59,-390"/>
<polyline fill="none" stroke="black" points="65,-390 59,-390"/>
<text xml:space="preserve" text-anchor="middle" x="38" y="-374.4" font-family="Source Code Pro,monospace" font-size="12.00">bitwise</text>
</a>
</g>
</g>
<!-- integral -->
<g id="node2" class="node">
<title>integral</title>
<g id="a_node2"><a xlink:href="PsyllaReference_Types.xhtml#PsyllaReference_Types_Details_integral" xlink:title="integral" target="_parent">
<polygon fill="linen" stroke="black" points="76,-108 28,-108 28,-72 82,-72 82,-102 76,-108"/>
<polyline fill="none" stroke="black" points="76,-108 76,-102"/>
<polyline fill="none" stroke="black" points="82,-102 76,-102"/>
<text xml:space="preserve" text-anchor="middle" x="55" y="-86.4" font-family="Source Code Pro,monospace" font-size="12.00">integral</text>
</a>
</g>
</g>
<!-- bitwise&#45;&gt;integral -->
<g id="edge4" class="edge">
<title>bitwise&#45;&gt;integral</title>
<path fill="none" stroke="black" d="M39.04,-359.54C41.88,-311.76 49.8,-178.51 53.3,-119.61"/>
<polygon fill="black" stroke="black" points="56.79,-119.93 53.89,-109.74 49.8,-119.52 56.79,-119.93"/>
</g>
<!-- integer -->
<g id="node3" class="node">
<title>integer</title>
<g id="a_node3"><a xlink:href="PsyllaReference_Types.xhtml#PsyllaReference_Types_Details_integer" xlink:title="integer" target="_parent">
<polygon fill="wheat" stroke="black" points="48,-36 0,-36 0,0 54,0 54,-30 48,-36"/>
<polyline fill="none" stroke="black" points="48,-36 48,-30"/>
<polyline fill="none" stroke="black" points="54,-30 48,-30"/>
<text xml:space="preserve" text-anchor="middle" x="27" y="-14.4" font-family="Source Code Pro,monospace" font-size="12.00">integer</text>
</a>
</g>
</g>
<!-- bitwise&#45;&gt;integer -->
<g id="edge1" class="edge">
<title>bitwise&#45;&gt;integer</title>
<path fill="none" stroke="black" d="M30.31,-359.91C19.21,-333.62 0,-281.45 0,-235 81,0 81,0 0,-161 0,-120.86 10.54,-75.44 18.45,-47.01"/>
<polygon fill="black" stroke="black" points="21.72,-48.32 21.12,-37.74 14.99,-46.38 21.72,-48.32"/>
</g>
<!-- integral&#45;&gt;integer -->
<g id="edge2" class="edge">
<title>integral&#45;&gt;integer</title>
<path fill="none" stroke="black" d="M48.08,-71.7C45.06,-64.15 41.45,-55.12 38.07,-46.68"/>
<polygon fill="black" stroke="black" points="41.37,-45.49 34.4,-37.51 34.87,-48.09 41.37,-45.49"/>
</g>
<!-- logical -->
<g id="node4" class="node">
<title>logical</title>
<g id="a_node4"><a xlink:href="PsyllaReference_Types.xhtml#PsyllaReference_Types_Details_logical" xlink:title="logical" target="_parent">
<polygon fill="linen" stroke="black" points="73,-468 25,-468 25,-432 79,-432 79,-462 73,-468"/>
<polyline fill="none" stroke="black" points="73,-468 73,-462"/>
<polyline fill="none" stroke="black" points="79,-462 73,-462"/>
<text xml:space="preserve" text-anchor="middle" x="52" y="-446.4" font-family="Source Code Pro,monospace" font-size="12.00">logical</text>
</a>
</g>
</g>
<!-- logical&#45;&gt;bitwise -->
<g id="edge3" class="edge">
<title>logical&#45;&gt;bitwise</title>
<path fill="none" stroke="black" d="M48.54,-431.7C47.06,-424.32 45.3,-415.52 43.65,-407.25"/>
<polygon fill="black" stroke="black" points="47.11,-406.71 41.72,-397.59 40.25,-408.08 47.11,-406.71"/>
</g>
<!-- rational -->
<g id="node5" class="node">
<title>rational</title>
<g id="a_node5"><a xlink:href="PsyllaReference_Types.xhtml#PsyllaReference_Types_Details_rational" xlink:title="rational" target="_parent">
<polygon fill="linen" stroke="black" points="171,-180 123,-180 123,-144 177,-144 177,-174 171,-180"/>
<polyline fill="none" stroke="black" points="171,-180 171,-174"/>
<polyline fill="none" stroke="black" points="177,-174 171,-174"/>
<text xml:space="preserve" text-anchor="middle" x="150" y="-158.4" font-family="Source Code Pro,monospace" font-size="12.00">rational</text>
</a>
</g>
</g>
<!-- rational&#45;&gt;integral -->
<g id="edge5" class="edge">
<title>rational&#45;&gt;integral</title>
<path fill="none" stroke="black" d="M126.52,-143.7C114.76,-135.03 100.33,-124.4 87.52,-114.96"/>
<polygon fill="black" stroke="black" points="89.89,-112.36 79.76,-109.24 85.74,-117.99 89.89,-112.36"/>
</g>
<!-- object -->
<g id="node6" class="node">
<title>object</title>
<g id="a_node6"><a xlink:href="PsyllaReference_Types.xhtml#PsyllaReference_Types_Details_object" xlink:title="object" target="_parent">
<polygon fill="linen" stroke="black" points="335,-540 287,-540 287,-504 341,-504 341,-534 335,-540"/>
<polyline fill="none" stroke="black" points="335,-540 335,-534"/>
<polyline fill="none" stroke="black" points="341,-534 335,-534"/>
<text xml:space="preserve" text-anchor="middle" x="314" y="-518.4" font-family="Source Code Pro,monospace" font-size="12.00">object</text>
</a>
</g>
</g>
<!-- object&#45;&gt;logical -->
<g id="edge6" class="edge">
<title>object&#45;&gt;logical</title>
<path fill="none" stroke="black" d="M286.76,-514.48C247.07,-504.87 171.08,-486.1 107,-468 101.49,-466.44 95.69,-464.73 90.01,-463.02"/>
<polygon fill="black" stroke="black" points="91.37,-459.77 80.78,-460.18 89.32,-466.46 91.37,-459.77"/>
</g>
<!-- convertabletointeger -->
<g id="node9" class="node">
<title>convertabletointeger</title>
<g id="a_node9"><a xlink:href="PsyllaReference_Types.xhtml#PsyllaReference_Types_Details_convertabletointeger" xlink:title="convertabletointeger" target="_parent">
<polygon fill="linen" stroke="black" points="174.31,-324 65.69,-324 65.69,-288 180.31,-288 180.31,-318 174.31,-324"/>
<polyline fill="none" stroke="black" points="174.31,-324 174.31,-318"/>
<polyline fill="none" stroke="black" points="180.31,-318 174.31,-318"/>
<text xml:space="preserve" text-anchor="middle" x="123" y="-302.4" font-family="Source Code Pro,monospace" font-size="12.00">convertabletointeger</text>
</a>
</g>
</g>
<!-- object&#45;&gt;convertabletointeger -->
<g id="edge15" class="edge">
<title>object&#45;&gt;convertabletointeger</title>
<path fill="none" stroke="black" d="M286.63,-509.41C247.42,-491.3 176.03,-452.43 140,-396 128.54,-378.05 124.45,-354.21 123.13,-335.71"/>
<polygon fill="black" stroke="black" points="126.64,-335.79 122.69,-325.96 119.65,-336.11 126.64,-335.79"/>
</g>
<!-- convertabletointegral -->
<g id="node10" class="node">
<title>convertabletointegral</title>
<g id="a_node10"><a xlink:href="PsyllaReference_Types.xhtml#PsyllaReference_Types_Details_convertabletointegral" xlink:title="convertabletointegral" target="_parent">
<polygon fill="linen" stroke="black" points="260.98,-396 149.02,-396 149.02,-360 266.98,-360 266.98,-390 260.98,-396"/>
<polyline fill="none" stroke="black" points="260.98,-396 260.98,-390"/>
<polyline fill="none" stroke="black" points="266.98,-390 260.98,-390"/>
<text xml:space="preserve" text-anchor="middle" x="208" y="-374.4" font-family="Source Code Pro,monospace" font-size="12.00">convertabletointegral</text>
</a>
</g>
</g>
<!-- object&#45;&gt;convertabletointegral -->
<g id="edge16" class="edge">
<title>object&#45;&gt;convertabletointegral</title>
<path fill="none" stroke="black" d="M301,-503.59C282.62,-478.97 248.91,-433.8 227.51,-405.14"/>
<polygon fill="black" stroke="black" points="230.46,-403.24 221.68,-397.32 224.86,-407.43 230.46,-403.24"/>
</g>
<!-- convertabletorational -->
<g id="node11" class="node">
<title>convertabletorational</title>
<g id="a_node11"><a xlink:href="PsyllaReference_Types.xhtml#PsyllaReference_Types_Details_convertabletorational" xlink:title="convertabletorational" target="_parent">
<polygon fill="linen" stroke="black" points="347.98,-324 236.02,-324 236.02,-288 353.98,-288 353.98,-318 347.98,-324"/>
<polyline fill="none" stroke="black" points="347.98,-324 347.98,-318"/>
<polyline fill="none" stroke="black" points="353.98,-318 347.98,-318"/>
<text xml:space="preserve" text-anchor="middle" x="295" y="-302.4" font-family="Source Code Pro,monospace" font-size="12.00">convertabletorational</text>
</a>
</g>
</g>
<!-- object&#45;&gt;convertabletorational -->
<g id="edge17" class="edge">
<title>object&#45;&gt;convertabletorational</title>
<path fill="none" stroke="black" d="M312.48,-503.85C309.22,-467.14 301.54,-380.66 297.53,-335.53"/>
<polygon fill="black" stroke="black" points="301.03,-335.39 296.66,-325.74 294.06,-336.01 301.03,-335.39"/>
</g>
<!-- scalar -->
<g id="node12" class="node">
<title>scalar</title>
<g id="a_node12"><a xlink:href="PsyllaReference_Types.xhtml#PsyllaReference_Types_Details_scalar" xlink:title="scalar" target="_parent">
<polygon fill="linen" stroke="black" points="371,-396 323,-396 323,-360 377,-360 377,-390 371,-396"/>
<polyline fill="none" stroke="black" points="371,-396 371,-390"/>
<polyline fill="none" stroke="black" points="377,-390 371,-390"/>
<text xml:space="preserve" text-anchor="middle" x="350" y="-374.4" font-family="Source Code Pro,monospace" font-size="12.00">scalar</text>
</a>
</g>
</g>
<!-- object&#45;&gt;scalar -->
<g id="edge18" class="edge">
<title>object&#45;&gt;scalar</title>
<path fill="none" stroke="black" d="M318.41,-503.59C324.52,-479.5 335.61,-435.75 342.89,-407.03"/>
<polygon fill="black" stroke="black" points="346.23,-408.13 345.29,-397.58 339.44,-406.41 346.23,-408.13"/>
</g>
<!-- value -->
<g id="node14" class="node">
<title>value</title>
<g id="a_node14"><a xlink:href="PsyllaReference_Types.xhtml#PsyllaReference_Types_Details_value" xlink:title="value" target="_parent">
<polygon fill="linen" stroke="black" points="409,-468 361,-468 361,-432 415,-432 415,-462 409,-468"/>
<polyline fill="none" stroke="black" points="409,-468 409,-462"/>
<polyline fill="none" stroke="black" points="415,-462 409,-462"/>
<text xml:space="preserve" text-anchor="middle" x="388" y="-446.4" font-family="Source Code Pro,monospace" font-size="12.00">value</text>
</a>
</g>
</g>
<!-- object&#45;&gt;value -->
<g id="edge21" class="edge">
<title>object&#45;&gt;value</title>
<path fill="none" stroke="black" d="M332.29,-503.7C341.1,-495.37 351.82,-485.22 361.5,-476.07"/>
<polygon fill="black" stroke="black" points="363.7,-478.8 368.56,-469.39 358.89,-473.72 363.7,-478.8"/>
</g>
<!-- additive -->
<g id="node15" class="node">
<title>additive</title>
<g id="a_node15"><a xlink:href="PsyllaReference_Types.xhtml#PsyllaReference_Types_Details_additive" xlink:title="additive" target="_parent">
<polygon fill="linen" stroke="black" points="481.33,-468 432.67,-468 432.67,-432 487.33,-432 487.33,-462 481.33,-468"/>
<polyline fill="none" stroke="black" points="481.33,-468 481.33,-462"/>
<polyline fill="none" stroke="black" points="487.33,-462 481.33,-462"/>
<text xml:space="preserve" text-anchor="middle" x="460" y="-446.4" font-family="Source Code Pro,monospace" font-size="12.00">additive</text>
</a>
</g>
</g>
<!-- object&#45;&gt;additive -->
<g id="edge22" class="edge">
<title>object&#45;&gt;additive</title>
<path fill="none" stroke="black" d="M341.46,-507.83C364.3,-496.88 397.04,-481.18 422.33,-469.06"/>
<polygon fill="black" stroke="black" points="423.79,-472.24 431.3,-464.76 420.77,-465.93 423.79,-472.24"/>
</g>
<!-- multiplicative -->
<g id="node16" class="node">
<title>multiplicative</title>
<g id="a_node16"><a xlink:href="PsyllaReference_Types.xhtml#PsyllaReference_Types_Details_multiplicative" xlink:title="multiplicative" target="_parent">
<polygon fill="linen" stroke="black" points="582.33,-468 505.67,-468 505.67,-432 588.33,-432 588.33,-462 582.33,-468"/>
<polyline fill="none" stroke="black" points="582.33,-468 582.33,-462"/>
<polyline fill="none" stroke="black" points="588.33,-462 582.33,-462"/>
<text xml:space="preserve" text-anchor="middle" x="547" y="-446.4" font-family="Source Code Pro,monospace" font-size="12.00">multiplicative</text>
</a>
</g>
</g>
<!-- object&#45;&gt;multiplicative -->
<g id="edge23" class="edge">
<title>object&#45;&gt;multiplicative</title>
<path fill="none" stroke="black" d="M341.23,-513.42C374.88,-503.98 434.13,-487.11 494.43,-468.43"/>
<polygon fill="black" stroke="black" points="495.34,-471.81 503.85,-465.5 493.26,-465.13 495.34,-471.81"/>
</g>
<!-- realnumeric -->
<g id="node7" class="node">
<title>realnumeric</title>
<g id="a_node7"><a xlink:href="PsyllaReference_Types.xhtml#PsyllaReference_Types_Details_realnumeric" xlink:title="realnumeric" target="_parent">
<polygon fill="linen" stroke="black" points="281.65,-252 214.35,-252 214.35,-216 287.65,-216 287.65,-246 281.65,-252"/>
<polyline fill="none" stroke="black" points="281.65,-252 281.65,-246"/>
<polyline fill="none" stroke="black" points="287.65,-246 281.65,-246"/>
<text xml:space="preserve" text-anchor="middle" x="251" y="-230.4" font-family="Source Code Pro,monospace" font-size="12.00">realnumeric</text>
</a>
</g>
</g>
<!-- realnumeric&#45;&gt;rational -->
<g id="edge7" class="edge">
<title>realnumeric&#45;&gt;rational</title>
<path fill="none" stroke="black" d="M225.77,-215.52C213.15,-206.76 197.68,-196.04 184.02,-186.58"/>
<polygon fill="black" stroke="black" points="186.36,-183.94 176.15,-181.12 182.37,-189.7 186.36,-183.94"/>
</g>
<!-- numeric -->
<g id="node8" class="node">
<title>numeric</title>
<g id="a_node8"><a xlink:href="PsyllaReference_Types.xhtml#PsyllaReference_Types_Details_numeric" xlink:title="numeric" target="_parent">
<polygon fill="linen" stroke="black" points="459.66,-324 410.34,-324 410.34,-288 465.66,-288 465.66,-318 459.66,-324"/>
<polyline fill="none" stroke="black" points="459.66,-324 459.66,-318"/>
<polyline fill="none" stroke="black" points="465.66,-318 459.66,-318"/>
<text xml:space="preserve" text-anchor="middle" x="438" y="-302.4" font-family="Source Code Pro,monospace" font-size="12.00">numeric</text>
</a>
</g>
</g>
<!-- numeric&#45;&gt;realnumeric -->
<g id="edge8" class="edge">
<title>numeric&#45;&gt;realnumeric</title>
<path fill="none" stroke="black" d="M410.04,-293.53C405.36,-291.65 400.55,-289.75 396,-288 363.76,-275.59 327.23,-262.24 298.9,-252.04"/>
<polygon fill="black" stroke="black" points="300.1,-248.76 289.5,-248.67 297.73,-255.34 300.1,-248.76"/>
</g>
<!-- convertabletointeger&#45;&gt;realnumeric -->
<g id="edge9" class="edge">
<title>convertabletointeger&#45;&gt;realnumeric</title>
<path fill="none" stroke="black" d="M154.97,-287.52C171.43,-278.51 191.71,-267.42 209.38,-257.76"/>
<polygon fill="black" stroke="black" points="211.02,-260.86 218.11,-252.99 207.66,-254.71 211.02,-260.86"/>
</g>
<!-- convertabletointegral&#45;&gt;realnumeric -->
<g id="edge10" class="edge">
<title>convertabletointegral&#45;&gt;realnumeric</title>
<path fill="none" stroke="black" d="M210.57,-359.65C213.52,-341.5 219,-312.31 227,-288 229.78,-279.56 233.48,-270.65 237.15,-262.61"/>
<polygon fill="black" stroke="black" points="240.27,-264.19 241.38,-253.66 233.94,-261.2 240.27,-264.19"/>
</g>
<!-- convertabletorational&#45;&gt;realnumeric -->
<g id="edge11" class="edge">
<title>convertabletorational&#45;&gt;realnumeric</title>
<path fill="none" stroke="black" d="M284.12,-287.7C279.22,-279.9 273.32,-270.51 267.86,-261.83"/>
<polygon fill="black" stroke="black" points="270.84,-259.99 262.56,-253.39 264.92,-263.71 270.84,-259.99"/>
</g>
<!-- scalar&#45;&gt;realnumeric -->
<g id="edge12" class="edge">
<title>scalar&#45;&gt;realnumeric</title>
<path fill="none" stroke="black" d="M358.98,-359.51C367.4,-340.45 376.78,-309.77 363,-288 348.89,-265.72 322.62,-252.62 299.06,-245.03"/>
<polygon fill="black" stroke="black" points="300.16,-241.7 289.58,-242.24 298.19,-248.42 300.16,-241.7"/>
</g>
<!-- arithmetic -->
<g id="node13" class="node">
<title>arithmetic</title>
<g id="a_node13"><a xlink:href="PsyllaReference_Types.xhtml#PsyllaReference_Types_Details_arithmetic" xlink:title="arithmetic" target="_parent">
<polygon fill="linen" stroke="black" points="491.32,-396 432.68,-396 432.68,-360 497.32,-360 497.32,-390 491.32,-396"/>
<polyline fill="none" stroke="black" points="491.32,-396 491.32,-390"/>
<polyline fill="none" stroke="black" points="497.32,-390 491.32,-390"/>
<text xml:space="preserve" text-anchor="middle" x="465" y="-374.4" font-family="Source Code Pro,monospace" font-size="12.00">arithmetic</text>
</a>
</g>
</g>
<!-- arithmetic&#45;&gt;numeric -->
<g id="edge13" class="edge">
<title>arithmetic&#45;&gt;numeric</title>
<path fill="none" stroke="black" d="M458.33,-359.7C455.42,-352.15 451.93,-343.12 448.68,-334.68"/>
<polygon fill="black" stroke="black" points="452.01,-333.59 445.14,-325.52 445.48,-336.11 452.01,-333.59"/>
</g>
<!-- value&#45;&gt;numeric -->
<g id="edge14" class="edge">
<title>value&#45;&gt;numeric</title>
<path fill="none" stroke="black" d="M394.13,-431.59C402.65,-407.4 418.15,-363.36 428.26,-334.65"/>
<polygon fill="black" stroke="black" points="431.45,-336.13 431.47,-325.54 424.85,-333.81 431.45,-336.13"/>
</g>
<!-- additive&#45;&gt;arithmetic -->
<g id="edge19" class="edge">
<title>additive&#45;&gt;arithmetic</title>
<path fill="none" stroke="black" d="M461.24,-431.7C461.76,-424.41 462.38,-415.73 462.96,-407.54"/>
<polygon fill="black" stroke="black" points="466.45,-407.84 463.67,-397.61 459.47,-407.34 466.45,-407.84"/>
</g>
<!-- multiplicative&#45;&gt;arithmetic -->
<g id="edge20" class="edge">
<title>multiplicative&#45;&gt;arithmetic</title>
<path fill="none" stroke="black" d="M526.73,-431.7C516.87,-423.28 504.85,-413.02 494.04,-403.79"/>
<polygon fill="black" stroke="black" points="496.35,-401.16 486.47,-397.33 491.81,-406.48 496.35,-401.16"/>
</g>
</g>
</svg>
