<?xml version="1.0" encoding="UTF-8" standalone="no"?>
<!DOCTYPE svg PUBLIC "-//W3C//DTD SVG 1.1//EN"
 "http://www.w3.org/Graphics/SVG/1.1/DTD/svg11.dtd">
<!-- Generated by graphviz version 2.43.0 (0)
 -->
<!-- Title: integer Pages: 1 -->
<svg width="308pt" height="476pt"
 viewBox="0.00 0.00 307.50 476.00" xmlns="http://www.w3.org/2000/svg" xmlns:xlink="http://www.w3.org/1999/xlink">
<g id="graph0" class="graph" transform="scale(1 1) rotate(0) translate(4 472)">
<title>integer</title>
<polygon fill="transparent" stroke="transparent" points="-4,4 -4,-472 303.5,-472 303.5,4 -4,4"/>
<!-- bitwise -->
<g id="node1" class="node">
<title>bitwise</title>
<g id="a_node1"><a xlink:href="PsyllaReference_Types.xhtml#PsyllaReference_Types_Details_bitwise" xlink:title="bitwise" target="_parent">
<polygon fill="linen" stroke="black" points="291.5,-324 228.5,-324 228.5,-288 297.5,-288 297.5,-318 291.5,-324"/>
<polyline fill="none" stroke="black" points="291.5,-324 291.5,-318 "/>
<polyline fill="none" stroke="black" points="297.5,-318 291.5,-318 "/>
<text text-anchor="middle" x="263" y="-302.9" font-family="Consolas, monospace" font-size="12.00">bitwise</text>
</a>
</g>
</g>
<!-- integral -->
<g id="node2" class="node">
<title>integral</title>
<g id="a_node2"><a xlink:href="PsyllaReference_Types.xhtml#PsyllaReference_Types_Details_integral" xlink:title="integral" target="_parent">
<polygon fill="linen" stroke="black" points="264.5,-108 193.5,-108 193.5,-72 270.5,-72 270.5,-102 264.5,-108"/>
<polyline fill="none" stroke="black" points="264.5,-108 264.5,-102 "/>
<polyline fill="none" stroke="black" points="270.5,-102 264.5,-102 "/>
<text text-anchor="middle" x="232" y="-86.9" font-family="Consolas, monospace" font-size="12.00">integral</text>
</a>
</g>
</g>
<!-- bitwise&#45;&gt;integral -->
<g id="edge4" class="edge">
<title>bitwise&#45;&gt;integral</title>
<path fill="none" stroke="black" d="M261.05,-287.56C257.68,-257.97 250.3,-196.05 242,-144 240.65,-135.55 238.99,-126.37 237.41,-118.07"/>
<polygon fill="black" stroke="black" points="240.83,-117.29 235.49,-108.14 233.96,-118.63 240.83,-117.29"/>
</g>
<!-- integer -->
<g id="node3" class="node">
<title>integer</title>
<g id="a_node3"><a xlink:href="PsyllaReference_Types.xhtml#PsyllaReference_Types_Details_integer" xlink:title="integer" target="_parent">
<polygon fill="wheat" stroke="black" points="293.5,-36 230.5,-36 230.5,0 299.5,0 299.5,-30 293.5,-36"/>
<polyline fill="none" stroke="black" points="293.5,-36 293.5,-30 "/>
<polyline fill="none" stroke="black" points="299.5,-30 293.5,-30 "/>
<text text-anchor="middle" x="265" y="-14.9" font-family="Consolas, monospace" font-size="12.00">integer</text>
</a>
</g>
</g>
<!-- bitwise&#45;&gt;integer -->
<g id="edge1" class="edge">
<title>bitwise&#45;&gt;integer</title>
<path fill="none" stroke="black" d="M266.69,-287.96C274.5,-249.36 291.15,-152.35 280,-72 278.82,-63.48 276.61,-54.39 274.25,-46.2"/>
<polygon fill="black" stroke="black" points="277.52,-44.94 271.24,-36.41 270.83,-46.99 277.52,-44.94"/>
</g>
<!-- integral&#45;&gt;integer -->
<g id="edge2" class="edge">
<title>integral&#45;&gt;integer</title>
<path fill="none" stroke="black" d="M240.16,-71.7C243.91,-63.73 248.45,-54.1 252.62,-45.26"/>
<polygon fill="black" stroke="black" points="255.84,-46.64 256.94,-36.1 249.51,-43.66 255.84,-46.64"/>
</g>
<!-- logical -->
<g id="node4" class="node">
<title>logical</title>
<g id="a_node4"><a xlink:href="PsyllaReference_Types.xhtml#PsyllaReference_Types_Details_logical" xlink:title="logical" target="_parent">
<polygon fill="linen" stroke="black" points="291.5,-396 228.5,-396 228.5,-360 297.5,-360 297.5,-390 291.5,-396"/>
<polyline fill="none" stroke="black" points="291.5,-396 291.5,-390 "/>
<polyline fill="none" stroke="black" points="297.5,-390 291.5,-390 "/>
<text text-anchor="middle" x="263" y="-374.9" font-family="Consolas, monospace" font-size="12.00">logical</text>
</a>
</g>
</g>
<!-- logical&#45;&gt;bitwise -->
<g id="edge3" class="edge">
<title>logical&#45;&gt;bitwise</title>
<path fill="none" stroke="black" d="M263,-359.7C263,-351.98 263,-342.71 263,-334.11"/>
<polygon fill="black" stroke="black" points="266.5,-334.1 263,-324.1 259.5,-334.1 266.5,-334.1"/>
</g>
<!-- realnumeric -->
<g id="node5" class="node">
<title>realnumeric</title>
<g id="a_node5"><a xlink:href="PsyllaReference_Types.xhtml#PsyllaReference_Types_Details_realnumeric" xlink:title="realnumeric" target="_parent">
<polygon fill="linen" stroke="black" points="226.5,-180 133.5,-180 133.5,-144 232.5,-144 232.5,-174 226.5,-180"/>
<polyline fill="none" stroke="black" points="226.5,-180 226.5,-174 "/>
<polyline fill="none" stroke="black" points="232.5,-174 226.5,-174 "/>
<text text-anchor="middle" x="183" y="-158.9" font-family="Consolas, monospace" font-size="12.00">realnumeric</text>
</a>
</g>
</g>
<!-- realnumeric&#45;&gt;integral -->
<g id="edge5" class="edge">
<title>realnumeric&#45;&gt;integral</title>
<path fill="none" stroke="black" d="M195.11,-143.7C200.87,-135.47 207.86,-125.48 214.21,-116.42"/>
<polygon fill="black" stroke="black" points="217.16,-118.3 220.03,-108.1 211.42,-114.29 217.16,-118.3"/>
</g>
<!-- object -->
<g id="node6" class="node">
<title>object</title>
<g id="a_node6"><a xlink:href="PsyllaReference_Types.xhtml#PsyllaReference_Types_Details_object" xlink:title="object" target="_parent">
<polygon fill="linen" stroke="black" points="191,-468 135,-468 135,-432 197,-432 197,-462 191,-468"/>
<polyline fill="none" stroke="black" points="191,-468 191,-462 "/>
<polyline fill="none" stroke="black" points="197,-462 191,-462 "/>
<text text-anchor="middle" x="166" y="-446.9" font-family="Consolas, monospace" font-size="12.00">object</text>
</a>
</g>
</g>
<!-- object&#45;&gt;logical -->
<g id="edge6" class="edge">
<title>object&#45;&gt;logical</title>
<path fill="none" stroke="black" d="M189.98,-431.7C202.31,-422.8 217.52,-411.82 230.85,-402.2"/>
<polygon fill="black" stroke="black" points="233.24,-404.79 239.3,-396.1 229.14,-399.12 233.24,-404.79"/>
</g>
<!-- scalar -->
<g id="node8" class="node">
<title>scalar</title>
<g id="a_node8"><a xlink:href="PsyllaReference_Types.xhtml#PsyllaReference_Types_Details_scalar" xlink:title="scalar" target="_parent">
<polygon fill="linen" stroke="black" points="225,-252 169,-252 169,-216 231,-216 231,-246 225,-252"/>
<polyline fill="none" stroke="black" points="225,-252 225,-246 "/>
<polyline fill="none" stroke="black" points="231,-246 225,-246 "/>
<text text-anchor="middle" x="200" y="-230.9" font-family="Consolas, monospace" font-size="12.00">scalar</text>
</a>
</g>
</g>
<!-- object&#45;&gt;scalar -->
<g id="edge11" class="edge">
<title>object&#45;&gt;scalar</title>
<path fill="none" stroke="black" d="M169.41,-431.84C171.43,-421.48 173.97,-408 176,-396 183.9,-349.18 191.77,-294.47 196.24,-262.39"/>
<polygon fill="black" stroke="black" points="199.72,-262.81 197.63,-252.43 192.79,-261.85 199.72,-262.81"/>
</g>
<!-- atomic -->
<g id="node9" class="node">
<title>atomic</title>
<g id="a_node9"><a xlink:href="PsyllaReference_Types.xhtml#PsyllaReference_Types_Details_atomic" xlink:title="atomic" target="_parent">
<polygon fill="linen" stroke="black" points="56,-324 0,-324 0,-288 62,-288 62,-318 56,-324"/>
<polyline fill="none" stroke="black" points="56,-324 56,-318 "/>
<polyline fill="none" stroke="black" points="62,-318 56,-318 "/>
<text text-anchor="middle" x="31" y="-302.9" font-family="Consolas, monospace" font-size="12.00">atomic</text>
</a>
</g>
</g>
<!-- object&#45;&gt;atomic -->
<g id="edge12" class="edge">
<title>object&#45;&gt;atomic</title>
<path fill="none" stroke="black" d="M134.62,-434.35C117.29,-425.14 96.26,-411.97 81,-396 63.59,-377.78 50.09,-352.33 41.53,-333.32"/>
<polygon fill="black" stroke="black" points="44.7,-331.82 37.51,-324.03 38.28,-334.6 44.7,-331.82"/>
</g>
<!-- additive -->
<g id="node11" class="node">
<title>additive</title>
<g id="a_node11"><a xlink:href="PsyllaReference_Types.xhtml#PsyllaReference_Types_Details_additive" xlink:title="additive" target="_parent">
<polygon fill="linen" stroke="black" points="161.5,-396 90.5,-396 90.5,-360 167.5,-360 167.5,-390 161.5,-396"/>
<polyline fill="none" stroke="black" points="161.5,-396 161.5,-390 "/>
<polyline fill="none" stroke="black" points="167.5,-390 161.5,-390 "/>
<text text-anchor="middle" x="129" y="-374.9" font-family="Consolas, monospace" font-size="12.00">additive</text>
</a>
</g>
</g>
<!-- object&#45;&gt;additive -->
<g id="edge14" class="edge">
<title>object&#45;&gt;additive</title>
<path fill="none" stroke="black" d="M156.85,-431.7C152.6,-423.64 147.44,-413.89 142.73,-404.98"/>
<polygon fill="black" stroke="black" points="145.81,-403.31 138.04,-396.1 139.62,-406.58 145.81,-403.31"/>
</g>
<!-- numeric -->
<g id="node7" class="node">
<title>numeric</title>
<g id="a_node7"><a xlink:href="PsyllaReference_Types.xhtml#PsyllaReference_Types_Details_numeric" xlink:title="numeric" target="_parent">
<polygon fill="linen" stroke="black" points="144.5,-252 81.5,-252 81.5,-216 150.5,-216 150.5,-246 144.5,-252"/>
<polyline fill="none" stroke="black" points="144.5,-252 144.5,-246 "/>
<polyline fill="none" stroke="black" points="150.5,-246 144.5,-246 "/>
<text text-anchor="middle" x="116" y="-230.9" font-family="Consolas, monospace" font-size="12.00">numeric</text>
</a>
</g>
</g>
<!-- numeric&#45;&gt;realnumeric -->
<g id="edge7" class="edge">
<title>numeric&#45;&gt;realnumeric</title>
<path fill="none" stroke="black" d="M132.56,-215.7C140.68,-207.22 150.59,-196.86 159.47,-187.58"/>
<polygon fill="black" stroke="black" points="162.24,-189.75 166.63,-180.1 157.19,-184.91 162.24,-189.75"/>
</g>
<!-- scalar&#45;&gt;realnumeric -->
<g id="edge8" class="edge">
<title>scalar&#45;&gt;realnumeric</title>
<path fill="none" stroke="black" d="M195.8,-215.7C193.9,-207.9 191.62,-198.51 189.52,-189.83"/>
<polygon fill="black" stroke="black" points="192.92,-189 187.15,-180.1 186.11,-190.65 192.92,-189"/>
</g>
<!-- atomic&#45;&gt;numeric -->
<g id="edge9" class="edge">
<title>atomic&#45;&gt;numeric</title>
<path fill="none" stroke="black" d="M52.01,-287.7C62.72,-278.88 75.89,-268.03 87.5,-258.47"/>
<polygon fill="black" stroke="black" points="89.74,-261.16 95.23,-252.1 85.29,-255.76 89.74,-261.16"/>
</g>
<!-- arithmetic -->
<g id="node10" class="node">
<title>arithmetic</title>
<g id="a_node10"><a xlink:href="PsyllaReference_Types.xhtml#PsyllaReference_Types_Details_arithmetic" xlink:title="arithmetic" target="_parent">
<polygon fill="linen" stroke="black" points="166,-324 80,-324 80,-288 172,-288 172,-318 166,-324"/>
<polyline fill="none" stroke="black" points="166,-324 166,-318 "/>
<polyline fill="none" stroke="black" points="172,-318 166,-318 "/>
<text text-anchor="middle" x="126" y="-302.9" font-family="Consolas, monospace" font-size="12.00">arithmetic</text>
</a>
</g>
</g>
<!-- arithmetic&#45;&gt;numeric -->
<g id="edge10" class="edge">
<title>arithmetic&#45;&gt;numeric</title>
<path fill="none" stroke="black" d="M123.53,-287.7C122.43,-279.98 121.1,-270.71 119.87,-262.11"/>
<polygon fill="black" stroke="black" points="123.32,-261.51 118.44,-252.1 116.39,-262.5 123.32,-261.51"/>
</g>
<!-- additive&#45;&gt;arithmetic -->
<g id="edge13" class="edge">
<title>additive&#45;&gt;arithmetic</title>
<path fill="none" stroke="black" d="M128.26,-359.7C127.93,-351.98 127.53,-342.71 127.16,-334.11"/>
<polygon fill="black" stroke="black" points="130.66,-333.95 126.73,-324.1 123.66,-334.25 130.66,-333.95"/>
</g>
</g>
</svg>
