<?xml version="1.0" encoding="UTF-8" standalone="no"?>
<!DOCTYPE svg PUBLIC "-//W3C//DTD SVG 1.1//EN"
 "http://www.w3.org/Graphics/SVG/1.1/DTD/svg11.dtd">
<!-- Generated by graphviz version 2.43.0 (0)
 -->
<!-- Title: reader Pages: 1 -->
<svg width="359pt" height="260pt"
 viewBox="0.00 0.00 359.00 260.00" xmlns="http://www.w3.org/2000/svg" xmlns:xlink="http://www.w3.org/1999/xlink">
<g id="graph0" class="graph" transform="scale(1 1) rotate(0) translate(4 256)">
<title>reader</title>
<polygon fill="transparent" stroke="transparent" points="-4,4 -4,-256 355,-256 355,4 -4,4"/>
<!-- closeable -->
<g id="node1" class="node">
<title>closeable</title>
<g id="a_node1"><a xlink:href="PsyllaReference_Types.xhtml#PsyllaReference_Types_Details_closeable" xlink:title="closeable" target="_parent">
<polygon fill="linen" stroke="black" points="85,-108 0,-108 0,-72 91,-72 91,-102 85,-108"/>
<polyline fill="none" stroke="black" points="85,-108 85,-102 "/>
<polyline fill="none" stroke="black" points="91,-102 85,-102 "/>
<text text-anchor="middle" x="45.5" y="-86.3" font-family="Consolas, monospace" font-size="14.00">closeable</text>
</a>
</g>
</g>
<!-- reader -->
<g id="node5" class="node">
<title>reader</title>
<g id="a_node5"><a xlink:href="PsyllaReference_Types.xhtml#PsyllaReference_Types_Details_reader" xlink:title="reader" target="_parent">
<polygon fill="wheat" stroke="black" points="218.5,-36 158.5,-36 158.5,0 224.5,0 224.5,-30 218.5,-36"/>
<polyline fill="none" stroke="black" points="218.5,-36 218.5,-30 "/>
<polyline fill="none" stroke="black" points="224.5,-30 218.5,-30 "/>
<text text-anchor="middle" x="191.5" y="-14.3" font-family="Consolas, monospace" font-size="14.00">reader</text>
</a>
</g>
</g>
<!-- closeable&#45;&gt;reader -->
<g id="edge1" class="edge">
<title>closeable&#45;&gt;reader</title>
<path fill="none" stroke="black" d="M81.22,-71.88C101.66,-62.07 127.44,-49.72 148.93,-39.41"/>
<polygon fill="black" stroke="black" points="150.65,-42.47 158.15,-34.99 147.62,-36.15 150.65,-42.47"/>
</g>
<!-- evaluable -->
<g id="node2" class="node">
<title>evaluable</title>
<g id="a_node2"><a xlink:href="PsyllaReference_Types.xhtml#PsyllaReference_Types_Details_evaluable" xlink:title="evaluable" target="_parent">
<polygon fill="linen" stroke="black" points="194,-108 109,-108 109,-72 200,-72 200,-102 194,-108"/>
<polyline fill="none" stroke="black" points="194,-108 194,-102 "/>
<polyline fill="none" stroke="black" points="200,-102 194,-102 "/>
<text text-anchor="middle" x="154.5" y="-86.3" font-family="Consolas, monospace" font-size="14.00">evaluable</text>
</a>
</g>
</g>
<!-- evaluable&#45;&gt;reader -->
<g id="edge2" class="edge">
<title>evaluable&#45;&gt;reader</title>
<path fill="none" stroke="black" d="M163.65,-71.7C167.9,-63.64 173.06,-53.89 177.77,-44.98"/>
<polygon fill="black" stroke="black" points="180.88,-46.58 182.46,-36.1 174.69,-43.31 180.88,-46.58"/>
</g>
<!-- readable -->
<g id="node3" class="node">
<title>readable</title>
<g id="a_node3"><a xlink:href="PsyllaReference_Types.xhtml#PsyllaReference_Types_Details_readable" xlink:title="readable" target="_parent">
<polygon fill="linen" stroke="black" points="345,-108 268,-108 268,-72 351,-72 351,-102 345,-108"/>
<polyline fill="none" stroke="black" points="345,-108 345,-102 "/>
<polyline fill="none" stroke="black" points="351,-102 345,-102 "/>
<text text-anchor="middle" x="309.5" y="-86.3" font-family="Consolas, monospace" font-size="14.00">readable</text>
</a>
</g>
</g>
<!-- readable&#45;&gt;reader -->
<g id="edge3" class="edge">
<title>readable&#45;&gt;reader</title>
<path fill="none" stroke="black" d="M280.63,-71.88C265.21,-62.72 246.02,-51.34 229.4,-41.48"/>
<polygon fill="black" stroke="black" points="230.86,-38.28 220.48,-36.19 227.29,-44.3 230.86,-38.28"/>
</g>
<!-- resetable -->
<g id="node4" class="node">
<title>resetable</title>
<g id="a_node4"><a xlink:href="PsyllaReference_Types.xhtml#PsyllaReference_Types_Details_resetable" xlink:title="resetable" target="_parent">
<polygon fill="linen" stroke="black" points="262,-180 177,-180 177,-144 268,-144 268,-174 262,-180"/>
<polyline fill="none" stroke="black" points="262,-180 262,-174 "/>
<polyline fill="none" stroke="black" points="268,-174 262,-174 "/>
<text text-anchor="middle" x="222.5" y="-158.3" font-family="Consolas, monospace" font-size="14.00">resetable</text>
</a>
</g>
</g>
<!-- resetable&#45;&gt;reader -->
<g id="edge4" class="edge">
<title>resetable&#45;&gt;reader</title>
<path fill="none" stroke="black" d="M220.59,-143.79C218.41,-125.74 214.36,-96.65 208.5,-72 206.47,-63.44 203.73,-54.27 201.05,-46.01"/>
<polygon fill="black" stroke="black" points="204.35,-44.84 197.86,-36.47 197.71,-47.07 204.35,-44.84"/>
</g>
<!-- object -->
<g id="node6" class="node">
<title>object</title>
<g id="a_node6"><a xlink:href="PsyllaReference_Types.xhtml#PsyllaReference_Types_Details_object" xlink:title="object" target="_parent">
<polygon fill="linen" stroke="black" points="212.5,-252 152.5,-252 152.5,-216 218.5,-216 218.5,-246 212.5,-252"/>
<polyline fill="none" stroke="black" points="212.5,-252 212.5,-246 "/>
<polyline fill="none" stroke="black" points="218.5,-246 212.5,-246 "/>
<text text-anchor="middle" x="185.5" y="-230.3" font-family="Consolas, monospace" font-size="14.00">object</text>
</a>
</g>
</g>
<!-- object&#45;&gt;closeable -->
<g id="edge5" class="edge">
<title>object&#45;&gt;closeable</title>
<path fill="none" stroke="black" d="M168.61,-215.87C143.91,-190.82 97.8,-144.05 69.56,-115.41"/>
<polygon fill="black" stroke="black" points="71.96,-112.85 62.45,-108.19 66.98,-117.77 71.96,-112.85"/>
</g>
<!-- object&#45;&gt;evaluable -->
<g id="edge6" class="edge">
<title>object&#45;&gt;evaluable</title>
<path fill="none" stroke="black" d="M178.68,-215.57C174.91,-205.34 170.41,-192.09 167.5,-180 162.6,-159.63 159.26,-136.17 157.2,-118.45"/>
<polygon fill="black" stroke="black" points="160.65,-117.8 156.08,-108.24 153.69,-118.56 160.65,-117.8"/>
</g>
<!-- object&#45;&gt;resetable -->
<g id="edge8" class="edge">
<title>object&#45;&gt;resetable</title>
<path fill="none" stroke="black" d="M194.65,-215.7C198.9,-207.64 204.06,-197.89 208.77,-188.98"/>
<polygon fill="black" stroke="black" points="211.88,-190.58 213.46,-180.1 205.69,-187.31 211.88,-190.58"/>
</g>
<!-- ready -->
<g id="node7" class="node">
<title>ready</title>
<g id="a_node7"><a xlink:href="PsyllaReference_Types.xhtml#PsyllaReference_Types_Details_ready" xlink:title="ready" target="_parent">
<polygon fill="linen" stroke="black" points="338.5,-180 286.5,-180 286.5,-144 344.5,-144 344.5,-174 338.5,-180"/>
<polyline fill="none" stroke="black" points="338.5,-180 338.5,-174 "/>
<polyline fill="none" stroke="black" points="344.5,-174 338.5,-174 "/>
<text text-anchor="middle" x="315.5" y="-158.3" font-family="Consolas, monospace" font-size="14.00">ready</text>
</a>
</g>
</g>
<!-- object&#45;&gt;ready -->
<g id="edge9" class="edge">
<title>object&#45;&gt;ready</title>
<path fill="none" stroke="black" d="M217.3,-215.88C235.39,-206.14 258.16,-193.87 277.23,-183.61"/>
<polygon fill="black" stroke="black" points="279.1,-186.57 286.25,-178.75 275.79,-180.41 279.1,-186.57"/>
</g>
<!-- ready&#45;&gt;readable -->
<g id="edge7" class="edge">
<title>ready&#45;&gt;readable</title>
<path fill="none" stroke="black" d="M314.02,-143.7C313.36,-135.98 312.56,-126.71 311.82,-118.11"/>
<polygon fill="black" stroke="black" points="315.31,-117.77 310.97,-108.1 308.33,-118.37 315.31,-117.77"/>
</g>
</g>
</svg>
