<?xml version="1.0" encoding="UTF-8" standalone="no"?>
<!DOCTYPE svg PUBLIC "-//W3C//DTD SVG 1.1//EN"
 "http://www.w3.org/Graphics/SVG/1.1/DTD/svg11.dtd">
<!-- Generated by graphviz version 14.0.0 (0)
 -->
<!-- Title: convertabletointegral Pages: 1 -->
<svg width="126pt" height="116pt"
 viewBox="0.00 0.00 126.00 116.00" xmlns="http://www.w3.org/2000/svg" xmlns:xlink="http://www.w3.org/1999/xlink">
<g id="graph0" class="graph" transform="scale(1 1) rotate(0) translate(4 112)">
<title>convertabletointegral</title>
<polygon fill="none" stroke="none" points="-4,4 -4,-112 121.95,-112 121.95,4 -4,4"/>
<!-- object -->
<g id="node1" class="node">
<title>object</title>
<g id="a_node1"><a xlink:href="PsyllaReference_Types.xhtml#PsyllaReference_Types_Details_object" xlink:title="object" target="_parent">
<polygon fill="linen" stroke="black" points="79.98,-108 31.98,-108 31.98,-72 85.98,-72 85.98,-102 79.98,-108"/>
<polyline fill="none" stroke="black" points="79.98,-108 79.98,-102"/>
<polyline fill="none" stroke="black" points="85.98,-102 79.98,-102"/>
<text xml:space="preserve" text-anchor="middle" x="58.98" y="-86.4" font-family="Source Code Pro,monospace" font-size="12.00">object</text>
</a>
</g>
</g>
<!-- convertabletointegral -->
<g id="node2" class="node">
<title>convertabletointegral</title>
<g id="a_node2"><a xlink:href="PsyllaReference_Types.xhtml#PsyllaReference_Types_Details_convertabletointegral" xlink:title="convertabletointegral" target="_parent">
<polygon fill="wheat" stroke="black" points="111.95,-36 0,-36 0,0 117.95,0 117.95,-30 111.95,-36"/>
<polyline fill="none" stroke="black" points="111.95,-36 111.95,-30"/>
<polyline fill="none" stroke="black" points="117.95,-30 111.95,-30"/>
<text xml:space="preserve" text-anchor="middle" x="58.98" y="-14.4" font-family="Source Code Pro,monospace" font-size="12.00">convertabletointegral</text>
</a>
</g>
</g>
<!-- object&#45;&gt;convertabletointegral -->
<g id="edge1" class="edge">
<title>object&#45;&gt;convertabletointegral</title>
<path fill="none" stroke="black" d="M58.98,-71.7C58.98,-64.41 58.98,-55.73 58.98,-47.54"/>
<polygon fill="black" stroke="black" points="62.48,-47.62 58.98,-37.62 55.48,-47.62 62.48,-47.62"/>
</g>
</g>
</svg>
