<?xml version="1.0" encoding="UTF-8" standalone="no"?>
<!DOCTYPE svg PUBLIC "-//W3C//DTD SVG 1.1//EN"
 "http://www.w3.org/Graphics/SVG/1.1/DTD/svg11.dtd">
<!-- Generated by graphviz version 2.43.0 (0)
 -->
<!-- Title: name Pages: 1 -->
<svg width="344pt" height="404pt"
 viewBox="0.00 0.00 344.00 404.00" xmlns="http://www.w3.org/2000/svg" xmlns:xlink="http://www.w3.org/1999/xlink">
<g id="graph0" class="graph" transform="scale(1 1) rotate(0) translate(4 400)">
<title>name</title>
<polygon fill="transparent" stroke="transparent" points="-4,4 -4,-400 340,-400 340,4 -4,4"/>
<!-- atomic -->
<g id="node1" class="node">
<title>atomic</title>
<g id="a_node1"><a xlink:href="PsyllaReference_Types.xhtml#PsyllaReference_Types_Details_atomic" xlink:title="atomic" target="_parent">
<polygon fill="linen" stroke="black" points="56,-252 0,-252 0,-216 62,-216 62,-246 56,-252"/>
<polyline fill="none" stroke="black" points="56,-252 56,-246 "/>
<polyline fill="none" stroke="black" points="62,-246 56,-246 "/>
<text text-anchor="middle" x="31" y="-230.9" font-family="PT Mono, monospace" font-size="12.00">atomic</text>
</a>
</g>
</g>
<!-- name -->
<g id="node3" class="node">
<title>name</title>
<g id="a_node3"><a xlink:href="PsyllaReference_Types.xhtml#PsyllaReference_Types_Details_name" xlink:title="name" target="_parent">
<polygon fill="wheat" stroke="black" points="122,-36 74,-36 74,0 128,0 128,-30 122,-36"/>
<polyline fill="none" stroke="black" points="122,-36 122,-30 "/>
<polyline fill="none" stroke="black" points="128,-30 122,-30 "/>
<text text-anchor="middle" x="101" y="-14.9" font-family="PT Mono, monospace" font-size="12.00">name</text>
</a>
</g>
</g>
<!-- atomic&#45;&gt;name -->
<g id="edge1" class="edge">
<title>atomic&#45;&gt;name</title>
<path fill="none" stroke="black" d="M33.76,-215.71C36.86,-197.6 42.46,-168.46 50,-144 60.78,-109 77.4,-70.16 88.72,-45.2"/>
<polygon fill="black" stroke="black" points="91.93,-46.59 92.92,-36.04 85.57,-43.67 91.93,-46.59"/>
</g>
<!-- textual -->
<g id="node2" class="node">
<title>textual</title>
<g id="a_node2"><a xlink:href="PsyllaReference_Types.xhtml#PsyllaReference_Types_Details_textual" xlink:title="textual" target="_parent">
<polygon fill="linen" stroke="black" points="199.5,-108 136.5,-108 136.5,-72 205.5,-72 205.5,-102 199.5,-108"/>
<polyline fill="none" stroke="black" points="199.5,-108 199.5,-102 "/>
<polyline fill="none" stroke="black" points="205.5,-102 199.5,-102 "/>
<text text-anchor="middle" x="171" y="-86.9" font-family="PT Mono, monospace" font-size="12.00">textual</text>
</a>
</g>
</g>
<!-- textual&#45;&gt;name -->
<g id="edge2" class="edge">
<title>textual&#45;&gt;name</title>
<path fill="none" stroke="black" d="M153.7,-71.7C145.14,-63.14 134.66,-52.66 125.3,-43.3"/>
<polygon fill="black" stroke="black" points="127.65,-40.7 118.1,-36.1 122.7,-45.65 127.65,-40.7"/>
</g>
<!-- object -->
<g id="node4" class="node">
<title>object</title>
<g id="a_node4"><a xlink:href="PsyllaReference_Types.xhtml#PsyllaReference_Types_Details_object" xlink:title="object" target="_parent">
<polygon fill="linen" stroke="black" points="161,-396 105,-396 105,-360 167,-360 167,-390 161,-396"/>
<polyline fill="none" stroke="black" points="161,-396 161,-390 "/>
<polyline fill="none" stroke="black" points="167,-390 161,-390 "/>
<text text-anchor="middle" x="136" y="-374.9" font-family="PT Mono, monospace" font-size="12.00">object</text>
</a>
</g>
</g>
<!-- object&#45;&gt;atomic -->
<g id="edge3" class="edge">
<title>object&#45;&gt;atomic</title>
<path fill="none" stroke="black" d="M112.71,-359.9C100.71,-350.29 86.45,-337.53 76,-324 61.2,-304.84 49.14,-280.05 41.24,-261.5"/>
<polygon fill="black" stroke="black" points="44.44,-260.08 37.4,-252.17 37.97,-262.75 44.44,-260.08"/>
</g>
<!-- evaluable -->
<g id="node5" class="node">
<title>evaluable</title>
<g id="a_node5"><a xlink:href="PsyllaReference_Types.xhtml#PsyllaReference_Types_Details_evaluable" xlink:title="evaluable" target="_parent">
<polygon fill="linen" stroke="black" points="137,-180 59,-180 59,-144 143,-144 143,-174 137,-180"/>
<polyline fill="none" stroke="black" points="137,-180 137,-174 "/>
<polyline fill="none" stroke="black" points="143,-174 137,-174 "/>
<text text-anchor="middle" x="101" y="-158.9" font-family="PT Mono, monospace" font-size="12.00">evaluable</text>
</a>
</g>
</g>
<!-- object&#45;&gt;evaluable -->
<g id="edge8" class="edge">
<title>object&#45;&gt;evaluable</title>
<path fill="none" stroke="black" d="M131.56,-359.73C125.56,-335.73 114.92,-290.85 109,-252 105.87,-231.42 103.82,-207.97 102.58,-190.31"/>
<polygon fill="black" stroke="black" points="106.06,-189.89 101.91,-180.14 99.08,-190.35 106.06,-189.89"/>
</g>
<!-- lengthy -->
<g id="node7" class="node">
<title>lengthy</title>
<g id="a_node7"><a xlink:href="PsyllaReference_Types.xhtml#PsyllaReference_Types_Details_lengthy" xlink:title="lengthy" target="_parent">
<polygon fill="linen" stroke="black" points="181.5,-252 118.5,-252 118.5,-216 187.5,-216 187.5,-246 181.5,-252"/>
<polyline fill="none" stroke="black" points="181.5,-252 181.5,-246 "/>
<polyline fill="none" stroke="black" points="187.5,-246 181.5,-246 "/>
<text text-anchor="middle" x="153" y="-230.9" font-family="PT Mono, monospace" font-size="12.00">lengthy</text>
</a>
</g>
</g>
<!-- object&#45;&gt;lengthy -->
<g id="edge10" class="edge">
<title>object&#45;&gt;lengthy</title>
<path fill="none" stroke="black" d="M138.05,-359.87C140.95,-335.67 146.27,-291.21 149.72,-262.39"/>
<polygon fill="black" stroke="black" points="153.23,-262.53 150.94,-252.19 146.28,-261.7 153.23,-262.53"/>
</g>
<!-- scalar -->
<g id="node8" class="node">
<title>scalar</title>
<g id="a_node8"><a xlink:href="PsyllaReference_Types.xhtml#PsyllaReference_Types_Details_scalar" xlink:title="scalar" target="_parent">
<polygon fill="linen" stroke="black" points="220,-324 164,-324 164,-288 226,-288 226,-318 220,-324"/>
<polyline fill="none" stroke="black" points="220,-324 220,-318 "/>
<polyline fill="none" stroke="black" points="226,-318 220,-318 "/>
<text text-anchor="middle" x="195" y="-302.9" font-family="PT Mono, monospace" font-size="12.00">scalar</text>
</a>
</g>
</g>
<!-- object&#45;&gt;scalar -->
<g id="edge11" class="edge">
<title>object&#45;&gt;scalar</title>
<path fill="none" stroke="black" d="M150.58,-359.7C157.66,-351.3 166.28,-341.07 174.05,-331.86"/>
<polygon fill="black" stroke="black" points="176.81,-334.01 180.58,-324.1 171.46,-329.49 176.81,-334.01"/>
</g>
<!-- sequential -->
<g id="node10" class="node">
<title>sequential</title>
<g id="a_node10"><a xlink:href="PsyllaReference_Types.xhtml#PsyllaReference_Types_Details_sequential" xlink:title="sequential" target="_parent">
<polygon fill="linen" stroke="black" points="330,-324 244,-324 244,-288 336,-288 336,-318 330,-324"/>
<polyline fill="none" stroke="black" points="330,-324 330,-318 "/>
<polyline fill="none" stroke="black" points="336,-318 330,-318 "/>
<text text-anchor="middle" x="290" y="-302.9" font-family="PT Mono, monospace" font-size="12.00">sequential</text>
</a>
</g>
</g>
<!-- object&#45;&gt;sequential -->
<g id="edge13" class="edge">
<title>object&#45;&gt;sequential</title>
<path fill="none" stroke="black" d="M167.16,-362.83C188.99,-352.92 218.53,-339.49 243.17,-328.29"/>
<polygon fill="black" stroke="black" points="244.7,-331.44 252.35,-324.11 241.8,-325.06 244.7,-331.44"/>
</g>
<!-- evaluable&#45;&gt;textual -->
<g id="edge4" class="edge">
<title>evaluable&#45;&gt;textual</title>
<path fill="none" stroke="black" d="M118.3,-143.7C126.86,-135.14 137.34,-124.66 146.7,-115.3"/>
<polygon fill="black" stroke="black" points="149.3,-117.65 153.9,-108.1 144.35,-112.7 149.3,-117.65"/>
</g>
<!-- iterable -->
<g id="node6" class="node">
<title>iterable</title>
<g id="a_node6"><a xlink:href="PsyllaReference_Types.xhtml#PsyllaReference_Types_Details_iterable" xlink:title="iterable" target="_parent">
<polygon fill="linen" stroke="black" points="318.5,-180 247.5,-180 247.5,-144 324.5,-144 324.5,-174 318.5,-180"/>
<polyline fill="none" stroke="black" points="318.5,-180 318.5,-174 "/>
<polyline fill="none" stroke="black" points="324.5,-174 318.5,-174 "/>
<text text-anchor="middle" x="286" y="-158.9" font-family="PT Mono, monospace" font-size="12.00">iterable</text>
</a>
</g>
</g>
<!-- iterable&#45;&gt;textual -->
<g id="edge5" class="edge">
<title>iterable&#45;&gt;textual</title>
<path fill="none" stroke="black" d="M257.87,-143.88C242.83,-134.72 224.13,-123.34 207.94,-113.48"/>
<polygon fill="black" stroke="black" points="209.6,-110.4 199.24,-108.19 205.96,-116.38 209.6,-110.4"/>
</g>
<!-- lengthy&#45;&gt;textual -->
<g id="edge6" class="edge">
<title>lengthy&#45;&gt;textual</title>
<path fill="none" stroke="black" d="M155.17,-215.87C158.24,-191.67 163.87,-147.21 167.53,-118.39"/>
<polygon fill="black" stroke="black" points="171.04,-118.55 168.82,-108.19 164.09,-117.67 171.04,-118.55"/>
</g>
<!-- scalar&#45;&gt;textual -->
<g id="edge7" class="edge">
<title>scalar&#45;&gt;textual</title>
<path fill="none" stroke="black" d="M195.41,-287.82C195.63,-277.44 195.89,-263.96 196,-252 196.15,-236 197.58,-231.92 196,-216 192.62,-181.89 184.18,-143.3 178.04,-118.14"/>
<polygon fill="black" stroke="black" points="181.38,-117.08 175.57,-108.23 174.59,-118.78 181.38,-117.08"/>
</g>
<!-- streamable -->
<g id="node9" class="node">
<title>streamable</title>
<g id="a_node9"><a xlink:href="PsyllaReference_Types.xhtml#PsyllaReference_Types_Details_streamable" xlink:title="streamable" target="_parent">
<polygon fill="linen" stroke="black" points="330,-252 244,-252 244,-216 336,-216 336,-246 330,-252"/>
<polyline fill="none" stroke="black" points="330,-252 330,-246 "/>
<polyline fill="none" stroke="black" points="336,-246 330,-246 "/>
<text text-anchor="middle" x="290" y="-230.9" font-family="PT Mono, monospace" font-size="12.00">streamable</text>
</a>
</g>
</g>
<!-- streamable&#45;&gt;iterable -->
<g id="edge9" class="edge">
<title>streamable&#45;&gt;iterable</title>
<path fill="none" stroke="black" d="M289.01,-215.7C288.57,-207.98 288.04,-198.71 287.55,-190.11"/>
<polygon fill="black" stroke="black" points="291.04,-189.89 286.98,-180.1 284.05,-190.29 291.04,-189.89"/>
</g>
<!-- sequential&#45;&gt;streamable -->
<g id="edge12" class="edge">
<title>sequential&#45;&gt;streamable</title>
<path fill="none" stroke="black" d="M290,-287.7C290,-279.98 290,-270.71 290,-262.11"/>
<polygon fill="black" stroke="black" points="293.5,-262.1 290,-252.1 286.5,-262.1 293.5,-262.1"/>
</g>
</g>
</svg>
