<?xml version="1.0" encoding="UTF-8" standalone="no"?>
<!DOCTYPE svg PUBLIC "-//W3C//DTD SVG 1.1//EN"
 "http://www.w3.org/Graphics/SVG/1.1/DTD/svg11.dtd">
<!-- Generated by graphviz version 14.0.0 (0)
 -->
<!-- Title: formalstream Pages: 1 -->
<svg width="223pt" height="260pt"
 viewBox="0.00 0.00 223.00 260.00" xmlns="http://www.w3.org/2000/svg" xmlns:xlink="http://www.w3.org/1999/xlink">
<g id="graph0" class="graph" transform="scale(1 1) rotate(0) translate(4 256)">
<title>formalstream</title>
<polygon fill="none" stroke="none" points="-4,4 -4,-256 218.65,-256 218.65,4 -4,4"/>
<!-- streamable -->
<g id="node1" class="node">
<title>streamable</title>
<g id="a_node1"><a xlink:href="PsyllaReference_Types.xhtml#PsyllaReference_Types_Details_streamable" xlink:title="streamable" target="_parent">
<polygon fill="linen" stroke="black" points="196.31,-108 134.33,-108 134.33,-72 202.31,-72 202.31,-102 196.31,-108"/>
<polyline fill="none" stroke="black" points="196.31,-108 196.31,-102"/>
<polyline fill="none" stroke="black" points="202.31,-102 196.31,-102"/>
<text xml:space="preserve" text-anchor="middle" x="168.32" y="-86.4" font-family="Source Code Pro,monospace" font-size="12.00">streamable</text>
</a>
</g>
</g>
<!-- formalstream -->
<g id="node4" class="node">
<title>formalstream</title>
<g id="a_node4"><a xlink:href="PsyllaReference_Types.xhtml#PsyllaReference_Types_Details_formalstream" xlink:title="formalstream" target="_parent">
<polygon fill="wheat" stroke="black" points="126.31,-36 52.33,-36 52.33,0 132.31,0 132.31,-30 126.31,-36"/>
<polyline fill="none" stroke="black" points="126.31,-36 126.31,-30"/>
<polyline fill="none" stroke="black" points="132.31,-30 126.31,-30"/>
<text xml:space="preserve" text-anchor="middle" x="92.32" y="-14.4" font-family="Source Code Pro,monospace" font-size="12.00">formalstream</text>
</a>
</g>
</g>
<!-- streamable&#45;&gt;formalstream -->
<g id="edge1" class="edge">
<title>streamable&#45;&gt;formalstream</title>
<path fill="none" stroke="black" d="M149.53,-71.7C140.49,-63.37 129.48,-53.22 119.54,-44.07"/>
<polygon fill="black" stroke="black" points="122,-41.57 112.27,-37.37 117.25,-46.72 122,-41.57"/>
</g>
<!-- closeable -->
<g id="node2" class="node">
<title>closeable</title>
<g id="a_node2"><a xlink:href="PsyllaReference_Types.xhtml#PsyllaReference_Types_Details_closeable" xlink:title="closeable" target="_parent">
<polygon fill="linen" stroke="black" points="54.64,-108 0,-108 0,-72 60.64,-72 60.64,-102 54.64,-108"/>
<polyline fill="none" stroke="black" points="54.64,-108 54.64,-102"/>
<polyline fill="none" stroke="black" points="60.64,-102 54.64,-102"/>
<text xml:space="preserve" text-anchor="middle" x="30.32" y="-86.4" font-family="Source Code Pro,monospace" font-size="12.00">closeable</text>
</a>
</g>
</g>
<!-- closeable&#45;&gt;formalstream -->
<g id="edge2" class="edge">
<title>closeable&#45;&gt;formalstream</title>
<path fill="none" stroke="black" d="M45.65,-71.7C52.85,-63.56 61.6,-53.69 69.56,-44.7"/>
<polygon fill="black" stroke="black" points="72.16,-47.04 76.17,-37.24 66.92,-42.4 72.16,-47.04"/>
</g>
<!-- concatenable -->
<g id="node3" class="node">
<title>concatenable</title>
<g id="a_node3"><a xlink:href="PsyllaReference_Types.xhtml#PsyllaReference_Types_Details_concatenable" xlink:title="concatenable" target="_parent">
<polygon fill="linen" stroke="black" points="125.63,-180 53.01,-180 53.01,-144 131.63,-144 131.63,-174 125.63,-180"/>
<polyline fill="none" stroke="black" points="125.63,-180 125.63,-174"/>
<polyline fill="none" stroke="black" points="131.63,-174 125.63,-174"/>
<text xml:space="preserve" text-anchor="middle" x="92.32" y="-158.4" font-family="Source Code Pro,monospace" font-size="12.00">concatenable</text>
</a>
</g>
</g>
<!-- concatenable&#45;&gt;formalstream -->
<g id="edge3" class="edge">
<title>concatenable&#45;&gt;formalstream</title>
<path fill="none" stroke="black" d="M92.32,-143.59C92.32,-119.61 92.32,-76.14 92.32,-47.42"/>
<polygon fill="black" stroke="black" points="95.82,-47.62 92.32,-37.62 88.82,-47.62 95.82,-47.62"/>
</g>
<!-- sequential -->
<g id="node5" class="node">
<title>sequential</title>
<g id="a_node5"><a xlink:href="PsyllaReference_Types.xhtml#PsyllaReference_Types_Details_sequential" xlink:title="sequential" target="_parent">
<polygon fill="linen" stroke="black" points="208.65,-180 150,-180 150,-144 214.65,-144 214.65,-174 208.65,-180"/>
<polyline fill="none" stroke="black" points="208.65,-180 208.65,-174"/>
<polyline fill="none" stroke="black" points="214.65,-174 208.65,-174"/>
<text xml:space="preserve" text-anchor="middle" x="182.32" y="-158.4" font-family="Source Code Pro,monospace" font-size="12.00">sequential</text>
</a>
</g>
</g>
<!-- sequential&#45;&gt;streamable -->
<g id="edge4" class="edge">
<title>sequential&#45;&gt;streamable</title>
<path fill="none" stroke="black" d="M178.86,-143.7C177.39,-136.32 175.63,-127.52 173.97,-119.25"/>
<polygon fill="black" stroke="black" points="177.43,-118.71 172.04,-109.59 170.57,-120.08 177.43,-118.71"/>
</g>
<!-- object -->
<g id="node6" class="node">
<title>object</title>
<g id="a_node6"><a xlink:href="PsyllaReference_Types.xhtml#PsyllaReference_Types_Details_object" xlink:title="object" target="_parent">
<polygon fill="linen" stroke="black" points="113.32,-252 65.32,-252 65.32,-216 119.32,-216 119.32,-246 113.32,-252"/>
<polyline fill="none" stroke="black" points="113.32,-252 113.32,-246"/>
<polyline fill="none" stroke="black" points="119.32,-246 113.32,-246"/>
<text xml:space="preserve" text-anchor="middle" x="92.32" y="-230.4" font-family="Source Code Pro,monospace" font-size="12.00">object</text>
</a>
</g>
</g>
<!-- object&#45;&gt;closeable -->
<g id="edge5" class="edge">
<title>object&#45;&gt;closeable</title>
<path fill="none" stroke="black" d="M72,-215.87C62.06,-206.34 50.85,-193.66 44.32,-180 35.29,-161.11 31.87,-137.63 30.67,-119.53"/>
<polygon fill="black" stroke="black" points="34.18,-119.6 30.23,-109.77 27.19,-119.92 34.18,-119.6"/>
</g>
<!-- object&#45;&gt;concatenable -->
<g id="edge6" class="edge">
<title>object&#45;&gt;concatenable</title>
<path fill="none" stroke="black" d="M92.32,-215.7C92.32,-208.41 92.32,-199.73 92.32,-191.54"/>
<polygon fill="black" stroke="black" points="95.82,-191.62 92.32,-181.62 88.82,-191.62 95.82,-191.62"/>
</g>
<!-- object&#45;&gt;sequential -->
<g id="edge7" class="edge">
<title>object&#45;&gt;sequential</title>
<path fill="none" stroke="black" d="M114.57,-215.7C125.6,-207.11 139.11,-196.61 151.16,-187.24"/>
<polygon fill="black" stroke="black" points="153.08,-190.18 158.82,-181.28 148.78,-184.65 153.08,-190.18"/>
</g>
</g>
</svg>
