<?xml version="1.0" encoding="UTF-8" standalone="no"?>
<!DOCTYPE svg PUBLIC "-//W3C//DTD SVG 1.1//EN"
 "http://www.w3.org/Graphics/SVG/1.1/DTD/svg11.dtd">
<!-- Generated by graphviz version 2.43.0 (0)
 -->
<!-- Title: streamable Pages: 1 -->
<svg width="145pt" height="188pt"
 viewBox="0.00 0.00 145.00 188.00" xmlns="http://www.w3.org/2000/svg" xmlns:xlink="http://www.w3.org/1999/xlink">
<g id="graph0" class="graph" transform="scale(1 1) rotate(0) translate(4 184)">
<title>streamable</title>
<polygon fill="transparent" stroke="transparent" points="-4,4 -4,-184 141,-184 141,4 -4,4"/>
<!-- sequential -->
<g id="node1" class="node">
<title>sequential</title>
<g id="a_node1"><a xlink:href="PsyllaReference_Types.xhtml#PsyllaReference_Types_Details_sequential" xlink:title="sequential" target="_parent">
<polygon fill="linen" stroke="black" points="131,-108 0,-108 0,-72 137,-72 137,-102 131,-108"/>
<polyline fill="none" stroke="black" points="131,-108 131,-102 "/>
<polyline fill="none" stroke="black" points="137,-102 131,-102 "/>
<text text-anchor="middle" x="68.5" y="-85" font-family="PT Mono, monospace" font-size="20.00">sequential</text>
</a>
</g>
</g>
<!-- streamable -->
<g id="node2" class="node">
<title>streamable</title>
<g id="a_node2"><a xlink:href="PsyllaReference_Types.xhtml#PsyllaReference_Types_Details_streamable" xlink:title="streamable" target="_parent">
<polygon fill="wheat" stroke="black" points="131,-36 0,-36 0,0 137,0 137,-30 131,-36"/>
<polyline fill="none" stroke="black" points="131,-36 131,-30 "/>
<polyline fill="none" stroke="black" points="137,-30 131,-30 "/>
<text text-anchor="middle" x="68.5" y="-13" font-family="PT Mono, monospace" font-size="20.00">streamable</text>
</a>
</g>
</g>
<!-- sequential&#45;&gt;streamable -->
<g id="edge1" class="edge">
<title>sequential&#45;&gt;streamable</title>
<path fill="none" stroke="black" d="M68.5,-71.7C68.5,-63.98 68.5,-54.71 68.5,-46.11"/>
<polygon fill="black" stroke="black" points="72,-46.1 68.5,-36.1 65,-46.1 72,-46.1"/>
</g>
<!-- object -->
<g id="node3" class="node">
<title>object</title>
<g id="a_node3"><a xlink:href="PsyllaReference_Types.xhtml#PsyllaReference_Types_Details_object" xlink:title="object" target="_parent">
<polygon fill="linen" stroke="black" points="107,-180 24,-180 24,-144 113,-144 113,-174 107,-180"/>
<polyline fill="none" stroke="black" points="107,-180 107,-174 "/>
<polyline fill="none" stroke="black" points="113,-174 107,-174 "/>
<text text-anchor="middle" x="68.5" y="-157" font-family="PT Mono, monospace" font-size="20.00">object</text>
</a>
</g>
</g>
<!-- object&#45;&gt;sequential -->
<g id="edge2" class="edge">
<title>object&#45;&gt;sequential</title>
<path fill="none" stroke="black" d="M68.5,-143.7C68.5,-135.98 68.5,-126.71 68.5,-118.11"/>
<polygon fill="black" stroke="black" points="72,-118.1 68.5,-108.1 65,-118.1 72,-118.1"/>
</g>
</g>
</svg>
