<?xml version="1.0" encoding="UTF-8" standalone="no"?>
<!DOCTYPE svg PUBLIC "-//W3C//DTD SVG 1.1//EN"
 "http://www.w3.org/Graphics/SVG/1.1/DTD/svg11.dtd">
<!-- Generated by graphviz version 2.43.0 (0)
 -->
<!-- Title: numeric Pages: 1 -->
<svg width="285pt" height="260pt"
 viewBox="0.00 0.00 285.00 260.00" xmlns="http://www.w3.org/2000/svg" xmlns:xlink="http://www.w3.org/1999/xlink">
<g id="graph0" class="graph" transform="scale(1 1) rotate(0) translate(4 256)">
<title>numeric</title>
<polygon fill="transparent" stroke="transparent" points="-4,4 -4,-256 281,-256 281,4 -4,4"/>
<!-- atomic -->
<g id="node1" class="node">
<title>atomic</title>
<g id="a_node1"><a xlink:href="PsyllaReference_Types.xhtml#PsyllaReference_Types_Details_atomic" xlink:title="atomic" target="_parent">
<polygon fill="linen" stroke="black" points="56,-108 0,-108 0,-72 62,-72 62,-102 56,-108"/>
<polyline fill="none" stroke="black" points="56,-108 56,-102 "/>
<polyline fill="none" stroke="black" points="62,-102 56,-102 "/>
<text text-anchor="middle" x="31" y="-86.9" font-family="Source Code Pro,monospace" font-size="12.00">atomic</text>
</a>
</g>
</g>
<!-- numeric -->
<g id="node3" class="node">
<title>numeric</title>
<g id="a_node3"><a xlink:href="PsyllaReference_Types.xhtml#PsyllaReference_Types_Details_numeric" xlink:title="numeric" target="_parent">
<polygon fill="wheat" stroke="black" points="106.5,-36 43.5,-36 43.5,0 112.5,0 112.5,-30 106.5,-36"/>
<polyline fill="none" stroke="black" points="106.5,-36 106.5,-30 "/>
<polyline fill="none" stroke="black" points="112.5,-30 106.5,-30 "/>
<text text-anchor="middle" x="78" y="-14.9" font-family="Source Code Pro,monospace" font-size="12.00">numeric</text>
</a>
</g>
</g>
<!-- atomic&#45;&gt;numeric -->
<g id="edge1" class="edge">
<title>atomic&#45;&gt;numeric</title>
<path fill="none" stroke="black" d="M42.62,-71.7C48.14,-63.47 54.85,-53.48 60.93,-44.42"/>
<polygon fill="black" stroke="black" points="63.85,-46.36 66.52,-36.1 58.04,-42.46 63.85,-46.36"/>
</g>
<!-- arithmetic -->
<g id="node2" class="node">
<title>arithmetic</title>
<g id="a_node2"><a xlink:href="PsyllaReference_Types.xhtml#PsyllaReference_Types_Details_arithmetic" xlink:title="arithmetic" target="_parent">
<polygon fill="linen" stroke="black" points="166,-108 80,-108 80,-72 172,-72 172,-102 166,-108"/>
<polyline fill="none" stroke="black" points="166,-108 166,-102 "/>
<polyline fill="none" stroke="black" points="172,-102 166,-102 "/>
<text text-anchor="middle" x="126" y="-86.9" font-family="Source Code Pro,monospace" font-size="12.00">arithmetic</text>
</a>
</g>
</g>
<!-- arithmetic&#45;&gt;numeric -->
<g id="edge2" class="edge">
<title>arithmetic&#45;&gt;numeric</title>
<path fill="none" stroke="black" d="M114.13,-71.7C108.5,-63.47 101.65,-53.48 95.43,-44.42"/>
<polygon fill="black" stroke="black" points="98.27,-42.37 89.73,-36.1 92.5,-46.33 98.27,-42.37"/>
</g>
<!-- object -->
<g id="node4" class="node">
<title>object</title>
<g id="a_node4"><a xlink:href="PsyllaReference_Types.xhtml#PsyllaReference_Types_Details_object" xlink:title="object" target="_parent">
<polygon fill="linen" stroke="black" points="123,-252 67,-252 67,-216 129,-216 129,-246 123,-252"/>
<polyline fill="none" stroke="black" points="123,-252 123,-246 "/>
<polyline fill="none" stroke="black" points="129,-246 123,-246 "/>
<text text-anchor="middle" x="98" y="-230.9" font-family="Source Code Pro,monospace" font-size="12.00">object</text>
</a>
</g>
</g>
<!-- object&#45;&gt;atomic -->
<g id="edge3" class="edge">
<title>object&#45;&gt;atomic</title>
<path fill="none" stroke="black" d="M78.47,-215.62C68.83,-206.02 57.84,-193.35 51,-180 41.1,-160.68 36.07,-136.52 33.53,-118.26"/>
<polygon fill="black" stroke="black" points="37,-117.76 32.31,-108.26 30.05,-118.62 37,-117.76"/>
</g>
<!-- additive -->
<g id="node5" class="node">
<title>additive</title>
<g id="a_node5"><a xlink:href="PsyllaReference_Types.xhtml#PsyllaReference_Types_Details_additive" xlink:title="additive" target="_parent">
<polygon fill="linen" stroke="black" points="130.5,-180 59.5,-180 59.5,-144 136.5,-144 136.5,-174 130.5,-180"/>
<polyline fill="none" stroke="black" points="130.5,-180 130.5,-174 "/>
<polyline fill="none" stroke="black" points="136.5,-174 130.5,-174 "/>
<text text-anchor="middle" x="98" y="-158.9" font-family="Source Code Pro,monospace" font-size="12.00">additive</text>
</a>
</g>
</g>
<!-- object&#45;&gt;additive -->
<g id="edge6" class="edge">
<title>object&#45;&gt;additive</title>
<path fill="none" stroke="black" d="M98,-215.7C98,-207.98 98,-198.71 98,-190.11"/>
<polygon fill="black" stroke="black" points="101.5,-190.1 98,-180.1 94.5,-190.1 101.5,-190.1"/>
</g>
<!-- multiplicative -->
<g id="node6" class="node">
<title>multiplicative</title>
<g id="a_node6"><a xlink:href="PsyllaReference_Types.xhtml#PsyllaReference_Types_Details_multiplicative" xlink:title="multiplicative" target="_parent">
<polygon fill="linen" stroke="black" points="271,-180 155,-180 155,-144 277,-144 277,-174 271,-180"/>
<polyline fill="none" stroke="black" points="271,-180 271,-174 "/>
<polyline fill="none" stroke="black" points="277,-174 271,-174 "/>
<text text-anchor="middle" x="216" y="-158.9" font-family="Source Code Pro,monospace" font-size="12.00">multiplicative</text>
</a>
</g>
</g>
<!-- object&#45;&gt;multiplicative -->
<g id="edge7" class="edge">
<title>object&#45;&gt;multiplicative</title>
<path fill="none" stroke="black" d="M126.87,-215.88C142.29,-206.72 161.48,-195.34 178.1,-185.48"/>
<polygon fill="black" stroke="black" points="180.21,-188.3 187.02,-180.19 176.64,-182.28 180.21,-188.3"/>
</g>
<!-- additive&#45;&gt;arithmetic -->
<g id="edge4" class="edge">
<title>additive&#45;&gt;arithmetic</title>
<path fill="none" stroke="black" d="M104.92,-143.7C108.07,-135.81 111.88,-126.3 115.38,-117.55"/>
<polygon fill="black" stroke="black" points="118.69,-118.69 119.16,-108.1 112.19,-116.09 118.69,-118.69"/>
</g>
<!-- multiplicative&#45;&gt;arithmetic -->
<g id="edge5" class="edge">
<title>multiplicative&#45;&gt;arithmetic</title>
<path fill="none" stroke="black" d="M193.75,-143.7C182.42,-134.88 168.47,-124.03 156.18,-114.47"/>
<polygon fill="black" stroke="black" points="158.03,-111.48 147.99,-108.1 153.74,-117.01 158.03,-111.48"/>
</g>
</g>
</svg>
