<?xml version="1.0" encoding="UTF-8" standalone="no"?>
<!DOCTYPE svg PUBLIC "-//W3C//DTD SVG 1.1//EN"
 "http://www.w3.org/Graphics/SVG/1.1/DTD/svg11.dtd">
<!-- Generated by graphviz version 2.49.3 (0)
 -->
<!-- Title: integral Pages: 1 -->
<svg width="571pt" height="476pt"
 viewBox="0.00 0.00 571.33 476.00" xmlns="http://www.w3.org/2000/svg" xmlns:xlink="http://www.w3.org/1999/xlink">
<g id="graph0" class="graph" transform="scale(1 1) rotate(0) translate(4 472)">
<title>integral</title>
<polygon fill="transparent" stroke="transparent" points="-4,4 -4,-472 567.33,-472 567.33,4 -4,4"/>
<!-- bitwise -->
<g id="node1" class="node">
<title>bitwise</title>
<g id="a_node1"><a xlink:href="PsyllaReference_Types.xhtml#PsyllaReference_Types_Details_bitwise" xlink:title="bitwise" target="_parent">
<polygon fill="linen" stroke="black" points="121,-180 73,-180 73,-144 127,-144 127,-174 121,-180"/>
<polyline fill="none" stroke="black" points="121,-180 121,-174 "/>
<polyline fill="none" stroke="black" points="127,-174 121,-174 "/>
<text text-anchor="middle" x="100" y="-158.4" font-family="Source Code Pro,monospace" font-size="12.00">bitwise</text>
</a>
</g>
</g>
<!-- integral -->
<g id="node3" class="node">
<title>integral</title>
<g id="a_node3"><a xlink:href="PsyllaReference_Types.xhtml#PsyllaReference_Types_Details_integral" xlink:title="integral" target="_parent">
<polygon fill="wheat" stroke="black" points="161,-36 113,-36 113,0 167,0 167,-30 161,-36"/>
<polyline fill="none" stroke="black" points="161,-36 161,-30 "/>
<polyline fill="none" stroke="black" points="167,-30 161,-30 "/>
<text text-anchor="middle" x="140" y="-14.4" font-family="Source Code Pro,monospace" font-size="12.00">integral</text>
</a>
</g>
</g>
<!-- bitwise&#45;&gt;integral -->
<g id="edge1" class="edge">
<title>bitwise&#45;&gt;integral</title>
<path fill="none" stroke="black" d="M104.82,-143.87C111.67,-119.56 124.28,-74.82 132.39,-46.01"/>
<polygon fill="black" stroke="black" points="135.82,-46.76 135.16,-36.19 129.08,-44.87 135.82,-46.76"/>
</g>
<!-- rational -->
<g id="node2" class="node">
<title>rational</title>
<g id="a_node2"><a xlink:href="PsyllaReference_Types.xhtml#PsyllaReference_Types_Details_rational" xlink:title="rational" target="_parent">
<polygon fill="linen" stroke="black" points="196,-108 148,-108 148,-72 202,-72 202,-102 196,-108"/>
<polyline fill="none" stroke="black" points="196,-108 196,-102 "/>
<polyline fill="none" stroke="black" points="202,-102 196,-102 "/>
<text text-anchor="middle" x="175" y="-86.4" font-family="Source Code Pro,monospace" font-size="12.00">rational</text>
</a>
</g>
</g>
<!-- rational&#45;&gt;integral -->
<g id="edge2" class="edge">
<title>rational&#45;&gt;integral</title>
<path fill="none" stroke="black" d="M166.35,-71.7C162.36,-63.73 157.55,-54.1 153.13,-45.26"/>
<polygon fill="black" stroke="black" points="156.15,-43.48 148.55,-36.1 149.89,-46.61 156.15,-43.48"/>
</g>
<!-- logical -->
<g id="node4" class="node">
<title>logical</title>
<g id="a_node4"><a xlink:href="PsyllaReference_Types.xhtml#PsyllaReference_Types_Details_logical" xlink:title="logical" target="_parent">
<polygon fill="linen" stroke="black" points="48,-396 0,-396 0,-360 54,-360 54,-390 48,-396"/>
<polyline fill="none" stroke="black" points="48,-396 48,-390 "/>
<polyline fill="none" stroke="black" points="54,-390 48,-390 "/>
<text text-anchor="middle" x="27" y="-374.4" font-family="Source Code Pro,monospace" font-size="12.00">logical</text>
</a>
</g>
</g>
<!-- logical&#45;&gt;bitwise -->
<g id="edge3" class="edge">
<title>logical&#45;&gt;bitwise</title>
<path fill="none" stroke="black" d="M23.03,-359.86C16.84,-329.11 7.94,-263.37 32,-216 39.1,-202.01 51.79,-190.59 64.29,-181.99"/>
<polygon fill="black" stroke="black" points="66.34,-184.83 72.85,-176.48 62.55,-178.95 66.34,-184.83"/>
</g>
<!-- realnumeric -->
<g id="node5" class="node">
<title>realnumeric</title>
<g id="a_node5"><a xlink:href="PsyllaReference_Types.xhtml#PsyllaReference_Types_Details_realnumeric" xlink:title="realnumeric" target="_parent">
<polygon fill="linen" stroke="black" points="256.8,-180 189.2,-180 189.2,-144 262.8,-144 262.8,-174 256.8,-180"/>
<polyline fill="none" stroke="black" points="256.8,-180 256.8,-174 "/>
<polyline fill="none" stroke="black" points="262.8,-174 256.8,-174 "/>
<text text-anchor="middle" x="226" y="-158.4" font-family="Source Code Pro,monospace" font-size="12.00">realnumeric</text>
</a>
</g>
</g>
<!-- realnumeric&#45;&gt;rational -->
<g id="edge4" class="edge">
<title>realnumeric&#45;&gt;rational</title>
<path fill="none" stroke="black" d="M213.39,-143.7C207.4,-135.47 200.12,-125.48 193.52,-116.42"/>
<polygon fill="black" stroke="black" points="196.18,-114.13 187.46,-108.1 190.52,-118.25 196.18,-114.13"/>
</g>
<!-- object -->
<g id="node6" class="node">
<title>object</title>
<g id="a_node6"><a xlink:href="PsyllaReference_Types.xhtml#PsyllaReference_Types_Details_object" xlink:title="object" target="_parent">
<polygon fill="linen" stroke="black" points="310,-468 262,-468 262,-432 316,-432 316,-462 310,-468"/>
<polyline fill="none" stroke="black" points="310,-468 310,-462 "/>
<polyline fill="none" stroke="black" points="316,-462 310,-462 "/>
<text text-anchor="middle" x="289" y="-446.4" font-family="Source Code Pro,monospace" font-size="12.00">object</text>
</a>
</g>
</g>
<!-- object&#45;&gt;logical -->
<g id="edge5" class="edge">
<title>object&#45;&gt;logical</title>
<path fill="none" stroke="black" d="M261.76,-442.48C222.07,-432.87 146.08,-414.1 82,-396 76.15,-394.35 69.97,-392.52 63.95,-390.69"/>
<polygon fill="black" stroke="black" points="64.64,-387.25 54.06,-387.65 62.59,-393.94 64.64,-387.25"/>
</g>
<!-- convertabletointeger -->
<g id="node8" class="node">
<title>convertabletointeger</title>
<g id="a_node8"><a xlink:href="PsyllaReference_Types.xhtml#PsyllaReference_Types_Details_convertabletointeger" xlink:title="convertabletointeger" target="_parent">
<polygon fill="linen" stroke="black" points="149.13,-252 40.87,-252 40.87,-216 155.13,-216 155.13,-246 149.13,-252"/>
<polyline fill="none" stroke="black" points="149.13,-252 149.13,-246 "/>
<polyline fill="none" stroke="black" points="155.13,-246 149.13,-246 "/>
<text text-anchor="middle" x="98" y="-230.4" font-family="Source Code Pro,monospace" font-size="12.00">convertabletointeger</text>
</a>
</g>
</g>
<!-- object&#45;&gt;convertabletointeger -->
<g id="edge13" class="edge">
<title>object&#45;&gt;convertabletointeger</title>
<path fill="none" stroke="black" d="M261.95,-437.56C222.81,-419.52 151.13,-380.59 115,-324 103.25,-305.6 99.25,-281 98.04,-262.32"/>
<polygon fill="black" stroke="black" points="101.53,-261.95 97.62,-252.11 94.53,-262.24 101.53,-261.95"/>
</g>
<!-- convertabletointegral -->
<g id="node9" class="node">
<title>convertabletointegral</title>
<g id="a_node9"><a xlink:href="PsyllaReference_Types.xhtml#PsyllaReference_Types_Details_convertabletointegral" xlink:title="convertabletointegral" target="_parent">
<polygon fill="linen" stroke="black" points="235.96,-324 124.04,-324 124.04,-288 241.96,-288 241.96,-318 235.96,-324"/>
<polyline fill="none" stroke="black" points="235.96,-324 235.96,-318 "/>
<polyline fill="none" stroke="black" points="241.96,-318 235.96,-318 "/>
<text text-anchor="middle" x="183" y="-302.4" font-family="Source Code Pro,monospace" font-size="12.00">convertabletointegral</text>
</a>
</g>
</g>
<!-- object&#45;&gt;convertabletointegral -->
<g id="edge14" class="edge">
<title>object&#45;&gt;convertabletointegral</title>
<path fill="none" stroke="black" d="M276.21,-431.87C257.75,-407.14 223.49,-361.24 202.04,-332.51"/>
<polygon fill="black" stroke="black" points="204.62,-330.11 195.83,-324.19 199.01,-334.3 204.62,-330.11"/>
</g>
<!-- convertabletorational -->
<g id="node10" class="node">
<title>convertabletorational</title>
<g id="a_node10"><a xlink:href="PsyllaReference_Types.xhtml#PsyllaReference_Types_Details_convertabletorational" xlink:title="convertabletorational" target="_parent">
<polygon fill="linen" stroke="black" points="322.96,-252 211.04,-252 211.04,-216 328.96,-216 328.96,-246 322.96,-252"/>
<polyline fill="none" stroke="black" points="322.96,-252 322.96,-246 "/>
<polyline fill="none" stroke="black" points="328.96,-246 322.96,-246 "/>
<text text-anchor="middle" x="270" y="-230.4" font-family="Source Code Pro,monospace" font-size="12.00">convertabletorational</text>
</a>
</g>
</g>
<!-- object&#45;&gt;convertabletorational -->
<g id="edge15" class="edge">
<title>object&#45;&gt;convertabletorational</title>
<path fill="none" stroke="black" d="M287.48,-431.85C284.19,-394.83 276.41,-307.18 272.43,-262.39"/>
<polygon fill="black" stroke="black" points="275.9,-261.88 271.53,-252.23 268.93,-262.5 275.9,-261.88"/>
</g>
<!-- scalar -->
<g id="node11" class="node">
<title>scalar</title>
<g id="a_node11"><a xlink:href="PsyllaReference_Types.xhtml#PsyllaReference_Types_Details_scalar" xlink:title="scalar" target="_parent">
<polygon fill="linen" stroke="black" points="346,-324 298,-324 298,-288 352,-288 352,-318 346,-324"/>
<polyline fill="none" stroke="black" points="346,-324 346,-318 "/>
<polyline fill="none" stroke="black" points="352,-318 346,-318 "/>
<text text-anchor="middle" x="325" y="-302.4" font-family="Source Code Pro,monospace" font-size="12.00">scalar</text>
</a>
</g>
</g>
<!-- object&#45;&gt;scalar -->
<g id="edge16" class="edge">
<title>object&#45;&gt;scalar</title>
<path fill="none" stroke="black" d="M293.34,-431.87C299.5,-407.56 310.85,-362.82 318.15,-334.01"/>
<polygon fill="black" stroke="black" points="321.58,-334.74 320.64,-324.19 314.79,-333.02 321.58,-334.74"/>
</g>
<!-- value -->
<g id="node13" class="node">
<title>value</title>
<g id="a_node13"><a xlink:href="PsyllaReference_Types.xhtml#PsyllaReference_Types_Details_value" xlink:title="value" target="_parent">
<polygon fill="linen" stroke="black" points="384,-396 336,-396 336,-360 390,-360 390,-390 384,-396"/>
<polyline fill="none" stroke="black" points="384,-396 384,-390 "/>
<polyline fill="none" stroke="black" points="390,-390 384,-390 "/>
<text text-anchor="middle" x="363" y="-374.4" font-family="Source Code Pro,monospace" font-size="12.00">value</text>
</a>
</g>
</g>
<!-- object&#45;&gt;value -->
<g id="edge19" class="edge">
<title>object&#45;&gt;value</title>
<path fill="none" stroke="black" d="M307.29,-431.7C316.43,-423.05 327.64,-412.45 337.6,-403.03"/>
<polygon fill="black" stroke="black" points="340.06,-405.52 344.92,-396.1 335.25,-400.43 340.06,-405.52"/>
</g>
<!-- additive -->
<g id="node14" class="node">
<title>additive</title>
<g id="a_node14"><a xlink:href="PsyllaReference_Types.xhtml#PsyllaReference_Types_Details_additive" xlink:title="additive" target="_parent">
<polygon fill="linen" stroke="black" points="456.16,-396 407.84,-396 407.84,-360 462.16,-360 462.16,-390 456.16,-396"/>
<polyline fill="none" stroke="black" points="456.16,-396 456.16,-390 "/>
<polyline fill="none" stroke="black" points="462.16,-390 456.16,-390 "/>
<text text-anchor="middle" x="435" y="-374.4" font-family="Source Code Pro,monospace" font-size="12.00">additive</text>
</a>
</g>
</g>
<!-- object&#45;&gt;additive -->
<g id="edge20" class="edge">
<title>object&#45;&gt;additive</title>
<path fill="none" stroke="black" d="M316.12,-436C339.33,-424.87 372.94,-408.75 398.51,-396.5"/>
<polygon fill="black" stroke="black" points="400.03,-399.65 407.53,-392.17 397,-393.34 400.03,-399.65"/>
</g>
<!-- multiplicative -->
<g id="node15" class="node">
<title>multiplicative</title>
<g id="a_node15"><a xlink:href="PsyllaReference_Types.xhtml#PsyllaReference_Types_Details_multiplicative" xlink:title="multiplicative" target="_parent">
<polygon fill="linen" stroke="black" points="557.16,-396 480.84,-396 480.84,-360 563.16,-360 563.16,-390 557.16,-396"/>
<polyline fill="none" stroke="black" points="557.16,-396 557.16,-390 "/>
<polyline fill="none" stroke="black" points="563.16,-390 557.16,-390 "/>
<text text-anchor="middle" x="522" y="-374.4" font-family="Source Code Pro,monospace" font-size="12.00">multiplicative</text>
</a>
</g>
</g>
<!-- object&#45;&gt;multiplicative -->
<g id="edge21" class="edge">
<title>object&#45;&gt;multiplicative</title>
<path fill="none" stroke="black" d="M316.23,-441.42C351.9,-431.42 416.34,-413.06 471,-396 471.1,-395.97 471.19,-395.94 471.29,-395.91"/>
<polygon fill="black" stroke="black" points="472.1,-399.32 480.57,-392.96 469.98,-392.65 472.1,-399.32"/>
</g>
<!-- numeric -->
<g id="node7" class="node">
<title>numeric</title>
<g id="a_node7"><a xlink:href="PsyllaReference_Types.xhtml#PsyllaReference_Types_Details_numeric" xlink:title="numeric" target="_parent">
<polygon fill="linen" stroke="black" points="434.82,-252 385.18,-252 385.18,-216 440.82,-216 440.82,-246 434.82,-252"/>
<polyline fill="none" stroke="black" points="434.82,-252 434.82,-246 "/>
<polyline fill="none" stroke="black" points="440.82,-246 434.82,-246 "/>
<text text-anchor="middle" x="413" y="-230.4" font-family="Source Code Pro,monospace" font-size="12.00">numeric</text>
</a>
</g>
</g>
<!-- numeric&#45;&gt;realnumeric -->
<g id="edge6" class="edge">
<title>numeric&#45;&gt;realnumeric</title>
<path fill="none" stroke="black" d="M385.04,-221.53C380.36,-219.65 375.55,-217.75 371,-216 338.22,-203.38 301,-189.79 272.48,-179.53"/>
<polygon fill="black" stroke="black" points="273.37,-176.13 262.78,-176.05 271.01,-182.72 273.37,-176.13"/>
</g>
<!-- convertabletointeger&#45;&gt;realnumeric -->
<g id="edge7" class="edge">
<title>convertabletointeger&#45;&gt;realnumeric</title>
<path fill="none" stroke="black" d="M129.31,-215.88C146.2,-206.64 167.25,-195.13 185.38,-185.21"/>
<polygon fill="black" stroke="black" points="187.47,-188.06 194.57,-180.19 184.11,-181.92 187.47,-188.06"/>
</g>
<!-- convertabletointegral&#45;&gt;realnumeric -->
<g id="edge8" class="edge">
<title>convertabletointegral&#45;&gt;realnumeric</title>
<path fill="none" stroke="black" d="M185.51,-287.98C188.45,-269.86 193.95,-240.46 202,-216 204.9,-207.17 208.82,-197.84 212.65,-189.52"/>
<polygon fill="black" stroke="black" points="215.9,-190.82 217.03,-180.29 209.58,-187.82 215.9,-190.82"/>
</g>
<!-- convertabletorational&#45;&gt;realnumeric -->
<g id="edge9" class="edge">
<title>convertabletorational&#45;&gt;realnumeric</title>
<path fill="none" stroke="black" d="M259.12,-215.7C254.01,-207.56 247.8,-197.69 242.16,-188.7"/>
<polygon fill="black" stroke="black" points="245.04,-186.71 236.75,-180.1 239.11,-190.43 245.04,-186.71"/>
</g>
<!-- scalar&#45;&gt;realnumeric -->
<g id="edge10" class="edge">
<title>scalar&#45;&gt;realnumeric</title>
<path fill="none" stroke="black" d="M333.83,-287.85C342.28,-268.82 351.87,-237.9 338,-216 323.59,-193.24 296.47,-180.06 272.53,-172.54"/>
<polygon fill="black" stroke="black" points="273.43,-169.16 262.86,-169.74 271.49,-175.88 273.43,-169.16"/>
</g>
<!-- arithmetic -->
<g id="node12" class="node">
<title>arithmetic</title>
<g id="a_node12"><a xlink:href="PsyllaReference_Types.xhtml#PsyllaReference_Types_Details_arithmetic" xlink:title="arithmetic" target="_parent">
<polygon fill="linen" stroke="black" points="466.15,-324 407.85,-324 407.85,-288 472.15,-288 472.15,-318 466.15,-324"/>
<polyline fill="none" stroke="black" points="466.15,-324 466.15,-318 "/>
<polyline fill="none" stroke="black" points="472.15,-318 466.15,-318 "/>
<text text-anchor="middle" x="440" y="-302.4" font-family="Source Code Pro,monospace" font-size="12.00">arithmetic</text>
</a>
</g>
</g>
<!-- arithmetic&#45;&gt;numeric -->
<g id="edge11" class="edge">
<title>arithmetic&#45;&gt;numeric</title>
<path fill="none" stroke="black" d="M433.33,-287.7C430.29,-279.81 426.62,-270.3 423.24,-261.55"/>
<polygon fill="black" stroke="black" points="426.46,-260.17 419.6,-252.1 419.93,-262.69 426.46,-260.17"/>
</g>
<!-- value&#45;&gt;numeric -->
<g id="edge12" class="edge">
<title>value&#45;&gt;numeric</title>
<path fill="none" stroke="black" d="M369.03,-359.87C377.63,-335.46 393.48,-290.43 403.62,-261.64"/>
<polygon fill="black" stroke="black" points="406.93,-262.78 406.95,-252.19 400.32,-260.46 406.93,-262.78"/>
</g>
<!-- additive&#45;&gt;arithmetic -->
<g id="edge17" class="edge">
<title>additive&#45;&gt;arithmetic</title>
<path fill="none" stroke="black" d="M436.24,-359.7C436.79,-351.98 437.45,-342.71 438.06,-334.11"/>
<polygon fill="black" stroke="black" points="441.56,-334.33 438.78,-324.1 434.57,-333.83 441.56,-334.33"/>
</g>
<!-- multiplicative&#45;&gt;arithmetic -->
<g id="edge18" class="edge">
<title>multiplicative&#45;&gt;arithmetic</title>
<path fill="none" stroke="black" d="M501.73,-359.7C491.5,-350.97 478.94,-340.24 467.82,-330.75"/>
<polygon fill="black" stroke="black" points="469.91,-327.94 460.04,-324.1 465.37,-333.26 469.91,-327.94"/>
</g>
</g>
</svg>
