<?xml version="1.0" encoding="UTF-8" standalone="no"?>
<!DOCTYPE svg PUBLIC "-//W3C//DTD SVG 1.1//EN"
 "http://www.w3.org/Graphics/SVG/1.1/DTD/svg11.dtd">
<!-- Generated by graphviz version 2.43.0 (0)
 -->
<!-- Title: stream Pages: 1 -->
<svg width="174pt" height="332pt"
 viewBox="0.00 0.00 174.00 332.00" xmlns="http://www.w3.org/2000/svg" xmlns:xlink="http://www.w3.org/1999/xlink">
<g id="graph0" class="graph" transform="scale(1 1) rotate(0) translate(4 328)">
<title>stream</title>
<polygon fill="transparent" stroke="transparent" points="-4,4 -4,-328 170,-328 170,4 -4,4"/>
<!-- formalstream -->
<g id="node1" class="node">
<title>formalstream</title>
<g id="a_node1"><a xlink:href="PsyllaReference_Types.xhtml#PsyllaReference_Types_Details_formalstream" xlink:title="formalstream" target="_parent">
<polygon fill="linen" stroke="black" points="120,-108 37,-108 37,-72 126,-72 126,-102 120,-108"/>
<polyline fill="none" stroke="black" points="120,-108 120,-102 "/>
<polyline fill="none" stroke="black" points="126,-102 120,-102 "/>
<text text-anchor="middle" x="81.5" y="-87.5" font-family="PT Mono, monospace" font-size="10.00">formalstream</text>
</a>
</g>
</g>
<!-- stream -->
<g id="node2" class="node">
<title>stream</title>
<g id="a_node2"><a xlink:href="PsyllaReference_Types.xhtml#PsyllaReference_Types_Details_stream" xlink:title="stream" target="_parent">
<polygon fill="wheat" stroke="black" points="102.5,-36 54.5,-36 54.5,0 108.5,0 108.5,-30 102.5,-36"/>
<polyline fill="none" stroke="black" points="102.5,-36 102.5,-30 "/>
<polyline fill="none" stroke="black" points="108.5,-30 102.5,-30 "/>
<text text-anchor="middle" x="81.5" y="-15.5" font-family="PT Mono, monospace" font-size="10.00">stream</text>
</a>
</g>
</g>
<!-- formalstream&#45;&gt;stream -->
<g id="edge1" class="edge">
<title>formalstream&#45;&gt;stream</title>
<path fill="none" stroke="black" d="M81.5,-71.7C81.5,-63.98 81.5,-54.71 81.5,-46.11"/>
<polygon fill="black" stroke="black" points="85,-46.1 81.5,-36.1 78,-46.1 85,-46.1"/>
</g>
<!-- streamable -->
<g id="node3" class="node">
<title>streamable</title>
<g id="a_node3"><a xlink:href="PsyllaReference_Types.xhtml#PsyllaReference_Types_Details_streamable" xlink:title="streamable" target="_parent">
<polygon fill="linen" stroke="black" points="160,-180 89,-180 89,-144 166,-144 166,-174 160,-180"/>
<polyline fill="none" stroke="black" points="160,-180 160,-174 "/>
<polyline fill="none" stroke="black" points="166,-174 160,-174 "/>
<text text-anchor="middle" x="127.5" y="-159.5" font-family="PT Mono, monospace" font-size="10.00">streamable</text>
</a>
</g>
</g>
<!-- streamable&#45;&gt;formalstream -->
<g id="edge2" class="edge">
<title>streamable&#45;&gt;formalstream</title>
<path fill="none" stroke="black" d="M116.13,-143.7C110.78,-135.56 104.3,-125.69 98.39,-116.7"/>
<polygon fill="black" stroke="black" points="101.16,-114.54 92.74,-108.1 95.31,-118.38 101.16,-114.54"/>
</g>
<!-- closeable -->
<g id="node4" class="node">
<title>closeable</title>
<g id="a_node4"><a xlink:href="PsyllaReference_Types.xhtml#PsyllaReference_Types_Details_closeable" xlink:title="closeable" target="_parent">
<polygon fill="linen" stroke="black" points="65,-180 0,-180 0,-144 71,-144 71,-174 65,-180"/>
<polyline fill="none" stroke="black" points="65,-180 65,-174 "/>
<polyline fill="none" stroke="black" points="71,-174 65,-174 "/>
<text text-anchor="middle" x="35.5" y="-159.5" font-family="PT Mono, monospace" font-size="10.00">closeable</text>
</a>
</g>
</g>
<!-- closeable&#45;&gt;formalstream -->
<g id="edge3" class="edge">
<title>closeable&#45;&gt;formalstream</title>
<path fill="none" stroke="black" d="M46.87,-143.7C52.22,-135.56 58.7,-125.69 64.61,-116.7"/>
<polygon fill="black" stroke="black" points="67.69,-118.38 70.26,-108.1 61.84,-114.54 67.69,-118.38"/>
</g>
<!-- sequential -->
<g id="node5" class="node">
<title>sequential</title>
<g id="a_node5"><a xlink:href="PsyllaReference_Types.xhtml#PsyllaReference_Types_Details_sequential" xlink:title="sequential" target="_parent">
<polygon fill="linen" stroke="black" points="153,-252 82,-252 82,-216 159,-216 159,-246 153,-252"/>
<polyline fill="none" stroke="black" points="153,-252 153,-246 "/>
<polyline fill="none" stroke="black" points="159,-246 153,-246 "/>
<text text-anchor="middle" x="120.5" y="-231.5" font-family="PT Mono, monospace" font-size="10.00">sequential</text>
</a>
</g>
</g>
<!-- sequential&#45;&gt;streamable -->
<g id="edge4" class="edge">
<title>sequential&#45;&gt;streamable</title>
<path fill="none" stroke="black" d="M122.23,-215.7C123,-207.98 123.93,-198.71 124.79,-190.11"/>
<polygon fill="black" stroke="black" points="128.28,-190.4 125.79,-180.1 121.31,-189.71 128.28,-190.4"/>
</g>
<!-- object -->
<g id="node6" class="node">
<title>object</title>
<g id="a_node6"><a xlink:href="PsyllaReference_Types.xhtml#PsyllaReference_Types_Details_object" xlink:title="object" target="_parent">
<polygon fill="linen" stroke="black" points="101.5,-324 53.5,-324 53.5,-288 107.5,-288 107.5,-318 101.5,-324"/>
<polyline fill="none" stroke="black" points="101.5,-324 101.5,-318 "/>
<polyline fill="none" stroke="black" points="107.5,-318 101.5,-318 "/>
<text text-anchor="middle" x="80.5" y="-303.5" font-family="PT Mono, monospace" font-size="10.00">object</text>
</a>
</g>
</g>
<!-- object&#45;&gt;closeable -->
<g id="edge5" class="edge">
<title>object&#45;&gt;closeable</title>
<path fill="none" stroke="black" d="M75.07,-287.87C67.37,-263.56 53.19,-218.82 44.06,-190.01"/>
<polygon fill="black" stroke="black" points="47.3,-188.66 40.95,-180.19 40.63,-190.78 47.3,-188.66"/>
</g>
<!-- object&#45;&gt;sequential -->
<g id="edge6" class="edge">
<title>object&#45;&gt;sequential</title>
<path fill="none" stroke="black" d="M90.39,-287.7C94.99,-279.64 100.56,-269.89 105.65,-260.98"/>
<polygon fill="black" stroke="black" points="108.8,-262.52 110.73,-252.1 102.73,-259.05 108.8,-262.52"/>
</g>
</g>
</svg>
