<?xml version="1.0" encoding="UTF-8" standalone="no"?>
<!DOCTYPE svg PUBLIC "-//W3C//DTD SVG 1.1//EN"
 "http://www.w3.org/Graphics/SVG/1.1/DTD/svg11.dtd">
<!-- Generated by graphviz version 2.49.3 (0)
 -->
<!-- Title: string Pages: 1 -->
<svg width="655pt" height="404pt"
 viewBox="0.00 0.00 655.33 404.00" xmlns="http://www.w3.org/2000/svg" xmlns:xlink="http://www.w3.org/1999/xlink">
<g id="graph0" class="graph" transform="scale(1 1) rotate(0) translate(4 400)">
<title>string</title>
<polygon fill="transparent" stroke="transparent" points="-4,4 -4,-400 651.33,-400 651.33,4 -4,4"/>
<!-- textual -->
<g id="node1" class="node">
<title>textual</title>
<g id="a_node1"><a xlink:href="PsyllaReference_Types.xhtml#PsyllaReference_Types_Details_textual" xlink:title="textual" target="_parent">
<polygon fill="linen" stroke="black" points="390,-108 342,-108 342,-72 396,-72 396,-102 390,-108"/>
<polyline fill="none" stroke="black" points="390,-108 390,-102 "/>
<polyline fill="none" stroke="black" points="396,-102 390,-102 "/>
<text text-anchor="middle" x="369" y="-86.4" font-family="Source Code Pro,monospace" font-size="12.00">textual</text>
</a>
</g>
</g>
<!-- string -->
<g id="node4" class="node">
<title>string</title>
<g id="a_node4"><a xlink:href="PsyllaReference_Types.xhtml#PsyllaReference_Types_Details_string" xlink:title="string" target="_parent">
<polygon fill="wheat" stroke="black" points="110,-36 62,-36 62,0 116,0 116,-30 110,-36"/>
<polyline fill="none" stroke="black" points="110,-36 110,-30 "/>
<polyline fill="none" stroke="black" points="116,-30 110,-30 "/>
<text text-anchor="middle" x="89" y="-14.4" font-family="Source Code Pro,monospace" font-size="12.00">string</text>
</a>
</g>
</g>
<!-- textual&#45;&gt;string -->
<g id="edge1" class="edge">
<title>textual&#45;&gt;string</title>
<path fill="none" stroke="black" d="M341.9,-82.22C291.51,-69.63 183.34,-42.59 126.17,-28.29"/>
<polygon fill="black" stroke="black" points="126.67,-24.81 116.12,-25.78 124.97,-31.6 126.67,-24.81"/>
</g>
<!-- value -->
<g id="node2" class="node">
<title>value</title>
<g id="a_node2"><a xlink:href="PsyllaReference_Types.xhtml#PsyllaReference_Types_Details_value" xlink:title="value" target="_parent">
<polygon fill="linen" stroke="black" points="48,-252 0,-252 0,-216 54,-216 54,-246 48,-252"/>
<polyline fill="none" stroke="black" points="48,-252 48,-246 "/>
<polyline fill="none" stroke="black" points="54,-246 48,-246 "/>
<text text-anchor="middle" x="27" y="-230.4" font-family="Source Code Pro,monospace" font-size="12.00">value</text>
</a>
</g>
</g>
<!-- value&#45;&gt;string -->
<g id="edge2" class="edge">
<title>value&#45;&gt;string</title>
<path fill="none" stroke="black" d="M28.63,-215.71C30.59,-197.62 34.45,-168.48 41,-144 50.38,-108.91 66.2,-70.09 77.09,-45.16"/>
<polygon fill="black" stroke="black" points="80.3,-46.57 81.15,-36.01 73.9,-43.73 80.3,-46.57"/>
</g>
<!-- concatenable -->
<g id="node3" class="node">
<title>concatenable</title>
<g id="a_node3"><a xlink:href="PsyllaReference_Types.xhtml#PsyllaReference_Types_Details_concatenable" xlink:title="concatenable" target="_parent">
<polygon fill="linen" stroke="black" points="122.13,-180 49.87,-180 49.87,-144 128.13,-144 128.13,-174 122.13,-180"/>
<polyline fill="none" stroke="black" points="122.13,-180 122.13,-174 "/>
<polyline fill="none" stroke="black" points="128.13,-174 122.13,-174 "/>
<text text-anchor="middle" x="89" y="-158.4" font-family="Source Code Pro,monospace" font-size="12.00">concatenable</text>
</a>
</g>
</g>
<!-- concatenable&#45;&gt;string -->
<g id="edge3" class="edge">
<title>concatenable&#45;&gt;string</title>
<path fill="none" stroke="black" d="M89,-143.87C89,-119.67 89,-75.21 89,-46.39"/>
<polygon fill="black" stroke="black" points="92.5,-46.19 89,-36.19 85.5,-46.19 92.5,-46.19"/>
</g>
<!-- evaluable -->
<g id="node5" class="node">
<title>evaluable</title>
<g id="a_node5"><a xlink:href="PsyllaReference_Types.xhtml#PsyllaReference_Types_Details_evaluable" xlink:title="evaluable" target="_parent">
<polygon fill="linen" stroke="black" points="198.98,-252 143.02,-252 143.02,-216 204.98,-216 204.98,-246 198.98,-252"/>
<polyline fill="none" stroke="black" points="198.98,-252 198.98,-246 "/>
<polyline fill="none" stroke="black" points="204.98,-246 198.98,-246 "/>
<text text-anchor="middle" x="174" y="-230.4" font-family="Source Code Pro,monospace" font-size="12.00">evaluable</text>
</a>
</g>
</g>
<!-- evaluable&#45;&gt;textual -->
<g id="edge4" class="edge">
<title>evaluable&#45;&gt;textual</title>
<path fill="none" stroke="black" d="M168.65,-215.96C163.66,-196.45 159.13,-164.55 175,-144 194.07,-119.31 281.04,-103.27 331.82,-95.83"/>
<polygon fill="black" stroke="black" points="332.37,-99.29 341.77,-94.41 331.38,-92.35 332.37,-99.29"/>
</g>
<!-- convertabletointeger -->
<g id="node6" class="node">
<title>convertabletointeger</title>
<g id="a_node6"><a xlink:href="PsyllaReference_Types.xhtml#PsyllaReference_Types_Details_convertabletointeger" xlink:title="convertabletointeger" target="_parent">
<polygon fill="linen" stroke="black" points="292.13,-180 183.87,-180 183.87,-144 298.13,-144 298.13,-174 292.13,-180"/>
<polyline fill="none" stroke="black" points="292.13,-180 292.13,-174 "/>
<polyline fill="none" stroke="black" points="298.13,-174 292.13,-174 "/>
<text text-anchor="middle" x="241" y="-158.4" font-family="Source Code Pro,monospace" font-size="12.00">convertabletointeger</text>
</a>
</g>
</g>
<!-- convertabletointeger&#45;&gt;textual -->
<g id="edge5" class="edge">
<title>convertabletointeger&#45;&gt;textual</title>
<path fill="none" stroke="black" d="M272.31,-143.88C290.63,-133.86 313.83,-121.17 332.92,-110.73"/>
<polygon fill="black" stroke="black" points="334.82,-113.68 341.91,-105.81 331.46,-107.54 334.82,-113.68"/>
</g>
<!-- convertabletointegral -->
<g id="node7" class="node">
<title>convertabletointegral</title>
<g id="a_node7"><a xlink:href="PsyllaReference_Types.xhtml#PsyllaReference_Types_Details_convertabletointegral" xlink:title="convertabletointegral" target="_parent">
<polygon fill="linen" stroke="black" points="377.96,-252 266.04,-252 266.04,-216 383.96,-216 383.96,-246 377.96,-252"/>
<polyline fill="none" stroke="black" points="377.96,-252 377.96,-246 "/>
<polyline fill="none" stroke="black" points="383.96,-246 377.96,-246 "/>
<text text-anchor="middle" x="325" y="-230.4" font-family="Source Code Pro,monospace" font-size="12.00">convertabletointegral</text>
</a>
</g>
</g>
<!-- convertabletointegral&#45;&gt;textual -->
<g id="edge6" class="edge">
<title>convertabletointegral&#45;&gt;textual</title>
<path fill="none" stroke="black" d="M327.76,-215.99C330.94,-197.87 336.8,-168.48 345,-144 347.95,-135.19 351.88,-125.86 355.7,-117.54"/>
<polygon fill="black" stroke="black" points="358.96,-118.84 360.08,-108.31 352.63,-115.84 358.96,-118.84"/>
</g>
<!-- convertabletorational -->
<g id="node8" class="node">
<title>convertabletorational</title>
<g id="a_node8"><a xlink:href="PsyllaReference_Types.xhtml#PsyllaReference_Types_Details_convertabletorational" xlink:title="convertabletorational" target="_parent">
<polygon fill="linen" stroke="black" points="465.96,-180 354.04,-180 354.04,-144 471.96,-144 471.96,-174 465.96,-180"/>
<polyline fill="none" stroke="black" points="465.96,-180 465.96,-174 "/>
<polyline fill="none" stroke="black" points="471.96,-174 465.96,-174 "/>
<text text-anchor="middle" x="413" y="-158.4" font-family="Source Code Pro,monospace" font-size="12.00">convertabletorational</text>
</a>
</g>
</g>
<!-- convertabletorational&#45;&gt;textual -->
<g id="edge7" class="edge">
<title>convertabletorational&#45;&gt;textual</title>
<path fill="none" stroke="black" d="M402.12,-143.7C397.01,-135.56 390.8,-125.69 385.16,-116.7"/>
<polygon fill="black" stroke="black" points="388.04,-114.71 379.75,-108.1 382.11,-118.43 388.04,-114.71"/>
</g>
<!-- iterable -->
<g id="node9" class="node">
<title>iterable</title>
<g id="a_node9"><a xlink:href="PsyllaReference_Types.xhtml#PsyllaReference_Types_Details_iterable" xlink:title="iterable" target="_parent">
<polygon fill="linen" stroke="black" points="622,-180 574,-180 574,-144 628,-144 628,-174 622,-180"/>
<polyline fill="none" stroke="black" points="622,-180 622,-174 "/>
<polyline fill="none" stroke="black" points="628,-174 622,-174 "/>
<text text-anchor="middle" x="601" y="-158.4" font-family="Source Code Pro,monospace" font-size="12.00">iterable</text>
</a>
</g>
</g>
<!-- iterable&#45;&gt;textual -->
<g id="edge8" class="edge">
<title>iterable&#45;&gt;textual</title>
<path fill="none" stroke="black" d="M573.87,-151.31C566.78,-148.85 559.12,-146.27 552,-144 501.72,-128.01 443.06,-111.37 405.97,-101.1"/>
<polygon fill="black" stroke="black" points="406.68,-97.66 396.11,-98.38 404.82,-104.41 406.68,-97.66"/>
</g>
<!-- lengthy -->
<g id="node10" class="node">
<title>lengthy</title>
<g id="a_node10"><a xlink:href="PsyllaReference_Types.xhtml#PsyllaReference_Types_Details_lengthy" xlink:title="lengthy" target="_parent">
<polygon fill="linen" stroke="black" points="487,-324 439,-324 439,-288 493,-288 493,-318 487,-324"/>
<polyline fill="none" stroke="black" points="487,-324 487,-318 "/>
<polyline fill="none" stroke="black" points="493,-318 487,-318 "/>
<text text-anchor="middle" x="466" y="-302.4" font-family="Source Code Pro,monospace" font-size="12.00">lengthy</text>
</a>
</g>
</g>
<!-- lengthy&#45;&gt;textual -->
<g id="edge9" class="edge">
<title>lengthy&#45;&gt;textual</title>
<path fill="none" stroke="black" d="M473.96,-287.89C487.21,-256.63 509.68,-189.3 481,-144 464.65,-118.17 431.93,-104.68 406.06,-97.8"/>
<polygon fill="black" stroke="black" points="406.71,-94.35 396.17,-95.39 405.06,-101.16 406.71,-94.35"/>
</g>
<!-- scalar -->
<g id="node11" class="node">
<title>scalar</title>
<g id="a_node11"><a xlink:href="PsyllaReference_Types.xhtml#PsyllaReference_Types_Details_scalar" xlink:title="scalar" target="_parent">
<polygon fill="linen" stroke="black" points="559,-324 511,-324 511,-288 565,-288 565,-318 559,-324"/>
<polyline fill="none" stroke="black" points="559,-324 559,-318 "/>
<polyline fill="none" stroke="black" points="565,-318 559,-318 "/>
<text text-anchor="middle" x="538" y="-302.4" font-family="Source Code Pro,monospace" font-size="12.00">scalar</text>
</a>
</g>
</g>
<!-- scalar&#45;&gt;textual -->
<g id="edge10" class="edge">
<title>scalar&#45;&gt;textual</title>
<path fill="none" stroke="black" d="M539.06,-287.69C540.08,-255.49 537.67,-185.85 502,-144 477.84,-115.65 436.4,-102.33 406.19,-96.16"/>
<polygon fill="black" stroke="black" points="406.49,-92.66 396.01,-94.26 405.2,-99.54 406.49,-92.66"/>
</g>
<!-- object -->
<g id="node12" class="node">
<title>object</title>
<g id="a_node12"><a xlink:href="PsyllaReference_Types.xhtml#PsyllaReference_Types_Details_object" xlink:title="object" target="_parent">
<polygon fill="linen" stroke="black" points="346,-396 298,-396 298,-360 352,-360 352,-390 346,-396"/>
<polyline fill="none" stroke="black" points="346,-396 346,-390 "/>
<polyline fill="none" stroke="black" points="352,-390 346,-390 "/>
<text text-anchor="middle" x="325" y="-374.4" font-family="Source Code Pro,monospace" font-size="12.00">object</text>
</a>
</g>
</g>
<!-- object&#45;&gt;value -->
<g id="edge11" class="edge">
<title>object&#45;&gt;value</title>
<path fill="none" stroke="black" d="M297.91,-377C251.49,-375.76 155.41,-367.64 90,-324 66.89,-308.58 49.57,-281.59 39,-261.37"/>
<polygon fill="black" stroke="black" points="42.09,-259.72 34.49,-252.34 35.83,-262.85 42.09,-259.72"/>
</g>
<!-- object&#45;&gt;concatenable -->
<g id="edge12" class="edge">
<title>object&#45;&gt;concatenable</title>
<path fill="none" stroke="black" d="M297.97,-370.28C270.04,-362.43 226.11,-347.42 194,-324 146.19,-289.13 114.24,-225.31 99.11,-189.39"/>
<polygon fill="black" stroke="black" points="102.31,-187.98 95.29,-180.04 95.83,-190.62 102.31,-187.98"/>
</g>
<!-- object&#45;&gt;evaluable -->
<g id="edge13" class="edge">
<title>object&#45;&gt;evaluable</title>
<path fill="none" stroke="black" d="M297.91,-367.74C275.9,-359.14 245.16,-344.56 224,-324 205.93,-306.43 192.5,-280.92 184.14,-261.71"/>
<polygon fill="black" stroke="black" points="187.3,-260.2 180.23,-252.31 180.84,-262.89 187.3,-260.2"/>
</g>
<!-- object&#45;&gt;convertabletointeger -->
<g id="edge14" class="edge">
<title>object&#45;&gt;convertabletointeger</title>
<path fill="none" stroke="black" d="M313.19,-359.63C297.85,-336.22 271.34,-292.79 257,-252 249.94,-231.91 245.87,-208.13 243.6,-190.21"/>
<polygon fill="black" stroke="black" points="247.06,-189.68 242.44,-180.14 240.11,-190.48 247.06,-189.68"/>
</g>
<!-- object&#45;&gt;convertabletointegral -->
<g id="edge15" class="edge">
<title>object&#45;&gt;convertabletointegral</title>
<path fill="none" stroke="black" d="M325,-359.87C325,-335.67 325,-291.21 325,-262.39"/>
<polygon fill="black" stroke="black" points="328.5,-262.19 325,-252.19 321.5,-262.19 328.5,-262.19"/>
</g>
<!-- object&#45;&gt;convertabletorational -->
<g id="edge16" class="edge">
<title>object&#45;&gt;convertabletorational</title>
<path fill="none" stroke="black" d="M336.29,-359.93C351.3,-336.52 377.7,-292.7 393,-252 400.56,-231.9 405.72,-208.11 408.91,-190.19"/>
<polygon fill="black" stroke="black" points="412.39,-190.58 410.6,-180.14 405.49,-189.42 412.39,-190.58"/>
</g>
<!-- object&#45;&gt;lengthy -->
<g id="edge18" class="edge">
<title>object&#45;&gt;lengthy</title>
<path fill="none" stroke="black" d="M352.19,-363.5C374.23,-352.56 405.49,-337.04 429.68,-325.03"/>
<polygon fill="black" stroke="black" points="431.5,-328.04 438.9,-320.46 428.38,-321.77 431.5,-328.04"/>
</g>
<!-- object&#45;&gt;scalar -->
<g id="edge19" class="edge">
<title>object&#45;&gt;scalar</title>
<path fill="none" stroke="black" d="M352.11,-370.24C385.35,-361.66 443.48,-345.72 501.06,-324.09"/>
<polygon fill="black" stroke="black" points="502.57,-327.26 510.67,-320.43 500.08,-320.72 502.57,-327.26"/>
</g>
<!-- sequential -->
<g id="node14" class="node">
<title>sequential</title>
<g id="a_node14"><a xlink:href="PsyllaReference_Types.xhtml#PsyllaReference_Types_Details_sequential" xlink:title="sequential" target="_parent">
<polygon fill="linen" stroke="black" points="641.15,-324 582.85,-324 582.85,-288 647.15,-288 647.15,-318 641.15,-324"/>
<polyline fill="none" stroke="black" points="641.15,-324 641.15,-318 "/>
<polyline fill="none" stroke="black" points="647.15,-318 641.15,-318 "/>
<text text-anchor="middle" x="615" y="-302.4" font-family="Source Code Pro,monospace" font-size="12.00">sequential</text>
</a>
</g>
</g>
<!-- object&#45;&gt;sequential -->
<g id="edge21" class="edge">
<title>object&#45;&gt;sequential</title>
<path fill="none" stroke="black" d="M352.32,-372.87C396.88,-365.78 487.98,-349.78 572.76,-324.11"/>
<polygon fill="black" stroke="black" points="574,-327.39 582.52,-321.1 571.94,-320.7 574,-327.39"/>
</g>
<!-- streamable -->
<g id="node13" class="node">
<title>streamable</title>
<g id="a_node13"><a xlink:href="PsyllaReference_Types.xhtml#PsyllaReference_Types_Details_streamable" xlink:title="streamable" target="_parent">
<polygon fill="linen" stroke="black" points="635.97,-252 574.03,-252 574.03,-216 641.97,-216 641.97,-246 635.97,-252"/>
<polyline fill="none" stroke="black" points="635.97,-252 635.97,-246 "/>
<polyline fill="none" stroke="black" points="641.97,-246 635.97,-246 "/>
<text text-anchor="middle" x="608" y="-230.4" font-family="Source Code Pro,monospace" font-size="12.00">streamable</text>
</a>
</g>
</g>
<!-- streamable&#45;&gt;iterable -->
<g id="edge17" class="edge">
<title>streamable&#45;&gt;iterable</title>
<path fill="none" stroke="black" d="M606.27,-215.7C605.5,-207.98 604.57,-198.71 603.71,-190.11"/>
<polygon fill="black" stroke="black" points="607.19,-189.71 602.71,-180.1 600.22,-190.4 607.19,-189.71"/>
</g>
<!-- sequential&#45;&gt;streamable -->
<g id="edge20" class="edge">
<title>sequential&#45;&gt;streamable</title>
<path fill="none" stroke="black" d="M613.27,-287.7C612.5,-279.98 611.57,-270.71 610.71,-262.11"/>
<polygon fill="black" stroke="black" points="614.19,-261.71 609.71,-252.1 607.22,-262.4 614.19,-261.71"/>
</g>
</g>
</svg>
