<?xml version="1.0" encoding="UTF-8" standalone="no"?>
<!DOCTYPE svg PUBLIC "-//W3C//DTD SVG 1.1//EN"
 "http://www.w3.org/Graphics/SVG/1.1/DTD/svg11.dtd">
<!-- Generated by graphviz version 14.0.0 (0)
 -->
<!-- Title: stream Pages: 1 -->
<svg width="223pt" height="332pt"
 viewBox="0.00 0.00 223.00 332.00" xmlns="http://www.w3.org/2000/svg" xmlns:xlink="http://www.w3.org/1999/xlink">
<g id="graph0" class="graph" transform="scale(1 1) rotate(0) translate(4 328)">
<title>stream</title>
<polygon fill="none" stroke="none" points="-4,4 -4,-328 218.65,-328 218.65,4 -4,4"/>
<!-- formalstream -->
<g id="node1" class="node">
<title>formalstream</title>
<g id="a_node1"><a xlink:href="PsyllaReference_Types.xhtml#PsyllaReference_Types_Details_formalstream" xlink:title="formalstream" target="_parent">
<polygon fill="linen" stroke="black" points="126.31,-108 52.33,-108 52.33,-72 132.31,-72 132.31,-102 126.31,-108"/>
<polyline fill="none" stroke="black" points="126.31,-108 126.31,-102"/>
<polyline fill="none" stroke="black" points="132.31,-102 126.31,-102"/>
<text xml:space="preserve" text-anchor="middle" x="92.32" y="-86.4" font-family="Source Code Pro,monospace" font-size="12.00">formalstream</text>
</a>
</g>
</g>
<!-- stream -->
<g id="node2" class="node">
<title>stream</title>
<g id="a_node2"><a xlink:href="PsyllaReference_Types.xhtml#PsyllaReference_Types_Details_stream" xlink:title="stream" target="_parent">
<polygon fill="wheat" stroke="black" points="113.32,-36 65.32,-36 65.32,0 119.32,0 119.32,-30 113.32,-36"/>
<polyline fill="none" stroke="black" points="113.32,-36 113.32,-30"/>
<polyline fill="none" stroke="black" points="119.32,-30 113.32,-30"/>
<text xml:space="preserve" text-anchor="middle" x="92.32" y="-14.4" font-family="Source Code Pro,monospace" font-size="12.00">stream</text>
</a>
</g>
</g>
<!-- formalstream&#45;&gt;stream -->
<g id="edge1" class="edge">
<title>formalstream&#45;&gt;stream</title>
<path fill="none" stroke="black" d="M92.32,-71.7C92.32,-64.41 92.32,-55.73 92.32,-47.54"/>
<polygon fill="black" stroke="black" points="95.82,-47.62 92.32,-37.62 88.82,-47.62 95.82,-47.62"/>
</g>
<!-- streamable -->
<g id="node3" class="node">
<title>streamable</title>
<g id="a_node3"><a xlink:href="PsyllaReference_Types.xhtml#PsyllaReference_Types_Details_streamable" xlink:title="streamable" target="_parent">
<polygon fill="linen" stroke="black" points="196.31,-180 134.33,-180 134.33,-144 202.31,-144 202.31,-174 196.31,-180"/>
<polyline fill="none" stroke="black" points="196.31,-180 196.31,-174"/>
<polyline fill="none" stroke="black" points="202.31,-174 196.31,-174"/>
<text xml:space="preserve" text-anchor="middle" x="168.32" y="-158.4" font-family="Source Code Pro,monospace" font-size="12.00">streamable</text>
</a>
</g>
</g>
<!-- streamable&#45;&gt;formalstream -->
<g id="edge2" class="edge">
<title>streamable&#45;&gt;formalstream</title>
<path fill="none" stroke="black" d="M149.53,-143.7C140.49,-135.37 129.48,-125.22 119.54,-116.07"/>
<polygon fill="black" stroke="black" points="122,-113.57 112.27,-109.37 117.25,-118.72 122,-113.57"/>
</g>
<!-- closeable -->
<g id="node4" class="node">
<title>closeable</title>
<g id="a_node4"><a xlink:href="PsyllaReference_Types.xhtml#PsyllaReference_Types_Details_closeable" xlink:title="closeable" target="_parent">
<polygon fill="linen" stroke="black" points="54.64,-180 0,-180 0,-144 60.64,-144 60.64,-174 54.64,-180"/>
<polyline fill="none" stroke="black" points="54.64,-180 54.64,-174"/>
<polyline fill="none" stroke="black" points="60.64,-174 54.64,-174"/>
<text xml:space="preserve" text-anchor="middle" x="30.32" y="-158.4" font-family="Source Code Pro,monospace" font-size="12.00">closeable</text>
</a>
</g>
</g>
<!-- closeable&#45;&gt;formalstream -->
<g id="edge3" class="edge">
<title>closeable&#45;&gt;formalstream</title>
<path fill="none" stroke="black" d="M45.65,-143.7C52.85,-135.56 61.6,-125.69 69.56,-116.7"/>
<polygon fill="black" stroke="black" points="72.16,-119.04 76.17,-109.24 66.92,-114.4 72.16,-119.04"/>
</g>
<!-- concatenable -->
<g id="node5" class="node">
<title>concatenable</title>
<g id="a_node5"><a xlink:href="PsyllaReference_Types.xhtml#PsyllaReference_Types_Details_concatenable" xlink:title="concatenable" target="_parent">
<polygon fill="linen" stroke="black" points="125.63,-252 53.01,-252 53.01,-216 131.63,-216 131.63,-246 125.63,-252"/>
<polyline fill="none" stroke="black" points="125.63,-252 125.63,-246"/>
<polyline fill="none" stroke="black" points="131.63,-246 125.63,-246"/>
<text xml:space="preserve" text-anchor="middle" x="92.32" y="-230.4" font-family="Source Code Pro,monospace" font-size="12.00">concatenable</text>
</a>
</g>
</g>
<!-- concatenable&#45;&gt;formalstream -->
<g id="edge4" class="edge">
<title>concatenable&#45;&gt;formalstream</title>
<path fill="none" stroke="black" d="M92.32,-215.59C92.32,-191.61 92.32,-148.14 92.32,-119.42"/>
<polygon fill="black" stroke="black" points="95.82,-119.62 92.32,-109.62 88.82,-119.62 95.82,-119.62"/>
</g>
<!-- sequential -->
<g id="node6" class="node">
<title>sequential</title>
<g id="a_node6"><a xlink:href="PsyllaReference_Types.xhtml#PsyllaReference_Types_Details_sequential" xlink:title="sequential" target="_parent">
<polygon fill="linen" stroke="black" points="208.65,-252 150,-252 150,-216 214.65,-216 214.65,-246 208.65,-252"/>
<polyline fill="none" stroke="black" points="208.65,-252 208.65,-246"/>
<polyline fill="none" stroke="black" points="214.65,-246 208.65,-246"/>
<text xml:space="preserve" text-anchor="middle" x="182.32" y="-230.4" font-family="Source Code Pro,monospace" font-size="12.00">sequential</text>
</a>
</g>
</g>
<!-- sequential&#45;&gt;streamable -->
<g id="edge5" class="edge">
<title>sequential&#45;&gt;streamable</title>
<path fill="none" stroke="black" d="M178.86,-215.7C177.39,-208.32 175.63,-199.52 173.97,-191.25"/>
<polygon fill="black" stroke="black" points="177.43,-190.71 172.04,-181.59 170.57,-192.08 177.43,-190.71"/>
</g>
<!-- object -->
<g id="node7" class="node">
<title>object</title>
<g id="a_node7"><a xlink:href="PsyllaReference_Types.xhtml#PsyllaReference_Types_Details_object" xlink:title="object" target="_parent">
<polygon fill="linen" stroke="black" points="113.32,-324 65.32,-324 65.32,-288 119.32,-288 119.32,-318 113.32,-324"/>
<polyline fill="none" stroke="black" points="113.32,-324 113.32,-318"/>
<polyline fill="none" stroke="black" points="119.32,-318 113.32,-318"/>
<text xml:space="preserve" text-anchor="middle" x="92.32" y="-302.4" font-family="Source Code Pro,monospace" font-size="12.00">object</text>
</a>
</g>
</g>
<!-- object&#45;&gt;closeable -->
<g id="edge6" class="edge">
<title>object&#45;&gt;closeable</title>
<path fill="none" stroke="black" d="M72,-287.87C62.06,-278.34 50.85,-265.66 44.32,-252 35.29,-233.11 31.87,-209.63 30.67,-191.53"/>
<polygon fill="black" stroke="black" points="34.18,-191.6 30.23,-181.77 27.19,-191.92 34.18,-191.6"/>
</g>
<!-- object&#45;&gt;concatenable -->
<g id="edge7" class="edge">
<title>object&#45;&gt;concatenable</title>
<path fill="none" stroke="black" d="M92.32,-287.7C92.32,-280.41 92.32,-271.73 92.32,-263.54"/>
<polygon fill="black" stroke="black" points="95.82,-263.62 92.32,-253.62 88.82,-263.62 95.82,-263.62"/>
</g>
<!-- object&#45;&gt;sequential -->
<g id="edge8" class="edge">
<title>object&#45;&gt;sequential</title>
<path fill="none" stroke="black" d="M114.57,-287.7C125.6,-279.11 139.11,-268.61 151.16,-259.24"/>
<polygon fill="black" stroke="black" points="153.08,-262.18 158.82,-253.28 148.78,-256.65 153.08,-262.18"/>
</g>
</g>
</svg>
