<?xml version="1.0" encoding="UTF-8" standalone="no"?>
<!DOCTYPE svg PUBLIC "-//W3C//DTD SVG 1.1//EN"
 "http://www.w3.org/Graphics/SVG/1.1/DTD/svg11.dtd">
<!-- Generated by graphviz version 2.43.0 (0)
 -->
<!-- Title: reader Pages: 1 -->
<svg width="463pt" height="260pt"
 viewBox="0.00 0.00 463.00 260.00" xmlns="http://www.w3.org/2000/svg" xmlns:xlink="http://www.w3.org/1999/xlink">
<g id="graph0" class="graph" transform="scale(1 1) rotate(0) translate(4 256)">
<title>reader</title>
<polygon fill="transparent" stroke="transparent" points="-4,4 -4,-256 459,-256 459,4 -4,4"/>
<!-- closeable -->
<g id="node1" class="node">
<title>closeable</title>
<g id="a_node1"><a xlink:href="PsyllaReference_Types.xhtml#PsyllaReference_Types_Details_closeable" xlink:title="closeable" target="_parent">
<polygon fill="linen" stroke="black" points="119,-108 0,-108 0,-72 125,-72 125,-102 119,-108"/>
<polyline fill="none" stroke="black" points="119,-108 119,-102 "/>
<polyline fill="none" stroke="black" points="125,-102 119,-102 "/>
<text text-anchor="middle" x="62.5" y="-85" font-family="PT Mono, monospace" font-size="20.00">closeable</text>
</a>
</g>
</g>
<!-- reader -->
<g id="node5" class="node">
<title>reader</title>
<g id="a_node5"><a xlink:href="PsyllaReference_Types.xhtml#PsyllaReference_Types_Details_reader" xlink:title="reader" target="_parent">
<polygon fill="wheat" stroke="black" points="289,-36 206,-36 206,0 295,0 295,-30 289,-36"/>
<polyline fill="none" stroke="black" points="289,-36 289,-30 "/>
<polyline fill="none" stroke="black" points="295,-30 289,-30 "/>
<text text-anchor="middle" x="250.5" y="-13" font-family="PT Mono, monospace" font-size="20.00">reader</text>
</a>
</g>
</g>
<!-- closeable&#45;&gt;reader -->
<g id="edge1" class="edge">
<title>closeable&#45;&gt;reader</title>
<path fill="none" stroke="black" d="M108.49,-71.88C135.04,-61.99 168.57,-49.51 196.38,-39.15"/>
<polygon fill="black" stroke="black" points="197.81,-42.35 205.96,-35.59 195.36,-35.79 197.81,-42.35"/>
</g>
<!-- evaluable -->
<g id="node2" class="node">
<title>evaluable</title>
<g id="a_node2"><a xlink:href="PsyllaReference_Types.xhtml#PsyllaReference_Types_Details_evaluable" xlink:title="evaluable" target="_parent">
<polygon fill="linen" stroke="black" points="262,-108 143,-108 143,-72 268,-72 268,-102 262,-108"/>
<polyline fill="none" stroke="black" points="262,-108 262,-102 "/>
<polyline fill="none" stroke="black" points="268,-102 262,-102 "/>
<text text-anchor="middle" x="205.5" y="-85" font-family="PT Mono, monospace" font-size="20.00">evaluable</text>
</a>
</g>
</g>
<!-- evaluable&#45;&gt;reader -->
<g id="edge2" class="edge">
<title>evaluable&#45;&gt;reader</title>
<path fill="none" stroke="black" d="M216.62,-71.7C221.86,-63.56 228.2,-53.69 233.98,-44.7"/>
<polygon fill="black" stroke="black" points="237.04,-46.41 239.5,-36.1 231.15,-42.62 237.04,-46.41"/>
</g>
<!-- readable -->
<g id="node3" class="node">
<title>readable</title>
<g id="a_node3"><a xlink:href="PsyllaReference_Types.xhtml#PsyllaReference_Types_Details_readable" xlink:title="readable" target="_parent">
<polygon fill="linen" stroke="black" points="449,-108 342,-108 342,-72 455,-72 455,-102 449,-108"/>
<polyline fill="none" stroke="black" points="449,-108 449,-102 "/>
<polyline fill="none" stroke="black" points="455,-102 449,-102 "/>
<text text-anchor="middle" x="398.5" y="-85" font-family="PT Mono, monospace" font-size="20.00">readable</text>
</a>
</g>
</g>
<!-- readable&#45;&gt;reader -->
<g id="edge3" class="edge">
<title>readable&#45;&gt;reader</title>
<path fill="none" stroke="black" d="M362.3,-71.88C342.24,-62.39 317.13,-50.51 295.79,-40.42"/>
<polygon fill="black" stroke="black" points="297.12,-37.18 286.59,-36.07 294.13,-43.51 297.12,-37.18"/>
</g>
<!-- resetable -->
<g id="node4" class="node">
<title>resetable</title>
<g id="a_node4"><a xlink:href="PsyllaReference_Types.xhtml#PsyllaReference_Types_Details_resetable" xlink:title="resetable" target="_parent">
<polygon fill="linen" stroke="black" points="344,-180 225,-180 225,-144 350,-144 350,-174 344,-180"/>
<polyline fill="none" stroke="black" points="344,-180 344,-174 "/>
<polyline fill="none" stroke="black" points="350,-174 344,-174 "/>
<text text-anchor="middle" x="287.5" y="-157" font-family="PT Mono, monospace" font-size="20.00">resetable</text>
</a>
</g>
</g>
<!-- resetable&#45;&gt;reader -->
<g id="edge4" class="edge">
<title>resetable&#45;&gt;reader</title>
<path fill="none" stroke="black" d="M287.07,-143.93C286.22,-125.75 283.75,-96.32 276.5,-72 273.78,-62.87 269.6,-53.37 265.39,-44.99"/>
<polygon fill="black" stroke="black" points="268.45,-43.29 260.69,-36.07 262.26,-46.55 268.45,-43.29"/>
</g>
<!-- object -->
<g id="node6" class="node">
<title>object</title>
<g id="a_node6"><a xlink:href="PsyllaReference_Types.xhtml#PsyllaReference_Types_Details_object" xlink:title="object" target="_parent">
<polygon fill="linen" stroke="black" points="280,-252 197,-252 197,-216 286,-216 286,-246 280,-252"/>
<polyline fill="none" stroke="black" points="280,-252 280,-246 "/>
<polyline fill="none" stroke="black" points="286,-246 280,-246 "/>
<text text-anchor="middle" x="241.5" y="-229" font-family="PT Mono, monospace" font-size="20.00">object</text>
</a>
</g>
</g>
<!-- object&#45;&gt;closeable -->
<g id="edge5" class="edge">
<title>object&#45;&gt;closeable</title>
<path fill="none" stroke="black" d="M219.91,-215.87C188.06,-190.6 128.37,-143.25 92.35,-114.68"/>
<polygon fill="black" stroke="black" points="94.18,-111.66 84.17,-108.19 89.83,-117.15 94.18,-111.66"/>
</g>
<!-- object&#45;&gt;evaluable -->
<g id="edge6" class="edge">
<title>object&#45;&gt;evaluable</title>
<path fill="none" stroke="black" d="M231.26,-215.94C225.68,-205.84 219.18,-192.59 215.5,-180 209.59,-159.76 207.14,-135.98 206.13,-118.1"/>
<polygon fill="black" stroke="black" points="209.63,-117.91 205.69,-108.07 202.64,-118.22 209.63,-117.91"/>
</g>
<!-- object&#45;&gt;resetable -->
<g id="edge8" class="edge">
<title>object&#45;&gt;resetable</title>
<path fill="none" stroke="black" d="M252.87,-215.7C258.22,-207.56 264.7,-197.69 270.61,-188.7"/>
<polygon fill="black" stroke="black" points="273.69,-190.38 276.26,-180.1 267.84,-186.54 273.69,-190.38"/>
</g>
<!-- ready -->
<g id="node7" class="node">
<title>ready</title>
<g id="a_node7"><a xlink:href="PsyllaReference_Types.xhtml#PsyllaReference_Types_Details_ready" xlink:title="ready" target="_parent">
<polygon fill="linen" stroke="black" points="439,-180 368,-180 368,-144 445,-144 445,-174 439,-180"/>
<polyline fill="none" stroke="black" points="439,-180 439,-174 "/>
<polyline fill="none" stroke="black" points="445,-174 439,-174 "/>
<text text-anchor="middle" x="406.5" y="-157" font-family="PT Mono, monospace" font-size="20.00">ready</text>
</a>
</g>
</g>
<!-- object&#45;&gt;ready -->
<g id="edge9" class="edge">
<title>object&#45;&gt;ready</title>
<path fill="none" stroke="black" d="M281.86,-215.88C305.03,-206.05 334.24,-193.65 358.57,-183.33"/>
<polygon fill="black" stroke="black" points="360.13,-186.47 367.97,-179.35 357.4,-180.03 360.13,-186.47"/>
</g>
<!-- ready&#45;&gt;readable -->
<g id="edge7" class="edge">
<title>ready&#45;&gt;readable</title>
<path fill="none" stroke="black" d="M404.52,-143.7C403.64,-135.98 402.58,-126.71 401.6,-118.11"/>
<polygon fill="black" stroke="black" points="405.07,-117.64 400.45,-108.1 398.11,-118.44 405.07,-117.64"/>
</g>
</g>
</svg>
