<?xml version="1.0" encoding="UTF-8" standalone="no"?>
<!DOCTYPE svg PUBLIC "-//W3C//DTD SVG 1.1//EN"
 "http://www.w3.org/Graphics/SVG/1.1/DTD/svg11.dtd">
<!-- Generated by graphviz version 2.49.3 (0)
 -->
<!-- Title: closeable Pages: 1 -->
<svg width="69pt" height="116pt"
 viewBox="0.00 0.00 68.64 116.00" xmlns="http://www.w3.org/2000/svg" xmlns:xlink="http://www.w3.org/1999/xlink">
<g id="graph0" class="graph" transform="scale(1 1) rotate(0) translate(4 112)">
<title>closeable</title>
<polygon fill="transparent" stroke="transparent" points="-4,4 -4,-112 64.64,-112 64.64,4 -4,4"/>
<!-- object -->
<g id="node1" class="node">
<title>object</title>
<g id="a_node1"><a xlink:href="PsyllaReference_Types.xhtml#PsyllaReference_Types_Details_object" xlink:title="object" target="_parent">
<polygon fill="linen" stroke="black" points="51.32,-108 3.32,-108 3.32,-72 57.32,-72 57.32,-102 51.32,-108"/>
<polyline fill="none" stroke="black" points="51.32,-108 51.32,-102 "/>
<polyline fill="none" stroke="black" points="57.32,-102 51.32,-102 "/>
<text text-anchor="middle" x="30.32" y="-86.4" font-family="Source Code Pro,monospace" font-size="12.00">object</text>
</a>
</g>
</g>
<!-- closeable -->
<g id="node2" class="node">
<title>closeable</title>
<g id="a_node2"><a xlink:href="PsyllaReference_Types.xhtml#PsyllaReference_Types_Details_closeable" xlink:title="closeable" target="_parent">
<polygon fill="wheat" stroke="black" points="54.47,-36 0.18,-36 0.18,0 60.47,0 60.47,-30 54.47,-36"/>
<polyline fill="none" stroke="black" points="54.47,-36 54.47,-30 "/>
<polyline fill="none" stroke="black" points="60.47,-30 54.47,-30 "/>
<text text-anchor="middle" x="30.32" y="-14.4" font-family="Source Code Pro,monospace" font-size="12.00">closeable</text>
</a>
</g>
</g>
<!-- object&#45;&gt;closeable -->
<g id="edge1" class="edge">
<title>object&#45;&gt;closeable</title>
<path fill="none" stroke="black" d="M30.32,-71.7C30.32,-63.98 30.32,-54.71 30.32,-46.11"/>
<polygon fill="black" stroke="black" points="33.82,-46.1 30.32,-36.1 26.82,-46.1 33.82,-46.1"/>
</g>
</g>
</svg>
