<?xml version="1.0" encoding="UTF-8" standalone="no"?>
<!DOCTYPE svg PUBLIC "-//W3C//DTD SVG 1.1//EN"
 "http://www.w3.org/Graphics/SVG/1.1/DTD/svg11.dtd">
<!-- Generated by graphviz version 2.43.0 (0)
 -->
<!-- Title: realnumeric Pages: 1 -->
<svg width="748pt" height="332pt"
 viewBox="0.00 0.00 747.50 332.00" xmlns="http://www.w3.org/2000/svg" xmlns:xlink="http://www.w3.org/1999/xlink">
<g id="graph0" class="graph" transform="scale(1 1) rotate(0) translate(4 328)">
<title>realnumeric</title>
<polygon fill="transparent" stroke="transparent" points="-4,4 -4,-328 743.5,-328 743.5,4 -4,4"/>
<!-- numeric -->
<g id="node1" class="node">
<title>numeric</title>
<g id="a_node1"><a xlink:href="PsyllaReference_Types.xhtml#PsyllaReference_Types_Details_numeric" xlink:title="numeric" target="_parent">
<polygon fill="linen" stroke="black" points="501,-108 438,-108 438,-72 507,-72 507,-102 501,-108"/>
<polyline fill="none" stroke="black" points="501,-108 501,-102 "/>
<polyline fill="none" stroke="black" points="507,-102 501,-102 "/>
<text text-anchor="middle" x="472.5" y="-86.9" font-family="Source Code Pro,monospace" font-size="12.00">numeric</text>
</a>
</g>
</g>
<!-- realnumeric -->
<g id="node6" class="node">
<title>realnumeric</title>
<g id="a_node6"><a xlink:href="PsyllaReference_Types.xhtml#PsyllaReference_Types_Details_realnumeric" xlink:title="realnumeric" target="_parent">
<polygon fill="wheat" stroke="black" points="357,-36 264,-36 264,0 363,0 363,-30 357,-36"/>
<polyline fill="none" stroke="black" points="357,-36 357,-30 "/>
<polyline fill="none" stroke="black" points="363,-30 357,-30 "/>
<text text-anchor="middle" x="313.5" y="-14.9" font-family="Source Code Pro,monospace" font-size="12.00">realnumeric</text>
</a>
</g>
</g>
<!-- numeric&#45;&gt;realnumeric -->
<g id="edge1" class="edge">
<title>numeric&#45;&gt;realnumeric</title>
<path fill="none" stroke="black" d="M438,-73.81C415.57,-63.93 386,-50.92 361.32,-40.05"/>
<polygon fill="black" stroke="black" points="362.68,-36.83 352.12,-36 359.86,-43.23 362.68,-36.83"/>
</g>
<!-- convertabletointeger -->
<g id="node2" class="node">
<title>convertabletointeger</title>
<g id="a_node2"><a xlink:href="PsyllaReference_Types.xhtml#PsyllaReference_Types_Details_convertabletointeger" xlink:title="convertabletointeger" target="_parent">
<polygon fill="linen" stroke="black" points="161,-180 0,-180 0,-144 167,-144 167,-174 161,-180"/>
<polyline fill="none" stroke="black" points="161,-180 161,-174 "/>
<polyline fill="none" stroke="black" points="167,-174 161,-174 "/>
<text text-anchor="middle" x="83.5" y="-158.9" font-family="Source Code Pro,monospace" font-size="12.00">convertabletointeger</text>
</a>
</g>
</g>
<!-- convertabletointeger&#45;&gt;realnumeric -->
<g id="edge2" class="edge">
<title>convertabletointeger&#45;&gt;realnumeric</title>
<path fill="none" stroke="black" d="M82.17,-143.81C81.62,-123.85 83.96,-91.22 102.5,-72 123.24,-50.51 198.89,-35.34 253.68,-26.89"/>
<polygon fill="black" stroke="black" points="254.28,-30.34 263.65,-25.39 253.24,-23.42 254.28,-30.34"/>
</g>
<!-- convertabletointegral -->
<g id="node3" class="node">
<title>convertabletointegral</title>
<g id="a_node3"><a xlink:href="PsyllaReference_Types.xhtml#PsyllaReference_Types_Details_convertabletointegral" xlink:title="convertabletointegral" target="_parent">
<polygon fill="linen" stroke="black" points="279.5,-108 111.5,-108 111.5,-72 285.5,-72 285.5,-102 279.5,-108"/>
<polyline fill="none" stroke="black" points="279.5,-108 279.5,-102 "/>
<polyline fill="none" stroke="black" points="285.5,-102 279.5,-102 "/>
<text text-anchor="middle" x="198.5" y="-86.9" font-family="Source Code Pro,monospace" font-size="12.00">convertabletointegral</text>
</a>
</g>
</g>
<!-- convertabletointegral&#45;&gt;realnumeric -->
<g id="edge3" class="edge">
<title>convertabletointegral&#45;&gt;realnumeric</title>
<path fill="none" stroke="black" d="M226.63,-71.88C241.67,-62.72 260.37,-51.34 276.56,-41.48"/>
<polygon fill="black" stroke="black" points="278.54,-44.38 285.26,-36.19 274.9,-38.4 278.54,-44.38"/>
</g>
<!-- convertabletorational -->
<g id="node4" class="node">
<title>convertabletorational</title>
<g id="a_node4"><a xlink:href="PsyllaReference_Types.xhtml#PsyllaReference_Types_Details_convertabletorational" xlink:title="convertabletorational" target="_parent">
<polygon fill="linen" stroke="black" points="390.5,-180 222.5,-180 222.5,-144 396.5,-144 396.5,-174 390.5,-180"/>
<polyline fill="none" stroke="black" points="390.5,-180 390.5,-174 "/>
<polyline fill="none" stroke="black" points="396.5,-174 390.5,-174 "/>
<text text-anchor="middle" x="309.5" y="-158.9" font-family="Source Code Pro,monospace" font-size="12.00">convertabletorational</text>
</a>
</g>
</g>
<!-- convertabletorational&#45;&gt;realnumeric -->
<g id="edge4" class="edge">
<title>convertabletorational&#45;&gt;realnumeric</title>
<path fill="none" stroke="black" d="M309.98,-143.87C310.66,-119.67 311.92,-75.21 312.73,-46.39"/>
<polygon fill="black" stroke="black" points="316.23,-46.28 313.02,-36.19 309.24,-46.09 316.23,-46.28"/>
</g>
<!-- scalar -->
<g id="node5" class="node">
<title>scalar</title>
<g id="a_node5"><a xlink:href="PsyllaReference_Types.xhtml#PsyllaReference_Types_Details_scalar" xlink:title="scalar" target="_parent">
<polygon fill="linen" stroke="black" points="405.5,-108 349.5,-108 349.5,-72 411.5,-72 411.5,-102 405.5,-108"/>
<polyline fill="none" stroke="black" points="405.5,-108 405.5,-102 "/>
<polyline fill="none" stroke="black" points="411.5,-102 405.5,-102 "/>
<text text-anchor="middle" x="380.5" y="-86.9" font-family="Source Code Pro,monospace" font-size="12.00">scalar</text>
</a>
</g>
</g>
<!-- scalar&#45;&gt;realnumeric -->
<g id="edge5" class="edge">
<title>scalar&#45;&gt;realnumeric</title>
<path fill="none" stroke="black" d="M363.94,-71.7C355.82,-63.22 345.91,-52.86 337.03,-43.58"/>
<polygon fill="black" stroke="black" points="339.31,-40.91 329.87,-36.1 334.26,-45.75 339.31,-40.91"/>
</g>
<!-- atomic -->
<g id="node7" class="node">
<title>atomic</title>
<g id="a_node7"><a xlink:href="PsyllaReference_Types.xhtml#PsyllaReference_Types_Details_atomic" xlink:title="atomic" target="_parent">
<polygon fill="linen" stroke="black" points="497.5,-252 441.5,-252 441.5,-216 503.5,-216 503.5,-246 497.5,-252"/>
<polyline fill="none" stroke="black" points="497.5,-252 497.5,-246 "/>
<polyline fill="none" stroke="black" points="503.5,-246 497.5,-246 "/>
<text text-anchor="middle" x="472.5" y="-230.9" font-family="Source Code Pro,monospace" font-size="12.00">atomic</text>
</a>
</g>
</g>
<!-- atomic&#45;&gt;numeric -->
<g id="edge6" class="edge">
<title>atomic&#45;&gt;numeric</title>
<path fill="none" stroke="black" d="M472.5,-215.87C472.5,-191.67 472.5,-147.21 472.5,-118.39"/>
<polygon fill="black" stroke="black" points="476,-118.19 472.5,-108.19 469,-118.19 476,-118.19"/>
</g>
<!-- arithmetic -->
<g id="node8" class="node">
<title>arithmetic</title>
<g id="a_node8"><a xlink:href="PsyllaReference_Types.xhtml#PsyllaReference_Types_Details_arithmetic" xlink:title="arithmetic" target="_parent">
<polygon fill="linen" stroke="black" points="600.5,-180 514.5,-180 514.5,-144 606.5,-144 606.5,-174 600.5,-180"/>
<polyline fill="none" stroke="black" points="600.5,-180 600.5,-174 "/>
<polyline fill="none" stroke="black" points="606.5,-174 600.5,-174 "/>
<text text-anchor="middle" x="560.5" y="-158.9" font-family="Source Code Pro,monospace" font-size="12.00">arithmetic</text>
</a>
</g>
</g>
<!-- arithmetic&#45;&gt;numeric -->
<g id="edge7" class="edge">
<title>arithmetic&#45;&gt;numeric</title>
<path fill="none" stroke="black" d="M538.75,-143.7C527.66,-134.88 514.03,-124.03 502.01,-114.47"/>
<polygon fill="black" stroke="black" points="504.01,-111.59 494,-108.1 499.65,-117.07 504.01,-111.59"/>
</g>
<!-- object -->
<g id="node9" class="node">
<title>object</title>
<g id="a_node9"><a xlink:href="PsyllaReference_Types.xhtml#PsyllaReference_Types_Details_object" xlink:title="object" target="_parent">
<polygon fill="linen" stroke="black" points="438.5,-324 382.5,-324 382.5,-288 444.5,-288 444.5,-318 438.5,-324"/>
<polyline fill="none" stroke="black" points="438.5,-324 438.5,-318 "/>
<polyline fill="none" stroke="black" points="444.5,-318 438.5,-318 "/>
<text text-anchor="middle" x="413.5" y="-302.9" font-family="Source Code Pro,monospace" font-size="12.00">object</text>
</a>
</g>
</g>
<!-- object&#45;&gt;convertabletointeger -->
<g id="edge8" class="edge">
<title>object&#45;&gt;convertabletointeger</title>
<path fill="none" stroke="black" d="M382.34,-303C335.94,-298.93 247,-286.88 180.5,-252 150.12,-236.07 122.03,-208.23 103.98,-187.92"/>
<polygon fill="black" stroke="black" points="106.54,-185.53 97.34,-180.27 101.25,-190.12 106.54,-185.53"/>
</g>
<!-- object&#45;&gt;convertabletointegral -->
<g id="edge9" class="edge">
<title>object&#45;&gt;convertabletointegral</title>
<path fill="none" stroke="black" d="M382.3,-294.83C337.17,-278.38 254.59,-241.43 213.5,-180 201.35,-161.84 197.99,-137.07 197.44,-118.27"/>
<polygon fill="black" stroke="black" points="200.94,-118.23 197.4,-108.25 193.94,-118.27 200.94,-118.23"/>
</g>
<!-- object&#45;&gt;convertabletorational -->
<g id="edge10" class="edge">
<title>object&#45;&gt;convertabletorational</title>
<path fill="none" stroke="black" d="M400.96,-287.87C382.84,-263.14 349.23,-217.24 328.18,-188.51"/>
<polygon fill="black" stroke="black" points="330.82,-186.19 322.09,-180.19 325.17,-190.33 330.82,-186.19"/>
</g>
<!-- object&#45;&gt;scalar -->
<g id="edge11" class="edge">
<title>object&#45;&gt;scalar</title>
<path fill="none" stroke="black" d="M414.81,-287.76C416.6,-257.94 418.27,-195.04 405.5,-144 403.2,-134.82 399.28,-125.32 395.21,-116.94"/>
<polygon fill="black" stroke="black" points="398.31,-115.32 390.63,-108.03 392.09,-118.52 398.31,-115.32"/>
</g>
<!-- object&#45;&gt;atomic -->
<g id="edge12" class="edge">
<title>object&#45;&gt;atomic</title>
<path fill="none" stroke="black" d="M428.08,-287.7C435.16,-279.3 443.78,-269.07 451.55,-259.86"/>
<polygon fill="black" stroke="black" points="454.31,-262.01 458.08,-252.1 448.96,-257.49 454.31,-262.01"/>
</g>
<!-- additive -->
<g id="node10" class="node">
<title>additive</title>
<g id="a_node10"><a xlink:href="PsyllaReference_Types.xhtml#PsyllaReference_Types_Details_additive" xlink:title="additive" target="_parent">
<polygon fill="linen" stroke="black" points="593,-252 522,-252 522,-216 599,-216 599,-246 593,-252"/>
<polyline fill="none" stroke="black" points="593,-252 593,-246 "/>
<polyline fill="none" stroke="black" points="599,-246 593,-246 "/>
<text text-anchor="middle" x="560.5" y="-230.9" font-family="Source Code Pro,monospace" font-size="12.00">additive</text>
</a>
</g>
</g>
<!-- object&#45;&gt;additive -->
<g id="edge15" class="edge">
<title>object&#45;&gt;additive</title>
<path fill="none" stroke="black" d="M444.67,-290.15C465.27,-280.35 492.58,-267.34 515.52,-256.42"/>
<polygon fill="black" stroke="black" points="517.19,-259.5 524.72,-252.04 514.18,-253.18 517.19,-259.5"/>
</g>
<!-- multiplicative -->
<g id="node11" class="node">
<title>multiplicative</title>
<g id="a_node11"><a xlink:href="PsyllaReference_Types.xhtml#PsyllaReference_Types_Details_multiplicative" xlink:title="multiplicative" target="_parent">
<polygon fill="linen" stroke="black" points="733.5,-252 617.5,-252 617.5,-216 739.5,-216 739.5,-246 733.5,-252"/>
<polyline fill="none" stroke="black" points="733.5,-252 733.5,-246 "/>
<polyline fill="none" stroke="black" points="739.5,-246 733.5,-246 "/>
<text text-anchor="middle" x="678.5" y="-230.9" font-family="Source Code Pro,monospace" font-size="12.00">multiplicative</text>
</a>
</g>
</g>
<!-- object&#45;&gt;multiplicative -->
<g id="edge16" class="edge">
<title>object&#45;&gt;multiplicative</title>
<path fill="none" stroke="black" d="M444.68,-296.76C484.48,-286.25 554.53,-267.75 607.61,-253.73"/>
<polygon fill="black" stroke="black" points="608.54,-257.1 617.31,-251.16 606.75,-250.33 608.54,-257.1"/>
</g>
<!-- additive&#45;&gt;arithmetic -->
<g id="edge13" class="edge">
<title>additive&#45;&gt;arithmetic</title>
<path fill="none" stroke="black" d="M560.5,-215.7C560.5,-207.98 560.5,-198.71 560.5,-190.11"/>
<polygon fill="black" stroke="black" points="564,-190.1 560.5,-180.1 557,-190.1 564,-190.1"/>
</g>
<!-- multiplicative&#45;&gt;arithmetic -->
<g id="edge14" class="edge">
<title>multiplicative&#45;&gt;arithmetic</title>
<path fill="none" stroke="black" d="M649.63,-215.88C634.21,-206.72 615.02,-195.34 598.4,-185.48"/>
<polygon fill="black" stroke="black" points="599.86,-182.28 589.48,-180.19 596.29,-188.3 599.86,-182.28"/>
</g>
</g>
</svg>
