<?xml version="1.0" encoding="UTF-8" standalone="no"?>
<!DOCTYPE svg PUBLIC "-//W3C//DTD SVG 1.1//EN"
 "http://www.w3.org/Graphics/SVG/1.1/DTD/svg11.dtd">
<!-- Generated by graphviz version 2.43.0 (0)
 -->
<!-- Title: textual Pages: 1 -->
<svg width="320pt" height="332pt"
 viewBox="0.00 0.00 320.00 332.00" xmlns="http://www.w3.org/2000/svg" xmlns:xlink="http://www.w3.org/1999/xlink">
<g id="graph0" class="graph" transform="scale(1 1) rotate(0) translate(4 328)">
<title>textual</title>
<polygon fill="transparent" stroke="transparent" points="-4,4 -4,-328 316,-328 316,4 -4,4"/>
<!-- evaluable -->
<g id="node1" class="node">
<title>evaluable</title>
<g id="a_node1"><a xlink:href="PsyllaReference_Types.xhtml#PsyllaReference_Types_Details_evaluable" xlink:title="evaluable" target="_parent">
<polygon fill="linen" stroke="black" points="78,-180 0,-180 0,-144 84,-144 84,-174 78,-180"/>
<polyline fill="none" stroke="black" points="78,-180 78,-174 "/>
<polyline fill="none" stroke="black" points="84,-174 78,-174 "/>
<text text-anchor="middle" x="42" y="-158.9" font-family="PT Mono, monospace" font-size="12.00">evaluable</text>
</a>
</g>
</g>
<!-- textual -->
<g id="node5" class="node">
<title>textual</title>
<g id="a_node5"><a xlink:href="PsyllaReference_Types.xhtml#PsyllaReference_Types_Details_textual" xlink:title="textual" target="_parent">
<polygon fill="wheat" stroke="black" points="169.5,-36 106.5,-36 106.5,0 175.5,0 175.5,-30 169.5,-36"/>
<polyline fill="none" stroke="black" points="169.5,-36 169.5,-30 "/>
<polyline fill="none" stroke="black" points="175.5,-30 169.5,-30 "/>
<text text-anchor="middle" x="141" y="-14.9" font-family="PT Mono, monospace" font-size="12.00">textual</text>
</a>
</g>
</g>
<!-- evaluable&#45;&gt;textual -->
<g id="edge1" class="edge">
<title>evaluable&#45;&gt;textual</title>
<path fill="none" stroke="black" d="M43.17,-143.81C45.22,-124.74 50.79,-93.78 66,-72 74.37,-60.01 86.38,-49.8 98.33,-41.65"/>
<polygon fill="black" stroke="black" points="100.47,-44.43 106.98,-36.07 96.68,-38.55 100.47,-44.43"/>
</g>
<!-- iterable -->
<g id="node2" class="node">
<title>iterable</title>
<g id="a_node2"><a xlink:href="PsyllaReference_Types.xhtml#PsyllaReference_Types_Details_iterable" xlink:title="iterable" target="_parent">
<polygon fill="linen" stroke="black" points="280.5,-108 209.5,-108 209.5,-72 286.5,-72 286.5,-102 280.5,-108"/>
<polyline fill="none" stroke="black" points="280.5,-108 280.5,-102 "/>
<polyline fill="none" stroke="black" points="286.5,-102 280.5,-102 "/>
<text text-anchor="middle" x="248" y="-86.9" font-family="PT Mono, monospace" font-size="12.00">iterable</text>
</a>
</g>
</g>
<!-- iterable&#45;&gt;textual -->
<g id="edge2" class="edge">
<title>iterable&#45;&gt;textual</title>
<path fill="none" stroke="black" d="M221.82,-71.88C207.96,-62.81 190.76,-51.55 175.79,-41.76"/>
<polygon fill="black" stroke="black" points="177.56,-38.74 167.28,-36.19 173.73,-44.59 177.56,-38.74"/>
</g>
<!-- lengthy -->
<g id="node3" class="node">
<title>lengthy</title>
<g id="a_node3"><a xlink:href="PsyllaReference_Types.xhtml#PsyllaReference_Types_Details_lengthy" xlink:title="lengthy" target="_parent">
<polygon fill="linen" stroke="black" points="138.5,-108 75.5,-108 75.5,-72 144.5,-72 144.5,-102 138.5,-108"/>
<polyline fill="none" stroke="black" points="138.5,-108 138.5,-102 "/>
<polyline fill="none" stroke="black" points="144.5,-102 138.5,-102 "/>
<text text-anchor="middle" x="110" y="-86.9" font-family="PT Mono, monospace" font-size="12.00">lengthy</text>
</a>
</g>
</g>
<!-- lengthy&#45;&gt;textual -->
<g id="edge3" class="edge">
<title>lengthy&#45;&gt;textual</title>
<path fill="none" stroke="black" d="M117.66,-71.7C121.19,-63.73 125.46,-54.1 129.37,-45.26"/>
<polygon fill="black" stroke="black" points="132.58,-46.67 133.43,-36.1 126.18,-43.83 132.58,-46.67"/>
</g>
<!-- scalar -->
<g id="node4" class="node">
<title>scalar</title>
<g id="a_node4"><a xlink:href="PsyllaReference_Types.xhtml#PsyllaReference_Types_Details_scalar" xlink:title="scalar" target="_parent">
<polygon fill="linen" stroke="black" points="196,-252 140,-252 140,-216 202,-216 202,-246 196,-252"/>
<polyline fill="none" stroke="black" points="196,-252 196,-246 "/>
<polyline fill="none" stroke="black" points="202,-246 196,-246 "/>
<text text-anchor="middle" x="171" y="-230.9" font-family="PT Mono, monospace" font-size="12.00">scalar</text>
</a>
</g>
</g>
<!-- scalar&#45;&gt;textual -->
<g id="edge4" class="edge">
<title>scalar&#45;&gt;textual</title>
<path fill="none" stroke="black" d="M169.73,-215.99C167.38,-186.53 161.79,-124.14 153,-72 151.57,-63.5 149.63,-54.31 147.73,-46.01"/>
<polygon fill="black" stroke="black" points="151.09,-45.01 145.38,-36.09 144.27,-46.63 151.09,-45.01"/>
</g>
<!-- object -->
<g id="node6" class="node">
<title>object</title>
<g id="a_node6"><a xlink:href="PsyllaReference_Types.xhtml#PsyllaReference_Types_Details_object" xlink:title="object" target="_parent">
<polygon fill="linen" stroke="black" points="166,-324 110,-324 110,-288 172,-288 172,-318 166,-324"/>
<polyline fill="none" stroke="black" points="166,-324 166,-318 "/>
<polyline fill="none" stroke="black" points="172,-318 166,-318 "/>
<text text-anchor="middle" x="141" y="-302.9" font-family="PT Mono, monospace" font-size="12.00">object</text>
</a>
</g>
</g>
<!-- object&#45;&gt;evaluable -->
<g id="edge5" class="edge">
<title>object&#45;&gt;evaluable</title>
<path fill="none" stroke="black" d="M126.12,-287.75C117.58,-277.58 106.83,-264.33 98,-252 83.24,-231.4 68.03,-206.97 57.19,-188.93"/>
<polygon fill="black" stroke="black" points="60.07,-186.92 51.94,-180.13 54.05,-190.51 60.07,-186.92"/>
</g>
<!-- object&#45;&gt;lengthy -->
<g id="edge7" class="edge">
<title>object&#45;&gt;lengthy</title>
<path fill="none" stroke="black" d="M137.51,-287.86C135.47,-277.5 132.92,-264.02 131,-252 123.54,-205.23 116.83,-150.51 113.09,-118.41"/>
<polygon fill="black" stroke="black" points="116.57,-117.97 111.95,-108.44 109.61,-118.77 116.57,-117.97"/>
</g>
<!-- object&#45;&gt;scalar -->
<g id="edge8" class="edge">
<title>object&#45;&gt;scalar</title>
<path fill="none" stroke="black" d="M148.42,-287.7C151.79,-279.81 155.87,-270.3 159.62,-261.55"/>
<polygon fill="black" stroke="black" points="162.95,-262.67 163.67,-252.1 156.51,-259.92 162.95,-262.67"/>
</g>
<!-- sequential -->
<g id="node8" class="node">
<title>sequential</title>
<g id="a_node8"><a xlink:href="PsyllaReference_Types.xhtml#PsyllaReference_Types_Details_sequential" xlink:title="sequential" target="_parent">
<polygon fill="linen" stroke="black" points="306,-252 220,-252 220,-216 312,-216 312,-246 306,-252"/>
<polyline fill="none" stroke="black" points="306,-252 306,-246 "/>
<polyline fill="none" stroke="black" points="312,-246 306,-246 "/>
<text text-anchor="middle" x="266" y="-230.9" font-family="PT Mono, monospace" font-size="12.00">sequential</text>
</a>
</g>
</g>
<!-- object&#45;&gt;sequential -->
<g id="edge10" class="edge">
<title>object&#45;&gt;sequential</title>
<path fill="none" stroke="black" d="M171.58,-287.88C188.07,-278.64 208.62,-267.13 226.34,-257.21"/>
<polygon fill="black" stroke="black" points="228.29,-260.13 235.3,-252.19 224.87,-254.02 228.29,-260.13"/>
</g>
<!-- streamable -->
<g id="node7" class="node">
<title>streamable</title>
<g id="a_node7"><a xlink:href="PsyllaReference_Types.xhtml#PsyllaReference_Types_Details_streamable" xlink:title="streamable" target="_parent">
<polygon fill="linen" stroke="black" points="296,-180 210,-180 210,-144 302,-144 302,-174 296,-180"/>
<polyline fill="none" stroke="black" points="296,-180 296,-174 "/>
<polyline fill="none" stroke="black" points="302,-174 296,-174 "/>
<text text-anchor="middle" x="256" y="-158.9" font-family="PT Mono, monospace" font-size="12.00">streamable</text>
</a>
</g>
</g>
<!-- streamable&#45;&gt;iterable -->
<g id="edge6" class="edge">
<title>streamable&#45;&gt;iterable</title>
<path fill="none" stroke="black" d="M254.02,-143.7C253.14,-135.98 252.08,-126.71 251.1,-118.11"/>
<polygon fill="black" stroke="black" points="254.57,-117.64 249.95,-108.1 247.61,-118.44 254.57,-117.64"/>
</g>
<!-- sequential&#45;&gt;streamable -->
<g id="edge9" class="edge">
<title>sequential&#45;&gt;streamable</title>
<path fill="none" stroke="black" d="M263.53,-215.7C262.43,-207.98 261.1,-198.71 259.87,-190.11"/>
<polygon fill="black" stroke="black" points="263.32,-189.51 258.44,-180.1 256.39,-190.5 263.32,-189.51"/>
</g>
</g>
</svg>
