<?xml version="1.0" encoding="UTF-8" standalone="no"?>
<!DOCTYPE svg PUBLIC "-//W3C//DTD SVG 1.1//EN"
 "http://www.w3.org/Graphics/SVG/1.1/DTD/svg11.dtd">
<!-- Generated by graphviz version 2.43.0 (0)
 -->
<!-- Title: filewriter Pages: 1 -->
<svg width="251pt" height="260pt"
 viewBox="0.00 0.00 251.00 260.00" xmlns="http://www.w3.org/2000/svg" xmlns:xlink="http://www.w3.org/1999/xlink">
<g id="graph0" class="graph" transform="scale(1 1) rotate(0) translate(4 256)">
<title>filewriter</title>
<polygon fill="transparent" stroke="transparent" points="-4,4 -4,-256 247,-256 247,4 -4,4"/>
<!-- writer -->
<g id="node1" class="node">
<title>writer</title>
<g id="a_node1"><a xlink:href="PsyllaReference_Types.xhtml#PsyllaReference_Types_Details_writer" xlink:title="writer" target="_parent">
<polygon fill="linen" stroke="black" points="145.5,-108 97.5,-108 97.5,-72 151.5,-72 151.5,-102 145.5,-108"/>
<polyline fill="none" stroke="black" points="145.5,-108 145.5,-102 "/>
<polyline fill="none" stroke="black" points="151.5,-102 145.5,-102 "/>
<text text-anchor="middle" x="124.5" y="-87.5" font-family="PT Mono, monospace" font-size="10.00">writer</text>
</a>
</g>
</g>
<!-- filewriter -->
<g id="node2" class="node">
<title>filewriter</title>
<g id="a_node2"><a xlink:href="PsyllaReference_Types.xhtml#PsyllaReference_Types_Details_filewriter" xlink:title="filewriter" target="_parent">
<polygon fill="wheat" stroke="black" points="157,-36 86,-36 86,0 163,0 163,-30 157,-36"/>
<polyline fill="none" stroke="black" points="157,-36 157,-30 "/>
<polyline fill="none" stroke="black" points="163,-30 157,-30 "/>
<text text-anchor="middle" x="124.5" y="-15.5" font-family="PT Mono, monospace" font-size="10.00">filewriter</text>
</a>
</g>
</g>
<!-- writer&#45;&gt;filewriter -->
<g id="edge1" class="edge">
<title>writer&#45;&gt;filewriter</title>
<path fill="none" stroke="black" d="M124.5,-71.7C124.5,-63.98 124.5,-54.71 124.5,-46.11"/>
<polygon fill="black" stroke="black" points="128,-46.1 124.5,-36.1 121,-46.1 128,-46.1"/>
</g>
<!-- closeable -->
<g id="node3" class="node">
<title>closeable</title>
<g id="a_node3"><a xlink:href="PsyllaReference_Types.xhtml#PsyllaReference_Types_Details_closeable" xlink:title="closeable" target="_parent">
<polygon fill="linen" stroke="black" points="65,-180 0,-180 0,-144 71,-144 71,-174 65,-180"/>
<polyline fill="none" stroke="black" points="65,-180 65,-174 "/>
<polyline fill="none" stroke="black" points="71,-174 65,-174 "/>
<text text-anchor="middle" x="35.5" y="-159.5" font-family="PT Mono, monospace" font-size="10.00">closeable</text>
</a>
</g>
</g>
<!-- closeable&#45;&gt;writer -->
<g id="edge2" class="edge">
<title>closeable&#45;&gt;writer</title>
<path fill="none" stroke="black" d="M57.5,-143.7C68.71,-134.88 82.5,-124.03 94.65,-114.47"/>
<polygon fill="black" stroke="black" points="97.06,-117.04 102.75,-108.1 92.73,-111.54 97.06,-117.04"/>
</g>
<!-- flushable -->
<g id="node4" class="node">
<title>flushable</title>
<g id="a_node4"><a xlink:href="PsyllaReference_Types.xhtml#PsyllaReference_Types_Details_flushable" xlink:title="flushable" target="_parent">
<polygon fill="linen" stroke="black" points="154,-180 89,-180 89,-144 160,-144 160,-174 154,-180"/>
<polyline fill="none" stroke="black" points="154,-180 154,-174 "/>
<polyline fill="none" stroke="black" points="160,-174 154,-174 "/>
<text text-anchor="middle" x="124.5" y="-159.5" font-family="PT Mono, monospace" font-size="10.00">flushable</text>
</a>
</g>
</g>
<!-- flushable&#45;&gt;writer -->
<g id="edge3" class="edge">
<title>flushable&#45;&gt;writer</title>
<path fill="none" stroke="black" d="M124.5,-143.7C124.5,-135.98 124.5,-126.71 124.5,-118.11"/>
<polygon fill="black" stroke="black" points="128,-118.1 124.5,-108.1 121,-118.1 128,-118.1"/>
</g>
<!-- writable -->
<g id="node5" class="node">
<title>writable</title>
<g id="a_node5"><a xlink:href="PsyllaReference_Types.xhtml#PsyllaReference_Types_Details_writable" xlink:title="writable" target="_parent">
<polygon fill="linen" stroke="black" points="237,-180 178,-180 178,-144 243,-144 243,-174 237,-180"/>
<polyline fill="none" stroke="black" points="237,-180 237,-174 "/>
<polyline fill="none" stroke="black" points="243,-174 237,-174 "/>
<text text-anchor="middle" x="210.5" y="-159.5" font-family="PT Mono, monospace" font-size="10.00">writable</text>
</a>
</g>
</g>
<!-- writable&#45;&gt;writer -->
<g id="edge4" class="edge">
<title>writable&#45;&gt;writer</title>
<path fill="none" stroke="black" d="M189.24,-143.7C178.41,-134.88 165.08,-124.03 153.34,-114.47"/>
<polygon fill="black" stroke="black" points="155.48,-111.7 145.51,-108.1 151.06,-117.13 155.48,-111.7"/>
</g>
<!-- object -->
<g id="node6" class="node">
<title>object</title>
<g id="a_node6"><a xlink:href="PsyllaReference_Types.xhtml#PsyllaReference_Types_Details_object" xlink:title="object" target="_parent">
<polygon fill="linen" stroke="black" points="145.5,-252 97.5,-252 97.5,-216 151.5,-216 151.5,-246 145.5,-252"/>
<polyline fill="none" stroke="black" points="145.5,-252 145.5,-246 "/>
<polyline fill="none" stroke="black" points="151.5,-246 145.5,-246 "/>
<text text-anchor="middle" x="124.5" y="-231.5" font-family="PT Mono, monospace" font-size="10.00">object</text>
</a>
</g>
</g>
<!-- object&#45;&gt;closeable -->
<g id="edge5" class="edge">
<title>object&#45;&gt;closeable</title>
<path fill="none" stroke="black" d="M102.5,-215.7C91.29,-206.88 77.5,-196.03 65.35,-186.47"/>
<polygon fill="black" stroke="black" points="67.27,-183.54 57.25,-180.1 62.94,-189.04 67.27,-183.54"/>
</g>
<!-- object&#45;&gt;flushable -->
<g id="edge6" class="edge">
<title>object&#45;&gt;flushable</title>
<path fill="none" stroke="black" d="M124.5,-215.7C124.5,-207.98 124.5,-198.71 124.5,-190.11"/>
<polygon fill="black" stroke="black" points="128,-190.1 124.5,-180.1 121,-190.1 128,-190.1"/>
</g>
<!-- object&#45;&gt;writable -->
<g id="edge7" class="edge">
<title>object&#45;&gt;writable</title>
<path fill="none" stroke="black" d="M145.76,-215.7C156.59,-206.88 169.92,-196.03 181.66,-186.47"/>
<polygon fill="black" stroke="black" points="183.94,-189.13 189.49,-180.1 179.52,-183.7 183.94,-189.13"/>
</g>
</g>
</svg>
