<?xml version="1.0" encoding="UTF-8" standalone="no"?>
<!DOCTYPE svg PUBLIC "-//W3C//DTD SVG 1.1//EN"
 "http://www.w3.org/Graphics/SVG/1.1/DTD/svg11.dtd">
<!-- Generated by graphviz version 2.43.0 (0)
 -->
<!-- Title: systemdict Pages: 1 -->
<svg width="338pt" height="620pt"
 viewBox="0.00 0.00 338.00 620.00" xmlns="http://www.w3.org/2000/svg" xmlns:xlink="http://www.w3.org/1999/xlink">
<g id="graph0" class="graph" transform="scale(1 1) rotate(0) translate(4 616)">
<title>systemdict</title>
<polygon fill="transparent" stroke="transparent" points="-4,4 -4,-616 334,-616 334,4 -4,4"/>
<!-- module -->
<g id="node1" class="node">
<title>module</title>
<g id="a_node1"><a xlink:href="PsyllaReference_Types.xhtml#PsyllaReference_Types_Details_module" xlink:title="module" target="_parent">
<polygon fill="linen" stroke="black" points="108.5,-108 60.5,-108 60.5,-72 114.5,-72 114.5,-102 108.5,-108"/>
<polyline fill="none" stroke="black" points="108.5,-108 108.5,-102 "/>
<polyline fill="none" stroke="black" points="114.5,-102 108.5,-102 "/>
<text text-anchor="middle" x="87.5" y="-87.5" font-family="PT Mono, monospace" font-size="10.00">module</text>
</a>
</g>
</g>
<!-- systemdict -->
<g id="node2" class="node">
<title>systemdict</title>
<g id="a_node2"><a xlink:href="PsyllaReference_Types.xhtml#PsyllaReference_Types_Details_systemdict" xlink:title="systemdict" target="_parent">
<polygon fill="wheat" stroke="black" points="120,-36 49,-36 49,0 126,0 126,-30 120,-36"/>
<polyline fill="none" stroke="black" points="120,-36 120,-30 "/>
<polyline fill="none" stroke="black" points="126,-30 120,-30 "/>
<text text-anchor="middle" x="87.5" y="-15.5" font-family="PT Mono, monospace" font-size="10.00">systemdict</text>
</a>
</g>
</g>
<!-- module&#45;&gt;systemdict -->
<g id="edge1" class="edge">
<title>module&#45;&gt;systemdict</title>
<path fill="none" stroke="black" d="M87.5,-71.7C87.5,-63.98 87.5,-54.71 87.5,-46.11"/>
<polygon fill="black" stroke="black" points="91,-46.1 87.5,-36.1 84,-46.1 91,-46.1"/>
</g>
<!-- dict -->
<g id="node3" class="node">
<title>dict</title>
<g id="a_node3"><a xlink:href="PsyllaReference_Types.xhtml#PsyllaReference_Types_Details_dict" xlink:title="dict" target="_parent">
<polygon fill="linen" stroke="black" points="108.5,-180 60.5,-180 60.5,-144 114.5,-144 114.5,-174 108.5,-180"/>
<polyline fill="none" stroke="black" points="108.5,-180 108.5,-174 "/>
<polyline fill="none" stroke="black" points="114.5,-174 108.5,-174 "/>
<text text-anchor="middle" x="87.5" y="-159.5" font-family="PT Mono, monospace" font-size="10.00">dict</text>
</a>
</g>
</g>
<!-- dict&#45;&gt;module -->
<g id="edge2" class="edge">
<title>dict&#45;&gt;module</title>
<path fill="none" stroke="black" d="M87.5,-143.7C87.5,-135.98 87.5,-126.71 87.5,-118.11"/>
<polygon fill="black" stroke="black" points="91,-118.1 87.5,-108.1 84,-118.1 91,-118.1"/>
</g>
<!-- formaldict -->
<g id="node4" class="node">
<title>formaldict</title>
<g id="a_node4"><a xlink:href="PsyllaReference_Types.xhtml#PsyllaReference_Types_Details_formaldict" xlink:title="formaldict" target="_parent">
<polygon fill="linen" stroke="black" points="120,-252 49,-252 49,-216 126,-216 126,-246 120,-252"/>
<polyline fill="none" stroke="black" points="120,-252 120,-246 "/>
<polyline fill="none" stroke="black" points="126,-246 120,-246 "/>
<text text-anchor="middle" x="87.5" y="-231.5" font-family="PT Mono, monospace" font-size="10.00">formaldict</text>
</a>
</g>
</g>
<!-- formaldict&#45;&gt;dict -->
<g id="edge3" class="edge">
<title>formaldict&#45;&gt;dict</title>
<path fill="none" stroke="black" d="M87.5,-215.7C87.5,-207.98 87.5,-198.71 87.5,-190.11"/>
<polygon fill="black" stroke="black" points="91,-190.1 87.5,-180.1 84,-190.1 91,-190.1"/>
</g>
<!-- container -->
<g id="node5" class="node">
<title>container</title>
<g id="a_node5"><a xlink:href="PsyllaReference_Types.xhtml#PsyllaReference_Types_Details_container" xlink:title="container" target="_parent">
<polygon fill="linen" stroke="black" points="233,-324 168,-324 168,-288 239,-288 239,-318 233,-324"/>
<polyline fill="none" stroke="black" points="233,-324 233,-318 "/>
<polyline fill="none" stroke="black" points="239,-318 233,-318 "/>
<text text-anchor="middle" x="203.5" y="-303.5" font-family="PT Mono, monospace" font-size="10.00">container</text>
</a>
</g>
</g>
<!-- container&#45;&gt;formaldict -->
<g id="edge4" class="edge">
<title>container&#45;&gt;formaldict</title>
<path fill="none" stroke="black" d="M175.12,-287.88C159.96,-278.72 141.09,-267.34 124.76,-257.48"/>
<polygon fill="black" stroke="black" points="126.36,-254.36 115.99,-252.19 122.74,-260.35 126.36,-254.36"/>
</g>
<!-- indexed -->
<g id="node6" class="node">
<title>indexed</title>
<g id="a_node6"><a xlink:href="PsyllaReference_Types.xhtml#PsyllaReference_Types_Details_indexed" xlink:title="indexed" target="_parent">
<polygon fill="linen" stroke="black" points="53,-396 0,-396 0,-360 59,-360 59,-390 53,-396"/>
<polyline fill="none" stroke="black" points="53,-396 53,-390 "/>
<polyline fill="none" stroke="black" points="59,-390 53,-390 "/>
<text text-anchor="middle" x="29.5" y="-375.5" font-family="PT Mono, monospace" font-size="10.00">indexed</text>
</a>
</g>
</g>
<!-- indexed&#45;&gt;formaldict -->
<g id="edge5" class="edge">
<title>indexed&#45;&gt;formaldict</title>
<path fill="none" stroke="black" d="M36.5,-359.87C46.47,-335.46 64.86,-290.43 76.62,-261.64"/>
<polygon fill="black" stroke="black" points="79.94,-262.77 80.48,-252.19 73.46,-260.12 79.94,-262.77"/>
</g>
<!-- sequential -->
<g id="node7" class="node">
<title>sequential</title>
<g id="a_node7"><a xlink:href="PsyllaReference_Types.xhtml#PsyllaReference_Types_Details_sequential" xlink:title="sequential" target="_parent">
<polygon fill="linen" stroke="black" points="187,-540 116,-540 116,-504 193,-504 193,-534 187,-540"/>
<polyline fill="none" stroke="black" points="187,-540 187,-534 "/>
<polyline fill="none" stroke="black" points="193,-534 187,-534 "/>
<text text-anchor="middle" x="154.5" y="-519.5" font-family="PT Mono, monospace" font-size="10.00">sequential</text>
</a>
</g>
</g>
<!-- sequential&#45;&gt;formaldict -->
<g id="edge6" class="edge">
<title>sequential&#45;&gt;formaldict</title>
<path fill="none" stroke="black" d="M133.26,-503.59C123.34,-494.17 112.42,-481.67 106.5,-468 76.55,-398.84 80.05,-307.42 84.24,-262.42"/>
<polygon fill="black" stroke="black" points="87.74,-262.58 85.27,-252.28 80.77,-261.87 87.74,-262.58"/>
</g>
<!-- streamable -->
<g id="node12" class="node">
<title>streamable</title>
<g id="a_node12"><a xlink:href="PsyllaReference_Types.xhtml#PsyllaReference_Types_Details_streamable" xlink:title="streamable" target="_parent">
<polygon fill="linen" stroke="black" points="187,-468 116,-468 116,-432 193,-432 193,-462 187,-468"/>
<polyline fill="none" stroke="black" points="187,-468 187,-462 "/>
<polyline fill="none" stroke="black" points="193,-462 187,-462 "/>
<text text-anchor="middle" x="154.5" y="-447.5" font-family="PT Mono, monospace" font-size="10.00">streamable</text>
</a>
</g>
</g>
<!-- sequential&#45;&gt;streamable -->
<g id="edge15" class="edge">
<title>sequential&#45;&gt;streamable</title>
<path fill="none" stroke="black" d="M154.5,-503.7C154.5,-495.98 154.5,-486.71 154.5,-478.11"/>
<polygon fill="black" stroke="black" points="158,-478.1 154.5,-468.1 151,-478.1 158,-478.1"/>
</g>
<!-- clearable -->
<g id="node8" class="node">
<title>clearable</title>
<g id="a_node8"><a xlink:href="PsyllaReference_Types.xhtml#PsyllaReference_Types_Details_clearable" xlink:title="clearable" target="_parent">
<polygon fill="linen" stroke="black" points="276,-468 211,-468 211,-432 282,-432 282,-462 276,-468"/>
<polyline fill="none" stroke="black" points="276,-468 276,-462 "/>
<polyline fill="none" stroke="black" points="282,-462 276,-462 "/>
<text text-anchor="middle" x="246.5" y="-447.5" font-family="PT Mono, monospace" font-size="10.00">clearable</text>
</a>
</g>
</g>
<!-- clearable&#45;&gt;container -->
<g id="edge7" class="edge">
<title>clearable&#45;&gt;container</title>
<path fill="none" stroke="black" d="M241.31,-431.87C233.95,-407.56 220.4,-362.82 211.68,-334.01"/>
<polygon fill="black" stroke="black" points="214.95,-332.75 208.71,-324.19 208.25,-334.77 214.95,-332.75"/>
</g>
<!-- iterable -->
<g id="node9" class="node">
<title>iterable</title>
<g id="a_node9"><a xlink:href="PsyllaReference_Types.xhtml#PsyllaReference_Types_Details_iterable" xlink:title="iterable" target="_parent">
<polygon fill="linen" stroke="black" points="196,-396 137,-396 137,-360 202,-360 202,-390 196,-396"/>
<polyline fill="none" stroke="black" points="196,-396 196,-390 "/>
<polyline fill="none" stroke="black" points="202,-390 196,-390 "/>
<text text-anchor="middle" x="169.5" y="-375.5" font-family="PT Mono, monospace" font-size="10.00">iterable</text>
</a>
</g>
</g>
<!-- iterable&#45;&gt;container -->
<g id="edge8" class="edge">
<title>iterable&#45;&gt;container</title>
<path fill="none" stroke="black" d="M177.9,-359.7C181.77,-351.73 186.45,-342.1 190.74,-333.26"/>
<polygon fill="black" stroke="black" points="193.97,-334.63 195.19,-324.1 187.67,-331.57 193.97,-334.63"/>
</g>
<!-- lengthy -->
<g id="node10" class="node">
<title>lengthy</title>
<g id="a_node10"><a xlink:href="PsyllaReference_Types.xhtml#PsyllaReference_Types_Details_lengthy" xlink:title="lengthy" target="_parent">
<polygon fill="linen" stroke="black" points="324,-540 271,-540 271,-504 330,-504 330,-534 324,-540"/>
<polyline fill="none" stroke="black" points="324,-540 324,-534 "/>
<polyline fill="none" stroke="black" points="330,-534 324,-534 "/>
<text text-anchor="middle" x="300.5" y="-519.5" font-family="PT Mono, monospace" font-size="10.00">lengthy</text>
</a>
</g>
</g>
<!-- lengthy&#45;&gt;container -->
<g id="edge9" class="edge">
<title>lengthy&#45;&gt;container</title>
<path fill="none" stroke="black" d="M301.03,-503.69C301.04,-485.32 299.43,-455.72 290.5,-432 276,-393.48 246.97,-355.6 226.44,-331.81"/>
<polygon fill="black" stroke="black" points="228.81,-329.2 219.57,-324.01 223.55,-333.82 228.81,-329.2"/>
</g>
<!-- object -->
<g id="node11" class="node">
<title>object</title>
<g id="a_node11"><a xlink:href="PsyllaReference_Types.xhtml#PsyllaReference_Types_Details_object" xlink:title="object" target="_parent">
<polygon fill="linen" stroke="black" points="208.5,-612 160.5,-612 160.5,-576 214.5,-576 214.5,-606 208.5,-612"/>
<polyline fill="none" stroke="black" points="208.5,-612 208.5,-606 "/>
<polyline fill="none" stroke="black" points="214.5,-606 208.5,-606 "/>
<text text-anchor="middle" x="187.5" y="-591.5" font-family="PT Mono, monospace" font-size="10.00">object</text>
</a>
</g>
</g>
<!-- object&#45;&gt;indexed -->
<g id="edge10" class="edge">
<title>object&#45;&gt;indexed</title>
<path fill="none" stroke="black" d="M160.33,-580.12C143.15,-570.88 121.44,-557.08 106.5,-540 71.19,-499.64 48.43,-440.25 37.39,-406.02"/>
<polygon fill="black" stroke="black" points="40.66,-404.75 34.34,-396.25 33.98,-406.84 40.66,-404.75"/>
</g>
<!-- object&#45;&gt;sequential -->
<g id="edge11" class="edge">
<title>object&#45;&gt;sequential</title>
<path fill="none" stroke="black" d="M179.34,-575.7C175.59,-567.73 171.05,-558.1 166.88,-549.26"/>
<polygon fill="black" stroke="black" points="169.99,-547.66 162.56,-540.1 163.66,-550.64 169.99,-547.66"/>
</g>
<!-- object&#45;&gt;clearable -->
<g id="edge12" class="edge">
<title>object&#45;&gt;clearable</title>
<path fill="none" stroke="black" d="M194.62,-575.87C204.76,-551.46 223.47,-506.43 235.43,-477.64"/>
<polygon fill="black" stroke="black" points="238.75,-478.77 239.36,-468.19 232.29,-476.08 238.75,-478.77"/>
</g>
<!-- object&#45;&gt;lengthy -->
<g id="edge14" class="edge">
<title>object&#45;&gt;lengthy</title>
<path fill="none" stroke="black" d="M214.57,-576.23C229.44,-567.02 248.09,-555.47 264.21,-545.48"/>
<polygon fill="black" stroke="black" points="266.21,-548.36 272.87,-540.12 262.53,-542.41 266.21,-548.36"/>
</g>
<!-- streamable&#45;&gt;iterable -->
<g id="edge13" class="edge">
<title>streamable&#45;&gt;iterable</title>
<path fill="none" stroke="black" d="M158.21,-431.7C159.86,-423.98 161.85,-414.71 163.69,-406.11"/>
<polygon fill="black" stroke="black" points="167.16,-406.62 165.83,-396.1 160.32,-405.15 167.16,-406.62"/>
</g>
</g>
</svg>
