<?xml version="1.0" encoding="UTF-8" standalone="no"?>
<!DOCTYPE svg PUBLIC "-//W3C//DTD SVG 1.1//EN"
 "http://www.w3.org/Graphics/SVG/1.1/DTD/svg11.dtd">
<!-- Generated by graphviz version 2.43.0 (0)
 -->
<!-- Title: iterable Pages: 1 -->
<svg width="85pt" height="260pt"
 viewBox="0.00 0.00 85.00 260.00" xmlns="http://www.w3.org/2000/svg" xmlns:xlink="http://www.w3.org/1999/xlink">
<g id="graph0" class="graph" transform="scale(1 1) rotate(0) translate(4 256)">
<title>iterable</title>
<polygon fill="transparent" stroke="transparent" points="-4,4 -4,-256 81,-256 81,4 -4,4"/>
<!-- streamable -->
<g id="node1" class="node">
<title>streamable</title>
<g id="a_node1"><a xlink:href="PsyllaReference_Types.xhtml#PsyllaReference_Types_Details_streamable" xlink:title="streamable" target="_parent">
<polygon fill="linen" stroke="black" points="71,-108 0,-108 0,-72 77,-72 77,-102 71,-108"/>
<polyline fill="none" stroke="black" points="71,-108 71,-102 "/>
<polyline fill="none" stroke="black" points="77,-102 71,-102 "/>
<text text-anchor="middle" x="38.5" y="-87.5" font-family="PT Mono, monospace" font-size="10.00">streamable</text>
</a>
</g>
</g>
<!-- iterable -->
<g id="node2" class="node">
<title>iterable</title>
<g id="a_node2"><a xlink:href="PsyllaReference_Types.xhtml#PsyllaReference_Types_Details_iterable" xlink:title="iterable" target="_parent">
<polygon fill="wheat" stroke="black" points="65,-36 6,-36 6,0 71,0 71,-30 65,-36"/>
<polyline fill="none" stroke="black" points="65,-36 65,-30 "/>
<polyline fill="none" stroke="black" points="71,-30 65,-30 "/>
<text text-anchor="middle" x="38.5" y="-15.5" font-family="PT Mono, monospace" font-size="10.00">iterable</text>
</a>
</g>
</g>
<!-- streamable&#45;&gt;iterable -->
<g id="edge1" class="edge">
<title>streamable&#45;&gt;iterable</title>
<path fill="none" stroke="black" d="M38.5,-71.7C38.5,-63.98 38.5,-54.71 38.5,-46.11"/>
<polygon fill="black" stroke="black" points="42,-46.1 38.5,-36.1 35,-46.1 42,-46.1"/>
</g>
<!-- sequential -->
<g id="node3" class="node">
<title>sequential</title>
<g id="a_node3"><a xlink:href="PsyllaReference_Types.xhtml#PsyllaReference_Types_Details_sequential" xlink:title="sequential" target="_parent">
<polygon fill="linen" stroke="black" points="71,-180 0,-180 0,-144 77,-144 77,-174 71,-180"/>
<polyline fill="none" stroke="black" points="71,-180 71,-174 "/>
<polyline fill="none" stroke="black" points="77,-174 71,-174 "/>
<text text-anchor="middle" x="38.5" y="-159.5" font-family="PT Mono, monospace" font-size="10.00">sequential</text>
</a>
</g>
</g>
<!-- sequential&#45;&gt;streamable -->
<g id="edge2" class="edge">
<title>sequential&#45;&gt;streamable</title>
<path fill="none" stroke="black" d="M38.5,-143.7C38.5,-135.98 38.5,-126.71 38.5,-118.11"/>
<polygon fill="black" stroke="black" points="42,-118.1 38.5,-108.1 35,-118.1 42,-118.1"/>
</g>
<!-- object -->
<g id="node4" class="node">
<title>object</title>
<g id="a_node4"><a xlink:href="PsyllaReference_Types.xhtml#PsyllaReference_Types_Details_object" xlink:title="object" target="_parent">
<polygon fill="linen" stroke="black" points="59.5,-252 11.5,-252 11.5,-216 65.5,-216 65.5,-246 59.5,-252"/>
<polyline fill="none" stroke="black" points="59.5,-252 59.5,-246 "/>
<polyline fill="none" stroke="black" points="65.5,-246 59.5,-246 "/>
<text text-anchor="middle" x="38.5" y="-231.5" font-family="PT Mono, monospace" font-size="10.00">object</text>
</a>
</g>
</g>
<!-- object&#45;&gt;sequential -->
<g id="edge3" class="edge">
<title>object&#45;&gt;sequential</title>
<path fill="none" stroke="black" d="M38.5,-215.7C38.5,-207.98 38.5,-198.71 38.5,-190.11"/>
<polygon fill="black" stroke="black" points="42,-190.1 38.5,-180.1 35,-190.1 42,-190.1"/>
</g>
</g>
</svg>
