<?xml version="1.0" encoding="UTF-8" standalone="no"?>
<!DOCTYPE svg PUBLIC "-//W3C//DTD SVG 1.1//EN"
 "http://www.w3.org/Graphics/SVG/1.1/DTD/svg11.dtd">
<!-- Generated by graphviz version 2.43.0 (0)
 -->
<!-- Title: complex Pages: 1 -->
<svg width="158pt" height="332pt"
 viewBox="0.00 0.00 157.50 332.00" xmlns="http://www.w3.org/2000/svg" xmlns:xlink="http://www.w3.org/1999/xlink">
<g id="graph0" class="graph" transform="scale(1 1) rotate(0) translate(4 328)">
<title>complex</title>
<polygon fill="transparent" stroke="transparent" points="-4,4 -4,-328 153.5,-328 153.5,4 -4,4"/>
<!-- numeric -->
<g id="node1" class="node">
<title>numeric</title>
<g id="a_node1"><a xlink:href="PsyllaReference_Types.xhtml#PsyllaReference_Types_Details_numeric" xlink:title="numeric" target="_parent">
<polygon fill="linen" stroke="black" points="92.5,-108 39.5,-108 39.5,-72 98.5,-72 98.5,-102 92.5,-108"/>
<polyline fill="none" stroke="black" points="92.5,-108 92.5,-102 "/>
<polyline fill="none" stroke="black" points="98.5,-102 92.5,-102 "/>
<text text-anchor="middle" x="69" y="-87.5" font-family="PT Mono, monospace" font-size="10.00">numeric</text>
</a>
</g>
</g>
<!-- complex -->
<g id="node2" class="node">
<title>complex</title>
<g id="a_node2"><a xlink:href="PsyllaReference_Types.xhtml#PsyllaReference_Types_Details_complex" xlink:title="complex" target="_parent">
<polygon fill="wheat" stroke="black" points="92.5,-36 39.5,-36 39.5,0 98.5,0 98.5,-30 92.5,-36"/>
<polyline fill="none" stroke="black" points="92.5,-36 92.5,-30 "/>
<polyline fill="none" stroke="black" points="98.5,-30 92.5,-30 "/>
<text text-anchor="middle" x="69" y="-15.5" font-family="PT Mono, monospace" font-size="10.00">complex</text>
</a>
</g>
</g>
<!-- numeric&#45;&gt;complex -->
<g id="edge1" class="edge">
<title>numeric&#45;&gt;complex</title>
<path fill="none" stroke="black" d="M69,-71.7C69,-63.98 69,-54.71 69,-46.11"/>
<polygon fill="black" stroke="black" points="72.5,-46.1 69,-36.1 65.5,-46.1 72.5,-46.1"/>
</g>
<!-- atomic -->
<g id="node3" class="node">
<title>atomic</title>
<g id="a_node3"><a xlink:href="PsyllaReference_Types.xhtml#PsyllaReference_Types_Details_atomic" xlink:title="atomic" target="_parent">
<polygon fill="linen" stroke="black" points="48,-180 0,-180 0,-144 54,-144 54,-174 48,-180"/>
<polyline fill="none" stroke="black" points="48,-180 48,-174 "/>
<polyline fill="none" stroke="black" points="54,-174 48,-174 "/>
<text text-anchor="middle" x="27" y="-159.5" font-family="PT Mono, monospace" font-size="10.00">atomic</text>
</a>
</g>
</g>
<!-- atomic&#45;&gt;numeric -->
<g id="edge2" class="edge">
<title>atomic&#45;&gt;numeric</title>
<path fill="none" stroke="black" d="M37.38,-143.7C42.26,-135.56 48.19,-125.69 53.58,-116.7"/>
<polygon fill="black" stroke="black" points="56.59,-118.48 58.74,-108.1 50.59,-114.88 56.59,-118.48"/>
</g>
<!-- arithmetic -->
<g id="node4" class="node">
<title>arithmetic</title>
<g id="a_node4"><a xlink:href="PsyllaReference_Types.xhtml#PsyllaReference_Types_Details_arithmetic" xlink:title="arithmetic" target="_parent">
<polygon fill="linen" stroke="black" points="143.5,-180 72.5,-180 72.5,-144 149.5,-144 149.5,-174 143.5,-180"/>
<polyline fill="none" stroke="black" points="143.5,-180 143.5,-174 "/>
<polyline fill="none" stroke="black" points="149.5,-174 143.5,-174 "/>
<text text-anchor="middle" x="111" y="-159.5" font-family="PT Mono, monospace" font-size="10.00">arithmetic</text>
</a>
</g>
</g>
<!-- arithmetic&#45;&gt;numeric -->
<g id="edge3" class="edge">
<title>arithmetic&#45;&gt;numeric</title>
<path fill="none" stroke="black" d="M100.62,-143.7C95.74,-135.56 89.81,-125.69 84.42,-116.7"/>
<polygon fill="black" stroke="black" points="87.41,-114.88 79.26,-108.1 81.41,-118.48 87.41,-114.88"/>
</g>
<!-- object -->
<g id="node5" class="node">
<title>object</title>
<g id="a_node5"><a xlink:href="PsyllaReference_Types.xhtml#PsyllaReference_Types_Details_object" xlink:title="object" target="_parent">
<polygon fill="linen" stroke="black" points="89,-324 41,-324 41,-288 95,-288 95,-318 89,-324"/>
<polyline fill="none" stroke="black" points="89,-324 89,-318 "/>
<polyline fill="none" stroke="black" points="95,-318 89,-318 "/>
<text text-anchor="middle" x="68" y="-303.5" font-family="PT Mono, monospace" font-size="10.00">object</text>
</a>
</g>
</g>
<!-- object&#45;&gt;atomic -->
<g id="edge4" class="edge">
<title>object&#45;&gt;atomic</title>
<path fill="none" stroke="black" d="M63.05,-287.87C56.04,-263.56 43.12,-218.82 34.8,-190.01"/>
<polygon fill="black" stroke="black" points="38.1,-188.83 31.96,-180.19 31.37,-190.77 38.1,-188.83"/>
</g>
<!-- additive -->
<g id="node6" class="node">
<title>additive</title>
<g id="a_node6"><a xlink:href="PsyllaReference_Types.xhtml#PsyllaReference_Types_Details_additive" xlink:title="additive" target="_parent">
<polygon fill="linen" stroke="black" points="131.5,-252 72.5,-252 72.5,-216 137.5,-216 137.5,-246 131.5,-252"/>
<polyline fill="none" stroke="black" points="131.5,-252 131.5,-246 "/>
<polyline fill="none" stroke="black" points="137.5,-246 131.5,-246 "/>
<text text-anchor="middle" x="105" y="-231.5" font-family="PT Mono, monospace" font-size="10.00">additive</text>
</a>
</g>
</g>
<!-- object&#45;&gt;additive -->
<g id="edge6" class="edge">
<title>object&#45;&gt;additive</title>
<path fill="none" stroke="black" d="M77.15,-287.7C81.4,-279.64 86.56,-269.89 91.27,-260.98"/>
<polygon fill="black" stroke="black" points="94.38,-262.58 95.96,-252.1 88.19,-259.31 94.38,-262.58"/>
</g>
<!-- additive&#45;&gt;arithmetic -->
<g id="edge5" class="edge">
<title>additive&#45;&gt;arithmetic</title>
<path fill="none" stroke="black" d="M106.48,-215.7C107.14,-207.98 107.94,-198.71 108.68,-190.11"/>
<polygon fill="black" stroke="black" points="112.17,-190.37 109.53,-180.1 105.19,-189.77 112.17,-190.37"/>
</g>
</g>
</svg>
