<?xml version="1.0" encoding="UTF-8" standalone="no"?>
<!DOCTYPE svg PUBLIC "-//W3C//DTD SVG 1.1//EN"
 "http://www.w3.org/Graphics/SVG/1.1/DTD/svg11.dtd">
<!-- Generated by graphviz version 14.0.0 (0)
 -->
<!-- Title: convertabletointeger Pages: 1 -->
<svg width="123pt" height="116pt"
 viewBox="0.00 0.00 123.00 116.00" xmlns="http://www.w3.org/2000/svg" xmlns:xlink="http://www.w3.org/1999/xlink">
<g id="graph0" class="graph" transform="scale(1 1) rotate(0) translate(4 112)">
<title>convertabletointeger</title>
<polygon fill="none" stroke="none" points="-4,4 -4,-112 118.62,-112 118.62,4 -4,4"/>
<!-- object -->
<g id="node1" class="node">
<title>object</title>
<g id="a_node1"><a xlink:href="PsyllaReference_Types.xhtml#PsyllaReference_Types_Details_object" xlink:title="object" target="_parent">
<polygon fill="linen" stroke="black" points="78.31,-108 30.31,-108 30.31,-72 84.31,-72 84.31,-102 78.31,-108"/>
<polyline fill="none" stroke="black" points="78.31,-108 78.31,-102"/>
<polyline fill="none" stroke="black" points="84.31,-102 78.31,-102"/>
<text xml:space="preserve" text-anchor="middle" x="57.31" y="-86.4" font-family="Source Code Pro,monospace" font-size="12.00">object</text>
</a>
</g>
</g>
<!-- convertabletointeger -->
<g id="node2" class="node">
<title>convertabletointeger</title>
<g id="a_node2"><a xlink:href="PsyllaReference_Types.xhtml#PsyllaReference_Types_Details_convertabletointeger" xlink:title="convertabletointeger" target="_parent">
<polygon fill="wheat" stroke="black" points="108.62,-36 0,-36 0,0 114.62,0 114.62,-30 108.62,-36"/>
<polyline fill="none" stroke="black" points="108.62,-36 108.62,-30"/>
<polyline fill="none" stroke="black" points="114.62,-30 108.62,-30"/>
<text xml:space="preserve" text-anchor="middle" x="57.31" y="-14.4" font-family="Source Code Pro,monospace" font-size="12.00">convertabletointeger</text>
</a>
</g>
</g>
<!-- object&#45;&gt;convertabletointeger -->
<g id="edge1" class="edge">
<title>object&#45;&gt;convertabletointeger</title>
<path fill="none" stroke="black" d="M57.31,-71.7C57.31,-64.41 57.31,-55.73 57.31,-47.54"/>
<polygon fill="black" stroke="black" points="60.81,-47.62 57.31,-37.62 53.81,-47.62 60.81,-47.62"/>
</g>
</g>
</svg>
