<?xml version="1.0" encoding="UTF-8" standalone="no"?>
<!DOCTYPE svg PUBLIC "-//W3C//DTD SVG 1.1//EN"
 "http://www.w3.org/Graphics/SVG/1.1/DTD/svg11.dtd">
<!-- Generated by graphviz version 2.49.3 (0)
 -->
<!-- Title: container Pages: 1 -->
<svg width="195pt" height="332pt"
 viewBox="0.00 0.00 194.64 332.00" xmlns="http://www.w3.org/2000/svg" xmlns:xlink="http://www.w3.org/1999/xlink">
<g id="graph0" class="graph" transform="scale(1 1) rotate(0) translate(4 328)">
<title>container</title>
<polygon fill="transparent" stroke="transparent" points="-4,4 -4,-328 190.64,-328 190.64,4 -4,4"/>
<!-- clearable -->
<g id="node1" class="node">
<title>clearable</title>
<g id="a_node1"><a xlink:href="PsyllaReference_Types.xhtml#PsyllaReference_Types_Details_clearable" xlink:title="clearable" target="_parent">
<polygon fill="linen" stroke="black" points="53.45,-180 -0.15,-180 -0.15,-144 59.45,-144 59.45,-174 53.45,-180"/>
<polyline fill="none" stroke="black" points="53.45,-180 53.45,-174 "/>
<polyline fill="none" stroke="black" points="59.45,-174 53.45,-174 "/>
<text text-anchor="middle" x="29.65" y="-158.4" font-family="Source Code Pro,monospace" font-size="12.00">clearable</text>
</a>
</g>
</g>
<!-- container -->
<g id="node4" class="node">
<title>container</title>
<g id="a_node4"><a xlink:href="PsyllaReference_Types.xhtml#PsyllaReference_Types_Details_container" xlink:title="container" target="_parent">
<polygon fill="wheat" stroke="black" points="108.8,-36 54.5,-36 54.5,0 114.8,0 114.8,-30 108.8,-36"/>
<polyline fill="none" stroke="black" points="108.8,-36 108.8,-30 "/>
<polyline fill="none" stroke="black" points="114.8,-30 108.8,-30 "/>
<text text-anchor="middle" x="84.65" y="-14.4" font-family="Source Code Pro,monospace" font-size="12.00">container</text>
</a>
</g>
</g>
<!-- clearable&#45;&gt;container -->
<g id="edge1" class="edge">
<title>clearable&#45;&gt;container</title>
<path fill="none" stroke="black" d="M31.35,-143.67C33.6,-125.29 38.54,-95.69 48.65,-72 52.73,-62.43 58.64,-52.78 64.49,-44.39"/>
<polygon fill="black" stroke="black" points="67.43,-46.29 70.48,-36.15 61.77,-42.17 67.43,-46.29"/>
</g>
<!-- iterable -->
<g id="node2" class="node">
<title>iterable</title>
<g id="a_node2"><a xlink:href="PsyllaReference_Types.xhtml#PsyllaReference_Types_Details_iterable" xlink:title="iterable" target="_parent">
<polygon fill="linen" stroke="black" points="177.65,-108 129.65,-108 129.65,-72 183.65,-72 183.65,-102 177.65,-108"/>
<polyline fill="none" stroke="black" points="177.65,-108 177.65,-102 "/>
<polyline fill="none" stroke="black" points="183.65,-102 177.65,-102 "/>
<text text-anchor="middle" x="156.65" y="-86.4" font-family="Source Code Pro,monospace" font-size="12.00">iterable</text>
</a>
</g>
</g>
<!-- iterable&#45;&gt;container -->
<g id="edge2" class="edge">
<title>iterable&#45;&gt;container</title>
<path fill="none" stroke="black" d="M138.85,-71.7C130.05,-63.14 119.27,-52.66 109.65,-43.3"/>
<polygon fill="black" stroke="black" points="111.85,-40.57 102.24,-36.1 106.97,-45.58 111.85,-40.57"/>
</g>
<!-- lengthy -->
<g id="node3" class="node">
<title>lengthy</title>
<g id="a_node3"><a xlink:href="PsyllaReference_Types.xhtml#PsyllaReference_Types_Details_lengthy" xlink:title="lengthy" target="_parent">
<polygon fill="linen" stroke="black" points="105.65,-108 57.65,-108 57.65,-72 111.65,-72 111.65,-102 105.65,-108"/>
<polyline fill="none" stroke="black" points="105.65,-108 105.65,-102 "/>
<polyline fill="none" stroke="black" points="111.65,-102 105.65,-102 "/>
<text text-anchor="middle" x="84.65" y="-86.4" font-family="Source Code Pro,monospace" font-size="12.00">lengthy</text>
</a>
</g>
</g>
<!-- lengthy&#45;&gt;container -->
<g id="edge3" class="edge">
<title>lengthy&#45;&gt;container</title>
<path fill="none" stroke="black" d="M84.65,-71.7C84.65,-63.98 84.65,-54.71 84.65,-46.11"/>
<polygon fill="black" stroke="black" points="88.15,-46.1 84.65,-36.1 81.15,-46.1 88.15,-46.1"/>
</g>
<!-- object -->
<g id="node5" class="node">
<title>object</title>
<g id="a_node5"><a xlink:href="PsyllaReference_Types.xhtml#PsyllaReference_Types_Details_object" xlink:title="object" target="_parent">
<polygon fill="linen" stroke="black" points="108.65,-324 60.65,-324 60.65,-288 114.65,-288 114.65,-318 108.65,-324"/>
<polyline fill="none" stroke="black" points="108.65,-324 108.65,-318 "/>
<polyline fill="none" stroke="black" points="114.65,-318 108.65,-318 "/>
<text text-anchor="middle" x="87.65" y="-302.4" font-family="Source Code Pro,monospace" font-size="12.00">object</text>
</a>
</g>
</g>
<!-- object&#45;&gt;clearable -->
<g id="edge4" class="edge">
<title>object&#45;&gt;clearable</title>
<path fill="none" stroke="black" d="M80.65,-287.87C70.68,-263.46 52.29,-218.43 40.53,-189.64"/>
<polygon fill="black" stroke="black" points="43.69,-188.12 36.67,-180.19 37.21,-190.77 43.69,-188.12"/>
</g>
<!-- object&#45;&gt;lengthy -->
<g id="edge6" class="edge">
<title>object&#45;&gt;lengthy</title>
<path fill="none" stroke="black" d="M87.41,-287.85C86.89,-250.83 85.66,-163.18 85.03,-118.39"/>
<polygon fill="black" stroke="black" points="88.53,-118.18 84.89,-108.23 81.53,-118.28 88.53,-118.18"/>
</g>
<!-- sequential -->
<g id="node7" class="node">
<title>sequential</title>
<g id="a_node7"><a xlink:href="PsyllaReference_Types.xhtml#PsyllaReference_Types_Details_sequential" xlink:title="sequential" target="_parent">
<polygon fill="linen" stroke="black" points="174.8,-252 116.5,-252 116.5,-216 180.8,-216 180.8,-246 174.8,-252"/>
<polyline fill="none" stroke="black" points="174.8,-252 174.8,-246 "/>
<polyline fill="none" stroke="black" points="180.8,-246 174.8,-246 "/>
<text text-anchor="middle" x="148.65" y="-230.4" font-family="Source Code Pro,monospace" font-size="12.00">sequential</text>
</a>
</g>
</g>
<!-- object&#45;&gt;sequential -->
<g id="edge8" class="edge">
<title>object&#45;&gt;sequential</title>
<path fill="none" stroke="black" d="M102.73,-287.7C110.04,-279.3 118.96,-269.07 126.98,-259.86"/>
<polygon fill="black" stroke="black" points="129.81,-261.94 133.74,-252.1 124.54,-257.34 129.81,-261.94"/>
</g>
<!-- streamable -->
<g id="node6" class="node">
<title>streamable</title>
<g id="a_node6"><a xlink:href="PsyllaReference_Types.xhtml#PsyllaReference_Types_Details_streamable" xlink:title="streamable" target="_parent">
<polygon fill="linen" stroke="black" points="180.62,-180 118.68,-180 118.68,-144 186.62,-144 186.62,-174 180.62,-180"/>
<polyline fill="none" stroke="black" points="180.62,-180 180.62,-174 "/>
<polyline fill="none" stroke="black" points="186.62,-174 180.62,-174 "/>
<text text-anchor="middle" x="152.65" y="-158.4" font-family="Source Code Pro,monospace" font-size="12.00">streamable</text>
</a>
</g>
</g>
<!-- streamable&#45;&gt;iterable -->
<g id="edge5" class="edge">
<title>streamable&#45;&gt;iterable</title>
<path fill="none" stroke="black" d="M153.64,-143.7C154.08,-135.98 154.61,-126.71 155.1,-118.11"/>
<polygon fill="black" stroke="black" points="158.6,-118.29 155.67,-108.1 151.61,-117.89 158.6,-118.29"/>
</g>
<!-- sequential&#45;&gt;streamable -->
<g id="edge7" class="edge">
<title>sequential&#45;&gt;streamable</title>
<path fill="none" stroke="black" d="M149.64,-215.7C150.08,-207.98 150.61,-198.71 151.1,-190.11"/>
<polygon fill="black" stroke="black" points="154.6,-190.29 151.67,-180.1 147.61,-189.89 154.6,-190.29"/>
</g>
</g>
</svg>
