<?xml version="1.0" encoding="UTF-8" standalone="no"?>
<!DOCTYPE svg PUBLIC "-//W3C//DTD SVG 1.1//EN"
 "http://www.w3.org/Graphics/SVG/1.1/DTD/svg11.dtd">
<!-- Generated by graphviz version 2.43.0 (0)
 -->
<!-- Title: biginteger Pages: 1 -->
<svg width="390pt" height="548pt"
 viewBox="0.00 0.00 389.50 548.00" xmlns="http://www.w3.org/2000/svg" xmlns:xlink="http://www.w3.org/1999/xlink">
<g id="graph0" class="graph" transform="scale(1 1) rotate(0) translate(4 544)">
<title>biginteger</title>
<polygon fill="transparent" stroke="transparent" points="-4,4 -4,-544 385.5,-544 385.5,4 -4,4"/>
<!-- integral -->
<g id="node1" class="node">
<title>integral</title>
<g id="a_node1"><a xlink:href="PsyllaReference_Types.xhtml#PsyllaReference_Types_Details_integral" xlink:title="integral" target="_parent">
<polygon fill="linen" stroke="black" points="117,-108 46,-108 46,-72 123,-72 123,-102 117,-108"/>
<polyline fill="none" stroke="black" points="117,-108 117,-102 "/>
<polyline fill="none" stroke="black" points="123,-102 117,-102 "/>
<text text-anchor="middle" x="84.5" y="-86.9" font-family="PT Mono, monospace" font-size="12.00">integral</text>
</a>
</g>
</g>
<!-- biginteger -->
<g id="node2" class="node">
<title>biginteger</title>
<g id="a_node2"><a xlink:href="PsyllaReference_Types.xhtml#PsyllaReference_Types_Details_biginteger" xlink:title="biginteger" target="_parent">
<polygon fill="wheat" stroke="black" points="124.5,-36 38.5,-36 38.5,0 130.5,0 130.5,-30 124.5,-36"/>
<polyline fill="none" stroke="black" points="124.5,-36 124.5,-30 "/>
<polyline fill="none" stroke="black" points="130.5,-30 124.5,-30 "/>
<text text-anchor="middle" x="84.5" y="-14.9" font-family="PT Mono, monospace" font-size="12.00">biginteger</text>
</a>
</g>
</g>
<!-- integral&#45;&gt;biginteger -->
<g id="edge1" class="edge">
<title>integral&#45;&gt;biginteger</title>
<path fill="none" stroke="black" d="M84.5,-71.7C84.5,-63.98 84.5,-54.71 84.5,-46.11"/>
<polygon fill="black" stroke="black" points="88,-46.1 84.5,-36.1 81,-46.1 88,-46.1"/>
</g>
<!-- bitwise -->
<g id="node3" class="node">
<title>bitwise</title>
<g id="a_node3"><a xlink:href="PsyllaReference_Types.xhtml#PsyllaReference_Types_Details_bitwise" xlink:title="bitwise" target="_parent">
<polygon fill="linen" stroke="black" points="63,-252 0,-252 0,-216 69,-216 69,-246 63,-252"/>
<polyline fill="none" stroke="black" points="63,-252 63,-246 "/>
<polyline fill="none" stroke="black" points="69,-246 63,-246 "/>
<text text-anchor="middle" x="34.5" y="-230.9" font-family="PT Mono, monospace" font-size="12.00">bitwise</text>
</a>
</g>
</g>
<!-- bitwise&#45;&gt;integral -->
<g id="edge2" class="edge">
<title>bitwise&#45;&gt;integral</title>
<path fill="none" stroke="black" d="M40.53,-215.87C49.13,-191.46 64.98,-146.43 75.12,-117.64"/>
<polygon fill="black" stroke="black" points="78.43,-118.78 78.45,-108.19 71.82,-116.46 78.43,-118.78"/>
</g>
<!-- rational -->
<g id="node4" class="node">
<title>rational</title>
<g id="a_node4"><a xlink:href="PsyllaReference_Types.xhtml#PsyllaReference_Types_Details_rational" xlink:title="rational" target="_parent">
<polygon fill="linen" stroke="black" points="160,-180 89,-180 89,-144 166,-144 166,-174 160,-180"/>
<polyline fill="none" stroke="black" points="160,-180 160,-174 "/>
<polyline fill="none" stroke="black" points="166,-174 160,-174 "/>
<text text-anchor="middle" x="127.5" y="-158.9" font-family="PT Mono, monospace" font-size="12.00">rational</text>
</a>
</g>
</g>
<!-- rational&#45;&gt;integral -->
<g id="edge3" class="edge">
<title>rational&#45;&gt;integral</title>
<path fill="none" stroke="black" d="M116.87,-143.7C111.87,-135.56 105.81,-125.69 100.29,-116.7"/>
<polygon fill="black" stroke="black" points="103.22,-114.79 95.01,-108.1 97.26,-118.46 103.22,-114.79"/>
</g>
<!-- logical -->
<g id="node5" class="node">
<title>logical</title>
<g id="a_node5"><a xlink:href="PsyllaReference_Types.xhtml#PsyllaReference_Types_Details_logical" xlink:title="logical" target="_parent">
<polygon fill="linen" stroke="black" points="63,-468 0,-468 0,-432 69,-432 69,-462 63,-468"/>
<polyline fill="none" stroke="black" points="63,-468 63,-462 "/>
<polyline fill="none" stroke="black" points="69,-462 63,-462 "/>
<text text-anchor="middle" x="34.5" y="-446.9" font-family="PT Mono, monospace" font-size="12.00">logical</text>
</a>
</g>
</g>
<!-- logical&#45;&gt;bitwise -->
<g id="edge4" class="edge">
<title>logical&#45;&gt;bitwise</title>
<path fill="none" stroke="black" d="M34.5,-431.85C34.5,-394.83 34.5,-307.18 34.5,-262.39"/>
<polygon fill="black" stroke="black" points="38,-262.23 34.5,-252.23 31,-262.23 38,-262.23"/>
</g>
<!-- realnumeric -->
<g id="node6" class="node">
<title>realnumeric</title>
<g id="a_node6"><a xlink:href="PsyllaReference_Types.xhtml#PsyllaReference_Types_Details_realnumeric" xlink:title="realnumeric" target="_parent">
<polygon fill="linen" stroke="black" points="180,-252 87,-252 87,-216 186,-216 186,-246 180,-252"/>
<polyline fill="none" stroke="black" points="180,-252 180,-246 "/>
<polyline fill="none" stroke="black" points="186,-246 180,-246 "/>
<text text-anchor="middle" x="136.5" y="-230.9" font-family="PT Mono, monospace" font-size="12.00">realnumeric</text>
</a>
</g>
</g>
<!-- realnumeric&#45;&gt;rational -->
<g id="edge5" class="edge">
<title>realnumeric&#45;&gt;rational</title>
<path fill="none" stroke="black" d="M134.28,-215.7C133.28,-207.98 132.09,-198.71 130.99,-190.11"/>
<polygon fill="black" stroke="black" points="134.45,-189.58 129.7,-180.1 127.5,-190.47 134.45,-189.58"/>
</g>
<!-- object -->
<g id="node7" class="node">
<title>object</title>
<g id="a_node7"><a xlink:href="PsyllaReference_Types.xhtml#PsyllaReference_Types_Details_object" xlink:title="object" target="_parent">
<polygon fill="linen" stroke="black" points="160.5,-540 104.5,-540 104.5,-504 166.5,-504 166.5,-534 160.5,-540"/>
<polyline fill="none" stroke="black" points="160.5,-540 160.5,-534 "/>
<polyline fill="none" stroke="black" points="166.5,-534 160.5,-534 "/>
<text text-anchor="middle" x="135.5" y="-518.9" font-family="PT Mono, monospace" font-size="12.00">object</text>
</a>
</g>
</g>
<!-- object&#45;&gt;logical -->
<g id="edge6" class="edge">
<title>object&#45;&gt;logical</title>
<path fill="none" stroke="black" d="M110.79,-503.88C97.83,-494.89 81.77,-483.76 67.73,-474.03"/>
<polygon fill="black" stroke="black" points="69.52,-471.01 59.3,-468.19 65.53,-476.76 69.52,-471.01"/>
</g>
<!-- scalar -->
<g id="node9" class="node">
<title>scalar</title>
<g id="a_node9"><a xlink:href="PsyllaReference_Types.xhtml#PsyllaReference_Types_Details_scalar" xlink:title="scalar" target="_parent">
<polygon fill="linen" stroke="black" points="122.5,-324 66.5,-324 66.5,-288 128.5,-288 128.5,-318 122.5,-324"/>
<polyline fill="none" stroke="black" points="122.5,-324 122.5,-318 "/>
<polyline fill="none" stroke="black" points="128.5,-318 122.5,-318 "/>
<text text-anchor="middle" x="97.5" y="-302.9" font-family="PT Mono, monospace" font-size="12.00">scalar</text>
</a>
</g>
</g>
<!-- object&#45;&gt;scalar -->
<g id="edge11" class="edge">
<title>object&#45;&gt;scalar</title>
<path fill="none" stroke="black" d="M132.45,-503.85C125.87,-466.75 110.25,-378.81 102.31,-334.1"/>
<polygon fill="black" stroke="black" points="105.75,-333.47 100.56,-324.23 98.86,-334.69 105.75,-333.47"/>
</g>
<!-- atomic -->
<g id="node10" class="node">
<title>atomic</title>
<g id="a_node10"><a xlink:href="PsyllaReference_Types.xhtml#PsyllaReference_Types_Details_atomic" xlink:title="atomic" target="_parent">
<polygon fill="linen" stroke="black" points="181.5,-396 125.5,-396 125.5,-360 187.5,-360 187.5,-390 181.5,-396"/>
<polyline fill="none" stroke="black" points="181.5,-396 181.5,-390 "/>
<polyline fill="none" stroke="black" points="187.5,-390 181.5,-390 "/>
<text text-anchor="middle" x="156.5" y="-374.9" font-family="PT Mono, monospace" font-size="12.00">atomic</text>
</a>
</g>
</g>
<!-- object&#45;&gt;atomic -->
<g id="edge12" class="edge">
<title>object&#45;&gt;atomic</title>
<path fill="none" stroke="black" d="M138.03,-503.87C141.61,-479.67 148.19,-435.21 152.45,-406.39"/>
<polygon fill="black" stroke="black" points="155.96,-406.59 153.96,-396.19 149.03,-405.57 155.96,-406.59"/>
</g>
<!-- additive -->
<g id="node12" class="node">
<title>additive</title>
<g id="a_node12"><a xlink:href="PsyllaReference_Types.xhtml#PsyllaReference_Types_Details_additive" xlink:title="additive" target="_parent">
<polygon fill="linen" stroke="black" points="235,-468 164,-468 164,-432 241,-432 241,-462 235,-468"/>
<polyline fill="none" stroke="black" points="235,-468 235,-462 "/>
<polyline fill="none" stroke="black" points="241,-462 235,-462 "/>
<text text-anchor="middle" x="202.5" y="-446.9" font-family="PT Mono, monospace" font-size="12.00">additive</text>
</a>
</g>
</g>
<!-- object&#45;&gt;additive -->
<g id="edge15" class="edge">
<title>object&#45;&gt;additive</title>
<path fill="none" stroke="black" d="M152.06,-503.7C160.18,-495.22 170.09,-484.86 178.97,-475.58"/>
<polygon fill="black" stroke="black" points="181.74,-477.75 186.13,-468.1 176.69,-472.91 181.74,-477.75"/>
</g>
<!-- multiplicative -->
<g id="node13" class="node">
<title>multiplicative</title>
<g id="a_node13"><a xlink:href="PsyllaReference_Types.xhtml#PsyllaReference_Types_Details_multiplicative" xlink:title="multiplicative" target="_parent">
<polygon fill="linen" stroke="black" points="375.5,-468 259.5,-468 259.5,-432 381.5,-432 381.5,-462 375.5,-468"/>
<polyline fill="none" stroke="black" points="375.5,-468 375.5,-462 "/>
<polyline fill="none" stroke="black" points="381.5,-462 375.5,-462 "/>
<text text-anchor="middle" x="320.5" y="-446.9" font-family="PT Mono, monospace" font-size="12.00">multiplicative</text>
</a>
</g>
</g>
<!-- object&#45;&gt;multiplicative -->
<g id="edge16" class="edge">
<title>object&#45;&gt;multiplicative</title>
<path fill="none" stroke="black" d="M166.88,-509.13C193.88,-498.91 233.46,-483.94 265.68,-471.74"/>
<polygon fill="black" stroke="black" points="267.3,-474.87 275.42,-468.06 264.82,-468.32 267.3,-474.87"/>
</g>
<!-- numeric -->
<g id="node8" class="node">
<title>numeric</title>
<g id="a_node8"><a xlink:href="PsyllaReference_Types.xhtml#PsyllaReference_Types_Details_numeric" xlink:title="numeric" target="_parent">
<polygon fill="linen" stroke="black" points="210,-324 147,-324 147,-288 216,-288 216,-318 210,-324"/>
<polyline fill="none" stroke="black" points="210,-324 210,-318 "/>
<polyline fill="none" stroke="black" points="216,-318 210,-318 "/>
<text text-anchor="middle" x="181.5" y="-302.9" font-family="PT Mono, monospace" font-size="12.00">numeric</text>
</a>
</g>
</g>
<!-- numeric&#45;&gt;realnumeric -->
<g id="edge7" class="edge">
<title>numeric&#45;&gt;realnumeric</title>
<path fill="none" stroke="black" d="M170.38,-287.7C165.14,-279.56 158.8,-269.69 153.02,-260.7"/>
<polygon fill="black" stroke="black" points="155.85,-258.62 147.5,-252.1 149.96,-262.41 155.85,-258.62"/>
</g>
<!-- scalar&#45;&gt;realnumeric -->
<g id="edge8" class="edge">
<title>scalar&#45;&gt;realnumeric</title>
<path fill="none" stroke="black" d="M107.14,-287.7C111.63,-279.64 117.06,-269.89 122.02,-260.98"/>
<polygon fill="black" stroke="black" points="125.16,-262.54 126.97,-252.1 119.05,-259.14 125.16,-262.54"/>
</g>
<!-- atomic&#45;&gt;numeric -->
<g id="edge9" class="edge">
<title>atomic&#45;&gt;numeric</title>
<path fill="none" stroke="black" d="M162.68,-359.7C165.5,-351.81 168.89,-342.3 172.02,-333.55"/>
<polygon fill="black" stroke="black" points="175.32,-334.7 175.39,-324.1 168.73,-332.34 175.32,-334.7"/>
</g>
<!-- arithmetic -->
<g id="node11" class="node">
<title>arithmetic</title>
<g id="a_node11"><a xlink:href="PsyllaReference_Types.xhtml#PsyllaReference_Types_Details_arithmetic" xlink:title="arithmetic" target="_parent">
<polygon fill="linen" stroke="black" points="291.5,-396 205.5,-396 205.5,-360 297.5,-360 297.5,-390 291.5,-396"/>
<polyline fill="none" stroke="black" points="291.5,-396 291.5,-390 "/>
<polyline fill="none" stroke="black" points="297.5,-390 291.5,-390 "/>
<text text-anchor="middle" x="251.5" y="-374.9" font-family="PT Mono, monospace" font-size="12.00">arithmetic</text>
</a>
</g>
</g>
<!-- arithmetic&#45;&gt;numeric -->
<g id="edge10" class="edge">
<title>arithmetic&#45;&gt;numeric</title>
<path fill="none" stroke="black" d="M234.2,-359.7C225.64,-351.14 215.16,-340.66 205.8,-331.3"/>
<polygon fill="black" stroke="black" points="208.15,-328.7 198.6,-324.1 203.2,-333.65 208.15,-328.7"/>
</g>
<!-- additive&#45;&gt;arithmetic -->
<g id="edge13" class="edge">
<title>additive&#45;&gt;arithmetic</title>
<path fill="none" stroke="black" d="M214.61,-431.7C220.37,-423.47 227.36,-413.48 233.71,-404.42"/>
<polygon fill="black" stroke="black" points="236.66,-406.3 239.53,-396.1 230.92,-402.29 236.66,-406.3"/>
</g>
<!-- multiplicative&#45;&gt;arithmetic -->
<g id="edge14" class="edge">
<title>multiplicative&#45;&gt;arithmetic</title>
<path fill="none" stroke="black" d="M303.44,-431.7C295,-423.14 284.68,-412.66 275.46,-403.3"/>
<polygon fill="black" stroke="black" points="277.87,-400.77 268.36,-396.1 272.89,-405.68 277.87,-400.77"/>
</g>
</g>
</svg>
