<?xml version="1.0" encoding="UTF-8" standalone="no"?>
<!DOCTYPE svg PUBLIC "-//W3C//DTD SVG 1.1//EN"
 "http://www.w3.org/Graphics/SVG/1.1/DTD/svg11.dtd">
<!-- Generated by graphviz version 2.43.0 (0)
 -->
<!-- Title: formalstream Pages: 1 -->
<svg width="202pt" height="260pt"
 viewBox="0.00 0.00 202.00 260.00" xmlns="http://www.w3.org/2000/svg" xmlns:xlink="http://www.w3.org/1999/xlink">
<g id="graph0" class="graph" transform="scale(1 1) rotate(0) translate(4 256)">
<title>formalstream</title>
<polygon fill="transparent" stroke="transparent" points="-4,4 -4,-256 198,-256 198,4 -4,4"/>
<!-- streamable -->
<g id="node1" class="node">
<title>streamable</title>
<g id="a_node1"><a xlink:href="PsyllaReference_Types.xhtml#PsyllaReference_Types_Details_streamable" xlink:title="streamable" target="_parent">
<polygon fill="linen" stroke="black" points="188,-108 102,-108 102,-72 194,-72 194,-102 188,-108"/>
<polyline fill="none" stroke="black" points="188,-108 188,-102 "/>
<polyline fill="none" stroke="black" points="194,-102 188,-102 "/>
<text text-anchor="middle" x="148" y="-86.9" font-family="PT Mono, monospace" font-size="12.00">streamable</text>
</a>
</g>
</g>
<!-- formalstream -->
<g id="node3" class="node">
<title>formalstream</title>
<g id="a_node3"><a xlink:href="PsyllaReference_Types.xhtml#PsyllaReference_Types_Details_formalstream" xlink:title="formalstream" target="_parent">
<polygon fill="wheat" stroke="black" points="142.5,-36 41.5,-36 41.5,0 148.5,0 148.5,-30 142.5,-36"/>
<polyline fill="none" stroke="black" points="142.5,-36 142.5,-30 "/>
<polyline fill="none" stroke="black" points="148.5,-30 142.5,-30 "/>
<text text-anchor="middle" x="95" y="-14.9" font-family="PT Mono, monospace" font-size="12.00">formalstream</text>
</a>
</g>
</g>
<!-- streamable&#45;&gt;formalstream -->
<g id="edge1" class="edge">
<title>streamable&#45;&gt;formalstream</title>
<path fill="none" stroke="black" d="M134.9,-71.7C128.61,-63.39 120.95,-53.28 114.04,-44.14"/>
<polygon fill="black" stroke="black" points="116.78,-41.96 107.95,-36.1 111.2,-46.19 116.78,-41.96"/>
</g>
<!-- closeable -->
<g id="node2" class="node">
<title>closeable</title>
<g id="a_node2"><a xlink:href="PsyllaReference_Types.xhtml#PsyllaReference_Types_Details_closeable" xlink:title="closeable" target="_parent">
<polygon fill="linen" stroke="black" points="78,-108 0,-108 0,-72 84,-72 84,-102 78,-108"/>
<polyline fill="none" stroke="black" points="78,-108 78,-102 "/>
<polyline fill="none" stroke="black" points="84,-102 78,-102 "/>
<text text-anchor="middle" x="42" y="-86.9" font-family="PT Mono, monospace" font-size="12.00">closeable</text>
</a>
</g>
</g>
<!-- closeable&#45;&gt;formalstream -->
<g id="edge2" class="edge">
<title>closeable&#45;&gt;formalstream</title>
<path fill="none" stroke="black" d="M55.1,-71.7C61.39,-63.39 69.05,-53.28 75.96,-44.14"/>
<polygon fill="black" stroke="black" points="78.8,-46.19 82.05,-36.1 73.22,-41.96 78.8,-46.19"/>
</g>
<!-- sequential -->
<g id="node4" class="node">
<title>sequential</title>
<g id="a_node4"><a xlink:href="PsyllaReference_Types.xhtml#PsyllaReference_Types_Details_sequential" xlink:title="sequential" target="_parent">
<polygon fill="linen" stroke="black" points="180,-180 94,-180 94,-144 186,-144 186,-174 180,-180"/>
<polyline fill="none" stroke="black" points="180,-180 180,-174 "/>
<polyline fill="none" stroke="black" points="186,-174 180,-174 "/>
<text text-anchor="middle" x="140" y="-158.9" font-family="PT Mono, monospace" font-size="12.00">sequential</text>
</a>
</g>
</g>
<!-- sequential&#45;&gt;streamable -->
<g id="edge3" class="edge">
<title>sequential&#45;&gt;streamable</title>
<path fill="none" stroke="black" d="M141.98,-143.7C142.86,-135.98 143.92,-126.71 144.9,-118.11"/>
<polygon fill="black" stroke="black" points="148.39,-118.44 146.05,-108.1 141.43,-117.64 148.39,-118.44"/>
</g>
<!-- object -->
<g id="node5" class="node">
<title>object</title>
<g id="a_node5"><a xlink:href="PsyllaReference_Types.xhtml#PsyllaReference_Types_Details_object" xlink:title="object" target="_parent">
<polygon fill="linen" stroke="black" points="120,-252 64,-252 64,-216 126,-216 126,-246 120,-252"/>
<polyline fill="none" stroke="black" points="120,-252 120,-246 "/>
<polyline fill="none" stroke="black" points="126,-246 120,-246 "/>
<text text-anchor="middle" x="95" y="-230.9" font-family="PT Mono, monospace" font-size="12.00">object</text>
</a>
</g>
</g>
<!-- object&#45;&gt;closeable -->
<g id="edge4" class="edge">
<title>object&#45;&gt;closeable</title>
<path fill="none" stroke="black" d="M88.61,-215.87C79.49,-191.46 62.69,-146.43 51.94,-117.64"/>
<polygon fill="black" stroke="black" points="55.19,-116.33 48.42,-108.19 48.63,-118.78 55.19,-116.33"/>
</g>
<!-- object&#45;&gt;sequential -->
<g id="edge5" class="edge">
<title>object&#45;&gt;sequential</title>
<path fill="none" stroke="black" d="M106.12,-215.7C111.36,-207.56 117.7,-197.69 123.48,-188.7"/>
<polygon fill="black" stroke="black" points="126.54,-190.41 129,-180.1 120.65,-186.62 126.54,-190.41"/>
</g>
</g>
</svg>
