<?xml version="1.0" encoding="UTF-8" standalone="no"?>
<!DOCTYPE svg PUBLIC "-//W3C//DTD SVG 1.1//EN"
 "http://www.w3.org/Graphics/SVG/1.1/DTD/svg11.dtd">
<!-- Generated by graphviz version 2.49.3 (0)
 -->
<!-- Title: biginteger Pages: 1 -->
<svg width="583pt" height="548pt"
 viewBox="0.00 0.00 582.71 548.00" xmlns="http://www.w3.org/2000/svg" xmlns:xlink="http://www.w3.org/1999/xlink">
<g id="graph0" class="graph" transform="scale(1 1) rotate(0) translate(4 544)">
<title>biginteger</title>
<polygon fill="transparent" stroke="transparent" points="-4,4 -4,-544 578.71,-544 578.71,4 -4,4"/>
<!-- integral -->
<g id="node1" class="node">
<title>integral</title>
<g id="a_node1"><a xlink:href="PsyllaReference_Types.xhtml#PsyllaReference_Types_Details_integral" xlink:title="integral" target="_parent">
<polygon fill="linen" stroke="black" points="165.38,-108 117.38,-108 117.38,-72 171.38,-72 171.38,-102 165.38,-108"/>
<polyline fill="none" stroke="black" points="165.38,-108 165.38,-102 "/>
<polyline fill="none" stroke="black" points="171.38,-102 165.38,-102 "/>
<text text-anchor="middle" x="144.38" y="-86.4" font-family="Source Code Pro,monospace" font-size="12.00">integral</text>
</a>
</g>
</g>
<!-- biginteger -->
<g id="node2" class="node">
<title>biginteger</title>
<g id="a_node2"><a xlink:href="PsyllaReference_Types.xhtml#PsyllaReference_Types_Details_biginteger" xlink:title="biginteger" target="_parent">
<polygon fill="wheat" stroke="black" points="170.53,-36 112.22,-36 112.22,0 176.53,0 176.53,-30 170.53,-36"/>
<polyline fill="none" stroke="black" points="170.53,-36 170.53,-30 "/>
<polyline fill="none" stroke="black" points="176.53,-30 170.53,-30 "/>
<text text-anchor="middle" x="144.38" y="-14.4" font-family="Source Code Pro,monospace" font-size="12.00">biginteger</text>
</a>
</g>
</g>
<!-- integral&#45;&gt;biginteger -->
<g id="edge1" class="edge">
<title>integral&#45;&gt;biginteger</title>
<path fill="none" stroke="black" d="M144.38,-71.7C144.38,-63.98 144.38,-54.71 144.38,-46.11"/>
<polygon fill="black" stroke="black" points="147.88,-46.1 144.38,-36.1 140.88,-46.1 147.88,-46.1"/>
</g>
<!-- bitwise -->
<g id="node3" class="node">
<title>bitwise</title>
<g id="a_node3"><a xlink:href="PsyllaReference_Types.xhtml#PsyllaReference_Types_Details_bitwise" xlink:title="bitwise" target="_parent">
<polygon fill="linen" stroke="black" points="125.38,-252 77.38,-252 77.38,-216 131.38,-216 131.38,-246 125.38,-252"/>
<polyline fill="none" stroke="black" points="125.38,-252 125.38,-246 "/>
<polyline fill="none" stroke="black" points="131.38,-246 125.38,-246 "/>
<text text-anchor="middle" x="104.38" y="-230.4" font-family="Source Code Pro,monospace" font-size="12.00">bitwise</text>
</a>
</g>
</g>
<!-- bitwise&#45;&gt;integral -->
<g id="edge2" class="edge">
<title>bitwise&#45;&gt;integral</title>
<path fill="none" stroke="black" d="M109.2,-215.87C116.05,-191.56 128.65,-146.82 136.77,-118.01"/>
<polygon fill="black" stroke="black" points="140.19,-118.76 139.54,-108.19 133.45,-116.87 140.19,-118.76"/>
</g>
<!-- rational -->
<g id="node4" class="node">
<title>rational</title>
<g id="a_node4"><a xlink:href="PsyllaReference_Types.xhtml#PsyllaReference_Types_Details_rational" xlink:title="rational" target="_parent">
<polygon fill="linen" stroke="black" points="234.38,-180 186.38,-180 186.38,-144 240.38,-144 240.38,-174 234.38,-180"/>
<polyline fill="none" stroke="black" points="234.38,-180 234.38,-174 "/>
<polyline fill="none" stroke="black" points="240.38,-174 234.38,-174 "/>
<text text-anchor="middle" x="213.38" y="-158.4" font-family="Source Code Pro,monospace" font-size="12.00">rational</text>
</a>
</g>
</g>
<!-- rational&#45;&gt;integral -->
<g id="edge3" class="edge">
<title>rational&#45;&gt;integral</title>
<path fill="none" stroke="black" d="M196.32,-143.7C187.88,-135.14 177.55,-124.66 168.33,-115.3"/>
<polygon fill="black" stroke="black" points="170.75,-112.77 161.24,-108.1 165.76,-117.68 170.75,-112.77"/>
</g>
<!-- logical -->
<g id="node5" class="node">
<title>logical</title>
<g id="a_node5"><a xlink:href="PsyllaReference_Types.xhtml#PsyllaReference_Types_Details_logical" xlink:title="logical" target="_parent">
<polygon fill="linen" stroke="black" points="60.38,-468 12.38,-468 12.38,-432 66.38,-432 66.38,-462 60.38,-468"/>
<polyline fill="none" stroke="black" points="60.38,-468 60.38,-462 "/>
<polyline fill="none" stroke="black" points="66.38,-462 60.38,-462 "/>
<text text-anchor="middle" x="39.38" y="-446.4" font-family="Source Code Pro,monospace" font-size="12.00">logical</text>
</a>
</g>
</g>
<!-- logical&#45;&gt;bitwise -->
<g id="edge4" class="edge">
<title>logical&#45;&gt;bitwise</title>
<path fill="none" stroke="black" d="M29.35,-431.71C12.84,-400.72 -15.71,-334.61 11.38,-288 23.47,-267.19 47.12,-253.88 67.55,-245.79"/>
<polygon fill="black" stroke="black" points="68.77,-249.07 76.95,-242.34 66.36,-242.5 68.77,-249.07"/>
</g>
<!-- realnumeric -->
<g id="node6" class="node">
<title>realnumeric</title>
<g id="a_node6"><a xlink:href="PsyllaReference_Types.xhtml#PsyllaReference_Types_Details_realnumeric" xlink:title="realnumeric" target="_parent">
<polygon fill="linen" stroke="black" points="285.18,-252 217.58,-252 217.58,-216 291.18,-216 291.18,-246 285.18,-252"/>
<polyline fill="none" stroke="black" points="285.18,-252 285.18,-246 "/>
<polyline fill="none" stroke="black" points="291.18,-246 285.18,-246 "/>
<text text-anchor="middle" x="254.38" y="-230.4" font-family="Source Code Pro,monospace" font-size="12.00">realnumeric</text>
</a>
</g>
</g>
<!-- realnumeric&#45;&gt;rational -->
<g id="edge5" class="edge">
<title>realnumeric&#45;&gt;rational</title>
<path fill="none" stroke="black" d="M244.24,-215.7C239.53,-207.64 233.82,-197.89 228.6,-188.98"/>
<polygon fill="black" stroke="black" points="231.47,-186.96 223.4,-180.1 225.43,-190.5 231.47,-186.96"/>
</g>
<!-- object -->
<g id="node7" class="node">
<title>object</title>
<g id="a_node7"><a xlink:href="PsyllaReference_Types.xhtml#PsyllaReference_Types_Details_object" xlink:title="object" target="_parent">
<polygon fill="linen" stroke="black" points="352.38,-540 304.38,-540 304.38,-504 358.38,-504 358.38,-534 352.38,-540"/>
<polyline fill="none" stroke="black" points="352.38,-540 352.38,-534 "/>
<polyline fill="none" stroke="black" points="358.38,-534 352.38,-534 "/>
<text text-anchor="middle" x="331.38" y="-518.4" font-family="Source Code Pro,monospace" font-size="12.00">object</text>
</a>
</g>
</g>
<!-- object&#45;&gt;logical -->
<g id="edge6" class="edge">
<title>object&#45;&gt;logical</title>
<path fill="none" stroke="black" d="M304.32,-515.6C260.29,-506.67 170.5,-487.81 95.38,-468 89.19,-466.37 82.65,-464.51 76.32,-462.64"/>
<polygon fill="black" stroke="black" points="77.19,-459.24 66.61,-459.71 75.17,-465.94 77.19,-459.24"/>
</g>
<!-- convertabletointeger -->
<g id="node9" class="node">
<title>convertabletointeger</title>
<g id="a_node9"><a xlink:href="PsyllaReference_Types.xhtml#PsyllaReference_Types_Details_convertabletointeger" xlink:title="convertabletointeger" target="_parent">
<polygon fill="linen" stroke="black" points="128.5,-324 20.25,-324 20.25,-288 134.5,-288 134.5,-318 128.5,-324"/>
<polyline fill="none" stroke="black" points="128.5,-324 128.5,-318 "/>
<polyline fill="none" stroke="black" points="134.5,-318 128.5,-318 "/>
<text text-anchor="middle" x="77.38" y="-302.4" font-family="Source Code Pro,monospace" font-size="12.00">convertabletointeger</text>
</a>
</g>
</g>
<!-- object&#45;&gt;convertabletointeger -->
<g id="edge14" class="edge">
<title>object&#45;&gt;convertabletointeger</title>
<path fill="none" stroke="black" d="M304.04,-512.16C279.55,-503.4 243.43,-488.36 216.38,-468 164.38,-428.86 118.09,-367.3 94.3,-332.74"/>
<polygon fill="black" stroke="black" points="96.99,-330.47 88.47,-324.16 91.2,-334.4 96.99,-330.47"/>
</g>
<!-- convertabletointegral -->
<g id="node10" class="node">
<title>convertabletointegral</title>
<g id="a_node10"><a xlink:href="PsyllaReference_Types.xhtml#PsyllaReference_Types_Details_convertabletointegral" xlink:title="convertabletointegral" target="_parent">
<polygon fill="linen" stroke="black" points="264.34,-324 152.42,-324 152.42,-288 270.34,-288 270.34,-318 264.34,-324"/>
<polyline fill="none" stroke="black" points="264.34,-324 264.34,-318 "/>
<polyline fill="none" stroke="black" points="270.34,-318 264.34,-318 "/>
<text text-anchor="middle" x="211.38" y="-302.4" font-family="Source Code Pro,monospace" font-size="12.00">convertabletointegral</text>
</a>
</g>
</g>
<!-- object&#45;&gt;convertabletointegral -->
<g id="edge15" class="edge">
<title>object&#45;&gt;convertabletointegral</title>
<path fill="none" stroke="black" d="M304.24,-505.26C272,-484.8 219.89,-445.73 198.38,-396 189.8,-376.17 194.29,-351.77 200.23,-333.54"/>
<polygon fill="black" stroke="black" points="203.53,-334.71 203.61,-324.11 196.94,-332.35 203.53,-334.71"/>
</g>
<!-- convertabletorational -->
<g id="node11" class="node">
<title>convertabletorational</title>
<g id="a_node11"><a xlink:href="PsyllaReference_Types.xhtml#PsyllaReference_Types_Details_convertabletorational" xlink:title="convertabletorational" target="_parent">
<polygon fill="linen" stroke="black" points="319.34,-396 207.42,-396 207.42,-360 325.34,-360 325.34,-390 319.34,-396"/>
<polyline fill="none" stroke="black" points="319.34,-396 319.34,-390 "/>
<polyline fill="none" stroke="black" points="325.34,-390 319.34,-390 "/>
<text text-anchor="middle" x="266.38" y="-374.4" font-family="Source Code Pro,monospace" font-size="12.00">convertabletorational</text>
</a>
</g>
</g>
<!-- object&#45;&gt;convertabletorational -->
<g id="edge16" class="edge">
<title>object&#45;&gt;convertabletorational</title>
<path fill="none" stroke="black" d="M323.54,-503.87C312.36,-479.46 291.75,-434.43 278.57,-405.64"/>
<polygon fill="black" stroke="black" points="281.59,-403.83 274.25,-396.19 275.23,-406.74 281.59,-403.83"/>
</g>
<!-- scalar -->
<g id="node12" class="node">
<title>scalar</title>
<g id="a_node12"><a xlink:href="PsyllaReference_Types.xhtml#PsyllaReference_Types_Details_scalar" xlink:title="scalar" target="_parent">
<polygon fill="linen" stroke="black" points="374.38,-324 326.38,-324 326.38,-288 380.38,-288 380.38,-318 374.38,-324"/>
<polyline fill="none" stroke="black" points="374.38,-324 374.38,-318 "/>
<polyline fill="none" stroke="black" points="380.38,-318 374.38,-318 "/>
<text text-anchor="middle" x="353.38" y="-302.4" font-family="Source Code Pro,monospace" font-size="12.00">scalar</text>
</a>
</g>
</g>
<!-- object&#45;&gt;scalar -->
<g id="edge17" class="edge">
<title>object&#45;&gt;scalar</title>
<path fill="none" stroke="black" d="M333.14,-503.85C336.95,-466.83 345.96,-379.18 350.56,-334.39"/>
<polygon fill="black" stroke="black" points="354.06,-334.54 351.61,-324.23 347.1,-333.82 354.06,-334.54"/>
</g>
<!-- value -->
<g id="node14" class="node">
<title>value</title>
<g id="a_node14"><a xlink:href="PsyllaReference_Types.xhtml#PsyllaReference_Types_Details_value" xlink:title="value" target="_parent">
<polygon fill="linen" stroke="black" points="429.38,-396 381.38,-396 381.38,-360 435.38,-360 435.38,-390 429.38,-396"/>
<polyline fill="none" stroke="black" points="429.38,-396 429.38,-390 "/>
<polyline fill="none" stroke="black" points="435.38,-390 429.38,-390 "/>
<text text-anchor="middle" x="408.38" y="-374.4" font-family="Source Code Pro,monospace" font-size="12.00">value</text>
</a>
</g>
</g>
<!-- object&#45;&gt;value -->
<g id="edge20" class="edge">
<title>object&#45;&gt;value</title>
<path fill="none" stroke="black" d="M344.13,-503.8C351.37,-493.65 360.37,-480.4 367.38,-468 378.88,-447.63 389.86,-423.46 397.56,-405.45"/>
<polygon fill="black" stroke="black" points="400.82,-406.72 401.48,-396.14 394.37,-404 400.82,-406.72"/>
</g>
<!-- additive -->
<g id="node15" class="node">
<title>additive</title>
<g id="a_node15"><a xlink:href="PsyllaReference_Types.xhtml#PsyllaReference_Types_Details_additive" xlink:title="additive" target="_parent">
<polygon fill="linen" stroke="black" points="467.54,-468 419.22,-468 419.22,-432 473.54,-432 473.54,-462 467.54,-468"/>
<polyline fill="none" stroke="black" points="467.54,-468 467.54,-462 "/>
<polyline fill="none" stroke="black" points="473.54,-462 467.54,-462 "/>
<text text-anchor="middle" x="446.38" y="-446.4" font-family="Source Code Pro,monospace" font-size="12.00">additive</text>
</a>
</g>
</g>
<!-- object&#45;&gt;additive -->
<g id="edge21" class="edge">
<title>object&#45;&gt;additive</title>
<path fill="none" stroke="black" d="M358.63,-504.41C373.99,-495.06 393.36,-483.27 410,-473.14"/>
<polygon fill="black" stroke="black" points="412.2,-475.9 418.92,-467.71 408.56,-469.92 412.2,-475.9"/>
</g>
<!-- multiplicative -->
<g id="node16" class="node">
<title>multiplicative</title>
<g id="a_node16"><a xlink:href="PsyllaReference_Types.xhtml#PsyllaReference_Types_Details_multiplicative" xlink:title="multiplicative" target="_parent">
<polygon fill="linen" stroke="black" points="568.54,-468 492.22,-468 492.22,-432 574.54,-432 574.54,-462 568.54,-468"/>
<polyline fill="none" stroke="black" points="568.54,-468 568.54,-462 "/>
<polyline fill="none" stroke="black" points="574.54,-462 568.54,-462 "/>
<text text-anchor="middle" x="533.38" y="-446.4" font-family="Source Code Pro,monospace" font-size="12.00">multiplicative</text>
</a>
</g>
</g>
<!-- object&#45;&gt;multiplicative -->
<g id="edge22" class="edge">
<title>object&#45;&gt;multiplicative</title>
<path fill="none" stroke="black" d="M358.62,-511.56C390.19,-500.62 442.9,-482.35 482.19,-468.74"/>
<polygon fill="black" stroke="black" points="483.57,-471.96 491.87,-465.38 481.28,-465.35 483.57,-471.96"/>
</g>
<!-- numeric -->
<g id="node8" class="node">
<title>numeric</title>
<g id="a_node8"><a xlink:href="PsyllaReference_Types.xhtml#PsyllaReference_Types_Details_numeric" xlink:title="numeric" target="_parent">
<polygon fill="linen" stroke="black" points="448.2,-324 398.56,-324 398.56,-288 454.2,-288 454.2,-318 448.2,-324"/>
<polyline fill="none" stroke="black" points="448.2,-324 448.2,-318 "/>
<polyline fill="none" stroke="black" points="454.2,-318 448.2,-318 "/>
<text text-anchor="middle" x="426.38" y="-302.4" font-family="Source Code Pro,monospace" font-size="12.00">numeric</text>
</a>
</g>
</g>
<!-- numeric&#45;&gt;realnumeric -->
<g id="edge7" class="edge">
<title>numeric&#45;&gt;realnumeric</title>
<path fill="none" stroke="black" d="M398.57,-292.02C395.48,-290.64 392.37,-289.27 389.38,-288 360.21,-275.58 327.07,-262.56 300.93,-252.53"/>
<polygon fill="black" stroke="black" points="301.87,-249.14 291.28,-248.84 299.37,-255.68 301.87,-249.14"/>
</g>
<!-- convertabletointeger&#45;&gt;realnumeric -->
<g id="edge8" class="edge">
<title>convertabletointeger&#45;&gt;realnumeric</title>
<path fill="none" stroke="black" d="M120.68,-287.88C147.11,-277.42 180.9,-264.06 207.89,-253.38"/>
<polygon fill="black" stroke="black" points="209.49,-256.51 217.51,-249.58 206.92,-250 209.49,-256.51"/>
</g>
<!-- convertabletointegral&#45;&gt;realnumeric -->
<g id="edge9" class="edge">
<title>convertabletointegral&#45;&gt;realnumeric</title>
<path fill="none" stroke="black" d="M222.01,-287.7C227.01,-279.56 233.07,-269.69 238.59,-260.7"/>
<polygon fill="black" stroke="black" points="241.62,-262.46 243.87,-252.1 235.65,-258.79 241.62,-262.46"/>
</g>
<!-- convertabletorational&#45;&gt;realnumeric -->
<g id="edge10" class="edge">
<title>convertabletorational&#45;&gt;realnumeric</title>
<path fill="none" stroke="black" d="M272.58,-359.8C278.23,-341.77 284.91,-312.69 279.38,-288 277.36,-279.01 273.65,-269.75 269.68,-261.53"/>
<polygon fill="black" stroke="black" points="272.69,-259.73 265,-252.44 266.47,-262.94 272.69,-259.73"/>
</g>
<!-- scalar&#45;&gt;realnumeric -->
<g id="edge11" class="edge">
<title>scalar&#45;&gt;realnumeric</title>
<path fill="none" stroke="black" d="M329.16,-287.88C316.45,-278.89 300.71,-267.76 286.95,-258.03"/>
<polygon fill="black" stroke="black" points="288.87,-255.11 278.69,-252.19 284.83,-260.82 288.87,-255.11"/>
</g>
<!-- arithmetic -->
<g id="node13" class="node">
<title>arithmetic</title>
<g id="a_node13"><a xlink:href="PsyllaReference_Types.xhtml#PsyllaReference_Types_Details_arithmetic" xlink:title="arithmetic" target="_parent">
<polygon fill="linen" stroke="black" points="511.53,-396 453.23,-396 453.23,-360 517.53,-360 517.53,-390 511.53,-396"/>
<polyline fill="none" stroke="black" points="511.53,-396 511.53,-390 "/>
<polyline fill="none" stroke="black" points="517.53,-390 511.53,-390 "/>
<text text-anchor="middle" x="485.38" y="-374.4" font-family="Source Code Pro,monospace" font-size="12.00">arithmetic</text>
</a>
</g>
</g>
<!-- arithmetic&#45;&gt;numeric -->
<g id="edge12" class="edge">
<title>arithmetic&#45;&gt;numeric</title>
<path fill="none" stroke="black" d="M470.79,-359.7C463.72,-351.3 455.09,-341.07 447.33,-331.86"/>
<polygon fill="black" stroke="black" points="449.91,-329.49 440.79,-324.1 444.56,-334.01 449.91,-329.49"/>
</g>
<!-- value&#45;&gt;numeric -->
<g id="edge13" class="edge">
<title>value&#45;&gt;numeric</title>
<path fill="none" stroke="black" d="M412.83,-359.7C414.83,-351.9 417.25,-342.51 419.48,-333.83"/>
<polygon fill="black" stroke="black" points="422.88,-334.66 421.98,-324.1 416.1,-332.92 422.88,-334.66"/>
</g>
<!-- additive&#45;&gt;arithmetic -->
<g id="edge18" class="edge">
<title>additive&#45;&gt;arithmetic</title>
<path fill="none" stroke="black" d="M456.02,-431.7C460.5,-423.64 465.94,-413.89 470.9,-404.98"/>
<polygon fill="black" stroke="black" points="474.04,-406.54 475.85,-396.1 467.92,-403.14 474.04,-406.54"/>
</g>
<!-- multiplicative&#45;&gt;arithmetic -->
<g id="edge19" class="edge">
<title>multiplicative&#45;&gt;arithmetic</title>
<path fill="none" stroke="black" d="M521.51,-431.7C515.87,-423.47 509.02,-413.48 502.81,-404.42"/>
<polygon fill="black" stroke="black" points="505.65,-402.37 497.11,-396.1 499.87,-406.33 505.65,-402.37"/>
</g>
</g>
</svg>
