<?xml version="1.0" encoding="UTF-8" standalone="no"?>
<!DOCTYPE svg PUBLIC "-//W3C//DTD SVG 1.1//EN"
 "http://www.w3.org/Graphics/SVG/1.1/DTD/svg11.dtd">
<!-- Generated by graphviz version 2.43.0 (0)
 -->
<!-- Title: realnumeric Pages: 1 -->
<svg width="303pt" height="332pt"
 viewBox="0.00 0.00 303.00 332.00" xmlns="http://www.w3.org/2000/svg" xmlns:xlink="http://www.w3.org/1999/xlink">
<g id="graph0" class="graph" transform="scale(1 1) rotate(0) translate(4 328)">
<title>realnumeric</title>
<polygon fill="transparent" stroke="transparent" points="-4,4 -4,-328 299,-328 299,4 -4,4"/>
<!-- numeric -->
<g id="node1" class="node">
<title>numeric</title>
<g id="a_node1"><a xlink:href="PsyllaReference_Types.xhtml#PsyllaReference_Types_Details_numeric" xlink:title="numeric" target="_parent">
<polygon fill="linen" stroke="black" points="168,-108 73,-108 73,-72 174,-72 174,-102 168,-108"/>
<polyline fill="none" stroke="black" points="168,-108 168,-102 "/>
<polyline fill="none" stroke="black" points="174,-102 168,-102 "/>
<text text-anchor="middle" x="123.5" y="-85" font-family="PT Mono, monospace" font-size="20.00">numeric</text>
</a>
</g>
</g>
<!-- realnumeric -->
<g id="node3" class="node">
<title>realnumeric</title>
<g id="a_node3"><a xlink:href="PsyllaReference_Types.xhtml#PsyllaReference_Types_Details_realnumeric" xlink:title="realnumeric" target="_parent">
<polygon fill="wheat" stroke="black" points="152,-36 9,-36 9,0 158,0 158,-30 152,-36"/>
<polyline fill="none" stroke="black" points="152,-36 152,-30 "/>
<polyline fill="none" stroke="black" points="158,-30 152,-30 "/>
<text text-anchor="middle" x="83.5" y="-13" font-family="PT Mono, monospace" font-size="20.00">realnumeric</text>
</a>
</g>
</g>
<!-- numeric&#45;&gt;realnumeric -->
<g id="edge1" class="edge">
<title>numeric&#45;&gt;realnumeric</title>
<path fill="none" stroke="black" d="M113.61,-71.7C109.01,-63.64 103.44,-53.89 98.35,-44.98"/>
<polygon fill="black" stroke="black" points="101.27,-43.05 93.27,-36.1 95.2,-46.52 101.27,-43.05"/>
</g>
<!-- scalar -->
<g id="node2" class="node">
<title>scalar</title>
<g id="a_node2"><a xlink:href="PsyllaReference_Types.xhtml#PsyllaReference_Types_Details_scalar" xlink:title="scalar" target="_parent">
<polygon fill="linen" stroke="black" points="83,-180 0,-180 0,-144 89,-144 89,-174 83,-180"/>
<polyline fill="none" stroke="black" points="83,-180 83,-174 "/>
<polyline fill="none" stroke="black" points="89,-174 83,-174 "/>
<text text-anchor="middle" x="44.5" y="-157" font-family="PT Mono, monospace" font-size="20.00">scalar</text>
</a>
</g>
</g>
<!-- scalar&#45;&gt;realnumeric -->
<g id="edge2" class="edge">
<title>scalar&#45;&gt;realnumeric</title>
<path fill="none" stroke="black" d="M47.39,-143.75C50.6,-125.68 56.29,-96.56 63.5,-72 66.02,-63.41 69.28,-54.23 72.43,-45.97"/>
<polygon fill="black" stroke="black" points="75.77,-47.03 76.16,-36.44 69.25,-44.48 75.77,-47.03"/>
</g>
<!-- atomic -->
<g id="node4" class="node">
<title>atomic</title>
<g id="a_node4"><a xlink:href="PsyllaReference_Types.xhtml#PsyllaReference_Types_Details_atomic" xlink:title="atomic" target="_parent">
<polygon fill="linen" stroke="black" points="156,-252 73,-252 73,-216 162,-216 162,-246 156,-252"/>
<polyline fill="none" stroke="black" points="156,-252 156,-246 "/>
<polyline fill="none" stroke="black" points="162,-246 156,-246 "/>
<text text-anchor="middle" x="117.5" y="-229" font-family="PT Mono, monospace" font-size="20.00">atomic</text>
</a>
</g>
</g>
<!-- atomic&#45;&gt;numeric -->
<g id="edge3" class="edge">
<title>atomic&#45;&gt;numeric</title>
<path fill="none" stroke="black" d="M118.22,-215.87C119.25,-191.67 121.12,-147.21 122.34,-118.39"/>
<polygon fill="black" stroke="black" points="125.85,-118.33 122.77,-108.19 118.85,-118.03 125.85,-118.33"/>
</g>
<!-- arithmetic -->
<g id="node5" class="node">
<title>arithmetic</title>
<g id="a_node5"><a xlink:href="PsyllaReference_Types.xhtml#PsyllaReference_Types_Details_arithmetic" xlink:title="arithmetic" target="_parent">
<polygon fill="linen" stroke="black" points="289,-180 158,-180 158,-144 295,-144 295,-174 289,-180"/>
<polyline fill="none" stroke="black" points="289,-180 289,-174 "/>
<polyline fill="none" stroke="black" points="295,-174 289,-174 "/>
<text text-anchor="middle" x="226.5" y="-157" font-family="PT Mono, monospace" font-size="20.00">arithmetic</text>
</a>
</g>
</g>
<!-- arithmetic&#45;&gt;numeric -->
<g id="edge4" class="edge">
<title>arithmetic&#45;&gt;numeric</title>
<path fill="none" stroke="black" d="M201.3,-143.88C188.09,-134.89 171.71,-123.76 157.39,-114.03"/>
<polygon fill="black" stroke="black" points="159.03,-110.92 148.79,-108.19 155.1,-116.71 159.03,-110.92"/>
</g>
<!-- object -->
<g id="node6" class="node">
<title>object</title>
<g id="a_node6"><a xlink:href="PsyllaReference_Types.xhtml#PsyllaReference_Types_Details_object" xlink:title="object" target="_parent">
<polygon fill="linen" stroke="black" points="156,-324 73,-324 73,-288 162,-288 162,-318 156,-324"/>
<polyline fill="none" stroke="black" points="156,-324 156,-318 "/>
<polyline fill="none" stroke="black" points="162,-318 156,-318 "/>
<text text-anchor="middle" x="117.5" y="-301" font-family="PT Mono, monospace" font-size="20.00">object</text>
</a>
</g>
</g>
<!-- object&#45;&gt;scalar -->
<g id="edge5" class="edge">
<title>object&#45;&gt;scalar</title>
<path fill="none" stroke="black" d="M94.67,-287.95C83.64,-278.53 71.16,-265.93 63.5,-252 53,-232.9 48.3,-208.55 46.2,-190.14"/>
<polygon fill="black" stroke="black" points="49.67,-189.7 45.24,-180.08 42.7,-190.37 49.67,-189.7"/>
</g>
<!-- object&#45;&gt;atomic -->
<g id="edge6" class="edge">
<title>object&#45;&gt;atomic</title>
<path fill="none" stroke="black" d="M117.5,-287.7C117.5,-279.98 117.5,-270.71 117.5,-262.11"/>
<polygon fill="black" stroke="black" points="121,-262.1 117.5,-252.1 114,-262.1 121,-262.1"/>
</g>
<!-- additive -->
<g id="node7" class="node">
<title>additive</title>
<g id="a_node7"><a xlink:href="PsyllaReference_Types.xhtml#PsyllaReference_Types_Details_additive" xlink:title="additive" target="_parent">
<polygon fill="linen" stroke="black" points="287,-252 180,-252 180,-216 293,-216 293,-246 287,-252"/>
<polyline fill="none" stroke="black" points="287,-252 287,-246 "/>
<polyline fill="none" stroke="black" points="293,-246 287,-246 "/>
<text text-anchor="middle" x="236.5" y="-229" font-family="PT Mono, monospace" font-size="20.00">additive</text>
</a>
</g>
</g>
<!-- object&#45;&gt;additive -->
<g id="edge8" class="edge">
<title>object&#45;&gt;additive</title>
<path fill="none" stroke="black" d="M146.61,-287.88C162.17,-278.72 181.52,-267.34 198.28,-257.48"/>
<polygon fill="black" stroke="black" points="200.43,-260.28 207.28,-252.19 196.88,-254.24 200.43,-260.28"/>
</g>
<!-- additive&#45;&gt;arithmetic -->
<g id="edge7" class="edge">
<title>additive&#45;&gt;arithmetic</title>
<path fill="none" stroke="black" d="M234.03,-215.7C232.93,-207.98 231.6,-198.71 230.37,-190.11"/>
<polygon fill="black" stroke="black" points="233.82,-189.51 228.94,-180.1 226.89,-190.5 233.82,-189.51"/>
</g>
</g>
</svg>
