<?xml version="1.0" encoding="UTF-8" standalone="no"?>
<!DOCTYPE svg PUBLIC "-//W3C//DTD SVG 1.1//EN"
 "http://www.w3.org/Graphics/SVG/1.1/DTD/svg11.dtd">
<!-- Generated by graphviz version 2.43.0 (0)
 -->
<!-- Title: arithmetic Pages: 1 -->
<svg width="226pt" height="188pt"
 viewBox="0.00 0.00 225.50 188.00" xmlns="http://www.w3.org/2000/svg" xmlns:xlink="http://www.w3.org/1999/xlink">
<g id="graph0" class="graph" transform="scale(1 1) rotate(0) translate(4 184)">
<title>arithmetic</title>
<polygon fill="transparent" stroke="transparent" points="-4,4 -4,-184 221.5,-184 221.5,4 -4,4"/>
<!-- additive -->
<g id="node1" class="node">
<title>additive</title>
<g id="a_node1"><a xlink:href="PsyllaReference_Types.xhtml#PsyllaReference_Types_Details_additive" xlink:title="additive" target="_parent">
<polygon fill="linen" stroke="black" points="71,-108 0,-108 0,-72 77,-72 77,-102 71,-108"/>
<polyline fill="none" stroke="black" points="71,-108 71,-102 "/>
<polyline fill="none" stroke="black" points="77,-102 71,-102 "/>
<text text-anchor="middle" x="38.5" y="-86.9" font-family="Source Code Pro,monospace" font-size="12.00">additive</text>
</a>
</g>
</g>
<!-- arithmetic -->
<g id="node3" class="node">
<title>arithmetic</title>
<g id="a_node3"><a xlink:href="PsyllaReference_Types.xhtml#PsyllaReference_Types_Details_arithmetic" xlink:title="arithmetic" target="_parent">
<polygon fill="wheat" stroke="black" points="137.5,-36 51.5,-36 51.5,0 143.5,0 143.5,-30 137.5,-36"/>
<polyline fill="none" stroke="black" points="137.5,-36 137.5,-30 "/>
<polyline fill="none" stroke="black" points="143.5,-30 137.5,-30 "/>
<text text-anchor="middle" x="97.5" y="-14.9" font-family="Source Code Pro,monospace" font-size="12.00">arithmetic</text>
</a>
</g>
</g>
<!-- additive&#45;&gt;arithmetic -->
<g id="edge1" class="edge">
<title>additive&#45;&gt;arithmetic</title>
<path fill="none" stroke="black" d="M53.08,-71.7C60.16,-63.3 68.78,-53.07 76.55,-43.86"/>
<polygon fill="black" stroke="black" points="79.31,-46.01 83.08,-36.1 73.96,-41.49 79.31,-46.01"/>
</g>
<!-- multiplicative -->
<g id="node2" class="node">
<title>multiplicative</title>
<g id="a_node2"><a xlink:href="PsyllaReference_Types.xhtml#PsyllaReference_Types_Details_multiplicative" xlink:title="multiplicative" target="_parent">
<polygon fill="linen" stroke="black" points="211.5,-108 95.5,-108 95.5,-72 217.5,-72 217.5,-102 211.5,-108"/>
<polyline fill="none" stroke="black" points="211.5,-108 211.5,-102 "/>
<polyline fill="none" stroke="black" points="217.5,-102 211.5,-102 "/>
<text text-anchor="middle" x="156.5" y="-86.9" font-family="Source Code Pro,monospace" font-size="12.00">multiplicative</text>
</a>
</g>
</g>
<!-- multiplicative&#45;&gt;arithmetic -->
<g id="edge2" class="edge">
<title>multiplicative&#45;&gt;arithmetic</title>
<path fill="none" stroke="black" d="M141.92,-71.7C134.84,-63.3 126.22,-53.07 118.45,-43.86"/>
<polygon fill="black" stroke="black" points="121.04,-41.49 111.92,-36.1 115.69,-46.01 121.04,-41.49"/>
</g>
<!-- object -->
<g id="node4" class="node">
<title>object</title>
<g id="a_node4"><a xlink:href="PsyllaReference_Types.xhtml#PsyllaReference_Types_Details_object" xlink:title="object" target="_parent">
<polygon fill="linen" stroke="black" points="122.5,-180 66.5,-180 66.5,-144 128.5,-144 128.5,-174 122.5,-180"/>
<polyline fill="none" stroke="black" points="122.5,-180 122.5,-174 "/>
<polyline fill="none" stroke="black" points="128.5,-174 122.5,-174 "/>
<text text-anchor="middle" x="97.5" y="-158.9" font-family="Source Code Pro,monospace" font-size="12.00">object</text>
</a>
</g>
</g>
<!-- object&#45;&gt;additive -->
<g id="edge3" class="edge">
<title>object&#45;&gt;additive</title>
<path fill="none" stroke="black" d="M82.92,-143.7C75.84,-135.3 67.22,-125.07 59.45,-115.86"/>
<polygon fill="black" stroke="black" points="62.04,-113.49 52.92,-108.1 56.69,-118.01 62.04,-113.49"/>
</g>
<!-- object&#45;&gt;multiplicative -->
<g id="edge4" class="edge">
<title>object&#45;&gt;multiplicative</title>
<path fill="none" stroke="black" d="M112.08,-143.7C119.16,-135.3 127.78,-125.07 135.55,-115.86"/>
<polygon fill="black" stroke="black" points="138.31,-118.01 142.08,-108.1 132.96,-113.49 138.31,-118.01"/>
</g>
</g>
</svg>
