<?xml version="1.0" encoding="UTF-8" standalone="no"?>
<!DOCTYPE svg PUBLIC "-//W3C//DTD SVG 1.1//EN"
 "http://www.w3.org/Graphics/SVG/1.1/DTD/svg11.dtd">
<!-- Generated by graphviz version 2.43.0 (0)
 -->
<!-- Title: input Pages: 1 -->
<svg width="392pt" height="260pt"
 viewBox="0.00 0.00 392.00 260.00" xmlns="http://www.w3.org/2000/svg" xmlns:xlink="http://www.w3.org/1999/xlink">
<g id="graph0" class="graph" transform="scale(1 1) rotate(0) translate(4 256)">
<title>input</title>
<polygon fill="transparent" stroke="transparent" points="-4,4 -4,-256 388,-256 388,4 -4,4"/>
<!-- closeable -->
<g id="node1" class="node">
<title>closeable</title>
<g id="a_node1"><a xlink:href="PsyllaReference_Types.xhtml#PsyllaReference_Types_Details_closeable" xlink:title="closeable" target="_parent">
<polygon fill="linen" stroke="black" points="119,-108 0,-108 0,-72 125,-72 125,-102 119,-108"/>
<polyline fill="none" stroke="black" points="119,-108 119,-102 "/>
<polyline fill="none" stroke="black" points="125,-102 119,-102 "/>
<text text-anchor="middle" x="62.5" y="-85" font-family="PT Mono, monospace" font-size="20.00">closeable</text>
</a>
</g>
</g>
<!-- input -->
<g id="node5" class="node">
<title>input</title>
<g id="a_node5"><a xlink:href="PsyllaReference_Types.xhtml#PsyllaReference_Types_Details_input" xlink:title="input" target="_parent">
<polygon fill="wheat" stroke="black" points="274,-36 203,-36 203,0 280,0 280,-30 274,-36"/>
<polyline fill="none" stroke="black" points="274,-36 274,-30 "/>
<polyline fill="none" stroke="black" points="280,-30 274,-30 "/>
<text text-anchor="middle" x="241.5" y="-13" font-family="PT Mono, monospace" font-size="20.00">input</text>
</a>
</g>
</g>
<!-- closeable&#45;&gt;input -->
<g id="edge1" class="edge">
<title>closeable&#45;&gt;input</title>
<path fill="none" stroke="black" d="M106.29,-71.88C132.56,-61.6 166.01,-48.52 193.07,-37.94"/>
<polygon fill="black" stroke="black" points="194.69,-41.06 202.73,-34.16 192.14,-34.54 194.69,-41.06"/>
</g>
<!-- readable -->
<g id="node2" class="node">
<title>readable</title>
<g id="a_node2"><a xlink:href="PsyllaReference_Types.xhtml#PsyllaReference_Types_Details_readable" xlink:title="readable" target="_parent">
<polygon fill="linen" stroke="black" points="250,-108 143,-108 143,-72 256,-72 256,-102 250,-108"/>
<polyline fill="none" stroke="black" points="250,-108 250,-102 "/>
<polyline fill="none" stroke="black" points="256,-102 250,-102 "/>
<text text-anchor="middle" x="199.5" y="-85" font-family="PT Mono, monospace" font-size="20.00">readable</text>
</a>
</g>
</g>
<!-- readable&#45;&gt;input -->
<g id="edge2" class="edge">
<title>readable&#45;&gt;input</title>
<path fill="none" stroke="black" d="M209.88,-71.7C214.76,-63.56 220.69,-53.69 226.08,-44.7"/>
<polygon fill="black" stroke="black" points="229.09,-46.48 231.24,-36.1 223.09,-42.88 229.09,-46.48"/>
</g>
<!-- ready -->
<g id="node3" class="node">
<title>ready</title>
<g id="a_node3"><a xlink:href="PsyllaReference_Types.xhtml#PsyllaReference_Types_Details_ready" xlink:title="ready" target="_parent">
<polygon fill="linen" stroke="black" points="233,-180 162,-180 162,-144 239,-144 239,-174 233,-180"/>
<polyline fill="none" stroke="black" points="233,-180 233,-174 "/>
<polyline fill="none" stroke="black" points="239,-174 233,-174 "/>
<text text-anchor="middle" x="200.5" y="-157" font-family="PT Mono, monospace" font-size="20.00">ready</text>
</a>
</g>
</g>
<!-- ready&#45;&gt;readable -->
<g id="edge6" class="edge">
<title>ready&#45;&gt;readable</title>
<path fill="none" stroke="black" d="M200.25,-143.7C200.14,-135.98 200.01,-126.71 199.89,-118.11"/>
<polygon fill="black" stroke="black" points="203.39,-118.05 199.74,-108.1 196.39,-118.15 203.39,-118.05"/>
</g>
<!-- ready&#45;&gt;input -->
<g id="edge3" class="edge">
<title>ready&#45;&gt;input</title>
<path fill="none" stroke="black" d="M231.27,-143.91C244.04,-135.02 257.5,-122.88 264.5,-108 273.98,-87.83 266.28,-63.18 257.31,-44.94"/>
<polygon fill="black" stroke="black" points="260.37,-43.24 252.59,-36.04 254.19,-46.52 260.37,-43.24"/>
</g>
<!-- resetable -->
<g id="node4" class="node">
<title>resetable</title>
<g id="a_node4"><a xlink:href="PsyllaReference_Types.xhtml#PsyllaReference_Types_Details_resetable" xlink:title="resetable" target="_parent">
<polygon fill="linen" stroke="black" points="378,-180 259,-180 259,-144 384,-144 384,-174 378,-180"/>
<polyline fill="none" stroke="black" points="378,-180 378,-174 "/>
<polyline fill="none" stroke="black" points="384,-174 378,-174 "/>
<text text-anchor="middle" x="321.5" y="-157" font-family="PT Mono, monospace" font-size="20.00">resetable</text>
</a>
</g>
</g>
<!-- resetable&#45;&gt;input -->
<g id="edge4" class="edge">
<title>resetable&#45;&gt;input</title>
<path fill="none" stroke="black" d="M315.07,-143.7C307.94,-125.35 295.56,-95.76 281.5,-72 275.95,-62.63 269.05,-52.95 262.55,-44.47"/>
<polygon fill="black" stroke="black" points="265.18,-42.15 256.25,-36.45 259.67,-46.48 265.18,-42.15"/>
</g>
<!-- object -->
<g id="node6" class="node">
<title>object</title>
<g id="a_node6"><a xlink:href="PsyllaReference_Types.xhtml#PsyllaReference_Types_Details_object" xlink:title="object" target="_parent">
<polygon fill="linen" stroke="black" points="239,-252 156,-252 156,-216 245,-216 245,-246 239,-252"/>
<polyline fill="none" stroke="black" points="239,-252 239,-246 "/>
<polyline fill="none" stroke="black" points="245,-246 239,-246 "/>
<text text-anchor="middle" x="200.5" y="-229" font-family="PT Mono, monospace" font-size="20.00">object</text>
</a>
</g>
</g>
<!-- object&#45;&gt;closeable -->
<g id="edge5" class="edge">
<title>object&#45;&gt;closeable</title>
<path fill="none" stroke="black" d="M183.85,-215.87C159.51,-190.82 114.06,-144.05 86.22,-115.41"/>
<polygon fill="black" stroke="black" points="88.68,-112.92 79.21,-108.19 83.66,-117.8 88.68,-112.92"/>
</g>
<!-- object&#45;&gt;ready -->
<g id="edge7" class="edge">
<title>object&#45;&gt;ready</title>
<path fill="none" stroke="black" d="M200.5,-215.7C200.5,-207.98 200.5,-198.71 200.5,-190.11"/>
<polygon fill="black" stroke="black" points="204,-190.1 200.5,-180.1 197,-190.1 204,-190.1"/>
</g>
<!-- object&#45;&gt;resetable -->
<g id="edge8" class="edge">
<title>object&#45;&gt;resetable</title>
<path fill="none" stroke="black" d="M230.1,-215.88C246.07,-206.64 265.96,-195.13 283.11,-185.21"/>
<polygon fill="black" stroke="black" points="284.88,-188.23 291.79,-180.19 281.38,-182.17 284.88,-188.23"/>
</g>
</g>
</svg>
