<?xml version="1.0" encoding="UTF-8" standalone="no"?>
<!DOCTYPE svg PUBLIC "-//W3C//DTD SVG 1.1//EN"
 "http://www.w3.org/Graphics/SVG/1.1/DTD/svg11.dtd">
<!-- Generated by graphviz version 2.49.3 (0)
 -->
<!-- Title: evaluable Pages: 1 -->
<svg width="70pt" height="116pt"
 viewBox="0.00 0.00 69.98 116.00" xmlns="http://www.w3.org/2000/svg" xmlns:xlink="http://www.w3.org/1999/xlink">
<g id="graph0" class="graph" transform="scale(1 1) rotate(0) translate(4 112)">
<title>evaluable</title>
<polygon fill="transparent" stroke="transparent" points="-4,4 -4,-112 65.98,-112 65.98,4 -4,4"/>
<!-- object -->
<g id="node1" class="node">
<title>object</title>
<g id="a_node1"><a xlink:href="PsyllaReference_Types.xhtml#PsyllaReference_Types_Details_object" xlink:title="object" target="_parent">
<polygon fill="linen" stroke="black" points="51.99,-108 3.99,-108 3.99,-72 57.99,-72 57.99,-102 51.99,-108"/>
<polyline fill="none" stroke="black" points="51.99,-108 51.99,-102 "/>
<polyline fill="none" stroke="black" points="57.99,-102 51.99,-102 "/>
<text text-anchor="middle" x="30.99" y="-86.4" font-family="Source Code Pro,monospace" font-size="12.00">object</text>
</a>
</g>
</g>
<!-- evaluable -->
<g id="node2" class="node">
<title>evaluable</title>
<g id="a_node2"><a xlink:href="PsyllaReference_Types.xhtml#PsyllaReference_Types_Details_evaluable" xlink:title="evaluable" target="_parent">
<polygon fill="wheat" stroke="black" points="55.97,-36 0.01,-36 0.01,0 61.97,0 61.97,-30 55.97,-36"/>
<polyline fill="none" stroke="black" points="55.97,-36 55.97,-30 "/>
<polyline fill="none" stroke="black" points="61.97,-30 55.97,-30 "/>
<text text-anchor="middle" x="30.99" y="-14.4" font-family="Source Code Pro,monospace" font-size="12.00">evaluable</text>
</a>
</g>
</g>
<!-- object&#45;&gt;evaluable -->
<g id="edge1" class="edge">
<title>object&#45;&gt;evaluable</title>
<path fill="none" stroke="black" d="M30.99,-71.7C30.99,-63.98 30.99,-54.71 30.99,-46.11"/>
<polygon fill="black" stroke="black" points="34.49,-46.1 30.99,-36.1 27.49,-46.1 34.49,-46.1"/>
</g>
</g>
</svg>
