<?xml version="1.0" encoding="UTF-8" standalone="no"?>
<!DOCTYPE svg PUBLIC "-//W3C//DTD SVG 1.1//EN"
 "http://www.w3.org/Graphics/SVG/1.1/DTD/svg11.dtd">
<!-- Generated by graphviz version 2.43.0 (0)
 -->
<!-- Title: boolean Pages: 1 -->
<svg width="250pt" height="188pt"
 viewBox="0.00 0.00 250.00 188.00" xmlns="http://www.w3.org/2000/svg" xmlns:xlink="http://www.w3.org/1999/xlink">
<g id="graph0" class="graph" transform="scale(1 1) rotate(0) translate(4 184)">
<title>boolean</title>
<polygon fill="transparent" stroke="transparent" points="-4,4 -4,-184 246,-184 246,4 -4,4"/>
<!-- atomic -->
<g id="node1" class="node">
<title>atomic</title>
<g id="a_node1"><a xlink:href="PsyllaReference_Types.xhtml#PsyllaReference_Types_Details_atomic" xlink:title="atomic" target="_parent">
<polygon fill="linen" stroke="black" points="60,-108 0,-108 0,-72 66,-72 66,-102 60,-108"/>
<polyline fill="none" stroke="black" points="60,-108 60,-102 "/>
<polyline fill="none" stroke="black" points="66,-102 60,-102 "/>
<text text-anchor="middle" x="33" y="-86.3" font-family="Consolas, monospace" font-size="14.00">atomic</text>
</a>
</g>
</g>
<!-- boolean -->
<g id="node4" class="node">
<title>boolean</title>
<g id="a_node4"><a xlink:href="PsyllaReference_Types.xhtml#PsyllaReference_Types_Details_boolean" xlink:title="boolean" target="_parent">
<polygon fill="wheat" stroke="black" points="148,-36 80,-36 80,0 154,0 154,-30 148,-36"/>
<polyline fill="none" stroke="black" points="148,-36 148,-30 "/>
<polyline fill="none" stroke="black" points="154,-30 148,-30 "/>
<text text-anchor="middle" x="117" y="-14.3" font-family="Consolas, monospace" font-size="14.00">boolean</text>
</a>
</g>
</g>
<!-- atomic&#45;&gt;boolean -->
<g id="edge1" class="edge">
<title>atomic&#45;&gt;boolean</title>
<path fill="none" stroke="black" d="M53.76,-71.7C64.24,-62.97 77.11,-52.24 88.5,-42.75"/>
<polygon fill="black" stroke="black" points="91.03,-45.19 96.47,-36.1 86.55,-39.82 91.03,-45.19"/>
</g>
<!-- scalar -->
<g id="node2" class="node">
<title>scalar</title>
<g id="a_node2"><a xlink:href="PsyllaReference_Types.xhtml#PsyllaReference_Types_Details_scalar" xlink:title="scalar" target="_parent">
<polygon fill="linen" stroke="black" points="144,-108 84,-108 84,-72 150,-72 150,-102 144,-108"/>
<polyline fill="none" stroke="black" points="144,-108 144,-102 "/>
<polyline fill="none" stroke="black" points="150,-102 144,-102 "/>
<text text-anchor="middle" x="117" y="-86.3" font-family="Consolas, monospace" font-size="14.00">scalar</text>
</a>
</g>
</g>
<!-- scalar&#45;&gt;boolean -->
<g id="edge2" class="edge">
<title>scalar&#45;&gt;boolean</title>
<path fill="none" stroke="black" d="M117,-71.7C117,-63.98 117,-54.71 117,-46.11"/>
<polygon fill="black" stroke="black" points="120.5,-46.1 117,-36.1 113.5,-46.1 120.5,-46.1"/>
</g>
<!-- logical -->
<g id="node3" class="node">
<title>logical</title>
<g id="a_node3"><a xlink:href="PsyllaReference_Types.xhtml#PsyllaReference_Types_Details_logical" xlink:title="logical" target="_parent">
<polygon fill="linen" stroke="black" points="236,-108 168,-108 168,-72 242,-72 242,-102 236,-108"/>
<polyline fill="none" stroke="black" points="236,-108 236,-102 "/>
<polyline fill="none" stroke="black" points="242,-102 236,-102 "/>
<text text-anchor="middle" x="205" y="-86.3" font-family="Consolas, monospace" font-size="14.00">logical</text>
</a>
</g>
</g>
<!-- logical&#45;&gt;boolean -->
<g id="edge3" class="edge">
<title>logical&#45;&gt;boolean</title>
<path fill="none" stroke="black" d="M183.25,-71.7C172.16,-62.88 158.53,-52.03 146.51,-42.47"/>
<polygon fill="black" stroke="black" points="148.51,-39.59 138.5,-36.1 144.15,-45.07 148.51,-39.59"/>
</g>
<!-- object -->
<g id="node5" class="node">
<title>object</title>
<g id="a_node5"><a xlink:href="PsyllaReference_Types.xhtml#PsyllaReference_Types_Details_object" xlink:title="object" target="_parent">
<polygon fill="linen" stroke="black" points="144,-180 84,-180 84,-144 150,-144 150,-174 144,-180"/>
<polyline fill="none" stroke="black" points="144,-180 144,-174 "/>
<polyline fill="none" stroke="black" points="150,-174 144,-174 "/>
<text text-anchor="middle" x="117" y="-158.3" font-family="Consolas, monospace" font-size="14.00">object</text>
</a>
</g>
</g>
<!-- object&#45;&gt;atomic -->
<g id="edge4" class="edge">
<title>object&#45;&gt;atomic</title>
<path fill="none" stroke="black" d="M96.24,-143.7C85.76,-134.97 72.89,-124.24 61.5,-114.75"/>
<polygon fill="black" stroke="black" points="63.45,-111.82 53.53,-108.1 58.97,-117.19 63.45,-111.82"/>
</g>
<!-- object&#45;&gt;scalar -->
<g id="edge5" class="edge">
<title>object&#45;&gt;scalar</title>
<path fill="none" stroke="black" d="M117,-143.7C117,-135.98 117,-126.71 117,-118.11"/>
<polygon fill="black" stroke="black" points="120.5,-118.1 117,-108.1 113.5,-118.1 120.5,-118.1"/>
</g>
<!-- object&#45;&gt;logical -->
<g id="edge6" class="edge">
<title>object&#45;&gt;logical</title>
<path fill="none" stroke="black" d="M138.75,-143.7C149.84,-134.88 163.47,-124.03 175.49,-114.47"/>
<polygon fill="black" stroke="black" points="177.85,-117.07 183.5,-108.1 173.49,-111.59 177.85,-117.07"/>
</g>
</g>
</svg>
