<?xml version="1.0" encoding="UTF-8" standalone="no"?>
<!DOCTYPE svg PUBLIC "-//W3C//DTD SVG 1.1//EN"
 "http://www.w3.org/Graphics/SVG/1.1/DTD/svg11.dtd">
<!-- Generated by graphviz version 2.43.0 (0)
 -->
<!-- Title: input Pages: 1 -->
<svg width="291pt" height="260pt"
 viewBox="0.00 0.00 291.00 260.00" xmlns="http://www.w3.org/2000/svg" xmlns:xlink="http://www.w3.org/1999/xlink">
<g id="graph0" class="graph" transform="scale(1 1) rotate(0) translate(4 256)">
<title>input</title>
<polygon fill="transparent" stroke="transparent" points="-4,4 -4,-256 287,-256 287,4 -4,4"/>
<!-- closeable -->
<g id="node1" class="node">
<title>closeable</title>
<g id="a_node1"><a xlink:href="PsyllaReference_Types.xhtml#PsyllaReference_Types_Details_closeable" xlink:title="closeable" target="_parent">
<polygon fill="linen" stroke="black" points="78,-108 0,-108 0,-72 84,-72 84,-102 78,-108"/>
<polyline fill="none" stroke="black" points="78,-108 78,-102 "/>
<polyline fill="none" stroke="black" points="84,-102 78,-102 "/>
<text text-anchor="middle" x="42" y="-86.9" font-family="Source Code Pro,monospace" font-size="12.00">closeable</text>
</a>
</g>
</g>
<!-- input -->
<g id="node5" class="node">
<title>input</title>
<g id="a_node5"><a xlink:href="PsyllaReference_Types.xhtml#PsyllaReference_Types_Details_input" xlink:title="input" target="_parent">
<polygon fill="wheat" stroke="black" points="195,-36 147,-36 147,0 201,0 201,-30 195,-36"/>
<polyline fill="none" stroke="black" points="195,-36 195,-30 "/>
<polyline fill="none" stroke="black" points="201,-30 195,-30 "/>
<text text-anchor="middle" x="174" y="-14.9" font-family="Source Code Pro,monospace" font-size="12.00">input</text>
</a>
</g>
</g>
<!-- closeable&#45;&gt;input -->
<g id="edge1" class="edge">
<title>closeable&#45;&gt;input</title>
<path fill="none" stroke="black" d="M74.29,-71.88C93.53,-61.67 117.99,-48.7 137.88,-38.16"/>
<polygon fill="black" stroke="black" points="139.74,-41.13 146.94,-33.35 136.46,-34.94 139.74,-41.13"/>
</g>
<!-- readable -->
<g id="node2" class="node">
<title>readable</title>
<g id="a_node2"><a xlink:href="PsyllaReference_Types.xhtml#PsyllaReference_Types_Details_readable" xlink:title="readable" target="_parent">
<polygon fill="linen" stroke="black" points="173.5,-108 102.5,-108 102.5,-72 179.5,-72 179.5,-102 173.5,-108"/>
<polyline fill="none" stroke="black" points="173.5,-108 173.5,-102 "/>
<polyline fill="none" stroke="black" points="179.5,-102 173.5,-102 "/>
<text text-anchor="middle" x="141" y="-86.9" font-family="Source Code Pro,monospace" font-size="12.00">readable</text>
</a>
</g>
</g>
<!-- readable&#45;&gt;input -->
<g id="edge2" class="edge">
<title>readable&#45;&gt;input</title>
<path fill="none" stroke="black" d="M149.16,-71.7C152.91,-63.73 157.45,-54.1 161.62,-45.26"/>
<polygon fill="black" stroke="black" points="164.84,-46.64 165.94,-36.1 158.51,-43.66 164.84,-46.64"/>
</g>
<!-- ready -->
<g id="node3" class="node">
<title>ready</title>
<g id="a_node3"><a xlink:href="PsyllaReference_Types.xhtml#PsyllaReference_Types_Details_ready" xlink:title="ready" target="_parent">
<polygon fill="linen" stroke="black" points="166,-180 118,-180 118,-144 172,-144 172,-174 166,-180"/>
<polyline fill="none" stroke="black" points="166,-180 166,-174 "/>
<polyline fill="none" stroke="black" points="172,-174 166,-174 "/>
<text text-anchor="middle" x="145" y="-158.9" font-family="Source Code Pro,monospace" font-size="12.00">ready</text>
</a>
</g>
</g>
<!-- ready&#45;&gt;readable -->
<g id="edge6" class="edge">
<title>ready&#45;&gt;readable</title>
<path fill="none" stroke="black" d="M144.01,-143.7C143.57,-135.98 143.04,-126.71 142.55,-118.11"/>
<polygon fill="black" stroke="black" points="146.04,-117.89 141.98,-108.1 139.05,-118.29 146.04,-117.89"/>
</g>
<!-- ready&#45;&gt;input -->
<g id="edge3" class="edge">
<title>ready&#45;&gt;input</title>
<path fill="none" stroke="black" d="M164.04,-143.84C173.18,-134.3 183.17,-121.62 188,-108 195.16,-87.82 190.66,-63.77 184.92,-45.76"/>
<polygon fill="black" stroke="black" points="188.18,-44.48 181.57,-36.19 181.57,-46.78 188.18,-44.48"/>
</g>
<!-- resetable -->
<g id="node4" class="node">
<title>resetable</title>
<g id="a_node4"><a xlink:href="PsyllaReference_Types.xhtml#PsyllaReference_Types_Details_resetable" xlink:title="resetable" target="_parent">
<polygon fill="linen" stroke="black" points="277,-180 199,-180 199,-144 283,-144 283,-174 277,-180"/>
<polyline fill="none" stroke="black" points="277,-180 277,-174 "/>
<polyline fill="none" stroke="black" points="283,-174 277,-174 "/>
<text text-anchor="middle" x="241" y="-158.9" font-family="Source Code Pro,monospace" font-size="12.00">resetable</text>
</a>
</g>
</g>
<!-- resetable&#45;&gt;input -->
<g id="edge4" class="edge">
<title>resetable&#45;&gt;input</title>
<path fill="none" stroke="black" d="M234.64,-144C227.7,-125.89 215.98,-96.51 204,-72 199.64,-63.07 194.43,-53.55 189.59,-45.08"/>
<polygon fill="black" stroke="black" points="192.59,-43.27 184.54,-36.38 186.54,-46.79 192.59,-43.27"/>
</g>
<!-- object -->
<g id="node6" class="node">
<title>object</title>
<g id="a_node6"><a xlink:href="PsyllaReference_Types.xhtml#PsyllaReference_Types_Details_object" xlink:title="object" target="_parent">
<polygon fill="linen" stroke="black" points="170,-252 114,-252 114,-216 176,-216 176,-246 170,-252"/>
<polyline fill="none" stroke="black" points="170,-252 170,-246 "/>
<polyline fill="none" stroke="black" points="176,-246 170,-246 "/>
<text text-anchor="middle" x="145" y="-230.9" font-family="Source Code Pro,monospace" font-size="12.00">object</text>
</a>
</g>
</g>
<!-- object&#45;&gt;closeable -->
<g id="edge5" class="edge">
<title>object&#45;&gt;closeable</title>
<path fill="none" stroke="black" d="M132.58,-215.87C114.63,-191.14 81.34,-145.24 60.51,-116.51"/>
<polygon fill="black" stroke="black" points="63.17,-114.23 54.47,-108.19 57.51,-118.34 63.17,-114.23"/>
</g>
<!-- object&#45;&gt;ready -->
<g id="edge7" class="edge">
<title>object&#45;&gt;ready</title>
<path fill="none" stroke="black" d="M145,-215.7C145,-207.98 145,-198.71 145,-190.11"/>
<polygon fill="black" stroke="black" points="148.5,-190.1 145,-180.1 141.5,-190.1 148.5,-190.1"/>
</g>
<!-- object&#45;&gt;resetable -->
<g id="edge8" class="edge">
<title>object&#45;&gt;resetable</title>
<path fill="none" stroke="black" d="M168.73,-215.7C180.94,-206.8 195.99,-195.82 209.18,-186.2"/>
<polygon fill="black" stroke="black" points="211.52,-188.82 217.54,-180.1 207.4,-183.17 211.52,-188.82"/>
</g>
</g>
</svg>
