<?xml version="1.0" encoding="UTF-8" standalone="no"?>
<!DOCTYPE svg PUBLIC "-//W3C//DTD SVG 1.1//EN"
 "http://www.w3.org/Graphics/SVG/1.1/DTD/svg11.dtd">
<!-- Generated by graphviz version 2.43.0 (0)
 -->
<!-- Title: stringwriter Pages: 1 -->
<svg width="407pt" height="260pt"
 viewBox="0.00 0.00 407.00 260.00" xmlns="http://www.w3.org/2000/svg" xmlns:xlink="http://www.w3.org/1999/xlink">
<g id="graph0" class="graph" transform="scale(1 1) rotate(0) translate(4 256)">
<title>stringwriter</title>
<polygon fill="transparent" stroke="transparent" points="-4,4 -4,-256 403,-256 403,4 -4,4"/>
<!-- writer -->
<g id="node1" class="node">
<title>writer</title>
<g id="a_node1"><a xlink:href="PsyllaReference_Types.xhtml#PsyllaReference_Types_Details_writer" xlink:title="writer" target="_parent">
<polygon fill="linen" stroke="black" points="244,-108 161,-108 161,-72 250,-72 250,-102 244,-108"/>
<polyline fill="none" stroke="black" points="244,-108 244,-102 "/>
<polyline fill="none" stroke="black" points="250,-102 244,-102 "/>
<text text-anchor="middle" x="205.5" y="-85" font-family="PT Mono, monospace" font-size="20.00">writer</text>
</a>
</g>
</g>
<!-- stringwriter -->
<g id="node2" class="node">
<title>stringwriter</title>
<g id="a_node2"><a xlink:href="PsyllaReference_Types.xhtml#PsyllaReference_Types_Details_stringwriter" xlink:title="stringwriter" target="_parent">
<polygon fill="wheat" stroke="black" points="280,-36 125,-36 125,0 286,0 286,-30 280,-36"/>
<polyline fill="none" stroke="black" points="280,-36 280,-30 "/>
<polyline fill="none" stroke="black" points="286,-30 280,-30 "/>
<text text-anchor="middle" x="205.5" y="-13" font-family="PT Mono, monospace" font-size="20.00">stringwriter</text>
</a>
</g>
</g>
<!-- writer&#45;&gt;stringwriter -->
<g id="edge1" class="edge">
<title>writer&#45;&gt;stringwriter</title>
<path fill="none" stroke="black" d="M205.5,-71.7C205.5,-63.98 205.5,-54.71 205.5,-46.11"/>
<polygon fill="black" stroke="black" points="209,-46.1 205.5,-36.1 202,-46.1 209,-46.1"/>
</g>
<!-- closeable -->
<g id="node3" class="node">
<title>closeable</title>
<g id="a_node3"><a xlink:href="PsyllaReference_Types.xhtml#PsyllaReference_Types_Details_closeable" xlink:title="closeable" target="_parent">
<polygon fill="linen" stroke="black" points="119,-180 0,-180 0,-144 125,-144 125,-174 119,-180"/>
<polyline fill="none" stroke="black" points="119,-180 119,-174 "/>
<polyline fill="none" stroke="black" points="125,-174 119,-174 "/>
<text text-anchor="middle" x="62.5" y="-157" font-family="PT Mono, monospace" font-size="20.00">closeable</text>
</a>
</g>
</g>
<!-- closeable&#45;&gt;writer -->
<g id="edge2" class="edge">
<title>closeable&#45;&gt;writer</title>
<path fill="none" stroke="black" d="M97.48,-143.88C116.7,-134.47 140.73,-122.71 161.24,-112.67"/>
<polygon fill="black" stroke="black" points="162.94,-115.73 170.38,-108.19 159.86,-109.44 162.94,-115.73"/>
</g>
<!-- flushable -->
<g id="node4" class="node">
<title>flushable</title>
<g id="a_node4"><a xlink:href="PsyllaReference_Types.xhtml#PsyllaReference_Types_Details_flushable" xlink:title="flushable" target="_parent">
<polygon fill="linen" stroke="black" points="262,-180 143,-180 143,-144 268,-144 268,-174 262,-180"/>
<polyline fill="none" stroke="black" points="262,-180 262,-174 "/>
<polyline fill="none" stroke="black" points="268,-174 262,-174 "/>
<text text-anchor="middle" x="205.5" y="-157" font-family="PT Mono, monospace" font-size="20.00">flushable</text>
</a>
</g>
</g>
<!-- flushable&#45;&gt;writer -->
<g id="edge3" class="edge">
<title>flushable&#45;&gt;writer</title>
<path fill="none" stroke="black" d="M205.5,-143.7C205.5,-135.98 205.5,-126.71 205.5,-118.11"/>
<polygon fill="black" stroke="black" points="209,-118.1 205.5,-108.1 202,-118.1 209,-118.1"/>
</g>
<!-- writable -->
<g id="node5" class="node">
<title>writable</title>
<g id="a_node5"><a xlink:href="PsyllaReference_Types.xhtml#PsyllaReference_Types_Details_writable" xlink:title="writable" target="_parent">
<polygon fill="linen" stroke="black" points="393,-180 286,-180 286,-144 399,-144 399,-174 393,-180"/>
<polyline fill="none" stroke="black" points="393,-180 393,-174 "/>
<polyline fill="none" stroke="black" points="399,-174 393,-174 "/>
<text text-anchor="middle" x="342.5" y="-157" font-family="PT Mono, monospace" font-size="20.00">writable</text>
</a>
</g>
</g>
<!-- writable&#45;&gt;writer -->
<g id="edge4" class="edge">
<title>writable&#45;&gt;writer</title>
<path fill="none" stroke="black" d="M308.99,-143.88C290.66,-134.51 267.76,-122.81 248.17,-112.8"/>
<polygon fill="black" stroke="black" points="249.64,-109.62 239.14,-108.19 246.46,-115.86 249.64,-109.62"/>
</g>
<!-- object -->
<g id="node6" class="node">
<title>object</title>
<g id="a_node6"><a xlink:href="PsyllaReference_Types.xhtml#PsyllaReference_Types_Details_object" xlink:title="object" target="_parent">
<polygon fill="linen" stroke="black" points="244,-252 161,-252 161,-216 250,-216 250,-246 244,-252"/>
<polyline fill="none" stroke="black" points="244,-252 244,-246 "/>
<polyline fill="none" stroke="black" points="250,-246 244,-246 "/>
<text text-anchor="middle" x="205.5" y="-229" font-family="PT Mono, monospace" font-size="20.00">object</text>
</a>
</g>
</g>
<!-- object&#45;&gt;closeable -->
<g id="edge5" class="edge">
<title>object&#45;&gt;closeable</title>
<path fill="none" stroke="black" d="M170.52,-215.88C151.3,-206.47 127.27,-194.71 106.76,-184.67"/>
<polygon fill="black" stroke="black" points="108.14,-181.44 97.62,-180.19 105.06,-187.73 108.14,-181.44"/>
</g>
<!-- object&#45;&gt;flushable -->
<g id="edge6" class="edge">
<title>object&#45;&gt;flushable</title>
<path fill="none" stroke="black" d="M205.5,-215.7C205.5,-207.98 205.5,-198.71 205.5,-190.11"/>
<polygon fill="black" stroke="black" points="209,-190.1 205.5,-180.1 202,-190.1 209,-190.1"/>
</g>
<!-- object&#45;&gt;writable -->
<g id="edge7" class="edge">
<title>object&#45;&gt;writable</title>
<path fill="none" stroke="black" d="M239.01,-215.88C257.34,-206.51 280.24,-194.81 299.83,-184.8"/>
<polygon fill="black" stroke="black" points="301.54,-187.86 308.86,-180.19 298.36,-181.62 301.54,-187.86"/>
</g>
</g>
</svg>
