<?xml version="1.0" encoding="UTF-8" standalone="no"?>
<!DOCTYPE svg PUBLIC "-//W3C//DTD SVG 1.1//EN"
 "http://www.w3.org/Graphics/SVG/1.1/DTD/svg11.dtd">
<!-- Generated by graphviz version 14.0.0 (0)
 -->
<!-- Title: stringreader Pages: 1 -->
<svg width="271pt" height="332pt"
 viewBox="0.00 0.00 271.00 332.00" xmlns="http://www.w3.org/2000/svg" xmlns:xlink="http://www.w3.org/1999/xlink">
<g id="graph0" class="graph" transform="scale(1 1) rotate(0) translate(4 328)">
<title>stringreader</title>
<polygon fill="none" stroke="none" points="-4,4 -4,-328 267.32,-328 267.32,4 -4,4"/>
<!-- reader -->
<g id="node1" class="node">
<title>reader</title>
<g id="a_node1"><a xlink:href="PsyllaReference_Types.xhtml#PsyllaReference_Types_Details_reader" xlink:title="reader" target="_parent">
<polygon fill="linen" stroke="black" points="159.32,-108 111.32,-108 111.32,-72 165.32,-72 165.32,-102 159.32,-108"/>
<polyline fill="none" stroke="black" points="159.32,-108 159.32,-102"/>
<polyline fill="none" stroke="black" points="165.32,-102 159.32,-102"/>
<text xml:space="preserve" text-anchor="middle" x="138.32" y="-86.4" font-family="Source Code Pro,monospace" font-size="12.00">reader</text>
</a>
</g>
</g>
<!-- stringreader -->
<g id="node2" class="node">
<title>stringreader</title>
<g id="a_node2"><a xlink:href="PsyllaReference_Types.xhtml#PsyllaReference_Types_Details_stringreader" xlink:title="stringreader" target="_parent">
<polygon fill="wheat" stroke="black" points="168.97,-36 101.67,-36 101.67,0 174.97,0 174.97,-30 168.97,-36"/>
<polyline fill="none" stroke="black" points="168.97,-36 168.97,-30"/>
<polyline fill="none" stroke="black" points="174.97,-30 168.97,-30"/>
<text xml:space="preserve" text-anchor="middle" x="138.32" y="-14.4" font-family="Source Code Pro,monospace" font-size="12.00">stringreader</text>
</a>
</g>
</g>
<!-- reader&#45;&gt;stringreader -->
<g id="edge1" class="edge">
<title>reader&#45;&gt;stringreader</title>
<path fill="none" stroke="black" d="M138.32,-71.7C138.32,-64.41 138.32,-55.73 138.32,-47.54"/>
<polygon fill="black" stroke="black" points="141.82,-47.62 138.32,-37.62 134.82,-47.62 141.82,-47.62"/>
</g>
<!-- closeable -->
<g id="node3" class="node">
<title>closeable</title>
<g id="a_node3"><a xlink:href="PsyllaReference_Types.xhtml#PsyllaReference_Types_Details_closeable" xlink:title="closeable" target="_parent">
<polygon fill="linen" stroke="black" points="54.64,-180 0,-180 0,-144 60.64,-144 60.64,-174 54.64,-180"/>
<polyline fill="none" stroke="black" points="54.64,-180 54.64,-174"/>
<polyline fill="none" stroke="black" points="60.64,-174 54.64,-174"/>
<text xml:space="preserve" text-anchor="middle" x="30.32" y="-158.4" font-family="Source Code Pro,monospace" font-size="12.00">closeable</text>
</a>
</g>
</g>
<!-- closeable&#45;&gt;reader -->
<g id="edge2" class="edge">
<title>closeable&#45;&gt;reader</title>
<path fill="none" stroke="black" d="M57.3,-143.52C70.93,-134.68 87.66,-123.84 102.37,-114.3"/>
<polygon fill="black" stroke="black" points="103.93,-117.46 110.42,-109.08 100.13,-111.59 103.93,-117.46"/>
</g>
<!-- evaluable -->
<g id="node4" class="node">
<title>evaluable</title>
<g id="a_node4"><a xlink:href="PsyllaReference_Types.xhtml#PsyllaReference_Types_Details_evaluable" xlink:title="evaluable" target="_parent">
<polygon fill="linen" stroke="black" points="134.31,-180 78.33,-180 78.33,-144 140.31,-144 140.31,-174 134.31,-180"/>
<polyline fill="none" stroke="black" points="134.31,-180 134.31,-174"/>
<polyline fill="none" stroke="black" points="140.31,-174 134.31,-174"/>
<text xml:space="preserve" text-anchor="middle" x="109.32" y="-158.4" font-family="Source Code Pro,monospace" font-size="12.00">evaluable</text>
</a>
</g>
</g>
<!-- evaluable&#45;&gt;reader -->
<g id="edge3" class="edge">
<title>evaluable&#45;&gt;reader</title>
<path fill="none" stroke="black" d="M116.49,-143.7C119.62,-136.15 123.36,-127.12 126.85,-118.68"/>
<polygon fill="black" stroke="black" points="130.06,-120.08 130.66,-109.5 123.59,-117.4 130.06,-120.08"/>
</g>
<!-- readable -->
<g id="node5" class="node">
<title>readable</title>
<g id="a_node5"><a xlink:href="PsyllaReference_Types.xhtml#PsyllaReference_Types_Details_readable" xlink:title="readable" target="_parent">
<polygon fill="linen" stroke="black" points="254.64,-180 204,-180 204,-144 260.64,-144 260.64,-174 254.64,-180"/>
<polyline fill="none" stroke="black" points="254.64,-180 254.64,-174"/>
<polyline fill="none" stroke="black" points="260.64,-174 254.64,-174"/>
<text xml:space="preserve" text-anchor="middle" x="232.32" y="-158.4" font-family="Source Code Pro,monospace" font-size="12.00">readable</text>
</a>
</g>
</g>
<!-- readable&#45;&gt;reader -->
<g id="edge4" class="edge">
<title>readable&#45;&gt;reader</title>
<path fill="none" stroke="black" d="M209.09,-143.7C197.45,-135.03 183.17,-124.4 170.5,-114.96"/>
<polygon fill="black" stroke="black" points="172.94,-112.42 162.83,-109.25 168.76,-118.03 172.94,-112.42"/>
</g>
<!-- resetable -->
<g id="node6" class="node">
<title>resetable</title>
<g id="a_node6"><a xlink:href="PsyllaReference_Types.xhtml#PsyllaReference_Types_Details_resetable" xlink:title="resetable" target="_parent">
<polygon fill="linen" stroke="black" points="185.64,-252 133,-252 133,-216 191.64,-216 191.64,-246 185.64,-252"/>
<polyline fill="none" stroke="black" points="185.64,-252 185.64,-246"/>
<polyline fill="none" stroke="black" points="191.64,-246 185.64,-246"/>
<text xml:space="preserve" text-anchor="middle" x="162.32" y="-230.4" font-family="Source Code Pro,monospace" font-size="12.00">resetable</text>
</a>
</g>
</g>
<!-- resetable&#45;&gt;reader -->
<g id="edge5" class="edge">
<title>resetable&#45;&gt;reader</title>
<path fill="none" stroke="black" d="M160.09,-215.56C157.71,-197.58 153.69,-168.76 149.32,-144 147.89,-135.92 146.16,-127.18 144.49,-119.18"/>
<polygon fill="black" stroke="black" points="147.97,-118.67 142.46,-109.62 141.12,-120.13 147.97,-118.67"/>
</g>
<!-- object -->
<g id="node7" class="node">
<title>object</title>
<g id="a_node7"><a xlink:href="PsyllaReference_Types.xhtml#PsyllaReference_Types_Details_object" xlink:title="object" target="_parent">
<polygon fill="linen" stroke="black" points="154.32,-324 106.32,-324 106.32,-288 160.32,-288 160.32,-318 154.32,-324"/>
<polyline fill="none" stroke="black" points="154.32,-324 154.32,-318"/>
<polyline fill="none" stroke="black" points="160.32,-318 154.32,-318"/>
<text xml:space="preserve" text-anchor="middle" x="133.32" y="-302.4" font-family="Source Code Pro,monospace" font-size="12.00">object</text>
</a>
</g>
</g>
<!-- object&#45;&gt;closeable -->
<g id="edge6" class="edge">
<title>object&#45;&gt;closeable</title>
<path fill="none" stroke="black" d="M120.69,-287.59C102.83,-262.97 70.07,-217.8 49.28,-189.14"/>
<polygon fill="black" stroke="black" points="52.33,-187.38 43.62,-181.34 46.66,-191.49 52.33,-187.38"/>
</g>
<!-- object&#45;&gt;evaluable -->
<g id="edge7" class="edge">
<title>object&#45;&gt;evaluable</title>
<path fill="none" stroke="black" d="M130.4,-287.82C128.63,-277.44 126.35,-263.96 124.32,-252 120.9,-231.79 117.06,-209 114.12,-191.53"/>
<polygon fill="black" stroke="black" points="117.61,-191.17 112.5,-181.89 110.71,-192.33 117.61,-191.17"/>
</g>
<!-- object&#45;&gt;resetable -->
<g id="edge9" class="edge">
<title>object&#45;&gt;resetable</title>
<path fill="none" stroke="black" d="M140.49,-287.7C143.62,-280.15 147.36,-271.12 150.85,-262.68"/>
<polygon fill="black" stroke="black" points="154.06,-264.08 154.66,-253.5 147.59,-261.4 154.06,-264.08"/>
</g>
<!-- ready -->
<g id="node8" class="node">
<title>ready</title>
<g id="a_node8"><a xlink:href="PsyllaReference_Types.xhtml#PsyllaReference_Types_Details_ready" xlink:title="ready" target="_parent">
<polygon fill="linen" stroke="black" points="257.32,-252 209.32,-252 209.32,-216 263.32,-216 263.32,-246 257.32,-252"/>
<polyline fill="none" stroke="black" points="257.32,-252 257.32,-246"/>
<polyline fill="none" stroke="black" points="263.32,-246 257.32,-246"/>
<text xml:space="preserve" text-anchor="middle" x="236.32" y="-230.4" font-family="Source Code Pro,monospace" font-size="12.00">ready</text>
</a>
</g>
</g>
<!-- object&#45;&gt;ready -->
<g id="edge10" class="edge">
<title>object&#45;&gt;ready</title>
<path fill="none" stroke="black" d="M159.05,-287.52C171.92,-278.76 187.7,-268.04 201.63,-258.58"/>
<polygon fill="black" stroke="black" points="203.37,-261.63 209.67,-253.11 199.43,-255.84 203.37,-261.63"/>
</g>
<!-- ready&#45;&gt;readable -->
<g id="edge8" class="edge">
<title>ready&#45;&gt;readable</title>
<path fill="none" stroke="black" d="M235.33,-215.7C234.92,-208.41 234.42,-199.73 233.95,-191.54"/>
<polygon fill="black" stroke="black" points="237.45,-191.4 233.39,-181.62 230.46,-191.8 237.45,-191.4"/>
</g>
</g>
</svg>
