<?xml version="1.0" encoding="UTF-8" standalone="no"?>
<!DOCTYPE svg PUBLIC "-//W3C//DTD SVG 1.1//EN"
 "http://www.w3.org/Graphics/SVG/1.1/DTD/svg11.dtd">
<!-- Generated by graphviz version 14.0.0 (0)
 -->
<!-- Title: formalset Pages: 1 -->
<svg width="271pt" height="404pt"
 viewBox="0.00 0.00 271.00 404.00" xmlns="http://www.w3.org/2000/svg" xmlns:xlink="http://www.w3.org/1999/xlink">
<g id="graph0" class="graph" transform="scale(1 1) rotate(0) translate(4 400)">
<title>formalset</title>
<polygon fill="none" stroke="none" points="-4,4 -4,-400 266.64,-400 266.64,4 -4,4"/>
<!-- appendable -->
<g id="node1" class="node">
<title>appendable</title>
<g id="a_node1"><a xlink:href="PsyllaReference_Types.xhtml#PsyllaReference_Types_Details_appendable" xlink:title="appendable" target="_parent">
<polygon fill="linen" stroke="black" points="64.64,-252 0,-252 0,-216 70.64,-216 70.64,-246 64.64,-252"/>
<polyline fill="none" stroke="black" points="64.64,-252 64.64,-246"/>
<polyline fill="none" stroke="black" points="70.64,-246 64.64,-246"/>
<text xml:space="preserve" text-anchor="middle" x="35.32" y="-230.4" font-family="Source Code Pro,monospace" font-size="12.00">appendable</text>
</a>
</g>
</g>
<!-- formalset -->
<g id="node3" class="node">
<title>formalset</title>
<g id="a_node3"><a xlink:href="PsyllaReference_Types.xhtml#PsyllaReference_Types_Details_formalset" xlink:title="formalset" target="_parent">
<polygon fill="wheat" stroke="black" points="90.98,-36 35.66,-36 35.66,0 96.98,0 96.98,-30 90.98,-36"/>
<polyline fill="none" stroke="black" points="90.98,-36 90.98,-30"/>
<polyline fill="none" stroke="black" points="96.98,-30 90.98,-30"/>
<text xml:space="preserve" text-anchor="middle" x="66.32" y="-14.4" font-family="Source Code Pro,monospace" font-size="12.00">formalset</text>
</a>
</g>
</g>
<!-- appendable&#45;&gt;formalset -->
<g id="edge1" class="edge">
<title>appendable&#45;&gt;formalset</title>
<path fill="none" stroke="black" d="M37.8,-215.85C43.12,-179.14 55.65,-92.66 62.19,-47.53"/>
<polygon fill="black" stroke="black" points="65.64,-48.13 63.61,-37.73 58.71,-47.13 65.64,-48.13"/>
</g>
<!-- container -->
<g id="node2" class="node">
<title>container</title>
<g id="a_node2"><a xlink:href="PsyllaReference_Types.xhtml#PsyllaReference_Types_Details_container" xlink:title="container" target="_parent">
<polygon fill="linen" stroke="black" points="148.64,-108 94,-108 94,-72 154.64,-72 154.64,-102 148.64,-108"/>
<polyline fill="none" stroke="black" points="148.64,-108 148.64,-102"/>
<polyline fill="none" stroke="black" points="154.64,-102 148.64,-102"/>
<text xml:space="preserve" text-anchor="middle" x="124.32" y="-86.4" font-family="Source Code Pro,monospace" font-size="12.00">container</text>
</a>
</g>
</g>
<!-- container&#45;&gt;formalset -->
<g id="edge2" class="edge">
<title>container&#45;&gt;formalset</title>
<path fill="none" stroke="black" d="M109.98,-71.7C103.24,-63.56 95.06,-53.69 87.61,-44.7"/>
<polygon fill="black" stroke="black" points="90.53,-42.74 81.46,-37.27 85.14,-47.2 90.53,-42.74"/>
</g>
<!-- object -->
<g id="node4" class="node">
<title>object</title>
<g id="a_node4"><a xlink:href="PsyllaReference_Types.xhtml#PsyllaReference_Types_Details_object" xlink:title="object" target="_parent">
<polygon fill="linen" stroke="black" points="146.32,-396 98.32,-396 98.32,-360 152.32,-360 152.32,-390 146.32,-396"/>
<polyline fill="none" stroke="black" points="146.32,-396 146.32,-390"/>
<polyline fill="none" stroke="black" points="152.32,-390 146.32,-390"/>
<text xml:space="preserve" text-anchor="middle" x="125.32" y="-374.4" font-family="Source Code Pro,monospace" font-size="12.00">object</text>
</a>
</g>
</g>
<!-- object&#45;&gt;appendable -->
<g id="edge3" class="edge">
<title>object&#45;&gt;appendable</title>
<path fill="none" stroke="black" d="M110.95,-359.84C102.74,-349.7 92.49,-336.45 84.32,-324 71.19,-304 58.22,-280.21 48.93,-262.26"/>
<polygon fill="black" stroke="black" points="52.13,-260.85 44.46,-253.53 45.9,-264.03 52.13,-260.85"/>
</g>
<!-- clearable -->
<g id="node5" class="node">
<title>clearable</title>
<g id="a_node5"><a xlink:href="PsyllaReference_Types.xhtml#PsyllaReference_Types_Details_clearable" xlink:title="clearable" target="_parent">
<polygon fill="linen" stroke="black" points="120.97,-180 67.67,-180 67.67,-144 126.97,-144 126.97,-174 120.97,-180"/>
<polyline fill="none" stroke="black" points="120.97,-180 120.97,-174"/>
<polyline fill="none" stroke="black" points="126.97,-174 120.97,-174"/>
<text xml:space="preserve" text-anchor="middle" x="97.32" y="-158.4" font-family="Source Code Pro,monospace" font-size="12.00">clearable</text>
</a>
</g>
</g>
<!-- object&#45;&gt;clearable -->
<g id="edge7" class="edge">
<title>object&#45;&gt;clearable</title>
<path fill="none" stroke="black" d="M122.61,-359.83C121.01,-349.46 118.97,-335.98 117.32,-324 110.95,-277.73 104.44,-223.85 100.65,-191.64"/>
<polygon fill="black" stroke="black" points="104.15,-191.44 99.51,-181.91 97.2,-192.25 104.15,-191.44"/>
</g>
<!-- lengthy -->
<g id="node7" class="node">
<title>lengthy</title>
<g id="a_node7"><a xlink:href="PsyllaReference_Types.xhtml#PsyllaReference_Types_Details_lengthy" xlink:title="lengthy" target="_parent">
<polygon fill="linen" stroke="black" points="174.32,-324 126.32,-324 126.32,-288 180.32,-288 180.32,-318 174.32,-324"/>
<polyline fill="none" stroke="black" points="174.32,-324 174.32,-318"/>
<polyline fill="none" stroke="black" points="180.32,-318 174.32,-318"/>
<text xml:space="preserve" text-anchor="middle" x="153.32" y="-302.4" font-family="Source Code Pro,monospace" font-size="12.00">lengthy</text>
</a>
</g>
</g>
<!-- object&#45;&gt;lengthy -->
<g id="edge9" class="edge">
<title>object&#45;&gt;lengthy</title>
<path fill="none" stroke="black" d="M132.24,-359.7C135.26,-352.15 138.87,-343.12 142.25,-334.68"/>
<polygon fill="black" stroke="black" points="145.45,-336.09 145.92,-325.51 138.95,-333.49 145.45,-336.09"/>
</g>
<!-- sequential -->
<g id="node9" class="node">
<title>sequential</title>
<g id="a_node9"><a xlink:href="PsyllaReference_Types.xhtml#PsyllaReference_Types_Details_sequential" xlink:title="sequential" target="_parent">
<polygon fill="linen" stroke="black" points="256.64,-324 197.99,-324 197.99,-288 262.64,-288 262.64,-318 256.64,-324"/>
<polyline fill="none" stroke="black" points="256.64,-324 256.64,-318"/>
<polyline fill="none" stroke="black" points="262.64,-318 256.64,-318"/>
<text xml:space="preserve" text-anchor="middle" x="230.32" y="-302.4" font-family="Source Code Pro,monospace" font-size="12.00">sequential</text>
</a>
</g>
</g>
<!-- object&#45;&gt;sequential -->
<g id="edge11" class="edge">
<title>object&#45;&gt;sequential</title>
<path fill="none" stroke="black" d="M151.54,-359.52C164.67,-350.76 180.75,-340.04 194.96,-330.58"/>
<polygon fill="black" stroke="black" points="196.79,-333.56 203.17,-325.1 192.91,-327.73 196.79,-333.56"/>
</g>
<!-- clearable&#45;&gt;container -->
<g id="edge4" class="edge">
<title>clearable&#45;&gt;container</title>
<path fill="none" stroke="black" d="M103.99,-143.7C106.9,-136.15 110.39,-127.12 113.64,-118.68"/>
<polygon fill="black" stroke="black" points="116.84,-120.11 117.18,-109.52 110.31,-117.59 116.84,-120.11"/>
</g>
<!-- iterable -->
<g id="node6" class="node">
<title>iterable</title>
<g id="a_node6"><a xlink:href="PsyllaReference_Types.xhtml#PsyllaReference_Types_Details_iterable" xlink:title="iterable" target="_parent">
<polygon fill="linen" stroke="black" points="238.32,-180 190.32,-180 190.32,-144 244.32,-144 244.32,-174 238.32,-180"/>
<polyline fill="none" stroke="black" points="238.32,-180 238.32,-174"/>
<polyline fill="none" stroke="black" points="244.32,-174 238.32,-174"/>
<text xml:space="preserve" text-anchor="middle" x="217.32" y="-158.4" font-family="Source Code Pro,monospace" font-size="12.00">iterable</text>
</a>
</g>
</g>
<!-- iterable&#45;&gt;container -->
<g id="edge5" class="edge">
<title>iterable&#45;&gt;container</title>
<path fill="none" stroke="black" d="M194.33,-143.7C182.93,-135.11 168.97,-124.61 156.52,-115.24"/>
<polygon fill="black" stroke="black" points="158.67,-112.47 148.58,-109.26 154.46,-118.07 158.67,-112.47"/>
</g>
<!-- lengthy&#45;&gt;container -->
<g id="edge6" class="edge">
<title>lengthy&#45;&gt;container</title>
<path fill="none" stroke="black" d="M152.15,-287.52C150.01,-257.86 144.9,-195.86 136.32,-144 134.97,-135.87 133.15,-127.12 131.33,-119.12"/>
<polygon fill="black" stroke="black" points="134.78,-118.49 129.07,-109.56 127.97,-120.1 134.78,-118.49"/>
</g>
<!-- streamable -->
<g id="node8" class="node">
<title>streamable</title>
<g id="a_node8"><a xlink:href="PsyllaReference_Types.xhtml#PsyllaReference_Types_Details_streamable" xlink:title="streamable" target="_parent">
<polygon fill="linen" stroke="black" points="251.31,-252 189.33,-252 189.33,-216 257.31,-216 257.31,-246 251.31,-252"/>
<polyline fill="none" stroke="black" points="251.31,-252 251.31,-246"/>
<polyline fill="none" stroke="black" points="257.31,-246 251.31,-246"/>
<text xml:space="preserve" text-anchor="middle" x="223.32" y="-230.4" font-family="Source Code Pro,monospace" font-size="12.00">streamable</text>
</a>
</g>
</g>
<!-- streamable&#45;&gt;iterable -->
<g id="edge8" class="edge">
<title>streamable&#45;&gt;iterable</title>
<path fill="none" stroke="black" d="M221.84,-215.7C221.21,-208.41 220.47,-199.73 219.77,-191.54"/>
<polygon fill="black" stroke="black" points="223.26,-191.28 218.91,-181.61 216.28,-191.87 223.26,-191.28"/>
</g>
<!-- sequential&#45;&gt;streamable -->
<g id="edge10" class="edge">
<title>sequential&#45;&gt;streamable</title>
<path fill="none" stroke="black" d="M228.59,-287.7C227.86,-280.41 226.99,-271.73 226.17,-263.54"/>
<polygon fill="black" stroke="black" points="229.66,-263.21 225.18,-253.61 222.69,-263.91 229.66,-263.21"/>
</g>
</g>
</svg>
