<?xml version="1.0" encoding="UTF-8" standalone="no"?>
<!DOCTYPE svg PUBLIC "-//W3C//DTD SVG 1.1//EN"
 "http://www.w3.org/Graphics/SVG/1.1/DTD/svg11.dtd">
<!-- Generated by graphviz version 2.43.0 (0)
 -->
<!-- Title: name Pages: 1 -->
<svg width="449pt" height="404pt"
 viewBox="0.00 0.00 449.00 404.00" xmlns="http://www.w3.org/2000/svg" xmlns:xlink="http://www.w3.org/1999/xlink">
<g id="graph0" class="graph" transform="scale(1 1) rotate(0) translate(4 400)">
<title>name</title>
<polygon fill="transparent" stroke="transparent" points="-4,4 -4,-400 445,-400 445,4 -4,4"/>
<!-- atomic -->
<g id="node1" class="node">
<title>atomic</title>
<g id="a_node1"><a xlink:href="PsyllaReference_Types.xhtml#PsyllaReference_Types_Details_atomic" xlink:title="atomic" target="_parent">
<polygon fill="linen" stroke="black" points="83,-252 0,-252 0,-216 89,-216 89,-246 83,-252"/>
<polyline fill="none" stroke="black" points="83,-252 83,-246 "/>
<polyline fill="none" stroke="black" points="89,-246 83,-246 "/>
<text text-anchor="middle" x="44.5" y="-229" font-family="PT Mono, monospace" font-size="20.00">atomic</text>
</a>
</g>
</g>
<!-- name -->
<g id="node3" class="node">
<title>name</title>
<g id="a_node3"><a xlink:href="PsyllaReference_Types.xhtml#PsyllaReference_Types_Details_name" xlink:title="name" target="_parent">
<polygon fill="wheat" stroke="black" points="162,-36 103,-36 103,0 168,0 168,-30 162,-36"/>
<polyline fill="none" stroke="black" points="162,-36 162,-30 "/>
<polyline fill="none" stroke="black" points="168,-30 162,-30 "/>
<text text-anchor="middle" x="135.5" y="-13" font-family="PT Mono, monospace" font-size="20.00">name</text>
</a>
</g>
</g>
<!-- atomic&#45;&gt;name -->
<g id="edge1" class="edge">
<title>atomic&#45;&gt;name</title>
<path fill="none" stroke="black" d="M46.55,-215.82C49.09,-197.55 54.27,-168.04 63.5,-144 77.49,-107.56 101.13,-69.16 117.49,-44.69"/>
<polygon fill="black" stroke="black" points="120.44,-46.58 123.15,-36.33 114.64,-42.65 120.44,-46.58"/>
</g>
<!-- textual -->
<g id="node2" class="node">
<title>textual</title>
<g id="a_node2"><a xlink:href="PsyllaReference_Types.xhtml#PsyllaReference_Types_Details_textual" xlink:title="textual" target="_parent">
<polygon fill="linen" stroke="black" points="271,-108 176,-108 176,-72 277,-72 277,-102 271,-108"/>
<polyline fill="none" stroke="black" points="271,-108 271,-102 "/>
<polyline fill="none" stroke="black" points="277,-102 271,-102 "/>
<text text-anchor="middle" x="226.5" y="-85" font-family="PT Mono, monospace" font-size="20.00">textual</text>
</a>
</g>
</g>
<!-- textual&#45;&gt;name -->
<g id="edge2" class="edge">
<title>textual&#45;&gt;name</title>
<path fill="none" stroke="black" d="M204.01,-71.7C192.54,-62.88 178.44,-52.03 166.02,-42.47"/>
<polygon fill="black" stroke="black" points="167.8,-39.43 157.74,-36.1 163.53,-44.98 167.8,-39.43"/>
</g>
<!-- object -->
<g id="node4" class="node">
<title>object</title>
<g id="a_node4"><a xlink:href="PsyllaReference_Types.xhtml#PsyllaReference_Types_Details_object" xlink:title="object" target="_parent">
<polygon fill="linen" stroke="black" points="207,-396 124,-396 124,-360 213,-360 213,-390 207,-396"/>
<polyline fill="none" stroke="black" points="207,-396 207,-390 "/>
<polyline fill="none" stroke="black" points="213,-390 207,-390 "/>
<text text-anchor="middle" x="168.5" y="-373" font-family="PT Mono, monospace" font-size="20.00">object</text>
</a>
</g>
</g>
<!-- object&#45;&gt;atomic -->
<g id="edge3" class="edge">
<title>object&#45;&gt;atomic</title>
<path fill="none" stroke="black" d="M144.15,-359.93C131.25,-350.23 115.62,-337.38 103.5,-324 85.93,-304.61 69.8,-279.54 58.86,-260.96"/>
<polygon fill="black" stroke="black" points="61.81,-259.06 53.78,-252.15 55.75,-262.56 61.81,-259.06"/>
</g>
<!-- evaluable -->
<g id="node5" class="node">
<title>evaluable</title>
<g id="a_node5"><a xlink:href="PsyllaReference_Types.xhtml#PsyllaReference_Types_Details_evaluable" xlink:title="evaluable" target="_parent">
<polygon fill="linen" stroke="black" points="192,-180 73,-180 73,-144 198,-144 198,-174 192,-180"/>
<polyline fill="none" stroke="black" points="192,-180 192,-174 "/>
<polyline fill="none" stroke="black" points="198,-174 192,-174 "/>
<text text-anchor="middle" x="135.5" y="-157" font-family="PT Mono, monospace" font-size="20.00">evaluable</text>
</a>
</g>
</g>
<!-- object&#45;&gt;evaluable -->
<g id="edge8" class="edge">
<title>object&#45;&gt;evaluable</title>
<path fill="none" stroke="black" d="M162.72,-359.87C154.99,-336.02 141.68,-291.31 136.5,-252 133.79,-231.45 133.65,-207.99 134.12,-190.32"/>
<polygon fill="black" stroke="black" points="137.63,-190.27 134.48,-180.15 130.63,-190.02 137.63,-190.27"/>
</g>
<!-- lengthy -->
<g id="node7" class="node">
<title>lengthy</title>
<g id="a_node7"><a xlink:href="PsyllaReference_Types.xhtml#PsyllaReference_Types_Details_lengthy" xlink:title="lengthy" target="_parent">
<polygon fill="linen" stroke="black" points="241,-252 146,-252 146,-216 247,-216 247,-246 241,-252"/>
<polyline fill="none" stroke="black" points="241,-252 241,-246 "/>
<polyline fill="none" stroke="black" points="247,-246 241,-246 "/>
<text text-anchor="middle" x="196.5" y="-229" font-family="PT Mono, monospace" font-size="20.00">lengthy</text>
</a>
</g>
</g>
<!-- object&#45;&gt;lengthy -->
<g id="edge10" class="edge">
<title>object&#45;&gt;lengthy</title>
<path fill="none" stroke="black" d="M171.88,-359.87C176.67,-335.56 185.49,-290.82 191.17,-262.01"/>
<polygon fill="black" stroke="black" points="194.61,-262.68 193.11,-252.19 187.74,-261.32 194.61,-262.68"/>
</g>
<!-- scalar -->
<g id="node8" class="node">
<title>scalar</title>
<g id="a_node8"><a xlink:href="PsyllaReference_Types.xhtml#PsyllaReference_Types_Details_scalar" xlink:title="scalar" target="_parent">
<polygon fill="linen" stroke="black" points="280,-324 197,-324 197,-288 286,-288 286,-318 280,-324"/>
<polyline fill="none" stroke="black" points="280,-324 280,-318 "/>
<polyline fill="none" stroke="black" points="286,-318 280,-318 "/>
<text text-anchor="middle" x="241.5" y="-301" font-family="PT Mono, monospace" font-size="20.00">scalar</text>
</a>
</g>
</g>
<!-- object&#45;&gt;scalar -->
<g id="edge11" class="edge">
<title>object&#45;&gt;scalar</title>
<path fill="none" stroke="black" d="M186.54,-359.7C195.56,-351.05 206.62,-340.45 216.44,-331.03"/>
<polygon fill="black" stroke="black" points="218.87,-333.55 223.66,-324.1 214.02,-328.5 218.87,-333.55"/>
</g>
<!-- sequential -->
<g id="node10" class="node">
<title>sequential</title>
<g id="a_node10"><a xlink:href="PsyllaReference_Types.xhtml#PsyllaReference_Types_Details_sequential" xlink:title="sequential" target="_parent">
<polygon fill="linen" stroke="black" points="435,-324 304,-324 304,-288 441,-288 441,-318 435,-324"/>
<polyline fill="none" stroke="black" points="435,-324 435,-318 "/>
<polyline fill="none" stroke="black" points="441,-318 435,-318 "/>
<text text-anchor="middle" x="372.5" y="-301" font-family="PT Mono, monospace" font-size="20.00">sequential</text>
</a>
</g>
</g>
<!-- object&#45;&gt;sequential -->
<g id="edge13" class="edge">
<title>object&#45;&gt;sequential</title>
<path fill="none" stroke="black" d="M213.02,-361.72C242.34,-351.66 281.08,-338.37 313.03,-327.41"/>
<polygon fill="black" stroke="black" points="314.39,-330.64 322.71,-324.09 312.11,-324.02 314.39,-330.64"/>
</g>
<!-- evaluable&#45;&gt;textual -->
<g id="edge4" class="edge">
<title>evaluable&#45;&gt;textual</title>
<path fill="none" stroke="black" d="M157.99,-143.7C169.46,-134.88 183.56,-124.03 195.98,-114.47"/>
<polygon fill="black" stroke="black" points="198.47,-116.98 204.26,-108.1 194.2,-111.43 198.47,-116.98"/>
</g>
<!-- iterable -->
<g id="node6" class="node">
<title>iterable</title>
<g id="a_node6"><a xlink:href="PsyllaReference_Types.xhtml#PsyllaReference_Types_Details_iterable" xlink:title="iterable" target="_parent">
<polygon fill="linen" stroke="black" points="417,-180 310,-180 310,-144 423,-144 423,-174 417,-180"/>
<polyline fill="none" stroke="black" points="417,-180 417,-174 "/>
<polyline fill="none" stroke="black" points="423,-174 417,-174 "/>
<text text-anchor="middle" x="366.5" y="-157" font-family="PT Mono, monospace" font-size="20.00">iterable</text>
</a>
</g>
</g>
<!-- iterable&#45;&gt;textual -->
<g id="edge5" class="edge">
<title>iterable&#45;&gt;textual</title>
<path fill="none" stroke="black" d="M332.25,-143.88C313.44,-134.47 289.92,-122.71 269.83,-112.67"/>
<polygon fill="black" stroke="black" points="271.39,-109.53 260.88,-108.19 268.26,-115.79 271.39,-109.53"/>
</g>
<!-- lengthy&#45;&gt;textual -->
<g id="edge6" class="edge">
<title>lengthy&#45;&gt;textual</title>
<path fill="none" stroke="black" d="M200.12,-215.87C205.25,-191.56 214.71,-146.82 220.79,-118.01"/>
<polygon fill="black" stroke="black" points="224.23,-118.7 222.87,-108.19 217.38,-117.25 224.23,-118.7"/>
</g>
<!-- scalar&#45;&gt;textual -->
<g id="edge7" class="edge">
<title>scalar&#45;&gt;textual</title>
<path fill="none" stroke="black" d="M247.32,-287.56C250.43,-277.33 253.93,-264.08 255.5,-252 261.67,-204.48 247.11,-149.65 236.46,-117.8"/>
<polygon fill="black" stroke="black" points="239.75,-116.61 233.18,-108.31 233.14,-118.9 239.75,-116.61"/>
</g>
<!-- streamable -->
<g id="node9" class="node">
<title>streamable</title>
<g id="a_node9"><a xlink:href="PsyllaReference_Types.xhtml#PsyllaReference_Types_Details_streamable" xlink:title="streamable" target="_parent">
<polygon fill="linen" stroke="black" points="435,-252 304,-252 304,-216 441,-216 441,-246 435,-252"/>
<polyline fill="none" stroke="black" points="435,-252 435,-246 "/>
<polyline fill="none" stroke="black" points="441,-246 435,-246 "/>
<text text-anchor="middle" x="372.5" y="-229" font-family="PT Mono, monospace" font-size="20.00">streamable</text>
</a>
</g>
</g>
<!-- streamable&#45;&gt;iterable -->
<g id="edge9" class="edge">
<title>streamable&#45;&gt;iterable</title>
<path fill="none" stroke="black" d="M371.02,-215.7C370.36,-207.98 369.56,-198.71 368.82,-190.11"/>
<polygon fill="black" stroke="black" points="372.31,-189.77 367.97,-180.1 365.33,-190.37 372.31,-189.77"/>
</g>
<!-- sequential&#45;&gt;streamable -->
<g id="edge12" class="edge">
<title>sequential&#45;&gt;streamable</title>
<path fill="none" stroke="black" d="M372.5,-287.7C372.5,-279.98 372.5,-270.71 372.5,-262.11"/>
<polygon fill="black" stroke="black" points="376,-262.1 372.5,-252.1 369,-262.1 376,-262.1"/>
</g>
</g>
</svg>
