<?xml version="1.0" encoding="UTF-8" standalone="no"?>
<!DOCTYPE svg PUBLIC "-//W3C//DTD SVG 1.1//EN"
 "http://www.w3.org/Graphics/SVG/1.1/DTD/svg11.dtd">
<!-- Generated by graphviz version 2.43.0 (0)
 -->
<!-- Title: input Pages: 1 -->
<svg width="259pt" height="260pt"
 viewBox="0.00 0.00 259.00 260.00" xmlns="http://www.w3.org/2000/svg" xmlns:xlink="http://www.w3.org/1999/xlink">
<g id="graph0" class="graph" transform="scale(1 1) rotate(0) translate(4 256)">
<title>input</title>
<polygon fill="transparent" stroke="transparent" points="-4,4 -4,-256 255,-256 255,4 -4,4"/>
<!-- closeable -->
<g id="node1" class="node">
<title>closeable</title>
<g id="a_node1"><a xlink:href="PsyllaReference_Types.xhtml#PsyllaReference_Types_Details_closeable" xlink:title="closeable" target="_parent">
<polygon fill="linen" stroke="black" points="65,-108 0,-108 0,-72 71,-72 71,-102 65,-108"/>
<polyline fill="none" stroke="black" points="65,-108 65,-102 "/>
<polyline fill="none" stroke="black" points="71,-102 65,-102 "/>
<text text-anchor="middle" x="35.5" y="-87.5" font-family="PT Mono, monospace" font-size="10.00">closeable</text>
</a>
</g>
</g>
<!-- input -->
<g id="node5" class="node">
<title>input</title>
<g id="a_node5"><a xlink:href="PsyllaReference_Types.xhtml#PsyllaReference_Types_Details_input" xlink:title="input" target="_parent">
<polygon fill="wheat" stroke="black" points="172.5,-36 124.5,-36 124.5,0 178.5,0 178.5,-30 172.5,-36"/>
<polyline fill="none" stroke="black" points="172.5,-36 172.5,-30 "/>
<polyline fill="none" stroke="black" points="178.5,-30 172.5,-30 "/>
<text text-anchor="middle" x="151.5" y="-15.5" font-family="PT Mono, monospace" font-size="10.00">input</text>
</a>
</g>
</g>
<!-- closeable&#45;&gt;input -->
<g id="edge1" class="edge">
<title>closeable&#45;&gt;input</title>
<path fill="none" stroke="black" d="M63.88,-71.88C79.38,-62.52 98.75,-50.83 115.33,-40.83"/>
<polygon fill="black" stroke="black" points="117.46,-43.63 124.21,-35.47 113.84,-37.64 117.46,-43.63"/>
</g>
<!-- readable -->
<g id="node2" class="node">
<title>readable</title>
<g id="a_node2"><a xlink:href="PsyllaReference_Types.xhtml#PsyllaReference_Types_Details_readable" xlink:title="readable" target="_parent">
<polygon fill="linen" stroke="black" points="148,-108 89,-108 89,-72 154,-72 154,-102 148,-108"/>
<polyline fill="none" stroke="black" points="148,-108 148,-102 "/>
<polyline fill="none" stroke="black" points="154,-102 148,-102 "/>
<text text-anchor="middle" x="121.5" y="-87.5" font-family="PT Mono, monospace" font-size="10.00">readable</text>
</a>
</g>
</g>
<!-- readable&#45;&gt;input -->
<g id="edge2" class="edge">
<title>readable&#45;&gt;input</title>
<path fill="none" stroke="black" d="M128.92,-71.7C132.29,-63.81 136.37,-54.3 140.12,-45.55"/>
<polygon fill="black" stroke="black" points="143.45,-46.67 144.17,-36.1 137.01,-43.92 143.45,-46.67"/>
</g>
<!-- ready -->
<g id="node3" class="node">
<title>ready</title>
<g id="a_node3"><a xlink:href="PsyllaReference_Types.xhtml#PsyllaReference_Types_Details_ready" xlink:title="ready" target="_parent">
<polygon fill="linen" stroke="black" points="146.5,-180 98.5,-180 98.5,-144 152.5,-144 152.5,-174 146.5,-180"/>
<polyline fill="none" stroke="black" points="146.5,-180 146.5,-174 "/>
<polyline fill="none" stroke="black" points="152.5,-174 146.5,-174 "/>
<text text-anchor="middle" x="125.5" y="-159.5" font-family="PT Mono, monospace" font-size="10.00">ready</text>
</a>
</g>
</g>
<!-- ready&#45;&gt;readable -->
<g id="edge6" class="edge">
<title>ready&#45;&gt;readable</title>
<path fill="none" stroke="black" d="M124.51,-143.7C124.07,-135.98 123.54,-126.71 123.05,-118.11"/>
<polygon fill="black" stroke="black" points="126.54,-117.89 122.48,-108.1 119.55,-118.29 126.54,-117.89"/>
</g>
<!-- ready&#45;&gt;input -->
<g id="edge3" class="edge">
<title>ready&#45;&gt;input</title>
<path fill="none" stroke="black" d="M141.54,-143.85C149.51,-134.12 158.33,-121.27 162.5,-108 168.86,-87.76 165.34,-63.86 160.65,-45.92"/>
<polygon fill="black" stroke="black" points="163.95,-44.75 157.81,-36.12 157.23,-46.7 163.95,-44.75"/>
</g>
<!-- resetable -->
<g id="node4" class="node">
<title>resetable</title>
<g id="a_node4"><a xlink:href="PsyllaReference_Types.xhtml#PsyllaReference_Types_Details_resetable" xlink:title="resetable" target="_parent">
<polygon fill="linen" stroke="black" points="245,-180 180,-180 180,-144 251,-144 251,-174 245,-180"/>
<polyline fill="none" stroke="black" points="245,-180 245,-174 "/>
<polyline fill="none" stroke="black" points="251,-174 245,-174 "/>
<text text-anchor="middle" x="215.5" y="-159.5" font-family="PT Mono, monospace" font-size="10.00">resetable</text>
</a>
</g>
</g>
<!-- resetable&#45;&gt;input -->
<g id="edge4" class="edge">
<title>resetable&#45;&gt;input</title>
<path fill="none" stroke="black" d="M208.79,-143.77C201.66,-125.71 189.86,-96.61 178.5,-72 174.41,-63.14 169.66,-53.61 165.3,-45.1"/>
<polygon fill="black" stroke="black" points="168.3,-43.29 160.59,-36.02 162.09,-46.51 168.3,-43.29"/>
</g>
<!-- object -->
<g id="node6" class="node">
<title>object</title>
<g id="a_node6"><a xlink:href="PsyllaReference_Types.xhtml#PsyllaReference_Types_Details_object" xlink:title="object" target="_parent">
<polygon fill="linen" stroke="black" points="146.5,-252 98.5,-252 98.5,-216 152.5,-216 152.5,-246 146.5,-252"/>
<polyline fill="none" stroke="black" points="146.5,-252 146.5,-246 "/>
<polyline fill="none" stroke="black" points="152.5,-246 146.5,-246 "/>
<text text-anchor="middle" x="125.5" y="-231.5" font-family="PT Mono, monospace" font-size="10.00">object</text>
</a>
</g>
</g>
<!-- object&#45;&gt;closeable -->
<g id="edge5" class="edge">
<title>object&#45;&gt;closeable</title>
<path fill="none" stroke="black" d="M113.6,-215.96C106.48,-205.64 97.32,-192.17 89.5,-180 76.02,-159.02 61.39,-134.81 50.76,-116.94"/>
<polygon fill="black" stroke="black" points="53.7,-115.04 45.59,-108.22 47.68,-118.61 53.7,-115.04"/>
</g>
<!-- object&#45;&gt;ready -->
<g id="edge7" class="edge">
<title>object&#45;&gt;ready</title>
<path fill="none" stroke="black" d="M125.5,-215.7C125.5,-207.98 125.5,-198.71 125.5,-190.11"/>
<polygon fill="black" stroke="black" points="129,-190.1 125.5,-180.1 122,-190.1 129,-190.1"/>
</g>
<!-- object&#45;&gt;resetable -->
<g id="edge8" class="edge">
<title>object&#45;&gt;resetable</title>
<path fill="none" stroke="black" d="M147.75,-215.7C159.08,-206.88 173.03,-196.03 185.32,-186.47"/>
<polygon fill="black" stroke="black" points="187.76,-189.01 193.51,-180.1 183.47,-183.48 187.76,-189.01"/>
</g>
</g>
</svg>
