<?xml version="1.0" encoding="UTF-8" standalone="no"?>
<!DOCTYPE svg PUBLIC "-//W3C//DTD SVG 1.1//EN"
 "http://www.w3.org/Graphics/SVG/1.1/DTD/svg11.dtd">
<!-- Generated by graphviz version 2.43.0 (0)
 -->
<!-- Title: textual Pages: 1 -->
<svg width="339pt" height="332pt"
 viewBox="0.00 0.00 339.00 332.00" xmlns="http://www.w3.org/2000/svg" xmlns:xlink="http://www.w3.org/1999/xlink">
<g id="graph0" class="graph" transform="scale(1 1) rotate(0) translate(4 328)">
<title>textual</title>
<polygon fill="transparent" stroke="transparent" points="-4,4 -4,-328 335,-328 335,4 -4,4"/>
<!-- evaluable -->
<g id="node1" class="node">
<title>evaluable</title>
<g id="a_node1"><a xlink:href="PsyllaReference_Types.xhtml#PsyllaReference_Types_Details_evaluable" xlink:title="evaluable" target="_parent">
<polygon fill="linen" stroke="black" points="85,-180 0,-180 0,-144 91,-144 91,-174 85,-180"/>
<polyline fill="none" stroke="black" points="85,-180 85,-174 "/>
<polyline fill="none" stroke="black" points="91,-174 85,-174 "/>
<text text-anchor="middle" x="45.5" y="-158.3" font-family="Consolas, monospace" font-size="14.00">evaluable</text>
</a>
</g>
</g>
<!-- textual -->
<g id="node5" class="node">
<title>textual</title>
<g id="a_node5"><a xlink:href="PsyllaReference_Types.xhtml#PsyllaReference_Types_Details_textual" xlink:title="textual" target="_parent">
<polygon fill="wheat" stroke="black" points="180.5,-36 112.5,-36 112.5,0 186.5,0 186.5,-30 180.5,-36"/>
<polyline fill="none" stroke="black" points="180.5,-36 180.5,-30 "/>
<polyline fill="none" stroke="black" points="186.5,-30 180.5,-30 "/>
<text text-anchor="middle" x="149.5" y="-14.3" font-family="Consolas, monospace" font-size="14.00">textual</text>
</a>
</g>
</g>
<!-- evaluable&#45;&gt;textual -->
<g id="edge1" class="edge">
<title>evaluable&#45;&gt;textual</title>
<path fill="none" stroke="black" d="M47.05,-143.75C49.51,-124.61 55.78,-93.61 71.5,-72 80.34,-59.85 92.88,-49.59 105.32,-41.44"/>
<polygon fill="black" stroke="black" points="107.21,-44.38 113.87,-36.13 103.52,-38.43 107.21,-44.38"/>
</g>
<!-- iterable -->
<g id="node2" class="node">
<title>iterable</title>
<g id="a_node2"><a xlink:href="PsyllaReference_Types.xhtml#PsyllaReference_Types_Details_iterable" xlink:title="iterable" target="_parent">
<polygon fill="linen" stroke="black" points="297,-108 220,-108 220,-72 303,-72 303,-102 297,-108"/>
<polyline fill="none" stroke="black" points="297,-108 297,-102 "/>
<polyline fill="none" stroke="black" points="303,-102 297,-102 "/>
<text text-anchor="middle" x="261.5" y="-86.3" font-family="Consolas, monospace" font-size="14.00">iterable</text>
</a>
</g>
</g>
<!-- iterable&#45;&gt;textual -->
<g id="edge2" class="edge">
<title>iterable&#45;&gt;textual</title>
<path fill="none" stroke="black" d="M234.1,-71.88C219.59,-62.81 201.58,-51.55 185.91,-41.76"/>
<polygon fill="black" stroke="black" points="187.34,-38.52 177,-36.19 183.63,-44.46 187.34,-38.52"/>
</g>
<!-- lengthy -->
<g id="node3" class="node">
<title>lengthy</title>
<g id="a_node3"><a xlink:href="PsyllaReference_Types.xhtml#PsyllaReference_Types_Details_lengthy" xlink:title="lengthy" target="_parent">
<polygon fill="linen" stroke="black" points="148.5,-108 80.5,-108 80.5,-72 154.5,-72 154.5,-102 148.5,-108"/>
<polyline fill="none" stroke="black" points="148.5,-108 148.5,-102 "/>
<polyline fill="none" stroke="black" points="154.5,-102 148.5,-102 "/>
<text text-anchor="middle" x="117.5" y="-86.3" font-family="Consolas, monospace" font-size="14.00">lengthy</text>
</a>
</g>
</g>
<!-- lengthy&#45;&gt;textual -->
<g id="edge3" class="edge">
<title>lengthy&#45;&gt;textual</title>
<path fill="none" stroke="black" d="M125.41,-71.7C129.05,-63.73 133.45,-54.1 137.49,-45.26"/>
<polygon fill="black" stroke="black" points="140.71,-46.65 141.68,-36.1 134.34,-43.74 140.71,-46.65"/>
</g>
<!-- scalar -->
<g id="node4" class="node">
<title>scalar</title>
<g id="a_node4"><a xlink:href="PsyllaReference_Types.xhtml#PsyllaReference_Types_Details_scalar" xlink:title="scalar" target="_parent">
<polygon fill="linen" stroke="black" points="207.5,-252 147.5,-252 147.5,-216 213.5,-216 213.5,-246 207.5,-252"/>
<polyline fill="none" stroke="black" points="207.5,-252 207.5,-246 "/>
<polyline fill="none" stroke="black" points="213.5,-246 207.5,-246 "/>
<text text-anchor="middle" x="180.5" y="-230.3" font-family="Consolas, monospace" font-size="14.00">scalar</text>
</a>
</g>
</g>
<!-- scalar&#45;&gt;textual -->
<g id="edge4" class="edge">
<title>scalar&#45;&gt;textual</title>
<path fill="none" stroke="black" d="M179.56,-215.96C177.74,-186.44 173.05,-123.97 163.5,-72 161.93,-63.44 159.69,-54.24 157.47,-45.94"/>
<polygon fill="black" stroke="black" points="160.77,-44.73 154.71,-36.04 154.02,-46.61 160.77,-44.73"/>
</g>
<!-- object -->
<g id="node6" class="node">
<title>object</title>
<g id="a_node6"><a xlink:href="PsyllaReference_Types.xhtml#PsyllaReference_Types_Details_object" xlink:title="object" target="_parent">
<polygon fill="linen" stroke="black" points="176.5,-324 116.5,-324 116.5,-288 182.5,-288 182.5,-318 176.5,-324"/>
<polyline fill="none" stroke="black" points="176.5,-324 176.5,-318 "/>
<polyline fill="none" stroke="black" points="182.5,-318 176.5,-318 "/>
<text text-anchor="middle" x="149.5" y="-302.3" font-family="Consolas, monospace" font-size="14.00">object</text>
</a>
</g>
</g>
<!-- object&#45;&gt;evaluable -->
<g id="edge5" class="edge">
<title>object&#45;&gt;evaluable</title>
<path fill="none" stroke="black" d="M134.38,-287.69C125.68,-277.5 114.68,-264.25 105.5,-252 89.99,-231.3 73.66,-206.88 61.96,-188.86"/>
<polygon fill="black" stroke="black" points="64.65,-186.58 56.29,-180.08 58.77,-190.38 64.65,-186.58"/>
</g>
<!-- object&#45;&gt;lengthy -->
<g id="edge7" class="edge">
<title>object&#45;&gt;lengthy</title>
<path fill="none" stroke="black" d="M145.61,-287.88C143.34,-277.53 140.53,-264.05 138.5,-252 130.62,-205.3 124.04,-150.55 120.44,-118.44"/>
<polygon fill="black" stroke="black" points="123.92,-118.01 119.34,-108.46 116.96,-118.78 123.92,-118.01"/>
</g>
<!-- object&#45;&gt;scalar -->
<g id="edge8" class="edge">
<title>object&#45;&gt;scalar</title>
<path fill="none" stroke="black" d="M157.16,-287.7C160.69,-279.73 164.96,-270.1 168.87,-261.26"/>
<polygon fill="black" stroke="black" points="172.08,-262.67 172.93,-252.1 165.68,-259.83 172.08,-262.67"/>
</g>
<!-- sequential -->
<g id="node8" class="node">
<title>sequential</title>
<g id="a_node8"><a xlink:href="PsyllaReference_Types.xhtml#PsyllaReference_Types_Details_sequential" xlink:title="sequential" target="_parent">
<polygon fill="linen" stroke="black" points="325,-252 232,-252 232,-216 331,-216 331,-246 325,-252"/>
<polyline fill="none" stroke="black" points="325,-252 325,-246 "/>
<polyline fill="none" stroke="black" points="331,-246 325,-246 "/>
<text text-anchor="middle" x="281.5" y="-230.3" font-family="Consolas, monospace" font-size="14.00">sequential</text>
</a>
</g>
</g>
<!-- object&#45;&gt;sequential -->
<g id="edge10" class="edge">
<title>object&#45;&gt;sequential</title>
<path fill="none" stroke="black" d="M181.79,-287.88C199.37,-278.55 221.31,-266.92 240.13,-256.94"/>
<polygon fill="black" stroke="black" points="241.89,-259.97 249.09,-252.19 238.61,-253.78 241.89,-259.97"/>
</g>
<!-- streamable -->
<g id="node7" class="node">
<title>streamable</title>
<g id="a_node7"><a xlink:href="PsyllaReference_Types.xhtml#PsyllaReference_Types_Details_streamable" xlink:title="streamable" target="_parent">
<polygon fill="linen" stroke="black" points="314,-180 221,-180 221,-144 320,-144 320,-174 314,-180"/>
<polyline fill="none" stroke="black" points="314,-180 314,-174 "/>
<polyline fill="none" stroke="black" points="320,-174 314,-174 "/>
<text text-anchor="middle" x="270.5" y="-158.3" font-family="Consolas, monospace" font-size="14.00">streamable</text>
</a>
</g>
</g>
<!-- streamable&#45;&gt;iterable -->
<g id="edge6" class="edge">
<title>streamable&#45;&gt;iterable</title>
<path fill="none" stroke="black" d="M268.28,-143.7C267.28,-135.98 266.09,-126.71 264.99,-118.11"/>
<polygon fill="black" stroke="black" points="268.45,-117.58 263.7,-108.1 261.5,-118.47 268.45,-117.58"/>
</g>
<!-- sequential&#45;&gt;streamable -->
<g id="edge9" class="edge">
<title>sequential&#45;&gt;streamable</title>
<path fill="none" stroke="black" d="M278.78,-215.7C277.57,-207.98 276.11,-198.71 274.76,-190.11"/>
<polygon fill="black" stroke="black" points="278.2,-189.44 273.19,-180.1 271.28,-190.53 278.2,-189.44"/>
</g>
</g>
</svg>
