<?xml version="1.0" encoding="UTF-8" standalone="no"?>
<!DOCTYPE svg PUBLIC "-//W3C//DTD SVG 1.1//EN"
 "http://www.w3.org/Graphics/SVG/1.1/DTD/svg11.dtd">
<!-- Generated by graphviz version 2.43.0 (0)
 -->
<!-- Title: formalstream Pages: 1 -->
<svg width="174pt" height="260pt"
 viewBox="0.00 0.00 174.00 260.00" xmlns="http://www.w3.org/2000/svg" xmlns:xlink="http://www.w3.org/1999/xlink">
<g id="graph0" class="graph" transform="scale(1 1) rotate(0) translate(4 256)">
<title>formalstream</title>
<polygon fill="transparent" stroke="transparent" points="-4,4 -4,-256 170,-256 170,4 -4,4"/>
<!-- streamable -->
<g id="node1" class="node">
<title>streamable</title>
<g id="a_node1"><a xlink:href="PsyllaReference_Types.xhtml#PsyllaReference_Types_Details_streamable" xlink:title="streamable" target="_parent">
<polygon fill="linen" stroke="black" points="160,-108 89,-108 89,-72 166,-72 166,-102 160,-108"/>
<polyline fill="none" stroke="black" points="160,-108 160,-102 "/>
<polyline fill="none" stroke="black" points="166,-102 160,-102 "/>
<text text-anchor="middle" x="127.5" y="-87.5" font-family="PT Mono, monospace" font-size="10.00">streamable</text>
</a>
</g>
</g>
<!-- formalstream -->
<g id="node3" class="node">
<title>formalstream</title>
<g id="a_node3"><a xlink:href="PsyllaReference_Types.xhtml#PsyllaReference_Types_Details_formalstream" xlink:title="formalstream" target="_parent">
<polygon fill="wheat" stroke="black" points="120,-36 37,-36 37,0 126,0 126,-30 120,-36"/>
<polyline fill="none" stroke="black" points="120,-36 120,-30 "/>
<polyline fill="none" stroke="black" points="126,-30 120,-30 "/>
<text text-anchor="middle" x="81.5" y="-15.5" font-family="PT Mono, monospace" font-size="10.00">formalstream</text>
</a>
</g>
</g>
<!-- streamable&#45;&gt;formalstream -->
<g id="edge1" class="edge">
<title>streamable&#45;&gt;formalstream</title>
<path fill="none" stroke="black" d="M116.13,-71.7C110.78,-63.56 104.3,-53.69 98.39,-44.7"/>
<polygon fill="black" stroke="black" points="101.16,-42.54 92.74,-36.1 95.31,-46.38 101.16,-42.54"/>
</g>
<!-- closeable -->
<g id="node2" class="node">
<title>closeable</title>
<g id="a_node2"><a xlink:href="PsyllaReference_Types.xhtml#PsyllaReference_Types_Details_closeable" xlink:title="closeable" target="_parent">
<polygon fill="linen" stroke="black" points="65,-108 0,-108 0,-72 71,-72 71,-102 65,-108"/>
<polyline fill="none" stroke="black" points="65,-108 65,-102 "/>
<polyline fill="none" stroke="black" points="71,-102 65,-102 "/>
<text text-anchor="middle" x="35.5" y="-87.5" font-family="PT Mono, monospace" font-size="10.00">closeable</text>
</a>
</g>
</g>
<!-- closeable&#45;&gt;formalstream -->
<g id="edge2" class="edge">
<title>closeable&#45;&gt;formalstream</title>
<path fill="none" stroke="black" d="M46.87,-71.7C52.22,-63.56 58.7,-53.69 64.61,-44.7"/>
<polygon fill="black" stroke="black" points="67.69,-46.38 70.26,-36.1 61.84,-42.54 67.69,-46.38"/>
</g>
<!-- sequential -->
<g id="node4" class="node">
<title>sequential</title>
<g id="a_node4"><a xlink:href="PsyllaReference_Types.xhtml#PsyllaReference_Types_Details_sequential" xlink:title="sequential" target="_parent">
<polygon fill="linen" stroke="black" points="153,-180 82,-180 82,-144 159,-144 159,-174 153,-180"/>
<polyline fill="none" stroke="black" points="153,-180 153,-174 "/>
<polyline fill="none" stroke="black" points="159,-174 153,-174 "/>
<text text-anchor="middle" x="120.5" y="-159.5" font-family="PT Mono, monospace" font-size="10.00">sequential</text>
</a>
</g>
</g>
<!-- sequential&#45;&gt;streamable -->
<g id="edge3" class="edge">
<title>sequential&#45;&gt;streamable</title>
<path fill="none" stroke="black" d="M122.23,-143.7C123,-135.98 123.93,-126.71 124.79,-118.11"/>
<polygon fill="black" stroke="black" points="128.28,-118.4 125.79,-108.1 121.31,-117.71 128.28,-118.4"/>
</g>
<!-- object -->
<g id="node5" class="node">
<title>object</title>
<g id="a_node5"><a xlink:href="PsyllaReference_Types.xhtml#PsyllaReference_Types_Details_object" xlink:title="object" target="_parent">
<polygon fill="linen" stroke="black" points="101.5,-252 53.5,-252 53.5,-216 107.5,-216 107.5,-246 101.5,-252"/>
<polyline fill="none" stroke="black" points="101.5,-252 101.5,-246 "/>
<polyline fill="none" stroke="black" points="107.5,-246 101.5,-246 "/>
<text text-anchor="middle" x="80.5" y="-231.5" font-family="PT Mono, monospace" font-size="10.00">object</text>
</a>
</g>
</g>
<!-- object&#45;&gt;closeable -->
<g id="edge4" class="edge">
<title>object&#45;&gt;closeable</title>
<path fill="none" stroke="black" d="M75.07,-215.87C67.37,-191.56 53.19,-146.82 44.06,-118.01"/>
<polygon fill="black" stroke="black" points="47.3,-116.66 40.95,-108.19 40.63,-118.78 47.3,-116.66"/>
</g>
<!-- object&#45;&gt;sequential -->
<g id="edge5" class="edge">
<title>object&#45;&gt;sequential</title>
<path fill="none" stroke="black" d="M90.39,-215.7C94.99,-207.64 100.56,-197.89 105.65,-188.98"/>
<polygon fill="black" stroke="black" points="108.8,-190.52 110.73,-180.1 102.73,-187.05 108.8,-190.52"/>
</g>
</g>
</svg>
