<?xml version="1.0" encoding="UTF-8" standalone="no"?>
<!DOCTYPE svg PUBLIC "-//W3C//DTD SVG 1.1//EN"
 "http://www.w3.org/Graphics/SVG/1.1/DTD/svg11.dtd">
<!-- Generated by graphviz version 2.49.3 (0)
 -->
<!-- Title: stringbuffer Pages: 1 -->
<svg width="724pt" height="476pt"
 viewBox="0.00 0.00 723.98 476.00" xmlns="http://www.w3.org/2000/svg" xmlns:xlink="http://www.w3.org/1999/xlink">
<g id="graph0" class="graph" transform="scale(1 1) rotate(0) translate(4 472)">
<title>stringbuffer</title>
<polygon fill="transparent" stroke="transparent" points="-4,4 -4,-472 719.98,-472 719.98,4 -4,4"/>
<!-- textual -->
<g id="node1" class="node">
<title>textual</title>
<g id="a_node1"><a xlink:href="PsyllaReference_Types.xhtml#PsyllaReference_Types_Details_textual" xlink:title="textual" target="_parent">
<polygon fill="linen" stroke="black" points="355.98,-180 307.98,-180 307.98,-144 361.98,-144 361.98,-174 355.98,-180"/>
<polyline fill="none" stroke="black" points="355.98,-180 355.98,-174 "/>
<polyline fill="none" stroke="black" points="361.98,-174 355.98,-174 "/>
<text text-anchor="middle" x="334.98" y="-158.4" font-family="Source Code Pro,monospace" font-size="12.00">textual</text>
</a>
</g>
</g>
<!-- stringbuffer -->
<g id="node3" class="node">
<title>stringbuffer</title>
<g id="a_node3"><a xlink:href="PsyllaReference_Types.xhtml#PsyllaReference_Types_Details_stringbuffer" xlink:title="stringbuffer" target="_parent">
<polygon fill="wheat" stroke="black" points="475.12,-36 408.84,-36 408.84,0 481.12,0 481.12,-30 475.12,-36"/>
<polyline fill="none" stroke="black" points="475.12,-36 475.12,-30 "/>
<polyline fill="none" stroke="black" points="481.12,-30 475.12,-30 "/>
<text text-anchor="middle" x="444.98" y="-14.4" font-family="Source Code Pro,monospace" font-size="12.00">stringbuffer</text>
</a>
</g>
</g>
<!-- textual&#45;&gt;stringbuffer -->
<g id="edge1" class="edge">
<title>textual&#45;&gt;stringbuffer</title>
<path fill="none" stroke="black" d="M348.25,-143.87C367.49,-119.03 403.27,-72.85 425.5,-44.14"/>
<polygon fill="black" stroke="black" points="428.31,-46.24 431.66,-36.19 422.77,-41.95 428.31,-46.24"/>
</g>
<!-- formalarray -->
<g id="node2" class="node">
<title>formalarray</title>
<g id="a_node2"><a xlink:href="PsyllaReference_Types.xhtml#PsyllaReference_Types_Details_formalarray" xlink:title="formalarray" target="_parent">
<polygon fill="linen" stroke="black" points="566.11,-108 499.85,-108 499.85,-72 572.11,-72 572.11,-102 566.11,-108"/>
<polyline fill="none" stroke="black" points="566.11,-108 566.11,-102 "/>
<polyline fill="none" stroke="black" points="572.11,-102 566.11,-102 "/>
<text text-anchor="middle" x="535.98" y="-86.4" font-family="Source Code Pro,monospace" font-size="12.00">formalarray</text>
</a>
</g>
</g>
<!-- formalarray&#45;&gt;stringbuffer -->
<g id="edge2" class="edge">
<title>formalarray&#45;&gt;stringbuffer</title>
<path fill="none" stroke="black" d="M513.49,-71.7C502.02,-62.88 487.92,-52.03 475.5,-42.47"/>
<polygon fill="black" stroke="black" points="477.28,-39.43 467.22,-36.1 473.01,-44.98 477.28,-39.43"/>
</g>
<!-- evaluable -->
<g id="node4" class="node">
<title>evaluable</title>
<g id="a_node4"><a xlink:href="PsyllaReference_Types.xhtml#PsyllaReference_Types_Details_evaluable" xlink:title="evaluable" target="_parent">
<polygon fill="linen" stroke="black" points="165.96,-324 110,-324 110,-288 171.96,-288 171.96,-318 165.96,-324"/>
<polyline fill="none" stroke="black" points="165.96,-324 165.96,-318 "/>
<polyline fill="none" stroke="black" points="171.96,-318 165.96,-318 "/>
<text text-anchor="middle" x="140.98" y="-302.4" font-family="Source Code Pro,monospace" font-size="12.00">evaluable</text>
</a>
</g>
</g>
<!-- evaluable&#45;&gt;textual -->
<g id="edge3" class="edge">
<title>evaluable&#45;&gt;textual</title>
<path fill="none" stroke="black" d="M140.91,-287.9C141.78,-268.04 146.23,-235.49 164.98,-216 199.85,-179.75 259.06,-168.17 297.59,-164.54"/>
<polygon fill="black" stroke="black" points="298.19,-168.01 307.88,-163.72 297.63,-161.03 298.19,-168.01"/>
</g>
<!-- convertabletointeger -->
<g id="node5" class="node">
<title>convertabletointeger</title>
<g id="a_node5"><a xlink:href="PsyllaReference_Types.xhtml#PsyllaReference_Types_Details_convertabletointeger" xlink:title="convertabletointeger" target="_parent">
<polygon fill="linen" stroke="black" points="282.1,-252 173.85,-252 173.85,-216 288.1,-216 288.1,-246 282.1,-252"/>
<polyline fill="none" stroke="black" points="282.1,-252 282.1,-246 "/>
<polyline fill="none" stroke="black" points="288.1,-246 282.1,-246 "/>
<text text-anchor="middle" x="230.98" y="-230.4" font-family="Source Code Pro,monospace" font-size="12.00">convertabletointeger</text>
</a>
</g>
</g>
<!-- convertabletointeger&#45;&gt;textual -->
<g id="edge4" class="edge">
<title>convertabletointeger&#45;&gt;textual</title>
<path fill="none" stroke="black" d="M256.42,-215.88C269.77,-206.89 286.3,-195.76 300.76,-186.03"/>
<polygon fill="black" stroke="black" points="303.1,-188.68 309.44,-180.19 299.19,-182.87 303.1,-188.68"/>
</g>
<!-- convertabletointegral -->
<g id="node6" class="node">
<title>convertabletointegral</title>
<g id="a_node6"><a xlink:href="PsyllaReference_Types.xhtml#PsyllaReference_Types_Details_convertabletointegral" xlink:title="convertabletointegral" target="_parent">
<polygon fill="linen" stroke="black" points="339.94,-324 228.02,-324 228.02,-288 345.94,-288 345.94,-318 339.94,-324"/>
<polyline fill="none" stroke="black" points="339.94,-324 339.94,-318 "/>
<polyline fill="none" stroke="black" points="345.94,-318 339.94,-318 "/>
<text text-anchor="middle" x="286.98" y="-302.4" font-family="Source Code Pro,monospace" font-size="12.00">convertabletointegral</text>
</a>
</g>
</g>
<!-- convertabletointegral&#45;&gt;textual -->
<g id="edge5" class="edge">
<title>convertabletointegral&#45;&gt;textual</title>
<path fill="none" stroke="black" d="M292.77,-287.87C300.99,-263.56 316.11,-218.82 325.85,-190.01"/>
<polygon fill="black" stroke="black" points="329.28,-190.78 329.17,-180.19 322.65,-188.54 329.28,-190.78"/>
</g>
<!-- convertabletorational -->
<g id="node7" class="node">
<title>convertabletorational</title>
<g id="a_node7"><a xlink:href="PsyllaReference_Types.xhtml#PsyllaReference_Types_Details_convertabletorational" xlink:title="convertabletorational" target="_parent">
<polygon fill="linen" stroke="black" points="111.94,-252 0.02,-252 0.02,-216 117.94,-216 117.94,-246 111.94,-252"/>
<polyline fill="none" stroke="black" points="111.94,-252 111.94,-246 "/>
<polyline fill="none" stroke="black" points="117.94,-246 111.94,-246 "/>
<text text-anchor="middle" x="58.98" y="-230.4" font-family="Source Code Pro,monospace" font-size="12.00">convertabletorational</text>
</a>
</g>
</g>
<!-- convertabletorational&#45;&gt;textual -->
<g id="edge6" class="edge">
<title>convertabletorational&#45;&gt;textual</title>
<path fill="none" stroke="black" d="M118.19,-217.98C172.67,-204.16 251.8,-184.1 297.87,-172.41"/>
<polygon fill="black" stroke="black" points="298.89,-175.76 307.73,-169.91 297.17,-168.98 298.89,-175.76"/>
</g>
<!-- iterable -->
<g id="node8" class="node">
<title>iterable</title>
<g id="a_node8"><a xlink:href="PsyllaReference_Types.xhtml#PsyllaReference_Types_Details_iterable" xlink:title="iterable" target="_parent">
<polygon fill="linen" stroke="black" points="501.98,-252 453.98,-252 453.98,-216 507.98,-216 507.98,-246 501.98,-252"/>
<polyline fill="none" stroke="black" points="501.98,-252 501.98,-246 "/>
<polyline fill="none" stroke="black" points="507.98,-246 501.98,-246 "/>
<text text-anchor="middle" x="480.98" y="-230.4" font-family="Source Code Pro,monospace" font-size="12.00">iterable</text>
</a>
</g>
</g>
<!-- iterable&#45;&gt;textual -->
<g id="edge7" class="edge">
<title>iterable&#45;&gt;textual</title>
<path fill="none" stroke="black" d="M453.86,-220C430.65,-208.87 397.04,-192.75 371.47,-180.5"/>
<polygon fill="black" stroke="black" points="372.98,-177.34 362.45,-176.17 369.95,-183.65 372.98,-177.34"/>
</g>
<!-- container -->
<g id="node12" class="node">
<title>container</title>
<g id="a_node12"><a xlink:href="PsyllaReference_Types.xhtml#PsyllaReference_Types_Details_container" xlink:title="container" target="_parent">
<polygon fill="linen" stroke="black" points="502.13,-180 447.83,-180 447.83,-144 508.13,-144 508.13,-174 502.13,-180"/>
<polyline fill="none" stroke="black" points="502.13,-180 502.13,-174 "/>
<polyline fill="none" stroke="black" points="508.13,-174 502.13,-174 "/>
<text text-anchor="middle" x="477.98" y="-158.4" font-family="Source Code Pro,monospace" font-size="12.00">container</text>
</a>
</g>
</g>
<!-- iterable&#45;&gt;container -->
<g id="edge23" class="edge">
<title>iterable&#45;&gt;container</title>
<path fill="none" stroke="black" d="M480.24,-215.7C479.91,-207.98 479.51,-198.71 479.14,-190.11"/>
<polygon fill="black" stroke="black" points="482.64,-189.95 478.71,-180.1 475.64,-190.25 482.64,-189.95"/>
</g>
<!-- lengthy -->
<g id="node9" class="node">
<title>lengthy</title>
<g id="a_node9"><a xlink:href="PsyllaReference_Types.xhtml#PsyllaReference_Types_Details_lengthy" xlink:title="lengthy" target="_parent">
<polygon fill="linen" stroke="black" points="429.98,-252 381.98,-252 381.98,-216 435.98,-216 435.98,-246 429.98,-252"/>
<polyline fill="none" stroke="black" points="429.98,-252 429.98,-246 "/>
<polyline fill="none" stroke="black" points="435.98,-246 429.98,-246 "/>
<text text-anchor="middle" x="408.98" y="-230.4" font-family="Source Code Pro,monospace" font-size="12.00">lengthy</text>
</a>
</g>
</g>
<!-- lengthy&#45;&gt;textual -->
<g id="edge8" class="edge">
<title>lengthy&#45;&gt;textual</title>
<path fill="none" stroke="black" d="M390.69,-215.7C381.55,-207.05 370.34,-196.45 360.38,-187.03"/>
<polygon fill="black" stroke="black" points="362.73,-184.43 353.06,-180.1 357.92,-189.52 362.73,-184.43"/>
</g>
<!-- lengthy&#45;&gt;container -->
<g id="edge24" class="edge">
<title>lengthy&#45;&gt;container</title>
<path fill="none" stroke="black" d="M426.04,-215.7C434.48,-207.14 444.8,-196.66 454.02,-187.3"/>
<polygon fill="black" stroke="black" points="456.59,-189.68 461.12,-180.1 451.61,-184.77 456.59,-189.68"/>
</g>
<!-- scalar -->
<g id="node10" class="node">
<title>scalar</title>
<g id="a_node10"><a xlink:href="PsyllaReference_Types.xhtml#PsyllaReference_Types_Details_scalar" xlink:title="scalar" target="_parent">
<polygon fill="linen" stroke="black" points="377.98,-396 329.98,-396 329.98,-360 383.98,-360 383.98,-390 377.98,-396"/>
<polyline fill="none" stroke="black" points="377.98,-396 377.98,-390 "/>
<polyline fill="none" stroke="black" points="383.98,-390 377.98,-390 "/>
<text text-anchor="middle" x="356.98" y="-374.4" font-family="Source Code Pro,monospace" font-size="12.00">scalar</text>
</a>
</g>
</g>
<!-- scalar&#45;&gt;textual -->
<g id="edge9" class="edge">
<title>scalar&#45;&gt;textual</title>
<path fill="none" stroke="black" d="M357.28,-359.9C357.44,-341.95 357.24,-312.93 354.98,-288 351.9,-254.1 345.23,-215.47 340.44,-190.24"/>
<polygon fill="black" stroke="black" points="343.85,-189.45 338.51,-180.3 336.98,-190.78 343.85,-189.45"/>
</g>
<!-- appendable -->
<g id="node11" class="node">
<title>appendable</title>
<g id="a_node11"><a xlink:href="PsyllaReference_Types.xhtml#PsyllaReference_Types_Details_appendable" xlink:title="appendable" target="_parent">
<polygon fill="linen" stroke="black" points="666.12,-324 601.84,-324 601.84,-288 672.12,-288 672.12,-318 666.12,-324"/>
<polyline fill="none" stroke="black" points="666.12,-324 666.12,-318 "/>
<polyline fill="none" stroke="black" points="672.12,-318 666.12,-318 "/>
<text text-anchor="middle" x="636.98" y="-302.4" font-family="Source Code Pro,monospace" font-size="12.00">appendable</text>
</a>
</g>
</g>
<!-- appendable&#45;&gt;formalarray -->
<g id="edge10" class="edge">
<title>appendable&#45;&gt;formalarray</title>
<path fill="none" stroke="black" d="M628.89,-287.85C611.3,-250.6 569.52,-162.07 548.51,-117.54"/>
<polygon fill="black" stroke="black" points="551.55,-115.78 544.11,-108.23 545.22,-118.77 551.55,-115.78"/>
</g>
<!-- container&#45;&gt;formalarray -->
<g id="edge11" class="edge">
<title>container&#45;&gt;formalarray</title>
<path fill="none" stroke="black" d="M492.32,-143.7C499.27,-135.3 507.75,-125.07 515.38,-115.86"/>
<polygon fill="black" stroke="black" points="518.12,-118.04 521.81,-108.1 512.73,-113.57 518.12,-118.04"/>
</g>
<!-- indexed -->
<g id="node13" class="node">
<title>indexed</title>
<g id="a_node13"><a xlink:href="PsyllaReference_Types.xhtml#PsyllaReference_Types_Details_indexed" xlink:title="indexed" target="_parent">
<polygon fill="linen" stroke="black" points="709.98,-180 661.98,-180 661.98,-144 715.98,-144 715.98,-174 709.98,-180"/>
<polyline fill="none" stroke="black" points="709.98,-180 709.98,-174 "/>
<polyline fill="none" stroke="black" points="715.98,-174 709.98,-174 "/>
<text text-anchor="middle" x="688.98" y="-158.4" font-family="Source Code Pro,monospace" font-size="12.00">indexed</text>
</a>
</g>
</g>
<!-- indexed&#45;&gt;formalarray -->
<g id="edge12" class="edge">
<title>indexed&#45;&gt;formalarray</title>
<path fill="none" stroke="black" d="M661.98,-148.65C639.74,-138.47 607.74,-123.83 581.54,-111.85"/>
<polygon fill="black" stroke="black" points="582.74,-108.54 572.19,-107.57 579.82,-114.91 582.74,-108.54"/>
</g>
<!-- sequential -->
<g id="node14" class="node">
<title>sequential</title>
<g id="a_node14"><a xlink:href="PsyllaReference_Types.xhtml#PsyllaReference_Types_Details_sequential" xlink:title="sequential" target="_parent">
<polygon fill="linen" stroke="black" points="500.13,-396 441.83,-396 441.83,-360 506.13,-360 506.13,-390 500.13,-396"/>
<polyline fill="none" stroke="black" points="500.13,-396 500.13,-390 "/>
<polyline fill="none" stroke="black" points="506.13,-390 500.13,-390 "/>
<text text-anchor="middle" x="473.98" y="-374.4" font-family="Source Code Pro,monospace" font-size="12.00">sequential</text>
</a>
</g>
</g>
<!-- sequential&#45;&gt;formalarray -->
<g id="edge13" class="edge">
<title>sequential&#45;&gt;formalarray</title>
<path fill="none" stroke="black" d="M492.57,-359.67C501.58,-350.08 511.6,-337.42 516.98,-324 545.04,-254.05 542.39,-162.99 538.82,-118.24"/>
<polygon fill="black" stroke="black" points="542.29,-117.81 537.93,-108.16 535.32,-118.43 542.29,-117.81"/>
</g>
<!-- streamable -->
<g id="node16" class="node">
<title>streamable</title>
<g id="a_node16"><a xlink:href="PsyllaReference_Types.xhtml#PsyllaReference_Types_Details_streamable" xlink:title="streamable" target="_parent">
<polygon fill="linen" stroke="black" points="501.95,-324 440.01,-324 440.01,-288 507.95,-288 507.95,-318 501.95,-324"/>
<polyline fill="none" stroke="black" points="501.95,-324 501.95,-318 "/>
<polyline fill="none" stroke="black" points="507.95,-318 501.95,-318 "/>
<text text-anchor="middle" x="473.98" y="-302.4" font-family="Source Code Pro,monospace" font-size="12.00">streamable</text>
</a>
</g>
</g>
<!-- sequential&#45;&gt;streamable -->
<g id="edge27" class="edge">
<title>sequential&#45;&gt;streamable</title>
<path fill="none" stroke="black" d="M473.98,-359.7C473.98,-351.98 473.98,-342.71 473.98,-334.11"/>
<polygon fill="black" stroke="black" points="477.48,-334.1 473.98,-324.1 470.48,-334.1 477.48,-334.1"/>
</g>
<!-- object -->
<g id="node15" class="node">
<title>object</title>
<g id="a_node15"><a xlink:href="PsyllaReference_Types.xhtml#PsyllaReference_Types_Details_object" xlink:title="object" target="_parent">
<polygon fill="linen" stroke="black" points="404.98,-468 356.98,-468 356.98,-432 410.98,-432 410.98,-462 404.98,-468"/>
<polyline fill="none" stroke="black" points="404.98,-468 404.98,-462 "/>
<polyline fill="none" stroke="black" points="410.98,-462 404.98,-462 "/>
<text text-anchor="middle" x="383.98" y="-446.4" font-family="Source Code Pro,monospace" font-size="12.00">object</text>
</a>
</g>
</g>
<!-- object&#45;&gt;evaluable -->
<g id="edge14" class="edge">
<title>object&#45;&gt;evaluable</title>
<path fill="none" stroke="black" d="M356.85,-448.53C315.55,-446.44 236.39,-436.94 185.98,-396 166.52,-380.2 154.68,-353.81 148.06,-333.86"/>
<polygon fill="black" stroke="black" points="151.35,-332.63 145.07,-324.1 144.66,-334.69 151.35,-332.63"/>
</g>
<!-- object&#45;&gt;convertabletointeger -->
<g id="edge15" class="edge">
<title>object&#45;&gt;convertabletointeger</title>
<path fill="none" stroke="black" d="M356.93,-438.54C317.36,-421.51 245.52,-383.59 218.98,-324 210.24,-304.38 214.38,-280.11 220.07,-261.87"/>
<polygon fill="black" stroke="black" points="223.46,-262.77 223.41,-252.17 216.85,-260.48 223.46,-262.77"/>
</g>
<!-- object&#45;&gt;convertabletointegral -->
<g id="edge16" class="edge">
<title>object&#45;&gt;convertabletointegral</title>
<path fill="none" stroke="black" d="M357.95,-431.85C345.38,-422.5 330.92,-409.98 320.98,-396 307.7,-377.32 298.83,-352.79 293.49,-334.21"/>
<polygon fill="black" stroke="black" points="296.81,-333.05 290.82,-324.31 290.05,-334.88 296.81,-333.05"/>
</g>
<!-- object&#45;&gt;convertabletorational -->
<g id="edge17" class="edge">
<title>object&#45;&gt;convertabletorational</title>
<path fill="none" stroke="black" d="M356.77,-448.49C311.56,-446.45 219.65,-437.12 155.98,-396 107.12,-364.44 79.27,-298.78 66.87,-261.8"/>
<polygon fill="black" stroke="black" points="70.17,-260.63 63.77,-252.19 63.5,-262.78 70.17,-260.63"/>
</g>
<!-- object&#45;&gt;lengthy -->
<g id="edge19" class="edge">
<title>object&#45;&gt;lengthy</title>
<path fill="none" stroke="black" d="M387.2,-431.86C389.07,-421.5 391.36,-408.02 392.98,-396 399.27,-349.23 404.19,-294.5 406.84,-262.41"/>
<polygon fill="black" stroke="black" points="410.33,-262.69 407.64,-252.44 403.35,-262.12 410.33,-262.69"/>
</g>
<!-- object&#45;&gt;scalar -->
<g id="edge20" class="edge">
<title>object&#45;&gt;scalar</title>
<path fill="none" stroke="black" d="M377.31,-431.7C374.26,-423.81 370.6,-414.3 367.22,-405.55"/>
<polygon fill="black" stroke="black" points="370.44,-404.17 363.58,-396.1 363.91,-406.69 370.44,-404.17"/>
</g>
<!-- object&#45;&gt;appendable -->
<g id="edge21" class="edge">
<title>object&#45;&gt;appendable</title>
<path fill="none" stroke="black" d="M411.28,-445.59C463.41,-438.58 574.49,-421.07 602.98,-396 620.87,-380.25 629.39,-354.03 633.43,-334.12"/>
<polygon fill="black" stroke="black" points="636.9,-334.55 635.19,-324.09 630.01,-333.34 636.9,-334.55"/>
</g>
<!-- object&#45;&gt;indexed -->
<g id="edge25" class="edge">
<title>object&#45;&gt;indexed</title>
<path fill="none" stroke="black" d="M411.02,-449.27C458.88,-448.49 559.96,-441.14 628.98,-396 662.02,-374.39 667.91,-361.25 680.98,-324 696.72,-279.16 695.1,-222.97 692.22,-190.22"/>
<polygon fill="black" stroke="black" points="695.69,-189.66 691.22,-180.06 688.72,-190.35 695.69,-189.66"/>
</g>
<!-- object&#45;&gt;sequential -->
<g id="edge26" class="edge">
<title>object&#45;&gt;sequential</title>
<path fill="none" stroke="black" d="M406.23,-431.7C417.56,-422.88 431.51,-412.03 443.8,-402.47"/>
<polygon fill="black" stroke="black" points="446.24,-405.01 451.99,-396.1 441.95,-399.48 446.24,-405.01"/>
</g>
<!-- clearable -->
<g id="node17" class="node">
<title>clearable</title>
<g id="a_node17"><a xlink:href="PsyllaReference_Types.xhtml#PsyllaReference_Types_Details_clearable" xlink:title="clearable" target="_parent">
<polygon fill="linen" stroke="black" points="587.78,-396 534.18,-396 534.18,-360 593.78,-360 593.78,-390 587.78,-396"/>
<polyline fill="none" stroke="black" points="587.78,-396 587.78,-390 "/>
<polyline fill="none" stroke="black" points="593.78,-390 587.78,-390 "/>
<text text-anchor="middle" x="563.98" y="-374.4" font-family="Source Code Pro,monospace" font-size="12.00">clearable</text>
</a>
</g>
</g>
<!-- object&#45;&gt;clearable -->
<g id="edge28" class="edge">
<title>object&#45;&gt;clearable</title>
<path fill="none" stroke="black" d="M411.32,-438.37C441.48,-426.64 490.29,-407.66 524.58,-394.32"/>
<polygon fill="black" stroke="black" points="526.23,-397.44 534.28,-390.55 523.69,-390.91 526.23,-397.44"/>
</g>
<!-- streamable&#45;&gt;iterable -->
<g id="edge18" class="edge">
<title>streamable&#45;&gt;iterable</title>
<path fill="none" stroke="black" d="M475.71,-287.7C476.48,-279.98 477.41,-270.71 478.27,-262.11"/>
<polygon fill="black" stroke="black" points="481.76,-262.4 479.27,-252.1 474.79,-261.71 481.76,-262.4"/>
</g>
<!-- clearable&#45;&gt;container -->
<g id="edge22" class="edge">
<title>clearable&#45;&gt;container</title>
<path fill="none" stroke="black" d="M561.02,-359.83C555.37,-329.58 541.37,-265.33 516.98,-216 512.19,-206.32 505.63,-196.57 499.25,-188.11"/>
<polygon fill="black" stroke="black" points="501.92,-185.85 493,-180.14 496.41,-190.17 501.92,-185.85"/>
</g>
</g>
</svg>
