<?xml version="1.0" encoding="UTF-8" standalone="no"?>
<!DOCTYPE svg PUBLIC "-//W3C//DTD SVG 1.1//EN"
 "http://www.w3.org/Graphics/SVG/1.1/DTD/svg11.dtd">
<!-- Generated by graphviz version 2.43.0 (0)
 -->
<!-- Title: bitarray Pages: 1 -->
<svg width="464pt" height="476pt"
 viewBox="0.00 0.00 464.00 476.00" xmlns="http://www.w3.org/2000/svg" xmlns:xlink="http://www.w3.org/1999/xlink">
<g id="graph0" class="graph" transform="scale(1 1) rotate(0) translate(4 472)">
<title>bitarray</title>
<polygon fill="transparent" stroke="transparent" points="-4,4 -4,-472 460,-472 460,4 -4,4"/>
<!-- formalarray -->
<g id="node1" class="node">
<title>formalarray</title>
<g id="a_node1"><a xlink:href="PsyllaReference_Types.xhtml#PsyllaReference_Types_Details_formalarray" xlink:title="formalarray" target="_parent">
<polygon fill="linen" stroke="black" points="189,-108 112,-108 112,-72 195,-72 195,-102 189,-108"/>
<polyline fill="none" stroke="black" points="189,-108 189,-102 "/>
<polyline fill="none" stroke="black" points="195,-102 189,-102 "/>
<text text-anchor="middle" x="153.5" y="-87.5" font-family="PT Mono, monospace" font-size="10.00">formalarray</text>
</a>
</g>
</g>
<!-- bitarray -->
<g id="node3" class="node">
<title>bitarray</title>
<g id="a_node3"><a xlink:href="PsyllaReference_Types.xhtml#PsyllaReference_Types_Details_bitarray" xlink:title="bitarray" target="_parent">
<polygon fill="wheat" stroke="black" points="224,-36 165,-36 165,0 230,0 230,-30 224,-36"/>
<polyline fill="none" stroke="black" points="224,-36 224,-30 "/>
<polyline fill="none" stroke="black" points="230,-30 224,-30 "/>
<text text-anchor="middle" x="197.5" y="-15.5" font-family="PT Mono, monospace" font-size="10.00">bitarray</text>
</a>
</g>
</g>
<!-- formalarray&#45;&gt;bitarray -->
<g id="edge1" class="edge">
<title>formalarray&#45;&gt;bitarray</title>
<path fill="none" stroke="black" d="M164.38,-71.7C169.49,-63.56 175.7,-53.69 181.34,-44.7"/>
<polygon fill="black" stroke="black" points="184.39,-46.43 186.75,-36.1 178.46,-42.71 184.39,-46.43"/>
</g>
<!-- bitwise -->
<g id="node2" class="node">
<title>bitwise</title>
<g id="a_node2"><a xlink:href="PsyllaReference_Types.xhtml#PsyllaReference_Types_Details_bitwise" xlink:title="bitwise" target="_parent">
<polygon fill="linen" stroke="black" points="354,-108 301,-108 301,-72 360,-72 360,-102 354,-108"/>
<polyline fill="none" stroke="black" points="354,-108 354,-102 "/>
<polyline fill="none" stroke="black" points="360,-102 354,-102 "/>
<text text-anchor="middle" x="330.5" y="-87.5" font-family="PT Mono, monospace" font-size="10.00">bitwise</text>
</a>
</g>
</g>
<!-- bitwise&#45;&gt;bitarray -->
<g id="edge2" class="edge">
<title>bitwise&#45;&gt;bitarray</title>
<path fill="none" stroke="black" d="M300.98,-73.46C282.8,-63.89 259.21,-51.48 239.14,-40.92"/>
<polygon fill="black" stroke="black" points="240.68,-37.77 230.2,-36.21 237.42,-43.97 240.68,-37.77"/>
</g>
<!-- appendable -->
<g id="node4" class="node">
<title>appendable</title>
<g id="a_node4"><a xlink:href="PsyllaReference_Types.xhtml#PsyllaReference_Types_Details_appendable" xlink:title="appendable" target="_parent">
<polygon fill="linen" stroke="black" points="119,-252 48,-252 48,-216 125,-216 125,-246 119,-252"/>
<polyline fill="none" stroke="black" points="119,-252 119,-246 "/>
<polyline fill="none" stroke="black" points="125,-246 119,-246 "/>
<text text-anchor="middle" x="86.5" y="-231.5" font-family="PT Mono, monospace" font-size="10.00">appendable</text>
</a>
</g>
</g>
<!-- appendable&#45;&gt;formalarray -->
<g id="edge3" class="edge">
<title>appendable&#45;&gt;formalarray</title>
<path fill="none" stroke="black" d="M94.58,-215.87C106.15,-191.35 127.53,-146.03 141.11,-117.26"/>
<polygon fill="black" stroke="black" points="144.29,-118.73 145.39,-108.19 137.96,-115.74 144.29,-118.73"/>
</g>
<!-- container -->
<g id="node5" class="node">
<title>container</title>
<g id="a_node5"><a xlink:href="PsyllaReference_Types.xhtml#PsyllaReference_Types_Details_container" xlink:title="container" target="_parent">
<polygon fill="linen" stroke="black" points="290,-180 225,-180 225,-144 296,-144 296,-174 290,-180"/>
<polyline fill="none" stroke="black" points="290,-180 290,-174 "/>
<polyline fill="none" stroke="black" points="296,-174 290,-174 "/>
<text text-anchor="middle" x="260.5" y="-159.5" font-family="PT Mono, monospace" font-size="10.00">container</text>
</a>
</g>
</g>
<!-- container&#45;&gt;formalarray -->
<g id="edge4" class="edge">
<title>container&#45;&gt;formalarray</title>
<path fill="none" stroke="black" d="M234.32,-143.88C220.46,-134.81 203.26,-123.55 188.29,-113.76"/>
<polygon fill="black" stroke="black" points="190.06,-110.74 179.78,-108.19 186.23,-116.59 190.06,-110.74"/>
</g>
<!-- indexed -->
<g id="node6" class="node">
<title>indexed</title>
<g id="a_node6"><a xlink:href="PsyllaReference_Types.xhtml#PsyllaReference_Types_Details_indexed" xlink:title="indexed" target="_parent">
<polygon fill="linen" stroke="black" points="53,-180 0,-180 0,-144 59,-144 59,-174 53,-180"/>
<polyline fill="none" stroke="black" points="53,-180 53,-174 "/>
<polyline fill="none" stroke="black" points="59,-174 53,-174 "/>
<text text-anchor="middle" x="29.5" y="-159.5" font-family="PT Mono, monospace" font-size="10.00">indexed</text>
</a>
</g>
</g>
<!-- indexed&#45;&gt;formalarray -->
<g id="edge5" class="edge">
<title>indexed&#45;&gt;formalarray</title>
<path fill="none" stroke="black" d="M59.2,-144.23C75.67,-134.93 96.37,-123.25 114.17,-113.2"/>
<polygon fill="black" stroke="black" points="116.19,-116.08 123.18,-108.12 112.75,-109.98 116.19,-116.08"/>
</g>
<!-- sequential -->
<g id="node7" class="node">
<title>sequential</title>
<g id="a_node7"><a xlink:href="PsyllaReference_Types.xhtml#PsyllaReference_Types_Details_sequential" xlink:title="sequential" target="_parent">
<polygon fill="linen" stroke="black" points="245,-396 174,-396 174,-360 251,-360 251,-390 245,-396"/>
<polyline fill="none" stroke="black" points="245,-396 245,-390 "/>
<polyline fill="none" stroke="black" points="251,-390 245,-390 "/>
<text text-anchor="middle" x="212.5" y="-375.5" font-family="PT Mono, monospace" font-size="10.00">sequential</text>
</a>
</g>
</g>
<!-- sequential&#45;&gt;formalarray -->
<g id="edge6" class="edge">
<title>sequential&#45;&gt;formalarray</title>
<path fill="none" stroke="black" d="M191.07,-359.68C181.09,-350.28 170.19,-337.77 164.5,-324 135.8,-254.49 142.95,-163.23 149.04,-118.34"/>
<polygon fill="black" stroke="black" points="152.54,-118.62 150.5,-108.22 145.61,-117.62 152.54,-118.62"/>
</g>
<!-- streamable -->
<g id="node13" class="node">
<title>streamable</title>
<g id="a_node13"><a xlink:href="PsyllaReference_Types.xhtml#PsyllaReference_Types_Details_streamable" xlink:title="streamable" target="_parent">
<polygon fill="linen" stroke="black" points="245,-324 174,-324 174,-288 251,-288 251,-318 245,-324"/>
<polyline fill="none" stroke="black" points="245,-324 245,-318 "/>
<polyline fill="none" stroke="black" points="251,-318 245,-318 "/>
<text text-anchor="middle" x="212.5" y="-303.5" font-family="PT Mono, monospace" font-size="10.00">streamable</text>
</a>
</g>
</g>
<!-- sequential&#45;&gt;streamable -->
<g id="edge18" class="edge">
<title>sequential&#45;&gt;streamable</title>
<path fill="none" stroke="black" d="M212.5,-359.7C212.5,-351.98 212.5,-342.71 212.5,-334.11"/>
<polygon fill="black" stroke="black" points="216,-334.1 212.5,-324.1 209,-334.1 216,-334.1"/>
</g>
<!-- logical -->
<g id="node8" class="node">
<title>logical</title>
<g id="a_node8"><a xlink:href="PsyllaReference_Types.xhtml#PsyllaReference_Types_Details_logical" xlink:title="logical" target="_parent">
<polygon fill="linen" stroke="black" points="450,-396 397,-396 397,-360 456,-360 456,-390 450,-396"/>
<polyline fill="none" stroke="black" points="450,-396 450,-390 "/>
<polyline fill="none" stroke="black" points="456,-390 450,-390 "/>
<text text-anchor="middle" x="426.5" y="-375.5" font-family="PT Mono, monospace" font-size="10.00">logical</text>
</a>
</g>
</g>
<!-- logical&#45;&gt;bitwise -->
<g id="edge7" class="edge">
<title>logical&#45;&gt;bitwise</title>
<path fill="none" stroke="black" d="M425.34,-359.62C422.92,-329.59 416.05,-266.37 398.5,-216 385.89,-179.8 363.58,-141.56 347.97,-117.05"/>
<polygon fill="black" stroke="black" points="350.72,-114.85 342.34,-108.36 344.84,-118.66 350.72,-114.85"/>
</g>
<!-- object -->
<g id="node9" class="node">
<title>object</title>
<g id="a_node9"><a xlink:href="PsyllaReference_Types.xhtml#PsyllaReference_Types_Details_object" xlink:title="object" target="_parent">
<polygon fill="linen" stroke="black" points="279.5,-468 231.5,-468 231.5,-432 285.5,-432 285.5,-462 279.5,-468"/>
<polyline fill="none" stroke="black" points="279.5,-468 279.5,-462 "/>
<polyline fill="none" stroke="black" points="285.5,-462 279.5,-462 "/>
<text text-anchor="middle" x="258.5" y="-447.5" font-family="PT Mono, monospace" font-size="10.00">object</text>
</a>
</g>
</g>
<!-- object&#45;&gt;appendable -->
<g id="edge8" class="edge">
<title>object&#45;&gt;appendable</title>
<path fill="none" stroke="black" d="M231.3,-438.91C210.79,-430.17 183.1,-415.8 164.5,-396 127.49,-356.62 104.76,-296.39 93.99,-261.85"/>
<polygon fill="black" stroke="black" points="97.26,-260.58 91.03,-252.01 90.56,-262.59 97.26,-260.58"/>
</g>
<!-- object&#45;&gt;indexed -->
<g id="edge12" class="edge">
<title>object&#45;&gt;indexed</title>
<path fill="none" stroke="black" d="M231.41,-442.18C204.77,-434.42 164.05,-419.68 135.5,-396 76.11,-346.74 64.73,-324.57 38.5,-252 31.34,-232.19 29.24,-208.39 28.85,-190.39"/>
<polygon fill="black" stroke="black" points="32.35,-190.26 28.79,-180.28 25.35,-190.3 32.35,-190.26"/>
</g>
<!-- object&#45;&gt;sequential -->
<g id="edge13" class="edge">
<title>object&#45;&gt;sequential</title>
<path fill="none" stroke="black" d="M247.13,-431.7C241.78,-423.56 235.3,-413.69 229.39,-404.7"/>
<polygon fill="black" stroke="black" points="232.16,-402.54 223.74,-396.1 226.31,-406.38 232.16,-402.54"/>
</g>
<!-- object&#45;&gt;logical -->
<g id="edge14" class="edge">
<title>object&#45;&gt;logical</title>
<path fill="none" stroke="black" d="M285.87,-437.6C313.5,-426.08 356.45,-408.19 387.62,-395.2"/>
<polygon fill="black" stroke="black" points="389,-398.42 396.88,-391.34 386.3,-391.96 389,-398.42"/>
</g>
<!-- clearable -->
<g id="node10" class="node">
<title>clearable</title>
<g id="a_node10"><a xlink:href="PsyllaReference_Types.xhtml#PsyllaReference_Types_Details_clearable" xlink:title="clearable" target="_parent">
<polygon fill="linen" stroke="black" points="334,-324 269,-324 269,-288 340,-288 340,-318 334,-324"/>
<polyline fill="none" stroke="black" points="334,-324 334,-318 "/>
<polyline fill="none" stroke="black" points="340,-318 334,-318 "/>
<text text-anchor="middle" x="304.5" y="-303.5" font-family="PT Mono, monospace" font-size="10.00">clearable</text>
</a>
</g>
</g>
<!-- object&#45;&gt;clearable -->
<g id="edge15" class="edge">
<title>object&#45;&gt;clearable</title>
<path fill="none" stroke="black" d="M264.05,-431.87C271.92,-407.56 286.42,-362.82 295.75,-334.01"/>
<polygon fill="black" stroke="black" points="299.18,-334.78 298.93,-324.19 292.52,-332.62 299.18,-334.78"/>
</g>
<!-- lengthy -->
<g id="node12" class="node">
<title>lengthy</title>
<g id="a_node12"><a xlink:href="PsyllaReference_Types.xhtml#PsyllaReference_Types_Details_lengthy" xlink:title="lengthy" target="_parent">
<polygon fill="linen" stroke="black" points="384,-252 331,-252 331,-216 390,-216 390,-246 384,-252"/>
<polyline fill="none" stroke="black" points="384,-252 384,-246 "/>
<polyline fill="none" stroke="black" points="390,-246 384,-246 "/>
<text text-anchor="middle" x="360.5" y="-231.5" font-family="PT Mono, monospace" font-size="10.00">lengthy</text>
</a>
</g>
</g>
<!-- object&#45;&gt;lengthy -->
<g id="edge17" class="edge">
<title>object&#45;&gt;lengthy</title>
<path fill="none" stroke="black" d="M275.35,-431.65C296.3,-408.95 331.38,-366.98 348.5,-324 356.37,-304.24 359.26,-280.25 360.24,-262.17"/>
<polygon fill="black" stroke="black" points="363.75,-262.14 360.63,-252.02 356.75,-261.88 363.75,-262.14"/>
</g>
<!-- clearable&#45;&gt;container -->
<g id="edge9" class="edge">
<title>clearable&#45;&gt;container</title>
<path fill="none" stroke="black" d="M299.19,-287.87C291.66,-263.56 277.8,-218.82 268.87,-190.01"/>
<polygon fill="black" stroke="black" points="272.13,-188.71 265.83,-180.19 265.44,-190.78 272.13,-188.71"/>
</g>
<!-- iterable -->
<g id="node11" class="node">
<title>iterable</title>
<g id="a_node11"><a xlink:href="PsyllaReference_Types.xhtml#PsyllaReference_Types_Details_iterable" xlink:title="iterable" target="_parent">
<polygon fill="linen" stroke="black" points="254,-252 195,-252 195,-216 260,-216 260,-246 254,-252"/>
<polyline fill="none" stroke="black" points="254,-252 254,-246 "/>
<polyline fill="none" stroke="black" points="260,-246 254,-246 "/>
<text text-anchor="middle" x="227.5" y="-231.5" font-family="PT Mono, monospace" font-size="10.00">iterable</text>
</a>
</g>
</g>
<!-- iterable&#45;&gt;container -->
<g id="edge10" class="edge">
<title>iterable&#45;&gt;container</title>
<path fill="none" stroke="black" d="M235.66,-215.7C239.41,-207.73 243.95,-198.1 248.12,-189.26"/>
<polygon fill="black" stroke="black" points="251.34,-190.64 252.44,-180.1 245.01,-187.66 251.34,-190.64"/>
</g>
<!-- lengthy&#45;&gt;container -->
<g id="edge11" class="edge">
<title>lengthy&#45;&gt;container</title>
<path fill="none" stroke="black" d="M336.04,-215.88C323.2,-206.89 307.3,-195.76 293.41,-186.03"/>
<polygon fill="black" stroke="black" points="295.26,-183.06 285.06,-180.19 291.24,-188.79 295.26,-183.06"/>
</g>
<!-- streamable&#45;&gt;iterable -->
<g id="edge16" class="edge">
<title>streamable&#45;&gt;iterable</title>
<path fill="none" stroke="black" d="M216.21,-287.7C217.86,-279.98 219.85,-270.71 221.69,-262.11"/>
<polygon fill="black" stroke="black" points="225.16,-262.62 223.83,-252.1 218.32,-261.15 225.16,-262.62"/>
</g>
</g>
</svg>
