<?xml version="1.0" encoding="UTF-8" standalone="no"?>
<!DOCTYPE svg PUBLIC "-//W3C//DTD SVG 1.1//EN"
 "http://www.w3.org/Graphics/SVG/1.1/DTD/svg11.dtd">
<!-- Generated by graphviz version 2.43.0 (0)
 -->
<!-- Title: integer Pages: 1 -->
<svg width="566pt" height="548pt"
 viewBox="0.00 0.00 565.50 548.00" xmlns="http://www.w3.org/2000/svg" xmlns:xlink="http://www.w3.org/1999/xlink">
<g id="graph0" class="graph" transform="scale(1 1) rotate(0) translate(4 544)">
<title>integer</title>
<polygon fill="transparent" stroke="transparent" points="-4,4 -4,-544 561.5,-544 561.5,4 -4,4"/>
<!-- bitwise -->
<g id="node1" class="node">
<title>bitwise</title>
<g id="a_node1"><a xlink:href="PsyllaReference_Types.xhtml#PsyllaReference_Types_Details_bitwise" xlink:title="bitwise" target="_parent">
<polygon fill="linen" stroke="black" points="63,-396 0,-396 0,-360 69,-360 69,-390 63,-396"/>
<polyline fill="none" stroke="black" points="63,-396 63,-390 "/>
<polyline fill="none" stroke="black" points="69,-390 63,-390 "/>
<text text-anchor="middle" x="34.5" y="-374.9" font-family="Source Code Pro,monospace" font-size="12.00">bitwise</text>
</a>
</g>
</g>
<!-- integral -->
<g id="node2" class="node">
<title>integral</title>
<g id="a_node2"><a xlink:href="PsyllaReference_Types.xhtml#PsyllaReference_Types_Details_integral" xlink:title="integral" target="_parent">
<polygon fill="linen" stroke="black" points="117,-108 46,-108 46,-72 123,-72 123,-102 117,-108"/>
<polyline fill="none" stroke="black" points="117,-108 117,-102 "/>
<polyline fill="none" stroke="black" points="123,-102 117,-102 "/>
<text text-anchor="middle" x="84.5" y="-86.9" font-family="Source Code Pro,monospace" font-size="12.00">integral</text>
</a>
</g>
</g>
<!-- bitwise&#45;&gt;integral -->
<g id="edge4" class="edge">
<title>bitwise&#45;&gt;integral</title>
<path fill="none" stroke="black" d="M37.48,-359.97C45.83,-312.19 69.53,-176.62 79.73,-118.27"/>
<polygon fill="black" stroke="black" points="83.2,-118.76 81.47,-108.31 76.3,-117.55 83.2,-118.76"/>
</g>
<!-- integer -->
<g id="node3" class="node">
<title>integer</title>
<g id="a_node3"><a xlink:href="PsyllaReference_Types.xhtml#PsyllaReference_Types_Details_integer" xlink:title="integer" target="_parent">
<polygon fill="wheat" stroke="black" points="79,-36 16,-36 16,0 85,0 85,-30 79,-36"/>
<polyline fill="none" stroke="black" points="79,-36 79,-30 "/>
<polyline fill="none" stroke="black" points="85,-30 79,-30 "/>
<text text-anchor="middle" x="50.5" y="-14.9" font-family="Source Code Pro,monospace" font-size="12.00">integer</text>
</a>
</g>
</g>
<!-- bitwise&#45;&gt;integer -->
<g id="edge1" class="edge">
<title>bitwise&#45;&gt;integer</title>
<path fill="none" stroke="black" d="M31.06,-359.59C26.09,-332.9 17.5,-280.19 17.5,-235 17.5,-235 17.5,-235 17.5,-161 17.5,-119.97 30.73,-73.97 40.44,-45.74"/>
<polygon fill="black" stroke="black" points="43.78,-46.78 43.82,-36.19 37.18,-44.45 43.78,-46.78"/>
</g>
<!-- integral&#45;&gt;integer -->
<g id="edge2" class="edge">
<title>integral&#45;&gt;integer</title>
<path fill="none" stroke="black" d="M76.1,-71.7C72.23,-63.73 67.55,-54.1 63.26,-45.26"/>
<polygon fill="black" stroke="black" points="66.33,-43.57 58.81,-36.1 60.03,-46.63 66.33,-43.57"/>
</g>
<!-- logical -->
<g id="node4" class="node">
<title>logical</title>
<g id="a_node4"><a xlink:href="PsyllaReference_Types.xhtml#PsyllaReference_Types_Details_logical" xlink:title="logical" target="_parent">
<polygon fill="linen" stroke="black" points="74,-468 11,-468 11,-432 80,-432 80,-462 74,-468"/>
<polyline fill="none" stroke="black" points="74,-468 74,-462 "/>
<polyline fill="none" stroke="black" points="80,-462 74,-462 "/>
<text text-anchor="middle" x="45.5" y="-446.9" font-family="Source Code Pro,monospace" font-size="12.00">logical</text>
</a>
</g>
</g>
<!-- logical&#45;&gt;bitwise -->
<g id="edge3" class="edge">
<title>logical&#45;&gt;bitwise</title>
<path fill="none" stroke="black" d="M42.78,-431.7C41.57,-423.98 40.11,-414.71 38.76,-406.11"/>
<polygon fill="black" stroke="black" points="42.2,-405.44 37.19,-396.1 35.28,-406.53 42.2,-405.44"/>
</g>
<!-- rational -->
<g id="node5" class="node">
<title>rational</title>
<g id="a_node5"><a xlink:href="PsyllaReference_Types.xhtml#PsyllaReference_Types_Details_rational" xlink:title="rational" target="_parent">
<polygon fill="linen" stroke="black" points="221,-180 150,-180 150,-144 227,-144 227,-174 221,-180"/>
<polyline fill="none" stroke="black" points="221,-180 221,-174 "/>
<polyline fill="none" stroke="black" points="227,-174 221,-174 "/>
<text text-anchor="middle" x="188.5" y="-158.9" font-family="Source Code Pro,monospace" font-size="12.00">rational</text>
</a>
</g>
</g>
<!-- rational&#45;&gt;integral -->
<g id="edge5" class="edge">
<title>rational&#45;&gt;integral</title>
<path fill="none" stroke="black" d="M163.06,-143.88C149.71,-134.89 133.18,-123.76 118.72,-114.03"/>
<polygon fill="black" stroke="black" points="120.29,-110.87 110.04,-108.19 116.38,-116.68 120.29,-110.87"/>
</g>
<!-- object -->
<g id="node6" class="node">
<title>object</title>
<g id="a_node6"><a xlink:href="PsyllaReference_Types.xhtml#PsyllaReference_Types_Details_object" xlink:title="object" target="_parent">
<polygon fill="linen" stroke="black" points="328.5,-540 272.5,-540 272.5,-504 334.5,-504 334.5,-534 328.5,-540"/>
<polyline fill="none" stroke="black" points="328.5,-540 328.5,-534 "/>
<polyline fill="none" stroke="black" points="334.5,-534 328.5,-534 "/>
<text text-anchor="middle" x="303.5" y="-518.9" font-family="Source Code Pro,monospace" font-size="12.00">object</text>
</a>
</g>
</g>
<!-- object&#45;&gt;logical -->
<g id="edge6" class="edge">
<title>object&#45;&gt;logical</title>
<path fill="none" stroke="black" d="M272.42,-512.93C233.22,-502.71 163.76,-484.43 104.5,-468 99.8,-466.7 94.9,-465.32 90.02,-463.93"/>
<polygon fill="black" stroke="black" points="90.67,-460.48 80.1,-461.1 88.75,-467.21 90.67,-460.48"/>
</g>
<!-- convertabletointeger -->
<g id="node9" class="node">
<title>convertabletointeger</title>
<g id="a_node9"><a xlink:href="PsyllaReference_Types.xhtml#PsyllaReference_Types_Details_convertabletointeger" xlink:title="convertabletointeger" target="_parent">
<polygon fill="linen" stroke="black" points="332,-324 171,-324 171,-288 338,-288 338,-318 332,-324"/>
<polyline fill="none" stroke="black" points="332,-324 332,-318 "/>
<polyline fill="none" stroke="black" points="338,-318 332,-318 "/>
<text text-anchor="middle" x="254.5" y="-302.9" font-family="Source Code Pro,monospace" font-size="12.00">convertabletointeger</text>
</a>
</g>
</g>
<!-- object&#45;&gt;convertabletointeger -->
<g id="edge14" class="edge">
<title>object&#45;&gt;convertabletointeger</title>
<path fill="none" stroke="black" d="M334.52,-506.11C349.2,-497.26 365.29,-484.52 373.5,-468 380.62,-453.67 379.44,-446.86 373.5,-432 356.34,-389.08 316.64,-352.5 287.81,-330.2"/>
<polygon fill="black" stroke="black" points="289.71,-327.25 279.62,-324.02 285.49,-332.83 289.71,-327.25"/>
</g>
<!-- convertabletointegral -->
<g id="node10" class="node">
<title>convertabletointegral</title>
<g id="a_node10"><a xlink:href="PsyllaReference_Types.xhtml#PsyllaReference_Types_Details_convertabletointegral" xlink:title="convertabletointegral" target="_parent">
<polygon fill="linen" stroke="black" points="524.5,-324 356.5,-324 356.5,-288 530.5,-288 530.5,-318 524.5,-324"/>
<polyline fill="none" stroke="black" points="524.5,-324 524.5,-318 "/>
<polyline fill="none" stroke="black" points="530.5,-318 524.5,-318 "/>
<text text-anchor="middle" x="443.5" y="-302.9" font-family="Source Code Pro,monospace" font-size="12.00">convertabletointegral</text>
</a>
</g>
</g>
<!-- object&#45;&gt;convertabletointegral -->
<g id="edge15" class="edge">
<title>object&#45;&gt;convertabletointegral</title>
<path fill="none" stroke="black" d="M334.77,-508.3C353.03,-499.45 375.21,-485.99 389.5,-468 421.18,-428.1 434.69,-368.71 440.13,-334.32"/>
<polygon fill="black" stroke="black" points="443.65,-334.49 441.63,-324.09 436.72,-333.48 443.65,-334.49"/>
</g>
<!-- scalar -->
<g id="node11" class="node">
<title>scalar</title>
<g id="a_node11"><a xlink:href="PsyllaReference_Types.xhtml#PsyllaReference_Types_Details_scalar" xlink:title="scalar" target="_parent">
<polygon fill="linen" stroke="black" points="551.5,-396 495.5,-396 495.5,-360 557.5,-360 557.5,-390 551.5,-396"/>
<polyline fill="none" stroke="black" points="551.5,-396 551.5,-390 "/>
<polyline fill="none" stroke="black" points="557.5,-390 551.5,-390 "/>
<text text-anchor="middle" x="526.5" y="-374.9" font-family="Source Code Pro,monospace" font-size="12.00">scalar</text>
</a>
</g>
</g>
<!-- object&#45;&gt;scalar -->
<g id="edge16" class="edge">
<title>object&#45;&gt;scalar</title>
<path fill="none" stroke="black" d="M334.66,-514.72C366,-507.31 414.69,-492.77 450.5,-468 474.99,-451.06 496.35,-424.35 510.13,-404.6"/>
<polygon fill="black" stroke="black" points="513.2,-406.32 515.92,-396.08 507.41,-402.39 513.2,-406.32"/>
</g>
<!-- atomic -->
<g id="node12" class="node">
<title>atomic</title>
<g id="a_node12"><a xlink:href="PsyllaReference_Types.xhtml#PsyllaReference_Types_Details_atomic" xlink:title="atomic" target="_parent">
<polygon fill="linen" stroke="black" points="143.5,-396 87.5,-396 87.5,-360 149.5,-360 149.5,-390 143.5,-396"/>
<polyline fill="none" stroke="black" points="143.5,-396 143.5,-390 "/>
<polyline fill="none" stroke="black" points="149.5,-390 143.5,-390 "/>
<text text-anchor="middle" x="118.5" y="-374.9" font-family="Source Code Pro,monospace" font-size="12.00">atomic</text>
</a>
</g>
</g>
<!-- object&#45;&gt;atomic -->
<g id="edge17" class="edge">
<title>object&#45;&gt;atomic</title>
<path fill="none" stroke="black" d="M272.49,-519.91C235.17,-516.87 173.21,-505.98 138.5,-468 123.26,-451.33 118.8,-425.62 117.83,-406.11"/>
<polygon fill="black" stroke="black" points="121.32,-405.93 117.6,-396.01 114.33,-406.08 121.32,-405.93"/>
</g>
<!-- additive -->
<g id="node14" class="node">
<title>additive</title>
<g id="a_node14"><a xlink:href="PsyllaReference_Types.xhtml#PsyllaReference_Types_Details_additive" xlink:title="additive" target="_parent">
<polygon fill="linen" stroke="black" points="218,-468 147,-468 147,-432 224,-432 224,-462 218,-468"/>
<polyline fill="none" stroke="black" points="218,-468 218,-462 "/>
<polyline fill="none" stroke="black" points="224,-462 218,-462 "/>
<text text-anchor="middle" x="185.5" y="-446.9" font-family="Source Code Pro,monospace" font-size="12.00">additive</text>
</a>
</g>
</g>
<!-- object&#45;&gt;additive -->
<g id="edge20" class="edge">
<title>object&#45;&gt;additive</title>
<path fill="none" stroke="black" d="M274.63,-503.88C259.21,-494.72 240.02,-483.34 223.4,-473.48"/>
<polygon fill="black" stroke="black" points="224.86,-470.28 214.48,-468.19 221.29,-476.3 224.86,-470.28"/>
</g>
<!-- multiplicative -->
<g id="node15" class="node">
<title>multiplicative</title>
<g id="a_node15"><a xlink:href="PsyllaReference_Types.xhtml#PsyllaReference_Types_Details_multiplicative" xlink:title="multiplicative" target="_parent">
<polygon fill="linen" stroke="black" points="358.5,-468 242.5,-468 242.5,-432 364.5,-432 364.5,-462 358.5,-468"/>
<polyline fill="none" stroke="black" points="358.5,-468 358.5,-462 "/>
<polyline fill="none" stroke="black" points="364.5,-462 358.5,-462 "/>
<text text-anchor="middle" x="303.5" y="-446.9" font-family="Source Code Pro,monospace" font-size="12.00">multiplicative</text>
</a>
</g>
</g>
<!-- object&#45;&gt;multiplicative -->
<g id="edge21" class="edge">
<title>object&#45;&gt;multiplicative</title>
<path fill="none" stroke="black" d="M303.5,-503.7C303.5,-495.98 303.5,-486.71 303.5,-478.11"/>
<polygon fill="black" stroke="black" points="307,-478.1 303.5,-468.1 300,-478.1 307,-478.1"/>
</g>
<!-- realnumeric -->
<g id="node7" class="node">
<title>realnumeric</title>
<g id="a_node7"><a xlink:href="PsyllaReference_Types.xhtml#PsyllaReference_Types_Details_realnumeric" xlink:title="realnumeric" target="_parent">
<polygon fill="linen" stroke="black" points="298,-252 205,-252 205,-216 304,-216 304,-246 298,-252"/>
<polyline fill="none" stroke="black" points="298,-252 298,-246 "/>
<polyline fill="none" stroke="black" points="304,-246 298,-246 "/>
<text text-anchor="middle" x="254.5" y="-230.9" font-family="Source Code Pro,monospace" font-size="12.00">realnumeric</text>
</a>
</g>
</g>
<!-- realnumeric&#45;&gt;rational -->
<g id="edge7" class="edge">
<title>realnumeric&#45;&gt;rational</title>
<path fill="none" stroke="black" d="M238.19,-215.7C230.19,-207.22 220.43,-196.86 211.68,-187.58"/>
<polygon fill="black" stroke="black" points="214.03,-184.98 204.63,-180.1 208.94,-189.78 214.03,-184.98"/>
</g>
<!-- numeric -->
<g id="node8" class="node">
<title>numeric</title>
<g id="a_node8"><a xlink:href="PsyllaReference_Types.xhtml#PsyllaReference_Types_Details_numeric" xlink:title="numeric" target="_parent">
<polygon fill="linen" stroke="black" points="147,-324 84,-324 84,-288 153,-288 153,-318 147,-324"/>
<polyline fill="none" stroke="black" points="147,-324 147,-318 "/>
<polyline fill="none" stroke="black" points="153,-318 147,-318 "/>
<text text-anchor="middle" x="118.5" y="-302.9" font-family="Source Code Pro,monospace" font-size="12.00">numeric</text>
</a>
</g>
</g>
<!-- numeric&#45;&gt;realnumeric -->
<g id="edge8" class="edge">
<title>numeric&#45;&gt;realnumeric</title>
<path fill="none" stroke="black" d="M151.77,-287.88C169.96,-278.51 192.69,-266.81 212.14,-256.8"/>
<polygon fill="black" stroke="black" points="213.81,-259.88 221.1,-252.19 210.61,-253.65 213.81,-259.88"/>
</g>
<!-- convertabletointeger&#45;&gt;realnumeric -->
<g id="edge9" class="edge">
<title>convertabletointeger&#45;&gt;realnumeric</title>
<path fill="none" stroke="black" d="M254.5,-287.7C254.5,-279.98 254.5,-270.71 254.5,-262.11"/>
<polygon fill="black" stroke="black" points="258,-262.1 254.5,-252.1 251,-262.1 258,-262.1"/>
</g>
<!-- convertabletointegral&#45;&gt;realnumeric -->
<g id="edge10" class="edge">
<title>convertabletointegral&#45;&gt;realnumeric</title>
<path fill="none" stroke="black" d="M397.27,-287.88C370.97,-278.14 337.86,-265.87 310.14,-255.61"/>
<polygon fill="black" stroke="black" points="311.18,-252.26 300.58,-252.07 308.75,-258.82 311.18,-252.26"/>
</g>
<!-- scalar&#45;&gt;realnumeric -->
<g id="edge11" class="edge">
<title>scalar&#45;&gt;realnumeric</title>
<path fill="none" stroke="black" d="M536,-359.83C545.43,-340.2 556.27,-308.17 539.5,-288 511.46,-254.27 389.49,-241.9 314.49,-237.44"/>
<polygon fill="black" stroke="black" points="314.41,-233.93 304.23,-236.86 314.02,-240.92 314.41,-233.93"/>
</g>
<!-- atomic&#45;&gt;numeric -->
<g id="edge12" class="edge">
<title>atomic&#45;&gt;numeric</title>
<path fill="none" stroke="black" d="M118.5,-359.7C118.5,-351.98 118.5,-342.71 118.5,-334.11"/>
<polygon fill="black" stroke="black" points="122,-334.1 118.5,-324.1 115,-334.1 122,-334.1"/>
</g>
<!-- arithmetic -->
<g id="node13" class="node">
<title>arithmetic</title>
<g id="a_node13"><a xlink:href="PsyllaReference_Types.xhtml#PsyllaReference_Types_Details_arithmetic" xlink:title="arithmetic" target="_parent">
<polygon fill="linen" stroke="black" points="253.5,-396 167.5,-396 167.5,-360 259.5,-360 259.5,-390 253.5,-396"/>
<polyline fill="none" stroke="black" points="253.5,-396 253.5,-390 "/>
<polyline fill="none" stroke="black" points="259.5,-390 253.5,-390 "/>
<text text-anchor="middle" x="213.5" y="-374.9" font-family="Source Code Pro,monospace" font-size="12.00">arithmetic</text>
</a>
</g>
</g>
<!-- arithmetic&#45;&gt;numeric -->
<g id="edge13" class="edge">
<title>arithmetic&#45;&gt;numeric</title>
<path fill="none" stroke="black" d="M190.02,-359.7C177.94,-350.8 163.05,-339.82 149.98,-330.2"/>
<polygon fill="black" stroke="black" points="151.84,-327.22 141.71,-324.1 147.69,-332.85 151.84,-327.22"/>
</g>
<!-- additive&#45;&gt;arithmetic -->
<g id="edge18" class="edge">
<title>additive&#45;&gt;arithmetic</title>
<path fill="none" stroke="black" d="M192.42,-431.7C195.57,-423.81 199.38,-414.3 202.88,-405.55"/>
<polygon fill="black" stroke="black" points="206.19,-406.69 206.66,-396.1 199.69,-404.09 206.19,-406.69"/>
</g>
<!-- multiplicative&#45;&gt;arithmetic -->
<g id="edge19" class="edge">
<title>multiplicative&#45;&gt;arithmetic</title>
<path fill="none" stroke="black" d="M281.25,-431.7C269.92,-422.88 255.97,-412.03 243.68,-402.47"/>
<polygon fill="black" stroke="black" points="245.53,-399.48 235.49,-396.1 241.24,-405.01 245.53,-399.48"/>
</g>
</g>
</svg>
