<?xml version="1.0" encoding="UTF-8" standalone="no"?>
<!DOCTYPE svg PUBLIC "-//W3C//DTD SVG 1.1//EN"
 "http://www.w3.org/Graphics/SVG/1.1/DTD/svg11.dtd">
<!-- Generated by graphviz version 14.0.0 (0)
 -->
<!-- Title: string Pages: 1 -->
<svg width="655pt" height="404pt"
 viewBox="0.00 0.00 655.00 404.00" xmlns="http://www.w3.org/2000/svg" xmlns:xlink="http://www.w3.org/1999/xlink">
<g id="graph0" class="graph" transform="scale(1 1) rotate(0) translate(4 400)">
<title>string</title>
<polygon fill="none" stroke="none" points="-4,4 -4,-400 651.33,-400 651.33,4 -4,4"/>
<!-- textual -->
<g id="node1" class="node">
<title>textual</title>
<g id="a_node1"><a xlink:href="PsyllaReference_Types.xhtml#PsyllaReference_Types_Details_textual" xlink:title="textual" target="_parent">
<polygon fill="linen" stroke="black" points="390,-108 342,-108 342,-72 396,-72 396,-102 390,-108"/>
<polyline fill="none" stroke="black" points="390,-108 390,-102"/>
<polyline fill="none" stroke="black" points="396,-102 390,-102"/>
<text xml:space="preserve" text-anchor="middle" x="369" y="-86.4" font-family="Source Code Pro,monospace" font-size="12.00">textual</text>
</a>
</g>
</g>
<!-- string -->
<g id="node4" class="node">
<title>string</title>
<g id="a_node4"><a xlink:href="PsyllaReference_Types.xhtml#PsyllaReference_Types_Details_string" xlink:title="string" target="_parent">
<polygon fill="wheat" stroke="black" points="110,-36 62,-36 62,0 116,0 116,-30 110,-36"/>
<polyline fill="none" stroke="black" points="110,-36 110,-30"/>
<polyline fill="none" stroke="black" points="116,-30 110,-30"/>
<text xml:space="preserve" text-anchor="middle" x="89" y="-14.4" font-family="Source Code Pro,monospace" font-size="12.00">string</text>
</a>
</g>
</g>
<!-- textual&#45;&gt;string -->
<g id="edge1" class="edge">
<title>textual&#45;&gt;string</title>
<path fill="none" stroke="black" d="M341.64,-82.16C291.56,-69.64 185.03,-43.01 127.6,-28.65"/>
<polygon fill="black" stroke="black" points="128.49,-25.26 117.94,-26.23 126.79,-32.06 128.49,-25.26"/>
</g>
<!-- value -->
<g id="node2" class="node">
<title>value</title>
<g id="a_node2"><a xlink:href="PsyllaReference_Types.xhtml#PsyllaReference_Types_Details_value" xlink:title="value" target="_parent">
<polygon fill="linen" stroke="black" points="48,-252 0,-252 0,-216 54,-216 54,-246 48,-252"/>
<polyline fill="none" stroke="black" points="48,-252 48,-246"/>
<polyline fill="none" stroke="black" points="54,-246 48,-246"/>
<text xml:space="preserve" text-anchor="middle" x="27" y="-230.4" font-family="Source Code Pro,monospace" font-size="12.00">value</text>
</a>
</g>
</g>
<!-- value&#45;&gt;string -->
<g id="edge2" class="edge">
<title>value&#45;&gt;string</title>
<path fill="none" stroke="black" d="M28.63,-215.71C30.59,-197.62 34.45,-168.48 41,-144 50.17,-109.72 65.46,-71.89 76.32,-46.92"/>
<polygon fill="black" stroke="black" points="79.52,-48.36 80.35,-37.8 73.11,-45.53 79.52,-48.36"/>
</g>
<!-- concatenable -->
<g id="node3" class="node">
<title>concatenable</title>
<g id="a_node3"><a xlink:href="PsyllaReference_Types.xhtml#PsyllaReference_Types_Details_concatenable" xlink:title="concatenable" target="_parent">
<polygon fill="linen" stroke="black" points="122.31,-180 49.69,-180 49.69,-144 128.31,-144 128.31,-174 122.31,-180"/>
<polyline fill="none" stroke="black" points="122.31,-180 122.31,-174"/>
<polyline fill="none" stroke="black" points="128.31,-174 122.31,-174"/>
<text xml:space="preserve" text-anchor="middle" x="89" y="-158.4" font-family="Source Code Pro,monospace" font-size="12.00">concatenable</text>
</a>
</g>
</g>
<!-- concatenable&#45;&gt;string -->
<g id="edge3" class="edge">
<title>concatenable&#45;&gt;string</title>
<path fill="none" stroke="black" d="M89,-143.59C89,-119.61 89,-76.14 89,-47.42"/>
<polygon fill="black" stroke="black" points="92.5,-47.62 89,-37.62 85.5,-47.62 92.5,-47.62"/>
</g>
<!-- evaluable -->
<g id="node5" class="node">
<title>evaluable</title>
<g id="a_node5"><a xlink:href="PsyllaReference_Types.xhtml#PsyllaReference_Types_Details_evaluable" xlink:title="evaluable" target="_parent">
<polygon fill="linen" stroke="black" points="198.99,-252 143.01,-252 143.01,-216 204.99,-216 204.99,-246 198.99,-252"/>
<polyline fill="none" stroke="black" points="198.99,-252 198.99,-246"/>
<polyline fill="none" stroke="black" points="204.99,-246 198.99,-246"/>
<text xml:space="preserve" text-anchor="middle" x="174" y="-230.4" font-family="Source Code Pro,monospace" font-size="12.00">evaluable</text>
</a>
</g>
</g>
<!-- evaluable&#45;&gt;textual -->
<g id="edge4" class="edge">
<title>evaluable&#45;&gt;textual</title>
<path fill="none" stroke="black" d="M168.56,-215.61C163.61,-196.07 159.23,-164.42 175,-144 193.91,-119.52 279.59,-103.54 330.54,-96.01"/>
<polygon fill="black" stroke="black" points="330.87,-99.5 340.27,-94.63 329.88,-92.57 330.87,-99.5"/>
</g>
<!-- convertabletointeger -->
<g id="node6" class="node">
<title>convertabletointeger</title>
<g id="a_node6"><a xlink:href="PsyllaReference_Types.xhtml#PsyllaReference_Types_Details_convertabletointeger" xlink:title="convertabletointeger" target="_parent">
<polygon fill="linen" stroke="black" points="292.31,-180 183.69,-180 183.69,-144 298.31,-144 298.31,-174 292.31,-180"/>
<polyline fill="none" stroke="black" points="292.31,-180 292.31,-174"/>
<polyline fill="none" stroke="black" points="298.31,-174 292.31,-174"/>
<text xml:space="preserve" text-anchor="middle" x="241" y="-158.4" font-family="Source Code Pro,monospace" font-size="12.00">convertabletointeger</text>
</a>
</g>
</g>
<!-- convertabletointeger&#45;&gt;textual -->
<g id="edge5" class="edge">
<title>convertabletointeger&#45;&gt;textual</title>
<path fill="none" stroke="black" d="M272.97,-143.52C290.84,-133.74 313.2,-121.52 331.84,-111.32"/>
<polygon fill="black" stroke="black" points="333.34,-114.49 340.44,-106.62 329.98,-108.35 333.34,-114.49"/>
</g>
<!-- convertabletointegral -->
<g id="node7" class="node">
<title>convertabletointegral</title>
<g id="a_node7"><a xlink:href="PsyllaReference_Types.xhtml#PsyllaReference_Types_Details_convertabletointegral" xlink:title="convertabletointegral" target="_parent">
<polygon fill="linen" stroke="black" points="377.98,-252 266.02,-252 266.02,-216 383.98,-216 383.98,-246 377.98,-252"/>
<polyline fill="none" stroke="black" points="377.98,-252 377.98,-246"/>
<polyline fill="none" stroke="black" points="383.98,-246 377.98,-246"/>
<text xml:space="preserve" text-anchor="middle" x="325" y="-230.4" font-family="Source Code Pro,monospace" font-size="12.00">convertabletointegral</text>
</a>
</g>
</g>
<!-- convertabletointegral&#45;&gt;textual -->
<g id="edge6" class="edge">
<title>convertabletointegral&#45;&gt;textual</title>
<path fill="none" stroke="black" d="M327.81,-215.65C331.01,-197.51 336.85,-168.33 345,-144 347.82,-135.57 351.54,-126.67 355.2,-118.63"/>
<polygon fill="black" stroke="black" points="358.33,-120.21 359.43,-109.67 352,-117.22 358.33,-120.21"/>
</g>
<!-- convertabletorational -->
<g id="node8" class="node">
<title>convertabletorational</title>
<g id="a_node8"><a xlink:href="PsyllaReference_Types.xhtml#PsyllaReference_Types_Details_convertabletorational" xlink:title="convertabletorational" target="_parent">
<polygon fill="linen" stroke="black" points="465.98,-180 354.02,-180 354.02,-144 471.98,-144 471.98,-174 465.98,-180"/>
<polyline fill="none" stroke="black" points="465.98,-180 465.98,-174"/>
<polyline fill="none" stroke="black" points="471.98,-174 465.98,-174"/>
<text xml:space="preserve" text-anchor="middle" x="413" y="-158.4" font-family="Source Code Pro,monospace" font-size="12.00">convertabletorational</text>
</a>
</g>
</g>
<!-- convertabletorational&#45;&gt;textual -->
<g id="edge7" class="edge">
<title>convertabletorational&#45;&gt;textual</title>
<path fill="none" stroke="black" d="M402.12,-143.7C397.22,-135.9 391.32,-126.51 385.86,-117.83"/>
<polygon fill="black" stroke="black" points="388.84,-115.99 380.56,-109.39 382.92,-119.71 388.84,-115.99"/>
</g>
<!-- iterable -->
<g id="node9" class="node">
<title>iterable</title>
<g id="a_node9"><a xlink:href="PsyllaReference_Types.xhtml#PsyllaReference_Types_Details_iterable" xlink:title="iterable" target="_parent">
<polygon fill="linen" stroke="black" points="620,-180 572,-180 572,-144 626,-144 626,-174 620,-180"/>
<polyline fill="none" stroke="black" points="620,-180 620,-174"/>
<polyline fill="none" stroke="black" points="626,-174 620,-174"/>
<text xml:space="preserve" text-anchor="middle" x="599" y="-158.4" font-family="Source Code Pro,monospace" font-size="12.00">iterable</text>
</a>
</g>
</g>
<!-- iterable&#45;&gt;textual -->
<g id="edge8" class="edge">
<title>iterable&#45;&gt;textual</title>
<path fill="none" stroke="black" d="M571.77,-150.81C565.31,-148.49 558.44,-146.09 552,-144 502.4,-127.87 444.47,-111.5 407.29,-101.31"/>
<polygon fill="black" stroke="black" points="408.48,-98 397.91,-98.75 406.64,-104.76 408.48,-98"/>
</g>
<!-- lengthy -->
<g id="node10" class="node">
<title>lengthy</title>
<g id="a_node10"><a xlink:href="PsyllaReference_Types.xhtml#PsyllaReference_Types_Details_lengthy" xlink:title="lengthy" target="_parent">
<polygon fill="linen" stroke="black" points="487,-324 439,-324 439,-288 493,-288 493,-318 487,-324"/>
<polyline fill="none" stroke="black" points="487,-324 487,-318"/>
<polyline fill="none" stroke="black" points="493,-318 487,-318"/>
<text xml:space="preserve" text-anchor="middle" x="466" y="-302.4" font-family="Source Code Pro,monospace" font-size="12.00">lengthy</text>
</a>
</g>
</g>
<!-- lengthy&#45;&gt;textual -->
<g id="edge9" class="edge">
<title>lengthy&#45;&gt;textual</title>
<path fill="none" stroke="black" d="M473.96,-287.89C487.21,-256.63 509.68,-189.3 481,-144 464.86,-118.51 432.79,-105.04 407.09,-98.07"/>
<polygon fill="black" stroke="black" points="408.19,-94.74 397.64,-95.75 406.52,-101.54 408.19,-94.74"/>
</g>
<!-- scalar -->
<g id="node11" class="node">
<title>scalar</title>
<g id="a_node11"><a xlink:href="PsyllaReference_Types.xhtml#PsyllaReference_Types_Details_scalar" xlink:title="scalar" target="_parent">
<polygon fill="linen" stroke="black" points="559,-324 511,-324 511,-288 565,-288 565,-318 559,-324"/>
<polyline fill="none" stroke="black" points="559,-324 559,-318"/>
<polyline fill="none" stroke="black" points="565,-318 559,-318"/>
<text xml:space="preserve" text-anchor="middle" x="538" y="-302.4" font-family="Source Code Pro,monospace" font-size="12.00">scalar</text>
</a>
</g>
</g>
<!-- scalar&#45;&gt;textual -->
<g id="edge10" class="edge">
<title>scalar&#45;&gt;textual</title>
<path fill="none" stroke="black" d="M538.93,-287.69C539.71,-255.49 536.79,-185.85 501,-144 477.41,-116.41 437.39,-103.03 407.59,-96.64"/>
<polygon fill="black" stroke="black" points="408.29,-93.21 397.81,-94.73 406.95,-100.08 408.29,-93.21"/>
</g>
<!-- object -->
<g id="node12" class="node">
<title>object</title>
<g id="a_node12"><a xlink:href="PsyllaReference_Types.xhtml#PsyllaReference_Types_Details_object" xlink:title="object" target="_parent">
<polygon fill="linen" stroke="black" points="346,-396 298,-396 298,-360 352,-360 352,-390 346,-396"/>
<polyline fill="none" stroke="black" points="346,-396 346,-390"/>
<polyline fill="none" stroke="black" points="352,-390 346,-390"/>
<text xml:space="preserve" text-anchor="middle" x="325" y="-374.4" font-family="Source Code Pro,monospace" font-size="12.00">object</text>
</a>
</g>
</g>
<!-- object&#45;&gt;value -->
<g id="edge11" class="edge">
<title>object&#45;&gt;value</title>
<path fill="none" stroke="black" d="M297.54,-376.99C250.97,-375.72 155.23,-367.52 90,-324 67.31,-308.86 50.2,-282.57 39.58,-262.47"/>
<polygon fill="black" stroke="black" points="42.79,-261.05 35.17,-253.69 36.53,-264.2 42.79,-261.05"/>
</g>
<!-- object&#45;&gt;concatenable -->
<g id="edge12" class="edge">
<title>object&#45;&gt;concatenable</title>
<path fill="none" stroke="black" d="M297.72,-370.38C269.55,-362.61 225.25,-347.67 193,-324 145.96,-289.48 114.56,-226.71 99.45,-190.59"/>
<polygon fill="black" stroke="black" points="102.85,-189.65 95.86,-181.69 96.36,-192.28 102.85,-189.65"/>
</g>
<!-- object&#45;&gt;evaluable -->
<g id="edge13" class="edge">
<title>object&#45;&gt;evaluable</title>
<path fill="none" stroke="black" d="M297.91,-367.74C275.9,-359.14 245.16,-344.56 224,-324 206.26,-306.76 193,-281.85 184.61,-262.77"/>
<polygon fill="black" stroke="black" points="187.9,-261.58 180.82,-253.71 181.44,-264.28 187.9,-261.58"/>
</g>
<!-- object&#45;&gt;convertabletointeger -->
<g id="edge14" class="edge">
<title>object&#45;&gt;convertabletointeger</title>
<path fill="none" stroke="black" d="M313.19,-359.63C297.85,-336.22 271.34,-292.79 257,-252 250.15,-232.51 246.11,-209.53 243.81,-191.81"/>
<polygon fill="black" stroke="black" points="247.3,-191.51 242.65,-181.98 240.34,-192.33 247.3,-191.51"/>
</g>
<!-- object&#45;&gt;convertabletointegral -->
<g id="edge15" class="edge">
<title>object&#45;&gt;convertabletointegral</title>
<path fill="none" stroke="black" d="M325,-359.59C325,-335.61 325,-292.14 325,-263.42"/>
<polygon fill="black" stroke="black" points="328.5,-263.62 325,-253.62 321.5,-263.62 328.5,-263.62"/>
</g>
<!-- object&#45;&gt;convertabletorational -->
<g id="edge16" class="edge">
<title>object&#45;&gt;convertabletorational</title>
<path fill="none" stroke="black" d="M336.55,-359.53C351.6,-336.02 377.78,-292.47 393,-252 400.34,-232.49 405.42,-209.51 408.62,-191.79"/>
<polygon fill="black" stroke="black" points="412.06,-192.41 410.29,-181.97 405.16,-191.24 412.06,-192.41"/>
</g>
<!-- object&#45;&gt;lengthy -->
<g id="edge18" class="edge">
<title>object&#45;&gt;lengthy</title>
<path fill="none" stroke="black" d="M352.19,-363.5C373.94,-352.71 404.66,-337.45 428.71,-325.51"/>
<polygon fill="black" stroke="black" points="430.14,-328.71 437.54,-321.13 427.03,-322.44 430.14,-328.71"/>
</g>
<!-- object&#45;&gt;scalar -->
<g id="edge19" class="edge">
<title>object&#45;&gt;scalar</title>
<path fill="none" stroke="black" d="M352.41,-370.16C385.51,-361.62 442.94,-345.85 500.02,-324.48"/>
<polygon fill="black" stroke="black" points="501.15,-327.8 509.25,-320.97 498.66,-321.25 501.15,-327.8"/>
</g>
<!-- sequential -->
<g id="node14" class="node">
<title>sequential</title>
<g id="a_node14"><a xlink:href="PsyllaReference_Types.xhtml#PsyllaReference_Types_Details_sequential" xlink:title="sequential" target="_parent">
<polygon fill="linen" stroke="black" points="641.33,-324 582.67,-324 582.67,-288 647.33,-288 647.33,-318 641.33,-324"/>
<polyline fill="none" stroke="black" points="641.33,-324 641.33,-318"/>
<polyline fill="none" stroke="black" points="647.33,-318 641.33,-318"/>
<text xml:space="preserve" text-anchor="middle" x="615" y="-302.4" font-family="Source Code Pro,monospace" font-size="12.00">sequential</text>
</a>
</g>
</g>
<!-- object&#45;&gt;sequential -->
<g id="edge21" class="edge">
<title>object&#45;&gt;sequential</title>
<path fill="none" stroke="black" d="M352.32,-372.87C396.69,-365.81 487.25,-349.91 571.72,-324.42"/>
<polygon fill="black" stroke="black" points="572.55,-327.83 581.08,-321.54 570.49,-321.14 572.55,-327.83"/>
</g>
<!-- streamable -->
<g id="node13" class="node">
<title>streamable</title>
<g id="a_node13"><a xlink:href="PsyllaReference_Types.xhtml#PsyllaReference_Types_Details_streamable" xlink:title="streamable" target="_parent">
<polygon fill="linen" stroke="black" points="637.99,-252 576.01,-252 576.01,-216 643.99,-216 643.99,-246 637.99,-252"/>
<polyline fill="none" stroke="black" points="637.99,-252 637.99,-246"/>
<polyline fill="none" stroke="black" points="643.99,-246 637.99,-246"/>
<text xml:space="preserve" text-anchor="middle" x="610" y="-230.4" font-family="Source Code Pro,monospace" font-size="12.00">streamable</text>
</a>
</g>
</g>
<!-- streamable&#45;&gt;iterable -->
<g id="edge17" class="edge">
<title>streamable&#45;&gt;iterable</title>
<path fill="none" stroke="black" d="M607.28,-215.7C606.12,-208.32 604.74,-199.52 603.44,-191.25"/>
<polygon fill="black" stroke="black" points="606.93,-190.93 601.92,-181.6 600.02,-192.02 606.93,-190.93"/>
</g>
<!-- sequential&#45;&gt;streamable -->
<g id="edge20" class="edge">
<title>sequential&#45;&gt;streamable</title>
<path fill="none" stroke="black" d="M613.76,-287.7C613.24,-280.41 612.62,-271.73 612.04,-263.54"/>
<polygon fill="black" stroke="black" points="615.53,-263.34 611.33,-253.61 608.55,-263.84 615.53,-263.34"/>
</g>
</g>
</svg>
