<?xml version="1.0" encoding="UTF-8" standalone="no"?>
<!DOCTYPE svg PUBLIC "-//W3C//DTD SVG 1.1//EN"
 "http://www.w3.org/Graphics/SVG/1.1/DTD/svg11.dtd">
<!-- Generated by graphviz version 2.49.3 (0)
 -->
<!-- Title: convertabletointeger Pages: 1 -->
<svg width="123pt" height="116pt"
 viewBox="0.00 0.00 122.62 116.00" xmlns="http://www.w3.org/2000/svg" xmlns:xlink="http://www.w3.org/1999/xlink">
<g id="graph0" class="graph" transform="scale(1 1) rotate(0) translate(4 112)">
<title>convertabletointeger</title>
<polygon fill="transparent" stroke="transparent" points="-4,4 -4,-112 118.62,-112 118.62,4 -4,4"/>
<!-- object -->
<g id="node1" class="node">
<title>object</title>
<g id="a_node1"><a xlink:href="PsyllaReference_Types.xhtml#PsyllaReference_Types_Details_object" xlink:title="object" target="_parent">
<polygon fill="linen" stroke="black" points="78.31,-108 30.31,-108 30.31,-72 84.31,-72 84.31,-102 78.31,-108"/>
<polyline fill="none" stroke="black" points="78.31,-108 78.31,-102 "/>
<polyline fill="none" stroke="black" points="84.31,-102 78.31,-102 "/>
<text text-anchor="middle" x="57.31" y="-86.4" font-family="Source Code Pro,monospace" font-size="12.00">object</text>
</a>
</g>
</g>
<!-- convertabletointeger -->
<g id="node2" class="node">
<title>convertabletointeger</title>
<g id="a_node2"><a xlink:href="PsyllaReference_Types.xhtml#PsyllaReference_Types_Details_convertabletointeger" xlink:title="convertabletointeger" target="_parent">
<polygon fill="wheat" stroke="black" points="108.44,-36 0.19,-36 0.19,0 114.44,0 114.44,-30 108.44,-36"/>
<polyline fill="none" stroke="black" points="108.44,-36 108.44,-30 "/>
<polyline fill="none" stroke="black" points="114.44,-30 108.44,-30 "/>
<text text-anchor="middle" x="57.31" y="-14.4" font-family="Source Code Pro,monospace" font-size="12.00">convertabletointeger</text>
</a>
</g>
</g>
<!-- object&#45;&gt;convertabletointeger -->
<g id="edge1" class="edge">
<title>object&#45;&gt;convertabletointeger</title>
<path fill="none" stroke="black" d="M57.31,-71.7C57.31,-63.98 57.31,-54.71 57.31,-46.11"/>
<polygon fill="black" stroke="black" points="60.81,-46.1 57.31,-36.1 53.81,-46.1 60.81,-46.1"/>
</g>
</g>
</svg>
