<?xml version="1.0" encoding="UTF-8" standalone="no"?>
<!DOCTYPE svg PUBLIC "-//W3C//DTD SVG 1.1//EN"
 "http://www.w3.org/Graphics/SVG/1.1/DTD/svg11.dtd">
<!-- Generated by graphviz version 2.43.0 (0)
 -->
<!-- Title: filereader Pages: 1 -->
<svg width="359pt" height="332pt"
 viewBox="0.00 0.00 359.00 332.00" xmlns="http://www.w3.org/2000/svg" xmlns:xlink="http://www.w3.org/1999/xlink">
<g id="graph0" class="graph" transform="scale(1 1) rotate(0) translate(4 328)">
<title>filereader</title>
<polygon fill="transparent" stroke="transparent" points="-4,4 -4,-328 355,-328 355,4 -4,4"/>
<!-- reader -->
<g id="node1" class="node">
<title>reader</title>
<g id="a_node1"><a xlink:href="PsyllaReference_Types.xhtml#PsyllaReference_Types_Details_reader" xlink:title="reader" target="_parent">
<polygon fill="linen" stroke="black" points="218.5,-108 158.5,-108 158.5,-72 224.5,-72 224.5,-102 218.5,-108"/>
<polyline fill="none" stroke="black" points="218.5,-108 218.5,-102 "/>
<polyline fill="none" stroke="black" points="224.5,-102 218.5,-102 "/>
<text text-anchor="middle" x="191.5" y="-86.3" font-family="Consolas, monospace" font-size="14.00">reader</text>
</a>
</g>
</g>
<!-- filereader -->
<g id="node2" class="node">
<title>filereader</title>
<g id="a_node2"><a xlink:href="PsyllaReference_Types.xhtml#PsyllaReference_Types_Details_filereader" xlink:title="filereader" target="_parent">
<polygon fill="wheat" stroke="black" points="235,-36 142,-36 142,0 241,0 241,-30 235,-36"/>
<polyline fill="none" stroke="black" points="235,-36 235,-30 "/>
<polyline fill="none" stroke="black" points="241,-30 235,-30 "/>
<text text-anchor="middle" x="191.5" y="-14.3" font-family="Consolas, monospace" font-size="14.00">filereader</text>
</a>
</g>
</g>
<!-- reader&#45;&gt;filereader -->
<g id="edge1" class="edge">
<title>reader&#45;&gt;filereader</title>
<path fill="none" stroke="black" d="M191.5,-71.7C191.5,-63.98 191.5,-54.71 191.5,-46.11"/>
<polygon fill="black" stroke="black" points="195,-46.1 191.5,-36.1 188,-46.1 195,-46.1"/>
</g>
<!-- closeable -->
<g id="node3" class="node">
<title>closeable</title>
<g id="a_node3"><a xlink:href="PsyllaReference_Types.xhtml#PsyllaReference_Types_Details_closeable" xlink:title="closeable" target="_parent">
<polygon fill="linen" stroke="black" points="85,-180 0,-180 0,-144 91,-144 91,-174 85,-180"/>
<polyline fill="none" stroke="black" points="85,-180 85,-174 "/>
<polyline fill="none" stroke="black" points="91,-174 85,-174 "/>
<text text-anchor="middle" x="45.5" y="-158.3" font-family="Consolas, monospace" font-size="14.00">closeable</text>
</a>
</g>
</g>
<!-- closeable&#45;&gt;reader -->
<g id="edge2" class="edge">
<title>closeable&#45;&gt;reader</title>
<path fill="none" stroke="black" d="M81.22,-143.88C101.66,-134.07 127.44,-121.72 148.93,-111.41"/>
<polygon fill="black" stroke="black" points="150.65,-114.47 158.15,-106.99 147.62,-108.15 150.65,-114.47"/>
</g>
<!-- evaluable -->
<g id="node4" class="node">
<title>evaluable</title>
<g id="a_node4"><a xlink:href="PsyllaReference_Types.xhtml#PsyllaReference_Types_Details_evaluable" xlink:title="evaluable" target="_parent">
<polygon fill="linen" stroke="black" points="194,-180 109,-180 109,-144 200,-144 200,-174 194,-180"/>
<polyline fill="none" stroke="black" points="194,-180 194,-174 "/>
<polyline fill="none" stroke="black" points="200,-174 194,-174 "/>
<text text-anchor="middle" x="154.5" y="-158.3" font-family="Consolas, monospace" font-size="14.00">evaluable</text>
</a>
</g>
</g>
<!-- evaluable&#45;&gt;reader -->
<g id="edge3" class="edge">
<title>evaluable&#45;&gt;reader</title>
<path fill="none" stroke="black" d="M163.65,-143.7C167.9,-135.64 173.06,-125.89 177.77,-116.98"/>
<polygon fill="black" stroke="black" points="180.88,-118.58 182.46,-108.1 174.69,-115.31 180.88,-118.58"/>
</g>
<!-- readable -->
<g id="node5" class="node">
<title>readable</title>
<g id="a_node5"><a xlink:href="PsyllaReference_Types.xhtml#PsyllaReference_Types_Details_readable" xlink:title="readable" target="_parent">
<polygon fill="linen" stroke="black" points="345,-180 268,-180 268,-144 351,-144 351,-174 345,-180"/>
<polyline fill="none" stroke="black" points="345,-180 345,-174 "/>
<polyline fill="none" stroke="black" points="351,-174 345,-174 "/>
<text text-anchor="middle" x="309.5" y="-158.3" font-family="Consolas, monospace" font-size="14.00">readable</text>
</a>
</g>
</g>
<!-- readable&#45;&gt;reader -->
<g id="edge4" class="edge">
<title>readable&#45;&gt;reader</title>
<path fill="none" stroke="black" d="M280.63,-143.88C265.21,-134.72 246.02,-123.34 229.4,-113.48"/>
<polygon fill="black" stroke="black" points="230.86,-110.28 220.48,-108.19 227.29,-116.3 230.86,-110.28"/>
</g>
<!-- resetable -->
<g id="node6" class="node">
<title>resetable</title>
<g id="a_node6"><a xlink:href="PsyllaReference_Types.xhtml#PsyllaReference_Types_Details_resetable" xlink:title="resetable" target="_parent">
<polygon fill="linen" stroke="black" points="262,-252 177,-252 177,-216 268,-216 268,-246 262,-252"/>
<polyline fill="none" stroke="black" points="262,-252 262,-246 "/>
<polyline fill="none" stroke="black" points="268,-246 262,-246 "/>
<text text-anchor="middle" x="222.5" y="-230.3" font-family="Consolas, monospace" font-size="14.00">resetable</text>
</a>
</g>
</g>
<!-- resetable&#45;&gt;reader -->
<g id="edge5" class="edge">
<title>resetable&#45;&gt;reader</title>
<path fill="none" stroke="black" d="M220.59,-215.79C218.41,-197.74 214.36,-168.65 208.5,-144 206.47,-135.44 203.73,-126.27 201.05,-118.01"/>
<polygon fill="black" stroke="black" points="204.35,-116.84 197.86,-108.47 197.71,-119.07 204.35,-116.84"/>
</g>
<!-- object -->
<g id="node7" class="node">
<title>object</title>
<g id="a_node7"><a xlink:href="PsyllaReference_Types.xhtml#PsyllaReference_Types_Details_object" xlink:title="object" target="_parent">
<polygon fill="linen" stroke="black" points="212.5,-324 152.5,-324 152.5,-288 218.5,-288 218.5,-318 212.5,-324"/>
<polyline fill="none" stroke="black" points="212.5,-324 212.5,-318 "/>
<polyline fill="none" stroke="black" points="218.5,-318 212.5,-318 "/>
<text text-anchor="middle" x="185.5" y="-302.3" font-family="Consolas, monospace" font-size="14.00">object</text>
</a>
</g>
</g>
<!-- object&#45;&gt;closeable -->
<g id="edge6" class="edge">
<title>object&#45;&gt;closeable</title>
<path fill="none" stroke="black" d="M168.61,-287.87C143.91,-262.82 97.8,-216.05 69.56,-187.41"/>
<polygon fill="black" stroke="black" points="71.96,-184.85 62.45,-180.19 66.98,-189.77 71.96,-184.85"/>
</g>
<!-- object&#45;&gt;evaluable -->
<g id="edge7" class="edge">
<title>object&#45;&gt;evaluable</title>
<path fill="none" stroke="black" d="M178.68,-287.57C174.91,-277.34 170.41,-264.09 167.5,-252 162.6,-231.63 159.26,-208.17 157.2,-190.45"/>
<polygon fill="black" stroke="black" points="160.65,-189.8 156.08,-180.24 153.69,-190.56 160.65,-189.8"/>
</g>
<!-- object&#45;&gt;resetable -->
<g id="edge9" class="edge">
<title>object&#45;&gt;resetable</title>
<path fill="none" stroke="black" d="M194.65,-287.7C198.9,-279.64 204.06,-269.89 208.77,-260.98"/>
<polygon fill="black" stroke="black" points="211.88,-262.58 213.46,-252.1 205.69,-259.31 211.88,-262.58"/>
</g>
<!-- ready -->
<g id="node8" class="node">
<title>ready</title>
<g id="a_node8"><a xlink:href="PsyllaReference_Types.xhtml#PsyllaReference_Types_Details_ready" xlink:title="ready" target="_parent">
<polygon fill="linen" stroke="black" points="338.5,-252 286.5,-252 286.5,-216 344.5,-216 344.5,-246 338.5,-252"/>
<polyline fill="none" stroke="black" points="338.5,-252 338.5,-246 "/>
<polyline fill="none" stroke="black" points="344.5,-246 338.5,-246 "/>
<text text-anchor="middle" x="315.5" y="-230.3" font-family="Consolas, monospace" font-size="14.00">ready</text>
</a>
</g>
</g>
<!-- object&#45;&gt;ready -->
<g id="edge10" class="edge">
<title>object&#45;&gt;ready</title>
<path fill="none" stroke="black" d="M217.3,-287.88C235.39,-278.14 258.16,-265.87 277.23,-255.61"/>
<polygon fill="black" stroke="black" points="279.1,-258.57 286.25,-250.75 275.79,-252.41 279.1,-258.57"/>
</g>
<!-- ready&#45;&gt;readable -->
<g id="edge8" class="edge">
<title>ready&#45;&gt;readable</title>
<path fill="none" stroke="black" d="M314.02,-215.7C313.36,-207.98 312.56,-198.71 311.82,-190.11"/>
<polygon fill="black" stroke="black" points="315.31,-189.77 310.97,-180.1 308.33,-190.37 315.31,-189.77"/>
</g>
</g>
</svg>
