<?xml version="1.0" encoding="UTF-8" standalone="no"?>
<!DOCTYPE svg PUBLIC "-//W3C//DTD SVG 1.1//EN"
 "http://www.w3.org/Graphics/SVG/1.1/DTD/svg11.dtd">
<!-- Generated by graphviz version 2.43.0 (0)
 -->
<!-- Title: mark Pages: 1 -->
<svg width="70pt" height="188pt"
 viewBox="0.00 0.00 70.00 188.00" xmlns="http://www.w3.org/2000/svg" xmlns:xlink="http://www.w3.org/1999/xlink">
<g id="graph0" class="graph" transform="scale(1 1) rotate(0) translate(4 184)">
<title>mark</title>
<polygon fill="transparent" stroke="transparent" points="-4,4 -4,-184 66,-184 66,4 -4,4"/>
<!-- atomic -->
<g id="node1" class="node">
<title>atomic</title>
<g id="a_node1"><a xlink:href="PsyllaReference_Types.xhtml#PsyllaReference_Types_Details_atomic" xlink:title="atomic" target="_parent">
<polygon fill="linen" stroke="black" points="56,-108 0,-108 0,-72 62,-72 62,-102 56,-108"/>
<polyline fill="none" stroke="black" points="56,-108 56,-102 "/>
<polyline fill="none" stroke="black" points="62,-102 56,-102 "/>
<text text-anchor="middle" x="31" y="-86.9" font-family="Source Code Pro,monospace" font-size="12.00">atomic</text>
</a>
</g>
</g>
<!-- mark -->
<g id="node2" class="node">
<title>mark</title>
<g id="a_node2"><a xlink:href="PsyllaReference_Types.xhtml#PsyllaReference_Types_Details_mark" xlink:title="mark" target="_parent">
<polygon fill="wheat" stroke="black" points="52,-36 4,-36 4,0 58,0 58,-30 52,-36"/>
<polyline fill="none" stroke="black" points="52,-36 52,-30 "/>
<polyline fill="none" stroke="black" points="58,-30 52,-30 "/>
<text text-anchor="middle" x="31" y="-14.9" font-family="Source Code Pro,monospace" font-size="12.00">mark</text>
</a>
</g>
</g>
<!-- atomic&#45;&gt;mark -->
<g id="edge1" class="edge">
<title>atomic&#45;&gt;mark</title>
<path fill="none" stroke="black" d="M31,-71.7C31,-63.98 31,-54.71 31,-46.11"/>
<polygon fill="black" stroke="black" points="34.5,-46.1 31,-36.1 27.5,-46.1 34.5,-46.1"/>
</g>
<!-- object -->
<g id="node3" class="node">
<title>object</title>
<g id="a_node3"><a xlink:href="PsyllaReference_Types.xhtml#PsyllaReference_Types_Details_object" xlink:title="object" target="_parent">
<polygon fill="linen" stroke="black" points="56,-180 0,-180 0,-144 62,-144 62,-174 56,-180"/>
<polyline fill="none" stroke="black" points="56,-180 56,-174 "/>
<polyline fill="none" stroke="black" points="62,-174 56,-174 "/>
<text text-anchor="middle" x="31" y="-158.9" font-family="Source Code Pro,monospace" font-size="12.00">object</text>
</a>
</g>
</g>
<!-- object&#45;&gt;atomic -->
<g id="edge2" class="edge">
<title>object&#45;&gt;atomic</title>
<path fill="none" stroke="black" d="M31,-143.7C31,-135.98 31,-126.71 31,-118.11"/>
<polygon fill="black" stroke="black" points="34.5,-118.1 31,-108.1 27.5,-118.1 34.5,-118.1"/>
</g>
</g>
</svg>
