<?xml version="1.0" encoding="UTF-8" standalone="no"?>
<!DOCTYPE svg PUBLIC "-//W3C//DTD SVG 1.1//EN"
 "http://www.w3.org/Graphics/SVG/1.1/DTD/svg11.dtd">
<!-- Generated by graphviz version 2.49.3 (0)
 -->
<!-- Title: resetable Pages: 1 -->
<svg width="67pt" height="116pt"
 viewBox="0.00 0.00 66.64 116.00" xmlns="http://www.w3.org/2000/svg" xmlns:xlink="http://www.w3.org/1999/xlink">
<g id="graph0" class="graph" transform="scale(1 1) rotate(0) translate(4 112)">
<title>resetable</title>
<polygon fill="transparent" stroke="transparent" points="-4,4 -4,-112 62.64,-112 62.64,4 -4,4"/>
<!-- object -->
<g id="node1" class="node">
<title>object</title>
<g id="a_node1"><a xlink:href="PsyllaReference_Types.xhtml#PsyllaReference_Types_Details_object" xlink:title="object" target="_parent">
<polygon fill="linen" stroke="black" points="50.32,-108 2.32,-108 2.32,-72 56.32,-72 56.32,-102 50.32,-108"/>
<polyline fill="none" stroke="black" points="50.32,-108 50.32,-102 "/>
<polyline fill="none" stroke="black" points="56.32,-102 50.32,-102 "/>
<text text-anchor="middle" x="29.32" y="-86.4" font-family="Source Code Pro,monospace" font-size="12.00">object</text>
</a>
</g>
</g>
<!-- resetable -->
<g id="node2" class="node">
<title>resetable</title>
<g id="a_node2"><a xlink:href="PsyllaReference_Types.xhtml#PsyllaReference_Types_Details_resetable" xlink:title="resetable" target="_parent">
<polygon fill="wheat" stroke="black" points="52.46,-36 0.18,-36 0.18,0 58.46,0 58.46,-30 52.46,-36"/>
<polyline fill="none" stroke="black" points="52.46,-36 52.46,-30 "/>
<polyline fill="none" stroke="black" points="58.46,-30 52.46,-30 "/>
<text text-anchor="middle" x="29.32" y="-14.4" font-family="Source Code Pro,monospace" font-size="12.00">resetable</text>
</a>
</g>
</g>
<!-- object&#45;&gt;resetable -->
<g id="edge1" class="edge">
<title>object&#45;&gt;resetable</title>
<path fill="none" stroke="black" d="M29.32,-71.7C29.32,-63.98 29.32,-54.71 29.32,-46.11"/>
<polygon fill="black" stroke="black" points="32.82,-46.1 29.32,-36.1 25.82,-46.1 32.82,-46.1"/>
</g>
</g>
</svg>
