<?xml version="1.0" encoding="UTF-8" standalone="no"?>
<!DOCTYPE svg PUBLIC "-//W3C//DTD SVG 1.1//EN"
 "http://www.w3.org/Graphics/SVG/1.1/DTD/svg11.dtd">
<!-- Generated by graphviz version 2.49.3 (0)
 -->
<!-- Title: formalstream Pages: 1 -->
<svg width="223pt" height="260pt"
 viewBox="0.00 0.00 222.65 260.00" xmlns="http://www.w3.org/2000/svg" xmlns:xlink="http://www.w3.org/1999/xlink">
<g id="graph0" class="graph" transform="scale(1 1) rotate(0) translate(4 256)">
<title>formalstream</title>
<polygon fill="transparent" stroke="transparent" points="-4,4 -4,-256 218.65,-256 218.65,4 -4,4"/>
<!-- streamable -->
<g id="node1" class="node">
<title>streamable</title>
<g id="a_node1"><a xlink:href="PsyllaReference_Types.xhtml#PsyllaReference_Types_Details_streamable" xlink:title="streamable" target="_parent">
<polygon fill="linen" stroke="black" points="196.3,-108 134.35,-108 134.35,-72 202.3,-72 202.3,-102 196.3,-108"/>
<polyline fill="none" stroke="black" points="196.3,-108 196.3,-102 "/>
<polyline fill="none" stroke="black" points="202.3,-102 196.3,-102 "/>
<text text-anchor="middle" x="168.32" y="-86.4" font-family="Source Code Pro,monospace" font-size="12.00">streamable</text>
</a>
</g>
</g>
<!-- formalstream -->
<g id="node4" class="node">
<title>formalstream</title>
<g id="a_node4"><a xlink:href="PsyllaReference_Types.xhtml#PsyllaReference_Types_Details_formalstream" xlink:title="formalstream" target="_parent">
<polygon fill="wheat" stroke="black" points="126.29,-36 52.35,-36 52.35,0 132.29,0 132.29,-30 126.29,-36"/>
<polyline fill="none" stroke="black" points="126.29,-36 126.29,-30 "/>
<polyline fill="none" stroke="black" points="132.29,-30 126.29,-30 "/>
<text text-anchor="middle" x="92.32" y="-14.4" font-family="Source Code Pro,monospace" font-size="12.00">formalstream</text>
</a>
</g>
</g>
<!-- streamable&#45;&gt;formalstream -->
<g id="edge1" class="edge">
<title>streamable&#45;&gt;formalstream</title>
<path fill="none" stroke="black" d="M149.54,-71.7C140.15,-63.05 128.64,-52.45 118.41,-43.03"/>
<polygon fill="black" stroke="black" points="120.62,-40.3 110.89,-36.1 115.88,-45.45 120.62,-40.3"/>
</g>
<!-- closeable -->
<g id="node2" class="node">
<title>closeable</title>
<g id="a_node2"><a xlink:href="PsyllaReference_Types.xhtml#PsyllaReference_Types_Details_closeable" xlink:title="closeable" target="_parent">
<polygon fill="linen" stroke="black" points="54.47,-108 0.18,-108 0.18,-72 60.47,-72 60.47,-102 54.47,-108"/>
<polyline fill="none" stroke="black" points="54.47,-108 54.47,-102 "/>
<polyline fill="none" stroke="black" points="60.47,-102 54.47,-102 "/>
<text text-anchor="middle" x="30.32" y="-86.4" font-family="Source Code Pro,monospace" font-size="12.00">closeable</text>
</a>
</g>
</g>
<!-- closeable&#45;&gt;formalstream -->
<g id="edge2" class="edge">
<title>closeable&#45;&gt;formalstream</title>
<path fill="none" stroke="black" d="M45.65,-71.7C53.08,-63.3 62.15,-53.07 70.3,-43.86"/>
<polygon fill="black" stroke="black" points="73.16,-45.91 77.17,-36.1 67.92,-41.27 73.16,-45.91"/>
</g>
<!-- concatenable -->
<g id="node3" class="node">
<title>concatenable</title>
<g id="a_node3"><a xlink:href="PsyllaReference_Types.xhtml#PsyllaReference_Types_Details_concatenable" xlink:title="concatenable" target="_parent">
<polygon fill="linen" stroke="black" points="125.45,-180 53.19,-180 53.19,-144 131.45,-144 131.45,-174 125.45,-180"/>
<polyline fill="none" stroke="black" points="125.45,-180 125.45,-174 "/>
<polyline fill="none" stroke="black" points="131.45,-174 125.45,-174 "/>
<text text-anchor="middle" x="92.32" y="-158.4" font-family="Source Code Pro,monospace" font-size="12.00">concatenable</text>
</a>
</g>
</g>
<!-- concatenable&#45;&gt;formalstream -->
<g id="edge3" class="edge">
<title>concatenable&#45;&gt;formalstream</title>
<path fill="none" stroke="black" d="M92.32,-143.87C92.32,-119.67 92.32,-75.21 92.32,-46.39"/>
<polygon fill="black" stroke="black" points="95.82,-46.19 92.32,-36.19 88.82,-46.19 95.82,-46.19"/>
</g>
<!-- sequential -->
<g id="node5" class="node">
<title>sequential</title>
<g id="a_node5"><a xlink:href="PsyllaReference_Types.xhtml#PsyllaReference_Types_Details_sequential" xlink:title="sequential" target="_parent">
<polygon fill="linen" stroke="black" points="208.47,-180 150.17,-180 150.17,-144 214.47,-144 214.47,-174 208.47,-180"/>
<polyline fill="none" stroke="black" points="208.47,-180 208.47,-174 "/>
<polyline fill="none" stroke="black" points="214.47,-174 208.47,-174 "/>
<text text-anchor="middle" x="182.32" y="-158.4" font-family="Source Code Pro,monospace" font-size="12.00">sequential</text>
</a>
</g>
</g>
<!-- sequential&#45;&gt;streamable -->
<g id="edge4" class="edge">
<title>sequential&#45;&gt;streamable</title>
<path fill="none" stroke="black" d="M178.86,-143.7C177.32,-135.98 175.46,-126.71 173.74,-118.11"/>
<polygon fill="black" stroke="black" points="177.14,-117.22 171.74,-108.1 170.27,-118.6 177.14,-117.22"/>
</g>
<!-- object -->
<g id="node6" class="node">
<title>object</title>
<g id="a_node6"><a xlink:href="PsyllaReference_Types.xhtml#PsyllaReference_Types_Details_object" xlink:title="object" target="_parent">
<polygon fill="linen" stroke="black" points="113.32,-252 65.32,-252 65.32,-216 119.32,-216 119.32,-246 113.32,-252"/>
<polyline fill="none" stroke="black" points="113.32,-252 113.32,-246 "/>
<polyline fill="none" stroke="black" points="119.32,-246 113.32,-246 "/>
<text text-anchor="middle" x="92.32" y="-230.4" font-family="Source Code Pro,monospace" font-size="12.00">object</text>
</a>
</g>
</g>
<!-- object&#45;&gt;closeable -->
<g id="edge5" class="edge">
<title>object&#45;&gt;closeable</title>
<path fill="none" stroke="black" d="M72.01,-215.87C62.06,-206.34 50.85,-193.66 44.32,-180 35.12,-160.74 31.75,-136.73 30.61,-118.5"/>
<polygon fill="black" stroke="black" points="34.09,-118.09 30.16,-108.25 27.1,-118.4 34.09,-118.09"/>
</g>
<!-- object&#45;&gt;concatenable -->
<g id="edge6" class="edge">
<title>object&#45;&gt;concatenable</title>
<path fill="none" stroke="black" d="M92.32,-215.7C92.32,-207.98 92.32,-198.71 92.32,-190.11"/>
<polygon fill="black" stroke="black" points="95.82,-190.1 92.32,-180.1 88.82,-190.1 95.82,-190.1"/>
</g>
<!-- object&#45;&gt;sequential -->
<g id="edge7" class="edge">
<title>object&#45;&gt;sequential</title>
<path fill="none" stroke="black" d="M114.57,-215.7C125.9,-206.88 139.85,-196.03 152.14,-186.47"/>
<polygon fill="black" stroke="black" points="154.59,-189.01 160.33,-180.1 150.29,-183.48 154.59,-189.01"/>
</g>
</g>
</svg>
