<?xml version="1.0" encoding="UTF-8" standalone="no"?>
<!DOCTYPE svg PUBLIC "-//W3C//DTD SVG 1.1//EN"
 "http://www.w3.org/Graphics/SVG/1.1/DTD/svg11.dtd">
<!-- Generated by graphviz version 2.43.0 (0)
 -->
<!-- Title: numeric Pages: 1 -->
<svg width="252pt" height="260pt"
 viewBox="0.00 0.00 252.00 260.00" xmlns="http://www.w3.org/2000/svg" xmlns:xlink="http://www.w3.org/1999/xlink">
<g id="graph0" class="graph" transform="scale(1 1) rotate(0) translate(4 256)">
<title>numeric</title>
<polygon fill="transparent" stroke="transparent" points="-4,4 -4,-256 248,-256 248,4 -4,4"/>
<!-- atomic -->
<g id="node1" class="node">
<title>atomic</title>
<g id="a_node1"><a xlink:href="PsyllaReference_Types.xhtml#PsyllaReference_Types_Details_atomic" xlink:title="atomic" target="_parent">
<polygon fill="linen" stroke="black" points="83,-108 0,-108 0,-72 89,-72 89,-102 83,-108"/>
<polyline fill="none" stroke="black" points="83,-108 83,-102 "/>
<polyline fill="none" stroke="black" points="89,-102 83,-102 "/>
<text text-anchor="middle" x="44.5" y="-85" font-family="PT Mono, monospace" font-size="20.00">atomic</text>
</a>
</g>
</g>
<!-- numeric -->
<g id="node3" class="node">
<title>numeric</title>
<g id="a_node3"><a xlink:href="PsyllaReference_Types.xhtml#PsyllaReference_Types_Details_numeric" xlink:title="numeric" target="_parent">
<polygon fill="wheat" stroke="black" points="154,-36 59,-36 59,0 160,0 160,-30 154,-36"/>
<polyline fill="none" stroke="black" points="154,-36 154,-30 "/>
<polyline fill="none" stroke="black" points="160,-30 154,-30 "/>
<text text-anchor="middle" x="109.5" y="-13" font-family="PT Mono, monospace" font-size="20.00">numeric</text>
</a>
</g>
</g>
<!-- atomic&#45;&gt;numeric -->
<g id="edge1" class="edge">
<title>atomic&#45;&gt;numeric</title>
<path fill="none" stroke="black" d="M60.57,-71.7C68.44,-63.22 78.06,-52.86 86.67,-43.58"/>
<polygon fill="black" stroke="black" points="89.38,-45.81 93.62,-36.1 84.25,-41.05 89.38,-45.81"/>
</g>
<!-- arithmetic -->
<g id="node2" class="node">
<title>arithmetic</title>
<g id="a_node2"><a xlink:href="PsyllaReference_Types.xhtml#PsyllaReference_Types_Details_arithmetic" xlink:title="arithmetic" target="_parent">
<polygon fill="linen" stroke="black" points="238,-108 107,-108 107,-72 244,-72 244,-102 238,-108"/>
<polyline fill="none" stroke="black" points="238,-108 238,-102 "/>
<polyline fill="none" stroke="black" points="244,-102 238,-102 "/>
<text text-anchor="middle" x="175.5" y="-85" font-family="PT Mono, monospace" font-size="20.00">arithmetic</text>
</a>
</g>
</g>
<!-- arithmetic&#45;&gt;numeric -->
<g id="edge2" class="edge">
<title>arithmetic&#45;&gt;numeric</title>
<path fill="none" stroke="black" d="M159.19,-71.7C151.19,-63.22 141.43,-52.86 132.68,-43.58"/>
<polygon fill="black" stroke="black" points="135.03,-40.98 125.63,-36.1 129.94,-45.78 135.03,-40.98"/>
</g>
<!-- object -->
<g id="node4" class="node">
<title>object</title>
<g id="a_node4"><a xlink:href="PsyllaReference_Types.xhtml#PsyllaReference_Types_Details_object" xlink:title="object" target="_parent">
<polygon fill="linen" stroke="black" points="148,-252 65,-252 65,-216 154,-216 154,-246 148,-252"/>
<polyline fill="none" stroke="black" points="148,-252 148,-246 "/>
<polyline fill="none" stroke="black" points="154,-246 148,-246 "/>
<text text-anchor="middle" x="109.5" y="-229" font-family="PT Mono, monospace" font-size="20.00">object</text>
</a>
</g>
</g>
<!-- object&#45;&gt;atomic -->
<g id="edge3" class="edge">
<title>object&#45;&gt;atomic</title>
<path fill="none" stroke="black" d="M101.66,-215.87C90.48,-191.46 69.87,-146.43 56.69,-117.64"/>
<polygon fill="black" stroke="black" points="59.71,-115.83 52.37,-108.19 53.35,-118.74 59.71,-115.83"/>
</g>
<!-- additive -->
<g id="node5" class="node">
<title>additive</title>
<g id="a_node5"><a xlink:href="PsyllaReference_Types.xhtml#PsyllaReference_Types_Details_additive" xlink:title="additive" target="_parent">
<polygon fill="linen" stroke="black" points="214,-180 107,-180 107,-144 220,-144 220,-174 214,-180"/>
<polyline fill="none" stroke="black" points="214,-180 214,-174 "/>
<polyline fill="none" stroke="black" points="220,-174 214,-174 "/>
<text text-anchor="middle" x="163.5" y="-157" font-family="PT Mono, monospace" font-size="20.00">additive</text>
</a>
</g>
</g>
<!-- object&#45;&gt;additive -->
<g id="edge5" class="edge">
<title>object&#45;&gt;additive</title>
<path fill="none" stroke="black" d="M122.85,-215.7C129.26,-207.39 137.06,-197.28 144.11,-188.14"/>
<polygon fill="black" stroke="black" points="146.97,-190.16 150.31,-180.1 141.43,-185.88 146.97,-190.16"/>
</g>
<!-- additive&#45;&gt;arithmetic -->
<g id="edge4" class="edge">
<title>additive&#45;&gt;arithmetic</title>
<path fill="none" stroke="black" d="M166.47,-143.7C167.79,-135.98 169.38,-126.71 170.85,-118.11"/>
<polygon fill="black" stroke="black" points="174.33,-118.55 172.57,-108.1 167.43,-117.37 174.33,-118.55"/>
</g>
</g>
</svg>
