<?xml version="1.0" encoding="UTF-8" standalone="no"?>
<!DOCTYPE svg PUBLIC "-//W3C//DTD SVG 1.1//EN"
 "http://www.w3.org/Graphics/SVG/1.1/DTD/svg11.dtd">
<!-- Generated by graphviz version 2.43.0 (0)
 -->
<!-- Title: realnumeric Pages: 1 -->
<svg width="354pt" height="332pt"
 viewBox="0.00 0.00 354.00 332.00" xmlns="http://www.w3.org/2000/svg" xmlns:xlink="http://www.w3.org/1999/xlink">
<g id="graph0" class="graph" transform="scale(1 1) rotate(0) translate(4 328)">
<title>realnumeric</title>
<polygon fill="transparent" stroke="transparent" points="-4,4 -4,-328 350,-328 350,4 -4,4"/>
<!-- numeric -->
<g id="node1" class="node">
<title>numeric</title>
<g id="a_node1"><a xlink:href="PsyllaReference_Types.xhtml#PsyllaReference_Types_Details_numeric" xlink:title="numeric" target="_parent">
<polygon fill="linen" stroke="black" points="139.5,-108 76.5,-108 76.5,-72 145.5,-72 145.5,-102 139.5,-108"/>
<polyline fill="none" stroke="black" points="139.5,-108 139.5,-102 "/>
<polyline fill="none" stroke="black" points="145.5,-102 139.5,-102 "/>
<text text-anchor="middle" x="111" y="-86.9" font-family="PT Mono, monospace" font-size="12.00">numeric</text>
</a>
</g>
</g>
<!-- realnumeric -->
<g id="node3" class="node">
<title>realnumeric</title>
<g id="a_node3"><a xlink:href="PsyllaReference_Types.xhtml#PsyllaReference_Types_Details_realnumeric" xlink:title="realnumeric" target="_parent">
<polygon fill="wheat" stroke="black" points="114.5,-36 21.5,-36 21.5,0 120.5,0 120.5,-30 114.5,-36"/>
<polyline fill="none" stroke="black" points="114.5,-36 114.5,-30 "/>
<polyline fill="none" stroke="black" points="120.5,-30 114.5,-30 "/>
<text text-anchor="middle" x="71" y="-14.9" font-family="PT Mono, monospace" font-size="12.00">realnumeric</text>
</a>
</g>
</g>
<!-- numeric&#45;&gt;realnumeric -->
<g id="edge1" class="edge">
<title>numeric&#45;&gt;realnumeric</title>
<path fill="none" stroke="black" d="M101.11,-71.7C96.51,-63.64 90.94,-53.89 85.85,-44.98"/>
<polygon fill="black" stroke="black" points="88.77,-43.05 80.77,-36.1 82.7,-46.52 88.77,-43.05"/>
</g>
<!-- scalar -->
<g id="node2" class="node">
<title>scalar</title>
<g id="a_node2"><a xlink:href="PsyllaReference_Types.xhtml#PsyllaReference_Types_Details_scalar" xlink:title="scalar" target="_parent">
<polygon fill="linen" stroke="black" points="56,-180 0,-180 0,-144 62,-144 62,-174 56,-180"/>
<polyline fill="none" stroke="black" points="56,-180 56,-174 "/>
<polyline fill="none" stroke="black" points="62,-174 56,-174 "/>
<text text-anchor="middle" x="31" y="-158.9" font-family="PT Mono, monospace" font-size="12.00">scalar</text>
</a>
</g>
</g>
<!-- scalar&#45;&gt;realnumeric -->
<g id="edge2" class="edge">
<title>scalar&#45;&gt;realnumeric</title>
<path fill="none" stroke="black" d="M35.82,-143.87C42.67,-119.56 55.28,-74.82 63.39,-46.01"/>
<polygon fill="black" stroke="black" points="66.82,-46.76 66.16,-36.19 60.08,-44.87 66.82,-46.76"/>
</g>
<!-- atomic -->
<g id="node4" class="node">
<title>atomic</title>
<g id="a_node4"><a xlink:href="PsyllaReference_Types.xhtml#PsyllaReference_Types_Details_atomic" xlink:title="atomic" target="_parent">
<polygon fill="linen" stroke="black" points="136,-180 80,-180 80,-144 142,-144 142,-174 136,-180"/>
<polyline fill="none" stroke="black" points="136,-180 136,-174 "/>
<polyline fill="none" stroke="black" points="142,-174 136,-174 "/>
<text text-anchor="middle" x="111" y="-158.9" font-family="PT Mono, monospace" font-size="12.00">atomic</text>
</a>
</g>
</g>
<!-- atomic&#45;&gt;numeric -->
<g id="edge3" class="edge">
<title>atomic&#45;&gt;numeric</title>
<path fill="none" stroke="black" d="M111,-143.7C111,-135.98 111,-126.71 111,-118.11"/>
<polygon fill="black" stroke="black" points="114.5,-118.1 111,-108.1 107.5,-118.1 114.5,-118.1"/>
</g>
<!-- arithmetic -->
<g id="node5" class="node">
<title>arithmetic</title>
<g id="a_node5"><a xlink:href="PsyllaReference_Types.xhtml#PsyllaReference_Types_Details_arithmetic" xlink:title="arithmetic" target="_parent">
<polygon fill="linen" stroke="black" points="246,-180 160,-180 160,-144 252,-144 252,-174 246,-180"/>
<polyline fill="none" stroke="black" points="246,-180 246,-174 "/>
<polyline fill="none" stroke="black" points="252,-174 246,-174 "/>
<text text-anchor="middle" x="206" y="-158.9" font-family="PT Mono, monospace" font-size="12.00">arithmetic</text>
</a>
</g>
</g>
<!-- arithmetic&#45;&gt;numeric -->
<g id="edge4" class="edge">
<title>arithmetic&#45;&gt;numeric</title>
<path fill="none" stroke="black" d="M182.52,-143.7C170.44,-134.8 155.55,-123.82 142.48,-114.2"/>
<polygon fill="black" stroke="black" points="144.34,-111.22 134.21,-108.1 140.19,-116.85 144.34,-111.22"/>
</g>
<!-- object -->
<g id="node6" class="node">
<title>object</title>
<g id="a_node6"><a xlink:href="PsyllaReference_Types.xhtml#PsyllaReference_Types_Details_object" xlink:title="object" target="_parent">
<polygon fill="linen" stroke="black" points="158,-324 102,-324 102,-288 164,-288 164,-318 158,-324"/>
<polyline fill="none" stroke="black" points="158,-324 158,-318 "/>
<polyline fill="none" stroke="black" points="164,-318 158,-318 "/>
<text text-anchor="middle" x="133" y="-302.9" font-family="PT Mono, monospace" font-size="12.00">object</text>
</a>
</g>
</g>
<!-- object&#45;&gt;scalar -->
<g id="edge5" class="edge">
<title>object&#45;&gt;scalar</title>
<path fill="none" stroke="black" d="M120.7,-287.87C102.93,-263.14 69.96,-217.24 49.33,-188.51"/>
<polygon fill="black" stroke="black" points="52.02,-186.27 43.35,-180.19 46.34,-190.35 52.02,-186.27"/>
</g>
<!-- object&#45;&gt;atomic -->
<g id="edge6" class="edge">
<title>object&#45;&gt;atomic</title>
<path fill="none" stroke="black" d="M128.17,-287.94C125.41,-277.62 122.09,-264.14 120,-252 116.46,-231.47 114.16,-208.01 112.77,-190.34"/>
<polygon fill="black" stroke="black" points="116.25,-189.87 112.02,-180.16 109.27,-190.39 116.25,-189.87"/>
</g>
<!-- additive -->
<g id="node7" class="node">
<title>additive</title>
<g id="a_node7"><a xlink:href="PsyllaReference_Types.xhtml#PsyllaReference_Types_Details_additive" xlink:title="additive" target="_parent">
<polygon fill="linen" stroke="black" points="199.5,-252 128.5,-252 128.5,-216 205.5,-216 205.5,-246 199.5,-252"/>
<polyline fill="none" stroke="black" points="199.5,-252 199.5,-246 "/>
<polyline fill="none" stroke="black" points="205.5,-246 199.5,-246 "/>
<text text-anchor="middle" x="167" y="-230.9" font-family="PT Mono, monospace" font-size="12.00">additive</text>
</a>
</g>
</g>
<!-- object&#45;&gt;additive -->
<g id="edge9" class="edge">
<title>object&#45;&gt;additive</title>
<path fill="none" stroke="black" d="M141.4,-287.7C145.27,-279.73 149.95,-270.1 154.24,-261.26"/>
<polygon fill="black" stroke="black" points="157.47,-262.63 158.69,-252.1 151.17,-259.57 157.47,-262.63"/>
</g>
<!-- multiplicative -->
<g id="node8" class="node">
<title>multiplicative</title>
<g id="a_node8"><a xlink:href="PsyllaReference_Types.xhtml#PsyllaReference_Types_Details_multiplicative" xlink:title="multiplicative" target="_parent">
<polygon fill="linen" stroke="black" points="340,-252 224,-252 224,-216 346,-216 346,-246 340,-252"/>
<polyline fill="none" stroke="black" points="340,-252 340,-246 "/>
<polyline fill="none" stroke="black" points="346,-246 340,-246 "/>
<text text-anchor="middle" x="285" y="-230.9" font-family="PT Mono, monospace" font-size="12.00">multiplicative</text>
</a>
</g>
</g>
<!-- object&#45;&gt;multiplicative -->
<g id="edge10" class="edge">
<title>object&#45;&gt;multiplicative</title>
<path fill="none" stroke="black" d="M164.13,-290.67C185.6,-280.78 214.51,-267.46 238.67,-256.33"/>
<polygon fill="black" stroke="black" points="240.4,-259.39 248.02,-252.03 237.47,-253.04 240.4,-259.39"/>
</g>
<!-- additive&#45;&gt;arithmetic -->
<g id="edge7" class="edge">
<title>additive&#45;&gt;arithmetic</title>
<path fill="none" stroke="black" d="M176.64,-215.7C181.13,-207.64 186.56,-197.89 191.52,-188.98"/>
<polygon fill="black" stroke="black" points="194.66,-190.54 196.47,-180.1 188.55,-187.14 194.66,-190.54"/>
</g>
<!-- multiplicative&#45;&gt;arithmetic -->
<g id="edge8" class="edge">
<title>multiplicative&#45;&gt;arithmetic</title>
<path fill="none" stroke="black" d="M265.47,-215.7C255.62,-206.97 243.51,-196.24 232.8,-186.75"/>
<polygon fill="black" stroke="black" points="235.11,-184.12 225.3,-180.1 230.47,-189.36 235.11,-184.12"/>
</g>
</g>
</svg>
