<?xml version="1.0" encoding="UTF-8" standalone="no"?>
<!DOCTYPE svg PUBLIC "-//W3C//DTD SVG 1.1//EN"
 "http://www.w3.org/Graphics/SVG/1.1/DTD/svg11.dtd">
<!-- Generated by graphviz version 2.43.0 (0)
 -->
<!-- Title: regexp Pages: 1 -->
<svg width="62pt" height="188pt"
 viewBox="0.00 0.00 62.00 188.00" xmlns="http://www.w3.org/2000/svg" xmlns:xlink="http://www.w3.org/1999/xlink">
<g id="graph0" class="graph" transform="scale(1 1) rotate(0) translate(4 184)">
<title>regexp</title>
<polygon fill="transparent" stroke="transparent" points="-4,4 -4,-184 58,-184 58,4 -4,4"/>
<!-- atomic -->
<g id="node1" class="node">
<title>atomic</title>
<g id="a_node1"><a xlink:href="PsyllaReference_Types.xhtml#PsyllaReference_Types_Details_atomic" xlink:title="atomic" target="_parent">
<polygon fill="linen" stroke="black" points="48,-108 0,-108 0,-72 54,-72 54,-102 48,-108"/>
<polyline fill="none" stroke="black" points="48,-108 48,-102 "/>
<polyline fill="none" stroke="black" points="54,-102 48,-102 "/>
<text text-anchor="middle" x="27" y="-87.5" font-family="PT Mono, monospace" font-size="10.00">atomic</text>
</a>
</g>
</g>
<!-- regexp -->
<g id="node2" class="node">
<title>regexp</title>
<g id="a_node2"><a xlink:href="PsyllaReference_Types.xhtml#PsyllaReference_Types_Details_regexp" xlink:title="regexp" target="_parent">
<polygon fill="wheat" stroke="black" points="48,-36 0,-36 0,0 54,0 54,-30 48,-36"/>
<polyline fill="none" stroke="black" points="48,-36 48,-30 "/>
<polyline fill="none" stroke="black" points="54,-30 48,-30 "/>
<text text-anchor="middle" x="27" y="-15.5" font-family="PT Mono, monospace" font-size="10.00">regexp</text>
</a>
</g>
</g>
<!-- atomic&#45;&gt;regexp -->
<g id="edge1" class="edge">
<title>atomic&#45;&gt;regexp</title>
<path fill="none" stroke="black" d="M27,-71.7C27,-63.98 27,-54.71 27,-46.11"/>
<polygon fill="black" stroke="black" points="30.5,-46.1 27,-36.1 23.5,-46.1 30.5,-46.1"/>
</g>
<!-- object -->
<g id="node3" class="node">
<title>object</title>
<g id="a_node3"><a xlink:href="PsyllaReference_Types.xhtml#PsyllaReference_Types_Details_object" xlink:title="object" target="_parent">
<polygon fill="linen" stroke="black" points="48,-180 0,-180 0,-144 54,-144 54,-174 48,-180"/>
<polyline fill="none" stroke="black" points="48,-180 48,-174 "/>
<polyline fill="none" stroke="black" points="54,-174 48,-174 "/>
<text text-anchor="middle" x="27" y="-159.5" font-family="PT Mono, monospace" font-size="10.00">object</text>
</a>
</g>
</g>
<!-- object&#45;&gt;atomic -->
<g id="edge2" class="edge">
<title>object&#45;&gt;atomic</title>
<path fill="none" stroke="black" d="M27,-143.7C27,-135.98 27,-126.71 27,-118.11"/>
<polygon fill="black" stroke="black" points="30.5,-118.1 27,-108.1 23.5,-118.1 30.5,-118.1"/>
</g>
</g>
</svg>
