<?xml version="1.0" encoding="UTF-8" standalone="no"?>
<!DOCTYPE svg PUBLIC "-//W3C//DTD SVG 1.1//EN"
 "http://www.w3.org/Graphics/SVG/1.1/DTD/svg11.dtd">
<!-- Generated by graphviz version 2.49.3 (0)
 -->
<!-- Title: operator Pages: 1 -->
<svg width="148pt" height="188pt"
 viewBox="0.00 0.00 147.65 188.00" xmlns="http://www.w3.org/2000/svg" xmlns:xlink="http://www.w3.org/1999/xlink">
<g id="graph0" class="graph" transform="scale(1 1) rotate(0) translate(4 184)">
<title>operator</title>
<polygon fill="transparent" stroke="transparent" points="-4,4 -4,-184 143.65,-184 143.65,4 -4,4"/>
<!-- executable -->
<g id="node1" class="node">
<title>executable</title>
<g id="a_node1"><a xlink:href="PsyllaReference_Types.xhtml#PsyllaReference_Types_Details_executable" xlink:title="executable" target="_parent">
<polygon fill="linen" stroke="black" points="61.46,-108 -0.15,-108 -0.15,-72 67.46,-72 67.46,-102 61.46,-108"/>
<polyline fill="none" stroke="black" points="61.46,-108 61.46,-102 "/>
<polyline fill="none" stroke="black" points="67.46,-102 61.46,-102 "/>
<text text-anchor="middle" x="33.65" y="-86.4" font-family="Source Code Pro,monospace" font-size="12.00">executable</text>
</a>
</g>
</g>
<!-- operator -->
<g id="node3" class="node">
<title>operator</title>
<g id="a_node3"><a xlink:href="PsyllaReference_Types.xhtml#PsyllaReference_Types_Details_operator" xlink:title="operator" target="_parent">
<polygon fill="wheat" stroke="black" points="94.63,-36 44.67,-36 44.67,0 100.63,0 100.63,-30 94.63,-36"/>
<polyline fill="none" stroke="black" points="94.63,-36 94.63,-30 "/>
<polyline fill="none" stroke="black" points="100.63,-30 94.63,-30 "/>
<text text-anchor="middle" x="72.65" y="-14.4" font-family="Source Code Pro,monospace" font-size="12.00">operator</text>
</a>
</g>
</g>
<!-- executable&#45;&gt;operator -->
<g id="edge1" class="edge">
<title>executable&#45;&gt;operator</title>
<path fill="none" stroke="black" d="M43.29,-71.7C47.78,-63.64 53.21,-53.89 58.18,-44.98"/>
<polygon fill="black" stroke="black" points="61.31,-46.54 63.12,-36.1 55.2,-43.14 61.31,-46.54"/>
</g>
<!-- value -->
<g id="node2" class="node">
<title>value</title>
<g id="a_node2"><a xlink:href="PsyllaReference_Types.xhtml#PsyllaReference_Types_Details_value" xlink:title="value" target="_parent">
<polygon fill="linen" stroke="black" points="133.65,-108 85.65,-108 85.65,-72 139.65,-72 139.65,-102 133.65,-108"/>
<polyline fill="none" stroke="black" points="133.65,-108 133.65,-102 "/>
<polyline fill="none" stroke="black" points="139.65,-102 133.65,-102 "/>
<text text-anchor="middle" x="112.65" y="-86.4" font-family="Source Code Pro,monospace" font-size="12.00">value</text>
</a>
</g>
</g>
<!-- value&#45;&gt;operator -->
<g id="edge2" class="edge">
<title>value&#45;&gt;operator</title>
<path fill="none" stroke="black" d="M102.76,-71.7C98.16,-63.64 92.59,-53.89 87.5,-44.98"/>
<polygon fill="black" stroke="black" points="90.43,-43.05 82.43,-36.1 84.35,-46.52 90.43,-43.05"/>
</g>
<!-- object -->
<g id="node4" class="node">
<title>object</title>
<g id="a_node4"><a xlink:href="PsyllaReference_Types.xhtml#PsyllaReference_Types_Details_object" xlink:title="object" target="_parent">
<polygon fill="linen" stroke="black" points="93.65,-180 45.65,-180 45.65,-144 99.65,-144 99.65,-174 93.65,-180"/>
<polyline fill="none" stroke="black" points="93.65,-180 93.65,-174 "/>
<polyline fill="none" stroke="black" points="99.65,-174 93.65,-174 "/>
<text text-anchor="middle" x="72.65" y="-158.4" font-family="Source Code Pro,monospace" font-size="12.00">object</text>
</a>
</g>
</g>
<!-- object&#45;&gt;executable -->
<g id="edge3" class="edge">
<title>object&#45;&gt;executable</title>
<path fill="none" stroke="black" d="M63.01,-143.7C58.52,-135.64 53.09,-125.89 48.13,-116.98"/>
<polygon fill="black" stroke="black" points="51.11,-115.14 43.18,-108.1 44.99,-118.54 51.11,-115.14"/>
</g>
<!-- object&#45;&gt;value -->
<g id="edge4" class="edge">
<title>object&#45;&gt;value</title>
<path fill="none" stroke="black" d="M82.54,-143.7C87.14,-135.64 92.71,-125.89 97.8,-116.98"/>
<polygon fill="black" stroke="black" points="100.96,-118.52 102.88,-108.1 94.88,-115.05 100.96,-118.52"/>
</g>
</g>
</svg>
