<?xml version="1.0" encoding="UTF-8" standalone="no"?>
<!DOCTYPE svg PUBLIC "-//W3C//DTD SVG 1.1//EN"
 "http://www.w3.org/Graphics/SVG/1.1/DTD/svg11.dtd">
<!-- Generated by graphviz version 2.49.3 (0)
 -->
<!-- Title: executable Pages: 1 -->
<svg width="75pt" height="116pt"
 viewBox="0.00 0.00 75.30 116.00" xmlns="http://www.w3.org/2000/svg" xmlns:xlink="http://www.w3.org/1999/xlink">
<g id="graph0" class="graph" transform="scale(1 1) rotate(0) translate(4 112)">
<title>executable</title>
<polygon fill="transparent" stroke="transparent" points="-4,4 -4,-112 71.3,-112 71.3,4 -4,4"/>
<!-- object -->
<g id="node1" class="node">
<title>object</title>
<g id="a_node1"><a xlink:href="PsyllaReference_Types.xhtml#PsyllaReference_Types_Details_object" xlink:title="object" target="_parent">
<polygon fill="linen" stroke="black" points="54.65,-108 6.65,-108 6.65,-72 60.65,-72 60.65,-102 54.65,-108"/>
<polyline fill="none" stroke="black" points="54.65,-108 54.65,-102 "/>
<polyline fill="none" stroke="black" points="60.65,-102 54.65,-102 "/>
<text text-anchor="middle" x="33.65" y="-86.4" font-family="Source Code Pro,monospace" font-size="12.00">object</text>
</a>
</g>
</g>
<!-- executable -->
<g id="node2" class="node">
<title>executable</title>
<g id="a_node2"><a xlink:href="PsyllaReference_Types.xhtml#PsyllaReference_Types_Details_executable" xlink:title="executable" target="_parent">
<polygon fill="wheat" stroke="black" points="61.46,-36 -0.15,-36 -0.15,0 67.46,0 67.46,-30 61.46,-36"/>
<polyline fill="none" stroke="black" points="61.46,-36 61.46,-30 "/>
<polyline fill="none" stroke="black" points="67.46,-30 61.46,-30 "/>
<text text-anchor="middle" x="33.65" y="-14.4" font-family="Source Code Pro,monospace" font-size="12.00">executable</text>
</a>
</g>
</g>
<!-- object&#45;&gt;executable -->
<g id="edge1" class="edge">
<title>object&#45;&gt;executable</title>
<path fill="none" stroke="black" d="M33.65,-71.7C33.65,-63.98 33.65,-54.71 33.65,-46.11"/>
<polygon fill="black" stroke="black" points="37.15,-46.1 33.65,-36.1 30.15,-46.1 37.15,-46.1"/>
</g>
</g>
</svg>
