<?xml version="1.0" encoding="UTF-8" standalone="no"?>
<!DOCTYPE svg PUBLIC "-//W3C//DTD SVG 1.1//EN"
 "http://www.w3.org/Graphics/SVG/1.1/DTD/svg11.dtd">
<!-- Generated by graphviz version 2.43.0 (0)
 -->
<!-- Title: operator Pages: 1 -->
<svg width="192pt" height="188pt"
 viewBox="0.00 0.00 191.50 188.00" xmlns="http://www.w3.org/2000/svg" xmlns:xlink="http://www.w3.org/1999/xlink">
<g id="graph0" class="graph" transform="scale(1 1) rotate(0) translate(4 184)">
<title>operator</title>
<polygon fill="transparent" stroke="transparent" points="-4,4 -4,-184 187.5,-184 187.5,4 -4,4"/>
<!-- atomic -->
<g id="node1" class="node">
<title>atomic</title>
<g id="a_node1"><a xlink:href="PsyllaReference_Types.xhtml#PsyllaReference_Types_Details_atomic" xlink:title="atomic" target="_parent">
<polygon fill="linen" stroke="black" points="60,-108 0,-108 0,-72 66,-72 66,-102 60,-108"/>
<polyline fill="none" stroke="black" points="60,-108 60,-102 "/>
<polyline fill="none" stroke="black" points="66,-102 60,-102 "/>
<text text-anchor="middle" x="33" y="-86.3" font-family="Consolas, monospace" font-size="14.00">atomic</text>
</a>
</g>
</g>
<!-- operator -->
<g id="node3" class="node">
<title>operator</title>
<g id="a_node3"><a xlink:href="PsyllaReference_Types.xhtml#PsyllaReference_Types_Details_operator" xlink:title="operator" target="_parent">
<polygon fill="wheat" stroke="black" points="118.5,-36 41.5,-36 41.5,0 124.5,0 124.5,-30 118.5,-36"/>
<polyline fill="none" stroke="black" points="118.5,-36 118.5,-30 "/>
<polyline fill="none" stroke="black" points="124.5,-30 118.5,-30 "/>
<text text-anchor="middle" x="83" y="-14.3" font-family="Consolas, monospace" font-size="14.00">operator</text>
</a>
</g>
</g>
<!-- atomic&#45;&gt;operator -->
<g id="edge1" class="edge">
<title>atomic&#45;&gt;operator</title>
<path fill="none" stroke="black" d="M45.36,-71.7C51.23,-63.47 58.37,-53.48 64.84,-44.42"/>
<polygon fill="black" stroke="black" points="67.82,-46.28 70.78,-36.1 62.12,-42.21 67.82,-46.28"/>
</g>
<!-- executable -->
<g id="node2" class="node">
<title>executable</title>
<g id="a_node2"><a xlink:href="PsyllaReference_Types.xhtml#PsyllaReference_Types_Details_executable" xlink:title="executable" target="_parent">
<polygon fill="linen" stroke="black" points="177.5,-108 84.5,-108 84.5,-72 183.5,-72 183.5,-102 177.5,-108"/>
<polyline fill="none" stroke="black" points="177.5,-108 177.5,-102 "/>
<polyline fill="none" stroke="black" points="183.5,-102 177.5,-102 "/>
<text text-anchor="middle" x="134" y="-86.3" font-family="Consolas, monospace" font-size="14.00">executable</text>
</a>
</g>
</g>
<!-- executable&#45;&gt;operator -->
<g id="edge2" class="edge">
<title>executable&#45;&gt;operator</title>
<path fill="none" stroke="black" d="M121.39,-71.7C115.4,-63.47 108.12,-53.48 101.52,-44.42"/>
<polygon fill="black" stroke="black" points="104.18,-42.13 95.46,-36.1 98.52,-46.25 104.18,-42.13"/>
</g>
<!-- object -->
<g id="node4" class="node">
<title>object</title>
<g id="a_node4"><a xlink:href="PsyllaReference_Types.xhtml#PsyllaReference_Types_Details_object" xlink:title="object" target="_parent">
<polygon fill="linen" stroke="black" points="110,-180 50,-180 50,-144 116,-144 116,-174 110,-180"/>
<polyline fill="none" stroke="black" points="110,-180 110,-174 "/>
<polyline fill="none" stroke="black" points="116,-174 110,-174 "/>
<text text-anchor="middle" x="83" y="-158.3" font-family="Consolas, monospace" font-size="14.00">object</text>
</a>
</g>
</g>
<!-- object&#45;&gt;atomic -->
<g id="edge3" class="edge">
<title>object&#45;&gt;atomic</title>
<path fill="none" stroke="black" d="M70.64,-143.7C64.77,-135.47 57.63,-125.48 51.16,-116.42"/>
<polygon fill="black" stroke="black" points="53.88,-114.21 45.22,-108.1 48.18,-118.28 53.88,-114.21"/>
</g>
<!-- object&#45;&gt;executable -->
<g id="edge4" class="edge">
<title>object&#45;&gt;executable</title>
<path fill="none" stroke="black" d="M95.61,-143.7C101.6,-135.47 108.88,-125.48 115.48,-116.42"/>
<polygon fill="black" stroke="black" points="118.48,-118.25 121.54,-108.1 112.82,-114.13 118.48,-118.25"/>
</g>
</g>
</svg>
