<?xml version="1.0" encoding="UTF-8" standalone="no"?>
<!DOCTYPE svg PUBLIC "-//W3C//DTD SVG 1.1//EN"
 "http://www.w3.org/Graphics/SVG/1.1/DTD/svg11.dtd">
<!-- Generated by graphviz version 14.0.0 (0)
 -->
<!-- Title: systemdict Pages: 1 -->
<svg width="312pt" height="620pt"
 viewBox="0.00 0.00 312.00 620.00" xmlns="http://www.w3.org/2000/svg" xmlns:xlink="http://www.w3.org/1999/xlink">
<g id="graph0" class="graph" transform="scale(1 1) rotate(0) translate(4 616)">
<title>systemdict</title>
<polygon fill="none" stroke="none" points="-4,4 -4,-616 308,-616 308,4 -4,4"/>
<!-- module -->
<g id="node1" class="node">
<title>module</title>
<g id="a_node1"><a xlink:href="PsyllaReference_Types.xhtml#PsyllaReference_Types_Details_module" xlink:title="module" target="_parent">
<polygon fill="linen" stroke="black" points="103,-108 55,-108 55,-72 109,-72 109,-102 103,-108"/>
<polyline fill="none" stroke="black" points="103,-108 103,-102"/>
<polyline fill="none" stroke="black" points="109,-102 103,-102"/>
<text xml:space="preserve" text-anchor="middle" x="82" y="-86.4" font-family="Source Code Pro,monospace" font-size="12.00">module</text>
</a>
</g>
</g>
<!-- systemdict -->
<g id="node2" class="node">
<title>systemdict</title>
<g id="a_node2"><a xlink:href="PsyllaReference_Types.xhtml#PsyllaReference_Types_Details_systemdict" xlink:title="systemdict" target="_parent">
<polygon fill="wheat" stroke="black" points="109.66,-36 48.34,-36 48.34,0 115.66,0 115.66,-30 109.66,-36"/>
<polyline fill="none" stroke="black" points="109.66,-36 109.66,-30"/>
<polyline fill="none" stroke="black" points="115.66,-30 109.66,-30"/>
<text xml:space="preserve" text-anchor="middle" x="82" y="-14.4" font-family="Source Code Pro,monospace" font-size="12.00">systemdict</text>
</a>
</g>
</g>
<!-- module&#45;&gt;systemdict -->
<g id="edge1" class="edge">
<title>module&#45;&gt;systemdict</title>
<path fill="none" stroke="black" d="M82,-71.7C82,-64.41 82,-55.73 82,-47.54"/>
<polygon fill="black" stroke="black" points="85.5,-47.62 82,-37.62 78.5,-47.62 85.5,-47.62"/>
</g>
<!-- dict -->
<g id="node3" class="node">
<title>dict</title>
<g id="a_node3"><a xlink:href="PsyllaReference_Types.xhtml#PsyllaReference_Types_Details_dict" xlink:title="dict" target="_parent">
<polygon fill="linen" stroke="black" points="103,-180 55,-180 55,-144 109,-144 109,-174 103,-180"/>
<polyline fill="none" stroke="black" points="103,-180 103,-174"/>
<polyline fill="none" stroke="black" points="109,-174 103,-174"/>
<text xml:space="preserve" text-anchor="middle" x="82" y="-158.4" font-family="Source Code Pro,monospace" font-size="12.00">dict</text>
</a>
</g>
</g>
<!-- dict&#45;&gt;module -->
<g id="edge2" class="edge">
<title>dict&#45;&gt;module</title>
<path fill="none" stroke="black" d="M82,-143.7C82,-136.41 82,-127.73 82,-119.54"/>
<polygon fill="black" stroke="black" points="85.5,-119.62 82,-109.62 78.5,-119.62 85.5,-119.62"/>
</g>
<!-- formaldict -->
<g id="node4" class="node">
<title>formaldict</title>
<g id="a_node4"><a xlink:href="PsyllaReference_Types.xhtml#PsyllaReference_Types_Details_formaldict" xlink:title="formaldict" target="_parent">
<polygon fill="linen" stroke="black" points="108.99,-252 49.01,-252 49.01,-216 114.99,-216 114.99,-246 108.99,-252"/>
<polyline fill="none" stroke="black" points="108.99,-252 108.99,-246"/>
<polyline fill="none" stroke="black" points="114.99,-246 108.99,-246"/>
<text xml:space="preserve" text-anchor="middle" x="82" y="-230.4" font-family="Source Code Pro,monospace" font-size="12.00">formaldict</text>
</a>
</g>
</g>
<!-- formaldict&#45;&gt;dict -->
<g id="edge3" class="edge">
<title>formaldict&#45;&gt;dict</title>
<path fill="none" stroke="black" d="M82,-215.7C82,-208.41 82,-199.73 82,-191.54"/>
<polygon fill="black" stroke="black" points="85.5,-191.62 82,-181.62 78.5,-191.62 85.5,-191.62"/>
</g>
<!-- container -->
<g id="node5" class="node">
<title>container</title>
<g id="a_node5"><a xlink:href="PsyllaReference_Types.xhtml#PsyllaReference_Types_Details_container" xlink:title="container" target="_parent">
<polygon fill="linen" stroke="black" points="212.32,-324 157.68,-324 157.68,-288 218.32,-288 218.32,-318 212.32,-324"/>
<polyline fill="none" stroke="black" points="212.32,-324 212.32,-318"/>
<polyline fill="none" stroke="black" points="218.32,-318 212.32,-318"/>
<text xml:space="preserve" text-anchor="middle" x="188" y="-302.4" font-family="Source Code Pro,monospace" font-size="12.00">container</text>
</a>
</g>
</g>
<!-- container&#45;&gt;formaldict -->
<g id="edge4" class="edge">
<title>container&#45;&gt;formaldict</title>
<path fill="none" stroke="black" d="M161.53,-287.52C148.27,-278.76 132.04,-268.04 117.7,-258.58"/>
<polygon fill="black" stroke="black" points="119.67,-255.68 109.4,-253.09 115.82,-261.53 119.67,-255.68"/>
</g>
<!-- indexed -->
<g id="node6" class="node">
<title>indexed</title>
<g id="a_node6"><a xlink:href="PsyllaReference_Types.xhtml#PsyllaReference_Types_Details_indexed" xlink:title="indexed" target="_parent">
<polygon fill="linen" stroke="black" points="48,-396 0,-396 0,-360 54,-360 54,-390 48,-396"/>
<polyline fill="none" stroke="black" points="48,-396 48,-390"/>
<polyline fill="none" stroke="black" points="54,-390 48,-390"/>
<text xml:space="preserve" text-anchor="middle" x="27" y="-374.4" font-family="Source Code Pro,monospace" font-size="12.00">indexed</text>
</a>
</g>
</g>
<!-- indexed&#45;&gt;formaldict -->
<g id="edge5" class="edge">
<title>indexed&#45;&gt;formaldict</title>
<path fill="none" stroke="black" d="M33.74,-359.59C43.11,-335.4 60.17,-291.36 71.29,-262.65"/>
<polygon fill="black" stroke="black" points="74.48,-264.11 74.83,-253.52 67.95,-261.58 74.48,-264.11"/>
</g>
<!-- sequential -->
<g id="node7" class="node">
<title>sequential</title>
<g id="a_node7"><a xlink:href="PsyllaReference_Types.xhtml#PsyllaReference_Types_Details_sequential" xlink:title="sequential" target="_parent">
<polygon fill="linen" stroke="black" points="170.33,-540 111.67,-540 111.67,-504 176.33,-504 176.33,-534 170.33,-540"/>
<polyline fill="none" stroke="black" points="170.33,-540 170.33,-534"/>
<polyline fill="none" stroke="black" points="176.33,-534 170.33,-534"/>
<text xml:space="preserve" text-anchor="middle" x="144" y="-518.4" font-family="Source Code Pro,monospace" font-size="12.00">sequential</text>
</a>
</g>
</g>
<!-- sequential&#45;&gt;formaldict -->
<g id="edge6" class="edge">
<title>sequential&#45;&gt;formaldict</title>
<path fill="none" stroke="black" d="M125.41,-503.67C116.4,-494.08 106.38,-481.42 101,-468 73.25,-398.82 75.54,-308.98 79.05,-263.73"/>
<polygon fill="black" stroke="black" points="82.52,-264.23 79.89,-253.96 75.54,-263.63 82.52,-264.23"/>
</g>
<!-- streamable -->
<g id="node12" class="node">
<title>streamable</title>
<g id="a_node12"><a xlink:href="PsyllaReference_Types.xhtml#PsyllaReference_Types_Details_streamable" xlink:title="streamable" target="_parent">
<polygon fill="linen" stroke="black" points="171.99,-468 110.01,-468 110.01,-432 177.99,-432 177.99,-462 171.99,-468"/>
<polyline fill="none" stroke="black" points="171.99,-468 171.99,-462"/>
<polyline fill="none" stroke="black" points="177.99,-462 171.99,-462"/>
<text xml:space="preserve" text-anchor="middle" x="144" y="-446.4" font-family="Source Code Pro,monospace" font-size="12.00">streamable</text>
</a>
</g>
</g>
<!-- sequential&#45;&gt;streamable -->
<g id="edge15" class="edge">
<title>sequential&#45;&gt;streamable</title>
<path fill="none" stroke="black" d="M144,-503.7C144,-496.41 144,-487.73 144,-479.54"/>
<polygon fill="black" stroke="black" points="147.5,-479.62 144,-469.62 140.5,-479.62 147.5,-479.62"/>
</g>
<!-- clearable -->
<g id="node8" class="node">
<title>clearable</title>
<g id="a_node8"><a xlink:href="PsyllaReference_Types.xhtml#PsyllaReference_Types_Details_clearable" xlink:title="clearable" target="_parent">
<polygon fill="linen" stroke="black" points="249.65,-468 196.35,-468 196.35,-432 255.65,-432 255.65,-462 249.65,-468"/>
<polyline fill="none" stroke="black" points="249.65,-468 249.65,-462"/>
<polyline fill="none" stroke="black" points="255.65,-462 249.65,-462"/>
<text xml:space="preserve" text-anchor="middle" x="226" y="-446.4" font-family="Source Code Pro,monospace" font-size="12.00">clearable</text>
</a>
</g>
</g>
<!-- clearable&#45;&gt;container -->
<g id="edge7" class="edge">
<title>clearable&#45;&gt;container</title>
<path fill="none" stroke="black" d="M221.34,-431.59C214.9,-407.5 203.19,-363.75 195.5,-335.03"/>
<polygon fill="black" stroke="black" points="198.94,-334.33 192.97,-325.57 192.17,-336.14 198.94,-334.33"/>
</g>
<!-- iterable -->
<g id="node9" class="node">
<title>iterable</title>
<g id="a_node9"><a xlink:href="PsyllaReference_Types.xhtml#PsyllaReference_Types_Details_iterable" xlink:title="iterable" target="_parent">
<polygon fill="linen" stroke="black" points="178,-396 130,-396 130,-360 184,-360 184,-390 178,-396"/>
<polyline fill="none" stroke="black" points="178,-396 178,-390"/>
<polyline fill="none" stroke="black" points="184,-390 178,-390"/>
<text xml:space="preserve" text-anchor="middle" x="157" y="-374.4" font-family="Source Code Pro,monospace" font-size="12.00">iterable</text>
</a>
</g>
</g>
<!-- iterable&#45;&gt;container -->
<g id="edge8" class="edge">
<title>iterable&#45;&gt;container</title>
<path fill="none" stroke="black" d="M164.66,-359.7C168.04,-352.07 172.09,-342.92 175.87,-334.4"/>
<polygon fill="black" stroke="black" points="178.96,-336.05 179.81,-325.49 172.56,-333.21 178.96,-336.05"/>
</g>
<!-- lengthy -->
<g id="node10" class="node">
<title>lengthy</title>
<g id="a_node10"><a xlink:href="PsyllaReference_Types.xhtml#PsyllaReference_Types_Details_lengthy" xlink:title="lengthy" target="_parent">
<polygon fill="linen" stroke="black" points="298,-540 250,-540 250,-504 304,-504 304,-534 298,-540"/>
<polyline fill="none" stroke="black" points="298,-540 298,-534"/>
<polyline fill="none" stroke="black" points="304,-534 298,-534"/>
<text xml:space="preserve" text-anchor="middle" x="277" y="-518.4" font-family="Source Code Pro,monospace" font-size="12.00">lengthy</text>
</a>
</g>
</g>
<!-- lengthy&#45;&gt;container -->
<g id="edge9" class="edge">
<title>lengthy&#45;&gt;container</title>
<path fill="none" stroke="black" d="M276.77,-503.78C276.05,-485.48 273.51,-455.95 265,-432 251.9,-395.11 226.79,-357.48 208.81,-333.29"/>
<polygon fill="black" stroke="black" points="211.82,-331.46 202.98,-325.6 206.24,-335.69 211.82,-331.46"/>
</g>
<!-- object -->
<g id="node11" class="node">
<title>object</title>
<g id="a_node11"><a xlink:href="PsyllaReference_Types.xhtml#PsyllaReference_Types_Details_object" xlink:title="object" target="_parent">
<polygon fill="linen" stroke="black" points="195,-612 147,-612 147,-576 201,-576 201,-606 195,-612"/>
<polyline fill="none" stroke="black" points="195,-612 195,-606"/>
<polyline fill="none" stroke="black" points="201,-606 195,-606"/>
<text xml:space="preserve" text-anchor="middle" x="174" y="-590.4" font-family="Source Code Pro,monospace" font-size="12.00">object</text>
</a>
</g>
</g>
<!-- object&#45;&gt;indexed -->
<g id="edge10" class="edge">
<title>object&#45;&gt;indexed</title>
<path fill="none" stroke="black" d="M146.53,-576.98C132.19,-567.59 115.16,-554.7 103,-540 69.2,-499.13 46.56,-440.71 35.31,-406.63"/>
<polygon fill="black" stroke="black" points="38.78,-405.97 32.39,-397.51 32.11,-408.1 38.78,-405.97"/>
</g>
<!-- object&#45;&gt;sequential -->
<g id="edge11" class="edge">
<title>object&#45;&gt;sequential</title>
<path fill="none" stroke="black" d="M166.58,-575.7C163.35,-568.15 159.48,-559.12 155.86,-550.68"/>
<polygon fill="black" stroke="black" points="159.08,-549.31 151.93,-541.5 152.65,-552.07 159.08,-549.31"/>
</g>
<!-- object&#45;&gt;clearable -->
<g id="edge12" class="edge">
<title>object&#45;&gt;clearable</title>
<path fill="none" stroke="black" d="M180.38,-575.59C189.23,-551.4 205.36,-507.36 215.87,-478.65"/>
<polygon fill="black" stroke="black" points="219.06,-480.13 219.21,-469.53 212.49,-477.72 219.06,-480.13"/>
</g>
<!-- object&#45;&gt;lengthy -->
<g id="edge14" class="edge">
<title>object&#45;&gt;lengthy</title>
<path fill="none" stroke="black" d="M199.73,-575.52C212.6,-566.76 228.38,-556.04 242.31,-546.58"/>
<polygon fill="black" stroke="black" points="244.05,-549.63 250.35,-541.11 240.11,-543.84 244.05,-549.63"/>
</g>
<!-- streamable&#45;&gt;iterable -->
<g id="edge13" class="edge">
<title>streamable&#45;&gt;iterable</title>
<path fill="none" stroke="black" d="M147.21,-431.7C148.58,-424.32 150.22,-415.52 151.75,-407.25"/>
<polygon fill="black" stroke="black" points="155.16,-408.06 153.55,-397.59 148.28,-406.79 155.16,-408.06"/>
</g>
</g>
</svg>
