<?xml version="1.0" encoding="UTF-8" standalone="no"?>
<!DOCTYPE svg PUBLIC "-//W3C//DTD SVG 1.1//EN"
 "http://www.w3.org/Graphics/SVG/1.1/DTD/svg11.dtd">
<!-- Generated by graphviz version 2.43.0 (0)
 -->
<!-- Title: string Pages: 1 -->
<svg width="576pt" height="476pt"
 viewBox="0.00 0.00 576.00 476.00" xmlns="http://www.w3.org/2000/svg" xmlns:xlink="http://www.w3.org/1999/xlink">
<g id="graph0" class="graph" transform="scale(1 1) rotate(0) translate(4 472)">
<title>string</title>
<polygon fill="transparent" stroke="transparent" points="-4,4 -4,-472 572,-472 572,4 -4,4"/>
<!-- textual -->
<g id="node1" class="node">
<title>textual</title>
<g id="a_node1"><a xlink:href="PsyllaReference_Types.xhtml#PsyllaReference_Types_Details_textual" xlink:title="textual" target="_parent">
<polygon fill="linen" stroke="black" points="154,-180 86,-180 86,-144 160,-144 160,-174 154,-180"/>
<polyline fill="none" stroke="black" points="154,-180 154,-174 "/>
<polyline fill="none" stroke="black" points="160,-174 154,-174 "/>
<text text-anchor="middle" x="123" y="-158.3" font-family="Consolas, monospace" font-size="14.00">textual</text>
</a>
</g>
</g>
<!-- string -->
<g id="node3" class="node">
<title>string</title>
<g id="a_node3"><a xlink:href="PsyllaReference_Types.xhtml#PsyllaReference_Types_Details_string" xlink:title="string" target="_parent">
<polygon fill="wheat" stroke="black" points="288,-36 228,-36 228,0 294,0 294,-30 288,-36"/>
<polyline fill="none" stroke="black" points="288,-36 288,-30 "/>
<polyline fill="none" stroke="black" points="294,-30 288,-30 "/>
<text text-anchor="middle" x="261" y="-14.3" font-family="Consolas, monospace" font-size="14.00">string</text>
</a>
</g>
</g>
<!-- textual&#45;&gt;string -->
<g id="edge1" class="edge">
<title>textual&#45;&gt;string</title>
<path fill="none" stroke="black" d="M139.65,-143.87C163.99,-118.82 209.44,-72.05 237.28,-43.41"/>
<polygon fill="black" stroke="black" points="239.84,-45.8 244.29,-36.19 234.82,-40.92 239.84,-45.8"/>
</g>
<!-- formalarray -->
<g id="node2" class="node">
<title>formalarray</title>
<g id="a_node2"><a xlink:href="PsyllaReference_Types.xhtml#PsyllaReference_Types_Details_formalarray" xlink:title="formalarray" target="_parent">
<polygon fill="linen" stroke="black" points="446.5,-108 345.5,-108 345.5,-72 452.5,-72 452.5,-102 446.5,-108"/>
<polyline fill="none" stroke="black" points="446.5,-108 446.5,-102 "/>
<polyline fill="none" stroke="black" points="452.5,-102 446.5,-102 "/>
<text text-anchor="middle" x="399" y="-86.3" font-family="Consolas, monospace" font-size="14.00">formalarray</text>
</a>
</g>
</g>
<!-- formalarray&#45;&gt;string -->
<g id="edge2" class="edge">
<title>formalarray&#45;&gt;string</title>
<path fill="none" stroke="black" d="M365.24,-71.88C346.64,-62.44 323.37,-50.64 303.54,-40.58"/>
<polygon fill="black" stroke="black" points="304.91,-37.35 294.41,-35.95 301.75,-43.59 304.91,-37.35"/>
</g>
<!-- evaluable -->
<g id="node4" class="node">
<title>evaluable</title>
<g id="a_node4"><a xlink:href="PsyllaReference_Types.xhtml#PsyllaReference_Types_Details_evaluable" xlink:title="evaluable" target="_parent">
<polygon fill="linen" stroke="black" points="138.5,-324 53.5,-324 53.5,-288 144.5,-288 144.5,-318 138.5,-324"/>
<polyline fill="none" stroke="black" points="138.5,-324 138.5,-318 "/>
<polyline fill="none" stroke="black" points="144.5,-318 138.5,-318 "/>
<text text-anchor="middle" x="99" y="-302.3" font-family="Consolas, monospace" font-size="14.00">evaluable</text>
</a>
</g>
</g>
<!-- evaluable&#45;&gt;textual -->
<g id="edge3" class="edge">
<title>evaluable&#45;&gt;textual</title>
<path fill="none" stroke="black" d="M88.81,-287.92C79.32,-269.74 67.92,-240.3 77,-216 80.88,-205.62 87.8,-195.93 95.12,-187.74"/>
<polygon fill="black" stroke="black" points="97.78,-190.03 102.18,-180.38 92.73,-185.18 97.78,-190.03"/>
</g>
<!-- iterable -->
<g id="node5" class="node">
<title>iterable</title>
<g id="a_node5"><a xlink:href="PsyllaReference_Types.xhtml#PsyllaReference_Types_Details_iterable" xlink:title="iterable" target="_parent">
<polygon fill="linen" stroke="black" points="364.5,-252 287.5,-252 287.5,-216 370.5,-216 370.5,-246 364.5,-252"/>
<polyline fill="none" stroke="black" points="364.5,-252 364.5,-246 "/>
<polyline fill="none" stroke="black" points="370.5,-246 364.5,-246 "/>
<text text-anchor="middle" x="329" y="-230.3" font-family="Consolas, monospace" font-size="14.00">iterable</text>
</a>
</g>
</g>
<!-- iterable&#45;&gt;textual -->
<g id="edge4" class="edge">
<title>iterable&#45;&gt;textual</title>
<path fill="none" stroke="black" d="M287.31,-218.83C253.25,-207.26 205.11,-190.9 169.74,-178.88"/>
<polygon fill="black" stroke="black" points="170.72,-175.52 160.13,-175.62 168.47,-182.15 170.72,-175.52"/>
</g>
<!-- container -->
<g id="node9" class="node">
<title>container</title>
<g id="a_node9"><a xlink:href="PsyllaReference_Types.xhtml#PsyllaReference_Types_Details_container" xlink:title="container" target="_parent">
<polygon fill="linen" stroke="black" points="313.5,-180 228.5,-180 228.5,-144 319.5,-144 319.5,-174 313.5,-180"/>
<polyline fill="none" stroke="black" points="313.5,-180 313.5,-174 "/>
<polyline fill="none" stroke="black" points="319.5,-174 313.5,-174 "/>
<text text-anchor="middle" x="274" y="-158.3" font-family="Consolas, monospace" font-size="14.00">container</text>
</a>
</g>
</g>
<!-- iterable&#45;&gt;container -->
<g id="edge17" class="edge">
<title>iterable&#45;&gt;container</title>
<path fill="none" stroke="black" d="M315.4,-215.7C308.88,-207.39 300.93,-197.28 293.75,-188.14"/>
<polygon fill="black" stroke="black" points="296.37,-185.81 287.44,-180.1 290.87,-190.13 296.37,-185.81"/>
</g>
<!-- lengthy -->
<g id="node6" class="node">
<title>lengthy</title>
<g id="a_node6"><a xlink:href="PsyllaReference_Types.xhtml#PsyllaReference_Types_Details_lengthy" xlink:title="lengthy" target="_parent">
<polygon fill="linen" stroke="black" points="154,-252 86,-252 86,-216 160,-216 160,-246 154,-252"/>
<polyline fill="none" stroke="black" points="154,-252 154,-246 "/>
<polyline fill="none" stroke="black" points="160,-246 154,-246 "/>
<text text-anchor="middle" x="123" y="-230.3" font-family="Consolas, monospace" font-size="14.00">lengthy</text>
</a>
</g>
</g>
<!-- lengthy&#45;&gt;textual -->
<g id="edge5" class="edge">
<title>lengthy&#45;&gt;textual</title>
<path fill="none" stroke="black" d="M123,-215.7C123,-207.98 123,-198.71 123,-190.11"/>
<polygon fill="black" stroke="black" points="126.5,-190.1 123,-180.1 119.5,-190.1 126.5,-190.1"/>
</g>
<!-- lengthy&#45;&gt;container -->
<g id="edge18" class="edge">
<title>lengthy&#45;&gt;container</title>
<path fill="none" stroke="black" d="M159.94,-215.88C180.49,-206.35 206.25,-194.41 228.09,-184.28"/>
<polygon fill="black" stroke="black" points="229.58,-187.45 237.18,-180.07 226.64,-181.1 229.58,-187.45"/>
</g>
<!-- scalar -->
<g id="node7" class="node">
<title>scalar</title>
<g id="a_node7"><a xlink:href="PsyllaReference_Types.xhtml#PsyllaReference_Types_Details_scalar" xlink:title="scalar" target="_parent">
<polygon fill="linen" stroke="black" points="60,-396 0,-396 0,-360 66,-360 66,-390 60,-396"/>
<polyline fill="none" stroke="black" points="60,-396 60,-390 "/>
<polyline fill="none" stroke="black" points="66,-390 60,-390 "/>
<text text-anchor="middle" x="33" y="-374.3" font-family="Consolas, monospace" font-size="14.00">scalar</text>
</a>
</g>
</g>
<!-- scalar&#45;&gt;textual -->
<g id="edge6" class="edge">
<title>scalar&#45;&gt;textual</title>
<path fill="none" stroke="black" d="M33.28,-359.59C34.55,-328.4 40.78,-262 70,-216 76.64,-205.55 85.66,-195.55 94.38,-187.1"/>
<polygon fill="black" stroke="black" points="96.96,-189.49 101.9,-180.11 92.19,-184.36 96.96,-189.49"/>
</g>
<!-- appendable -->
<g id="node8" class="node">
<title>appendable</title>
<g id="a_node8"><a xlink:href="PsyllaReference_Types.xhtml#PsyllaReference_Types_Details_appendable" xlink:title="appendable" target="_parent">
<polygon fill="linen" stroke="black" points="510.5,-324 417.5,-324 417.5,-288 516.5,-288 516.5,-318 510.5,-324"/>
<polyline fill="none" stroke="black" points="510.5,-324 510.5,-318 "/>
<polyline fill="none" stroke="black" points="516.5,-318 510.5,-318 "/>
<text text-anchor="middle" x="467" y="-302.3" font-family="Consolas, monospace" font-size="14.00">appendable</text>
</a>
</g>
</g>
<!-- appendable&#45;&gt;formalarray -->
<g id="edge7" class="edge">
<title>appendable&#45;&gt;formalarray</title>
<path fill="none" stroke="black" d="M461.55,-287.85C449.74,-250.68 421.7,-162.44 407.52,-117.82"/>
<polygon fill="black" stroke="black" points="410.84,-116.7 404.48,-108.23 404.17,-118.82 410.84,-116.7"/>
</g>
<!-- container&#45;&gt;formalarray -->
<g id="edge8" class="edge">
<title>container&#45;&gt;formalarray</title>
<path fill="none" stroke="black" d="M304.58,-143.88C321.07,-134.64 341.62,-123.13 359.34,-113.21"/>
<polygon fill="black" stroke="black" points="361.29,-116.13 368.3,-108.19 357.87,-110.02 361.29,-116.13"/>
</g>
<!-- indexed -->
<g id="node10" class="node">
<title>indexed</title>
<g id="a_node10"><a xlink:href="PsyllaReference_Types.xhtml#PsyllaReference_Types_Details_indexed" xlink:title="indexed" target="_parent">
<polygon fill="linen" stroke="black" points="562,-180 494,-180 494,-144 568,-144 568,-174 562,-180"/>
<polyline fill="none" stroke="black" points="562,-180 562,-174 "/>
<polyline fill="none" stroke="black" points="568,-174 562,-174 "/>
<text text-anchor="middle" x="531" y="-158.3" font-family="Consolas, monospace" font-size="14.00">indexed</text>
</a>
</g>
</g>
<!-- indexed&#45;&gt;formalarray -->
<g id="edge9" class="edge">
<title>indexed&#45;&gt;formalarray</title>
<path fill="none" stroke="black" d="M498.71,-143.88C481.13,-134.55 459.19,-122.92 440.37,-112.94"/>
<polygon fill="black" stroke="black" points="441.89,-109.78 431.41,-108.19 438.61,-115.97 441.89,-109.78"/>
</g>
<!-- sequential -->
<g id="node11" class="node">
<title>sequential</title>
<g id="a_node11"><a xlink:href="PsyllaReference_Types.xhtml#PsyllaReference_Types_Details_sequential" xlink:title="sequential" target="_parent">
<polygon fill="linen" stroke="black" points="354.5,-396 261.5,-396 261.5,-360 360.5,-360 360.5,-390 354.5,-396"/>
<polyline fill="none" stroke="black" points="354.5,-396 354.5,-390 "/>
<polyline fill="none" stroke="black" points="360.5,-390 354.5,-390 "/>
<text text-anchor="middle" x="311" y="-374.3" font-family="Consolas, monospace" font-size="14.00">sequential</text>
</a>
</g>
</g>
<!-- sequential&#45;&gt;formalarray -->
<g id="edge10" class="edge">
<title>sequential&#45;&gt;formalarray</title>
<path fill="none" stroke="black" d="M336.86,-359.82C348.6,-350.62 361.51,-338.25 369,-324 404.42,-256.66 404.15,-163.74 401.39,-118.28"/>
<polygon fill="black" stroke="black" points="404.89,-118.03 400.7,-108.29 397.9,-118.51 404.89,-118.03"/>
</g>
<!-- streamable -->
<g id="node13" class="node">
<title>streamable</title>
<g id="a_node13"><a xlink:href="PsyllaReference_Types.xhtml#PsyllaReference_Types_Details_streamable" xlink:title="streamable" target="_parent">
<polygon fill="linen" stroke="black" points="354.5,-324 261.5,-324 261.5,-288 360.5,-288 360.5,-318 354.5,-324"/>
<polyline fill="none" stroke="black" points="354.5,-324 354.5,-318 "/>
<polyline fill="none" stroke="black" points="360.5,-318 354.5,-318 "/>
<text text-anchor="middle" x="311" y="-302.3" font-family="Consolas, monospace" font-size="14.00">streamable</text>
</a>
</g>
</g>
<!-- sequential&#45;&gt;streamable -->
<g id="edge21" class="edge">
<title>sequential&#45;&gt;streamable</title>
<path fill="none" stroke="black" d="M311,-359.7C311,-351.98 311,-342.71 311,-334.11"/>
<polygon fill="black" stroke="black" points="314.5,-334.1 311,-324.1 307.5,-334.1 314.5,-334.1"/>
</g>
<!-- object -->
<g id="node12" class="node">
<title>object</title>
<g id="a_node12"><a xlink:href="PsyllaReference_Types.xhtml#PsyllaReference_Types_Details_object" xlink:title="object" target="_parent">
<polygon fill="linen" stroke="black" points="251,-468 191,-468 191,-432 257,-432 257,-462 251,-468"/>
<polyline fill="none" stroke="black" points="251,-468 251,-462 "/>
<polyline fill="none" stroke="black" points="257,-462 251,-462 "/>
<text text-anchor="middle" x="224" y="-446.3" font-family="Consolas, monospace" font-size="14.00">object</text>
</a>
</g>
</g>
<!-- object&#45;&gt;evaluable -->
<g id="edge11" class="edge">
<title>object&#45;&gt;evaluable</title>
<path fill="none" stroke="black" d="M204.37,-431.79C193.29,-421.74 179.42,-408.6 168,-396 149.5,-375.58 130.45,-350.67 117.07,-332.4"/>
<polygon fill="black" stroke="black" points="119.69,-330.05 110.99,-324.02 114.03,-334.16 119.69,-330.05"/>
</g>
<!-- object&#45;&gt;lengthy -->
<g id="edge13" class="edge">
<title>object&#45;&gt;lengthy</title>
<path fill="none" stroke="black" d="M217.09,-431.82C204.98,-402.1 178.76,-339.33 153,-288 148.54,-279.12 143.31,-269.61 138.48,-261.14"/>
<polygon fill="black" stroke="black" points="141.48,-259.34 133.45,-252.43 135.42,-262.84 141.48,-259.34"/>
</g>
<!-- object&#45;&gt;scalar -->
<g id="edge14" class="edge">
<title>object&#45;&gt;scalar</title>
<path fill="none" stroke="black" d="M190.73,-436.81C158.78,-425.1 110.38,-407.36 75.62,-394.62"/>
<polygon fill="black" stroke="black" points="76.8,-391.33 66.21,-391.17 74.39,-397.9 76.8,-391.33"/>
</g>
<!-- object&#45;&gt;appendable -->
<g id="edge15" class="edge">
<title>object&#45;&gt;appendable</title>
<path fill="none" stroke="black" d="M257.01,-440.88C287.5,-432.49 333.34,-417.57 369,-396 398.17,-378.36 426.43,-351.29 445.05,-331.63"/>
<polygon fill="black" stroke="black" points="447.68,-333.94 451.93,-324.24 442.56,-329.17 447.68,-333.94"/>
</g>
<!-- object&#45;&gt;indexed -->
<g id="edge19" class="edge">
<title>object&#45;&gt;indexed</title>
<path fill="none" stroke="black" d="M257.12,-447.35C323.02,-442.01 469.07,-419.44 525,-324 549.25,-282.63 543.71,-224.46 537.4,-190.55"/>
<polygon fill="black" stroke="black" points="540.77,-189.55 535.37,-180.44 533.91,-190.94 540.77,-189.55"/>
</g>
<!-- object&#45;&gt;sequential -->
<g id="edge20" class="edge">
<title>object&#45;&gt;sequential</title>
<path fill="none" stroke="black" d="M245.51,-431.7C256.46,-422.88 269.95,-412.03 281.82,-402.47"/>
<polygon fill="black" stroke="black" points="284.14,-405.1 289.74,-396.1 279.76,-399.65 284.14,-405.1"/>
</g>
<!-- clearable -->
<g id="node14" class="node">
<title>clearable</title>
<g id="a_node14"><a xlink:href="PsyllaReference_Types.xhtml#PsyllaReference_Types_Details_clearable" xlink:title="clearable" target="_parent">
<polygon fill="linen" stroke="black" points="263.5,-252 178.5,-252 178.5,-216 269.5,-216 269.5,-246 263.5,-252"/>
<polyline fill="none" stroke="black" points="263.5,-252 263.5,-246 "/>
<polyline fill="none" stroke="black" points="269.5,-246 263.5,-246 "/>
<text text-anchor="middle" x="224" y="-230.3" font-family="Consolas, monospace" font-size="14.00">clearable</text>
</a>
</g>
</g>
<!-- object&#45;&gt;clearable -->
<g id="edge22" class="edge">
<title>object&#45;&gt;clearable</title>
<path fill="none" stroke="black" d="M224,-431.85C224,-394.83 224,-307.18 224,-262.39"/>
<polygon fill="black" stroke="black" points="227.5,-262.23 224,-252.23 220.5,-262.23 227.5,-262.23"/>
</g>
<!-- streamable&#45;&gt;iterable -->
<g id="edge12" class="edge">
<title>streamable&#45;&gt;iterable</title>
<path fill="none" stroke="black" d="M315.45,-287.7C317.45,-279.9 319.87,-270.51 322.1,-261.83"/>
<polygon fill="black" stroke="black" points="325.5,-262.66 324.6,-252.1 318.72,-260.92 325.5,-262.66"/>
</g>
<!-- clearable&#45;&gt;container -->
<g id="edge16" class="edge">
<title>clearable&#45;&gt;container</title>
<path fill="none" stroke="black" d="M236.36,-215.7C242.23,-207.47 249.37,-197.48 255.84,-188.42"/>
<polygon fill="black" stroke="black" points="258.82,-190.28 261.78,-180.1 253.12,-186.21 258.82,-190.28"/>
</g>
</g>
</svg>
