<?xml version="1.0" encoding="UTF-8" standalone="no"?>
<!DOCTYPE svg PUBLIC "-//W3C//DTD SVG 1.1//EN"
 "http://www.w3.org/Graphics/SVG/1.1/DTD/svg11.dtd">
<!-- Generated by graphviz version 2.49.3 (0)
 -->
<!-- Title: integer Pages: 1 -->
<svg width="596pt" height="548pt"
 viewBox="0.00 0.00 596.33 548.00" xmlns="http://www.w3.org/2000/svg" xmlns:xlink="http://www.w3.org/1999/xlink">
<g id="graph0" class="graph" transform="scale(1 1) rotate(0) translate(4 544)">
<title>integer</title>
<polygon fill="transparent" stroke="transparent" points="-4,4 -4,-544 592.33,-544 592.33,4 -4,4"/>
<!-- bitwise -->
<g id="node1" class="node">
<title>bitwise</title>
<g id="a_node1"><a xlink:href="PsyllaReference_Types.xhtml#PsyllaReference_Types_Details_bitwise" xlink:title="bitwise" target="_parent">
<polygon fill="linen" stroke="black" points="59,-396 11,-396 11,-360 65,-360 65,-390 59,-396"/>
<polyline fill="none" stroke="black" points="59,-396 59,-390 "/>
<polyline fill="none" stroke="black" points="65,-390 59,-390 "/>
<text text-anchor="middle" x="38" y="-374.4" font-family="Source Code Pro,monospace" font-size="12.00">bitwise</text>
</a>
</g>
</g>
<!-- integral -->
<g id="node2" class="node">
<title>integral</title>
<g id="a_node2"><a xlink:href="PsyllaReference_Types.xhtml#PsyllaReference_Types_Details_integral" xlink:title="integral" target="_parent">
<polygon fill="linen" stroke="black" points="76,-108 28,-108 28,-72 82,-72 82,-102 76,-108"/>
<polyline fill="none" stroke="black" points="76,-108 76,-102 "/>
<polyline fill="none" stroke="black" points="82,-102 76,-102 "/>
<text text-anchor="middle" x="55" y="-86.4" font-family="Source Code Pro,monospace" font-size="12.00">integral</text>
</a>
</g>
</g>
<!-- bitwise&#45;&gt;integral -->
<g id="edge4" class="edge">
<title>bitwise&#45;&gt;integral</title>
<path fill="none" stroke="black" d="M39.01,-359.97C41.85,-312.29 49.88,-177.18 53.36,-118.63"/>
<polygon fill="black" stroke="black" points="56.87,-118.5 53.97,-108.31 49.88,-118.08 56.87,-118.5"/>
</g>
<!-- integer -->
<g id="node3" class="node">
<title>integer</title>
<g id="a_node3"><a xlink:href="PsyllaReference_Types.xhtml#PsyllaReference_Types_Details_integer" xlink:title="integer" target="_parent">
<polygon fill="wheat" stroke="black" points="48,-36 0,-36 0,0 54,0 54,-30 48,-36"/>
<polyline fill="none" stroke="black" points="48,-36 48,-30 "/>
<polyline fill="none" stroke="black" points="54,-30 48,-30 "/>
<text text-anchor="middle" x="27" y="-14.4" font-family="Source Code Pro,monospace" font-size="12.00">integer</text>
</a>
</g>
</g>
<!-- bitwise&#45;&gt;integer -->
<g id="edge1" class="edge">
<title>bitwise&#45;&gt;integer</title>
<path fill="none" stroke="black" d="M30.31,-359.91C19.21,-333.62 0,-281.45 0,-235 0,-235 0,-235 0,-161 0,-120.5 10.73,-74.63 18.66,-46.26"/>
<polygon fill="black" stroke="black" points="22.13,-46.87 21.54,-36.29 15.4,-44.93 22.13,-46.87"/>
</g>
<!-- integral&#45;&gt;integer -->
<g id="edge2" class="edge">
<title>integral&#45;&gt;integer</title>
<path fill="none" stroke="black" d="M48.08,-71.7C44.93,-63.81 41.12,-54.3 37.62,-45.55"/>
<polygon fill="black" stroke="black" points="40.81,-44.09 33.84,-36.1 34.31,-46.69 40.81,-44.09"/>
</g>
<!-- logical -->
<g id="node4" class="node">
<title>logical</title>
<g id="a_node4"><a xlink:href="PsyllaReference_Types.xhtml#PsyllaReference_Types_Details_logical" xlink:title="logical" target="_parent">
<polygon fill="linen" stroke="black" points="73,-468 25,-468 25,-432 79,-432 79,-462 73,-468"/>
<polyline fill="none" stroke="black" points="73,-468 73,-462 "/>
<polyline fill="none" stroke="black" points="79,-462 73,-462 "/>
<text text-anchor="middle" x="52" y="-446.4" font-family="Source Code Pro,monospace" font-size="12.00">logical</text>
</a>
</g>
</g>
<!-- logical&#45;&gt;bitwise -->
<g id="edge3" class="edge">
<title>logical&#45;&gt;bitwise</title>
<path fill="none" stroke="black" d="M48.54,-431.7C47,-423.98 45.14,-414.71 43.42,-406.11"/>
<polygon fill="black" stroke="black" points="46.81,-405.22 41.42,-396.1 39.95,-406.6 46.81,-405.22"/>
</g>
<!-- rational -->
<g id="node5" class="node">
<title>rational</title>
<g id="a_node5"><a xlink:href="PsyllaReference_Types.xhtml#PsyllaReference_Types_Details_rational" xlink:title="rational" target="_parent">
<polygon fill="linen" stroke="black" points="171,-180 123,-180 123,-144 177,-144 177,-174 171,-180"/>
<polyline fill="none" stroke="black" points="171,-180 171,-174 "/>
<polyline fill="none" stroke="black" points="177,-174 171,-174 "/>
<text text-anchor="middle" x="150" y="-158.4" font-family="Source Code Pro,monospace" font-size="12.00">rational</text>
</a>
</g>
</g>
<!-- rational&#45;&gt;integral -->
<g id="edge5" class="edge">
<title>rational&#45;&gt;integral</title>
<path fill="none" stroke="black" d="M126.52,-143.7C114.44,-134.8 99.55,-123.82 86.48,-114.2"/>
<polygon fill="black" stroke="black" points="88.34,-111.22 78.21,-108.1 84.19,-116.85 88.34,-111.22"/>
</g>
<!-- object -->
<g id="node6" class="node">
<title>object</title>
<g id="a_node6"><a xlink:href="PsyllaReference_Types.xhtml#PsyllaReference_Types_Details_object" xlink:title="object" target="_parent">
<polygon fill="linen" stroke="black" points="335,-540 287,-540 287,-504 341,-504 341,-534 335,-540"/>
<polyline fill="none" stroke="black" points="335,-540 335,-534 "/>
<polyline fill="none" stroke="black" points="341,-534 335,-534 "/>
<text text-anchor="middle" x="314" y="-518.4" font-family="Source Code Pro,monospace" font-size="12.00">object</text>
</a>
</g>
</g>
<!-- object&#45;&gt;logical -->
<g id="edge6" class="edge">
<title>object&#45;&gt;logical</title>
<path fill="none" stroke="black" d="M286.76,-514.48C247.07,-504.87 171.08,-486.1 107,-468 101.15,-466.35 94.97,-464.52 88.95,-462.69"/>
<polygon fill="black" stroke="black" points="89.64,-459.25 79.06,-459.65 87.59,-465.94 89.64,-459.25"/>
</g>
<!-- convertabletointeger -->
<g id="node9" class="node">
<title>convertabletointeger</title>
<g id="a_node9"><a xlink:href="PsyllaReference_Types.xhtml#PsyllaReference_Types_Details_convertabletointeger" xlink:title="convertabletointeger" target="_parent">
<polygon fill="linen" stroke="black" points="174.13,-324 65.87,-324 65.87,-288 180.13,-288 180.13,-318 174.13,-324"/>
<polyline fill="none" stroke="black" points="174.13,-324 174.13,-318 "/>
<polyline fill="none" stroke="black" points="180.13,-318 174.13,-318 "/>
<text text-anchor="middle" x="123" y="-302.4" font-family="Source Code Pro,monospace" font-size="12.00">convertabletointeger</text>
</a>
</g>
</g>
<!-- object&#45;&gt;convertabletointeger -->
<g id="edge15" class="edge">
<title>object&#45;&gt;convertabletointeger</title>
<path fill="none" stroke="black" d="M286.95,-509.56C247.81,-491.52 176.13,-452.59 140,-396 128.25,-377.6 124.25,-353 123.04,-334.32"/>
<polygon fill="black" stroke="black" points="126.53,-333.95 122.62,-324.11 119.53,-334.24 126.53,-333.95"/>
</g>
<!-- convertabletointegral -->
<g id="node10" class="node">
<title>convertabletointegral</title>
<g id="a_node10"><a xlink:href="PsyllaReference_Types.xhtml#PsyllaReference_Types_Details_convertabletointegral" xlink:title="convertabletointegral" target="_parent">
<polygon fill="linen" stroke="black" points="260.96,-396 149.04,-396 149.04,-360 266.96,-360 266.96,-390 260.96,-396"/>
<polyline fill="none" stroke="black" points="260.96,-396 260.96,-390 "/>
<polyline fill="none" stroke="black" points="266.96,-390 260.96,-390 "/>
<text text-anchor="middle" x="208" y="-374.4" font-family="Source Code Pro,monospace" font-size="12.00">convertabletointegral</text>
</a>
</g>
</g>
<!-- object&#45;&gt;convertabletointegral -->
<g id="edge16" class="edge">
<title>object&#45;&gt;convertabletointegral</title>
<path fill="none" stroke="black" d="M301.21,-503.87C282.75,-479.14 248.49,-433.24 227.04,-404.51"/>
<polygon fill="black" stroke="black" points="229.62,-402.11 220.83,-396.19 224.01,-406.3 229.62,-402.11"/>
</g>
<!-- convertabletorational -->
<g id="node11" class="node">
<title>convertabletorational</title>
<g id="a_node11"><a xlink:href="PsyllaReference_Types.xhtml#PsyllaReference_Types_Details_convertabletorational" xlink:title="convertabletorational" target="_parent">
<polygon fill="linen" stroke="black" points="347.96,-324 236.04,-324 236.04,-288 353.96,-288 353.96,-318 347.96,-324"/>
<polyline fill="none" stroke="black" points="347.96,-324 347.96,-318 "/>
<polyline fill="none" stroke="black" points="353.96,-318 347.96,-318 "/>
<text text-anchor="middle" x="295" y="-302.4" font-family="Source Code Pro,monospace" font-size="12.00">convertabletorational</text>
</a>
</g>
</g>
<!-- object&#45;&gt;convertabletorational -->
<g id="edge17" class="edge">
<title>object&#45;&gt;convertabletorational</title>
<path fill="none" stroke="black" d="M312.48,-503.85C309.19,-466.83 301.41,-379.18 297.43,-334.39"/>
<polygon fill="black" stroke="black" points="300.9,-333.88 296.53,-324.23 293.93,-334.5 300.9,-333.88"/>
</g>
<!-- scalar -->
<g id="node12" class="node">
<title>scalar</title>
<g id="a_node12"><a xlink:href="PsyllaReference_Types.xhtml#PsyllaReference_Types_Details_scalar" xlink:title="scalar" target="_parent">
<polygon fill="linen" stroke="black" points="371,-396 323,-396 323,-360 377,-360 377,-390 371,-396"/>
<polyline fill="none" stroke="black" points="371,-396 371,-390 "/>
<polyline fill="none" stroke="black" points="377,-390 371,-390 "/>
<text text-anchor="middle" x="350" y="-374.4" font-family="Source Code Pro,monospace" font-size="12.00">scalar</text>
</a>
</g>
</g>
<!-- object&#45;&gt;scalar -->
<g id="edge18" class="edge">
<title>object&#45;&gt;scalar</title>
<path fill="none" stroke="black" d="M318.34,-503.87C324.5,-479.56 335.85,-434.82 343.15,-406.01"/>
<polygon fill="black" stroke="black" points="346.58,-406.74 345.64,-396.19 339.79,-405.02 346.58,-406.74"/>
</g>
<!-- value -->
<g id="node14" class="node">
<title>value</title>
<g id="a_node14"><a xlink:href="PsyllaReference_Types.xhtml#PsyllaReference_Types_Details_value" xlink:title="value" target="_parent">
<polygon fill="linen" stroke="black" points="409,-468 361,-468 361,-432 415,-432 415,-462 409,-468"/>
<polyline fill="none" stroke="black" points="409,-468 409,-462 "/>
<polyline fill="none" stroke="black" points="415,-462 409,-462 "/>
<text text-anchor="middle" x="388" y="-446.4" font-family="Source Code Pro,monospace" font-size="12.00">value</text>
</a>
</g>
</g>
<!-- object&#45;&gt;value -->
<g id="edge21" class="edge">
<title>object&#45;&gt;value</title>
<path fill="none" stroke="black" d="M332.29,-503.7C341.43,-495.05 352.64,-484.45 362.6,-475.03"/>
<polygon fill="black" stroke="black" points="365.06,-477.52 369.92,-468.1 360.25,-472.43 365.06,-477.52"/>
</g>
<!-- additive -->
<g id="node15" class="node">
<title>additive</title>
<g id="a_node15"><a xlink:href="PsyllaReference_Types.xhtml#PsyllaReference_Types_Details_additive" xlink:title="additive" target="_parent">
<polygon fill="linen" stroke="black" points="481.16,-468 432.84,-468 432.84,-432 487.16,-432 487.16,-462 481.16,-468"/>
<polyline fill="none" stroke="black" points="481.16,-468 481.16,-462 "/>
<polyline fill="none" stroke="black" points="487.16,-462 481.16,-462 "/>
<text text-anchor="middle" x="460" y="-446.4" font-family="Source Code Pro,monospace" font-size="12.00">additive</text>
</a>
</g>
</g>
<!-- object&#45;&gt;additive -->
<g id="edge22" class="edge">
<title>object&#45;&gt;additive</title>
<path fill="none" stroke="black" d="M341.12,-508C364.33,-496.87 397.94,-480.75 423.51,-468.5"/>
<polygon fill="black" stroke="black" points="425.03,-471.65 432.53,-464.17 422,-465.34 425.03,-471.65"/>
</g>
<!-- multiplicative -->
<g id="node16" class="node">
<title>multiplicative</title>
<g id="a_node16"><a xlink:href="PsyllaReference_Types.xhtml#PsyllaReference_Types_Details_multiplicative" xlink:title="multiplicative" target="_parent">
<polygon fill="linen" stroke="black" points="582.16,-468 505.84,-468 505.84,-432 588.16,-432 588.16,-462 582.16,-468"/>
<polyline fill="none" stroke="black" points="582.16,-468 582.16,-462 "/>
<polyline fill="none" stroke="black" points="588.16,-462 582.16,-462 "/>
<text text-anchor="middle" x="547" y="-446.4" font-family="Source Code Pro,monospace" font-size="12.00">multiplicative</text>
</a>
</g>
</g>
<!-- object&#45;&gt;multiplicative -->
<g id="edge23" class="edge">
<title>object&#45;&gt;multiplicative</title>
<path fill="none" stroke="black" d="M341.23,-513.42C376.9,-503.42 441.34,-485.06 496,-468 496.1,-467.97 496.19,-467.94 496.29,-467.91"/>
<polygon fill="black" stroke="black" points="497.1,-471.32 505.57,-464.96 494.98,-464.65 497.1,-471.32"/>
</g>
<!-- realnumeric -->
<g id="node7" class="node">
<title>realnumeric</title>
<g id="a_node7"><a xlink:href="PsyllaReference_Types.xhtml#PsyllaReference_Types_Details_realnumeric" xlink:title="realnumeric" target="_parent">
<polygon fill="linen" stroke="black" points="281.8,-252 214.2,-252 214.2,-216 287.8,-216 287.8,-246 281.8,-252"/>
<polyline fill="none" stroke="black" points="281.8,-252 281.8,-246 "/>
<polyline fill="none" stroke="black" points="287.8,-246 281.8,-246 "/>
<text text-anchor="middle" x="251" y="-230.4" font-family="Source Code Pro,monospace" font-size="12.00">realnumeric</text>
</a>
</g>
</g>
<!-- realnumeric&#45;&gt;rational -->
<g id="edge7" class="edge">
<title>realnumeric&#45;&gt;rational</title>
<path fill="none" stroke="black" d="M226.29,-215.88C213.33,-206.89 197.27,-195.76 183.23,-186.03"/>
<polygon fill="black" stroke="black" points="185.02,-183.01 174.8,-180.19 181.03,-188.76 185.02,-183.01"/>
</g>
<!-- numeric -->
<g id="node8" class="node">
<title>numeric</title>
<g id="a_node8"><a xlink:href="PsyllaReference_Types.xhtml#PsyllaReference_Types_Details_numeric" xlink:title="numeric" target="_parent">
<polygon fill="linen" stroke="black" points="459.82,-324 410.18,-324 410.18,-288 465.82,-288 465.82,-318 459.82,-324"/>
<polyline fill="none" stroke="black" points="459.82,-324 459.82,-318 "/>
<polyline fill="none" stroke="black" points="465.82,-318 459.82,-318 "/>
<text text-anchor="middle" x="438" y="-302.4" font-family="Source Code Pro,monospace" font-size="12.00">numeric</text>
</a>
</g>
</g>
<!-- numeric&#45;&gt;realnumeric -->
<g id="edge8" class="edge">
<title>numeric&#45;&gt;realnumeric</title>
<path fill="none" stroke="black" d="M410.04,-293.53C405.36,-291.65 400.55,-289.75 396,-288 363.22,-275.38 326,-261.79 297.48,-251.53"/>
<polygon fill="black" stroke="black" points="298.37,-248.13 287.78,-248.05 296.01,-254.72 298.37,-248.13"/>
</g>
<!-- convertabletointeger&#45;&gt;realnumeric -->
<g id="edge9" class="edge">
<title>convertabletointeger&#45;&gt;realnumeric</title>
<path fill="none" stroke="black" d="M154.31,-287.88C171.2,-278.64 192.25,-267.13 210.38,-257.21"/>
<polygon fill="black" stroke="black" points="212.47,-260.06 219.57,-252.19 209.11,-253.92 212.47,-260.06"/>
</g>
<!-- convertabletointegral&#45;&gt;realnumeric -->
<g id="edge10" class="edge">
<title>convertabletointegral&#45;&gt;realnumeric</title>
<path fill="none" stroke="black" d="M210.51,-359.98C213.45,-341.86 218.95,-312.46 227,-288 229.9,-279.17 233.82,-269.84 237.65,-261.52"/>
<polygon fill="black" stroke="black" points="240.9,-262.82 242.03,-252.29 234.58,-259.82 240.9,-262.82"/>
</g>
<!-- convertabletorational&#45;&gt;realnumeric -->
<g id="edge11" class="edge">
<title>convertabletorational&#45;&gt;realnumeric</title>
<path fill="none" stroke="black" d="M284.12,-287.7C279.01,-279.56 272.8,-269.69 267.16,-260.7"/>
<polygon fill="black" stroke="black" points="270.04,-258.71 261.75,-252.1 264.11,-262.43 270.04,-258.71"/>
</g>
<!-- scalar&#45;&gt;realnumeric -->
<g id="edge12" class="edge">
<title>scalar&#45;&gt;realnumeric</title>
<path fill="none" stroke="black" d="M358.83,-359.85C367.28,-340.82 376.87,-309.9 363,-288 348.59,-265.24 321.47,-252.06 297.53,-244.54"/>
<polygon fill="black" stroke="black" points="298.43,-241.16 287.86,-241.74 296.49,-247.88 298.43,-241.16"/>
</g>
<!-- arithmetic -->
<g id="node13" class="node">
<title>arithmetic</title>
<g id="a_node13"><a xlink:href="PsyllaReference_Types.xhtml#PsyllaReference_Types_Details_arithmetic" xlink:title="arithmetic" target="_parent">
<polygon fill="linen" stroke="black" points="491.15,-396 432.85,-396 432.85,-360 497.15,-360 497.15,-390 491.15,-396"/>
<polyline fill="none" stroke="black" points="491.15,-396 491.15,-390 "/>
<polyline fill="none" stroke="black" points="497.15,-390 491.15,-390 "/>
<text text-anchor="middle" x="465" y="-374.4" font-family="Source Code Pro,monospace" font-size="12.00">arithmetic</text>
</a>
</g>
</g>
<!-- arithmetic&#45;&gt;numeric -->
<g id="edge13" class="edge">
<title>arithmetic&#45;&gt;numeric</title>
<path fill="none" stroke="black" d="M458.33,-359.7C455.29,-351.81 451.62,-342.3 448.24,-333.55"/>
<polygon fill="black" stroke="black" points="451.46,-332.17 444.6,-324.1 444.93,-334.69 451.46,-332.17"/>
</g>
<!-- value&#45;&gt;numeric -->
<g id="edge14" class="edge">
<title>value&#45;&gt;numeric</title>
<path fill="none" stroke="black" d="M394.03,-431.87C402.63,-407.46 418.48,-362.43 428.62,-333.64"/>
<polygon fill="black" stroke="black" points="431.93,-334.78 431.95,-324.19 425.32,-332.46 431.93,-334.78"/>
</g>
<!-- additive&#45;&gt;arithmetic -->
<g id="edge19" class="edge">
<title>additive&#45;&gt;arithmetic</title>
<path fill="none" stroke="black" d="M461.24,-431.7C461.79,-423.98 462.45,-414.71 463.06,-406.11"/>
<polygon fill="black" stroke="black" points="466.56,-406.33 463.78,-396.1 459.57,-405.83 466.56,-406.33"/>
</g>
<!-- multiplicative&#45;&gt;arithmetic -->
<g id="edge20" class="edge">
<title>multiplicative&#45;&gt;arithmetic</title>
<path fill="none" stroke="black" d="M526.73,-431.7C516.5,-422.97 503.94,-412.24 492.82,-402.75"/>
<polygon fill="black" stroke="black" points="494.91,-399.94 485.04,-396.1 490.37,-405.26 494.91,-399.94"/>
</g>
</g>
</svg>
