<?xml version="1.0" encoding="UTF-8" standalone="no"?>
<!DOCTYPE svg PUBLIC "-//W3C//DTD SVG 1.1//EN"
 "http://www.w3.org/Graphics/SVG/1.1/DTD/svg11.dtd">
<!-- Generated by graphviz version 14.0.0 (0)
 -->
<!-- Title: real Pages: 1 -->
<svg width="577pt" height="404pt"
 viewBox="0.00 0.00 577.00 404.00" xmlns="http://www.w3.org/2000/svg" xmlns:xlink="http://www.w3.org/1999/xlink">
<g id="graph0" class="graph" transform="scale(1 1) rotate(0) translate(4 400)">
<title>real</title>
<polygon fill="none" stroke="none" points="-4,4 -4,-400 572.63,-400 572.63,4 -4,4"/>
<!-- realnumeric -->
<g id="node1" class="node">
<title>realnumeric</title>
<g id="a_node1"><a xlink:href="PsyllaReference_Types.xhtml#PsyllaReference_Types_Details_realnumeric" xlink:title="realnumeric" target="_parent">
<polygon fill="linen" stroke="black" points="261.96,-108 194.66,-108 194.66,-72 267.96,-72 267.96,-102 261.96,-108"/>
<polyline fill="none" stroke="black" points="261.96,-108 261.96,-102"/>
<polyline fill="none" stroke="black" points="267.96,-102 261.96,-102"/>
<text xml:space="preserve" text-anchor="middle" x="231.31" y="-86.4" font-family="Source Code Pro,monospace" font-size="12.00">realnumeric</text>
</a>
</g>
</g>
<!-- real -->
<g id="node2" class="node">
<title>real</title>
<g id="a_node2"><a xlink:href="PsyllaReference_Types.xhtml#PsyllaReference_Types_Details_real" xlink:title="real" target="_parent">
<polygon fill="wheat" stroke="black" points="252.31,-36 204.31,-36 204.31,0 258.31,0 258.31,-30 252.31,-36"/>
<polyline fill="none" stroke="black" points="252.31,-36 252.31,-30"/>
<polyline fill="none" stroke="black" points="258.31,-30 252.31,-30"/>
<text xml:space="preserve" text-anchor="middle" x="231.31" y="-14.4" font-family="Source Code Pro,monospace" font-size="12.00">real</text>
</a>
</g>
</g>
<!-- realnumeric&#45;&gt;real -->
<g id="edge1" class="edge">
<title>realnumeric&#45;&gt;real</title>
<path fill="none" stroke="black" d="M231.31,-71.7C231.31,-64.41 231.31,-55.73 231.31,-47.54"/>
<polygon fill="black" stroke="black" points="234.81,-47.62 231.31,-37.62 227.81,-47.62 234.81,-47.62"/>
</g>
<!-- numeric -->
<g id="node3" class="node">
<title>numeric</title>
<g id="a_node3"><a xlink:href="PsyllaReference_Types.xhtml#PsyllaReference_Types_Details_numeric" xlink:title="numeric" target="_parent">
<polygon fill="linen" stroke="black" points="389.97,-180 340.65,-180 340.65,-144 395.97,-144 395.97,-174 389.97,-180"/>
<polyline fill="none" stroke="black" points="389.97,-180 389.97,-174"/>
<polyline fill="none" stroke="black" points="395.97,-174 389.97,-174"/>
<text xml:space="preserve" text-anchor="middle" x="368.31" y="-158.4" font-family="Source Code Pro,monospace" font-size="12.00">numeric</text>
</a>
</g>
</g>
<!-- numeric&#45;&gt;realnumeric -->
<g id="edge2" class="edge">
<title>numeric&#45;&gt;realnumeric</title>
<path fill="none" stroke="black" d="M340.25,-146.67C321.55,-137.11 296.58,-124.35 275.27,-113.46"/>
<polygon fill="black" stroke="black" points="276.99,-110.41 266.49,-108.97 273.8,-116.64 276.99,-110.41"/>
</g>
<!-- convertabletointeger -->
<g id="node4" class="node">
<title>convertabletointeger</title>
<g id="a_node4"><a xlink:href="PsyllaReference_Types.xhtml#PsyllaReference_Types_Details_convertabletointeger" xlink:title="convertabletointeger" target="_parent">
<polygon fill="linen" stroke="black" points="108.62,-252 0,-252 0,-216 114.62,-216 114.62,-246 108.62,-252"/>
<polyline fill="none" stroke="black" points="108.62,-252 108.62,-246"/>
<polyline fill="none" stroke="black" points="114.62,-246 108.62,-246"/>
<text xml:space="preserve" text-anchor="middle" x="57.31" y="-230.4" font-family="Source Code Pro,monospace" font-size="12.00">convertabletointeger</text>
</a>
</g>
</g>
<!-- convertabletointeger&#45;&gt;realnumeric -->
<g id="edge3" class="edge">
<title>convertabletointeger&#45;&gt;realnumeric</title>
<path fill="none" stroke="black" d="M56.26,-215.72C56.01,-195.98 58.69,-163.85 76.31,-144 103.28,-113.61 148.41,-100.64 183.04,-95.1"/>
<polygon fill="black" stroke="black" points="183.43,-98.58 192.84,-93.71 182.45,-91.65 183.43,-98.58"/>
</g>
<!-- convertabletointegral -->
<g id="node5" class="node">
<title>convertabletointegral</title>
<g id="a_node5"><a xlink:href="PsyllaReference_Types.xhtml#PsyllaReference_Types_Details_convertabletointegral" xlink:title="convertabletointegral" target="_parent">
<polygon fill="linen" stroke="black" points="197.29,-180 85.33,-180 85.33,-144 203.29,-144 203.29,-174 197.29,-180"/>
<polyline fill="none" stroke="black" points="197.29,-180 197.29,-174"/>
<polyline fill="none" stroke="black" points="203.29,-174 197.29,-174"/>
<text xml:space="preserve" text-anchor="middle" x="144.31" y="-158.4" font-family="Source Code Pro,monospace" font-size="12.00">convertabletointegral</text>
</a>
</g>
</g>
<!-- convertabletointegral&#45;&gt;realnumeric -->
<g id="edge4" class="edge">
<title>convertabletointegral&#45;&gt;realnumeric</title>
<path fill="none" stroke="black" d="M165.82,-143.7C176.38,-135.2 189.29,-124.81 200.84,-115.51"/>
<polygon fill="black" stroke="black" points="202.97,-118.29 208.57,-109.3 198.59,-112.84 202.97,-118.29"/>
</g>
<!-- convertabletorational -->
<g id="node6" class="node">
<title>convertabletorational</title>
<g id="a_node6"><a xlink:href="PsyllaReference_Types.xhtml#PsyllaReference_Types_Details_convertabletorational" xlink:title="convertabletorational" target="_parent">
<polygon fill="linen" stroke="black" points="282.29,-252 170.33,-252 170.33,-216 288.29,-216 288.29,-246 282.29,-252"/>
<polyline fill="none" stroke="black" points="282.29,-252 282.29,-246"/>
<polyline fill="none" stroke="black" points="288.29,-246 282.29,-246"/>
<text xml:space="preserve" text-anchor="middle" x="229.31" y="-230.4" font-family="Source Code Pro,monospace" font-size="12.00">convertabletorational</text>
</a>
</g>
</g>
<!-- convertabletorational&#45;&gt;realnumeric -->
<g id="edge5" class="edge">
<title>convertabletorational&#45;&gt;realnumeric</title>
<path fill="none" stroke="black" d="M229.55,-215.59C229.89,-191.61 230.5,-148.14 230.91,-119.42"/>
<polygon fill="black" stroke="black" points="234.41,-119.67 231.05,-109.62 227.41,-119.57 234.41,-119.67"/>
</g>
<!-- scalar -->
<g id="node7" class="node">
<title>scalar</title>
<g id="a_node7"><a xlink:href="PsyllaReference_Types.xhtml#PsyllaReference_Types_Details_scalar" xlink:title="scalar" target="_parent">
<polygon fill="linen" stroke="black" points="313.31,-180 265.31,-180 265.31,-144 319.31,-144 319.31,-174 313.31,-180"/>
<polyline fill="none" stroke="black" points="313.31,-180 313.31,-174"/>
<polyline fill="none" stroke="black" points="319.31,-174 313.31,-174"/>
<text xml:space="preserve" text-anchor="middle" x="292.31" y="-158.4" font-family="Source Code Pro,monospace" font-size="12.00">scalar</text>
</a>
</g>
</g>
<!-- scalar&#45;&gt;realnumeric -->
<g id="edge6" class="edge">
<title>scalar&#45;&gt;realnumeric</title>
<path fill="none" stroke="black" d="M277.23,-143.7C270.14,-135.56 261.54,-125.69 253.71,-116.7"/>
<polygon fill="black" stroke="black" points="256.42,-114.49 247.21,-109.25 251.14,-119.08 256.42,-114.49"/>
</g>
<!-- arithmetic -->
<g id="node8" class="node">
<title>arithmetic</title>
<g id="a_node8"><a xlink:href="PsyllaReference_Types.xhtml#PsyllaReference_Types_Details_arithmetic" xlink:title="arithmetic" target="_parent">
<polygon fill="linen" stroke="black" points="466.63,-252 407.99,-252 407.99,-216 472.63,-216 472.63,-246 466.63,-252"/>
<polyline fill="none" stroke="black" points="466.63,-252 466.63,-246"/>
<polyline fill="none" stroke="black" points="472.63,-246 466.63,-246"/>
<text xml:space="preserve" text-anchor="middle" x="440.31" y="-230.4" font-family="Source Code Pro,monospace" font-size="12.00">arithmetic</text>
</a>
</g>
</g>
<!-- arithmetic&#45;&gt;numeric -->
<g id="edge7" class="edge">
<title>arithmetic&#45;&gt;numeric</title>
<path fill="none" stroke="black" d="M422.51,-215.7C414.03,-207.45 403.72,-197.43 394.38,-188.35"/>
<polygon fill="black" stroke="black" points="396.85,-185.86 387.24,-181.4 391.97,-190.88 396.85,-185.86"/>
</g>
<!-- value -->
<g id="node9" class="node">
<title>value</title>
<g id="a_node9"><a xlink:href="PsyllaReference_Types.xhtml#PsyllaReference_Types_Details_value" xlink:title="value" target="_parent">
<polygon fill="linen" stroke="black" points="389.31,-324 341.31,-324 341.31,-288 395.31,-288 395.31,-318 389.31,-324"/>
<polyline fill="none" stroke="black" points="389.31,-324 389.31,-318"/>
<polyline fill="none" stroke="black" points="395.31,-318 389.31,-318"/>
<text xml:space="preserve" text-anchor="middle" x="368.31" y="-302.4" font-family="Source Code Pro,monospace" font-size="12.00">value</text>
</a>
</g>
</g>
<!-- value&#45;&gt;numeric -->
<g id="edge8" class="edge">
<title>value&#45;&gt;numeric</title>
<path fill="none" stroke="black" d="M368.31,-287.59C368.31,-263.61 368.31,-220.14 368.31,-191.42"/>
<polygon fill="black" stroke="black" points="371.81,-191.62 368.31,-181.62 364.81,-191.62 371.81,-191.62"/>
</g>
<!-- object -->
<g id="node10" class="node">
<title>object</title>
<g id="a_node10"><a xlink:href="PsyllaReference_Types.xhtml#PsyllaReference_Types_Details_object" xlink:title="object" target="_parent">
<polygon fill="linen" stroke="black" points="334.31,-396 286.31,-396 286.31,-360 340.31,-360 340.31,-390 334.31,-396"/>
<polyline fill="none" stroke="black" points="334.31,-396 334.31,-390"/>
<polyline fill="none" stroke="black" points="340.31,-390 334.31,-390"/>
<text xml:space="preserve" text-anchor="middle" x="313.31" y="-374.4" font-family="Source Code Pro,monospace" font-size="12.00">object</text>
</a>
</g>
</g>
<!-- object&#45;&gt;convertabletointeger -->
<g id="edge9" class="edge">
<title>object&#45;&gt;convertabletointeger</title>
<path fill="none" stroke="black" d="M286.03,-374.43C247.9,-369.73 177.78,-357 128.31,-324 104.64,-308.22 85.15,-282.05 72.61,-262.17"/>
<polygon fill="black" stroke="black" points="75.67,-260.46 67.49,-253.72 69.69,-264.09 75.67,-260.46"/>
</g>
<!-- object&#45;&gt;convertabletointegral -->
<g id="edge10" class="edge">
<title>object&#45;&gt;convertabletointegral</title>
<path fill="none" stroke="black" d="M285.85,-362.48C250.97,-342.5 191.65,-303.12 161.31,-252 150.49,-233.78 146.35,-210.09 144.86,-191.73"/>
<polygon fill="black" stroke="black" points="148.36,-191.58 144.29,-181.79 141.37,-191.98 148.36,-191.58"/>
</g>
<!-- object&#45;&gt;convertabletorational -->
<g id="edge11" class="edge">
<title>object&#45;&gt;convertabletorational</title>
<path fill="none" stroke="black" d="M303.01,-359.59C288.57,-335.18 262.19,-290.58 245.22,-261.89"/>
<polygon fill="black" stroke="black" points="248.31,-260.24 240.2,-253.41 242.28,-263.8 248.31,-260.24"/>
</g>
<!-- object&#45;&gt;scalar -->
<g id="edge12" class="edge">
<title>object&#45;&gt;scalar</title>
<path fill="none" stroke="black" d="M311.63,-359.85C308.02,-323.14 299.54,-236.66 295.11,-191.53"/>
<polygon fill="black" stroke="black" points="298.61,-191.35 294.15,-181.74 291.64,-192.03 298.61,-191.35"/>
</g>
<!-- object&#45;&gt;value -->
<g id="edge15" class="edge">
<title>object&#45;&gt;value</title>
<path fill="none" stroke="black" d="M326.91,-359.7C333.23,-351.64 340.89,-341.89 347.89,-332.98"/>
<polygon fill="black" stroke="black" points="350.51,-335.32 353.94,-325.29 345,-331 350.51,-335.32"/>
</g>
<!-- additive -->
<g id="node11" class="node">
<title>additive</title>
<g id="a_node11"><a xlink:href="PsyllaReference_Types.xhtml#PsyllaReference_Types_Details_additive" xlink:title="additive" target="_parent">
<polygon fill="linen" stroke="black" points="461.64,-324 412.98,-324 412.98,-288 467.64,-288 467.64,-318 461.64,-324"/>
<polyline fill="none" stroke="black" points="461.64,-324 461.64,-318"/>
<polyline fill="none" stroke="black" points="467.64,-318 461.64,-318"/>
<text xml:space="preserve" text-anchor="middle" x="440.31" y="-302.4" font-family="Source Code Pro,monospace" font-size="12.00">additive</text>
</a>
</g>
</g>
<!-- object&#45;&gt;additive -->
<g id="edge16" class="edge">
<title>object&#45;&gt;additive</title>
<path fill="none" stroke="black" d="M340.55,-361.98C358.68,-351.99 382.73,-338.74 402.67,-327.75"/>
<polygon fill="black" stroke="black" points="404.28,-330.86 411.35,-322.96 400.9,-324.73 404.28,-330.86"/>
</g>
<!-- multiplicative -->
<g id="node12" class="node">
<title>multiplicative</title>
<g id="a_node12"><a xlink:href="PsyllaReference_Types.xhtml#PsyllaReference_Types_Details_multiplicative" xlink:title="multiplicative" target="_parent">
<polygon fill="linen" stroke="black" points="562.63,-324 485.98,-324 485.98,-288 568.63,-288 568.63,-318 562.63,-324"/>
<polyline fill="none" stroke="black" points="562.63,-324 562.63,-318"/>
<polyline fill="none" stroke="black" points="568.63,-318 562.63,-318"/>
<text xml:space="preserve" text-anchor="middle" x="527.31" y="-302.4" font-family="Source Code Pro,monospace" font-size="12.00">multiplicative</text>
</a>
</g>
</g>
<!-- object&#45;&gt;multiplicative -->
<g id="edge17" class="edge">
<title>object&#45;&gt;multiplicative</title>
<path fill="none" stroke="black" d="M340.73,-368.15C371.11,-358.33 421.83,-341.9 474.92,-324.44"/>
<polygon fill="black" stroke="black" points="475.73,-327.87 484.13,-321.41 473.54,-321.22 475.73,-327.87"/>
</g>
<!-- additive&#45;&gt;arithmetic -->
<g id="edge13" class="edge">
<title>additive&#45;&gt;arithmetic</title>
<path fill="none" stroke="black" d="M440.31,-287.7C440.31,-280.41 440.31,-271.73 440.31,-263.54"/>
<polygon fill="black" stroke="black" points="443.81,-263.62 440.31,-253.62 436.81,-263.62 443.81,-263.62"/>
</g>
<!-- multiplicative&#45;&gt;arithmetic -->
<g id="edge14" class="edge">
<title>multiplicative&#45;&gt;arithmetic</title>
<path fill="none" stroke="black" d="M505.8,-287.7C495.24,-279.2 482.33,-268.81 470.78,-259.51"/>
<polygon fill="black" stroke="black" points="473.03,-256.84 463.05,-253.3 468.65,-262.29 473.03,-256.84"/>
</g>
</g>
</svg>
