<?xml version="1.0" encoding="UTF-8" standalone="no"?>
<!DOCTYPE svg PUBLIC "-//W3C//DTD SVG 1.1//EN"
 "http://www.w3.org/Graphics/SVG/1.1/DTD/svg11.dtd">
<!-- Generated by graphviz version 2.43.0 (0)
 -->
<!-- Title: formalarray Pages: 1 -->
<svg width="391pt" height="404pt"
 viewBox="0.00 0.00 391.00 404.00" xmlns="http://www.w3.org/2000/svg" xmlns:xlink="http://www.w3.org/1999/xlink">
<g id="graph0" class="graph" transform="scale(1 1) rotate(0) translate(4 400)">
<title>formalarray</title>
<polygon fill="transparent" stroke="transparent" points="-4,4 -4,-400 387,-400 387,4 -4,4"/>
<!-- appendable -->
<g id="node1" class="node">
<title>appendable</title>
<g id="a_node1"><a xlink:href="PsyllaReference_Types.xhtml#PsyllaReference_Types_Details_appendable" xlink:title="appendable" target="_parent">
<polygon fill="linen" stroke="black" points="71,-252 0,-252 0,-216 77,-216 77,-246 71,-252"/>
<polyline fill="none" stroke="black" points="71,-252 71,-246 "/>
<polyline fill="none" stroke="black" points="77,-246 71,-246 "/>
<text text-anchor="middle" x="38.5" y="-231.5" font-family="PT Mono, monospace" font-size="10.00">appendable</text>
</a>
</g>
</g>
<!-- formalarray -->
<g id="node5" class="node">
<title>formalarray</title>
<g id="a_node5"><a xlink:href="PsyllaReference_Types.xhtml#PsyllaReference_Types_Details_formalarray" xlink:title="formalarray" target="_parent">
<polygon fill="wheat" stroke="black" points="158,-36 81,-36 81,0 164,0 164,-30 158,-36"/>
<polyline fill="none" stroke="black" points="158,-36 158,-30 "/>
<polyline fill="none" stroke="black" points="164,-30 158,-30 "/>
<text text-anchor="middle" x="122.5" y="-15.5" font-family="PT Mono, monospace" font-size="10.00">formalarray</text>
</a>
</g>
</g>
<!-- appendable&#45;&gt;formalarray -->
<g id="edge1" class="edge">
<title>appendable&#45;&gt;formalarray</title>
<path fill="none" stroke="black" d="M36,-215.73C32.4,-184.78 28.73,-118.74 54.5,-72 61.07,-60.09 71.53,-49.96 82.31,-41.85"/>
<polygon fill="black" stroke="black" points="84.39,-44.66 90.55,-36.04 80.36,-38.94 84.39,-44.66"/>
</g>
<!-- container -->
<g id="node2" class="node">
<title>container</title>
<g id="a_node2"><a xlink:href="PsyllaReference_Types.xhtml#PsyllaReference_Types_Details_container" xlink:title="container" target="_parent">
<polygon fill="linen" stroke="black" points="286,-108 221,-108 221,-72 292,-72 292,-102 286,-108"/>
<polyline fill="none" stroke="black" points="286,-108 286,-102 "/>
<polyline fill="none" stroke="black" points="292,-102 286,-102 "/>
<text text-anchor="middle" x="256.5" y="-87.5" font-family="PT Mono, monospace" font-size="10.00">container</text>
</a>
</g>
</g>
<!-- container&#45;&gt;formalarray -->
<g id="edge2" class="edge">
<title>container&#45;&gt;formalarray</title>
<path fill="none" stroke="black" d="M223.72,-71.88C205.87,-62.55 183.6,-50.92 164.5,-40.94"/>
<polygon fill="black" stroke="black" points="165.89,-37.72 155.41,-36.19 162.65,-43.92 165.89,-37.72"/>
</g>
<!-- indexed -->
<g id="node3" class="node">
<title>indexed</title>
<g id="a_node3"><a xlink:href="PsyllaReference_Types.xhtml#PsyllaReference_Types_Details_indexed" xlink:title="indexed" target="_parent">
<polygon fill="linen" stroke="black" points="117,-108 64,-108 64,-72 123,-72 123,-102 117,-108"/>
<polyline fill="none" stroke="black" points="117,-108 117,-102 "/>
<polyline fill="none" stroke="black" points="123,-102 117,-102 "/>
<text text-anchor="middle" x="93.5" y="-87.5" font-family="PT Mono, monospace" font-size="10.00">indexed</text>
</a>
</g>
</g>
<!-- indexed&#45;&gt;formalarray -->
<g id="edge3" class="edge">
<title>indexed&#45;&gt;formalarray</title>
<path fill="none" stroke="black" d="M100.67,-71.7C103.93,-63.81 107.87,-54.3 111.5,-45.55"/>
<polygon fill="black" stroke="black" points="114.82,-46.68 115.41,-36.1 108.35,-44 114.82,-46.68"/>
</g>
<!-- sequential -->
<g id="node4" class="node">
<title>sequential</title>
<g id="a_node4"><a xlink:href="PsyllaReference_Types.xhtml#PsyllaReference_Types_Details_sequential" xlink:title="sequential" target="_parent">
<polygon fill="linen" stroke="black" points="229,-324 158,-324 158,-288 235,-288 235,-318 229,-324"/>
<polyline fill="none" stroke="black" points="229,-324 229,-318 "/>
<polyline fill="none" stroke="black" points="235,-318 229,-318 "/>
<text text-anchor="middle" x="196.5" y="-303.5" font-family="PT Mono, monospace" font-size="10.00">sequential</text>
</a>
</g>
</g>
<!-- sequential&#45;&gt;formalarray -->
<g id="edge4" class="edge">
<title>sequential&#45;&gt;formalarray</title>
<path fill="none" stroke="black" d="M186.68,-287.81C181.25,-277.66 174.75,-264.41 170.5,-252 157.49,-213.98 136.53,-99.13 127.22,-46.22"/>
<polygon fill="black" stroke="black" points="130.64,-45.46 125.46,-36.22 123.74,-46.67 130.64,-45.46"/>
</g>
<!-- streamable -->
<g id="node10" class="node">
<title>streamable</title>
<g id="a_node10"><a xlink:href="PsyllaReference_Types.xhtml#PsyllaReference_Types_Details_streamable" xlink:title="streamable" target="_parent">
<polygon fill="linen" stroke="black" points="251,-252 180,-252 180,-216 257,-216 257,-246 251,-252"/>
<polyline fill="none" stroke="black" points="251,-252 251,-246 "/>
<polyline fill="none" stroke="black" points="257,-246 251,-246 "/>
<text text-anchor="middle" x="218.5" y="-231.5" font-family="PT Mono, monospace" font-size="10.00">streamable</text>
</a>
</g>
</g>
<!-- sequential&#45;&gt;streamable -->
<g id="edge14" class="edge">
<title>sequential&#45;&gt;streamable</title>
<path fill="none" stroke="black" d="M201.94,-287.7C204.39,-279.9 207.34,-270.51 210.07,-261.83"/>
<polygon fill="black" stroke="black" points="213.46,-262.69 213.12,-252.1 206.79,-260.59 213.46,-262.69"/>
</g>
<!-- object -->
<g id="node6" class="node">
<title>object</title>
<g id="a_node6"><a xlink:href="PsyllaReference_Types.xhtml#PsyllaReference_Types_Details_object" xlink:title="object" target="_parent">
<polygon fill="linen" stroke="black" points="217.5,-396 169.5,-396 169.5,-360 223.5,-360 223.5,-390 217.5,-396"/>
<polyline fill="none" stroke="black" points="217.5,-396 217.5,-390 "/>
<polyline fill="none" stroke="black" points="223.5,-390 217.5,-390 "/>
<text text-anchor="middle" x="196.5" y="-375.5" font-family="PT Mono, monospace" font-size="10.00">object</text>
</a>
</g>
</g>
<!-- object&#45;&gt;appendable -->
<g id="edge5" class="edge">
<title>object&#45;&gt;appendable</title>
<path fill="none" stroke="black" d="M169.15,-366.95C147.63,-358.07 117.82,-343.48 96.5,-324 77.05,-306.23 61.24,-280.57 51.07,-261.37"/>
<polygon fill="black" stroke="black" points="54.08,-259.57 46.41,-252.26 47.85,-262.76 54.08,-259.57"/>
</g>
<!-- object&#45;&gt;indexed -->
<g id="edge9" class="edge">
<title>object&#45;&gt;indexed</title>
<path fill="none" stroke="black" d="M176.61,-359.66C166.78,-350.07 155.55,-337.41 148.5,-324 112.51,-255.51 99.78,-163.43 95.51,-118.28"/>
<polygon fill="black" stroke="black" points="98.98,-117.76 94.62,-108.1 92.01,-118.37 98.98,-117.76"/>
</g>
<!-- object&#45;&gt;sequential -->
<g id="edge10" class="edge">
<title>object&#45;&gt;sequential</title>
<path fill="none" stroke="black" d="M196.5,-359.7C196.5,-351.98 196.5,-342.71 196.5,-334.11"/>
<polygon fill="black" stroke="black" points="200,-334.1 196.5,-324.1 193,-334.1 200,-334.1"/>
</g>
<!-- clearable -->
<g id="node7" class="node">
<title>clearable</title>
<g id="a_node7"><a xlink:href="PsyllaReference_Types.xhtml#PsyllaReference_Types_Details_clearable" xlink:title="clearable" target="_parent">
<polygon fill="linen" stroke="black" points="328,-180 263,-180 263,-144 334,-144 334,-174 328,-180"/>
<polyline fill="none" stroke="black" points="328,-180 328,-174 "/>
<polyline fill="none" stroke="black" points="334,-174 328,-174 "/>
<text text-anchor="middle" x="298.5" y="-159.5" font-family="PT Mono, monospace" font-size="10.00">clearable</text>
</a>
</g>
</g>
<!-- object&#45;&gt;clearable -->
<g id="edge11" class="edge">
<title>object&#45;&gt;clearable</title>
<path fill="none" stroke="black" d="M214.98,-359.77C224.56,-350.02 235.83,-337.18 243.5,-324 268.85,-280.47 284.83,-223.49 292.68,-190.29"/>
<polygon fill="black" stroke="black" points="296.12,-190.93 294.94,-180.4 289.3,-189.37 296.12,-190.93"/>
</g>
<!-- lengthy -->
<g id="node9" class="node">
<title>lengthy</title>
<g id="a_node9"><a xlink:href="PsyllaReference_Types.xhtml#PsyllaReference_Types_Details_lengthy" xlink:title="lengthy" target="_parent">
<polygon fill="linen" stroke="black" points="377,-324 324,-324 324,-288 383,-288 383,-318 377,-324"/>
<polyline fill="none" stroke="black" points="377,-324 377,-318 "/>
<polyline fill="none" stroke="black" points="383,-318 377,-318 "/>
<text text-anchor="middle" x="353.5" y="-303.5" font-family="PT Mono, monospace" font-size="10.00">lengthy</text>
</a>
</g>
</g>
<!-- object&#45;&gt;lengthy -->
<g id="edge13" class="edge">
<title>object&#45;&gt;lengthy</title>
<path fill="none" stroke="black" d="M223.85,-364.81C248.95,-353.62 286.41,-336.91 314.62,-324.34"/>
<polygon fill="black" stroke="black" points="316.09,-327.51 323.8,-320.24 313.24,-321.12 316.09,-327.51"/>
</g>
<!-- clearable&#45;&gt;container -->
<g id="edge6" class="edge">
<title>clearable&#45;&gt;container</title>
<path fill="none" stroke="black" d="M288.12,-143.7C283.24,-135.56 277.31,-125.69 271.92,-116.7"/>
<polygon fill="black" stroke="black" points="274.91,-114.88 266.76,-108.1 268.91,-118.48 274.91,-114.88"/>
</g>
<!-- iterable -->
<g id="node8" class="node">
<title>iterable</title>
<g id="a_node8"><a xlink:href="PsyllaReference_Types.xhtml#PsyllaReference_Types_Details_iterable" xlink:title="iterable" target="_parent">
<polygon fill="linen" stroke="black" points="239,-180 180,-180 180,-144 245,-144 245,-174 239,-180"/>
<polyline fill="none" stroke="black" points="239,-180 239,-174 "/>
<polyline fill="none" stroke="black" points="245,-174 239,-174 "/>
<text text-anchor="middle" x="212.5" y="-159.5" font-family="PT Mono, monospace" font-size="10.00">iterable</text>
</a>
</g>
</g>
<!-- iterable&#45;&gt;container -->
<g id="edge7" class="edge">
<title>iterable&#45;&gt;container</title>
<path fill="none" stroke="black" d="M223.38,-143.7C228.49,-135.56 234.7,-125.69 240.34,-116.7"/>
<polygon fill="black" stroke="black" points="243.39,-118.43 245.75,-108.1 237.46,-114.71 243.39,-118.43"/>
</g>
<!-- lengthy&#45;&gt;container -->
<g id="edge8" class="edge">
<title>lengthy&#45;&gt;container</title>
<path fill="none" stroke="black" d="M357.08,-287.99C362.67,-256.88 370.17,-189.8 342.5,-144 333.03,-128.31 316.96,-116.6 301.26,-108.23"/>
<polygon fill="black" stroke="black" points="302.62,-105 292.11,-103.69 299.51,-111.27 302.62,-105"/>
</g>
<!-- streamable&#45;&gt;iterable -->
<g id="edge12" class="edge">
<title>streamable&#45;&gt;iterable</title>
<path fill="none" stroke="black" d="M217.02,-215.7C216.36,-207.98 215.56,-198.71 214.82,-190.11"/>
<polygon fill="black" stroke="black" points="218.31,-189.77 213.97,-180.1 211.33,-190.37 218.31,-189.77"/>
</g>
</g>
</svg>
