<?xml version="1.0" encoding="UTF-8" standalone="no"?>
<!DOCTYPE svg PUBLIC "-//W3C//DTD SVG 1.1//EN"
 "http://www.w3.org/Graphics/SVG/1.1/DTD/svg11.dtd">
<!-- Generated by graphviz version 2.43.0 (0)
 -->
<!-- Title: matcher Pages: 1 -->
<svg width="92pt" height="188pt"
 viewBox="0.00 0.00 92.00 188.00" xmlns="http://www.w3.org/2000/svg" xmlns:xlink="http://www.w3.org/1999/xlink">
<g id="graph0" class="graph" transform="scale(1 1) rotate(0) translate(4 184)">
<title>matcher</title>
<polygon fill="transparent" stroke="transparent" points="-4,4 -4,-184 88,-184 88,4 -4,4"/>
<!-- resetable -->
<g id="node1" class="node">
<title>resetable</title>
<g id="a_node1"><a xlink:href="PsyllaReference_Types.xhtml#PsyllaReference_Types_Details_resetable" xlink:title="resetable" target="_parent">
<polygon fill="linen" stroke="black" points="78,-108 0,-108 0,-72 84,-72 84,-102 78,-108"/>
<polyline fill="none" stroke="black" points="78,-108 78,-102 "/>
<polyline fill="none" stroke="black" points="84,-102 78,-102 "/>
<text text-anchor="middle" x="42" y="-86.9" font-family="Source Code Pro,monospace" font-size="12.00">resetable</text>
</a>
</g>
</g>
<!-- matcher -->
<g id="node2" class="node">
<title>matcher</title>
<g id="a_node2"><a xlink:href="PsyllaReference_Types.xhtml#PsyllaReference_Types_Details_matcher" xlink:title="matcher" target="_parent">
<polygon fill="wheat" stroke="black" points="70.5,-36 7.5,-36 7.5,0 76.5,0 76.5,-30 70.5,-36"/>
<polyline fill="none" stroke="black" points="70.5,-36 70.5,-30 "/>
<polyline fill="none" stroke="black" points="76.5,-30 70.5,-30 "/>
<text text-anchor="middle" x="42" y="-14.9" font-family="Source Code Pro,monospace" font-size="12.00">matcher</text>
</a>
</g>
</g>
<!-- resetable&#45;&gt;matcher -->
<g id="edge1" class="edge">
<title>resetable&#45;&gt;matcher</title>
<path fill="none" stroke="black" d="M42,-71.7C42,-63.98 42,-54.71 42,-46.11"/>
<polygon fill="black" stroke="black" points="45.5,-46.1 42,-36.1 38.5,-46.1 45.5,-46.1"/>
</g>
<!-- object -->
<g id="node3" class="node">
<title>object</title>
<g id="a_node3"><a xlink:href="PsyllaReference_Types.xhtml#PsyllaReference_Types_Details_object" xlink:title="object" target="_parent">
<polygon fill="linen" stroke="black" points="67,-180 11,-180 11,-144 73,-144 73,-174 67,-180"/>
<polyline fill="none" stroke="black" points="67,-180 67,-174 "/>
<polyline fill="none" stroke="black" points="73,-174 67,-174 "/>
<text text-anchor="middle" x="42" y="-158.9" font-family="Source Code Pro,monospace" font-size="12.00">object</text>
</a>
</g>
</g>
<!-- object&#45;&gt;resetable -->
<g id="edge2" class="edge">
<title>object&#45;&gt;resetable</title>
<path fill="none" stroke="black" d="M42,-143.7C42,-135.98 42,-126.71 42,-118.11"/>
<polygon fill="black" stroke="black" points="45.5,-118.1 42,-108.1 38.5,-118.1 45.5,-118.1"/>
</g>
</g>
</svg>
