<?xml version="1.0" encoding="UTF-8" standalone="no"?>
<!DOCTYPE svg PUBLIC "-//W3C//DTD SVG 1.1//EN"
 "http://www.w3.org/Graphics/SVG/1.1/DTD/svg11.dtd">
<!-- Generated by graphviz version 2.43.0 (0)
 -->
<!-- Title: blockingqueue Pages: 1 -->
<svg width="302pt" height="476pt"
 viewBox="0.00 0.00 302.00 476.00" xmlns="http://www.w3.org/2000/svg" xmlns:xlink="http://www.w3.org/1999/xlink">
<g id="graph0" class="graph" transform="scale(1 1) rotate(0) translate(4 472)">
<title>blockingqueue</title>
<polygon fill="transparent" stroke="transparent" points="-4,4 -4,-472 298,-472 298,4 -4,4"/>
<!-- formalqueue -->
<g id="node1" class="node">
<title>formalqueue</title>
<g id="a_node1"><a xlink:href="PsyllaReference_Types.xhtml#PsyllaReference_Types_Details_formalqueue" xlink:title="formalqueue" target="_parent">
<polygon fill="linen" stroke="black" points="141,-108 64,-108 64,-72 147,-72 147,-102 141,-108"/>
<polyline fill="none" stroke="black" points="141,-108 141,-102 "/>
<polyline fill="none" stroke="black" points="147,-102 141,-102 "/>
<text text-anchor="middle" x="105.5" y="-87.5" font-family="PT Mono, monospace" font-size="10.00">formalqueue</text>
</a>
</g>
</g>
<!-- blockingqueue -->
<g id="node3" class="node">
<title>blockingqueue</title>
<g id="a_node3"><a xlink:href="PsyllaReference_Types.xhtml#PsyllaReference_Types_Details_blockingqueue" xlink:title="blockingqueue" target="_parent">
<polygon fill="wheat" stroke="black" points="112,-36 23,-36 23,0 118,0 118,-30 112,-36"/>
<polyline fill="none" stroke="black" points="112,-36 112,-30 "/>
<polyline fill="none" stroke="black" points="118,-30 112,-30 "/>
<text text-anchor="middle" x="70.5" y="-15.5" font-family="PT Mono, monospace" font-size="10.00">blockingqueue</text>
</a>
</g>
</g>
<!-- formalqueue&#45;&gt;blockingqueue -->
<g id="edge1" class="edge">
<title>formalqueue&#45;&gt;blockingqueue</title>
<path fill="none" stroke="black" d="M96.85,-71.7C92.86,-63.73 88.05,-54.1 83.63,-45.26"/>
<polygon fill="black" stroke="black" points="86.65,-43.48 79.05,-36.1 80.39,-46.61 86.65,-43.48"/>
</g>
<!-- closeable -->
<g id="node2" class="node">
<title>closeable</title>
<g id="a_node2"><a xlink:href="PsyllaReference_Types.xhtml#PsyllaReference_Types_Details_closeable" xlink:title="closeable" target="_parent">
<polygon fill="linen" stroke="black" points="65,-324 0,-324 0,-288 71,-288 71,-318 65,-324"/>
<polyline fill="none" stroke="black" points="65,-324 65,-318 "/>
<polyline fill="none" stroke="black" points="71,-318 65,-318 "/>
<text text-anchor="middle" x="35.5" y="-303.5" font-family="PT Mono, monospace" font-size="10.00">closeable</text>
</a>
</g>
</g>
<!-- closeable&#45;&gt;blockingqueue -->
<g id="edge2" class="edge">
<title>closeable&#45;&gt;blockingqueue</title>
<path fill="none" stroke="black" d="M35.66,-287.88C36.29,-249.1 39.39,-151.75 54.5,-72 56.13,-63.41 58.62,-54.23 61.16,-45.96"/>
<polygon fill="black" stroke="black" points="64.49,-47.03 64.22,-36.43 57.83,-44.88 64.49,-47.03"/>
</g>
<!-- bounded -->
<g id="node4" class="node">
<title>bounded</title>
<g id="a_node4"><a xlink:href="PsyllaReference_Types.xhtml#PsyllaReference_Types_Details_bounded" xlink:title="bounded" target="_parent">
<polygon fill="linen" stroke="black" points="120,-180 67,-180 67,-144 126,-144 126,-174 120,-180"/>
<polyline fill="none" stroke="black" points="120,-180 120,-174 "/>
<polyline fill="none" stroke="black" points="126,-174 120,-174 "/>
<text text-anchor="middle" x="96.5" y="-159.5" font-family="PT Mono, monospace" font-size="10.00">bounded</text>
</a>
</g>
</g>
<!-- bounded&#45;&gt;formalqueue -->
<g id="edge3" class="edge">
<title>bounded&#45;&gt;formalqueue</title>
<path fill="none" stroke="black" d="M98.72,-143.7C99.72,-135.98 100.91,-126.71 102.01,-118.11"/>
<polygon fill="black" stroke="black" points="105.5,-118.47 103.3,-108.1 98.55,-117.58 105.5,-118.47"/>
</g>
<!-- container -->
<g id="node5" class="node">
<title>container</title>
<g id="a_node5"><a xlink:href="PsyllaReference_Types.xhtml#PsyllaReference_Types_Details_container" xlink:title="container" target="_parent">
<polygon fill="linen" stroke="black" points="209,-180 144,-180 144,-144 215,-144 215,-174 209,-180"/>
<polyline fill="none" stroke="black" points="209,-180 209,-174 "/>
<polyline fill="none" stroke="black" points="215,-174 209,-174 "/>
<text text-anchor="middle" x="179.5" y="-159.5" font-family="PT Mono, monospace" font-size="10.00">container</text>
</a>
</g>
</g>
<!-- container&#45;&gt;formalqueue -->
<g id="edge4" class="edge">
<title>container&#45;&gt;formalqueue</title>
<path fill="none" stroke="black" d="M161.21,-143.7C152.07,-135.05 140.86,-124.45 130.9,-115.03"/>
<polygon fill="black" stroke="black" points="133.25,-112.43 123.58,-108.1 128.44,-117.52 133.25,-112.43"/>
</g>
<!-- object -->
<g id="node6" class="node">
<title>object</title>
<g id="a_node6"><a xlink:href="PsyllaReference_Types.xhtml#PsyllaReference_Types_Details_object" xlink:title="object" target="_parent">
<polygon fill="linen" stroke="black" points="152.5,-468 104.5,-468 104.5,-432 158.5,-432 158.5,-462 152.5,-468"/>
<polyline fill="none" stroke="black" points="152.5,-468 152.5,-462 "/>
<polyline fill="none" stroke="black" points="158.5,-462 152.5,-462 "/>
<text text-anchor="middle" x="131.5" y="-447.5" font-family="PT Mono, monospace" font-size="10.00">object</text>
</a>
</g>
</g>
<!-- object&#45;&gt;closeable -->
<g id="edge5" class="edge">
<title>object&#45;&gt;closeable</title>
<path fill="none" stroke="black" d="M114.8,-431.59C105.62,-421.59 94.34,-408.55 85.5,-396 71.38,-375.95 57.92,-351.57 48.53,-333.4"/>
<polygon fill="black" stroke="black" points="51.4,-331.34 43.75,-324.01 45.17,-334.51 51.4,-331.34"/>
</g>
<!-- lengthy -->
<g id="node7" class="node">
<title>lengthy</title>
<g id="a_node7"><a xlink:href="PsyllaReference_Types.xhtml#PsyllaReference_Types_Details_lengthy" xlink:title="lengthy" target="_parent">
<polygon fill="linen" stroke="black" points="123,-252 70,-252 70,-216 129,-216 129,-246 123,-252"/>
<polyline fill="none" stroke="black" points="123,-252 123,-246 "/>
<polyline fill="none" stroke="black" points="129,-246 123,-246 "/>
<text text-anchor="middle" x="99.5" y="-231.5" font-family="PT Mono, monospace" font-size="10.00">lengthy</text>
</a>
</g>
</g>
<!-- object&#45;&gt;lengthy -->
<g id="edge10" class="edge">
<title>object&#45;&gt;lengthy</title>
<path fill="none" stroke="black" d="M126.75,-431.93C124.01,-421.6 120.69,-408.12 118.5,-396 110.07,-349.42 104.52,-294.56 101.7,-262.4"/>
<polygon fill="black" stroke="black" points="105.15,-261.69 100.82,-252.02 98.18,-262.28 105.15,-261.69"/>
</g>
<!-- clearable -->
<g id="node8" class="node">
<title>clearable</title>
<g id="a_node8"><a xlink:href="PsyllaReference_Types.xhtml#PsyllaReference_Types_Details_clearable" xlink:title="clearable" target="_parent">
<polygon fill="linen" stroke="black" points="193,-396 128,-396 128,-360 199,-360 199,-390 193,-396"/>
<polyline fill="none" stroke="black" points="193,-396 193,-390 "/>
<polyline fill="none" stroke="black" points="199,-390 193,-390 "/>
<text text-anchor="middle" x="163.5" y="-375.5" font-family="PT Mono, monospace" font-size="10.00">clearable</text>
</a>
</g>
</g>
<!-- object&#45;&gt;clearable -->
<g id="edge11" class="edge">
<title>object&#45;&gt;clearable</title>
<path fill="none" stroke="black" d="M139.41,-431.7C143.05,-423.73 147.45,-414.1 151.49,-405.26"/>
<polygon fill="black" stroke="black" points="154.71,-406.65 155.68,-396.1 148.34,-403.74 154.71,-406.65"/>
</g>
<!-- sequential -->
<g id="node11" class="node">
<title>sequential</title>
<g id="a_node11"><a xlink:href="PsyllaReference_Types.xhtml#PsyllaReference_Types_Details_sequential" xlink:title="sequential" target="_parent">
<polygon fill="linen" stroke="black" points="288,-396 217,-396 217,-360 294,-360 294,-390 288,-396"/>
<polyline fill="none" stroke="black" points="288,-396 288,-390 "/>
<polyline fill="none" stroke="black" points="294,-390 288,-390 "/>
<text text-anchor="middle" x="255.5" y="-375.5" font-family="PT Mono, monospace" font-size="10.00">sequential</text>
</a>
</g>
</g>
<!-- object&#45;&gt;sequential -->
<g id="edge14" class="edge">
<title>object&#45;&gt;sequential</title>
<path fill="none" stroke="black" d="M158.71,-433.64C175.62,-424.09 197.64,-411.67 216.4,-401.07"/>
<polygon fill="black" stroke="black" points="218.32,-404.01 225.31,-396.04 214.88,-397.91 218.32,-404.01"/>
</g>
<!-- lengthy&#45;&gt;bounded -->
<g id="edge6" class="edge">
<title>lengthy&#45;&gt;bounded</title>
<path fill="none" stroke="black" d="M98.76,-215.7C98.43,-207.98 98.03,-198.71 97.66,-190.11"/>
<polygon fill="black" stroke="black" points="101.16,-189.95 97.23,-180.1 94.16,-190.25 101.16,-189.95"/>
</g>
<!-- lengthy&#45;&gt;container -->
<g id="edge9" class="edge">
<title>lengthy&#45;&gt;container</title>
<path fill="none" stroke="black" d="M119.28,-215.7C129.25,-206.97 141.51,-196.24 152.36,-186.75"/>
<polygon fill="black" stroke="black" points="154.73,-189.32 159.95,-180.1 150.12,-184.06 154.73,-189.32"/>
</g>
<!-- clearable&#45;&gt;container -->
<g id="edge7" class="edge">
<title>clearable&#45;&gt;container</title>
<path fill="none" stroke="black" d="M164.78,-359.85C167.55,-322.83 174.1,-235.18 177.45,-190.39"/>
<polygon fill="black" stroke="black" points="180.96,-190.47 178.21,-180.23 173.98,-189.94 180.96,-190.47"/>
</g>
<!-- iterable -->
<g id="node9" class="node">
<title>iterable</title>
<g id="a_node9"><a xlink:href="PsyllaReference_Types.xhtml#PsyllaReference_Types_Details_iterable" xlink:title="iterable" target="_parent">
<polygon fill="linen" stroke="black" points="265,-252 206,-252 206,-216 271,-216 271,-246 265,-252"/>
<polyline fill="none" stroke="black" points="265,-252 265,-246 "/>
<polyline fill="none" stroke="black" points="271,-246 265,-246 "/>
<text text-anchor="middle" x="238.5" y="-231.5" font-family="PT Mono, monospace" font-size="10.00">iterable</text>
</a>
</g>
</g>
<!-- iterable&#45;&gt;container -->
<g id="edge8" class="edge">
<title>iterable&#45;&gt;container</title>
<path fill="none" stroke="black" d="M223.92,-215.7C216.84,-207.3 208.22,-197.07 200.45,-187.86"/>
<polygon fill="black" stroke="black" points="203.04,-185.49 193.92,-180.1 197.69,-190.01 203.04,-185.49"/>
</g>
<!-- streamable -->
<g id="node10" class="node">
<title>streamable</title>
<g id="a_node10"><a xlink:href="PsyllaReference_Types.xhtml#PsyllaReference_Types_Details_streamable" xlink:title="streamable" target="_parent">
<polygon fill="linen" stroke="black" points="278,-324 207,-324 207,-288 284,-288 284,-318 278,-324"/>
<polyline fill="none" stroke="black" points="278,-324 278,-318 "/>
<polyline fill="none" stroke="black" points="284,-318 278,-318 "/>
<text text-anchor="middle" x="245.5" y="-303.5" font-family="PT Mono, monospace" font-size="10.00">streamable</text>
</a>
</g>
</g>
<!-- streamable&#45;&gt;iterable -->
<g id="edge12" class="edge">
<title>streamable&#45;&gt;iterable</title>
<path fill="none" stroke="black" d="M243.77,-287.7C243,-279.98 242.07,-270.71 241.21,-262.11"/>
<polygon fill="black" stroke="black" points="244.69,-261.71 240.21,-252.1 237.72,-262.4 244.69,-261.71"/>
</g>
<!-- sequential&#45;&gt;streamable -->
<g id="edge13" class="edge">
<title>sequential&#45;&gt;streamable</title>
<path fill="none" stroke="black" d="M253.03,-359.7C251.93,-351.98 250.6,-342.71 249.37,-334.11"/>
<polygon fill="black" stroke="black" points="252.82,-333.51 247.94,-324.1 245.89,-334.5 252.82,-333.51"/>
</g>
</g>
</svg>
