<?xml version="1.0" encoding="UTF-8" standalone="no"?>
<!DOCTYPE svg PUBLIC "-//W3C//DTD SVG 1.1//EN"
 "http://www.w3.org/Graphics/SVG/1.1/DTD/svg11.dtd">
<!-- Generated by graphviz version 14.0.0 (0)
 -->
<!-- Title: formaldict Pages: 1 -->
<svg width="300pt" height="404pt"
 viewBox="0.00 0.00 300.00 404.00" xmlns="http://www.w3.org/2000/svg" xmlns:xlink="http://www.w3.org/1999/xlink">
<g id="graph0" class="graph" transform="scale(1 1) rotate(0) translate(4 400)">
<title>formaldict</title>
<polygon fill="none" stroke="none" points="-4,4 -4,-400 296,-400 296,4 -4,4"/>
<!-- container -->
<g id="node1" class="node">
<title>container</title>
<g id="a_node1"><a xlink:href="PsyllaReference_Types.xhtml#PsyllaReference_Types_Details_container" xlink:title="container" target="_parent">
<polygon fill="linen" stroke="black" points="200.32,-108 145.68,-108 145.68,-72 206.32,-72 206.32,-102 200.32,-108"/>
<polyline fill="none" stroke="black" points="200.32,-108 200.32,-102"/>
<polyline fill="none" stroke="black" points="206.32,-102 200.32,-102"/>
<text xml:space="preserve" text-anchor="middle" x="176" y="-86.4" font-family="Source Code Pro,monospace" font-size="12.00">container</text>
</a>
</g>
</g>
<!-- formaldict -->
<g id="node4" class="node">
<title>formaldict</title>
<g id="a_node4"><a xlink:href="PsyllaReference_Types.xhtml#PsyllaReference_Types_Details_formaldict" xlink:title="formaldict" target="_parent">
<polygon fill="wheat" stroke="black" points="108.99,-36 49.01,-36 49.01,0 114.99,0 114.99,-30 108.99,-36"/>
<polyline fill="none" stroke="black" points="108.99,-36 108.99,-30"/>
<polyline fill="none" stroke="black" points="114.99,-30 108.99,-30"/>
<text xml:space="preserve" text-anchor="middle" x="82" y="-14.4" font-family="Source Code Pro,monospace" font-size="12.00">formaldict</text>
</a>
</g>
</g>
<!-- container&#45;&gt;formaldict -->
<g id="edge1" class="edge">
<title>container&#45;&gt;formaldict</title>
<path fill="none" stroke="black" d="M152.76,-71.7C141.13,-63.03 126.85,-52.4 114.18,-42.96"/>
<polygon fill="black" stroke="black" points="116.62,-40.42 106.51,-37.25 112.44,-46.03 116.62,-40.42"/>
</g>
<!-- indexed -->
<g id="node2" class="node">
<title>indexed</title>
<g id="a_node2"><a xlink:href="PsyllaReference_Types.xhtml#PsyllaReference_Types_Details_indexed" xlink:title="indexed" target="_parent">
<polygon fill="linen" stroke="black" points="48,-252 0,-252 0,-216 54,-216 54,-246 48,-252"/>
<polyline fill="none" stroke="black" points="48,-252 48,-246"/>
<polyline fill="none" stroke="black" points="54,-246 48,-246"/>
<text xml:space="preserve" text-anchor="middle" x="27" y="-230.4" font-family="Source Code Pro,monospace" font-size="12.00">indexed</text>
</a>
</g>
</g>
<!-- indexed&#45;&gt;formaldict -->
<g id="edge2" class="edge">
<title>indexed&#45;&gt;formaldict</title>
<path fill="none" stroke="black" d="M31.38,-215.6C38.82,-186.05 54.46,-124.21 68,-72 70.09,-63.95 72.38,-55.23 74.49,-47.22"/>
<polygon fill="black" stroke="black" points="77.86,-48.2 77.03,-37.64 71.09,-46.41 77.86,-48.2"/>
</g>
<!-- sequential -->
<g id="node3" class="node">
<title>sequential</title>
<g id="a_node3"><a xlink:href="PsyllaReference_Types.xhtml#PsyllaReference_Types_Details_sequential" xlink:title="sequential" target="_parent">
<polygon fill="linen" stroke="black" points="170.33,-324 111.67,-324 111.67,-288 176.33,-288 176.33,-318 170.33,-324"/>
<polyline fill="none" stroke="black" points="170.33,-324 170.33,-318"/>
<polyline fill="none" stroke="black" points="176.33,-318 170.33,-318"/>
<text xml:space="preserve" text-anchor="middle" x="144" y="-302.4" font-family="Source Code Pro,monospace" font-size="12.00">sequential</text>
</a>
</g>
</g>
<!-- sequential&#45;&gt;formaldict -->
<g id="edge3" class="edge">
<title>sequential&#45;&gt;formaldict</title>
<path fill="none" stroke="black" d="M125.41,-287.67C116.4,-278.08 106.38,-265.42 101,-252 73.25,-182.82 75.54,-92.98 79.05,-47.73"/>
<polygon fill="black" stroke="black" points="82.52,-48.23 79.89,-37.96 75.54,-47.63 82.52,-48.23"/>
</g>
<!-- streamable -->
<g id="node9" class="node">
<title>streamable</title>
<g id="a_node9"><a xlink:href="PsyllaReference_Types.xhtml#PsyllaReference_Types_Details_streamable" xlink:title="streamable" target="_parent">
<polygon fill="linen" stroke="black" points="171.99,-252 110.01,-252 110.01,-216 177.99,-216 177.99,-246 171.99,-252"/>
<polyline fill="none" stroke="black" points="171.99,-252 171.99,-246"/>
<polyline fill="none" stroke="black" points="177.99,-246 171.99,-246"/>
<text xml:space="preserve" text-anchor="middle" x="144" y="-230.4" font-family="Source Code Pro,monospace" font-size="12.00">streamable</text>
</a>
</g>
</g>
<!-- sequential&#45;&gt;streamable -->
<g id="edge12" class="edge">
<title>sequential&#45;&gt;streamable</title>
<path fill="none" stroke="black" d="M144,-287.7C144,-280.41 144,-271.73 144,-263.54"/>
<polygon fill="black" stroke="black" points="147.5,-263.62 144,-253.62 140.5,-263.62 147.5,-263.62"/>
</g>
<!-- clearable -->
<g id="node5" class="node">
<title>clearable</title>
<g id="a_node5"><a xlink:href="PsyllaReference_Types.xhtml#PsyllaReference_Types_Details_clearable" xlink:title="clearable" target="_parent">
<polygon fill="linen" stroke="black" points="235.65,-180 182.35,-180 182.35,-144 241.65,-144 241.65,-174 235.65,-180"/>
<polyline fill="none" stroke="black" points="235.65,-180 235.65,-174"/>
<polyline fill="none" stroke="black" points="241.65,-174 235.65,-174"/>
<text xml:space="preserve" text-anchor="middle" x="212" y="-158.4" font-family="Source Code Pro,monospace" font-size="12.00">clearable</text>
</a>
</g>
</g>
<!-- clearable&#45;&gt;container -->
<g id="edge4" class="edge">
<title>clearable&#45;&gt;container</title>
<path fill="none" stroke="black" d="M203.1,-143.7C199.13,-135.98 194.37,-126.71 189.94,-118.11"/>
<polygon fill="black" stroke="black" points="193.17,-116.74 185.49,-109.45 186.95,-119.94 193.17,-116.74"/>
</g>
<!-- iterable -->
<g id="node6" class="node">
<title>iterable</title>
<g id="a_node6"><a xlink:href="PsyllaReference_Types.xhtml#PsyllaReference_Types_Details_iterable" xlink:title="iterable" target="_parent">
<polygon fill="linen" stroke="black" points="158,-180 110,-180 110,-144 164,-144 164,-174 158,-180"/>
<polyline fill="none" stroke="black" points="158,-180 158,-174"/>
<polyline fill="none" stroke="black" points="164,-174 158,-174"/>
<text xml:space="preserve" text-anchor="middle" x="137" y="-158.4" font-family="Source Code Pro,monospace" font-size="12.00">iterable</text>
</a>
</g>
</g>
<!-- iterable&#45;&gt;container -->
<g id="edge5" class="edge">
<title>iterable&#45;&gt;container</title>
<path fill="none" stroke="black" d="M146.64,-143.7C150.94,-135.98 156.1,-126.71 160.89,-118.11"/>
<polygon fill="black" stroke="black" points="163.92,-119.87 165.73,-109.43 157.81,-116.46 163.92,-119.87"/>
</g>
<!-- lengthy -->
<g id="node7" class="node">
<title>lengthy</title>
<g id="a_node7"><a xlink:href="PsyllaReference_Types.xhtml#PsyllaReference_Types_Details_lengthy" xlink:title="lengthy" target="_parent">
<polygon fill="linen" stroke="black" points="286,-324 238,-324 238,-288 292,-288 292,-318 286,-324"/>
<polyline fill="none" stroke="black" points="286,-324 286,-318"/>
<polyline fill="none" stroke="black" points="292,-318 286,-318"/>
<text xml:space="preserve" text-anchor="middle" x="265" y="-302.4" font-family="Source Code Pro,monospace" font-size="12.00">lengthy</text>
</a>
</g>
</g>
<!-- lengthy&#45;&gt;container -->
<g id="edge6" class="edge">
<title>lengthy&#45;&gt;container</title>
<path fill="none" stroke="black" d="M267.98,-287.63C272.4,-256.52 277.54,-190.23 251,-144 242.95,-129.98 229.51,-118.75 216.22,-110.3"/>
<polygon fill="black" stroke="black" points="218.33,-107.49 207.94,-105.41 214.77,-113.51 218.33,-107.49"/>
</g>
<!-- object -->
<g id="node8" class="node">
<title>object</title>
<g id="a_node8"><a xlink:href="PsyllaReference_Types.xhtml#PsyllaReference_Types_Details_object" xlink:title="object" target="_parent">
<polygon fill="linen" stroke="black" points="199,-396 151,-396 151,-360 205,-360 205,-390 199,-396"/>
<polyline fill="none" stroke="black" points="199,-396 199,-390"/>
<polyline fill="none" stroke="black" points="205,-390 199,-390"/>
<text xml:space="preserve" text-anchor="middle" x="178" y="-374.4" font-family="Source Code Pro,monospace" font-size="12.00">object</text>
</a>
</g>
</g>
<!-- object&#45;&gt;indexed -->
<g id="edge7" class="edge">
<title>object&#45;&gt;indexed</title>
<path fill="none" stroke="black" d="M150.75,-360.12C135.95,-350.38 117.72,-337.43 103,-324 81.91,-304.76 61.08,-279.83 46.57,-261.25"/>
<polygon fill="black" stroke="black" points="49.39,-259.17 40.52,-253.38 43.84,-263.44 49.39,-259.17"/>
</g>
<!-- object&#45;&gt;sequential -->
<g id="edge8" class="edge">
<title>object&#45;&gt;sequential</title>
<path fill="none" stroke="black" d="M169.6,-359.7C165.89,-352.07 161.44,-342.92 157.31,-334.4"/>
<polygon fill="black" stroke="black" points="160.49,-332.93 152.97,-325.47 154.19,-335.99 160.49,-332.93"/>
</g>
<!-- object&#45;&gt;clearable -->
<g id="edge9" class="edge">
<title>object&#45;&gt;clearable</title>
<path fill="none" stroke="black" d="M180.72,-359.85C186.56,-323.14 200.3,-236.66 207.47,-191.53"/>
<polygon fill="black" stroke="black" points="210.91,-192.15 209.02,-181.73 204,-191.05 210.91,-192.15"/>
</g>
<!-- object&#45;&gt;lengthy -->
<g id="edge11" class="edge">
<title>object&#45;&gt;lengthy</title>
<path fill="none" stroke="black" d="M199.51,-359.7C210.07,-351.2 222.98,-340.81 234.53,-331.51"/>
<polygon fill="black" stroke="black" points="236.66,-334.29 242.26,-325.3 232.28,-328.84 236.66,-334.29"/>
</g>
<!-- streamable&#45;&gt;iterable -->
<g id="edge10" class="edge">
<title>streamable&#45;&gt;iterable</title>
<path fill="none" stroke="black" d="M142.27,-215.7C141.54,-208.41 140.67,-199.73 139.85,-191.54"/>
<polygon fill="black" stroke="black" points="143.34,-191.21 138.86,-181.61 136.37,-191.91 143.34,-191.21"/>
</g>
</g>
</svg>
