<?xml version="1.0" encoding="UTF-8" standalone="no"?>
<!DOCTYPE svg PUBLIC "-//W3C//DTD SVG 1.1//EN"
 "http://www.w3.org/Graphics/SVG/1.1/DTD/svg11.dtd">
<!-- Generated by graphviz version 14.0.0 (0)
 -->
<!-- Title: module Pages: 1 -->
<svg width="312pt" height="548pt"
 viewBox="0.00 0.00 312.00 548.00" xmlns="http://www.w3.org/2000/svg" xmlns:xlink="http://www.w3.org/1999/xlink">
<g id="graph0" class="graph" transform="scale(1 1) rotate(0) translate(4 544)">
<title>module</title>
<polygon fill="none" stroke="none" points="-4,4 -4,-544 308,-544 308,4 -4,4"/>
<!-- dict -->
<g id="node1" class="node">
<title>dict</title>
<g id="a_node1"><a xlink:href="PsyllaReference_Types.xhtml#PsyllaReference_Types_Details_dict" xlink:title="dict" target="_parent">
<polygon fill="linen" stroke="black" points="103,-108 55,-108 55,-72 109,-72 109,-102 103,-108"/>
<polyline fill="none" stroke="black" points="103,-108 103,-102"/>
<polyline fill="none" stroke="black" points="109,-102 103,-102"/>
<text xml:space="preserve" text-anchor="middle" x="82" y="-86.4" font-family="Source Code Pro,monospace" font-size="12.00">dict</text>
</a>
</g>
</g>
<!-- module -->
<g id="node2" class="node">
<title>module</title>
<g id="a_node2"><a xlink:href="PsyllaReference_Types.xhtml#PsyllaReference_Types_Details_module" xlink:title="module" target="_parent">
<polygon fill="wheat" stroke="black" points="103,-36 55,-36 55,0 109,0 109,-30 103,-36"/>
<polyline fill="none" stroke="black" points="103,-36 103,-30"/>
<polyline fill="none" stroke="black" points="109,-30 103,-30"/>
<text xml:space="preserve" text-anchor="middle" x="82" y="-14.4" font-family="Source Code Pro,monospace" font-size="12.00">module</text>
</a>
</g>
</g>
<!-- dict&#45;&gt;module -->
<g id="edge1" class="edge">
<title>dict&#45;&gt;module</title>
<path fill="none" stroke="black" d="M82,-71.7C82,-64.41 82,-55.73 82,-47.54"/>
<polygon fill="black" stroke="black" points="85.5,-47.62 82,-37.62 78.5,-47.62 85.5,-47.62"/>
</g>
<!-- formaldict -->
<g id="node3" class="node">
<title>formaldict</title>
<g id="a_node3"><a xlink:href="PsyllaReference_Types.xhtml#PsyllaReference_Types_Details_formaldict" xlink:title="formaldict" target="_parent">
<polygon fill="linen" stroke="black" points="108.99,-180 49.01,-180 49.01,-144 114.99,-144 114.99,-174 108.99,-180"/>
<polyline fill="none" stroke="black" points="108.99,-180 108.99,-174"/>
<polyline fill="none" stroke="black" points="114.99,-174 108.99,-174"/>
<text xml:space="preserve" text-anchor="middle" x="82" y="-158.4" font-family="Source Code Pro,monospace" font-size="12.00">formaldict</text>
</a>
</g>
</g>
<!-- formaldict&#45;&gt;dict -->
<g id="edge2" class="edge">
<title>formaldict&#45;&gt;dict</title>
<path fill="none" stroke="black" d="M82,-143.7C82,-136.41 82,-127.73 82,-119.54"/>
<polygon fill="black" stroke="black" points="85.5,-119.62 82,-109.62 78.5,-119.62 85.5,-119.62"/>
</g>
<!-- container -->
<g id="node4" class="node">
<title>container</title>
<g id="a_node4"><a xlink:href="PsyllaReference_Types.xhtml#PsyllaReference_Types_Details_container" xlink:title="container" target="_parent">
<polygon fill="linen" stroke="black" points="212.32,-252 157.68,-252 157.68,-216 218.32,-216 218.32,-246 212.32,-252"/>
<polyline fill="none" stroke="black" points="212.32,-252 212.32,-246"/>
<polyline fill="none" stroke="black" points="218.32,-246 212.32,-246"/>
<text xml:space="preserve" text-anchor="middle" x="188" y="-230.4" font-family="Source Code Pro,monospace" font-size="12.00">container</text>
</a>
</g>
</g>
<!-- container&#45;&gt;formaldict -->
<g id="edge3" class="edge">
<title>container&#45;&gt;formaldict</title>
<path fill="none" stroke="black" d="M161.53,-215.52C148.27,-206.76 132.04,-196.04 117.7,-186.58"/>
<polygon fill="black" stroke="black" points="119.67,-183.68 109.4,-181.09 115.82,-189.53 119.67,-183.68"/>
</g>
<!-- indexed -->
<g id="node5" class="node">
<title>indexed</title>
<g id="a_node5"><a xlink:href="PsyllaReference_Types.xhtml#PsyllaReference_Types_Details_indexed" xlink:title="indexed" target="_parent">
<polygon fill="linen" stroke="black" points="48,-324 0,-324 0,-288 54,-288 54,-318 48,-324"/>
<polyline fill="none" stroke="black" points="48,-324 48,-318"/>
<polyline fill="none" stroke="black" points="54,-318 48,-318"/>
<text xml:space="preserve" text-anchor="middle" x="27" y="-302.4" font-family="Source Code Pro,monospace" font-size="12.00">indexed</text>
</a>
</g>
</g>
<!-- indexed&#45;&gt;formaldict -->
<g id="edge4" class="edge">
<title>indexed&#45;&gt;formaldict</title>
<path fill="none" stroke="black" d="M33.74,-287.59C43.11,-263.4 60.17,-219.36 71.29,-190.65"/>
<polygon fill="black" stroke="black" points="74.48,-192.11 74.83,-181.52 67.95,-189.58 74.48,-192.11"/>
</g>
<!-- sequential -->
<g id="node6" class="node">
<title>sequential</title>
<g id="a_node6"><a xlink:href="PsyllaReference_Types.xhtml#PsyllaReference_Types_Details_sequential" xlink:title="sequential" target="_parent">
<polygon fill="linen" stroke="black" points="170.33,-468 111.67,-468 111.67,-432 176.33,-432 176.33,-462 170.33,-468"/>
<polyline fill="none" stroke="black" points="170.33,-468 170.33,-462"/>
<polyline fill="none" stroke="black" points="176.33,-462 170.33,-462"/>
<text xml:space="preserve" text-anchor="middle" x="144" y="-446.4" font-family="Source Code Pro,monospace" font-size="12.00">sequential</text>
</a>
</g>
</g>
<!-- sequential&#45;&gt;formaldict -->
<g id="edge5" class="edge">
<title>sequential&#45;&gt;formaldict</title>
<path fill="none" stroke="black" d="M125.41,-431.67C116.4,-422.08 106.38,-409.42 101,-396 73.25,-326.82 75.54,-236.98 79.05,-191.73"/>
<polygon fill="black" stroke="black" points="82.52,-192.23 79.89,-181.96 75.54,-191.63 82.52,-192.23"/>
</g>
<!-- streamable -->
<g id="node11" class="node">
<title>streamable</title>
<g id="a_node11"><a xlink:href="PsyllaReference_Types.xhtml#PsyllaReference_Types_Details_streamable" xlink:title="streamable" target="_parent">
<polygon fill="linen" stroke="black" points="171.99,-396 110.01,-396 110.01,-360 177.99,-360 177.99,-390 171.99,-396"/>
<polyline fill="none" stroke="black" points="171.99,-396 171.99,-390"/>
<polyline fill="none" stroke="black" points="177.99,-390 171.99,-390"/>
<text xml:space="preserve" text-anchor="middle" x="144" y="-374.4" font-family="Source Code Pro,monospace" font-size="12.00">streamable</text>
</a>
</g>
</g>
<!-- sequential&#45;&gt;streamable -->
<g id="edge14" class="edge">
<title>sequential&#45;&gt;streamable</title>
<path fill="none" stroke="black" d="M144,-431.7C144,-424.41 144,-415.73 144,-407.54"/>
<polygon fill="black" stroke="black" points="147.5,-407.62 144,-397.62 140.5,-407.62 147.5,-407.62"/>
</g>
<!-- clearable -->
<g id="node7" class="node">
<title>clearable</title>
<g id="a_node7"><a xlink:href="PsyllaReference_Types.xhtml#PsyllaReference_Types_Details_clearable" xlink:title="clearable" target="_parent">
<polygon fill="linen" stroke="black" points="249.65,-396 196.35,-396 196.35,-360 255.65,-360 255.65,-390 249.65,-396"/>
<polyline fill="none" stroke="black" points="249.65,-396 249.65,-390"/>
<polyline fill="none" stroke="black" points="255.65,-390 249.65,-390"/>
<text xml:space="preserve" text-anchor="middle" x="226" y="-374.4" font-family="Source Code Pro,monospace" font-size="12.00">clearable</text>
</a>
</g>
</g>
<!-- clearable&#45;&gt;container -->
<g id="edge6" class="edge">
<title>clearable&#45;&gt;container</title>
<path fill="none" stroke="black" d="M221.34,-359.59C214.9,-335.5 203.19,-291.75 195.5,-263.03"/>
<polygon fill="black" stroke="black" points="198.94,-262.33 192.97,-253.57 192.17,-264.14 198.94,-262.33"/>
</g>
<!-- iterable -->
<g id="node8" class="node">
<title>iterable</title>
<g id="a_node8"><a xlink:href="PsyllaReference_Types.xhtml#PsyllaReference_Types_Details_iterable" xlink:title="iterable" target="_parent">
<polygon fill="linen" stroke="black" points="178,-324 130,-324 130,-288 184,-288 184,-318 178,-324"/>
<polyline fill="none" stroke="black" points="178,-324 178,-318"/>
<polyline fill="none" stroke="black" points="184,-318 178,-318"/>
<text xml:space="preserve" text-anchor="middle" x="157" y="-302.4" font-family="Source Code Pro,monospace" font-size="12.00">iterable</text>
</a>
</g>
</g>
<!-- iterable&#45;&gt;container -->
<g id="edge7" class="edge">
<title>iterable&#45;&gt;container</title>
<path fill="none" stroke="black" d="M164.66,-287.7C168.04,-280.07 172.09,-270.92 175.87,-262.4"/>
<polygon fill="black" stroke="black" points="178.96,-264.05 179.81,-253.49 172.56,-261.21 178.96,-264.05"/>
</g>
<!-- lengthy -->
<g id="node9" class="node">
<title>lengthy</title>
<g id="a_node9"><a xlink:href="PsyllaReference_Types.xhtml#PsyllaReference_Types_Details_lengthy" xlink:title="lengthy" target="_parent">
<polygon fill="linen" stroke="black" points="298,-468 250,-468 250,-432 304,-432 304,-462 298,-468"/>
<polyline fill="none" stroke="black" points="298,-468 298,-462"/>
<polyline fill="none" stroke="black" points="304,-462 298,-462"/>
<text xml:space="preserve" text-anchor="middle" x="277" y="-446.4" font-family="Source Code Pro,monospace" font-size="12.00">lengthy</text>
</a>
</g>
</g>
<!-- lengthy&#45;&gt;container -->
<g id="edge8" class="edge">
<title>lengthy&#45;&gt;container</title>
<path fill="none" stroke="black" d="M276.77,-431.78C276.05,-413.48 273.51,-383.95 265,-360 251.9,-323.11 226.79,-285.48 208.81,-261.29"/>
<polygon fill="black" stroke="black" points="211.82,-259.46 202.98,-253.6 206.24,-263.69 211.82,-259.46"/>
</g>
<!-- object -->
<g id="node10" class="node">
<title>object</title>
<g id="a_node10"><a xlink:href="PsyllaReference_Types.xhtml#PsyllaReference_Types_Details_object" xlink:title="object" target="_parent">
<polygon fill="linen" stroke="black" points="195,-540 147,-540 147,-504 201,-504 201,-534 195,-540"/>
<polyline fill="none" stroke="black" points="195,-540 195,-534"/>
<polyline fill="none" stroke="black" points="201,-534 195,-534"/>
<text xml:space="preserve" text-anchor="middle" x="174" y="-518.4" font-family="Source Code Pro,monospace" font-size="12.00">object</text>
</a>
</g>
</g>
<!-- object&#45;&gt;indexed -->
<g id="edge9" class="edge">
<title>object&#45;&gt;indexed</title>
<path fill="none" stroke="black" d="M146.53,-504.98C132.19,-495.59 115.16,-482.7 103,-468 69.2,-427.13 46.56,-368.71 35.31,-334.63"/>
<polygon fill="black" stroke="black" points="38.78,-333.97 32.39,-325.51 32.11,-336.1 38.78,-333.97"/>
</g>
<!-- object&#45;&gt;sequential -->
<g id="edge10" class="edge">
<title>object&#45;&gt;sequential</title>
<path fill="none" stroke="black" d="M166.58,-503.7C163.35,-496.15 159.48,-487.12 155.86,-478.68"/>
<polygon fill="black" stroke="black" points="159.08,-477.31 151.93,-469.5 152.65,-480.07 159.08,-477.31"/>
</g>
<!-- object&#45;&gt;clearable -->
<g id="edge11" class="edge">
<title>object&#45;&gt;clearable</title>
<path fill="none" stroke="black" d="M180.38,-503.59C189.23,-479.4 205.36,-435.36 215.87,-406.65"/>
<polygon fill="black" stroke="black" points="219.06,-408.13 219.21,-397.53 212.49,-405.72 219.06,-408.13"/>
</g>
<!-- object&#45;&gt;lengthy -->
<g id="edge13" class="edge">
<title>object&#45;&gt;lengthy</title>
<path fill="none" stroke="black" d="M199.73,-503.52C212.6,-494.76 228.38,-484.04 242.31,-474.58"/>
<polygon fill="black" stroke="black" points="244.05,-477.63 250.35,-469.11 240.11,-471.84 244.05,-477.63"/>
</g>
<!-- streamable&#45;&gt;iterable -->
<g id="edge12" class="edge">
<title>streamable&#45;&gt;iterable</title>
<path fill="none" stroke="black" d="M147.21,-359.7C148.58,-352.32 150.22,-343.52 151.75,-335.25"/>
<polygon fill="black" stroke="black" points="155.16,-336.06 153.55,-325.59 148.28,-334.79 155.16,-336.06"/>
</g>
</g>
</svg>
