<?xml version="1.0" encoding="UTF-8" standalone="no"?>
<!DOCTYPE svg PUBLIC "-//W3C//DTD SVG 1.1//EN"
 "http://www.w3.org/Graphics/SVG/1.1/DTD/svg11.dtd">
<!-- Generated by graphviz version 2.43.0 (0)
 -->
<!-- Title: command Pages: 1 -->
<svg width="608pt" height="476pt"
 viewBox="0.00 0.00 608.00 476.00" xmlns="http://www.w3.org/2000/svg" xmlns:xlink="http://www.w3.org/1999/xlink">
<g id="graph0" class="graph" transform="scale(1 1) rotate(0) translate(4 472)">
<title>command</title>
<polygon fill="transparent" stroke="transparent" points="-4,4 -4,-472 604,-472 604,4 -4,4"/>
<!-- name -->
<g id="node1" class="node">
<title>name</title>
<g id="a_node1"><a xlink:href="PsyllaReference_Types.xhtml#PsyllaReference_Types_Details_name" xlink:title="name" target="_parent">
<polygon fill="linen" stroke="black" points="184,-108 136,-108 136,-72 190,-72 190,-102 184,-108"/>
<polyline fill="none" stroke="black" points="184,-108 184,-102 "/>
<polyline fill="none" stroke="black" points="190,-102 184,-102 "/>
<text text-anchor="middle" x="163" y="-86.9" font-family="Source Code Pro,monospace" font-size="12.00">name</text>
</a>
</g>
</g>
<!-- command -->
<g id="node2" class="node">
<title>command</title>
<g id="a_node2"><a xlink:href="PsyllaReference_Types.xhtml#PsyllaReference_Types_Details_command" xlink:title="command" target="_parent">
<polygon fill="wheat" stroke="black" points="191.5,-36 128.5,-36 128.5,0 197.5,0 197.5,-30 191.5,-36"/>
<polyline fill="none" stroke="black" points="191.5,-36 191.5,-30 "/>
<polyline fill="none" stroke="black" points="197.5,-30 191.5,-30 "/>
<text text-anchor="middle" x="163" y="-14.9" font-family="Source Code Pro,monospace" font-size="12.00">command</text>
</a>
</g>
</g>
<!-- name&#45;&gt;command -->
<g id="edge1" class="edge">
<title>name&#45;&gt;command</title>
<path fill="none" stroke="black" d="M163,-71.7C163,-63.98 163,-54.71 163,-46.11"/>
<polygon fill="black" stroke="black" points="166.5,-46.1 163,-36.1 159.5,-46.1 166.5,-46.1"/>
</g>
<!-- atomic -->
<g id="node3" class="node">
<title>atomic</title>
<g id="a_node3"><a xlink:href="PsyllaReference_Types.xhtml#PsyllaReference_Types_Details_atomic" xlink:title="atomic" target="_parent">
<polygon fill="linen" stroke="black" points="56,-324 0,-324 0,-288 62,-288 62,-318 56,-324"/>
<polyline fill="none" stroke="black" points="56,-324 56,-318 "/>
<polyline fill="none" stroke="black" points="62,-318 56,-318 "/>
<text text-anchor="middle" x="31" y="-302.9" font-family="Source Code Pro,monospace" font-size="12.00">atomic</text>
</a>
</g>
</g>
<!-- atomic&#45;&gt;name -->
<g id="edge2" class="edge">
<title>atomic&#45;&gt;name</title>
<path fill="none" stroke="black" d="M35.84,-287.93C41.44,-269.49 51.64,-239.61 65,-216 86.35,-178.27 118.44,-139.73 140.03,-115.61"/>
<polygon fill="black" stroke="black" points="142.79,-117.77 146.91,-108.01 137.61,-113.07 142.79,-117.77"/>
</g>
<!-- textual -->
<g id="node4" class="node">
<title>textual</title>
<g id="a_node4"><a xlink:href="PsyllaReference_Types.xhtml#PsyllaReference_Types_Details_textual" xlink:title="textual" target="_parent">
<polygon fill="linen" stroke="black" points="334.5,-180 271.5,-180 271.5,-144 340.5,-144 340.5,-174 334.5,-180"/>
<polyline fill="none" stroke="black" points="334.5,-180 334.5,-174 "/>
<polyline fill="none" stroke="black" points="340.5,-174 334.5,-174 "/>
<text text-anchor="middle" x="306" y="-158.9" font-family="Source Code Pro,monospace" font-size="12.00">textual</text>
</a>
</g>
</g>
<!-- textual&#45;&gt;name -->
<g id="edge3" class="edge">
<title>textual&#45;&gt;name</title>
<path fill="none" stroke="black" d="M271.38,-144.05C249.54,-133.36 221.37,-119.57 199.23,-108.73"/>
<polygon fill="black" stroke="black" points="200.66,-105.54 190.14,-104.29 197.59,-111.83 200.66,-105.54"/>
</g>
<!-- object -->
<g id="node5" class="node">
<title>object</title>
<g id="a_node5"><a xlink:href="PsyllaReference_Types.xhtml#PsyllaReference_Types_Details_object" xlink:title="object" target="_parent">
<polygon fill="linen" stroke="black" points="337,-468 281,-468 281,-432 343,-432 343,-462 337,-468"/>
<polyline fill="none" stroke="black" points="337,-468 337,-462 "/>
<polyline fill="none" stroke="black" points="343,-462 337,-462 "/>
<text text-anchor="middle" x="312" y="-446.9" font-family="Source Code Pro,monospace" font-size="12.00">object</text>
</a>
</g>
</g>
<!-- object&#45;&gt;atomic -->
<g id="edge4" class="edge">
<title>object&#45;&gt;atomic</title>
<path fill="none" stroke="black" d="M280.65,-445.31C224.04,-438.11 107.72,-420.71 76,-396 56.23,-380.6 44.43,-354.15 37.9,-334.08"/>
<polygon fill="black" stroke="black" points="41.18,-332.83 34.96,-324.26 34.48,-334.84 41.18,-332.83"/>
</g>
<!-- evaluable -->
<g id="node6" class="node">
<title>evaluable</title>
<g id="a_node6"><a xlink:href="PsyllaReference_Types.xhtml#PsyllaReference_Types_Details_evaluable" xlink:title="evaluable" target="_parent">
<polygon fill="linen" stroke="black" points="152,-252 74,-252 74,-216 158,-216 158,-246 152,-252"/>
<polyline fill="none" stroke="black" points="152,-252 152,-246 "/>
<polyline fill="none" stroke="black" points="158,-246 152,-246 "/>
<text text-anchor="middle" x="116" y="-230.9" font-family="Source Code Pro,monospace" font-size="12.00">evaluable</text>
</a>
</g>
</g>
<!-- object&#45;&gt;evaluable -->
<g id="edge11" class="edge">
<title>object&#45;&gt;evaluable</title>
<path fill="none" stroke="black" d="M280.76,-440.48C233.43,-425.7 145.14,-390.32 108,-324 97.45,-305.16 100.74,-280.49 105.94,-261.9"/>
<polygon fill="black" stroke="black" points="109.3,-262.87 108.94,-252.28 102.62,-260.78 109.3,-262.87"/>
</g>
<!-- convertabletointeger -->
<g id="node7" class="node">
<title>convertabletointeger</title>
<g id="a_node7"><a xlink:href="PsyllaReference_Types.xhtml#PsyllaReference_Types_Details_convertabletointeger" xlink:title="convertabletointeger" target="_parent">
<polygon fill="linen" stroke="black" points="278.5,-324 117.5,-324 117.5,-288 284.5,-288 284.5,-318 278.5,-324"/>
<polyline fill="none" stroke="black" points="278.5,-324 278.5,-318 "/>
<polyline fill="none" stroke="black" points="284.5,-318 278.5,-318 "/>
<text text-anchor="middle" x="201" y="-302.9" font-family="Source Code Pro,monospace" font-size="12.00">convertabletointeger</text>
</a>
</g>
</g>
<!-- object&#45;&gt;convertabletointeger -->
<g id="edge12" class="edge">
<title>object&#45;&gt;convertabletointeger</title>
<path fill="none" stroke="black" d="M298.61,-431.87C279.19,-407.03 243.09,-360.85 220.65,-332.14"/>
<polygon fill="black" stroke="black" points="223.35,-329.91 214.44,-324.19 217.84,-334.22 223.35,-329.91"/>
</g>
<!-- convertabletointegral -->
<g id="node8" class="node">
<title>convertabletointegral</title>
<g id="a_node8"><a xlink:href="PsyllaReference_Types.xhtml#PsyllaReference_Types_Details_convertabletointegral" xlink:title="convertabletointegral" target="_parent">
<polygon fill="linen" stroke="black" points="387,-252 219,-252 219,-216 393,-216 393,-246 387,-252"/>
<polyline fill="none" stroke="black" points="387,-252 387,-246 "/>
<polyline fill="none" stroke="black" points="393,-246 387,-246 "/>
<text text-anchor="middle" x="306" y="-230.9" font-family="Source Code Pro,monospace" font-size="12.00">convertabletointegral</text>
</a>
</g>
</g>
<!-- object&#45;&gt;convertabletointegral -->
<g id="edge13" class="edge">
<title>object&#45;&gt;convertabletointegral</title>
<path fill="none" stroke="black" d="M311.52,-431.85C310.48,-394.83 308.02,-307.18 306.77,-262.39"/>
<polygon fill="black" stroke="black" points="310.26,-262.13 306.48,-252.23 303.26,-262.33 310.26,-262.13"/>
</g>
<!-- lengthy -->
<g id="node10" class="node">
<title>lengthy</title>
<g id="a_node10"><a xlink:href="PsyllaReference_Types.xhtml#PsyllaReference_Types_Details_lengthy" xlink:title="lengthy" target="_parent">
<polygon fill="linen" stroke="black" points="403.5,-396 340.5,-396 340.5,-360 409.5,-360 409.5,-390 403.5,-396"/>
<polyline fill="none" stroke="black" points="403.5,-396 403.5,-390 "/>
<polyline fill="none" stroke="black" points="409.5,-390 403.5,-390 "/>
<text text-anchor="middle" x="375" y="-374.9" font-family="Source Code Pro,monospace" font-size="12.00">lengthy</text>
</a>
</g>
</g>
<!-- object&#45;&gt;lengthy -->
<g id="edge15" class="edge">
<title>object&#45;&gt;lengthy</title>
<path fill="none" stroke="black" d="M327.57,-431.7C335.2,-423.22 344.52,-412.86 352.88,-403.58"/>
<polygon fill="black" stroke="black" points="355.52,-405.88 359.61,-396.1 350.31,-401.2 355.52,-405.88"/>
</g>
<!-- scalar -->
<g id="node11" class="node">
<title>scalar</title>
<g id="a_node11"><a xlink:href="PsyllaReference_Types.xhtml#PsyllaReference_Types_Details_scalar" xlink:title="scalar" target="_parent">
<polygon fill="linen" stroke="black" points="484,-396 428,-396 428,-360 490,-360 490,-390 484,-396"/>
<polyline fill="none" stroke="black" points="484,-396 484,-390 "/>
<polyline fill="none" stroke="black" points="490,-390 484,-390 "/>
<text text-anchor="middle" x="459" y="-374.9" font-family="Source Code Pro,monospace" font-size="12.00">scalar</text>
</a>
</g>
</g>
<!-- object&#45;&gt;scalar -->
<g id="edge16" class="edge">
<title>object&#45;&gt;scalar</title>
<path fill="none" stroke="black" d="M343.17,-434.15C365.2,-423.67 394.91,-409.52 418.73,-398.18"/>
<polygon fill="black" stroke="black" points="420.35,-401.28 427.87,-393.82 417.34,-394.96 420.35,-401.28"/>
</g>
<!-- sequential -->
<g id="node13" class="node">
<title>sequential</title>
<g id="a_node13"><a xlink:href="PsyllaReference_Types.xhtml#PsyllaReference_Types_Details_sequential" xlink:title="sequential" target="_parent">
<polygon fill="linen" stroke="black" points="594,-396 508,-396 508,-360 600,-360 600,-390 594,-396"/>
<polyline fill="none" stroke="black" points="594,-396 594,-390 "/>
<polyline fill="none" stroke="black" points="600,-390 594,-390 "/>
<text text-anchor="middle" x="554" y="-374.9" font-family="Source Code Pro,monospace" font-size="12.00">sequential</text>
</a>
</g>
</g>
<!-- object&#45;&gt;sequential -->
<g id="edge18" class="edge">
<title>object&#45;&gt;sequential</title>
<path fill="none" stroke="black" d="M343.17,-440.41C378.45,-430.63 437.89,-414 498.14,-396.22"/>
<polygon fill="black" stroke="black" points="499.21,-399.56 507.81,-393.36 497.23,-392.84 499.21,-399.56"/>
</g>
<!-- evaluable&#45;&gt;textual -->
<g id="edge5" class="edge">
<title>evaluable&#45;&gt;textual</title>
<path fill="none" stroke="black" d="M158.17,-217.46C188.85,-206.16 230.31,-190.89 261.51,-179.39"/>
<polygon fill="black" stroke="black" points="263.08,-182.54 271.26,-175.8 260.66,-175.97 263.08,-182.54"/>
</g>
<!-- convertabletointeger&#45;&gt;textual -->
<g id="edge6" class="edge">
<title>convertabletointeger&#45;&gt;textual</title>
<path fill="none" stroke="black" d="M198.29,-287.71C196.23,-268.55 195.8,-237.51 210,-216 222.11,-197.65 242.84,-185.07 261.93,-176.79"/>
<polygon fill="black" stroke="black" points="263.47,-179.95 271.42,-172.95 260.84,-173.46 263.47,-179.95"/>
</g>
<!-- convertabletointegral&#45;&gt;textual -->
<g id="edge7" class="edge">
<title>convertabletointegral&#45;&gt;textual</title>
<path fill="none" stroke="black" d="M306,-215.7C306,-207.98 306,-198.71 306,-190.11"/>
<polygon fill="black" stroke="black" points="309.5,-190.1 306,-180.1 302.5,-190.1 309.5,-190.1"/>
</g>
<!-- iterable -->
<g id="node9" class="node">
<title>iterable</title>
<g id="a_node9"><a xlink:href="PsyllaReference_Types.xhtml#PsyllaReference_Types_Details_iterable" xlink:title="iterable" target="_parent">
<polygon fill="linen" stroke="black" points="565.5,-252 494.5,-252 494.5,-216 571.5,-216 571.5,-246 565.5,-252"/>
<polyline fill="none" stroke="black" points="565.5,-252 565.5,-246 "/>
<polyline fill="none" stroke="black" points="571.5,-246 565.5,-246 "/>
<text text-anchor="middle" x="533" y="-230.9" font-family="Source Code Pro,monospace" font-size="12.00">iterable</text>
</a>
</g>
</g>
<!-- iterable&#45;&gt;textual -->
<g id="edge8" class="edge">
<title>iterable&#45;&gt;textual</title>
<path fill="none" stroke="black" d="M494.49,-221.13C454.56,-208.81 392.21,-189.58 350.27,-176.65"/>
<polygon fill="black" stroke="black" points="351.19,-173.27 340.6,-173.67 349.12,-179.96 351.19,-173.27"/>
</g>
<!-- lengthy&#45;&gt;textual -->
<g id="edge9" class="edge">
<title>lengthy&#45;&gt;textual</title>
<path fill="none" stroke="black" d="M384.92,-359.66C401.24,-328.6 429.37,-262.37 402,-216 390.69,-196.84 369.7,-184.13 350.22,-175.97"/>
<polygon fill="black" stroke="black" points="351.42,-172.68 340.83,-172.32 348.89,-179.2 351.42,-172.68"/>
</g>
<!-- scalar&#45;&gt;textual -->
<g id="edge10" class="edge">
<title>scalar&#45;&gt;textual</title>
<path fill="none" stroke="black" d="M459.74,-359.85C460.21,-327.9 456.8,-258.68 422,-216 404.05,-193.98 374.94,-180.72 350.38,-172.97"/>
<polygon fill="black" stroke="black" points="351.11,-169.53 340.53,-170.07 349.14,-176.25 351.11,-169.53"/>
</g>
<!-- streamable -->
<g id="node12" class="node">
<title>streamable</title>
<g id="a_node12"><a xlink:href="PsyllaReference_Types.xhtml#PsyllaReference_Types_Details_streamable" xlink:title="streamable" target="_parent">
<polygon fill="linen" stroke="black" points="587,-324 501,-324 501,-288 593,-288 593,-318 587,-324"/>
<polyline fill="none" stroke="black" points="587,-324 587,-318 "/>
<polyline fill="none" stroke="black" points="593,-318 587,-318 "/>
<text text-anchor="middle" x="547" y="-302.9" font-family="Source Code Pro,monospace" font-size="12.00">streamable</text>
</a>
</g>
</g>
<!-- streamable&#45;&gt;iterable -->
<g id="edge14" class="edge">
<title>streamable&#45;&gt;iterable</title>
<path fill="none" stroke="black" d="M543.54,-287.7C542,-279.98 540.14,-270.71 538.42,-262.11"/>
<polygon fill="black" stroke="black" points="541.81,-261.22 536.42,-252.1 534.95,-262.6 541.81,-261.22"/>
</g>
<!-- sequential&#45;&gt;streamable -->
<g id="edge17" class="edge">
<title>sequential&#45;&gt;streamable</title>
<path fill="none" stroke="black" d="M552.27,-359.7C551.5,-351.98 550.57,-342.71 549.71,-334.11"/>
<polygon fill="black" stroke="black" points="553.19,-333.71 548.71,-324.1 546.22,-334.4 553.19,-333.71"/>
</g>
</g>
</svg>
