<?xml version="1.0" encoding="UTF-8" standalone="no"?>
<!DOCTYPE svg PUBLIC "-//W3C//DTD SVG 1.1//EN"
 "http://www.w3.org/Graphics/SVG/1.1/DTD/svg11.dtd">
<!-- Generated by graphviz version 2.49.3 (0)
 -->
<!-- Title: stringwriter Pages: 1 -->
<svg width="220pt" height="260pt"
 viewBox="0.00 0.00 219.98 260.00" xmlns="http://www.w3.org/2000/svg" xmlns:xlink="http://www.w3.org/1999/xlink">
<g id="graph0" class="graph" transform="scale(1 1) rotate(0) translate(4 256)">
<title>stringwriter</title>
<polygon fill="transparent" stroke="transparent" points="-4,4 -4,-256 215.98,-256 215.98,4 -4,4"/>
<!-- writer -->
<g id="node1" class="node">
<title>writer</title>
<g id="a_node1"><a xlink:href="PsyllaReference_Types.xhtml#PsyllaReference_Types_Details_writer" xlink:title="writer" target="_parent">
<polygon fill="linen" stroke="black" points="129.32,-108 81.32,-108 81.32,-72 135.32,-72 135.32,-102 129.32,-108"/>
<polyline fill="none" stroke="black" points="129.32,-108 129.32,-102 "/>
<polyline fill="none" stroke="black" points="135.32,-102 129.32,-102 "/>
<text text-anchor="middle" x="108.32" y="-86.4" font-family="Source Code Pro,monospace" font-size="12.00">writer</text>
</a>
</g>
</g>
<!-- stringwriter -->
<g id="node2" class="node">
<title>stringwriter</title>
<g id="a_node2"><a xlink:href="PsyllaReference_Types.xhtml#PsyllaReference_Types_Details_stringwriter" xlink:title="stringwriter" target="_parent">
<polygon fill="wheat" stroke="black" points="138.3,-36 72.34,-36 72.34,0 144.3,0 144.3,-30 138.3,-36"/>
<polyline fill="none" stroke="black" points="138.3,-36 138.3,-30 "/>
<polyline fill="none" stroke="black" points="144.3,-30 138.3,-30 "/>
<text text-anchor="middle" x="108.32" y="-14.4" font-family="Source Code Pro,monospace" font-size="12.00">stringwriter</text>
</a>
</g>
</g>
<!-- writer&#45;&gt;stringwriter -->
<g id="edge1" class="edge">
<title>writer&#45;&gt;stringwriter</title>
<path fill="none" stroke="black" d="M108.32,-71.7C108.32,-63.98 108.32,-54.71 108.32,-46.11"/>
<polygon fill="black" stroke="black" points="111.82,-46.1 108.32,-36.1 104.82,-46.1 111.82,-46.1"/>
</g>
<!-- closeable -->
<g id="node3" class="node">
<title>closeable</title>
<g id="a_node3"><a xlink:href="PsyllaReference_Types.xhtml#PsyllaReference_Types_Details_closeable" xlink:title="closeable" target="_parent">
<polygon fill="linen" stroke="black" points="54.47,-180 0.18,-180 0.18,-144 60.47,-144 60.47,-174 54.47,-180"/>
<polyline fill="none" stroke="black" points="54.47,-180 54.47,-174 "/>
<polyline fill="none" stroke="black" points="60.47,-174 54.47,-174 "/>
<text text-anchor="middle" x="30.32" y="-158.4" font-family="Source Code Pro,monospace" font-size="12.00">closeable</text>
</a>
</g>
</g>
<!-- closeable&#45;&gt;writer -->
<g id="edge2" class="edge">
<title>closeable&#45;&gt;writer</title>
<path fill="none" stroke="black" d="M49.6,-143.7C59.24,-135.05 71.05,-124.45 81.55,-115.03"/>
<polygon fill="black" stroke="black" points="84.16,-117.39 89.26,-108.1 79.48,-112.18 84.16,-117.39"/>
</g>
<!-- flushable -->
<g id="node4" class="node">
<title>flushable</title>
<g id="a_node4"><a xlink:href="PsyllaReference_Types.xhtml#PsyllaReference_Types_Details_flushable" xlink:title="flushable" target="_parent">
<polygon fill="linen" stroke="black" points="132.31,-180 78.34,-180 78.34,-144 138.31,-144 138.31,-174 132.31,-180"/>
<polyline fill="none" stroke="black" points="132.31,-180 132.31,-174 "/>
<polyline fill="none" stroke="black" points="138.31,-174 132.31,-174 "/>
<text text-anchor="middle" x="108.32" y="-158.4" font-family="Source Code Pro,monospace" font-size="12.00">flushable</text>
</a>
</g>
</g>
<!-- flushable&#45;&gt;writer -->
<g id="edge3" class="edge">
<title>flushable&#45;&gt;writer</title>
<path fill="none" stroke="black" d="M108.32,-143.7C108.32,-135.98 108.32,-126.71 108.32,-118.11"/>
<polygon fill="black" stroke="black" points="111.82,-118.1 108.32,-108.1 104.82,-118.1 111.82,-118.1"/>
</g>
<!-- writable -->
<g id="node5" class="node">
<title>writable</title>
<g id="a_node5"><a xlink:href="PsyllaReference_Types.xhtml#PsyllaReference_Types_Details_writable" xlink:title="writable" target="_parent">
<polygon fill="linen" stroke="black" points="206.14,-180 156.51,-180 156.51,-144 212.14,-144 212.14,-174 206.14,-180"/>
<polyline fill="none" stroke="black" points="206.14,-180 206.14,-174 "/>
<polyline fill="none" stroke="black" points="212.14,-174 206.14,-174 "/>
<text text-anchor="middle" x="184.32" y="-158.4" font-family="Source Code Pro,monospace" font-size="12.00">writable</text>
</a>
</g>
</g>
<!-- writable&#45;&gt;writer -->
<g id="edge4" class="edge">
<title>writable&#45;&gt;writer</title>
<path fill="none" stroke="black" d="M165.54,-143.7C156.15,-135.05 144.64,-124.45 134.41,-115.03"/>
<polygon fill="black" stroke="black" points="136.62,-112.3 126.89,-108.1 131.88,-117.45 136.62,-112.3"/>
</g>
<!-- object -->
<g id="node6" class="node">
<title>object</title>
<g id="a_node6"><a xlink:href="PsyllaReference_Types.xhtml#PsyllaReference_Types_Details_object" xlink:title="object" target="_parent">
<polygon fill="linen" stroke="black" points="129.32,-252 81.32,-252 81.32,-216 135.32,-216 135.32,-246 129.32,-252"/>
<polyline fill="none" stroke="black" points="129.32,-252 129.32,-246 "/>
<polyline fill="none" stroke="black" points="135.32,-246 129.32,-246 "/>
<text text-anchor="middle" x="108.32" y="-230.4" font-family="Source Code Pro,monospace" font-size="12.00">object</text>
</a>
</g>
</g>
<!-- object&#45;&gt;closeable -->
<g id="edge5" class="edge">
<title>object&#45;&gt;closeable</title>
<path fill="none" stroke="black" d="M89.04,-215.7C79.41,-207.05 67.59,-196.45 57.09,-187.03"/>
<polygon fill="black" stroke="black" points="59.16,-184.18 49.38,-180.1 54.49,-189.39 59.16,-184.18"/>
</g>
<!-- object&#45;&gt;flushable -->
<g id="edge6" class="edge">
<title>object&#45;&gt;flushable</title>
<path fill="none" stroke="black" d="M108.32,-215.7C108.32,-207.98 108.32,-198.71 108.32,-190.11"/>
<polygon fill="black" stroke="black" points="111.82,-190.1 108.32,-180.1 104.82,-190.1 111.82,-190.1"/>
</g>
<!-- object&#45;&gt;writable -->
<g id="edge7" class="edge">
<title>object&#45;&gt;writable</title>
<path fill="none" stroke="black" d="M127.11,-215.7C136.5,-207.05 148.01,-196.45 158.24,-187.03"/>
<polygon fill="black" stroke="black" points="160.77,-189.45 165.75,-180.1 156.02,-184.3 160.77,-189.45"/>
</g>
</g>
</svg>
