<?xml version="1.0" encoding="UTF-8" standalone="no"?>
<!DOCTYPE svg PUBLIC "-//W3C//DTD SVG 1.1//EN"
 "http://www.w3.org/Graphics/SVG/1.1/DTD/svg11.dtd">
<!-- Generated by graphviz version 2.43.0 (0)
 -->
<!-- Title: command Pages: 1 -->
<svg width="344pt" height="476pt"
 viewBox="0.00 0.00 344.00 476.00" xmlns="http://www.w3.org/2000/svg" xmlns:xlink="http://www.w3.org/1999/xlink">
<g id="graph0" class="graph" transform="scale(1 1) rotate(0) translate(4 472)">
<title>command</title>
<polygon fill="transparent" stroke="transparent" points="-4,4 -4,-472 340,-472 340,4 -4,4"/>
<!-- name -->
<g id="node1" class="node">
<title>name</title>
<g id="a_node1"><a xlink:href="PsyllaReference_Types.xhtml#PsyllaReference_Types_Details_name" xlink:title="name" target="_parent">
<polygon fill="linen" stroke="black" points="122,-108 74,-108 74,-72 128,-72 128,-102 122,-108"/>
<polyline fill="none" stroke="black" points="122,-108 122,-102 "/>
<polyline fill="none" stroke="black" points="128,-102 122,-102 "/>
<text text-anchor="middle" x="101" y="-86.9" font-family="PT Mono, monospace" font-size="12.00">name</text>
</a>
</g>
</g>
<!-- command -->
<g id="node2" class="node">
<title>command</title>
<g id="a_node2"><a xlink:href="PsyllaReference_Types.xhtml#PsyllaReference_Types_Details_command" xlink:title="command" target="_parent">
<polygon fill="wheat" stroke="black" points="129.5,-36 66.5,-36 66.5,0 135.5,0 135.5,-30 129.5,-36"/>
<polyline fill="none" stroke="black" points="129.5,-36 129.5,-30 "/>
<polyline fill="none" stroke="black" points="135.5,-30 129.5,-30 "/>
<text text-anchor="middle" x="101" y="-14.9" font-family="PT Mono, monospace" font-size="12.00">command</text>
</a>
</g>
</g>
<!-- name&#45;&gt;command -->
<g id="edge1" class="edge">
<title>name&#45;&gt;command</title>
<path fill="none" stroke="black" d="M101,-71.7C101,-63.98 101,-54.71 101,-46.11"/>
<polygon fill="black" stroke="black" points="104.5,-46.1 101,-36.1 97.5,-46.1 104.5,-46.1"/>
</g>
<!-- atomic -->
<g id="node3" class="node">
<title>atomic</title>
<g id="a_node3"><a xlink:href="PsyllaReference_Types.xhtml#PsyllaReference_Types_Details_atomic" xlink:title="atomic" target="_parent">
<polygon fill="linen" stroke="black" points="56,-324 0,-324 0,-288 62,-288 62,-318 56,-324"/>
<polyline fill="none" stroke="black" points="56,-324 56,-318 "/>
<polyline fill="none" stroke="black" points="62,-318 56,-318 "/>
<text text-anchor="middle" x="31" y="-302.9" font-family="PT Mono, monospace" font-size="12.00">atomic</text>
</a>
</g>
</g>
<!-- atomic&#45;&gt;name -->
<g id="edge2" class="edge">
<title>atomic&#45;&gt;name</title>
<path fill="none" stroke="black" d="M33.76,-287.71C36.86,-269.6 42.46,-240.46 50,-216 60.78,-181 77.4,-142.16 88.72,-117.2"/>
<polygon fill="black" stroke="black" points="91.93,-118.59 92.92,-108.04 85.57,-115.67 91.93,-118.59"/>
</g>
<!-- textual -->
<g id="node4" class="node">
<title>textual</title>
<g id="a_node4"><a xlink:href="PsyllaReference_Types.xhtml#PsyllaReference_Types_Details_textual" xlink:title="textual" target="_parent">
<polygon fill="linen" stroke="black" points="199.5,-180 136.5,-180 136.5,-144 205.5,-144 205.5,-174 199.5,-180"/>
<polyline fill="none" stroke="black" points="199.5,-180 199.5,-174 "/>
<polyline fill="none" stroke="black" points="205.5,-174 199.5,-174 "/>
<text text-anchor="middle" x="171" y="-158.9" font-family="PT Mono, monospace" font-size="12.00">textual</text>
</a>
</g>
</g>
<!-- textual&#45;&gt;name -->
<g id="edge3" class="edge">
<title>textual&#45;&gt;name</title>
<path fill="none" stroke="black" d="M153.7,-143.7C145.14,-135.14 134.66,-124.66 125.3,-115.3"/>
<polygon fill="black" stroke="black" points="127.65,-112.7 118.1,-108.1 122.7,-117.65 127.65,-112.7"/>
</g>
<!-- object -->
<g id="node5" class="node">
<title>object</title>
<g id="a_node5"><a xlink:href="PsyllaReference_Types.xhtml#PsyllaReference_Types_Details_object" xlink:title="object" target="_parent">
<polygon fill="linen" stroke="black" points="161,-468 105,-468 105,-432 167,-432 167,-462 161,-468"/>
<polyline fill="none" stroke="black" points="161,-468 161,-462 "/>
<polyline fill="none" stroke="black" points="167,-462 161,-462 "/>
<text text-anchor="middle" x="136" y="-446.9" font-family="PT Mono, monospace" font-size="12.00">object</text>
</a>
</g>
</g>
<!-- object&#45;&gt;atomic -->
<g id="edge4" class="edge">
<title>object&#45;&gt;atomic</title>
<path fill="none" stroke="black" d="M112.71,-431.9C100.71,-422.29 86.45,-409.53 76,-396 61.2,-376.84 49.14,-352.05 41.24,-333.5"/>
<polygon fill="black" stroke="black" points="44.44,-332.08 37.4,-324.17 37.97,-334.75 44.44,-332.08"/>
</g>
<!-- evaluable -->
<g id="node6" class="node">
<title>evaluable</title>
<g id="a_node6"><a xlink:href="PsyllaReference_Types.xhtml#PsyllaReference_Types_Details_evaluable" xlink:title="evaluable" target="_parent">
<polygon fill="linen" stroke="black" points="137,-252 59,-252 59,-216 143,-216 143,-246 137,-252"/>
<polyline fill="none" stroke="black" points="137,-252 137,-246 "/>
<polyline fill="none" stroke="black" points="143,-246 137,-246 "/>
<text text-anchor="middle" x="101" y="-230.9" font-family="PT Mono, monospace" font-size="12.00">evaluable</text>
</a>
</g>
</g>
<!-- object&#45;&gt;evaluable -->
<g id="edge9" class="edge">
<title>object&#45;&gt;evaluable</title>
<path fill="none" stroke="black" d="M131.56,-431.73C125.56,-407.73 114.92,-362.85 109,-324 105.87,-303.42 103.82,-279.97 102.58,-262.31"/>
<polygon fill="black" stroke="black" points="106.06,-261.89 101.91,-252.14 99.08,-262.35 106.06,-261.89"/>
</g>
<!-- lengthy -->
<g id="node8" class="node">
<title>lengthy</title>
<g id="a_node8"><a xlink:href="PsyllaReference_Types.xhtml#PsyllaReference_Types_Details_lengthy" xlink:title="lengthy" target="_parent">
<polygon fill="linen" stroke="black" points="181.5,-324 118.5,-324 118.5,-288 187.5,-288 187.5,-318 181.5,-324"/>
<polyline fill="none" stroke="black" points="181.5,-324 181.5,-318 "/>
<polyline fill="none" stroke="black" points="187.5,-318 181.5,-318 "/>
<text text-anchor="middle" x="153" y="-302.9" font-family="PT Mono, monospace" font-size="12.00">lengthy</text>
</a>
</g>
</g>
<!-- object&#45;&gt;lengthy -->
<g id="edge11" class="edge">
<title>object&#45;&gt;lengthy</title>
<path fill="none" stroke="black" d="M138.05,-431.87C140.95,-407.67 146.27,-363.21 149.72,-334.39"/>
<polygon fill="black" stroke="black" points="153.23,-334.53 150.94,-324.19 146.28,-333.7 153.23,-334.53"/>
</g>
<!-- scalar -->
<g id="node9" class="node">
<title>scalar</title>
<g id="a_node9"><a xlink:href="PsyllaReference_Types.xhtml#PsyllaReference_Types_Details_scalar" xlink:title="scalar" target="_parent">
<polygon fill="linen" stroke="black" points="220,-396 164,-396 164,-360 226,-360 226,-390 220,-396"/>
<polyline fill="none" stroke="black" points="220,-396 220,-390 "/>
<polyline fill="none" stroke="black" points="226,-390 220,-390 "/>
<text text-anchor="middle" x="195" y="-374.9" font-family="PT Mono, monospace" font-size="12.00">scalar</text>
</a>
</g>
</g>
<!-- object&#45;&gt;scalar -->
<g id="edge12" class="edge">
<title>object&#45;&gt;scalar</title>
<path fill="none" stroke="black" d="M150.58,-431.7C157.66,-423.3 166.28,-413.07 174.05,-403.86"/>
<polygon fill="black" stroke="black" points="176.81,-406.01 180.58,-396.1 171.46,-401.49 176.81,-406.01"/>
</g>
<!-- sequential -->
<g id="node11" class="node">
<title>sequential</title>
<g id="a_node11"><a xlink:href="PsyllaReference_Types.xhtml#PsyllaReference_Types_Details_sequential" xlink:title="sequential" target="_parent">
<polygon fill="linen" stroke="black" points="330,-396 244,-396 244,-360 336,-360 336,-390 330,-396"/>
<polyline fill="none" stroke="black" points="330,-396 330,-390 "/>
<polyline fill="none" stroke="black" points="336,-390 330,-390 "/>
<text text-anchor="middle" x="290" y="-374.9" font-family="PT Mono, monospace" font-size="12.00">sequential</text>
</a>
</g>
</g>
<!-- object&#45;&gt;sequential -->
<g id="edge14" class="edge">
<title>object&#45;&gt;sequential</title>
<path fill="none" stroke="black" d="M167.16,-434.83C188.99,-424.92 218.53,-411.49 243.17,-400.29"/>
<polygon fill="black" stroke="black" points="244.7,-403.44 252.35,-396.11 241.8,-397.06 244.7,-403.44"/>
</g>
<!-- evaluable&#45;&gt;textual -->
<g id="edge5" class="edge">
<title>evaluable&#45;&gt;textual</title>
<path fill="none" stroke="black" d="M118.3,-215.7C126.86,-207.14 137.34,-196.66 146.7,-187.3"/>
<polygon fill="black" stroke="black" points="149.3,-189.65 153.9,-180.1 144.35,-184.7 149.3,-189.65"/>
</g>
<!-- iterable -->
<g id="node7" class="node">
<title>iterable</title>
<g id="a_node7"><a xlink:href="PsyllaReference_Types.xhtml#PsyllaReference_Types_Details_iterable" xlink:title="iterable" target="_parent">
<polygon fill="linen" stroke="black" points="318.5,-252 247.5,-252 247.5,-216 324.5,-216 324.5,-246 318.5,-252"/>
<polyline fill="none" stroke="black" points="318.5,-252 318.5,-246 "/>
<polyline fill="none" stroke="black" points="324.5,-246 318.5,-246 "/>
<text text-anchor="middle" x="286" y="-230.9" font-family="PT Mono, monospace" font-size="12.00">iterable</text>
</a>
</g>
</g>
<!-- iterable&#45;&gt;textual -->
<g id="edge6" class="edge">
<title>iterable&#45;&gt;textual</title>
<path fill="none" stroke="black" d="M257.87,-215.88C242.83,-206.72 224.13,-195.34 207.94,-185.48"/>
<polygon fill="black" stroke="black" points="209.6,-182.4 199.24,-180.19 205.96,-188.38 209.6,-182.4"/>
</g>
<!-- lengthy&#45;&gt;textual -->
<g id="edge7" class="edge">
<title>lengthy&#45;&gt;textual</title>
<path fill="none" stroke="black" d="M155.17,-287.87C158.24,-263.67 163.87,-219.21 167.53,-190.39"/>
<polygon fill="black" stroke="black" points="171.04,-190.55 168.82,-180.19 164.09,-189.67 171.04,-190.55"/>
</g>
<!-- scalar&#45;&gt;textual -->
<g id="edge8" class="edge">
<title>scalar&#45;&gt;textual</title>
<path fill="none" stroke="black" d="M195.41,-359.82C195.63,-349.44 195.89,-335.96 196,-324 196.15,-308 197.58,-303.92 196,-288 192.62,-253.89 184.18,-215.3 178.04,-190.14"/>
<polygon fill="black" stroke="black" points="181.38,-189.08 175.57,-180.23 174.59,-190.78 181.38,-189.08"/>
</g>
<!-- streamable -->
<g id="node10" class="node">
<title>streamable</title>
<g id="a_node10"><a xlink:href="PsyllaReference_Types.xhtml#PsyllaReference_Types_Details_streamable" xlink:title="streamable" target="_parent">
<polygon fill="linen" stroke="black" points="330,-324 244,-324 244,-288 336,-288 336,-318 330,-324"/>
<polyline fill="none" stroke="black" points="330,-324 330,-318 "/>
<polyline fill="none" stroke="black" points="336,-318 330,-318 "/>
<text text-anchor="middle" x="290" y="-302.9" font-family="PT Mono, monospace" font-size="12.00">streamable</text>
</a>
</g>
</g>
<!-- streamable&#45;&gt;iterable -->
<g id="edge10" class="edge">
<title>streamable&#45;&gt;iterable</title>
<path fill="none" stroke="black" d="M289.01,-287.7C288.57,-279.98 288.04,-270.71 287.55,-262.11"/>
<polygon fill="black" stroke="black" points="291.04,-261.89 286.98,-252.1 284.05,-262.29 291.04,-261.89"/>
</g>
<!-- sequential&#45;&gt;streamable -->
<g id="edge13" class="edge">
<title>sequential&#45;&gt;streamable</title>
<path fill="none" stroke="black" d="M290,-359.7C290,-351.98 290,-342.71 290,-334.11"/>
<polygon fill="black" stroke="black" points="293.5,-334.1 290,-324.1 286.5,-334.1 293.5,-334.1"/>
</g>
</g>
</svg>
