<?xml version="1.0" encoding="UTF-8" standalone="no"?>
<!DOCTYPE svg PUBLIC "-//W3C//DTD SVG 1.1//EN"
 "http://www.w3.org/Graphics/SVG/1.1/DTD/svg11.dtd">
<!-- Generated by graphviz version 14.0.0 (0)
 -->
<!-- Title: name Pages: 1 -->
<svg width="648pt" height="476pt"
 viewBox="0.00 0.00 648.00 476.00" xmlns="http://www.w3.org/2000/svg" xmlns:xlink="http://www.w3.org/1999/xlink">
<g id="graph0" class="graph" transform="scale(1 1) rotate(0) translate(4 472)">
<title>name</title>
<polygon fill="none" stroke="none" points="-4,4 -4,-472 643.99,-472 643.99,4 -4,4"/>
<!-- string -->
<g id="node1" class="node">
<title>string</title>
<g id="a_node1"><a xlink:href="PsyllaReference_Types.xhtml#PsyllaReference_Types_Details_string" xlink:title="string" target="_parent">
<polygon fill="linen" stroke="black" points="115,-108 67,-108 67,-72 121,-72 121,-102 115,-108"/>
<polyline fill="none" stroke="black" points="115,-108 115,-102"/>
<polyline fill="none" stroke="black" points="121,-102 115,-102"/>
<text xml:space="preserve" text-anchor="middle" x="94" y="-86.4" font-family="Source Code Pro,monospace" font-size="12.00">string</text>
</a>
</g>
</g>
<!-- name -->
<g id="node2" class="node">
<title>name</title>
<g id="a_node2"><a xlink:href="PsyllaReference_Types.xhtml#PsyllaReference_Types_Details_name" xlink:title="name" target="_parent">
<polygon fill="wheat" stroke="black" points="115,-36 67,-36 67,0 121,0 121,-30 115,-36"/>
<polyline fill="none" stroke="black" points="115,-36 115,-30"/>
<polyline fill="none" stroke="black" points="121,-30 115,-30"/>
<text xml:space="preserve" text-anchor="middle" x="94" y="-14.4" font-family="Source Code Pro,monospace" font-size="12.00">name</text>
</a>
</g>
</g>
<!-- string&#45;&gt;name -->
<g id="edge1" class="edge">
<title>string&#45;&gt;name</title>
<path fill="none" stroke="black" d="M94,-71.7C94,-64.41 94,-55.73 94,-47.54"/>
<polygon fill="black" stroke="black" points="97.5,-47.62 94,-37.62 90.5,-47.62 97.5,-47.62"/>
</g>
<!-- textual -->
<g id="node3" class="node">
<title>textual</title>
<g id="a_node3"><a xlink:href="PsyllaReference_Types.xhtml#PsyllaReference_Types_Details_textual" xlink:title="textual" target="_parent">
<polygon fill="linen" stroke="black" points="397,-180 349,-180 349,-144 403,-144 403,-174 397,-180"/>
<polyline fill="none" stroke="black" points="397,-180 397,-174"/>
<polyline fill="none" stroke="black" points="403,-174 397,-174"/>
<text xml:space="preserve" text-anchor="middle" x="376" y="-158.4" font-family="Source Code Pro,monospace" font-size="12.00">textual</text>
</a>
</g>
</g>
<!-- textual&#45;&gt;string -->
<g id="edge2" class="edge">
<title>textual&#45;&gt;string</title>
<path fill="none" stroke="black" d="M348.7,-154.22C298.17,-141.68 189.92,-114.81 132.16,-100.47"/>
<polygon fill="black" stroke="black" points="133.33,-97.16 122.78,-98.14 131.64,-103.95 133.33,-97.16"/>
</g>
<!-- value -->
<g id="node4" class="node">
<title>value</title>
<g id="a_node4"><a xlink:href="PsyllaReference_Types.xhtml#PsyllaReference_Types_Details_value" xlink:title="value" target="_parent">
<polygon fill="linen" stroke="black" points="48,-252 0,-252 0,-216 54,-216 54,-246 48,-252"/>
<polyline fill="none" stroke="black" points="48,-252 48,-246"/>
<polyline fill="none" stroke="black" points="54,-246 48,-246"/>
<text xml:space="preserve" text-anchor="middle" x="27" y="-230.4" font-family="Source Code Pro,monospace" font-size="12.00">value</text>
</a>
</g>
</g>
<!-- value&#45;&gt;string -->
<g id="edge3" class="edge">
<title>value&#45;&gt;string</title>
<path fill="none" stroke="black" d="M28.02,-215.71C29.72,-197.1 34.19,-167.06 46,-144 51.07,-134.1 58.47,-124.64 65.95,-116.52"/>
<polygon fill="black" stroke="black" points="68.45,-118.97 72.93,-109.36 63.44,-114.08 68.45,-118.97"/>
</g>
<!-- concatenable -->
<g id="node5" class="node">
<title>concatenable</title>
<g id="a_node5"><a xlink:href="PsyllaReference_Types.xhtml#PsyllaReference_Types_Details_concatenable" xlink:title="concatenable" target="_parent">
<polygon fill="linen" stroke="black" points="127.31,-180 54.69,-180 54.69,-144 133.31,-144 133.31,-174 127.31,-180"/>
<polyline fill="none" stroke="black" points="127.31,-180 127.31,-174"/>
<polyline fill="none" stroke="black" points="133.31,-174 127.31,-174"/>
<text xml:space="preserve" text-anchor="middle" x="94" y="-158.4" font-family="Source Code Pro,monospace" font-size="12.00">concatenable</text>
</a>
</g>
</g>
<!-- concatenable&#45;&gt;string -->
<g id="edge4" class="edge">
<title>concatenable&#45;&gt;string</title>
<path fill="none" stroke="black" d="M94,-143.7C94,-136.41 94,-127.73 94,-119.54"/>
<polygon fill="black" stroke="black" points="97.5,-119.62 94,-109.62 90.5,-119.62 97.5,-119.62"/>
</g>
<!-- evaluable -->
<g id="node6" class="node">
<title>evaluable</title>
<g id="a_node6"><a xlink:href="PsyllaReference_Types.xhtml#PsyllaReference_Types_Details_evaluable" xlink:title="evaluable" target="_parent">
<polygon fill="linen" stroke="black" points="165.99,-324 110.01,-324 110.01,-288 171.99,-288 171.99,-318 165.99,-324"/>
<polyline fill="none" stroke="black" points="165.99,-324 165.99,-318"/>
<polyline fill="none" stroke="black" points="171.99,-318 165.99,-318"/>
<text xml:space="preserve" text-anchor="middle" x="141" y="-302.4" font-family="Source Code Pro,monospace" font-size="12.00">evaluable</text>
</a>
</g>
</g>
<!-- evaluable&#45;&gt;textual -->
<g id="edge5" class="edge">
<title>evaluable&#45;&gt;textual</title>
<path fill="none" stroke="black" d="M157.88,-287.71C177.59,-268.26 211.88,-236.69 246,-216 275.09,-198.36 311.1,-184.2 337.83,-174.97"/>
<polygon fill="black" stroke="black" points="338.88,-178.31 347.25,-171.81 336.65,-171.68 338.88,-178.31"/>
</g>
<!-- convertabletointeger -->
<g id="node7" class="node">
<title>convertabletointeger</title>
<g id="a_node7"><a xlink:href="PsyllaReference_Types.xhtml#PsyllaReference_Types_Details_convertabletointeger" xlink:title="convertabletointeger" target="_parent">
<polygon fill="linen" stroke="black" points="298.31,-324 189.69,-324 189.69,-288 304.31,-288 304.31,-318 298.31,-324"/>
<polyline fill="none" stroke="black" points="298.31,-324 298.31,-318"/>
<polyline fill="none" stroke="black" points="304.31,-318 298.31,-318"/>
<text xml:space="preserve" text-anchor="middle" x="247" y="-302.4" font-family="Source Code Pro,monospace" font-size="12.00">convertabletointeger</text>
</a>
</g>
</g>
<!-- convertabletointeger&#45;&gt;textual -->
<g id="edge6" class="edge">
<title>convertabletointeger&#45;&gt;textual</title>
<path fill="none" stroke="black" d="M246.14,-287.74C246.08,-268.31 248.81,-236.76 265,-216 283,-192.93 313.53,-179.37 338.02,-171.75"/>
<polygon fill="black" stroke="black" points="338.68,-175.2 347.32,-169.08 336.75,-168.48 338.68,-175.2"/>
</g>
<!-- convertabletointegral -->
<g id="node8" class="node">
<title>convertabletointegral</title>
<g id="a_node8"><a xlink:href="PsyllaReference_Types.xhtml#PsyllaReference_Types_Details_convertabletointegral" xlink:title="convertabletointegral" target="_parent">
<polygon fill="linen" stroke="black" points="385.98,-252 274.02,-252 274.02,-216 391.98,-216 391.98,-246 385.98,-252"/>
<polyline fill="none" stroke="black" points="385.98,-252 385.98,-246"/>
<polyline fill="none" stroke="black" points="391.98,-246 385.98,-246"/>
<text xml:space="preserve" text-anchor="middle" x="333" y="-230.4" font-family="Source Code Pro,monospace" font-size="12.00">convertabletointegral</text>
</a>
</g>
</g>
<!-- convertabletointegral&#45;&gt;textual -->
<g id="edge7" class="edge">
<title>convertabletointegral&#45;&gt;textual</title>
<path fill="none" stroke="black" d="M343.63,-215.7C348.42,-207.9 354.19,-198.51 359.52,-189.83"/>
<polygon fill="black" stroke="black" points="362.45,-191.75 364.7,-181.39 356.48,-188.08 362.45,-191.75"/>
</g>
<!-- convertabletorational -->
<g id="node9" class="node">
<title>convertabletorational</title>
<g id="a_node9"><a xlink:href="PsyllaReference_Types.xhtml#PsyllaReference_Types_Details_convertabletorational" xlink:title="convertabletorational" target="_parent">
<polygon fill="linen" stroke="black" points="471.98,-324 360.02,-324 360.02,-288 477.98,-288 477.98,-318 471.98,-324"/>
<polyline fill="none" stroke="black" points="471.98,-324 471.98,-318"/>
<polyline fill="none" stroke="black" points="477.98,-318 471.98,-318"/>
<text xml:space="preserve" text-anchor="middle" x="419" y="-302.4" font-family="Source Code Pro,monospace" font-size="12.00">convertabletorational</text>
</a>
</g>
</g>
<!-- convertabletorational&#45;&gt;textual -->
<g id="edge8" class="edge">
<title>convertabletorational&#45;&gt;textual</title>
<path fill="none" stroke="black" d="M416.75,-287.62C414.11,-269.44 409.04,-240.24 401,-216 398.18,-207.5 394.35,-198.58 390.53,-190.54"/>
<polygon fill="black" stroke="black" points="393.67,-189 386.1,-181.59 387.4,-192.1 393.67,-189"/>
</g>
<!-- iterable -->
<g id="node10" class="node">
<title>iterable</title>
<g id="a_node10"><a xlink:href="PsyllaReference_Types.xhtml#PsyllaReference_Types_Details_iterable" xlink:title="iterable" target="_parent">
<polygon fill="linen" stroke="black" points="623,-252 575,-252 575,-216 629,-216 629,-246 623,-252"/>
<polyline fill="none" stroke="black" points="623,-252 623,-246"/>
<polyline fill="none" stroke="black" points="629,-246 623,-246"/>
<text xml:space="preserve" text-anchor="middle" x="602" y="-230.4" font-family="Source Code Pro,monospace" font-size="12.00">iterable</text>
</a>
</g>
</g>
<!-- iterable&#45;&gt;textual -->
<g id="edge9" class="edge">
<title>iterable&#45;&gt;textual</title>
<path fill="none" stroke="black" d="M574.67,-222.03C569.18,-219.94 563.43,-217.84 558,-216 508.84,-199.38 451.19,-183.12 414.16,-173.09"/>
<polygon fill="black" stroke="black" points="415.39,-169.8 404.82,-170.58 413.57,-176.56 415.39,-169.8"/>
</g>
<!-- lengthy -->
<g id="node11" class="node">
<title>lengthy</title>
<g id="a_node11"><a xlink:href="PsyllaReference_Types.xhtml#PsyllaReference_Types_Details_lengthy" xlink:title="lengthy" target="_parent">
<polygon fill="linen" stroke="black" points="470,-396 422,-396 422,-360 476,-360 476,-390 470,-396"/>
<polyline fill="none" stroke="black" points="470,-396 470,-390"/>
<polyline fill="none" stroke="black" points="476,-390 470,-390"/>
<text xml:space="preserve" text-anchor="middle" x="449" y="-374.4" font-family="Source Code Pro,monospace" font-size="12.00">lengthy</text>
</a>
</g>
</g>
<!-- lengthy&#45;&gt;textual -->
<g id="edge10" class="edge">
<title>lengthy&#45;&gt;textual</title>
<path fill="none" stroke="black" d="M465.46,-359.92C473.65,-350.22 482.7,-337.37 487,-324 491.9,-308.77 492.68,-302.96 487,-288 471.26,-246.56 434.79,-210.08 407.93,-187.38"/>
<polygon fill="black" stroke="black" points="410.35,-184.84 400.4,-181.19 405.9,-190.24 410.35,-184.84"/>
</g>
<!-- scalar -->
<g id="node12" class="node">
<title>scalar</title>
<g id="a_node12"><a xlink:href="PsyllaReference_Types.xhtml#PsyllaReference_Types_Details_scalar" xlink:title="scalar" target="_parent">
<polygon fill="linen" stroke="black" points="546,-396 498,-396 498,-360 552,-360 552,-390 546,-396"/>
<polyline fill="none" stroke="black" points="546,-396 546,-390"/>
<polyline fill="none" stroke="black" points="552,-390 546,-390"/>
<text xml:space="preserve" text-anchor="middle" x="525" y="-374.4" font-family="Source Code Pro,monospace" font-size="12.00">scalar</text>
</a>
</g>
</g>
<!-- scalar&#45;&gt;textual -->
<g id="edge11" class="edge">
<title>scalar&#45;&gt;textual</title>
<path fill="none" stroke="black" d="M523.26,-359.64C519.14,-327.36 506.03,-257.6 467,-216 452.22,-200.25 431.7,-187.75 413.89,-178.85"/>
<polygon fill="black" stroke="black" points="415.4,-175.69 404.86,-174.56 412.39,-182.01 415.4,-175.69"/>
</g>
<!-- object -->
<g id="node13" class="node">
<title>object</title>
<g id="a_node13"><a xlink:href="PsyllaReference_Types.xhtml#PsyllaReference_Types_Details_object" xlink:title="object" target="_parent">
<polygon fill="linen" stroke="black" points="353,-468 305,-468 305,-432 359,-432 359,-462 353,-468"/>
<polyline fill="none" stroke="black" points="353,-468 353,-462"/>
<polyline fill="none" stroke="black" points="359,-462 353,-462"/>
<text xml:space="preserve" text-anchor="middle" x="332" y="-446.4" font-family="Source Code Pro,monospace" font-size="12.00">object</text>
</a>
</g>
</g>
<!-- object&#45;&gt;value -->
<g id="edge12" class="edge">
<title>object&#45;&gt;value</title>
<path fill="none" stroke="black" d="M304.95,-447.16C244.67,-442.51 101.98,-428.28 68,-396 31.74,-361.55 25.79,-299.91 25.73,-263.71"/>
<polygon fill="black" stroke="black" points="29.22,-264.05 25.87,-254 22.22,-263.95 29.22,-264.05"/>
</g>
<!-- object&#45;&gt;concatenable -->
<g id="edge13" class="edge">
<title>object&#45;&gt;concatenable</title>
<path fill="none" stroke="black" d="M304.79,-443.93C253.64,-432.74 144.37,-400.58 101,-324 77.57,-282.62 82.16,-225.22 87.9,-191.31"/>
<polygon fill="black" stroke="black" points="91.27,-192.32 89.66,-181.85 84.39,-191.04 91.27,-192.32"/>
</g>
<!-- object&#45;&gt;evaluable -->
<g id="edge14" class="edge">
<title>object&#45;&gt;evaluable</title>
<path fill="none" stroke="black" d="M308.58,-431.59C274.69,-406.4 211.86,-359.68 173.5,-331.17"/>
<polygon fill="black" stroke="black" points="175.64,-328.39 165.53,-325.24 171.46,-334.01 175.64,-328.39"/>
</g>
<!-- object&#45;&gt;convertabletointeger -->
<g id="edge15" class="edge">
<title>object&#45;&gt;convertabletointeger</title>
<path fill="none" stroke="black" d="M321.58,-431.59C306.97,-407.18 280.27,-362.58 263.1,-333.89"/>
<polygon fill="black" stroke="black" points="266.16,-332.19 258.02,-325.41 260.15,-335.79 266.16,-332.19"/>
</g>
<!-- object&#45;&gt;convertabletointegral -->
<g id="edge16" class="edge">
<title>object&#45;&gt;convertabletointegral</title>
<path fill="none" stroke="black" d="M332.08,-431.85C332.25,-395.14 332.66,-308.66 332.87,-263.53"/>
<polygon fill="black" stroke="black" points="336.37,-263.76 332.91,-253.75 329.37,-263.73 336.37,-263.76"/>
</g>
<!-- object&#45;&gt;convertabletorational -->
<g id="edge17" class="edge">
<title>object&#45;&gt;convertabletorational</title>
<path fill="none" stroke="black" d="M342.67,-431.59C357.62,-407.18 384.95,-362.58 402.52,-333.89"/>
<polygon fill="black" stroke="black" points="405.49,-335.76 407.73,-325.4 399.52,-332.1 405.49,-335.76"/>
</g>
<!-- object&#45;&gt;lengthy -->
<g id="edge19" class="edge">
<title>object&#45;&gt;lengthy</title>
<path fill="none" stroke="black" d="M359.43,-432.59C375.13,-423.2 395.03,-411.29 412.08,-401.09"/>
<polygon fill="black" stroke="black" points="413.66,-404.22 420.44,-396.09 410.06,-398.22 413.66,-404.22"/>
</g>
<!-- object&#45;&gt;scalar -->
<g id="edge20" class="edge">
<title>object&#45;&gt;scalar</title>
<path fill="none" stroke="black" d="M359.29,-440.17C390.05,-430.08 441.45,-412.77 485,-396 485.64,-395.75 486.28,-395.5 486.93,-395.25"/>
<polygon fill="black" stroke="black" points="488.2,-398.51 496.16,-391.52 485.57,-392.02 488.2,-398.51"/>
</g>
<!-- sequential -->
<g id="node15" class="node">
<title>sequential</title>
<g id="a_node15"><a xlink:href="PsyllaReference_Types.xhtml#PsyllaReference_Types_Details_sequential" xlink:title="sequential" target="_parent">
<polygon fill="linen" stroke="black" points="630.33,-396 571.67,-396 571.67,-360 636.33,-360 636.33,-390 630.33,-396"/>
<polyline fill="none" stroke="black" points="630.33,-396 630.33,-390"/>
<polyline fill="none" stroke="black" points="636.33,-390 630.33,-390"/>
<text xml:space="preserve" text-anchor="middle" x="604" y="-374.4" font-family="Source Code Pro,monospace" font-size="12.00">sequential</text>
</a>
</g>
</g>
<!-- object&#45;&gt;sequential -->
<g id="edge22" class="edge">
<title>object&#45;&gt;sequential</title>
<path fill="none" stroke="black" d="M359.49,-444.01C400.98,-436.2 482.14,-419.76 560.74,-395.78"/>
<polygon fill="black" stroke="black" points="561.35,-399.26 569.87,-392.95 559.28,-392.57 561.35,-399.26"/>
</g>
<!-- streamable -->
<g id="node14" class="node">
<title>streamable</title>
<g id="a_node14"><a xlink:href="PsyllaReference_Types.xhtml#PsyllaReference_Types_Details_streamable" xlink:title="streamable" target="_parent">
<polygon fill="linen" stroke="black" points="633.99,-324 572.01,-324 572.01,-288 639.99,-288 639.99,-318 633.99,-324"/>
<polyline fill="none" stroke="black" points="633.99,-324 633.99,-318"/>
<polyline fill="none" stroke="black" points="639.99,-318 633.99,-318"/>
<text xml:space="preserve" text-anchor="middle" x="606" y="-302.4" font-family="Source Code Pro,monospace" font-size="12.00">streamable</text>
</a>
</g>
</g>
<!-- streamable&#45;&gt;iterable -->
<g id="edge18" class="edge">
<title>streamable&#45;&gt;iterable</title>
<path fill="none" stroke="black" d="M605.01,-287.7C604.59,-280.41 604.1,-271.73 603.63,-263.54"/>
<polygon fill="black" stroke="black" points="607.13,-263.4 603.06,-253.62 600.14,-263.8 607.13,-263.4"/>
</g>
<!-- sequential&#45;&gt;streamable -->
<g id="edge21" class="edge">
<title>sequential&#45;&gt;streamable</title>
<path fill="none" stroke="black" d="M604.49,-359.7C604.7,-352.41 604.95,-343.73 605.18,-335.54"/>
<polygon fill="black" stroke="black" points="608.68,-335.71 605.47,-325.62 601.68,-335.51 608.68,-335.71"/>
</g>
</g>
</svg>
