<?xml version="1.0" encoding="UTF-8" standalone="no"?>
<!DOCTYPE svg PUBLIC "-//W3C//DTD SVG 1.1//EN"
 "http://www.w3.org/Graphics/SVG/1.1/DTD/svg11.dtd">
<!-- Generated by graphviz version 2.43.0 (0)
 -->
<!-- Title: integral Pages: 1 -->
<svg width="306pt" height="404pt"
 viewBox="0.00 0.00 305.50 404.00" xmlns="http://www.w3.org/2000/svg" xmlns:xlink="http://www.w3.org/1999/xlink">
<g id="graph0" class="graph" transform="scale(1 1) rotate(0) translate(4 400)">
<title>integral</title>
<polygon fill="transparent" stroke="transparent" points="-4,4 -4,-400 301.5,-400 301.5,4 -4,4"/>
<!-- bitwise -->
<g id="node1" class="node">
<title>bitwise</title>
<g id="a_node1"><a xlink:href="PsyllaReference_Types.xhtml#PsyllaReference_Types_Details_bitwise" xlink:title="bitwise" target="_parent">
<polygon fill="linen" stroke="black" points="63,-108 0,-108 0,-72 69,-72 69,-102 63,-108"/>
<polyline fill="none" stroke="black" points="63,-108 63,-102 "/>
<polyline fill="none" stroke="black" points="69,-102 63,-102 "/>
<text text-anchor="middle" x="34.5" y="-86.9" font-family="PT Mono, monospace" font-size="12.00">bitwise</text>
</a>
</g>
</g>
<!-- integral -->
<g id="node3" class="node">
<title>integral</title>
<g id="a_node3"><a xlink:href="PsyllaReference_Types.xhtml#PsyllaReference_Types_Details_integral" xlink:title="integral" target="_parent">
<polygon fill="wheat" stroke="black" points="118,-36 47,-36 47,0 124,0 124,-30 118,-36"/>
<polyline fill="none" stroke="black" points="118,-36 118,-30 "/>
<polyline fill="none" stroke="black" points="124,-30 118,-30 "/>
<text text-anchor="middle" x="85.5" y="-14.9" font-family="PT Mono, monospace" font-size="12.00">integral</text>
</a>
</g>
</g>
<!-- bitwise&#45;&gt;integral -->
<g id="edge1" class="edge">
<title>bitwise&#45;&gt;integral</title>
<path fill="none" stroke="black" d="M47.11,-71.7C53.1,-63.47 60.38,-53.48 66.98,-44.42"/>
<polygon fill="black" stroke="black" points="69.98,-46.25 73.04,-36.1 64.32,-42.13 69.98,-46.25"/>
</g>
<!-- realnumeric -->
<g id="node2" class="node">
<title>realnumeric</title>
<g id="a_node2"><a xlink:href="PsyllaReference_Types.xhtml#PsyllaReference_Types_Details_realnumeric" xlink:title="realnumeric" target="_parent">
<polygon fill="linen" stroke="black" points="180,-108 87,-108 87,-72 186,-72 186,-102 180,-108"/>
<polyline fill="none" stroke="black" points="180,-108 180,-102 "/>
<polyline fill="none" stroke="black" points="186,-102 180,-102 "/>
<text text-anchor="middle" x="136.5" y="-86.9" font-family="PT Mono, monospace" font-size="12.00">realnumeric</text>
</a>
</g>
</g>
<!-- realnumeric&#45;&gt;integral -->
<g id="edge2" class="edge">
<title>realnumeric&#45;&gt;integral</title>
<path fill="none" stroke="black" d="M123.89,-71.7C117.9,-63.47 110.62,-53.48 104.02,-44.42"/>
<polygon fill="black" stroke="black" points="106.68,-42.13 97.96,-36.1 101.02,-46.25 106.68,-42.13"/>
</g>
<!-- logical -->
<g id="node4" class="node">
<title>logical</title>
<g id="a_node4"><a xlink:href="PsyllaReference_Types.xhtml#PsyllaReference_Types_Details_logical" xlink:title="logical" target="_parent">
<polygon fill="linen" stroke="black" points="63,-324 0,-324 0,-288 69,-288 69,-318 63,-324"/>
<polyline fill="none" stroke="black" points="63,-324 63,-318 "/>
<polyline fill="none" stroke="black" points="69,-318 63,-318 "/>
<text text-anchor="middle" x="34.5" y="-302.9" font-family="PT Mono, monospace" font-size="12.00">logical</text>
</a>
</g>
</g>
<!-- logical&#45;&gt;bitwise -->
<g id="edge3" class="edge">
<title>logical&#45;&gt;bitwise</title>
<path fill="none" stroke="black" d="M34.5,-287.85C34.5,-250.83 34.5,-163.18 34.5,-118.39"/>
<polygon fill="black" stroke="black" points="38,-118.23 34.5,-108.23 31,-118.23 38,-118.23"/>
</g>
<!-- numeric -->
<g id="node5" class="node">
<title>numeric</title>
<g id="a_node5"><a xlink:href="PsyllaReference_Types.xhtml#PsyllaReference_Types_Details_numeric" xlink:title="numeric" target="_parent">
<polygon fill="linen" stroke="black" points="210,-180 147,-180 147,-144 216,-144 216,-174 210,-180"/>
<polyline fill="none" stroke="black" points="210,-180 210,-174 "/>
<polyline fill="none" stroke="black" points="216,-174 210,-174 "/>
<text text-anchor="middle" x="181.5" y="-158.9" font-family="PT Mono, monospace" font-size="12.00">numeric</text>
</a>
</g>
</g>
<!-- numeric&#45;&gt;realnumeric -->
<g id="edge4" class="edge">
<title>numeric&#45;&gt;realnumeric</title>
<path fill="none" stroke="black" d="M170.38,-143.7C165.14,-135.56 158.8,-125.69 153.02,-116.7"/>
<polygon fill="black" stroke="black" points="155.85,-114.62 147.5,-108.1 149.96,-118.41 155.85,-114.62"/>
</g>
<!-- scalar -->
<g id="node6" class="node">
<title>scalar</title>
<g id="a_node6"><a xlink:href="PsyllaReference_Types.xhtml#PsyllaReference_Types_Details_scalar" xlink:title="scalar" target="_parent">
<polygon fill="linen" stroke="black" points="122.5,-180 66.5,-180 66.5,-144 128.5,-144 128.5,-174 122.5,-180"/>
<polyline fill="none" stroke="black" points="122.5,-180 122.5,-174 "/>
<polyline fill="none" stroke="black" points="128.5,-174 122.5,-174 "/>
<text text-anchor="middle" x="97.5" y="-158.9" font-family="PT Mono, monospace" font-size="12.00">scalar</text>
</a>
</g>
</g>
<!-- scalar&#45;&gt;realnumeric -->
<g id="edge5" class="edge">
<title>scalar&#45;&gt;realnumeric</title>
<path fill="none" stroke="black" d="M107.14,-143.7C111.63,-135.64 117.06,-125.89 122.02,-116.98"/>
<polygon fill="black" stroke="black" points="125.16,-118.54 126.97,-108.1 119.05,-115.14 125.16,-118.54"/>
</g>
<!-- object -->
<g id="node7" class="node">
<title>object</title>
<g id="a_node7"><a xlink:href="PsyllaReference_Types.xhtml#PsyllaReference_Types_Details_object" xlink:title="object" target="_parent">
<polygon fill="linen" stroke="black" points="151.5,-396 95.5,-396 95.5,-360 157.5,-360 157.5,-390 151.5,-396"/>
<polyline fill="none" stroke="black" points="151.5,-396 151.5,-390 "/>
<polyline fill="none" stroke="black" points="157.5,-390 151.5,-390 "/>
<text text-anchor="middle" x="126.5" y="-374.9" font-family="PT Mono, monospace" font-size="12.00">object</text>
</a>
</g>
</g>
<!-- object&#45;&gt;logical -->
<g id="edge6" class="edge">
<title>object&#45;&gt;logical</title>
<path fill="none" stroke="black" d="M103.76,-359.7C92.06,-350.8 77.64,-339.82 64.99,-330.2"/>
<polygon fill="black" stroke="black" points="67.06,-327.37 56.98,-324.1 62.82,-332.94 67.06,-327.37"/>
</g>
<!-- object&#45;&gt;scalar -->
<g id="edge9" class="edge">
<title>object&#45;&gt;scalar</title>
<path fill="none" stroke="black" d="M124.18,-359.85C119.16,-322.83 107.28,-235.18 101.21,-190.39"/>
<polygon fill="black" stroke="black" points="104.65,-189.67 99.84,-180.23 97.71,-190.61 104.65,-189.67"/>
</g>
<!-- atomic -->
<g id="node8" class="node">
<title>atomic</title>
<g id="a_node8"><a xlink:href="PsyllaReference_Types.xhtml#PsyllaReference_Types_Details_atomic" xlink:title="atomic" target="_parent">
<polygon fill="linen" stroke="black" points="181.5,-252 125.5,-252 125.5,-216 187.5,-216 187.5,-246 181.5,-252"/>
<polyline fill="none" stroke="black" points="181.5,-252 181.5,-246 "/>
<polyline fill="none" stroke="black" points="187.5,-246 181.5,-246 "/>
<text text-anchor="middle" x="156.5" y="-230.9" font-family="PT Mono, monospace" font-size="12.00">atomic</text>
</a>
</g>
</g>
<!-- object&#45;&gt;atomic -->
<g id="edge10" class="edge">
<title>object&#45;&gt;atomic</title>
<path fill="none" stroke="black" d="M130.12,-359.87C135.25,-335.56 144.71,-290.82 150.79,-262.01"/>
<polygon fill="black" stroke="black" points="154.23,-262.7 152.87,-252.19 147.38,-261.25 154.23,-262.7"/>
</g>
<!-- additive -->
<g id="node10" class="node">
<title>additive</title>
<g id="a_node10"><a xlink:href="PsyllaReference_Types.xhtml#PsyllaReference_Types_Details_additive" xlink:title="additive" target="_parent">
<polygon fill="linen" stroke="black" points="260,-324 189,-324 189,-288 266,-288 266,-318 260,-324"/>
<polyline fill="none" stroke="black" points="260,-324 260,-318 "/>
<polyline fill="none" stroke="black" points="266,-318 260,-318 "/>
<text text-anchor="middle" x="227.5" y="-302.9" font-family="PT Mono, monospace" font-size="12.00">additive</text>
</a>
</g>
</g>
<!-- object&#45;&gt;additive -->
<g id="edge12" class="edge">
<title>object&#45;&gt;additive</title>
<path fill="none" stroke="black" d="M151.21,-359.88C164.17,-350.89 180.23,-339.76 194.27,-330.03"/>
<polygon fill="black" stroke="black" points="196.47,-332.76 202.7,-324.19 192.48,-327.01 196.47,-332.76"/>
</g>
<!-- atomic&#45;&gt;numeric -->
<g id="edge7" class="edge">
<title>atomic&#45;&gt;numeric</title>
<path fill="none" stroke="black" d="M162.68,-215.7C165.5,-207.81 168.89,-198.3 172.02,-189.55"/>
<polygon fill="black" stroke="black" points="175.32,-190.7 175.39,-180.1 168.73,-188.34 175.32,-190.7"/>
</g>
<!-- arithmetic -->
<g id="node9" class="node">
<title>arithmetic</title>
<g id="a_node9"><a xlink:href="PsyllaReference_Types.xhtml#PsyllaReference_Types_Details_arithmetic" xlink:title="arithmetic" target="_parent">
<polygon fill="linen" stroke="black" points="291.5,-252 205.5,-252 205.5,-216 297.5,-216 297.5,-246 291.5,-252"/>
<polyline fill="none" stroke="black" points="291.5,-252 291.5,-246 "/>
<polyline fill="none" stroke="black" points="297.5,-246 291.5,-246 "/>
<text text-anchor="middle" x="251.5" y="-230.9" font-family="PT Mono, monospace" font-size="12.00">arithmetic</text>
</a>
</g>
</g>
<!-- arithmetic&#45;&gt;numeric -->
<g id="edge8" class="edge">
<title>arithmetic&#45;&gt;numeric</title>
<path fill="none" stroke="black" d="M234.2,-215.7C225.64,-207.14 215.16,-196.66 205.8,-187.3"/>
<polygon fill="black" stroke="black" points="208.15,-184.7 198.6,-180.1 203.2,-189.65 208.15,-184.7"/>
</g>
<!-- additive&#45;&gt;arithmetic -->
<g id="edge11" class="edge">
<title>additive&#45;&gt;arithmetic</title>
<path fill="none" stroke="black" d="M233.43,-287.7C236.11,-279.9 239.33,-270.51 242.3,-261.83"/>
<polygon fill="black" stroke="black" points="245.7,-262.7 245.64,-252.1 239.08,-260.43 245.7,-262.7"/>
</g>
</g>
</svg>
