<?xml version="1.0" encoding="UTF-8" standalone="no"?>
<!DOCTYPE svg PUBLIC "-//W3C//DTD SVG 1.1//EN"
 "http://www.w3.org/Graphics/SVG/1.1/DTD/svg11.dtd">
<!-- Generated by graphviz version 2.43.0 (0)
 -->
<!-- Title: writable Pages: 1 -->
<svg width="121pt" height="116pt"
 viewBox="0.00 0.00 121.00 116.00" xmlns="http://www.w3.org/2000/svg" xmlns:xlink="http://www.w3.org/1999/xlink">
<g id="graph0" class="graph" transform="scale(1 1) rotate(0) translate(4 112)">
<title>writable</title>
<polygon fill="transparent" stroke="transparent" points="-4,4 -4,-112 117,-112 117,4 -4,4"/>
<!-- object -->
<g id="node1" class="node">
<title>object</title>
<g id="a_node1"><a xlink:href="PsyllaReference_Types.xhtml#PsyllaReference_Types_Details_object" xlink:title="object" target="_parent">
<polygon fill="linen" stroke="black" points="95,-108 12,-108 12,-72 101,-72 101,-102 95,-108"/>
<polyline fill="none" stroke="black" points="95,-108 95,-102 "/>
<polyline fill="none" stroke="black" points="101,-102 95,-102 "/>
<text text-anchor="middle" x="56.5" y="-85" font-family="PT Mono, monospace" font-size="20.00">object</text>
</a>
</g>
</g>
<!-- writable -->
<g id="node2" class="node">
<title>writable</title>
<g id="a_node2"><a xlink:href="PsyllaReference_Types.xhtml#PsyllaReference_Types_Details_writable" xlink:title="writable" target="_parent">
<polygon fill="wheat" stroke="black" points="107,-36 0,-36 0,0 113,0 113,-30 107,-36"/>
<polyline fill="none" stroke="black" points="107,-36 107,-30 "/>
<polyline fill="none" stroke="black" points="113,-30 107,-30 "/>
<text text-anchor="middle" x="56.5" y="-13" font-family="PT Mono, monospace" font-size="20.00">writable</text>
</a>
</g>
</g>
<!-- object&#45;&gt;writable -->
<g id="edge1" class="edge">
<title>object&#45;&gt;writable</title>
<path fill="none" stroke="black" d="M56.5,-71.7C56.5,-63.98 56.5,-54.71 56.5,-46.11"/>
<polygon fill="black" stroke="black" points="60,-46.1 56.5,-36.1 53,-46.1 60,-46.1"/>
</g>
</g>
</svg>
