<?xml version="1.0" encoding="UTF-8" standalone="no"?>
<!DOCTYPE svg PUBLIC "-//W3C//DTD SVG 1.1//EN"
 "http://www.w3.org/Graphics/SVG/1.1/DTD/svg11.dtd">
<!-- Generated by graphviz version 2.43.0 (0)
 -->
<!-- Title: convertabletointeger Pages: 1 -->
<svg width="175pt" height="116pt"
 viewBox="0.00 0.00 175.00 116.00" xmlns="http://www.w3.org/2000/svg" xmlns:xlink="http://www.w3.org/1999/xlink">
<g id="graph0" class="graph" transform="scale(1 1) rotate(0) translate(4 112)">
<title>convertabletointeger</title>
<polygon fill="transparent" stroke="transparent" points="-4,4 -4,-112 171,-112 171,4 -4,4"/>
<!-- object -->
<g id="node1" class="node">
<title>object</title>
<g id="a_node1"><a xlink:href="PsyllaReference_Types.xhtml#PsyllaReference_Types_Details_object" xlink:title="object" target="_parent">
<polygon fill="linen" stroke="black" points="108.5,-108 52.5,-108 52.5,-72 114.5,-72 114.5,-102 108.5,-108"/>
<polyline fill="none" stroke="black" points="108.5,-108 108.5,-102 "/>
<polyline fill="none" stroke="black" points="114.5,-102 108.5,-102 "/>
<text text-anchor="middle" x="83.5" y="-86.9" font-family="Source Code Pro,monospace" font-size="12.00">object</text>
</a>
</g>
</g>
<!-- convertabletointeger -->
<g id="node2" class="node">
<title>convertabletointeger</title>
<g id="a_node2"><a xlink:href="PsyllaReference_Types.xhtml#PsyllaReference_Types_Details_convertabletointeger" xlink:title="convertabletointeger" target="_parent">
<polygon fill="wheat" stroke="black" points="161,-36 0,-36 0,0 167,0 167,-30 161,-36"/>
<polyline fill="none" stroke="black" points="161,-36 161,-30 "/>
<polyline fill="none" stroke="black" points="167,-30 161,-30 "/>
<text text-anchor="middle" x="83.5" y="-14.9" font-family="Source Code Pro,monospace" font-size="12.00">convertabletointeger</text>
</a>
</g>
</g>
<!-- object&#45;&gt;convertabletointeger -->
<g id="edge1" class="edge">
<title>object&#45;&gt;convertabletointeger</title>
<path fill="none" stroke="black" d="M83.5,-71.7C83.5,-63.98 83.5,-54.71 83.5,-46.11"/>
<polygon fill="black" stroke="black" points="87,-46.1 83.5,-36.1 80,-46.1 87,-46.1"/>
</g>
</g>
</svg>
