<?xml version="1.0" encoding="UTF-8" standalone="no"?>
<!DOCTYPE svg PUBLIC "-//W3C//DTD SVG 1.1//EN"
 "http://www.w3.org/Graphics/SVG/1.1/DTD/svg11.dtd">
<!-- Generated by graphviz version 2.43.0 (0)
 -->
<!-- Title: appendable Pages: 1 -->
<svg width="85pt" height="116pt"
 viewBox="0.00 0.00 85.00 116.00" xmlns="http://www.w3.org/2000/svg" xmlns:xlink="http://www.w3.org/1999/xlink">
<g id="graph0" class="graph" transform="scale(1 1) rotate(0) translate(4 112)">
<title>appendable</title>
<polygon fill="transparent" stroke="transparent" points="-4,4 -4,-112 81,-112 81,4 -4,4"/>
<!-- object -->
<g id="node1" class="node">
<title>object</title>
<g id="a_node1"><a xlink:href="PsyllaReference_Types.xhtml#PsyllaReference_Types_Details_object" xlink:title="object" target="_parent">
<polygon fill="linen" stroke="black" points="59.5,-108 11.5,-108 11.5,-72 65.5,-72 65.5,-102 59.5,-108"/>
<polyline fill="none" stroke="black" points="59.5,-108 59.5,-102 "/>
<polyline fill="none" stroke="black" points="65.5,-102 59.5,-102 "/>
<text text-anchor="middle" x="38.5" y="-87.5" font-family="PT Mono, monospace" font-size="10.00">object</text>
</a>
</g>
</g>
<!-- appendable -->
<g id="node2" class="node">
<title>appendable</title>
<g id="a_node2"><a xlink:href="PsyllaReference_Types.xhtml#PsyllaReference_Types_Details_appendable" xlink:title="appendable" target="_parent">
<polygon fill="wheat" stroke="black" points="71,-36 0,-36 0,0 77,0 77,-30 71,-36"/>
<polyline fill="none" stroke="black" points="71,-36 71,-30 "/>
<polyline fill="none" stroke="black" points="77,-30 71,-30 "/>
<text text-anchor="middle" x="38.5" y="-15.5" font-family="PT Mono, monospace" font-size="10.00">appendable</text>
</a>
</g>
</g>
<!-- object&#45;&gt;appendable -->
<g id="edge1" class="edge">
<title>object&#45;&gt;appendable</title>
<path fill="none" stroke="black" d="M38.5,-71.7C38.5,-63.98 38.5,-54.71 38.5,-46.11"/>
<polygon fill="black" stroke="black" points="42,-46.1 38.5,-36.1 35,-46.1 42,-46.1"/>
</g>
</g>
</svg>
