<?xml version="1.0" encoding="UTF-8" standalone="no"?>
<!DOCTYPE svg PUBLIC "-//W3C//DTD SVG 1.1//EN"
 "http://www.w3.org/Graphics/SVG/1.1/DTD/svg11.dtd">
<!-- Generated by graphviz version 2.43.0 (0)
 -->
<!-- Title: formalarray Pages: 1 -->
<svg width="456pt" height="404pt"
 viewBox="0.00 0.00 455.50 404.00" xmlns="http://www.w3.org/2000/svg" xmlns:xlink="http://www.w3.org/1999/xlink">
<g id="graph0" class="graph" transform="scale(1 1) rotate(0) translate(4 400)">
<title>formalarray</title>
<polygon fill="transparent" stroke="transparent" points="-4,4 -4,-400 451.5,-400 451.5,4 -4,4"/>
<!-- appendable -->
<g id="node1" class="node">
<title>appendable</title>
<g id="a_node1"><a xlink:href="PsyllaReference_Types.xhtml#PsyllaReference_Types_Details_appendable" xlink:title="appendable" target="_parent">
<polygon fill="linen" stroke="black" points="93,-252 0,-252 0,-216 99,-216 99,-246 93,-252"/>
<polyline fill="none" stroke="black" points="93,-252 93,-246 "/>
<polyline fill="none" stroke="black" points="99,-246 93,-246 "/>
<text text-anchor="middle" x="49.5" y="-230.3" font-family="Consolas, monospace" font-size="14.00">appendable</text>
</a>
</g>
</g>
<!-- formalarray -->
<g id="node5" class="node">
<title>formalarray</title>
<g id="a_node5"><a xlink:href="PsyllaReference_Types.xhtml#PsyllaReference_Types_Details_formalarray" xlink:title="formalarray" target="_parent">
<polygon fill="wheat" stroke="black" points="190,-36 89,-36 89,0 196,0 196,-30 190,-36"/>
<polyline fill="none" stroke="black" points="190,-36 190,-30 "/>
<polyline fill="none" stroke="black" points="196,-30 190,-30 "/>
<text text-anchor="middle" x="142.5" y="-14.3" font-family="Consolas, monospace" font-size="14.00">formalarray</text>
</a>
</g>
</g>
<!-- appendable&#45;&gt;formalarray -->
<g id="edge1" class="edge">
<title>appendable&#45;&gt;formalarray</title>
<path fill="none" stroke="black" d="M46.57,-215.57C42.25,-184.37 37.38,-117.93 64.5,-72 71.8,-59.64 83.26,-49.52 95.16,-41.57"/>
<polygon fill="black" stroke="black" points="97.22,-44.41 103.86,-36.16 93.52,-38.47 97.22,-44.41"/>
</g>
<!-- container -->
<g id="node2" class="node">
<title>container</title>
<g id="a_node2"><a xlink:href="PsyllaReference_Types.xhtml#PsyllaReference_Types_Details_container" xlink:title="container" target="_parent">
<polygon fill="linen" stroke="black" points="339,-108 254,-108 254,-72 345,-72 345,-102 339,-108"/>
<polyline fill="none" stroke="black" points="339,-108 339,-102 "/>
<polyline fill="none" stroke="black" points="345,-102 339,-102 "/>
<text text-anchor="middle" x="299.5" y="-86.3" font-family="Consolas, monospace" font-size="14.00">container</text>
</a>
</g>
</g>
<!-- container&#45;&gt;formalarray -->
<g id="edge2" class="edge">
<title>container&#45;&gt;formalarray</title>
<path fill="none" stroke="black" d="M261.09,-71.88C239.63,-62.31 212.7,-50.3 189.93,-40.15"/>
<polygon fill="black" stroke="black" points="191.34,-36.94 180.78,-36.07 188.49,-43.34 191.34,-36.94"/>
</g>
<!-- indexed -->
<g id="node3" class="node">
<title>indexed</title>
<g id="a_node3"><a xlink:href="PsyllaReference_Types.xhtml#PsyllaReference_Types_Details_indexed" xlink:title="indexed" target="_parent">
<polygon fill="linen" stroke="black" points="141.5,-108 73.5,-108 73.5,-72 147.5,-72 147.5,-102 141.5,-108"/>
<polyline fill="none" stroke="black" points="141.5,-108 141.5,-102 "/>
<polyline fill="none" stroke="black" points="147.5,-102 141.5,-102 "/>
<text text-anchor="middle" x="110.5" y="-86.3" font-family="Consolas, monospace" font-size="14.00">indexed</text>
</a>
</g>
</g>
<!-- indexed&#45;&gt;formalarray -->
<g id="edge3" class="edge">
<title>indexed&#45;&gt;formalarray</title>
<path fill="none" stroke="black" d="M118.41,-71.7C122.05,-63.73 126.45,-54.1 130.49,-45.26"/>
<polygon fill="black" stroke="black" points="133.71,-46.65 134.68,-36.1 127.34,-43.74 133.71,-46.65"/>
</g>
<!-- sequential -->
<g id="node4" class="node">
<title>sequential</title>
<g id="a_node4"><a xlink:href="PsyllaReference_Types.xhtml#PsyllaReference_Types_Details_sequential" xlink:title="sequential" target="_parent">
<polygon fill="linen" stroke="black" points="275,-324 182,-324 182,-288 281,-288 281,-318 275,-324"/>
<polyline fill="none" stroke="black" points="275,-324 275,-318 "/>
<polyline fill="none" stroke="black" points="281,-318 275,-318 "/>
<text text-anchor="middle" x="231.5" y="-302.3" font-family="Consolas, monospace" font-size="14.00">sequential</text>
</a>
</g>
</g>
<!-- sequential&#45;&gt;formalarray -->
<g id="edge4" class="edge">
<title>sequential&#45;&gt;formalarray</title>
<path fill="none" stroke="black" d="M216.91,-287.92C209.17,-278.02 200.12,-264.97 194.5,-252 162,-176.97 175.39,-151.55 156.5,-72 154.49,-63.54 152.13,-54.36 149.93,-46.06"/>
<polygon fill="black" stroke="black" points="153.23,-44.88 147.26,-36.13 146.47,-46.7 153.23,-44.88"/>
</g>
<!-- streamable -->
<g id="node10" class="node">
<title>streamable</title>
<g id="a_node10"><a xlink:href="PsyllaReference_Types.xhtml#PsyllaReference_Types_Details_streamable" xlink:title="streamable" target="_parent">
<polygon fill="linen" stroke="black" points="297,-252 204,-252 204,-216 303,-216 303,-246 297,-252"/>
<polyline fill="none" stroke="black" points="297,-252 297,-246 "/>
<polyline fill="none" stroke="black" points="303,-246 297,-246 "/>
<text text-anchor="middle" x="253.5" y="-230.3" font-family="Consolas, monospace" font-size="14.00">streamable</text>
</a>
</g>
</g>
<!-- sequential&#45;&gt;streamable -->
<g id="edge14" class="edge">
<title>sequential&#45;&gt;streamable</title>
<path fill="none" stroke="black" d="M236.94,-287.7C239.39,-279.9 242.34,-270.51 245.07,-261.83"/>
<polygon fill="black" stroke="black" points="248.46,-262.69 248.12,-252.1 241.79,-260.59 248.46,-262.69"/>
</g>
<!-- object -->
<g id="node6" class="node">
<title>object</title>
<g id="a_node6"><a xlink:href="PsyllaReference_Types.xhtml#PsyllaReference_Types_Details_object" xlink:title="object" target="_parent">
<polygon fill="linen" stroke="black" points="258.5,-396 198.5,-396 198.5,-360 264.5,-360 264.5,-390 258.5,-396"/>
<polyline fill="none" stroke="black" points="258.5,-396 258.5,-390 "/>
<polyline fill="none" stroke="black" points="264.5,-390 258.5,-390 "/>
<text text-anchor="middle" x="231.5" y="-374.3" font-family="Consolas, monospace" font-size="14.00">object</text>
</a>
</g>
</g>
<!-- object&#45;&gt;appendable -->
<g id="edge5" class="edge">
<title>object&#45;&gt;appendable</title>
<path fill="none" stroke="black" d="M198.2,-365.67C174.91,-356.71 143.91,-342.6 120.5,-324 98.19,-306.27 78.49,-280.29 65.54,-260.96"/>
<polygon fill="black" stroke="black" points="68.31,-258.8 59.91,-252.35 62.45,-262.63 68.31,-258.8"/>
</g>
<!-- object&#45;&gt;indexed -->
<g id="edge9" class="edge">
<title>object&#45;&gt;indexed</title>
<path fill="none" stroke="black" d="M206.54,-359.95C194.63,-350.62 181.13,-338.09 172.5,-324 131.62,-257.24 117.38,-163.68 112.67,-118.1"/>
<polygon fill="black" stroke="black" points="116.15,-117.72 111.72,-108.1 109.19,-118.39 116.15,-117.72"/>
</g>
<!-- object&#45;&gt;sequential -->
<g id="edge10" class="edge">
<title>object&#45;&gt;sequential</title>
<path fill="none" stroke="black" d="M231.5,-359.7C231.5,-351.98 231.5,-342.71 231.5,-334.11"/>
<polygon fill="black" stroke="black" points="235,-334.1 231.5,-324.1 228,-334.1 235,-334.1"/>
</g>
<!-- clearable -->
<g id="node7" class="node">
<title>clearable</title>
<g id="a_node7"><a xlink:href="PsyllaReference_Types.xhtml#PsyllaReference_Types_Details_clearable" xlink:title="clearable" target="_parent">
<polygon fill="linen" stroke="black" points="390,-180 305,-180 305,-144 396,-144 396,-174 390,-180"/>
<polyline fill="none" stroke="black" points="390,-180 390,-174 "/>
<polyline fill="none" stroke="black" points="396,-174 390,-174 "/>
<text text-anchor="middle" x="350.5" y="-158.3" font-family="Consolas, monospace" font-size="14.00">clearable</text>
</a>
</g>
</g>
<!-- object&#45;&gt;clearable -->
<g id="edge11" class="edge">
<title>object&#45;&gt;clearable</title>
<path fill="none" stroke="black" d="M254.86,-359.96C266.54,-350.45 280.15,-337.77 289.5,-324 318.28,-281.6 335.87,-223.78 344.35,-190.21"/>
<polygon fill="black" stroke="black" points="347.82,-190.76 346.79,-180.22 341.02,-189.1 347.82,-190.76"/>
</g>
<!-- lengthy -->
<g id="node9" class="node">
<title>lengthy</title>
<g id="a_node9"><a xlink:href="PsyllaReference_Types.xhtml#PsyllaReference_Types_Details_lengthy" xlink:title="lengthy" target="_parent">
<polygon fill="linen" stroke="black" points="441.5,-324 373.5,-324 373.5,-288 447.5,-288 447.5,-318 441.5,-324"/>
<polyline fill="none" stroke="black" points="441.5,-324 441.5,-318 "/>
<polyline fill="none" stroke="black" points="447.5,-318 441.5,-318 "/>
<text text-anchor="middle" x="410.5" y="-302.3" font-family="Consolas, monospace" font-size="14.00">lengthy</text>
</a>
</g>
</g>
<!-- object&#45;&gt;lengthy -->
<g id="edge13" class="edge">
<title>object&#45;&gt;lengthy</title>
<path fill="none" stroke="black" d="M264.75,-364C292.69,-353.07 332.95,-337.33 364.07,-325.16"/>
<polygon fill="black" stroke="black" points="365.38,-328.4 373.41,-321.5 362.83,-321.89 365.38,-328.4"/>
</g>
<!-- clearable&#45;&gt;container -->
<g id="edge6" class="edge">
<title>clearable&#45;&gt;container</title>
<path fill="none" stroke="black" d="M337.89,-143.7C331.9,-135.47 324.62,-125.48 318.02,-116.42"/>
<polygon fill="black" stroke="black" points="320.68,-114.13 311.96,-108.1 315.02,-118.25 320.68,-114.13"/>
</g>
<!-- iterable -->
<g id="node8" class="node">
<title>iterable</title>
<g id="a_node8"><a xlink:href="PsyllaReference_Types.xhtml#PsyllaReference_Types_Details_iterable" xlink:title="iterable" target="_parent">
<polygon fill="linen" stroke="black" points="281,-180 204,-180 204,-144 287,-144 287,-174 281,-180"/>
<polyline fill="none" stroke="black" points="281,-180 281,-174 "/>
<polyline fill="none" stroke="black" points="287,-174 281,-174 "/>
<text text-anchor="middle" x="245.5" y="-158.3" font-family="Consolas, monospace" font-size="14.00">iterable</text>
</a>
</g>
</g>
<!-- iterable&#45;&gt;container -->
<g id="edge7" class="edge">
<title>iterable&#45;&gt;container</title>
<path fill="none" stroke="black" d="M258.85,-143.7C265.26,-135.39 273.06,-125.28 280.11,-116.14"/>
<polygon fill="black" stroke="black" points="282.97,-118.16 286.31,-108.1 277.43,-113.88 282.97,-118.16"/>
</g>
<!-- lengthy&#45;&gt;container -->
<g id="edge8" class="edge">
<title>lengthy&#45;&gt;container</title>
<path fill="none" stroke="black" d="M415.26,-287.83C422.9,-256.47 434.28,-188.99 405.5,-144 393.88,-125.83 373.99,-113.65 354.57,-105.61"/>
<polygon fill="black" stroke="black" points="355.7,-102.29 345.11,-101.98 353.19,-108.83 355.7,-102.29"/>
</g>
<!-- streamable&#45;&gt;iterable -->
<g id="edge12" class="edge">
<title>streamable&#45;&gt;iterable</title>
<path fill="none" stroke="black" d="M251.52,-215.7C250.64,-207.98 249.58,-198.71 248.6,-190.11"/>
<polygon fill="black" stroke="black" points="252.07,-189.64 247.45,-180.1 245.11,-190.44 252.07,-189.64"/>
</g>
</g>
</svg>
