<?xml version="1.0" encoding="UTF-8" standalone="no"?>
<!DOCTYPE svg PUBLIC "-//W3C//DTD SVG 1.1//EN"
 "http://www.w3.org/Graphics/SVG/1.1/DTD/svg11.dtd">
<!-- Generated by graphviz version 2.49.3 (0)
 -->
<!-- Title: execmark Pages: 1 -->
<svg width="71pt" height="116pt"
 viewBox="0.00 0.00 70.64 116.00" xmlns="http://www.w3.org/2000/svg" xmlns:xlink="http://www.w3.org/1999/xlink">
<g id="graph0" class="graph" transform="scale(1 1) rotate(0) translate(4 112)">
<title>execmark</title>
<polygon fill="transparent" stroke="transparent" points="-4,4 -4,-112 66.64,-112 66.64,4 -4,4"/>
<!-- object -->
<g id="node1" class="node">
<title>object</title>
<g id="a_node1"><a xlink:href="PsyllaReference_Types.xhtml#PsyllaReference_Types_Details_object" xlink:title="object" target="_parent">
<polygon fill="linen" stroke="black" points="52.32,-108 4.32,-108 4.32,-72 58.32,-72 58.32,-102 52.32,-108"/>
<polyline fill="none" stroke="black" points="52.32,-108 52.32,-102 "/>
<polyline fill="none" stroke="black" points="58.32,-102 52.32,-102 "/>
<text text-anchor="middle" x="31.32" y="-86.4" font-family="Source Code Pro,monospace" font-size="12.00">object</text>
</a>
</g>
</g>
<!-- execmark -->
<g id="node2" class="node">
<title>execmark</title>
<g id="a_node2"><a xlink:href="PsyllaReference_Types.xhtml#PsyllaReference_Types_Details_execmark" xlink:title="execmark" target="_parent">
<polygon fill="wheat" stroke="black" points="56.46,-36 0.18,-36 0.18,0 62.46,0 62.46,-30 56.46,-36"/>
<polyline fill="none" stroke="black" points="56.46,-36 56.46,-30 "/>
<polyline fill="none" stroke="black" points="62.46,-30 56.46,-30 "/>
<text text-anchor="middle" x="31.32" y="-14.4" font-family="Source Code Pro,monospace" font-size="12.00">execmark</text>
</a>
</g>
</g>
<!-- object&#45;&gt;execmark -->
<g id="edge1" class="edge">
<title>object&#45;&gt;execmark</title>
<path fill="none" stroke="black" d="M31.32,-71.7C31.32,-63.98 31.32,-54.71 31.32,-46.11"/>
<polygon fill="black" stroke="black" points="34.82,-46.1 31.32,-36.1 27.82,-46.1 34.82,-46.1"/>
</g>
</g>
</svg>
