<?xml version="1.0" encoding="UTF-8" standalone="no"?>
<!DOCTYPE svg PUBLIC "-//W3C//DTD SVG 1.1//EN"
 "http://www.w3.org/Graphics/SVG/1.1/DTD/svg11.dtd">
<!-- Generated by graphviz version 2.43.0 (0)
 -->
<!-- Title: integral Pages: 1 -->
<svg width="253pt" height="404pt"
 viewBox="0.00 0.00 252.50 404.00" xmlns="http://www.w3.org/2000/svg" xmlns:xlink="http://www.w3.org/1999/xlink">
<g id="graph0" class="graph" transform="scale(1 1) rotate(0) translate(4 400)">
<title>integral</title>
<polygon fill="transparent" stroke="transparent" points="-4,4 -4,-400 248.5,-400 248.5,4 -4,4"/>
<!-- realnumeric -->
<g id="node1" class="node">
<title>realnumeric</title>
<g id="a_node1"><a xlink:href="PsyllaReference_Types.xhtml#PsyllaReference_Types_Details_realnumeric" xlink:title="realnumeric" target="_parent">
<polygon fill="linen" stroke="black" points="124.5,-108 23.5,-108 23.5,-72 130.5,-72 130.5,-102 124.5,-108"/>
<polyline fill="none" stroke="black" points="124.5,-108 124.5,-102 "/>
<polyline fill="none" stroke="black" points="130.5,-102 124.5,-102 "/>
<text text-anchor="middle" x="77" y="-86.3" font-family="Consolas, monospace" font-size="14.00">realnumeric</text>
</a>
</g>
</g>
<!-- integral -->
<g id="node2" class="node">
<title>integral</title>
<g id="a_node2"><a xlink:href="PsyllaReference_Types.xhtml#PsyllaReference_Types_Details_integral" xlink:title="integral" target="_parent">
<polygon fill="wheat" stroke="black" points="112.5,-36 35.5,-36 35.5,0 118.5,0 118.5,-30 112.5,-36"/>
<polyline fill="none" stroke="black" points="112.5,-36 112.5,-30 "/>
<polyline fill="none" stroke="black" points="118.5,-30 112.5,-30 "/>
<text text-anchor="middle" x="77" y="-14.3" font-family="Consolas, monospace" font-size="14.00">integral</text>
</a>
</g>
</g>
<!-- realnumeric&#45;&gt;integral -->
<g id="edge1" class="edge">
<title>realnumeric&#45;&gt;integral</title>
<path fill="none" stroke="black" d="M77,-71.7C77,-63.98 77,-54.71 77,-46.11"/>
<polygon fill="black" stroke="black" points="80.5,-46.1 77,-36.1 73.5,-46.1 80.5,-46.1"/>
</g>
<!-- numeric -->
<g id="node3" class="node">
<title>numeric</title>
<g id="a_node3"><a xlink:href="PsyllaReference_Types.xhtml#PsyllaReference_Types_Details_numeric" xlink:title="numeric" target="_parent">
<polygon fill="linen" stroke="black" points="152,-180 84,-180 84,-144 158,-144 158,-174 152,-180"/>
<polyline fill="none" stroke="black" points="152,-180 152,-174 "/>
<polyline fill="none" stroke="black" points="158,-174 152,-174 "/>
<text text-anchor="middle" x="121" y="-158.3" font-family="Consolas, monospace" font-size="14.00">numeric</text>
</a>
</g>
</g>
<!-- numeric&#45;&gt;realnumeric -->
<g id="edge2" class="edge">
<title>numeric&#45;&gt;realnumeric</title>
<path fill="none" stroke="black" d="M110.12,-143.7C105.01,-135.56 98.8,-125.69 93.16,-116.7"/>
<polygon fill="black" stroke="black" points="96.04,-114.71 87.75,-108.1 90.11,-118.43 96.04,-114.71"/>
</g>
<!-- scalar -->
<g id="node4" class="node">
<title>scalar</title>
<g id="a_node4"><a xlink:href="PsyllaReference_Types.xhtml#PsyllaReference_Types_Details_scalar" xlink:title="scalar" target="_parent">
<polygon fill="linen" stroke="black" points="60,-180 0,-180 0,-144 66,-144 66,-174 60,-180"/>
<polyline fill="none" stroke="black" points="60,-180 60,-174 "/>
<polyline fill="none" stroke="black" points="66,-174 60,-174 "/>
<text text-anchor="middle" x="33" y="-158.3" font-family="Consolas, monospace" font-size="14.00">scalar</text>
</a>
</g>
</g>
<!-- scalar&#45;&gt;realnumeric -->
<g id="edge3" class="edge">
<title>scalar&#45;&gt;realnumeric</title>
<path fill="none" stroke="black" d="M43.88,-143.7C48.99,-135.56 55.2,-125.69 60.84,-116.7"/>
<polygon fill="black" stroke="black" points="63.89,-118.43 66.25,-108.1 57.96,-114.71 63.89,-118.43"/>
</g>
<!-- atomic -->
<g id="node5" class="node">
<title>atomic</title>
<g id="a_node5"><a xlink:href="PsyllaReference_Types.xhtml#PsyllaReference_Types_Details_atomic" xlink:title="atomic" target="_parent">
<polygon fill="linen" stroke="black" points="121,-252 61,-252 61,-216 127,-216 127,-246 121,-252"/>
<polyline fill="none" stroke="black" points="121,-252 121,-246 "/>
<polyline fill="none" stroke="black" points="127,-246 121,-246 "/>
<text text-anchor="middle" x="94" y="-230.3" font-family="Consolas, monospace" font-size="14.00">atomic</text>
</a>
</g>
</g>
<!-- atomic&#45;&gt;numeric -->
<g id="edge4" class="edge">
<title>atomic&#45;&gt;numeric</title>
<path fill="none" stroke="black" d="M100.67,-215.7C103.71,-207.81 107.38,-198.3 110.76,-189.55"/>
<polygon fill="black" stroke="black" points="114.07,-190.69 114.4,-180.1 107.54,-188.17 114.07,-190.69"/>
</g>
<!-- arithmetic -->
<g id="node6" class="node">
<title>arithmetic</title>
<g id="a_node6"><a xlink:href="PsyllaReference_Types.xhtml#PsyllaReference_Types_Details_arithmetic" xlink:title="arithmetic" target="_parent">
<polygon fill="linen" stroke="black" points="238.5,-252 145.5,-252 145.5,-216 244.5,-216 244.5,-246 238.5,-252"/>
<polyline fill="none" stroke="black" points="238.5,-252 238.5,-246 "/>
<polyline fill="none" stroke="black" points="244.5,-246 238.5,-246 "/>
<text text-anchor="middle" x="195" y="-230.3" font-family="Consolas, monospace" font-size="14.00">arithmetic</text>
</a>
</g>
</g>
<!-- arithmetic&#45;&gt;numeric -->
<g id="edge5" class="edge">
<title>arithmetic&#45;&gt;numeric</title>
<path fill="none" stroke="black" d="M176.71,-215.7C167.57,-207.05 156.36,-196.45 146.4,-187.03"/>
<polygon fill="black" stroke="black" points="148.75,-184.43 139.08,-180.1 143.94,-189.52 148.75,-184.43"/>
</g>
<!-- object -->
<g id="node7" class="node">
<title>object</title>
<g id="a_node7"><a xlink:href="PsyllaReference_Types.xhtml#PsyllaReference_Types_Details_object" xlink:title="object" target="_parent">
<polygon fill="linen" stroke="black" points="121,-396 61,-396 61,-360 127,-360 127,-390 121,-396"/>
<polyline fill="none" stroke="black" points="121,-396 121,-390 "/>
<polyline fill="none" stroke="black" points="127,-390 121,-390 "/>
<text text-anchor="middle" x="94" y="-374.3" font-family="Consolas, monospace" font-size="14.00">object</text>
</a>
</g>
</g>
<!-- object&#45;&gt;scalar -->
<g id="edge6" class="edge">
<title>object&#45;&gt;scalar</title>
<path fill="none" stroke="black" d="M87.53,-359.8C78.68,-335.88 62.7,-291.08 52,-252 46.4,-231.56 41.45,-208.1 38.01,-190.4"/>
<polygon fill="black" stroke="black" points="41.38,-189.37 36.07,-180.2 34.5,-190.68 41.38,-189.37"/>
</g>
<!-- object&#45;&gt;atomic -->
<g id="edge7" class="edge">
<title>object&#45;&gt;atomic</title>
<path fill="none" stroke="black" d="M94,-359.87C94,-335.67 94,-291.21 94,-262.39"/>
<polygon fill="black" stroke="black" points="97.5,-262.19 94,-252.19 90.5,-262.19 97.5,-262.19"/>
</g>
<!-- additive -->
<g id="node8" class="node">
<title>additive</title>
<g id="a_node8"><a xlink:href="PsyllaReference_Types.xhtml#PsyllaReference_Types_Details_additive" xlink:title="additive" target="_parent">
<polygon fill="linen" stroke="black" points="214.5,-324 137.5,-324 137.5,-288 220.5,-288 220.5,-318 214.5,-324"/>
<polyline fill="none" stroke="black" points="214.5,-324 214.5,-318 "/>
<polyline fill="none" stroke="black" points="220.5,-318 214.5,-318 "/>
<text text-anchor="middle" x="179" y="-302.3" font-family="Consolas, monospace" font-size="14.00">additive</text>
</a>
</g>
</g>
<!-- object&#45;&gt;additive -->
<g id="edge9" class="edge">
<title>object&#45;&gt;additive</title>
<path fill="none" stroke="black" d="M115.01,-359.7C125.72,-350.88 138.89,-340.03 150.5,-330.47"/>
<polygon fill="black" stroke="black" points="152.74,-333.16 158.23,-324.1 148.29,-327.76 152.74,-333.16"/>
</g>
<!-- additive&#45;&gt;arithmetic -->
<g id="edge8" class="edge">
<title>additive&#45;&gt;arithmetic</title>
<path fill="none" stroke="black" d="M182.96,-287.7C184.72,-279.98 186.84,-270.71 188.8,-262.11"/>
<polygon fill="black" stroke="black" points="192.27,-262.63 191.09,-252.1 185.45,-261.07 192.27,-262.63"/>
</g>
</g>
</svg>
