<?xml version="1.0" encoding="UTF-8" standalone="no"?>
<!DOCTYPE svg PUBLIC "-//W3C//DTD SVG 1.1//EN"
 "http://www.w3.org/Graphics/SVG/1.1/DTD/svg11.dtd">
<!-- Generated by graphviz version 2.43.0 (0)
 -->
<!-- Title: integral Pages: 1 -->
<svg width="273pt" height="404pt"
 viewBox="0.00 0.00 273.00 404.00" xmlns="http://www.w3.org/2000/svg" xmlns:xlink="http://www.w3.org/1999/xlink">
<g id="graph0" class="graph" transform="scale(1 1) rotate(0) translate(4 400)">
<title>integral</title>
<polygon fill="transparent" stroke="transparent" points="-4,4 -4,-400 269,-400 269,4 -4,4"/>
<!-- bitwise -->
<g id="node1" class="node">
<title>bitwise</title>
<g id="a_node1"><a xlink:href="PsyllaReference_Types.xhtml#PsyllaReference_Types_Details_bitwise" xlink:title="bitwise" target="_parent">
<polygon fill="linen" stroke="black" points="53,-108 0,-108 0,-72 59,-72 59,-102 53,-108"/>
<polyline fill="none" stroke="black" points="53,-108 53,-102 "/>
<polyline fill="none" stroke="black" points="59,-102 53,-102 "/>
<text text-anchor="middle" x="29.5" y="-87.5" font-family="PT Mono, monospace" font-size="10.00">bitwise</text>
</a>
</g>
</g>
<!-- integral -->
<g id="node3" class="node">
<title>integral</title>
<g id="a_node3"><a xlink:href="PsyllaReference_Types.xhtml#PsyllaReference_Types_Details_integral" xlink:title="integral" target="_parent">
<polygon fill="wheat" stroke="black" points="100,-36 41,-36 41,0 106,0 106,-30 100,-36"/>
<polyline fill="none" stroke="black" points="100,-36 100,-30 "/>
<polyline fill="none" stroke="black" points="106,-30 100,-30 "/>
<text text-anchor="middle" x="73.5" y="-15.5" font-family="PT Mono, monospace" font-size="10.00">integral</text>
</a>
</g>
</g>
<!-- bitwise&#45;&gt;integral -->
<g id="edge1" class="edge">
<title>bitwise&#45;&gt;integral</title>
<path fill="none" stroke="black" d="M40.38,-71.7C45.49,-63.56 51.7,-53.69 57.34,-44.7"/>
<polygon fill="black" stroke="black" points="60.39,-46.43 62.75,-36.1 54.46,-42.71 60.39,-46.43"/>
</g>
<!-- realnumeric -->
<g id="node2" class="node">
<title>realnumeric</title>
<g id="a_node2"><a xlink:href="PsyllaReference_Types.xhtml#PsyllaReference_Types_Details_realnumeric" xlink:title="realnumeric" target="_parent">
<polygon fill="linen" stroke="black" points="154,-108 77,-108 77,-72 160,-72 160,-102 154,-108"/>
<polyline fill="none" stroke="black" points="154,-108 154,-102 "/>
<polyline fill="none" stroke="black" points="160,-102 154,-102 "/>
<text text-anchor="middle" x="118.5" y="-87.5" font-family="PT Mono, monospace" font-size="10.00">realnumeric</text>
</a>
</g>
</g>
<!-- realnumeric&#45;&gt;integral -->
<g id="edge2" class="edge">
<title>realnumeric&#45;&gt;integral</title>
<path fill="none" stroke="black" d="M107.38,-71.7C102.14,-63.56 95.8,-53.69 90.02,-44.7"/>
<polygon fill="black" stroke="black" points="92.85,-42.62 84.5,-36.1 86.96,-46.41 92.85,-42.62"/>
</g>
<!-- logical -->
<g id="node4" class="node">
<title>logical</title>
<g id="a_node4"><a xlink:href="PsyllaReference_Types.xhtml#PsyllaReference_Types_Details_logical" xlink:title="logical" target="_parent">
<polygon fill="linen" stroke="black" points="53,-324 0,-324 0,-288 59,-288 59,-318 53,-324"/>
<polyline fill="none" stroke="black" points="53,-324 53,-318 "/>
<polyline fill="none" stroke="black" points="59,-318 53,-318 "/>
<text text-anchor="middle" x="29.5" y="-303.5" font-family="PT Mono, monospace" font-size="10.00">logical</text>
</a>
</g>
</g>
<!-- logical&#45;&gt;bitwise -->
<g id="edge3" class="edge">
<title>logical&#45;&gt;bitwise</title>
<path fill="none" stroke="black" d="M29.5,-287.85C29.5,-250.83 29.5,-163.18 29.5,-118.39"/>
<polygon fill="black" stroke="black" points="33,-118.23 29.5,-108.23 26,-118.23 33,-118.23"/>
</g>
<!-- numeric -->
<g id="node5" class="node">
<title>numeric</title>
<g id="a_node5"><a xlink:href="PsyllaReference_Types.xhtml#PsyllaReference_Types_Details_numeric" xlink:title="numeric" target="_parent">
<polygon fill="linen" stroke="black" points="186,-180 133,-180 133,-144 192,-144 192,-174 186,-180"/>
<polyline fill="none" stroke="black" points="186,-180 186,-174 "/>
<polyline fill="none" stroke="black" points="192,-174 186,-174 "/>
<text text-anchor="middle" x="162.5" y="-159.5" font-family="PT Mono, monospace" font-size="10.00">numeric</text>
</a>
</g>
</g>
<!-- numeric&#45;&gt;realnumeric -->
<g id="edge4" class="edge">
<title>numeric&#45;&gt;realnumeric</title>
<path fill="none" stroke="black" d="M151.62,-143.7C146.51,-135.56 140.3,-125.69 134.66,-116.7"/>
<polygon fill="black" stroke="black" points="137.54,-114.71 129.25,-108.1 131.61,-118.43 137.54,-114.71"/>
</g>
<!-- scalar -->
<g id="node6" class="node">
<title>scalar</title>
<g id="a_node6"><a xlink:href="PsyllaReference_Types.xhtml#PsyllaReference_Types_Details_scalar" xlink:title="scalar" target="_parent">
<polygon fill="linen" stroke="black" points="108.5,-180 60.5,-180 60.5,-144 114.5,-144 114.5,-174 108.5,-180"/>
<polyline fill="none" stroke="black" points="108.5,-180 108.5,-174 "/>
<polyline fill="none" stroke="black" points="114.5,-174 108.5,-174 "/>
<text text-anchor="middle" x="87.5" y="-159.5" font-family="PT Mono, monospace" font-size="10.00">scalar</text>
</a>
</g>
</g>
<!-- scalar&#45;&gt;realnumeric -->
<g id="edge5" class="edge">
<title>scalar&#45;&gt;realnumeric</title>
<path fill="none" stroke="black" d="M95.16,-143.7C98.69,-135.73 102.96,-126.1 106.87,-117.26"/>
<polygon fill="black" stroke="black" points="110.08,-118.67 110.93,-108.1 103.68,-115.83 110.08,-118.67"/>
</g>
<!-- object -->
<g id="node7" class="node">
<title>object</title>
<g id="a_node7"><a xlink:href="PsyllaReference_Types.xhtml#PsyllaReference_Types_Details_object" xlink:title="object" target="_parent">
<polygon fill="linen" stroke="black" points="135.5,-396 87.5,-396 87.5,-360 141.5,-360 141.5,-390 135.5,-396"/>
<polyline fill="none" stroke="black" points="135.5,-396 135.5,-390 "/>
<polyline fill="none" stroke="black" points="141.5,-390 135.5,-390 "/>
<text text-anchor="middle" x="114.5" y="-375.5" font-family="PT Mono, monospace" font-size="10.00">object</text>
</a>
</g>
</g>
<!-- object&#45;&gt;logical -->
<g id="edge6" class="edge">
<title>object&#45;&gt;logical</title>
<path fill="none" stroke="black" d="M93.49,-359.7C82.78,-350.88 69.61,-340.03 58,-330.47"/>
<polygon fill="black" stroke="black" points="60.21,-327.76 50.27,-324.1 55.76,-333.16 60.21,-327.76"/>
</g>
<!-- object&#45;&gt;scalar -->
<g id="edge9" class="edge">
<title>object&#45;&gt;scalar</title>
<path fill="none" stroke="black" d="M112.34,-359.85C107.67,-322.83 96.61,-235.18 90.96,-190.39"/>
<polygon fill="black" stroke="black" points="94.4,-189.72 89.67,-180.23 87.45,-190.59 94.4,-189.72"/>
</g>
<!-- atomic -->
<g id="node8" class="node">
<title>atomic</title>
<g id="a_node8"><a xlink:href="PsyllaReference_Types.xhtml#PsyllaReference_Types_Details_atomic" xlink:title="atomic" target="_parent">
<polygon fill="linen" stroke="black" points="163.5,-252 115.5,-252 115.5,-216 169.5,-216 169.5,-246 163.5,-252"/>
<polyline fill="none" stroke="black" points="163.5,-252 163.5,-246 "/>
<polyline fill="none" stroke="black" points="169.5,-246 163.5,-246 "/>
<text text-anchor="middle" x="142.5" y="-231.5" font-family="PT Mono, monospace" font-size="10.00">atomic</text>
</a>
</g>
</g>
<!-- object&#45;&gt;atomic -->
<g id="edge10" class="edge">
<title>object&#45;&gt;atomic</title>
<path fill="none" stroke="black" d="M117.88,-359.87C122.67,-335.56 131.49,-290.82 137.17,-262.01"/>
<polygon fill="black" stroke="black" points="140.61,-262.68 139.11,-252.19 133.74,-261.32 140.61,-262.68"/>
</g>
<!-- additive -->
<g id="node10" class="node">
<title>additive</title>
<g id="a_node10"><a xlink:href="PsyllaReference_Types.xhtml#PsyllaReference_Types_Details_additive" xlink:title="additive" target="_parent">
<polygon fill="linen" stroke="black" points="233,-324 174,-324 174,-288 239,-288 239,-318 233,-324"/>
<polyline fill="none" stroke="black" points="233,-324 233,-318 "/>
<polyline fill="none" stroke="black" points="239,-318 233,-318 "/>
<text text-anchor="middle" x="206.5" y="-303.5" font-family="PT Mono, monospace" font-size="10.00">additive</text>
</a>
</g>
</g>
<!-- object&#45;&gt;additive -->
<g id="edge12" class="edge">
<title>object&#45;&gt;additive</title>
<path fill="none" stroke="black" d="M137.24,-359.7C148.94,-350.8 163.36,-339.82 176.01,-330.2"/>
<polygon fill="black" stroke="black" points="178.18,-332.94 184.02,-324.1 173.94,-327.37 178.18,-332.94"/>
</g>
<!-- atomic&#45;&gt;numeric -->
<g id="edge7" class="edge">
<title>atomic&#45;&gt;numeric</title>
<path fill="none" stroke="black" d="M147.44,-215.7C149.67,-207.9 152.35,-198.51 154.83,-189.83"/>
<polygon fill="black" stroke="black" points="158.23,-190.68 157.61,-180.1 151.5,-188.76 158.23,-190.68"/>
</g>
<!-- arithmetic -->
<g id="node9" class="node">
<title>arithmetic</title>
<g id="a_node9"><a xlink:href="PsyllaReference_Types.xhtml#PsyllaReference_Types_Details_arithmetic" xlink:title="arithmetic" target="_parent">
<polygon fill="linen" stroke="black" points="259,-252 188,-252 188,-216 265,-216 265,-246 259,-252"/>
<polyline fill="none" stroke="black" points="259,-252 259,-246 "/>
<polyline fill="none" stroke="black" points="265,-246 259,-246 "/>
<text text-anchor="middle" x="226.5" y="-231.5" font-family="PT Mono, monospace" font-size="10.00">arithmetic</text>
</a>
</g>
</g>
<!-- arithmetic&#45;&gt;numeric -->
<g id="edge8" class="edge">
<title>arithmetic&#45;&gt;numeric</title>
<path fill="none" stroke="black" d="M210.68,-215.7C202.93,-207.22 193.46,-196.86 184.98,-187.58"/>
<polygon fill="black" stroke="black" points="187.47,-185.12 178.14,-180.1 182.3,-189.85 187.47,-185.12"/>
</g>
<!-- additive&#45;&gt;arithmetic -->
<g id="edge11" class="edge">
<title>additive&#45;&gt;arithmetic</title>
<path fill="none" stroke="black" d="M211.44,-287.7C213.67,-279.9 216.35,-270.51 218.83,-261.83"/>
<polygon fill="black" stroke="black" points="222.23,-262.68 221.61,-252.1 215.5,-260.76 222.23,-262.68"/>
</g>
</g>
</svg>
