<?xml version="1.0" encoding="UTF-8" standalone="no"?>
<!DOCTYPE svg PUBLIC "-//W3C//DTD SVG 1.1//EN"
 "http://www.w3.org/Graphics/SVG/1.1/DTD/svg11.dtd">
<!-- Generated by graphviz version 2.43.0 (0)
 -->
<!-- Title: complex Pages: 1 -->
<svg width="281pt" height="332pt"
 viewBox="0.00 0.00 281.00 332.00" xmlns="http://www.w3.org/2000/svg" xmlns:xlink="http://www.w3.org/1999/xlink">
<g id="graph0" class="graph" transform="scale(1 1) rotate(0) translate(4 328)">
<title>complex</title>
<polygon fill="transparent" stroke="transparent" points="-4,4 -4,-328 277,-328 277,4 -4,4"/>
<!-- numeric -->
<g id="node1" class="node">
<title>numeric</title>
<g id="a_node1"><a xlink:href="PsyllaReference_Types.xhtml#PsyllaReference_Types_Details_numeric" xlink:title="numeric" target="_parent">
<polygon fill="linen" stroke="black" points="100.5,-108 37.5,-108 37.5,-72 106.5,-72 106.5,-102 100.5,-108"/>
<polyline fill="none" stroke="black" points="100.5,-108 100.5,-102 "/>
<polyline fill="none" stroke="black" points="106.5,-102 100.5,-102 "/>
<text text-anchor="middle" x="72" y="-86.9" font-family="Source Code Pro,monospace" font-size="12.00">numeric</text>
</a>
</g>
</g>
<!-- complex -->
<g id="node2" class="node">
<title>complex</title>
<g id="a_node2"><a xlink:href="PsyllaReference_Types.xhtml#PsyllaReference_Types_Details_complex" xlink:title="complex" target="_parent">
<polygon fill="wheat" stroke="black" points="100.5,-36 37.5,-36 37.5,0 106.5,0 106.5,-30 100.5,-36"/>
<polyline fill="none" stroke="black" points="100.5,-36 100.5,-30 "/>
<polyline fill="none" stroke="black" points="106.5,-30 100.5,-30 "/>
<text text-anchor="middle" x="72" y="-14.9" font-family="Source Code Pro,monospace" font-size="12.00">complex</text>
</a>
</g>
</g>
<!-- numeric&#45;&gt;complex -->
<g id="edge1" class="edge">
<title>numeric&#45;&gt;complex</title>
<path fill="none" stroke="black" d="M72,-71.7C72,-63.98 72,-54.71 72,-46.11"/>
<polygon fill="black" stroke="black" points="75.5,-46.1 72,-36.1 68.5,-46.1 75.5,-46.1"/>
</g>
<!-- arithmetic -->
<g id="node3" class="node">
<title>arithmetic</title>
<g id="a_node3"><a xlink:href="PsyllaReference_Types.xhtml#PsyllaReference_Types_Details_arithmetic" xlink:title="arithmetic" target="_parent">
<polygon fill="linen" stroke="black" points="158,-180 72,-180 72,-144 164,-144 164,-174 158,-180"/>
<polyline fill="none" stroke="black" points="158,-180 158,-174 "/>
<polyline fill="none" stroke="black" points="164,-174 158,-174 "/>
<text text-anchor="middle" x="118" y="-158.9" font-family="Source Code Pro,monospace" font-size="12.00">arithmetic</text>
</a>
</g>
</g>
<!-- arithmetic&#45;&gt;numeric -->
<g id="edge2" class="edge">
<title>arithmetic&#45;&gt;numeric</title>
<path fill="none" stroke="black" d="M106.63,-143.7C101.28,-135.56 94.8,-125.69 88.89,-116.7"/>
<polygon fill="black" stroke="black" points="91.66,-114.54 83.24,-108.1 85.81,-118.38 91.66,-114.54"/>
</g>
<!-- value -->
<g id="node4" class="node">
<title>value</title>
<g id="a_node4"><a xlink:href="PsyllaReference_Types.xhtml#PsyllaReference_Types_Details_value" xlink:title="value" target="_parent">
<polygon fill="linen" stroke="black" points="48,-180 0,-180 0,-144 54,-144 54,-174 48,-180"/>
<polyline fill="none" stroke="black" points="48,-180 48,-174 "/>
<polyline fill="none" stroke="black" points="54,-174 48,-174 "/>
<text text-anchor="middle" x="27" y="-158.9" font-family="Source Code Pro,monospace" font-size="12.00">value</text>
</a>
</g>
</g>
<!-- value&#45;&gt;numeric -->
<g id="edge3" class="edge">
<title>value&#45;&gt;numeric</title>
<path fill="none" stroke="black" d="M38.12,-143.7C43.36,-135.56 49.7,-125.69 55.48,-116.7"/>
<polygon fill="black" stroke="black" points="58.54,-118.41 61,-108.1 52.65,-114.62 58.54,-118.41"/>
</g>
<!-- additive -->
<g id="node5" class="node">
<title>additive</title>
<g id="a_node5"><a xlink:href="PsyllaReference_Types.xhtml#PsyllaReference_Types_Details_additive" xlink:title="additive" target="_parent">
<polygon fill="linen" stroke="black" points="126.5,-252 55.5,-252 55.5,-216 132.5,-216 132.5,-246 126.5,-252"/>
<polyline fill="none" stroke="black" points="126.5,-252 126.5,-246 "/>
<polyline fill="none" stroke="black" points="132.5,-246 126.5,-246 "/>
<text text-anchor="middle" x="94" y="-230.9" font-family="Source Code Pro,monospace" font-size="12.00">additive</text>
</a>
</g>
</g>
<!-- additive&#45;&gt;arithmetic -->
<g id="edge4" class="edge">
<title>additive&#45;&gt;arithmetic</title>
<path fill="none" stroke="black" d="M99.93,-215.7C102.61,-207.9 105.83,-198.51 108.8,-189.83"/>
<polygon fill="black" stroke="black" points="112.2,-190.7 112.14,-180.1 105.58,-188.43 112.2,-190.7"/>
</g>
<!-- multiplicative -->
<g id="node6" class="node">
<title>multiplicative</title>
<g id="a_node6"><a xlink:href="PsyllaReference_Types.xhtml#PsyllaReference_Types_Details_multiplicative" xlink:title="multiplicative" target="_parent">
<polygon fill="linen" stroke="black" points="267,-252 151,-252 151,-216 273,-216 273,-246 267,-252"/>
<polyline fill="none" stroke="black" points="267,-252 267,-246 "/>
<polyline fill="none" stroke="black" points="273,-246 267,-246 "/>
<text text-anchor="middle" x="212" y="-230.9" font-family="Source Code Pro,monospace" font-size="12.00">multiplicative</text>
</a>
</g>
</g>
<!-- multiplicative&#45;&gt;arithmetic -->
<g id="edge5" class="edge">
<title>multiplicative&#45;&gt;arithmetic</title>
<path fill="none" stroke="black" d="M188.76,-215.7C176.81,-206.8 162.08,-195.82 149.15,-186.2"/>
<polygon fill="black" stroke="black" points="151.08,-183.27 140.97,-180.1 146.9,-188.88 151.08,-183.27"/>
</g>
<!-- object -->
<g id="node7" class="node">
<title>object</title>
<g id="a_node7"><a xlink:href="PsyllaReference_Types.xhtml#PsyllaReference_Types_Details_object" xlink:title="object" target="_parent">
<polygon fill="linen" stroke="black" points="119,-324 63,-324 63,-288 125,-288 125,-318 119,-324"/>
<polyline fill="none" stroke="black" points="119,-324 119,-318 "/>
<polyline fill="none" stroke="black" points="125,-318 119,-318 "/>
<text text-anchor="middle" x="94" y="-302.9" font-family="Source Code Pro,monospace" font-size="12.00">object</text>
</a>
</g>
</g>
<!-- object&#45;&gt;value -->
<g id="edge6" class="edge">
<title>object&#45;&gt;value</title>
<path fill="none" stroke="black" d="M74.47,-287.62C64.83,-278.02 53.84,-265.35 47,-252 37.1,-232.68 32.07,-208.52 29.53,-190.26"/>
<polygon fill="black" stroke="black" points="33,-189.76 28.31,-180.26 26.05,-190.62 33,-189.76"/>
</g>
<!-- object&#45;&gt;additive -->
<g id="edge7" class="edge">
<title>object&#45;&gt;additive</title>
<path fill="none" stroke="black" d="M94,-287.7C94,-279.98 94,-270.71 94,-262.11"/>
<polygon fill="black" stroke="black" points="97.5,-262.1 94,-252.1 90.5,-262.1 97.5,-262.1"/>
</g>
<!-- object&#45;&gt;multiplicative -->
<g id="edge8" class="edge">
<title>object&#45;&gt;multiplicative</title>
<path fill="none" stroke="black" d="M122.87,-287.88C138.29,-278.72 157.48,-267.34 174.1,-257.48"/>
<polygon fill="black" stroke="black" points="176.21,-260.3 183.02,-252.19 172.64,-254.28 176.21,-260.3"/>
</g>
</g>
</svg>
