<?xml version="1.0" encoding="UTF-8" standalone="no"?>
<!DOCTYPE svg PUBLIC "-//W3C//DTD SVG 1.1//EN"
 "http://www.w3.org/Graphics/SVG/1.1/DTD/svg11.dtd">
<!-- Generated by graphviz version 2.43.0 (0)
 -->
<!-- Title: complex Pages: 1 -->
<svg width="285pt" height="332pt"
 viewBox="0.00 0.00 285.00 332.00" xmlns="http://www.w3.org/2000/svg" xmlns:xlink="http://www.w3.org/1999/xlink">
<g id="graph0" class="graph" transform="scale(1 1) rotate(0) translate(4 328)">
<title>complex</title>
<polygon fill="transparent" stroke="transparent" points="-4,4 -4,-328 281,-328 281,4 -4,4"/>
<!-- numeric -->
<g id="node1" class="node">
<title>numeric</title>
<g id="a_node1"><a xlink:href="PsyllaReference_Types.xhtml#PsyllaReference_Types_Details_numeric" xlink:title="numeric" target="_parent">
<polygon fill="linen" stroke="black" points="106.5,-108 43.5,-108 43.5,-72 112.5,-72 112.5,-102 106.5,-108"/>
<polyline fill="none" stroke="black" points="106.5,-108 106.5,-102 "/>
<polyline fill="none" stroke="black" points="112.5,-102 106.5,-102 "/>
<text text-anchor="middle" x="78" y="-86.9" font-family="Source Code Pro,monospace" font-size="12.00">numeric</text>
</a>
</g>
</g>
<!-- complex -->
<g id="node2" class="node">
<title>complex</title>
<g id="a_node2"><a xlink:href="PsyllaReference_Types.xhtml#PsyllaReference_Types_Details_complex" xlink:title="complex" target="_parent">
<polygon fill="wheat" stroke="black" points="106.5,-36 43.5,-36 43.5,0 112.5,0 112.5,-30 106.5,-36"/>
<polyline fill="none" stroke="black" points="106.5,-36 106.5,-30 "/>
<polyline fill="none" stroke="black" points="112.5,-30 106.5,-30 "/>
<text text-anchor="middle" x="78" y="-14.9" font-family="Source Code Pro,monospace" font-size="12.00">complex</text>
</a>
</g>
</g>
<!-- numeric&#45;&gt;complex -->
<g id="edge1" class="edge">
<title>numeric&#45;&gt;complex</title>
<path fill="none" stroke="black" d="M78,-71.7C78,-63.98 78,-54.71 78,-46.11"/>
<polygon fill="black" stroke="black" points="81.5,-46.1 78,-36.1 74.5,-46.1 81.5,-46.1"/>
</g>
<!-- atomic -->
<g id="node3" class="node">
<title>atomic</title>
<g id="a_node3"><a xlink:href="PsyllaReference_Types.xhtml#PsyllaReference_Types_Details_atomic" xlink:title="atomic" target="_parent">
<polygon fill="linen" stroke="black" points="56,-180 0,-180 0,-144 62,-144 62,-174 56,-180"/>
<polyline fill="none" stroke="black" points="56,-180 56,-174 "/>
<polyline fill="none" stroke="black" points="62,-174 56,-174 "/>
<text text-anchor="middle" x="31" y="-158.9" font-family="Source Code Pro,monospace" font-size="12.00">atomic</text>
</a>
</g>
</g>
<!-- atomic&#45;&gt;numeric -->
<g id="edge2" class="edge">
<title>atomic&#45;&gt;numeric</title>
<path fill="none" stroke="black" d="M42.62,-143.7C48.14,-135.47 54.85,-125.48 60.93,-116.42"/>
<polygon fill="black" stroke="black" points="63.85,-118.36 66.52,-108.1 58.04,-114.46 63.85,-118.36"/>
</g>
<!-- arithmetic -->
<g id="node4" class="node">
<title>arithmetic</title>
<g id="a_node4"><a xlink:href="PsyllaReference_Types.xhtml#PsyllaReference_Types_Details_arithmetic" xlink:title="arithmetic" target="_parent">
<polygon fill="linen" stroke="black" points="166,-180 80,-180 80,-144 172,-144 172,-174 166,-180"/>
<polyline fill="none" stroke="black" points="166,-180 166,-174 "/>
<polyline fill="none" stroke="black" points="172,-174 166,-174 "/>
<text text-anchor="middle" x="126" y="-158.9" font-family="Source Code Pro,monospace" font-size="12.00">arithmetic</text>
</a>
</g>
</g>
<!-- arithmetic&#45;&gt;numeric -->
<g id="edge3" class="edge">
<title>arithmetic&#45;&gt;numeric</title>
<path fill="none" stroke="black" d="M114.13,-143.7C108.5,-135.47 101.65,-125.48 95.43,-116.42"/>
<polygon fill="black" stroke="black" points="98.27,-114.37 89.73,-108.1 92.5,-118.33 98.27,-114.37"/>
</g>
<!-- object -->
<g id="node5" class="node">
<title>object</title>
<g id="a_node5"><a xlink:href="PsyllaReference_Types.xhtml#PsyllaReference_Types_Details_object" xlink:title="object" target="_parent">
<polygon fill="linen" stroke="black" points="123,-324 67,-324 67,-288 129,-288 129,-318 123,-324"/>
<polyline fill="none" stroke="black" points="123,-324 123,-318 "/>
<polyline fill="none" stroke="black" points="129,-318 123,-318 "/>
<text text-anchor="middle" x="98" y="-302.9" font-family="Source Code Pro,monospace" font-size="12.00">object</text>
</a>
</g>
</g>
<!-- object&#45;&gt;atomic -->
<g id="edge4" class="edge">
<title>object&#45;&gt;atomic</title>
<path fill="none" stroke="black" d="M78.47,-287.62C68.83,-278.02 57.84,-265.35 51,-252 41.1,-232.68 36.07,-208.52 33.53,-190.26"/>
<polygon fill="black" stroke="black" points="37,-189.76 32.31,-180.26 30.05,-190.62 37,-189.76"/>
</g>
<!-- additive -->
<g id="node6" class="node">
<title>additive</title>
<g id="a_node6"><a xlink:href="PsyllaReference_Types.xhtml#PsyllaReference_Types_Details_additive" xlink:title="additive" target="_parent">
<polygon fill="linen" stroke="black" points="130.5,-252 59.5,-252 59.5,-216 136.5,-216 136.5,-246 130.5,-252"/>
<polyline fill="none" stroke="black" points="130.5,-252 130.5,-246 "/>
<polyline fill="none" stroke="black" points="136.5,-246 130.5,-246 "/>
<text text-anchor="middle" x="98" y="-230.9" font-family="Source Code Pro,monospace" font-size="12.00">additive</text>
</a>
</g>
</g>
<!-- object&#45;&gt;additive -->
<g id="edge7" class="edge">
<title>object&#45;&gt;additive</title>
<path fill="none" stroke="black" d="M98,-287.7C98,-279.98 98,-270.71 98,-262.11"/>
<polygon fill="black" stroke="black" points="101.5,-262.1 98,-252.1 94.5,-262.1 101.5,-262.1"/>
</g>
<!-- multiplicative -->
<g id="node7" class="node">
<title>multiplicative</title>
<g id="a_node7"><a xlink:href="PsyllaReference_Types.xhtml#PsyllaReference_Types_Details_multiplicative" xlink:title="multiplicative" target="_parent">
<polygon fill="linen" stroke="black" points="271,-252 155,-252 155,-216 277,-216 277,-246 271,-252"/>
<polyline fill="none" stroke="black" points="271,-252 271,-246 "/>
<polyline fill="none" stroke="black" points="277,-246 271,-246 "/>
<text text-anchor="middle" x="216" y="-230.9" font-family="Source Code Pro,monospace" font-size="12.00">multiplicative</text>
</a>
</g>
</g>
<!-- object&#45;&gt;multiplicative -->
<g id="edge8" class="edge">
<title>object&#45;&gt;multiplicative</title>
<path fill="none" stroke="black" d="M126.87,-287.88C142.29,-278.72 161.48,-267.34 178.1,-257.48"/>
<polygon fill="black" stroke="black" points="180.21,-260.3 187.02,-252.19 176.64,-254.28 180.21,-260.3"/>
</g>
<!-- additive&#45;&gt;arithmetic -->
<g id="edge5" class="edge">
<title>additive&#45;&gt;arithmetic</title>
<path fill="none" stroke="black" d="M104.92,-215.7C108.07,-207.81 111.88,-198.3 115.38,-189.55"/>
<polygon fill="black" stroke="black" points="118.69,-190.69 119.16,-180.1 112.19,-188.09 118.69,-190.69"/>
</g>
<!-- multiplicative&#45;&gt;arithmetic -->
<g id="edge6" class="edge">
<title>multiplicative&#45;&gt;arithmetic</title>
<path fill="none" stroke="black" d="M193.75,-215.7C182.42,-206.88 168.47,-196.03 156.18,-186.47"/>
<polygon fill="black" stroke="black" points="158.03,-183.48 147.99,-180.1 153.74,-189.01 158.03,-183.48"/>
</g>
</g>
</svg>
