<?xml version="1.0" encoding="UTF-8" standalone="no"?>
<!DOCTYPE svg PUBLIC "-//W3C//DTD SVG 1.1//EN"
 "http://www.w3.org/Graphics/SVG/1.1/DTD/svg11.dtd">
<!-- Generated by graphviz version 2.43.0 (0)
 -->
<!-- Title: container Pages: 1 -->
<svg width="262pt" height="332pt"
 viewBox="0.00 0.00 262.00 332.00" xmlns="http://www.w3.org/2000/svg" xmlns:xlink="http://www.w3.org/1999/xlink">
<g id="graph0" class="graph" transform="scale(1 1) rotate(0) translate(4 328)">
<title>container</title>
<polygon fill="transparent" stroke="transparent" points="-4,4 -4,-328 258,-328 258,4 -4,4"/>
<!-- clearable -->
<g id="node1" class="node">
<title>clearable</title>
<g id="a_node1"><a xlink:href="PsyllaReference_Types.xhtml#PsyllaReference_Types_Details_clearable" xlink:title="clearable" target="_parent">
<polygon fill="linen" stroke="black" points="85,-180 0,-180 0,-144 91,-144 91,-174 85,-180"/>
<polyline fill="none" stroke="black" points="85,-180 85,-174 "/>
<polyline fill="none" stroke="black" points="91,-174 85,-174 "/>
<text text-anchor="middle" x="45.5" y="-158.3" font-family="Consolas, monospace" font-size="14.00">clearable</text>
</a>
</g>
</g>
<!-- container -->
<g id="node4" class="node">
<title>container</title>
<g id="a_node4"><a xlink:href="PsyllaReference_Types.xhtml#PsyllaReference_Types_Details_container" xlink:title="container" target="_parent">
<polygon fill="wheat" stroke="black" points="150,-36 65,-36 65,0 156,0 156,-30 150,-36"/>
<polyline fill="none" stroke="black" points="150,-36 150,-30 "/>
<polyline fill="none" stroke="black" points="156,-30 150,-30 "/>
<text text-anchor="middle" x="110.5" y="-14.3" font-family="Consolas, monospace" font-size="14.00">container</text>
</a>
</g>
</g>
<!-- clearable&#45;&gt;container -->
<g id="edge1" class="edge">
<title>clearable&#45;&gt;container</title>
<path fill="none" stroke="black" d="M46.62,-143.76C48.39,-125.19 52.94,-95.19 64.5,-72 69.53,-61.92 76.92,-52.21 84.32,-43.91"/>
<polygon fill="black" stroke="black" points="87.05,-46.12 91.34,-36.43 81.94,-41.33 87.05,-46.12"/>
</g>
<!-- iterable -->
<g id="node2" class="node">
<title>iterable</title>
<g id="a_node2"><a xlink:href="PsyllaReference_Types.xhtml#PsyllaReference_Types_Details_iterable" xlink:title="iterable" target="_parent">
<polygon fill="linen" stroke="black" points="243,-108 166,-108 166,-72 249,-72 249,-102 243,-108"/>
<polyline fill="none" stroke="black" points="243,-108 243,-102 "/>
<polyline fill="none" stroke="black" points="249,-102 243,-102 "/>
<text text-anchor="middle" x="207.5" y="-86.3" font-family="Consolas, monospace" font-size="14.00">iterable</text>
</a>
</g>
</g>
<!-- iterable&#45;&gt;container -->
<g id="edge2" class="edge">
<title>iterable&#45;&gt;container</title>
<path fill="none" stroke="black" d="M183.52,-71.7C171.19,-62.8 155.98,-51.82 142.65,-42.2"/>
<polygon fill="black" stroke="black" points="144.36,-39.12 134.2,-36.1 140.26,-44.79 144.36,-39.12"/>
</g>
<!-- lengthy -->
<g id="node3" class="node">
<title>lengthy</title>
<g id="a_node3"><a xlink:href="PsyllaReference_Types.xhtml#PsyllaReference_Types_Details_lengthy" xlink:title="lengthy" target="_parent">
<polygon fill="linen" stroke="black" points="141.5,-108 73.5,-108 73.5,-72 147.5,-72 147.5,-102 141.5,-108"/>
<polyline fill="none" stroke="black" points="141.5,-108 141.5,-102 "/>
<polyline fill="none" stroke="black" points="147.5,-102 141.5,-102 "/>
<text text-anchor="middle" x="110.5" y="-86.3" font-family="Consolas, monospace" font-size="14.00">lengthy</text>
</a>
</g>
</g>
<!-- lengthy&#45;&gt;container -->
<g id="edge3" class="edge">
<title>lengthy&#45;&gt;container</title>
<path fill="none" stroke="black" d="M110.5,-71.7C110.5,-63.98 110.5,-54.71 110.5,-46.11"/>
<polygon fill="black" stroke="black" points="114,-46.1 110.5,-36.1 107,-46.1 114,-46.1"/>
</g>
<!-- object -->
<g id="node5" class="node">
<title>object</title>
<g id="a_node5"><a xlink:href="PsyllaReference_Types.xhtml#PsyllaReference_Types_Details_object" xlink:title="object" target="_parent">
<polygon fill="linen" stroke="black" points="146.5,-324 86.5,-324 86.5,-288 152.5,-288 152.5,-318 146.5,-324"/>
<polyline fill="none" stroke="black" points="146.5,-324 146.5,-318 "/>
<polyline fill="none" stroke="black" points="152.5,-318 146.5,-318 "/>
<text text-anchor="middle" x="119.5" y="-302.3" font-family="Consolas, monospace" font-size="14.00">object</text>
</a>
</g>
</g>
<!-- object&#45;&gt;clearable -->
<g id="edge4" class="edge">
<title>object&#45;&gt;clearable</title>
<path fill="none" stroke="black" d="M110.57,-287.87C97.8,-263.35 74.18,-218.03 59.18,-189.26"/>
<polygon fill="black" stroke="black" points="62.18,-187.44 54.46,-180.19 55.98,-190.67 62.18,-187.44"/>
</g>
<!-- object&#45;&gt;lengthy -->
<g id="edge6" class="edge">
<title>object&#45;&gt;lengthy</title>
<path fill="none" stroke="black" d="M118.78,-287.85C117.22,-250.83 113.54,-163.18 111.65,-118.39"/>
<polygon fill="black" stroke="black" points="115.14,-118.08 111.22,-108.23 108.15,-118.37 115.14,-118.08"/>
</g>
<!-- sequential -->
<g id="node7" class="node">
<title>sequential</title>
<g id="a_node7"><a xlink:href="PsyllaReference_Types.xhtml#PsyllaReference_Types_Details_sequential" xlink:title="sequential" target="_parent">
<polygon fill="linen" stroke="black" points="243,-252 150,-252 150,-216 249,-216 249,-246 243,-252"/>
<polyline fill="none" stroke="black" points="243,-252 243,-246 "/>
<polyline fill="none" stroke="black" points="249,-246 243,-246 "/>
<text text-anchor="middle" x="199.5" y="-230.3" font-family="Consolas, monospace" font-size="14.00">sequential</text>
</a>
</g>
</g>
<!-- object&#45;&gt;sequential -->
<g id="edge8" class="edge">
<title>object&#45;&gt;sequential</title>
<path fill="none" stroke="black" d="M139.28,-287.7C149.25,-278.97 161.51,-268.24 172.36,-258.75"/>
<polygon fill="black" stroke="black" points="174.73,-261.32 179.95,-252.1 170.12,-256.06 174.73,-261.32"/>
</g>
<!-- streamable -->
<g id="node6" class="node">
<title>streamable</title>
<g id="a_node6"><a xlink:href="PsyllaReference_Types.xhtml#PsyllaReference_Types_Details_streamable" xlink:title="streamable" target="_parent">
<polygon fill="linen" stroke="black" points="248,-180 155,-180 155,-144 254,-144 254,-174 248,-180"/>
<polyline fill="none" stroke="black" points="248,-180 248,-174 "/>
<polyline fill="none" stroke="black" points="254,-174 248,-174 "/>
<text text-anchor="middle" x="204.5" y="-158.3" font-family="Consolas, monospace" font-size="14.00">streamable</text>
</a>
</g>
</g>
<!-- streamable&#45;&gt;iterable -->
<g id="edge5" class="edge">
<title>streamable&#45;&gt;iterable</title>
<path fill="none" stroke="black" d="M205.24,-143.7C205.57,-135.98 205.97,-126.71 206.34,-118.11"/>
<polygon fill="black" stroke="black" points="209.84,-118.25 206.77,-108.1 202.84,-117.95 209.84,-118.25"/>
</g>
<!-- sequential&#45;&gt;streamable -->
<g id="edge7" class="edge">
<title>sequential&#45;&gt;streamable</title>
<path fill="none" stroke="black" d="M200.74,-215.7C201.29,-207.98 201.95,-198.71 202.56,-190.11"/>
<polygon fill="black" stroke="black" points="206.06,-190.33 203.28,-180.1 199.07,-189.83 206.06,-190.33"/>
</g>
</g>
</svg>
