<?xml version="1.0" encoding="UTF-8" standalone="no"?>
<!DOCTYPE svg PUBLIC "-//W3C//DTD SVG 1.1//EN"
 "http://www.w3.org/Graphics/SVG/1.1/DTD/svg11.dtd">
<!-- Generated by graphviz version 2.43.0 (0)
 -->
<!-- Title: input Pages: 1 -->
<svg width="308pt" height="260pt"
 viewBox="0.00 0.00 308.00 260.00" xmlns="http://www.w3.org/2000/svg" xmlns:xlink="http://www.w3.org/1999/xlink">
<g id="graph0" class="graph" transform="scale(1 1) rotate(0) translate(4 256)">
<title>input</title>
<polygon fill="transparent" stroke="transparent" points="-4,4 -4,-256 304,-256 304,4 -4,4"/>
<!-- closeable -->
<g id="node1" class="node">
<title>closeable</title>
<g id="a_node1"><a xlink:href="PsyllaReference_Types.xhtml#PsyllaReference_Types_Details_closeable" xlink:title="closeable" target="_parent">
<polygon fill="linen" stroke="black" points="85,-108 0,-108 0,-72 91,-72 91,-102 85,-108"/>
<polyline fill="none" stroke="black" points="85,-108 85,-102 "/>
<polyline fill="none" stroke="black" points="91,-102 85,-102 "/>
<text text-anchor="middle" x="45.5" y="-86.3" font-family="Consolas, monospace" font-size="14.00">closeable</text>
</a>
</g>
</g>
<!-- input -->
<g id="node5" class="node">
<title>input</title>
<g id="a_node5"><a xlink:href="PsyllaReference_Types.xhtml#PsyllaReference_Types_Details_input" xlink:title="input" target="_parent">
<polygon fill="wheat" stroke="black" points="208.5,-36 156.5,-36 156.5,0 214.5,0 214.5,-30 208.5,-36"/>
<polyline fill="none" stroke="black" points="208.5,-36 208.5,-30 "/>
<polyline fill="none" stroke="black" points="214.5,-30 208.5,-30 "/>
<text text-anchor="middle" x="185.5" y="-14.3" font-family="Consolas, monospace" font-size="14.00">input</text>
</a>
</g>
</g>
<!-- closeable&#45;&gt;input -->
<g id="edge1" class="edge">
<title>closeable&#45;&gt;input</title>
<path fill="none" stroke="black" d="M79.75,-71.88C100.2,-61.65 126.21,-48.64 147.32,-38.09"/>
<polygon fill="black" stroke="black" points="148.96,-41.18 156.34,-33.58 145.83,-34.92 148.96,-41.18"/>
</g>
<!-- readable -->
<g id="node2" class="node">
<title>readable</title>
<g id="a_node2"><a xlink:href="PsyllaReference_Types.xhtml#PsyllaReference_Types_Details_readable" xlink:title="readable" target="_parent">
<polygon fill="linen" stroke="black" points="186,-108 109,-108 109,-72 192,-72 192,-102 186,-108"/>
<polyline fill="none" stroke="black" points="186,-108 186,-102 "/>
<polyline fill="none" stroke="black" points="192,-102 186,-102 "/>
<text text-anchor="middle" x="150.5" y="-86.3" font-family="Consolas, monospace" font-size="14.00">readable</text>
</a>
</g>
</g>
<!-- readable&#45;&gt;input -->
<g id="edge2" class="edge">
<title>readable&#45;&gt;input</title>
<path fill="none" stroke="black" d="M159.15,-71.7C163.14,-63.73 167.95,-54.1 172.37,-45.26"/>
<polygon fill="black" stroke="black" points="175.61,-46.61 176.95,-36.1 169.35,-43.48 175.61,-46.61"/>
</g>
<!-- ready -->
<g id="node3" class="node">
<title>ready</title>
<g id="a_node3"><a xlink:href="PsyllaReference_Types.xhtml#PsyllaReference_Types_Details_ready" xlink:title="ready" target="_parent">
<polygon fill="linen" stroke="black" points="177.5,-180 125.5,-180 125.5,-144 183.5,-144 183.5,-174 177.5,-180"/>
<polyline fill="none" stroke="black" points="177.5,-180 177.5,-174 "/>
<polyline fill="none" stroke="black" points="183.5,-174 177.5,-174 "/>
<text text-anchor="middle" x="154.5" y="-158.3" font-family="Consolas, monospace" font-size="14.00">ready</text>
</a>
</g>
</g>
<!-- ready&#45;&gt;readable -->
<g id="edge6" class="edge">
<title>ready&#45;&gt;readable</title>
<path fill="none" stroke="black" d="M153.51,-143.7C153.07,-135.98 152.54,-126.71 152.05,-118.11"/>
<polygon fill="black" stroke="black" points="155.54,-117.89 151.48,-108.1 148.55,-118.29 155.54,-117.89"/>
</g>
<!-- ready&#45;&gt;input -->
<g id="edge3" class="edge">
<title>ready&#45;&gt;input</title>
<path fill="none" stroke="black" d="M175.32,-143.62C184.96,-134.2 195.39,-121.7 200.5,-108 208,-87.91 203.19,-63.85 197.09,-45.82"/>
<polygon fill="black" stroke="black" points="200.3,-44.39 193.54,-36.23 193.73,-46.82 200.3,-44.39"/>
</g>
<!-- resetable -->
<g id="node4" class="node">
<title>resetable</title>
<g id="a_node4"><a xlink:href="PsyllaReference_Types.xhtml#PsyllaReference_Types_Details_resetable" xlink:title="resetable" target="_parent">
<polygon fill="linen" stroke="black" points="294,-180 209,-180 209,-144 300,-144 300,-174 294,-180"/>
<polyline fill="none" stroke="black" points="294,-180 294,-174 "/>
<polyline fill="none" stroke="black" points="300,-174 294,-174 "/>
<text text-anchor="middle" x="254.5" y="-158.3" font-family="Consolas, monospace" font-size="14.00">resetable</text>
</a>
</g>
</g>
<!-- resetable&#45;&gt;input -->
<g id="edge4" class="edge">
<title>resetable&#45;&gt;input</title>
<path fill="none" stroke="black" d="M247.97,-143.98C240.85,-125.85 228.81,-96.46 216.5,-72 211.99,-63.05 206.62,-53.53 201.62,-45.06"/>
<polygon fill="black" stroke="black" points="204.54,-43.13 196.4,-36.36 198.54,-46.74 204.54,-43.13"/>
</g>
<!-- object -->
<g id="node6" class="node">
<title>object</title>
<g id="a_node6"><a xlink:href="PsyllaReference_Types.xhtml#PsyllaReference_Types_Details_object" xlink:title="object" target="_parent">
<polygon fill="linen" stroke="black" points="181.5,-252 121.5,-252 121.5,-216 187.5,-216 187.5,-246 181.5,-252"/>
<polyline fill="none" stroke="black" points="181.5,-252 181.5,-246 "/>
<polyline fill="none" stroke="black" points="187.5,-246 181.5,-246 "/>
<text text-anchor="middle" x="154.5" y="-230.3" font-family="Consolas, monospace" font-size="14.00">object</text>
</a>
</g>
</g>
<!-- object&#45;&gt;closeable -->
<g id="edge5" class="edge">
<title>object&#45;&gt;closeable</title>
<path fill="none" stroke="black" d="M141.35,-215.87C122.28,-191.03 86.83,-144.85 64.8,-116.14"/>
<polygon fill="black" stroke="black" points="67.56,-113.99 58.69,-108.19 62.01,-118.25 67.56,-113.99"/>
</g>
<!-- object&#45;&gt;ready -->
<g id="edge7" class="edge">
<title>object&#45;&gt;ready</title>
<path fill="none" stroke="black" d="M154.5,-215.7C154.5,-207.98 154.5,-198.71 154.5,-190.11"/>
<polygon fill="black" stroke="black" points="158,-190.1 154.5,-180.1 151,-190.1 158,-190.1"/>
</g>
<!-- object&#45;&gt;resetable -->
<g id="edge8" class="edge">
<title>object&#45;&gt;resetable</title>
<path fill="none" stroke="black" d="M178.96,-215.88C191.8,-206.89 207.7,-195.76 221.59,-186.03"/>
<polygon fill="black" stroke="black" points="223.76,-188.79 229.94,-180.19 219.74,-183.06 223.76,-188.79"/>
</g>
</g>
</svg>
