<?xml version="1.0" encoding="UTF-8" standalone="no"?>
<!DOCTYPE svg PUBLIC "-//W3C//DTD SVG 1.1//EN"
 "http://www.w3.org/Graphics/SVG/1.1/DTD/svg11.dtd">
<!-- Generated by graphviz version 2.43.0 (0)
 -->
<!-- Title: process Pages: 1 -->
<svg width="77pt" height="116pt"
 viewBox="0.00 0.00 77.00 116.00" xmlns="http://www.w3.org/2000/svg" xmlns:xlink="http://www.w3.org/1999/xlink">
<g id="graph0" class="graph" transform="scale(1 1) rotate(0) translate(4 112)">
<title>process</title>
<polygon fill="transparent" stroke="transparent" points="-4,4 -4,-112 73,-112 73,4 -4,4"/>
<!-- object -->
<g id="node1" class="node">
<title>object</title>
<g id="a_node1"><a xlink:href="PsyllaReference_Types.xhtml#PsyllaReference_Types_Details_object" xlink:title="object" target="_parent">
<polygon fill="linen" stroke="black" points="59.5,-108 3.5,-108 3.5,-72 65.5,-72 65.5,-102 59.5,-108"/>
<polyline fill="none" stroke="black" points="59.5,-108 59.5,-102 "/>
<polyline fill="none" stroke="black" points="65.5,-102 59.5,-102 "/>
<text text-anchor="middle" x="34.5" y="-86.9" font-family="PT Mono, monospace" font-size="12.00">object</text>
</a>
</g>
</g>
<!-- process -->
<g id="node2" class="node">
<title>process</title>
<g id="a_node2"><a xlink:href="PsyllaReference_Types.xhtml#PsyllaReference_Types_Details_process" xlink:title="process" target="_parent">
<polygon fill="wheat" stroke="black" points="63,-36 0,-36 0,0 69,0 69,-30 63,-36"/>
<polyline fill="none" stroke="black" points="63,-36 63,-30 "/>
<polyline fill="none" stroke="black" points="69,-30 63,-30 "/>
<text text-anchor="middle" x="34.5" y="-14.9" font-family="PT Mono, monospace" font-size="12.00">process</text>
</a>
</g>
</g>
<!-- object&#45;&gt;process -->
<g id="edge1" class="edge">
<title>object&#45;&gt;process</title>
<path fill="none" stroke="black" d="M34.5,-71.7C34.5,-63.98 34.5,-54.71 34.5,-46.11"/>
<polygon fill="black" stroke="black" points="38,-46.1 34.5,-36.1 31,-46.1 38,-46.1"/>
</g>
</g>
</svg>
