<?xml version="1.0" encoding="UTF-8" standalone="no"?>
<!DOCTYPE svg PUBLIC "-//W3C//DTD SVG 1.1//EN"
 "http://www.w3.org/Graphics/SVG/1.1/DTD/svg11.dtd">
<!-- Generated by graphviz version 2.43.0 (0)
 -->
<!-- Title: boolean Pages: 1 -->
<svg width="238pt" height="188pt"
 viewBox="0.00 0.00 237.50 188.00" xmlns="http://www.w3.org/2000/svg" xmlns:xlink="http://www.w3.org/1999/xlink">
<g id="graph0" class="graph" transform="scale(1 1) rotate(0) translate(4 184)">
<title>boolean</title>
<polygon fill="transparent" stroke="transparent" points="-4,4 -4,-184 233.5,-184 233.5,4 -4,4"/>
<!-- atomic -->
<g id="node1" class="node">
<title>atomic</title>
<g id="a_node1"><a xlink:href="PsyllaReference_Types.xhtml#PsyllaReference_Types_Details_atomic" xlink:title="atomic" target="_parent">
<polygon fill="linen" stroke="black" points="56,-108 0,-108 0,-72 62,-72 62,-102 56,-108"/>
<polyline fill="none" stroke="black" points="56,-108 56,-102 "/>
<polyline fill="none" stroke="black" points="62,-102 56,-102 "/>
<text text-anchor="middle" x="31" y="-86.9" font-family="PT Mono, monospace" font-size="12.00">atomic</text>
</a>
</g>
</g>
<!-- boolean -->
<g id="node4" class="node">
<title>boolean</title>
<g id="a_node4"><a xlink:href="PsyllaReference_Types.xhtml#PsyllaReference_Types_Details_boolean" xlink:title="boolean" target="_parent">
<polygon fill="wheat" stroke="black" points="139.5,-36 76.5,-36 76.5,0 145.5,0 145.5,-30 139.5,-36"/>
<polyline fill="none" stroke="black" points="139.5,-36 139.5,-30 "/>
<polyline fill="none" stroke="black" points="145.5,-30 139.5,-30 "/>
<text text-anchor="middle" x="111" y="-14.9" font-family="PT Mono, monospace" font-size="12.00">boolean</text>
</a>
</g>
</g>
<!-- atomic&#45;&gt;boolean -->
<g id="edge1" class="edge">
<title>atomic&#45;&gt;boolean</title>
<path fill="none" stroke="black" d="M50.78,-71.7C60.75,-62.97 73.01,-52.24 83.86,-42.75"/>
<polygon fill="black" stroke="black" points="86.23,-45.32 91.45,-36.1 81.62,-40.06 86.23,-45.32"/>
</g>
<!-- scalar -->
<g id="node2" class="node">
<title>scalar</title>
<g id="a_node2"><a xlink:href="PsyllaReference_Types.xhtml#PsyllaReference_Types_Details_scalar" xlink:title="scalar" target="_parent">
<polygon fill="linen" stroke="black" points="136,-108 80,-108 80,-72 142,-72 142,-102 136,-108"/>
<polyline fill="none" stroke="black" points="136,-108 136,-102 "/>
<polyline fill="none" stroke="black" points="142,-102 136,-102 "/>
<text text-anchor="middle" x="111" y="-86.9" font-family="PT Mono, monospace" font-size="12.00">scalar</text>
</a>
</g>
</g>
<!-- scalar&#45;&gt;boolean -->
<g id="edge2" class="edge">
<title>scalar&#45;&gt;boolean</title>
<path fill="none" stroke="black" d="M111,-71.7C111,-63.98 111,-54.71 111,-46.11"/>
<polygon fill="black" stroke="black" points="114.5,-46.1 111,-36.1 107.5,-46.1 114.5,-46.1"/>
</g>
<!-- logical -->
<g id="node3" class="node">
<title>logical</title>
<g id="a_node3"><a xlink:href="PsyllaReference_Types.xhtml#PsyllaReference_Types_Details_logical" xlink:title="logical" target="_parent">
<polygon fill="linen" stroke="black" points="223.5,-108 160.5,-108 160.5,-72 229.5,-72 229.5,-102 223.5,-108"/>
<polyline fill="none" stroke="black" points="223.5,-108 223.5,-102 "/>
<polyline fill="none" stroke="black" points="229.5,-102 223.5,-102 "/>
<text text-anchor="middle" x="195" y="-86.9" font-family="PT Mono, monospace" font-size="12.00">logical</text>
</a>
</g>
</g>
<!-- logical&#45;&gt;boolean -->
<g id="edge3" class="edge">
<title>logical&#45;&gt;boolean</title>
<path fill="none" stroke="black" d="M174.24,-71.7C163.76,-62.97 150.89,-52.24 139.5,-42.75"/>
<polygon fill="black" stroke="black" points="141.45,-39.82 131.53,-36.1 136.97,-45.19 141.45,-39.82"/>
</g>
<!-- object -->
<g id="node5" class="node">
<title>object</title>
<g id="a_node5"><a xlink:href="PsyllaReference_Types.xhtml#PsyllaReference_Types_Details_object" xlink:title="object" target="_parent">
<polygon fill="linen" stroke="black" points="136,-180 80,-180 80,-144 142,-144 142,-174 136,-180"/>
<polyline fill="none" stroke="black" points="136,-180 136,-174 "/>
<polyline fill="none" stroke="black" points="142,-174 136,-174 "/>
<text text-anchor="middle" x="111" y="-158.9" font-family="PT Mono, monospace" font-size="12.00">object</text>
</a>
</g>
</g>
<!-- object&#45;&gt;atomic -->
<g id="edge4" class="edge">
<title>object&#45;&gt;atomic</title>
<path fill="none" stroke="black" d="M91.22,-143.7C81.25,-134.97 68.99,-124.24 58.14,-114.75"/>
<polygon fill="black" stroke="black" points="60.38,-112.06 50.55,-108.1 55.77,-117.32 60.38,-112.06"/>
</g>
<!-- object&#45;&gt;scalar -->
<g id="edge5" class="edge">
<title>object&#45;&gt;scalar</title>
<path fill="none" stroke="black" d="M111,-143.7C111,-135.98 111,-126.71 111,-118.11"/>
<polygon fill="black" stroke="black" points="114.5,-118.1 111,-108.1 107.5,-118.1 114.5,-118.1"/>
</g>
<!-- object&#45;&gt;logical -->
<g id="edge6" class="edge">
<title>object&#45;&gt;logical</title>
<path fill="none" stroke="black" d="M131.76,-143.7C142.24,-134.97 155.11,-124.24 166.5,-114.75"/>
<polygon fill="black" stroke="black" points="169.03,-117.19 174.47,-108.1 164.55,-111.82 169.03,-117.19"/>
</g>
</g>
</svg>
