<?xml version="1.0" encoding="UTF-8" standalone="no"?>
<!DOCTYPE svg PUBLIC "-//W3C//DTD SVG 1.1//EN"
 "http://www.w3.org/Graphics/SVG/1.1/DTD/svg11.dtd">
<!-- Generated by graphviz version 2.43.0 (0)
 -->
<!-- Title: condition Pages: 1 -->
<svg width="92pt" height="116pt"
 viewBox="0.00 0.00 92.00 116.00" xmlns="http://www.w3.org/2000/svg" xmlns:xlink="http://www.w3.org/1999/xlink">
<g id="graph0" class="graph" transform="scale(1 1) rotate(0) translate(4 112)">
<title>condition</title>
<polygon fill="transparent" stroke="transparent" points="-4,4 -4,-112 88,-112 88,4 -4,4"/>
<!-- object -->
<g id="node1" class="node">
<title>object</title>
<g id="a_node1"><a xlink:href="PsyllaReference_Types.xhtml#PsyllaReference_Types_Details_object" xlink:title="object" target="_parent">
<polygon fill="linen" stroke="black" points="67,-108 11,-108 11,-72 73,-72 73,-102 67,-108"/>
<polyline fill="none" stroke="black" points="67,-108 67,-102 "/>
<polyline fill="none" stroke="black" points="73,-102 67,-102 "/>
<text text-anchor="middle" x="42" y="-86.9" font-family="Source Code Pro,monospace" font-size="12.00">object</text>
</a>
</g>
</g>
<!-- condition -->
<g id="node2" class="node">
<title>condition</title>
<g id="a_node2"><a xlink:href="PsyllaReference_Types.xhtml#PsyllaReference_Types_Details_condition" xlink:title="condition" target="_parent">
<polygon fill="wheat" stroke="black" points="78,-36 0,-36 0,0 84,0 84,-30 78,-36"/>
<polyline fill="none" stroke="black" points="78,-36 78,-30 "/>
<polyline fill="none" stroke="black" points="84,-30 78,-30 "/>
<text text-anchor="middle" x="42" y="-14.9" font-family="Source Code Pro,monospace" font-size="12.00">condition</text>
</a>
</g>
</g>
<!-- object&#45;&gt;condition -->
<g id="edge1" class="edge">
<title>object&#45;&gt;condition</title>
<path fill="none" stroke="black" d="M42,-71.7C42,-63.98 42,-54.71 42,-46.11"/>
<polygon fill="black" stroke="black" points="45.5,-46.1 42,-36.1 38.5,-46.1 45.5,-46.1"/>
</g>
</g>
</svg>
