<?xml version="1.0" encoding="UTF-8" standalone="no"?>
<!DOCTYPE svg PUBLIC "-//W3C//DTD SVG 1.1//EN"
 "http://www.w3.org/Graphics/SVG/1.1/DTD/svg11.dtd">
<!-- Generated by graphviz version 2.43.0 (0)
 -->
<!-- Title: dict Pages: 1 -->
<svg width="378pt" height="476pt"
 viewBox="0.00 0.00 378.00 476.00" xmlns="http://www.w3.org/2000/svg" xmlns:xlink="http://www.w3.org/1999/xlink">
<g id="graph0" class="graph" transform="scale(1 1) rotate(0) translate(4 472)">
<title>dict</title>
<polygon fill="transparent" stroke="transparent" points="-4,4 -4,-472 374,-472 374,4 -4,4"/>
<!-- formaldict -->
<g id="node1" class="node">
<title>formaldict</title>
<g id="a_node1"><a xlink:href="PsyllaReference_Types.xhtml#PsyllaReference_Types_Details_formaldict" xlink:title="formaldict" target="_parent">
<polygon fill="linen" stroke="black" points="137.5,-108 51.5,-108 51.5,-72 143.5,-72 143.5,-102 137.5,-108"/>
<polyline fill="none" stroke="black" points="137.5,-108 137.5,-102 "/>
<polyline fill="none" stroke="black" points="143.5,-102 137.5,-102 "/>
<text text-anchor="middle" x="97.5" y="-86.9" font-family="PT Mono, monospace" font-size="12.00">formaldict</text>
</a>
</g>
</g>
<!-- dict -->
<g id="node2" class="node">
<title>dict</title>
<g id="a_node2"><a xlink:href="PsyllaReference_Types.xhtml#PsyllaReference_Types_Details_dict" xlink:title="dict" target="_parent">
<polygon fill="wheat" stroke="black" points="118.5,-36 70.5,-36 70.5,0 124.5,0 124.5,-30 118.5,-36"/>
<polyline fill="none" stroke="black" points="118.5,-36 118.5,-30 "/>
<polyline fill="none" stroke="black" points="124.5,-30 118.5,-30 "/>
<text text-anchor="middle" x="97.5" y="-14.9" font-family="PT Mono, monospace" font-size="12.00">dict</text>
</a>
</g>
</g>
<!-- formaldict&#45;&gt;dict -->
<g id="edge1" class="edge">
<title>formaldict&#45;&gt;dict</title>
<path fill="none" stroke="black" d="M97.5,-71.7C97.5,-63.98 97.5,-54.71 97.5,-46.11"/>
<polygon fill="black" stroke="black" points="101,-46.1 97.5,-36.1 94,-46.1 101,-46.1"/>
</g>
<!-- container -->
<g id="node3" class="node">
<title>container</title>
<g id="a_node3"><a xlink:href="PsyllaReference_Types.xhtml#PsyllaReference_Types_Details_container" xlink:title="container" target="_parent">
<polygon fill="linen" stroke="black" points="264.5,-180 186.5,-180 186.5,-144 270.5,-144 270.5,-174 264.5,-180"/>
<polyline fill="none" stroke="black" points="264.5,-180 264.5,-174 "/>
<polyline fill="none" stroke="black" points="270.5,-174 264.5,-174 "/>
<text text-anchor="middle" x="228.5" y="-158.9" font-family="PT Mono, monospace" font-size="12.00">container</text>
</a>
</g>
</g>
<!-- container&#45;&gt;formaldict -->
<g id="edge2" class="edge">
<title>container&#45;&gt;formaldict</title>
<path fill="none" stroke="black" d="M196.45,-143.88C179.01,-134.55 157.23,-122.92 138.56,-112.94"/>
<polygon fill="black" stroke="black" points="140.14,-109.82 129.67,-108.19 136.84,-115.99 140.14,-109.82"/>
</g>
<!-- indexed -->
<g id="node4" class="node">
<title>indexed</title>
<g id="a_node4"><a xlink:href="PsyllaReference_Types.xhtml#PsyllaReference_Types_Details_indexed" xlink:title="indexed" target="_parent">
<polygon fill="linen" stroke="black" points="63,-252 0,-252 0,-216 69,-216 69,-246 63,-252"/>
<polyline fill="none" stroke="black" points="63,-252 63,-246 "/>
<polyline fill="none" stroke="black" points="69,-246 63,-246 "/>
<text text-anchor="middle" x="34.5" y="-230.9" font-family="PT Mono, monospace" font-size="12.00">indexed</text>
</a>
</g>
</g>
<!-- indexed&#45;&gt;formaldict -->
<g id="edge3" class="edge">
<title>indexed&#45;&gt;formaldict</title>
<path fill="none" stroke="black" d="M42.1,-215.87C52.93,-191.46 72.91,-146.43 85.68,-117.64"/>
<polygon fill="black" stroke="black" points="89.02,-118.75 89.87,-108.19 82.62,-115.91 89.02,-118.75"/>
</g>
<!-- sequential -->
<g id="node5" class="node">
<title>sequential</title>
<g id="a_node5"><a xlink:href="PsyllaReference_Types.xhtml#PsyllaReference_Types_Details_sequential" xlink:title="sequential" target="_parent">
<polygon fill="linen" stroke="black" points="211.5,-396 125.5,-396 125.5,-360 217.5,-360 217.5,-390 211.5,-396"/>
<polyline fill="none" stroke="black" points="211.5,-396 211.5,-390 "/>
<polyline fill="none" stroke="black" points="217.5,-390 211.5,-390 "/>
<text text-anchor="middle" x="171.5" y="-374.9" font-family="PT Mono, monospace" font-size="12.00">sequential</text>
</a>
</g>
</g>
<!-- sequential&#45;&gt;formaldict -->
<g id="edge4" class="edge">
<title>sequential&#45;&gt;formaldict</title>
<path fill="none" stroke="black" d="M146.91,-359.96C135.62,-350.71 123.26,-338.26 116.5,-324 84.14,-255.73 88.79,-163.55 93.74,-118.32"/>
<polygon fill="black" stroke="black" points="97.25,-118.48 94.95,-108.14 90.3,-117.65 97.25,-118.48"/>
</g>
<!-- streamable -->
<g id="node10" class="node">
<title>streamable</title>
<g id="a_node10"><a xlink:href="PsyllaReference_Types.xhtml#PsyllaReference_Types_Details_streamable" xlink:title="streamable" target="_parent">
<polygon fill="linen" stroke="black" points="211.5,-324 125.5,-324 125.5,-288 217.5,-288 217.5,-318 211.5,-324"/>
<polyline fill="none" stroke="black" points="211.5,-324 211.5,-318 "/>
<polyline fill="none" stroke="black" points="217.5,-318 211.5,-318 "/>
<text text-anchor="middle" x="171.5" y="-302.9" font-family="PT Mono, monospace" font-size="12.00">streamable</text>
</a>
</g>
</g>
<!-- sequential&#45;&gt;streamable -->
<g id="edge13" class="edge">
<title>sequential&#45;&gt;streamable</title>
<path fill="none" stroke="black" d="M171.5,-359.7C171.5,-351.98 171.5,-342.71 171.5,-334.11"/>
<polygon fill="black" stroke="black" points="175,-334.1 171.5,-324.1 168,-334.1 175,-334.1"/>
</g>
<!-- clearable -->
<g id="node6" class="node">
<title>clearable</title>
<g id="a_node6"><a xlink:href="PsyllaReference_Types.xhtml#PsyllaReference_Types_Details_clearable" xlink:title="clearable" target="_parent">
<polygon fill="linen" stroke="black" points="313.5,-324 235.5,-324 235.5,-288 319.5,-288 319.5,-318 313.5,-324"/>
<polyline fill="none" stroke="black" points="313.5,-324 313.5,-318 "/>
<polyline fill="none" stroke="black" points="319.5,-318 313.5,-318 "/>
<text text-anchor="middle" x="277.5" y="-302.9" font-family="PT Mono, monospace" font-size="12.00">clearable</text>
</a>
</g>
</g>
<!-- clearable&#45;&gt;container -->
<g id="edge5" class="edge">
<title>clearable&#45;&gt;container</title>
<path fill="none" stroke="black" d="M271.59,-287.87C263.2,-263.56 247.76,-218.82 237.82,-190.01"/>
<polygon fill="black" stroke="black" points="241,-188.5 234.43,-180.19 234.38,-190.78 241,-188.5"/>
</g>
<!-- iterable -->
<g id="node7" class="node">
<title>iterable</title>
<g id="a_node7"><a xlink:href="PsyllaReference_Types.xhtml#PsyllaReference_Types_Details_iterable" xlink:title="iterable" target="_parent">
<polygon fill="linen" stroke="black" points="223,-252 152,-252 152,-216 229,-216 229,-246 223,-252"/>
<polyline fill="none" stroke="black" points="223,-252 223,-246 "/>
<polyline fill="none" stroke="black" points="229,-246 223,-246 "/>
<text text-anchor="middle" x="190.5" y="-230.9" font-family="PT Mono, monospace" font-size="12.00">iterable</text>
</a>
</g>
</g>
<!-- iterable&#45;&gt;container -->
<g id="edge6" class="edge">
<title>iterable&#45;&gt;container</title>
<path fill="none" stroke="black" d="M199.89,-215.7C204.26,-207.64 209.56,-197.89 214.4,-188.98"/>
<polygon fill="black" stroke="black" points="217.52,-190.56 219.21,-180.1 211.37,-187.22 217.52,-190.56"/>
</g>
<!-- lengthy -->
<g id="node8" class="node">
<title>lengthy</title>
<g id="a_node8"><a xlink:href="PsyllaReference_Types.xhtml#PsyllaReference_Types_Details_lengthy" xlink:title="lengthy" target="_parent">
<polygon fill="linen" stroke="black" points="364,-396 301,-396 301,-360 370,-360 370,-390 364,-396"/>
<polyline fill="none" stroke="black" points="364,-396 364,-390 "/>
<polyline fill="none" stroke="black" points="370,-390 364,-390 "/>
<text text-anchor="middle" x="335.5" y="-374.9" font-family="PT Mono, monospace" font-size="12.00">lengthy</text>
</a>
</g>
</g>
<!-- lengthy&#45;&gt;container -->
<g id="edge7" class="edge">
<title>lengthy&#45;&gt;container</title>
<path fill="none" stroke="black" d="M337.06,-359.94C338.09,-341.51 337.85,-311.64 328.5,-288 312.64,-247.89 279.25,-210.47 255.42,-187.22"/>
<polygon fill="black" stroke="black" points="257.7,-184.56 248.06,-180.19 252.87,-189.62 257.7,-184.56"/>
</g>
<!-- object -->
<g id="node9" class="node">
<title>object</title>
<g id="a_node9"><a xlink:href="PsyllaReference_Types.xhtml#PsyllaReference_Types_Details_object" xlink:title="object" target="_parent">
<polygon fill="linen" stroke="black" points="233.5,-468 177.5,-468 177.5,-432 239.5,-432 239.5,-462 233.5,-468"/>
<polyline fill="none" stroke="black" points="233.5,-468 233.5,-462 "/>
<polyline fill="none" stroke="black" points="239.5,-462 233.5,-462 "/>
<text text-anchor="middle" x="208.5" y="-446.9" font-family="PT Mono, monospace" font-size="12.00">object</text>
</a>
</g>
</g>
<!-- object&#45;&gt;indexed -->
<g id="edge8" class="edge">
<title>object&#45;&gt;indexed</title>
<path fill="none" stroke="black" d="M177.32,-436.56C157.92,-427.59 133.51,-413.91 116.5,-396 79.01,-356.53 54.67,-296.58 42.87,-262.06"/>
<polygon fill="black" stroke="black" points="46.08,-260.61 39.62,-252.22 39.43,-262.81 46.08,-260.61"/>
</g>
<!-- object&#45;&gt;sequential -->
<g id="edge9" class="edge">
<title>object&#45;&gt;sequential</title>
<path fill="none" stroke="black" d="M199.35,-431.7C195.1,-423.64 189.94,-413.89 185.23,-404.98"/>
<polygon fill="black" stroke="black" points="188.31,-403.31 180.54,-396.1 182.12,-406.58 188.31,-403.31"/>
</g>
<!-- object&#45;&gt;clearable -->
<g id="edge10" class="edge">
<title>object&#45;&gt;clearable</title>
<path fill="none" stroke="black" d="M216.82,-431.87C228.74,-407.35 250.76,-362.03 264.74,-333.26"/>
<polygon fill="black" stroke="black" points="267.92,-334.71 269.15,-324.19 261.63,-331.65 267.92,-334.71"/>
</g>
<!-- object&#45;&gt;lengthy -->
<g id="edge12" class="edge">
<title>object&#45;&gt;lengthy</title>
<path fill="none" stroke="black" d="M239.57,-431.88C256.33,-422.64 277.21,-411.13 295.2,-401.21"/>
<polygon fill="black" stroke="black" points="297.24,-404.08 304.31,-396.19 293.87,-397.95 297.24,-404.08"/>
</g>
<!-- streamable&#45;&gt;iterable -->
<g id="edge11" class="edge">
<title>streamable&#45;&gt;iterable</title>
<path fill="none" stroke="black" d="M176.2,-287.7C178.31,-279.9 180.86,-270.51 183.22,-261.83"/>
<polygon fill="black" stroke="black" points="186.62,-262.67 185.86,-252.1 179.86,-260.84 186.62,-262.67"/>
</g>
</g>
</svg>
