<?xml version="1.0" encoding="UTF-8" standalone="no"?>
<!DOCTYPE svg PUBLIC "-//W3C//DTD SVG 1.1//EN"
 "http://www.w3.org/Graphics/SVG/1.1/DTD/svg11.dtd">
<!-- Generated by graphviz version 2.43.0 (0)
 -->
<!-- Title: array Pages: 1 -->
<svg width="586pt" height="476pt"
 viewBox="0.00 0.00 586.00 476.00" xmlns="http://www.w3.org/2000/svg" xmlns:xlink="http://www.w3.org/1999/xlink">
<g id="graph0" class="graph" transform="scale(1 1) rotate(0) translate(4 472)">
<title>array</title>
<polygon fill="transparent" stroke="transparent" points="-4,4 -4,-472 582,-472 582,4 -4,4"/>
<!-- formalarray -->
<g id="node1" class="node">
<title>formalarray</title>
<g id="a_node1"><a xlink:href="PsyllaReference_Types.xhtml#PsyllaReference_Types_Details_formalarray" xlink:title="formalarray" target="_parent">
<polygon fill="linen" stroke="black" points="269,-108 126,-108 126,-72 275,-72 275,-102 269,-108"/>
<polyline fill="none" stroke="black" points="269,-108 269,-102 "/>
<polyline fill="none" stroke="black" points="275,-102 269,-102 "/>
<text text-anchor="middle" x="200.5" y="-85" font-family="PT Mono, monospace" font-size="20.00">formalarray</text>
</a>
</g>
</g>
<!-- array -->
<g id="node2" class="node">
<title>array</title>
<g id="a_node2"><a xlink:href="PsyllaReference_Types.xhtml#PsyllaReference_Types_Details_array" xlink:title="array" target="_parent">
<polygon fill="wheat" stroke="black" points="233,-36 162,-36 162,0 239,0 239,-30 233,-36"/>
<polyline fill="none" stroke="black" points="233,-36 233,-30 "/>
<polyline fill="none" stroke="black" points="239,-30 233,-30 "/>
<text text-anchor="middle" x="200.5" y="-13" font-family="PT Mono, monospace" font-size="20.00">array</text>
</a>
</g>
</g>
<!-- formalarray&#45;&gt;array -->
<g id="edge1" class="edge">
<title>formalarray&#45;&gt;array</title>
<path fill="none" stroke="black" d="M200.5,-71.7C200.5,-63.98 200.5,-54.71 200.5,-46.11"/>
<polygon fill="black" stroke="black" points="204,-46.1 200.5,-36.1 197,-46.1 204,-46.1"/>
</g>
<!-- appendable -->
<g id="node3" class="node">
<title>appendable</title>
<g id="a_node3"><a xlink:href="PsyllaReference_Types.xhtml#PsyllaReference_Types_Details_appendable" xlink:title="appendable" target="_parent">
<polygon fill="linen" stroke="black" points="131,-324 0,-324 0,-288 137,-288 137,-318 131,-324"/>
<polyline fill="none" stroke="black" points="131,-324 131,-318 "/>
<polyline fill="none" stroke="black" points="137,-318 131,-318 "/>
<text text-anchor="middle" x="68.5" y="-301" font-family="PT Mono, monospace" font-size="20.00">appendable</text>
</a>
</g>
</g>
<!-- appendable&#45;&gt;formalarray -->
<g id="edge2" class="edge">
<title>appendable&#45;&gt;formalarray</title>
<path fill="none" stroke="black" d="M67.99,-287.7C68.11,-269.08 70.29,-239.03 81.5,-216 101.79,-174.31 141.02,-137.36 168.89,-114.64"/>
<polygon fill="black" stroke="black" points="171.15,-117.31 176.78,-108.34 166.78,-111.84 171.15,-117.31"/>
</g>
<!-- container -->
<g id="node4" class="node">
<title>container</title>
<g id="a_node4"><a xlink:href="PsyllaReference_Types.xhtml#PsyllaReference_Types_Details_container" xlink:title="container" target="_parent">
<polygon fill="linen" stroke="black" points="456,-180 337,-180 337,-144 462,-144 462,-174 456,-180"/>
<polyline fill="none" stroke="black" points="456,-180 456,-174 "/>
<polyline fill="none" stroke="black" points="462,-174 456,-174 "/>
<text text-anchor="middle" x="399.5" y="-157" font-family="PT Mono, monospace" font-size="20.00">container</text>
</a>
</g>
</g>
<!-- container&#45;&gt;formalarray -->
<g id="edge3" class="edge">
<title>container&#45;&gt;formalarray</title>
<path fill="none" stroke="black" d="M351.07,-143.97C323.27,-134.19 288.16,-121.84 258.85,-111.52"/>
<polygon fill="black" stroke="black" points="259.74,-108.13 249.14,-108.11 257.42,-114.73 259.74,-108.13"/>
</g>
<!-- indexed -->
<g id="node5" class="node">
<title>indexed</title>
<g id="a_node5"><a xlink:href="PsyllaReference_Types.xhtml#PsyllaReference_Types_Details_indexed" xlink:title="indexed" target="_parent">
<polygon fill="linen" stroke="black" points="186,-252 91,-252 91,-216 192,-216 192,-246 186,-252"/>
<polyline fill="none" stroke="black" points="186,-252 186,-246 "/>
<polyline fill="none" stroke="black" points="192,-246 186,-246 "/>
<text text-anchor="middle" x="141.5" y="-229" font-family="PT Mono, monospace" font-size="20.00">indexed</text>
</a>
</g>
</g>
<!-- indexed&#45;&gt;formalarray -->
<g id="edge4" class="edge">
<title>indexed&#45;&gt;formalarray</title>
<path fill="none" stroke="black" d="M148.62,-215.87C158.76,-191.46 177.47,-146.43 189.43,-117.64"/>
<polygon fill="black" stroke="black" points="192.75,-118.77 193.36,-108.19 186.29,-116.08 192.75,-118.77"/>
</g>
<!-- sequential -->
<g id="node6" class="node">
<title>sequential</title>
<g id="a_node6"><a xlink:href="PsyllaReference_Types.xhtml#PsyllaReference_Types_Details_sequential" xlink:title="sequential" target="_parent">
<polygon fill="linen" stroke="black" points="355,-396 224,-396 224,-360 361,-360 361,-390 355,-396"/>
<polyline fill="none" stroke="black" points="355,-396 355,-390 "/>
<polyline fill="none" stroke="black" points="361,-390 355,-390 "/>
<text text-anchor="middle" x="292.5" y="-373" font-family="PT Mono, monospace" font-size="20.00">sequential</text>
</a>
</g>
</g>
<!-- sequential&#45;&gt;formalarray -->
<g id="edge5" class="edge">
<title>sequential&#45;&gt;formalarray</title>
<path fill="none" stroke="black" d="M269.57,-359.77C258.74,-350.4 246.65,-337.88 239.5,-324 204.54,-256.13 199.8,-163.76 199.82,-118.41"/>
<polygon fill="black" stroke="black" points="203.32,-118.22 199.9,-108.19 196.32,-118.16 203.32,-118.22"/>
</g>
<!-- streamable -->
<g id="node11" class="node">
<title>streamable</title>
<g id="a_node11"><a xlink:href="PsyllaReference_Types.xhtml#PsyllaReference_Types_Details_streamable" xlink:title="streamable" target="_parent">
<polygon fill="linen" stroke="black" points="380,-324 249,-324 249,-288 386,-288 386,-318 380,-324"/>
<polyline fill="none" stroke="black" points="380,-324 380,-318 "/>
<polyline fill="none" stroke="black" points="386,-318 380,-318 "/>
<text text-anchor="middle" x="317.5" y="-301" font-family="PT Mono, monospace" font-size="20.00">streamable</text>
</a>
</g>
</g>
<!-- sequential&#45;&gt;streamable -->
<g id="edge15" class="edge">
<title>sequential&#45;&gt;streamable</title>
<path fill="none" stroke="black" d="M298.68,-359.7C301.5,-351.81 304.89,-342.3 308.02,-333.55"/>
<polygon fill="black" stroke="black" points="311.32,-334.7 311.39,-324.1 304.73,-332.34 311.32,-334.7"/>
</g>
<!-- object -->
<g id="node7" class="node">
<title>object</title>
<g id="a_node7"><a xlink:href="PsyllaReference_Types.xhtml#PsyllaReference_Types_Details_object" xlink:title="object" target="_parent">
<polygon fill="linen" stroke="black" points="331,-468 248,-468 248,-432 337,-432 337,-462 331,-468"/>
<polyline fill="none" stroke="black" points="331,-468 331,-462 "/>
<polyline fill="none" stroke="black" points="337,-462 331,-462 "/>
<text text-anchor="middle" x="292.5" y="-445" font-family="PT Mono, monospace" font-size="20.00">object</text>
</a>
</g>
</g>
<!-- object&#45;&gt;appendable -->
<g id="edge6" class="edge">
<title>object&#45;&gt;appendable</title>
<path fill="none" stroke="black" d="M247.77,-435.39C221.73,-426.36 188.93,-413.04 162.5,-396 134.61,-378.02 107.62,-351.17 89.77,-331.67"/>
<polygon fill="black" stroke="black" points="92.23,-329.16 82.94,-324.07 87.02,-333.84 92.23,-329.16"/>
</g>
<!-- object&#45;&gt;indexed -->
<g id="edge10" class="edge">
<title>object&#45;&gt;indexed</title>
<path fill="none" stroke="black" d="M259.01,-431.82C243.89,-422.77 226.73,-410.53 214.5,-396 180.28,-355.36 158.96,-296.07 148.74,-261.93"/>
<polygon fill="black" stroke="black" points="152.07,-260.83 145.93,-252.2 145.34,-262.77 152.07,-260.83"/>
</g>
<!-- object&#45;&gt;sequential -->
<g id="edge11" class="edge">
<title>object&#45;&gt;sequential</title>
<path fill="none" stroke="black" d="M292.5,-431.7C292.5,-423.98 292.5,-414.71 292.5,-406.11"/>
<polygon fill="black" stroke="black" points="296,-406.1 292.5,-396.1 289,-406.1 296,-406.1"/>
</g>
<!-- clearable -->
<g id="node8" class="node">
<title>clearable</title>
<g id="a_node8"><a xlink:href="PsyllaReference_Types.xhtml#PsyllaReference_Types_Details_clearable" xlink:title="clearable" target="_parent">
<polygon fill="linen" stroke="black" points="523,-324 404,-324 404,-288 529,-288 529,-318 523,-324"/>
<polyline fill="none" stroke="black" points="523,-324 523,-318 "/>
<polyline fill="none" stroke="black" points="529,-318 523,-318 "/>
<text text-anchor="middle" x="466.5" y="-301" font-family="PT Mono, monospace" font-size="20.00">clearable</text>
</a>
</g>
</g>
<!-- object&#45;&gt;clearable -->
<g id="edge12" class="edge">
<title>object&#45;&gt;clearable</title>
<path fill="none" stroke="black" d="M319.17,-431.97C334.3,-421.99 353.38,-408.84 369.5,-396 395.27,-375.48 422.77,-349.85 441.88,-331.37"/>
<polygon fill="black" stroke="black" points="444.55,-333.66 449.28,-324.17 439.67,-328.64 444.55,-333.66"/>
</g>
<!-- lengthy -->
<g id="node10" class="node">
<title>lengthy</title>
<g id="a_node10"><a xlink:href="PsyllaReference_Types.xhtml#PsyllaReference_Types_Details_lengthy" xlink:title="lengthy" target="_parent">
<polygon fill="linen" stroke="black" points="572,-396 477,-396 477,-360 578,-360 578,-390 572,-396"/>
<polyline fill="none" stroke="black" points="572,-396 572,-390 "/>
<polyline fill="none" stroke="black" points="578,-390 572,-390 "/>
<text text-anchor="middle" x="527.5" y="-373" font-family="PT Mono, monospace" font-size="20.00">lengthy</text>
</a>
</g>
</g>
<!-- object&#45;&gt;lengthy -->
<g id="edge14" class="edge">
<title>object&#45;&gt;lengthy</title>
<path fill="none" stroke="black" d="M337.25,-435.67C374.04,-424.71 426.51,-409.08 467.03,-397.01"/>
<polygon fill="black" stroke="black" points="468.21,-400.31 476.79,-394.1 466.21,-393.6 468.21,-400.31"/>
</g>
<!-- clearable&#45;&gt;container -->
<g id="edge7" class="edge">
<title>clearable&#45;&gt;container</title>
<path fill="none" stroke="black" d="M458.42,-287.87C446.85,-263.35 425.47,-218.03 411.89,-189.26"/>
<polygon fill="black" stroke="black" points="415.04,-187.74 407.61,-180.19 408.71,-190.73 415.04,-187.74"/>
</g>
<!-- iterable -->
<g id="node9" class="node">
<title>iterable</title>
<g id="a_node9"><a xlink:href="PsyllaReference_Types.xhtml#PsyllaReference_Types_Details_iterable" xlink:title="iterable" target="_parent">
<polygon fill="linen" stroke="black" points="400,-252 293,-252 293,-216 406,-216 406,-246 400,-252"/>
<polyline fill="none" stroke="black" points="400,-252 400,-246 "/>
<polyline fill="none" stroke="black" points="406,-246 400,-246 "/>
<text text-anchor="middle" x="349.5" y="-229" font-family="PT Mono, monospace" font-size="20.00">iterable</text>
</a>
</g>
</g>
<!-- iterable&#45;&gt;container -->
<g id="edge8" class="edge">
<title>iterable&#45;&gt;container</title>
<path fill="none" stroke="black" d="M361.86,-215.7C367.73,-207.47 374.87,-197.48 381.34,-188.42"/>
<polygon fill="black" stroke="black" points="384.32,-190.28 387.28,-180.1 378.62,-186.21 384.32,-190.28"/>
</g>
<!-- lengthy&#45;&gt;container -->
<g id="edge9" class="edge">
<title>lengthy&#45;&gt;container</title>
<path fill="none" stroke="black" d="M534.45,-359.81C540.83,-341.28 547.84,-311.31 537.5,-288 517.47,-242.83 472.17,-207.04 438.91,-185.53"/>
<polygon fill="black" stroke="black" points="440.63,-182.48 430.31,-180.11 436.9,-188.4 440.63,-182.48"/>
</g>
<!-- streamable&#45;&gt;iterable -->
<g id="edge13" class="edge">
<title>streamable&#45;&gt;iterable</title>
<path fill="none" stroke="black" d="M325.41,-287.7C329.05,-279.73 333.45,-270.1 337.49,-261.26"/>
<polygon fill="black" stroke="black" points="340.71,-262.65 341.68,-252.1 334.34,-259.74 340.71,-262.65"/>
</g>
</g>
</svg>
