<?xml version="1.0" encoding="UTF-8" standalone="no"?>
<!DOCTYPE svg PUBLIC "-//W3C//DTD SVG 1.1//EN"
 "http://www.w3.org/Graphics/SVG/1.1/DTD/svg11.dtd">
<!-- Generated by graphviz version 14.0.0 (0)
 -->
<!-- Title: numeric Pages: 1 -->
<svg width="218pt" height="260pt"
 viewBox="0.00 0.00 218.00 260.00" xmlns="http://www.w3.org/2000/svg" xmlns:xlink="http://www.w3.org/1999/xlink">
<g id="graph0" class="graph" transform="scale(1 1) rotate(0) translate(4 256)">
<title>numeric</title>
<polygon fill="none" stroke="none" points="-4,4 -4,-256 214.33,-256 214.33,4 -4,4"/>
<!-- arithmetic -->
<g id="node1" class="node">
<title>arithmetic</title>
<g id="a_node1"><a xlink:href="PsyllaReference_Types.xhtml#PsyllaReference_Types_Details_arithmetic" xlink:title="arithmetic" target="_parent">
<polygon fill="linen" stroke="black" points="130.32,-108 71.68,-108 71.68,-72 136.32,-72 136.32,-102 130.32,-108"/>
<polyline fill="none" stroke="black" points="130.32,-108 130.32,-102"/>
<polyline fill="none" stroke="black" points="136.32,-102 130.32,-102"/>
<text xml:space="preserve" text-anchor="middle" x="104" y="-86.4" font-family="Source Code Pro,monospace" font-size="12.00">arithmetic</text>
</a>
</g>
</g>
<!-- numeric -->
<g id="node3" class="node">
<title>numeric</title>
<g id="a_node3"><a xlink:href="PsyllaReference_Types.xhtml#PsyllaReference_Types_Details_numeric" xlink:title="numeric" target="_parent">
<polygon fill="wheat" stroke="black" points="86.66,-36 37.34,-36 37.34,0 92.66,0 92.66,-30 86.66,-36"/>
<polyline fill="none" stroke="black" points="86.66,-36 86.66,-30"/>
<polyline fill="none" stroke="black" points="92.66,-30 86.66,-30"/>
<text xml:space="preserve" text-anchor="middle" x="65" y="-14.4" font-family="Source Code Pro,monospace" font-size="12.00">numeric</text>
</a>
</g>
</g>
<!-- arithmetic&#45;&gt;numeric -->
<g id="edge1" class="edge">
<title>arithmetic&#45;&gt;numeric</title>
<path fill="none" stroke="black" d="M94.36,-71.7C90.06,-63.98 84.9,-54.71 80.11,-46.11"/>
<polygon fill="black" stroke="black" points="83.19,-44.46 75.27,-37.43 77.08,-47.87 83.19,-44.46"/>
</g>
<!-- value -->
<g id="node2" class="node">
<title>value</title>
<g id="a_node2"><a xlink:href="PsyllaReference_Types.xhtml#PsyllaReference_Types_Details_value" xlink:title="value" target="_parent">
<polygon fill="linen" stroke="black" points="48,-108 0,-108 0,-72 54,-72 54,-102 48,-108"/>
<polyline fill="none" stroke="black" points="48,-108 48,-102"/>
<polyline fill="none" stroke="black" points="54,-102 48,-102"/>
<text xml:space="preserve" text-anchor="middle" x="27" y="-86.4" font-family="Source Code Pro,monospace" font-size="12.00">value</text>
</a>
</g>
</g>
<!-- value&#45;&gt;numeric -->
<g id="edge2" class="edge">
<title>value&#45;&gt;numeric</title>
<path fill="none" stroke="black" d="M36.39,-71.7C40.58,-63.98 45.61,-54.71 50.28,-46.11"/>
<polygon fill="black" stroke="black" points="53.3,-47.89 54.99,-37.43 47.15,-44.55 53.3,-47.89"/>
</g>
<!-- additive -->
<g id="node4" class="node">
<title>additive</title>
<g id="a_node4"><a xlink:href="PsyllaReference_Types.xhtml#PsyllaReference_Types_Details_additive" xlink:title="additive" target="_parent">
<polygon fill="linen" stroke="black" points="103.33,-180 54.67,-180 54.67,-144 109.33,-144 109.33,-174 103.33,-180"/>
<polyline fill="none" stroke="black" points="103.33,-180 103.33,-174"/>
<polyline fill="none" stroke="black" points="109.33,-174 103.33,-174"/>
<text xml:space="preserve" text-anchor="middle" x="82" y="-158.4" font-family="Source Code Pro,monospace" font-size="12.00">additive</text>
</a>
</g>
</g>
<!-- additive&#45;&gt;arithmetic -->
<g id="edge3" class="edge">
<title>additive&#45;&gt;arithmetic</title>
<path fill="none" stroke="black" d="M87.44,-143.7C89.78,-136.24 92.58,-127.32 95.21,-118.97"/>
<polygon fill="black" stroke="black" points="98.51,-120.14 98.17,-109.55 91.83,-118.04 98.51,-120.14"/>
</g>
<!-- multiplicative -->
<g id="node5" class="node">
<title>multiplicative</title>
<g id="a_node5"><a xlink:href="PsyllaReference_Types.xhtml#PsyllaReference_Types_Details_multiplicative" xlink:title="multiplicative" target="_parent">
<polygon fill="linen" stroke="black" points="204.33,-180 127.67,-180 127.67,-144 210.33,-144 210.33,-174 204.33,-180"/>
<polyline fill="none" stroke="black" points="204.33,-180 204.33,-174"/>
<polyline fill="none" stroke="black" points="210.33,-174 204.33,-174"/>
<text xml:space="preserve" text-anchor="middle" x="169" y="-158.4" font-family="Source Code Pro,monospace" font-size="12.00">multiplicative</text>
</a>
</g>
</g>
<!-- multiplicative&#45;&gt;arithmetic -->
<g id="edge4" class="edge">
<title>multiplicative&#45;&gt;arithmetic</title>
<path fill="none" stroke="black" d="M152.93,-143.7C145.3,-135.47 136.02,-125.48 127.6,-116.42"/>
<polygon fill="black" stroke="black" points="130.28,-114.16 120.91,-109.21 125.15,-118.92 130.28,-114.16"/>
</g>
<!-- object -->
<g id="node6" class="node">
<title>object</title>
<g id="a_node6"><a xlink:href="PsyllaReference_Types.xhtml#PsyllaReference_Types_Details_object" xlink:title="object" target="_parent">
<polygon fill="linen" stroke="black" points="103,-252 55,-252 55,-216 109,-216 109,-246 103,-252"/>
<polyline fill="none" stroke="black" points="103,-252 103,-246"/>
<polyline fill="none" stroke="black" points="109,-246 103,-246"/>
<text xml:space="preserve" text-anchor="middle" x="82" y="-230.4" font-family="Source Code Pro,monospace" font-size="12.00">object</text>
</a>
</g>
</g>
<!-- object&#45;&gt;value -->
<g id="edge5" class="edge">
<title>object&#45;&gt;value</title>
<path fill="none" stroke="black" d="M67.84,-215.85C60.31,-205.93 51.5,-192.89 46,-180 37.74,-160.66 32.94,-137.38 30.23,-119.48"/>
<polygon fill="black" stroke="black" points="33.73,-119.26 28.9,-109.83 26.79,-120.21 33.73,-119.26"/>
</g>
<!-- object&#45;&gt;additive -->
<g id="edge6" class="edge">
<title>object&#45;&gt;additive</title>
<path fill="none" stroke="black" d="M82,-215.7C82,-208.41 82,-199.73 82,-191.54"/>
<polygon fill="black" stroke="black" points="85.5,-191.62 82,-181.62 78.5,-191.62 85.5,-191.62"/>
</g>
<!-- object&#45;&gt;multiplicative -->
<g id="edge7" class="edge">
<title>object&#45;&gt;multiplicative</title>
<path fill="none" stroke="black" d="M103.51,-215.7C114.07,-207.2 126.98,-196.81 138.53,-187.51"/>
<polygon fill="black" stroke="black" points="140.66,-190.29 146.26,-181.3 136.28,-184.84 140.66,-190.29"/>
</g>
</g>
</svg>
