<?xml version="1.0" encoding="UTF-8" standalone="no"?>
<!DOCTYPE svg PUBLIC "-//W3C//DTD SVG 1.1//EN"
 "http://www.w3.org/Graphics/SVG/1.1/DTD/svg11.dtd">
<!-- Generated by graphviz version 14.0.0 (0)
 -->
<!-- Title: stringbuffer Pages: 1 -->
<svg width="724pt" height="476pt"
 viewBox="0.00 0.00 724.00 476.00" xmlns="http://www.w3.org/2000/svg" xmlns:xlink="http://www.w3.org/1999/xlink">
<g id="graph0" class="graph" transform="scale(1 1) rotate(0) translate(4 472)">
<title>stringbuffer</title>
<polygon fill="none" stroke="none" points="-4,4 -4,-472 719.98,-472 719.98,4 -4,4"/>
<!-- textual -->
<g id="node1" class="node">
<title>textual</title>
<g id="a_node1"><a xlink:href="PsyllaReference_Types.xhtml#PsyllaReference_Types_Details_textual" xlink:title="textual" target="_parent">
<polygon fill="linen" stroke="black" points="355.98,-180 307.98,-180 307.98,-144 361.98,-144 361.98,-174 355.98,-180"/>
<polyline fill="none" stroke="black" points="355.98,-180 355.98,-174"/>
<polyline fill="none" stroke="black" points="361.98,-174 355.98,-174"/>
<text xml:space="preserve" text-anchor="middle" x="334.98" y="-158.4" font-family="Source Code Pro,monospace" font-size="12.00">textual</text>
</a>
</g>
</g>
<!-- stringbuffer -->
<g id="node3" class="node">
<title>stringbuffer</title>
<g id="a_node3"><a xlink:href="PsyllaReference_Types.xhtml#PsyllaReference_Types_Details_stringbuffer" xlink:title="stringbuffer" target="_parent">
<polygon fill="wheat" stroke="black" points="475.3,-36 408.65,-36 408.65,0 481.3,0 481.3,-30 475.3,-36"/>
<polyline fill="none" stroke="black" points="475.3,-36 475.3,-30"/>
<polyline fill="none" stroke="black" points="481.3,-30 475.3,-30"/>
<text xml:space="preserve" text-anchor="middle" x="444.98" y="-14.4" font-family="Source Code Pro,monospace" font-size="12.00">stringbuffer</text>
</a>
</g>
</g>
<!-- textual&#45;&gt;stringbuffer -->
<g id="edge1" class="edge">
<title>textual&#45;&gt;stringbuffer</title>
<path fill="none" stroke="black" d="M348.46,-143.59C367.54,-118.97 402.53,-73.8 424.73,-45.14"/>
<polygon fill="black" stroke="black" points="427.44,-47.36 430.79,-37.31 421.9,-43.07 427.44,-47.36"/>
</g>
<!-- formalarray -->
<g id="node2" class="node">
<title>formalarray</title>
<g id="a_node2"><a xlink:href="PsyllaReference_Types.xhtml#PsyllaReference_Types_Details_formalarray" xlink:title="formalarray" target="_parent">
<polygon fill="linen" stroke="black" points="566.29,-108 499.66,-108 499.66,-72 572.29,-72 572.29,-102 566.29,-108"/>
<polyline fill="none" stroke="black" points="566.29,-108 566.29,-102"/>
<polyline fill="none" stroke="black" points="572.29,-102 566.29,-102"/>
<text xml:space="preserve" text-anchor="middle" x="535.98" y="-86.4" font-family="Source Code Pro,monospace" font-size="12.00">formalarray</text>
</a>
</g>
</g>
<!-- formalarray&#45;&gt;stringbuffer -->
<g id="edge2" class="edge">
<title>formalarray&#45;&gt;stringbuffer</title>
<path fill="none" stroke="black" d="M513.48,-71.7C502.33,-63.11 488.67,-52.61 476.49,-43.24"/>
<polygon fill="black" stroke="black" points="478.79,-40.59 468.73,-37.27 474.52,-46.14 478.79,-40.59"/>
</g>
<!-- evaluable -->
<g id="node4" class="node">
<title>evaluable</title>
<g id="a_node4"><a xlink:href="PsyllaReference_Types.xhtml#PsyllaReference_Types_Details_evaluable" xlink:title="evaluable" target="_parent">
<polygon fill="linen" stroke="black" points="165.96,-324 109.99,-324 109.99,-288 171.96,-288 171.96,-318 165.96,-324"/>
<polyline fill="none" stroke="black" points="165.96,-324 165.96,-318"/>
<polyline fill="none" stroke="black" points="171.96,-318 165.96,-318"/>
<text xml:space="preserve" text-anchor="middle" x="140.98" y="-302.4" font-family="Source Code Pro,monospace" font-size="12.00">evaluable</text>
</a>
</g>
</g>
<!-- evaluable&#45;&gt;textual -->
<g id="edge3" class="edge">
<title>evaluable&#45;&gt;textual</title>
<path fill="none" stroke="black" d="M140.93,-287.55C141.83,-267.65 146.34,-235.38 164.98,-216 199.45,-180.16 257.72,-168.43 296.27,-164.67"/>
<polygon fill="black" stroke="black" points="296.37,-168.17 306.05,-163.86 295.79,-161.2 296.37,-168.17"/>
</g>
<!-- convertabletointeger -->
<g id="node5" class="node">
<title>convertabletointeger</title>
<g id="a_node5"><a xlink:href="PsyllaReference_Types.xhtml#PsyllaReference_Types_Details_convertabletointeger" xlink:title="convertabletointeger" target="_parent">
<polygon fill="linen" stroke="black" points="282.29,-252 173.67,-252 173.67,-216 288.29,-216 288.29,-246 282.29,-252"/>
<polyline fill="none" stroke="black" points="282.29,-252 282.29,-246"/>
<polyline fill="none" stroke="black" points="288.29,-246 282.29,-246"/>
<text xml:space="preserve" text-anchor="middle" x="230.98" y="-230.4" font-family="Source Code Pro,monospace" font-size="12.00">convertabletointeger</text>
</a>
</g>
</g>
<!-- convertabletointeger&#45;&gt;textual -->
<g id="edge4" class="edge">
<title>convertabletointeger&#45;&gt;textual</title>
<path fill="none" stroke="black" d="M256.95,-215.52C269.95,-206.76 285.88,-196.04 299.95,-186.58"/>
<polygon fill="black" stroke="black" points="301.74,-189.59 308.08,-181.11 297.83,-183.79 301.74,-189.59"/>
</g>
<!-- convertabletointegral -->
<g id="node6" class="node">
<title>convertabletointegral</title>
<g id="a_node6"><a xlink:href="PsyllaReference_Types.xhtml#PsyllaReference_Types_Details_convertabletointegral" xlink:title="convertabletointegral" target="_parent">
<polygon fill="linen" stroke="black" points="339.95,-324 228,-324 228,-288 345.95,-288 345.95,-318 339.95,-324"/>
<polyline fill="none" stroke="black" points="339.95,-324 339.95,-318"/>
<polyline fill="none" stroke="black" points="345.95,-318 339.95,-318"/>
<text xml:space="preserve" text-anchor="middle" x="286.98" y="-302.4" font-family="Source Code Pro,monospace" font-size="12.00">convertabletointegral</text>
</a>
</g>
</g>
<!-- convertabletointegral&#45;&gt;textual -->
<g id="edge5" class="edge">
<title>convertabletointegral&#45;&gt;textual</title>
<path fill="none" stroke="black" d="M292.86,-287.59C301.04,-263.4 315.92,-219.36 325.63,-190.65"/>
<polygon fill="black" stroke="black" points="328.82,-192.14 328.71,-181.54 322.19,-189.9 328.82,-192.14"/>
</g>
<!-- convertabletorational -->
<g id="node7" class="node">
<title>convertabletorational</title>
<g id="a_node7"><a xlink:href="PsyllaReference_Types.xhtml#PsyllaReference_Types_Details_convertabletorational" xlink:title="convertabletorational" target="_parent">
<polygon fill="linen" stroke="black" points="111.95,-252 0,-252 0,-216 117.95,-216 117.95,-246 111.95,-252"/>
<polyline fill="none" stroke="black" points="111.95,-252 111.95,-246"/>
<polyline fill="none" stroke="black" points="117.95,-246 111.95,-246"/>
<text xml:space="preserve" text-anchor="middle" x="58.98" y="-230.4" font-family="Source Code Pro,monospace" font-size="12.00">convertabletorational</text>
</a>
</g>
</g>
<!-- convertabletorational&#45;&gt;textual -->
<g id="edge6" class="edge">
<title>convertabletorational&#45;&gt;textual</title>
<path fill="none" stroke="black" d="M118.19,-217.98C172.21,-204.28 250.47,-184.43 296.7,-172.71"/>
<polygon fill="black" stroke="black" points="297.42,-176.14 306.26,-170.28 295.7,-169.35 297.42,-176.14"/>
</g>
<!-- iterable -->
<g id="node8" class="node">
<title>iterable</title>
<g id="a_node8"><a xlink:href="PsyllaReference_Types.xhtml#PsyllaReference_Types_Details_iterable" xlink:title="iterable" target="_parent">
<polygon fill="linen" stroke="black" points="501.98,-252 453.98,-252 453.98,-216 507.98,-216 507.98,-246 501.98,-252"/>
<polyline fill="none" stroke="black" points="501.98,-252 501.98,-246"/>
<polyline fill="none" stroke="black" points="507.98,-246 501.98,-246"/>
<text xml:space="preserve" text-anchor="middle" x="480.98" y="-230.4" font-family="Source Code Pro,monospace" font-size="12.00">iterable</text>
</a>
</g>
</g>
<!-- iterable&#45;&gt;textual -->
<g id="edge7" class="edge">
<title>iterable&#45;&gt;textual</title>
<path fill="none" stroke="black" d="M453.52,-219.83C430.68,-208.88 397.93,-193.18 372.65,-181.06"/>
<polygon fill="black" stroke="black" points="374.21,-177.93 363.68,-176.76 371.18,-184.24 374.21,-177.93"/>
</g>
<!-- container -->
<g id="node12" class="node">
<title>container</title>
<g id="a_node12"><a xlink:href="PsyllaReference_Types.xhtml#PsyllaReference_Types_Details_container" xlink:title="container" target="_parent">
<polygon fill="linen" stroke="black" points="502.3,-180 447.66,-180 447.66,-144 508.3,-144 508.3,-174 502.3,-180"/>
<polyline fill="none" stroke="black" points="502.3,-180 502.3,-174"/>
<polyline fill="none" stroke="black" points="508.3,-174 502.3,-174"/>
<text xml:space="preserve" text-anchor="middle" x="477.98" y="-158.4" font-family="Source Code Pro,monospace" font-size="12.00">container</text>
</a>
</g>
</g>
<!-- iterable&#45;&gt;container -->
<g id="edge23" class="edge">
<title>iterable&#45;&gt;container</title>
<path fill="none" stroke="black" d="M480.23,-215.7C479.92,-208.41 479.55,-199.73 479.2,-191.54"/>
<polygon fill="black" stroke="black" points="482.7,-191.46 478.77,-181.62 475.71,-191.76 482.7,-191.46"/>
</g>
<!-- lengthy -->
<g id="node9" class="node">
<title>lengthy</title>
<g id="a_node9"><a xlink:href="PsyllaReference_Types.xhtml#PsyllaReference_Types_Details_lengthy" xlink:title="lengthy" target="_parent">
<polygon fill="linen" stroke="black" points="429.98,-252 381.98,-252 381.98,-216 435.98,-216 435.98,-246 429.98,-252"/>
<polyline fill="none" stroke="black" points="429.98,-252 429.98,-246"/>
<polyline fill="none" stroke="black" points="435.98,-246 429.98,-246"/>
<text xml:space="preserve" text-anchor="middle" x="408.98" y="-230.4" font-family="Source Code Pro,monospace" font-size="12.00">lengthy</text>
</a>
</g>
</g>
<!-- lengthy&#45;&gt;textual -->
<g id="edge8" class="edge">
<title>lengthy&#45;&gt;textual</title>
<path fill="none" stroke="black" d="M390.68,-215.7C381.88,-207.37 371.16,-197.22 361.48,-188.07"/>
<polygon fill="black" stroke="black" points="364.08,-185.72 354.41,-181.39 359.27,-190.8 364.08,-185.72"/>
</g>
<!-- lengthy&#45;&gt;container -->
<g id="edge24" class="edge">
<title>lengthy&#45;&gt;container</title>
<path fill="none" stroke="black" d="M426.03,-215.7C434.22,-207.39 444.19,-197.28 453.2,-188.14"/>
<polygon fill="black" stroke="black" points="455.53,-190.76 460.05,-181.18 450.54,-185.85 455.53,-190.76"/>
</g>
<!-- scalar -->
<g id="node10" class="node">
<title>scalar</title>
<g id="a_node10"><a xlink:href="PsyllaReference_Types.xhtml#PsyllaReference_Types_Details_scalar" xlink:title="scalar" target="_parent">
<polygon fill="linen" stroke="black" points="377.98,-396 329.98,-396 329.98,-360 383.98,-360 383.98,-390 377.98,-396"/>
<polyline fill="none" stroke="black" points="377.98,-396 377.98,-390"/>
<polyline fill="none" stroke="black" points="383.98,-390 377.98,-390"/>
<text xml:space="preserve" text-anchor="middle" x="356.98" y="-374.4" font-family="Source Code Pro,monospace" font-size="12.00">scalar</text>
</a>
</g>
</g>
<!-- scalar&#45;&gt;textual -->
<g id="edge9" class="edge">
<title>scalar&#45;&gt;textual</title>
<path fill="none" stroke="black" d="M357.28,-359.57C357.44,-341.59 357.23,-312.78 354.98,-288 351.95,-254.71 345.46,-216.85 340.69,-191.6"/>
<polygon fill="black" stroke="black" points="344.13,-190.94 338.8,-181.78 337.25,-192.26 344.13,-190.94"/>
</g>
<!-- appendable -->
<g id="node11" class="node">
<title>appendable</title>
<g id="a_node11"><a xlink:href="PsyllaReference_Types.xhtml#PsyllaReference_Types_Details_appendable" xlink:title="appendable" target="_parent">
<polygon fill="linen" stroke="black" points="666.3,-324 601.66,-324 601.66,-288 672.3,-288 672.3,-318 666.3,-324"/>
<polyline fill="none" stroke="black" points="666.3,-324 666.3,-318"/>
<polyline fill="none" stroke="black" points="672.3,-318 666.3,-318"/>
<text xml:space="preserve" text-anchor="middle" x="636.98" y="-302.4" font-family="Source Code Pro,monospace" font-size="12.00">appendable</text>
</a>
</g>
</g>
<!-- appendable&#45;&gt;formalarray -->
<g id="edge10" class="edge">
<title>appendable&#45;&gt;formalarray</title>
<path fill="none" stroke="black" d="M628.88,-287.85C611.41,-250.83 570.04,-163.18 548.9,-118.39"/>
<polygon fill="black" stroke="black" points="552.19,-117.15 544.76,-109.6 545.86,-120.14 552.19,-117.15"/>
</g>
<!-- container&#45;&gt;formalarray -->
<g id="edge11" class="edge">
<title>container&#45;&gt;formalarray</title>
<path fill="none" stroke="black" d="M492.31,-143.7C499.06,-135.56 507.23,-125.69 514.68,-116.7"/>
<polygon fill="black" stroke="black" points="517.15,-119.2 520.84,-109.27 511.76,-114.74 517.15,-119.2"/>
</g>
<!-- indexed -->
<g id="node13" class="node">
<title>indexed</title>
<g id="a_node13"><a xlink:href="PsyllaReference_Types.xhtml#PsyllaReference_Types_Details_indexed" xlink:title="indexed" target="_parent">
<polygon fill="linen" stroke="black" points="709.98,-180 661.98,-180 661.98,-144 715.98,-144 715.98,-174 709.98,-180"/>
<polyline fill="none" stroke="black" points="709.98,-180 709.98,-174"/>
<polyline fill="none" stroke="black" points="715.98,-174 709.98,-174"/>
<text xml:space="preserve" text-anchor="middle" x="688.98" y="-158.4" font-family="Source Code Pro,monospace" font-size="12.00">indexed</text>
</a>
</g>
</g>
<!-- indexed&#45;&gt;formalarray -->
<g id="edge12" class="edge">
<title>indexed&#45;&gt;formalarray</title>
<path fill="none" stroke="black" d="M661.62,-148.49C639.79,-138.5 608.7,-124.27 582.9,-112.47"/>
<polygon fill="black" stroke="black" points="584.51,-109.36 573.96,-108.38 581.6,-115.72 584.51,-109.36"/>
</g>
<!-- sequential -->
<g id="node14" class="node">
<title>sequential</title>
<g id="a_node14"><a xlink:href="PsyllaReference_Types.xhtml#PsyllaReference_Types_Details_sequential" xlink:title="sequential" target="_parent">
<polygon fill="linen" stroke="black" points="500.3,-396 441.65,-396 441.65,-360 506.3,-360 506.3,-390 500.3,-396"/>
<polyline fill="none" stroke="black" points="500.3,-396 500.3,-390"/>
<polyline fill="none" stroke="black" points="506.3,-390 500.3,-390"/>
<text xml:space="preserve" text-anchor="middle" x="473.98" y="-374.4" font-family="Source Code Pro,monospace" font-size="12.00">sequential</text>
</a>
</g>
</g>
<!-- sequential&#45;&gt;formalarray -->
<g id="edge13" class="edge">
<title>sequential&#45;&gt;formalarray</title>
<path fill="none" stroke="black" d="M492.56,-359.67C501.58,-350.08 511.59,-337.42 516.98,-324 544.73,-254.82 542.44,-164.98 538.93,-119.73"/>
<polygon fill="black" stroke="black" points="542.43,-119.63 538.09,-109.96 535.46,-120.23 542.43,-119.63"/>
</g>
<!-- streamable -->
<g id="node16" class="node">
<title>streamable</title>
<g id="a_node16"><a xlink:href="PsyllaReference_Types.xhtml#PsyllaReference_Types_Details_streamable" xlink:title="streamable" target="_parent">
<polygon fill="linen" stroke="black" points="501.96,-324 439.99,-324 439.99,-288 507.96,-288 507.96,-318 501.96,-324"/>
<polyline fill="none" stroke="black" points="501.96,-324 501.96,-318"/>
<polyline fill="none" stroke="black" points="507.96,-318 501.96,-318"/>
<text xml:space="preserve" text-anchor="middle" x="473.98" y="-302.4" font-family="Source Code Pro,monospace" font-size="12.00">streamable</text>
</a>
</g>
</g>
<!-- sequential&#45;&gt;streamable -->
<g id="edge27" class="edge">
<title>sequential&#45;&gt;streamable</title>
<path fill="none" stroke="black" d="M473.98,-359.7C473.98,-352.41 473.98,-343.73 473.98,-335.54"/>
<polygon fill="black" stroke="black" points="477.48,-335.62 473.98,-325.62 470.48,-335.62 477.48,-335.62"/>
</g>
<!-- object -->
<g id="node15" class="node">
<title>object</title>
<g id="a_node15"><a xlink:href="PsyllaReference_Types.xhtml#PsyllaReference_Types_Details_object" xlink:title="object" target="_parent">
<polygon fill="linen" stroke="black" points="404.98,-468 356.98,-468 356.98,-432 410.98,-432 410.98,-462 404.98,-468"/>
<polyline fill="none" stroke="black" points="404.98,-468 404.98,-462"/>
<polyline fill="none" stroke="black" points="410.98,-462 404.98,-462"/>
<text xml:space="preserve" text-anchor="middle" x="383.98" y="-446.4" font-family="Source Code Pro,monospace" font-size="12.00">object</text>
</a>
</g>
</g>
<!-- object&#45;&gt;evaluable -->
<g id="edge14" class="edge">
<title>object&#45;&gt;evaluable</title>
<path fill="none" stroke="black" d="M356.51,-448.51C315.12,-446.39 236.25,-436.83 185.98,-396 166.99,-380.58 155.25,-355.07 148.55,-335.31"/>
<polygon fill="black" stroke="black" points="151.93,-334.41 145.62,-325.9 145.25,-336.49 151.93,-334.41"/>
</g>
<!-- object&#45;&gt;convertabletointeger -->
<g id="edge15" class="edge">
<title>object&#45;&gt;convertabletointeger</title>
<path fill="none" stroke="black" d="M356.6,-438.4C316.97,-421.3 245.44,-383.42 218.98,-324 210.4,-304.75 214.23,-281.01 219.75,-262.9"/>
<polygon fill="black" stroke="black" points="223,-264.2 222.92,-253.6 216.38,-261.94 223,-264.2"/>
</g>
<!-- object&#45;&gt;convertabletointegral -->
<g id="edge16" class="edge">
<title>object&#45;&gt;convertabletointegral</title>
<path fill="none" stroke="black" d="M357.63,-431.62C345.14,-422.29 330.83,-409.86 320.98,-396 307.94,-377.67 299.16,-353.7 293.79,-335.25"/>
<polygon fill="black" stroke="black" points="297.22,-334.5 291.21,-325.77 290.46,-336.34 297.22,-334.5"/>
</g>
<!-- object&#45;&gt;convertabletorational -->
<g id="edge17" class="edge">
<title>object&#45;&gt;convertabletorational</title>
<path fill="none" stroke="black" d="M356.77,-448.49C311.55,-446.45 219.64,-437.12 155.98,-396 107.66,-364.79 79.89,-300.23 67.28,-263.04"/>
<polygon fill="black" stroke="black" points="70.73,-262.32 64.32,-253.89 64.07,-264.48 70.73,-262.32"/>
</g>
<!-- object&#45;&gt;lengthy -->
<g id="edge19" class="edge">
<title>object&#45;&gt;lengthy</title>
<path fill="none" stroke="black" d="M387.2,-431.86C389.06,-421.5 391.36,-408.02 392.98,-396 399.18,-349.84 404.06,-295.93 406.73,-263.68"/>
<polygon fill="black" stroke="black" points="410.2,-264.2 407.52,-253.95 403.22,-263.63 410.2,-264.2"/>
</g>
<!-- object&#45;&gt;scalar -->
<g id="edge20" class="edge">
<title>object&#45;&gt;scalar</title>
<path fill="none" stroke="black" d="M377.3,-431.7C374.39,-424.15 370.91,-415.12 367.65,-406.68"/>
<polygon fill="black" stroke="black" points="370.98,-405.59 364.12,-397.52 364.45,-408.11 370.98,-405.59"/>
</g>
<!-- object&#45;&gt;appendable -->
<g id="edge21" class="edge">
<title>object&#45;&gt;appendable</title>
<path fill="none" stroke="black" d="M411.28,-445.59C463.41,-438.58 574.49,-421.07 602.98,-396 620.44,-380.63 628.97,-355.3 633.12,-335.58"/>
<polygon fill="black" stroke="black" points="636.53,-336.4 634.87,-325.94 629.64,-335.16 636.53,-336.4"/>
</g>
<!-- object&#45;&gt;indexed -->
<g id="edge25" class="edge">
<title>object&#45;&gt;indexed</title>
<path fill="none" stroke="black" d="M411.24,-449.17C458.99,-448.21 559.22,-440.56 627.98,-396 661.32,-374.39 667.65,-361.43 680.98,-324 696.78,-279.62 695.26,-224 692.36,-191.1"/>
<polygon fill="black" stroke="black" points="695.89,-191.18 691.42,-181.58 688.92,-191.88 695.89,-191.18"/>
</g>
<!-- object&#45;&gt;sequential -->
<g id="edge26" class="edge">
<title>object&#45;&gt;sequential</title>
<path fill="none" stroke="black" d="M406.22,-431.7C417.26,-423.11 430.77,-412.61 442.81,-403.24"/>
<polygon fill="black" stroke="black" points="444.73,-406.18 450.48,-397.28 440.44,-400.65 444.73,-406.18"/>
</g>
<!-- clearable -->
<g id="node17" class="node">
<title>clearable</title>
<g id="a_node17"><a xlink:href="PsyllaReference_Types.xhtml#PsyllaReference_Types_Details_clearable" xlink:title="clearable" target="_parent">
<polygon fill="linen" stroke="black" points="587.62,-396 534.33,-396 534.33,-360 593.62,-360 593.62,-390 587.62,-396"/>
<polyline fill="none" stroke="black" points="587.62,-396 587.62,-390"/>
<polyline fill="none" stroke="black" points="593.62,-390 587.62,-390"/>
<text xml:space="preserve" text-anchor="middle" x="563.98" y="-374.4" font-family="Source Code Pro,monospace" font-size="12.00">clearable</text>
</a>
</g>
</g>
<!-- object&#45;&gt;clearable -->
<g id="edge28" class="edge">
<title>object&#45;&gt;clearable</title>
<path fill="none" stroke="black" d="M411.31,-438.37C441.13,-426.77 489.17,-408.09 523.39,-394.78"/>
<polygon fill="black" stroke="black" points="524.51,-398.1 532.56,-391.22 521.98,-391.58 524.51,-398.1"/>
</g>
<!-- streamable&#45;&gt;iterable -->
<g id="edge18" class="edge">
<title>streamable&#45;&gt;iterable</title>
<path fill="none" stroke="black" d="M475.71,-287.7C476.44,-280.41 477.3,-271.73 478.12,-263.54"/>
<polygon fill="black" stroke="black" points="481.6,-263.91 479.12,-253.61 474.64,-263.21 481.6,-263.91"/>
</g>
<!-- clearable&#45;&gt;container -->
<g id="edge22" class="edge">
<title>clearable&#45;&gt;container</title>
<path fill="none" stroke="black" d="M561.02,-359.83C555.36,-329.58 541.37,-265.33 516.98,-216 512.39,-206.73 506.17,-197.38 500.04,-189.18"/>
<polygon fill="black" stroke="black" points="502.84,-187.07 493.93,-181.33 497.32,-191.37 502.84,-187.07"/>
</g>
</g>
</svg>
