<?xml version="1.0" encoding="UTF-8" standalone="no"?>
<!DOCTYPE svg PUBLIC "-//W3C//DTD SVG 1.1//EN"
 "http://www.w3.org/Graphics/SVG/1.1/DTD/svg11.dtd">
<!-- Generated by graphviz version 2.43.0 (0)
 -->
<!-- Title: proc Pages: 1 -->
<svg width="444pt" height="548pt"
 viewBox="0.00 0.00 444.00 548.00" xmlns="http://www.w3.org/2000/svg" xmlns:xlink="http://www.w3.org/1999/xlink">
<g id="graph0" class="graph" transform="scale(1 1) rotate(0) translate(4 544)">
<title>proc</title>
<polygon fill="transparent" stroke="transparent" points="-4,4 -4,-544 440,-544 440,4 -4,4"/>
<!-- executable -->
<g id="node1" class="node">
<title>executable</title>
<g id="a_node1"><a xlink:href="PsyllaReference_Types.xhtml#PsyllaReference_Types_Details_executable" xlink:title="executable" target="_parent">
<polygon fill="linen" stroke="black" points="71,-396 0,-396 0,-360 77,-360 77,-390 71,-396"/>
<polyline fill="none" stroke="black" points="71,-396 71,-390 "/>
<polyline fill="none" stroke="black" points="77,-390 71,-390 "/>
<text text-anchor="middle" x="38.5" y="-375.5" font-family="PT Mono, monospace" font-size="10.00">executable</text>
</a>
</g>
</g>
<!-- proc -->
<g id="node3" class="node">
<title>proc</title>
<g id="a_node3"><a xlink:href="PsyllaReference_Types.xhtml#PsyllaReference_Types_Details_proc" xlink:title="proc" target="_parent">
<polygon fill="wheat" stroke="black" points="78.5,-36 30.5,-36 30.5,0 84.5,0 84.5,-30 78.5,-36"/>
<polyline fill="none" stroke="black" points="78.5,-36 78.5,-30 "/>
<polyline fill="none" stroke="black" points="84.5,-30 78.5,-30 "/>
<text text-anchor="middle" x="57.5" y="-15.5" font-family="PT Mono, monospace" font-size="10.00">proc</text>
</a>
</g>
</g>
<!-- executable&#45;&gt;proc -->
<g id="edge1" class="edge">
<title>executable&#45;&gt;proc</title>
<path fill="none" stroke="black" d="M36.92,-359.97C34.59,-333.33 30.5,-280.19 30.5,-235 30.5,-235 30.5,-235 30.5,-161 30.5,-120.5 41.23,-74.63 49.16,-46.26"/>
<polygon fill="black" stroke="black" points="52.63,-46.87 52.04,-36.29 45.9,-44.93 52.63,-46.87"/>
</g>
<!-- array -->
<g id="node2" class="node">
<title>array</title>
<g id="a_node2"><a xlink:href="PsyllaReference_Types.xhtml#PsyllaReference_Types_Details_array" xlink:title="array" target="_parent">
<polygon fill="linen" stroke="black" points="135.5,-108 87.5,-108 87.5,-72 141.5,-72 141.5,-102 135.5,-108"/>
<polyline fill="none" stroke="black" points="135.5,-108 135.5,-102 "/>
<polyline fill="none" stroke="black" points="141.5,-102 135.5,-102 "/>
<text text-anchor="middle" x="114.5" y="-87.5" font-family="PT Mono, monospace" font-size="10.00">array</text>
</a>
</g>
</g>
<!-- array&#45;&gt;proc -->
<g id="edge2" class="edge">
<title>array&#45;&gt;proc</title>
<path fill="none" stroke="black" d="M100.41,-71.7C93.58,-63.3 85.24,-53.07 77.74,-43.86"/>
<polygon fill="black" stroke="black" points="80.46,-41.65 71.43,-36.1 75.03,-46.07 80.46,-41.65"/>
</g>
<!-- object -->
<g id="node4" class="node">
<title>object</title>
<g id="a_node4"><a xlink:href="PsyllaReference_Types.xhtml#PsyllaReference_Types_Details_object" xlink:title="object" target="_parent">
<polygon fill="linen" stroke="black" points="218.5,-540 170.5,-540 170.5,-504 224.5,-504 224.5,-534 218.5,-540"/>
<polyline fill="none" stroke="black" points="218.5,-540 218.5,-534 "/>
<polyline fill="none" stroke="black" points="224.5,-534 218.5,-534 "/>
<text text-anchor="middle" x="197.5" y="-519.5" font-family="PT Mono, monospace" font-size="10.00">object</text>
</a>
</g>
</g>
<!-- object&#45;&gt;executable -->
<g id="edge3" class="edge">
<title>object&#45;&gt;executable</title>
<path fill="none" stroke="black" d="M170.27,-508.95C150.9,-499.55 124.97,-485.22 105.5,-468 84.61,-449.53 66,-423.64 53.73,-404.54"/>
<polygon fill="black" stroke="black" points="56.67,-402.64 48.39,-396.03 50.74,-406.36 56.67,-402.64"/>
</g>
<!-- appendable -->
<g id="node6" class="node">
<title>appendable</title>
<g id="a_node6"><a xlink:href="PsyllaReference_Types.xhtml#PsyllaReference_Types_Details_appendable" xlink:title="appendable" target="_parent">
<polygon fill="linen" stroke="black" points="130,-324 59,-324 59,-288 136,-288 136,-318 130,-324"/>
<polyline fill="none" stroke="black" points="130,-324 130,-318 "/>
<polyline fill="none" stroke="black" points="136,-318 130,-318 "/>
<text text-anchor="middle" x="97.5" y="-303.5" font-family="PT Mono, monospace" font-size="10.00">appendable</text>
</a>
</g>
</g>
<!-- object&#45;&gt;appendable -->
<g id="edge9" class="edge">
<title>object&#45;&gt;appendable</title>
<path fill="none" stroke="black" d="M178.96,-503.8C169.37,-494.07 158.1,-481.22 150.5,-468 125.49,-424.49 110.28,-367.5 102.91,-334.3"/>
<polygon fill="black" stroke="black" points="106.31,-333.45 100.79,-324.4 99.47,-334.91 106.31,-333.45"/>
</g>
<!-- indexed -->
<g id="node8" class="node">
<title>indexed</title>
<g id="a_node8"><a xlink:href="PsyllaReference_Types.xhtml#PsyllaReference_Types_Details_indexed" xlink:title="indexed" target="_parent">
<polygon fill="linen" stroke="black" points="168,-252 115,-252 115,-216 174,-216 174,-246 168,-252"/>
<polyline fill="none" stroke="black" points="168,-252 168,-246 "/>
<polyline fill="none" stroke="black" points="174,-246 168,-246 "/>
<text text-anchor="middle" x="144.5" y="-231.5" font-family="PT Mono, monospace" font-size="10.00">indexed</text>
</a>
</g>
</g>
<!-- object&#45;&gt;indexed -->
<g id="edge13" class="edge">
<title>object&#45;&gt;indexed</title>
<path fill="none" stroke="black" d="M192.56,-503.91C189.67,-493.57 186.1,-480.09 183.5,-468 167.58,-394.07 154.36,-305.77 148.21,-262.15"/>
<polygon fill="black" stroke="black" points="151.65,-261.48 146.8,-252.06 144.72,-262.45 151.65,-261.48"/>
</g>
<!-- sequential -->
<g id="node9" class="node">
<title>sequential</title>
<g id="a_node9"><a xlink:href="PsyllaReference_Types.xhtml#PsyllaReference_Types_Details_sequential" xlink:title="sequential" target="_parent">
<polygon fill="linen" stroke="black" points="264,-468 193,-468 193,-432 270,-432 270,-462 264,-468"/>
<polyline fill="none" stroke="black" points="264,-468 264,-462 "/>
<polyline fill="none" stroke="black" points="270,-462 264,-462 "/>
<text text-anchor="middle" x="231.5" y="-447.5" font-family="PT Mono, monospace" font-size="10.00">sequential</text>
</a>
</g>
</g>
<!-- object&#45;&gt;sequential -->
<g id="edge14" class="edge">
<title>object&#45;&gt;sequential</title>
<path fill="none" stroke="black" d="M205.9,-503.7C209.77,-495.73 214.45,-486.1 218.74,-477.26"/>
<polygon fill="black" stroke="black" points="221.97,-478.63 223.19,-468.1 215.67,-475.57 221.97,-478.63"/>
</g>
<!-- clearable -->
<g id="node10" class="node">
<title>clearable</title>
<g id="a_node10"><a xlink:href="PsyllaReference_Types.xhtml#PsyllaReference_Types_Details_clearable" xlink:title="clearable" target="_parent">
<polygon fill="linen" stroke="black" points="391,-396 326,-396 326,-360 397,-360 397,-390 391,-396"/>
<polyline fill="none" stroke="black" points="391,-396 391,-390 "/>
<polyline fill="none" stroke="black" points="397,-390 391,-390 "/>
<text text-anchor="middle" x="361.5" y="-375.5" font-family="PT Mono, monospace" font-size="10.00">clearable</text>
</a>
</g>
</g>
<!-- object&#45;&gt;clearable -->
<g id="edge15" class="edge">
<title>object&#45;&gt;clearable</title>
<path fill="none" stroke="black" d="M224.53,-505.57C240.84,-495.73 261.66,-482.18 278.5,-468 301.73,-448.44 325.04,-422.79 341.01,-404.05"/>
<polygon fill="black" stroke="black" points="343.84,-406.13 347.6,-396.23 338.48,-401.63 343.84,-406.13"/>
</g>
<!-- lengthy -->
<g id="node12" class="node">
<title>lengthy</title>
<g id="a_node12"><a xlink:href="PsyllaReference_Types.xhtml#PsyllaReference_Types_Details_lengthy" xlink:title="lengthy" target="_parent">
<polygon fill="linen" stroke="black" points="430,-468 377,-468 377,-432 436,-432 436,-462 430,-468"/>
<polyline fill="none" stroke="black" points="430,-468 430,-462 "/>
<polyline fill="none" stroke="black" points="436,-462 430,-462 "/>
<text text-anchor="middle" x="406.5" y="-447.5" font-family="PT Mono, monospace" font-size="10.00">lengthy</text>
</a>
</g>
</g>
<!-- object&#45;&gt;lengthy -->
<g id="edge17" class="edge">
<title>object&#45;&gt;lengthy</title>
<path fill="none" stroke="black" d="M224.82,-511.85C261.19,-499.67 325.72,-478.05 367.28,-464.13"/>
<polygon fill="black" stroke="black" points="368.44,-467.44 376.81,-460.94 366.21,-460.8 368.44,-467.44"/>
</g>
<!-- formalarray -->
<g id="node5" class="node">
<title>formalarray</title>
<g id="a_node5"><a xlink:href="PsyllaReference_Types.xhtml#PsyllaReference_Types_Details_formalarray" xlink:title="formalarray" target="_parent">
<polygon fill="linen" stroke="black" points="180,-180 103,-180 103,-144 186,-144 186,-174 180,-180"/>
<polyline fill="none" stroke="black" points="180,-180 180,-174 "/>
<polyline fill="none" stroke="black" points="186,-174 180,-174 "/>
<text text-anchor="middle" x="144.5" y="-159.5" font-family="PT Mono, monospace" font-size="10.00">formalarray</text>
</a>
</g>
</g>
<!-- formalarray&#45;&gt;array -->
<g id="edge4" class="edge">
<title>formalarray&#45;&gt;array</title>
<path fill="none" stroke="black" d="M137.08,-143.7C133.71,-135.81 129.63,-126.3 125.88,-117.55"/>
<polygon fill="black" stroke="black" points="128.99,-115.92 121.83,-108.1 122.55,-118.67 128.99,-115.92"/>
</g>
<!-- appendable&#45;&gt;formalarray -->
<g id="edge5" class="edge">
<title>appendable&#45;&gt;formalarray</title>
<path fill="none" stroke="black" d="M96.37,-288C95.74,-269.63 96.49,-239.79 105.5,-216 109.26,-206.06 115.44,-196.35 121.78,-188.01"/>
<polygon fill="black" stroke="black" points="124.54,-190.16 128.09,-180.18 119.09,-185.77 124.54,-190.16"/>
</g>
<!-- container -->
<g id="node7" class="node">
<title>container</title>
<g id="a_node7"><a xlink:href="PsyllaReference_Types.xhtml#PsyllaReference_Types_Details_container" xlink:title="container" target="_parent">
<polygon fill="linen" stroke="black" points="341,-252 276,-252 276,-216 347,-216 347,-246 341,-252"/>
<polyline fill="none" stroke="black" points="341,-252 341,-246 "/>
<polyline fill="none" stroke="black" points="347,-246 341,-246 "/>
<text text-anchor="middle" x="311.5" y="-231.5" font-family="PT Mono, monospace" font-size="10.00">container</text>
</a>
</g>
</g>
<!-- container&#45;&gt;formalarray -->
<g id="edge6" class="edge">
<title>container&#45;&gt;formalarray</title>
<path fill="none" stroke="black" d="M275.67,-217.98C252.03,-208.07 220.72,-194.95 194.61,-184.01"/>
<polygon fill="black" stroke="black" points="195.83,-180.72 185.26,-180.08 193.13,-187.18 195.83,-180.72"/>
</g>
<!-- indexed&#45;&gt;formalarray -->
<g id="edge7" class="edge">
<title>indexed&#45;&gt;formalarray</title>
<path fill="none" stroke="black" d="M144.5,-215.7C144.5,-207.98 144.5,-198.71 144.5,-190.11"/>
<polygon fill="black" stroke="black" points="148,-190.1 144.5,-180.1 141,-190.1 148,-190.1"/>
</g>
<!-- sequential&#45;&gt;formalarray -->
<g id="edge8" class="edge">
<title>sequential&#45;&gt;formalarray</title>
<path fill="none" stroke="black" d="M228.12,-431.97C217.77,-379.96 186.92,-226.05 182.5,-216 178.19,-206.21 171.88,-196.42 165.64,-187.97"/>
<polygon fill="black" stroke="black" points="168.38,-185.79 159.5,-180.02 162.84,-190.07 168.38,-185.79"/>
</g>
<!-- streamable -->
<g id="node13" class="node">
<title>streamable</title>
<g id="a_node13"><a xlink:href="PsyllaReference_Types.xhtml#PsyllaReference_Types_Details_streamable" xlink:title="streamable" target="_parent">
<polygon fill="linen" stroke="black" points="302,-396 231,-396 231,-360 308,-360 308,-390 302,-396"/>
<polyline fill="none" stroke="black" points="302,-396 302,-390 "/>
<polyline fill="none" stroke="black" points="308,-390 302,-390 "/>
<text text-anchor="middle" x="269.5" y="-375.5" font-family="PT Mono, monospace" font-size="10.00">streamable</text>
</a>
</g>
</g>
<!-- sequential&#45;&gt;streamable -->
<g id="edge18" class="edge">
<title>sequential&#45;&gt;streamable</title>
<path fill="none" stroke="black" d="M240.89,-431.7C245.26,-423.64 250.56,-413.89 255.4,-404.98"/>
<polygon fill="black" stroke="black" points="258.52,-406.56 260.21,-396.1 252.37,-403.22 258.52,-406.56"/>
</g>
<!-- clearable&#45;&gt;container -->
<g id="edge10" class="edge">
<title>clearable&#45;&gt;container</title>
<path fill="none" stroke="black" d="M355.47,-359.87C346.87,-335.46 331.02,-290.43 320.88,-261.64"/>
<polygon fill="black" stroke="black" points="324.18,-260.46 317.55,-252.19 317.57,-262.78 324.18,-260.46"/>
</g>
<!-- iterable -->
<g id="node11" class="node">
<title>iterable</title>
<g id="a_node11"><a xlink:href="PsyllaReference_Types.xhtml#PsyllaReference_Types_Details_iterable" xlink:title="iterable" target="_parent">
<polygon fill="linen" stroke="black" points="304,-324 245,-324 245,-288 310,-288 310,-318 304,-324"/>
<polyline fill="none" stroke="black" points="304,-324 304,-318 "/>
<polyline fill="none" stroke="black" points="310,-318 304,-318 "/>
<text text-anchor="middle" x="277.5" y="-303.5" font-family="PT Mono, monospace" font-size="10.00">iterable</text>
</a>
</g>
</g>
<!-- iterable&#45;&gt;container -->
<g id="edge11" class="edge">
<title>iterable&#45;&gt;container</title>
<path fill="none" stroke="black" d="M285.9,-287.7C289.77,-279.73 294.45,-270.1 298.74,-261.26"/>
<polygon fill="black" stroke="black" points="301.97,-262.63 303.19,-252.1 295.67,-259.57 301.97,-262.63"/>
</g>
<!-- lengthy&#45;&gt;container -->
<g id="edge12" class="edge">
<title>lengthy&#45;&gt;container</title>
<path fill="none" stroke="black" d="M409.41,-431.74C411.8,-413.41 413.61,-383.84 405.5,-360 391.98,-320.28 360.53,-282.96 337.73,-259.62"/>
<polygon fill="black" stroke="black" points="339.91,-256.86 330.36,-252.26 334.96,-261.81 339.91,-256.86"/>
</g>
<!-- streamable&#45;&gt;iterable -->
<g id="edge16" class="edge">
<title>streamable&#45;&gt;iterable</title>
<path fill="none" stroke="black" d="M271.48,-359.7C272.36,-351.98 273.42,-342.71 274.4,-334.11"/>
<polygon fill="black" stroke="black" points="277.89,-334.44 275.55,-324.1 270.93,-333.64 277.89,-334.44"/>
</g>
</g>
</svg>
