<?xml version="1.0" encoding="UTF-8" standalone="no"?>
<!DOCTYPE svg PUBLIC "-//W3C//DTD SVG 1.1//EN"
 "http://www.w3.org/Graphics/SVG/1.1/DTD/svg11.dtd">
<!-- Generated by graphviz version 2.43.0 (0)
 -->
<!-- Title: random Pages: 1 -->
<svg width="74pt" height="116pt"
 viewBox="0.00 0.00 74.00 116.00" xmlns="http://www.w3.org/2000/svg" xmlns:xlink="http://www.w3.org/1999/xlink">
<g id="graph0" class="graph" transform="scale(1 1) rotate(0) translate(4 112)">
<title>random</title>
<polygon fill="transparent" stroke="transparent" points="-4,4 -4,-112 70,-112 70,4 -4,4"/>
<!-- object -->
<g id="node1" class="node">
<title>object</title>
<g id="a_node1"><a xlink:href="PsyllaReference_Types.xhtml#PsyllaReference_Types_Details_object" xlink:title="object" target="_parent">
<polygon fill="linen" stroke="black" points="60,-108 0,-108 0,-72 66,-72 66,-102 60,-108"/>
<polyline fill="none" stroke="black" points="60,-108 60,-102 "/>
<polyline fill="none" stroke="black" points="66,-102 60,-102 "/>
<text text-anchor="middle" x="33" y="-86.3" font-family="Consolas, monospace" font-size="14.00">object</text>
</a>
</g>
</g>
<!-- random -->
<g id="node2" class="node">
<title>random</title>
<g id="a_node2"><a xlink:href="PsyllaReference_Types.xhtml#PsyllaReference_Types_Details_random" xlink:title="random" target="_parent">
<polygon fill="wheat" stroke="black" points="60,-36 0,-36 0,0 66,0 66,-30 60,-36"/>
<polyline fill="none" stroke="black" points="60,-36 60,-30 "/>
<polyline fill="none" stroke="black" points="66,-30 60,-30 "/>
<text text-anchor="middle" x="33" y="-14.3" font-family="Consolas, monospace" font-size="14.00">random</text>
</a>
</g>
</g>
<!-- object&#45;&gt;random -->
<g id="edge1" class="edge">
<title>object&#45;&gt;random</title>
<path fill="none" stroke="black" d="M33,-71.7C33,-63.98 33,-54.71 33,-46.11"/>
<polygon fill="black" stroke="black" points="36.5,-46.1 33,-36.1 29.5,-46.1 36.5,-46.1"/>
</g>
</g>
</svg>
