<?xml version="1.0" encoding="UTF-8" standalone="no"?>
<!DOCTYPE svg PUBLIC "-//W3C//DTD SVG 1.1//EN"
 "http://www.w3.org/Graphics/SVG/1.1/DTD/svg11.dtd">
<!-- Generated by graphviz version 14.0.0 (0)
 -->
<!-- Title: arithmetic Pages: 1 -->
<svg width="164pt" height="188pt"
 viewBox="0.00 0.00 164.00 188.00" xmlns="http://www.w3.org/2000/svg" xmlns:xlink="http://www.w3.org/1999/xlink">
<g id="graph0" class="graph" transform="scale(1 1) rotate(0) translate(4 184)">
<title>arithmetic</title>
<polygon fill="none" stroke="none" points="-4,4 -4,-184 159.65,-184 159.65,4 -4,4"/>
<!-- additive -->
<g id="node1" class="node">
<title>additive</title>
<g id="a_node1"><a xlink:href="PsyllaReference_Types.xhtml#PsyllaReference_Types_Details_additive" xlink:title="additive" target="_parent">
<polygon fill="linen" stroke="black" points="48.65,-108 0,-108 0,-72 54.65,-72 54.65,-102 48.65,-108"/>
<polyline fill="none" stroke="black" points="48.65,-108 48.65,-102"/>
<polyline fill="none" stroke="black" points="54.65,-102 48.65,-102"/>
<text xml:space="preserve" text-anchor="middle" x="27.33" y="-86.4" font-family="Source Code Pro,monospace" font-size="12.00">additive</text>
</a>
</g>
</g>
<!-- arithmetic -->
<g id="node3" class="node">
<title>arithmetic</title>
<g id="a_node3"><a xlink:href="PsyllaReference_Types.xhtml#PsyllaReference_Types_Details_arithmetic" xlink:title="arithmetic" target="_parent">
<polygon fill="wheat" stroke="black" points="96.65,-36 38,-36 38,0 102.65,0 102.65,-30 96.65,-36"/>
<polyline fill="none" stroke="black" points="96.65,-36 96.65,-30"/>
<polyline fill="none" stroke="black" points="102.65,-30 96.65,-30"/>
<text xml:space="preserve" text-anchor="middle" x="70.33" y="-14.4" font-family="Source Code Pro,monospace" font-size="12.00">arithmetic</text>
</a>
</g>
</g>
<!-- additive&#45;&gt;arithmetic -->
<g id="edge1" class="edge">
<title>additive&#45;&gt;arithmetic</title>
<path fill="none" stroke="black" d="M37.96,-71.7C42.75,-63.9 48.51,-54.51 53.85,-45.83"/>
<polygon fill="black" stroke="black" points="56.78,-47.75 59.03,-37.39 50.81,-44.08 56.78,-47.75"/>
</g>
<!-- multiplicative -->
<g id="node2" class="node">
<title>multiplicative</title>
<g id="a_node2"><a xlink:href="PsyllaReference_Types.xhtml#PsyllaReference_Types_Details_multiplicative" xlink:title="multiplicative" target="_parent">
<polygon fill="linen" stroke="black" points="149.65,-108 73,-108 73,-72 155.65,-72 155.65,-102 149.65,-108"/>
<polyline fill="none" stroke="black" points="149.65,-108 149.65,-102"/>
<polyline fill="none" stroke="black" points="155.65,-102 149.65,-102"/>
<text xml:space="preserve" text-anchor="middle" x="114.33" y="-86.4" font-family="Source Code Pro,monospace" font-size="12.00">multiplicative</text>
</a>
</g>
</g>
<!-- multiplicative&#45;&gt;arithmetic -->
<g id="edge2" class="edge">
<title>multiplicative&#45;&gt;arithmetic</title>
<path fill="none" stroke="black" d="M103.45,-71.7C98.55,-63.9 92.65,-54.51 87.19,-45.83"/>
<polygon fill="black" stroke="black" points="90.17,-43.99 81.88,-37.39 84.24,-47.71 90.17,-43.99"/>
</g>
<!-- object -->
<g id="node4" class="node">
<title>object</title>
<g id="a_node4"><a xlink:href="PsyllaReference_Types.xhtml#PsyllaReference_Types_Details_object" xlink:title="object" target="_parent">
<polygon fill="linen" stroke="black" points="91.33,-180 43.33,-180 43.33,-144 97.33,-144 97.33,-174 91.33,-180"/>
<polyline fill="none" stroke="black" points="91.33,-180 91.33,-174"/>
<polyline fill="none" stroke="black" points="97.33,-174 91.33,-174"/>
<text xml:space="preserve" text-anchor="middle" x="70.33" y="-158.4" font-family="Source Code Pro,monospace" font-size="12.00">object</text>
</a>
</g>
</g>
<!-- object&#45;&gt;additive -->
<g id="edge3" class="edge">
<title>object&#45;&gt;additive</title>
<path fill="none" stroke="black" d="M59.7,-143.7C54.91,-135.9 49.14,-126.51 43.81,-117.83"/>
<polygon fill="black" stroke="black" points="46.84,-116.08 38.63,-109.39 40.88,-119.75 46.84,-116.08"/>
</g>
<!-- object&#45;&gt;multiplicative -->
<g id="edge4" class="edge">
<title>object&#45;&gt;multiplicative</title>
<path fill="none" stroke="black" d="M81.2,-143.7C86.11,-135.9 92.01,-126.51 97.46,-117.83"/>
<polygon fill="black" stroke="black" points="100.41,-119.71 102.77,-109.39 94.49,-115.99 100.41,-119.71"/>
</g>
</g>
</svg>
