<?xml version="1.0" encoding="UTF-8" standalone="no"?>
<!DOCTYPE svg PUBLIC "-//W3C//DTD SVG 1.1//EN"
 "http://www.w3.org/Graphics/SVG/1.1/DTD/svg11.dtd">
<!-- Generated by graphviz version 2.43.0 (0)
 -->
<!-- Title: indexed Pages: 1 -->
<svg width="67pt" height="116pt"
 viewBox="0.00 0.00 67.00 116.00" xmlns="http://www.w3.org/2000/svg" xmlns:xlink="http://www.w3.org/1999/xlink">
<g id="graph0" class="graph" transform="scale(1 1) rotate(0) translate(4 112)">
<title>indexed</title>
<polygon fill="transparent" stroke="transparent" points="-4,4 -4,-112 63,-112 63,4 -4,4"/>
<!-- object -->
<g id="node1" class="node">
<title>object</title>
<g id="a_node1"><a xlink:href="PsyllaReference_Types.xhtml#PsyllaReference_Types_Details_object" xlink:title="object" target="_parent">
<polygon fill="linen" stroke="black" points="50.5,-108 2.5,-108 2.5,-72 56.5,-72 56.5,-102 50.5,-108"/>
<polyline fill="none" stroke="black" points="50.5,-108 50.5,-102 "/>
<polyline fill="none" stroke="black" points="56.5,-102 50.5,-102 "/>
<text text-anchor="middle" x="29.5" y="-87.5" font-family="PT Mono, monospace" font-size="10.00">object</text>
</a>
</g>
</g>
<!-- indexed -->
<g id="node2" class="node">
<title>indexed</title>
<g id="a_node2"><a xlink:href="PsyllaReference_Types.xhtml#PsyllaReference_Types_Details_indexed" xlink:title="indexed" target="_parent">
<polygon fill="wheat" stroke="black" points="53,-36 0,-36 0,0 59,0 59,-30 53,-36"/>
<polyline fill="none" stroke="black" points="53,-36 53,-30 "/>
<polyline fill="none" stroke="black" points="59,-30 53,-30 "/>
<text text-anchor="middle" x="29.5" y="-15.5" font-family="PT Mono, monospace" font-size="10.00">indexed</text>
</a>
</g>
</g>
<!-- object&#45;&gt;indexed -->
<g id="edge1" class="edge">
<title>object&#45;&gt;indexed</title>
<path fill="none" stroke="black" d="M29.5,-71.7C29.5,-63.98 29.5,-54.71 29.5,-46.11"/>
<polygon fill="black" stroke="black" points="33,-46.1 29.5,-36.1 26,-46.1 33,-46.1"/>
</g>
</g>
</svg>
