<?xml version="1.0" encoding="UTF-8" standalone="no"?>
<!DOCTYPE svg PUBLIC "-//W3C//DTD SVG 1.1//EN"
 "http://www.w3.org/Graphics/SVG/1.1/DTD/svg11.dtd">
<!-- Generated by graphviz version 2.43.0 (0)
 -->
<!-- Title: string Pages: 1 -->
<svg width="544pt" height="476pt"
 viewBox="0.00 0.00 543.50 476.00" xmlns="http://www.w3.org/2000/svg" xmlns:xlink="http://www.w3.org/1999/xlink">
<g id="graph0" class="graph" transform="scale(1 1) rotate(0) translate(4 472)">
<title>string</title>
<polygon fill="transparent" stroke="transparent" points="-4,4 -4,-472 539.5,-472 539.5,4 -4,4"/>
<!-- textual -->
<g id="node1" class="node">
<title>textual</title>
<g id="a_node1"><a xlink:href="PsyllaReference_Types.xhtml#PsyllaReference_Types_Details_textual" xlink:title="textual" target="_parent">
<polygon fill="linen" stroke="black" points="148.5,-180 85.5,-180 85.5,-144 154.5,-144 154.5,-174 148.5,-180"/>
<polyline fill="none" stroke="black" points="148.5,-180 148.5,-174 "/>
<polyline fill="none" stroke="black" points="154.5,-174 148.5,-174 "/>
<text text-anchor="middle" x="120" y="-158.9" font-family="Consolas, monospace" font-size="12.00">textual</text>
</a>
</g>
</g>
<!-- string -->
<g id="node3" class="node">
<title>string</title>
<g id="a_node3"><a xlink:href="PsyllaReference_Types.xhtml#PsyllaReference_Types_Details_string" xlink:title="string" target="_parent">
<polygon fill="wheat" stroke="black" points="276,-36 220,-36 220,0 282,0 282,-30 276,-36"/>
<polyline fill="none" stroke="black" points="276,-36 276,-30 "/>
<polyline fill="none" stroke="black" points="282,-30 276,-30 "/>
<text text-anchor="middle" x="251" y="-14.9" font-family="Consolas, monospace" font-size="12.00">string</text>
</a>
</g>
</g>
<!-- textual&#45;&gt;string -->
<g id="edge1" class="edge">
<title>textual&#45;&gt;string</title>
<path fill="none" stroke="black" d="M135.8,-143.87C158.82,-118.92 201.69,-72.45 228.15,-43.77"/>
<polygon fill="black" stroke="black" points="230.93,-45.91 235.14,-36.19 225.79,-41.17 230.93,-45.91"/>
</g>
<!-- formalarray -->
<g id="node2" class="node">
<title>formalarray</title>
<g id="a_node2"><a xlink:href="PsyllaReference_Types.xhtml#PsyllaReference_Types_Details_formalarray" xlink:title="formalarray" target="_parent">
<polygon fill="linen" stroke="black" points="424.5,-108 331.5,-108 331.5,-72 430.5,-72 430.5,-102 424.5,-108"/>
<polyline fill="none" stroke="black" points="424.5,-108 424.5,-102 "/>
<polyline fill="none" stroke="black" points="430.5,-102 424.5,-102 "/>
<text text-anchor="middle" x="381" y="-86.9" font-family="Consolas, monospace" font-size="12.00">formalarray</text>
</a>
</g>
</g>
<!-- formalarray&#45;&gt;string -->
<g id="edge2" class="edge">
<title>formalarray&#45;&gt;string</title>
<path fill="none" stroke="black" d="M349.2,-71.88C331.63,-62.41 309.63,-50.57 290.92,-40.49"/>
<polygon fill="black" stroke="black" points="292.49,-37.36 282.02,-35.71 289.17,-43.53 292.49,-37.36"/>
</g>
<!-- evaluable -->
<g id="node4" class="node">
<title>evaluable</title>
<g id="a_node4"><a xlink:href="PsyllaReference_Types.xhtml#PsyllaReference_Types_Details_evaluable" xlink:title="evaluable" target="_parent">
<polygon fill="linen" stroke="black" points="130,-324 52,-324 52,-288 136,-288 136,-318 130,-324"/>
<polyline fill="none" stroke="black" points="130,-324 130,-318 "/>
<polyline fill="none" stroke="black" points="136,-318 130,-318 "/>
<text text-anchor="middle" x="94" y="-302.9" font-family="Consolas, monospace" font-size="12.00">evaluable</text>
</a>
</g>
</g>
<!-- evaluable&#45;&gt;textual -->
<g id="edge3" class="edge">
<title>evaluable&#45;&gt;textual</title>
<path fill="none" stroke="black" d="M85.15,-287.87C76.96,-269.64 67.27,-240.17 76,-216 79.75,-205.6 86.54,-195.8 93.67,-187.52"/>
<polygon fill="black" stroke="black" points="96.32,-189.81 100.53,-180.08 91.17,-185.06 96.32,-189.81"/>
</g>
<!-- iterable -->
<g id="node5" class="node">
<title>iterable</title>
<g id="a_node5"><a xlink:href="PsyllaReference_Types.xhtml#PsyllaReference_Types_Details_iterable" xlink:title="iterable" target="_parent">
<polygon fill="linen" stroke="black" points="346.5,-252 275.5,-252 275.5,-216 352.5,-216 352.5,-246 346.5,-252"/>
<polyline fill="none" stroke="black" points="346.5,-252 346.5,-246 "/>
<polyline fill="none" stroke="black" points="352.5,-246 346.5,-246 "/>
<text text-anchor="middle" x="314" y="-230.9" font-family="Consolas, monospace" font-size="12.00">iterable</text>
</a>
</g>
</g>
<!-- iterable&#45;&gt;textual -->
<g id="edge4" class="edge">
<title>iterable&#45;&gt;textual</title>
<path fill="none" stroke="black" d="M275.21,-219C243.2,-207.46 197.79,-191.07 164.35,-179"/>
<polygon fill="black" stroke="black" points="165.41,-175.67 154.82,-175.56 163.04,-182.25 165.41,-175.67"/>
</g>
<!-- container -->
<g id="node9" class="node">
<title>container</title>
<g id="a_node9"><a xlink:href="PsyllaReference_Types.xhtml#PsyllaReference_Types_Details_container" xlink:title="container" target="_parent">
<polygon fill="linen" stroke="black" points="299,-180 221,-180 221,-144 305,-144 305,-174 299,-180"/>
<polyline fill="none" stroke="black" points="299,-180 299,-174 "/>
<polyline fill="none" stroke="black" points="305,-174 299,-174 "/>
<text text-anchor="middle" x="263" y="-158.9" font-family="Consolas, monospace" font-size="12.00">container</text>
</a>
</g>
</g>
<!-- iterable&#45;&gt;container -->
<g id="edge17" class="edge">
<title>iterable&#45;&gt;container</title>
<path fill="none" stroke="black" d="M301.39,-215.7C295.4,-207.47 288.12,-197.48 281.52,-188.42"/>
<polygon fill="black" stroke="black" points="284.18,-186.13 275.46,-180.1 278.52,-190.25 284.18,-186.13"/>
</g>
<!-- lengthy -->
<g id="node6" class="node">
<title>lengthy</title>
<g id="a_node6"><a xlink:href="PsyllaReference_Types.xhtml#PsyllaReference_Types_Details_lengthy" xlink:title="lengthy" target="_parent">
<polygon fill="linen" stroke="black" points="148.5,-252 85.5,-252 85.5,-216 154.5,-216 154.5,-246 148.5,-252"/>
<polyline fill="none" stroke="black" points="148.5,-252 148.5,-246 "/>
<polyline fill="none" stroke="black" points="154.5,-246 148.5,-246 "/>
<text text-anchor="middle" x="120" y="-230.9" font-family="Consolas, monospace" font-size="12.00">lengthy</text>
</a>
</g>
</g>
<!-- lengthy&#45;&gt;textual -->
<g id="edge5" class="edge">
<title>lengthy&#45;&gt;textual</title>
<path fill="none" stroke="black" d="M120,-215.7C120,-207.98 120,-198.71 120,-190.11"/>
<polygon fill="black" stroke="black" points="123.5,-190.1 120,-180.1 116.5,-190.1 123.5,-190.1"/>
</g>
<!-- lengthy&#45;&gt;container -->
<g id="edge18" class="edge">
<title>lengthy&#45;&gt;container</title>
<path fill="none" stroke="black" d="M154.62,-216.05C173.97,-206.58 198.29,-194.68 218.98,-184.55"/>
<polygon fill="black" stroke="black" points="220.76,-187.57 228.21,-180.03 217.69,-181.28 220.76,-187.57"/>
</g>
<!-- scalar -->
<g id="node7" class="node">
<title>scalar</title>
<g id="a_node7"><a xlink:href="PsyllaReference_Types.xhtml#PsyllaReference_Types_Details_scalar" xlink:title="scalar" target="_parent">
<polygon fill="linen" stroke="black" points="56,-396 0,-396 0,-360 62,-360 62,-390 56,-396"/>
<polyline fill="none" stroke="black" points="56,-396 56,-390 "/>
<polyline fill="none" stroke="black" points="62,-390 56,-390 "/>
<text text-anchor="middle" x="31" y="-374.9" font-family="Consolas, monospace" font-size="12.00">scalar</text>
</a>
</g>
</g>
<!-- scalar&#45;&gt;textual -->
<g id="edge6" class="edge">
<title>scalar&#45;&gt;textual</title>
<path fill="none" stroke="black" d="M31.53,-359.65C33.21,-328.58 40.18,-262.34 69,-216 75.47,-205.6 84.25,-195.55 92.7,-187.06"/>
<polygon fill="black" stroke="black" points="95.22,-189.49 99.97,-180.02 90.35,-184.45 95.22,-189.49"/>
</g>
<!-- appendable -->
<g id="node8" class="node">
<title>appendable</title>
<g id="a_node8"><a xlink:href="PsyllaReference_Types.xhtml#PsyllaReference_Types_Details_appendable" xlink:title="appendable" target="_parent">
<polygon fill="linen" stroke="black" points="486,-324 400,-324 400,-288 492,-288 492,-318 486,-324"/>
<polyline fill="none" stroke="black" points="486,-324 486,-318 "/>
<polyline fill="none" stroke="black" points="492,-318 486,-318 "/>
<text text-anchor="middle" x="446" y="-302.9" font-family="Consolas, monospace" font-size="12.00">appendable</text>
</a>
</g>
</g>
<!-- appendable&#45;&gt;formalarray -->
<g id="edge7" class="edge">
<title>appendable&#45;&gt;formalarray</title>
<path fill="none" stroke="black" d="M440.79,-287.85C429.5,-250.68 402.7,-162.44 389.15,-117.82"/>
<polygon fill="black" stroke="black" points="392.49,-116.78 386.23,-108.23 385.79,-118.82 392.49,-116.78"/>
</g>
<!-- container&#45;&gt;formalarray -->
<g id="edge8" class="edge">
<title>container&#45;&gt;formalarray</title>
<path fill="none" stroke="black" d="M291.87,-143.88C307.29,-134.72 326.48,-123.34 343.1,-113.48"/>
<polygon fill="black" stroke="black" points="345.21,-116.3 352.02,-108.19 341.64,-110.28 345.21,-116.3"/>
</g>
<!-- indexed -->
<g id="node10" class="node">
<title>indexed</title>
<g id="a_node10"><a xlink:href="PsyllaReference_Types.xhtml#PsyllaReference_Types_Details_indexed" xlink:title="indexed" target="_parent">
<polygon fill="linen" stroke="black" points="529.5,-180 466.5,-180 466.5,-144 535.5,-144 535.5,-174 529.5,-180"/>
<polyline fill="none" stroke="black" points="529.5,-180 529.5,-174 "/>
<polyline fill="none" stroke="black" points="535.5,-174 529.5,-174 "/>
<text text-anchor="middle" x="501" y="-158.9" font-family="Consolas, monospace" font-size="12.00">indexed</text>
</a>
</g>
</g>
<!-- indexed&#45;&gt;formalarray -->
<g id="edge9" class="edge">
<title>indexed&#45;&gt;formalarray</title>
<path fill="none" stroke="black" d="M471.64,-143.88C455.95,-134.72 436.44,-123.34 419.55,-113.48"/>
<polygon fill="black" stroke="black" points="420.87,-110.21 410.47,-108.19 417.34,-116.25 420.87,-110.21"/>
</g>
<!-- sequential -->
<g id="node11" class="node">
<title>sequential</title>
<g id="a_node11"><a xlink:href="PsyllaReference_Types.xhtml#PsyllaReference_Types_Details_sequential" xlink:title="sequential" target="_parent">
<polygon fill="linen" stroke="black" points="338,-396 252,-396 252,-360 344,-360 344,-390 338,-396"/>
<polyline fill="none" stroke="black" points="338,-396 338,-390 "/>
<polyline fill="none" stroke="black" points="344,-390 338,-390 "/>
<text text-anchor="middle" x="298" y="-374.9" font-family="Consolas, monospace" font-size="12.00">sequential</text>
</a>
</g>
</g>
<!-- sequential&#45;&gt;formalarray -->
<g id="edge10" class="edge">
<title>sequential&#45;&gt;formalarray</title>
<path fill="none" stroke="black" d="M322.36,-359.85C333.59,-350.57 345.97,-338.13 353,-324 386.79,-256.1 386.24,-163.75 383.43,-118.41"/>
<polygon fill="black" stroke="black" points="386.9,-117.92 382.71,-108.19 379.92,-118.41 386.9,-117.92"/>
</g>
<!-- streamable -->
<g id="node13" class="node">
<title>streamable</title>
<g id="a_node13"><a xlink:href="PsyllaReference_Types.xhtml#PsyllaReference_Types_Details_streamable" xlink:title="streamable" target="_parent">
<polygon fill="linen" stroke="black" points="338,-324 252,-324 252,-288 344,-288 344,-318 338,-324"/>
<polyline fill="none" stroke="black" points="338,-324 338,-318 "/>
<polyline fill="none" stroke="black" points="344,-318 338,-318 "/>
<text text-anchor="middle" x="298" y="-302.9" font-family="Consolas, monospace" font-size="12.00">streamable</text>
</a>
</g>
</g>
<!-- sequential&#45;&gt;streamable -->
<g id="edge21" class="edge">
<title>sequential&#45;&gt;streamable</title>
<path fill="none" stroke="black" d="M298,-359.7C298,-351.98 298,-342.71 298,-334.11"/>
<polygon fill="black" stroke="black" points="301.5,-334.1 298,-324.1 294.5,-334.1 301.5,-334.1"/>
</g>
<!-- object -->
<g id="node12" class="node">
<title>object</title>
<g id="a_node12"><a xlink:href="PsyllaReference_Types.xhtml#PsyllaReference_Types_Details_object" xlink:title="object" target="_parent">
<polygon fill="linen" stroke="black" points="240,-468 184,-468 184,-432 246,-432 246,-462 240,-468"/>
<polyline fill="none" stroke="black" points="240,-468 240,-462 "/>
<polyline fill="none" stroke="black" points="246,-462 240,-462 "/>
<text text-anchor="middle" x="215" y="-446.9" font-family="Consolas, monospace" font-size="12.00">object</text>
</a>
</g>
</g>
<!-- object&#45;&gt;evaluable -->
<g id="edge11" class="edge">
<title>object&#45;&gt;evaluable</title>
<path fill="none" stroke="black" d="M195.23,-431.91C184.1,-421.9 170.23,-408.76 159,-396 141.18,-375.76 123.28,-350.83 110.79,-332.51"/>
<polygon fill="black" stroke="black" points="113.61,-330.43 105.12,-324.1 107.81,-334.34 113.61,-330.43"/>
</g>
<!-- object&#45;&gt;lengthy -->
<g id="edge13" class="edge">
<title>object&#45;&gt;lengthy</title>
<path fill="none" stroke="black" d="M207.61,-431.53C195.03,-401.89 168.52,-339.92 145,-288 141.03,-279.25 136.59,-269.74 132.56,-261.22"/>
<polygon fill="black" stroke="black" points="135.69,-259.65 128.24,-252.12 129.37,-262.66 135.69,-259.65"/>
</g>
<!-- object&#45;&gt;scalar -->
<g id="edge14" class="edge">
<title>object&#45;&gt;scalar</title>
<path fill="none" stroke="black" d="M183.79,-437.13C152.9,-425.37 105.46,-407.33 71.65,-394.46"/>
<polygon fill="black" stroke="black" points="72.65,-391.1 62.06,-390.82 70.16,-397.64 72.65,-391.1"/>
</g>
<!-- object&#45;&gt;appendable -->
<g id="edge15" class="edge">
<title>object&#45;&gt;appendable</title>
<path fill="none" stroke="black" d="M246.24,-440.87C275.34,-432.43 319.19,-417.44 353,-396 380.87,-378.33 407.53,-351.44 425.1,-331.84"/>
<polygon fill="black" stroke="black" points="427.85,-334.01 431.83,-324.19 422.59,-329.39 427.85,-334.01"/>
</g>
<!-- object&#45;&gt;indexed -->
<g id="edge19" class="edge">
<title>object&#45;&gt;indexed</title>
<path fill="none" stroke="black" d="M246.38,-446.98C309.5,-440.97 450.11,-417.22 501,-324 523.96,-281.94 516.17,-224.01 508.52,-190.32"/>
<polygon fill="black" stroke="black" points="511.84,-189.18 506.07,-180.29 505.04,-190.84 511.84,-189.18"/>
</g>
<!-- object&#45;&gt;sequential -->
<g id="edge20" class="edge">
<title>object&#45;&gt;sequential</title>
<path fill="none" stroke="black" d="M235.52,-431.7C245.87,-422.97 258.59,-412.24 269.84,-402.75"/>
<polygon fill="black" stroke="black" points="272.33,-405.23 277.72,-396.1 267.82,-399.88 272.33,-405.23"/>
</g>
<!-- clearable -->
<g id="node14" class="node">
<title>clearable</title>
<g id="a_node14"><a xlink:href="PsyllaReference_Types.xhtml#PsyllaReference_Types_Details_clearable" xlink:title="clearable" target="_parent">
<polygon fill="linen" stroke="black" points="251,-252 173,-252 173,-216 257,-216 257,-246 251,-252"/>
<polyline fill="none" stroke="black" points="251,-252 251,-246 "/>
<polyline fill="none" stroke="black" points="257,-246 251,-246 "/>
<text text-anchor="middle" x="215" y="-230.9" font-family="Consolas, monospace" font-size="12.00">clearable</text>
</a>
</g>
</g>
<!-- object&#45;&gt;clearable -->
<g id="edge22" class="edge">
<title>object&#45;&gt;clearable</title>
<path fill="none" stroke="black" d="M215,-431.85C215,-394.83 215,-307.18 215,-262.39"/>
<polygon fill="black" stroke="black" points="218.5,-262.23 215,-252.23 211.5,-262.23 218.5,-262.23"/>
</g>
<!-- streamable&#45;&gt;iterable -->
<g id="edge12" class="edge">
<title>streamable&#45;&gt;iterable</title>
<path fill="none" stroke="black" d="M301.96,-287.7C303.72,-279.98 305.84,-270.71 307.8,-262.11"/>
<polygon fill="black" stroke="black" points="311.27,-262.63 310.09,-252.1 304.45,-261.07 311.27,-262.63"/>
</g>
<!-- clearable&#45;&gt;container -->
<g id="edge16" class="edge">
<title>clearable&#45;&gt;container</title>
<path fill="none" stroke="black" d="M226.87,-215.7C232.5,-207.47 239.35,-197.48 245.57,-188.42"/>
<polygon fill="black" stroke="black" points="248.5,-190.33 251.27,-180.1 242.73,-186.37 248.5,-190.33"/>
</g>
</g>
</svg>
